<?xml version="1.0" encoding="UTF-8" standalone="no"?>
<!DOCTYPE svg PUBLIC "-//W3C//DTD SVG 1.1//EN"
 "http://www.w3.org/Graphics/SVG/1.1/DTD/svg11.dtd">
<!-- Generated by graphviz version 2.43.0 (0)
 -->
<!-- Title: src/ds/champ_map.h Pages: 1 -->
<!--zoomable 302 -->
<svg id="main" version="1.1" xmlns="http://www.w3.org/2000/svg" xmlns:xlink="http://www.w3.org/1999/xlink" xml:space="preserve" onload="init(evt)">
<style type="text/css"><![CDATA[
.edge:hover path { stroke: red; }
.edge:hover polygon { stroke: red; fill: red; }
]]></style>
<script type="text/javascript"><![CDATA[
var edges = document.getElementsByTagName('g');
if (edges && edges.length) {
  for (var i=0;i<edges.length;i++) {
    if (edges[i].id.substr(0,4)=='edge') {
      edges[i].setAttribute('class','edge');
    }
  }
}
]]></script>
        <defs>
                <circle id="rim" cx="0" cy="0" r="7"/>
                <circle id="rim2" cx="0" cy="0" r="3.5"/>
                <g id="zoomPlus">
                        <use xlink:href="#rim" fill="#404040">
                                <set attributeName="fill" to="#808080" begin="zoomplus.mouseover" end="zoomplus.mouseout"/>
                        </use>
                        <path d="M-4,0h8M0,-4v8" fill="none" stroke="white" stroke-width="1.5" pointer-events="none"/>
                </g>
                <g id="zoomMin">
                        <use xlink:href="#rim" fill="#404040">
                                <set attributeName="fill" to="#808080" begin="zoomminus.mouseover" end="zoomminus.mouseout"/>
                        </use>
                        <path d="M-4,0h8" fill="none" stroke="white" stroke-width="1.5" pointer-events="none"/>
                </g>
                <g id="dirArrow">
                        <path fill="none" stroke="white" stroke-width="1.5" d="M0,-3.0v7 M-2.5,-0.5L0,-3.0L2.5,-0.5"/>
                </g>
               <g id="resetDef">
                       <use xlink:href="#rim2" fill="#404040">
                               <set attributeName="fill" to="#808080" begin="reset.mouseover" end="reset.mouseout"/>
                       </use>
               </g>
        </defs>

<script type="text/javascript">
var viewWidth = 1185;
var viewHeight = 302;
var sectionId = 'dynsection-0';
</script>
<script xlink:href="svgpan.js"/>
<svg id="graph" class="graph">
<g id="viewport">
<title>src/ds/champ_map.h</title>
<!-- Node1 -->
<g id="node1" class="node">
<title>Node1</title>
<g id="a_node1"><a xlink:title=" ">
<polygon fill="#999999" stroke="#666666" points="932.5,-294 815.5,-294 815.5,-275 932.5,-275 932.5,-294"/>
<text text-anchor="middle" x="874" y="-282" font-family="Helvetica,sans-Serif" font-size="10.00">src/ds/champ_map.h</text>
</a>
</g>
</g>
<!-- Node2 -->
<g id="node2" class="node">
<title>Node2</title>
<g id="a_node2"><a xlink:href="ccf__assert_8h.html" target="_top" xlink:title=" ">
<polygon fill="white" stroke="#666666" points="401,-184 309,-184 309,-165 401,-165 401,-184"/>
<text text-anchor="middle" x="355" y="-172" font-family="Helvetica,sans-Serif" font-size="10.00">ccf/ccf_assert.h</text>
</a>
</g>
</g>
<!-- Node1&#45;&gt;Node2 -->
<g id="edge1" class="edge">
<title>Node1&#45;&gt;Node2</title>
<path fill="none" stroke="#63b8ff" d="M815.1,-281.56C712,-277.51 503.35,-266.14 436,-239 409.99,-228.52 385.43,-207.02 370.32,-191.96"/>
<polygon fill="#63b8ff" stroke="#63b8ff" points="372.42,-189.1 362.94,-184.36 367.39,-193.97 372.42,-189.1"/>
</g>
<!-- Node15 -->
<g id="node15" class="node">
<title>Node15</title>
<g id="a_node15"><a xlink:title=" ">
<polygon fill="#e0e0e0" stroke="#999999" points="56,-74 0,-74 0,-55 56,-55 56,-74"/>
<text text-anchor="middle" x="28" y="-62" font-family="Helvetica,sans-Serif" font-size="10.00">optional</text>
</a>
</g>
</g>
<!-- Node1&#45;&gt;Node15 -->
<g id="edge40" class="edge">
<title>Node1&#45;&gt;Node15</title>
<path fill="none" stroke="#63b8ff" d="M815.35,-284.34C724.81,-284.22 546.29,-278.37 401,-239 260.57,-200.95 107.44,-113.59 50.75,-79.49"/>
<polygon fill="#63b8ff" stroke="#63b8ff" points="52.26,-76.32 41.9,-74.13 48.64,-82.31 52.26,-76.32"/>
</g>
<!-- Node18 -->
<g id="node18" class="node">
<title>Node18</title>
<g id="a_node18"><a xlink:href="include_2ccf_2ds_2hash_8h.html" target="_top" xlink:title=" ">
<polygon fill="white" stroke="#666666" points="801,-239 721,-239 721,-220 801,-220 801,-239"/>
<text text-anchor="middle" x="761" y="-227" font-family="Helvetica,sans-Serif" font-size="10.00">ccf/ds/hash.h</text>
</a>
</g>
</g>
<!-- Node1&#45;&gt;Node18 -->
<g id="edge19" class="edge">
<title>Node1&#45;&gt;Node18</title>
<path fill="none" stroke="#63b8ff" d="M855.84,-274.98C837.75,-266.5 809.72,-253.35 788.81,-243.54"/>
<polygon fill="#63b8ff" stroke="#63b8ff" points="790.03,-240.25 779.49,-239.17 787.05,-246.59 790.03,-240.25"/>
</g>
<!-- Node22 -->
<g id="node22" class="node">
<title>Node22</title>
<g id="a_node22"><a xlink:title=" ">
<polygon fill="#e0e0e0" stroke="#999999" points="787.5,-129 740.5,-129 740.5,-110 787.5,-110 787.5,-129"/>
<text text-anchor="middle" x="764" y="-117" font-family="Helvetica,sans-Serif" font-size="10.00">vector</text>
</a>
</g>
</g>
<!-- Node1&#45;&gt;Node22 -->
<g id="edge41" class="edge">
<title>Node1&#45;&gt;Node22</title>
<path fill="none" stroke="#63b8ff" d="M894.42,-274.93C936.56,-256.07 1026.3,-209.14 990,-165 977.87,-150.25 858,-132.73 797.94,-124.79"/>
<polygon fill="#63b8ff" stroke="#63b8ff" points="798.17,-121.29 787.8,-123.47 797.26,-128.24 798.17,-121.29"/>
</g>
<!-- Node23 -->
<g id="node23" class="node">
<title>Node23</title>
<g id="a_node23"><a xlink:title=" ">
<polygon fill="#e0e0e0" stroke="#999999" points="981,-184 939,-184 939,-165 981,-165 981,-184"/>
<text text-anchor="middle" x="960" y="-172" font-family="Helvetica,sans-Serif" font-size="10.00">array</text>
</a>
</g>
</g>
<!-- Node1&#45;&gt;Node23 -->
<g id="edge38" class="edge">
<title>Node1&#45;&gt;Node23</title>
<path fill="none" stroke="#63b8ff" d="M881.04,-274.66C895.41,-256.61 928.33,-215.28 946.8,-192.08"/>
<polygon fill="#63b8ff" stroke="#63b8ff" points="949.61,-194.16 953.11,-184.16 944.14,-189.8 949.61,-194.16"/>
</g>
<!-- Node25 -->
<g id="node25" class="node">
<title>Node25</title>
<g id="a_node25"><a xlink:href="map__serializers_8h.html" target="_top" xlink:title=" ">
<polygon fill="white" stroke="#666666" points="562.5,-239 445.5,-239 445.5,-220 562.5,-220 562.5,-239"/>
<text text-anchor="middle" x="504" y="-227" font-family="Helvetica,sans-Serif" font-size="10.00">ds/map_serializers.h</text>
</a>
</g>
</g>
<!-- Node1&#45;&gt;Node25 -->
<g id="edge28" class="edge">
<title>Node1&#45;&gt;Node25</title>
<path fill="none" stroke="#63b8ff" d="M815.37,-275.1C749.44,-265.66 642.47,-250.34 572.68,-240.34"/>
<polygon fill="#63b8ff" stroke="#63b8ff" points="573.05,-236.86 562.66,-238.9 572.06,-243.79 573.05,-236.86"/>
</g>
<!-- Node31 -->
<g id="node31" class="node">
<title>Node31</title>
<g id="a_node31"><a xlink:title=" ">
<polygon fill="#e0e0e0" stroke="#999999" points="1101,-239 1037,-239 1037,-220 1101,-220 1101,-239"/>
<text text-anchor="middle" x="1069" y="-227" font-family="Helvetica,sans-Serif" font-size="10.00">algorithm</text>
</a>
</g>
</g>
<!-- Node1&#45;&gt;Node31 -->
<g id="edge37" class="edge">
<title>Node1&#45;&gt;Node31</title>
<path fill="none" stroke="#63b8ff" d="M905.33,-274.98C938.49,-265.97 991,-251.7 1027.56,-241.76"/>
<polygon fill="#63b8ff" stroke="#63b8ff" points="1028.69,-245.08 1037.42,-239.08 1026.86,-238.33 1028.69,-245.08"/>
</g>
<!-- Node32 -->
<g id="node32" class="node">
<title>Node32</title>
<g id="a_node32"><a xlink:title=" ">
<polygon fill="#e0e0e0" stroke="#999999" points="1177,-239 1119,-239 1119,-220 1177,-220 1177,-239"/>
<text text-anchor="middle" x="1148" y="-227" font-family="Helvetica,sans-Serif" font-size="10.00">memory</text>
</a>
</g>
</g>
<!-- Node1&#45;&gt;Node32 -->
<g id="edge39" class="edge">
<title>Node1&#45;&gt;Node32</title>
<path fill="none" stroke="#63b8ff" d="M922.01,-274.94C967.61,-266.69 1038.36,-253.62 1109.01,-239.15"/>
<polygon fill="#63b8ff" stroke="#63b8ff" points="1109.89,-242.54 1118.98,-237.1 1108.48,-235.69 1109.89,-242.54"/>
</g>
<!-- Node3 -->
<g id="node3" class="node">
<title>Node3</title>
<g id="a_node3"><a xlink:href="logger_8h.html" target="_top" xlink:title=" ">
<polygon fill="white" stroke="#666666" points="397.5,-129 310.5,-129 310.5,-110 397.5,-110 397.5,-129"/>
<text text-anchor="middle" x="354" y="-117" font-family="Helvetica,sans-Serif" font-size="10.00">ccf/ds/logger.h</text>
</a>
</g>
</g>
<!-- Node2&#45;&gt;Node3 -->
<g id="edge2" class="edge">
<title>Node2&#45;&gt;Node3</title>
<path fill="none" stroke="#63b8ff" d="M354.83,-164.75C354.7,-157.8 354.52,-147.85 354.35,-139.13"/>
<polygon fill="#63b8ff" stroke="#63b8ff" points="357.85,-139.02 354.16,-129.09 350.85,-139.15 357.85,-139.02"/>
</g>
<!-- Node4 -->
<g id="node4" class="node">
<title>Node4</title>
<g id="a_node4"><a xlink:href="enum__formatter_8h.html" target="_top" xlink:title=" ">
<polygon fill="white" stroke="#666666" points="675,-74 539,-74 539,-55 675,-55 675,-74"/>
<text text-anchor="middle" x="607" y="-62" font-family="Helvetica,sans-Serif" font-size="10.00">ccf/ds/enum_formatter.h</text>
</a>
</g>
</g>
<!-- Node3&#45;&gt;Node4 -->
<g id="edge3" class="edge">
<title>Node3&#45;&gt;Node4</title>
<path fill="none" stroke="#63b8ff" d="M394.65,-109.98C438.5,-100.8 508.42,-86.15 555.95,-76.19"/>
<polygon fill="#63b8ff" stroke="#63b8ff" points="556.96,-79.56 566.03,-74.08 555.53,-72.71 556.96,-79.56"/>
</g>
<!-- Node5 -->
<g id="node5" class="node">
<title>Node5</title>
<g id="a_node5"><a xlink:title=" ">
<polygon fill="#e0e0e0" stroke="#999999" points="646.5,-19 567.5,-19 567.5,0 646.5,0 646.5,-19"/>
<text text-anchor="middle" x="607" y="-7" font-family="Helvetica,sans-Serif" font-size="10.00">fmt/format.h</text>
</a>
</g>
</g>
<!-- Node3&#45;&gt;Node5 -->
<g id="edge13" class="edge">
<title>Node3&#45;&gt;Node5</title>
<path fill="none" stroke="#63b8ff" d="M397.66,-111.39C400.82,-110.91 403.96,-110.44 407,-110 468.43,-101.08 643.03,-120.64 684,-74 701.7,-53.85 669.86,-34.86 641.91,-22.99"/>
<polygon fill="#63b8ff" stroke="#63b8ff" points="642.86,-19.59 632.27,-19.09 640.23,-26.09 642.86,-19.59"/>
</g>
<!-- Node6 -->
<g id="node6" class="node">
<title>Node6</title>
<g id="a_node6"><a xlink:href="thread__ids_8h.html" target="_top" xlink:title=" ">
<polygon fill="white" stroke="#666666" points="854,-74 746,-74 746,-55 854,-55 854,-74"/>
<text text-anchor="middle" x="800" y="-62" font-family="Helvetica,sans-Serif" font-size="10.00">ccf/ds/thread_ids.h</text>
</a>
</g>
</g>
<!-- Node3&#45;&gt;Node6 -->
<g id="edge5" class="edge">
<title>Node3&#45;&gt;Node6</title>
<path fill="none" stroke="#63b8ff" d="M397.65,-111.34C400.81,-110.87 403.95,-110.42 407,-110 468.87,-101.54 641.19,-82.64 735.79,-72.4"/>
<polygon fill="#63b8ff" stroke="#63b8ff" points="736.25,-75.88 745.81,-71.32 735.5,-68.92 736.25,-75.88"/>
</g>
<!-- Node12 -->
<g id="node12" class="node">
<title>Node12</title>
<g id="a_node12"><a xlink:title=" ">
<polygon fill="#e0e0e0" stroke="#999999" points="153.5,-74 74.5,-74 74.5,-55 153.5,-55 153.5,-74"/>
<text text-anchor="middle" x="114" y="-62" font-family="Helvetica,sans-Serif" font-size="10.00">fmt/chrono.h</text>
</a>
</g>
</g>
<!-- Node3&#45;&gt;Node12 -->
<g id="edge12" class="edge">
<title>Node3&#45;&gt;Node12</title>
<path fill="none" stroke="#63b8ff" d="M315.44,-109.98C273.93,-100.82 207.79,-86.21 162.71,-76.26"/>
<polygon fill="#63b8ff" stroke="#63b8ff" points="163.38,-72.82 152.86,-74.08 161.87,-79.66 163.38,-72.82"/>
</g>
<!-- Node13 -->
<g id="node13" class="node">
<title>Node13</title>
<g id="a_node13"><a xlink:title=" ">
<polygon fill="#e0e0e0" stroke="#999999" points="231,-74 171,-74 171,-55 231,-55 231,-74"/>
<text text-anchor="middle" x="201" y="-62" font-family="Helvetica,sans-Serif" font-size="10.00">iostream</text>
</a>
</g>
</g>
<!-- Node3&#45;&gt;Node13 -->
<g id="edge14" class="edge">
<title>Node3&#45;&gt;Node13</title>
<path fill="none" stroke="#63b8ff" d="M329.42,-109.98C303.95,-101.16 263.96,-87.31 235.37,-77.41"/>
<polygon fill="#63b8ff" stroke="#63b8ff" points="236.37,-74.05 225.77,-74.08 234.08,-80.66 236.37,-74.05"/>
</g>
<!-- Node14 -->
<g id="node14" class="node">
<title>Node14</title>
<g id="a_node14"><a xlink:title=" ">
<polygon fill="#e0e0e0" stroke="#999999" points="359,-74 249,-74 249,-55 359,-55 359,-74"/>
<text text-anchor="middle" x="304" y="-62" font-family="Helvetica,sans-Serif" font-size="10.00">nlohmann/json.hpp</text>
</a>
</g>
</g>
<!-- Node3&#45;&gt;Node14 -->
<g id="edge15" class="edge">
<title>Node3&#45;&gt;Node14</title>
<path fill="none" stroke="#63b8ff" d="M345.74,-109.75C338.54,-102.11 327.89,-90.82 319.15,-81.56"/>
<polygon fill="#63b8ff" stroke="#63b8ff" points="321.51,-78.96 312.1,-74.09 316.42,-83.76 321.51,-78.96"/>
</g>
<!-- Node3&#45;&gt;Node15 -->
<g id="edge16" class="edge">
<title>Node3&#45;&gt;Node15</title>
<path fill="none" stroke="#63b8ff" d="M310.25,-112.78C255.49,-105.39 158.62,-91.59 66.31,-74.13"/>
<polygon fill="#63b8ff" stroke="#63b8ff" points="66.72,-70.65 56.24,-72.21 65.4,-77.52 66.72,-70.65"/>
</g>
<!-- Node16 -->
<g id="node16" class="node">
<title>Node16</title>
<g id="a_node16"><a xlink:title=" ">
<polygon fill="#e0e0e0" stroke="#999999" points="433,-74 377,-74 377,-55 433,-55 433,-74"/>
<text text-anchor="middle" x="405" y="-62" font-family="Helvetica,sans-Serif" font-size="10.00">sstream</text>
</a>
</g>
</g>
<!-- Node3&#45;&gt;Node16 -->
<g id="edge17" class="edge">
<title>Node3&#45;&gt;Node16</title>
<path fill="none" stroke="#63b8ff" d="M362.42,-109.75C369.77,-102.11 380.63,-90.82 389.54,-81.56"/>
<polygon fill="#63b8ff" stroke="#63b8ff" points="392.32,-83.72 396.74,-74.09 387.28,-78.87 392.32,-83.72"/>
</g>
<!-- Node17 -->
<g id="node17" class="node">
<title>Node17</title>
<g id="a_node17"><a xlink:title=" ">
<polygon fill="#e0e0e0" stroke="#999999" points="520.5,-74 451.5,-74 451.5,-55 520.5,-55 520.5,-74"/>
<text text-anchor="middle" x="486" y="-62" font-family="Helvetica,sans-Serif" font-size="10.00">type_traits</text>
</a>
</g>
</g>
<!-- Node3&#45;&gt;Node17 -->
<g id="edge18" class="edge">
<title>Node3&#45;&gt;Node17</title>
<path fill="none" stroke="#63b8ff" d="M375.21,-109.98C396.73,-101.34 430.28,-87.87 454.83,-78.02"/>
<polygon fill="#63b8ff" stroke="#63b8ff" points="456.43,-81.14 464.41,-74.17 453.82,-74.65 456.43,-81.14"/>
</g>
<!-- Node4&#45;&gt;Node5 -->
<g id="edge4" class="edge">
<title>Node4&#45;&gt;Node5</title>
<path fill="none" stroke="#63b8ff" d="M607,-54.75C607,-47.8 607,-37.85 607,-29.13"/>
<polygon fill="#63b8ff" stroke="#63b8ff" points="610.5,-29.09 607,-19.09 603.5,-29.09 610.5,-29.09"/>
</g>
<!-- Node6&#45;&gt;Node5 -->
<g id="edge6" class="edge">
<title>Node6&#45;&gt;Node5</title>
<path fill="none" stroke="#63b8ff" d="M768.99,-54.98C736.17,-45.97 684.2,-31.7 648.01,-21.76"/>
<polygon fill="#63b8ff" stroke="#63b8ff" points="648.82,-18.36 638.25,-19.08 646.97,-25.11 648.82,-18.36"/>
</g>
<!-- Node7 -->
<g id="node7" class="node">
<title>Node7</title>
<g id="a_node7"><a xlink:title=" ">
<polygon fill="#e0e0e0" stroke="#999999" points="751,-19 665,-19 665,0 751,0 751,-19"/>
<text text-anchor="middle" x="708" y="-7" font-family="Helvetica,sans-Serif" font-size="10.00">fmt/ostream.h</text>
</a>
</g>
</g>
<!-- Node6&#45;&gt;Node7 -->
<g id="edge7" class="edge">
<title>Node6&#45;&gt;Node7</title>
<path fill="none" stroke="#63b8ff" d="M785.22,-54.98C770.82,-46.69 748.69,-33.94 731.81,-24.22"/>
<polygon fill="#63b8ff" stroke="#63b8ff" points="733.46,-21.13 723.05,-19.17 729.97,-27.19 733.46,-21.13"/>
</g>
<!-- Node8 -->
<g id="node8" class="node">
<title>Node8</title>
<g id="a_node8"><a xlink:title=" ">
<polygon fill="#e0e0e0" stroke="#999999" points="830.5,-19 769.5,-19 769.5,0 830.5,0 830.5,-19"/>
<text text-anchor="middle" x="800" y="-7" font-family="Helvetica,sans-Serif" font-size="10.00">fmt/std.h</text>
</a>
</g>
</g>
<!-- Node6&#45;&gt;Node8 -->
<g id="edge8" class="edge">
<title>Node6&#45;&gt;Node8</title>
<path fill="none" stroke="#63b8ff" d="M800,-54.75C800,-47.8 800,-37.85 800,-29.13"/>
<polygon fill="#63b8ff" stroke="#63b8ff" points="803.5,-29.09 800,-19.09 796.5,-29.09 803.5,-29.09"/>
</g>
<!-- Node9 -->
<g id="node9" class="node">
<title>Node9</title>
<g id="a_node9"><a xlink:title=" ">
<polygon fill="#e0e0e0" stroke="#999999" points="893,-19 849,-19 849,0 893,0 893,-19"/>
<text text-anchor="middle" x="871" y="-7" font-family="Helvetica,sans-Serif" font-size="10.00">limits</text>
</a>
</g>
</g>
<!-- Node6&#45;&gt;Node9 -->
<g id="edge9" class="edge">
<title>Node6&#45;&gt;Node9</title>
<path fill="none" stroke="#63b8ff" d="M811.41,-54.98C822.11,-47 838.34,-34.88 851.16,-25.31"/>
<polygon fill="#63b8ff" stroke="#63b8ff" points="853.47,-27.96 859.39,-19.17 849.28,-22.35 853.47,-27.96"/>
</g>
<!-- Node10 -->
<g id="node10" class="node">
<title>Node10</title>
<g id="a_node10"><a xlink:title=" ">
<polygon fill="#e0e0e0" stroke="#999999" points="949,-19 911,-19 911,0 949,0 949,-19"/>
<text text-anchor="middle" x="930" y="-7" font-family="Helvetica,sans-Serif" font-size="10.00">map</text>
</a>
</g>
</g>
<!-- Node6&#45;&gt;Node10 -->
<g id="edge10" class="edge">
<title>Node6&#45;&gt;Node10</title>
<path fill="none" stroke="#63b8ff" d="M820.89,-54.98C842.71,-46.09 877.1,-32.07 901.44,-22.15"/>
<polygon fill="#63b8ff" stroke="#63b8ff" points="902.92,-25.32 910.86,-18.3 900.28,-18.84 902.92,-25.32"/>
</g>
<!-- Node11 -->
<g id="node11" class="node">
<title>Node11</title>
<g id="a_node11"><a xlink:title=" ">
<polygon fill="#e0e0e0" stroke="#999999" points="1015,-19 967,-19 967,0 1015,0 1015,-19"/>
<text text-anchor="middle" x="991" y="-7" font-family="Helvetica,sans-Serif" font-size="10.00">thread</text>
</a>
</g>
</g>
<!-- Node6&#45;&gt;Node11 -->
<g id="edge11" class="edge">
<title>Node6&#45;&gt;Node11</title>
<path fill="none" stroke="#63b8ff" d="M830.69,-54.98C865.14,-45.42 920.91,-29.95 956.76,-20"/>
<polygon fill="#63b8ff" stroke="#63b8ff" points="958.05,-23.28 966.75,-17.23 956.18,-16.53 958.05,-23.28"/>
</g>
<!-- Node19 -->
<g id="node19" class="node">
<title>Node19</title>
<g id="a_node19"><a xlink:href="siphash_8h.html" target="_top" xlink:title=" ">
<polygon fill="white" stroke="#666666" points="920.5,-184 825.5,-184 825.5,-165 920.5,-165 920.5,-184"/>
<text text-anchor="middle" x="873" y="-172" font-family="Helvetica,sans-Serif" font-size="10.00">ccf/ds/siphash.h</text>
</a>
</g>
</g>
<!-- Node18&#45;&gt;Node19 -->
<g id="edge20" class="edge">
<title>Node18&#45;&gt;Node19</title>
<path fill="none" stroke="#63b8ff" d="M778.99,-219.98C796.93,-211.5 824.72,-198.35 845.43,-188.54"/>
<polygon fill="#63b8ff" stroke="#63b8ff" points="847.14,-191.61 854.68,-184.17 844.14,-185.28 847.14,-191.61"/>
</g>
<!-- Node21 -->
<g id="node21" class="node">
<title>Node21</title>
<g id="a_node21"><a xlink:title=" ">
<polygon fill="#e0e0e0" stroke="#999999" points="680,-129 630,-129 630,-110 680,-110 680,-129"/>
<text text-anchor="middle" x="655" y="-117" font-family="Helvetica,sans-Serif" font-size="10.00">cstdint</text>
</a>
</g>
</g>
<!-- Node18&#45;&gt;Node21 -->
<g id="edge25" class="edge">
<title>Node18&#45;&gt;Node21</title>
<path fill="none" stroke="#63b8ff" d="M720.94,-225.2C693.48,-220.61 658.89,-209.72 641,-184 631.56,-170.43 637.5,-151.6 644.32,-137.98"/>
<polygon fill="#63b8ff" stroke="#63b8ff" points="647.44,-139.57 649.23,-129.12 641.32,-136.17 647.44,-139.57"/>
</g>
<!-- Node18&#45;&gt;Node22 -->
<g id="edge27" class="edge">
<title>Node18&#45;&gt;Node22</title>
<path fill="none" stroke="#63b8ff" d="M720.7,-221.67C680.7,-213.01 628.15,-195.42 649,-165 667.06,-138.65 703.13,-127.9 730.08,-123.52"/>
<polygon fill="#63b8ff" stroke="#63b8ff" points="730.85,-126.94 740.27,-122.08 729.88,-120.01 730.85,-126.94"/>
</g>
<!-- Node18&#45;&gt;Node23 -->
<g id="edge24" class="edge">
<title>Node18&#45;&gt;Node23</title>
<path fill="none" stroke="#63b8ff" d="M793.54,-219.97C827.4,-211.07 881.95,-196.68 929,-184 929.1,-183.97 929.2,-183.95 929.3,-183.92"/>
<polygon fill="#63b8ff" stroke="#63b8ff" points="930.26,-187.28 939,-181.29 928.43,-180.53 930.26,-187.28"/>
</g>
<!-- Node24 -->
<g id="node24" class="node">
<title>Node24</title>
<g id="a_node24"><a xlink:title=" ">
<polygon fill="#e0e0e0" stroke="#999999" points="807.5,-184 658.5,-184 658.5,-165 807.5,-165 807.5,-184"/>
<text text-anchor="middle" x="733" y="-172" font-family="Helvetica,sans-Serif" font-size="10.00">small_vector/SmallVector.h</text>
</a>
</g>
</g>
<!-- Node18&#45;&gt;Node24 -->
<g id="edge26" class="edge">
<title>Node18&#45;&gt;Node24</title>
<path fill="none" stroke="#63b8ff" d="M756.38,-219.75C752.54,-212.49 746.98,-201.95 742.24,-192.98"/>
<polygon fill="#63b8ff" stroke="#63b8ff" points="745.3,-191.3 737.54,-184.09 739.11,-194.57 745.3,-191.3"/>
</g>
<!-- Node20 -->
<g id="node20" class="node">
<title>Node20</title>
<g id="a_node20"><a xlink:title=" ">
<polygon fill="#e0e0e0" stroke="#999999" points="899.5,-129 846.5,-129 846.5,-110 899.5,-110 899.5,-129"/>
<text text-anchor="middle" x="873" y="-117" font-family="Helvetica,sans-Serif" font-size="10.00">cstddef</text>
</a>
</g>
</g>
<!-- Node19&#45;&gt;Node20 -->
<g id="edge21" class="edge">
<title>Node19&#45;&gt;Node20</title>
<path fill="none" stroke="#63b8ff" d="M873,-164.75C873,-157.8 873,-147.85 873,-139.13"/>
<polygon fill="#63b8ff" stroke="#63b8ff" points="876.5,-139.09 873,-129.09 869.5,-139.09 876.5,-139.09"/>
</g>
<!-- Node19&#45;&gt;Node21 -->
<g id="edge22" class="edge">
<title>Node19&#45;&gt;Node21</title>
<path fill="none" stroke="#63b8ff" d="M837.97,-164.98C797.25,-155.08 730.45,-138.84 689.82,-128.97"/>
<polygon fill="#63b8ff" stroke="#63b8ff" points="690.63,-125.56 680.09,-126.6 688.98,-132.36 690.63,-125.56"/>
</g>
<!-- Node19&#45;&gt;Node22 -->
<g id="edge23" class="edge">
<title>Node19&#45;&gt;Node22</title>
<path fill="none" stroke="#63b8ff" d="M855.49,-164.98C838.03,-156.5 810.99,-143.35 790.83,-133.54"/>
<polygon fill="#63b8ff" stroke="#63b8ff" points="792.36,-130.4 781.83,-129.17 789.29,-136.69 792.36,-130.4"/>
</g>
<!-- Node25&#45;&gt;Node2 -->
<g id="edge29" class="edge">
<title>Node25&#45;&gt;Node2</title>
<path fill="none" stroke="#63b8ff" d="M480.06,-219.98C455.44,-211.23 416.88,-197.51 389.08,-187.62"/>
<polygon fill="#63b8ff" stroke="#63b8ff" points="389.97,-184.22 379.38,-184.17 387.62,-190.82 389.97,-184.22"/>
</g>
<!-- Node26 -->
<g id="node26" class="node">
<title>Node26</title>
<g id="a_node26"><a xlink:href="serialized_8h.html" target="_top" xlink:title=" ">
<polygon fill="white" stroke="#666666" points="506.5,-184 419.5,-184 419.5,-165 506.5,-165 506.5,-184"/>
<text text-anchor="middle" x="463" y="-172" font-family="Helvetica,sans-Serif" font-size="10.00">ds/serialized.h</text>
</a>
</g>
</g>
<!-- Node25&#45;&gt;Node26 -->
<g id="edge30" class="edge">
<title>Node25&#45;&gt;Node26</title>
<path fill="none" stroke="#63b8ff" d="M497.23,-219.75C491.44,-212.26 482.94,-201.28 475.86,-192.13"/>
<polygon fill="#63b8ff" stroke="#63b8ff" points="478.53,-189.86 469.64,-184.09 472.99,-194.14 478.53,-189.86"/>
</g>
<!-- Node30 -->
<g id="node30" class="node">
<title>Node30</title>
<g id="a_node30"><a xlink:title=" ">
<polygon fill="#e0e0e0" stroke="#999999" points="565,-184 525,-184 525,-165 565,-165 565,-184"/>
<text text-anchor="middle" x="545" y="-172" font-family="Helvetica,sans-Serif" font-size="10.00">span</text>
</a>
</g>
</g>
<!-- Node25&#45;&gt;Node30 -->
<g id="edge36" class="edge">
<title>Node25&#45;&gt;Node30</title>
<path fill="none" stroke="#63b8ff" d="M510.77,-219.75C516.56,-212.26 525.06,-201.28 532.14,-192.13"/>
<polygon fill="#63b8ff" stroke="#63b8ff" points="535.01,-194.14 538.36,-184.09 529.47,-189.86 535.01,-194.14"/>
</g>
<!-- Node26&#45;&gt;Node21 -->
<g id="edge31" class="edge">
<title>Node26&#45;&gt;Node21</title>
<path fill="none" stroke="#63b8ff" d="M493.85,-164.98C528.2,-155.5 583.61,-140.21 619.67,-130.25"/>
<polygon fill="#63b8ff" stroke="#63b8ff" points="621.04,-133.51 629.75,-127.47 619.17,-126.76 621.04,-133.51"/>
</g>
<!-- Node26&#45;&gt;Node22 -->
<g id="edge35" class="edge">
<title>Node26&#45;&gt;Node22</title>
<path fill="none" stroke="#63b8ff" d="M506.77,-165.79C567.43,-155.11 675.74,-136.04 730.44,-126.41"/>
<polygon fill="#63b8ff" stroke="#63b8ff" points="731.07,-129.85 740.31,-124.67 729.86,-122.96 731.07,-129.85"/>
</g>
<!-- Node27 -->
<g id="node27" class="node">
<title>Node27</title>
<g id="a_node27"><a xlink:title=" ">
<polygon fill="#e0e0e0" stroke="#999999" points="466,-129 416,-129 416,-110 466,-110 466,-129"/>
<text text-anchor="middle" x="441" y="-117" font-family="Helvetica,sans-Serif" font-size="10.00">cstring</text>
</a>
</g>
</g>
<!-- Node26&#45;&gt;Node27 -->
<g id="edge32" class="edge">
<title>Node26&#45;&gt;Node27</title>
<path fill="none" stroke="#63b8ff" d="M459.37,-164.75C456.42,-157.65 452.17,-147.4 448.49,-138.56"/>
<polygon fill="#63b8ff" stroke="#63b8ff" points="451.63,-136.98 444.57,-129.09 445.17,-139.67 451.63,-136.98"/>
</g>
<!-- Node28 -->
<g id="node28" class="node">
<title>Node28</title>
<g id="a_node28"><a xlink:title=" ">
<polygon fill="#e0e0e0" stroke="#999999" points="549.5,-129 484.5,-129 484.5,-110 549.5,-110 549.5,-129"/>
<text text-anchor="middle" x="517" y="-117" font-family="Helvetica,sans-Serif" font-size="10.00">stdexcept</text>
</a>
</g>
</g>
<!-- Node26&#45;&gt;Node28 -->
<g id="edge33" class="edge">
<title>Node26&#45;&gt;Node28</title>
<path fill="none" stroke="#63b8ff" d="M471.92,-164.75C479.78,-157.03 491.43,-145.6 500.92,-136.28"/>
<polygon fill="#63b8ff" stroke="#63b8ff" points="503.56,-138.59 508.25,-129.09 498.66,-133.6 503.56,-138.59"/>
</g>
<!-- Node29 -->
<g id="node29" class="node">
<title>Node29</title>
<g id="a_node29"><a xlink:title=" ">
<polygon fill="#e0e0e0" stroke="#999999" points="612,-129 568,-129 568,-110 612,-110 612,-129"/>
<text text-anchor="middle" x="590" y="-117" font-family="Helvetica,sans-Serif" font-size="10.00">string</text>
</a>
</g>
</g>
<!-- Node26&#45;&gt;Node29 -->
<g id="edge34" class="edge">
<title>Node26&#45;&gt;Node29</title>
<path fill="none" stroke="#63b8ff" d="M483.4,-164.98C504.02,-156.38 536.11,-142.99 559.69,-133.15"/>
<polygon fill="#63b8ff" stroke="#63b8ff" points="561.34,-136.25 569.22,-129.17 558.65,-129.79 561.34,-136.25"/>
</g>
</g>
</svg>
        <g id="navigator" transform="translate(0 0)" fill="#404254">
                <rect fill="#f2f5e9" fill-opacity="0.5" stroke="#606060" stroke-width=".5" x="0" y="0" width="60" height="60"/>
                <use id="zoomplus" xlink:href="#zoomPlus" x="17" y="9" onmousedown="handleZoom(evt,'in')"/>
                <use id="zoomminus" xlink:href="#zoomMin" x="42" y="9" onmousedown="handleZoom(evt,'out')"/>
                <use id="reset" xlink:href="#resetDef" x="30" y="36" onmousedown="handleReset()"/>
                <g id="arrowUp" xlink:href="#dirArrow" transform="translate(30 24)" onmousedown="handlePan(0,-1)">
                  <use xlink:href="#rim" fill="#404040">
                        <set attributeName="fill" to="#808080" begin="arrowUp.mouseover" end="arrowUp.mouseout"/>
                  </use>
                  <path fill="none" stroke="white" stroke-width="1.5" d="M0,-3.0v7 M-2.5,-0.5L0,-3.0L2.5,-0.5"/>
                </g>
                <g id="arrowRight" xlink:href="#dirArrow" transform="rotate(90) translate(36 -43)" onmousedown="handlePan(1,0)">
                  <use xlink:href="#rim" fill="#404040">
                        <set attributeName="fill" to="#808080" begin="arrowRight.mouseover" end="arrowRight.mouseout"/>
                  </use>
                  <path fill="none" stroke="white" stroke-width="1.5" d="M0,-3.0v7 M-2.5,-0.5L0,-3.0L2.5,-0.5"/>
                </g>
                <g id="arrowDown" xlink:href="#dirArrow" transform="rotate(180) translate(-30 -48)" onmousedown="handlePan(0,1)">
                  <use xlink:href="#rim" fill="#404040">
                        <set attributeName="fill" to="#808080" begin="arrowDown.mouseover" end="arrowDown.mouseout"/>
                  </use>
                  <path fill="none" stroke="white" stroke-width="1.5" d="M0,-3.0v7 M-2.5,-0.5L0,-3.0L2.5,-0.5"/>
                </g>
                <g id="arrowLeft" xlink:href="#dirArrow" transform="rotate(270) translate(-36 17)" onmousedown="handlePan(-1,0)">
                  <use xlink:href="#rim" fill="#404040">
                        <set attributeName="fill" to="#808080" begin="arrowLeft.mouseover" end="arrowLeft.mouseout"/>
                  </use>
                  <path fill="none" stroke="white" stroke-width="1.5" d="M0,-3.0v7 M-2.5,-0.5L0,-3.0L2.5,-0.5"/>
                </g>
        </g>
        <svg viewBox="0 0 15 15" width="100%" height="30px" preserveAspectRatio="xMaxYMin meet">
         <g id="arrow_out" transform="scale(0.3 0.3)">
          <a xlink:href="champ__map_8h__incl_org.svg" target="_base">
           <rect id="button" ry="5" rx="5" y="6" x="6" height="38" width="38"
                fill="#f2f5e9" fill-opacity="0.5" stroke="#606060" stroke-width="1.0"/>
           <path id="arrow"
             d="M 11.500037,31.436501 C 11.940474,20.09759 22.043105,11.32322 32.158766,21.979434 L 37.068811,17.246167 C 37.068811,17.246167 37.088388,32 37.088388,32 L 22.160133,31.978069 C 22.160133,31.978069 26.997745,27.140456 26.997745,27.140456 C 18.528582,18.264221 13.291696,25.230495 11.500037,31.436501 z"
             style="fill:#404040;"/>
          </a>
         </g>
        </svg>
</svg>
