<?xml version="1.0" encoding="UTF-8" standalone="no"?>
<!DOCTYPE svg PUBLIC "-//W3C//DTD SVG 1.1//EN"
 "http://www.w3.org/Graphics/SVG/1.1/DTD/svg11.dtd">
<!-- Generated by graphviz version 2.43.0 (0)
 -->
<!-- Title: kv::MapHandle&lt; K, V, KSerialiser, VSerialiser &gt; Pages: 1 -->
<svg width="1174pt" height="242pt"
 viewBox="0.00 0.00 1174.00 241.50" xmlns="http://www.w3.org/2000/svg" xmlns:xlink="http://www.w3.org/1999/xlink">
<g id="graph0" class="graph" transform="scale(1 1) rotate(0) translate(4 237.5)">
<title>kv::MapHandle&lt; K, V, KSerialiser, VSerialiser &gt;</title>
<!-- Node1 -->
<g id="node1" class="node">
<title>Node1</title>
<g id="a_node1"><a xlink:title=" ">
<polygon fill="#999999" stroke="#666666" points="1166,-152 1024,-152 1024,-122 1166,-122 1166,-152"/>
<text text-anchor="start" x="1032" y="-140" font-family="Helvetica,sans-Serif" font-size="10.00">kv::MapHandle&lt; K, V,</text>
<text text-anchor="middle" x="1095" y="-129" font-family="Helvetica,sans-Serif" font-size="10.00"> KSerialiser, VSerialiser &gt;</text>
</a>
</g>
</g>
<!-- Node2 -->
<g id="node2" class="node">
<title>Node2</title>
<g id="a_node2"><a xlink:href="classkv_1_1AbstractHandle.html" target="_top" xlink:title=" ">
<polygon fill="white" stroke="#666666" points="466.5,-192.5 357.5,-192.5 357.5,-173.5 466.5,-173.5 466.5,-192.5"/>
<text text-anchor="middle" x="412" y="-180.5" font-family="Helvetica,sans-Serif" font-size="10.00">kv::AbstractHandle</text>
</a>
</g>
</g>
<!-- Node2&#45;&gt;Node1 -->
<g id="edge1" class="edge">
<title>Node2&#45;&gt;Node1</title>
<path fill="none" stroke="#63b8ff" d="M476.79,-180.6C585.55,-176.21 813.74,-165.67 1006,-148 1011.83,-147.46 1017.86,-146.85 1023.92,-146.18"/>
<polygon fill="#63b8ff" stroke="#63b8ff" points="476.5,-177.11 466.65,-181.01 476.78,-184.11 476.5,-177.11"/>
</g>
<!-- Node4 -->
<g id="node4" class="node">
<title>Node4</title>
<g id="a_node4"><a xlink:href="classkv_1_1untyped_1_1MapHandle.html" target="_top" xlink:title=" ">
<polygon fill="white" stroke="#666666" points="708,-115.5 573,-115.5 573,-96.5 708,-96.5 708,-115.5"/>
<text text-anchor="middle" x="640.5" y="-103.5" font-family="Helvetica,sans-Serif" font-size="10.00">kv::untyped::MapHandle</text>
</a>
</g>
</g>
<!-- Node2&#45;&gt;Node4 -->
<g id="edge4" class="edge">
<title>Node2&#45;&gt;Node4</title>
<path fill="none" stroke="#63b8ff" d="M458.85,-170.76C486.86,-162.96 523.27,-152.23 555,-141 576.85,-133.27 601.27,-122.97 618.21,-115.55"/>
<polygon fill="#63b8ff" stroke="#63b8ff" points="457.64,-167.46 448.93,-173.5 459.5,-174.21 457.64,-167.46"/>
</g>
<!-- Node3 -->
<g id="node3" class="node">
<title>Node3</title>
<g id="a_node3"><a xlink:href="classkv_1_1ReadableMapHandle.html" target="_top" xlink:title=" ">
<polygon fill="white" stroke="#666666" points="966.5,-115.5 831.5,-115.5 831.5,-74.5 966.5,-74.5 966.5,-115.5"/>
<text text-anchor="start" x="839.5" y="-103.5" font-family="Helvetica,sans-Serif" font-size="10.00">kv::ReadableMapHandle</text>
<text text-anchor="start" x="839.5" y="-92.5" font-family="Helvetica,sans-Serif" font-size="10.00">&lt; K, V, KSerialiser,</text>
<text text-anchor="middle" x="899" y="-81.5" font-family="Helvetica,sans-Serif" font-size="10.00"> VSerialiser &gt;</text>
</a>
</g>
</g>
<!-- Node3&#45;&gt;Node1 -->
<g id="edge2" class="edge">
<title>Node3&#45;&gt;Node1</title>
<path fill="none" stroke="#63b8ff" d="M976.95,-111.66C992.64,-115.06 1009.06,-118.61 1024.47,-121.95"/>
<polygon fill="#63b8ff" stroke="#63b8ff" points="977.28,-108.15 966.76,-109.45 975.8,-114.99 977.28,-108.15"/>
</g>
<!-- Node4&#45;&gt;Node1 -->
<g id="edge15" class="edge">
<title>Node4&#45;&gt;Node1</title>
<path fill="none" stroke="#9a32cd" stroke-dasharray="5,2" d="M718.37,-116.12C720.94,-116.43 723.49,-116.72 726,-117 763.71,-121.23 773.14,-122.42 811,-125 883.49,-129.94 966.57,-133.18 1023.87,-135.03"/>
<polygon fill="#9a32cd" stroke="#9a32cd" points="718.7,-112.64 708.35,-114.93 717.87,-119.59 718.7,-112.64"/>
<text text-anchor="middle" x="899" y="-136" font-family="Helvetica,sans-Serif" font-size="10.00"> untyped_handle</text>
</g>
<!-- Node4&#45;&gt;Node3 -->
<g id="edge3" class="edge">
<title>Node4&#45;&gt;Node3</title>
<path fill="none" stroke="#9a32cd" stroke-dasharray="5,2" d="M718.64,-102.69C754.48,-101.15 796.7,-99.34 831.17,-97.87"/>
<polygon fill="#9a32cd" stroke="#9a32cd" points="718.06,-99.21 708.22,-103.14 718.36,-106.21 718.06,-99.21"/>
<text text-anchor="middle" x="759.5" y="-105" font-family="Helvetica,sans-Serif" font-size="10.00"> read_handle</text>
</g>
<!-- Node13 -->
<g id="node13" class="node">
<title>Node13</title>
<g id="a_node13"><a xlink:href="classkv_1_1WriteableMapHandle.html" target="_top" xlink:title=" ">
<polygon fill="white" stroke="#666666" points="987,-56 811,-56 811,-26 987,-26 987,-56"/>
<text text-anchor="start" x="819" y="-44" font-family="Helvetica,sans-Serif" font-size="10.00">kv::WriteableMapHandle</text>
<text text-anchor="middle" x="899" y="-33" font-family="Helvetica,sans-Serif" font-size="10.00">&lt; K, V, KSerialiser, VSerialiser &gt;</text>
</a>
</g>
</g>
<!-- Node4&#45;&gt;Node13 -->
<g id="edge14" class="edge">
<title>Node4&#45;&gt;Node13</title>
<path fill="none" stroke="#9a32cd" stroke-dasharray="5,2" d="M687.78,-93.86C700.19,-90.63 713.6,-87.16 726,-84 762.83,-74.6 804.16,-64.26 837.07,-56.08"/>
<polygon fill="#9a32cd" stroke="#9a32cd" points="686.87,-90.48 678.08,-96.39 688.64,-97.26 686.87,-90.48"/>
<text text-anchor="middle" x="759.5" y="-87" font-family="Helvetica,sans-Serif" font-size="10.00"> write_handle</text>
</g>
<!-- Node5 -->
<g id="node5" class="node">
<title>Node5</title>
<g id="a_node5"><a xlink:href="structkv_1_1untyped_1_1ChangeSet.html" target="_top" xlink:title=" ">
<polygon fill="white" stroke="#666666" points="478,-148.5 346,-148.5 346,-129.5 478,-129.5 478,-148.5"/>
<text text-anchor="middle" x="412" y="-136.5" font-family="Helvetica,sans-Serif" font-size="10.00">kv::untyped::ChangeSet</text>
</a>
</g>
</g>
<!-- Node5&#45;&gt;Node4 -->
<g id="edge5" class="edge">
<title>Node5&#45;&gt;Node4</title>
<path fill="none" stroke="#9a32cd" stroke-dasharray="5,2" d="M488.26,-128.04C515.99,-123.99 547.16,-119.45 573.97,-115.55"/>
<polygon fill="#9a32cd" stroke="#9a32cd" points="487.6,-124.59 478.21,-129.5 488.61,-131.52 487.6,-124.59"/>
<text text-anchor="middle" x="525.5" y="-129" font-family="Helvetica,sans-Serif" font-size="10.00"> tx_changes</text>
</g>
<!-- Node6 -->
<g id="node6" class="node">
<title>Node6</title>
<g id="a_node6"><a xlink:href="classkv_1_1AbstractChangeSet.html" target="_top" xlink:title=" ">
<polygon fill="white" stroke="#666666" points="235.5,-233.5 108.5,-233.5 108.5,-214.5 235.5,-214.5 235.5,-233.5"/>
<text text-anchor="middle" x="172" y="-221.5" font-family="Helvetica,sans-Serif" font-size="10.00">kv::AbstractChangeSet</text>
</a>
</g>
</g>
<!-- Node6&#45;&gt;Node5 -->
<g id="edge6" class="edge">
<title>Node6&#45;&gt;Node5</title>
<path fill="none" stroke="#63b8ff" d="M245.64,-219.88C273.25,-215.53 303.83,-207.09 328,-191 339.7,-183.21 335.01,-173.76 346,-165 354.93,-157.88 366.07,-152.48 376.59,-148.5"/>
<polygon fill="#63b8ff" stroke="#63b8ff" points="245.03,-216.43 235.63,-221.31 246.02,-223.36 245.03,-216.43"/>
</g>
<!-- Node7 -->
<g id="node7" class="node">
<title>Node7</title>
<g id="a_node7"><a xlink:href="classchamp_1_1Map.html" target="_top" xlink:title=" ">
<polygon fill="white" stroke="#666666" points="238,-196.5 106,-196.5 106,-177.5 238,-177.5 238,-196.5"/>
<text text-anchor="middle" x="172" y="-184.5" font-family="Helvetica,sans-Serif" font-size="10.00">champ::Map&lt; K, V, H &gt;</text>
</a>
</g>
</g>
<!-- Node7&#45;&gt;Node5 -->
<g id="edge7" class="edge">
<title>Node7&#45;&gt;Node5</title>
<path fill="none" stroke="#9a32cd" stroke-dasharray="5,2" d="M230.12,-175.48C271,-167.24 325.36,-156.27 363.78,-148.52"/>
<polygon fill="#9a32cd" stroke="#9a32cd" points="229.42,-172.05 220.31,-177.46 230.8,-178.91 229.42,-172.05"/>
<text text-anchor="middle" x="299.5" y="-179" font-family="Helvetica,sans-Serif" font-size="10.00"> committed</text>
<text text-anchor="middle" x="299.5" y="-168" font-family="Helvetica,sans-Serif" font-size="10.00">state</text>
</g>
<!-- Node8 -->
<g id="node8" class="node">
<title>Node8</title>
<g id="a_node8"><a xlink:title=" ">
<polygon fill="white" stroke="#666666" points="253,-159.5 91,-159.5 91,-118.5 253,-118.5 253,-159.5"/>
<text text-anchor="start" x="99" y="-147.5" font-family="Helvetica,sans-Serif" font-size="10.00">std::map&lt; K, std::tuple</text>
<text text-anchor="start" x="99" y="-136.5" font-family="Helvetica,sans-Serif" font-size="10.00">&lt; DeletableVersion, LastRead</text>
<text text-anchor="middle" x="172" y="-125.5" font-family="Helvetica,sans-Serif" font-size="10.00">Version &gt; &gt;</text>
</a>
</g>
</g>
<!-- Node8&#45;&gt;Node5 -->
<g id="edge8" class="edge">
<title>Node8&#45;&gt;Node5</title>
<path fill="none" stroke="#9a32cd" stroke-dasharray="5,2" d="M263.6,-139C290.93,-139 320.38,-139 345.72,-139"/>
<polygon fill="#9a32cd" stroke="#9a32cd" points="263.24,-135.5 253.24,-139 263.24,-142.5 263.24,-135.5"/>
<text text-anchor="middle" x="299.5" y="-142" font-family="Helvetica,sans-Serif" font-size="10.00"> reads</text>
</g>
<!-- Node9 -->
<g id="node9" class="node">
<title>Node9</title>
<g id="a_node9"><a xlink:title=" ">
<polygon fill="white" stroke="#666666" points="29,-148.5 0,-148.5 0,-129.5 29,-129.5 29,-148.5"/>
<text text-anchor="middle" x="14.5" y="-136.5" font-family="Helvetica,sans-Serif" font-size="10.00">K</text>
</a>
</g>
</g>
<!-- Node9&#45;&gt;Node8 -->
<g id="edge9" class="edge">
<title>Node9&#45;&gt;Node8</title>
<path fill="none" stroke="#9a32cd" stroke-dasharray="5,2" d="M39.22,-139C53.29,-139 72.03,-139 90.95,-139"/>
<polygon fill="#9a32cd" stroke="#9a32cd" points="39.03,-135.5 29.03,-139 39.03,-142.5 39.03,-135.5"/>
<text text-anchor="middle" x="60" y="-142" font-family="Helvetica,sans-Serif" font-size="10.00"> keys</text>
</g>
<!-- Node10 -->
<g id="node10" class="node">
<title>Node10</title>
<g id="a_node10"><a xlink:title=" ">
<polygon fill="white" stroke="#666666" points="242.5,-100 101.5,-100 101.5,-48 242.5,-48 242.5,-100"/>
<text text-anchor="start" x="109.5" y="-88" font-family="Helvetica,sans-Serif" font-size="10.00">std::map&lt; kv::serialisers</text>
<text text-anchor="start" x="109.5" y="-77" font-family="Helvetica,sans-Serif" font-size="10.00">::SerialisedEntry, std</text>
<text text-anchor="start" x="109.5" y="-66" font-family="Helvetica,sans-Serif" font-size="10.00">::optional&lt; kv::serialisers</text>
<text text-anchor="middle" x="172" y="-55" font-family="Helvetica,sans-Serif" font-size="10.00">::SerialisedEntry &gt; &gt;</text>
</a>
</g>
</g>
<!-- Node10&#45;&gt;Node5 -->
<g id="edge10" class="edge">
<title>Node10&#45;&gt;Node5</title>
<path fill="none" stroke="#9a32cd" stroke-dasharray="5,2" d="M252.71,-95.77C294.54,-107.19 343.67,-120.61 375.97,-129.43"/>
<polygon fill="#9a32cd" stroke="#9a32cd" points="253.37,-92.32 242.8,-93.06 251.52,-99.07 253.37,-92.32"/>
<text text-anchor="middle" x="299.5" y="-119" font-family="Helvetica,sans-Serif" font-size="10.00"> writes</text>
</g>
<!-- Node11 -->
<g id="node11" class="node">
<title>Node11</title>
<g id="a_node11"><a xlink:title=" ">
<polygon fill="white" stroke="#666666" points="444.5,-97.5 379.5,-97.5 379.5,-78.5 444.5,-78.5 444.5,-97.5"/>
<text text-anchor="middle" x="412" y="-85.5" font-family="Helvetica,sans-Serif" font-size="10.00">std::string</text>
</a>
</g>
</g>
<!-- Node11&#45;&gt;Node4 -->
<g id="edge11" class="edge">
<title>Node11&#45;&gt;Node4</title>
<path fill="none" stroke="#9a32cd" stroke-dasharray="5,2" d="M455.01,-87.19C483.33,-87.06 521.49,-87.69 555,-91 567.46,-92.23 580.83,-94.27 593.19,-96.45"/>
<polygon fill="#9a32cd" stroke="#9a32cd" points="454.64,-83.69 444.67,-87.27 454.69,-90.69 454.64,-83.69"/>
<text text-anchor="middle" x="525.5" y="-94" font-family="Helvetica,sans-Serif" font-size="10.00"> map_name</text>
</g>
<!-- Node12 -->
<g id="node12" class="node">
<title>Node12</title>
<g id="a_node12"><a xlink:title=" ">
<polygon fill="white" stroke="#666666" points="224,-30 120,-30 120,0 224,0 224,-30"/>
<text text-anchor="start" x="128" y="-18" font-family="Helvetica,sans-Serif" font-size="10.00">std::basic_string&lt;</text>
<text text-anchor="middle" x="172" y="-7" font-family="Helvetica,sans-Serif" font-size="10.00"> Char &gt;</text>
</a>
</g>
</g>
<!-- Node12&#45;&gt;Node11 -->
<g id="edge12" class="edge">
<title>Node12&#45;&gt;Node11</title>
<path fill="none" stroke="#63b8ff" d="M233.14,-32.98C239.85,-35 246.57,-37.04 253,-39 297.36,-52.53 348.63,-68.49 380.44,-78.43"/>
<polygon fill="#63b8ff" stroke="#63b8ff" points="233.96,-29.57 223.38,-30.04 231.94,-36.27 233.96,-29.57"/>
</g>
<!-- Node13&#45;&gt;Node1 -->
<g id="edge13" class="edge">
<title>Node13&#45;&gt;Node1</title>
<path fill="none" stroke="#63b8ff" d="M970.71,-59.31C976.3,-61.36 981.79,-63.59 987,-66 1019.99,-81.24 1054.35,-105.86 1074.96,-121.73"/>
<polygon fill="#63b8ff" stroke="#63b8ff" points="971.84,-56 961.24,-56.02 969.54,-62.61 971.84,-56"/>
</g>
</g>
</svg>
