<?xml version="1.0" encoding="UTF-8" standalone="no"?>
<!DOCTYPE svg PUBLIC "-//W3C//DTD SVG 1.1//EN"
 "http://www.w3.org/Graphics/SVG/1.1/DTD/svg11.dtd">
<!-- Generated by graphviz version 2.43.0 (0)
 -->
<!-- Title: http::HTTPServerEndpoint Pages: 1 -->
<svg width="1149pt" height="242pt"
 viewBox="0.00 0.00 1149.00 241.50" xmlns="http://www.w3.org/2000/svg" xmlns:xlink="http://www.w3.org/1999/xlink">
<g id="graph0" class="graph" transform="scale(1 1) rotate(0) translate(4 237.5)">
<title>http::HTTPServerEndpoint</title>
<!-- Node1 -->
<g id="node1" class="node">
<title>Node1</title>
<g id="a_node1"><a xlink:title=" ">
<polygon fill="#999999" stroke="#666666" points="1141,-80 999,-80 999,-61 1141,-61 1141,-80"/>
<text text-anchor="middle" x="1070" y="-68" font-family="Helvetica,sans-Serif" font-size="10.00">http::HTTPServerEndpoint</text>
</a>
</g>
</g>
<!-- Node2 -->
<g id="node2" class="node">
<title>Node2</title>
<g id="a_node2"><a xlink:href="classhttp_1_1HTTPEndpoint.html" target="_top" xlink:title=" ">
<polygon fill="white" stroke="#666666" points="952.5,-105 842.5,-105 842.5,-86 952.5,-86 952.5,-105"/>
<text text-anchor="middle" x="897.5" y="-93" font-family="Helvetica,sans-Serif" font-size="10.00">http::HTTPEndpoint</text>
</a>
</g>
</g>
<!-- Node2&#45;&gt;Node1 -->
<g id="edge1" class="edge">
<title>Node2&#45;&gt;Node1</title>
<path fill="none" stroke="#63b8ff" d="M963.02,-86.04C976.46,-84.07 990.63,-81.99 1004.08,-80.02"/>
<polygon fill="#63b8ff" stroke="#63b8ff" points="962.3,-82.61 952.92,-87.52 963.32,-89.53 962.3,-82.61"/>
</g>
<!-- Node3 -->
<g id="node3" class="node">
<title>Node3</title>
<g id="a_node3"><a xlink:href="classccf_1_1TLSEndpoint.html" target="_top" xlink:title=" ">
<polygon fill="white" stroke="#666666" points="714,-185 618,-185 618,-166 714,-166 714,-185"/>
<text text-anchor="middle" x="666" y="-173" font-family="Helvetica,sans-Serif" font-size="10.00">ccf::TLSEndpoint</text>
</a>
</g>
</g>
<!-- Node3&#45;&gt;Node2 -->
<g id="edge2" class="edge">
<title>Node3&#45;&gt;Node2</title>
<path fill="none" stroke="#63b8ff" d="M704.31,-162.49C750.49,-146.4 828.02,-119.37 869.08,-105.06"/>
<polygon fill="#63b8ff" stroke="#63b8ff" points="702.97,-159.25 694.68,-165.85 705.28,-165.86 702.97,-159.25"/>
</g>
<!-- Node4 -->
<g id="node4" class="node">
<title>Node4</title>
<g id="a_node4"><a xlink:href="classccf_1_1Endpoint.html" target="_top" xlink:title=" ">
<polygon fill="white" stroke="#666666" points="471,-228 392,-228 392,-209 471,-209 471,-228"/>
<text text-anchor="middle" x="431.5" y="-216" font-family="Helvetica,sans-Serif" font-size="10.00">ccf::Endpoint</text>
</a>
</g>
</g>
<!-- Node4&#45;&gt;Node3 -->
<g id="edge3" class="edge">
<title>Node4&#45;&gt;Node3</title>
<path fill="none" stroke="#63b8ff" d="M481.2,-209.92C511.86,-204.46 552.27,-197.2 588,-190.5 597.64,-188.69 607.95,-186.72 617.78,-184.81"/>
<polygon fill="#63b8ff" stroke="#63b8ff" points="480.42,-206.5 471.19,-211.69 481.65,-213.39 480.42,-206.5"/>
</g>
<!-- Node5 -->
<g id="node5" class="node">
<title>Node5</title>
<g id="a_node5"><a xlink:title=" ">
<polygon fill="white" stroke="#666666" points="275,-233.5 141,-233.5 141,-203.5 275,-203.5 275,-233.5"/>
<text text-anchor="start" x="149" y="-221.5" font-family="Helvetica,sans-Serif" font-size="10.00">std::enable_shared</text>
<text text-anchor="middle" x="208" y="-210.5" font-family="Helvetica,sans-Serif" font-size="10.00">_from_this&lt; Endpoint &gt;</text>
</a>
</g>
</g>
<!-- Node5&#45;&gt;Node4 -->
<g id="edge4" class="edge">
<title>Node5&#45;&gt;Node4</title>
<path fill="none" stroke="#63b8ff" d="M285.58,-218.5C321.37,-218.5 362.43,-218.5 391.68,-218.5"/>
<polygon fill="#63b8ff" stroke="#63b8ff" points="285.16,-215 275.16,-218.5 285.16,-222 285.16,-215"/>
</g>
<!-- Node6 -->
<g id="node6" class="node">
<title>Node6</title>
<g id="a_node6"><a xlink:title=" ">
<polygon fill="white" stroke="#666666" points="502,-190.5 361,-190.5 361,-160.5 502,-160.5 502,-190.5"/>
<text text-anchor="start" x="369" y="-178.5" font-family="Helvetica,sans-Serif" font-size="10.00">std::shared_ptr&lt; Abstract</text>
<text text-anchor="middle" x="431.5" y="-167.5" font-family="Helvetica,sans-Serif" font-size="10.00">Writer &gt;</text>
</a>
</g>
</g>
<!-- Node6&#45;&gt;Node3 -->
<g id="edge5" class="edge">
<title>Node6&#45;&gt;Node3</title>
<path fill="none" stroke="#9a32cd" stroke-dasharray="5,2" d="M512.49,-175.5C547.56,-175.5 587.53,-175.5 617.75,-175.5"/>
<polygon fill="#9a32cd" stroke="#9a32cd" points="512.26,-172 502.26,-175.5 512.26,-179 512.26,-172"/>
<text text-anchor="middle" x="554.5" y="-178.5" font-family="Helvetica,sans-Serif" font-size="10.00"> to_host</text>
</g>
<!-- Node7 -->
<g id="node7" class="node">
<title>Node7</title>
<g id="a_node7"><a xlink:href="classhttp_1_1Parser.html" target="_top" xlink:title=" ">
<polygon fill="white" stroke="#666666" points="702,-105 630,-105 630,-86 702,-86 702,-105"/>
<text text-anchor="middle" x="666" y="-93" font-family="Helvetica,sans-Serif" font-size="10.00">http::Parser</text>
</a>
</g>
</g>
<!-- Node7&#45;&gt;Node2 -->
<g id="edge6" class="edge">
<title>Node7&#45;&gt;Node2</title>
<path fill="none" stroke="#9a32cd" stroke-dasharray="5,2" d="M712.19,-95.5C749.5,-95.5 802.56,-95.5 842.18,-95.5"/>
<polygon fill="#9a32cd" stroke="#9a32cd" points="712.11,-92 702.11,-95.5 712.11,-99 712.11,-92"/>
<text text-anchor="middle" x="779.5" y="-98.5" font-family="Helvetica,sans-Serif" font-size="10.00"> p</text>
</g>
<!-- Node8 -->
<g id="node8" class="node">
<title>Node8</title>
<g id="a_node8"><a xlink:href="structhttp_1_1ParserConfiguration.html" target="_top" xlink:title=" ">
<polygon fill="white" stroke="#666666" points="500,-142 363,-142 363,-123 500,-123 500,-142"/>
<text text-anchor="middle" x="431.5" y="-130" font-family="Helvetica,sans-Serif" font-size="10.00">http::ParserConfiguration</text>
</a>
</g>
</g>
<!-- Node8&#45;&gt;Node7 -->
<g id="edge7" class="edge">
<title>Node8&#45;&gt;Node7</title>
<path fill="none" stroke="#9a32cd" stroke-dasharray="5,2" d="M510.45,-122.28C535.28,-118.81 562.83,-114.73 588,-110.5 601.7,-108.2 616.71,-105.35 629.8,-102.75"/>
<polygon fill="#9a32cd" stroke="#9a32cd" points="509.78,-118.84 500.36,-123.68 510.74,-125.77 509.78,-118.84"/>
<text text-anchor="middle" x="554.5" y="-122.5" font-family="Helvetica,sans-Serif" font-size="10.00"> configuration</text>
</g>
<!-- Node9 -->
<g id="node9" class="node">
<title>Node9</title>
<g id="a_node9"><a xlink:title=" ">
<polygon fill="white" stroke="#666666" points="494,-105 369,-105 369,-86 494,-86 494,-105"/>
<text text-anchor="middle" x="431.5" y="-93" font-family="Helvetica,sans-Serif" font-size="10.00">std::vector&lt; uint8_t &gt;</text>
</a>
</g>
</g>
<!-- Node9&#45;&gt;Node7 -->
<g id="edge8" class="edge">
<title>Node9&#45;&gt;Node7</title>
<path fill="none" stroke="#9a32cd" stroke-dasharray="5,2" d="M504.31,-95.5C545.99,-95.5 596.64,-95.5 629.79,-95.5"/>
<polygon fill="#9a32cd" stroke="#9a32cd" points="504.2,-92 494.2,-95.5 504.2,-99 504.2,-92"/>
<text text-anchor="middle" x="554.5" y="-98.5" font-family="Helvetica,sans-Serif" font-size="10.00"> body_buf</text>
</g>
<!-- Node10 -->
<g id="node10" class="node">
<title>Node10</title>
<g id="a_node10"><a xlink:title=" ">
<polygon fill="white" stroke="#666666" points="503,-67.5 360,-67.5 360,-37.5 503,-37.5 503,-67.5"/>
<text text-anchor="start" x="368" y="-55.5" font-family="Helvetica,sans-Serif" font-size="10.00">std::map&lt; std::string,</text>
<text text-anchor="middle" x="431.5" y="-44.5" font-family="Helvetica,sans-Serif" font-size="10.00"> std::string, std::less&lt;&gt; &gt;</text>
</a>
</g>
</g>
<!-- Node10&#45;&gt;Node7 -->
<g id="edge9" class="edge">
<title>Node10&#45;&gt;Node7</title>
<path fill="none" stroke="#9a32cd" stroke-dasharray="5,2" d="M513.5,-66.86C537.5,-71.17 563.82,-75.97 588,-80.5 601.65,-83.06 616.65,-85.96 629.75,-88.52"/>
<polygon fill="#9a32cd" stroke="#9a32cd" points="513.83,-63.36 503.37,-65.04 512.59,-70.25 513.83,-63.36"/>
<text text-anchor="middle" x="554.5" y="-83.5" font-family="Helvetica,sans-Serif" font-size="10.00"> headers</text>
</g>
<!-- Node11 -->
<g id="node11" class="node">
<title>Node11</title>
<g id="a_node11"><a xlink:title=" ">
<polygon fill="white" stroke="#666666" points="240.5,-62 175.5,-62 175.5,-43 240.5,-43 240.5,-62"/>
<text text-anchor="middle" x="208" y="-50" font-family="Helvetica,sans-Serif" font-size="10.00">std::string</text>
</a>
</g>
</g>
<!-- Node11&#45;&gt;Node10 -->
<g id="edge10" class="edge">
<title>Node11&#45;&gt;Node10</title>
<path fill="none" stroke="#9a32cd" stroke-dasharray="5,2" d="M251.08,-52.5C281.79,-52.5 324.14,-52.5 359.98,-52.5"/>
<polygon fill="#9a32cd" stroke="#9a32cd" points="250.74,-49 240.74,-52.5 250.74,-56 250.74,-49"/>
<text text-anchor="middle" x="317.5" y="-66.5" font-family="Helvetica,sans-Serif" font-size="10.00"> elements</text>
<text text-anchor="middle" x="317.5" y="-55.5" font-family="Helvetica,sans-Serif" font-size="10.00">keys</text>
</g>
<!-- Node12 -->
<g id="node12" class="node">
<title>Node12</title>
<g id="a_node12"><a xlink:title=" ">
<polygon fill="white" stroke="#666666" points="104,-67.5 0,-67.5 0,-37.5 104,-37.5 104,-67.5"/>
<text text-anchor="start" x="8" y="-55.5" font-family="Helvetica,sans-Serif" font-size="10.00">std::basic_string&lt;</text>
<text text-anchor="middle" x="52" y="-44.5" font-family="Helvetica,sans-Serif" font-size="10.00"> Char &gt;</text>
</a>
</g>
</g>
<!-- Node12&#45;&gt;Node11 -->
<g id="edge11" class="edge">
<title>Node12&#45;&gt;Node11</title>
<path fill="none" stroke="#63b8ff" d="M114.36,-52.5C135.21,-52.5 157.65,-52.5 175.23,-52.5"/>
<polygon fill="#63b8ff" stroke="#63b8ff" points="114.28,-49 104.28,-52.5 114.28,-56 114.28,-49"/>
</g>
<!-- Node13 -->
<g id="node13" class="node">
<title>Node13</title>
<g id="a_node13"><a xlink:title=" ">
<polygon fill="white" stroke="#666666" points="726,-46.5 606,-46.5 606,-16.5 726,-16.5 726,-46.5"/>
<text text-anchor="start" x="614" y="-34.5" font-family="Helvetica,sans-Serif" font-size="10.00">std::shared_ptr&lt; http</text>
<text text-anchor="middle" x="666" y="-23.5" font-family="Helvetica,sans-Serif" font-size="10.00">::ErrorReporter &gt;</text>
</a>
</g>
</g>
<!-- Node13&#45;&gt;Node2 -->
<g id="edge12" class="edge">
<title>Node13&#45;&gt;Node2</title>
<path fill="none" stroke="#9a32cd" stroke-dasharray="5,2" d="M730.53,-49.22C773.13,-61.1 827.58,-76.28 862.26,-85.95"/>
<polygon fill="#9a32cd" stroke="#9a32cd" points="731.38,-45.82 720.81,-46.51 729.5,-52.56 731.38,-45.82"/>
<text text-anchor="middle" x="779.5" y="-74.5" font-family="Helvetica,sans-Serif" font-size="10.00"> error_reporter</text>
</g>
<!-- Node14 -->
<g id="node14" class="node">
<title>Node14</title>
<g id="a_node14"><a xlink:href="classhttp_1_1ErrorReporter.html" target="_top" xlink:title=" ">
<polygon fill="white" stroke="#666666" points="485,-19 378,-19 378,0 485,0 485,-19"/>
<text text-anchor="middle" x="431.5" y="-7" font-family="Helvetica,sans-Serif" font-size="10.00">http::ErrorReporter</text>
</a>
</g>
</g>
<!-- Node14&#45;&gt;Node13 -->
<g id="edge13" class="edge">
<title>Node14&#45;&gt;Node13</title>
<path fill="none" stroke="#9a32cd" stroke-dasharray="5,2" d="M495.65,-15.48C529.99,-18.72 572.21,-22.72 605.91,-25.91"/>
<polygon fill="#9a32cd" stroke="#9a32cd" points="495.54,-11.95 485.26,-14.49 494.88,-18.92 495.54,-11.95"/>
<text text-anchor="middle" x="554.5" y="-27.5" font-family="Helvetica,sans-Serif" font-size="10.00"> ptr</text>
</g>
<!-- Node15 -->
<g id="node15" class="node">
<title>Node15</title>
<g id="a_node15"><a xlink:href="classhttp_1_1RequestProcessor.html" target="_top" xlink:title=" ">
<polygon fill="white" stroke="#666666" points="962,-68 833,-68 833,-49 962,-49 962,-68"/>
<text text-anchor="middle" x="897.5" y="-56" font-family="Helvetica,sans-Serif" font-size="10.00">http::RequestProcessor</text>
</a>
</g>
</g>
<!-- Node15&#45;&gt;Node1 -->
<g id="edge14" class="edge">
<title>Node15&#45;&gt;Node1</title>
<path fill="none" stroke="#63b8ff" d="M972.64,-63.72C981.38,-64.33 990.27,-64.96 998.95,-65.57"/>
<polygon fill="#63b8ff" stroke="#63b8ff" points="972.69,-60.21 962.47,-63 972.2,-67.2 972.69,-60.21"/>
</g>
</g>
</svg>
