<?xml version="1.0" encoding="UTF-8" standalone="no"?>
<!DOCTYPE svg PUBLIC "-//W3C//DTD SVG 1.1//EN"
 "http://www.w3.org/Graphics/SVG/1.1/DTD/svg11.dtd">
<!-- Generated by graphviz version 2.43.0 (0)
 -->
<!-- Title: ccf::SplitIdentityResharingTracker::ResharingSession Pages: 1 -->
<svg width="290pt" height="391pt"
 viewBox="0.00 0.00 290.00 391.00" xmlns="http://www.w3.org/2000/svg" xmlns:xlink="http://www.w3.org/1999/xlink">
<g id="graph0" class="graph" transform="scale(1 1) rotate(0) translate(4 387)">
<title>ccf::SplitIdentityResharingTracker::ResharingSession</title>
<!-- Node1 -->
<g id="node1" class="node">
<title>Node1</title>
<g id="a_node1"><a xlink:title=" ">
<polygon fill="#999999" stroke="#666666" points="200.5,-30 56.5,-30 56.5,0 200.5,0 200.5,-30"/>
<text text-anchor="start" x="64.5" y="-18" font-family="Helvetica,sans-Serif" font-size="10.00">ccf::SplitIdentityResharing</text>
<text text-anchor="middle" x="128.5" y="-7" font-family="Helvetica,sans-Serif" font-size="10.00">Tracker::ResharingSession</text>
</a>
</g>
</g>
<!-- Node2 -->
<g id="node2" class="node">
<title>Node2</title>
<g id="a_node2"><a xlink:href="structkv_1_1Configuration.html" target="_top" xlink:title=" ">
<polygon fill="white" stroke="#666666" points="178,-96 79,-96 79,-77 178,-77 178,-96"/>
<text text-anchor="middle" x="128.5" y="-84" font-family="Helvetica,sans-Serif" font-size="10.00">kv::Configuration</text>
</a>
</g>
</g>
<!-- Node2&#45;&gt;Node1 -->
<g id="edge1" class="edge">
<title>Node2&#45;&gt;Node1</title>
<path fill="none" stroke="#9a32cd" stroke-dasharray="5,2" d="M128.5,-66.71C128.5,-55.19 128.5,-40.68 128.5,-30.14"/>
<polygon fill="#9a32cd" stroke="#9a32cd" points="125,-66.98 128.5,-76.98 132,-66.98 125,-66.98"/>
<text text-anchor="middle" x="145" y="-51" font-family="Helvetica,sans-Serif" font-size="10.00"> config</text>
</g>
<!-- Node3 -->
<g id="node3" class="node">
<title>Node3</title>
<g id="a_node3"><a xlink:title=" ">
<polygon fill="white" stroke="#666666" points="212,-162 45,-162 45,-143 212,-143 212,-162"/>
<text text-anchor="middle" x="128.5" y="-150" font-family="Helvetica,sans-Serif" font-size="10.00">std::map&lt; NodeId, NodeInfo &gt;</text>
</a>
</g>
</g>
<!-- Node3&#45;&gt;Node2 -->
<g id="edge2" class="edge">
<title>Node3&#45;&gt;Node2</title>
<path fill="none" stroke="#9a32cd" stroke-dasharray="5,2" d="M128.5,-132.58C128.5,-120.63 128.5,-105.72 128.5,-96.41"/>
<polygon fill="#9a32cd" stroke="#9a32cd" points="125,-132.87 128.5,-142.87 132,-132.87 125,-132.87"/>
<text text-anchor="middle" x="145" y="-117" font-family="Helvetica,sans-Serif" font-size="10.00"> nodes</text>
</g>
<!-- Node4 -->
<g id="node4" class="node">
<title>Node4</title>
<g id="a_node4"><a xlink:href="structccf_1_1EntityId.html" target="_top" xlink:title=" ">
<polygon fill="white" stroke="#666666" points="159,-233.5 0,-233.5 0,-214.5 159,-214.5 159,-233.5"/>
<text text-anchor="middle" x="79.5" y="-221.5" font-family="Helvetica,sans-Serif" font-size="10.00">ccf::EntityId&lt; FmtExtender &gt;</text>
</a>
</g>
</g>
<!-- Node4&#45;&gt;Node3 -->
<g id="edge3" class="edge">
<title>Node4&#45;&gt;Node3</title>
<path fill="none" stroke="#9a32cd" stroke-dasharray="5,2" d="M91.32,-206.24C101.14,-192.31 114.7,-173.07 122.44,-162.09"/>
<polygon fill="#9a32cd" stroke="#9a32cd" points="88.41,-204.29 85.51,-214.48 94.13,-208.32 88.41,-204.29"/>
<text text-anchor="middle" x="120.5" y="-183" font-family="Helvetica,sans-Serif" font-size="10.00"> keys</text>
</g>
<!-- Node5 -->
<g id="node5" class="node">
<title>Node5</title>
<g id="a_node5"><a xlink:href="structkv_1_1Configuration_1_1NodeInfo.html" target="_top" xlink:title=" ">
<polygon fill="white" stroke="#666666" points="282,-239 177,-239 177,-209 282,-209 282,-239"/>
<text text-anchor="start" x="185" y="-227" font-family="Helvetica,sans-Serif" font-size="10.00">kv::Configuration::</text>
<text text-anchor="middle" x="229.5" y="-216" font-family="Helvetica,sans-Serif" font-size="10.00">NodeInfo</text>
</a>
</g>
</g>
<!-- Node5&#45;&gt;Node3 -->
<g id="edge4" class="edge">
<title>Node5&#45;&gt;Node3</title>
<path fill="none" stroke="#9a32cd" stroke-dasharray="5,2" d="M200.71,-203.19C180.97,-189.6 155.76,-172.26 140.95,-162.07"/>
<polygon fill="#9a32cd" stroke="#9a32cd" points="198.84,-206.15 209.06,-208.94 202.81,-200.38 198.84,-206.15"/>
<text text-anchor="middle" x="206" y="-183" font-family="Helvetica,sans-Serif" font-size="10.00"> elements</text>
</g>
<!-- Node6 -->
<g id="node6" class="node">
<title>Node6</title>
<g id="a_node6"><a xlink:title=" ">
<polygon fill="white" stroke="#666666" points="262,-316 197,-316 197,-297 262,-297 262,-316"/>
<text text-anchor="middle" x="229.5" y="-304" font-family="Helvetica,sans-Serif" font-size="10.00">std::string</text>
</a>
</g>
</g>
<!-- Node6&#45;&gt;Node5 -->
<g id="edge5" class="edge">
<title>Node6&#45;&gt;Node5</title>
<path fill="none" stroke="#9a32cd" stroke-dasharray="5,2" d="M229.5,-286.6C229.5,-272.1 229.5,-252.4 229.5,-239.22"/>
<polygon fill="#9a32cd" stroke="#9a32cd" points="226,-286.89 229.5,-296.89 233,-286.89 226,-286.89"/>
<text text-anchor="middle" x="255.5" y="-271" font-family="Helvetica,sans-Serif" font-size="10.00"> hostname</text>
<text text-anchor="middle" x="255.5" y="-260" font-family="Helvetica,sans-Serif" font-size="10.00">port</text>
</g>
<!-- Node7 -->
<g id="node7" class="node">
<title>Node7</title>
<g id="a_node7"><a xlink:title=" ">
<polygon fill="white" stroke="#666666" points="281.5,-383 177.5,-383 177.5,-353 281.5,-353 281.5,-383"/>
<text text-anchor="start" x="185.5" y="-371" font-family="Helvetica,sans-Serif" font-size="10.00">std::basic_string&lt;</text>
<text text-anchor="middle" x="229.5" y="-360" font-family="Helvetica,sans-Serif" font-size="10.00"> Char &gt;</text>
</a>
</g>
</g>
<!-- Node7&#45;&gt;Node6 -->
<g id="edge6" class="edge">
<title>Node7&#45;&gt;Node6</title>
<path fill="none" stroke="#63b8ff" d="M229.5,-342.79C229.5,-333.36 229.5,-323.15 229.5,-316.16"/>
<polygon fill="#63b8ff" stroke="#63b8ff" points="226,-342.9 229.5,-352.9 233,-342.9 226,-342.9"/>
</g>
</g>
</svg>
