<?xml version="1.0" encoding="UTF-8" standalone="no"?>
<!DOCTYPE svg PUBLIC "-//W3C//DTD SVG 1.1//EN"
 "http://www.w3.org/Graphics/SVG/1.1/DTD/svg11.dtd">
<!-- Generated by graphviz version 2.43.0 (0)
 -->
<!-- Title: kv::ValueHandle&lt; V, VSerialiser, Unit &gt; Pages: 1 -->
<svg width="1115pt" height="242pt"
 viewBox="0.00 0.00 1115.00 241.50" xmlns="http://www.w3.org/2000/svg" xmlns:xlink="http://www.w3.org/1999/xlink">
<g id="graph0" class="graph" transform="scale(1 1) rotate(0) translate(4 237.5)">
<title>kv::ValueHandle&lt; V, VSerialiser, Unit &gt;</title>
<!-- Node1 -->
<g id="node1" class="node">
<title>Node1</title>
<g id="a_node1"><a xlink:title=" ">
<polygon fill="#999999" stroke="#666666" points="1107,-152 991,-152 991,-122 1107,-122 1107,-152"/>
<text text-anchor="start" x="999" y="-140" font-family="Helvetica,sans-Serif" font-size="10.00">kv::ValueHandle&lt; V,</text>
<text text-anchor="middle" x="1049" y="-129" font-family="Helvetica,sans-Serif" font-size="10.00"> VSerialiser, Unit &gt;</text>
</a>
</g>
</g>
<!-- Node2 -->
<g id="node2" class="node">
<title>Node2</title>
<g id="a_node2"><a xlink:href="classkv_1_1AbstractHandle.html" target="_top" xlink:title=" ">
<polygon fill="white" stroke="#666666" points="466.5,-191.5 357.5,-191.5 357.5,-172.5 466.5,-172.5 466.5,-191.5"/>
<text text-anchor="middle" x="412" y="-179.5" font-family="Helvetica,sans-Serif" font-size="10.00">kv::AbstractHandle</text>
</a>
</g>
</g>
<!-- Node2&#45;&gt;Node1 -->
<g id="edge1" class="edge">
<title>Node2&#45;&gt;Node1</title>
<path fill="none" stroke="#63b8ff" d="M476.83,-179.89C580.93,-176.05 793.68,-166.56 973,-148 978.76,-147.4 984.76,-146.69 990.73,-145.91"/>
<polygon fill="#63b8ff" stroke="#63b8ff" points="476.66,-176.39 466.79,-180.26 476.91,-183.39 476.66,-176.39"/>
</g>
<!-- Node4 -->
<g id="node4" class="node">
<title>Node4</title>
<g id="a_node4"><a xlink:href="classkv_1_1untyped_1_1MapHandle.html" target="_top" xlink:title=" ">
<polygon fill="white" stroke="#666666" points="708,-116.5 573,-116.5 573,-97.5 708,-97.5 708,-116.5"/>
<text text-anchor="middle" x="640.5" y="-104.5" font-family="Helvetica,sans-Serif" font-size="10.00">kv::untyped::MapHandle</text>
</a>
</g>
</g>
<!-- Node2&#45;&gt;Node4 -->
<g id="edge4" class="edge">
<title>Node2&#45;&gt;Node4</title>
<path fill="none" stroke="#63b8ff" d="M459.68,-169.8C487.57,-162.2 523.56,-151.83 555,-141 576.53,-133.58 600.57,-123.75 617.49,-116.57"/>
<polygon fill="#63b8ff" stroke="#63b8ff" points="458.54,-166.49 449.8,-172.48 460.37,-173.25 458.54,-166.49"/>
</g>
<!-- Node3 -->
<g id="node3" class="node">
<title>Node3</title>
<g id="a_node3"><a xlink:href="classkv_1_1ReadableValueHandle.html" target="_top" xlink:title=" ">
<polygon fill="white" stroke="#666666" points="953,-114 812,-114 812,-84 953,-84 953,-114"/>
<text text-anchor="start" x="820" y="-102" font-family="Helvetica,sans-Serif" font-size="10.00">kv::ReadableValueHandle</text>
<text text-anchor="middle" x="882.5" y="-91" font-family="Helvetica,sans-Serif" font-size="10.00">&lt; V, VSerialiser, Unit &gt;</text>
</a>
</g>
</g>
<!-- Node3&#45;&gt;Node1 -->
<g id="edge2" class="edge">
<title>Node3&#45;&gt;Node1</title>
<path fill="none" stroke="#63b8ff" d="M958.46,-116.32C969.36,-118.83 980.44,-121.39 990.91,-123.81"/>
<polygon fill="#63b8ff" stroke="#63b8ff" points="959.05,-112.86 948.51,-114.02 957.47,-119.68 959.05,-112.86"/>
</g>
<!-- Node4&#45;&gt;Node1 -->
<g id="edge15" class="edge">
<title>Node4&#45;&gt;Node1</title>
<path fill="none" stroke="#9a32cd" stroke-dasharray="5,2" d="M718.36,-117.23C720.93,-117.5 723.49,-117.76 726,-118 818.54,-126.83 926.46,-132.2 990.9,-134.88"/>
<polygon fill="#9a32cd" stroke="#9a32cd" points="718.66,-113.74 708.33,-116.13 717.89,-120.7 718.66,-113.74"/>
<text text-anchor="middle" x="882.5" y="-136" font-family="Helvetica,sans-Serif" font-size="10.00"> untyped_handle</text>
</g>
<!-- Node4&#45;&gt;Node3 -->
<g id="edge3" class="edge">
<title>Node4&#45;&gt;Node3</title>
<path fill="none" stroke="#9a32cd" stroke-dasharray="5,2" d="M718.07,-104.45C748.18,-103.44 782.51,-102.3 811.9,-101.32"/>
<polygon fill="#9a32cd" stroke="#9a32cd" points="717.91,-100.95 708.03,-104.78 718.15,-107.95 717.91,-100.95"/>
<text text-anchor="middle" x="759.5" y="-106" font-family="Helvetica,sans-Serif" font-size="10.00"> read_handle</text>
</g>
<!-- Node13 -->
<g id="node13" class="node">
<title>Node13</title>
<g id="a_node13"><a xlink:href="classkv_1_1WriteableValueHandle.html" target="_top" xlink:title=" ">
<polygon fill="white" stroke="#666666" points="954,-66 811,-66 811,-36 954,-36 954,-66"/>
<text text-anchor="start" x="819" y="-54" font-family="Helvetica,sans-Serif" font-size="10.00">kv::WriteableValueHandle</text>
<text text-anchor="middle" x="882.5" y="-43" font-family="Helvetica,sans-Serif" font-size="10.00">&lt; V, VSerialiser, Unit &gt;</text>
</a>
</g>
</g>
<!-- Node4&#45;&gt;Node13 -->
<g id="edge14" class="edge">
<title>Node4&#45;&gt;Node13</title>
<path fill="none" stroke="#9a32cd" stroke-dasharray="5,2" d="M691.28,-95.18C702.69,-92.48 714.76,-89.63 726,-87 755.54,-80.08 788.26,-72.5 816.04,-66.08"/>
<polygon fill="#9a32cd" stroke="#9a32cd" points="690.39,-91.79 681.47,-97.5 692,-98.6 690.39,-91.79"/>
<text text-anchor="middle" x="759.5" y="-90" font-family="Helvetica,sans-Serif" font-size="10.00"> write_handle</text>
</g>
<!-- Node5 -->
<g id="node5" class="node">
<title>Node5</title>
<g id="a_node5"><a xlink:href="structkv_1_1untyped_1_1ChangeSet.html" target="_top" xlink:title=" ">
<polygon fill="white" stroke="#666666" points="478,-148.5 346,-148.5 346,-129.5 478,-129.5 478,-148.5"/>
<text text-anchor="middle" x="412" y="-136.5" font-family="Helvetica,sans-Serif" font-size="10.00">kv::untyped::ChangeSet</text>
</a>
</g>
</g>
<!-- Node5&#45;&gt;Node4 -->
<g id="edge5" class="edge">
<title>Node5&#45;&gt;Node4</title>
<path fill="none" stroke="#9a32cd" stroke-dasharray="5,2" d="M488.12,-128.39C515.48,-124.52 546.21,-120.18 572.79,-116.43"/>
<polygon fill="#9a32cd" stroke="#9a32cd" points="487.62,-124.92 478.21,-129.79 488.6,-131.85 487.62,-124.92"/>
<text text-anchor="middle" x="525.5" y="-129" font-family="Helvetica,sans-Serif" font-size="10.00"> tx_changes</text>
</g>
<!-- Node6 -->
<g id="node6" class="node">
<title>Node6</title>
<g id="a_node6"><a xlink:href="classkv_1_1AbstractChangeSet.html" target="_top" xlink:title=" ">
<polygon fill="white" stroke="#666666" points="235.5,-233.5 108.5,-233.5 108.5,-214.5 235.5,-214.5 235.5,-233.5"/>
<text text-anchor="middle" x="172" y="-221.5" font-family="Helvetica,sans-Serif" font-size="10.00">kv::AbstractChangeSet</text>
</a>
</g>
</g>
<!-- Node6&#45;&gt;Node5 -->
<g id="edge6" class="edge">
<title>Node6&#45;&gt;Node5</title>
<path fill="none" stroke="#63b8ff" d="M245.79,-220.1C273.41,-215.78 303.97,-207.31 328,-191 339.93,-182.9 334.74,-173.01 346,-164 354.31,-157.35 364.58,-152.32 374.49,-148.58"/>
<polygon fill="#63b8ff" stroke="#63b8ff" points="245.18,-216.65 235.77,-221.51 246.16,-223.58 245.18,-216.65"/>
</g>
<!-- Node7 -->
<g id="node7" class="node">
<title>Node7</title>
<g id="a_node7"><a xlink:href="classchamp_1_1Map.html" target="_top" xlink:title=" ">
<polygon fill="white" stroke="#666666" points="238,-196.5 106,-196.5 106,-177.5 238,-177.5 238,-196.5"/>
<text text-anchor="middle" x="172" y="-184.5" font-family="Helvetica,sans-Serif" font-size="10.00">champ::Map&lt; K, V, H &gt;</text>
</a>
</g>
</g>
<!-- Node7&#45;&gt;Node5 -->
<g id="edge7" class="edge">
<title>Node7&#45;&gt;Node5</title>
<path fill="none" stroke="#9a32cd" stroke-dasharray="5,2" d="M230.12,-175.48C271,-167.24 325.36,-156.27 363.78,-148.52"/>
<polygon fill="#9a32cd" stroke="#9a32cd" points="229.42,-172.05 220.31,-177.46 230.8,-178.91 229.42,-172.05"/>
<text text-anchor="middle" x="299.5" y="-179" font-family="Helvetica,sans-Serif" font-size="10.00"> committed</text>
<text text-anchor="middle" x="299.5" y="-168" font-family="Helvetica,sans-Serif" font-size="10.00">state</text>
</g>
<!-- Node8 -->
<g id="node8" class="node">
<title>Node8</title>
<g id="a_node8"><a xlink:title=" ">
<polygon fill="white" stroke="#666666" points="253,-159.5 91,-159.5 91,-118.5 253,-118.5 253,-159.5"/>
<text text-anchor="start" x="99" y="-147.5" font-family="Helvetica,sans-Serif" font-size="10.00">std::map&lt; K, std::tuple</text>
<text text-anchor="start" x="99" y="-136.5" font-family="Helvetica,sans-Serif" font-size="10.00">&lt; DeletableVersion, LastRead</text>
<text text-anchor="middle" x="172" y="-125.5" font-family="Helvetica,sans-Serif" font-size="10.00">Version &gt; &gt;</text>
</a>
</g>
</g>
<!-- Node8&#45;&gt;Node5 -->
<g id="edge8" class="edge">
<title>Node8&#45;&gt;Node5</title>
<path fill="none" stroke="#9a32cd" stroke-dasharray="5,2" d="M263.6,-139C290.93,-139 320.38,-139 345.72,-139"/>
<polygon fill="#9a32cd" stroke="#9a32cd" points="263.24,-135.5 253.24,-139 263.24,-142.5 263.24,-135.5"/>
<text text-anchor="middle" x="299.5" y="-142" font-family="Helvetica,sans-Serif" font-size="10.00"> reads</text>
</g>
<!-- Node9 -->
<g id="node9" class="node">
<title>Node9</title>
<g id="a_node9"><a xlink:title=" ">
<polygon fill="white" stroke="#666666" points="29,-148.5 0,-148.5 0,-129.5 29,-129.5 29,-148.5"/>
<text text-anchor="middle" x="14.5" y="-136.5" font-family="Helvetica,sans-Serif" font-size="10.00">K</text>
</a>
</g>
</g>
<!-- Node9&#45;&gt;Node8 -->
<g id="edge9" class="edge">
<title>Node9&#45;&gt;Node8</title>
<path fill="none" stroke="#9a32cd" stroke-dasharray="5,2" d="M39.22,-139C53.29,-139 72.03,-139 90.95,-139"/>
<polygon fill="#9a32cd" stroke="#9a32cd" points="39.03,-135.5 29.03,-139 39.03,-142.5 39.03,-135.5"/>
<text text-anchor="middle" x="60" y="-142" font-family="Helvetica,sans-Serif" font-size="10.00"> keys</text>
</g>
<!-- Node10 -->
<g id="node10" class="node">
<title>Node10</title>
<g id="a_node10"><a xlink:title=" ">
<polygon fill="white" stroke="#666666" points="242.5,-100 101.5,-100 101.5,-48 242.5,-48 242.5,-100"/>
<text text-anchor="start" x="109.5" y="-88" font-family="Helvetica,sans-Serif" font-size="10.00">std::map&lt; kv::serialisers</text>
<text text-anchor="start" x="109.5" y="-77" font-family="Helvetica,sans-Serif" font-size="10.00">::SerialisedEntry, std</text>
<text text-anchor="start" x="109.5" y="-66" font-family="Helvetica,sans-Serif" font-size="10.00">::optional&lt; kv::serialisers</text>
<text text-anchor="middle" x="172" y="-55" font-family="Helvetica,sans-Serif" font-size="10.00">::SerialisedEntry &gt; &gt;</text>
</a>
</g>
</g>
<!-- Node10&#45;&gt;Node5 -->
<g id="edge10" class="edge">
<title>Node10&#45;&gt;Node5</title>
<path fill="none" stroke="#9a32cd" stroke-dasharray="5,2" d="M252.71,-95.77C294.54,-107.19 343.67,-120.61 375.97,-129.43"/>
<polygon fill="#9a32cd" stroke="#9a32cd" points="253.37,-92.32 242.8,-93.06 251.52,-99.07 253.37,-92.32"/>
<text text-anchor="middle" x="299.5" y="-119" font-family="Helvetica,sans-Serif" font-size="10.00"> writes</text>
</g>
<!-- Node11 -->
<g id="node11" class="node">
<title>Node11</title>
<g id="a_node11"><a xlink:title=" ">
<polygon fill="white" stroke="#666666" points="444.5,-98.5 379.5,-98.5 379.5,-79.5 444.5,-79.5 444.5,-98.5"/>
<text text-anchor="middle" x="412" y="-86.5" font-family="Helvetica,sans-Serif" font-size="10.00">std::string</text>
</a>
</g>
</g>
<!-- Node11&#45;&gt;Node4 -->
<g id="edge11" class="edge">
<title>Node11&#45;&gt;Node4</title>
<path fill="none" stroke="#9a32cd" stroke-dasharray="5,2" d="M455.01,-88.19C483.33,-88.06 521.49,-88.69 555,-92 567.46,-93.23 580.83,-95.27 593.19,-97.45"/>
<polygon fill="#9a32cd" stroke="#9a32cd" points="454.64,-84.69 444.67,-88.27 454.69,-91.69 454.64,-84.69"/>
<text text-anchor="middle" x="525.5" y="-95" font-family="Helvetica,sans-Serif" font-size="10.00"> map_name</text>
</g>
<!-- Node12 -->
<g id="node12" class="node">
<title>Node12</title>
<g id="a_node12"><a xlink:title=" ">
<polygon fill="white" stroke="#666666" points="224,-30 120,-30 120,0 224,0 224,-30"/>
<text text-anchor="start" x="128" y="-18" font-family="Helvetica,sans-Serif" font-size="10.00">std::basic_string&lt;</text>
<text text-anchor="middle" x="172" y="-7" font-family="Helvetica,sans-Serif" font-size="10.00"> Char &gt;</text>
</a>
</g>
</g>
<!-- Node12&#45;&gt;Node11 -->
<g id="edge12" class="edge">
<title>Node12&#45;&gt;Node11</title>
<path fill="none" stroke="#63b8ff" d="M233.45,-33.03C240.05,-35.03 246.67,-37.05 253,-39 297.82,-52.81 349.62,-69.31 381.34,-79.47"/>
<polygon fill="#63b8ff" stroke="#63b8ff" points="234.4,-29.66 223.82,-30.12 232.38,-36.36 234.4,-29.66"/>
</g>
<!-- Node13&#45;&gt;Node1 -->
<g id="edge13" class="edge">
<title>Node13&#45;&gt;Node1</title>
<path fill="none" stroke="#63b8ff" d="M942.41,-69.78C946.38,-71.43 950.28,-73.18 954,-75 981.21,-88.33 1009.93,-108.25 1028.36,-121.89"/>
<polygon fill="#63b8ff" stroke="#63b8ff" points="943.66,-66.51 933.07,-66.08 941.08,-73.02 943.66,-66.51"/>
</g>
</g>
</svg>
