<?xml version="1.0" encoding="UTF-8" standalone="no"?>
<!DOCTYPE svg PUBLIC "-//W3C//DTD SVG 1.1//EN"
 "http://www.w3.org/Graphics/SVG/1.1/DTD/svg11.dtd">
<!-- Generated by graphviz version 2.43.0 (0)
 -->
<!-- Title: ccf::UserRpcFrontend Pages: 1 -->
<svg width="2654pt" height="642pt"
 viewBox="0.00 0.00 2654.00 641.60" xmlns="http://www.w3.org/2000/svg" xmlns:xlink="http://www.w3.org/1999/xlink">
<g id="graph0" class="graph" transform="scale(1 1) rotate(0) translate(4 637.6)">
<title>ccf::UserRpcFrontend</title>
<!-- Node1 -->
<g id="node1" class="node">
<title>Node1</title>
<g id="a_node1"><a xlink:title=" ">
<polygon fill="#999999" stroke="#666666" points="2646,-318.6 2527,-318.6 2527,-299.6 2646,-299.6 2646,-318.6"/>
<text text-anchor="middle" x="2586.5" y="-306.6" font-family="Helvetica,sans-Serif" font-size="10.00">ccf::UserRpcFrontend</text>
</a>
</g>
</g>
<!-- Node2 -->
<g id="node2" class="node">
<title>Node2</title>
<g id="a_node2"><a xlink:href="classccf_1_1RpcFrontend.html" target="_top" xlink:title=" ">
<polygon fill="white" stroke="#666666" points="2402,-348.6 2305,-348.6 2305,-329.6 2402,-329.6 2402,-348.6"/>
<text text-anchor="middle" x="2353.5" y="-336.6" font-family="Helvetica,sans-Serif" font-size="10.00">ccf::RpcFrontend</text>
</a>
</g>
</g>
<!-- Node2&#45;&gt;Node1 -->
<g id="edge1" class="edge">
<title>Node2&#45;&gt;Node1</title>
<path fill="none" stroke="#63b8ff" d="M2412.15,-331.61C2447.16,-327.07 2491.73,-321.28 2526.91,-316.71"/>
<polygon fill="#63b8ff" stroke="#63b8ff" points="2411.55,-328.16 2402.08,-332.92 2412.45,-335.1 2411.55,-328.16"/>
</g>
<!-- Node3 -->
<g id="node3" class="node">
<title>Node3</title>
<g id="a_node3"><a xlink:href="classccf_1_1RpcHandler.html" target="_top" xlink:title=" ">
<polygon fill="white" stroke="#666666" points="2154.5,-385.6 2062.5,-385.6 2062.5,-366.6 2154.5,-366.6 2154.5,-385.6"/>
<text text-anchor="middle" x="2108.5" y="-373.6" font-family="Helvetica,sans-Serif" font-size="10.00">ccf::RpcHandler</text>
</a>
</g>
</g>
<!-- Node3&#45;&gt;Node2 -->
<g id="edge2" class="edge">
<title>Node3&#45;&gt;Node2</title>
<path fill="none" stroke="#63b8ff" d="M2164.74,-367.69C2206.93,-361.27 2264.47,-352.5 2304.7,-346.38"/>
<polygon fill="#63b8ff" stroke="#63b8ff" points="2164,-364.26 2154.64,-369.23 2165.05,-371.18 2164,-364.26"/>
</g>
<!-- Node4 -->
<g id="node4" class="node">
<title>Node4</title>
<g id="a_node4"><a xlink:href="classccf_1_1ForwardedRpcHandler.html" target="_top" xlink:title=" ">
<polygon fill="white" stroke="#666666" points="2180,-348.6 2037,-348.6 2037,-329.6 2180,-329.6 2180,-348.6"/>
<text text-anchor="middle" x="2108.5" y="-336.6" font-family="Helvetica,sans-Serif" font-size="10.00">ccf::ForwardedRpcHandler</text>
</a>
</g>
</g>
<!-- Node4&#45;&gt;Node2 -->
<g id="edge3" class="edge">
<title>Node4&#45;&gt;Node2</title>
<path fill="none" stroke="#63b8ff" d="M2190.14,-339.1C2228.15,-339.1 2272.2,-339.1 2304.81,-339.1"/>
<polygon fill="#63b8ff" stroke="#63b8ff" points="2190.11,-335.6 2180.11,-339.1 2190.11,-342.6 2190.11,-335.6"/>
</g>
<!-- Node5 -->
<g id="node5" class="node">
<title>Node5</title>
<g id="a_node5"><a xlink:href="classkv_1_1Store.html" target="_top" xlink:title=" ">
<polygon fill="white" stroke="#666666" points="2138,-559.6 2079,-559.6 2079,-540.6 2138,-540.6 2138,-559.6"/>
<text text-anchor="middle" x="2108.5" y="-547.6" font-family="Helvetica,sans-Serif" font-size="10.00">kv::Store</text>
</a>
</g>
</g>
<!-- Node5&#45;&gt;Node2 -->
<g id="edge4" class="edge">
<title>Node5&#45;&gt;Node2</title>
<path fill="none" stroke="#9a32cd" stroke-dasharray="5,2" d="M2128.37,-533.72C2176.56,-491.87 2303.07,-382.02 2341.36,-348.77"/>
<polygon fill="#9a32cd" stroke="#9a32cd" points="2125.83,-531.29 2120.57,-540.49 2130.42,-536.57 2125.83,-531.29"/>
<text text-anchor="middle" x="2224" y="-472.1" font-family="Helvetica,sans-Serif" font-size="10.00"> tables</text>
</g>
<!-- Node6 -->
<g id="node6" class="node">
<title>Node6</title>
<g id="a_node6"><a xlink:href="classkv_1_1AbstractStore.html" target="_top" xlink:title=" ">
<polygon fill="white" stroke="#666666" points="1891,-559.6 1791,-559.6 1791,-540.6 1891,-540.6 1891,-559.6"/>
<text text-anchor="middle" x="1841" y="-547.6" font-family="Helvetica,sans-Serif" font-size="10.00">kv::AbstractStore</text>
</a>
</g>
</g>
<!-- Node6&#45;&gt;Node5 -->
<g id="edge5" class="edge">
<title>Node6&#45;&gt;Node5</title>
<path fill="none" stroke="#63b8ff" d="M1901.02,-550.1C1956.28,-550.1 2036.5,-550.1 2078.84,-550.1"/>
<polygon fill="#63b8ff" stroke="#63b8ff" points="1901.01,-546.6 1891.01,-550.1 1901.01,-553.6 1901.01,-546.6"/>
</g>
<!-- Node7 -->
<g id="node7" class="node">
<title>Node7</title>
<g id="a_node7"><a xlink:href="classkv_1_1StoreState.html" target="_top" xlink:title=" ">
<polygon fill="white" stroke="#666666" points="1883.5,-522.6 1798.5,-522.6 1798.5,-503.6 1883.5,-503.6 1883.5,-522.6"/>
<text text-anchor="middle" x="1841" y="-510.6" font-family="Helvetica,sans-Serif" font-size="10.00">kv::StoreState</text>
</a>
</g>
</g>
<!-- Node7&#45;&gt;Node5 -->
<g id="edge6" class="edge">
<title>Node7&#45;&gt;Node5</title>
<path fill="none" stroke="#63b8ff" d="M1893.71,-520.31C1948.9,-528 2034.34,-539.91 2078.65,-546.08"/>
<polygon fill="#63b8ff" stroke="#63b8ff" points="1894.16,-516.84 1883.78,-518.92 1893.2,-523.77 1894.16,-516.84"/>
</g>
<!-- Node8 -->
<g id="node8" class="node">
<title>Node8</title>
<g id="a_node8"><a xlink:title=" ">
<polygon fill="white" stroke="#666666" points="1515.5,-462.6 1446.5,-462.6 1446.5,-443.6 1515.5,-443.6 1515.5,-462.6"/>
<text text-anchor="middle" x="1481" y="-450.6" font-family="Helvetica,sans-Serif" font-size="10.00">std::mutex</text>
</a>
</g>
</g>
<!-- Node8&#45;&gt;Node7 -->
<g id="edge7" class="edge">
<title>Node8&#45;&gt;Node7</title>
<path fill="none" stroke="#9a32cd" stroke-dasharray="5,2" d="M1526.02,-456.76C1596.24,-462.68 1727.88,-474.22 1749,-479.1 1773.81,-484.84 1801.01,-495.64 1819.15,-503.53"/>
<polygon fill="#9a32cd" stroke="#9a32cd" points="1525.97,-453.24 1515.72,-455.89 1525.39,-460.22 1525.97,-453.24"/>
<text text-anchor="middle" x="1661" y="-504.1" font-family="Helvetica,sans-Serif" font-size="10.00"> commit_lock</text>
<text text-anchor="middle" x="1661" y="-493.1" font-family="Helvetica,sans-Serif" font-size="10.00">maps_lock</text>
<text text-anchor="middle" x="1661" y="-482.1" font-family="Helvetica,sans-Serif" font-size="10.00">version_lock</text>
</g>
<!-- Node15 -->
<g id="node15" class="node">
<title>Node15</title>
<g id="a_node15"><a xlink:href="classccf_1_1endpoints_1_1EndpointRegistry.html" target="_top" xlink:title=" ">
<polygon fill="white" stroke="#666666" points="2175,-294.1 2042,-294.1 2042,-264.1 2175,-264.1 2175,-294.1"/>
<text text-anchor="start" x="2050" y="-282.1" font-family="Helvetica,sans-Serif" font-size="10.00">ccf::endpoints::Endpoint</text>
<text text-anchor="middle" x="2108.5" y="-271.1" font-family="Helvetica,sans-Serif" font-size="10.00">Registry</text>
</a>
</g>
</g>
<!-- Node8&#45;&gt;Node15 -->
<g id="edge39" class="edge">
<title>Node8&#45;&gt;Node15</title>
<path fill="none" stroke="#9a32cd" stroke-dasharray="5,2" d="M1525.7,-453.71C1647.2,-455 1982.51,-455.54 2019,-423.1 2053.73,-392.22 2010.43,-358.23 2037,-320.1 2044.69,-309.06 2056.38,-300.57 2068.04,-294.26"/>
<polygon fill="#9a32cd" stroke="#9a32cd" points="1525.67,-450.21 1515.63,-453.6 1525.59,-457.21 1525.67,-450.21"/>
<text text-anchor="middle" x="1841" y="-455.1" font-family="Helvetica,sans-Serif" font-size="10.00"> metrics_lock</text>
</g>
<!-- Node9 -->
<g id="node9" class="node">
<title>Node9</title>
<g id="a_node9"><a xlink:title=" ">
<polygon fill="white" stroke="#666666" points="693,-563.1 550,-563.1 550,-511.1 693,-511.1 693,-563.1"/>
<text text-anchor="start" x="558" y="-551.1" font-family="Helvetica,sans-Serif" font-size="10.00">std::map&lt; std::string,</text>
<text text-anchor="start" x="558" y="-540.1" font-family="Helvetica,sans-Serif" font-size="10.00"> std::pair&lt; kv::Version,</text>
<text text-anchor="start" x="558" y="-529.1" font-family="Helvetica,sans-Serif" font-size="10.00"> std::shared_ptr&lt; untyped</text>
<text text-anchor="middle" x="621.5" y="-518.1" font-family="Helvetica,sans-Serif" font-size="10.00">::Map &gt; &gt; &gt;</text>
</a>
</g>
</g>
<!-- Node9&#45;&gt;Node7 -->
<g id="edge8" class="edge">
<title>Node9&#45;&gt;Node7</title>
<path fill="none" stroke="#9a32cd" stroke-dasharray="5,2" d="M703.28,-547.97C765.95,-555.48 855.08,-564.1 933.5,-564.1 933.5,-564.1 933.5,-564.1 1482,-564.1 1598.3,-564.1 1733.75,-537.4 1799.73,-522.63"/>
<polygon fill="#9a32cd" stroke="#9a32cd" points="703.41,-544.47 693.06,-546.73 702.57,-551.41 703.41,-544.47"/>
<text text-anchor="middle" x="1112" y="-567.1" font-family="Helvetica,sans-Serif" font-size="10.00"> maps</text>
</g>
<!-- Node10 -->
<g id="node10" class="node">
<title>Node10</title>
<g id="a_node10"><a xlink:title=" ">
<polygon fill="white" stroke="#666666" points="220.5,-272.6 155.5,-272.6 155.5,-253.6 220.5,-253.6 220.5,-272.6"/>
<text text-anchor="middle" x="188" y="-260.6" font-family="Helvetica,sans-Serif" font-size="10.00">std::string</text>
</a>
</g>
</g>
<!-- Node10&#45;&gt;Node9 -->
<g id="edge9" class="edge">
<title>Node10&#45;&gt;Node9</title>
<path fill="none" stroke="#9a32cd" stroke-dasharray="5,2" d="M193.25,-282.97C202.91,-326.26 227.63,-427.09 253,-450.1 334.83,-524.33 468.15,-538.53 549.73,-539.57"/>
<polygon fill="#9a32cd" stroke="#9a32cd" points="196.64,-282.08 191.08,-273.06 189.8,-283.57 196.64,-282.08"/>
<text text-anchor="middle" x="298.5" y="-505.1" font-family="Helvetica,sans-Serif" font-size="10.00"> keys</text>
</g>
<!-- Node10&#45;&gt;Node15 -->
<g id="edge16" class="edge">
<title>Node10&#45;&gt;Node15</title>
<path fill="none" stroke="#9a32cd" stroke-dasharray="5,2" d="M204.95,-246.22C216.99,-234.61 234.54,-219.91 253,-212.1 297.98,-193.07 313.4,-203 362,-198.1 615.4,-172.54 678.82,-156.1 933.5,-156.1 933.5,-156.1 933.5,-156.1 1842,-156.1 1922.37,-156.1 1948.04,-155.38 2019,-193.1 2052.11,-210.7 2081.31,-244.42 2096.47,-264.01"/>
<polygon fill="#9a32cd" stroke="#9a32cd" points="202.47,-243.76 197.88,-253.31 207.42,-248.7 202.47,-243.76"/>
<text text-anchor="middle" x="1112" y="-159.1" font-family="Helvetica,sans-Serif" font-size="10.00"> method_prefix</text>
</g>
<!-- Node17 -->
<g id="node17" class="node">
<title>Node17</title>
<g id="a_node17"><a xlink:href="structccf_1_1endpoints_1_1EndpointRegistry_1_1OpenApiInfo.html" target="_top" xlink:title=" ">
<polygon fill="white" stroke="#666666" points="688,-125.1 555,-125.1 555,-95.1 688,-95.1 688,-125.1"/>
<text text-anchor="start" x="563" y="-113.1" font-family="Helvetica,sans-Serif" font-size="10.00">ccf::endpoints::Endpoint</text>
<text text-anchor="middle" x="621.5" y="-102.1" font-family="Helvetica,sans-Serif" font-size="10.00">Registry::OpenApiInfo</text>
</a>
</g>
</g>
<!-- Node10&#45;&gt;Node17 -->
<g id="edge18" class="edge">
<title>Node10&#45;&gt;Node17</title>
<path fill="none" stroke="#9a32cd" stroke-dasharray="5,2" d="M190.62,-243.3C194.59,-209.41 208.04,-141.04 253,-111.1 300.73,-79.32 462.61,-91.67 554.82,-101.86"/>
<polygon fill="#9a32cd" stroke="#9a32cd" points="187.13,-243.07 189.61,-253.37 194.09,-243.77 187.13,-243.07"/>
<text text-anchor="middle" x="298.5" y="-136.1" font-family="Helvetica,sans-Serif" font-size="10.00"> description</text>
<text text-anchor="middle" x="298.5" y="-125.1" font-family="Helvetica,sans-Serif" font-size="10.00">document_version</text>
<text text-anchor="middle" x="298.5" y="-114.1" font-family="Helvetica,sans-Serif" font-size="10.00">title</text>
</g>
<!-- Node20 -->
<g id="node20" class="node">
<title>Node20</title>
<g id="a_node20"><a xlink:href="structccf_1_1endpoints_1_1EndpointDefinition.html" target="_top" xlink:title=" ">
<polygon fill="white" stroke="#666666" points="1178.5,-302.1 1045.5,-302.1 1045.5,-272.1 1178.5,-272.1 1178.5,-302.1"/>
<text text-anchor="start" x="1053.5" y="-290.1" font-family="Helvetica,sans-Serif" font-size="10.00">ccf::endpoints::Endpoint</text>
<text text-anchor="middle" x="1112" y="-279.1" font-family="Helvetica,sans-Serif" font-size="10.00">Definition</text>
</a>
</g>
</g>
<!-- Node10&#45;&gt;Node20 -->
<g id="edge25" class="edge">
<title>Node10&#45;&gt;Node20</title>
<path fill="none" stroke="#9a32cd" stroke-dasharray="5,2" d="M199.16,-281.71C210,-299.6 228.91,-325.82 253,-339.1 295.82,-362.71 313.21,-350.76 362,-354.1 615.01,-371.43 915.3,-323.88 1045.45,-299.94"/>
<polygon fill="#9a32cd" stroke="#9a32cd" points="202.02,-279.67 193.99,-272.76 195.96,-283.17 202.02,-279.67"/>
<text text-anchor="middle" x="621.5" y="-360.1" font-family="Helvetica,sans-Serif" font-size="10.00"> full_uri_path</text>
</g>
<!-- Node21 -->
<g id="node21" class="node">
<title>Node21</title>
<g id="a_node21"><a xlink:href="structccf_1_1endpoints_1_1EndpointKey.html" target="_top" xlink:title=" ">
<polygon fill="white" stroke="#666666" points="522.5,-429.6 371.5,-429.6 371.5,-410.6 522.5,-410.6 522.5,-429.6"/>
<text text-anchor="middle" x="447" y="-417.6" font-family="Helvetica,sans-Serif" font-size="10.00">ccf::endpoints::EndpointKey</text>
</a>
</g>
</g>
<!-- Node10&#45;&gt;Node21 -->
<g id="edge23" class="edge">
<title>Node10&#45;&gt;Node21</title>
<path fill="none" stroke="#9a32cd" stroke-dasharray="5,2" d="M193.59,-282.96C201.07,-310.53 218.61,-359.84 253,-385.1 271.73,-398.86 325.36,-407.9 371.34,-413.34"/>
<polygon fill="#9a32cd" stroke="#9a32cd" points="196.9,-281.77 191.06,-272.93 190.12,-283.48 196.9,-281.77"/>
<text text-anchor="middle" x="298.5" y="-412.1" font-family="Helvetica,sans-Serif" font-size="10.00"> uri_path</text>
</g>
<!-- Node23 -->
<g id="node23" class="node">
<title>Node23</title>
<g id="a_node23"><a xlink:href="structccf_1_1endpoints_1_1EndpointProperties.html" target="_top" xlink:title=" ">
<polygon fill="white" stroke="#666666" points="844.5,-302.1 711.5,-302.1 711.5,-272.1 844.5,-272.1 844.5,-302.1"/>
<text text-anchor="start" x="719.5" y="-290.1" font-family="Helvetica,sans-Serif" font-size="10.00">ccf::endpoints::Endpoint</text>
<text text-anchor="middle" x="778" y="-279.1" font-family="Helvetica,sans-Serif" font-size="10.00">Properties</text>
</a>
</g>
</g>
<!-- Node10&#45;&gt;Node23 -->
<g id="edge29" class="edge">
<title>Node10&#45;&gt;Node23</title>
<path fill="none" stroke="#9a32cd" stroke-dasharray="5,2" d="M230.72,-264.8C331.58,-268.92 589.28,-279.44 711.19,-284.41"/>
<polygon fill="#9a32cd" stroke="#9a32cd" points="230.75,-261.3 220.61,-264.39 230.46,-268.3 230.75,-261.3"/>
<text text-anchor="middle" x="447" y="-291.1" font-family="Helvetica,sans-Serif" font-size="10.00"> js_function</text>
<text text-anchor="middle" x="447" y="-280.1" font-family="Helvetica,sans-Serif" font-size="10.00">js_module</text>
</g>
<!-- Node24 -->
<g id="node24" class="node">
<title>Node24</title>
<g id="a_node24"><a xlink:title=" ">
<polygon fill="white" stroke="#666666" points="517,-345.6 377,-345.6 377,-326.6 517,-326.6 517,-345.6"/>
<text text-anchor="middle" x="447" y="-333.6" font-family="Helvetica,sans-Serif" font-size="10.00">std::vector&lt; std::string &gt;</text>
</a>
</g>
</g>
<!-- Node10&#45;&gt;Node24 -->
<g id="edge28" class="edge">
<title>Node10&#45;&gt;Node24</title>
<path fill="none" stroke="#9a32cd" stroke-dasharray="5,2" d="M210.97,-278.3C222.91,-285.91 238.23,-294.64 253,-300.1 292.64,-314.76 339.16,-323.67 376.6,-328.95"/>
<polygon fill="#9a32cd" stroke="#9a32cd" points="212.84,-275.34 202.56,-272.78 208.99,-281.19 212.84,-275.34"/>
<text text-anchor="middle" x="298.5" y="-327.1" font-family="Helvetica,sans-Serif" font-size="10.00"> elements</text>
</g>
<!-- Node29 -->
<g id="node29" class="node">
<title>Node29</title>
<g id="a_node29"><a xlink:title=" ">
<polygon fill="white" stroke="#666666" points="1006,-91.6 863,-91.6 863,-50.6 1006,-50.6 1006,-91.6"/>
<text text-anchor="start" x="871" y="-79.6" font-family="Helvetica,sans-Serif" font-size="10.00">std::map&lt; std::string,</text>
<text text-anchor="start" x="871" y="-68.6" font-family="Helvetica,sans-Serif" font-size="10.00"> std::map&lt; ccf::RESTVerb,</text>
<text text-anchor="middle" x="934.5" y="-57.6" font-family="Helvetica,sans-Serif" font-size="10.00"> EndpointPtr &gt; &gt;</text>
</a>
</g>
</g>
<!-- Node10&#45;&gt;Node29 -->
<g id="edge36" class="edge">
<title>Node10&#45;&gt;Node29</title>
<path fill="none" stroke="#9a32cd" stroke-dasharray="5,2" d="M189.79,-243.54C192.44,-206.55 203.86,-126.63 253,-88.1 436.22,55.54 740.43,-11.82 870.92,-50.5"/>
<polygon fill="#9a32cd" stroke="#9a32cd" points="186.3,-243.36 189.22,-253.55 193.28,-243.76 186.3,-243.36"/>
<text text-anchor="middle" x="447" y="-31.1" font-family="Helvetica,sans-Serif" font-size="10.00"> keys</text>
</g>
<!-- Node30 -->
<g id="node30" class="node">
<title>Node30</title>
<g id="a_node30"><a xlink:title=" ">
<polygon fill="white" stroke="#666666" points="1389,-270.1 1218,-270.1 1218,-218.1 1389,-218.1 1389,-270.1"/>
<text text-anchor="start" x="1226" y="-258.1" font-family="Helvetica,sans-Serif" font-size="10.00">std::map&lt; std::string,</text>
<text text-anchor="start" x="1226" y="-247.1" font-family="Helvetica,sans-Serif" font-size="10.00"> std::map&lt; ccf::RESTVerb,</text>
<text text-anchor="start" x="1226" y="-236.1" font-family="Helvetica,sans-Serif" font-size="10.00"> std::shared_ptr&lt; ccf::endpoints</text>
<text text-anchor="middle" x="1303.5" y="-225.1" font-family="Helvetica,sans-Serif" font-size="10.00">::PathTemplatedEndpoint &gt; &gt; &gt;</text>
</a>
</g>
</g>
<!-- Node10&#45;&gt;Node30 -->
<g id="edge38" class="edge">
<title>Node10&#45;&gt;Node30</title>
<path fill="none" stroke="#9a32cd" stroke-dasharray="5,2" d="M230.66,-262.39C394.2,-259.6 994.17,-249.36 1217.77,-245.55"/>
<polygon fill="#9a32cd" stroke="#9a32cd" points="230.47,-258.89 220.53,-262.56 230.59,-265.89 230.47,-258.89"/>
<text text-anchor="middle" x="621.5" y="-260.1" font-family="Helvetica,sans-Serif" font-size="10.00"> keys</text>
</g>
<!-- Node31 -->
<g id="node31" class="node">
<title>Node31</title>
<g id="a_node31"><a xlink:title=" ">
<polygon fill="white" stroke="#666666" points="1749,-242.1 1573,-242.1 1573,-190.1 1749,-190.1 1749,-242.1"/>
<text text-anchor="start" x="1581" y="-230.1" font-family="Helvetica,sans-Serif" font-size="10.00">std::map&lt; std::string,</text>
<text text-anchor="start" x="1581" y="-219.1" font-family="Helvetica,sans-Serif" font-size="10.00"> std::map&lt; std::string,</text>
<text text-anchor="start" x="1581" y="-208.1" font-family="Helvetica,sans-Serif" font-size="10.00"> ccf::endpoints::EndpointRegistry</text>
<text text-anchor="middle" x="1661" y="-197.1" font-family="Helvetica,sans-Serif" font-size="10.00">::Metrics &gt; &gt;</text>
</a>
</g>
</g>
<!-- Node10&#45;&gt;Node31 -->
<g id="edge41" class="edge">
<title>Node10&#45;&gt;Node31</title>
<path fill="none" stroke="#9a32cd" stroke-dasharray="5,2" d="M222.28,-249.94C270.71,-232.01 363.8,-202.1 446,-202.1 446,-202.1 446,-202.1 1304.5,-202.1 1396.07,-202.1 1500.8,-206.8 1572.74,-210.75"/>
<polygon fill="#9a32cd" stroke="#9a32cd" points="220.77,-246.77 212.65,-253.57 223.24,-253.32 220.77,-246.77"/>
<text text-anchor="middle" x="778" y="-205.1" font-family="Helvetica,sans-Serif" font-size="10.00"> keys</text>
</g>
<!-- Node11 -->
<g id="node11" class="node">
<title>Node11</title>
<g id="a_node11"><a xlink:title=" ">
<polygon fill="white" stroke="#666666" points="104,-278.1 0,-278.1 0,-248.1 104,-248.1 104,-278.1"/>
<text text-anchor="start" x="8" y="-266.1" font-family="Helvetica,sans-Serif" font-size="10.00">std::basic_string&lt;</text>
<text text-anchor="middle" x="52" y="-255.1" font-family="Helvetica,sans-Serif" font-size="10.00"> Char &gt;</text>
</a>
</g>
</g>
<!-- Node11&#45;&gt;Node10 -->
<g id="edge10" class="edge">
<title>Node11&#45;&gt;Node10</title>
<path fill="none" stroke="#63b8ff" d="M114.32,-263.1C128.57,-263.1 143.16,-263.1 155.49,-263.1"/>
<polygon fill="#63b8ff" stroke="#63b8ff" points="114.04,-259.6 104.04,-263.1 114.04,-266.6 114.04,-259.6"/>
</g>
<!-- Node12 -->
<g id="node12" class="node">
<title>Node12</title>
<g id="a_node12"><a xlink:title=" ">
<polygon fill="white" stroke="#666666" points="1548,-536.1 1414,-536.1 1414,-484.1 1548,-484.1 1548,-536.1"/>
<text text-anchor="start" x="1422" y="-524.1" font-family="Helvetica,sans-Serif" font-size="10.00">std::unordered_map</text>
<text text-anchor="start" x="1422" y="-513.1" font-family="Helvetica,sans-Serif" font-size="10.00">&lt; Version, std::tuple</text>
<text text-anchor="start" x="1422" y="-502.1" font-family="Helvetica,sans-Serif" font-size="10.00">&lt; std::unique_ptr&lt; kv</text>
<text text-anchor="middle" x="1481" y="-491.1" font-family="Helvetica,sans-Serif" font-size="10.00">::PendingTx &gt;, bool &gt; &gt;</text>
</a>
</g>
</g>
<!-- Node12&#45;&gt;Node7 -->
<g id="edge11" class="edge">
<title>Node12&#45;&gt;Node7</title>
<path fill="none" stroke="#9a32cd" stroke-dasharray="5,2" d="M1558.31,-515.5C1563.28,-515.74 1568.21,-515.94 1573,-516.1 1652.69,-518.73 1745.83,-516.47 1798.36,-514.71"/>
<polygon fill="#9a32cd" stroke="#9a32cd" points="1558.25,-511.99 1548.08,-514.97 1557.88,-518.98 1558.25,-511.99"/>
<text text-anchor="middle" x="1661" y="-520.1" font-family="Helvetica,sans-Serif" font-size="10.00"> pending_txs</text>
</g>
<!-- Node13 -->
<g id="node13" class="node">
<title>Node13</title>
<g id="a_node13"><a xlink:href="classkv_1_1ExecutionWrapperStore.html" target="_top" xlink:title=" ">
<polygon fill="white" stroke="#666666" points="1915,-633.6 1767,-633.6 1767,-614.6 1915,-614.6 1915,-633.6"/>
<text text-anchor="middle" x="1841" y="-621.6" font-family="Helvetica,sans-Serif" font-size="10.00">kv::ExecutionWrapperStore</text>
</a>
</g>
</g>
<!-- Node13&#45;&gt;Node5 -->
<g id="edge12" class="edge">
<title>Node13&#45;&gt;Node5</title>
<path fill="none" stroke="#63b8ff" d="M1900.87,-612.46C1935.54,-605.11 1980.1,-594.81 2019,-583.1 2041.61,-576.3 2066.79,-566.71 2084.49,-559.62"/>
<polygon fill="#63b8ff" stroke="#63b8ff" points="1899.97,-609.07 1890.9,-614.55 1901.41,-615.92 1899.97,-609.07"/>
</g>
<!-- Node14 -->
<g id="node14" class="node">
<title>Node14</title>
<g id="a_node14"><a xlink:href="classkv_1_1ReadOnlyStore.html" target="_top" xlink:title=" ">
<polygon fill="white" stroke="#666666" points="1894.5,-596.6 1787.5,-596.6 1787.5,-577.6 1894.5,-577.6 1894.5,-596.6"/>
<text text-anchor="middle" x="1841" y="-584.6" font-family="Helvetica,sans-Serif" font-size="10.00">kv::ReadOnlyStore</text>
</a>
</g>
</g>
<!-- Node14&#45;&gt;Node5 -->
<g id="edge13" class="edge">
<title>Node14&#45;&gt;Node5</title>
<path fill="none" stroke="#63b8ff" d="M1904.93,-579.35C1938.77,-575.08 1981.2,-569.55 2019,-564.1 2039.02,-561.22 2061.52,-557.65 2078.83,-554.84"/>
<polygon fill="#63b8ff" stroke="#63b8ff" points="1904.2,-575.92 1894.72,-580.64 1905.08,-582.86 1904.2,-575.92"/>
</g>
<!-- Node15&#45;&gt;Node2 -->
<g id="edge14" class="edge">
<title>Node15&#45;&gt;Node2</title>
<path fill="none" stroke="#9a32cd" stroke-dasharray="5,2" d="M2180.48,-296.63C2224.03,-307.38 2278.12,-320.74 2313.9,-329.57"/>
<polygon fill="#9a32cd" stroke="#9a32cd" points="2181.05,-293.16 2170.51,-294.16 2179.37,-299.96 2181.05,-293.16"/>
<text text-anchor="middle" x="2224" y="-316.1" font-family="Helvetica,sans-Serif" font-size="10.00"> endpoints</text>
</g>
<!-- Node35 -->
<g id="node35" class="node">
<title>Node35</title>
<g id="a_node35"><a xlink:title=" ">
<polygon fill="white" stroke="#666666" points="2439,-303.1 2268,-303.1 2268,-273.1 2439,-273.1 2439,-303.1"/>
<text text-anchor="start" x="2276" y="-291.1" font-family="Helvetica,sans-Serif" font-size="10.00">std::unique_ptr&lt; ccf</text>
<text text-anchor="middle" x="2353.5" y="-280.1" font-family="Helvetica,sans-Serif" font-size="10.00">::endpoints::EndpointRegistry &gt;</text>
</a>
</g>
</g>
<!-- Node15&#45;&gt;Node35 -->
<g id="edge46" class="edge">
<title>Node15&#45;&gt;Node35</title>
<path fill="none" stroke="#9a32cd" stroke-dasharray="5,2" d="M2185.4,-278.66C2206.34,-278.8 2229.06,-279.21 2250,-280.1 2255.8,-280.35 2261.77,-280.66 2267.79,-281.02"/>
<polygon fill="#9a32cd" stroke="#9a32cd" points="2185.3,-275.16 2175.28,-278.61 2185.27,-282.16 2185.3,-275.16"/>
<text text-anchor="middle" x="2224" y="-283.1" font-family="Helvetica,sans-Serif" font-size="10.00"> ptr</text>
</g>
<!-- Node16 -->
<g id="node16" class="node">
<title>Node16</title>
<g id="a_node16"><a xlink:href="structccf_1_1endpoints_1_1Endpoint_1_1Installer.html" target="_top" xlink:title=" ">
<polygon fill="white" stroke="#666666" points="1178.5,-391.1 1045.5,-391.1 1045.5,-361.1 1178.5,-361.1 1178.5,-391.1"/>
<text text-anchor="start" x="1053.5" y="-379.1" font-family="Helvetica,sans-Serif" font-size="10.00">ccf::endpoints::Endpoint</text>
<text text-anchor="middle" x="1112" y="-368.1" font-family="Helvetica,sans-Serif" font-size="10.00">::Installer</text>
</a>
</g>
</g>
<!-- Node16&#45;&gt;Node15 -->
<g id="edge15" class="edge">
<title>Node16&#45;&gt;Node15</title>
<path fill="none" stroke="#63b8ff" d="M1188.98,-378.03C1331.86,-380.6 1650.05,-381.3 1915,-346.1 1962.02,-339.85 1974.27,-337.9 2019,-322.1 2040.42,-314.53 2063.47,-303.22 2080.68,-294.1"/>
<polygon fill="#63b8ff" stroke="#63b8ff" points="1188.65,-374.52 1178.59,-377.83 1188.52,-381.52 1188.65,-374.52"/>
</g>
<!-- Node19 -->
<g id="node19" class="node">
<title>Node19</title>
<g id="a_node19"><a xlink:href="structccf_1_1endpoints_1_1Endpoint.html" target="_top" xlink:title=" ">
<polygon fill="white" stroke="#666666" points="1547.5,-329.6 1414.5,-329.6 1414.5,-310.6 1547.5,-310.6 1547.5,-329.6"/>
<text text-anchor="middle" x="1481" y="-317.6" font-family="Helvetica,sans-Serif" font-size="10.00">ccf::endpoints::Endpoint</text>
</a>
</g>
</g>
<!-- Node16&#45;&gt;Node19 -->
<g id="edge33" class="edge">
<title>Node16&#45;&gt;Node19</title>
<path fill="none" stroke="#9a32cd" stroke-dasharray="5,2" d="M1188.5,-359.55C1198.4,-357.6 1208.43,-355.72 1218,-354.1 1254.57,-347.91 1349.53,-335.97 1414.48,-328.01"/>
<polygon fill="#9a32cd" stroke="#9a32cd" points="1187.78,-356.13 1178.66,-361.53 1189.16,-362.99 1187.78,-356.13"/>
<text text-anchor="middle" x="1303.5" y="-357.1" font-family="Helvetica,sans-Serif" font-size="10.00"> installer</text>
</g>
<!-- Node17&#45;&gt;Node15 -->
<g id="edge17" class="edge">
<title>Node17&#45;&gt;Node15</title>
<path fill="none" stroke="#9a32cd" stroke-dasharray="5,2" d="M698.27,-110.1C761.24,-110.1 853.2,-110.1 933.5,-110.1 933.5,-110.1 933.5,-110.1 1842,-110.1 1921.94,-110.1 1952.49,-97.75 2019,-142.1 2064.47,-172.42 2091.68,-234.89 2102.32,-263.8"/>
<polygon fill="#9a32cd" stroke="#9a32cd" points="698.03,-106.6 688.03,-110.1 698.03,-113.6 698.03,-106.6"/>
<text text-anchor="middle" x="1303.5" y="-113.1" font-family="Helvetica,sans-Serif" font-size="10.00"> openapi_info</text>
</g>
<!-- Node18 -->
<g id="node18" class="node">
<title>Node18</title>
<g id="a_node18"><a xlink:title=" ">
<polygon fill="white" stroke="#666666" points="1904.5,-337.1 1777.5,-337.1 1777.5,-307.1 1904.5,-307.1 1904.5,-337.1"/>
<text text-anchor="start" x="1785.5" y="-325.1" font-family="Helvetica,sans-Serif" font-size="10.00">std::shared_ptr&lt; const</text>
<text text-anchor="middle" x="1841" y="-314.1" font-family="Helvetica,sans-Serif" font-size="10.00"> Endpoint &gt;</text>
</a>
</g>
</g>
<!-- Node18&#45;&gt;Node15 -->
<g id="edge19" class="edge">
<title>Node18&#45;&gt;Node15</title>
<path fill="none" stroke="#9a32cd" stroke-dasharray="5,2" d="M1914.47,-310.36C1954.17,-303.93 2003.01,-296.02 2041.63,-289.77"/>
<polygon fill="#9a32cd" stroke="#9a32cd" points="1913.9,-306.91 1904.58,-311.97 1915.01,-313.82 1913.9,-306.91"/>
<text text-anchor="middle" x="1976" y="-310.1" font-family="Helvetica,sans-Serif" font-size="10.00"> default_endpoint</text>
</g>
<!-- Node19&#45;&gt;Node18 -->
<g id="edge20" class="edge">
<title>Node19&#45;&gt;Node18</title>
<path fill="none" stroke="#9a32cd" stroke-dasharray="5,2" d="M1557.9,-320.53C1623.22,-320.89 1716.34,-321.41 1777.45,-321.75"/>
<polygon fill="#9a32cd" stroke="#9a32cd" points="1557.68,-317.02 1547.66,-320.47 1557.64,-324.02 1557.68,-317.02"/>
<text text-anchor="middle" x="1661" y="-325.1" font-family="Helvetica,sans-Serif" font-size="10.00"> ptr</text>
</g>
<!-- Node20&#45;&gt;Node19 -->
<g id="edge21" class="edge">
<title>Node20&#45;&gt;Node19</title>
<path fill="none" stroke="#63b8ff" d="M1188.62,-293.9C1255.13,-299.88 1350.98,-308.5 1414.34,-314.2"/>
<polygon fill="#63b8ff" stroke="#63b8ff" points="1188.89,-290.41 1178.61,-293 1188.26,-297.38 1188.89,-290.41"/>
</g>
<!-- Node21&#45;&gt;Node20 -->
<g id="edge22" class="edge">
<title>Node21&#45;&gt;Node20</title>
<path fill="none" stroke="#9a32cd" stroke-dasharray="5,2" d="M488.61,-432.35C589.51,-460.05 854.33,-515.65 1006,-388.1 1032.9,-365.48 999.64,-336.44 1024,-311.1 1029.97,-304.89 1037.39,-300.24 1045.37,-296.76"/>
<polygon fill="#9a32cd" stroke="#9a32cd" points="489.38,-428.93 478.81,-429.6 487.49,-435.67 489.38,-428.93"/>
<text text-anchor="middle" x="778" y="-471.1" font-family="Helvetica,sans-Serif" font-size="10.00"> dispatch</text>
</g>
<!-- Node22 -->
<g id="node22" class="node">
<title>Node22</title>
<g id="a_node22"><a xlink:href="classccf_1_1RESTVerb.html" target="_top" xlink:title=" ">
<polygon fill="white" stroke="#666666" points="229.5,-450.6 146.5,-450.6 146.5,-431.6 229.5,-431.6 229.5,-450.6"/>
<text text-anchor="middle" x="188" y="-438.6" font-family="Helvetica,sans-Serif" font-size="10.00">ccf::RESTVerb</text>
</a>
</g>
</g>
<!-- Node22&#45;&gt;Node21 -->
<g id="edge24" class="edge">
<title>Node22&#45;&gt;Node21</title>
<path fill="none" stroke="#9a32cd" stroke-dasharray="5,2" d="M239.92,-436.94C277.45,-433.87 329.1,-429.65 371.3,-426.2"/>
<polygon fill="#9a32cd" stroke="#9a32cd" points="239.4,-433.47 229.72,-437.77 239.97,-440.45 239.4,-433.47"/>
<text text-anchor="middle" x="298.5" y="-438.1" font-family="Helvetica,sans-Serif" font-size="10.00"> verb</text>
</g>
<!-- Node23&#45;&gt;Node20 -->
<g id="edge26" class="edge">
<title>Node23&#45;&gt;Node20</title>
<path fill="none" stroke="#9a32cd" stroke-dasharray="5,2" d="M854.71,-287.1C912.18,-287.1 990.4,-287.1 1045.26,-287.1"/>
<polygon fill="#9a32cd" stroke="#9a32cd" points="854.59,-283.6 844.59,-287.1 854.59,-290.6 854.59,-283.6"/>
<text text-anchor="middle" x="934.5" y="-290.1" font-family="Helvetica,sans-Serif" font-size="10.00"> properties</text>
</g>
<!-- Node24&#45;&gt;Node23 -->
<g id="edge27" class="edge">
<title>Node24&#45;&gt;Node23</title>
<path fill="none" stroke="#9a32cd" stroke-dasharray="5,2" d="M523.87,-325.1C572.28,-318.05 636.35,-308.65 693,-300.1 698.98,-299.2 705.2,-298.25 711.43,-297.3"/>
<polygon fill="#9a32cd" stroke="#9a32cd" points="523.18,-321.67 513.79,-326.57 524.19,-328.6 523.18,-321.67"/>
<text text-anchor="middle" x="621.5" y="-324.1" font-family="Helvetica,sans-Serif" font-size="10.00"> authn_policies</text>
</g>
<!-- Node25 -->
<g id="node25" class="node">
<title>Node25</title>
<g id="a_node25"><a xlink:title=" ">
<polygon fill="white" stroke="#666666" points="845,-622.1 711,-622.1 711,-592.1 845,-592.1 845,-622.1"/>
<text text-anchor="start" x="719" y="-610.1" font-family="Helvetica,sans-Serif" font-size="10.00">std::vector&lt; std::shared</text>
<text text-anchor="middle" x="778" y="-599.1" font-family="Helvetica,sans-Serif" font-size="10.00">_ptr&lt; AuthnPolicy &gt; &gt;</text>
</a>
</g>
</g>
<!-- Node25&#45;&gt;Node20 -->
<g id="edge30" class="edge">
<title>Node25&#45;&gt;Node20</title>
<path fill="none" stroke="#9a32cd" stroke-dasharray="5,2" d="M821.72,-587.46C874.49,-560.77 962.58,-507.8 1006,-434.1 1034.05,-386.5 987.43,-352.51 1024,-311.1 1029.81,-304.52 1037.24,-299.68 1045.3,-296.12"/>
<polygon fill="#9a32cd" stroke="#9a32cd" points="820.02,-584.4 812.62,-591.98 823.13,-590.67 820.02,-584.4"/>
<text text-anchor="middle" x="934.5" y="-564.1" font-family="Helvetica,sans-Serif" font-size="10.00"> authn_policies</text>
</g>
<!-- Node26 -->
<g id="node26" class="node">
<title>Node26</title>
<g id="a_node26"><a xlink:title=" ">
<polygon fill="white" stroke="#666666" points="532,-616.6 362,-616.6 362,-597.6 532,-597.6 532,-616.6"/>
<text text-anchor="middle" x="447" y="-604.6" font-family="Helvetica,sans-Serif" font-size="10.00">std::shared_ptr&lt; AuthnPolicy &gt;</text>
</a>
</g>
</g>
<!-- Node26&#45;&gt;Node25 -->
<g id="edge31" class="edge">
<title>Node26&#45;&gt;Node25</title>
<path fill="none" stroke="#9a32cd" stroke-dasharray="5,2" d="M542.55,-607.1C596.4,-607.1 662.53,-607.1 710.82,-607.1"/>
<polygon fill="#9a32cd" stroke="#9a32cd" points="542.3,-603.6 532.3,-607.1 542.3,-610.6 542.3,-603.6"/>
<text text-anchor="middle" x="621.5" y="-610.1" font-family="Helvetica,sans-Serif" font-size="10.00"> elements</text>
</g>
<!-- Node27 -->
<g id="node27" class="node">
<title>Node27</title>
<g id="a_node27"><a xlink:href="classccf_1_1AuthnPolicy.html" target="_top" xlink:title=" ">
<polygon fill="white" stroke="#666666" points="235,-616.6 141,-616.6 141,-597.6 235,-597.6 235,-616.6"/>
<text text-anchor="middle" x="188" y="-604.6" font-family="Helvetica,sans-Serif" font-size="10.00">ccf::AuthnPolicy</text>
</a>
</g>
</g>
<!-- Node27&#45;&gt;Node26 -->
<g id="edge32" class="edge">
<title>Node27&#45;&gt;Node26</title>
<path fill="none" stroke="#9a32cd" stroke-dasharray="5,2" d="M245.5,-607.1C279.63,-607.1 323.77,-607.1 361.94,-607.1"/>
<polygon fill="#9a32cd" stroke="#9a32cd" points="245.24,-603.6 235.24,-607.1 245.24,-610.6 245.24,-603.6"/>
<text text-anchor="middle" x="298.5" y="-610.1" font-family="Helvetica,sans-Serif" font-size="10.00"> ptr</text>
</g>
<!-- Node28 -->
<g id="node28" class="node">
<title>Node28</title>
<g id="a_node28"><a xlink:title=" ">
<polygon fill="white" stroke="#666666" points="1200,-339.6 1024,-339.6 1024,-320.6 1200,-320.6 1200,-339.6"/>
<text text-anchor="middle" x="1112" y="-327.6" font-family="Helvetica,sans-Serif" font-size="10.00">std::vector&lt; SchemaBuilderFn &gt;</text>
</a>
</g>
</g>
<!-- Node28&#45;&gt;Node19 -->
<g id="edge34" class="edge">
<title>Node28&#45;&gt;Node19</title>
<path fill="none" stroke="#9a32cd" stroke-dasharray="5,2" d="M1210.23,-320.51C1212.84,-320.36 1215.44,-320.22 1218,-320.1 1284.79,-316.93 1361.26,-317.4 1414.28,-318.38"/>
<polygon fill="#9a32cd" stroke="#9a32cd" points="1209.8,-317.03 1200.04,-321.17 1210.25,-324.02 1209.8,-317.03"/>
<text text-anchor="middle" x="1303.5" y="-323.1" font-family="Helvetica,sans-Serif" font-size="10.00"> schema_builders</text>
</g>
<!-- Node29&#45;&gt;Node15 -->
<g id="edge35" class="edge">
<title>Node29&#45;&gt;Node15</title>
<path fill="none" stroke="#9a32cd" stroke-dasharray="5,2" d="M1016.43,-71.1C1090.79,-71.1 1204.07,-71.1 1302.5,-71.1 1302.5,-71.1 1302.5,-71.1 1842,-71.1 1921.45,-71.1 1954.82,-49.27 2019,-96.1 2076.73,-138.22 2098.5,-228.21 2105.08,-263.98"/>
<polygon fill="#9a32cd" stroke="#9a32cd" points="1016.2,-67.6 1006.2,-71.1 1016.2,-74.6 1016.2,-67.6"/>
<text text-anchor="middle" x="1481" y="-74.1" font-family="Helvetica,sans-Serif" font-size="10.00"> fully_qualified_endpoints</text>
</g>
<!-- Node30&#45;&gt;Node15 -->
<g id="edge37" class="edge">
<title>Node30&#45;&gt;Node15</title>
<path fill="none" stroke="#9a32cd" stroke-dasharray="5,2" d="M1399.32,-248.53C1492.8,-252.86 1639.74,-259.6 1767,-265.1 1862.61,-269.24 1973.33,-273.74 2041.9,-276.49"/>
<polygon fill="#9a32cd" stroke="#9a32cd" points="1399.47,-245.03 1389.31,-248.06 1399.14,-252.02 1399.47,-245.03"/>
<text text-anchor="middle" x="1661" y="-268.1" font-family="Helvetica,sans-Serif" font-size="10.00"> templated_endpoints</text>
</g>
<!-- Node31&#45;&gt;Node15 -->
<g id="edge40" class="edge">
<title>Node31&#45;&gt;Node15</title>
<path fill="none" stroke="#9a32cd" stroke-dasharray="5,2" d="M1758.95,-228.86C1830.79,-238.45 1931.08,-252.11 2019,-265.1 2026.39,-266.19 2034.11,-267.37 2041.8,-268.55"/>
<polygon fill="#9a32cd" stroke="#9a32cd" points="1759.38,-225.39 1749,-227.54 1758.45,-232.33 1759.38,-225.39"/>
<text text-anchor="middle" x="1841" y="-253.1" font-family="Helvetica,sans-Serif" font-size="10.00"> metrics</text>
</g>
<!-- Node32 -->
<g id="node32" class="node">
<title>Node32</title>
<g id="a_node32"><a xlink:href="classkv_1_1Consensus.html" target="_top" xlink:title=" ">
<polygon fill="white" stroke="#666666" points="1884,-412.6 1798,-412.6 1798,-393.6 1884,-393.6 1884,-412.6"/>
<text text-anchor="middle" x="1841" y="-400.6" font-family="Helvetica,sans-Serif" font-size="10.00">kv::Consensus</text>
</a>
</g>
</g>
<!-- Node32&#45;&gt;Node15 -->
<g id="edge42" class="edge">
<title>Node32&#45;&gt;Node15</title>
<path fill="none" stroke="#9a32cd" stroke-dasharray="5,2" d="M1894.35,-409.56C1933.13,-411.36 1984.94,-407.09 2019,-378.1 2039.55,-360.61 2020.19,-341.22 2037,-320.1 2045.64,-309.25 2058,-300.69 2069.96,-294.27"/>
<polygon fill="#9a32cd" stroke="#9a32cd" points="1894.49,-406.06 1884.29,-408.94 1894.06,-413.05 1894.49,-406.06"/>
<text text-anchor="middle" x="1976" y="-411.1" font-family="Helvetica,sans-Serif" font-size="10.00"> consensus</text>
</g>
<!-- Node33 -->
<g id="node33" class="node">
<title>Node33</title>
<g id="a_node33"><a xlink:href="classkv_1_1ConfigurableConsensus.html" target="_top" xlink:title=" ">
<polygon fill="white" stroke="#666666" points="1555,-412.6 1407,-412.6 1407,-393.6 1555,-393.6 1555,-412.6"/>
<text text-anchor="middle" x="1481" y="-400.6" font-family="Helvetica,sans-Serif" font-size="10.00">kv::ConfigurableConsensus</text>
</a>
</g>
</g>
<!-- Node33&#45;&gt;Node32 -->
<g id="edge43" class="edge">
<title>Node33&#45;&gt;Node32</title>
<path fill="none" stroke="#63b8ff" d="M1565.38,-403.1C1638.21,-403.1 1740.92,-403.1 1797.85,-403.1"/>
<polygon fill="#63b8ff" stroke="#63b8ff" points="1565.31,-399.6 1555.31,-403.1 1565.31,-406.6 1565.31,-399.6"/>
</g>
<!-- Node34 -->
<g id="node34" class="node">
<title>Node34</title>
<g id="a_node34"><a xlink:href="classkv_1_1TxHistory.html" target="_top" xlink:title=" ">
<polygon fill="white" stroke="#666666" points="1881.5,-203.6 1800.5,-203.6 1800.5,-184.6 1881.5,-184.6 1881.5,-203.6"/>
<text text-anchor="middle" x="1841" y="-191.6" font-family="Helvetica,sans-Serif" font-size="10.00">kv::TxHistory</text>
</a>
</g>
</g>
<!-- Node34&#45;&gt;Node15 -->
<g id="edge44" class="edge">
<title>Node34&#45;&gt;Node15</title>
<path fill="none" stroke="#9a32cd" stroke-dasharray="5,2" d="M1892.05,-193.39C1928.42,-194.44 1978.2,-199.18 2019,-215.1 2047.62,-226.27 2075.45,-248.93 2092.04,-264.07"/>
<polygon fill="#9a32cd" stroke="#9a32cd" points="1891.76,-189.89 1881.69,-193.18 1891.62,-196.88 1891.76,-189.89"/>
<text text-anchor="middle" x="1976" y="-218.1" font-family="Helvetica,sans-Serif" font-size="10.00"> history</text>
</g>
<!-- Node35&#45;&gt;Node1 -->
<g id="edge45" class="edge">
<title>Node35&#45;&gt;Node1</title>
<path fill="none" stroke="#9a32cd" stroke-dasharray="5,2" d="M2449.34,-295.78C2469.07,-297.46 2489.72,-299.28 2509,-301.1 2514.72,-301.64 2520.67,-302.22 2526.62,-302.82"/>
<polygon fill="#9a32cd" stroke="#9a32cd" points="2449.38,-292.27 2439.12,-294.91 2448.79,-299.24 2449.38,-292.27"/>
<text text-anchor="middle" x="2483" y="-304.1" font-family="Helvetica,sans-Serif" font-size="10.00"> endpoints</text>
</g>
</g>
</svg>
