<?xml version="1.0" encoding="UTF-8" standalone="no"?>
<!DOCTYPE svg PUBLIC "-//W3C//DTD SVG 1.1//EN"
 "http://www.w3.org/Graphics/SVG/1.1/DTD/svg11.dtd">
<!-- Generated by graphviz version 2.43.0 (0)
 -->
<!-- Title: src/enclave/client_endpoint.h Pages: 1 -->
<!--zoomable 313 -->
<svg id="main" version="1.1" xmlns="http://www.w3.org/2000/svg" xmlns:xlink="http://www.w3.org/1999/xlink" xml:space="preserve" onload="init(evt)">
<style type="text/css"><![CDATA[
.edge:hover path { stroke: red; }
.edge:hover polygon { stroke: red; fill: red; }
]]></style>
<script type="text/javascript"><![CDATA[
var edges = document.getElementsByTagName('g');
if (edges && edges.length) {
  for (var i=0;i<edges.length;i++) {
    if (edges[i].id.substr(0,4)=='edge') {
      edges[i].setAttribute('class','edge');
    }
  }
}
]]></script>
        <defs>
                <circle id="rim" cx="0" cy="0" r="7"/>
                <circle id="rim2" cx="0" cy="0" r="3.5"/>
                <g id="zoomPlus">
                        <use xlink:href="#rim" fill="#404040">
                                <set attributeName="fill" to="#808080" begin="zoomplus.mouseover" end="zoomplus.mouseout"/>
                        </use>
                        <path d="M-4,0h8M0,-4v8" fill="none" stroke="white" stroke-width="1.5" pointer-events="none"/>
                </g>
                <g id="zoomMin">
                        <use xlink:href="#rim" fill="#404040">
                                <set attributeName="fill" to="#808080" begin="zoomminus.mouseover" end="zoomminus.mouseout"/>
                        </use>
                        <path d="M-4,0h8" fill="none" stroke="white" stroke-width="1.5" pointer-events="none"/>
                </g>
                <g id="dirArrow">
                        <path fill="none" stroke="white" stroke-width="1.5" d="M0,-3.0v7 M-2.5,-0.5L0,-3.0L2.5,-0.5"/>
                </g>
               <g id="resetDef">
                       <use xlink:href="#rim2" fill="#404040">
                               <set attributeName="fill" to="#808080" begin="reset.mouseover" end="reset.mouseout"/>
                       </use>
               </g>
        </defs>

<script type="text/javascript">
var viewWidth = 1583;
var viewHeight = 313;
var sectionId = 'dynsection-0';
</script>
<script xlink:href="svgpan.js"/>
<svg id="graph" class="graph">
<g id="viewport">
<title>src/enclave/client_endpoint.h</title>
<!-- Node1 -->
<g id="node1" class="node">
<title>Node1</title>
<g id="a_node1"><a xlink:title=" ">
<polygon fill="#999999" stroke="#666666" points="651.59,-305 549.59,-305 549.59,-275 651.59,-275 651.59,-305"/>
<text text-anchor="start" x="557.59" y="-293" font-family="Helvetica,sans-Serif" font-size="10.00">src/enclave/client</text>
<text text-anchor="middle" x="600.59" y="-282" font-family="Helvetica,sans-Serif" font-size="10.00">_endpoint.h</text>
</a>
</g>
</g>
<!-- Node2 -->
<g id="node2" class="node">
<title>Node2</title>
<g id="a_node2"><a xlink:href="http__builder_8h.html" target="_top" xlink:title=" ">
<polygon fill="white" stroke="#666666" points="510.59,-129 404.59,-129 404.59,-110 510.59,-110 510.59,-129"/>
<text text-anchor="middle" x="457.59" y="-117" font-family="Helvetica,sans-Serif" font-size="10.00">http/http_builder.h</text>
</a>
</g>
</g>
<!-- Node1&#45;&gt;Node2 -->
<g id="edge1" class="edge">
<title>Node1&#45;&gt;Node2</title>
<path fill="none" stroke="#63b8ff" d="M588.65,-274.92C562.4,-243.99 499.79,-170.23 471.68,-137.1"/>
<polygon fill="#63b8ff" stroke="#63b8ff" points="474.16,-134.61 465.02,-129.25 468.82,-139.14 474.16,-134.61"/>
</g>
<!-- Node17 -->
<g id="node17" class="node">
<title>Node17</title>
<g id="a_node17"><a xlink:href="msg__types_8h.html" target="_top" xlink:title=" ">
<polygon fill="white" stroke="#666666" points="693.59,-239 599.59,-239 599.59,-220 693.59,-220 693.59,-239"/>
<text text-anchor="middle" x="646.59" y="-227" font-family="Helvetica,sans-Serif" font-size="10.00">tls/msg_types.h</text>
</a>
</g>
</g>
<!-- Node1&#45;&gt;Node17 -->
<g id="edge19" class="edge">
<title>Node1&#45;&gt;Node17</title>
<path fill="none" stroke="#63b8ff" d="M611.73,-274.84C618.27,-266.52 626.57,-255.96 633.44,-247.23"/>
<polygon fill="#63b8ff" stroke="#63b8ff" points="636.27,-249.29 639.7,-239.27 630.77,-244.96 636.27,-249.29"/>
</g>
<!-- Node3 -->
<g id="node3" class="node">
<title>Node3</title>
<g id="a_node3"><a xlink:href="nonstd_8h.html" target="_top" xlink:title=" ">
<polygon fill="white" stroke="#666666" points="775.59,-74 685.59,-74 685.59,-55 775.59,-55 775.59,-74"/>
<text text-anchor="middle" x="730.59" y="-62" font-family="Helvetica,sans-Serif" font-size="10.00">ccf/ds/nonstd.h</text>
</a>
</g>
</g>
<!-- Node2&#45;&gt;Node3 -->
<g id="edge2" class="edge">
<title>Node2&#45;&gt;Node3</title>
<path fill="none" stroke="#63b8ff" d="M501.46,-109.98C549.07,-100.74 625.17,-85.97 676.47,-76.01"/>
<polygon fill="#63b8ff" stroke="#63b8ff" points="677.24,-79.42 686.39,-74.08 675.9,-72.55 677.24,-79.42"/>
</g>
<!-- Node7 -->
<g id="node7" class="node">
<title>Node7</title>
<g id="a_node7"><a xlink:title=" ">
<polygon fill="#e0e0e0" stroke="#999999" points="526.59,-19 482.59,-19 482.59,0 526.59,0 526.59,-19"/>
<text text-anchor="middle" x="504.59" y="-7" font-family="Helvetica,sans-Serif" font-size="10.00">string</text>
</a>
</g>
</g>
<!-- Node2&#45;&gt;Node7 -->
<g id="edge17" class="edge">
<title>Node2&#45;&gt;Node7</title>
<path fill="none" stroke="#63b8ff" d="M404.51,-119.06C274,-119.55 -48.11,-114.81 6.59,-55 38.03,-20.63 366.8,-12.61 472.24,-10.92"/>
<polygon fill="#63b8ff" stroke="#63b8ff" points="472.35,-14.42 482.29,-10.77 472.24,-7.42 472.35,-14.42"/>
</g>
<!-- Node10 -->
<g id="node10" class="node">
<title>Node10</title>
<g id="a_node10"><a xlink:title=" ">
<polygon fill="#e0e0e0" stroke="#999999" points="980.09,-19 933.09,-19 933.09,0 980.09,0 980.09,-19"/>
<text text-anchor="middle" x="956.59" y="-7" font-family="Helvetica,sans-Serif" font-size="10.00">vector</text>
</a>
</g>
</g>
<!-- Node2&#45;&gt;Node10 -->
<g id="edge18" class="edge">
<title>Node2&#45;&gt;Node10</title>
<path fill="none" stroke="#63b8ff" d="M510.65,-114.86C575.9,-109.57 689.67,-97.68 784.59,-74 836.74,-60.99 894.91,-37.52 928.49,-23.05"/>
<polygon fill="#63b8ff" stroke="#63b8ff" points="929.91,-26.25 937.68,-19.04 927.11,-19.83 929.91,-26.25"/>
</g>
<!-- Node11 -->
<g id="node11" class="node">
<title>Node11</title>
<g id="a_node11"><a xlink:href="http__consts_8h.html" target="_top" xlink:title=" ">
<polygon fill="white" stroke="#666666" points="261.09,-74 162.09,-74 162.09,-55 261.09,-55 261.09,-74"/>
<text text-anchor="middle" x="211.59" y="-62" font-family="Helvetica,sans-Serif" font-size="10.00">ccf/http_consts.h</text>
</a>
</g>
</g>
<!-- Node2&#45;&gt;Node11 -->
<g id="edge10" class="edge">
<title>Node2&#45;&gt;Node11</title>
<path fill="none" stroke="#63b8ff" d="M418.07,-109.98C375.43,-100.8 307.44,-86.15 261.23,-76.19"/>
<polygon fill="#63b8ff" stroke="#63b8ff" points="261.94,-72.77 251.43,-74.08 260.47,-79.61 261.94,-72.77"/>
</g>
<!-- Node12 -->
<g id="node12" class="node">
<title>Node12</title>
<g id="a_node12"><a xlink:href="http__header__map_8h.html" target="_top" xlink:title=" ">
<polygon fill="white" stroke="#666666" points="143.59,-74 15.59,-74 15.59,-55 143.59,-55 143.59,-74"/>
<text text-anchor="middle" x="79.59" y="-62" font-family="Helvetica,sans-Serif" font-size="10.00">ccf/http_header_map.h</text>
</a>
</g>
</g>
<!-- Node2&#45;&gt;Node12 -->
<g id="edge11" class="edge">
<title>Node2&#45;&gt;Node12</title>
<path fill="none" stroke="#63b8ff" d="M404.24,-111.02C337.86,-101.71 224.31,-85.79 150.62,-75.46"/>
<polygon fill="#63b8ff" stroke="#63b8ff" points="150.89,-71.96 140.5,-74.04 149.92,-78.89 150.89,-71.96"/>
</g>
<!-- Node13 -->
<g id="node13" class="node">
<title>Node13</title>
<g id="a_node13"><a xlink:href="http__status_8h.html" target="_top" xlink:title=" ">
<polygon fill="white" stroke="#666666" points="377.59,-74 279.59,-74 279.59,-55 377.59,-55 377.59,-74"/>
<text text-anchor="middle" x="328.59" y="-62" font-family="Helvetica,sans-Serif" font-size="10.00">ccf/http_status.h</text>
</a>
</g>
</g>
<!-- Node2&#45;&gt;Node13 -->
<g id="edge13" class="edge">
<title>Node2&#45;&gt;Node13</title>
<path fill="none" stroke="#63b8ff" d="M436.87,-109.98C415.83,-101.34 383.04,-87.87 359.06,-78.02"/>
<polygon fill="#63b8ff" stroke="#63b8ff" points="360.28,-74.73 349.7,-74.17 357.62,-81.21 360.28,-74.73"/>
</g>
<!-- Node14 -->
<g id="node14" class="node">
<title>Node14</title>
<g id="a_node14"><a xlink:title=" ">
<polygon fill="#e0e0e0" stroke="#999999" points="667.09,-74 588.09,-74 588.09,-55 667.09,-55 667.09,-74"/>
<text text-anchor="middle" x="627.59" y="-62" font-family="Helvetica,sans-Serif" font-size="10.00">fmt/format.h</text>
</a>
</g>
</g>
<!-- Node2&#45;&gt;Node14 -->
<g id="edge14" class="edge">
<title>Node2&#45;&gt;Node14</title>
<path fill="none" stroke="#63b8ff" d="M484.91,-109.98C513.45,-101.09 558.42,-87.07 590.24,-77.15"/>
<polygon fill="#63b8ff" stroke="#63b8ff" points="591.56,-80.4 600.07,-74.08 589.48,-73.72 591.56,-80.4"/>
</g>
<!-- Node15 -->
<g id="node15" class="node">
<title>Node15</title>
<g id="a_node15"><a xlink:title=" ">
<polygon fill="#e0e0e0" stroke="#999999" points="475.59,-74 395.59,-74 395.59,-55 475.59,-55 475.59,-74"/>
<text text-anchor="middle" x="435.59" y="-62" font-family="Helvetica,sans-Serif" font-size="10.00">llhttp/llhttp.h</text>
</a>
</g>
</g>
<!-- Node2&#45;&gt;Node15 -->
<g id="edge15" class="edge">
<title>Node2&#45;&gt;Node15</title>
<path fill="none" stroke="#63b8ff" d="M453.96,-109.75C451.01,-102.65 446.76,-92.4 443.09,-83.56"/>
<polygon fill="#63b8ff" stroke="#63b8ff" points="446.22,-81.98 439.16,-74.09 439.76,-84.67 446.22,-81.98"/>
</g>
<!-- Node16 -->
<g id="node16" class="node">
<title>Node16</title>
<g id="a_node16"><a xlink:title=" ">
<polygon fill="#e0e0e0" stroke="#999999" points="531.59,-74 493.59,-74 493.59,-55 531.59,-55 531.59,-74"/>
<text text-anchor="middle" x="512.59" y="-62" font-family="Helvetica,sans-Serif" font-size="10.00">map</text>
</a>
</g>
</g>
<!-- Node2&#45;&gt;Node16 -->
<g id="edge16" class="edge">
<title>Node2&#45;&gt;Node16</title>
<path fill="none" stroke="#63b8ff" d="M466.68,-109.75C474.68,-102.03 486.55,-90.6 496.21,-81.28"/>
<polygon fill="#63b8ff" stroke="#63b8ff" points="498.91,-83.55 503.68,-74.09 494.05,-78.51 498.91,-83.55"/>
</g>
<!-- Node4 -->
<g id="node4" class="node">
<title>Node4</title>
<g id="a_node4"><a xlink:title=" ">
<polygon fill="#e0e0e0" stroke="#999999" points="608.59,-19 544.59,-19 544.59,0 608.59,0 608.59,-19"/>
<text text-anchor="middle" x="576.59" y="-7" font-family="Helvetica,sans-Serif" font-size="10.00">algorithm</text>
</a>
</g>
</g>
<!-- Node3&#45;&gt;Node4 -->
<g id="edge3" class="edge">
<title>Node3&#45;&gt;Node4</title>
<path fill="none" stroke="#63b8ff" d="M705.85,-54.98C680.22,-46.16 639.96,-32.31 611.19,-22.41"/>
<polygon fill="#63b8ff" stroke="#63b8ff" points="612.12,-19.03 601.53,-19.08 609.85,-25.65 612.12,-19.03"/>
</g>
<!-- Node5 -->
<g id="node5" class="node">
<title>Node5</title>
<g id="a_node5"><a xlink:title=" ">
<polygon fill="#e0e0e0" stroke="#999999" points="827.59,-19 785.59,-19 785.59,0 827.59,0 827.59,-19"/>
<text text-anchor="middle" x="806.59" y="-7" font-family="Helvetica,sans-Serif" font-size="10.00">array</text>
</a>
</g>
</g>
<!-- Node3&#45;&gt;Node5 -->
<g id="edge4" class="edge">
<title>Node3&#45;&gt;Node5</title>
<path fill="none" stroke="#63b8ff" d="M742.8,-54.98C754.37,-46.92 771.97,-34.65 785.75,-25.03"/>
<polygon fill="#63b8ff" stroke="#63b8ff" points="787.96,-27.76 794.16,-19.17 783.96,-22.02 787.96,-27.76"/>
</g>
<!-- Node6 -->
<g id="node6" class="node">
<title>Node6</title>
<g id="a_node6"><a xlink:title=" ">
<polygon fill="#e0e0e0" stroke="#999999" points="676.09,-19 627.09,-19 627.09,0 676.09,0 676.09,-19"/>
<text text-anchor="middle" x="651.59" y="-7" font-family="Helvetica,sans-Serif" font-size="10.00">cctype</text>
</a>
</g>
</g>
<!-- Node3&#45;&gt;Node6 -->
<g id="edge5" class="edge">
<title>Node3&#45;&gt;Node6</title>
<path fill="none" stroke="#63b8ff" d="M717.9,-54.98C705.76,-46.84 687.24,-34.41 672.85,-24.76"/>
<polygon fill="#63b8ff" stroke="#63b8ff" points="674.77,-21.84 664.52,-19.17 670.87,-27.65 674.77,-21.84"/>
</g>
<!-- Node3&#45;&gt;Node7 -->
<g id="edge6" class="edge">
<title>Node3&#45;&gt;Node7</title>
<path fill="none" stroke="#63b8ff" d="M690.88,-54.97C653.48,-46.81 595.65,-33.9 536.76,-19.21"/>
<polygon fill="#63b8ff" stroke="#63b8ff" points="537.46,-15.78 526.91,-16.74 535.76,-22.57 537.46,-15.78"/>
</g>
<!-- Node8 -->
<g id="node8" class="node">
<title>Node8</title>
<g id="a_node8"><a xlink:title=" ">
<polygon fill="#e0e0e0" stroke="#999999" points="767.09,-19 694.09,-19 694.09,0 767.09,0 767.09,-19"/>
<text text-anchor="middle" x="730.59" y="-7" font-family="Helvetica,sans-Serif" font-size="10.00">string_view</text>
</a>
</g>
</g>
<!-- Node3&#45;&gt;Node8 -->
<g id="edge7" class="edge">
<title>Node3&#45;&gt;Node8</title>
<path fill="none" stroke="#63b8ff" d="M730.59,-54.75C730.59,-47.8 730.59,-37.85 730.59,-29.13"/>
<polygon fill="#63b8ff" stroke="#63b8ff" points="734.09,-29.09 730.59,-19.09 727.09,-29.09 734.09,-29.09"/>
</g>
<!-- Node9 -->
<g id="node9" class="node">
<title>Node9</title>
<g id="a_node9"><a xlink:title=" ">
<polygon fill="#e0e0e0" stroke="#999999" points="915.09,-19 846.09,-19 846.09,0 915.09,0 915.09,-19"/>
<text text-anchor="middle" x="880.59" y="-7" font-family="Helvetica,sans-Serif" font-size="10.00">type_traits</text>
</a>
</g>
</g>
<!-- Node3&#45;&gt;Node9 -->
<g id="edge8" class="edge">
<title>Node3&#45;&gt;Node9</title>
<path fill="none" stroke="#63b8ff" d="M754.69,-54.98C779.48,-46.23 818.3,-32.51 846.28,-22.62"/>
<polygon fill="#63b8ff" stroke="#63b8ff" points="847.79,-25.8 856.05,-19.17 845.46,-19.2 847.79,-25.8"/>
</g>
<!-- Node3&#45;&gt;Node10 -->
<g id="edge9" class="edge">
<title>Node3&#45;&gt;Node10</title>
<path fill="none" stroke="#63b8ff" d="M769.7,-54.94C806.88,-46.71 864.6,-33.7 923.08,-19.32"/>
<polygon fill="#63b8ff" stroke="#63b8ff" points="923.98,-22.7 932.85,-16.9 922.3,-15.9 923.98,-22.7"/>
</g>
<!-- Node12&#45;&gt;Node7 -->
<g id="edge12" class="edge">
<title>Node12&#45;&gt;Node7</title>
<path fill="none" stroke="#63b8ff" d="M143.68,-55.51C235.88,-44.01 402.52,-23.23 472.39,-14.52"/>
<polygon fill="#63b8ff" stroke="#63b8ff" points="472.88,-17.98 482.37,-13.27 472.01,-11.04 472.88,-17.98"/>
</g>
<!-- Node18 -->
<g id="node18" class="node">
<title>Node18</title>
<g id="a_node18"><a xlink:href="ring__buffer__types_8h.html" target="_top" xlink:title=" ">
<polygon fill="white" stroke="#666666" points="802.09,-184 677.09,-184 677.09,-165 802.09,-165 802.09,-184"/>
<text text-anchor="middle" x="739.59" y="-172" font-family="Helvetica,sans-Serif" font-size="10.00">ds/ring_buffer_types.h</text>
</a>
</g>
</g>
<!-- Node17&#45;&gt;Node18 -->
<g id="edge20" class="edge">
<title>Node17&#45;&gt;Node18</title>
<path fill="none" stroke="#63b8ff" d="M661.53,-219.98C676.09,-211.69 698.46,-198.94 715.53,-189.22"/>
<polygon fill="#63b8ff" stroke="#63b8ff" points="717.42,-192.16 724.38,-184.17 713.96,-186.08 717.42,-192.16"/>
</g>
<!-- Node18&#45;&gt;Node3 -->
<g id="edge30" class="edge">
<title>Node18&#45;&gt;Node3</title>
<path fill="none" stroke="#63b8ff" d="M744.02,-164.85C749.72,-152.6 758.34,-129.53 753.59,-110 751.28,-100.51 746.57,-90.78 742.01,-82.85"/>
<polygon fill="#63b8ff" stroke="#63b8ff" points="744.92,-80.89 736.7,-74.2 738.95,-84.55 744.92,-80.89"/>
</g>
<!-- Node18&#45;&gt;Node7 -->
<g id="edge46" class="edge">
<title>Node18&#45;&gt;Node7</title>
<path fill="none" stroke="#63b8ff" d="M676.78,-168.18C644.51,-162.66 606.26,-151.51 578.59,-129 549.92,-105.67 560.77,-85.98 540.59,-55 534.23,-45.24 526.15,-35.08 519.25,-26.94"/>
<polygon fill="#63b8ff" stroke="#63b8ff" points="521.81,-24.55 512.61,-19.29 516.52,-29.14 521.81,-24.55"/>
</g>
<!-- Node18&#45;&gt;Node10 -->
<g id="edge47" class="edge">
<title>Node18&#45;&gt;Node10</title>
<path fill="none" stroke="#63b8ff" d="M750.95,-164.97C785.95,-138.68 892.44,-58.69 936.84,-25.34"/>
<polygon fill="#63b8ff" stroke="#63b8ff" points="939.19,-27.95 945.08,-19.15 934.98,-22.35 939.19,-27.95"/>
</g>
<!-- Node18&#45;&gt;Node14 -->
<g id="edge44" class="edge">
<title>Node18&#45;&gt;Node14</title>
<path fill="none" stroke="#63b8ff" d="M739.16,-164.64C738.07,-151.3 734.21,-125.91 720.59,-110 707.63,-94.85 688.35,-84.46 670.69,-77.56"/>
<polygon fill="#63b8ff" stroke="#63b8ff" points="671.7,-74.2 661.1,-74.07 669.31,-80.78 671.7,-74.2"/>
</g>
<!-- Node19 -->
<g id="node19" class="node">
<title>Node19</title>
<g id="a_node19"><a xlink:href="include_2ccf_2ds_2hash_8h.html" target="_top" xlink:title=" ">
<polygon fill="white" stroke="#666666" points="1023.59,-129 943.59,-129 943.59,-110 1023.59,-110 1023.59,-129"/>
<text text-anchor="middle" x="983.59" y="-117" font-family="Helvetica,sans-Serif" font-size="10.00">ccf/ds/hash.h</text>
</a>
</g>
</g>
<!-- Node18&#45;&gt;Node19 -->
<g id="edge21" class="edge">
<title>Node18&#45;&gt;Node19</title>
<path fill="none" stroke="#63b8ff" d="M778.8,-164.98C821,-155.82 888.24,-141.21 934.07,-131.26"/>
<polygon fill="#63b8ff" stroke="#63b8ff" points="935.05,-134.63 944.08,-129.08 933.57,-127.78 935.05,-134.63"/>
</g>
<!-- Node24 -->
<g id="node24" class="node">
<title>Node24</title>
<g id="a_node24"><a xlink:href="serializer_8h.html" target="_top" xlink:title=" ">
<polygon fill="white" stroke="#666666" points="1194.59,-129 1124.59,-129 1124.59,-110 1194.59,-110 1194.59,-129"/>
<text text-anchor="middle" x="1159.59" y="-117" font-family="Helvetica,sans-Serif" font-size="10.00">serializer.h</text>
</a>
</g>
</g>
<!-- Node18&#45;&gt;Node24 -->
<g id="edge31" class="edge">
<title>Node18&#45;&gt;Node24</title>
<path fill="none" stroke="#63b8ff" d="M802.47,-165.57C888.04,-154.77 1039.09,-135.71 1114.35,-126.21"/>
<polygon fill="#63b8ff" stroke="#63b8ff" points="1114.96,-129.66 1124.45,-124.93 1114.09,-122.71 1114.96,-129.66"/>
</g>
<!-- Node30 -->
<g id="node30" class="node">
<title>Node30</title>
<g id="a_node30"><a xlink:title=" ">
<polygon fill="#e0e0e0" stroke="#999999" points="637.59,-129 587.59,-129 587.59,-110 637.59,-110 637.59,-129"/>
<text text-anchor="middle" x="612.59" y="-117" font-family="Helvetica,sans-Serif" font-size="10.00">atomic</text>
</a>
</g>
</g>
<!-- Node18&#45;&gt;Node30 -->
<g id="edge43" class="edge">
<title>Node18&#45;&gt;Node30</title>
<path fill="none" stroke="#63b8ff" d="M719.19,-164.98C698.57,-156.38 666.49,-142.99 642.9,-133.15"/>
<polygon fill="#63b8ff" stroke="#63b8ff" points="643.95,-129.79 633.37,-129.17 641.25,-136.25 643.95,-129.79"/>
</g>
<!-- Node31 -->
<g id="node31" class="node">
<title>Node31</title>
<g id="a_node31"><a xlink:title=" ">
<polygon fill="#e0e0e0" stroke="#999999" points="711.59,-129 655.59,-129 655.59,-110 711.59,-110 711.59,-129"/>
<text text-anchor="middle" x="683.59" y="-117" font-family="Helvetica,sans-Serif" font-size="10.00">optional</text>
</a>
</g>
</g>
<!-- Node18&#45;&gt;Node31 -->
<g id="edge45" class="edge">
<title>Node18&#45;&gt;Node31</title>
<path fill="none" stroke="#63b8ff" d="M730.6,-164.98C722.4,-157.23 710.09,-145.58 700.12,-136.14"/>
<polygon fill="#63b8ff" stroke="#63b8ff" points="702.42,-133.5 692.75,-129.17 697.61,-138.59 702.42,-133.5"/>
</g>
<!-- Node19&#45;&gt;Node5 -->
<g id="edge26" class="edge">
<title>Node19&#45;&gt;Node5</title>
<path fill="none" stroke="#63b8ff" d="M969.41,-109.84C938.85,-91.2 866.6,-47.11 829.48,-24.46"/>
<polygon fill="#63b8ff" stroke="#63b8ff" points="831.21,-21.42 820.85,-19.2 827.56,-27.39 831.21,-21.42"/>
</g>
<!-- Node19&#45;&gt;Node10 -->
<g id="edge29" class="edge">
<title>Node19&#45;&gt;Node10</title>
<path fill="none" stroke="#63b8ff" d="M969.52,-109.89C958.25,-102.1 943.26,-89.48 936.59,-74 930.11,-58.94 936.95,-41.07 944.34,-28.14"/>
<polygon fill="#63b8ff" stroke="#63b8ff" points="947.52,-29.66 949.89,-19.33 941.6,-25.93 947.52,-29.66"/>
</g>
<!-- Node20 -->
<g id="node20" class="node">
<title>Node20</title>
<g id="a_node20"><a xlink:href="siphash_8h.html" target="_top" xlink:title=" ">
<polygon fill="white" stroke="#666666" points="1283.09,-74 1188.09,-74 1188.09,-55 1283.09,-55 1283.09,-74"/>
<text text-anchor="middle" x="1235.59" y="-62" font-family="Helvetica,sans-Serif" font-size="10.00">ccf/ds/siphash.h</text>
</a>
</g>
</g>
<!-- Node19&#45;&gt;Node20 -->
<g id="edge22" class="edge">
<title>Node19&#45;&gt;Node20</title>
<path fill="none" stroke="#63b8ff" d="M1023.8,-110.04C1067.56,-100.84 1137.6,-86.11 1185.05,-76.13"/>
<polygon fill="#63b8ff" stroke="#63b8ff" points="1186.04,-79.5 1195.11,-74.01 1184.6,-72.65 1186.04,-79.5"/>
</g>
<!-- Node22 -->
<g id="node22" class="node">
<title>Node22</title>
<g id="a_node22"><a xlink:title=" ">
<polygon fill="#e0e0e0" stroke="#999999" points="1336.59,-19 1286.59,-19 1286.59,0 1336.59,0 1336.59,-19"/>
<text text-anchor="middle" x="1311.59" y="-7" font-family="Helvetica,sans-Serif" font-size="10.00">cstdint</text>
</a>
</g>
</g>
<!-- Node19&#45;&gt;Node22 -->
<g id="edge27" class="edge">
<title>Node19&#45;&gt;Node22</title>
<path fill="none" stroke="#63b8ff" d="M1023.85,-115.12C1102.9,-108.13 1272.53,-91.3 1292.59,-74 1305.38,-62.97 1309.75,-43.72 1311.15,-29.29"/>
<polygon fill="#63b8ff" stroke="#63b8ff" points="1314.66,-29.2 1311.74,-19.01 1307.68,-28.79 1314.66,-29.2"/>
</g>
<!-- Node23 -->
<g id="node23" class="node">
<title>Node23</title>
<g id="a_node23"><a xlink:title=" ">
<polygon fill="#e0e0e0" stroke="#999999" points="1094.09,-74 945.09,-74 945.09,-55 1094.09,-55 1094.09,-74"/>
<text text-anchor="middle" x="1019.59" y="-62" font-family="Helvetica,sans-Serif" font-size="10.00">small_vector/SmallVector.h</text>
</a>
</g>
</g>
<!-- Node19&#45;&gt;Node23 -->
<g id="edge28" class="edge">
<title>Node19&#45;&gt;Node23</title>
<path fill="none" stroke="#63b8ff" d="M989.54,-109.75C994.57,-102.34 1001.93,-91.5 1008.11,-82.41"/>
<polygon fill="#63b8ff" stroke="#63b8ff" points="1011.04,-84.33 1013.76,-74.09 1005.24,-80.39 1011.04,-84.33"/>
</g>
<!-- Node20&#45;&gt;Node10 -->
<g id="edge25" class="edge">
<title>Node20&#45;&gt;Node10</title>
<path fill="none" stroke="#63b8ff" d="M1190.77,-54.98C1134.83,-44.36 1040.43,-26.43 990.27,-16.9"/>
<polygon fill="#63b8ff" stroke="#63b8ff" points="990.75,-13.43 980.27,-15 989.44,-20.3 990.75,-13.43"/>
</g>
<!-- Node21 -->
<g id="node21" class="node">
<title>Node21</title>
<g id="a_node21"><a xlink:title=" ">
<polygon fill="#e0e0e0" stroke="#999999" points="1262.09,-19 1209.09,-19 1209.09,0 1262.09,0 1262.09,-19"/>
<text text-anchor="middle" x="1235.59" y="-7" font-family="Helvetica,sans-Serif" font-size="10.00">cstddef</text>
</a>
</g>
</g>
<!-- Node20&#45;&gt;Node21 -->
<g id="edge23" class="edge">
<title>Node20&#45;&gt;Node21</title>
<path fill="none" stroke="#63b8ff" d="M1235.59,-54.75C1235.59,-47.8 1235.59,-37.85 1235.59,-29.13"/>
<polygon fill="#63b8ff" stroke="#63b8ff" points="1239.09,-29.09 1235.59,-19.09 1232.09,-29.09 1239.09,-29.09"/>
</g>
<!-- Node20&#45;&gt;Node22 -->
<g id="edge24" class="edge">
<title>Node20&#45;&gt;Node22</title>
<path fill="none" stroke="#63b8ff" d="M1247.8,-54.98C1259.37,-46.92 1276.97,-34.65 1290.75,-25.03"/>
<polygon fill="#63b8ff" stroke="#63b8ff" points="1292.96,-27.76 1299.16,-19.17 1288.96,-22.02 1292.96,-27.76"/>
</g>
<!-- Node24&#45;&gt;Node3 -->
<g id="edge32" class="edge">
<title>Node24&#45;&gt;Node3</title>
<path fill="none" stroke="#63b8ff" d="M1124.49,-114.16C1049.92,-104.95 875.24,-83.37 785.68,-72.31"/>
<polygon fill="#63b8ff" stroke="#63b8ff" points="786.07,-68.83 775.71,-71.07 785.21,-75.77 786.07,-68.83"/>
</g>
<!-- Node24&#45;&gt;Node9 -->
<g id="edge41" class="edge">
<title>Node24&#45;&gt;Node9</title>
<path fill="none" stroke="#63b8ff" d="M1154.64,-109.91C1146.11,-95.98 1127.28,-68.64 1103.59,-55 1101.65,-53.88 990.03,-31.91 925.47,-19.27"/>
<polygon fill="#63b8ff" stroke="#63b8ff" points="926.02,-15.81 915.54,-17.33 924.68,-22.68 926.02,-15.81"/>
</g>
<!-- Node24&#45;&gt;Node10 -->
<g id="edge42" class="edge">
<title>Node24&#45;&gt;Node10</title>
<path fill="none" stroke="#63b8ff" d="M1158.81,-109.68C1157.11,-95.91 1151.8,-69.41 1135.59,-55 1095.14,-19.05 1030.09,-11.17 990.54,-9.97"/>
<polygon fill="#63b8ff" stroke="#63b8ff" points="990.41,-6.47 980.35,-9.79 990.29,-13.47 990.41,-6.47"/>
</g>
<!-- Node25 -->
<g id="node25" class="node">
<title>Node25</title>
<g id="a_node25"><a xlink:href="serialized_8h.html" target="_top" xlink:title=" ">
<polygon fill="white" stroke="#666666" points="1548.09,-74 1475.09,-74 1475.09,-55 1548.09,-55 1548.09,-74"/>
<text text-anchor="middle" x="1511.59" y="-62" font-family="Helvetica,sans-Serif" font-size="10.00">serialized.h</text>
</a>
</g>
</g>
<!-- Node24&#45;&gt;Node25 -->
<g id="edge33" class="edge">
<title>Node24&#45;&gt;Node25</title>
<path fill="none" stroke="#63b8ff" d="M1194.66,-113.91C1249.97,-106.57 1361.09,-91.38 1464.77,-74.25"/>
<polygon fill="#63b8ff" stroke="#63b8ff" points="1465.49,-77.68 1474.78,-72.59 1464.34,-70.77 1465.49,-77.68"/>
</g>
<!-- Node28 -->
<g id="node28" class="node">
<title>Node28</title>
<g id="a_node28"><a xlink:title=" ">
<polygon fill="#e0e0e0" stroke="#999999" points="1397.59,-74 1339.59,-74 1339.59,-55 1397.59,-55 1397.59,-74"/>
<text text-anchor="middle" x="1368.59" y="-62" font-family="Helvetica,sans-Serif" font-size="10.00">memory</text>
</a>
</g>
</g>
<!-- Node24&#45;&gt;Node28 -->
<g id="edge39" class="edge">
<title>Node24&#45;&gt;Node28</title>
<path fill="none" stroke="#63b8ff" d="M1193.17,-109.98C1230.43,-100.54 1290.46,-85.31 1329.73,-75.36"/>
<polygon fill="#63b8ff" stroke="#63b8ff" points="1330.65,-78.73 1339.48,-72.88 1328.93,-71.95 1330.65,-78.73"/>
</g>
<!-- Node29 -->
<g id="node29" class="node">
<title>Node29</title>
<g id="a_node29"><a xlink:title=" ">
<polygon fill="#e0e0e0" stroke="#999999" points="1457.09,-74 1416.09,-74 1416.09,-55 1457.09,-55 1457.09,-74"/>
<text text-anchor="middle" x="1436.59" y="-62" font-family="Helvetica,sans-Serif" font-size="10.00">tuple</text>
</a>
</g>
</g>
<!-- Node24&#45;&gt;Node29 -->
<g id="edge40" class="edge">
<title>Node24&#45;&gt;Node29</title>
<path fill="none" stroke="#63b8ff" d="M1194.99,-113.24C1241.27,-106.12 1325.01,-92.4 1406.13,-73.9"/>
<polygon fill="#63b8ff" stroke="#63b8ff" points="1407.05,-77.28 1416,-71.62 1405.47,-70.46 1407.05,-77.28"/>
</g>
<!-- Node25&#45;&gt;Node7 -->
<g id="edge37" class="edge">
<title>Node25&#45;&gt;Node7</title>
<path fill="none" stroke="#63b8ff" d="M1474.82,-56.1C1472.05,-55.68 1469.28,-55.3 1466.59,-55 1058.45,-8.82 946.63,-80.98 536.86,-18.79"/>
<polygon fill="#63b8ff" stroke="#63b8ff" points="537.23,-15.31 526.81,-17.25 536.16,-22.22 537.23,-15.31"/>
</g>
<!-- Node25&#45;&gt;Node10 -->
<g id="edge38" class="edge">
<title>Node25&#45;&gt;Node10</title>
<path fill="none" stroke="#63b8ff" d="M1474.8,-56.24C1472.03,-55.79 1469.27,-55.37 1466.59,-55 1288.16,-30.43 1072.64,-16.87 990.56,-12.29"/>
<polygon fill="#63b8ff" stroke="#63b8ff" points="990.5,-8.78 980.33,-11.73 990.12,-15.77 990.5,-8.78"/>
</g>
<!-- Node25&#45;&gt;Node22 -->
<g id="edge34" class="edge">
<title>Node25&#45;&gt;Node22</title>
<path fill="none" stroke="#63b8ff" d="M1479.46,-54.98C1443.12,-45.36 1384.15,-29.73 1346.65,-19.79"/>
<polygon fill="#63b8ff" stroke="#63b8ff" points="1347.25,-16.33 1336.68,-17.15 1345.45,-23.09 1347.25,-16.33"/>
</g>
<!-- Node26 -->
<g id="node26" class="node">
<title>Node26</title>
<g id="a_node26"><a xlink:title=" ">
<polygon fill="#e0e0e0" stroke="#999999" points="1574.59,-19 1524.59,-19 1524.59,0 1574.59,0 1574.59,-19"/>
<text text-anchor="middle" x="1549.59" y="-7" font-family="Helvetica,sans-Serif" font-size="10.00">cstring</text>
</a>
</g>
</g>
<!-- Node25&#45;&gt;Node26 -->
<g id="edge35" class="edge">
<title>Node25&#45;&gt;Node26</title>
<path fill="none" stroke="#63b8ff" d="M1517.87,-54.75C1523.18,-47.34 1530.95,-36.5 1537.47,-27.41"/>
<polygon fill="#63b8ff" stroke="#63b8ff" points="1540.45,-29.26 1543.43,-19.09 1534.76,-25.18 1540.45,-29.26"/>
</g>
<!-- Node27 -->
<g id="node27" class="node">
<title>Node27</title>
<g id="a_node27"><a xlink:title=" ">
<polygon fill="#e0e0e0" stroke="#999999" points="1506.09,-19 1441.09,-19 1441.09,0 1506.09,0 1506.09,-19"/>
<text text-anchor="middle" x="1473.59" y="-7" font-family="Helvetica,sans-Serif" font-size="10.00">stdexcept</text>
</a>
</g>
</g>
<!-- Node25&#45;&gt;Node27 -->
<g id="edge36" class="edge">
<title>Node25&#45;&gt;Node27</title>
<path fill="none" stroke="#63b8ff" d="M1505.32,-54.75C1500.01,-47.34 1492.24,-36.5 1485.72,-27.41"/>
<polygon fill="#63b8ff" stroke="#63b8ff" points="1488.42,-25.18 1479.75,-19.09 1482.73,-29.26 1488.42,-25.18"/>
</g>
</g>
</svg>
        <g id="navigator" transform="translate(0 0)" fill="#404254">
                <rect fill="#f2f5e9" fill-opacity="0.5" stroke="#606060" stroke-width=".5" x="0" y="0" width="60" height="60"/>
                <use id="zoomplus" xlink:href="#zoomPlus" x="17" y="9" onmousedown="handleZoom(evt,'in')"/>
                <use id="zoomminus" xlink:href="#zoomMin" x="42" y="9" onmousedown="handleZoom(evt,'out')"/>
                <use id="reset" xlink:href="#resetDef" x="30" y="36" onmousedown="handleReset()"/>
                <g id="arrowUp" xlink:href="#dirArrow" transform="translate(30 24)" onmousedown="handlePan(0,-1)">
                  <use xlink:href="#rim" fill="#404040">
                        <set attributeName="fill" to="#808080" begin="arrowUp.mouseover" end="arrowUp.mouseout"/>
                  </use>
                  <path fill="none" stroke="white" stroke-width="1.5" d="M0,-3.0v7 M-2.5,-0.5L0,-3.0L2.5,-0.5"/>
                </g>
                <g id="arrowRight" xlink:href="#dirArrow" transform="rotate(90) translate(36 -43)" onmousedown="handlePan(1,0)">
                  <use xlink:href="#rim" fill="#404040">
                        <set attributeName="fill" to="#808080" begin="arrowRight.mouseover" end="arrowRight.mouseout"/>
                  </use>
                  <path fill="none" stroke="white" stroke-width="1.5" d="M0,-3.0v7 M-2.5,-0.5L0,-3.0L2.5,-0.5"/>
                </g>
                <g id="arrowDown" xlink:href="#dirArrow" transform="rotate(180) translate(-30 -48)" onmousedown="handlePan(0,1)">
                  <use xlink:href="#rim" fill="#404040">
                        <set attributeName="fill" to="#808080" begin="arrowDown.mouseover" end="arrowDown.mouseout"/>
                  </use>
                  <path fill="none" stroke="white" stroke-width="1.5" d="M0,-3.0v7 M-2.5,-0.5L0,-3.0L2.5,-0.5"/>
                </g>
                <g id="arrowLeft" xlink:href="#dirArrow" transform="rotate(270) translate(-36 17)" onmousedown="handlePan(-1,0)">
                  <use xlink:href="#rim" fill="#404040">
                        <set attributeName="fill" to="#808080" begin="arrowLeft.mouseover" end="arrowLeft.mouseout"/>
                  </use>
                  <path fill="none" stroke="white" stroke-width="1.5" d="M0,-3.0v7 M-2.5,-0.5L0,-3.0L2.5,-0.5"/>
                </g>
        </g>
        <svg viewBox="0 0 15 15" width="100%" height="30px" preserveAspectRatio="xMaxYMin meet">
         <g id="arrow_out" transform="scale(0.3 0.3)">
          <a xlink:href="client__endpoint_8h__incl_org.svg" target="_base">
           <rect id="button" ry="5" rx="5" y="6" x="6" height="38" width="38"
                fill="#f2f5e9" fill-opacity="0.5" stroke="#606060" stroke-width="1.0"/>
           <path id="arrow"
             d="M 11.500037,31.436501 C 11.940474,20.09759 22.043105,11.32322 32.158766,21.979434 L 37.068811,17.246167 C 37.068811,17.246167 37.088388,32 37.088388,32 L 22.160133,31.978069 C 22.160133,31.978069 26.997745,27.140456 26.997745,27.140456 C 18.528582,18.264221 13.291696,25.230495 11.500037,31.436501 z"
             style="fill:#404040;"/>
          </a>
         </g>
        </svg>
</svg>
