<?xml version="1.0" encoding="UTF-8" standalone="no"?>
<!DOCTYPE svg PUBLIC "-//W3C//DTD SVG 1.1//EN"
 "http://www.w3.org/Graphics/SVG/1.1/DTD/svg11.dtd">
<!-- Generated by graphviz version 2.43.0 (0)
 -->
<!-- Title: src/tls/client.h Pages: 1 -->
<svg width="574pt" height="555pt"
 viewBox="0.00 0.00 574.00 555.00" xmlns="http://www.w3.org/2000/svg" xmlns:xlink="http://www.w3.org/1999/xlink">
<g id="graph0" class="graph" transform="scale(1 1) rotate(0) translate(4 551)">
<title>src/tls/client.h</title>
<!-- Node1 -->
<g id="node1" class="node">
<title>Node1</title>
<g id="a_node1"><a xlink:title=" ">
<polygon fill="#999999" stroke="#666666" points="92.5,-547 7.5,-547 7.5,-528 92.5,-528 92.5,-547"/>
<text text-anchor="middle" x="50" y="-535" font-family="Helvetica,sans-Serif" font-size="10.00">src/tls/client.h</text>
</a>
</g>
</g>
<!-- Node2 -->
<g id="node2" class="node">
<title>Node2</title>
<g id="a_node2"><a xlink:href="rpc__sessions_8h.html" target="_top" xlink:title=" ">
<polygon fill="white" stroke="#666666" points="174,-492 28,-492 28,-473 174,-473 174,-492"/>
<text text-anchor="middle" x="101" y="-480" font-family="Helvetica,sans-Serif" font-size="10.00">src/enclave/rpc_sessions.h</text>
</a>
</g>
</g>
<!-- Node1&#45;&gt;Node2 -->
<g id="edge1" class="edge">
<title>Node1&#45;&gt;Node2</title>
<path fill="none" stroke="#63b8ff" d="M65.38,-520.52C74.37,-511.18 85.36,-499.75 92.74,-492.09"/>
<polygon fill="#63b8ff" stroke="#63b8ff" points="62.83,-518.12 58.42,-527.75 67.88,-522.97 62.83,-518.12"/>
</g>
<!-- Node8 -->
<g id="node8" class="node">
<title>Node8</title>
<g id="a_node8"><a xlink:href="node__state_8h.html" target="_top" xlink:title=" ">
<polygon fill="white" stroke="#666666" points="268,-184 144,-184 144,-165 268,-165 268,-184"/>
<text text-anchor="middle" x="206" y="-172" font-family="Helvetica,sans-Serif" font-size="10.00">src/node/node_state.h</text>
</a>
</g>
</g>
<!-- Node1&#45;&gt;Node8 -->
<g id="edge23" class="edge">
<title>Node1&#45;&gt;Node8</title>
<path fill="none" stroke="#63b8ff" d="M36.63,-519.69C21.82,-499.34 0,-463.44 0,-428.5 0,-428.5 0,-428.5 0,-300 0,-261.01 6.23,-245.18 36,-220 65.93,-194.69 108.65,-183.57 143.77,-178.78"/>
<polygon fill="#63b8ff" stroke="#63b8ff" points="34.01,-522.03 42.84,-527.89 39.59,-517.8 34.01,-522.03"/>
</g>
<!-- Node3 -->
<g id="node3" class="node">
<title>Node3</title>
<g id="a_node3"><a xlink:href="enclave_2enclave_8h.html" target="_top" xlink:title=" ">
<polygon fill="white" stroke="#666666" points="413,-74 291,-74 291,-55 413,-55 413,-74"/>
<text text-anchor="middle" x="352" y="-62" font-family="Helvetica,sans-Serif" font-size="10.00">src/enclave/enclave.h</text>
</a>
</g>
</g>
<!-- Node2&#45;&gt;Node3 -->
<g id="edge2" class="edge">
<title>Node2&#45;&gt;Node3</title>
<path fill="none" stroke="#63b8ff" d="M184.39,-478.13C318.2,-470.41 566,-445.65 566,-368 566,-368 566,-368 566,-173.5 566,-104.52 476.29,-79.59 413.04,-70.59"/>
<polygon fill="#63b8ff" stroke="#63b8ff" points="183.96,-474.65 174.17,-478.7 184.35,-481.63 183.96,-474.65"/>
</g>
<!-- Node5 -->
<g id="node5" class="node">
<title>Node5</title>
<g id="a_node5"><a xlink:href="node__client_8h.html" target="_top" xlink:title=" ">
<polygon fill="white" stroke="#666666" points="334,-437 208,-437 208,-418 334,-418 334,-437"/>
<text text-anchor="middle" x="271" y="-425" font-family="Helvetica,sans-Serif" font-size="10.00">src/node/node_client.h</text>
</a>
</g>
</g>
<!-- Node2&#45;&gt;Node5 -->
<g id="edge4" class="edge">
<title>Node2&#45;&gt;Node5</title>
<path fill="none" stroke="#63b8ff" d="M138.12,-469.93C169.87,-460.03 214.85,-446.01 243.47,-437.08"/>
<polygon fill="#63b8ff" stroke="#63b8ff" points="136.82,-466.67 128.31,-472.98 138.9,-473.35 136.82,-466.67"/>
</g>
<!-- Node2&#45;&gt;Node8 -->
<g id="edge20" class="edge">
<title>Node2&#45;&gt;Node8</title>
<path fill="none" stroke="#63b8ff" d="M85.19,-465.48C66.53,-444.79 38,-406.82 38,-368 38,-368 38,-368 38,-300 38,-263.46 31.91,-246.57 57,-220 79.34,-196.35 113.66,-185.1 143.73,-179.83"/>
<polygon fill="#63b8ff" stroke="#63b8ff" points="82.85,-468.1 92.24,-473 87.95,-463.31 82.85,-468.1"/>
</g>
<!-- Node14 -->
<g id="node14" class="node">
<title>Node14</title>
<g id="a_node14"><a xlink:href="resharing_8h.html" target="_top" xlink:title=" ">
<polygon fill="white" stroke="#666666" points="182,-244.5 66,-244.5 66,-225.5 182,-225.5 182,-244.5"/>
<text text-anchor="middle" x="124" y="-232.5" font-family="Helvetica,sans-Serif" font-size="10.00">src/node/resharing.h</text>
</a>
</g>
</g>
<!-- Node2&#45;&gt;Node14 -->
<g id="edge21" class="edge">
<title>Node2&#45;&gt;Node14</title>
<path fill="none" stroke="#63b8ff" d="M96.91,-462.87C89.93,-427.61 78.05,-349.02 95,-286 99.28,-270.11 109.97,-254.06 117.11,-244.57"/>
<polygon fill="#63b8ff" stroke="#63b8ff" points="93.49,-463.64 98.96,-472.72 100.35,-462.21 93.49,-463.64"/>
</g>
<!-- Node4 -->
<g id="node4" class="node">
<title>Node4</title>
<g id="a_node4"><a xlink:href="enclave_2main_8cpp.html" target="_top" xlink:title=" ">
<polygon fill="white" stroke="#666666" points="412,-19 292,-19 292,0 412,0 412,-19"/>
<text text-anchor="middle" x="352" y="-7" font-family="Helvetica,sans-Serif" font-size="10.00">src/enclave/main.cpp</text>
</a>
</g>
</g>
<!-- Node3&#45;&gt;Node4 -->
<g id="edge3" class="edge">
<title>Node3&#45;&gt;Node4</title>
<path fill="none" stroke="#63b8ff" d="M352,-44.66C352,-35.93 352,-25.99 352,-19.09"/>
<polygon fill="#63b8ff" stroke="#63b8ff" points="348.5,-44.75 352,-54.75 355.5,-44.75 348.5,-44.75"/>
</g>
<!-- Node6 -->
<g id="node6" class="node">
<title>Node6</title>
<g id="a_node6"><a xlink:href="orc__requests_8h.html" target="_top" xlink:title=" ">
<polygon fill="white" stroke="#666666" points="330.5,-382 211.5,-382 211.5,-352 330.5,-352 330.5,-382"/>
<text text-anchor="start" x="219.5" y="-370" font-family="Helvetica,sans-Serif" font-size="10.00">src/consensus/aft/orc</text>
<text text-anchor="middle" x="271" y="-359" font-family="Helvetica,sans-Serif" font-size="10.00">_requests.h</text>
</a>
</g>
</g>
<!-- Node5&#45;&gt;Node6 -->
<g id="edge5" class="edge">
<title>Node5&#45;&gt;Node6</title>
<path fill="none" stroke="#63b8ff" d="M271,-407.65C271,-399.36 271,-389.78 271,-382.11"/>
<polygon fill="#63b8ff" stroke="#63b8ff" points="267.5,-407.87 271,-417.87 274.5,-407.87 267.5,-407.87"/>
</g>
<!-- Node7 -->
<g id="node7" class="node">
<title>Node7</title>
<g id="a_node7"><a xlink:href="raft_8h.html" target="_top" xlink:title=" ">
<polygon fill="white" stroke="#666666" points="537.5,-310.5 408.5,-310.5 408.5,-291.5 537.5,-291.5 537.5,-310.5"/>
<text text-anchor="middle" x="473" y="-298.5" font-family="Helvetica,sans-Serif" font-size="10.00">src/consensus/aft/raft.h</text>
</a>
</g>
</g>
<!-- Node5&#45;&gt;Node7 -->
<g id="edge15" class="edge">
<title>Node5&#45;&gt;Node7</title>
<path fill="none" stroke="#63b8ff" d="M344.22,-421.08C399.3,-415.3 468.21,-403.84 486,-382 503.06,-361.05 487.22,-326.52 478.23,-310.57"/>
<polygon fill="#63b8ff" stroke="#63b8ff" points="343.72,-417.61 334.12,-422.09 344.42,-424.58 343.72,-417.61"/>
</g>
<!-- Node12 -->
<g id="node12" class="node">
<title>Node12</title>
<g id="a_node12"><a xlink:href="http__node__client_8h.html" target="_top" xlink:title=" ">
<polygon fill="white" stroke="#666666" points="214,-316 104,-316 104,-286 214,-286 214,-316"/>
<text text-anchor="start" x="112" y="-304" font-family="Helvetica,sans-Serif" font-size="10.00">src/node/http_node</text>
<text text-anchor="middle" x="159" y="-293" font-family="Helvetica,sans-Serif" font-size="10.00">_client.h</text>
</a>
</g>
</g>
<!-- Node5&#45;&gt;Node12 -->
<g id="edge16" class="edge">
<title>Node5&#45;&gt;Node12</title>
<path fill="none" stroke="#63b8ff" d="M244.18,-413.04C230.66,-405.31 214.68,-394.62 203,-382 184.58,-362.11 171.14,-333.1 164.24,-316.02"/>
<polygon fill="#63b8ff" stroke="#63b8ff" points="242.62,-416.18 253.08,-417.92 245.99,-410.04 242.62,-416.18"/>
</g>
<!-- Node13 -->
<g id="node13" class="node">
<title>Node13</title>
<g id="a_node13"><a xlink:href="retired__nodes__cleanup_8h.html" target="_top" xlink:title=" ">
<polygon fill="white" stroke="#666666" points="477,-382 349,-382 349,-352 477,-352 477,-382"/>
<text text-anchor="start" x="357" y="-370" font-family="Helvetica,sans-Serif" font-size="10.00">src/node/retired_nodes</text>
<text text-anchor="middle" x="413" y="-359" font-family="Helvetica,sans-Serif" font-size="10.00">_cleanup.h</text>
</a>
</g>
</g>
<!-- Node5&#45;&gt;Node13 -->
<g id="edge18" class="edge">
<title>Node5&#45;&gt;Node13</title>
<path fill="none" stroke="#63b8ff" d="M301.15,-414.08C323.91,-404.7 355.17,-391.82 378.86,-382.06"/>
<polygon fill="#63b8ff" stroke="#63b8ff" points="299.56,-410.95 291.65,-417.99 302.23,-417.42 299.56,-410.95"/>
</g>
<!-- Node6&#45;&gt;Node7 -->
<g id="edge6" class="edge">
<title>Node6&#45;&gt;Node7</title>
<path fill="none" stroke="#63b8ff" d="M324.99,-348.89C364.11,-336.5 415.33,-320.27 446.12,-310.52"/>
<polygon fill="#63b8ff" stroke="#63b8ff" points="323.81,-345.6 315.33,-351.95 325.92,-352.27 323.81,-345.6"/>
</g>
<!-- Node10 -->
<g id="node10" class="node">
<title>Node10</title>
<g id="a_node10"><a xlink:href="node__frontend_8h.html" target="_top" xlink:title=" ">
<polygon fill="white" stroke="#666666" points="390,-310.5 232,-310.5 232,-291.5 390,-291.5 390,-310.5"/>
<text text-anchor="middle" x="311" y="-298.5" font-family="Helvetica,sans-Serif" font-size="10.00">src/node/rpc/node_frontend.h</text>
</a>
</g>
</g>
<!-- Node6&#45;&gt;Node10 -->
<g id="edge11" class="edge">
<title>Node6&#45;&gt;Node10</title>
<path fill="none" stroke="#63b8ff" d="M285.2,-343.28C292.21,-332.07 300.25,-319.19 305.47,-310.84"/>
<polygon fill="#63b8ff" stroke="#63b8ff" points="282.21,-341.46 279.88,-351.8 288.15,-345.17 282.21,-341.46"/>
</g>
<!-- Node7&#45;&gt;Node8 -->
<g id="edge7" class="edge">
<title>Node7&#45;&gt;Node8</title>
<path fill="none" stroke="#63b8ff" d="M457.98,-283.54C440.49,-265.36 409.9,-236.47 378,-220 342.64,-201.75 299.25,-190.59 264.89,-184.01"/>
<polygon fill="#63b8ff" stroke="#63b8ff" points="455.65,-286.17 465.05,-291.06 460.75,-281.38 455.65,-286.17"/>
</g>
<!-- Node8&#45;&gt;Node3 -->
<g id="edge8" class="edge">
<title>Node8&#45;&gt;Node3</title>
<path fill="none" stroke="#63b8ff" d="M205.81,-154.53C206.67,-140.59 210.05,-122.05 221,-110 238.93,-90.27 265.94,-79.28 290.79,-73.17"/>
<polygon fill="#63b8ff" stroke="#63b8ff" points="202.3,-154.84 205.57,-164.92 209.3,-155 202.3,-154.84"/>
</g>
<!-- Node9 -->
<g id="node9" class="node">
<title>Node9</title>
<g id="a_node9"><a xlink:href="gov__effects_8h.html" target="_top" xlink:title=" ">
<polygon fill="white" stroke="#666666" points="374,-129 230,-129 230,-110 374,-110 374,-129"/>
<text text-anchor="middle" x="302" y="-117" font-family="Helvetica,sans-Serif" font-size="10.00">src/node/rpc/gov_effects.h</text>
</a>
</g>
</g>
<!-- Node8&#45;&gt;Node9 -->
<g id="edge9" class="edge">
<title>Node8&#45;&gt;Node9</title>
<path fill="none" stroke="#63b8ff" d="M230.52,-159.97C248.06,-150.28 271.17,-137.52 286.3,-129.17"/>
<polygon fill="#63b8ff" stroke="#63b8ff" points="228.49,-157.09 221.42,-164.98 231.87,-163.22 228.49,-157.09"/>
</g>
<!-- Node9&#45;&gt;Node3 -->
<g id="edge10" class="edge">
<title>Node9&#45;&gt;Node3</title>
<path fill="none" stroke="#63b8ff" d="M317.34,-102.24C326.1,-92.95 336.74,-81.68 343.9,-74.09"/>
<polygon fill="#63b8ff" stroke="#63b8ff" points="314.57,-100.07 310.26,-109.75 319.66,-104.88 314.57,-100.07"/>
</g>
<!-- Node10&#45;&gt;Node3 -->
<g id="edge12" class="edge">
<title>Node10&#45;&gt;Node3</title>
<path fill="none" stroke="#63b8ff" d="M339.42,-286.5C353.65,-278.12 369.61,-265.9 378,-250 407.05,-194.93 401.65,-169.4 383,-110 378.6,-95.99 368.05,-82.53 360.48,-74.15"/>
<polygon fill="#63b8ff" stroke="#63b8ff" points="337.49,-283.57 330.41,-291.45 340.86,-289.7 337.49,-283.57"/>
</g>
<!-- Node11 -->
<g id="node11" class="node">
<title>Node11</title>
<g id="a_node11"><a xlink:href="jwt__key__auto__refresh_8h.html" target="_top" xlink:title=" ">
<polygon fill="white" stroke="#666666" points="368.5,-250 243.5,-250 243.5,-220 368.5,-220 368.5,-250"/>
<text text-anchor="start" x="251.5" y="-238" font-family="Helvetica,sans-Serif" font-size="10.00">src/node/jwt_key_auto</text>
<text text-anchor="middle" x="306" y="-227" font-family="Helvetica,sans-Serif" font-size="10.00">_refresh.h</text>
</a>
</g>
</g>
<!-- Node10&#45;&gt;Node11 -->
<g id="edge13" class="edge">
<title>Node10&#45;&gt;Node11</title>
<path fill="none" stroke="#63b8ff" d="M309.54,-281.35C308.77,-271.47 307.84,-259.51 307.12,-250.36"/>
<polygon fill="#63b8ff" stroke="#63b8ff" points="306.06,-281.67 310.33,-291.37 313.04,-281.13 306.06,-281.67"/>
</g>
<!-- Node11&#45;&gt;Node8 -->
<g id="edge14" class="edge">
<title>Node11&#45;&gt;Node8</title>
<path fill="none" stroke="#63b8ff" d="M273.15,-214.78C255.46,-204.43 234.51,-192.18 220.77,-184.14"/>
<polygon fill="#63b8ff" stroke="#63b8ff" points="271.65,-217.96 282.05,-219.99 275.18,-211.92 271.65,-217.96"/>
</g>
<!-- Node12&#45;&gt;Node8 -->
<g id="edge17" class="edge">
<title>Node12&#45;&gt;Node8</title>
<path fill="none" stroke="#63b8ff" d="M175.89,-277.54C181.43,-269.25 187.14,-259.54 191,-250 200.19,-227.25 203.95,-198.23 205.31,-184.06"/>
<polygon fill="#63b8ff" stroke="#63b8ff" points="172.9,-275.71 170.04,-285.91 178.64,-279.71 172.9,-275.71"/>
</g>
<!-- Node13&#45;&gt;Node7 -->
<g id="edge19" class="edge">
<title>Node13&#45;&gt;Node7</title>
<path fill="none" stroke="#63b8ff" d="M433.37,-344.27C444.09,-332.84 456.65,-319.44 464.71,-310.84"/>
<polygon fill="#63b8ff" stroke="#63b8ff" points="430.6,-342.11 426.32,-351.8 435.71,-346.89 430.6,-342.11"/>
</g>
<!-- Node14&#45;&gt;Node8 -->
<g id="edge22" class="edge">
<title>Node14&#45;&gt;Node8</title>
<path fill="none" stroke="#63b8ff" d="M144.54,-219.35C160.07,-208.27 180.87,-193.43 193.85,-184.17"/>
<polygon fill="#63b8ff" stroke="#63b8ff" points="142.21,-216.71 136.1,-225.37 146.27,-222.41 142.21,-216.71"/>
</g>
</g>
</svg>
