<?xml version="1.0" encoding="UTF-8" standalone="no"?>
<!DOCTYPE svg PUBLIC "-//W3C//DTD SVG 1.1//EN"
 "http://www.w3.org/Graphics/SVG/1.1/DTD/svg11.dtd">
<!-- Generated by graphviz version 2.43.0 (0)
 -->
<!-- Title: include/ccf/service/code_digest.h Pages: 1 -->
<svg width="2320pt" height="676pt"
 viewBox="0.00 0.00 2319.50 676.00" xmlns="http://www.w3.org/2000/svg" xmlns:xlink="http://www.w3.org/1999/xlink">
<g id="graph0" class="graph" transform="scale(1 1) rotate(0) translate(4 672)">
<title>include/ccf/service/code_digest.h</title>
<!-- Node1 -->
<g id="node1" class="node">
<title>Node1</title>
<g id="a_node1"><a xlink:title=" ">
<polygon fill="#999999" stroke="#666666" points="1169,-668 1062,-668 1062,-638 1169,-638 1169,-668"/>
<text text-anchor="start" x="1070" y="-656" font-family="Helvetica,sans-Serif" font-size="10.00">include/ccf/service</text>
<text text-anchor="middle" x="1115.5" y="-645" font-family="Helvetica,sans-Serif" font-size="10.00">/code_digest.h</text>
</a>
</g>
</g>
<!-- Node2 -->
<g id="node2" class="node">
<title>Node2</title>
<g id="a_node2"><a xlink:href="quote_8h.html" target="_top" xlink:title=" ">
<polygon fill="white" stroke="#666666" points="1097.5,-530.5 961.5,-530.5 961.5,-511.5 1097.5,-511.5 1097.5,-530.5"/>
<text text-anchor="middle" x="1029.5" y="-518.5" font-family="Helvetica,sans-Serif" font-size="10.00">include/ccf/node/quote.h</text>
</a>
</g>
</g>
<!-- Node1&#45;&gt;Node2 -->
<g id="edge1" class="edge">
<title>Node1&#45;&gt;Node2</title>
<path fill="none" stroke="#63b8ff" d="M1100.61,-629.49C1081.29,-600.29 1048.51,-550.74 1035.29,-530.75"/>
<polygon fill="#63b8ff" stroke="#63b8ff" points="1097.7,-631.43 1106.13,-637.84 1103.53,-627.57 1097.7,-631.43"/>
</g>
<!-- Node26 -->
<g id="node26" class="node">
<title>Node26</title>
<g id="a_node26"><a xlink:href="code__id_8h.html" target="_top" xlink:title=" ">
<polygon fill="white" stroke="#666666" points="1255,-602 1148,-602 1148,-572 1255,-572 1255,-602"/>
<text text-anchor="start" x="1156" y="-590" font-family="Helvetica,sans-Serif" font-size="10.00">include/ccf/service</text>
<text text-anchor="middle" x="1201.5" y="-579" font-family="Helvetica,sans-Serif" font-size="10.00">/tables/code_id.h</text>
</a>
</g>
</g>
<!-- Node1&#45;&gt;Node26 -->
<g id="edge44" class="edge">
<title>Node1&#45;&gt;Node26</title>
<path fill="none" stroke="#63b8ff" d="M1142.71,-631.75C1155.64,-622.13 1170.79,-610.86 1182.47,-602.16"/>
<polygon fill="#63b8ff" stroke="#63b8ff" points="1140.52,-629.02 1134.59,-637.8 1144.7,-634.63 1140.52,-629.02"/>
</g>
<!-- Node3 -->
<g id="node3" class="node">
<title>Node3</title>
<g id="a_node3"><a xlink:href="quote_8cpp.html" target="_top" xlink:title=" ">
<polygon fill="white" stroke="#666666" points="1043,-464.5 934,-464.5 934,-445.5 1043,-445.5 1043,-464.5"/>
<text text-anchor="middle" x="988.5" y="-452.5" font-family="Helvetica,sans-Serif" font-size="10.00">src/node/quote.cpp</text>
</a>
</g>
</g>
<!-- Node2&#45;&gt;Node3 -->
<g id="edge2" class="edge">
<title>Node2&#45;&gt;Node3</title>
<path fill="none" stroke="#63b8ff" d="M1018.55,-502.91C1010.71,-490.68 1000.48,-474.7 994.2,-464.91"/>
<polygon fill="#63b8ff" stroke="#63b8ff" points="1015.63,-504.84 1023.97,-511.37 1021.52,-501.06 1015.63,-504.84"/>
</g>
<!-- Node4 -->
<g id="node4" class="node">
<title>Node4</title>
<g id="a_node4"><a xlink:href="member__frontend_8h.html" target="_top" xlink:title=" ">
<polygon fill="white" stroke="#666666" points="1468.5,-272 1348.5,-272 1348.5,-242 1468.5,-242 1468.5,-272"/>
<text text-anchor="start" x="1356.5" y="-260" font-family="Helvetica,sans-Serif" font-size="10.00">src/node/rpc/member</text>
<text text-anchor="middle" x="1408.5" y="-249" font-family="Helvetica,sans-Serif" font-size="10.00">_frontend.h</text>
</a>
</g>
</g>
<!-- Node2&#45;&gt;Node4 -->
<g id="edge3" class="edge">
<title>Node2&#45;&gt;Node4</title>
<path fill="none" stroke="#63b8ff" d="M1038.24,-502.23C1042.64,-492.81 1047.8,-480.95 1051.5,-470 1075.17,-399.83 1035.84,-357.96 1090.5,-308 1130.96,-271.02 1280.45,-281.1 1334.5,-272 1339.01,-271.24 1343.67,-270.43 1348.36,-269.59"/>
<polygon fill="#63b8ff" stroke="#63b8ff" points="1035.05,-500.81 1033.88,-511.34 1041.36,-503.83 1035.05,-500.81"/>
</g>
<!-- Node7 -->
<g id="node7" class="node">
<title>Node7</title>
<g id="a_node7"><a xlink:href="node__frontend_8h.html" target="_top" xlink:title=" ">
<polygon fill="white" stroke="#666666" points="1651.5,-332.5 1493.5,-332.5 1493.5,-313.5 1651.5,-313.5 1651.5,-332.5"/>
<text text-anchor="middle" x="1572.5" y="-320.5" font-family="Helvetica,sans-Serif" font-size="10.00">src/node/rpc/node_frontend.h</text>
</a>
</g>
</g>
<!-- Node2&#45;&gt;Node7 -->
<g id="edge6" class="edge">
<title>Node2&#45;&gt;Node7</title>
<path fill="none" stroke="#63b8ff" d="M1108,-513.31C1171.07,-506.5 1261.38,-493.49 1337.5,-470 1403.61,-449.59 1420.3,-441.42 1478.5,-404 1512.93,-381.86 1548.31,-348.23 1564.06,-332.57"/>
<polygon fill="#63b8ff" stroke="#63b8ff" points="1107.3,-509.86 1097.72,-514.39 1108.04,-516.82 1107.3,-509.86"/>
</g>
<!-- Node11 -->
<g id="node11" class="node">
<title>Node11</title>
<g id="a_node11"><a xlink:href="node__operation__interface_8h.html" target="_top" xlink:title=" ">
<polygon fill="white" stroke="#666666" points="916,-470 761,-470 761,-440 916,-440 916,-470"/>
<text text-anchor="start" x="769" y="-458" font-family="Helvetica,sans-Serif" font-size="10.00">src/node/rpc/node_operation</text>
<text text-anchor="middle" x="838.5" y="-447" font-family="Helvetica,sans-Serif" font-size="10.00">_interface.h</text>
</a>
</g>
</g>
<!-- Node2&#45;&gt;Node11 -->
<g id="edge13" class="edge">
<title>Node2&#45;&gt;Node11</title>
<path fill="none" stroke="#63b8ff" d="M993.89,-508.07C961.8,-497.31 914.58,-481.49 880.63,-470.12"/>
<polygon fill="#63b8ff" stroke="#63b8ff" points="993.15,-511.51 1003.74,-511.37 995.37,-504.87 993.15,-511.51"/>
</g>
<!-- Node5 -->
<g id="node5" class="node">
<title>Node5</title>
<g id="a_node5"><a xlink:href="enclave_2enclave_8h.html" target="_top" xlink:title=" ">
<polygon fill="white" stroke="#666666" points="1469.5,-74 1347.5,-74 1347.5,-55 1469.5,-55 1469.5,-74"/>
<text text-anchor="middle" x="1408.5" y="-62" font-family="Helvetica,sans-Serif" font-size="10.00">src/enclave/enclave.h</text>
</a>
</g>
</g>
<!-- Node4&#45;&gt;Node5 -->
<g id="edge4" class="edge">
<title>Node4&#45;&gt;Node5</title>
<path fill="none" stroke="#63b8ff" d="M1408.5,-231.93C1408.5,-189.28 1408.5,-102.31 1408.5,-74.36"/>
<polygon fill="#63b8ff" stroke="#63b8ff" points="1405,-231.99 1408.5,-241.99 1412,-231.99 1405,-231.99"/>
</g>
<!-- Node6 -->
<g id="node6" class="node">
<title>Node6</title>
<g id="a_node6"><a xlink:href="enclave_2main_8cpp.html" target="_top" xlink:title=" ">
<polygon fill="white" stroke="#666666" points="1468.5,-19 1348.5,-19 1348.5,0 1468.5,0 1468.5,-19"/>
<text text-anchor="middle" x="1408.5" y="-7" font-family="Helvetica,sans-Serif" font-size="10.00">src/enclave/main.cpp</text>
</a>
</g>
</g>
<!-- Node5&#45;&gt;Node6 -->
<g id="edge5" class="edge">
<title>Node5&#45;&gt;Node6</title>
<path fill="none" stroke="#63b8ff" d="M1408.5,-44.66C1408.5,-35.93 1408.5,-25.99 1408.5,-19.09"/>
<polygon fill="#63b8ff" stroke="#63b8ff" points="1405,-44.75 1408.5,-54.75 1412,-44.75 1405,-44.75"/>
</g>
<!-- Node7&#45;&gt;Node5 -->
<g id="edge7" class="edge">
<title>Node7&#45;&gt;Node5</title>
<path fill="none" stroke="#63b8ff" d="M1561.49,-304.77C1529.5,-254.75 1437.41,-110.72 1413.98,-74.07"/>
<polygon fill="#63b8ff" stroke="#63b8ff" points="1558.71,-306.93 1567.04,-313.47 1564.61,-303.16 1558.71,-306.93"/>
</g>
<!-- Node8 -->
<g id="node8" class="node">
<title>Node8</title>
<g id="a_node8"><a xlink:href="jwt__key__auto__refresh_8h.html" target="_top" xlink:title=" ">
<polygon fill="white" stroke="#666666" points="1726,-272 1601,-272 1601,-242 1726,-242 1726,-272"/>
<text text-anchor="start" x="1609" y="-260" font-family="Helvetica,sans-Serif" font-size="10.00">src/node/jwt_key_auto</text>
<text text-anchor="middle" x="1663.5" y="-249" font-family="Helvetica,sans-Serif" font-size="10.00">_refresh.h</text>
</a>
</g>
</g>
<!-- Node7&#45;&gt;Node8 -->
<g id="edge8" class="edge">
<title>Node7&#45;&gt;Node8</title>
<path fill="none" stroke="#63b8ff" d="M1592.95,-307.62C1608.03,-297.01 1628.44,-282.66 1643.43,-272.12"/>
<polygon fill="#63b8ff" stroke="#63b8ff" points="1590.94,-304.75 1584.77,-313.37 1594.97,-310.48 1590.94,-304.75"/>
</g>
<!-- Node9 -->
<g id="node9" class="node">
<title>Node9</title>
<g id="a_node9"><a xlink:href="node__state_8h.html" target="_top" xlink:title=" ">
<polygon fill="white" stroke="#666666" points="1772.5,-200.5 1648.5,-200.5 1648.5,-181.5 1772.5,-181.5 1772.5,-200.5"/>
<text text-anchor="middle" x="1710.5" y="-188.5" font-family="Helvetica,sans-Serif" font-size="10.00">src/node/node_state.h</text>
</a>
</g>
</g>
<!-- Node8&#45;&gt;Node9 -->
<g id="edge9" class="edge">
<title>Node8&#45;&gt;Node9</title>
<path fill="none" stroke="#63b8ff" d="M1679.94,-233.61C1688.23,-222.32 1697.81,-209.28 1704,-200.84"/>
<polygon fill="#63b8ff" stroke="#63b8ff" points="1677.03,-231.66 1673.93,-241.8 1682.67,-235.81 1677.03,-231.66"/>
</g>
<!-- Node9&#45;&gt;Node5 -->
<g id="edge10" class="edge">
<title>Node9&#45;&gt;Node5</title>
<path fill="none" stroke="#63b8ff" d="M1687.16,-176.07C1670.86,-166.22 1648.67,-152.59 1629.5,-140 1610.02,-127.21 1607.71,-119.65 1586.5,-110 1547.5,-92.25 1500.35,-80.87 1464.37,-74.06"/>
<polygon fill="#63b8ff" stroke="#63b8ff" points="1685.63,-179.23 1696.01,-181.39 1689.24,-173.24 1685.63,-179.23"/>
</g>
<!-- Node10 -->
<g id="node10" class="node">
<title>Node10</title>
<g id="a_node10"><a xlink:href="gov__effects_8h.html" target="_top" xlink:title=" ">
<polygon fill="white" stroke="#666666" points="1782.5,-134.5 1638.5,-134.5 1638.5,-115.5 1782.5,-115.5 1782.5,-134.5"/>
<text text-anchor="middle" x="1710.5" y="-122.5" font-family="Helvetica,sans-Serif" font-size="10.00">src/node/rpc/gov_effects.h</text>
</a>
</g>
</g>
<!-- Node9&#45;&gt;Node10 -->
<g id="edge11" class="edge">
<title>Node9&#45;&gt;Node10</title>
<path fill="none" stroke="#63b8ff" d="M1710.5,-171.08C1710.5,-159.13 1710.5,-144.22 1710.5,-134.91"/>
<polygon fill="#63b8ff" stroke="#63b8ff" points="1707,-171.37 1710.5,-181.37 1714,-171.37 1707,-171.37"/>
</g>
<!-- Node10&#45;&gt;Node5 -->
<g id="edge12" class="edge">
<title>Node10&#45;&gt;Node5</title>
<path fill="none" stroke="#63b8ff" d="M1656.47,-113.53C1598.18,-102.24 1506.51,-84.48 1452.47,-74.02"/>
<polygon fill="#63b8ff" stroke="#63b8ff" points="1656.1,-117.03 1666.59,-115.49 1657.43,-110.16 1656.1,-117.03"/>
</g>
<!-- Node11&#45;&gt;Node4 -->
<g id="edge14" class="edge">
<title>Node11&#45;&gt;Node4</title>
<path fill="none" stroke="#63b8ff" d="M865.4,-433.79C914.31,-397.44 1016.53,-323.36 1057.5,-308 1173.75,-264.43 1211.9,-291.55 1334.5,-272 1339.02,-271.28 1343.69,-270.49 1348.38,-269.68"/>
<polygon fill="#63b8ff" stroke="#63b8ff" points="863.11,-431.13 857.19,-439.91 867.3,-436.74 863.11,-431.13"/>
</g>
<!-- Node12 -->
<g id="node12" class="node">
<title>Node12</title>
<g id="a_node12"><a xlink:href="node__interface_8h.html" target="_top" xlink:title=" ">
<polygon fill="white" stroke="#666666" points="896,-398.5 735,-398.5 735,-379.5 896,-379.5 896,-398.5"/>
<text text-anchor="middle" x="815.5" y="-386.5" font-family="Helvetica,sans-Serif" font-size="10.00">src/node/rpc/node_interface.h</text>
</a>
</g>
</g>
<!-- Node11&#45;&gt;Node12 -->
<g id="edge15" class="edge">
<title>Node11&#45;&gt;Node12</title>
<path fill="none" stroke="#63b8ff" d="M829.97,-430.28C826.03,-419.31 821.59,-406.94 818.68,-398.84"/>
<polygon fill="#63b8ff" stroke="#63b8ff" points="826.72,-431.57 833.4,-439.8 833.31,-429.2 826.72,-431.57"/>
</g>
<!-- Node25 -->
<g id="node25" class="node">
<title>Node25</title>
<g id="a_node25"><a xlink:href="node__operation_8h.html" target="_top" xlink:title=" ">
<polygon fill="white" stroke="#666666" points="448.5,-332.5 284.5,-332.5 284.5,-313.5 448.5,-313.5 448.5,-332.5"/>
<text text-anchor="middle" x="366.5" y="-320.5" font-family="Helvetica,sans-Serif" font-size="10.00">src/node/rpc/node_operation.h</text>
</a>
</g>
</g>
<!-- Node11&#45;&gt;Node25 -->
<g id="edge43" class="edge">
<title>Node11&#45;&gt;Node25</title>
<path fill="none" stroke="#63b8ff" d="M777.71,-437.26C675.9,-409.22 474.49,-353.74 397.46,-332.53"/>
<polygon fill="#63b8ff" stroke="#63b8ff" points="776.97,-440.68 787.54,-439.96 778.83,-433.93 776.97,-440.68"/>
</g>
<!-- Node12&#45;&gt;Node4 -->
<g id="edge36" class="edge">
<title>Node12&#45;&gt;Node4</title>
<path fill="none" stroke="#63b8ff" d="M831.6,-372.33C853.71,-351.2 892.76,-315.34 910.5,-308 997.88,-271.85 1240.81,-284.81 1334.5,-272 1339.03,-271.38 1343.71,-270.67 1348.41,-269.9"/>
<polygon fill="#63b8ff" stroke="#63b8ff" points="829.06,-369.92 824.29,-379.37 833.92,-374.96 829.06,-369.92"/>
</g>
<!-- Node12&#45;&gt;Node7 -->
<g id="edge40" class="edge">
<title>Node12&#45;&gt;Node7</title>
<path fill="none" stroke="#63b8ff" d="M906.35,-381.71C1029.03,-373 1254.44,-356.28 1446.5,-338 1463.59,-336.37 1481.96,-334.44 1499.25,-332.53"/>
<polygon fill="#63b8ff" stroke="#63b8ff" points="905.98,-378.22 896.25,-382.42 906.48,-385.21 905.98,-378.22"/>
</g>
<!-- Node13 -->
<g id="node13" class="node">
<title>Node13</title>
<g id="a_node13"><a xlink:href="wrap_8cpp.html" target="_top" xlink:title=" ">
<polygon fill="white" stroke="#666666" points="731,-200.5 642,-200.5 642,-181.5 731,-181.5 731,-200.5"/>
<text text-anchor="middle" x="686.5" y="-188.5" font-family="Helvetica,sans-Serif" font-size="10.00">src/js/wrap.cpp</text>
</a>
</g>
</g>
<!-- Node12&#45;&gt;Node13 -->
<g id="edge16" class="edge">
<title>Node12&#45;&gt;Node13</title>
<path fill="none" stroke="#63b8ff" d="M724.68,-386.63C641.4,-379.87 522.74,-355.07 466.5,-272 423.15,-207.97 565.74,-194.93 641.84,-192.45"/>
<polygon fill="#63b8ff" stroke="#63b8ff" points="724.43,-390.12 734.66,-387.37 724.94,-383.14 724.43,-390.12"/>
</g>
<!-- Node14 -->
<g id="node14" class="node">
<title>Node14</title>
<g id="a_node14"><a xlink:href="wrap_8h.html" target="_top" xlink:title=" ">
<polygon fill="white" stroke="#666666" points="858.5,-332.5 780.5,-332.5 780.5,-313.5 858.5,-313.5 858.5,-332.5"/>
<text text-anchor="middle" x="819.5" y="-320.5" font-family="Helvetica,sans-Serif" font-size="10.00">src/js/wrap.h</text>
</a>
</g>
</g>
<!-- Node12&#45;&gt;Node14 -->
<g id="edge17" class="edge">
<title>Node12&#45;&gt;Node14</title>
<path fill="none" stroke="#63b8ff" d="M816.68,-369.08C817.43,-357.13 818.36,-342.22 818.94,-332.91"/>
<polygon fill="#63b8ff" stroke="#63b8ff" points="813.17,-369.17 816.04,-379.37 820.16,-369.61 813.17,-369.17"/>
</g>
<!-- Node21 -->
<g id="node21" class="node">
<title>Node21</title>
<g id="a_node21"><a xlink:href="historical__queries_8h.html" target="_top" xlink:title=" ">
<polygon fill="white" stroke="#666666" points="163.5,-206 57.5,-206 57.5,-176 163.5,-176 163.5,-206"/>
<text text-anchor="start" x="65.5" y="-194" font-family="Helvetica,sans-Serif" font-size="10.00">src/node/historical</text>
<text text-anchor="middle" x="110.5" y="-183" font-family="Helvetica,sans-Serif" font-size="10.00">_queries.h</text>
</a>
</g>
</g>
<!-- Node12&#45;&gt;Node21 -->
<g id="edge32" class="edge">
<title>Node12&#45;&gt;Node21</title>
<path fill="none" stroke="#63b8ff" d="M724.66,-387.65C548.03,-386.07 171.83,-378 129.5,-338 92.9,-303.42 101.38,-235.6 107.23,-206.18"/>
<polygon fill="#63b8ff" stroke="#63b8ff" points="724.69,-391.15 734.72,-387.73 724.75,-384.15 724.69,-391.15"/>
</g>
<!-- Node23 -->
<g id="node23" class="node">
<title>Node23</title>
<g id="a_node23"><a xlink:href="network__identity__subsystem_8h.html" target="_top" xlink:title=" ">
<polygon fill="white" stroke="#666666" points="266,-338 139,-338 139,-308 266,-308 266,-338"/>
<text text-anchor="start" x="147" y="-326" font-family="Helvetica,sans-Serif" font-size="10.00">src/node/rpc/network</text>
<text text-anchor="middle" x="202.5" y="-315" font-family="Helvetica,sans-Serif" font-size="10.00">_identity_subsystem.h</text>
</a>
</g>
</g>
<!-- Node12&#45;&gt;Node23 -->
<g id="edge37" class="edge">
<title>Node12&#45;&gt;Node23</title>
<path fill="none" stroke="#63b8ff" d="M724.54,-382.29C616.96,-374.9 432.63,-360.29 275.5,-338 272.43,-337.57 269.3,-337.09 266.14,-336.58"/>
<polygon fill="#63b8ff" stroke="#63b8ff" points="724.49,-385.79 734.71,-382.98 724.97,-378.81 724.49,-385.79"/>
</g>
<!-- Node12&#45;&gt;Node25 -->
<g id="edge41" class="edge">
<title>Node12&#45;&gt;Node25</title>
<path fill="none" stroke="#63b8ff" d="M744.69,-378.06C673.41,-368.03 560.31,-352.06 462.5,-338 450.25,-336.24 437.12,-334.33 424.62,-332.52"/>
<polygon fill="#63b8ff" stroke="#63b8ff" points="744.51,-381.57 754.9,-379.49 745.49,-374.63 744.51,-381.57"/>
</g>
<!-- Node14&#45;&gt;Node4 -->
<g id="edge31" class="edge">
<title>Node14&#45;&gt;Node4</title>
<path fill="none" stroke="#63b8ff" d="M857.8,-311.01C862.72,-309.86 867.71,-308.81 872.5,-308 1075.56,-273.56 1130.35,-299.18 1334.5,-272 1339.04,-271.4 1343.72,-270.7 1348.41,-269.94"/>
<polygon fill="#63b8ff" stroke="#63b8ff" points="856.75,-307.67 847.9,-313.49 858.45,-314.46 856.75,-307.67"/>
</g>
<!-- Node14&#45;&gt;Node5 -->
<g id="edge19" class="edge">
<title>Node14&#45;&gt;Node5</title>
<path fill="none" stroke="#63b8ff" d="M769.87,-321.77C688.84,-320.22 533.7,-311.96 499.5,-272 490.83,-261.87 492.47,-253.33 499.5,-242 589.68,-96.58 1158.42,-70.96 1347.48,-66.46"/>
<polygon fill="#63b8ff" stroke="#63b8ff" points="770.26,-325.28 780.32,-321.94 770.38,-318.28 770.26,-325.28"/>
</g>
<!-- Node14&#45;&gt;Node9 -->
<g id="edge30" class="edge">
<title>Node14&#45;&gt;Node9</title>
<path fill="none" stroke="#63b8ff" d="M854.86,-310.82C859.09,-309.74 863.37,-308.77 867.5,-308 1057.81,-272.72 1121.44,-342.99 1301.5,-272 1321.52,-264.11 1319.69,-250.4 1339.5,-242 1393.8,-218.97 1557.59,-203.46 1648.32,-196.39"/>
<polygon fill="#63b8ff" stroke="#63b8ff" points="853.89,-307.46 845.18,-313.48 855.75,-314.21 853.89,-307.46"/>
</g>
<!-- Node14&#45;&gt;Node13 -->
<g id="edge29" class="edge">
<title>Node14&#45;&gt;Node13</title>
<path fill="none" stroke="#63b8ff" d="M860.4,-310.68C907.16,-297.55 977.78,-277.05 981.5,-272 989.42,-261.27 990.1,-252.19 981.5,-242 949.99,-204.7 805.66,-195.22 731.22,-192.81"/>
<polygon fill="#63b8ff" stroke="#63b8ff" points="859.22,-307.38 850.53,-313.44 861.1,-314.12 859.22,-307.38"/>
</g>
<!-- Node15 -->
<g id="node15" class="node">
<title>Node15</title>
<g id="a_node15"><a xlink:href="js__generic__base_8cpp.html" target="_top" xlink:title=" ">
<polygon fill="white" stroke="#666666" points="1146.5,-272 1028.5,-272 1028.5,-242 1146.5,-242 1146.5,-272"/>
<text text-anchor="start" x="1036.5" y="-260" font-family="Helvetica,sans-Serif" font-size="10.00">src/apps/js_generic</text>
<text text-anchor="middle" x="1087.5" y="-249" font-family="Helvetica,sans-Serif" font-size="10.00">/js_generic_base.cpp</text>
</a>
</g>
</g>
<!-- Node14&#45;&gt;Node15 -->
<g id="edge18" class="edge">
<title>Node14&#45;&gt;Node15</title>
<path fill="none" stroke="#63b8ff" d="M860.84,-310.95C864.78,-309.94 868.71,-308.94 872.5,-308 924.94,-294.98 984.84,-281.13 1028.07,-271.32"/>
<polygon fill="#63b8ff" stroke="#63b8ff" points="859.93,-307.57 851.13,-313.48 861.69,-314.35 859.93,-307.57"/>
</g>
<!-- Node16 -->
<g id="node16" class="node">
<title>Node16</title>
<g id="a_node16"><a xlink:href="js_2consensus_8cpp.html" target="_top" xlink:title=" ">
<polygon fill="white" stroke="#666666" points="624.5,-266.5 508.5,-266.5 508.5,-247.5 624.5,-247.5 624.5,-266.5"/>
<text text-anchor="middle" x="566.5" y="-254.5" font-family="Helvetica,sans-Serif" font-size="10.00">src/js/consensus.cpp</text>
</a>
</g>
</g>
<!-- Node14&#45;&gt;Node16 -->
<g id="edge20" class="edge">
<title>Node14&#45;&gt;Node16</title>
<path fill="none" stroke="#63b8ff" d="M775.79,-310.94C725.91,-298.32 645.4,-277.96 600.16,-266.51"/>
<polygon fill="#63b8ff" stroke="#63b8ff" points="775.09,-314.38 785.64,-313.44 776.81,-307.59 775.09,-314.38"/>
</g>
<!-- Node17 -->
<g id="node17" class="node">
<title>Node17</title>
<g id="a_node17"><a xlink:href="conv_8cpp.html" target="_top" xlink:title=" ">
<polygon fill="white" stroke="#666666" points="730.5,-266.5 642.5,-266.5 642.5,-247.5 730.5,-247.5 730.5,-266.5"/>
<text text-anchor="middle" x="686.5" y="-254.5" font-family="Helvetica,sans-Serif" font-size="10.00">src/js/conv.cpp</text>
</a>
</g>
</g>
<!-- Node14&#45;&gt;Node17 -->
<g id="edge22" class="edge">
<title>Node14&#45;&gt;Node17</title>
<path fill="none" stroke="#63b8ff" d="M792.54,-309.03C766.33,-296.42 727.25,-277.61 704.58,-266.7"/>
<polygon fill="#63b8ff" stroke="#63b8ff" points="791.03,-312.19 801.56,-313.37 794.07,-305.88 791.03,-312.19"/>
</g>
<!-- Node18 -->
<g id="node18" class="node">
<title>Node18</title>
<g id="a_node18"><a xlink:href="js_2crypto_8cpp.html" target="_top" xlink:title=" ">
<polygon fill="white" stroke="#666666" points="844.5,-266.5 748.5,-266.5 748.5,-247.5 844.5,-247.5 844.5,-266.5"/>
<text text-anchor="middle" x="796.5" y="-254.5" font-family="Helvetica,sans-Serif" font-size="10.00">src/js/crypto.cpp</text>
</a>
</g>
</g>
<!-- Node14&#45;&gt;Node18 -->
<g id="edge24" class="edge">
<title>Node14&#45;&gt;Node18</title>
<path fill="none" stroke="#63b8ff" d="M812.97,-303.82C808.63,-291.74 803.12,-276.41 799.7,-266.91"/>
<polygon fill="#63b8ff" stroke="#63b8ff" points="809.72,-305.14 816.4,-313.37 816.31,-302.77 809.72,-305.14"/>
</g>
<!-- Node19 -->
<g id="node19" class="node">
<title>Node19</title>
<g id="a_node19"><a xlink:href="js_2historical_8cpp.html" target="_top" xlink:title=" ">
<polygon fill="white" stroke="#666666" points="972.5,-266.5 862.5,-266.5 862.5,-247.5 972.5,-247.5 972.5,-266.5"/>
<text text-anchor="middle" x="917.5" y="-254.5" font-family="Helvetica,sans-Serif" font-size="10.00">src/js/historical.cpp</text>
</a>
</g>
</g>
<!-- Node14&#45;&gt;Node19 -->
<g id="edge26" class="edge">
<title>Node14&#45;&gt;Node19</title>
<path fill="none" stroke="#63b8ff" d="M841.17,-307.85C860.43,-295.27 887.98,-277.28 904.18,-266.7"/>
<polygon fill="#63b8ff" stroke="#63b8ff" points="839.18,-304.97 832.72,-313.37 843,-310.83 839.18,-304.97"/>
</g>
<!-- Node20 -->
<g id="node20" class="node">
<title>Node20</title>
<g id="a_node20"><a xlink:href="openenclave_8cpp.html" target="_top" xlink:title=" ">
<polygon fill="white" stroke="#666666" points="1292.5,-266.5 1164.5,-266.5 1164.5,-247.5 1292.5,-247.5 1292.5,-266.5"/>
<text text-anchor="middle" x="1228.5" y="-254.5" font-family="Helvetica,sans-Serif" font-size="10.00">src/js/openenclave.cpp</text>
</a>
</g>
</g>
<!-- Node14&#45;&gt;Node20 -->
<g id="edge28" class="edge">
<title>Node14&#45;&gt;Node20</title>
<path fill="none" stroke="#63b8ff" d="M858.9,-310.98C863.47,-309.89 868.07,-308.86 872.5,-308 996.95,-283.76 1030.29,-291.95 1155.5,-272 1165.57,-270.4 1176.37,-268.45 1186.5,-266.52"/>
<polygon fill="#63b8ff" stroke="#63b8ff" points="857.9,-307.62 849.05,-313.46 859.61,-314.41 857.9,-307.62"/>
</g>
<!-- Node16&#45;&gt;Node13 -->
<g id="edge21" class="edge">
<title>Node16&#45;&gt;Node13</title>
<path fill="none" stroke="#63b8ff" d="M591.76,-242.53C615.4,-229.92 650,-211.47 670.19,-200.7"/>
<polygon fill="#63b8ff" stroke="#63b8ff" points="589.86,-239.57 582.68,-247.37 593.15,-245.75 589.86,-239.57"/>
</g>
<!-- Node17&#45;&gt;Node13 -->
<g id="edge23" class="edge">
<title>Node17&#45;&gt;Node13</title>
<path fill="none" stroke="#63b8ff" d="M686.5,-237.08C686.5,-225.13 686.5,-210.22 686.5,-200.91"/>
<polygon fill="#63b8ff" stroke="#63b8ff" points="683,-237.37 686.5,-247.37 690,-237.37 683,-237.37"/>
</g>
<!-- Node18&#45;&gt;Node13 -->
<g id="edge25" class="edge">
<title>Node18&#45;&gt;Node13</title>
<path fill="none" stroke="#63b8ff" d="M772.76,-242.19C751.12,-229.59 719.79,-211.37 701.45,-200.7"/>
<polygon fill="#63b8ff" stroke="#63b8ff" points="771.26,-245.36 781.66,-247.37 774.78,-239.31 771.26,-245.36"/>
</g>
<!-- Node19&#45;&gt;Node13 -->
<g id="edge27" class="edge">
<title>Node19&#45;&gt;Node13</title>
<path fill="none" stroke="#63b8ff" d="M876.51,-244.64C831,-232.03 758.57,-211.97 717.53,-200.6"/>
<polygon fill="#63b8ff" stroke="#63b8ff" points="875.77,-248.07 886.35,-247.37 877.64,-241.33 875.77,-248.07"/>
</g>
<!-- Node21&#45;&gt;Node5 -->
<g id="edge33" class="edge">
<title>Node21&#45;&gt;Node5</title>
<path fill="none" stroke="#63b8ff" d="M122.42,-167.15C133.75,-148.07 152.75,-122.11 177.5,-110 230.45,-84.1 1105.45,-69.8 1347.1,-66.34"/>
<polygon fill="#63b8ff" stroke="#63b8ff" points="119.36,-165.45 117.47,-175.87 125.45,-168.9 119.36,-165.45"/>
</g>
<!-- Node22 -->
<g id="node22" class="node">
<title>Node22</title>
<g id="a_node22"><a xlink:href="historical__transaction__fetcher_8h.html" target="_top" xlink:title=" ">
<polygon fill="white" stroke="#666666" points="125,-140 0,-140 0,-110 125,-110 125,-140"/>
<text text-anchor="start" x="8" y="-128" font-family="Helvetica,sans-Serif" font-size="10.00">src/indexing/historical</text>
<text text-anchor="middle" x="62.5" y="-117" font-family="Helvetica,sans-Serif" font-size="10.00">_transaction_fetcher.h</text>
</a>
</g>
</g>
<!-- Node21&#45;&gt;Node22 -->
<g id="edge34" class="edge">
<title>Node21&#45;&gt;Node22</title>
<path fill="none" stroke="#63b8ff" d="M93.64,-167.53C86.82,-158.43 79.15,-148.19 73.12,-140.16"/>
<polygon fill="#63b8ff" stroke="#63b8ff" points="91.05,-169.9 99.85,-175.8 96.65,-165.7 91.05,-169.9"/>
</g>
<!-- Node22&#45;&gt;Node5 -->
<g id="edge35" class="edge">
<title>Node22&#45;&gt;Node5</title>
<path fill="none" stroke="#63b8ff" d="M135.03,-110.51C136.53,-110.33 138.02,-110.16 139.5,-110 377.85,-84.29 1127.2,-70.14 1347.2,-66.47"/>
<polygon fill="#63b8ff" stroke="#63b8ff" points="134.45,-107.06 125,-111.85 135.38,-114 134.45,-107.06"/>
</g>
<!-- Node23&#45;&gt;Node5 -->
<g id="edge38" class="edge">
<title>Node23&#45;&gt;Node5</title>
<path fill="none" stroke="#63b8ff" d="M198.19,-297.98C196.49,-280.65 197.28,-257.65 209.5,-242 320.33,-100.1 415.8,-144.57 592.5,-110 736.96,-81.74 1183.34,-70.06 1347.29,-66.64"/>
<polygon fill="#63b8ff" stroke="#63b8ff" points="194.73,-298.46 199.5,-307.92 201.67,-297.55 194.73,-298.46"/>
</g>
<!-- Node24 -->
<g id="node24" class="node">
<title>Node24</title>
<g id="a_node24"><a xlink:href="historical__queries__adapter_8cpp.html" target="_top" xlink:title=" ">
<polygon fill="white" stroke="#666666" points="338.5,-272 218.5,-272 218.5,-242 338.5,-242 338.5,-272"/>
<text text-anchor="start" x="226.5" y="-260" font-family="Helvetica,sans-Serif" font-size="10.00">src/node/historical</text>
<text text-anchor="middle" x="278.5" y="-249" font-family="Helvetica,sans-Serif" font-size="10.00">_queries_adapter.cpp</text>
</a>
</g>
</g>
<!-- Node23&#45;&gt;Node24 -->
<g id="edge39" class="edge">
<title>Node23&#45;&gt;Node24</title>
<path fill="none" stroke="#63b8ff" d="M227.2,-301.2C238.48,-291.7 251.55,-280.69 261.68,-272.16"/>
<polygon fill="#63b8ff" stroke="#63b8ff" points="224.76,-298.68 219.37,-307.8 229.27,-304.03 224.76,-298.68"/>
</g>
<!-- Node25&#45;&gt;Node5 -->
<g id="edge42" class="edge">
<title>Node25&#45;&gt;Node5</title>
<path fill="none" stroke="#63b8ff" d="M381.61,-305.74C409.38,-276.59 471.41,-214.87 533.5,-176 597.31,-136.05 616.22,-127.24 689.5,-110 813.83,-80.75 1197.46,-69.85 1347.48,-66.63"/>
<polygon fill="#63b8ff" stroke="#63b8ff" points="378.73,-303.68 374.42,-313.36 383.83,-308.49 378.73,-303.68"/>
</g>
<!-- Node26&#45;&gt;Node11 -->
<g id="edge61" class="edge">
<title>Node26&#45;&gt;Node11</title>
<path fill="none" stroke="#63b8ff" d="M1137.61,-580.5C1085.98,-574.35 1012.34,-561.65 952.5,-536 913.83,-519.42 875.06,-488.42 854.19,-470.26"/>
<polygon fill="#63b8ff" stroke="#63b8ff" points="1137.29,-583.99 1147.63,-581.64 1138.09,-577.03 1137.29,-583.99"/>
</g>
<!-- Node26&#45;&gt;Node12 -->
<g id="edge60" class="edge">
<title>Node26&#45;&gt;Node12</title>
<path fill="none" stroke="#63b8ff" d="M1179.14,-564.59C1169.94,-555.76 1159.19,-545.4 1149.5,-536 1105.75,-493.54 1105.24,-468.8 1051.5,-440 1003.6,-414.33 943.63,-401.84 896.13,-395.76"/>
<polygon fill="#63b8ff" stroke="#63b8ff" points="1176.81,-567.2 1186.45,-571.6 1181.65,-562.15 1176.81,-567.2"/>
</g>
<!-- Node27 -->
<g id="node27" class="node">
<title>Node27</title>
<g id="a_node27"><a xlink:href="common__endpoint__registry_8cpp.html" target="_top" xlink:title=" ">
<polygon fill="white" stroke="#666666" points="1227.5,-338 1099.5,-338 1099.5,-308 1227.5,-308 1227.5,-338"/>
<text text-anchor="start" x="1107.5" y="-326" font-family="Helvetica,sans-Serif" font-size="10.00">src/endpoints/common</text>
<text text-anchor="middle" x="1163.5" y="-315" font-family="Helvetica,sans-Serif" font-size="10.00">_endpoint_registry.cpp</text>
</a>
</g>
</g>
<!-- Node26&#45;&gt;Node27 -->
<g id="edge45" class="edge">
<title>Node26&#45;&gt;Node27</title>
<path fill="none" stroke="#63b8ff" d="M1197.27,-561.65C1193.26,-538.2 1187.16,-501.72 1182.5,-470 1175.4,-421.7 1168.32,-364.2 1165.18,-338.12"/>
<polygon fill="#63b8ff" stroke="#63b8ff" points="1193.86,-562.48 1199.01,-571.74 1200.76,-561.29 1193.86,-562.48"/>
</g>
<!-- Node28 -->
<g id="node28" class="node">
<title>Node28</title>
<g id="a_node28"><a xlink:href="call__types_8h.html" target="_top" xlink:title=" ">
<polygon fill="white" stroke="#666666" points="1329,-464.5 1192,-464.5 1192,-445.5 1329,-445.5 1329,-464.5"/>
<text text-anchor="middle" x="1260.5" y="-452.5" font-family="Helvetica,sans-Serif" font-size="10.00">src/node/rpc/call_types.h</text>
</a>
</g>
</g>
<!-- Node26&#45;&gt;Node28 -->
<g id="edge46" class="edge">
<title>Node26&#45;&gt;Node28</title>
<path fill="none" stroke="#63b8ff" d="M1204.47,-561.43C1207.12,-545.09 1211.95,-523.51 1220.5,-506 1228.4,-489.82 1242.32,-474.09 1251.48,-464.73"/>
<polygon fill="#63b8ff" stroke="#63b8ff" points="1200.94,-561.38 1202.96,-571.78 1207.87,-562.39 1200.94,-561.38"/>
</g>
<!-- Node30 -->
<g id="node30" class="node">
<title>Node30</title>
<g id="a_node30"><a xlink:href="serialization_8h.html" target="_top" xlink:title=" ">
<polygon fill="white" stroke="#666666" points="1469.5,-398.5 1321.5,-398.5 1321.5,-379.5 1469.5,-379.5 1469.5,-398.5"/>
<text text-anchor="middle" x="1395.5" y="-386.5" font-family="Helvetica,sans-Serif" font-size="10.00">src/node/rpc/serialization.h</text>
</a>
</g>
</g>
<!-- Node26&#45;&gt;Node30 -->
<g id="edge62" class="edge">
<title>Node26&#45;&gt;Node30</title>
<path fill="none" stroke="#63b8ff" d="M1265.37,-581.47C1299.06,-575.74 1338.49,-563.19 1363.5,-536 1400.39,-495.89 1398.29,-423.34 1396.34,-398.56"/>
<polygon fill="#63b8ff" stroke="#63b8ff" points="1264.47,-578.06 1255.11,-583.03 1265.53,-584.98 1264.47,-578.06"/>
</g>
<!-- Node31 -->
<g id="node31" class="node">
<title>Node31</title>
<g id="a_node31"><a xlink:href="node__call__types_8h.html" target="_top" xlink:title=" ">
<polygon fill="white" stroke="#666666" points="1355,-536 1230,-536 1230,-506 1355,-506 1355,-536"/>
<text text-anchor="start" x="1238" y="-524" font-family="Helvetica,sans-Serif" font-size="10.00">src/node/rpc/node_call</text>
<text text-anchor="middle" x="1292.5" y="-513" font-family="Helvetica,sans-Serif" font-size="10.00">_types.h</text>
</a>
</g>
</g>
<!-- Node26&#45;&gt;Node31 -->
<g id="edge58" class="edge">
<title>Node26&#45;&gt;Node31</title>
<path fill="none" stroke="#63b8ff" d="M1229.9,-566.03C1243.67,-556.34 1259.88,-544.94 1272.36,-536.16"/>
<polygon fill="#63b8ff" stroke="#63b8ff" points="1227.86,-563.18 1221.7,-571.8 1231.89,-568.91 1227.86,-563.18"/>
</g>
<!-- Node32 -->
<g id="node32" class="node">
<title>Node32</title>
<g id="a_node32"><a xlink:href="genesis__gen_8h.html" target="_top" xlink:title=" ">
<polygon fill="white" stroke="#666666" points="1772.5,-404 1662.5,-404 1662.5,-374 1772.5,-374 1772.5,-404"/>
<text text-anchor="start" x="1670.5" y="-392" font-family="Helvetica,sans-Serif" font-size="10.00">src/service/genesis</text>
<text text-anchor="middle" x="1717.5" y="-381" font-family="Helvetica,sans-Serif" font-size="10.00">_gen.h</text>
</a>
</g>
</g>
<!-- Node26&#45;&gt;Node32 -->
<g id="edge63" class="edge">
<title>Node26&#45;&gt;Node32</title>
<path fill="none" stroke="#63b8ff" d="M1265.04,-571.49C1301.33,-562.57 1347.44,-550.15 1387.5,-536 1502.39,-495.41 1633.19,-432.22 1689.41,-404.2"/>
<polygon fill="#63b8ff" stroke="#63b8ff" points="1263.97,-568.15 1255.08,-573.92 1265.62,-574.95 1263.97,-568.15"/>
</g>
<!-- Node35 -->
<g id="node35" class="node">
<title>Node35</title>
<g id="a_node35"><a xlink:href="network__tables_8h.html" target="_top" xlink:title=" ">
<polygon fill="white" stroke="#666666" points="1875.5,-470 1763.5,-470 1763.5,-440 1875.5,-440 1875.5,-470"/>
<text text-anchor="start" x="1771.5" y="-458" font-family="Helvetica,sans-Serif" font-size="10.00">src/service/network</text>
<text text-anchor="middle" x="1819.5" y="-447" font-family="Helvetica,sans-Serif" font-size="10.00">_tables.h</text>
</a>
</g>
</g>
<!-- Node26&#45;&gt;Node35 -->
<g id="edge72" class="edge">
<title>Node26&#45;&gt;Node35</title>
<path fill="none" stroke="#63b8ff" d="M1265.38,-583.42C1347.85,-578.94 1495.28,-566.99 1617.5,-536 1681.48,-519.77 1752.38,-488.35 1790.85,-470.09"/>
<polygon fill="#63b8ff" stroke="#63b8ff" points="1264.97,-579.94 1255.17,-583.96 1265.33,-586.93 1264.97,-579.94"/>
</g>
<!-- Node28&#45;&gt;Node4 -->
<g id="edge51" class="edge">
<title>Node28&#45;&gt;Node4</title>
<path fill="none" stroke="#63b8ff" d="M1261.25,-435.28C1263.41,-405.08 1271.71,-345.25 1303.5,-308 1317.72,-291.34 1338.75,-279.82 1358.26,-272.07"/>
<polygon fill="#63b8ff" stroke="#63b8ff" points="1257.76,-435.11 1260.69,-445.29 1264.75,-435.5 1257.76,-435.11"/>
</g>
<!-- Node28&#45;&gt;Node13 -->
<g id="edge48" class="edge">
<title>Node28&#45;&gt;Node13</title>
<path fill="none" stroke="#63b8ff" d="M1212.2,-443.29C1046.52,-406.46 510.85,-286.44 499.5,-272 459.17,-220.72 574.45,-201.79 641.74,-195.22"/>
<polygon fill="#63b8ff" stroke="#63b8ff" points="1211.59,-446.74 1222.11,-445.49 1213.1,-439.91 1211.59,-446.74"/>
</g>
<!-- Node28&#45;&gt;Node27 -->
<g id="edge47" class="edge">
<title>Node28&#45;&gt;Node27</title>
<path fill="none" stroke="#63b8ff" d="M1248.11,-437.4C1228.84,-411.57 1192.04,-362.25 1174,-338.07"/>
<polygon fill="#63b8ff" stroke="#63b8ff" points="1245.35,-439.55 1254.14,-445.47 1250.96,-435.36 1245.35,-439.55"/>
</g>
<!-- Node29 -->
<g id="node29" class="node">
<title>Node29</title>
<g id="a_node29"><a xlink:href="resharing_8h.html" target="_top" xlink:title=" ">
<polygon fill="white" stroke="#666666" points="1437.5,-332.5 1321.5,-332.5 1321.5,-313.5 1437.5,-313.5 1437.5,-332.5"/>
<text text-anchor="middle" x="1379.5" y="-320.5" font-family="Helvetica,sans-Serif" font-size="10.00">src/node/resharing.h</text>
</a>
</g>
</g>
<!-- Node28&#45;&gt;Node29 -->
<g id="edge49" class="edge">
<title>Node28&#45;&gt;Node29</title>
<path fill="none" stroke="#63b8ff" d="M1269.51,-436.47C1278.83,-419.37 1294.51,-393.2 1312.5,-374 1328.48,-356.95 1350.86,-341.57 1365.27,-332.5"/>
<polygon fill="#63b8ff" stroke="#63b8ff" points="1266.39,-434.89 1264.79,-445.37 1272.57,-438.17 1266.39,-434.89"/>
</g>
<!-- Node28&#45;&gt;Node30 -->
<g id="edge52" class="edge">
<title>Node28&#45;&gt;Node30</title>
<path fill="none" stroke="#63b8ff" d="M1287.86,-441.03C1314.47,-428.42 1354.13,-409.61 1377.15,-398.7"/>
<polygon fill="#63b8ff" stroke="#63b8ff" points="1286.24,-437.92 1278.71,-445.37 1289.24,-444.25 1286.24,-437.92"/>
</g>
<!-- Node29&#45;&gt;Node9 -->
<g id="edge50" class="edge">
<title>Node29&#45;&gt;Node9</title>
<path fill="none" stroke="#63b8ff" d="M1407.47,-309C1427.38,-299.44 1454.56,-285.77 1477.5,-272 1497.48,-260.01 1499.35,-251.78 1520.5,-242 1564.92,-221.45 1619.25,-208.23 1658.41,-200.58"/>
<polygon fill="#63b8ff" stroke="#63b8ff" points="1405.86,-305.89 1398.33,-313.34 1408.87,-312.21 1405.86,-305.89"/>
</g>
<!-- Node30&#45;&gt;Node4 -->
<g id="edge56" class="edge">
<title>Node30&#45;&gt;Node4</title>
<path fill="none" stroke="#63b8ff" d="M1358.44,-375.5C1341.23,-367.62 1322.41,-355.55 1312.5,-338 1305.94,-326.39 1305.58,-319.4 1312.5,-308 1322.73,-291.13 1340.72,-279.69 1358.38,-272.06"/>
<polygon fill="#63b8ff" stroke="#63b8ff" points="1357.2,-378.78 1367.77,-379.46 1359.93,-372.33 1357.2,-378.78"/>
</g>
<!-- Node30&#45;&gt;Node7 -->
<g id="edge57" class="edge">
<title>Node30&#45;&gt;Node7</title>
<path fill="none" stroke="#63b8ff" d="M1429.13,-375.84C1464.1,-363.2 1517.94,-343.73 1548.73,-332.6"/>
<polygon fill="#63b8ff" stroke="#63b8ff" points="1427.58,-372.68 1419.37,-379.37 1429.97,-379.26 1427.58,-372.68"/>
</g>
<!-- Node30&#45;&gt;Node9 -->
<g id="edge54" class="edge">
<title>Node30&#45;&gt;Node9</title>
<path fill="none" stroke="#63b8ff" d="M1411.36,-372.1C1428.59,-355.23 1457.3,-328.27 1484.5,-308 1529.61,-274.39 1542.47,-267.71 1592.5,-242 1624.56,-225.53 1663.3,-209.88 1687.42,-200.61"/>
<polygon fill="#63b8ff" stroke="#63b8ff" points="1408.53,-369.97 1403.88,-379.49 1413.46,-374.95 1408.53,-369.97"/>
</g>
<!-- Node30&#45;&gt;Node27 -->
<g id="edge53" class="edge">
<title>Node30&#45;&gt;Node27</title>
<path fill="none" stroke="#63b8ff" d="M1354.25,-376.62C1315.26,-365.86 1256.63,-349.69 1214.67,-338.12"/>
<polygon fill="#63b8ff" stroke="#63b8ff" points="1353.64,-380.08 1364.21,-379.37 1355.5,-373.34 1353.64,-380.08"/>
</g>
<!-- Node30&#45;&gt;Node29 -->
<g id="edge55" class="edge">
<title>Node30&#45;&gt;Node29</title>
<path fill="none" stroke="#63b8ff" d="M1390.86,-369.45C1387.86,-357.43 1384.08,-342.32 1381.73,-332.91"/>
<polygon fill="#63b8ff" stroke="#63b8ff" points="1387.52,-370.52 1393.34,-379.37 1394.31,-368.82 1387.52,-370.52"/>
</g>
<!-- Node31&#45;&gt;Node28 -->
<g id="edge59" class="edge">
<title>Node31&#45;&gt;Node28</title>
<path fill="none" stroke="#63b8ff" d="M1280.81,-496.61C1275.28,-485.56 1269.01,-473.03 1264.92,-464.84"/>
<polygon fill="#63b8ff" stroke="#63b8ff" points="1277.8,-498.42 1285.4,-505.8 1284.06,-495.29 1277.8,-498.42"/>
</g>
<!-- Node32&#45;&gt;Node4 -->
<g id="edge65" class="edge">
<title>Node32&#45;&gt;Node4</title>
<path fill="none" stroke="#63b8ff" d="M1707.01,-364.74C1697.51,-346.41 1681.75,-321.73 1660.5,-308 1602.63,-270.59 1522.82,-260.13 1468.64,-257.71"/>
<polygon fill="#63b8ff" stroke="#63b8ff" points="1703.96,-366.48 1711.52,-373.91 1710.24,-363.39 1703.96,-366.48"/>
</g>
<!-- Node32&#45;&gt;Node7 -->
<g id="edge66" class="edge">
<title>Node32&#45;&gt;Node7</title>
<path fill="none" stroke="#63b8ff" d="M1676.22,-369.78C1648.5,-357.54 1613.24,-341.98 1591.8,-332.52"/>
<polygon fill="#63b8ff" stroke="#63b8ff" points="1675.12,-373.12 1685.68,-373.95 1677.94,-366.71 1675.12,-373.12"/>
</g>
<!-- Node32&#45;&gt;Node9 -->
<g id="edge64" class="edge">
<title>Node32&#45;&gt;Node9</title>
<path fill="none" stroke="#63b8ff" d="M1722.57,-363.69C1729.58,-328.34 1740.82,-264.53 1735.5,-242 1731.84,-226.51 1722.61,-210.35 1716.45,-200.73"/>
<polygon fill="#63b8ff" stroke="#63b8ff" points="1719.1,-363.17 1720.55,-373.67 1725.96,-364.56 1719.1,-363.17"/>
</g>
<!-- Node33 -->
<g id="node33" class="node">
<title>Node33</title>
<g id="a_node33"><a xlink:href="secret__broadcast_8h.html" target="_top" xlink:title=" ">
<polygon fill="white" stroke="#666666" points="2062,-332.5 1909,-332.5 1909,-313.5 2062,-313.5 2062,-332.5"/>
<text text-anchor="middle" x="1985.5" y="-320.5" font-family="Helvetica,sans-Serif" font-size="10.00">src/node/secret_broadcast.h</text>
</a>
</g>
</g>
<!-- Node32&#45;&gt;Node33 -->
<g id="edge67" class="edge">
<title>Node32&#45;&gt;Node33</title>
<path fill="none" stroke="#63b8ff" d="M1782.6,-372.45C1835.11,-359.91 1907.01,-342.74 1949.62,-332.57"/>
<polygon fill="#63b8ff" stroke="#63b8ff" points="1781.62,-369.09 1772.7,-374.82 1783.24,-375.9 1781.62,-369.09"/>
</g>
<!-- Node34 -->
<g id="node34" class="node">
<title>Node34</title>
<g id="a_node34"><a xlink:href="share__manager_8h.html" target="_top" xlink:title=" ">
<polygon fill="white" stroke="#666666" points="1891,-332.5 1746,-332.5 1746,-313.5 1891,-313.5 1891,-332.5"/>
<text text-anchor="middle" x="1818.5" y="-320.5" font-family="Helvetica,sans-Serif" font-size="10.00">src/node/share_manager.h</text>
</a>
</g>
</g>
<!-- Node32&#45;&gt;Node34 -->
<g id="edge69" class="edge">
<title>Node32&#45;&gt;Node34</title>
<path fill="none" stroke="#63b8ff" d="M1748.49,-368.36C1767.33,-356.42 1790.45,-341.77 1804.84,-332.66"/>
<polygon fill="#63b8ff" stroke="#63b8ff" points="1746.49,-365.49 1739.92,-373.8 1750.24,-371.4 1746.49,-365.49"/>
</g>
<!-- Node33&#45;&gt;Node9 -->
<g id="edge68" class="edge">
<title>Node33&#45;&gt;Node9</title>
<path fill="none" stroke="#63b8ff" d="M1958.16,-309.08C1902.16,-282.6 1775.69,-222.82 1728.61,-200.56"/>
<polygon fill="#63b8ff" stroke="#63b8ff" points="1956.92,-312.36 1967.46,-313.47 1959.91,-306.03 1956.92,-312.36"/>
</g>
<!-- Node34&#45;&gt;Node4 -->
<g id="edge71" class="edge">
<title>Node34&#45;&gt;Node4</title>
<path fill="none" stroke="#63b8ff" d="M1753.41,-311.84C1675.12,-299.62 1544.75,-279.27 1468.7,-267.4"/>
<polygon fill="#63b8ff" stroke="#63b8ff" points="1753.21,-315.35 1763.63,-313.44 1754.29,-308.43 1753.21,-315.35"/>
</g>
<!-- Node34&#45;&gt;Node9 -->
<g id="edge70" class="edge">
<title>Node34&#45;&gt;Node9</title>
<path fill="none" stroke="#63b8ff" d="M1809.42,-304.23C1800.32,-287.3 1785.28,-261.56 1768.5,-242 1754.48,-225.65 1734.98,-209.97 1722.55,-200.66"/>
<polygon fill="#63b8ff" stroke="#63b8ff" points="1806.54,-306.27 1814.28,-313.5 1812.74,-303.02 1806.54,-306.27"/>
</g>
<!-- Node35&#45;&gt;Node32 -->
<g id="edge85" class="edge">
<title>Node35&#45;&gt;Node32</title>
<path fill="none" stroke="#63b8ff" d="M1788.29,-434.42C1772.64,-424.6 1754.04,-412.93 1739.83,-404.01"/>
<polygon fill="#63b8ff" stroke="#63b8ff" points="1786.78,-437.6 1797.12,-439.95 1790.51,-431.68 1786.78,-437.6"/>
</g>
<!-- Node36 -->
<g id="node36" class="node">
<title>Node36</title>
<g id="a_node36"><a xlink:href="kv__module__loader_8cpp.html" target="_top" xlink:title=" ">
<polygon fill="white" stroke="#666666" points="2154,-404 2011,-404 2011,-374 2154,-374 2154,-404"/>
<text text-anchor="start" x="2019" y="-392" font-family="Helvetica,sans-Serif" font-size="10.00">src/apps/js_v8/kv_module</text>
<text text-anchor="middle" x="2082.5" y="-381" font-family="Helvetica,sans-Serif" font-size="10.00">_loader.cpp</text>
</a>
</g>
</g>
<!-- Node35&#45;&gt;Node36 -->
<g id="edge73" class="edge">
<title>Node35&#45;&gt;Node36</title>
<path fill="none" stroke="#63b8ff" d="M1885.37,-437.97C1928.2,-427.55 1983.54,-414.08 2024.67,-404.07"/>
<polygon fill="#63b8ff" stroke="#63b8ff" points="1884.49,-434.58 1875.6,-440.35 1886.14,-441.39 1884.49,-434.58"/>
</g>
<!-- Node37 -->
<g id="node37" class="node">
<title>Node37</title>
<g id="a_node37"><a xlink:href="network__state_8h.html" target="_top" xlink:title=" ">
<polygon fill="white" stroke="#666666" points="1992.5,-398.5 1852.5,-398.5 1852.5,-379.5 1992.5,-379.5 1992.5,-398.5"/>
<text text-anchor="middle" x="1922.5" y="-386.5" font-family="Helvetica,sans-Serif" font-size="10.00">src/node/network_state.h</text>
</a>
</g>
</g>
<!-- Node35&#45;&gt;Node37 -->
<g id="edge74" class="edge">
<title>Node35&#45;&gt;Node37</title>
<path fill="none" stroke="#63b8ff" d="M1850.64,-434.65C1870.04,-422.6 1894.03,-407.69 1908.79,-398.52"/>
<polygon fill="#63b8ff" stroke="#63b8ff" points="1848.75,-431.7 1842.1,-439.95 1852.44,-437.65 1848.75,-431.7"/>
</g>
<!-- Node37&#45;&gt;Node5 -->
<g id="edge75" class="edge">
<title>Node37&#45;&gt;Node5</title>
<path fill="none" stroke="#63b8ff" d="M1979.78,-377.74C1987.41,-376.44 1995.14,-375.16 2002.5,-374 2115.55,-356.13 2160.44,-398.67 2257.5,-338 2293.88,-315.26 2311.5,-300.9 2311.5,-258 2311.5,-258 2311.5,-258 2311.5,-190 2311.5,-101.64 2215.37,-130.82 2129.5,-110 2005.03,-79.82 1620.21,-69.47 1469.72,-66.52"/>
<polygon fill="#63b8ff" stroke="#63b8ff" points="1979.1,-374.31 1969.84,-379.45 1980.28,-381.2 1979.1,-374.31"/>
</g>
<!-- Node37&#45;&gt;Node7 -->
<g id="edge78" class="edge">
<title>Node37&#45;&gt;Node7</title>
<path fill="none" stroke="#63b8ff" d="M1865.45,-377.57C1796.76,-365.01 1682.7,-344.15 1619.06,-332.51"/>
<polygon fill="#63b8ff" stroke="#63b8ff" points="1865.19,-381.08 1875.66,-379.44 1866.45,-374.19 1865.19,-381.08"/>
</g>
<!-- Node37&#45;&gt;Node9 -->
<g id="edge77" class="edge">
<title>Node37&#45;&gt;Node9</title>
<path fill="none" stroke="#63b8ff" d="M1981.45,-377.64C1988.54,-376.41 1995.68,-375.17 2002.5,-374 2100.6,-357.17 2278.15,-386.14 2216.5,-308 2161.93,-238.84 1895.61,-207.66 1772.78,-196.79"/>
<polygon fill="#63b8ff" stroke="#63b8ff" points="1980.39,-374.27 1971.14,-379.43 1981.6,-381.17 1980.39,-374.27"/>
</g>
<!-- Node37&#45;&gt;Node14 -->
<g id="edge76" class="edge">
<title>Node37&#45;&gt;Node14</title>
<path fill="none" stroke="#63b8ff" d="M1842.06,-379.35C1822.28,-377.41 1801.14,-375.48 1781.5,-374 1769.79,-373.12 1037.98,-335.29 858.78,-326.03"/>
<polygon fill="#63b8ff" stroke="#63b8ff" points="1841.97,-382.86 1852.27,-380.37 1842.67,-375.9 1841.97,-382.86"/>
</g>
<!-- Node37&#45;&gt;Node33 -->
<g id="edge81" class="edge">
<title>Node37&#45;&gt;Node33</title>
<path fill="none" stroke="#63b8ff" d="M1938.27,-371.98C1950.44,-359.62 1966.81,-342.99 1976.73,-332.91"/>
<polygon fill="#63b8ff" stroke="#63b8ff" points="1935.52,-369.79 1931,-379.37 1940.51,-374.7 1935.52,-369.79"/>
</g>
<!-- Node37&#45;&gt;Node34 -->
<g id="edge82" class="edge">
<title>Node37&#45;&gt;Node34</title>
<path fill="none" stroke="#63b8ff" d="M1899.78,-374.02C1879.33,-361.43 1849.9,-343.32 1832.64,-332.7"/>
<polygon fill="#63b8ff" stroke="#63b8ff" points="1898.12,-377.11 1908.47,-379.37 1901.79,-371.15 1898.12,-377.11"/>
</g>
<!-- Node38 -->
<g id="node38" class="node">
<title>Node38</title>
<g id="a_node38"><a xlink:href="user__frontend_8h.html" target="_top" xlink:title=" ">
<polygon fill="white" stroke="#666666" points="2120,-134.5 1965,-134.5 1965,-115.5 2120,-115.5 2120,-134.5"/>
<text text-anchor="middle" x="2042.5" y="-122.5" font-family="Helvetica,sans-Serif" font-size="10.00">src/node/rpc/user_frontend.h</text>
</a>
</g>
</g>
<!-- Node37&#45;&gt;Node38 -->
<g id="edge79" class="edge">
<title>Node37&#45;&gt;Node38</title>
<path fill="none" stroke="#63b8ff" d="M1980.35,-377.73C1987.8,-376.45 1995.33,-375.18 2002.5,-374 2054.41,-365.46 2202.24,-377.93 2236.5,-338 2306.18,-256.78 2122.89,-162.83 2061.64,-134.5"/>
<polygon fill="#63b8ff" stroke="#63b8ff" points="1979.53,-374.32 1970.27,-379.47 1980.73,-381.22 1979.53,-374.32"/>
</g>
<!-- Node39 -->
<g id="node39" class="node">
<title>Node39</title>
<g id="a_node39"><a xlink:href="snapshotter_8h.html" target="_top" xlink:title=" ">
<polygon fill="white" stroke="#666666" points="2207,-332.5 2080,-332.5 2080,-313.5 2207,-313.5 2207,-332.5"/>
<text text-anchor="middle" x="2143.5" y="-320.5" font-family="Helvetica,sans-Serif" font-size="10.00">src/node/snapshotter.h</text>
</a>
</g>
</g>
<!-- Node37&#45;&gt;Node39 -->
<g id="edge83" class="edge">
<title>Node37&#45;&gt;Node39</title>
<path fill="none" stroke="#63b8ff" d="M1961.99,-376.56C2005.55,-363.95 2074.64,-343.94 2113.82,-332.6"/>
<polygon fill="#63b8ff" stroke="#63b8ff" points="1960.94,-373.23 1952.31,-379.37 1962.88,-379.95 1960.94,-373.23"/>
</g>
<!-- Node38&#45;&gt;Node5 -->
<g id="edge80" class="edge">
<title>Node38&#45;&gt;Node5</title>
<path fill="none" stroke="#63b8ff" d="M1954.41,-115.87C1823.96,-103.84 1582.72,-81.58 1469.79,-71.16"/>
<polygon fill="#63b8ff" stroke="#63b8ff" points="1954.48,-119.39 1964.76,-116.83 1955.12,-112.42 1954.48,-119.39"/>
</g>
<!-- Node39&#45;&gt;Node9 -->
<g id="edge84" class="edge">
<title>Node39&#45;&gt;Node9</title>
<path fill="none" stroke="#63b8ff" d="M2105.27,-310.52C2019.73,-284.84 1814.53,-223.23 1739.01,-200.56"/>
<polygon fill="#63b8ff" stroke="#63b8ff" points="2104.51,-313.95 2115.09,-313.47 2106.52,-307.24 2104.51,-313.95"/>
</g>
</g>
</svg>
