<?xml version="1.0" encoding="UTF-8" standalone="no"?>
<!DOCTYPE svg PUBLIC "-//W3C//DTD SVG 1.1//EN"
 "http://www.w3.org/Graphics/SVG/1.1/DTD/svg11.dtd">
<!-- Generated by graphviz version 2.43.0 (0)
 -->
<!-- Title: include/ccf/common_auth_policies.h Pages: 1 -->
<svg width="1357pt" height="401pt"
 viewBox="0.00 0.00 1356.50 401.00" xmlns="http://www.w3.org/2000/svg" xmlns:xlink="http://www.w3.org/1999/xlink">
<g id="graph0" class="graph" transform="scale(1 1) rotate(0) translate(4 397)">
<title>include/ccf/common_auth_policies.h</title>
<!-- Node1 -->
<g id="node1" class="node">
<title>Node1</title>
<g id="a_node1"><a xlink:title=" ">
<polygon fill="#999999" stroke="#666666" points="715,-393 600,-393 600,-363 715,-363 715,-393"/>
<text text-anchor="start" x="608" y="-381" font-family="Helvetica,sans-Serif" font-size="10.00">include/ccf/common</text>
<text text-anchor="middle" x="657.5" y="-370" font-family="Helvetica,sans-Serif" font-size="10.00">_auth_policies.h</text>
</a>
</g>
</g>
<!-- Node2 -->
<g id="node2" class="node">
<title>Node2</title>
<g id="a_node2"><a xlink:href="logging_8cpp.html" target="_top" xlink:title=" ">
<polygon fill="white" stroke="#666666" points="123,-327 0,-327 0,-297 123,-297 123,-327"/>
<text text-anchor="start" x="8" y="-315" font-family="Helvetica,sans-Serif" font-size="10.00">samples/apps/logging</text>
<text text-anchor="middle" x="61.5" y="-304" font-family="Helvetica,sans-Serif" font-size="10.00">/logging.cpp</text>
</a>
</g>
</g>
<!-- Node1&#45;&gt;Node2 -->
<g id="edge1" class="edge">
<title>Node1&#45;&gt;Node2</title>
<path fill="none" stroke="#63b8ff" d="M589.66,-372.79C489.2,-366.04 295.14,-351.08 131.5,-327 128.8,-326.6 126.05,-326.17 123.28,-325.71"/>
<polygon fill="#63b8ff" stroke="#63b8ff" points="589.46,-376.28 599.67,-373.45 589.92,-369.3 589.46,-376.28"/>
</g>
<!-- Node3 -->
<g id="node3" class="node">
<title>Node3</title>
<g id="a_node3"><a xlink:href="nobuiltins_8cpp.html" target="_top" xlink:title=" ">
<polygon fill="white" stroke="#666666" points="276,-327 141,-327 141,-297 276,-297 276,-327"/>
<text text-anchor="start" x="149" y="-315" font-family="Helvetica,sans-Serif" font-size="10.00">samples/apps/nobuiltins</text>
<text text-anchor="middle" x="208.5" y="-304" font-family="Helvetica,sans-Serif" font-size="10.00">/nobuiltins.cpp</text>
</a>
</g>
</g>
<!-- Node1&#45;&gt;Node3 -->
<g id="edge2" class="edge">
<title>Node1&#45;&gt;Node3</title>
<path fill="none" stroke="#63b8ff" d="M589.5,-368.82C514.81,-359.61 391.39,-343.73 285.5,-327 282.41,-326.51 279.26,-326 276.08,-325.47"/>
<polygon fill="#63b8ff" stroke="#63b8ff" points="589.35,-372.33 599.71,-370.07 590.21,-365.38 589.35,-372.33"/>
</g>
<!-- Node4 -->
<g id="node4" class="node">
<title>Node4</title>
<g id="a_node4"><a xlink:href="js__generic_2named__auth__policies_8h.html" target="_top" xlink:title=" ">
<polygon fill="white" stroke="#666666" points="426.5,-327 294.5,-327 294.5,-297 426.5,-297 426.5,-327"/>
<text text-anchor="start" x="302.5" y="-315" font-family="Helvetica,sans-Serif" font-size="10.00">src/apps/js_generic</text>
<text text-anchor="middle" x="360.5" y="-304" font-family="Helvetica,sans-Serif" font-size="10.00">/named_auth_policies.h</text>
</a>
</g>
</g>
<!-- Node1&#45;&gt;Node4 -->
<g id="edge3" class="edge">
<title>Node1&#45;&gt;Node4</title>
<path fill="none" stroke="#63b8ff" d="M589.96,-362.45C540.73,-351.84 474.39,-337.54 425.71,-327.05"/>
<polygon fill="#63b8ff" stroke="#63b8ff" points="589.37,-365.9 599.88,-364.58 590.84,-359.06 589.37,-365.9"/>
</g>
<!-- Node6 -->
<g id="node6" class="node">
<title>Node6</title>
<g id="a_node6"><a xlink:href="js__v8_2named__auth__policies_8h.html" target="_top" xlink:title=" ">
<polygon fill="white" stroke="#666666" points="566.5,-327 444.5,-327 444.5,-297 566.5,-297 566.5,-327"/>
<text text-anchor="start" x="452.5" y="-315" font-family="Helvetica,sans-Serif" font-size="10.00">src/apps/js_v8/named</text>
<text text-anchor="middle" x="505.5" y="-304" font-family="Helvetica,sans-Serif" font-size="10.00">_auth_policies.h</text>
</a>
</g>
</g>
<!-- Node1&#45;&gt;Node6 -->
<g id="edge5" class="edge">
<title>Node1&#45;&gt;Node6</title>
<path fill="none" stroke="#63b8ff" d="M614.88,-359.05C590.8,-348.91 561.14,-336.43 538.78,-327.01"/>
<polygon fill="#63b8ff" stroke="#63b8ff" points="613.57,-362.3 624.14,-362.95 616.28,-355.85 613.57,-362.3"/>
</g>
<!-- Node8 -->
<g id="node8" class="node">
<title>Node8</title>
<g id="a_node8"><a xlink:href="tpcc_8cpp.html" target="_top" xlink:title=" ">
<polygon fill="white" stroke="#666666" points="730,-321.5 585,-321.5 585,-302.5 730,-302.5 730,-321.5"/>
<text text-anchor="middle" x="657.5" y="-309.5" font-family="Helvetica,sans-Serif" font-size="10.00">src/apps/tpcc/app/tpcc.cpp</text>
</a>
</g>
</g>
<!-- Node1&#45;&gt;Node8 -->
<g id="edge7" class="edge">
<title>Node1&#45;&gt;Node8</title>
<path fill="none" stroke="#63b8ff" d="M657.5,-352.6C657.5,-341.8 657.5,-329.78 657.5,-321.84"/>
<polygon fill="#63b8ff" stroke="#63b8ff" points="654,-352.8 657.5,-362.8 661,-352.8 654,-352.8"/>
</g>
<!-- Node9 -->
<g id="node9" class="node">
<title>Node9</title>
<g id="a_node9"><a xlink:href="common__endpoint__registry_8cpp.html" target="_top" xlink:title=" ">
<polygon fill="white" stroke="#666666" points="876.5,-327 748.5,-327 748.5,-297 876.5,-297 876.5,-327"/>
<text text-anchor="start" x="756.5" y="-315" font-family="Helvetica,sans-Serif" font-size="10.00">src/endpoints/common</text>
<text text-anchor="middle" x="812.5" y="-304" font-family="Helvetica,sans-Serif" font-size="10.00">_endpoint_registry.cpp</text>
</a>
</g>
</g>
<!-- Node1&#45;&gt;Node9 -->
<g id="edge8" class="edge">
<title>Node1&#45;&gt;Node9</title>
<path fill="none" stroke="#63b8ff" d="M700.96,-359.05C725.52,-348.91 755.77,-336.43 778.56,-327.01"/>
<polygon fill="#63b8ff" stroke="#63b8ff" points="699.42,-355.9 691.52,-362.95 702.09,-362.37 699.42,-355.9"/>
</g>
<!-- Node10 -->
<g id="node10" class="node">
<title>Node10</title>
<g id="a_node10"><a xlink:href="endpoint__registry_8cpp.html" target="_top" xlink:title=" ">
<polygon fill="white" stroke="#666666" points="1022.5,-327 894.5,-327 894.5,-297 1022.5,-297 1022.5,-327"/>
<text text-anchor="start" x="902.5" y="-315" font-family="Helvetica,sans-Serif" font-size="10.00">src/endpoints/endpoint</text>
<text text-anchor="middle" x="958.5" y="-304" font-family="Helvetica,sans-Serif" font-size="10.00">_registry.cpp</text>
</a>
</g>
</g>
<!-- Node1&#45;&gt;Node10 -->
<g id="edge9" class="edge">
<title>Node1&#45;&gt;Node10</title>
<path fill="none" stroke="#63b8ff" d="M725.05,-362.64C775.65,-351.88 844.45,-337.25 894.24,-326.66"/>
<polygon fill="#63b8ff" stroke="#63b8ff" points="724.23,-359.23 715.18,-364.74 725.69,-366.08 724.23,-359.23"/>
</g>
<!-- Node11 -->
<g id="node11" class="node">
<title>Node11</title>
<g id="a_node11"><a xlink:href="member__frontend_8h.html" target="_top" xlink:title=" ">
<polygon fill="white" stroke="#666666" points="1110.5,-195 990.5,-195 990.5,-165 1110.5,-165 1110.5,-195"/>
<text text-anchor="start" x="998.5" y="-183" font-family="Helvetica,sans-Serif" font-size="10.00">src/node/rpc/member</text>
<text text-anchor="middle" x="1050.5" y="-172" font-family="Helvetica,sans-Serif" font-size="10.00">_frontend.h</text>
</a>
</g>
</g>
<!-- Node1&#45;&gt;Node11 -->
<g id="edge10" class="edge">
<title>Node1&#45;&gt;Node11</title>
<path fill="none" stroke="#63b8ff" d="M725.52,-377.44C821.55,-376.53 989.84,-368.8 1031.5,-327 1067.04,-291.33 1059.14,-224.1 1053.6,-195.01"/>
<polygon fill="#63b8ff" stroke="#63b8ff" points="725.29,-373.94 715.32,-377.51 725.34,-380.94 725.29,-373.94"/>
</g>
<!-- Node14 -->
<g id="node14" class="node">
<title>Node14</title>
<g id="a_node14"><a xlink:href="node__frontend_8h.html" target="_top" xlink:title=" ">
<polygon fill="white" stroke="#666666" points="1236.5,-321.5 1078.5,-321.5 1078.5,-302.5 1236.5,-302.5 1236.5,-321.5"/>
<text text-anchor="middle" x="1157.5" y="-309.5" font-family="Helvetica,sans-Serif" font-size="10.00">src/node/rpc/node_frontend.h</text>
</a>
</g>
</g>
<!-- Node1&#45;&gt;Node14 -->
<g id="edge13" class="edge">
<title>Node1&#45;&gt;Node14</title>
<path fill="none" stroke="#63b8ff" d="M725.24,-369.25C806.07,-359.87 945.28,-343.29 1064.5,-327 1076.79,-325.32 1089.99,-323.4 1102.46,-321.54"/>
<polygon fill="#63b8ff" stroke="#63b8ff" points="724.72,-365.79 715.19,-370.41 725.53,-372.74 724.72,-365.79"/>
</g>
<!-- Node5 -->
<g id="node5" class="node">
<title>Node5</title>
<g id="a_node5"><a xlink:href="js__generic__base_8cpp.html" target="_top" xlink:title=" ">
<polygon fill="white" stroke="#666666" points="419.5,-261 301.5,-261 301.5,-231 419.5,-231 419.5,-261"/>
<text text-anchor="start" x="309.5" y="-249" font-family="Helvetica,sans-Serif" font-size="10.00">src/apps/js_generic</text>
<text text-anchor="middle" x="360.5" y="-238" font-family="Helvetica,sans-Serif" font-size="10.00">/js_generic_base.cpp</text>
</a>
</g>
</g>
<!-- Node4&#45;&gt;Node5 -->
<g id="edge4" class="edge">
<title>Node4&#45;&gt;Node5</title>
<path fill="none" stroke="#63b8ff" d="M360.5,-286.54C360.5,-277.96 360.5,-268.61 360.5,-261.16"/>
<polygon fill="#63b8ff" stroke="#63b8ff" points="357,-286.8 360.5,-296.8 364,-286.8 357,-286.8"/>
</g>
<!-- Node7 -->
<g id="node7" class="node">
<title>Node7</title>
<g id="a_node7"><a xlink:href="js__v8__base_8cpp.html" target="_top" xlink:title=" ">
<polygon fill="white" stroke="#666666" points="562.5,-261 448.5,-261 448.5,-231 562.5,-231 562.5,-261"/>
<text text-anchor="start" x="456.5" y="-249" font-family="Helvetica,sans-Serif" font-size="10.00">src/apps/js_v8/js_v8</text>
<text text-anchor="middle" x="505.5" y="-238" font-family="Helvetica,sans-Serif" font-size="10.00">_base.cpp</text>
</a>
</g>
</g>
<!-- Node6&#45;&gt;Node7 -->
<g id="edge6" class="edge">
<title>Node6&#45;&gt;Node7</title>
<path fill="none" stroke="#63b8ff" d="M505.5,-286.54C505.5,-277.96 505.5,-268.61 505.5,-261.16"/>
<polygon fill="#63b8ff" stroke="#63b8ff" points="502,-286.8 505.5,-296.8 509,-286.8 502,-286.8"/>
</g>
<!-- Node12 -->
<g id="node12" class="node">
<title>Node12</title>
<g id="a_node12"><a xlink:href="enclave_2enclave_8h.html" target="_top" xlink:title=" ">
<polygon fill="white" stroke="#666666" points="1218.5,-74 1096.5,-74 1096.5,-55 1218.5,-55 1218.5,-74"/>
<text text-anchor="middle" x="1157.5" y="-62" font-family="Helvetica,sans-Serif" font-size="10.00">src/enclave/enclave.h</text>
</a>
</g>
</g>
<!-- Node11&#45;&gt;Node12 -->
<g id="edge11" class="edge">
<title>Node11&#45;&gt;Node12</title>
<path fill="none" stroke="#63b8ff" d="M1070.92,-157.34C1094.64,-132.18 1132.65,-91.86 1149.27,-74.23"/>
<polygon fill="#63b8ff" stroke="#63b8ff" points="1068.36,-154.95 1064.05,-164.63 1073.46,-159.75 1068.36,-154.95"/>
</g>
<!-- Node13 -->
<g id="node13" class="node">
<title>Node13</title>
<g id="a_node13"><a xlink:href="enclave_2main_8cpp.html" target="_top" xlink:title=" ">
<polygon fill="white" stroke="#666666" points="1217.5,-19 1097.5,-19 1097.5,0 1217.5,0 1217.5,-19"/>
<text text-anchor="middle" x="1157.5" y="-7" font-family="Helvetica,sans-Serif" font-size="10.00">src/enclave/main.cpp</text>
</a>
</g>
</g>
<!-- Node12&#45;&gt;Node13 -->
<g id="edge12" class="edge">
<title>Node12&#45;&gt;Node13</title>
<path fill="none" stroke="#63b8ff" d="M1157.5,-44.66C1157.5,-35.93 1157.5,-25.99 1157.5,-19.09"/>
<polygon fill="#63b8ff" stroke="#63b8ff" points="1154,-44.75 1157.5,-54.75 1161,-44.75 1154,-44.75"/>
</g>
<!-- Node14&#45;&gt;Node12 -->
<g id="edge14" class="edge">
<title>Node14&#45;&gt;Node12</title>
<path fill="none" stroke="#63b8ff" d="M1157.5,-291.97C1157.5,-242.15 1157.5,-109.29 1157.5,-74.13"/>
<polygon fill="#63b8ff" stroke="#63b8ff" points="1154,-292.26 1157.5,-302.26 1161,-292.26 1154,-292.26"/>
</g>
<!-- Node15 -->
<g id="node15" class="node">
<title>Node15</title>
<g id="a_node15"><a xlink:href="jwt__key__auto__refresh_8h.html" target="_top" xlink:title=" ">
<polygon fill="white" stroke="#666666" points="1292,-261 1167,-261 1167,-231 1292,-231 1292,-261"/>
<text text-anchor="start" x="1175" y="-249" font-family="Helvetica,sans-Serif" font-size="10.00">src/node/jwt_key_auto</text>
<text text-anchor="middle" x="1229.5" y="-238" font-family="Helvetica,sans-Serif" font-size="10.00">_refresh.h</text>
</a>
</g>
</g>
<!-- Node14&#45;&gt;Node15 -->
<g id="edge15" class="edge">
<title>Node14&#45;&gt;Node15</title>
<path fill="none" stroke="#63b8ff" d="M1174.7,-295.71C1186.52,-285.21 1202.09,-271.36 1213.62,-261.12"/>
<polygon fill="#63b8ff" stroke="#63b8ff" points="1172.36,-293.11 1167.21,-302.37 1177.01,-298.34 1172.36,-293.11"/>
</g>
<!-- Node16 -->
<g id="node16" class="node">
<title>Node16</title>
<g id="a_node16"><a xlink:href="node__state_8h.html" target="_top" xlink:title=" ">
<polygon fill="white" stroke="#666666" points="1291.5,-189.5 1167.5,-189.5 1167.5,-170.5 1291.5,-170.5 1291.5,-189.5"/>
<text text-anchor="middle" x="1229.5" y="-177.5" font-family="Helvetica,sans-Serif" font-size="10.00">src/node/node_state.h</text>
</a>
</g>
</g>
<!-- Node15&#45;&gt;Node16 -->
<g id="edge16" class="edge">
<title>Node15&#45;&gt;Node16</title>
<path fill="none" stroke="#63b8ff" d="M1229.5,-220.6C1229.5,-209.8 1229.5,-197.78 1229.5,-189.84"/>
<polygon fill="#63b8ff" stroke="#63b8ff" points="1226,-220.8 1229.5,-230.8 1233,-220.8 1226,-220.8"/>
</g>
<!-- Node16&#45;&gt;Node12 -->
<g id="edge17" class="edge">
<title>Node16&#45;&gt;Node12</title>
<path fill="none" stroke="#63b8ff" d="M1217.58,-161.99C1210.94,-152.4 1202.61,-140.13 1195.5,-129 1183.19,-109.72 1169.63,-86.55 1162.51,-74.22"/>
<polygon fill="#63b8ff" stroke="#63b8ff" points="1214.74,-164.04 1223.32,-170.25 1220.48,-160.04 1214.74,-164.04"/>
</g>
<!-- Node17 -->
<g id="node17" class="node">
<title>Node17</title>
<g id="a_node17"><a xlink:href="gov__effects_8h.html" target="_top" xlink:title=" ">
<polygon fill="white" stroke="#666666" points="1348.5,-129 1204.5,-129 1204.5,-110 1348.5,-110 1348.5,-129"/>
<text text-anchor="middle" x="1276.5" y="-117" font-family="Helvetica,sans-Serif" font-size="10.00">src/node/rpc/gov_effects.h</text>
</a>
</g>
</g>
<!-- Node16&#45;&gt;Node17 -->
<g id="edge18" class="edge">
<title>Node16&#45;&gt;Node17</title>
<path fill="none" stroke="#63b8ff" d="M1242.8,-162.45C1251.5,-151.62 1262.51,-137.91 1269.54,-129.17"/>
<polygon fill="#63b8ff" stroke="#63b8ff" points="1239.97,-160.38 1236.44,-170.37 1245.43,-164.76 1239.97,-160.38"/>
</g>
<!-- Node17&#45;&gt;Node12 -->
<g id="edge19" class="edge">
<title>Node17&#45;&gt;Node12</title>
<path fill="none" stroke="#63b8ff" d="M1248.2,-105.9C1226.22,-96.11 1196.32,-82.79 1176.97,-74.17"/>
<polygon fill="#63b8ff" stroke="#63b8ff" points="1246.82,-109.11 1257.38,-109.98 1249.67,-102.72 1246.82,-109.11"/>
</g>
</g>
</svg>
