<?xml version="1.0" encoding="UTF-8" standalone="no"?>
<!DOCTYPE svg PUBLIC "-//W3C//DTD SVG 1.1//EN"
 "http://www.w3.org/Graphics/SVG/1.1/DTD/svg11.dtd">
<!-- Generated by graphviz version 2.43.0 (0)
 -->
<!-- Title: src/service/tables/config.h Pages: 1 -->
<svg width="601pt" height="324pt"
 viewBox="0.00 0.00 601.00 324.00" xmlns="http://www.w3.org/2000/svg" xmlns:xlink="http://www.w3.org/1999/xlink">
<g id="graph0" class="graph" transform="scale(1 1) rotate(0) translate(4 320)">
<title>src/service/tables/config.h</title>
<!-- Node1 -->
<g id="node1" class="node">
<title>Node1</title>
<g id="a_node1"><a xlink:title=" ">
<polygon fill="#999999" stroke="#666666" points="422.5,-316 320.5,-316 320.5,-286 422.5,-286 422.5,-316"/>
<text text-anchor="start" x="328.5" y="-304" font-family="Helvetica,sans-Serif" font-size="10.00">src/service/tables</text>
<text text-anchor="middle" x="371.5" y="-293" font-family="Helvetica,sans-Serif" font-size="10.00">/config.h</text>
</a>
</g>
</g>
<!-- Node2 -->
<g id="node2" class="node">
<title>Node2</title>
<g id="a_node2"><a xlink:href="json_8h.html" target="_top" xlink:title=" ">
<polygon fill="white" stroke="#666666" points="410,-184 333,-184 333,-165 410,-165 410,-184"/>
<text text-anchor="middle" x="371.5" y="-172" font-family="Helvetica,sans-Serif" font-size="10.00">ccf/ds/json.h</text>
</a>
</g>
</g>
<!-- Node1&#45;&gt;Node2 -->
<g id="edge1" class="edge">
<title>Node1&#45;&gt;Node2</title>
<path fill="none" stroke="#63b8ff" d="M331.53,-285.79C315.48,-277.89 298.64,-266.28 289.5,-250 282.97,-238.37 282.68,-231.46 289.5,-220 298.42,-205.02 314.34,-194.76 329.79,-187.91"/>
<polygon fill="#63b8ff" stroke="#63b8ff" points="331.33,-191.07 339.29,-184.08 328.7,-184.58 331.33,-191.07"/>
</g>
<!-- Node16 -->
<g id="node16" class="node">
<title>Node16</title>
<g id="a_node16"><a xlink:href="consensus__type_8h.html" target="_top" xlink:title=" ">
<polygon fill="white" stroke="#666666" points="444,-244.5 299,-244.5 299,-225.5 444,-225.5 444,-244.5"/>
<text text-anchor="middle" x="371.5" y="-232.5" font-family="Helvetica,sans-Serif" font-size="10.00">enclave/consensus_type.h</text>
</a>
</g>
</g>
<!-- Node1&#45;&gt;Node16 -->
<g id="edge18" class="edge">
<title>Node1&#45;&gt;Node16</title>
<path fill="none" stroke="#63b8ff" d="M371.5,-285.8C371.5,-276.7 371.5,-264.79 371.5,-254.9"/>
<polygon fill="#63b8ff" stroke="#63b8ff" points="375,-254.84 371.5,-244.84 368,-254.84 375,-254.84"/>
</g>
<!-- Node17 -->
<g id="node17" class="node">
<title>Node17</title>
<g id="a_node17"><a xlink:href="reconfiguration__type_8h.html" target="_top" xlink:title=" ">
<polygon fill="white" stroke="#666666" points="593,-250 462,-250 462,-220 593,-220 593,-250"/>
<text text-anchor="start" x="470" y="-238" font-family="Helvetica,sans-Serif" font-size="10.00">enclave/reconfiguration</text>
<text text-anchor="middle" x="527.5" y="-227" font-family="Helvetica,sans-Serif" font-size="10.00">_type.h</text>
</a>
</g>
</g>
<!-- Node1&#45;&gt;Node17 -->
<g id="edge20" class="edge">
<title>Node1&#45;&gt;Node17</title>
<path fill="none" stroke="#63b8ff" d="M405.73,-285.95C428.7,-276.53 459.14,-264.04 483.84,-253.91"/>
<polygon fill="#63b8ff" stroke="#63b8ff" points="485.42,-257.05 493.34,-250.01 482.76,-250.57 485.42,-257.05"/>
</g>
<!-- Node3 -->
<g id="node3" class="node">
<title>Node3</title>
<g id="a_node3"><a xlink:href="include_2ccf_2crypto_2base64_8h.html" target="_top" xlink:title=" ">
<polygon fill="white" stroke="#666666" points="143.5,-74 31.5,-74 31.5,-55 143.5,-55 143.5,-74"/>
<text text-anchor="middle" x="87.5" y="-62" font-family="Helvetica,sans-Serif" font-size="10.00">ccf/crypto/base64.h</text>
</a>
</g>
</g>
<!-- Node2&#45;&gt;Node3 -->
<g id="edge2" class="edge">
<title>Node2&#45;&gt;Node3</title>
<path fill="none" stroke="#63b8ff" d="M348.74,-164.84C298.35,-145.68 177.25,-99.63 119.36,-77.62"/>
<polygon fill="#63b8ff" stroke="#63b8ff" points="120.57,-74.33 109.98,-74.05 118.08,-80.87 120.57,-74.33"/>
</g>
<!-- Node6 -->
<g id="node6" class="node">
<title>Node6</title>
<g id="a_node6"><a xlink:href="include_2ccf_2ds_2json__schema_8h.html" target="_top" xlink:title=" ">
<polygon fill="white" stroke="#666666" points="388,-129 267,-129 267,-110 388,-110 388,-129"/>
<text text-anchor="middle" x="327.5" y="-117" font-family="Helvetica,sans-Serif" font-size="10.00">ccf/ds/json_schema.h</text>
</a>
</g>
</g>
<!-- Node2&#45;&gt;Node6 -->
<g id="edge5" class="edge">
<title>Node2&#45;&gt;Node6</title>
<path fill="none" stroke="#63b8ff" d="M364.23,-164.75C357.96,-157.18 348.71,-146.05 341.07,-136.84"/>
<polygon fill="#63b8ff" stroke="#63b8ff" points="343.71,-134.55 334.63,-129.09 338.33,-139.02 343.71,-134.55"/>
</g>
<!-- Node13 -->
<g id="node13" class="node">
<title>Node13</title>
<g id="a_node13"><a xlink:title=" ">
<polygon fill="#e0e0e0" stroke="#999999" points="480,-74 401,-74 401,-55 480,-55 480,-74"/>
<text text-anchor="middle" x="440.5" y="-62" font-family="Helvetica,sans-Serif" font-size="10.00">fmt/format.h</text>
</a>
</g>
</g>
<!-- Node2&#45;&gt;Node13 -->
<g id="edge16" class="edge">
<title>Node2&#45;&gt;Node13</title>
<path fill="none" stroke="#63b8ff" d="M377.15,-164.66C388.58,-146.77 414.62,-106 429.52,-82.69"/>
<polygon fill="#63b8ff" stroke="#63b8ff" points="432.53,-84.47 434.97,-74.16 426.63,-80.7 432.53,-84.47"/>
</g>
<!-- Node15 -->
<g id="node15" class="node">
<title>Node15</title>
<g id="a_node15"><a xlink:title=" ">
<polygon fill="#e0e0e0" stroke="#999999" points="500.5,-129 444.5,-129 444.5,-110 500.5,-110 500.5,-129"/>
<text text-anchor="middle" x="472.5" y="-117" font-family="Helvetica,sans-Serif" font-size="10.00">sstream</text>
</a>
</g>
</g>
<!-- Node2&#45;&gt;Node15 -->
<g id="edge17" class="edge">
<title>Node2&#45;&gt;Node15</title>
<path fill="none" stroke="#63b8ff" d="M387.73,-164.98C403.68,-156.61 428.28,-143.7 446.88,-133.95"/>
<polygon fill="#63b8ff" stroke="#63b8ff" points="448.75,-136.92 455.98,-129.17 445.5,-130.72 448.75,-136.92"/>
</g>
<!-- Node4 -->
<g id="node4" class="node">
<title>Node4</title>
<g id="a_node4"><a xlink:title=" ">
<polygon fill="#e0e0e0" stroke="#999999" points="109.5,-19 65.5,-19 65.5,0 109.5,0 109.5,-19"/>
<text text-anchor="middle" x="87.5" y="-7" font-family="Helvetica,sans-Serif" font-size="10.00">string</text>
</a>
</g>
</g>
<!-- Node3&#45;&gt;Node4 -->
<g id="edge3" class="edge">
<title>Node3&#45;&gt;Node4</title>
<path fill="none" stroke="#63b8ff" d="M87.5,-54.75C87.5,-47.8 87.5,-37.85 87.5,-29.13"/>
<polygon fill="#63b8ff" stroke="#63b8ff" points="91,-29.09 87.5,-19.09 84,-29.09 91,-29.09"/>
</g>
<!-- Node5 -->
<g id="node5" class="node">
<title>Node5</title>
<g id="a_node5"><a xlink:title=" ">
<polygon fill="#e0e0e0" stroke="#999999" points="47,-19 0,-19 0,0 47,0 47,-19"/>
<text text-anchor="middle" x="23.5" y="-7" font-family="Helvetica,sans-Serif" font-size="10.00">vector</text>
</a>
</g>
</g>
<!-- Node3&#45;&gt;Node5 -->
<g id="edge4" class="edge">
<title>Node3&#45;&gt;Node5</title>
<path fill="none" stroke="#63b8ff" d="M77.22,-54.98C67.66,-47.07 53.22,-35.11 41.72,-25.58"/>
<polygon fill="#63b8ff" stroke="#63b8ff" points="43.9,-22.85 33.97,-19.17 39.44,-28.24 43.9,-22.85"/>
</g>
<!-- Node7 -->
<g id="node7" class="node">
<title>Node7</title>
<g id="a_node7"><a xlink:href="nonstd_8h.html" target="_top" xlink:title=" ">
<polygon fill="white" stroke="#666666" points="254.5,-74 164.5,-74 164.5,-55 254.5,-55 254.5,-74"/>
<text text-anchor="middle" x="209.5" y="-62" font-family="Helvetica,sans-Serif" font-size="10.00">ccf/ds/nonstd.h</text>
</a>
</g>
</g>
<!-- Node6&#45;&gt;Node7 -->
<g id="edge6" class="edge">
<title>Node6&#45;&gt;Node7</title>
<path fill="none" stroke="#63b8ff" d="M308.54,-109.98C289.47,-101.42 259.84,-88.11 237.95,-78.28"/>
<polygon fill="#63b8ff" stroke="#63b8ff" points="239.36,-75.07 228.8,-74.17 236.49,-81.46 239.36,-75.07"/>
</g>
<!-- Node6&#45;&gt;Node13 -->
<g id="edge14" class="edge">
<title>Node6&#45;&gt;Node13</title>
<path fill="none" stroke="#63b8ff" d="M345.66,-109.98C363.75,-101.5 391.78,-88.35 412.69,-78.54"/>
<polygon fill="#63b8ff" stroke="#63b8ff" points="414.45,-81.59 422.01,-74.17 411.47,-75.25 414.45,-81.59"/>
</g>
<!-- Node14 -->
<g id="node14" class="node">
<title>Node14</title>
<g id="a_node14"><a xlink:title=" ">
<polygon fill="#e0e0e0" stroke="#999999" points="382.5,-74 272.5,-74 272.5,-55 382.5,-55 382.5,-74"/>
<text text-anchor="middle" x="327.5" y="-62" font-family="Helvetica,sans-Serif" font-size="10.00">nlohmann/json.hpp</text>
</a>
</g>
</g>
<!-- Node6&#45;&gt;Node14 -->
<g id="edge15" class="edge">
<title>Node6&#45;&gt;Node14</title>
<path fill="none" stroke="#63b8ff" d="M327.5,-109.75C327.5,-102.8 327.5,-92.85 327.5,-84.13"/>
<polygon fill="#63b8ff" stroke="#63b8ff" points="331,-84.09 327.5,-74.09 324,-84.09 331,-84.09"/>
</g>
<!-- Node7&#45;&gt;Node4 -->
<g id="edge10" class="edge">
<title>Node7&#45;&gt;Node4</title>
<path fill="none" stroke="#63b8ff" d="M189.9,-54.98C170.18,-46.42 139.55,-33.11 116.92,-23.28"/>
<polygon fill="#63b8ff" stroke="#63b8ff" points="118.02,-19.94 107.46,-19.17 115.24,-26.37 118.02,-19.94"/>
</g>
<!-- Node7&#45;&gt;Node5 -->
<g id="edge13" class="edge">
<title>Node7&#45;&gt;Node5</title>
<path fill="none" stroke="#63b8ff" d="M179.62,-54.98C146.06,-45.42 91.75,-29.95 56.85,-20"/>
<polygon fill="#63b8ff" stroke="#63b8ff" points="57.69,-16.6 47.11,-17.23 55.77,-23.34 57.69,-16.6"/>
</g>
<!-- Node8 -->
<g id="node8" class="node">
<title>Node8</title>
<g id="a_node8"><a xlink:title=" ">
<polygon fill="#e0e0e0" stroke="#999999" points="497.5,-19 433.5,-19 433.5,0 497.5,0 497.5,-19"/>
<text text-anchor="middle" x="465.5" y="-7" font-family="Helvetica,sans-Serif" font-size="10.00">algorithm</text>
</a>
</g>
</g>
<!-- Node7&#45;&gt;Node8 -->
<g id="edge7" class="edge">
<title>Node7&#45;&gt;Node8</title>
<path fill="none" stroke="#63b8ff" d="M250.63,-54.98C298.03,-45.17 375.53,-29.13 423.36,-19.22"/>
<polygon fill="#63b8ff" stroke="#63b8ff" points="424.3,-22.6 433.39,-17.15 422.88,-15.75 424.3,-22.6"/>
</g>
<!-- Node9 -->
<g id="node9" class="node">
<title>Node9</title>
<g id="a_node9"><a xlink:title=" ">
<polygon fill="#e0e0e0" stroke="#999999" points="169.5,-19 127.5,-19 127.5,0 169.5,0 169.5,-19"/>
<text text-anchor="middle" x="148.5" y="-7" font-family="Helvetica,sans-Serif" font-size="10.00">array</text>
</a>
</g>
</g>
<!-- Node7&#45;&gt;Node9 -->
<g id="edge8" class="edge">
<title>Node7&#45;&gt;Node9</title>
<path fill="none" stroke="#63b8ff" d="M199.7,-54.98C190.68,-47.15 177.09,-35.34 166.18,-25.86"/>
<polygon fill="#63b8ff" stroke="#63b8ff" points="168.32,-23.09 158.48,-19.17 163.73,-28.37 168.32,-23.09"/>
</g>
<!-- Node10 -->
<g id="node10" class="node">
<title>Node10</title>
<g id="a_node10"><a xlink:title=" ">
<polygon fill="#e0e0e0" stroke="#999999" points="237,-19 188,-19 188,0 237,0 237,-19"/>
<text text-anchor="middle" x="212.5" y="-7" font-family="Helvetica,sans-Serif" font-size="10.00">cctype</text>
</a>
</g>
</g>
<!-- Node7&#45;&gt;Node10 -->
<g id="edge9" class="edge">
<title>Node7&#45;&gt;Node10</title>
<path fill="none" stroke="#63b8ff" d="M210,-54.75C210.39,-47.8 210.95,-37.85 211.45,-29.13"/>
<polygon fill="#63b8ff" stroke="#63b8ff" points="214.94,-29.27 212.01,-19.09 207.95,-28.88 214.94,-29.27"/>
</g>
<!-- Node11 -->
<g id="node11" class="node">
<title>Node11</title>
<g id="a_node11"><a xlink:title=" ">
<polygon fill="#e0e0e0" stroke="#999999" points="328,-19 255,-19 255,0 328,0 328,-19"/>
<text text-anchor="middle" x="291.5" y="-7" font-family="Helvetica,sans-Serif" font-size="10.00">string_view</text>
</a>
</g>
</g>
<!-- Node7&#45;&gt;Node11 -->
<g id="edge11" class="edge">
<title>Node7&#45;&gt;Node11</title>
<path fill="none" stroke="#63b8ff" d="M222.67,-54.98C235.27,-46.84 254.5,-34.41 269.44,-24.76"/>
<polygon fill="#63b8ff" stroke="#63b8ff" points="271.59,-27.54 278.09,-19.17 267.79,-21.66 271.59,-27.54"/>
</g>
<!-- Node12 -->
<g id="node12" class="node">
<title>Node12</title>
<g id="a_node12"><a xlink:title=" ">
<polygon fill="#e0e0e0" stroke="#999999" points="415,-19 346,-19 346,0 415,0 415,-19"/>
<text text-anchor="middle" x="380.5" y="-7" font-family="Helvetica,sans-Serif" font-size="10.00">type_traits</text>
</a>
</g>
</g>
<!-- Node7&#45;&gt;Node12 -->
<g id="edge12" class="edge">
<title>Node7&#45;&gt;Node12</title>
<path fill="none" stroke="#63b8ff" d="M236.97,-54.98C265.68,-46.09 310.92,-32.07 342.92,-22.15"/>
<polygon fill="#63b8ff" stroke="#63b8ff" points="344.3,-25.39 352.81,-19.08 342.22,-18.7 344.3,-25.39"/>
</g>
<!-- Node16&#45;&gt;Node2 -->
<g id="edge19" class="edge">
<title>Node16&#45;&gt;Node2</title>
<path fill="none" stroke="#63b8ff" d="M371.5,-225.37C371.5,-217.25 371.5,-204.81 371.5,-194.39"/>
<polygon fill="#63b8ff" stroke="#63b8ff" points="375,-194.17 371.5,-184.17 368,-194.17 375,-194.17"/>
</g>
<!-- Node17&#45;&gt;Node2 -->
<g id="edge21" class="edge">
<title>Node17&#45;&gt;Node2</title>
<path fill="none" stroke="#63b8ff" d="M490.13,-219.99C463.87,-210.14 429.09,-197.1 403.98,-187.68"/>
<polygon fill="#63b8ff" stroke="#63b8ff" points="405.13,-184.37 394.54,-184.14 402.67,-190.93 405.13,-184.37"/>
</g>
</g>
</svg>
