<?xml version="1.0" encoding="UTF-8" standalone="no"?>
<!DOCTYPE svg PUBLIC "-//W3C//DTD SVG 1.1//EN"
 "http://www.w3.org/Graphics/SVG/1.1/DTD/svg11.dtd">
<!-- Generated by graphviz version 2.43.0 (0)
 -->
<!-- Title: src/crypto/csr.h Pages: 1 -->
<!--zoomable 368 -->
<svg id="main" version="1.1" xmlns="http://www.w3.org/2000/svg" xmlns:xlink="http://www.w3.org/1999/xlink" xml:space="preserve" onload="init(evt)">
<style type="text/css"><![CDATA[
.edge:hover path { stroke: red; }
.edge:hover polygon { stroke: red; fill: red; }
]]></style>
<script type="text/javascript"><![CDATA[
var edges = document.getElementsByTagName('g');
if (edges && edges.length) {
  for (var i=0;i<edges.length;i++) {
    if (edges[i].id.substr(0,4)=='edge') {
      edges[i].setAttribute('class','edge');
    }
  }
}
]]></script>
        <defs>
                <circle id="rim" cx="0" cy="0" r="7"/>
                <circle id="rim2" cx="0" cy="0" r="3.5"/>
                <g id="zoomPlus">
                        <use xlink:href="#rim" fill="#404040">
                                <set attributeName="fill" to="#808080" begin="zoomplus.mouseover" end="zoomplus.mouseout"/>
                        </use>
                        <path d="M-4,0h8M0,-4v8" fill="none" stroke="white" stroke-width="1.5" pointer-events="none"/>
                </g>
                <g id="zoomMin">
                        <use xlink:href="#rim" fill="#404040">
                                <set attributeName="fill" to="#808080" begin="zoomminus.mouseover" end="zoomminus.mouseout"/>
                        </use>
                        <path d="M-4,0h8" fill="none" stroke="white" stroke-width="1.5" pointer-events="none"/>
                </g>
                <g id="dirArrow">
                        <path fill="none" stroke="white" stroke-width="1.5" d="M0,-3.0v7 M-2.5,-0.5L0,-3.0L2.5,-0.5"/>
                </g>
               <g id="resetDef">
                       <use xlink:href="#rim2" fill="#404040">
                               <set attributeName="fill" to="#808080" begin="reset.mouseover" end="reset.mouseout"/>
                       </use>
               </g>
        </defs>

<script type="text/javascript">
var viewWidth = 1312;
var viewHeight = 368;
var sectionId = 'dynsection-0';
</script>
<script xlink:href="svgpan.js"/>
<svg id="graph" class="graph">
<g id="viewport">
<title>src/crypto/csr.h</title>
<!-- Node1 -->
<g id="node1" class="node">
<title>Node1</title>
<g id="a_node1"><a xlink:title=" ">
<polygon fill="#999999" stroke="#666666" points="725,-360 635,-360 635,-341 725,-341 725,-360"/>
<text text-anchor="middle" x="680" y="-348" font-family="Helvetica,sans-Serif" font-size="10.00">src/crypto/csr.h</text>
</a>
</g>
</g>
<!-- Node2 -->
<g id="node2" class="node">
<title>Node2</title>
<g id="a_node2"><a xlink:href="pem_8h.html" target="_top" xlink:title=" ">
<polygon fill="white" stroke="#666666" points="100,-239 2,-239 2,-220 100,-220 100,-239"/>
<text text-anchor="middle" x="51" y="-227" font-family="Helvetica,sans-Serif" font-size="10.00">ccf/crypto/pem.h</text>
</a>
</g>
</g>
<!-- Node1&#45;&gt;Node2 -->
<g id="edge1" class="edge">
<title>Node1&#45;&gt;Node2</title>
<path fill="none" stroke="#63b8ff" d="M635.02,-340.99C522.48,-319.7 228.99,-264.17 106.24,-240.95"/>
<polygon fill="#63b8ff" stroke="#63b8ff" points="106.77,-237.49 96.3,-239.07 105.47,-244.37 106.77,-237.49"/>
</g>
<!-- Node21 -->
<g id="node21" class="node">
<title>Node21</title>
<g id="a_node21"><a xlink:href="openssl__wrappers_8h.html" target="_top" xlink:title=" ">
<polygon fill="white" stroke="#666666" points="744,-305 616,-305 616,-275 744,-275 744,-305"/>
<text text-anchor="start" x="624" y="-293" font-family="Helvetica,sans-Serif" font-size="10.00">crypto/openssl/openssl</text>
<text text-anchor="middle" x="680" y="-282" font-family="Helvetica,sans-Serif" font-size="10.00">_wrappers.h</text>
</a>
</g>
</g>
<!-- Node1&#45;&gt;Node21 -->
<g id="edge25" class="edge">
<title>Node1&#45;&gt;Node21</title>
<path fill="none" stroke="#63b8ff" d="M680,-340.87C680,-334.11 680,-324.35 680,-315.26"/>
<polygon fill="#63b8ff" stroke="#63b8ff" points="683.5,-315.11 680,-305.11 676.5,-315.11 683.5,-315.11"/>
</g>
<!-- Node36 -->
<g id="node36" class="node">
<title>Node36</title>
<g id="a_node36"><a xlink:title=" ">
<polygon fill="#e0e0e0" stroke="#999999" points="843.5,-299.5 762.5,-299.5 762.5,-280.5 843.5,-280.5 843.5,-299.5"/>
<text text-anchor="middle" x="803" y="-287.5" font-family="Helvetica,sans-Serif" font-size="10.00">openssl/bio.h</text>
</a>
</g>
</g>
<!-- Node1&#45;&gt;Node36 -->
<g id="edge47" class="edge">
<title>Node1&#45;&gt;Node36</title>
<path fill="none" stroke="#63b8ff" d="M697.89,-340.99C718.38,-331.25 752.19,-315.16 775.92,-303.88"/>
<polygon fill="#63b8ff" stroke="#63b8ff" points="777.57,-306.97 785.09,-299.52 774.56,-300.65 777.57,-306.97"/>
</g>
<!-- Node3 -->
<g id="node3" class="node">
<title>Node3</title>
<g id="a_node3"><a xlink:href="json_8h.html" target="_top" xlink:title=" ">
<polygon fill="white" stroke="#666666" points="747.5,-184 670.5,-184 670.5,-165 747.5,-165 747.5,-184"/>
<text text-anchor="middle" x="709" y="-172" font-family="Helvetica,sans-Serif" font-size="10.00">ccf/ds/json.h</text>
</a>
</g>
</g>
<!-- Node2&#45;&gt;Node3 -->
<g id="edge2" class="edge">
<title>Node2&#45;&gt;Node3</title>
<path fill="none" stroke="#63b8ff" d="M100.01,-221.04C103.05,-220.66 106.07,-220.31 109,-220 348.18,-194.54 409.76,-208.89 649,-184 652.67,-183.62 656.46,-183.18 660.27,-182.71"/>
<polygon fill="#63b8ff" stroke="#63b8ff" points="660.85,-186.17 670.32,-181.41 659.95,-179.22 660.85,-186.17"/>
</g>
<!-- Node6 -->
<g id="node6" class="node">
<title>Node6</title>
<g id="a_node6"><a xlink:title=" ">
<polygon fill="#e0e0e0" stroke="#999999" points="587.5,-19 540.5,-19 540.5,0 587.5,0 587.5,-19"/>
<text text-anchor="middle" x="564" y="-7" font-family="Helvetica,sans-Serif" font-size="10.00">vector</text>
</a>
</g>
</g>
<!-- Node2&#45;&gt;Node6 -->
<g id="edge24" class="edge">
<title>Node2&#45;&gt;Node6</title>
<path fill="none" stroke="#63b8ff" d="M100.04,-220.08C214.08,-199.5 492.07,-143.21 553,-74 563.63,-61.93 565.79,-43.39 565.64,-29.46"/>
<polygon fill="#63b8ff" stroke="#63b8ff" points="569.12,-28.88 565.11,-19.08 562.12,-29.24 569.12,-28.88"/>
</g>
<!-- Node12 -->
<g id="node12" class="node">
<title>Node12</title>
<g id="a_node12"><a xlink:title=" ">
<polygon fill="#e0e0e0" stroke="#999999" points="135.5,-19 62.5,-19 62.5,0 135.5,0 135.5,-19"/>
<text text-anchor="middle" x="99" y="-7" font-family="Helvetica,sans-Serif" font-size="10.00">string_view</text>
</a>
</g>
</g>
<!-- Node2&#45;&gt;Node12 -->
<g id="edge23" class="edge">
<title>Node2&#45;&gt;Node12</title>
<path fill="none" stroke="#63b8ff" d="M52.88,-219.95C59.94,-187.88 84.97,-74.2 94.9,-29.12"/>
<polygon fill="#63b8ff" stroke="#63b8ff" points="98.35,-29.74 97.08,-19.22 91.51,-28.24 98.35,-29.74"/>
</g>
<!-- Node17 -->
<g id="node17" class="node">
<title>Node17</title>
<g id="a_node17"><a xlink:title=" ">
<polygon fill="#e0e0e0" stroke="#999999" points="50,-184 0,-184 0,-165 50,-165 50,-184"/>
<text text-anchor="middle" x="25" y="-172" font-family="Helvetica,sans-Serif" font-size="10.00">cstring</text>
</a>
</g>
</g>
<!-- Node2&#45;&gt;Node17 -->
<g id="edge19" class="edge">
<title>Node2&#45;&gt;Node17</title>
<path fill="none" stroke="#63b8ff" d="M46.71,-219.75C43.19,-212.57 38.09,-202.18 33.72,-193.27"/>
<polygon fill="#63b8ff" stroke="#63b8ff" points="36.76,-191.53 29.21,-184.09 30.48,-194.61 36.76,-191.53"/>
</g>
<!-- Node18 -->
<g id="node18" class="node">
<title>Node18</title>
<g id="a_node18"><a xlink:title=" ">
<polygon fill="#e0e0e0" stroke="#999999" points="171.5,-184 106.5,-184 106.5,-165 171.5,-165 171.5,-184"/>
<text text-anchor="middle" x="139" y="-172" font-family="Helvetica,sans-Serif" font-size="10.00">exception</text>
</a>
</g>
</g>
<!-- Node2&#45;&gt;Node18 -->
<g id="edge20" class="edge">
<title>Node2&#45;&gt;Node18</title>
<path fill="none" stroke="#63b8ff" d="M65.14,-219.98C78.79,-211.77 99.69,-199.18 115.78,-189.49"/>
<polygon fill="#63b8ff" stroke="#63b8ff" points="117.84,-192.33 124.6,-184.17 114.23,-186.33 117.84,-192.33"/>
</g>
<!-- Node19 -->
<g id="node19" class="node">
<title>Node19</title>
<g id="a_node19"><a xlink:title=" ">
<polygon fill="#e0e0e0" stroke="#999999" points="886,-184 828,-184 828,-165 886,-165 886,-184"/>
<text text-anchor="middle" x="857" y="-172" font-family="Helvetica,sans-Serif" font-size="10.00">memory</text>
</a>
</g>
</g>
<!-- Node2&#45;&gt;Node19 -->
<g id="edge21" class="edge">
<title>Node2&#45;&gt;Node19</title>
<path fill="none" stroke="#63b8ff" d="M100.01,-221C103.05,-220.63 106.06,-220.3 109,-220 395.99,-191.06 469.27,-204.22 757,-184 777,-182.59 799.22,-180.74 817.63,-179.11"/>
<polygon fill="#63b8ff" stroke="#63b8ff" points="818.05,-182.59 827.7,-178.22 817.43,-175.62 818.05,-182.59"/>
</g>
<!-- Node20 -->
<g id="node20" class="node">
<title>Node20</title>
<g id="a_node20"><a xlink:title=" ">
<polygon fill="#e0e0e0" stroke="#999999" points="640,-184 600,-184 600,-165 640,-165 640,-184"/>
<text text-anchor="middle" x="620" y="-172" font-family="Helvetica,sans-Serif" font-size="10.00">span</text>
</a>
</g>
</g>
<!-- Node2&#45;&gt;Node20 -->
<g id="edge22" class="edge">
<title>Node2&#45;&gt;Node20</title>
<path fill="none" stroke="#63b8ff" d="M100.02,-221.07C103.05,-220.69 106.07,-220.33 109,-220 320.31,-196.57 376.12,-217.9 586,-184 587.28,-183.79 588.59,-183.56 589.91,-183.31"/>
<polygon fill="#63b8ff" stroke="#63b8ff" points="590.96,-186.66 599.98,-181.1 589.46,-179.82 590.96,-186.66"/>
</g>
<!-- Node4 -->
<g id="node4" class="node">
<title>Node4</title>
<g id="a_node4"><a xlink:href="include_2ccf_2crypto_2base64_8h.html" target="_top" xlink:title=" ">
<polygon fill="white" stroke="#666666" points="544,-74 432,-74 432,-55 544,-55 544,-74"/>
<text text-anchor="middle" x="488" y="-62" font-family="Helvetica,sans-Serif" font-size="10.00">ccf/crypto/base64.h</text>
</a>
</g>
</g>
<!-- Node3&#45;&gt;Node4 -->
<g id="edge3" class="edge">
<title>Node3&#45;&gt;Node4</title>
<path fill="none" stroke="#63b8ff" d="M691.29,-164.84C652.56,-145.92 560.17,-100.77 514.49,-78.45"/>
<polygon fill="#63b8ff" stroke="#63b8ff" points="516.01,-75.29 505.49,-74.05 512.94,-81.58 516.01,-75.29"/>
</g>
<!-- Node7 -->
<g id="node7" class="node">
<title>Node7</title>
<g id="a_node7"><a xlink:href="include_2ccf_2ds_2json__schema_8h.html" target="_top" xlink:title=" ">
<polygon fill="white" stroke="#666666" points="769.5,-129 648.5,-129 648.5,-110 769.5,-110 769.5,-129"/>
<text text-anchor="middle" x="709" y="-117" font-family="Helvetica,sans-Serif" font-size="10.00">ccf/ds/json_schema.h</text>
</a>
</g>
</g>
<!-- Node3&#45;&gt;Node7 -->
<g id="edge6" class="edge">
<title>Node3&#45;&gt;Node7</title>
<path fill="none" stroke="#63b8ff" d="M709,-164.75C709,-157.8 709,-147.85 709,-139.13"/>
<polygon fill="#63b8ff" stroke="#63b8ff" points="712.5,-139.09 709,-129.09 705.5,-139.09 712.5,-139.09"/>
</g>
<!-- Node14 -->
<g id="node14" class="node">
<title>Node14</title>
<g id="a_node14"><a xlink:title=" ">
<polygon fill="#e0e0e0" stroke="#999999" points="870.5,-74 791.5,-74 791.5,-55 870.5,-55 870.5,-74"/>
<text text-anchor="middle" x="831" y="-62" font-family="Helvetica,sans-Serif" font-size="10.00">fmt/format.h</text>
</a>
</g>
</g>
<!-- Node3&#45;&gt;Node14 -->
<g id="edge17" class="edge">
<title>Node3&#45;&gt;Node14</title>
<path fill="none" stroke="#63b8ff" d="M725.58,-164.94C740.45,-156.83 762.41,-143.71 779,-129 794.77,-115.02 809.67,-96 819.44,-82.43"/>
<polygon fill="#63b8ff" stroke="#63b8ff" points="822.46,-84.23 825.34,-74.04 816.73,-80.21 822.46,-84.23"/>
</g>
<!-- Node16 -->
<g id="node16" class="node">
<title>Node16</title>
<g id="a_node16"><a xlink:title=" ">
<polygon fill="#e0e0e0" stroke="#999999" points="923,-129 867,-129 867,-110 923,-110 923,-129"/>
<text text-anchor="middle" x="895" y="-117" font-family="Helvetica,sans-Serif" font-size="10.00">sstream</text>
</a>
</g>
</g>
<!-- Node3&#45;&gt;Node16 -->
<g id="edge18" class="edge">
<title>Node3&#45;&gt;Node16</title>
<path fill="none" stroke="#63b8ff" d="M738.88,-164.98C770.94,-155.85 821.95,-141.32 856.87,-131.36"/>
<polygon fill="#63b8ff" stroke="#63b8ff" points="858.06,-134.67 866.71,-128.56 856.14,-127.93 858.06,-134.67"/>
</g>
<!-- Node5 -->
<g id="node5" class="node">
<title>Node5</title>
<g id="a_node5"><a xlink:title=" ">
<polygon fill="#e0e0e0" stroke="#999999" points="514,-19 470,-19 470,0 514,0 514,-19"/>
<text text-anchor="middle" x="492" y="-7" font-family="Helvetica,sans-Serif" font-size="10.00">string</text>
</a>
</g>
</g>
<!-- Node4&#45;&gt;Node5 -->
<g id="edge4" class="edge">
<title>Node4&#45;&gt;Node5</title>
<path fill="none" stroke="#63b8ff" d="M488.66,-54.75C489.18,-47.8 489.94,-37.85 490.59,-29.13"/>
<polygon fill="#63b8ff" stroke="#63b8ff" points="494.09,-29.32 491.35,-19.09 487.11,-28.8 494.09,-29.32"/>
</g>
<!-- Node4&#45;&gt;Node6 -->
<g id="edge5" class="edge">
<title>Node4&#45;&gt;Node6</title>
<path fill="none" stroke="#63b8ff" d="M500.21,-54.98C511.78,-46.92 529.38,-34.65 543.16,-25.03"/>
<polygon fill="#63b8ff" stroke="#63b8ff" points="545.37,-27.76 551.57,-19.17 541.36,-22.02 545.37,-27.76"/>
</g>
<!-- Node8 -->
<g id="node8" class="node">
<title>Node8</title>
<g id="a_node8"><a xlink:href="nonstd_8h.html" target="_top" xlink:title=" ">
<polygon fill="white" stroke="#666666" points="408,-74 318,-74 318,-55 408,-55 408,-74"/>
<text text-anchor="middle" x="363" y="-62" font-family="Helvetica,sans-Serif" font-size="10.00">ccf/ds/nonstd.h</text>
</a>
</g>
</g>
<!-- Node7&#45;&gt;Node8 -->
<g id="edge7" class="edge">
<title>Node7&#45;&gt;Node8</title>
<path fill="none" stroke="#63b8ff" d="M653.41,-109.98C588.77,-100.08 482.71,-83.84 418.23,-73.96"/>
<polygon fill="#63b8ff" stroke="#63b8ff" points="418.66,-70.49 408.25,-72.43 417.6,-77.4 418.66,-70.49"/>
</g>
<!-- Node7&#45;&gt;Node14 -->
<g id="edge15" class="edge">
<title>Node7&#45;&gt;Node14</title>
<path fill="none" stroke="#63b8ff" d="M728.6,-109.98C748.32,-101.42 778.95,-88.11 801.58,-78.28"/>
<polygon fill="#63b8ff" stroke="#63b8ff" points="803.26,-81.37 811.04,-74.17 800.48,-74.94 803.26,-81.37"/>
</g>
<!-- Node15 -->
<g id="node15" class="node">
<title>Node15</title>
<g id="a_node15"><a xlink:title=" ">
<polygon fill="#e0e0e0" stroke="#999999" points="764,-74 654,-74 654,-55 764,-55 764,-74"/>
<text text-anchor="middle" x="709" y="-62" font-family="Helvetica,sans-Serif" font-size="10.00">nlohmann/json.hpp</text>
</a>
</g>
</g>
<!-- Node7&#45;&gt;Node15 -->
<g id="edge16" class="edge">
<title>Node7&#45;&gt;Node15</title>
<path fill="none" stroke="#63b8ff" d="M709,-109.75C709,-102.8 709,-92.85 709,-84.13"/>
<polygon fill="#63b8ff" stroke="#63b8ff" points="712.5,-84.09 709,-74.09 705.5,-84.09 712.5,-84.09"/>
</g>
<!-- Node8&#45;&gt;Node5 -->
<g id="edge11" class="edge">
<title>Node8&#45;&gt;Node5</title>
<path fill="none" stroke="#63b8ff" d="M383.73,-54.98C404.76,-46.34 437.55,-32.87 461.54,-23.02"/>
<polygon fill="#63b8ff" stroke="#63b8ff" points="462.98,-26.21 470.9,-19.17 460.32,-19.73 462.98,-26.21"/>
</g>
<!-- Node8&#45;&gt;Node6 -->
<g id="edge14" class="edge">
<title>Node8&#45;&gt;Node6</title>
<path fill="none" stroke="#63b8ff" d="M395.29,-54.98C432.32,-45.22 492.73,-29.29 530.32,-19.38"/>
<polygon fill="#63b8ff" stroke="#63b8ff" points="531.5,-22.69 540.28,-16.75 529.72,-15.92 531.5,-22.69"/>
</g>
<!-- Node9 -->
<g id="node9" class="node">
<title>Node9</title>
<g id="a_node9"><a xlink:title=" ">
<polygon fill="#e0e0e0" stroke="#999999" points="392,-19 328,-19 328,0 392,0 392,-19"/>
<text text-anchor="middle" x="360" y="-7" font-family="Helvetica,sans-Serif" font-size="10.00">algorithm</text>
</a>
</g>
</g>
<!-- Node8&#45;&gt;Node9 -->
<g id="edge8" class="edge">
<title>Node8&#45;&gt;Node9</title>
<path fill="none" stroke="#63b8ff" d="M362.5,-54.75C362.11,-47.8 361.55,-37.85 361.05,-29.13"/>
<polygon fill="#63b8ff" stroke="#63b8ff" points="364.55,-28.88 360.49,-19.09 357.56,-29.27 364.55,-28.88"/>
</g>
<!-- Node10 -->
<g id="node10" class="node">
<title>Node10</title>
<g id="a_node10"><a xlink:title=" ">
<polygon fill="#e0e0e0" stroke="#999999" points="452,-19 410,-19 410,0 452,0 452,-19"/>
<text text-anchor="middle" x="431" y="-7" font-family="Helvetica,sans-Serif" font-size="10.00">array</text>
</a>
</g>
</g>
<!-- Node8&#45;&gt;Node10 -->
<g id="edge9" class="edge">
<title>Node8&#45;&gt;Node10</title>
<path fill="none" stroke="#63b8ff" d="M373.93,-54.98C384.08,-47.07 399.42,-35.11 411.65,-25.58"/>
<polygon fill="#63b8ff" stroke="#63b8ff" points="414.14,-28.08 419.88,-19.17 409.84,-22.56 414.14,-28.08"/>
</g>
<!-- Node11 -->
<g id="node11" class="node">
<title>Node11</title>
<g id="a_node11"><a xlink:title=" ">
<polygon fill="#e0e0e0" stroke="#999999" points="222.5,-19 173.5,-19 173.5,0 222.5,0 222.5,-19"/>
<text text-anchor="middle" x="198" y="-7" font-family="Helvetica,sans-Serif" font-size="10.00">cctype</text>
</a>
</g>
</g>
<!-- Node8&#45;&gt;Node11 -->
<g id="edge10" class="edge">
<title>Node8&#45;&gt;Node11</title>
<path fill="none" stroke="#63b8ff" d="M336.49,-54.98C308.13,-45.88 263.06,-31.4 232.08,-21.45"/>
<polygon fill="#63b8ff" stroke="#63b8ff" points="233.15,-18.11 222.56,-18.39 231.01,-24.78 233.15,-18.11"/>
</g>
<!-- Node8&#45;&gt;Node12 -->
<g id="edge12" class="edge">
<title>Node8&#45;&gt;Node12</title>
<path fill="none" stroke="#63b8ff" d="M320.58,-54.98C272.72,-45.38 195.11,-29.79 145.59,-19.85"/>
<polygon fill="#63b8ff" stroke="#63b8ff" points="146.27,-16.42 135.78,-17.88 144.89,-23.28 146.27,-16.42"/>
</g>
<!-- Node13 -->
<g id="node13" class="node">
<title>Node13</title>
<g id="a_node13"><a xlink:title=" ">
<polygon fill="#e0e0e0" stroke="#999999" points="309.5,-19 240.5,-19 240.5,0 309.5,0 309.5,-19"/>
<text text-anchor="middle" x="275" y="-7" font-family="Helvetica,sans-Serif" font-size="10.00">type_traits</text>
</a>
</g>
</g>
<!-- Node8&#45;&gt;Node13 -->
<g id="edge13" class="edge">
<title>Node8&#45;&gt;Node13</title>
<path fill="none" stroke="#63b8ff" d="M348.86,-54.98C335.21,-46.77 314.31,-34.18 298.22,-24.49"/>
<polygon fill="#63b8ff" stroke="#63b8ff" points="299.77,-21.33 289.4,-19.17 296.16,-27.33 299.77,-21.33"/>
</g>
<!-- Node21&#45;&gt;Node2 -->
<g id="edge26" class="edge">
<title>Node21&#45;&gt;Node2</title>
<path fill="none" stroke="#63b8ff" d="M615.65,-284.59C511.65,-277.2 299.95,-261.03 110.19,-239.07"/>
<polygon fill="#63b8ff" stroke="#63b8ff" points="110.36,-235.57 100.02,-237.89 109.55,-242.52 110.36,-235.57"/>
</g>
<!-- Node21&#45;&gt;Node14 -->
<g id="edge36" class="edge">
<title>Node21&#45;&gt;Node14</title>
<path fill="none" stroke="#63b8ff" d="M744.12,-276.56C747.46,-276.01 750.77,-275.49 754,-275 824.98,-264.32 1027.16,-292.51 1075,-239 1080.63,-232.7 1079.68,-227.03 1075,-220 1017.09,-132.92 932.13,-202.77 858,-129 845.67,-116.73 838.64,-97.95 834.87,-84"/>
<polygon fill="#63b8ff" stroke="#63b8ff" points="838.22,-82.97 832.5,-74.05 831.41,-84.59 838.22,-82.97"/>
</g>
<!-- Node21&#45;&gt;Node19 -->
<g id="edge37" class="edge">
<title>Node21&#45;&gt;Node19</title>
<path fill="none" stroke="#63b8ff" d="M744.13,-276.59C747.46,-276.03 750.77,-275.5 754,-275 821.46,-264.65 1013.66,-290.01 1059,-239 1064.61,-232.69 1064.29,-226.58 1059,-220 1038.96,-195.07 949.01,-183.29 896.14,-178.43"/>
<polygon fill="#63b8ff" stroke="#63b8ff" points="896.36,-174.93 886.09,-177.55 895.75,-181.91 896.36,-174.93"/>
</g>
<!-- Node22 -->
<g id="node22" class="node">
<title>Node22</title>
<g id="a_node22"><a xlink:title=" ">
<polygon fill="#e0e0e0" stroke="#999999" points="1304,-129 1254,-129 1254,-110 1304,-110 1304,-129"/>
<text text-anchor="middle" x="1279" y="-117" font-family="Helvetica,sans-Serif" font-size="10.00">chrono</text>
</a>
</g>
</g>
<!-- Node21&#45;&gt;Node22 -->
<g id="edge27" class="edge">
<title>Node21&#45;&gt;Node22</title>
<path fill="none" stroke="#63b8ff" d="M744.11,-276.48C747.45,-275.95 750.76,-275.45 754,-275 927.7,-250.67 986.24,-309.15 1147,-239 1199.49,-216.09 1245.38,-163.93 1266.56,-137.11"/>
<polygon fill="#63b8ff" stroke="#63b8ff" points="1269.43,-139.12 1272.77,-129.06 1263.89,-134.84 1269.43,-139.12"/>
</g>
<!-- Node23 -->
<g id="node23" class="node">
<title>Node23</title>
<g id="a_node23"><a xlink:href="x509__time__fmt_8h.html" target="_top" xlink:title=" ">
<polygon fill="white" stroke="#666666" points="1181,-184 1067,-184 1067,-165 1181,-165 1181,-184"/>
<text text-anchor="middle" x="1124" y="-172" font-family="Helvetica,sans-Serif" font-size="10.00">ds/x509_time_fmt.h</text>
</a>
</g>
</g>
<!-- Node21&#45;&gt;Node23 -->
<g id="edge28" class="edge">
<title>Node21&#45;&gt;Node23</title>
<path fill="none" stroke="#63b8ff" d="M744.12,-276.5C747.45,-275.96 750.76,-275.46 754,-275 795.55,-269.09 1101.77,-270.06 1130,-239 1140.92,-226.98 1137.36,-207.9 1132.33,-193.79"/>
<polygon fill="#63b8ff" stroke="#63b8ff" points="1135.42,-192.11 1128.41,-184.17 1128.94,-194.75 1135.42,-192.11"/>
</g>
<!-- Node27 -->
<g id="node27" class="node">
<title>Node27</title>
<g id="a_node27"><a xlink:title=" ">
<polygon fill="#e0e0e0" stroke="#999999" points="207.5,-239 118.5,-239 118.5,-220 207.5,-220 207.5,-239"/>
<text text-anchor="middle" x="163" y="-227" font-family="Helvetica,sans-Serif" font-size="10.00">openssl/asn1.h</text>
</a>
</g>
</g>
<!-- Node21&#45;&gt;Node27 -->
<g id="edge38" class="edge">
<title>Node21&#45;&gt;Node27</title>
<path fill="none" stroke="#63b8ff" d="M615.7,-283.13C528.03,-274.89 365.83,-258.81 217.7,-239.17"/>
<polygon fill="#63b8ff" stroke="#63b8ff" points="217.88,-235.66 207.51,-237.81 216.96,-242.6 217.88,-235.66"/>
</g>
<!-- Node28 -->
<g id="node28" class="node">
<title>Node28</title>
<g id="a_node28"><a xlink:title=" ">
<polygon fill="#e0e0e0" stroke="#999999" points="302.5,-239 225.5,-239 225.5,-220 302.5,-220 302.5,-239"/>
<text text-anchor="middle" x="264" y="-227" font-family="Helvetica,sans-Serif" font-size="10.00">openssl/ec.h</text>
</a>
</g>
</g>
<!-- Node21&#45;&gt;Node28 -->
<g id="edge39" class="edge">
<title>Node21&#45;&gt;Node28</title>
<path fill="none" stroke="#63b8ff" d="M615.88,-281.19C544.33,-272.27 424.89,-256.8 312.83,-239.24"/>
<polygon fill="#63b8ff" stroke="#63b8ff" points="313.13,-235.74 302.71,-237.64 312.04,-242.65 313.13,-235.74"/>
</g>
<!-- Node29 -->
<g id="node29" class="node">
<title>Node29</title>
<g id="a_node29"><a xlink:title=" ">
<polygon fill="#e0e0e0" stroke="#999999" points="419.5,-239 320.5,-239 320.5,-220 419.5,-220 419.5,-239"/>
<text text-anchor="middle" x="370" y="-227" font-family="Helvetica,sans-Serif" font-size="10.00">openssl/engine.h</text>
</a>
</g>
</g>
<!-- Node21&#45;&gt;Node29 -->
<g id="edge40" class="edge">
<title>Node21&#45;&gt;Node29</title>
<path fill="none" stroke="#63b8ff" d="M615.77,-276.88C559.45,-266.25 478.46,-250.97 425.06,-240.89"/>
<polygon fill="#63b8ff" stroke="#63b8ff" points="425.57,-237.42 415.09,-239.01 424.27,-244.3 425.57,-237.42"/>
</g>
<!-- Node30 -->
<g id="node30" class="node">
<title>Node30</title>
<g id="a_node30"><a xlink:title=" ">
<polygon fill="#e0e0e0" stroke="#999999" points="516.5,-239 437.5,-239 437.5,-220 516.5,-220 516.5,-239"/>
<text text-anchor="middle" x="477" y="-227" font-family="Helvetica,sans-Serif" font-size="10.00">openssl/err.h</text>
</a>
</g>
</g>
<!-- Node21&#45;&gt;Node30 -->
<g id="edge41" class="edge">
<title>Node21&#45;&gt;Node30</title>
<path fill="none" stroke="#63b8ff" d="M631.38,-274.99C596.19,-264.85 549.24,-251.32 516.4,-241.85"/>
<polygon fill="#63b8ff" stroke="#63b8ff" points="517.26,-238.46 506.68,-239.05 515.32,-245.19 517.26,-238.46"/>
</g>
<!-- Node31 -->
<g id="node31" class="node">
<title>Node31</title>
<g id="a_node31"><a xlink:title=" ">
<polygon fill="#e0e0e0" stroke="#999999" points="618,-239 534,-239 534,-220 618,-220 618,-239"/>
<text text-anchor="middle" x="576" y="-227" font-family="Helvetica,sans-Serif" font-size="10.00">openssl/evp.h</text>
</a>
</g>
</g>
<!-- Node21&#45;&gt;Node31 -->
<g id="edge42" class="edge">
<title>Node21&#45;&gt;Node31</title>
<path fill="none" stroke="#63b8ff" d="M655.09,-274.99C638.51,-265.66 616.84,-253.47 600.37,-244.21"/>
<polygon fill="#63b8ff" stroke="#63b8ff" points="601.79,-240.99 591.36,-239.14 598.36,-247.09 601.79,-240.99"/>
</g>
<!-- Node32 -->
<g id="node32" class="node">
<title>Node32</title>
<g id="a_node32"><a xlink:title=" ">
<polygon fill="#e0e0e0" stroke="#999999" points="724,-239 636,-239 636,-220 724,-220 724,-239"/>
<text text-anchor="middle" x="680" y="-227" font-family="Helvetica,sans-Serif" font-size="10.00">openssl/pem.h</text>
</a>
</g>
</g>
<!-- Node21&#45;&gt;Node32 -->
<g id="edge43" class="edge">
<title>Node21&#45;&gt;Node32</title>
<path fill="none" stroke="#63b8ff" d="M680,-274.84C680,-267.21 680,-257.7 680,-249.45"/>
<polygon fill="#63b8ff" stroke="#63b8ff" points="683.5,-249.27 680,-239.27 676.5,-249.27 683.5,-249.27"/>
</g>
<!-- Node33 -->
<g id="node33" class="node">
<title>Node33</title>
<g id="a_node33"><a xlink:title=" ">
<polygon fill="#e0e0e0" stroke="#999999" points="822,-239 742,-239 742,-220 822,-220 822,-239"/>
<text text-anchor="middle" x="782" y="-227" font-family="Helvetica,sans-Serif" font-size="10.00">openssl/ssl.h</text>
</a>
</g>
</g>
<!-- Node21&#45;&gt;Node33 -->
<g id="edge44" class="edge">
<title>Node21&#45;&gt;Node33</title>
<path fill="none" stroke="#63b8ff" d="M704.43,-274.99C720.69,-265.66 741.95,-253.47 758.1,-244.21"/>
<polygon fill="#63b8ff" stroke="#63b8ff" points="760,-247.15 766.94,-239.14 756.52,-241.08 760,-247.15"/>
</g>
<!-- Node34 -->
<g id="node34" class="node">
<title>Node34</title>
<g id="a_node34"><a xlink:title=" ">
<polygon fill="#e0e0e0" stroke="#999999" points="930,-239 840,-239 840,-220 930,-220 930,-239"/>
<text text-anchor="middle" x="885" y="-227" font-family="Helvetica,sans-Serif" font-size="10.00">openssl/x509.h</text>
</a>
</g>
</g>
<!-- Node21&#45;&gt;Node34 -->
<g id="edge45" class="edge">
<title>Node21&#45;&gt;Node34</title>
<path fill="none" stroke="#63b8ff" d="M729.1,-274.99C764.63,-264.85 812.04,-251.32 845.22,-241.85"/>
<polygon fill="#63b8ff" stroke="#63b8ff" points="846.37,-245.16 855.03,-239.05 844.45,-238.43 846.37,-245.16"/>
</g>
<!-- Node35 -->
<g id="node35" class="node">
<title>Node35</title>
<g id="a_node35"><a xlink:title=" ">
<polygon fill="#e0e0e0" stroke="#999999" points="1050,-239 948,-239 948,-220 1050,-220 1050,-239"/>
<text text-anchor="middle" x="999" y="-227" font-family="Helvetica,sans-Serif" font-size="10.00">openssl/x509v3.h</text>
</a>
</g>
</g>
<!-- Node21&#45;&gt;Node35 -->
<g id="edge46" class="edge">
<title>Node21&#45;&gt;Node35</title>
<path fill="none" stroke="#63b8ff" d="M744.17,-276.83C747.49,-276.21 750.79,-275.6 754,-275 818.22,-263.09 891.98,-249.74 941.64,-240.8"/>
<polygon fill="#63b8ff" stroke="#63b8ff" points="942.33,-244.23 951.56,-239.01 941.09,-237.34 942.33,-244.23"/>
</g>
<!-- Node23&#45;&gt;Node6 -->
<g id="edge35" class="edge">
<title>Node23&#45;&gt;Node6</title>
<path fill="none" stroke="#63b8ff" d="M1152,-164.98C1183.27,-154.06 1227.04,-133.69 1207,-110 1127.69,-16.24 719.23,-9.97 597.98,-10.21"/>
<polygon fill="#63b8ff" stroke="#63b8ff" points="597.79,-6.71 587.8,-10.25 597.81,-13.71 597.79,-6.71"/>
</g>
<!-- Node23&#45;&gt;Node14 -->
<g id="edge31" class="edge">
<title>Node23&#45;&gt;Node14</title>
<path fill="none" stroke="#63b8ff" d="M1088.19,-164.93C1056.81,-156.98 1010.23,-144.13 971,-129 953.01,-122.06 949.49,-118.11 932,-110 908.1,-98.92 880.73,-86.9 860.52,-78.15"/>
<polygon fill="#63b8ff" stroke="#63b8ff" points="861.79,-74.89 851.22,-74.14 859.02,-81.32 861.79,-74.89"/>
</g>
<!-- Node23&#45;&gt;Node16 -->
<g id="edge33" class="edge">
<title>Node23&#45;&gt;Node16</title>
<path fill="none" stroke="#63b8ff" d="M1087.21,-164.98C1044.84,-155.18 975.58,-139.15 932.79,-129.25"/>
<polygon fill="#63b8ff" stroke="#63b8ff" points="933.57,-125.83 923.04,-126.99 931.99,-132.65 933.57,-125.83"/>
</g>
<!-- Node23&#45;&gt;Node22 -->
<g id="edge29" class="edge">
<title>Node23&#45;&gt;Node22</title>
<path fill="none" stroke="#63b8ff" d="M1148.9,-164.98C1174.7,-156.16 1215.22,-142.31 1244.18,-132.41"/>
<polygon fill="#63b8ff" stroke="#63b8ff" points="1245.57,-135.63 1253.9,-129.08 1243.31,-129.01 1245.57,-135.63"/>
</g>
<!-- Node24 -->
<g id="node24" class="node">
<title>Node24</title>
<g id="a_node24"><a xlink:title=" ">
<polygon fill="#e0e0e0" stroke="#999999" points="1058.5,-129 979.5,-129 979.5,-110 1058.5,-110 1058.5,-129"/>
<text text-anchor="middle" x="1019" y="-117" font-family="Helvetica,sans-Serif" font-size="10.00">fmt/chrono.h</text>
</a>
</g>
</g>
<!-- Node23&#45;&gt;Node24 -->
<g id="edge30" class="edge">
<title>Node23&#45;&gt;Node24</title>
<path fill="none" stroke="#63b8ff" d="M1107.13,-164.98C1090.39,-156.54 1064.5,-143.47 1045.11,-133.68"/>
<polygon fill="#63b8ff" stroke="#63b8ff" points="1046.68,-130.55 1036.18,-129.17 1043.53,-136.8 1046.68,-130.55"/>
</g>
<!-- Node25 -->
<g id="node25" class="node">
<title>Node25</title>
<g id="a_node25"><a xlink:title=" ">
<polygon fill="#e0e0e0" stroke="#999999" points="1132,-129 1076,-129 1076,-110 1132,-110 1132,-129"/>
<text text-anchor="middle" x="1104" y="-117" font-family="Helvetica,sans-Serif" font-size="10.00">iomanip</text>
</a>
</g>
</g>
<!-- Node23&#45;&gt;Node25 -->
<g id="edge32" class="edge">
<title>Node23&#45;&gt;Node25</title>
<path fill="none" stroke="#63b8ff" d="M1120.7,-164.75C1118.02,-157.65 1114.15,-147.4 1110.81,-138.56"/>
<polygon fill="#63b8ff" stroke="#63b8ff" points="1114.05,-137.21 1107.24,-129.09 1107.5,-139.68 1114.05,-137.21"/>
</g>
<!-- Node26 -->
<g id="node26" class="node">
<title>Node26</title>
<g id="a_node26"><a xlink:title=" ">
<polygon fill="#e0e0e0" stroke="#999999" points="1198,-129 1150,-129 1150,-110 1198,-110 1198,-129"/>
<text text-anchor="middle" x="1174" y="-117" font-family="Helvetica,sans-Serif" font-size="10.00">time.h</text>
</a>
</g>
</g>
<!-- Node23&#45;&gt;Node26 -->
<g id="edge34" class="edge">
<title>Node23&#45;&gt;Node26</title>
<path fill="none" stroke="#63b8ff" d="M1132.26,-164.75C1139.46,-157.11 1150.11,-145.82 1158.85,-136.56"/>
<polygon fill="#63b8ff" stroke="#63b8ff" points="1161.58,-138.76 1165.9,-129.09 1156.49,-133.96 1161.58,-138.76"/>
</g>
</g>
</svg>
        <g id="navigator" transform="translate(0 0)" fill="#404254">
                <rect fill="#f2f5e9" fill-opacity="0.5" stroke="#606060" stroke-width=".5" x="0" y="0" width="60" height="60"/>
                <use id="zoomplus" xlink:href="#zoomPlus" x="17" y="9" onmousedown="handleZoom(evt,'in')"/>
                <use id="zoomminus" xlink:href="#zoomMin" x="42" y="9" onmousedown="handleZoom(evt,'out')"/>
                <use id="reset" xlink:href="#resetDef" x="30" y="36" onmousedown="handleReset()"/>
                <g id="arrowUp" xlink:href="#dirArrow" transform="translate(30 24)" onmousedown="handlePan(0,-1)">
                  <use xlink:href="#rim" fill="#404040">
                        <set attributeName="fill" to="#808080" begin="arrowUp.mouseover" end="arrowUp.mouseout"/>
                  </use>
                  <path fill="none" stroke="white" stroke-width="1.5" d="M0,-3.0v7 M-2.5,-0.5L0,-3.0L2.5,-0.5"/>
                </g>
                <g id="arrowRight" xlink:href="#dirArrow" transform="rotate(90) translate(36 -43)" onmousedown="handlePan(1,0)">
                  <use xlink:href="#rim" fill="#404040">
                        <set attributeName="fill" to="#808080" begin="arrowRight.mouseover" end="arrowRight.mouseout"/>
                  </use>
                  <path fill="none" stroke="white" stroke-width="1.5" d="M0,-3.0v7 M-2.5,-0.5L0,-3.0L2.5,-0.5"/>
                </g>
                <g id="arrowDown" xlink:href="#dirArrow" transform="rotate(180) translate(-30 -48)" onmousedown="handlePan(0,1)">
                  <use xlink:href="#rim" fill="#404040">
                        <set attributeName="fill" to="#808080" begin="arrowDown.mouseover" end="arrowDown.mouseout"/>
                  </use>
                  <path fill="none" stroke="white" stroke-width="1.5" d="M0,-3.0v7 M-2.5,-0.5L0,-3.0L2.5,-0.5"/>
                </g>
                <g id="arrowLeft" xlink:href="#dirArrow" transform="rotate(270) translate(-36 17)" onmousedown="handlePan(-1,0)">
                  <use xlink:href="#rim" fill="#404040">
                        <set attributeName="fill" to="#808080" begin="arrowLeft.mouseover" end="arrowLeft.mouseout"/>
                  </use>
                  <path fill="none" stroke="white" stroke-width="1.5" d="M0,-3.0v7 M-2.5,-0.5L0,-3.0L2.5,-0.5"/>
                </g>
        </g>
        <svg viewBox="0 0 15 15" width="100%" height="30px" preserveAspectRatio="xMaxYMin meet">
         <g id="arrow_out" transform="scale(0.3 0.3)">
          <a xlink:href="csr_8h__incl_org.svg" target="_base">
           <rect id="button" ry="5" rx="5" y="6" x="6" height="38" width="38"
                fill="#f2f5e9" fill-opacity="0.5" stroke="#606060" stroke-width="1.0"/>
           <path id="arrow"
             d="M 11.500037,31.436501 C 11.940474,20.09759 22.043105,11.32322 32.158766,21.979434 L 37.068811,17.246167 C 37.068811,17.246167 37.088388,32 37.088388,32 L 22.160133,31.978069 C 22.160133,31.978069 26.997745,27.140456 26.997745,27.140456 C 18.528582,18.264221 13.291696,25.230495 11.500037,31.436501 z"
             style="fill:#404040;"/>
          </a>
         </g>
        </svg>
</svg>
