<?xml version="1.0" encoding="UTF-8" standalone="no"?>
<!DOCTYPE svg PUBLIC "-//W3C//DTD SVG 1.1//EN"
 "http://www.w3.org/Graphics/SVG/1.1/DTD/svg11.dtd">
<!-- Generated by graphviz version 2.43.0 (0)
 -->
<!-- Title: include/ccf/crypto/curve.h Pages: 1 -->
<svg width="596pt" height="313pt"
 viewBox="0.00 0.00 596.00 313.00" xmlns="http://www.w3.org/2000/svg" xmlns:xlink="http://www.w3.org/1999/xlink">
<g id="graph0" class="graph" transform="scale(1 1) rotate(0) translate(4 309)">
<title>include/ccf/crypto/curve.h</title>
<!-- Node1 -->
<g id="node1" class="node">
<title>Node1</title>
<g id="a_node1"><a xlink:title=" ">
<polygon fill="#999999" stroke="#666666" points="431.5,-305 328.5,-305 328.5,-275 431.5,-275 431.5,-305"/>
<text text-anchor="start" x="336.5" y="-293" font-family="Helvetica,sans-Serif" font-size="10.00">include/ccf/crypto</text>
<text text-anchor="middle" x="380" y="-282" font-family="Helvetica,sans-Serif" font-size="10.00">/curve.h</text>
</a>
</g>
</g>
<!-- Node2 -->
<g id="node2" class="node">
<title>Node2</title>
<g id="a_node2"><a xlink:href="md__type_8h.html" target="_top" xlink:title=" ">
<polygon fill="white" stroke="#666666" points="395.5,-239 276.5,-239 276.5,-220 395.5,-220 395.5,-239"/>
<text text-anchor="middle" x="336" y="-227" font-family="Helvetica,sans-Serif" font-size="10.00">ccf/crypto/md_type.h</text>
</a>
</g>
</g>
<!-- Node1&#45;&gt;Node2 -->
<g id="edge1" class="edge">
<title>Node1&#45;&gt;Node2</title>
<path fill="none" stroke="#63b8ff" d="M369.35,-274.84C363.16,-266.61 355.31,-256.18 348.79,-247.51"/>
<polygon fill="#63b8ff" stroke="#63b8ff" points="351.4,-245.15 342.59,-239.27 345.81,-249.36 351.4,-245.15"/>
</g>
<!-- Node3 -->
<g id="node3" class="node">
<title>Node3</title>
<g id="a_node3"><a xlink:href="json_8h.html" target="_top" xlink:title=" ">
<polygon fill="white" stroke="#666666" points="327.5,-184 250.5,-184 250.5,-165 327.5,-165 327.5,-184"/>
<text text-anchor="middle" x="289" y="-172" font-family="Helvetica,sans-Serif" font-size="10.00">ccf/ds/json.h</text>
</a>
</g>
</g>
<!-- Node1&#45;&gt;Node3 -->
<g id="edge21" class="edge">
<title>Node1&#45;&gt;Node3</title>
<path fill="none" stroke="#63b8ff" d="M328.35,-279.39C305.47,-272.29 280.69,-260.03 267,-239 257.69,-224.7 266.2,-206.01 275.2,-192.62"/>
<polygon fill="#63b8ff" stroke="#63b8ff" points="278.21,-194.44 281.3,-184.31 272.56,-190.3 278.21,-194.44"/>
</g>
<!-- Node5 -->
<g id="node5" class="node">
<title>Node5</title>
<g id="a_node5"><a xlink:title=" ">
<polygon fill="#e0e0e0" stroke="#999999" points="94,-19 50,-19 50,0 94,0 94,-19"/>
<text text-anchor="middle" x="72" y="-7" font-family="Helvetica,sans-Serif" font-size="10.00">string</text>
</a>
</g>
</g>
<!-- Node1&#45;&gt;Node5 -->
<g id="edge24" class="edge">
<title>Node1&#45;&gt;Node5</title>
<path fill="none" stroke="#63b8ff" d="M328.36,-284.46C224.46,-273.89 0,-243.23 0,-175.5 0,-175.5 0,-175.5 0,-118.5 0,-89.04 2.82,-79.62 19,-55 26.84,-43.08 38.81,-32.64 49.39,-24.88"/>
<polygon fill="#63b8ff" stroke="#63b8ff" points="51.62,-27.59 57.83,-19.01 47.62,-21.84 51.62,-27.59"/>
</g>
<!-- Node14 -->
<g id="node14" class="node">
<title>Node14</title>
<g id="a_node14"><a xlink:title=" ">
<polygon fill="#e0e0e0" stroke="#999999" points="473.5,-74 394.5,-74 394.5,-55 473.5,-55 473.5,-74"/>
<text text-anchor="middle" x="434" y="-62" font-family="Helvetica,sans-Serif" font-size="10.00">fmt/format.h</text>
</a>
</g>
</g>
<!-- Node1&#45;&gt;Node14 -->
<g id="edge22" class="edge">
<title>Node1&#45;&gt;Node14</title>
<path fill="none" stroke="#63b8ff" d="M388.02,-274.99C393.3,-265.2 399.95,-251.66 404,-239 421.49,-184.28 429.47,-116.41 432.47,-84.17"/>
<polygon fill="#63b8ff" stroke="#63b8ff" points="435.98,-84.27 433.37,-74 429.01,-83.66 435.98,-84.27"/>
</g>
<!-- Node17 -->
<g id="node17" class="node">
<title>Node17</title>
<g id="a_node17"><a xlink:href="enum__formatter_8h.html" target="_top" xlink:title=" ">
<polygon fill="white" stroke="#666666" points="588,-184 452,-184 452,-165 588,-165 588,-184"/>
<text text-anchor="middle" x="520" y="-172" font-family="Helvetica,sans-Serif" font-size="10.00">ccf/ds/enum_formatter.h</text>
</a>
</g>
</g>
<!-- Node1&#45;&gt;Node17 -->
<g id="edge19" class="edge">
<title>Node1&#45;&gt;Node17</title>
<path fill="none" stroke="#63b8ff" d="M397.45,-274.85C423.9,-253.41 473.96,-212.82 501.2,-190.74"/>
<polygon fill="#63b8ff" stroke="#63b8ff" points="503.62,-193.29 509.18,-184.27 499.21,-187.85 503.62,-193.29"/>
</g>
<!-- Node18 -->
<g id="node18" class="node">
<title>Node18</title>
<g id="a_node18"><a xlink:title=" ">
<polygon fill="#e0e0e0" stroke="#999999" points="555.5,-239 490.5,-239 490.5,-220 555.5,-220 555.5,-239"/>
<text text-anchor="middle" x="523" y="-227" font-family="Helvetica,sans-Serif" font-size="10.00">stdexcept</text>
</a>
</g>
</g>
<!-- Node1&#45;&gt;Node18 -->
<g id="edge23" class="edge">
<title>Node1&#45;&gt;Node18</title>
<path fill="none" stroke="#63b8ff" d="M414.25,-274.99C438.11,-265.23 469.65,-252.33 492.61,-242.93"/>
<polygon fill="#63b8ff" stroke="#63b8ff" points="493.95,-246.17 501.88,-239.14 491.3,-239.69 493.95,-246.17"/>
</g>
<!-- Node2&#45;&gt;Node3 -->
<g id="edge2" class="edge">
<title>Node2&#45;&gt;Node3</title>
<path fill="none" stroke="#63b8ff" d="M328.24,-219.75C321.53,-212.18 311.66,-201.05 303.49,-191.84"/>
<polygon fill="#63b8ff" stroke="#63b8ff" points="305.87,-189.25 296.62,-184.09 300.63,-193.89 305.87,-189.25"/>
</g>
<!-- Node4 -->
<g id="node4" class="node">
<title>Node4</title>
<g id="a_node4"><a xlink:href="include_2ccf_2crypto_2base64_8h.html" target="_top" xlink:title=" ">
<polygon fill="white" stroke="#666666" points="140,-74 28,-74 28,-55 140,-55 140,-74"/>
<text text-anchor="middle" x="84" y="-62" font-family="Helvetica,sans-Serif" font-size="10.00">ccf/crypto/base64.h</text>
</a>
</g>
</g>
<!-- Node3&#45;&gt;Node4 -->
<g id="edge3" class="edge">
<title>Node3&#45;&gt;Node4</title>
<path fill="none" stroke="#63b8ff" d="M250.22,-165.5C221.95,-158.58 183.44,-146.84 153,-129 131.4,-116.34 110.84,-95.97 97.88,-81.72"/>
<polygon fill="#63b8ff" stroke="#63b8ff" points="100.42,-79.32 91.17,-74.15 95.18,-83.96 100.42,-79.32"/>
</g>
<!-- Node7 -->
<g id="node7" class="node">
<title>Node7</title>
<g id="a_node7"><a xlink:href="include_2ccf_2ds_2json__schema_8h.html" target="_top" xlink:title=" ">
<polygon fill="white" stroke="#666666" points="283.5,-129 162.5,-129 162.5,-110 283.5,-110 283.5,-129"/>
<text text-anchor="middle" x="223" y="-117" font-family="Helvetica,sans-Serif" font-size="10.00">ccf/ds/json_schema.h</text>
</a>
</g>
</g>
<!-- Node3&#45;&gt;Node7 -->
<g id="edge6" class="edge">
<title>Node3&#45;&gt;Node7</title>
<path fill="none" stroke="#63b8ff" d="M278.4,-164.98C268.54,-157.07 253.65,-145.11 241.78,-135.58"/>
<polygon fill="#63b8ff" stroke="#63b8ff" points="243.79,-132.7 233.8,-129.17 239.4,-138.16 243.79,-132.7"/>
</g>
<!-- Node3&#45;&gt;Node14 -->
<g id="edge17" class="edge">
<title>Node3&#45;&gt;Node14</title>
<path fill="none" stroke="#63b8ff" d="M306.78,-164.91C323.09,-156.68 347.6,-143.4 367,-129 386.18,-114.76 405.74,-95.58 418.74,-82.03"/>
<polygon fill="#63b8ff" stroke="#63b8ff" points="421.6,-84.1 425.92,-74.42 416.51,-79.29 421.6,-84.1"/>
</g>
<!-- Node16 -->
<g id="node16" class="node">
<title>Node16</title>
<g id="a_node16"><a xlink:title=" ">
<polygon fill="#e0e0e0" stroke="#999999" points="358,-129 302,-129 302,-110 358,-110 358,-129"/>
<text text-anchor="middle" x="330" y="-117" font-family="Helvetica,sans-Serif" font-size="10.00">sstream</text>
</a>
</g>
</g>
<!-- Node3&#45;&gt;Node16 -->
<g id="edge18" class="edge">
<title>Node3&#45;&gt;Node16</title>
<path fill="none" stroke="#63b8ff" d="M295.77,-164.75C301.56,-157.26 310.06,-146.28 317.14,-137.13"/>
<polygon fill="#63b8ff" stroke="#63b8ff" points="320.01,-139.14 323.36,-129.09 314.47,-134.86 320.01,-139.14"/>
</g>
<!-- Node4&#45;&gt;Node5 -->
<g id="edge4" class="edge">
<title>Node4&#45;&gt;Node5</title>
<path fill="none" stroke="#63b8ff" d="M82.02,-54.75C80.43,-47.72 78.14,-37.62 76.15,-28.84"/>
<polygon fill="#63b8ff" stroke="#63b8ff" points="79.57,-28.07 73.94,-19.09 72.74,-29.62 79.57,-28.07"/>
</g>
<!-- Node6 -->
<g id="node6" class="node">
<title>Node6</title>
<g id="a_node6"><a xlink:title=" ">
<polygon fill="#e0e0e0" stroke="#999999" points="159.5,-19 112.5,-19 112.5,0 159.5,0 159.5,-19"/>
<text text-anchor="middle" x="136" y="-7" font-family="Helvetica,sans-Serif" font-size="10.00">vector</text>
</a>
</g>
</g>
<!-- Node4&#45;&gt;Node6 -->
<g id="edge5" class="edge">
<title>Node4&#45;&gt;Node6</title>
<path fill="none" stroke="#63b8ff" d="M92.59,-54.75C100.16,-47.03 111.38,-35.6 120.51,-26.28"/>
<polygon fill="#63b8ff" stroke="#63b8ff" points="123.07,-28.68 127.57,-19.09 118.07,-23.78 123.07,-28.68"/>
</g>
<!-- Node8 -->
<g id="node8" class="node">
<title>Node8</title>
<g id="a_node8"><a xlink:href="nonstd_8h.html" target="_top" xlink:title=" ">
<polygon fill="white" stroke="#666666" points="376,-74 286,-74 286,-55 376,-55 376,-74"/>
<text text-anchor="middle" x="331" y="-62" font-family="Helvetica,sans-Serif" font-size="10.00">ccf/ds/nonstd.h</text>
</a>
</g>
</g>
<!-- Node7&#45;&gt;Node8 -->
<g id="edge7" class="edge">
<title>Node7&#45;&gt;Node8</title>
<path fill="none" stroke="#63b8ff" d="M240.35,-109.98C257.57,-101.54 284.2,-88.47 304.15,-78.68"/>
<polygon fill="#63b8ff" stroke="#63b8ff" points="305.9,-81.72 313.33,-74.17 302.81,-75.43 305.9,-81.72"/>
</g>
<!-- Node7&#45;&gt;Node14 -->
<g id="edge15" class="edge">
<title>Node7&#45;&gt;Node14</title>
<path fill="none" stroke="#63b8ff" d="M256.9,-109.98C293.02,-100.91 350.32,-86.52 389.92,-76.57"/>
<polygon fill="#63b8ff" stroke="#63b8ff" points="390.99,-79.91 399.83,-74.08 389.28,-73.12 390.99,-79.91"/>
</g>
<!-- Node15 -->
<g id="node15" class="node">
<title>Node15</title>
<g id="a_node15"><a xlink:title=" ">
<polygon fill="#e0e0e0" stroke="#999999" points="268,-74 158,-74 158,-55 268,-55 268,-74"/>
<text text-anchor="middle" x="213" y="-62" font-family="Helvetica,sans-Serif" font-size="10.00">nlohmann/json.hpp</text>
</a>
</g>
</g>
<!-- Node7&#45;&gt;Node15 -->
<g id="edge16" class="edge">
<title>Node7&#45;&gt;Node15</title>
<path fill="none" stroke="#63b8ff" d="M221.35,-109.75C220.04,-102.8 218.16,-92.85 216.52,-84.13"/>
<polygon fill="#63b8ff" stroke="#63b8ff" points="219.91,-83.27 214.62,-74.09 213.04,-84.56 219.91,-83.27"/>
</g>
<!-- Node8&#45;&gt;Node5 -->
<g id="edge11" class="edge">
<title>Node8&#45;&gt;Node5</title>
<path fill="none" stroke="#63b8ff" d="M285.8,-55.71C241.8,-47.89 172.86,-35.04 104.4,-19.19"/>
<polygon fill="#63b8ff" stroke="#63b8ff" points="104.83,-15.7 94.3,-16.83 103.24,-22.51 104.83,-15.7"/>
</g>
<!-- Node8&#45;&gt;Node6 -->
<g id="edge14" class="edge">
<title>Node8&#45;&gt;Node6</title>
<path fill="none" stroke="#63b8ff" d="M299.67,-54.98C263.95,-45.28 205.79,-29.47 169.27,-19.54"/>
<polygon fill="#63b8ff" stroke="#63b8ff" points="170.15,-16.16 159.59,-16.91 168.32,-22.91 170.15,-16.16"/>
</g>
<!-- Node9 -->
<g id="node9" class="node">
<title>Node9</title>
<g id="a_node9"><a xlink:title=" ">
<polygon fill="#e0e0e0" stroke="#999999" points="548,-19 484,-19 484,0 548,0 548,-19"/>
<text text-anchor="middle" x="516" y="-7" font-family="Helvetica,sans-Serif" font-size="10.00">algorithm</text>
</a>
</g>
</g>
<!-- Node8&#45;&gt;Node9 -->
<g id="edge8" class="edge">
<title>Node8&#45;&gt;Node9</title>
<path fill="none" stroke="#63b8ff" d="M360.72,-54.98C392.05,-46.01 441.57,-31.82 476.24,-21.89"/>
<polygon fill="#63b8ff" stroke="#63b8ff" points="477.39,-25.2 486.04,-19.08 475.47,-18.47 477.39,-25.2"/>
</g>
<!-- Node10 -->
<g id="node10" class="node">
<title>Node10</title>
<g id="a_node10"><a xlink:title=" ">
<polygon fill="#e0e0e0" stroke="#999999" points="220,-19 178,-19 178,0 220,0 220,-19"/>
<text text-anchor="middle" x="199" y="-7" font-family="Helvetica,sans-Serif" font-size="10.00">array</text>
</a>
</g>
</g>
<!-- Node8&#45;&gt;Node10 -->
<g id="edge9" class="edge">
<title>Node8&#45;&gt;Node10</title>
<path fill="none" stroke="#63b8ff" d="M309.79,-54.98C288.14,-46.29 254.32,-32.71 229.73,-22.84"/>
<polygon fill="#63b8ff" stroke="#63b8ff" points="230.74,-19.47 220.16,-18.99 228.13,-25.97 230.74,-19.47"/>
</g>
<!-- Node11 -->
<g id="node11" class="node">
<title>Node11</title>
<g id="a_node11"><a xlink:title=" ">
<polygon fill="#e0e0e0" stroke="#999999" points="287.5,-19 238.5,-19 238.5,0 287.5,0 287.5,-19"/>
<text text-anchor="middle" x="263" y="-7" font-family="Helvetica,sans-Serif" font-size="10.00">cctype</text>
</a>
</g>
</g>
<!-- Node8&#45;&gt;Node11 -->
<g id="edge10" class="edge">
<title>Node8&#45;&gt;Node11</title>
<path fill="none" stroke="#63b8ff" d="M320.07,-54.98C309.92,-47.07 294.58,-35.11 282.35,-25.58"/>
<polygon fill="#63b8ff" stroke="#63b8ff" points="284.16,-22.56 274.12,-19.17 279.86,-28.08 284.16,-22.56"/>
</g>
<!-- Node12 -->
<g id="node12" class="node">
<title>Node12</title>
<g id="a_node12"><a xlink:title=" ">
<polygon fill="#e0e0e0" stroke="#999999" points="378.5,-19 305.5,-19 305.5,0 378.5,0 378.5,-19"/>
<text text-anchor="middle" x="342" y="-7" font-family="Helvetica,sans-Serif" font-size="10.00">string_view</text>
</a>
</g>
</g>
<!-- Node8&#45;&gt;Node12 -->
<g id="edge12" class="edge">
<title>Node8&#45;&gt;Node12</title>
<path fill="none" stroke="#63b8ff" d="M332.82,-54.75C334.26,-47.8 336.32,-37.85 338.13,-29.13"/>
<polygon fill="#63b8ff" stroke="#63b8ff" points="341.61,-29.59 340.22,-19.09 334.76,-28.17 341.61,-29.59"/>
</g>
<!-- Node13 -->
<g id="node13" class="node">
<title>Node13</title>
<g id="a_node13"><a xlink:title=" ">
<polygon fill="#e0e0e0" stroke="#999999" points="465.5,-19 396.5,-19 396.5,0 465.5,0 465.5,-19"/>
<text text-anchor="middle" x="431" y="-7" font-family="Helvetica,sans-Serif" font-size="10.00">type_traits</text>
</a>
</g>
</g>
<!-- Node8&#45;&gt;Node13 -->
<g id="edge13" class="edge">
<title>Node8&#45;&gt;Node13</title>
<path fill="none" stroke="#63b8ff" d="M347.07,-54.98C362.86,-46.61 387.22,-33.7 405.63,-23.95"/>
<polygon fill="#63b8ff" stroke="#63b8ff" points="407.44,-26.95 414.64,-19.17 404.17,-20.76 407.44,-26.95"/>
</g>
<!-- Node17&#45;&gt;Node14 -->
<g id="edge20" class="edge">
<title>Node17&#45;&gt;Node14</title>
<path fill="none" stroke="#63b8ff" d="M512.96,-164.66C498.59,-146.61 465.67,-105.28 447.2,-82.08"/>
<polygon fill="#63b8ff" stroke="#63b8ff" points="449.86,-79.8 440.89,-74.16 444.39,-84.16 449.86,-79.8"/>
</g>
</g>
</svg>
