<?xml version="1.0" encoding="UTF-8" standalone="no"?>
<!DOCTYPE svg PUBLIC "-//W3C//DTD SVG 1.1//EN"
 "http://www.w3.org/Graphics/SVG/1.1/DTD/svg11.dtd">
<!-- Generated by graphviz version 2.43.0 (0)
 -->
<!-- Title: src/node Pages: 1 -->
<svg width="646pt" height="196pt"
 viewBox="0.00 0.00 646.00 196.00" xmlns="http://www.w3.org/2000/svg" xmlns:xlink="http://www.w3.org/1999/xlink">
<g id="graph0" class="graph" transform="scale(1 1) rotate(0) translate(4 192)">
<title>src/node</title>
<g id="clust1" class="cluster">
<title>clusterdir_68267d1309a1af8e8297ef4c3efbcdba</title>
<g id="a_clust1"><a xlink:href="dir_68267d1309a1af8e8297ef4c3efbcdba.html" target="_top" xlink:title="src">
<polygon fill="#edf0f7" stroke="#404040" stroke-dasharray="5,2" points="8,-8 8,-180 576,-180 576,-8 8,-8"/>
<text text-anchor="middle" x="292" y="-168" font-family="Helvetica,sans-Serif" font-size="10.00">src</text>
</a>
</g>
</g>
<g id="clust2" class="cluster">
<title>clusterdir_18ae7af74d885898b85cbb543ae51b63</title>
<g id="a_clust2"><a xlink:href="dir_18ae7af74d885898b85cbb543ae51b63.html" target="_top">
<polygon fill="#edf0f7" stroke="#404040" stroke-width="2" points="280,-63 280,-153 338,-153 338,-63 280,-63"/>
</a>
</g>
</g>
<!-- dir_122f4add68bb94b3fee614989bbbd8f9 -->
<g id="node1" class="node">
<title>dir_122f4add68bb94b3fee614989bbbd8f9</title>
<g id="a_node1"><a xlink:href="dir_122f4add68bb94b3fee614989bbbd8f9.html" target="_top" xlink:title="ds">
<polygon fill="#a2b4d6" stroke="#404040" points="110.5,-35 81.5,-35 81.5,-16 110.5,-16 110.5,-35"/>
<text text-anchor="middle" x="96" y="-23" font-family="Helvetica,sans-Serif" font-size="10.00">ds</text>
</a>
</g>
</g>
<!-- dir_1af0ddd77af1c20f0c9558f89bd86ab0 -->
<g id="node2" class="node">
<title>dir_1af0ddd77af1c20f0c9558f89bd86ab0</title>
<g id="a_node2"><a xlink:href="dir_1af0ddd77af1c20f0c9558f89bd86ab0.html" target="_top" xlink:title="indexing">
<polygon fill="#a2b4d6" stroke="red" points="252.5,-90 193.5,-90 193.5,-71 252.5,-71 252.5,-90"/>
<text text-anchor="middle" x="223" y="-78" font-family="Helvetica,sans-Serif" font-size="10.00">indexing</text>
</a>
</g>
</g>
<!-- dir_2d29d7dff7c7baf1180920f6796c23ae -->
<g id="node3" class="node">
<title>dir_2d29d7dff7c7baf1180920f6796c23ae</title>
<g id="a_node3"><a xlink:href="dir_2d29d7dff7c7baf1180920f6796c23ae.html" target="_top" xlink:title="http">
<polygon fill="#a2b4d6" stroke="#404040" points="165,-35 129,-35 129,-16 165,-16 165,-35"/>
<text text-anchor="middle" x="147" y="-23" font-family="Helvetica,sans-Serif" font-size="10.00">http</text>
</a>
</g>
</g>
<!-- dir_3dcea8250b5ce8d5bc595fbbad3e8f21 -->
<g id="node4" class="node">
<title>dir_3dcea8250b5ce8d5bc595fbbad3e8f21</title>
<g id="a_node4"><a xlink:href="dir_3dcea8250b5ce8d5bc595fbbad3e8f21.html" target="_top" xlink:title="js">
<polygon fill="#a2b4d6" stroke="#404040" points="212.5,-35 183.5,-35 183.5,-16 212.5,-16 212.5,-35"/>
<text text-anchor="middle" x="198" y="-23" font-family="Helvetica,sans-Serif" font-size="10.00">js</text>
</a>
</g>
</g>
<!-- dir_4261af1259721e3e39e0d2dd7354b511 -->
<g id="node5" class="node">
<title>dir_4261af1259721e3e39e0d2dd7354b511</title>
<g id="a_node5"><a xlink:href="dir_4261af1259721e3e39e0d2dd7354b511.html" target="_top" xlink:title="crypto">
<polygon fill="#a2b4d6" stroke="red" points="63.5,-35 16.5,-35 16.5,-16 63.5,-16 63.5,-35"/>
<text text-anchor="middle" x="40" y="-23" font-family="Helvetica,sans-Serif" font-size="10.00">crypto</text>
</a>
</g>
</g>
<!-- dir_4c8befd6991d7a2e9d66c427274b8c22 -->
<g id="node6" class="node">
<title>dir_4c8befd6991d7a2e9d66c427274b8c22</title>
<g id="a_node6"><a xlink:href="dir_4c8befd6991d7a2e9d66c427274b8c22.html" target="_top" xlink:title="kv">
<polygon fill="#a2b4d6" stroke="#404040" points="423.5,-35 394.5,-35 394.5,-16 423.5,-16 423.5,-35"/>
<text text-anchor="middle" x="409" y="-23" font-family="Helvetica,sans-Serif" font-size="10.00">kv</text>
</a>
</g>
</g>
<!-- dir_4f691f982165d1317925cee58b4b4f56 -->
<g id="node7" class="node">
<title>dir_4f691f982165d1317925cee58b4b4f56</title>
<g id="a_node7"><a xlink:href="dir_4f691f982165d1317925cee58b4b4f56.html" target="_top" xlink:title="service">
<polygon fill="#a2b4d6" stroke="red" points="494,-35 442,-35 442,-16 494,-16 494,-35"/>
<text text-anchor="middle" x="468" y="-23" font-family="Helvetica,sans-Serif" font-size="10.00">service</text>
</a>
</g>
</g>
<!-- dir_5427940bb9029915fc0c11c1284afde6 -->
<g id="node8" class="node">
<title>dir_5427940bb9029915fc0c11c1284afde6</title>
<g id="a_node8"><a xlink:href="dir_5427940bb9029915fc0c11c1284afde6.html" target="_top" xlink:title="enclave">
<polygon fill="#a2b4d6" stroke="#404040" points="567.5,-35 512.5,-35 512.5,-16 567.5,-16 567.5,-35"/>
<text text-anchor="middle" x="540" y="-23" font-family="Helvetica,sans-Serif" font-size="10.00">enclave</text>
</a>
</g>
</g>
<!-- dir_654fcaaa959505712bb2ecafa3e1042f -->
<g id="node9" class="node">
<title>dir_654fcaaa959505712bb2ecafa3e1042f</title>
<g id="a_node9"><a xlink:href="dir_654fcaaa959505712bb2ecafa3e1042f.html" target="_top" xlink:title="tls">
<polygon fill="#a2b4d6" stroke="#404040" points="450.5,-90 421.5,-90 421.5,-71 450.5,-71 450.5,-90"/>
<text text-anchor="middle" x="436" y="-78" font-family="Helvetica,sans-Serif" font-size="10.00">tls</text>
</a>
</g>
</g>
<!-- dir_dee301ab18d354d094fb7852349ef839 -->
<g id="node10" class="node">
<title>dir_dee301ab18d354d094fb7852349ef839</title>
<g id="a_node10"><a xlink:href="dir_dee301ab18d354d094fb7852349ef839.html" target="_top" xlink:title="consensus">
<polygon fill="#a2b4d6" stroke="red" points="376,-35 308,-35 308,-16 376,-16 376,-35"/>
<text text-anchor="middle" x="342" y="-23" font-family="Helvetica,sans-Serif" font-size="10.00">consensus</text>
</a>
</g>
</g>
<!-- dir_fdedb0aba14d44ce9d99bc100e026e6a -->
<g id="node11" class="node">
<title>dir_fdedb0aba14d44ce9d99bc100e026e6a</title>
<g id="a_node11"><a xlink:href="dir_fdedb0aba14d44ce9d99bc100e026e6a.html" target="_top" xlink:title="common">
<polygon fill="#a2b4d6" stroke="#404040" points="289.5,-35 230.5,-35 230.5,-16 289.5,-16 289.5,-35"/>
<text text-anchor="middle" x="260" y="-23" font-family="Helvetica,sans-Serif" font-size="10.00">common</text>
</a>
</g>
</g>
<!-- dir_18ae7af74d885898b85cbb543ae51b63 -->
<g id="node12" class="node">
<title>dir_18ae7af74d885898b85cbb543ae51b63</title>
<text text-anchor="middle" x="309" y="-133" font-family="Helvetica,sans-Serif" font-size="10.00">node</text>
</g>
<!-- dir_18ae7af74d885898b85cbb543ae51b63&#45;&gt;dir_122f4add68bb94b3fee614989bbbd8f9 -->
<g id="edge1" class="edge">
<title>dir_18ae7af74d885898b85cbb543ae51b63&#45;&gt;dir_122f4add68bb94b3fee614989bbbd8f9</title>
<path fill="none" stroke="#63b8ff" d="M288.28,-131.7C258.07,-126.9 200.97,-115.09 159,-90 138.69,-77.86 120.24,-57.67 108.63,-43.32"/>
<polygon fill="#63b8ff" stroke="#63b8ff" points="111.24,-40.99 102.33,-35.26 105.73,-45.3 111.24,-40.99"/>
<g id="a_edge1&#45;headlabel"><a xlink:href="dir_000032_000014.html" target="_top" xlink:title="14">
<text text-anchor="middle" x="115.69" y="-39.57" font-family="Helvetica,sans-Serif" font-size="10.00" fill="#63b8ff">14</text>
</a>
</g>
</g>
<!-- dir_18ae7af74d885898b85cbb543ae51b63&#45;&gt;dir_1af0ddd77af1c20f0c9558f89bd86ab0 -->
<g id="edge3" class="edge">
<title>dir_18ae7af74d885898b85cbb543ae51b63&#45;&gt;dir_1af0ddd77af1c20f0c9558f89bd86ab0</title>
<path fill="none" stroke="#63b8ff" d="M295.18,-125.98C281.85,-117.77 261.42,-105.18 245.69,-95.49"/>
<polygon fill="#63b8ff" stroke="#63b8ff" points="247.42,-92.44 237.07,-90.17 243.75,-98.4 247.42,-92.44"/>
<g id="a_edge3&#45;headlabel"><a xlink:href="dir_000032_000023.html" target="_top" xlink:title="1">
<text text-anchor="middle" x="251.97" y="-89.41" font-family="Helvetica,sans-Serif" font-size="10.00" fill="#63b8ff">1</text>
</a>
</g>
</g>
<!-- dir_18ae7af74d885898b85cbb543ae51b63&#45;&gt;dir_2d29d7dff7c7baf1180920f6796c23ae -->
<g id="edge4" class="edge">
<title>dir_18ae7af74d885898b85cbb543ae51b63&#45;&gt;dir_2d29d7dff7c7baf1180920f6796c23ae</title>
<path fill="none" stroke="#63b8ff" d="M288.24,-131.61C261.51,-126.95 214.85,-115.59 184,-90 169.6,-78.05 159.56,-58.96 153.61,-44.83"/>
<polygon fill="#63b8ff" stroke="#63b8ff" points="156.74,-43.23 149.85,-35.19 150.22,-45.77 156.74,-43.23"/>
<g id="a_edge4&#45;headlabel"><a xlink:href="dir_000032_000019.html" target="_top" xlink:title="4">
<text text-anchor="middle" x="160.69" y="-43.05" font-family="Helvetica,sans-Serif" font-size="10.00" fill="#63b8ff">4</text>
</a>
</g>
</g>
<!-- dir_18ae7af74d885898b85cbb543ae51b63&#45;&gt;dir_3dcea8250b5ce8d5bc595fbbad3e8f21 -->
<g id="edge5" class="edge">
<title>dir_18ae7af74d885898b85cbb543ae51b63&#45;&gt;dir_3dcea8250b5ce8d5bc595fbbad3e8f21</title>
<path fill="none" stroke="#63b8ff" d="M303.94,-125.95C293.92,-109.23 271.64,-72.96 261,-63 249.64,-52.37 234.64,-43.52 222.12,-37.2"/>
<polygon fill="#63b8ff" stroke="#63b8ff" points="223.27,-33.87 212.74,-32.69 220.23,-40.18 223.27,-33.87"/>
<g id="a_edge5&#45;headlabel"><a xlink:href="dir_000032_000024.html" target="_top" xlink:title="2">
<text text-anchor="middle" x="227.74" y="-30.37" font-family="Helvetica,sans-Serif" font-size="10.00" fill="#63b8ff">2</text>
</a>
</g>
</g>
<!-- dir_18ae7af74d885898b85cbb543ae51b63&#45;&gt;dir_4261af1259721e3e39e0d2dd7354b511 -->
<g id="edge6" class="edge">
<title>dir_18ae7af74d885898b85cbb543ae51b63&#45;&gt;dir_4261af1259721e3e39e0d2dd7354b511</title>
<path fill="none" stroke="#63b8ff" d="M288.25,-132.39C252.86,-128.18 179.22,-116.74 123,-90 97.33,-77.79 71.99,-56.74 56.19,-42.24"/>
<polygon fill="#63b8ff" stroke="#63b8ff" points="58.53,-39.64 48.85,-35.34 53.74,-44.74 58.53,-39.64"/>
<g id="a_edge6&#45;headlabel"><a xlink:href="dir_000032_000012.html" target="_top" xlink:title="7">
<text text-anchor="middle" x="63.1" y="-37.53" font-family="Helvetica,sans-Serif" font-size="10.00" fill="#63b8ff">7</text>
</a>
</g>
</g>
<!-- dir_18ae7af74d885898b85cbb543ae51b63&#45;&gt;dir_4c8befd6991d7a2e9d66c427274b8c22 -->
<g id="edge7" class="edge">
<title>dir_18ae7af74d885898b85cbb543ae51b63&#45;&gt;dir_4c8befd6991d7a2e9d66c427274b8c22</title>
<path fill="none" stroke="#63b8ff" d="M317.18,-125.66C333.97,-107.54 372.51,-65.91 393.93,-42.77"/>
<polygon fill="#63b8ff" stroke="#63b8ff" points="396.76,-44.87 400.98,-35.16 391.62,-40.12 396.76,-44.87"/>
<g id="a_edge7&#45;headlabel"><a xlink:href="dir_000032_000028.html" target="_top" xlink:title="18">
<text text-anchor="middle" x="396.4" y="-46.94" font-family="Helvetica,sans-Serif" font-size="10.00" fill="#63b8ff">18</text>
</a>
</g>
</g>
<!-- dir_18ae7af74d885898b85cbb543ae51b63&#45;&gt;dir_4f691f982165d1317925cee58b4b4f56 -->
<g id="edge8" class="edge">
<title>dir_18ae7af74d885898b85cbb543ae51b63&#45;&gt;dir_4f691f982165d1317925cee58b4b4f56</title>
<path fill="none" stroke="#63b8ff" d="M321.03,-125.99C333.16,-117.28 352.27,-103.19 368,-90 381.49,-78.68 382.59,-73.12 397,-63 409.96,-53.9 425.5,-45.65 438.73,-39.31"/>
<polygon fill="#63b8ff" stroke="#63b8ff" points="440.3,-42.44 447.88,-35.04 437.34,-36.09 440.3,-42.44"/>
<g id="a_edge8&#45;headlabel"><a xlink:href="dir_000032_000039.html" target="_top" xlink:title="18">
<text text-anchor="middle" x="438.24" y="-44.03" font-family="Helvetica,sans-Serif" font-size="10.00" fill="#63b8ff">18</text>
</a>
</g>
</g>
<!-- dir_18ae7af74d885898b85cbb543ae51b63&#45;&gt;dir_5427940bb9029915fc0c11c1284afde6 -->
<g id="edge9" class="edge">
<title>dir_18ae7af74d885898b85cbb543ae51b63&#45;&gt;dir_5427940bb9029915fc0c11c1284afde6</title>
<path fill="none" stroke="#63b8ff" d="M327.26,-125.96C343.68,-117.85 368.05,-104.75 387,-90 400.15,-79.77 398.73,-71.59 413,-63 420.83,-58.29 468.08,-45.31 502.66,-36.18"/>
<polygon fill="#63b8ff" stroke="#63b8ff" points="503.7,-39.52 512.49,-33.59 501.92,-32.75 503.7,-39.52"/>
<g id="a_edge9&#45;headlabel"><a xlink:href="dir_000032_000015.html" target="_top" xlink:title="14">
<text text-anchor="middle" x="500.95" y="-40.68" font-family="Helvetica,sans-Serif" font-size="10.00" fill="#63b8ff">14</text>
</a>
</g>
</g>
<!-- dir_18ae7af74d885898b85cbb543ae51b63&#45;&gt;dir_654fcaaa959505712bb2ecafa3e1042f -->
<g id="edge10" class="edge">
<title>dir_18ae7af74d885898b85cbb543ae51b63&#45;&gt;dir_654fcaaa959505712bb2ecafa3e1042f</title>
<path fill="none" stroke="#63b8ff" d="M329.4,-125.98C351.86,-116.61 387.93,-101.56 411.79,-91.6"/>
<polygon fill="#63b8ff" stroke="#63b8ff" points="413.32,-94.76 421.2,-87.68 410.62,-88.3 413.32,-94.76"/>
<g id="a_edge10&#45;headlabel"><a xlink:href="dir_000032_000045.html" target="_top" xlink:title="1">
<text text-anchor="middle" x="411.1" y="-96.26" font-family="Helvetica,sans-Serif" font-size="10.00" fill="#63b8ff">1</text>
</a>
</g>
</g>
<!-- dir_18ae7af74d885898b85cbb543ae51b63&#45;&gt;dir_dee301ab18d354d094fb7852349ef839 -->
<g id="edge12" class="edge">
<title>dir_18ae7af74d885898b85cbb543ae51b63&#45;&gt;dir_dee301ab18d354d094fb7852349ef839</title>
<path fill="none" stroke="#63b8ff" d="M314.45,-126C319.77,-117.3 327.67,-103.22 332,-90 336.78,-75.4 339.31,-58.14 340.63,-45.3"/>
<polygon fill="#63b8ff" stroke="#63b8ff" points="344.12,-45.6 341.5,-35.34 337.15,-44.99 344.12,-45.6"/>
<g id="a_edge12&#45;headlabel"><a xlink:href="dir_000032_000010.html" target="_top" xlink:title="9">
<text text-anchor="middle" x="346.63" y="-46.93" font-family="Helvetica,sans-Serif" font-size="10.00" fill="#63b8ff">9</text>
</a>
</g>
</g>
<!-- dir_188b878fa4ae0872503cd2ce8b484e62 -->
<g id="node13" class="node">
<title>dir_188b878fa4ae0872503cd2ce8b484e62</title>
<g id="a_node13"><a xlink:href="dir_188b878fa4ae0872503cd2ce8b484e62.html" target="_top" xlink:title="rpc">
<polygon fill="#a2b4d6" stroke="#404040" points="323,-90 291,-90 291,-71 323,-71 323,-90"/>
<text text-anchor="middle" x="307" y="-78" font-family="Helvetica,sans-Serif" font-size="10.00">rpc</text>
</a>
</g>
</g>
<!-- dir_18ae7af74d885898b85cbb543ae51b63&#45;&gt;dir_188b878fa4ae0872503cd2ce8b484e62 -->
<g id="edge2" class="edge">
<title>dir_18ae7af74d885898b85cbb543ae51b63&#45;&gt;dir_188b878fa4ae0872503cd2ce8b484e62</title>
<path fill="none" stroke="#63b8ff" d="M308.67,-125.75C308.41,-118.8 308.03,-108.85 307.7,-100.13"/>
<polygon fill="#63b8ff" stroke="#63b8ff" points="311.2,-99.95 307.32,-90.09 304.2,-100.21 311.2,-99.95"/>
<g id="a_edge2&#45;headlabel"><a xlink:href="dir_000032_000035.html" target="_top" xlink:title="7">
<text text-anchor="middle" x="314.17" y="-100.93" font-family="Helvetica,sans-Serif" font-size="10.00" fill="#63b8ff">7</text>
</a>
</g>
</g>
<!-- dir_d44c64559bbebec7f509842c48db8b23 -->
<g id="node14" class="node">
<title>dir_d44c64559bbebec7f509842c48db8b23</title>
<g id="a_node14"><a xlink:href="dir_d44c64559bbebec7f509842c48db8b23.html" target="_top" xlink:title="include">
<polygon fill="#edf0f7" stroke="red" points="638,-35 586,-35 586,-16 638,-16 638,-35"/>
<text text-anchor="middle" x="612" y="-23" font-family="Helvetica,sans-Serif" font-size="10.00">include</text>
</a>
</g>
</g>
<!-- dir_18ae7af74d885898b85cbb543ae51b63&#45;&gt;dir_d44c64559bbebec7f509842c48db8b23 -->
<g id="edge11" class="edge">
<title>dir_18ae7af74d885898b85cbb543ae51b63&#45;&gt;dir_d44c64559bbebec7f509842c48db8b23</title>
<path fill="none" stroke="#63b8ff" d="M329.57,-133.54C369.96,-131 461.73,-121.88 531,-90 556.47,-78.28 581.16,-57.06 596.44,-42.4"/>
<polygon fill="#63b8ff" stroke="#63b8ff" points="599.25,-44.54 603.92,-35.03 594.34,-39.56 599.25,-44.54"/>
<g id="a_edge11&#45;headlabel"><a xlink:href="dir_000032_000021.html" target="_top" xlink:title="122">
<text text-anchor="middle" x="598.69" y="-46.59" font-family="Helvetica,sans-Serif" font-size="10.00" fill="#63b8ff">122</text>
</a>
</g>
</g>
<!-- dir_188b878fa4ae0872503cd2ce8b484e62&#45;&gt;dir_122f4add68bb94b3fee614989bbbd8f9 -->
<g id="edge13" class="edge">
<title>dir_188b878fa4ae0872503cd2ce8b484e62&#45;&gt;dir_122f4add68bb94b3fee614989bbbd8f9</title>
<path fill="none" stroke="#63b8ff" d="M298.33,-70.67C295.04,-67.79 291.1,-64.87 287,-63 221.34,-33.05 195.04,-52.13 120.44,-34.58"/>
<polygon fill="#63b8ff" stroke="#63b8ff" points="121.15,-31.15 110.6,-32.13 119.45,-37.95 121.15,-31.15"/>
<g id="a_edge13&#45;headlabel"><a xlink:href="dir_000035_000014.html" target="_top" xlink:title="2">
<text text-anchor="middle" x="125.32" y="-26.77" font-family="Helvetica,sans-Serif" font-size="10.00" fill="#63b8ff">2</text>
</a>
</g>
</g>
<!-- dir_188b878fa4ae0872503cd2ce8b484e62&#45;&gt;dir_2d29d7dff7c7baf1180920f6796c23ae -->
<g id="edge14" class="edge">
<title>dir_188b878fa4ae0872503cd2ce8b484e62&#45;&gt;dir_2d29d7dff7c7baf1180920f6796c23ae</title>
<path fill="none" stroke="#63b8ff" d="M298.25,-70.84C294.95,-67.98 291.02,-65.02 287,-63 243.49,-41.1 225.9,-48.02 175.13,-35.08"/>
<polygon fill="#63b8ff" stroke="#63b8ff" points="175.82,-31.64 165.25,-32.42 174,-38.4 175.82,-31.64"/>
<g id="a_edge14&#45;headlabel"><a xlink:href="dir_000035_000019.html" target="_top" xlink:title="2">
<text text-anchor="middle" x="180.03" y="-27.33" font-family="Helvetica,sans-Serif" font-size="10.00" fill="#63b8ff">2</text>
</a>
</g>
</g>
<!-- dir_188b878fa4ae0872503cd2ce8b484e62&#45;&gt;dir_3dcea8250b5ce8d5bc595fbbad3e8f21 -->
<g id="edge15" class="edge">
<title>dir_188b878fa4ae0872503cd2ce8b484e62&#45;&gt;dir_3dcea8250b5ce8d5bc595fbbad3e8f21</title>
<path fill="none" stroke="#63b8ff" d="M297.67,-70.82C294.45,-68.1 290.71,-65.22 287,-63 275.69,-56.23 244.5,-43.93 222.24,-35.5"/>
<polygon fill="#63b8ff" stroke="#63b8ff" points="223.33,-32.17 212.74,-31.93 220.87,-38.72 223.33,-32.17"/>
<g id="a_edge15&#45;headlabel"><a xlink:href="dir_000035_000024.html" target="_top" xlink:title="1">
<text text-anchor="middle" x="227.7" y="-28.28" font-family="Helvetica,sans-Serif" font-size="10.00" fill="#63b8ff">1</text>
</a>
</g>
</g>
<!-- dir_188b878fa4ae0872503cd2ce8b484e62&#45;&gt;dir_4261af1259721e3e39e0d2dd7354b511 -->
<g id="edge16" class="edge">
<title>dir_188b878fa4ae0872503cd2ce8b484e62&#45;&gt;dir_4261af1259721e3e39e0d2dd7354b511</title>
<path fill="none" stroke="#63b8ff" d="M298.76,-70.93C295.4,-67.94 291.29,-64.86 287,-63 201.55,-25.89 168.74,-51.78 73.7,-35.04"/>
<polygon fill="#63b8ff" stroke="#63b8ff" points="74.16,-31.56 63.69,-33.16 72.87,-38.44 74.16,-31.56"/>
<g id="a_edge16&#45;headlabel"><a xlink:href="dir_000035_000012.html" target="_top" xlink:title="2">
<text text-anchor="middle" x="78.22" y="-26.94" font-family="Helvetica,sans-Serif" font-size="10.00" fill="#63b8ff">2</text>
</a>
</g>
</g>
<!-- dir_188b878fa4ae0872503cd2ce8b484e62&#45;&gt;dir_4c8befd6991d7a2e9d66c427274b8c22 -->
<g id="edge17" class="edge">
<title>dir_188b878fa4ae0872503cd2ce8b484e62&#45;&gt;dir_4c8befd6991d7a2e9d66c427274b8c22</title>
<path fill="none" stroke="#63b8ff" d="M316.37,-70.89C319.59,-68.16 323.33,-65.27 327,-63 345.43,-51.59 368.05,-41.8 384.86,-35.24"/>
<polygon fill="#63b8ff" stroke="#63b8ff" points="386.38,-38.41 394.48,-31.59 383.89,-31.86 386.38,-38.41"/>
<g id="a_edge17&#45;headlabel"><a xlink:href="dir_000035_000028.html" target="_top" xlink:title="4">
<text text-anchor="middle" x="384.02" y="-39.84" font-family="Helvetica,sans-Serif" font-size="10.00" fill="#63b8ff">4</text>
</a>
</g>
</g>
<!-- dir_188b878fa4ae0872503cd2ce8b484e62&#45;&gt;dir_4f691f982165d1317925cee58b4b4f56 -->
<g id="edge18" class="edge">
<title>dir_188b878fa4ae0872503cd2ce8b484e62&#45;&gt;dir_4f691f982165d1317925cee58b4b4f56</title>
<path fill="none" stroke="#63b8ff" d="M315.76,-70.86C319.06,-68.01 322.99,-65.04 327,-63 331.76,-60.57 391.8,-45.41 431.98,-35.41"/>
<polygon fill="#63b8ff" stroke="#63b8ff" points="432.86,-38.8 441.72,-32.99 431.17,-32.01 432.86,-38.8"/>
<g id="a_edge18&#45;headlabel"><a xlink:href="dir_000035_000039.html" target="_top" xlink:title="5">
<text text-anchor="middle" x="430.06" y="-39.92" font-family="Helvetica,sans-Serif" font-size="10.00" fill="#63b8ff">5</text>
</a>
</g>
</g>
<!-- dir_188b878fa4ae0872503cd2ce8b484e62&#45;&gt;dir_5427940bb9029915fc0c11c1284afde6 -->
<g id="edge19" class="edge">
<title>dir_188b878fa4ae0872503cd2ce8b484e62&#45;&gt;dir_5427940bb9029915fc0c11c1284afde6</title>
<path fill="none" stroke="#63b8ff" d="M315.27,-70.99C318.63,-68.01 322.73,-64.93 327,-63 396.38,-31.7 423.14,-48.64 502.25,-34.94"/>
<polygon fill="#63b8ff" stroke="#63b8ff" points="502.96,-38.36 512.16,-33.11 501.69,-31.48 502.96,-38.36"/>
<g id="a_edge19&#45;headlabel"><a xlink:href="dir_000035_000015.html" target="_top" xlink:title="7">
<text text-anchor="middle" x="499.94" y="-39.31" font-family="Helvetica,sans-Serif" font-size="10.00" fill="#63b8ff">7</text>
</a>
</g>
</g>
<!-- dir_188b878fa4ae0872503cd2ce8b484e62&#45;&gt;dir_dee301ab18d354d094fb7852349ef839 -->
<g id="edge21" class="edge">
<title>dir_188b878fa4ae0872503cd2ce8b484e62&#45;&gt;dir_dee301ab18d354d094fb7852349ef839</title>
<path fill="none" stroke="#63b8ff" d="M312.78,-70.75C317.62,-63.42 324.68,-52.73 330.64,-43.7"/>
<polygon fill="#63b8ff" stroke="#63b8ff" points="333.74,-45.36 336.33,-35.09 327.9,-41.5 333.74,-45.36"/>
<g id="a_edge21&#45;headlabel"><a xlink:href="dir_000035_000010.html" target="_top" xlink:title="2">
<text text-anchor="middle" x="334.13" y="-47.43" font-family="Helvetica,sans-Serif" font-size="10.00" fill="#63b8ff">2</text>
</a>
</g>
</g>
<!-- dir_188b878fa4ae0872503cd2ce8b484e62&#45;&gt;dir_fdedb0aba14d44ce9d99bc100e026e6a -->
<g id="edge22" class="edge">
<title>dir_188b878fa4ae0872503cd2ce8b484e62&#45;&gt;dir_fdedb0aba14d44ce9d99bc100e026e6a</title>
<path fill="none" stroke="#63b8ff" d="M299.24,-70.75C292.53,-63.18 282.66,-52.05 274.49,-42.84"/>
<polygon fill="#63b8ff" stroke="#63b8ff" points="276.87,-40.25 267.62,-35.09 271.63,-44.89 276.87,-40.25"/>
<g id="a_edge22&#45;headlabel"><a xlink:href="dir_000035_000009.html" target="_top" xlink:title="1">
<text text-anchor="middle" x="281.38" y="-38.55" font-family="Helvetica,sans-Serif" font-size="10.00" fill="#63b8ff">1</text>
</a>
</g>
</g>
<!-- dir_188b878fa4ae0872503cd2ce8b484e62&#45;&gt;dir_d44c64559bbebec7f509842c48db8b23 -->
<g id="edge20" class="edge">
<title>dir_188b878fa4ae0872503cd2ce8b484e62&#45;&gt;dir_d44c64559bbebec7f509842c48db8b23</title>
<path fill="none" stroke="#63b8ff" d="M315.22,-70.88C318.58,-67.89 322.69,-64.82 327,-63 428.15,-20.23 466.54,-53.71 575.79,-35.57"/>
<polygon fill="#63b8ff" stroke="#63b8ff" points="576.64,-38.97 585.88,-33.78 575.42,-32.08 576.64,-38.97"/>
<g id="a_edge20&#45;headlabel"><a xlink:href="dir_000035_000021.html" target="_top" xlink:title="59">
<text text-anchor="middle" x="573.6" y="-39.89" font-family="Helvetica,sans-Serif" font-size="10.00" fill="#63b8ff">59</text>
</a>
</g>
</g>
</g>
</svg>
