<?xml version="1.0" encoding="UTF-8" standalone="no"?>
<!DOCTYPE svg PUBLIC "-//W3C//DTD SVG 1.1//EN"
 "http://www.w3.org/Graphics/SVG/1.1/DTD/svg11.dtd">
<!-- Generated by graphviz version 2.43.0 (0)
 -->
<!-- Title: src/endpoints Pages: 1 -->
<svg width="358pt" height="141pt"
 viewBox="0.00 0.00 358.00 141.00" xmlns="http://www.w3.org/2000/svg" xmlns:xlink="http://www.w3.org/1999/xlink">
<g id="graph0" class="graph" transform="scale(1 1) rotate(0) translate(4 137)">
<title>src/endpoints</title>
<g id="clust1" class="cluster">
<title>clusterdir_68267d1309a1af8e8297ef4c3efbcdba</title>
<g id="a_clust1"><a xlink:href="dir_68267d1309a1af8e8297ef4c3efbcdba.html" target="_top" xlink:title="src">
<polygon fill="#edf0f7" stroke="#404040" stroke-dasharray="5,2" points="8,-8 8,-125 288,-125 288,-8 8,-8"/>
<text text-anchor="middle" x="148" y="-113" font-family="Helvetica,sans-Serif" font-size="10.00">src</text>
</a>
</g>
</g>
<g id="clust2" class="cluster">
<title>clusterdir_a2b23ad3d4048fef2ffce6bed40d1385</title>
<g id="a_clust2"><a xlink:href="dir_a2b23ad3d4048fef2ffce6bed40d1385.html" target="_top">
<polygon fill="#edf0f7" stroke="#404040" stroke-width="2" points="93,-63 93,-98 280,-98 280,-63 93,-63"/>
</a>
</g>
</g>
<!-- dir_122f4add68bb94b3fee614989bbbd8f9 -->
<g id="node1" class="node">
<title>dir_122f4add68bb94b3fee614989bbbd8f9</title>
<g id="a_node1"><a xlink:href="dir_122f4add68bb94b3fee614989bbbd8f9.html" target="_top" xlink:title="ds">
<polygon fill="#a2b4d6" stroke="#404040" points="279.5,-35 250.5,-35 250.5,-16 279.5,-16 279.5,-35"/>
<text text-anchor="middle" x="265" y="-23" font-family="Helvetica,sans-Serif" font-size="10.00">ds</text>
</a>
</g>
</g>
<!-- dir_18ae7af74d885898b85cbb543ae51b63 -->
<g id="node2" class="node">
<title>dir_18ae7af74d885898b85cbb543ae51b63</title>
<g id="a_node2"><a xlink:href="dir_18ae7af74d885898b85cbb543ae51b63.html" target="_top" xlink:title="node">
<polygon fill="#a2b4d6" stroke="red" points="130.5,-35 89.5,-35 89.5,-16 130.5,-16 130.5,-35"/>
<text text-anchor="middle" x="110" y="-23" font-family="Helvetica,sans-Serif" font-size="10.00">node</text>
</a>
</g>
</g>
<!-- dir_2d29d7dff7c7baf1180920f6796c23ae -->
<g id="node3" class="node">
<title>dir_2d29d7dff7c7baf1180920f6796c23ae</title>
<g id="a_node3"><a xlink:href="dir_2d29d7dff7c7baf1180920f6796c23ae.html" target="_top" xlink:title="http">
<polygon fill="#a2b4d6" stroke="#404040" points="232,-35 196,-35 196,-16 232,-16 232,-35"/>
<text text-anchor="middle" x="214" y="-23" font-family="Helvetica,sans-Serif" font-size="10.00">http</text>
</a>
</g>
</g>
<!-- dir_4c8befd6991d7a2e9d66c427274b8c22 -->
<g id="node4" class="node">
<title>dir_4c8befd6991d7a2e9d66c427274b8c22</title>
<g id="a_node4"><a xlink:href="dir_4c8befd6991d7a2e9d66c427274b8c22.html" target="_top" xlink:title="kv">
<polygon fill="#a2b4d6" stroke="#404040" points="177.5,-35 148.5,-35 148.5,-16 177.5,-16 177.5,-35"/>
<text text-anchor="middle" x="163" y="-23" font-family="Helvetica,sans-Serif" font-size="10.00">kv</text>
</a>
</g>
</g>
<!-- dir_5427940bb9029915fc0c11c1284afde6 -->
<g id="node5" class="node">
<title>dir_5427940bb9029915fc0c11c1284afde6</title>
<g id="a_node5"><a xlink:href="dir_5427940bb9029915fc0c11c1284afde6.html" target="_top" xlink:title="enclave">
<polygon fill="#a2b4d6" stroke="#404040" points="71.5,-35 16.5,-35 16.5,-16 71.5,-16 71.5,-35"/>
<text text-anchor="middle" x="44" y="-23" font-family="Helvetica,sans-Serif" font-size="10.00">enclave</text>
</a>
</g>
</g>
<!-- dir_a2b23ad3d4048fef2ffce6bed40d1385 -->
<g id="node6" class="node">
<title>dir_a2b23ad3d4048fef2ffce6bed40d1385</title>
<text text-anchor="middle" x="134" y="-78" font-family="Helvetica,sans-Serif" font-size="10.00">endpoints</text>
</g>
<!-- dir_a2b23ad3d4048fef2ffce6bed40d1385&#45;&gt;dir_18ae7af74d885898b85cbb543ae51b63 -->
<g id="edge1" class="edge">
<title>dir_a2b23ad3d4048fef2ffce6bed40d1385&#45;&gt;dir_18ae7af74d885898b85cbb543ae51b63</title>
<path fill="none" stroke="#63b8ff" d="M130.04,-70.75C126.79,-63.57 122.08,-53.18 118.05,-44.27"/>
<polygon fill="#63b8ff" stroke="#63b8ff" points="121.2,-42.75 113.89,-35.09 114.83,-45.64 121.2,-42.75"/>
<g id="a_edge1&#45;headlabel"><a xlink:href="dir_000017_000032.html" target="_top" xlink:title="4">
<text text-anchor="middle" x="125.27" y="-42.36" font-family="Helvetica,sans-Serif" font-size="10.00" fill="#63b8ff">4</text>
</a>
</g>
</g>
<!-- dir_a2b23ad3d4048fef2ffce6bed40d1385&#45;&gt;dir_2d29d7dff7c7baf1180920f6796c23ae -->
<g id="edge2" class="edge">
<title>dir_a2b23ad3d4048fef2ffce6bed40d1385&#45;&gt;dir_2d29d7dff7c7baf1180920f6796c23ae</title>
<path fill="none" stroke="#63b8ff" d="M146.85,-70.98C159.14,-62.84 177.91,-50.41 192.48,-40.76"/>
<polygon fill="#63b8ff" stroke="#63b8ff" points="194.51,-43.61 200.91,-35.17 190.64,-37.78 194.51,-43.61"/>
<g id="a_edge2&#45;headlabel"><a xlink:href="dir_000017_000019.html" target="_top" xlink:title="4">
<text text-anchor="middle" x="193.08" y="-45.46" font-family="Helvetica,sans-Serif" font-size="10.00" fill="#63b8ff">4</text>
</a>
</g>
</g>
<!-- dir_a2b23ad3d4048fef2ffce6bed40d1385&#45;&gt;dir_4c8befd6991d7a2e9d66c427274b8c22 -->
<g id="edge3" class="edge">
<title>dir_a2b23ad3d4048fef2ffce6bed40d1385&#45;&gt;dir_4c8befd6991d7a2e9d66c427274b8c22</title>
<path fill="none" stroke="#63b8ff" d="M138.79,-70.75C142.76,-63.49 148.53,-52.95 153.43,-43.98"/>
<polygon fill="#63b8ff" stroke="#63b8ff" points="156.57,-45.54 158.3,-35.09 150.43,-42.18 156.57,-45.54"/>
<g id="a_edge3&#45;headlabel"><a xlink:href="dir_000017_000028.html" target="_top" xlink:title="1">
<text text-anchor="middle" x="157.34" y="-47.56" font-family="Helvetica,sans-Serif" font-size="10.00" fill="#63b8ff">1</text>
</a>
</g>
</g>
<!-- dir_a2b23ad3d4048fef2ffce6bed40d1385&#45;&gt;dir_5427940bb9029915fc0c11c1284afde6 -->
<g id="edge4" class="edge">
<title>dir_a2b23ad3d4048fef2ffce6bed40d1385&#45;&gt;dir_5427940bb9029915fc0c11c1284afde6</title>
<path fill="none" stroke="#63b8ff" d="M119.54,-70.98C105.58,-62.77 84.21,-50.18 67.75,-40.49"/>
<polygon fill="#63b8ff" stroke="#63b8ff" points="69.12,-37.23 58.72,-35.17 65.56,-43.26 69.12,-37.23"/>
<g id="a_edge4&#45;headlabel"><a xlink:href="dir_000017_000015.html" target="_top" xlink:title="1">
<text text-anchor="middle" x="73.65" y="-34.11" font-family="Helvetica,sans-Serif" font-size="10.00" fill="#63b8ff">1</text>
</a>
</g>
</g>
<!-- dir_d44c64559bbebec7f509842c48db8b23 -->
<g id="node8" class="node">
<title>dir_d44c64559bbebec7f509842c48db8b23</title>
<g id="a_node8"><a xlink:href="dir_d44c64559bbebec7f509842c48db8b23.html" target="_top" xlink:title="include">
<polygon fill="#edf0f7" stroke="red" points="350,-35 298,-35 298,-16 350,-16 350,-35"/>
<text text-anchor="middle" x="324" y="-23" font-family="Helvetica,sans-Serif" font-size="10.00">include</text>
</a>
</g>
</g>
<!-- dir_a2b23ad3d4048fef2ffce6bed40d1385&#45;&gt;dir_d44c64559bbebec7f509842c48db8b23 -->
<g id="edge5" class="edge">
<title>dir_a2b23ad3d4048fef2ffce6bed40d1385&#45;&gt;dir_d44c64559bbebec7f509842c48db8b23</title>
<path fill="none" stroke="#63b8ff" d="M154.31,-70.87C161.13,-68.15 168.83,-65.26 176,-63 223.52,-48.01 238.76,-47.97 287.88,-35.98"/>
<polygon fill="#63b8ff" stroke="#63b8ff" points="288.96,-39.32 297.82,-33.51 287.27,-32.53 288.96,-39.32"/>
<g id="a_edge5&#45;headlabel"><a xlink:href="dir_000017_000021.html" target="_top" xlink:title="37">
<text text-anchor="middle" x="286.16" y="-40.44" font-family="Helvetica,sans-Serif" font-size="10.00" fill="#63b8ff">37</text>
</a>
</g>
</g>
<!-- dir_100cae52b844ec0b520b7e5b8ea8fe4b -->
<g id="node7" class="node">
<title>dir_100cae52b844ec0b520b7e5b8ea8fe4b</title>
<g id="a_node7"><a xlink:href="dir_100cae52b844ec0b520b7e5b8ea8fe4b.html" target="_top" xlink:title="authentication">
<polygon fill="#a2b4d6" stroke="#404040" points="271.5,-90 184.5,-90 184.5,-71 271.5,-71 271.5,-90"/>
<text text-anchor="middle" x="228" y="-78" font-family="Helvetica,sans-Serif" font-size="10.00">authentication</text>
</a>
</g>
</g>
<!-- dir_100cae52b844ec0b520b7e5b8ea8fe4b&#45;&gt;dir_122f4add68bb94b3fee614989bbbd8f9 -->
<g id="edge6" class="edge">
<title>dir_100cae52b844ec0b520b7e5b8ea8fe4b&#45;&gt;dir_122f4add68bb94b3fee614989bbbd8f9</title>
<path fill="none" stroke="#63b8ff" d="M234.11,-70.75C239.28,-63.34 246.85,-52.5 253.19,-43.41"/>
<polygon fill="#63b8ff" stroke="#63b8ff" points="256.15,-45.29 259,-35.09 250.41,-41.29 256.15,-45.29"/>
<g id="a_edge6&#45;headlabel"><a xlink:href="dir_000005_000014.html" target="_top" xlink:title="1">
<text text-anchor="middle" x="256.42" y="-47.36" font-family="Helvetica,sans-Serif" font-size="10.00" fill="#63b8ff">1</text>
</a>
</g>
</g>
<!-- dir_100cae52b844ec0b520b7e5b8ea8fe4b&#45;&gt;dir_2d29d7dff7c7baf1180920f6796c23ae -->
<g id="edge7" class="edge">
<title>dir_100cae52b844ec0b520b7e5b8ea8fe4b&#45;&gt;dir_2d29d7dff7c7baf1180920f6796c23ae</title>
<path fill="none" stroke="#63b8ff" d="M225.69,-70.75C223.83,-63.72 221.16,-53.62 218.85,-44.84"/>
<polygon fill="#63b8ff" stroke="#63b8ff" points="222.21,-43.86 216.27,-35.09 215.44,-45.65 222.21,-43.86"/>
<g id="a_edge7&#45;headlabel"><a xlink:href="dir_000005_000019.html" target="_top" xlink:title="2">
<text text-anchor="middle" x="225.87" y="-44.11" font-family="Helvetica,sans-Serif" font-size="10.00" fill="#63b8ff">2</text>
</a>
</g>
</g>
<!-- dir_100cae52b844ec0b520b7e5b8ea8fe4b&#45;&gt;dir_d44c64559bbebec7f509842c48db8b23 -->
<g id="edge8" class="edge">
<title>dir_100cae52b844ec0b520b7e5b8ea8fe4b&#45;&gt;dir_d44c64559bbebec7f509842c48db8b23</title>
<path fill="none" stroke="#63b8ff" d="M243.42,-70.98C258.45,-62.69 281.54,-49.94 299.16,-40.22"/>
<polygon fill="#63b8ff" stroke="#63b8ff" points="301.23,-43.07 308.3,-35.17 297.85,-36.94 301.23,-43.07"/>
<g id="a_edge8&#45;headlabel"><a xlink:href="dir_000005_000021.html" target="_top" xlink:title="17">
<text text-anchor="middle" x="299.46" y="-44.79" font-family="Helvetica,sans-Serif" font-size="10.00" fill="#63b8ff">17</text>
</a>
</g>
</g>
</g>
</svg>
