<?xml version="1.0" encoding="UTF-8" standalone="no"?>
<!DOCTYPE svg PUBLIC "-//W3C//DTD SVG 1.1//EN"
 "http://www.w3.org/Graphics/SVG/1.1/DTD/svg11.dtd">
<!-- Generated by graphviz version 2.43.0 (0)
 -->
<!-- Title: src/apps Pages: 1 -->
<svg width="584pt" height="141pt"
 viewBox="0.00 0.00 584.00 141.00" xmlns="http://www.w3.org/2000/svg" xmlns:xlink="http://www.w3.org/1999/xlink">
<g id="graph0" class="graph" transform="scale(1 1) rotate(0) translate(4 137)">
<title>src/apps</title>
<g id="clust1" class="cluster">
<title>clusterdir_68267d1309a1af8e8297ef4c3efbcdba</title>
<g id="a_clust1"><a xlink:href="dir_68267d1309a1af8e8297ef4c3efbcdba.html" target="_top" xlink:title="src">
<polygon fill="#edf0f7" stroke="#404040" stroke-dasharray="5,2" points="8,-8 8,-125 514,-125 514,-8 8,-8"/>
<text text-anchor="middle" x="261" y="-113" font-family="Helvetica,sans-Serif" font-size="10.00">src</text>
</a>
</g>
</g>
<g id="clust2" class="cluster">
<title>clusterdir_53adf0b982dc8545998aae3f283a5a58</title>
<g id="a_clust2"><a xlink:href="dir_53adf0b982dc8545998aae3f283a5a58.html" target="_top">
<polygon fill="#edf0f7" stroke="#404040" stroke-width="2" points="155,-63 155,-98 411,-98 411,-63 155,-63"/>
</a>
</g>
</g>
<!-- dir_122f4add68bb94b3fee614989bbbd8f9 -->
<g id="node1" class="node">
<title>dir_122f4add68bb94b3fee614989bbbd8f9</title>
<g id="a_node1"><a xlink:href="dir_122f4add68bb94b3fee614989bbbd8f9.html" target="_top" xlink:title="ds">
<polygon fill="#a2b4d6" stroke="#404040" points="438.5,-35 409.5,-35 409.5,-16 438.5,-16 438.5,-35"/>
<text text-anchor="middle" x="424" y="-23" font-family="Helvetica,sans-Serif" font-size="10.00">ds</text>
</a>
</g>
</g>
<!-- dir_44454380e89751d088dd05c94905df2f -->
<g id="node2" class="node">
<title>dir_44454380e89751d088dd05c94905df2f</title>
<g id="a_node2"><a xlink:href="dir_44454380e89751d088dd05c94905df2f.html" target="_top" xlink:title="clients">
<polygon fill="#a2b4d6" stroke="red" points="505.5,-35 456.5,-35 456.5,-16 505.5,-16 505.5,-35"/>
<text text-anchor="middle" x="481" y="-23" font-family="Helvetica,sans-Serif" font-size="10.00">clients</text>
</a>
</g>
</g>
<!-- dir_3dcea8250b5ce8d5bc595fbbad3e8f21 -->
<g id="node3" class="node">
<title>dir_3dcea8250b5ce8d5bc595fbbad3e8f21</title>
<g id="a_node3"><a xlink:href="dir_3dcea8250b5ce8d5bc595fbbad3e8f21.html" target="_top" xlink:title="js">
<polygon fill="#a2b4d6" stroke="#404040" points="45.5,-35 16.5,-35 16.5,-16 45.5,-16 45.5,-35"/>
<text text-anchor="middle" x="31" y="-23" font-family="Helvetica,sans-Serif" font-size="10.00">js</text>
</a>
</g>
</g>
<!-- dir_4c8befd6991d7a2e9d66c427274b8c22 -->
<g id="node4" class="node">
<title>dir_4c8befd6991d7a2e9d66c427274b8c22</title>
<g id="a_node4"><a xlink:href="dir_4c8befd6991d7a2e9d66c427274b8c22.html" target="_top" xlink:title="kv">
<polygon fill="#a2b4d6" stroke="#404040" points="92.5,-35 63.5,-35 63.5,-16 92.5,-16 92.5,-35"/>
<text text-anchor="middle" x="78" y="-23" font-family="Helvetica,sans-Serif" font-size="10.00">kv</text>
</a>
</g>
</g>
<!-- dir_18ae7af74d885898b85cbb543ae51b63 -->
<g id="node5" class="node">
<title>dir_18ae7af74d885898b85cbb543ae51b63</title>
<g id="a_node5"><a xlink:href="dir_18ae7af74d885898b85cbb543ae51b63.html" target="_top" xlink:title="node">
<polygon fill="#a2b4d6" stroke="red" points="151.5,-35 110.5,-35 110.5,-16 151.5,-16 151.5,-35"/>
<text text-anchor="middle" x="131" y="-23" font-family="Helvetica,sans-Serif" font-size="10.00">node</text>
</a>
</g>
</g>
<!-- dir_4f691f982165d1317925cee58b4b4f56 -->
<g id="node6" class="node">
<title>dir_4f691f982165d1317925cee58b4b4f56</title>
<g id="a_node6"><a xlink:href="dir_4f691f982165d1317925cee58b4b4f56.html" target="_top" xlink:title="service">
<polygon fill="#a2b4d6" stroke="red" points="222,-35 170,-35 170,-16 222,-16 222,-35"/>
<text text-anchor="middle" x="196" y="-23" font-family="Helvetica,sans-Serif" font-size="10.00">service</text>
</a>
</g>
</g>
<!-- dir_84e79ac80b913c2fb5b9e077744e9498 -->
<g id="node7" class="node">
<title>dir_84e79ac80b913c2fb5b9e077744e9498</title>
<g id="a_node7"><a xlink:href="dir_84e79ac80b913c2fb5b9e077744e9498.html" target="_top" xlink:title="host">
<polygon fill="#a2b4d6" stroke="#404040" points="344,-35 306,-35 306,-16 344,-16 344,-35"/>
<text text-anchor="middle" x="325" y="-23" font-family="Helvetica,sans-Serif" font-size="10.00">host</text>
</a>
</g>
</g>
<!-- dir_654fcaaa959505712bb2ecafa3e1042f -->
<g id="node8" class="node">
<title>dir_654fcaaa959505712bb2ecafa3e1042f</title>
<g id="a_node8"><a xlink:href="dir_654fcaaa959505712bb2ecafa3e1042f.html" target="_top" xlink:title="tls">
<polygon fill="#a2b4d6" stroke="#404040" points="391.5,-35 362.5,-35 362.5,-16 391.5,-16 391.5,-35"/>
<text text-anchor="middle" x="377" y="-23" font-family="Helvetica,sans-Serif" font-size="10.00">tls</text>
</a>
</g>
</g>
<!-- dir_4261af1259721e3e39e0d2dd7354b511 -->
<g id="node9" class="node">
<title>dir_4261af1259721e3e39e0d2dd7354b511</title>
<g id="a_node9"><a xlink:href="dir_4261af1259721e3e39e0d2dd7354b511.html" target="_top" xlink:title="crypto">
<polygon fill="#a2b4d6" stroke="red" points="287.5,-35 240.5,-35 240.5,-16 287.5,-16 287.5,-35"/>
<text text-anchor="middle" x="264" y="-23" font-family="Helvetica,sans-Serif" font-size="10.00">crypto</text>
</a>
</g>
</g>
<!-- dir_53adf0b982dc8545998aae3f283a5a58 -->
<g id="node10" class="node">
<title>dir_53adf0b982dc8545998aae3f283a5a58</title>
<text text-anchor="middle" x="383" y="-78" font-family="Helvetica,sans-Serif" font-size="10.00">apps</text>
</g>
<!-- dir_17be9e3e5392a98208079abc1cb5a0b0 -->
<g id="node11" class="node">
<title>dir_17be9e3e5392a98208079abc1cb5a0b0</title>
<g id="a_node11"><a xlink:href="dir_17be9e3e5392a98208079abc1cb5a0b0.html" target="_top" xlink:title="js_generic">
<polygon fill="#a2b4d6" stroke="#404040" points="229,-90 163,-90 163,-71 229,-71 229,-90"/>
<text text-anchor="middle" x="196" y="-78" font-family="Helvetica,sans-Serif" font-size="10.00">js_generic</text>
</a>
</g>
</g>
<!-- dir_17be9e3e5392a98208079abc1cb5a0b0&#45;&gt;dir_3dcea8250b5ce8d5bc595fbbad3e8f21 -->
<g id="edge2" class="edge">
<title>dir_17be9e3e5392a98208079abc1cb5a0b0&#45;&gt;dir_3dcea8250b5ce8d5bc595fbbad3e8f21</title>
<path fill="none" stroke="#63b8ff" d="M167.3,-70.97C140.49,-62.9 99.14,-50.2 55.26,-35.32"/>
<polygon fill="#63b8ff" stroke="#63b8ff" points="56.16,-31.92 45.56,-32.01 53.89,-38.55 56.16,-31.92"/>
<g id="a_edge2&#45;headlabel"><a xlink:href="dir_000025_000024.html" target="_top" xlink:title="1">
<text text-anchor="middle" x="60.47" y="-27.9" font-family="Helvetica,sans-Serif" font-size="10.00" fill="#63b8ff">1</text>
</a>
</g>
</g>
<!-- dir_17be9e3e5392a98208079abc1cb5a0b0&#45;&gt;dir_4c8befd6991d7a2e9d66c427274b8c22 -->
<g id="edge3" class="edge">
<title>dir_17be9e3e5392a98208079abc1cb5a0b0&#45;&gt;dir_4c8befd6991d7a2e9d66c427274b8c22</title>
<path fill="none" stroke="#63b8ff" d="M177.04,-70.98C156.7,-61.85 124.34,-47.32 102.19,-37.36"/>
<polygon fill="#63b8ff" stroke="#63b8ff" points="103.36,-34.05 92.8,-33.15 100.49,-40.44 103.36,-34.05"/>
<g id="a_edge3&#45;headlabel"><a xlink:href="dir_000025_000028.html" target="_top" xlink:title="1">
<text text-anchor="middle" x="107.8" y="-30.44" font-family="Helvetica,sans-Serif" font-size="10.00" fill="#63b8ff">1</text>
</a>
</g>
</g>
<!-- dir_17be9e3e5392a98208079abc1cb5a0b0&#45;&gt;dir_18ae7af74d885898b85cbb543ae51b63 -->
<g id="edge1" class="edge">
<title>dir_17be9e3e5392a98208079abc1cb5a0b0&#45;&gt;dir_18ae7af74d885898b85cbb543ae51b63</title>
<path fill="none" stroke="#63b8ff" d="M185.56,-70.98C175.85,-63.07 161.18,-51.11 149.5,-41.58"/>
<polygon fill="#63b8ff" stroke="#63b8ff" points="151.6,-38.78 141.63,-35.17 147.17,-44.2 151.6,-38.78"/>
<g id="a_edge1&#45;headlabel"><a xlink:href="dir_000025_000032.html" target="_top" xlink:title="1">
<text text-anchor="middle" x="156.18" y="-36.35" font-family="Helvetica,sans-Serif" font-size="10.00" fill="#63b8ff">1</text>
</a>
</g>
</g>
<!-- dir_17be9e3e5392a98208079abc1cb5a0b0&#45;&gt;dir_4f691f982165d1317925cee58b4b4f56 -->
<g id="edge4" class="edge">
<title>dir_17be9e3e5392a98208079abc1cb5a0b0&#45;&gt;dir_4f691f982165d1317925cee58b4b4f56</title>
<path fill="none" stroke="#63b8ff" d="M196,-70.75C196,-63.8 196,-53.85 196,-45.13"/>
<polygon fill="#63b8ff" stroke="#63b8ff" points="199.5,-45.09 196,-35.09 192.5,-45.09 199.5,-45.09"/>
<g id="a_edge4&#45;headlabel"><a xlink:href="dir_000025_000039.html" target="_top" xlink:title="1">
<text text-anchor="middle" x="202.34" y="-46.18" font-family="Helvetica,sans-Serif" font-size="10.00" fill="#63b8ff">1</text>
</a>
</g>
</g>
<!-- dir_d44c64559bbebec7f509842c48db8b23 -->
<g id="node14" class="node">
<title>dir_d44c64559bbebec7f509842c48db8b23</title>
<g id="a_node14"><a xlink:href="dir_d44c64559bbebec7f509842c48db8b23.html" target="_top" xlink:title="include">
<polygon fill="#edf0f7" stroke="red" points="576,-35 524,-35 524,-16 576,-16 576,-35"/>
<text text-anchor="middle" x="550" y="-23" font-family="Helvetica,sans-Serif" font-size="10.00">include</text>
</a>
</g>
</g>
<!-- dir_17be9e3e5392a98208079abc1cb5a0b0&#45;&gt;dir_d44c64559bbebec7f509842c48db8b23 -->
<g id="edge5" class="edge">
<title>dir_17be9e3e5392a98208079abc1cb5a0b0&#45;&gt;dir_d44c64559bbebec7f509842c48db8b23</title>
<path fill="none" stroke="#63b8ff" d="M214.46,-70.98C221.66,-67.99 230.08,-64.91 238,-63 356.36,-34.41 393.02,-56.13 513.87,-35.57"/>
<polygon fill="#63b8ff" stroke="#63b8ff" points="514.64,-38.99 523.88,-33.8 513.43,-32.09 514.64,-38.99"/>
<g id="a_edge5&#45;headlabel"><a xlink:href="dir_000025_000021.html" target="_top" xlink:title="10">
<text text-anchor="middle" x="511.6" y="-39.91" font-family="Helvetica,sans-Serif" font-size="10.00" fill="#63b8ff">10</text>
</a>
</g>
</g>
<!-- dir_5ec96c263edeb1f5d9ccb226980a5a7c -->
<g id="node12" class="node">
<title>dir_5ec96c263edeb1f5d9ccb226980a5a7c</title>
<g id="a_node12"><a xlink:href="dir_5ec96c263edeb1f5d9ccb226980a5a7c.html" target="_top" xlink:title="js_v8">
<polygon fill="#a2b4d6" stroke="#404040" points="289,-90 247,-90 247,-71 289,-71 289,-90"/>
<text text-anchor="middle" x="268" y="-78" font-family="Helvetica,sans-Serif" font-size="10.00">js_v8</text>
</a>
</g>
</g>
<!-- dir_5ec96c263edeb1f5d9ccb226980a5a7c&#45;&gt;dir_4c8befd6991d7a2e9d66c427274b8c22 -->
<g id="edge7" class="edge">
<title>dir_5ec96c263edeb1f5d9ccb226980a5a7c&#45;&gt;dir_4c8befd6991d7a2e9d66c427274b8c22</title>
<path fill="none" stroke="#63b8ff" d="M254.37,-70.87C249.38,-68.02 243.58,-65.05 238,-63 182.63,-42.65 162.79,-51.06 102.94,-35.18"/>
<polygon fill="#63b8ff" stroke="#63b8ff" points="103.56,-31.71 92.98,-32.41 101.68,-38.46 103.56,-31.71"/>
<g id="a_edge7&#45;headlabel"><a xlink:href="dir_000026_000028.html" target="_top" xlink:title="2">
<text text-anchor="middle" x="107.78" y="-27.44" font-family="Helvetica,sans-Serif" font-size="10.00" fill="#63b8ff">2</text>
</a>
</g>
</g>
<!-- dir_5ec96c263edeb1f5d9ccb226980a5a7c&#45;&gt;dir_18ae7af74d885898b85cbb543ae51b63 -->
<g id="edge6" class="edge">
<title>dir_5ec96c263edeb1f5d9ccb226980a5a7c&#45;&gt;dir_18ae7af74d885898b85cbb543ae51b63</title>
<path fill="none" stroke="#63b8ff" d="M253.61,-70.92C248.74,-68.2 243.22,-65.3 238,-63 212.73,-51.84 182.92,-41.92 161.18,-35.25"/>
<polygon fill="#63b8ff" stroke="#63b8ff" points="162.1,-31.87 151.52,-32.33 160.08,-38.58 162.1,-31.87"/>
<g id="a_edge6&#45;headlabel"><a xlink:href="dir_000026_000032.html" target="_top" xlink:title="2">
<text text-anchor="middle" x="166.36" y="-27.69" font-family="Helvetica,sans-Serif" font-size="10.00" fill="#63b8ff">2</text>
</a>
</g>
</g>
<!-- dir_5ec96c263edeb1f5d9ccb226980a5a7c&#45;&gt;dir_4f691f982165d1317925cee58b4b4f56 -->
<g id="edge8" class="edge">
<title>dir_5ec96c263edeb1f5d9ccb226980a5a7c&#45;&gt;dir_4f691f982165d1317925cee58b4b4f56</title>
<path fill="none" stroke="#63b8ff" d="M256.43,-70.98C245.58,-63 229.12,-50.88 216.12,-41.31"/>
<polygon fill="#63b8ff" stroke="#63b8ff" points="217.91,-38.28 207.78,-35.17 213.76,-43.92 217.91,-38.28"/>
<g id="a_edge8&#45;headlabel"><a xlink:href="dir_000026_000039.html" target="_top" xlink:title="2">
<text text-anchor="middle" x="222.48" y="-35.62" font-family="Helvetica,sans-Serif" font-size="10.00" fill="#63b8ff">2</text>
</a>
</g>
</g>
<!-- dir_5ec96c263edeb1f5d9ccb226980a5a7c&#45;&gt;dir_84e79ac80b913c2fb5b9e077744e9498 -->
<g id="edge9" class="edge">
<title>dir_5ec96c263edeb1f5d9ccb226980a5a7c&#45;&gt;dir_84e79ac80b913c2fb5b9e077744e9498</title>
<path fill="none" stroke="#63b8ff" d="M277.16,-70.98C285.5,-63.23 298.03,-51.58 308.18,-42.14"/>
<polygon fill="#63b8ff" stroke="#63b8ff" points="310.74,-44.54 315.68,-35.17 305.97,-39.42 310.74,-44.54"/>
<g id="a_edge9&#45;headlabel"><a xlink:href="dir_000026_000018.html" target="_top" xlink:title="1">
<text text-anchor="middle" x="310.04" y="-46.57" font-family="Helvetica,sans-Serif" font-size="10.00" fill="#63b8ff">1</text>
</a>
</g>
</g>
<!-- dir_5ec96c263edeb1f5d9ccb226980a5a7c&#45;&gt;dir_654fcaaa959505712bb2ecafa3e1042f -->
<g id="edge11" class="edge">
<title>dir_5ec96c263edeb1f5d9ccb226980a5a7c&#45;&gt;dir_654fcaaa959505712bb2ecafa3e1042f</title>
<path fill="none" stroke="#63b8ff" d="M283.69,-70.95C288.57,-68.34 293.98,-65.51 299,-63 316.88,-54.06 337.36,-44.51 352.85,-37.41"/>
<polygon fill="#63b8ff" stroke="#63b8ff" points="354.58,-40.47 362.23,-33.14 351.68,-34.1 354.58,-40.47"/>
<g id="a_edge11&#45;headlabel"><a xlink:href="dir_000026_000045.html" target="_top" xlink:title="1">
<text text-anchor="middle" x="352.49" y="-42.04" font-family="Helvetica,sans-Serif" font-size="10.00" fill="#63b8ff">1</text>
</a>
</g>
</g>
<!-- dir_5ec96c263edeb1f5d9ccb226980a5a7c&#45;&gt;dir_4261af1259721e3e39e0d2dd7354b511 -->
<g id="edge12" class="edge">
<title>dir_5ec96c263edeb1f5d9ccb226980a5a7c&#45;&gt;dir_4261af1259721e3e39e0d2dd7354b511</title>
<path fill="none" stroke="#63b8ff" d="M267.34,-70.75C266.82,-63.8 266.06,-53.85 265.41,-45.13"/>
<polygon fill="#63b8ff" stroke="#63b8ff" points="268.89,-44.8 264.65,-35.09 261.91,-45.32 268.89,-44.8"/>
<g id="a_edge12&#45;headlabel"><a xlink:href="dir_000026_000012.html" target="_top" xlink:title="1">
<text text-anchor="middle" x="271.99" y="-45.67" font-family="Helvetica,sans-Serif" font-size="10.00" fill="#63b8ff">1</text>
</a>
</g>
</g>
<!-- dir_5ec96c263edeb1f5d9ccb226980a5a7c&#45;&gt;dir_d44c64559bbebec7f509842c48db8b23 -->
<g id="edge10" class="edge">
<title>dir_5ec96c263edeb1f5d9ccb226980a5a7c&#45;&gt;dir_d44c64559bbebec7f509842c48db8b23</title>
<path fill="none" stroke="#63b8ff" d="M281.42,-70.99C286.71,-68.01 292.96,-64.92 299,-63 389.4,-34.23 419.69,-52.55 513.93,-35.62"/>
<polygon fill="#63b8ff" stroke="#63b8ff" points="514.69,-39.03 523.87,-33.74 513.4,-32.15 514.69,-39.03"/>
<g id="a_edge10&#45;headlabel"><a xlink:href="dir_000026_000021.html" target="_top" xlink:title="48">
<text text-anchor="middle" x="511.68" y="-39.99" font-family="Helvetica,sans-Serif" font-size="10.00" fill="#63b8ff">48</text>
</a>
</g>
</g>
<!-- dir_42c804dea09c572d6c8990717f45801b -->
<g id="node13" class="node">
<title>dir_42c804dea09c572d6c8990717f45801b</title>
<g id="a_node13"><a xlink:href="dir_42c804dea09c572d6c8990717f45801b.html" target="_top" xlink:title="tpcc">
<polygon fill="#a2b4d6" stroke="#404040" points="344.5,-90 307.5,-90 307.5,-71 344.5,-71 344.5,-90"/>
<text text-anchor="middle" x="326" y="-78" font-family="Helvetica,sans-Serif" font-size="10.00">tpcc</text>
</a>
</g>
</g>
<!-- dir_42c804dea09c572d6c8990717f45801b&#45;&gt;dir_122f4add68bb94b3fee614989bbbd8f9 -->
<g id="edge13" class="edge">
<title>dir_42c804dea09c572d6c8990717f45801b&#45;&gt;dir_122f4add68bb94b3fee614989bbbd8f9</title>
<path fill="none" stroke="#63b8ff" d="M340.16,-70.96C344.57,-68.36 349.46,-65.52 354,-63 369.24,-54.55 386.61,-45.49 400.23,-38.51"/>
<polygon fill="#63b8ff" stroke="#63b8ff" points="402.08,-41.49 409.4,-33.83 398.91,-35.25 402.08,-41.49"/>
<g id="a_edge13&#45;headlabel"><a xlink:href="dir_000047_000014.html" target="_top" xlink:title="2">
<text text-anchor="middle" x="400.17" y="-43.15" font-family="Helvetica,sans-Serif" font-size="10.00" fill="#63b8ff">2</text>
</a>
</g>
</g>
<!-- dir_42c804dea09c572d6c8990717f45801b&#45;&gt;dir_44454380e89751d088dd05c94905df2f -->
<g id="edge14" class="edge">
<title>dir_42c804dea09c572d6c8990717f45801b&#45;&gt;dir_44454380e89751d088dd05c94905df2f</title>
<path fill="none" stroke="#63b8ff" d="M339.03,-70.9C343.63,-68.11 348.92,-65.18 354,-63 362.61,-59.3 411.95,-45.46 446.53,-35.92"/>
<polygon fill="#63b8ff" stroke="#63b8ff" points="447.57,-39.27 456.29,-33.24 445.72,-32.52 447.57,-39.27"/>
<g id="a_edge14&#45;headlabel"><a xlink:href="dir_000047_000008.html" target="_top" xlink:title="1">
<text text-anchor="middle" x="444.86" y="-40.46" font-family="Helvetica,sans-Serif" font-size="10.00" fill="#63b8ff">1</text>
</a>
</g>
</g>
<!-- dir_42c804dea09c572d6c8990717f45801b&#45;&gt;dir_d44c64559bbebec7f509842c48db8b23 -->
<g id="edge15" class="edge">
<title>dir_42c804dea09c572d6c8990717f45801b&#45;&gt;dir_d44c64559bbebec7f509842c48db8b23</title>
<path fill="none" stroke="#63b8ff" d="M338.34,-70.92C343.05,-68 348.6,-64.98 354,-63 420.32,-38.73 443.65,-49.63 513.65,-35.78"/>
<polygon fill="#63b8ff" stroke="#63b8ff" points="514.78,-39.12 523.85,-33.65 513.35,-32.27 514.78,-39.12"/>
<g id="a_edge15&#45;headlabel"><a xlink:href="dir_000047_000021.html" target="_top" xlink:title="6">
<text text-anchor="middle" x="511.84" y="-40.13" font-family="Helvetica,sans-Serif" font-size="10.00" fill="#63b8ff">6</text>
</a>
</g>
</g>
</g>
</svg>
