<?xml version="1.0" encoding="UTF-8" standalone="no"?>
<!DOCTYPE svg PUBLIC "-//W3C//DTD SVG 1.1//EN"
 "http://www.w3.org/Graphics/SVG/1.1/DTD/svg11.dtd">
<!-- Generated by graphviz version 2.43.0 (0)
 -->
<!-- Title: include/ccf/endpoints/authentication/empty_auth.h Pages: 1 -->
<svg width="1380pt" height="445pt"
 viewBox="0.00 0.00 1380.00 445.00" xmlns="http://www.w3.org/2000/svg" xmlns:xlink="http://www.w3.org/1999/xlink">
<g id="graph0" class="graph" transform="scale(1 1) rotate(0) translate(4 441)">
<title>include/ccf/endpoints/authentication/empty_auth.h</title>
<!-- Node1 -->
<g id="node1" class="node">
<title>Node1</title>
<g id="a_node1"><a xlink:title=" ">
<polygon fill="#999999" stroke="#666666" points="1093.5,-437 968.5,-437 968.5,-396 1093.5,-396 1093.5,-437"/>
<text text-anchor="start" x="976.5" y="-425" font-family="Helvetica,sans-Serif" font-size="10.00">include/ccf/endpoints</text>
<text text-anchor="start" x="976.5" y="-414" font-family="Helvetica,sans-Serif" font-size="10.00">/authentication/empty</text>
<text text-anchor="middle" x="1031" y="-403" font-family="Helvetica,sans-Serif" font-size="10.00">_auth.h</text>
</a>
</g>
</g>
<!-- Node2 -->
<g id="node2" class="node">
<title>Node2</title>
<g id="a_node2"><a xlink:href="authentication__types_8h.html" target="_top" xlink:title=" ">
<polygon fill="white" stroke="#666666" points="1108.5,-360 953.5,-360 953.5,-330 1108.5,-330 1108.5,-360"/>
<text text-anchor="start" x="961.5" y="-348" font-family="Helvetica,sans-Serif" font-size="10.00">ccf/endpoints/authentication</text>
<text text-anchor="middle" x="1031" y="-337" font-family="Helvetica,sans-Serif" font-size="10.00">/authentication_types.h</text>
</a>
</g>
</g>
<!-- Node1&#45;&gt;Node2 -->
<g id="edge1" class="edge">
<title>Node1&#45;&gt;Node2</title>
<path fill="none" stroke="#63b8ff" d="M1031,-395.77C1031,-387.85 1031,-378.63 1031,-370.3"/>
<polygon fill="#63b8ff" stroke="#63b8ff" points="1034.5,-370.04 1031,-360.04 1027.5,-370.04 1034.5,-370.04"/>
</g>
<!-- Node3 -->
<g id="node3" class="node">
<title>Node3</title>
<g id="a_node3"><a xlink:href="tx_8h.html" target="_top" xlink:title=" ">
<polygon fill="white" stroke="#666666" points="773.5,-294 720.5,-294 720.5,-275 773.5,-275 773.5,-294"/>
<text text-anchor="middle" x="747" y="-282" font-family="Helvetica,sans-Serif" font-size="10.00">ccf/tx.h</text>
</a>
</g>
</g>
<!-- Node2&#45;&gt;Node3 -->
<g id="edge2" class="edge">
<title>Node2&#45;&gt;Node3</title>
<path fill="none" stroke="#63b8ff" d="M962.97,-329.99C906.65,-318.38 828.77,-302.34 783.56,-293.03"/>
<polygon fill="#63b8ff" stroke="#63b8ff" points="784.11,-289.57 773.61,-290.98 782.7,-296.43 784.11,-289.57"/>
</g>
<!-- Node16 -->
<g id="node16" class="node">
<title>Node16</title>
<g id="a_node16"><a xlink:title=" ">
<polygon fill="#e0e0e0" stroke="#999999" points="509,-74 399,-74 399,-55 509,-55 509,-74"/>
<text text-anchor="middle" x="454" y="-62" font-family="Helvetica,sans-Serif" font-size="10.00">nlohmann/json.hpp</text>
</a>
</g>
</g>
<!-- Node2&#45;&gt;Node16 -->
<g id="edge57" class="edge">
<title>Node2&#45;&gt;Node16</title>
<path fill="none" stroke="#63b8ff" d="M953.31,-344.52C799.57,-343.4 447.32,-330.1 169,-239 121.53,-223.46 96.24,-227.1 71,-184 40.73,-132.29 113.06,-125.7 154,-110 164.87,-105.83 303.83,-86.19 388.76,-74.44"/>
<polygon fill="#63b8ff" stroke="#63b8ff" points="389.41,-77.89 398.84,-73.05 388.46,-70.95 389.41,-77.89"/>
</g>
<!-- Node23 -->
<g id="node23" class="node">
<title>Node23</title>
<g id="a_node23"><a xlink:title=" ">
<polygon fill="#e0e0e0" stroke="#999999" points="903,-19 859,-19 859,0 903,0 903,-19"/>
<text text-anchor="middle" x="881" y="-7" font-family="Helvetica,sans-Serif" font-size="10.00">string</text>
</a>
</g>
</g>
<!-- Node2&#45;&gt;Node23 -->
<g id="edge58" class="edge">
<title>Node2&#45;&gt;Node23</title>
<path fill="none" stroke="#63b8ff" d="M1108.8,-333.96C1209.45,-318.74 1372,-285.64 1372,-230.5 1372,-230.5 1372,-230.5 1372,-118.5 1372,-24.21 1022.27,-12.15 913.13,-10.68"/>
<polygon fill="#63b8ff" stroke="#63b8ff" points="913.09,-7.18 903.05,-10.57 913.01,-14.18 913.09,-7.18"/>
</g>
<!-- Node36 -->
<g id="node36" class="node">
<title>Node36</title>
<g id="a_node36"><a xlink:title=" ">
<polygon fill="#e0e0e0" stroke="#999999" points="1344,-239 1286,-239 1286,-220 1344,-220 1344,-239"/>
<text text-anchor="middle" x="1315" y="-227" font-family="Helvetica,sans-Serif" font-size="10.00">memory</text>
</a>
</g>
</g>
<!-- Node2&#45;&gt;Node36 -->
<g id="edge56" class="edge">
<title>Node2&#45;&gt;Node36</title>
<path fill="none" stroke="#63b8ff" d="M1066.11,-329.97C1122.02,-307.63 1230.4,-264.31 1283.76,-242.98"/>
<polygon fill="#63b8ff" stroke="#63b8ff" points="1285.38,-246.11 1293.37,-239.14 1282.78,-239.61 1285.38,-246.11"/>
</g>
<!-- Node4 -->
<g id="node4" class="node">
<title>Node4</title>
<g id="a_node4"><a xlink:href="ccf__assert_8h.html" target="_top" xlink:title=" ">
<polygon fill="white" stroke="#666666" points="793,-239 701,-239 701,-220 793,-220 793,-239"/>
<text text-anchor="middle" x="747" y="-227" font-family="Helvetica,sans-Serif" font-size="10.00">ccf/ccf_assert.h</text>
</a>
</g>
</g>
<!-- Node3&#45;&gt;Node4 -->
<g id="edge3" class="edge">
<title>Node3&#45;&gt;Node4</title>
<path fill="none" stroke="#63b8ff" d="M747,-274.75C747,-267.8 747,-257.85 747,-249.13"/>
<polygon fill="#63b8ff" stroke="#63b8ff" points="750.5,-249.09 747,-239.09 743.5,-249.09 750.5,-249.09"/>
</g>
<!-- Node12 -->
<g id="node12" class="node">
<title>Node12</title>
<g id="a_node12"><a xlink:title=" ">
<polygon fill="#e0e0e0" stroke="#999999" points="1259,-74 1221,-74 1221,-55 1259,-55 1259,-74"/>
<text text-anchor="middle" x="1240" y="-62" font-family="Helvetica,sans-Serif" font-size="10.00">map</text>
</a>
</g>
</g>
<!-- Node3&#45;&gt;Node12 -->
<g id="edge52" class="edge">
<title>Node3&#45;&gt;Node12</title>
<path fill="none" stroke="#63b8ff" d="M773.54,-280.77C848.48,-271.86 1065.04,-237.61 1201,-129 1215.97,-117.04 1226.67,-97.68 1233.03,-83.47"/>
<polygon fill="#63b8ff" stroke="#63b8ff" points="1236.27,-84.79 1236.89,-74.22 1229.81,-82.1 1236.27,-84.79"/>
</g>
<!-- Node17 -->
<g id="node17" class="node">
<title>Node17</title>
<g id="a_node17"><a xlink:title=" ">
<polygon fill="#e0e0e0" stroke="#999999" points="547,-129 491,-129 491,-110 547,-110 547,-129"/>
<text text-anchor="middle" x="519" y="-117" font-family="Helvetica,sans-Serif" font-size="10.00">optional</text>
</a>
</g>
</g>
<!-- Node3&#45;&gt;Node17 -->
<g id="edge54" class="edge">
<title>Node3&#45;&gt;Node17</title>
<path fill="none" stroke="#63b8ff" d="M720.33,-283.42C657.13,-282.61 501.19,-276.75 469,-239 462.29,-231.13 452.05,-204.56 470,-165 475.43,-153.02 485.81,-142.86 495.61,-135.28"/>
<polygon fill="#63b8ff" stroke="#63b8ff" points="497.86,-137.98 503.95,-129.31 493.78,-132.29 497.86,-137.98"/>
</g>
<!-- Node20 -->
<g id="node20" class="node">
<title>Node20</title>
<g id="a_node20"><a xlink:href="sha256__hash_8h.html" target="_top" xlink:title=" ">
<polygon fill="white" stroke="#666666" points="318,-239 178,-239 178,-220 318,-220 318,-239"/>
<text text-anchor="middle" x="248" y="-227" font-family="Helvetica,sans-Serif" font-size="10.00">ccf/crypto/sha256_hash.h</text>
</a>
</g>
</g>
<!-- Node3&#45;&gt;Node20 -->
<g id="edge21" class="edge">
<title>Node3&#45;&gt;Node20</title>
<path fill="none" stroke="#63b8ff" d="M720.17,-280.65C647.17,-272.9 442.77,-251.19 328.28,-239.03"/>
<polygon fill="#63b8ff" stroke="#63b8ff" points="328.48,-235.53 318.16,-237.95 327.74,-242.49 328.48,-235.53"/>
</g>
<!-- Node3&#45;&gt;Node23 -->
<g id="edge55" class="edge">
<title>Node3&#45;&gt;Node23</title>
<path fill="none" stroke="#63b8ff" d="M773.71,-284.28C870.06,-285.43 1197.73,-274.32 1268,-74 1270.8,-66.03 1273.62,-61.3 1268,-55 1244.51,-28.65 1001.97,-15.68 913.27,-11.8"/>
<polygon fill="#63b8ff" stroke="#63b8ff" points="913.38,-8.3 903.24,-11.37 913.08,-15.29 913.38,-8.3"/>
</g>
<!-- Node32 -->
<g id="node32" class="node">
<title>Node32</title>
<g id="a_node32"><a xlink:href="tx__id_8h.html" target="_top" xlink:title=" ">
<polygon fill="white" stroke="#666666" points="595.5,-239 528.5,-239 528.5,-220 595.5,-220 595.5,-239"/>
<text text-anchor="middle" x="562" y="-227" font-family="Helvetica,sans-Serif" font-size="10.00">ccf/tx_id.h</text>
</a>
</g>
</g>
<!-- Node3&#45;&gt;Node32 -->
<g id="edge42" class="edge">
<title>Node3&#45;&gt;Node32</title>
<path fill="none" stroke="#63b8ff" d="M720.49,-275.91C689.35,-266.98 637.39,-252.1 601.49,-241.81"/>
<polygon fill="#63b8ff" stroke="#63b8ff" points="602.41,-238.43 591.83,-239.05 600.48,-245.16 602.41,-238.43"/>
</g>
<!-- Node35 -->
<g id="node35" class="node">
<title>Node35</title>
<g id="a_node35"><a xlink:title=" ">
<polygon fill="#e0e0e0" stroke="#999999" points="510,-239 478,-239 478,-220 510,-220 510,-239"/>
<text text-anchor="middle" x="494" y="-227" font-family="Helvetica,sans-Serif" font-size="10.00">list</text>
</a>
</g>
</g>
<!-- Node3&#45;&gt;Node35 -->
<g id="edge51" class="edge">
<title>Node3&#45;&gt;Node35</title>
<path fill="none" stroke="#63b8ff" d="M720.41,-279.51C679.35,-273.08 597.94,-259.34 520.02,-238.96"/>
<polygon fill="#63b8ff" stroke="#63b8ff" points="520.6,-235.5 510.04,-236.31 518.81,-242.26 520.6,-235.5"/>
</g>
<!-- Node3&#45;&gt;Node36 -->
<g id="edge53" class="edge">
<title>Node3&#45;&gt;Node36</title>
<path fill="none" stroke="#63b8ff" d="M773.61,-282.29C850.91,-278.54 1082.01,-265.75 1272,-239 1273.27,-238.82 1274.56,-238.63 1275.86,-238.43"/>
<polygon fill="#63b8ff" stroke="#63b8ff" points="1276.67,-241.84 1285.93,-236.7 1275.48,-234.94 1276.67,-241.84"/>
</g>
<!-- Node5 -->
<g id="node5" class="node">
<title>Node5</title>
<g id="a_node5"><a xlink:href="logger_8h.html" target="_top" xlink:title=" ">
<polygon fill="white" stroke="#666666" points="790.5,-184 703.5,-184 703.5,-165 790.5,-165 790.5,-184"/>
<text text-anchor="middle" x="747" y="-172" font-family="Helvetica,sans-Serif" font-size="10.00">ccf/ds/logger.h</text>
</a>
</g>
</g>
<!-- Node4&#45;&gt;Node5 -->
<g id="edge4" class="edge">
<title>Node4&#45;&gt;Node5</title>
<path fill="none" stroke="#63b8ff" d="M747,-219.75C747,-212.8 747,-202.85 747,-194.13"/>
<polygon fill="#63b8ff" stroke="#63b8ff" points="750.5,-194.09 747,-184.09 743.5,-194.09 750.5,-194.09"/>
</g>
<!-- Node6 -->
<g id="node6" class="node">
<title>Node6</title>
<g id="a_node6"><a xlink:href="enum__formatter_8h.html" target="_top" xlink:title=" ">
<polygon fill="white" stroke="#666666" points="815,-129 679,-129 679,-110 815,-110 815,-129"/>
<text text-anchor="middle" x="747" y="-117" font-family="Helvetica,sans-Serif" font-size="10.00">ccf/ds/enum_formatter.h</text>
</a>
</g>
</g>
<!-- Node5&#45;&gt;Node6 -->
<g id="edge5" class="edge">
<title>Node5&#45;&gt;Node6</title>
<path fill="none" stroke="#63b8ff" d="M747,-164.75C747,-157.8 747,-147.85 747,-139.13"/>
<polygon fill="#63b8ff" stroke="#63b8ff" points="750.5,-139.09 747,-129.09 743.5,-139.09 750.5,-139.09"/>
</g>
<!-- Node7 -->
<g id="node7" class="node">
<title>Node7</title>
<g id="a_node7"><a xlink:title=" ">
<polygon fill="#e0e0e0" stroke="#999999" points="652.5,-74 573.5,-74 573.5,-55 652.5,-55 652.5,-74"/>
<text text-anchor="middle" x="613" y="-62" font-family="Helvetica,sans-Serif" font-size="10.00">fmt/format.h</text>
</a>
</g>
</g>
<!-- Node5&#45;&gt;Node7 -->
<g id="edge15" class="edge">
<title>Node5&#45;&gt;Node7</title>
<path fill="none" stroke="#63b8ff" d="M728.54,-164.91C712.27,-156.87 688.34,-143.88 670,-129 652.83,-115.06 636.3,-95.79 625.5,-82.14"/>
<polygon fill="#63b8ff" stroke="#63b8ff" points="628.17,-79.87 619.29,-74.09 622.63,-84.14 628.17,-79.87"/>
</g>
<!-- Node8 -->
<g id="node8" class="node">
<title>Node8</title>
<g id="a_node8"><a xlink:href="thread__ids_8h.html" target="_top" xlink:title=" ">
<polygon fill="white" stroke="#666666" points="1192,-129 1084,-129 1084,-110 1192,-110 1192,-129"/>
<text text-anchor="middle" x="1138" y="-117" font-family="Helvetica,sans-Serif" font-size="10.00">ccf/ds/thread_ids.h</text>
</a>
</g>
</g>
<!-- Node5&#45;&gt;Node8 -->
<g id="edge7" class="edge">
<title>Node5&#45;&gt;Node8</title>
<path fill="none" stroke="#63b8ff" d="M790.71,-167.57C859.7,-158.22 994.17,-140 1074.03,-129.17"/>
<polygon fill="#63b8ff" stroke="#63b8ff" points="1074.53,-132.64 1083.97,-127.82 1073.59,-125.7 1074.53,-132.64"/>
</g>
<!-- Node14 -->
<g id="node14" class="node">
<title>Node14</title>
<g id="a_node14"><a xlink:title=" ">
<polygon fill="#e0e0e0" stroke="#999999" points="950.5,-129 871.5,-129 871.5,-110 950.5,-110 950.5,-129"/>
<text text-anchor="middle" x="911" y="-117" font-family="Helvetica,sans-Serif" font-size="10.00">fmt/chrono.h</text>
</a>
</g>
</g>
<!-- Node5&#45;&gt;Node14 -->
<g id="edge14" class="edge">
<title>Node5&#45;&gt;Node14</title>
<path fill="none" stroke="#63b8ff" d="M773.35,-164.98C800.76,-156.13 843.89,-142.19 874.56,-132.28"/>
<polygon fill="#63b8ff" stroke="#63b8ff" points="876,-135.49 884.44,-129.08 873.85,-128.83 876,-135.49"/>
</g>
<!-- Node15 -->
<g id="node15" class="node">
<title>Node15</title>
<g id="a_node15"><a xlink:title=" ">
<polygon fill="#e0e0e0" stroke="#999999" points="1028,-129 968,-129 968,-110 1028,-110 1028,-129"/>
<text text-anchor="middle" x="998" y="-117" font-family="Helvetica,sans-Serif" font-size="10.00">iostream</text>
</a>
</g>
</g>
<!-- Node5&#45;&gt;Node15 -->
<g id="edge16" class="edge">
<title>Node5&#45;&gt;Node15</title>
<path fill="none" stroke="#63b8ff" d="M788.06,-164.98C828.69,-156.52 892.95,-143.1 957.78,-129.25"/>
<polygon fill="#63b8ff" stroke="#63b8ff" points="958.72,-132.63 967.77,-127.11 957.26,-125.78 958.72,-132.63"/>
</g>
<!-- Node5&#45;&gt;Node16 -->
<g id="edge17" class="edge">
<title>Node5&#45;&gt;Node16</title>
<path fill="none" stroke="#63b8ff" d="M723.52,-164.84C671.53,-145.68 546.59,-99.63 486.87,-77.62"/>
<polygon fill="#63b8ff" stroke="#63b8ff" points="487.78,-74.22 477.19,-74.05 485.36,-80.79 487.78,-74.22"/>
</g>
<!-- Node5&#45;&gt;Node17 -->
<g id="edge18" class="edge">
<title>Node5&#45;&gt;Node17</title>
<path fill="none" stroke="#63b8ff" d="M710.37,-164.98C668.39,-155.23 599.9,-139.31 557.25,-129.39"/>
<polygon fill="#63b8ff" stroke="#63b8ff" points="557.79,-125.92 547.26,-127.07 556.21,-132.74 557.79,-125.92"/>
</g>
<!-- Node18 -->
<g id="node18" class="node">
<title>Node18</title>
<g id="a_node18"><a xlink:title=" ">
<polygon fill="#e0e0e0" stroke="#999999" points="473,-129 417,-129 417,-110 473,-110 473,-129"/>
<text text-anchor="middle" x="445" y="-117" font-family="Helvetica,sans-Serif" font-size="10.00">sstream</text>
</a>
</g>
</g>
<!-- Node5&#45;&gt;Node18 -->
<g id="edge19" class="edge">
<title>Node5&#45;&gt;Node18</title>
<path fill="none" stroke="#63b8ff" d="M703.25,-166.97C652.59,-159.23 566.44,-145.5 483.12,-129.13"/>
<polygon fill="#63b8ff" stroke="#63b8ff" points="483.73,-125.68 473.24,-127.17 482.37,-132.55 483.73,-125.68"/>
</g>
<!-- Node19 -->
<g id="node19" class="node">
<title>Node19</title>
<g id="a_node19"><a xlink:title=" ">
<polygon fill="#e0e0e0" stroke="#999999" points="638.5,-19 569.5,-19 569.5,0 638.5,0 638.5,-19"/>
<text text-anchor="middle" x="604" y="-7" font-family="Helvetica,sans-Serif" font-size="10.00">type_traits</text>
</a>
</g>
</g>
<!-- Node5&#45;&gt;Node19 -->
<g id="edge20" class="edge">
<title>Node5&#45;&gt;Node19</title>
<path fill="none" stroke="#63b8ff" d="M773.64,-164.82C801.69,-154.16 839.78,-134.46 824,-110 785.33,-50.07 700.87,-25.85 648.58,-16.34"/>
<polygon fill="#63b8ff" stroke="#63b8ff" points="649.02,-12.87 638.57,-14.63 647.84,-19.77 649.02,-12.87"/>
</g>
<!-- Node6&#45;&gt;Node7 -->
<g id="edge6" class="edge">
<title>Node6&#45;&gt;Node7</title>
<path fill="none" stroke="#63b8ff" d="M725.47,-109.98C703.53,-101.3 669.26,-87.75 644.31,-77.88"/>
<polygon fill="#63b8ff" stroke="#63b8ff" points="645.51,-74.59 634.92,-74.17 642.93,-81.1 645.51,-74.59"/>
</g>
<!-- Node8&#45;&gt;Node7 -->
<g id="edge8" class="edge">
<title>Node8&#45;&gt;Node7</title>
<path fill="none" stroke="#63b8ff" d="M1083.79,-113.03C981.44,-102.7 761.18,-80.46 662.54,-70.5"/>
<polygon fill="#63b8ff" stroke="#63b8ff" points="662.83,-67.01 652.53,-69.49 662.13,-73.98 662.83,-67.01"/>
</g>
<!-- Node9 -->
<g id="node9" class="node">
<title>Node9</title>
<g id="a_node9"><a xlink:title=" ">
<polygon fill="#e0e0e0" stroke="#999999" points="1061,-74 975,-74 975,-55 1061,-55 1061,-74"/>
<text text-anchor="middle" x="1018" y="-62" font-family="Helvetica,sans-Serif" font-size="10.00">fmt/ostream.h</text>
</a>
</g>
</g>
<!-- Node8&#45;&gt;Node9 -->
<g id="edge9" class="edge">
<title>Node8&#45;&gt;Node9</title>
<path fill="none" stroke="#63b8ff" d="M1118.72,-109.98C1099.33,-101.42 1069.19,-88.11 1046.93,-78.28"/>
<polygon fill="#63b8ff" stroke="#63b8ff" points="1048.19,-75.01 1037.63,-74.17 1045.36,-81.41 1048.19,-75.01"/>
</g>
<!-- Node10 -->
<g id="node10" class="node">
<title>Node10</title>
<g id="a_node10"><a xlink:title=" ">
<polygon fill="#e0e0e0" stroke="#999999" points="1140.5,-74 1079.5,-74 1079.5,-55 1140.5,-55 1140.5,-74"/>
<text text-anchor="middle" x="1110" y="-62" font-family="Helvetica,sans-Serif" font-size="10.00">fmt/std.h</text>
</a>
</g>
</g>
<!-- Node8&#45;&gt;Node10 -->
<g id="edge10" class="edge">
<title>Node8&#45;&gt;Node10</title>
<path fill="none" stroke="#63b8ff" d="M1133.38,-109.75C1129.54,-102.49 1123.98,-91.95 1119.24,-82.98"/>
<polygon fill="#63b8ff" stroke="#63b8ff" points="1122.3,-81.3 1114.54,-74.09 1116.11,-84.57 1122.3,-81.3"/>
</g>
<!-- Node11 -->
<g id="node11" class="node">
<title>Node11</title>
<g id="a_node11"><a xlink:title=" ">
<polygon fill="#e0e0e0" stroke="#999999" points="1203,-74 1159,-74 1159,-55 1203,-55 1203,-74"/>
<text text-anchor="middle" x="1181" y="-62" font-family="Helvetica,sans-Serif" font-size="10.00">limits</text>
</a>
</g>
</g>
<!-- Node8&#45;&gt;Node11 -->
<g id="edge11" class="edge">
<title>Node8&#45;&gt;Node11</title>
<path fill="none" stroke="#63b8ff" d="M1145.1,-109.75C1151.17,-102.26 1160.09,-91.28 1167.51,-82.13"/>
<polygon fill="#63b8ff" stroke="#63b8ff" points="1170.45,-84.06 1174.03,-74.09 1165.01,-79.65 1170.45,-84.06"/>
</g>
<!-- Node8&#45;&gt;Node12 -->
<g id="edge12" class="edge">
<title>Node8&#45;&gt;Node12</title>
<path fill="none" stroke="#63b8ff" d="M1154.39,-109.98C1170.57,-101.57 1195.57,-88.59 1214.38,-78.81"/>
<polygon fill="#63b8ff" stroke="#63b8ff" points="1216.05,-81.89 1223.31,-74.17 1212.83,-75.68 1216.05,-81.89"/>
</g>
<!-- Node13 -->
<g id="node13" class="node">
<title>Node13</title>
<g id="a_node13"><a xlink:title=" ">
<polygon fill="#e0e0e0" stroke="#999999" points="957,-74 909,-74 909,-55 957,-55 957,-74"/>
<text text-anchor="middle" x="933" y="-62" font-family="Helvetica,sans-Serif" font-size="10.00">thread</text>
</a>
</g>
</g>
<!-- Node8&#45;&gt;Node13 -->
<g id="edge13" class="edge">
<title>Node8&#45;&gt;Node13</title>
<path fill="none" stroke="#63b8ff" d="M1105.06,-109.98C1067.3,-100.22 1005.69,-84.29 967.35,-74.38"/>
<polygon fill="#63b8ff" stroke="#63b8ff" points="967.75,-70.87 957.19,-71.75 966,-77.65 967.75,-70.87"/>
</g>
<!-- Node20&#45;&gt;Node7 -->
<g id="edge41" class="edge">
<title>Node20&#45;&gt;Node7</title>
<path fill="none" stroke="#63b8ff" d="M248.51,-219.7C249.69,-206.44 253.68,-181.16 267,-165 300.51,-124.35 322.21,-127.2 372,-110 436.02,-87.89 513.6,-76.07 563.13,-70.29"/>
<polygon fill="#63b8ff" stroke="#63b8ff" points="563.71,-73.75 573.25,-69.15 562.93,-66.79 563.71,-73.75"/>
</g>
<!-- Node21 -->
<g id="node21" class="node">
<title>Node21</title>
<g id="a_node21"><a xlink:href="json_8h.html" target="_top" xlink:title=" ">
<polygon fill="white" stroke="#666666" points="353.5,-184 276.5,-184 276.5,-165 353.5,-165 353.5,-184"/>
<text text-anchor="middle" x="315" y="-172" font-family="Helvetica,sans-Serif" font-size="10.00">ccf/ds/json.h</text>
</a>
</g>
</g>
<!-- Node20&#45;&gt;Node21 -->
<g id="edge22" class="edge">
<title>Node20&#45;&gt;Node21</title>
<path fill="none" stroke="#63b8ff" d="M258.76,-219.98C268.77,-212.07 283.89,-200.11 295.93,-190.58"/>
<polygon fill="#63b8ff" stroke="#63b8ff" points="298.37,-193.12 304.04,-184.17 294.03,-187.63 298.37,-193.12"/>
</g>
<!-- Node28 -->
<g id="node28" class="node">
<title>Node28</title>
<g id="a_node28"><a xlink:title=" ">
<polygon fill="#e0e0e0" stroke="#999999" points="42,-19 0,-19 0,0 42,0 42,-19"/>
<text text-anchor="middle" x="21" y="-7" font-family="Helvetica,sans-Serif" font-size="10.00">array</text>
</a>
</g>
</g>
<!-- Node20&#45;&gt;Node28 -->
<g id="edge39" class="edge">
<title>Node20&#45;&gt;Node28</title>
<path fill="none" stroke="#63b8ff" d="M177.83,-224.86C142.47,-219.8 100.87,-208.54 71,-184 24.01,-145.39 19.53,-65.66 20.11,-29.31"/>
<polygon fill="#63b8ff" stroke="#63b8ff" points="23.61,-29.24 20.43,-19.13 16.62,-29.02 23.61,-29.24"/>
</g>
<!-- Node31 -->
<g id="node31" class="node">
<title>Node31</title>
<g id="a_node31"><a xlink:title=" ">
<polygon fill="#e0e0e0" stroke="#999999" points="120,-184 80,-184 80,-165 120,-165 120,-184"/>
<text text-anchor="middle" x="100" y="-172" font-family="Helvetica,sans-Serif" font-size="10.00">span</text>
</a>
</g>
</g>
<!-- Node20&#45;&gt;Node31 -->
<g id="edge40" class="edge">
<title>Node20&#45;&gt;Node31</title>
<path fill="none" stroke="#63b8ff" d="M224.22,-219.98C198.6,-210.81 157.79,-196.19 129.99,-186.24"/>
<polygon fill="#63b8ff" stroke="#63b8ff" points="130.98,-182.88 120.38,-182.8 128.62,-189.47 130.98,-182.88"/>
</g>
<!-- Node21&#45;&gt;Node7 -->
<g id="edge37" class="edge">
<title>Node21&#45;&gt;Node7</title>
<path fill="none" stroke="#63b8ff" d="M324.83,-164.86C341,-151.09 374.78,-124.3 408,-110 458.53,-88.25 520.8,-76.68 563.36,-70.84"/>
<polygon fill="#63b8ff" stroke="#63b8ff" points="564.01,-74.28 573.47,-69.51 563.1,-67.34 564.01,-74.28"/>
</g>
<!-- Node21&#45;&gt;Node18 -->
<g id="edge38" class="edge">
<title>Node21&#45;&gt;Node18</title>
<path fill="none" stroke="#63b8ff" d="M335.89,-164.98C357.08,-156.34 390.13,-142.87 414.3,-133.02"/>
<polygon fill="#63b8ff" stroke="#63b8ff" points="415.79,-136.19 423.73,-129.17 413.15,-129.7 415.79,-136.19"/>
</g>
<!-- Node22 -->
<g id="node22" class="node">
<title>Node22</title>
<g id="a_node22"><a xlink:href="include_2ccf_2crypto_2base64_8h.html" target="_top" xlink:title=" ">
<polygon fill="white" stroke="#666666" points="381,-74 269,-74 269,-55 381,-55 381,-74"/>
<text text-anchor="middle" x="325" y="-62" font-family="Helvetica,sans-Serif" font-size="10.00">ccf/crypto/base64.h</text>
</a>
</g>
</g>
<!-- Node21&#45;&gt;Node22 -->
<g id="edge23" class="edge">
<title>Node21&#45;&gt;Node22</title>
<path fill="none" stroke="#63b8ff" d="M276.4,-171.67C218.69,-167.48 120.09,-153.86 154,-110 167.03,-93.15 216.24,-81.49 258.54,-74.34"/>
<polygon fill="#63b8ff" stroke="#63b8ff" points="259.26,-77.77 268.56,-72.71 258.13,-70.86 259.26,-77.77"/>
</g>
<!-- Node25 -->
<g id="node25" class="node">
<title>Node25</title>
<g id="a_node25"><a xlink:href="include_2ccf_2ds_2json__schema_8h.html" target="_top" xlink:title=" ">
<polygon fill="white" stroke="#666666" points="284.5,-129 163.5,-129 163.5,-110 284.5,-110 284.5,-129"/>
<text text-anchor="middle" x="224" y="-117" font-family="Helvetica,sans-Serif" font-size="10.00">ccf/ds/json_schema.h</text>
</a>
</g>
</g>
<!-- Node21&#45;&gt;Node25 -->
<g id="edge26" class="edge">
<title>Node21&#45;&gt;Node25</title>
<path fill="none" stroke="#63b8ff" d="M300.38,-164.98C286.14,-156.69 264.25,-143.94 247.55,-134.22"/>
<polygon fill="#63b8ff" stroke="#63b8ff" points="249.29,-131.18 238.89,-129.17 245.77,-137.23 249.29,-131.18"/>
</g>
<!-- Node22&#45;&gt;Node23 -->
<g id="edge24" class="edge">
<title>Node22&#45;&gt;Node23</title>
<path fill="none" stroke="#63b8ff" d="M381,-56.03C384.04,-55.67 387.06,-55.33 390,-55 562.66,-35.89 770.15,-19.11 848.73,-12.98"/>
<polygon fill="#63b8ff" stroke="#63b8ff" points="849.25,-16.45 858.95,-12.19 848.71,-9.47 849.25,-16.45"/>
</g>
<!-- Node24 -->
<g id="node24" class="node">
<title>Node24</title>
<g id="a_node24"><a xlink:title=" ">
<polygon fill="#e0e0e0" stroke="#999999" points="348.5,-19 301.5,-19 301.5,0 348.5,0 348.5,-19"/>
<text text-anchor="middle" x="325" y="-7" font-family="Helvetica,sans-Serif" font-size="10.00">vector</text>
</a>
</g>
</g>
<!-- Node22&#45;&gt;Node24 -->
<g id="edge25" class="edge">
<title>Node22&#45;&gt;Node24</title>
<path fill="none" stroke="#63b8ff" d="M325,-54.75C325,-47.8 325,-37.85 325,-29.13"/>
<polygon fill="#63b8ff" stroke="#63b8ff" points="328.5,-29.09 325,-19.09 321.5,-29.09 328.5,-29.09"/>
</g>
<!-- Node25&#45;&gt;Node7 -->
<g id="edge35" class="edge">
<title>Node25&#45;&gt;Node7</title>
<path fill="none" stroke="#63b8ff" d="M284.78,-110.22C361.56,-99.76 492.23,-81.95 563.33,-72.27"/>
<polygon fill="#63b8ff" stroke="#63b8ff" points="563.94,-75.72 573.38,-70.9 563,-68.78 563.94,-75.72"/>
</g>
<!-- Node25&#45;&gt;Node16 -->
<g id="edge36" class="edge">
<title>Node25&#45;&gt;Node16</title>
<path fill="none" stroke="#63b8ff" d="M260.95,-109.98C300.57,-100.86 363.59,-86.33 406.77,-76.38"/>
<polygon fill="#63b8ff" stroke="#63b8ff" points="407.8,-79.74 416.76,-74.08 406.23,-72.92 407.8,-79.74"/>
</g>
<!-- Node26 -->
<g id="node26" class="node">
<title>Node26</title>
<g id="a_node26"><a xlink:href="nonstd_8h.html" target="_top" xlink:title=" ">
<polygon fill="white" stroke="#666666" points="251,-74 161,-74 161,-55 251,-55 251,-74"/>
<text text-anchor="middle" x="206" y="-62" font-family="Helvetica,sans-Serif" font-size="10.00">ccf/ds/nonstd.h</text>
</a>
</g>
</g>
<!-- Node25&#45;&gt;Node26 -->
<g id="edge27" class="edge">
<title>Node25&#45;&gt;Node26</title>
<path fill="none" stroke="#63b8ff" d="M221.03,-109.75C218.64,-102.72 215.21,-92.62 212.23,-83.84"/>
<polygon fill="#63b8ff" stroke="#63b8ff" points="215.45,-82.43 208.92,-74.09 208.82,-84.68 215.45,-82.43"/>
</g>
<!-- Node26&#45;&gt;Node19 -->
<g id="edge33" class="edge">
<title>Node26&#45;&gt;Node19</title>
<path fill="none" stroke="#63b8ff" d="M251.07,-56.31C254.09,-55.86 257.09,-55.42 260,-55 367.23,-39.63 493.6,-23.89 559.28,-15.89"/>
<polygon fill="#63b8ff" stroke="#63b8ff" points="559.78,-19.35 569.29,-14.67 558.94,-12.4 559.78,-19.35"/>
</g>
<!-- Node26&#45;&gt;Node23 -->
<g id="edge31" class="edge">
<title>Node26&#45;&gt;Node23</title>
<path fill="none" stroke="#63b8ff" d="M251.04,-56.12C254.07,-55.71 257.08,-55.33 260,-55 484.68,-29.31 756.88,-15.89 848.87,-11.84"/>
<polygon fill="#63b8ff" stroke="#63b8ff" points="849.1,-15.34 858.94,-11.4 848.79,-8.34 849.1,-15.34"/>
</g>
<!-- Node26&#45;&gt;Node24 -->
<g id="edge34" class="edge">
<title>Node26&#45;&gt;Node24</title>
<path fill="none" stroke="#63b8ff" d="M225.12,-54.98C244.35,-46.42 274.23,-33.11 296.31,-23.28"/>
<polygon fill="#63b8ff" stroke="#63b8ff" points="297.82,-26.44 305.53,-19.17 294.97,-20.04 297.82,-26.44"/>
</g>
<!-- Node27 -->
<g id="node27" class="node">
<title>Node27</title>
<g id="a_node27"><a xlink:title=" ">
<polygon fill="#e0e0e0" stroke="#999999" points="216,-19 152,-19 152,0 216,0 216,-19"/>
<text text-anchor="middle" x="184" y="-7" font-family="Helvetica,sans-Serif" font-size="10.00">algorithm</text>
</a>
</g>
</g>
<!-- Node26&#45;&gt;Node27 -->
<g id="edge28" class="edge">
<title>Node26&#45;&gt;Node27</title>
<path fill="none" stroke="#63b8ff" d="M202.37,-54.75C199.42,-47.65 195.17,-37.4 191.49,-28.56"/>
<polygon fill="#63b8ff" stroke="#63b8ff" points="194.63,-26.98 187.57,-19.09 188.17,-29.67 194.63,-26.98"/>
</g>
<!-- Node26&#45;&gt;Node28 -->
<g id="edge29" class="edge">
<title>Node26&#45;&gt;Node28</title>
<path fill="none" stroke="#63b8ff" d="M176.28,-54.98C142.21,-45.23 86.64,-29.31 52.04,-19.39"/>
<polygon fill="#63b8ff" stroke="#63b8ff" points="52.6,-15.91 42.02,-16.52 50.67,-22.64 52.6,-15.91"/>
</g>
<!-- Node29 -->
<g id="node29" class="node">
<title>Node29</title>
<g id="a_node29"><a xlink:title=" ">
<polygon fill="#e0e0e0" stroke="#999999" points="283.5,-19 234.5,-19 234.5,0 283.5,0 283.5,-19"/>
<text text-anchor="middle" x="259" y="-7" font-family="Helvetica,sans-Serif" font-size="10.00">cctype</text>
</a>
</g>
</g>
<!-- Node26&#45;&gt;Node29 -->
<g id="edge30" class="edge">
<title>Node26&#45;&gt;Node29</title>
<path fill="none" stroke="#63b8ff" d="M214.75,-54.75C222.47,-47.03 233.9,-35.6 243.22,-26.28"/>
<polygon fill="#63b8ff" stroke="#63b8ff" points="245.81,-28.64 250.41,-19.09 240.86,-23.69 245.81,-28.64"/>
</g>
<!-- Node30 -->
<g id="node30" class="node">
<title>Node30</title>
<g id="a_node30"><a xlink:title=" ">
<polygon fill="#e0e0e0" stroke="#999999" points="133.5,-19 60.5,-19 60.5,0 133.5,0 133.5,-19"/>
<text text-anchor="middle" x="97" y="-7" font-family="Helvetica,sans-Serif" font-size="10.00">string_view</text>
</a>
</g>
</g>
<!-- Node26&#45;&gt;Node30 -->
<g id="edge32" class="edge">
<title>Node26&#45;&gt;Node30</title>
<path fill="none" stroke="#63b8ff" d="M188.49,-54.98C171.03,-46.5 143.99,-33.35 123.83,-23.54"/>
<polygon fill="#63b8ff" stroke="#63b8ff" points="125.36,-20.4 114.83,-19.17 122.29,-26.69 125.36,-20.4"/>
</g>
<!-- Node32&#45;&gt;Node7 -->
<g id="edge46" class="edge">
<title>Node32&#45;&gt;Node7</title>
<path fill="none" stroke="#63b8ff" d="M583.15,-219.93C597.83,-212.73 616.25,-200.88 625,-184 641.73,-151.69 629.79,-107.81 620.69,-83.53"/>
<polygon fill="#63b8ff" stroke="#63b8ff" points="623.9,-82.13 616.94,-74.14 617.4,-84.73 623.9,-82.13"/>
</g>
<!-- Node32&#45;&gt;Node16 -->
<g id="edge47" class="edge">
<title>Node32&#45;&gt;Node16</title>
<path fill="none" stroke="#63b8ff" d="M531.71,-219.96C493.7,-207.33 430.71,-179.51 408,-129 399.76,-110.67 416.33,-92.36 431.83,-80.14"/>
<polygon fill="#63b8ff" stroke="#63b8ff" points="434.17,-82.76 440.16,-74.02 430.03,-77.12 434.17,-82.76"/>
</g>
<!-- Node32&#45;&gt;Node17 -->
<g id="edge48" class="edge">
<title>Node32&#45;&gt;Node17</title>
<path fill="none" stroke="#63b8ff" d="M528.21,-220.08C509.62,-213.54 488.13,-202.38 477,-184 466.78,-167.11 482.78,-148.32 497.88,-135.59"/>
<polygon fill="#63b8ff" stroke="#63b8ff" points="500.32,-138.13 506.01,-129.19 495.99,-132.63 500.32,-138.13"/>
</g>
<!-- Node32&#45;&gt;Node21 -->
<g id="edge43" class="edge">
<title>Node32&#45;&gt;Node21</title>
<path fill="none" stroke="#63b8ff" d="M528.43,-221.3C485.95,-212.18 412.45,-196.41 363.77,-185.97"/>
<polygon fill="#63b8ff" stroke="#63b8ff" points="364.29,-182.5 353.78,-183.82 362.83,-189.34 364.29,-182.5"/>
</g>
<!-- Node32&#45;&gt;Node23 -->
<g id="edge49" class="edge">
<title>Node32&#45;&gt;Node23</title>
<path fill="none" stroke="#63b8ff" d="M595.74,-226.81C694.86,-221.05 981.67,-198.57 1037,-129 1042.26,-122.39 1042.16,-116.69 1037,-110 998.55,-60.15 945.26,-117.76 900,-74 887.99,-62.39 883.49,-43.52 881.85,-29.37"/>
<polygon fill="#63b8ff" stroke="#63b8ff" points="885.32,-28.95 881.05,-19.25 878.35,-29.49 885.32,-28.95"/>
</g>
<!-- Node32&#45;&gt;Node30 -->
<g id="edge50" class="edge">
<title>Node32&#45;&gt;Node30</title>
<path fill="none" stroke="#63b8ff" d="M528.23,-221.65C525.11,-221.07 522,-220.51 519,-220 349.93,-191.23 262.64,-252.84 144,-129 116.79,-100.6 104.71,-54.53 99.87,-29"/>
<polygon fill="#63b8ff" stroke="#63b8ff" points="103.31,-28.41 98.16,-19.15 96.42,-29.6 103.31,-28.41"/>
</g>
<!-- Node33 -->
<g id="node33" class="node">
<title>Node33</title>
<g id="a_node33"><a xlink:title=" ">
<polygon fill="#e0e0e0" stroke="#999999" points="547.5,-184 486.5,-184 486.5,-165 547.5,-165 547.5,-184"/>
<text text-anchor="middle" x="517" y="-172" font-family="Helvetica,sans-Serif" font-size="10.00">charconv</text>
</a>
</g>
</g>
<!-- Node32&#45;&gt;Node33 -->
<g id="edge44" class="edge">
<title>Node32&#45;&gt;Node33</title>
<path fill="none" stroke="#63b8ff" d="M554.57,-219.75C548.15,-212.18 538.69,-201.05 530.88,-191.84"/>
<polygon fill="#63b8ff" stroke="#63b8ff" points="533.43,-189.45 524.29,-184.09 528.1,-193.98 533.43,-189.45"/>
</g>
<!-- Node34 -->
<g id="node34" class="node">
<title>Node34</title>
<g id="a_node34"><a xlink:title=" ">
<polygon fill="#e0e0e0" stroke="#999999" points="616,-184 566,-184 566,-165 616,-165 616,-184"/>
<text text-anchor="middle" x="591" y="-172" font-family="Helvetica,sans-Serif" font-size="10.00">cstdint</text>
</a>
</g>
</g>
<!-- Node32&#45;&gt;Node34 -->
<g id="edge45" class="edge">
<title>Node32&#45;&gt;Node34</title>
<path fill="none" stroke="#63b8ff" d="M566.79,-219.75C570.76,-212.49 576.53,-201.95 581.43,-192.98"/>
<polygon fill="#63b8ff" stroke="#63b8ff" points="584.57,-194.54 586.3,-184.09 578.43,-191.18 584.57,-194.54"/>
</g>
</g>
</svg>
