<?xml version="1.0" encoding="UTF-8" standalone="no"?>
<!DOCTYPE svg PUBLIC "-//W3C//DTD SVG 1.1//EN"
 "http://www.w3.org/Graphics/SVG/1.1/DTD/svg11.dtd">
<!-- Generated by graphviz version 2.43.0 (0)
 -->
<!-- Title: include/ccf/endpoint_context.h Pages: 1 -->
<!--zoomable 434 -->
<svg id="main" version="1.1" xmlns="http://www.w3.org/2000/svg" xmlns:xlink="http://www.w3.org/1999/xlink" xml:space="preserve" onload="init(evt)">
<style type="text/css"><![CDATA[
.edge:hover path { stroke: red; }
.edge:hover polygon { stroke: red; fill: red; }
]]></style>
<script type="text/javascript"><![CDATA[
var edges = document.getElementsByTagName('g');
if (edges && edges.length) {
  for (var i=0;i<edges.length;i++) {
    if (edges[i].id.substr(0,4)=='edge') {
      edges[i].setAttribute('class','edge');
    }
  }
}
]]></script>
        <defs>
                <circle id="rim" cx="0" cy="0" r="7"/>
                <circle id="rim2" cx="0" cy="0" r="3.5"/>
                <g id="zoomPlus">
                        <use xlink:href="#rim" fill="#404040">
                                <set attributeName="fill" to="#808080" begin="zoomplus.mouseover" end="zoomplus.mouseout"/>
                        </use>
                        <path d="M-4,0h8M0,-4v8" fill="none" stroke="white" stroke-width="1.5" pointer-events="none"/>
                </g>
                <g id="zoomMin">
                        <use xlink:href="#rim" fill="#404040">
                                <set attributeName="fill" to="#808080" begin="zoomminus.mouseover" end="zoomminus.mouseout"/>
                        </use>
                        <path d="M-4,0h8" fill="none" stroke="white" stroke-width="1.5" pointer-events="none"/>
                </g>
                <g id="dirArrow">
                        <path fill="none" stroke="white" stroke-width="1.5" d="M0,-3.0v7 M-2.5,-0.5L0,-3.0L2.5,-0.5"/>
                </g>
               <g id="resetDef">
                       <use xlink:href="#rim2" fill="#404040">
                               <set attributeName="fill" to="#808080" begin="reset.mouseover" end="reset.mouseout"/>
                       </use>
               </g>
        </defs>

<script type="text/javascript">
var viewWidth = 1663;
var viewHeight = 434;
var sectionId = 'dynsection-0';
</script>
<script xlink:href="svgpan.js"/>
<svg id="graph" class="graph">
<g id="viewport">
<title>include/ccf/endpoint_context.h</title>
<!-- Node1 -->
<g id="node1" class="node">
<title>Node1</title>
<g id="a_node1"><a xlink:title=" ">
<polygon fill="#999999" stroke="#666666" points="1618.5,-426 1503.5,-426 1503.5,-396 1618.5,-396 1618.5,-426"/>
<text text-anchor="start" x="1511.5" y="-414" font-family="Helvetica,sans-Serif" font-size="10.00">include/ccf/endpoint</text>
<text text-anchor="middle" x="1561" y="-403" font-family="Helvetica,sans-Serif" font-size="10.00">_context.h</text>
</a>
</g>
</g>
<!-- Node2 -->
<g id="node2" class="node">
<title>Node2</title>
<g id="a_node2"><a xlink:href="authentication__types_8h.html" target="_top" xlink:title=" ">
<polygon fill="white" stroke="#666666" points="1532.5,-360 1377.5,-360 1377.5,-330 1532.5,-330 1532.5,-360"/>
<text text-anchor="start" x="1385.5" y="-348" font-family="Helvetica,sans-Serif" font-size="10.00">ccf/endpoints/authentication</text>
<text text-anchor="middle" x="1455" y="-337" font-family="Helvetica,sans-Serif" font-size="10.00">/authentication_types.h</text>
</a>
</g>
</g>
<!-- Node1&#45;&gt;Node2 -->
<g id="edge1" class="edge">
<title>Node1&#45;&gt;Node2</title>
<path fill="none" stroke="#63b8ff" d="M1537.74,-395.95C1522.83,-386.95 1503.27,-375.14 1486.91,-365.27"/>
<polygon fill="#63b8ff" stroke="#63b8ff" points="1488.58,-362.18 1478.21,-360.01 1484.96,-368.18 1488.58,-362.18"/>
</g>
<!-- Node36 -->
<g id="node36" class="node">
<title>Node36</title>
<g id="a_node36"><a xlink:title=" ">
<polygon fill="#e0e0e0" stroke="#999999" points="1571,-239 1513,-239 1513,-220 1571,-220 1571,-239"/>
<text text-anchor="middle" x="1542" y="-227" font-family="Helvetica,sans-Serif" font-size="10.00">memory</text>
</a>
</g>
</g>
<!-- Node1&#45;&gt;Node36 -->
<g id="edge60" class="edge">
<title>Node1&#45;&gt;Node36</title>
<path fill="none" stroke="#63b8ff" d="M1559.51,-395.91C1556.11,-363.85 1547.81,-285.38 1543.99,-249.26"/>
<polygon fill="#63b8ff" stroke="#63b8ff" points="1547.45,-248.71 1542.91,-239.13 1540.49,-249.45 1547.45,-248.71"/>
</g>
<!-- Node37 -->
<g id="node37" class="node">
<title>Node37</title>
<g id="a_node37"><a xlink:title=" ">
<polygon fill="#e0e0e0" stroke="#999999" points="1654.5,-354.5 1589.5,-354.5 1589.5,-335.5 1654.5,-335.5 1654.5,-354.5"/>
<text text-anchor="middle" x="1622" y="-342.5" font-family="Helvetica,sans-Serif" font-size="10.00">functional</text>
</a>
</g>
</g>
<!-- Node1&#45;&gt;Node37 -->
<g id="edge59" class="edge">
<title>Node1&#45;&gt;Node37</title>
<path fill="none" stroke="#63b8ff" d="M1574.54,-395.8C1584.05,-385.82 1596.78,-372.46 1606.67,-362.09"/>
<polygon fill="#63b8ff" stroke="#63b8ff" points="1609.2,-364.5 1613.57,-354.84 1604.14,-359.67 1609.2,-364.5"/>
</g>
<!-- Node3 -->
<g id="node3" class="node">
<title>Node3</title>
<g id="a_node3"><a xlink:href="tx_8h.html" target="_top" xlink:title=" ">
<polygon fill="white" stroke="#666666" points="1079.5,-294 1026.5,-294 1026.5,-275 1079.5,-275 1079.5,-294"/>
<text text-anchor="middle" x="1053" y="-282" font-family="Helvetica,sans-Serif" font-size="10.00">ccf/tx.h</text>
</a>
</g>
</g>
<!-- Node2&#45;&gt;Node3 -->
<g id="edge2" class="edge">
<title>Node2&#45;&gt;Node3</title>
<path fill="none" stroke="#63b8ff" d="M1377.49,-332.72C1291.04,-320.14 1154.83,-300.32 1089.86,-290.86"/>
<polygon fill="#63b8ff" stroke="#63b8ff" points="1090.09,-287.36 1079.69,-289.38 1089.08,-294.29 1090.09,-287.36"/>
</g>
<!-- Node16 -->
<g id="node16" class="node">
<title>Node16</title>
<g id="a_node16"><a xlink:title=" ">
<polygon fill="#e0e0e0" stroke="#999999" points="775,-74 665,-74 665,-55 775,-55 775,-74"/>
<text text-anchor="middle" x="720" y="-62" font-family="Helvetica,sans-Serif" font-size="10.00">nlohmann/json.hpp</text>
</a>
</g>
</g>
<!-- Node2&#45;&gt;Node16 -->
<g id="edge57" class="edge">
<title>Node2&#45;&gt;Node16</title>
<path fill="none" stroke="#63b8ff" d="M1377.14,-344.14C1126.07,-343.58 354,-333.49 354,-230.5 354,-230.5 354,-230.5 354,-173.5 354,-135.58 377.56,-127.89 411,-110 451.99,-88.07 576.8,-75.55 654.69,-69.67"/>
<polygon fill="#63b8ff" stroke="#63b8ff" points="655.17,-73.15 664.88,-68.92 654.65,-66.17 655.17,-73.15"/>
</g>
<!-- Node23 -->
<g id="node23" class="node">
<title>Node23</title>
<g id="a_node23"><a xlink:title=" ">
<polygon fill="#e0e0e0" stroke="#999999" points="1433,-19 1389,-19 1389,0 1433,0 1433,-19"/>
<text text-anchor="middle" x="1411" y="-7" font-family="Helvetica,sans-Serif" font-size="10.00">string</text>
</a>
</g>
</g>
<!-- Node2&#45;&gt;Node23 -->
<g id="edge58" class="edge">
<title>Node2&#45;&gt;Node23</title>
<path fill="none" stroke="#63b8ff" d="M1461.22,-329.98C1470,-308.85 1485,-267.39 1485,-230.5 1485,-230.5 1485,-230.5 1485,-118.5 1485,-79.8 1452.27,-44.81 1430.35,-25.71"/>
<polygon fill="#63b8ff" stroke="#63b8ff" points="1432.48,-22.93 1422.56,-19.19 1427.98,-28.3 1432.48,-22.93"/>
</g>
<!-- Node2&#45;&gt;Node36 -->
<g id="edge56" class="edge">
<title>Node2&#45;&gt;Node36</title>
<path fill="none" stroke="#63b8ff" d="M1468.2,-329.97C1477.21,-320.16 1489.24,-306.62 1499,-294 1510.67,-278.92 1522.74,-260.83 1531.11,-247.83"/>
<polygon fill="#63b8ff" stroke="#63b8ff" points="1534.08,-249.69 1536.5,-239.37 1528.17,-245.93 1534.08,-249.69"/>
</g>
<!-- Node4 -->
<g id="node4" class="node">
<title>Node4</title>
<g id="a_node4"><a xlink:href="ccf__assert_8h.html" target="_top" xlink:title=" ">
<polygon fill="white" stroke="#666666" points="708,-239 616,-239 616,-220 708,-220 708,-239"/>
<text text-anchor="middle" x="662" y="-227" font-family="Helvetica,sans-Serif" font-size="10.00">ccf/ccf_assert.h</text>
</a>
</g>
</g>
<!-- Node3&#45;&gt;Node4 -->
<g id="edge3" class="edge">
<title>Node3&#45;&gt;Node4</title>
<path fill="none" stroke="#63b8ff" d="M1026.43,-279.9C963.42,-271.36 803.81,-249.72 718.23,-238.12"/>
<polygon fill="#63b8ff" stroke="#63b8ff" points="718.56,-234.63 708.18,-236.76 717.62,-241.57 718.56,-234.63"/>
</g>
<!-- Node12 -->
<g id="node12" class="node">
<title>Node12</title>
<g id="a_node12"><a xlink:title=" ">
<polygon fill="#e0e0e0" stroke="#999999" points="350,-74 312,-74 312,-55 350,-55 350,-74"/>
<text text-anchor="middle" x="331" y="-62" font-family="Helvetica,sans-Serif" font-size="10.00">map</text>
</a>
</g>
</g>
<!-- Node3&#45;&gt;Node12 -->
<g id="edge52" class="edge">
<title>Node3&#45;&gt;Node12</title>
<path fill="none" stroke="#63b8ff" d="M1026.4,-283.52C956.54,-283.01 762.51,-277.9 607,-239 482.49,-207.85 418.73,-230.36 340,-129 330.29,-116.5 328.59,-98.29 329,-84.58"/>
<polygon fill="#63b8ff" stroke="#63b8ff" points="332.51,-84.56 329.71,-74.34 325.52,-84.07 332.51,-84.56"/>
</g>
<!-- Node17 -->
<g id="node17" class="node">
<title>Node17</title>
<g id="a_node17"><a xlink:title=" ">
<polygon fill="#e0e0e0" stroke="#999999" points="881,-129 825,-129 825,-110 881,-110 881,-129"/>
<text text-anchor="middle" x="853" y="-117" font-family="Helvetica,sans-Serif" font-size="10.00">optional</text>
</a>
</g>
</g>
<!-- Node3&#45;&gt;Node17 -->
<g id="edge54" class="edge">
<title>Node3&#45;&gt;Node17</title>
<path fill="none" stroke="#63b8ff" d="M1026.22,-277.08C984.96,-265.74 906.4,-238.05 866,-184 856.42,-171.18 853.47,-153.02 852.74,-139.39"/>
<polygon fill="#63b8ff" stroke="#63b8ff" points="856.24,-139.17 852.56,-129.24 849.24,-139.3 856.24,-139.17"/>
</g>
<!-- Node20 -->
<g id="node20" class="node">
<title>Node20</title>
<g id="a_node20"><a xlink:href="sha256__hash_8h.html" target="_top" xlink:title=" ">
<polygon fill="white" stroke="#666666" points="1345,-239 1205,-239 1205,-220 1345,-220 1345,-239"/>
<text text-anchor="middle" x="1275" y="-227" font-family="Helvetica,sans-Serif" font-size="10.00">ccf/crypto/sha256_hash.h</text>
</a>
</g>
</g>
<!-- Node3&#45;&gt;Node20 -->
<g id="edge21" class="edge">
<title>Node3&#45;&gt;Node20</title>
<path fill="none" stroke="#63b8ff" d="M1079.78,-277.11C1116.87,-268.25 1184.42,-252.13 1229.5,-241.36"/>
<polygon fill="#63b8ff" stroke="#63b8ff" points="1230.41,-244.74 1239.33,-239.02 1228.79,-237.93 1230.41,-244.74"/>
</g>
<!-- Node3&#45;&gt;Node23 -->
<g id="edge55" class="edge">
<title>Node3&#45;&gt;Node23</title>
<path fill="none" stroke="#63b8ff" d="M1079.77,-281.96C1168.45,-276.16 1447,-251.83 1447,-175.5 1447,-175.5 1447,-175.5 1447,-118.5 1447,-85.21 1431.42,-48.97 1420.75,-28.08"/>
<polygon fill="#63b8ff" stroke="#63b8ff" points="1423.79,-26.32 1416.01,-19.13 1417.6,-29.61 1423.79,-26.32"/>
</g>
<!-- Node32 -->
<g id="node32" class="node">
<title>Node32</title>
<g id="a_node32"><a xlink:href="tx__id_8h.html" target="_top" xlink:title=" ">
<polygon fill="white" stroke="#666666" points="1086.5,-239 1019.5,-239 1019.5,-220 1086.5,-220 1086.5,-239"/>
<text text-anchor="middle" x="1053" y="-227" font-family="Helvetica,sans-Serif" font-size="10.00">ccf/tx_id.h</text>
</a>
</g>
</g>
<!-- Node3&#45;&gt;Node32 -->
<g id="edge42" class="edge">
<title>Node3&#45;&gt;Node32</title>
<path fill="none" stroke="#63b8ff" d="M1053,-274.75C1053,-267.8 1053,-257.85 1053,-249.13"/>
<polygon fill="#63b8ff" stroke="#63b8ff" points="1056.5,-249.09 1053,-239.09 1049.5,-249.09 1056.5,-249.09"/>
</g>
<!-- Node35 -->
<g id="node35" class="node">
<title>Node35</title>
<g id="a_node35"><a xlink:title=" ">
<polygon fill="#e0e0e0" stroke="#999999" points="814,-239 782,-239 782,-220 814,-220 814,-239"/>
<text text-anchor="middle" x="798" y="-227" font-family="Helvetica,sans-Serif" font-size="10.00">list</text>
</a>
</g>
</g>
<!-- Node3&#45;&gt;Node35 -->
<g id="edge51" class="edge">
<title>Node3&#45;&gt;Node35</title>
<path fill="none" stroke="#63b8ff" d="M1026.18,-278.92C983.85,-271.53 899.05,-256.06 828,-239 826.73,-238.69 825.43,-238.37 824.12,-238.03"/>
<polygon fill="#63b8ff" stroke="#63b8ff" points="824.7,-234.57 814.13,-235.33 822.87,-241.32 824.7,-234.57"/>
</g>
<!-- Node3&#45;&gt;Node36 -->
<g id="edge53" class="edge">
<title>Node3&#45;&gt;Node36</title>
<path fill="none" stroke="#63b8ff" d="M1079.64,-280.61C1160.99,-271.8 1406.51,-245.18 1502.72,-234.76"/>
<polygon fill="#63b8ff" stroke="#63b8ff" points="1503.33,-238.21 1512.9,-233.65 1502.58,-231.25 1503.33,-238.21"/>
</g>
<!-- Node5 -->
<g id="node5" class="node">
<title>Node5</title>
<g id="a_node5"><a xlink:href="logger_8h.html" target="_top" xlink:title=" ">
<polygon fill="white" stroke="#666666" points="667.5,-184 580.5,-184 580.5,-165 667.5,-165 667.5,-184"/>
<text text-anchor="middle" x="624" y="-172" font-family="Helvetica,sans-Serif" font-size="10.00">ccf/ds/logger.h</text>
</a>
</g>
</g>
<!-- Node4&#45;&gt;Node5 -->
<g id="edge4" class="edge">
<title>Node4&#45;&gt;Node5</title>
<path fill="none" stroke="#63b8ff" d="M655.73,-219.75C650.41,-212.34 642.64,-201.5 636.12,-192.41"/>
<polygon fill="#63b8ff" stroke="#63b8ff" points="638.83,-190.18 630.16,-184.09 633.14,-194.26 638.83,-190.18"/>
</g>
<!-- Node6 -->
<g id="node6" class="node">
<title>Node6</title>
<g id="a_node6"><a xlink:href="enum__formatter_8h.html" target="_top" xlink:title=" ">
<polygon fill="white" stroke="#666666" points="807,-129 671,-129 671,-110 807,-110 807,-129"/>
<text text-anchor="middle" x="739" y="-117" font-family="Helvetica,sans-Serif" font-size="10.00">ccf/ds/enum_formatter.h</text>
</a>
</g>
</g>
<!-- Node5&#45;&gt;Node6 -->
<g id="edge5" class="edge">
<title>Node5&#45;&gt;Node6</title>
<path fill="none" stroke="#63b8ff" d="M642.48,-164.98C660.98,-156.46 689.68,-143.23 710.98,-133.41"/>
<polygon fill="#63b8ff" stroke="#63b8ff" points="712.57,-136.53 720.19,-129.17 709.64,-130.18 712.57,-136.53"/>
</g>
<!-- Node7 -->
<g id="node7" class="node">
<title>Node7</title>
<g id="a_node7"><a xlink:title=" ">
<polygon fill="#e0e0e0" stroke="#999999" points="986.5,-74 907.5,-74 907.5,-55 986.5,-55 986.5,-74"/>
<text text-anchor="middle" x="947" y="-62" font-family="Helvetica,sans-Serif" font-size="10.00">fmt/format.h</text>
</a>
</g>
</g>
<!-- Node5&#45;&gt;Node7 -->
<g id="edge15" class="edge">
<title>Node5&#45;&gt;Node7</title>
<path fill="none" stroke="#63b8ff" d="M626.53,-164.85C631.1,-150.83 642.19,-123.36 662,-110 699.5,-84.72 825.95,-72.96 897.17,-68.23"/>
<polygon fill="#63b8ff" stroke="#63b8ff" points="897.51,-71.71 907.26,-67.58 897.06,-64.73 897.51,-71.71"/>
</g>
<!-- Node8 -->
<g id="node8" class="node">
<title>Node8</title>
<g id="a_node8"><a xlink:href="thread__ids_8h.html" target="_top" xlink:title=" ">
<polygon fill="white" stroke="#666666" points="288,-129 180,-129 180,-110 288,-110 288,-129"/>
<text text-anchor="middle" x="234" y="-117" font-family="Helvetica,sans-Serif" font-size="10.00">ccf/ds/thread_ids.h</text>
</a>
</g>
</g>
<!-- Node5&#45;&gt;Node8 -->
<g id="edge7" class="edge">
<title>Node5&#45;&gt;Node8</title>
<path fill="none" stroke="#63b8ff" d="M580.4,-167.57C511.68,-158.24 377.83,-140.05 298.14,-129.22"/>
<polygon fill="#63b8ff" stroke="#63b8ff" points="298.6,-125.75 288.22,-127.87 297.65,-132.68 298.6,-125.75"/>
</g>
<!-- Node14 -->
<g id="node14" class="node">
<title>Node14</title>
<g id="a_node14"><a xlink:title=" ">
<polygon fill="#e0e0e0" stroke="#999999" points="499.5,-129 420.5,-129 420.5,-110 499.5,-110 499.5,-129"/>
<text text-anchor="middle" x="460" y="-117" font-family="Helvetica,sans-Serif" font-size="10.00">fmt/chrono.h</text>
</a>
</g>
</g>
<!-- Node5&#45;&gt;Node14 -->
<g id="edge14" class="edge">
<title>Node5&#45;&gt;Node14</title>
<path fill="none" stroke="#63b8ff" d="M597.65,-164.98C570.24,-156.13 527.11,-142.19 496.44,-132.28"/>
<polygon fill="#63b8ff" stroke="#63b8ff" points="497.15,-128.83 486.56,-129.08 495,-135.49 497.15,-128.83"/>
</g>
<!-- Node15 -->
<g id="node15" class="node">
<title>Node15</title>
<g id="a_node15"><a xlink:title=" ">
<polygon fill="#e0e0e0" stroke="#999999" points="577,-129 517,-129 517,-110 577,-110 577,-129"/>
<text text-anchor="middle" x="547" y="-117" font-family="Helvetica,sans-Serif" font-size="10.00">iostream</text>
</a>
</g>
</g>
<!-- Node5&#45;&gt;Node15 -->
<g id="edge16" class="edge">
<title>Node5&#45;&gt;Node15</title>
<path fill="none" stroke="#63b8ff" d="M611.63,-164.98C599.91,-156.92 582.08,-144.65 568.11,-135.03"/>
<polygon fill="#63b8ff" stroke="#63b8ff" points="569.82,-131.96 559.6,-129.17 565.85,-137.72 569.82,-131.96"/>
</g>
<!-- Node5&#45;&gt;Node16 -->
<g id="edge17" class="edge">
<title>Node5&#45;&gt;Node16</title>
<path fill="none" stroke="#63b8ff" d="M622.17,-164.82C619.93,-151.72 617.68,-126.64 629,-110 639.42,-94.68 656.67,-84.44 673.36,-77.68"/>
<polygon fill="#63b8ff" stroke="#63b8ff" points="674.91,-80.84 683.07,-74.1 672.48,-74.28 674.91,-80.84"/>
</g>
<!-- Node5&#45;&gt;Node17 -->
<g id="edge18" class="edge">
<title>Node5&#45;&gt;Node17</title>
<path fill="none" stroke="#63b8ff" d="M660.79,-164.98C703.16,-155.18 772.42,-139.15 815.21,-129.25"/>
<polygon fill="#63b8ff" stroke="#63b8ff" points="816.01,-132.65 824.96,-126.99 814.43,-125.83 816.01,-132.65"/>
</g>
<!-- Node18 -->
<g id="node18" class="node">
<title>Node18</title>
<g id="a_node18"><a xlink:title=" ">
<polygon fill="#e0e0e0" stroke="#999999" points="1031,-129 975,-129 975,-110 1031,-110 1031,-129"/>
<text text-anchor="middle" x="1003" y="-117" font-family="Helvetica,sans-Serif" font-size="10.00">sstream</text>
</a>
</g>
</g>
<!-- Node5&#45;&gt;Node18 -->
<g id="edge19" class="edge">
<title>Node5&#45;&gt;Node18</title>
<path fill="none" stroke="#63b8ff" d="M667.85,-167.37C742.54,-156.92 893.25,-135.85 964.29,-125.91"/>
<polygon fill="#63b8ff" stroke="#63b8ff" points="965.16,-129.33 974.57,-124.48 964.19,-122.39 965.16,-129.33"/>
</g>
<!-- Node19 -->
<g id="node19" class="node">
<title>Node19</title>
<g id="a_node19"><a xlink:title=" ">
<polygon fill="#e0e0e0" stroke="#999999" points="715.5,-19 646.5,-19 646.5,0 715.5,0 715.5,-19"/>
<text text-anchor="middle" x="681" y="-7" font-family="Helvetica,sans-Serif" font-size="10.00">type_traits</text>
</a>
</g>
</g>
<!-- Node5&#45;&gt;Node19 -->
<g id="edge20" class="edge">
<title>Node5&#45;&gt;Node19</title>
<path fill="none" stroke="#63b8ff" d="M580.26,-170.7C524.25,-166.09 431.91,-154.73 411,-129 405.67,-122.45 406.17,-116.93 411,-110 462.05,-36.78 573.35,-17.3 635.94,-12.21"/>
<polygon fill="#63b8ff" stroke="#63b8ff" points="636.57,-15.67 646.29,-11.46 636.07,-8.69 636.57,-15.67"/>
</g>
<!-- Node6&#45;&gt;Node7 -->
<g id="edge6" class="edge">
<title>Node6&#45;&gt;Node7</title>
<path fill="none" stroke="#63b8ff" d="M772.42,-109.98C807.94,-100.93 864.27,-86.58 903.3,-76.64"/>
<polygon fill="#63b8ff" stroke="#63b8ff" points="904.49,-79.94 913.32,-74.08 902.76,-73.16 904.49,-79.94"/>
</g>
<!-- Node8&#45;&gt;Node7 -->
<g id="edge8" class="edge">
<title>Node8&#45;&gt;Node7</title>
<path fill="none" stroke="#63b8ff" d="M288.18,-114.47C422.18,-104.51 767.64,-78.83 897.06,-69.21"/>
<polygon fill="#63b8ff" stroke="#63b8ff" points="897.38,-72.7 907.09,-68.47 896.86,-65.72 897.38,-72.7"/>
</g>
<!-- Node9 -->
<g id="node9" class="node">
<title>Node9</title>
<g id="a_node9"><a xlink:title=" ">
<polygon fill="#e0e0e0" stroke="#999999" points="214,-74 128,-74 128,-55 214,-55 214,-74"/>
<text text-anchor="middle" x="171" y="-62" font-family="Helvetica,sans-Serif" font-size="10.00">fmt/ostream.h</text>
</a>
</g>
</g>
<!-- Node8&#45;&gt;Node9 -->
<g id="edge9" class="edge">
<title>Node8&#45;&gt;Node9</title>
<path fill="none" stroke="#63b8ff" d="M223.88,-109.98C214.56,-102.15 200.53,-90.34 189.26,-80.86"/>
<polygon fill="#63b8ff" stroke="#63b8ff" points="191.21,-77.93 181.31,-74.17 186.71,-83.29 191.21,-77.93"/>
</g>
<!-- Node10 -->
<g id="node10" class="node">
<title>Node10</title>
<g id="a_node10"><a xlink:title=" ">
<polygon fill="#e0e0e0" stroke="#999999" points="293.5,-74 232.5,-74 232.5,-55 293.5,-55 293.5,-74"/>
<text text-anchor="middle" x="263" y="-62" font-family="Helvetica,sans-Serif" font-size="10.00">fmt/std.h</text>
</a>
</g>
</g>
<!-- Node8&#45;&gt;Node10 -->
<g id="edge10" class="edge">
<title>Node8&#45;&gt;Node10</title>
<path fill="none" stroke="#63b8ff" d="M238.79,-109.75C242.76,-102.49 248.53,-91.95 253.43,-82.98"/>
<polygon fill="#63b8ff" stroke="#63b8ff" points="256.57,-84.54 258.3,-74.09 250.43,-81.18 256.57,-84.54"/>
</g>
<!-- Node11 -->
<g id="node11" class="node">
<title>Node11</title>
<g id="a_node11"><a xlink:title=" ">
<polygon fill="#e0e0e0" stroke="#999999" points="44,-74 0,-74 0,-55 44,-55 44,-74"/>
<text text-anchor="middle" x="22" y="-62" font-family="Helvetica,sans-Serif" font-size="10.00">limits</text>
</a>
</g>
</g>
<!-- Node8&#45;&gt;Node11 -->
<g id="edge11" class="edge">
<title>Node8&#45;&gt;Node11</title>
<path fill="none" stroke="#63b8ff" d="M198.21,-110C163.72,-101.74 109.81,-88.66 54.34,-74.3"/>
<polygon fill="#63b8ff" stroke="#63b8ff" points="54.89,-70.83 44.33,-71.7 53.13,-77.6 54.89,-70.83"/>
</g>
<!-- Node8&#45;&gt;Node12 -->
<g id="edge12" class="edge">
<title>Node8&#45;&gt;Node12</title>
<path fill="none" stroke="#63b8ff" d="M249.58,-109.98C264.77,-101.69 288.1,-88.94 305.9,-79.22"/>
<polygon fill="#63b8ff" stroke="#63b8ff" points="308.03,-82.04 315.13,-74.17 304.68,-75.89 308.03,-82.04"/>
</g>
<!-- Node13 -->
<g id="node13" class="node">
<title>Node13</title>
<g id="a_node13"><a xlink:title=" ">
<polygon fill="#e0e0e0" stroke="#999999" points="110,-74 62,-74 62,-55 110,-55 110,-74"/>
<text text-anchor="middle" x="86" y="-62" font-family="Helvetica,sans-Serif" font-size="10.00">thread</text>
</a>
</g>
</g>
<!-- Node8&#45;&gt;Node13 -->
<g id="edge13" class="edge">
<title>Node8&#45;&gt;Node13</title>
<path fill="none" stroke="#63b8ff" d="M210.22,-109.98C185.77,-101.23 147.47,-87.51 119.85,-77.62"/>
<polygon fill="#63b8ff" stroke="#63b8ff" points="120.81,-74.25 110.21,-74.17 118.45,-80.84 120.81,-74.25"/>
</g>
<!-- Node20&#45;&gt;Node7 -->
<g id="edge41" class="edge">
<title>Node20&#45;&gt;Node7</title>
<path fill="none" stroke="#63b8ff" d="M1272.09,-219.9C1264.06,-197.63 1239.37,-137.91 1197,-110 1164.83,-88.81 1060.06,-75.81 996.82,-69.7"/>
<polygon fill="#63b8ff" stroke="#63b8ff" points="996.95,-66.19 986.66,-68.74 996.29,-73.16 996.95,-66.19"/>
</g>
<!-- Node21 -->
<g id="node21" class="node">
<title>Node21</title>
<g id="a_node21"><a xlink:href="json_8h.html" target="_top" xlink:title=" ">
<polygon fill="white" stroke="#666666" points="1208.5,-184 1131.5,-184 1131.5,-165 1208.5,-165 1208.5,-184"/>
<text text-anchor="middle" x="1170" y="-172" font-family="Helvetica,sans-Serif" font-size="10.00">ccf/ds/json.h</text>
</a>
</g>
</g>
<!-- Node20&#45;&gt;Node21 -->
<g id="edge22" class="edge">
<title>Node20&#45;&gt;Node21</title>
<path fill="none" stroke="#63b8ff" d="M1258.13,-219.98C1241.39,-211.54 1215.5,-198.47 1196.11,-188.68"/>
<polygon fill="#63b8ff" stroke="#63b8ff" points="1197.68,-185.55 1187.18,-184.17 1194.53,-191.8 1197.68,-185.55"/>
</g>
<!-- Node28 -->
<g id="node28" class="node">
<title>Node28</title>
<g id="a_node28"><a xlink:title=" ">
<polygon fill="#e0e0e0" stroke="#999999" points="1371,-19 1329,-19 1329,0 1371,0 1371,-19"/>
<text text-anchor="middle" x="1350" y="-7" font-family="Helvetica,sans-Serif" font-size="10.00">array</text>
</a>
</g>
</g>
<!-- Node20&#45;&gt;Node28 -->
<g id="edge39" class="edge">
<title>Node20&#45;&gt;Node28</title>
<path fill="none" stroke="#63b8ff" d="M1333.66,-219.94C1355.04,-213.67 1377.11,-202.81 1390,-184 1423.72,-134.8 1383.88,-61.2 1362.22,-27.93"/>
<polygon fill="#63b8ff" stroke="#63b8ff" points="1364.91,-25.66 1356.42,-19.32 1359.1,-29.57 1364.91,-25.66"/>
</g>
<!-- Node31 -->
<g id="node31" class="node">
<title>Node31</title>
<g id="a_node31"><a xlink:title=" ">
<polygon fill="#e0e0e0" stroke="#999999" points="1381,-184 1341,-184 1341,-165 1381,-165 1381,-184"/>
<text text-anchor="middle" x="1361" y="-172" font-family="Helvetica,sans-Serif" font-size="10.00">span</text>
</a>
</g>
</g>
<!-- Node20&#45;&gt;Node31 -->
<g id="edge40" class="edge">
<title>Node20&#45;&gt;Node31</title>
<path fill="none" stroke="#63b8ff" d="M1288.82,-219.98C1302.15,-211.77 1322.58,-199.18 1338.31,-189.49"/>
<polygon fill="#63b8ff" stroke="#63b8ff" points="1340.25,-192.4 1346.93,-184.17 1336.58,-186.44 1340.25,-192.4"/>
</g>
<!-- Node21&#45;&gt;Node7 -->
<g id="edge37" class="edge">
<title>Node21&#45;&gt;Node7</title>
<path fill="none" stroke="#63b8ff" d="M1175.06,-164.57C1181.91,-151.13 1191.91,-125.62 1179,-110 1156.34,-82.58 1057.87,-71.89 996.73,-67.84"/>
<polygon fill="#63b8ff" stroke="#63b8ff" points="996.71,-64.34 986.52,-67.21 996.28,-71.32 996.71,-64.34"/>
</g>
<!-- Node21&#45;&gt;Node18 -->
<g id="edge38" class="edge">
<title>Node21&#45;&gt;Node18</title>
<path fill="none" stroke="#63b8ff" d="M1143.17,-164.98C1115.13,-156.09 1070.95,-142.07 1039.7,-132.15"/>
<polygon fill="#63b8ff" stroke="#63b8ff" points="1040.63,-128.77 1030.04,-129.08 1038.51,-135.44 1040.63,-128.77"/>
</g>
<!-- Node22 -->
<g id="node22" class="node">
<title>Node22</title>
<g id="a_node22"><a xlink:href="include_2ccf_2crypto_2base64_8h.html" target="_top" xlink:title=" ">
<polygon fill="white" stroke="#666666" points="1343,-74 1231,-74 1231,-55 1343,-55 1343,-74"/>
<text text-anchor="middle" x="1287" y="-62" font-family="Helvetica,sans-Serif" font-size="10.00">ccf/crypto/base64.h</text>
</a>
</g>
</g>
<!-- Node21&#45;&gt;Node22 -->
<g id="edge23" class="edge">
<title>Node21&#45;&gt;Node22</title>
<path fill="none" stroke="#63b8ff" d="M1179.57,-164.66C1199.38,-146.38 1245.1,-104.18 1270.03,-81.17"/>
<polygon fill="#63b8ff" stroke="#63b8ff" points="1272.65,-83.51 1277.62,-74.16 1267.9,-78.37 1272.65,-83.51"/>
</g>
<!-- Node25 -->
<g id="node25" class="node">
<title>Node25</title>
<g id="a_node25"><a xlink:href="include_2ccf_2ds_2json__schema_8h.html" target="_top" xlink:title=" ">
<polygon fill="white" stroke="#666666" points="1170.5,-129 1049.5,-129 1049.5,-110 1170.5,-110 1170.5,-129"/>
<text text-anchor="middle" x="1110" y="-117" font-family="Helvetica,sans-Serif" font-size="10.00">ccf/ds/json_schema.h</text>
</a>
</g>
</g>
<!-- Node21&#45;&gt;Node25 -->
<g id="edge26" class="edge">
<title>Node21&#45;&gt;Node25</title>
<path fill="none" stroke="#63b8ff" d="M1160.36,-164.98C1151.49,-157.15 1138.13,-145.34 1127.39,-135.86"/>
<polygon fill="#63b8ff" stroke="#63b8ff" points="1129.63,-133.17 1119.82,-129.17 1124.99,-138.41 1129.63,-133.17"/>
</g>
<!-- Node22&#45;&gt;Node23 -->
<g id="edge24" class="edge">
<title>Node22&#45;&gt;Node23</title>
<path fill="none" stroke="#63b8ff" d="M1306.92,-54.98C1327.05,-46.38 1358.38,-32.99 1381.41,-23.15"/>
<polygon fill="#63b8ff" stroke="#63b8ff" points="1382.9,-26.32 1390.71,-19.17 1380.14,-19.88 1382.9,-26.32"/>
</g>
<!-- Node24 -->
<g id="node24" class="node">
<title>Node24</title>
<g id="a_node24"><a xlink:title=" ">
<polygon fill="#e0e0e0" stroke="#999999" points="1310.5,-19 1263.5,-19 1263.5,0 1310.5,0 1310.5,-19"/>
<text text-anchor="middle" x="1287" y="-7" font-family="Helvetica,sans-Serif" font-size="10.00">vector</text>
</a>
</g>
</g>
<!-- Node22&#45;&gt;Node24 -->
<g id="edge25" class="edge">
<title>Node22&#45;&gt;Node24</title>
<path fill="none" stroke="#63b8ff" d="M1287,-54.75C1287,-47.8 1287,-37.85 1287,-29.13"/>
<polygon fill="#63b8ff" stroke="#63b8ff" points="1290.5,-29.09 1287,-19.09 1283.5,-29.09 1290.5,-29.09"/>
</g>
<!-- Node25&#45;&gt;Node7 -->
<g id="edge35" class="edge">
<title>Node25&#45;&gt;Node7</title>
<path fill="none" stroke="#63b8ff" d="M1083.81,-109.98C1056.56,-101.13 1013.7,-87.19 983.22,-77.28"/>
<polygon fill="#63b8ff" stroke="#63b8ff" points="983.99,-73.85 973.39,-74.08 981.82,-80.5 983.99,-73.85"/>
</g>
<!-- Node25&#45;&gt;Node16 -->
<g id="edge36" class="edge">
<title>Node25&#45;&gt;Node16</title>
<path fill="none" stroke="#63b8ff" d="M1049.49,-110.28C977.87,-100.54 859.05,-84.4 785.37,-74.38"/>
<polygon fill="#63b8ff" stroke="#63b8ff" points="785.66,-70.89 775.28,-73.01 784.72,-77.83 785.66,-70.89"/>
</g>
<!-- Node26 -->
<g id="node26" class="node">
<title>Node26</title>
<g id="a_node26"><a xlink:href="nonstd_8h.html" target="_top" xlink:title=" ">
<polygon fill="white" stroke="#666666" points="1213,-74 1123,-74 1123,-55 1213,-55 1213,-74"/>
<text text-anchor="middle" x="1168" y="-62" font-family="Helvetica,sans-Serif" font-size="10.00">ccf/ds/nonstd.h</text>
</a>
</g>
</g>
<!-- Node25&#45;&gt;Node26 -->
<g id="edge27" class="edge">
<title>Node25&#45;&gt;Node26</title>
<path fill="none" stroke="#63b8ff" d="M1119.32,-109.98C1127.81,-102.23 1140.56,-90.58 1150.88,-81.14"/>
<polygon fill="#63b8ff" stroke="#63b8ff" points="1153.49,-83.5 1158.51,-74.17 1148.77,-78.33 1153.49,-83.5"/>
</g>
<!-- Node26&#45;&gt;Node19 -->
<g id="edge33" class="edge">
<title>Node26&#45;&gt;Node19</title>
<path fill="none" stroke="#63b8ff" d="M1122.62,-58.56C1029.63,-48.44 818.41,-25.45 725.86,-15.38"/>
<polygon fill="#63b8ff" stroke="#63b8ff" points="726.02,-11.88 715.7,-14.28 725.26,-18.84 726.02,-11.88"/>
</g>
<!-- Node26&#45;&gt;Node23 -->
<g id="edge31" class="edge">
<title>Node26&#45;&gt;Node23</title>
<path fill="none" stroke="#63b8ff" d="M1212.43,-54.99C1253.27,-46.99 1315.69,-34.29 1378.59,-19.23"/>
<polygon fill="#63b8ff" stroke="#63b8ff" points="1379.79,-22.54 1388.69,-16.79 1378.15,-15.74 1379.79,-22.54"/>
</g>
<!-- Node26&#45;&gt;Node24 -->
<g id="edge34" class="edge">
<title>Node26&#45;&gt;Node24</title>
<path fill="none" stroke="#63b8ff" d="M1187.12,-54.98C1206.35,-46.42 1236.23,-33.11 1258.31,-23.28"/>
<polygon fill="#63b8ff" stroke="#63b8ff" points="1259.82,-26.44 1267.53,-19.17 1256.97,-20.04 1259.82,-26.44"/>
</g>
<!-- Node27 -->
<g id="node27" class="node">
<title>Node27</title>
<g id="a_node27"><a xlink:title=" ">
<polygon fill="#e0e0e0" stroke="#999999" points="1245,-19 1181,-19 1181,0 1245,0 1245,-19"/>
<text text-anchor="middle" x="1213" y="-7" font-family="Helvetica,sans-Serif" font-size="10.00">algorithm</text>
</a>
</g>
</g>
<!-- Node26&#45;&gt;Node27 -->
<g id="edge28" class="edge">
<title>Node26&#45;&gt;Node27</title>
<path fill="none" stroke="#63b8ff" d="M1175.43,-54.75C1181.85,-47.18 1191.31,-36.05 1199.12,-26.84"/>
<polygon fill="#63b8ff" stroke="#63b8ff" points="1201.9,-28.98 1205.71,-19.09 1196.57,-24.45 1201.9,-28.98"/>
</g>
<!-- Node26&#45;&gt;Node28 -->
<g id="edge29" class="edge">
<title>Node26&#45;&gt;Node28</title>
<path fill="none" stroke="#63b8ff" d="M1197.24,-54.98C1230.57,-45.28 1284.83,-29.48 1318.91,-19.55"/>
<polygon fill="#63b8ff" stroke="#63b8ff" points="1320.17,-22.83 1328.79,-16.68 1318.21,-16.11 1320.17,-22.83"/>
</g>
<!-- Node29 -->
<g id="node29" class="node">
<title>Node29</title>
<g id="a_node29"><a xlink:title=" ">
<polygon fill="#e0e0e0" stroke="#999999" points="1162.5,-19 1113.5,-19 1113.5,0 1162.5,0 1162.5,-19"/>
<text text-anchor="middle" x="1138" y="-7" font-family="Helvetica,sans-Serif" font-size="10.00">cctype</text>
</a>
</g>
</g>
<!-- Node26&#45;&gt;Node29 -->
<g id="edge30" class="edge">
<title>Node26&#45;&gt;Node29</title>
<path fill="none" stroke="#63b8ff" d="M1163.05,-54.75C1158.94,-47.49 1152.97,-36.95 1147.9,-27.98"/>
<polygon fill="#63b8ff" stroke="#63b8ff" points="1150.83,-26.07 1142.86,-19.09 1144.74,-29.52 1150.83,-26.07"/>
</g>
<!-- Node30 -->
<g id="node30" class="node">
<title>Node30</title>
<g id="a_node30"><a xlink:title=" ">
<polygon fill="#e0e0e0" stroke="#999999" points="1095.5,-19 1022.5,-19 1022.5,0 1095.5,0 1095.5,-19"/>
<text text-anchor="middle" x="1059" y="-7" font-family="Helvetica,sans-Serif" font-size="10.00">string_view</text>
</a>
</g>
</g>
<!-- Node26&#45;&gt;Node30 -->
<g id="edge32" class="edge">
<title>Node26&#45;&gt;Node30</title>
<path fill="none" stroke="#63b8ff" d="M1150.49,-54.98C1133.03,-46.5 1105.99,-33.35 1085.83,-23.54"/>
<polygon fill="#63b8ff" stroke="#63b8ff" points="1087.36,-20.4 1076.83,-19.17 1084.29,-26.69 1087.36,-20.4"/>
</g>
<!-- Node32&#45;&gt;Node7 -->
<g id="edge46" class="edge">
<title>Node32&#45;&gt;Node7</title>
<path fill="none" stroke="#63b8ff" d="M1045.28,-219.87C1024.52,-196.64 968.88,-134.22 966,-129 958.25,-114.98 953.31,-97.43 950.42,-84.33"/>
<polygon fill="#63b8ff" stroke="#63b8ff" points="953.78,-83.29 948.38,-74.17 946.92,-84.67 953.78,-83.29"/>
</g>
<!-- Node32&#45;&gt;Node16 -->
<g id="edge47" class="edge">
<title>Node32&#45;&gt;Node16</title>
<path fill="none" stroke="#63b8ff" d="M1019.42,-228.87C983.8,-227.29 928.68,-218.86 899,-184 877.52,-158.77 911.79,-134.95 890,-110 876.02,-93.99 826.9,-82.23 785.03,-74.83"/>
<polygon fill="#63b8ff" stroke="#63b8ff" points="785.57,-71.37 775.12,-73.13 784.39,-78.27 785.57,-71.37"/>
</g>
<!-- Node32&#45;&gt;Node17 -->
<g id="edge48" class="edge">
<title>Node32&#45;&gt;Node17</title>
<path fill="none" stroke="#63b8ff" d="M1043.26,-219.96C1027.91,-206.8 996.74,-181.4 967,-165 942.69,-151.59 913.5,-140.28 890.74,-132.41"/>
<polygon fill="#63b8ff" stroke="#63b8ff" points="891.69,-129.04 881.1,-129.15 889.45,-135.67 891.69,-129.04"/>
</g>
<!-- Node32&#45;&gt;Node21 -->
<g id="edge43" class="edge">
<title>Node32&#45;&gt;Node21</title>
<path fill="none" stroke="#63b8ff" d="M1071.8,-219.98C1090.62,-211.46 1119.82,-198.23 1141.5,-188.41"/>
<polygon fill="#63b8ff" stroke="#63b8ff" points="1143.2,-191.48 1150.86,-184.17 1140.31,-185.11 1143.2,-191.48"/>
</g>
<!-- Node32&#45;&gt;Node23 -->
<g id="edge49" class="edge">
<title>Node32&#45;&gt;Node23</title>
<path fill="none" stroke="#63b8ff" d="M1086.52,-225.38C1124.3,-220.74 1186.61,-209.63 1234,-184 1308.7,-143.61 1373.42,-62.37 1399.15,-27.28"/>
<polygon fill="#63b8ff" stroke="#63b8ff" points="1402.09,-29.2 1405.1,-19.04 1396.41,-25.1 1402.09,-29.2"/>
</g>
<!-- Node32&#45;&gt;Node30 -->
<g id="edge50" class="edge">
<title>Node32&#45;&gt;Node30</title>
<path fill="none" stroke="#63b8ff" d="M1086.79,-224.17C1130.03,-217.85 1201.27,-204.56 1217,-184 1231.83,-164.61 1213.14,-127.14 1197,-110 1169.44,-80.72 1146.42,-97.79 1114,-74 1096.45,-61.12 1080.66,-41.66 1070.55,-27.68"/>
<polygon fill="#63b8ff" stroke="#63b8ff" points="1073.37,-25.6 1064.77,-19.41 1067.63,-29.61 1073.37,-25.6"/>
</g>
<!-- Node33 -->
<g id="node33" class="node">
<title>Node33</title>
<g id="a_node33"><a xlink:title=" ">
<polygon fill="#e0e0e0" stroke="#999999" points="1113.5,-184 1052.5,-184 1052.5,-165 1113.5,-165 1113.5,-184"/>
<text text-anchor="middle" x="1083" y="-172" font-family="Helvetica,sans-Serif" font-size="10.00">charconv</text>
</a>
</g>
</g>
<!-- Node32&#45;&gt;Node33 -->
<g id="edge44" class="edge">
<title>Node32&#45;&gt;Node33</title>
<path fill="none" stroke="#63b8ff" d="M1057.95,-219.75C1062.06,-212.49 1068.03,-201.95 1073.1,-192.98"/>
<polygon fill="#63b8ff" stroke="#63b8ff" points="1076.26,-194.52 1078.14,-184.09 1070.17,-191.07 1076.26,-194.52"/>
</g>
<!-- Node34 -->
<g id="node34" class="node">
<title>Node34</title>
<g id="a_node34"><a xlink:title=" ">
<polygon fill="#e0e0e0" stroke="#999999" points="958,-184 908,-184 908,-165 958,-165 958,-184"/>
<text text-anchor="middle" x="933" y="-172" font-family="Helvetica,sans-Serif" font-size="10.00">cstdint</text>
</a>
</g>
</g>
<!-- Node32&#45;&gt;Node34 -->
<g id="edge45" class="edge">
<title>Node32&#45;&gt;Node34</title>
<path fill="none" stroke="#63b8ff" d="M1033.72,-219.98C1014.33,-211.42 984.19,-198.11 961.93,-188.28"/>
<polygon fill="#63b8ff" stroke="#63b8ff" points="963.19,-185.01 952.63,-184.17 960.36,-191.41 963.19,-185.01"/>
</g>
</g>
</svg>
        <g id="navigator" transform="translate(0 0)" fill="#404254">
                <rect fill="#f2f5e9" fill-opacity="0.5" stroke="#606060" stroke-width=".5" x="0" y="0" width="60" height="60"/>
                <use id="zoomplus" xlink:href="#zoomPlus" x="17" y="9" onmousedown="handleZoom(evt,'in')"/>
                <use id="zoomminus" xlink:href="#zoomMin" x="42" y="9" onmousedown="handleZoom(evt,'out')"/>
                <use id="reset" xlink:href="#resetDef" x="30" y="36" onmousedown="handleReset()"/>
                <g id="arrowUp" xlink:href="#dirArrow" transform="translate(30 24)" onmousedown="handlePan(0,-1)">
                  <use xlink:href="#rim" fill="#404040">
                        <set attributeName="fill" to="#808080" begin="arrowUp.mouseover" end="arrowUp.mouseout"/>
                  </use>
                  <path fill="none" stroke="white" stroke-width="1.5" d="M0,-3.0v7 M-2.5,-0.5L0,-3.0L2.5,-0.5"/>
                </g>
                <g id="arrowRight" xlink:href="#dirArrow" transform="rotate(90) translate(36 -43)" onmousedown="handlePan(1,0)">
                  <use xlink:href="#rim" fill="#404040">
                        <set attributeName="fill" to="#808080" begin="arrowRight.mouseover" end="arrowRight.mouseout"/>
                  </use>
                  <path fill="none" stroke="white" stroke-width="1.5" d="M0,-3.0v7 M-2.5,-0.5L0,-3.0L2.5,-0.5"/>
                </g>
                <g id="arrowDown" xlink:href="#dirArrow" transform="rotate(180) translate(-30 -48)" onmousedown="handlePan(0,1)">
                  <use xlink:href="#rim" fill="#404040">
                        <set attributeName="fill" to="#808080" begin="arrowDown.mouseover" end="arrowDown.mouseout"/>
                  </use>
                  <path fill="none" stroke="white" stroke-width="1.5" d="M0,-3.0v7 M-2.5,-0.5L0,-3.0L2.5,-0.5"/>
                </g>
                <g id="arrowLeft" xlink:href="#dirArrow" transform="rotate(270) translate(-36 17)" onmousedown="handlePan(-1,0)">
                  <use xlink:href="#rim" fill="#404040">
                        <set attributeName="fill" to="#808080" begin="arrowLeft.mouseover" end="arrowLeft.mouseout"/>
                  </use>
                  <path fill="none" stroke="white" stroke-width="1.5" d="M0,-3.0v7 M-2.5,-0.5L0,-3.0L2.5,-0.5"/>
                </g>
        </g>
        <svg viewBox="0 0 15 15" width="100%" height="30px" preserveAspectRatio="xMaxYMin meet">
         <g id="arrow_out" transform="scale(0.3 0.3)">
          <a xlink:href="endpoint__context_8h__incl_org.svg" target="_base">
           <rect id="button" ry="5" rx="5" y="6" x="6" height="38" width="38"
                fill="#f2f5e9" fill-opacity="0.5" stroke="#606060" stroke-width="1.0"/>
           <path id="arrow"
             d="M 11.500037,31.436501 C 11.940474,20.09759 22.043105,11.32322 32.158766,21.979434 L 37.068811,17.246167 C 37.068811,17.246167 37.088388,32 37.088388,32 L 22.160133,31.978069 C 22.160133,31.978069 26.997745,27.140456 26.997745,27.140456 C 18.528582,18.264221 13.291696,25.230495 11.500037,31.436501 z"
             style="fill:#404040;"/>
          </a>
         </g>
        </svg>
</svg>
