<?xml version="1.0" encoding="UTF-8" standalone="no"?>
<!DOCTYPE svg PUBLIC "-//W3C//DTD SVG 1.1//EN"
 "http://www.w3.org/Graphics/SVG/1.1/DTD/svg11.dtd">
<!-- Generated by graphviz version 2.43.0 (0)
 -->
<!-- Title: include/ccf/service/tables/gov.h Pages: 1 -->
<!--zoomable 577 -->
<svg id="main" version="1.1" xmlns="http://www.w3.org/2000/svg" xmlns:xlink="http://www.w3.org/1999/xlink" xml:space="preserve" onload="init(evt)">
<style type="text/css"><![CDATA[
.edge:hover path { stroke: red; }
.edge:hover polygon { stroke: red; fill: red; }
]]></style>
<script type="text/javascript"><![CDATA[
var edges = document.getElementsByTagName('g');
if (edges && edges.length) {
  for (var i=0;i<edges.length;i++) {
    if (edges[i].id.substr(0,4)=='edge') {
      edges[i].setAttribute('class','edge');
    }
  }
}
]]></script>
        <defs>
                <circle id="rim" cx="0" cy="0" r="7"/>
                <circle id="rim2" cx="0" cy="0" r="3.5"/>
                <g id="zoomPlus">
                        <use xlink:href="#rim" fill="#404040">
                                <set attributeName="fill" to="#808080" begin="zoomplus.mouseover" end="zoomplus.mouseout"/>
                        </use>
                        <path d="M-4,0h8M0,-4v8" fill="none" stroke="white" stroke-width="1.5" pointer-events="none"/>
                </g>
                <g id="zoomMin">
                        <use xlink:href="#rim" fill="#404040">
                                <set attributeName="fill" to="#808080" begin="zoomminus.mouseover" end="zoomminus.mouseout"/>
                        </use>
                        <path d="M-4,0h8" fill="none" stroke="white" stroke-width="1.5" pointer-events="none"/>
                </g>
                <g id="dirArrow">
                        <path fill="none" stroke="white" stroke-width="1.5" d="M0,-3.0v7 M-2.5,-0.5L0,-3.0L2.5,-0.5"/>
                </g>
               <g id="resetDef">
                       <use xlink:href="#rim2" fill="#404040">
                               <set attributeName="fill" to="#808080" begin="reset.mouseover" end="reset.mouseout"/>
                       </use>
               </g>
        </defs>

<script type="text/javascript">
var viewWidth = 1303;
var viewHeight = 577;
var sectionId = 'dynsection-0';
</script>
<script xlink:href="svgpan.js"/>
<svg id="graph" class="graph">
<g id="viewport">
<title>include/ccf/service/tables/gov.h</title>
<!-- Node1 -->
<g id="node1" class="node">
<title>Node1</title>
<g id="a_node1"><a xlink:title=" ">
<polygon fill="#999999" stroke="#666666" points="202.5,-569 95.5,-569 95.5,-539 202.5,-539 202.5,-569"/>
<text text-anchor="start" x="103.5" y="-557" font-family="Helvetica,sans-Serif" font-size="10.00">include/ccf/service</text>
<text text-anchor="middle" x="149" y="-546" font-family="Helvetica,sans-Serif" font-size="10.00">/tables/gov.h</text>
</a>
</g>
</g>
<!-- Node2 -->
<g id="node2" class="node">
<title>Node2</title>
<g id="a_node2"><a xlink:href="json_8h.html" target="_top" xlink:title=" ">
<polygon fill="white" stroke="#666666" points="150.5,-382 73.5,-382 73.5,-363 150.5,-363 150.5,-382"/>
<text text-anchor="middle" x="112" y="-370" font-family="Helvetica,sans-Serif" font-size="10.00">ccf/ds/json.h</text>
</a>
</g>
</g>
<!-- Node1&#45;&gt;Node2 -->
<g id="edge1" class="edge">
<title>Node1&#45;&gt;Node2</title>
<path fill="none" stroke="#63b8ff" d="M123.28,-538.97C110.43,-530.43 96.13,-518.23 89,-503 71.56,-465.76 90.04,-416.83 102.53,-391.08"/>
<polygon fill="#63b8ff" stroke="#63b8ff" points="105.67,-392.64 107.09,-382.14 99.43,-389.46 105.67,-392.64"/>
</g>
<!-- Node16 -->
<g id="node16" class="node">
<title>Node16</title>
<g id="a_node16"><a xlink:href="kv_2map_8h.html" target="_top" xlink:title=" ">
<polygon fill="white" stroke="#666666" points="794,-382 714,-382 714,-363 794,-363 794,-382"/>
<text text-anchor="middle" x="754" y="-370" font-family="Helvetica,sans-Serif" font-size="10.00">ccf/kv/map.h</text>
</a>
</g>
</g>
<!-- Node1&#45;&gt;Node16 -->
<g id="edge18" class="edge">
<title>Node1&#45;&gt;Node16</title>
<path fill="none" stroke="#63b8ff" d="M202.7,-545.8C295.44,-532.21 490.52,-498.46 645,-437 677.62,-424.02 712.12,-402.41 733.36,-388.05"/>
<polygon fill="#63b8ff" stroke="#63b8ff" points="735.61,-390.75 741.87,-382.21 731.64,-384.98 735.61,-390.75"/>
</g>
<!-- Node36 -->
<g id="node36" class="node">
<title>Node36</title>
<g id="a_node36"><a xlink:href="proposals_8h.html" target="_top" xlink:title=" ">
<polygon fill="white" stroke="#666666" points="200,-503 98,-503 98,-473 200,-473 200,-503"/>
<text text-anchor="start" x="106" y="-491" font-family="Helvetica,sans-Serif" font-size="10.00">ccf/service/tables</text>
<text text-anchor="middle" x="149" y="-480" font-family="Helvetica,sans-Serif" font-size="10.00">/proposals.h</text>
</a>
</g>
</g>
<!-- Node1&#45;&gt;Node36 -->
<g id="edge51" class="edge">
<title>Node1&#45;&gt;Node36</title>
<path fill="none" stroke="#63b8ff" d="M149,-538.8C149,-531.34 149,-521.99 149,-513.41"/>
<polygon fill="#63b8ff" stroke="#63b8ff" points="152.5,-513.16 149,-503.16 145.5,-513.16 152.5,-513.16"/>
</g>
<!-- Node3 -->
<g id="node3" class="node">
<title>Node3</title>
<g id="a_node3"><a xlink:href="include_2ccf_2crypto_2base64_8h.html" target="_top" xlink:title=" ">
<polygon fill="white" stroke="#666666" points="233,-255.5 121,-255.5 121,-236.5 233,-236.5 233,-255.5"/>
<text text-anchor="middle" x="177" y="-243.5" font-family="Helvetica,sans-Serif" font-size="10.00">ccf/crypto/base64.h</text>
</a>
</g>
</g>
<!-- Node2&#45;&gt;Node3 -->
<g id="edge2" class="edge">
<title>Node2&#45;&gt;Node3</title>
<path fill="none" stroke="#63b8ff" d="M116.47,-362.94C127,-342.77 153.55,-291.92 167.73,-264.76"/>
<polygon fill="#63b8ff" stroke="#63b8ff" points="170.98,-266.1 172.5,-255.62 164.77,-262.86 170.98,-266.1"/>
</g>
<!-- Node6 -->
<g id="node6" class="node">
<title>Node6</title>
<g id="a_node6"><a xlink:href="include_2ccf_2ds_2json__schema_8h.html" target="_top" xlink:title=" ">
<polygon fill="white" stroke="#666666" points="299.5,-321.5 178.5,-321.5 178.5,-302.5 299.5,-302.5 299.5,-321.5"/>
<text text-anchor="middle" x="239" y="-309.5" font-family="Helvetica,sans-Serif" font-size="10.00">ccf/ds/json_schema.h</text>
</a>
</g>
</g>
<!-- Node2&#45;&gt;Node6 -->
<g id="edge5" class="edge">
<title>Node2&#45;&gt;Node6</title>
<path fill="none" stroke="#63b8ff" d="M130.47,-362.99C151.72,-353.2 186.85,-337.02 211.37,-325.73"/>
<polygon fill="#63b8ff" stroke="#63b8ff" points="212.89,-328.88 220.51,-321.52 209.96,-322.52 212.89,-328.88"/>
</g>
<!-- Node13 -->
<g id="node13" class="node">
<title>Node13</title>
<g id="a_node13"><a xlink:title=" ">
<polygon fill="#e0e0e0" stroke="#999999" points="175.5,-74 96.5,-74 96.5,-55 175.5,-55 175.5,-74"/>
<text text-anchor="middle" x="136" y="-62" font-family="Helvetica,sans-Serif" font-size="10.00">fmt/format.h</text>
</a>
</g>
</g>
<!-- Node2&#45;&gt;Node13 -->
<g id="edge16" class="edge">
<title>Node2&#45;&gt;Node13</title>
<path fill="none" stroke="#63b8ff" d="M111.57,-362.93C110.57,-340.97 108.4,-280.87 112,-231 115.87,-177.33 126.71,-114.64 132.41,-84.11"/>
<polygon fill="#63b8ff" stroke="#63b8ff" points="135.89,-84.54 134.31,-74.07 129.01,-83.24 135.89,-84.54"/>
</g>
<!-- Node15 -->
<g id="node15" class="node">
<title>Node15</title>
<g id="a_node15"><a xlink:title=" ">
<polygon fill="#e0e0e0" stroke="#999999" points="84,-321.5 28,-321.5 28,-302.5 84,-302.5 84,-321.5"/>
<text text-anchor="middle" x="56" y="-309.5" font-family="Helvetica,sans-Serif" font-size="10.00">sstream</text>
</a>
</g>
</g>
<!-- Node2&#45;&gt;Node15 -->
<g id="edge17" class="edge">
<title>Node2&#45;&gt;Node15</title>
<path fill="none" stroke="#63b8ff" d="M103.74,-362.87C95.22,-353.97 81.74,-339.89 71.27,-328.95"/>
<polygon fill="#63b8ff" stroke="#63b8ff" points="73.74,-326.47 64.3,-321.67 68.68,-331.31 73.74,-326.47"/>
</g>
<!-- Node4 -->
<g id="node4" class="node">
<title>Node4</title>
<g id="a_node4"><a xlink:title=" ">
<polygon fill="#e0e0e0" stroke="#999999" points="664,-189.5 620,-189.5 620,-170.5 664,-170.5 664,-189.5"/>
<text text-anchor="middle" x="642" y="-177.5" font-family="Helvetica,sans-Serif" font-size="10.00">string</text>
</a>
</g>
</g>
<!-- Node3&#45;&gt;Node4 -->
<g id="edge3" class="edge">
<title>Node3&#45;&gt;Node4</title>
<path fill="none" stroke="#63b8ff" d="M233.09,-237.1C248.3,-235.03 264.77,-232.86 280,-231 426.44,-213.06 467.44,-233.01 610,-195 611.89,-194.5 613.81,-193.9 615.73,-193.23"/>
<polygon fill="#63b8ff" stroke="#63b8ff" points="617.06,-196.47 625.07,-189.54 614.49,-189.96 617.06,-196.47"/>
</g>
<!-- Node5 -->
<g id="node5" class="node">
<title>Node5</title>
<g id="a_node5"><a xlink:title=" ">
<polygon fill="#e0e0e0" stroke="#999999" points="157.5,-19 110.5,-19 110.5,0 157.5,0 157.5,-19"/>
<text text-anchor="middle" x="134" y="-7" font-family="Helvetica,sans-Serif" font-size="10.00">vector</text>
</a>
</g>
</g>
<!-- Node3&#45;&gt;Node5 -->
<g id="edge4" class="edge">
<title>Node3&#45;&gt;Node5</title>
<path fill="none" stroke="#63b8ff" d="M170.46,-236.36C152.69,-212.29 103.74,-141.74 87,-74 84.97,-65.8 83.66,-62.76 87,-55 92.15,-43.03 102.29,-32.76 111.83,-25.12"/>
<polygon fill="#63b8ff" stroke="#63b8ff" points="113.99,-27.88 119.93,-19.11 109.81,-22.26 113.99,-27.88"/>
</g>
<!-- Node7 -->
<g id="node7" class="node">
<title>Node7</title>
<g id="a_node7"><a xlink:href="nonstd_8h.html" target="_top" xlink:title=" ">
<polygon fill="white" stroke="#666666" points="507,-255.5 417,-255.5 417,-236.5 507,-236.5 507,-255.5"/>
<text text-anchor="middle" x="462" y="-243.5" font-family="Helvetica,sans-Serif" font-size="10.00">ccf/ds/nonstd.h</text>
</a>
</g>
</g>
<!-- Node6&#45;&gt;Node7 -->
<g id="edge6" class="edge">
<title>Node6&#45;&gt;Node7</title>
<path fill="none" stroke="#63b8ff" d="M269.07,-302.37C308.67,-291 378.39,-271 422.29,-258.4"/>
<polygon fill="#63b8ff" stroke="#63b8ff" points="423.4,-261.72 432.05,-255.6 421.47,-254.99 423.4,-261.72"/>
</g>
<!-- Node6&#45;&gt;Node13 -->
<g id="edge14" class="edge">
<title>Node6&#45;&gt;Node13</title>
<path fill="none" stroke="#63b8ff" d="M241.94,-302.45C246.67,-287.13 254.26,-254.39 242,-231 228.95,-206.1 207.68,-216.85 190,-195 162.52,-161.03 147.04,-111.08 140.23,-84.23"/>
<polygon fill="#63b8ff" stroke="#63b8ff" points="143.57,-83.16 137.84,-74.25 136.77,-84.79 143.57,-83.16"/>
</g>
<!-- Node14 -->
<g id="node14" class="node">
<title>Node14</title>
<g id="a_node14"><a xlink:title=" ">
<polygon fill="#e0e0e0" stroke="#999999" points="399,-255.5 289,-255.5 289,-236.5 399,-236.5 399,-255.5"/>
<text text-anchor="middle" x="344" y="-243.5" font-family="Helvetica,sans-Serif" font-size="10.00">nlohmann/json.hpp</text>
</a>
</g>
</g>
<!-- Node6&#45;&gt;Node14 -->
<g id="edge15" class="edge">
<title>Node6&#45;&gt;Node14</title>
<path fill="none" stroke="#63b8ff" d="M253.16,-302.37C270.54,-291.78 300.24,-273.67 320.93,-261.06"/>
<polygon fill="#63b8ff" stroke="#63b8ff" points="323.01,-263.89 329.73,-255.7 319.37,-257.92 323.01,-263.89"/>
</g>
<!-- Node7&#45;&gt;Node4 -->
<g id="edge10" class="edge">
<title>Node7&#45;&gt;Node4</title>
<path fill="none" stroke="#63b8ff" d="M489.53,-236.49C519.44,-227.05 568.52,-211.05 610,-195 611.21,-194.53 612.44,-194.05 613.68,-193.55"/>
<polygon fill="#63b8ff" stroke="#63b8ff" points="615.3,-196.66 623.16,-189.56 612.59,-190.21 615.3,-196.66"/>
</g>
<!-- Node7&#45;&gt;Node5 -->
<g id="edge13" class="edge">
<title>Node7&#45;&gt;Node5</title>
<path fill="none" stroke="#63b8ff" d="M430.38,-236.46C423.06,-234.57 415.27,-232.65 408,-231 326.31,-212.48 284.54,-251.83 223,-195 175.55,-151.18 218.18,-109.81 184,-55 176.77,-43.41 165.64,-33.08 155.71,-25.3"/>
<polygon fill="#63b8ff" stroke="#63b8ff" points="157.54,-22.3 147.42,-19.14 153.37,-27.92 157.54,-22.3"/>
</g>
<!-- Node8 -->
<g id="node8" class="node">
<title>Node8</title>
<g id="a_node8"><a xlink:title=" ">
<polygon fill="#e0e0e0" stroke="#999999" points="296,-189.5 232,-189.5 232,-170.5 296,-170.5 296,-189.5"/>
<text text-anchor="middle" x="264" y="-177.5" font-family="Helvetica,sans-Serif" font-size="10.00">algorithm</text>
</a>
</g>
</g>
<!-- Node7&#45;&gt;Node8 -->
<g id="edge7" class="edge">
<title>Node7&#45;&gt;Node8</title>
<path fill="none" stroke="#63b8ff" d="M434.72,-236.5C403.36,-226.68 350.37,-209.97 305,-195 302.77,-194.26 300.47,-193.5 298.16,-192.72"/>
<polygon fill="#63b8ff" stroke="#63b8ff" points="299.28,-189.41 288.69,-189.52 297.04,-196.04 299.28,-189.41"/>
</g>
<!-- Node9 -->
<g id="node9" class="node">
<title>Node9</title>
<g id="a_node9"><a xlink:title=" ">
<polygon fill="#e0e0e0" stroke="#999999" points="356,-189.5 314,-189.5 314,-170.5 356,-170.5 356,-189.5"/>
<text text-anchor="middle" x="335" y="-177.5" font-family="Helvetica,sans-Serif" font-size="10.00">array</text>
</a>
</g>
</g>
<!-- Node7&#45;&gt;Node9 -->
<g id="edge8" class="edge">
<title>Node7&#45;&gt;Node9</title>
<path fill="none" stroke="#63b8ff" d="M444.87,-236.37C423.38,-225.54 386.3,-206.85 361.23,-194.22"/>
<polygon fill="#63b8ff" stroke="#63b8ff" points="362.77,-191.07 352.26,-189.7 359.62,-197.32 362.77,-191.07"/>
</g>
<!-- Node10 -->
<g id="node10" class="node">
<title>Node10</title>
<g id="a_node10"><a xlink:title=" ">
<polygon fill="#e0e0e0" stroke="#999999" points="423.5,-189.5 374.5,-189.5 374.5,-170.5 423.5,-170.5 423.5,-189.5"/>
<text text-anchor="middle" x="399" y="-177.5" font-family="Helvetica,sans-Serif" font-size="10.00">cctype</text>
</a>
</g>
</g>
<!-- Node7&#45;&gt;Node10 -->
<g id="edge9" class="edge">
<title>Node7&#45;&gt;Node10</title>
<path fill="none" stroke="#63b8ff" d="M453.5,-236.37C443.7,-226.4 427.34,-209.79 415.11,-197.36"/>
<polygon fill="#63b8ff" stroke="#63b8ff" points="417.28,-194.58 407.77,-189.91 412.29,-199.49 417.28,-194.58"/>
</g>
<!-- Node11 -->
<g id="node11" class="node">
<title>Node11</title>
<g id="a_node11"><a xlink:title=" ">
<polygon fill="#e0e0e0" stroke="#999999" points="514.5,-189.5 441.5,-189.5 441.5,-170.5 514.5,-170.5 514.5,-189.5"/>
<text text-anchor="middle" x="478" y="-177.5" font-family="Helvetica,sans-Serif" font-size="10.00">string_view</text>
</a>
</g>
</g>
<!-- Node7&#45;&gt;Node11 -->
<g id="edge11" class="edge">
<title>Node7&#45;&gt;Node11</title>
<path fill="none" stroke="#63b8ff" d="M464.16,-236.37C466.48,-227.07 470.26,-211.98 473.28,-199.9"/>
<polygon fill="#63b8ff" stroke="#63b8ff" points="476.74,-200.46 475.77,-189.91 469.95,-198.76 476.74,-200.46"/>
</g>
<!-- Node12 -->
<g id="node12" class="node">
<title>Node12</title>
<g id="a_node12"><a xlink:title=" ">
<polygon fill="#e0e0e0" stroke="#999999" points="601.5,-189.5 532.5,-189.5 532.5,-170.5 601.5,-170.5 601.5,-189.5"/>
<text text-anchor="middle" x="567" y="-177.5" font-family="Helvetica,sans-Serif" font-size="10.00">type_traits</text>
</a>
</g>
</g>
<!-- Node7&#45;&gt;Node12 -->
<g id="edge12" class="edge">
<title>Node7&#45;&gt;Node12</title>
<path fill="none" stroke="#63b8ff" d="M476.16,-236.37C493.54,-225.78 523.24,-207.67 543.93,-195.06"/>
<polygon fill="#63b8ff" stroke="#63b8ff" points="546.01,-197.89 552.73,-189.7 542.37,-191.92 546.01,-197.89"/>
</g>
<!-- Node17 -->
<g id="node17" class="node">
<title>Node17</title>
<g id="a_node17"><a xlink:href="get__name_8h.html" target="_top" xlink:title=" ">
<polygon fill="white" stroke="#666666" points="658.5,-321.5 551.5,-321.5 551.5,-302.5 658.5,-302.5 658.5,-321.5"/>
<text text-anchor="middle" x="605" y="-309.5" font-family="Helvetica,sans-Serif" font-size="10.00">ccf/kv/get_name.h</text>
</a>
</g>
</g>
<!-- Node16&#45;&gt;Node17 -->
<g id="edge19" class="edge">
<title>Node16&#45;&gt;Node17</title>
<path fill="none" stroke="#63b8ff" d="M732.33,-362.99C707.06,-353.07 665.09,-336.59 636.28,-325.28"/>
<polygon fill="#63b8ff" stroke="#63b8ff" points="637.28,-321.91 626.69,-321.52 634.72,-328.43 637.28,-321.91"/>
</g>
<!-- Node18 -->
<g id="node18" class="node">
<title>Node18</title>
<g id="a_node18"><a xlink:href="include_2ccf_2kv_2hooks_8h.html" target="_top" xlink:title=" ">
<polygon fill="white" stroke="#666666" points="1252.5,-255.5 1165.5,-255.5 1165.5,-236.5 1252.5,-236.5 1252.5,-255.5"/>
<text text-anchor="middle" x="1209" y="-243.5" font-family="Helvetica,sans-Serif" font-size="10.00">ccf/kv/hooks.h</text>
</a>
</g>
</g>
<!-- Node16&#45;&gt;Node18 -->
<g id="edge21" class="edge">
<title>Node16&#45;&gt;Node18</title>
<path fill="none" stroke="#63b8ff" d="M794.19,-371.02C908.57,-369.24 1229.67,-361.21 1261,-327 1279.77,-306.51 1251.62,-278.53 1229.98,-261.67"/>
<polygon fill="#63b8ff" stroke="#63b8ff" points="1231.93,-258.76 1221.83,-255.58 1227.75,-264.37 1231.93,-258.76"/>
</g>
<!-- Node22 -->
<g id="node22" class="node">
<title>Node22</title>
<g id="a_node22"><a xlink:href="map__handle_8h.html" target="_top" xlink:title=" ">
<polygon fill="white" stroke="#666666" points="1181,-321.5 1063,-321.5 1063,-302.5 1181,-302.5 1181,-321.5"/>
<text text-anchor="middle" x="1122" y="-309.5" font-family="Helvetica,sans-Serif" font-size="10.00">ccf/kv/map_handle.h</text>
</a>
</g>
</g>
<!-- Node16&#45;&gt;Node22 -->
<g id="edge25" class="edge">
<title>Node16&#45;&gt;Node22</title>
<path fill="none" stroke="#63b8ff" d="M794.39,-366.24C852.11,-358.55 961.45,-343.38 1054,-327 1059.93,-325.95 1066.14,-324.78 1072.29,-323.57"/>
<polygon fill="#63b8ff" stroke="#63b8ff" points="1073.4,-326.91 1082.52,-321.52 1072.03,-320.05 1073.4,-326.91"/>
</g>
<!-- Node32 -->
<g id="node32" class="node">
<title>Node32</title>
<g id="a_node32"><a xlink:href="blit__serialiser_8h.html" target="_top" xlink:title=" ">
<polygon fill="white" stroke="#666666" points="533.5,-327 434.5,-327 434.5,-297 533.5,-297 533.5,-327"/>
<text text-anchor="start" x="442.5" y="-315" font-family="Helvetica,sans-Serif" font-size="10.00">ccf/kv/serialisers</text>
<text text-anchor="middle" x="484" y="-304" font-family="Helvetica,sans-Serif" font-size="10.00">/blit_serialiser.h</text>
</a>
</g>
</g>
<!-- Node16&#45;&gt;Node32 -->
<g id="edge40" class="edge">
<title>Node16&#45;&gt;Node32</title>
<path fill="none" stroke="#63b8ff" d="M713.67,-363.41C673.05,-355.18 608.32,-341.83 543.61,-327.33"/>
<polygon fill="#63b8ff" stroke="#63b8ff" points="544.18,-323.87 533.65,-325.09 542.64,-330.7 544.18,-323.87"/>
</g>
<!-- Node33 -->
<g id="node33" class="node">
<title>Node33</title>
<g id="a_node33"><a xlink:href="json__serialiser_8h.html" target="_top" xlink:title=" ">
<polygon fill="white" stroke="#666666" points="416.5,-327 317.5,-327 317.5,-297 416.5,-297 416.5,-327"/>
<text text-anchor="start" x="325.5" y="-315" font-family="Helvetica,sans-Serif" font-size="10.00">ccf/kv/serialisers</text>
<text text-anchor="middle" x="367" y="-304" font-family="Helvetica,sans-Serif" font-size="10.00">/json_serialiser.h</text>
</a>
</g>
</g>
<!-- Node16&#45;&gt;Node33 -->
<g id="edge43" class="edge">
<title>Node16&#45;&gt;Node33</title>
<path fill="none" stroke="#63b8ff" d="M713.91,-364.54C710.56,-364 707.22,-363.48 704,-363 583.61,-345.01 549.72,-349.44 426.79,-327.21"/>
<polygon fill="#63b8ff" stroke="#63b8ff" points="427.07,-323.71 416.6,-325.35 425.8,-330.59 427.07,-323.71"/>
</g>
<!-- Node34 -->
<g id="node34" class="node">
<title>Node34</title>
<g id="a_node34"><a xlink:href="untyped_8h.html" target="_top" xlink:title=" ">
<polygon fill="white" stroke="#666666" points="1045,-321.5 947,-321.5 947,-302.5 1045,-302.5 1045,-321.5"/>
<text text-anchor="middle" x="996" y="-309.5" font-family="Helvetica,sans-Serif" font-size="10.00">ccf/kv/untyped.h</text>
</a>
</g>
</g>
<!-- Node16&#45;&gt;Node34 -->
<g id="edge46" class="edge">
<title>Node16&#45;&gt;Node34</title>
<path fill="none" stroke="#63b8ff" d="M789.19,-362.99C831.93,-352.66 904.12,-335.21 950.9,-323.9"/>
<polygon fill="#63b8ff" stroke="#63b8ff" points="951.87,-327.27 960.77,-321.52 950.23,-320.46 951.87,-327.27"/>
</g>
<!-- Node17&#45;&gt;Node4 -->
<g id="edge20" class="edge">
<title>Node17&#45;&gt;Node4</title>
<path fill="none" stroke="#63b8ff" d="M607.43,-302.47C613.33,-281.73 628.55,-228.24 636.69,-199.66"/>
<polygon fill="#63b8ff" stroke="#63b8ff" points="640.14,-200.31 639.51,-189.73 633.41,-198.39 640.14,-200.31"/>
</g>
<!-- Node19 -->
<g id="node19" class="node">
<title>Node19</title>
<g id="a_node19"><a xlink:href="version_8h.html" target="_top" xlink:title=" ">
<polygon fill="white" stroke="#666666" points="1135,-189.5 1041,-189.5 1041,-170.5 1135,-170.5 1135,-189.5"/>
<text text-anchor="middle" x="1088" y="-177.5" font-family="Helvetica,sans-Serif" font-size="10.00">ccf/kv/version.h</text>
</a>
</g>
</g>
<!-- Node18&#45;&gt;Node19 -->
<g id="edge22" class="edge">
<title>Node18&#45;&gt;Node19</title>
<path fill="none" stroke="#63b8ff" d="M1192.68,-236.37C1172.29,-225.59 1137.19,-207.02 1113.3,-194.38"/>
<polygon fill="#63b8ff" stroke="#63b8ff" points="1114.92,-191.28 1104.45,-189.7 1111.65,-197.47 1114.92,-191.28"/>
</g>
<!-- Node20 -->
<g id="node20" class="node">
<title>Node20</title>
<g id="a_node20"><a xlink:title=" ">
<polygon fill="#e0e0e0" stroke="#999999" points="1218.5,-189.5 1153.5,-189.5 1153.5,-170.5 1218.5,-170.5 1218.5,-189.5"/>
<text text-anchor="middle" x="1186" y="-177.5" font-family="Helvetica,sans-Serif" font-size="10.00">functional</text>
</a>
</g>
</g>
<!-- Node18&#45;&gt;Node20 -->
<g id="edge23" class="edge">
<title>Node18&#45;&gt;Node20</title>
<path fill="none" stroke="#63b8ff" d="M1205.9,-236.37C1202.52,-226.97 1197.02,-211.67 1192.66,-199.53"/>
<polygon fill="#63b8ff" stroke="#63b8ff" points="1195.88,-198.13 1189.2,-189.91 1189.29,-200.5 1195.88,-198.13"/>
</g>
<!-- Node21 -->
<g id="node21" class="node">
<title>Node21</title>
<g id="a_node21"><a xlink:title=" ">
<polygon fill="#e0e0e0" stroke="#999999" points="1295,-189.5 1237,-189.5 1237,-170.5 1295,-170.5 1295,-189.5"/>
<text text-anchor="middle" x="1266" y="-177.5" font-family="Helvetica,sans-Serif" font-size="10.00">memory</text>
</a>
</g>
</g>
<!-- Node18&#45;&gt;Node21 -->
<g id="edge24" class="edge">
<title>Node18&#45;&gt;Node21</title>
<path fill="none" stroke="#63b8ff" d="M1216.69,-236.37C1225.48,-226.5 1240.07,-210.11 1251.11,-197.72"/>
<polygon fill="#63b8ff" stroke="#63b8ff" points="1254.03,-199.7 1258.07,-189.91 1248.8,-195.05 1254.03,-199.7"/>
</g>
<!-- Node23 -->
<g id="node23" class="node">
<title>Node23</title>
<g id="a_node23"><a xlink:href="untyped__map__handle_8h.html" target="_top" xlink:title=" ">
<polygon fill="white" stroke="#666666" points="943,-261 827,-261 827,-231 943,-231 943,-261"/>
<text text-anchor="start" x="835" y="-249" font-family="Helvetica,sans-Serif" font-size="10.00">ccf/kv/untyped_map</text>
<text text-anchor="middle" x="885" y="-238" font-family="Helvetica,sans-Serif" font-size="10.00">_handle.h</text>
</a>
</g>
</g>
<!-- Node22&#45;&gt;Node23 -->
<g id="edge26" class="edge">
<title>Node22&#45;&gt;Node23</title>
<path fill="none" stroke="#63b8ff" d="M1090.04,-302.37C1053.55,-292.51 992.98,-276.16 947.12,-263.77"/>
<polygon fill="#63b8ff" stroke="#63b8ff" points="947.84,-260.34 937.27,-261.12 946.01,-267.1 947.84,-260.34"/>
</g>
<!-- Node23&#45;&gt;Node4 -->
<g id="edge39" class="edge">
<title>Node23&#45;&gt;Node4</title>
<path fill="none" stroke="#63b8ff" d="M826.56,-234.37C783.5,-225.79 723.84,-212.29 673,-195 671.6,-194.52 670.18,-194.01 668.76,-193.46"/>
<polygon fill="#63b8ff" stroke="#63b8ff" points="670.05,-190.21 659.47,-189.6 667.35,-196.67 670.05,-190.21"/>
</g>
<!-- Node23&#45;&gt;Node19 -->
<g id="edge36" class="edge">
<title>Node23&#45;&gt;Node19</title>
<path fill="none" stroke="#63b8ff" d="M929.55,-230.95C966.09,-219.43 1017.19,-203.32 1051.38,-192.54"/>
<polygon fill="#63b8ff" stroke="#63b8ff" points="1052.5,-195.86 1060.98,-189.52 1050.39,-189.19 1052.5,-195.86"/>
</g>
<!-- Node23&#45;&gt;Node20 -->
<g id="edge37" class="edge">
<title>Node23&#45;&gt;Node20</title>
<path fill="none" stroke="#63b8ff" d="M943.09,-232.79C946.1,-232.18 949.09,-231.58 952,-231 1037.16,-214.12 1059.96,-216.78 1144,-195 1146.79,-194.28 1149.66,-193.47 1152.54,-192.61"/>
<polygon fill="#63b8ff" stroke="#63b8ff" points="1153.7,-195.91 1162.18,-189.57 1151.59,-189.24 1153.7,-195.91"/>
</g>
<!-- Node24 -->
<g id="node24" class="node">
<title>Node24</title>
<g id="a_node24"><a xlink:href="abstract__handle_8h.html" target="_top" xlink:title=" ">
<polygon fill="white" stroke="#666666" points="949,-189.5 813,-189.5 813,-170.5 949,-170.5 949,-189.5"/>
<text text-anchor="middle" x="881" y="-177.5" font-family="Helvetica,sans-Serif" font-size="10.00">ccf/kv/abstract_handle.h</text>
</a>
</g>
</g>
<!-- Node23&#45;&gt;Node24 -->
<g id="edge27" class="edge">
<title>Node23&#45;&gt;Node24</title>
<path fill="none" stroke="#63b8ff" d="M884.11,-230.8C883.54,-221.7 882.8,-209.79 882.18,-199.9"/>
<polygon fill="#63b8ff" stroke="#63b8ff" points="885.67,-199.61 881.55,-189.84 878.68,-200.04 885.67,-199.61"/>
</g>
<!-- Node25 -->
<g id="node25" class="node">
<title>Node25</title>
<g id="a_node25"><a xlink:href="serialised__entry_8h.html" target="_top" xlink:title=" ">
<polygon fill="white" stroke="#666666" points="787.5,-195 682.5,-195 682.5,-165 787.5,-165 787.5,-195"/>
<text text-anchor="start" x="690.5" y="-183" font-family="Helvetica,sans-Serif" font-size="10.00">ccf/kv/serialisers</text>
<text text-anchor="middle" x="735" y="-172" font-family="Helvetica,sans-Serif" font-size="10.00">/serialised_entry.h</text>
</a>
</g>
</g>
<!-- Node23&#45;&gt;Node25 -->
<g id="edge28" class="edge">
<title>Node23&#45;&gt;Node25</title>
<path fill="none" stroke="#63b8ff" d="M852.08,-230.95C830.1,-221.58 800.99,-209.16 777.29,-199.05"/>
<polygon fill="#63b8ff" stroke="#63b8ff" points="778.41,-195.72 767.84,-195.01 775.67,-202.16 778.41,-195.72"/>
</g>
<!-- Node31 -->
<g id="node31" class="node">
<title>Node31</title>
<g id="a_node31"><a xlink:title=" ">
<polygon fill="#e0e0e0" stroke="#999999" points="1023,-189.5 967,-189.5 967,-170.5 1023,-170.5 1023,-189.5"/>
<text text-anchor="middle" x="995" y="-177.5" font-family="Helvetica,sans-Serif" font-size="10.00">optional</text>
</a>
</g>
</g>
<!-- Node23&#45;&gt;Node31 -->
<g id="edge38" class="edge">
<title>Node23&#45;&gt;Node31</title>
<path fill="none" stroke="#63b8ff" d="M909.14,-230.95C927.67,-220.18 953.1,-205.38 971.47,-194.69"/>
<polygon fill="#63b8ff" stroke="#63b8ff" points="973.48,-197.57 980.36,-189.52 969.96,-191.52 973.48,-197.57"/>
</g>
<!-- Node26 -->
<g id="node26" class="node">
<title>Node26</title>
<g id="a_node26"><a xlink:href="byte__vector_8h.html" target="_top" xlink:title=" ">
<polygon fill="white" stroke="#666666" points="401,-129 301,-129 301,-110 401,-110 401,-129"/>
<text text-anchor="middle" x="351" y="-117" font-family="Helvetica,sans-Serif" font-size="10.00">ccf/byte_vector.h</text>
</a>
</g>
</g>
<!-- Node25&#45;&gt;Node26 -->
<g id="edge29" class="edge">
<title>Node25&#45;&gt;Node26</title>
<path fill="none" stroke="#63b8ff" d="M682.3,-166.78C679.16,-166.15 676.04,-165.55 673,-165 582.21,-148.51 476.05,-134.93 411.18,-127.27"/>
<polygon fill="#63b8ff" stroke="#63b8ff" points="411.47,-123.78 401.13,-126.09 410.65,-130.73 411.47,-123.78"/>
</g>
<!-- Node26&#45;&gt;Node13 -->
<g id="edge34" class="edge">
<title>Node26&#45;&gt;Node13</title>
<path fill="none" stroke="#63b8ff" d="M316.46,-109.98C279.58,-100.89 221.01,-86.46 180.66,-76.51"/>
<polygon fill="#63b8ff" stroke="#63b8ff" points="181.36,-73.08 170.81,-74.08 179.69,-79.87 181.36,-73.08"/>
</g>
<!-- Node27 -->
<g id="node27" class="node">
<title>Node27</title>
<g id="a_node27"><a xlink:href="siphash_8h.html" target="_top" xlink:title=" ">
<polygon fill="white" stroke="#666666" points="327.5,-74 232.5,-74 232.5,-55 327.5,-55 327.5,-74"/>
<text text-anchor="middle" x="280" y="-62" font-family="Helvetica,sans-Serif" font-size="10.00">ccf/ds/siphash.h</text>
</a>
</g>
</g>
<!-- Node26&#45;&gt;Node27 -->
<g id="edge30" class="edge">
<title>Node26&#45;&gt;Node27</title>
<path fill="none" stroke="#63b8ff" d="M339.59,-109.98C328.89,-102 312.66,-89.88 299.84,-80.31"/>
<polygon fill="#63b8ff" stroke="#63b8ff" points="301.72,-77.35 291.61,-74.17 297.53,-82.96 301.72,-77.35"/>
</g>
<!-- Node30 -->
<g id="node30" class="node">
<title>Node30</title>
<g id="a_node30"><a xlink:title=" ">
<polygon fill="#e0e0e0" stroke="#999999" points="494.5,-74 345.5,-74 345.5,-55 494.5,-55 494.5,-74"/>
<text text-anchor="middle" x="420" y="-62" font-family="Helvetica,sans-Serif" font-size="10.00">small_vector/SmallVector.h</text>
</a>
</g>
</g>
<!-- Node26&#45;&gt;Node30 -->
<g id="edge35" class="edge">
<title>Node26&#45;&gt;Node30</title>
<path fill="none" stroke="#63b8ff" d="M362.09,-109.98C372.49,-102 388.26,-89.88 400.72,-80.31"/>
<polygon fill="#63b8ff" stroke="#63b8ff" points="402.91,-83.04 408.71,-74.17 398.65,-77.49 402.91,-83.04"/>
</g>
<!-- Node27&#45;&gt;Node5 -->
<g id="edge33" class="edge">
<title>Node27&#45;&gt;Node5</title>
<path fill="none" stroke="#63b8ff" d="M256.54,-54.98C232.42,-46.23 194.63,-32.51 167.4,-22.62"/>
<polygon fill="#63b8ff" stroke="#63b8ff" points="168.48,-19.29 157.88,-19.17 166.09,-25.87 168.48,-19.29"/>
</g>
<!-- Node28 -->
<g id="node28" class="node">
<title>Node28</title>
<g id="a_node28"><a xlink:title=" ">
<polygon fill="#e0e0e0" stroke="#999999" points="341.5,-19 288.5,-19 288.5,0 341.5,0 341.5,-19"/>
<text text-anchor="middle" x="315" y="-7" font-family="Helvetica,sans-Serif" font-size="10.00">cstddef</text>
</a>
</g>
</g>
<!-- Node27&#45;&gt;Node28 -->
<g id="edge31" class="edge">
<title>Node27&#45;&gt;Node28</title>
<path fill="none" stroke="#63b8ff" d="M285.78,-54.75C290.62,-47.42 297.68,-36.73 303.64,-27.7"/>
<polygon fill="#63b8ff" stroke="#63b8ff" points="306.74,-29.36 309.33,-19.09 300.9,-25.5 306.74,-29.36"/>
</g>
<!-- Node29 -->
<g id="node29" class="node">
<title>Node29</title>
<g id="a_node29"><a xlink:title=" ">
<polygon fill="#e0e0e0" stroke="#999999" points="270,-19 220,-19 220,0 270,0 270,-19"/>
<text text-anchor="middle" x="245" y="-7" font-family="Helvetica,sans-Serif" font-size="10.00">cstdint</text>
</a>
</g>
</g>
<!-- Node27&#45;&gt;Node29 -->
<g id="edge32" class="edge">
<title>Node27&#45;&gt;Node29</title>
<path fill="none" stroke="#63b8ff" d="M274.22,-54.75C269.38,-47.42 262.32,-36.73 256.36,-27.7"/>
<polygon fill="#63b8ff" stroke="#63b8ff" points="259.1,-25.5 250.67,-19.09 253.26,-29.36 259.1,-25.5"/>
</g>
<!-- Node32&#45;&gt;Node7 -->
<g id="edge41" class="edge">
<title>Node32&#45;&gt;Node7</title>
<path fill="none" stroke="#63b8ff" d="M479.12,-296.8C475.96,-287.6 471.81,-275.53 468.39,-265.58"/>
<polygon fill="#63b8ff" stroke="#63b8ff" points="471.6,-264.16 465.04,-255.84 464.98,-266.44 471.6,-264.16"/>
</g>
<!-- Node32&#45;&gt;Node25 -->
<g id="edge42" class="edge">
<title>Node32&#45;&gt;Node25</title>
<path fill="none" stroke="#63b8ff" d="M511.34,-296.84C556.79,-273.3 647.92,-226.1 698.7,-199.8"/>
<polygon fill="#63b8ff" stroke="#63b8ff" points="700.42,-202.85 707.69,-195.14 697.21,-196.63 700.42,-202.85"/>
</g>
<!-- Node33&#45;&gt;Node14 -->
<g id="edge45" class="edge">
<title>Node33&#45;&gt;Node14</title>
<path fill="none" stroke="#63b8ff" d="M361.9,-296.8C358.56,-287.5 354.16,-275.27 350.56,-265.26"/>
<polygon fill="#63b8ff" stroke="#63b8ff" points="353.85,-264.07 347.18,-255.84 347.27,-266.44 353.85,-264.07"/>
</g>
<!-- Node33&#45;&gt;Node25 -->
<g id="edge44" class="edge">
<title>Node33&#45;&gt;Node25</title>
<path fill="none" stroke="#63b8ff" d="M412.37,-296.97C442.09,-287.48 481.65,-274.31 516,-261 546.8,-249.07 553.17,-242.87 584,-231 615,-219.06 650.22,-207.3 678.84,-198.19"/>
<polygon fill="#63b8ff" stroke="#63b8ff" points="680.19,-201.43 688.67,-195.08 678.08,-194.75 680.19,-201.43"/>
</g>
<!-- Node34&#45;&gt;Node18 -->
<g id="edge47" class="edge">
<title>Node34&#45;&gt;Node18</title>
<path fill="none" stroke="#63b8ff" d="M1024.73,-302.37C1062.47,-291.03 1128.86,-271.08 1170.8,-258.48"/>
<polygon fill="#63b8ff" stroke="#63b8ff" points="1171.82,-261.83 1180.39,-255.6 1169.81,-255.12 1171.82,-261.83"/>
</g>
<!-- Node34&#45;&gt;Node25 -->
<g id="edge48" class="edge">
<title>Node34&#45;&gt;Node25</title>
<path fill="none" stroke="#63b8ff" d="M962.36,-302.5C914.36,-290.23 830.6,-268.22 818,-261 804.07,-253.01 774.98,-223.6 755.22,-202.76"/>
<polygon fill="#63b8ff" stroke="#63b8ff" points="757.56,-200.14 748.15,-195.26 752.46,-204.94 757.56,-200.14"/>
</g>
<!-- Node34&#45;&gt;Node31 -->
<g id="edge50" class="edge">
<title>Node34&#45;&gt;Node31</title>
<path fill="none" stroke="#63b8ff" d="M998.76,-302.26C1001.73,-292.37 1006.26,-275.72 1008,-261 1009.57,-247.76 1009.69,-244.23 1008,-231 1006.64,-220.39 1003.73,-208.8 1001,-199.46"/>
<polygon fill="#63b8ff" stroke="#63b8ff" points="1004.29,-198.24 997.99,-189.72 997.6,-200.31 1004.29,-198.24"/>
</g>
<!-- Node35 -->
<g id="node35" class="node">
<title>Node35</title>
<g id="a_node35"><a xlink:title=" ">
<polygon fill="#e0e0e0" stroke="#999999" points="999,-255.5 961,-255.5 961,-236.5 999,-236.5 999,-255.5"/>
<text text-anchor="middle" x="980" y="-243.5" font-family="Helvetica,sans-Serif" font-size="10.00">map</text>
</a>
</g>
</g>
<!-- Node34&#45;&gt;Node35 -->
<g id="edge49" class="edge">
<title>Node34&#45;&gt;Node35</title>
<path fill="none" stroke="#63b8ff" d="M993.84,-302.37C991.52,-293.07 987.74,-277.98 984.72,-265.9"/>
<polygon fill="#63b8ff" stroke="#63b8ff" points="988.05,-264.76 982.23,-255.91 981.26,-266.46 988.05,-264.76"/>
</g>
<!-- Node36&#45;&gt;Node2 -->
<g id="edge52" class="edge">
<title>Node36&#45;&gt;Node2</title>
<path fill="none" stroke="#63b8ff" d="M143.59,-472.63C139.9,-462.68 134.98,-449.09 131,-437 126.04,-421.95 120.92,-404.73 117.25,-392.01"/>
<polygon fill="#63b8ff" stroke="#63b8ff" points="120.55,-390.82 114.43,-382.17 113.82,-392.75 120.55,-390.82"/>
</g>
<!-- Node36&#45;&gt;Node5 -->
<g id="edge75" class="edge">
<title>Node36&#45;&gt;Node5</title>
<path fill="none" stroke="#63b8ff" d="M101.45,-472.89C57.84,-456.66 0,-425.37 0,-373.5 0,-373.5 0,-373.5 0,-118.5 0,-66.85 61.09,-35.71 100.77,-20.93"/>
<polygon fill="#63b8ff" stroke="#63b8ff" points="102.1,-24.18 110.35,-17.53 99.76,-17.58 102.1,-24.18"/>
</g>
<!-- Node37 -->
<g id="node37" class="node">
<title>Node37</title>
<g id="a_node37"><a xlink:href="service_2map_8h.html" target="_top" xlink:title=" ">
<polygon fill="white" stroke="#666666" points="636.5,-437 533.5,-437 533.5,-418 636.5,-418 636.5,-437"/>
<text text-anchor="middle" x="585" y="-425" font-family="Helvetica,sans-Serif" font-size="10.00">ccf/service/map.h</text>
</a>
</g>
</g>
<!-- Node36&#45;&gt;Node37 -->
<g id="edge53" class="edge">
<title>Node36&#45;&gt;Node37</title>
<path fill="none" stroke="#63b8ff" d="M200.3,-480.12C280.85,-469.31 436.71,-448.4 523.28,-436.78"/>
<polygon fill="#63b8ff" stroke="#63b8ff" points="523.78,-440.25 533.22,-435.45 522.85,-433.31 523.78,-440.25"/>
</g>
<!-- Node43 -->
<g id="node43" class="node">
<title>Node43</title>
<g id="a_node43"><a xlink:title=" ">
<polygon fill="#e0e0e0" stroke="#999999" points="233.5,-437 140.5,-437 140.5,-418 233.5,-418 233.5,-437"/>
<text text-anchor="middle" x="187" y="-425" font-family="Helvetica,sans-Serif" font-size="10.00">unordered_map</text>
</a>
</g>
</g>
<!-- Node36&#45;&gt;Node43 -->
<g id="edge74" class="edge">
<title>Node36&#45;&gt;Node43</title>
<path fill="none" stroke="#63b8ff" d="M158.2,-472.84C163.49,-464.69 170.18,-454.4 175.78,-445.78"/>
<polygon fill="#63b8ff" stroke="#63b8ff" points="178.79,-447.56 181.31,-437.27 172.92,-443.75 178.79,-447.56"/>
</g>
<!-- Node37&#45;&gt;Node16 -->
<g id="edge54" class="edge">
<title>Node37&#45;&gt;Node16</title>
<path fill="none" stroke="#63b8ff" d="M612.15,-417.98C640.53,-409.09 685.23,-395.07 716.86,-385.15"/>
<polygon fill="#63b8ff" stroke="#63b8ff" points="718.14,-388.41 726.63,-382.08 716.05,-381.73 718.14,-388.41"/>
</g>
<!-- Node38 -->
<g id="node38" class="node">
<title>Node38</title>
<g id="a_node38"><a xlink:href="set_8h.html" target="_top" xlink:title=" ">
<polygon fill="white" stroke="#666666" points="592.5,-382 519.5,-382 519.5,-363 592.5,-363 592.5,-382"/>
<text text-anchor="middle" x="556" y="-370" font-family="Helvetica,sans-Serif" font-size="10.00">ccf/kv/set.h</text>
</a>
</g>
</g>
<!-- Node37&#45;&gt;Node38 -->
<g id="edge55" class="edge">
<title>Node37&#45;&gt;Node38</title>
<path fill="none" stroke="#63b8ff" d="M580.21,-417.75C576.24,-410.49 570.47,-399.95 565.57,-390.98"/>
<polygon fill="#63b8ff" stroke="#63b8ff" points="568.57,-389.18 560.7,-382.09 562.43,-392.54 568.57,-389.18"/>
</g>
<!-- Node41 -->
<g id="node41" class="node">
<title>Node41</title>
<g id="a_node41"><a xlink:href="value_8h.html" target="_top" xlink:title=" ">
<polygon fill="white" stroke="#666666" points="695.5,-382 610.5,-382 610.5,-363 695.5,-363 695.5,-382"/>
<text text-anchor="middle" x="653" y="-370" font-family="Helvetica,sans-Serif" font-size="10.00">ccf/kv/value.h</text>
</a>
</g>
</g>
<!-- Node37&#45;&gt;Node41 -->
<g id="edge65" class="edge">
<title>Node37&#45;&gt;Node41</title>
<path fill="none" stroke="#63b8ff" d="M595.93,-417.98C606.08,-410.07 621.42,-398.11 633.65,-388.58"/>
<polygon fill="#63b8ff" stroke="#63b8ff" points="636.14,-391.08 641.88,-382.17 631.84,-385.56 636.14,-391.08"/>
</g>
<!-- Node38&#45;&gt;Node17 -->
<g id="edge56" class="edge">
<title>Node38&#45;&gt;Node17</title>
<path fill="none" stroke="#63b8ff" d="M563.23,-362.87C570.54,-354.14 582.02,-340.43 591.1,-329.59"/>
<polygon fill="#63b8ff" stroke="#63b8ff" points="594,-331.58 597.74,-321.67 588.64,-327.09 594,-331.58"/>
</g>
<!-- Node38&#45;&gt;Node18 -->
<g id="edge57" class="edge">
<title>Node38&#45;&gt;Node18</title>
<path fill="none" stroke="#63b8ff" d="M592.78,-364.16C595.55,-363.73 598.32,-363.33 601,-363 666.06,-354.9 1139.82,-369.21 1190,-327 1207.55,-312.24 1210.56,-284.5 1210.36,-265.88"/>
<polygon fill="#63b8ff" stroke="#63b8ff" points="1213.85,-265.51 1209.93,-255.67 1206.85,-265.81 1213.85,-265.51"/>
</g>
<!-- Node38&#45;&gt;Node32 -->
<g id="edge58" class="edge">
<title>Node38&#45;&gt;Node32</title>
<path fill="none" stroke="#63b8ff" d="M545.38,-362.87C535.88,-355.15 521.58,-343.54 509.18,-333.46"/>
<polygon fill="#63b8ff" stroke="#63b8ff" points="511.34,-330.7 501.37,-327.11 506.93,-336.14 511.34,-330.7"/>
</g>
<!-- Node38&#45;&gt;Node33 -->
<g id="edge59" class="edge">
<title>Node38&#45;&gt;Node33</title>
<path fill="none" stroke="#63b8ff" d="M528.52,-362.99C500.72,-354.39 456.99,-340.86 422.04,-330.04"/>
<polygon fill="#63b8ff" stroke="#63b8ff" points="423.03,-326.68 412.44,-327.06 420.96,-333.36 423.03,-326.68"/>
</g>
<!-- Node38&#45;&gt;Node34 -->
<g id="edge64" class="edge">
<title>Node38&#45;&gt;Node34</title>
<path fill="none" stroke="#63b8ff" d="M592.8,-364.3C595.57,-363.83 598.33,-363.39 601,-363 750.02,-341 789.58,-352.73 938,-327 943.16,-326.11 948.55,-325.02 953.87,-323.85"/>
<polygon fill="#63b8ff" stroke="#63b8ff" points="954.98,-327.18 963.94,-321.53 953.41,-320.36 954.98,-327.18"/>
</g>
<!-- Node39 -->
<g id="node39" class="node">
<title>Node39</title>
<g id="a_node39"><a xlink:href="set__handle_8h.html" target="_top" xlink:title=" ">
<polygon fill="white" stroke="#666666" points="787.5,-321.5 676.5,-321.5 676.5,-302.5 787.5,-302.5 787.5,-321.5"/>
<text text-anchor="middle" x="732" y="-309.5" font-family="Helvetica,sans-Serif" font-size="10.00">ccf/kv/set_handle.h</text>
</a>
</g>
</g>
<!-- Node38&#45;&gt;Node39 -->
<g id="edge60" class="edge">
<title>Node38&#45;&gt;Node39</title>
<path fill="none" stroke="#63b8ff" d="M581.59,-362.99C611.96,-352.9 662.76,-336.01 696.82,-324.69"/>
<polygon fill="#63b8ff" stroke="#63b8ff" points="697.99,-327.99 706.38,-321.52 695.78,-321.35 697.99,-327.99"/>
</g>
<!-- Node39&#45;&gt;Node23 -->
<g id="edge63" class="edge">
<title>Node39&#45;&gt;Node23</title>
<path fill="none" stroke="#63b8ff" d="M752.63,-302.37C775.35,-292.87 812.52,-277.32 841.7,-265.11"/>
<polygon fill="#63b8ff" stroke="#63b8ff" points="843.38,-268.2 851.25,-261.12 840.68,-261.75 843.38,-268.2"/>
</g>
<!-- Node40 -->
<g id="node40" class="node">
<title>Node40</title>
<g id="a_node40"><a xlink:href="unit_8h.html" target="_top" xlink:title=" ">
<polygon fill="white" stroke="#666666" points="770.5,-255.5 693.5,-255.5 693.5,-236.5 770.5,-236.5 770.5,-255.5"/>
<text text-anchor="middle" x="732" y="-243.5" font-family="Helvetica,sans-Serif" font-size="10.00">ccf/kv/unit.h</text>
</a>
</g>
</g>
<!-- Node39&#45;&gt;Node40 -->
<g id="edge61" class="edge">
<title>Node39&#45;&gt;Node40</title>
<path fill="none" stroke="#63b8ff" d="M732,-302.37C732,-293.16 732,-278.29 732,-266.27"/>
<polygon fill="#63b8ff" stroke="#63b8ff" points="735.5,-265.91 732,-255.91 728.5,-265.91 735.5,-265.91"/>
</g>
<!-- Node40&#45;&gt;Node25 -->
<g id="edge62" class="edge">
<title>Node40&#45;&gt;Node25</title>
<path fill="none" stroke="#63b8ff" d="M732.4,-236.37C732.77,-228.49 733.34,-216.45 733.85,-205.6"/>
<polygon fill="#63b8ff" stroke="#63b8ff" points="737.35,-205.51 734.33,-195.36 730.36,-205.19 737.35,-205.51"/>
</g>
<!-- Node41&#45;&gt;Node17 -->
<g id="edge66" class="edge">
<title>Node41&#45;&gt;Node17</title>
<path fill="none" stroke="#63b8ff" d="M645.92,-362.87C638.76,-354.14 627.51,-340.43 618.61,-329.59"/>
<polygon fill="#63b8ff" stroke="#63b8ff" points="621.16,-327.18 612.11,-321.67 615.75,-331.62 621.16,-327.18"/>
</g>
<!-- Node41&#45;&gt;Node18 -->
<g id="edge67" class="edge">
<title>Node41&#45;&gt;Node18</title>
<path fill="none" stroke="#63b8ff" d="M695.52,-364.22C698.72,-363.77 701.91,-363.36 705,-363 762.31,-356.34 1183.64,-369.19 1223,-327 1238.58,-310.3 1228.84,-282.7 1219.58,-264.68"/>
<polygon fill="#63b8ff" stroke="#63b8ff" points="1222.56,-262.84 1214.65,-255.79 1216.44,-266.23 1222.56,-262.84"/>
</g>
<!-- Node41&#45;&gt;Node32 -->
<g id="edge68" class="edge">
<title>Node41&#45;&gt;Node32</title>
<path fill="none" stroke="#63b8ff" d="M628.43,-362.99C603.89,-354.5 565.47,-341.2 534.42,-330.45"/>
<polygon fill="#63b8ff" stroke="#63b8ff" points="535.22,-327.03 524.63,-327.06 532.94,-333.64 535.22,-327.03"/>
</g>
<!-- Node41&#45;&gt;Node33 -->
<g id="edge69" class="edge">
<title>Node41&#45;&gt;Node33</title>
<path fill="none" stroke="#63b8ff" d="M610.44,-363.77C566.62,-355.69 496.12,-342.32 426.46,-327.27"/>
<polygon fill="#63b8ff" stroke="#63b8ff" points="427.16,-323.84 416.64,-325.13 425.67,-330.68 427.16,-323.84"/>
</g>
<!-- Node41&#45;&gt;Node34 -->
<g id="edge70" class="edge">
<title>Node41&#45;&gt;Node34</title>
<path fill="none" stroke="#63b8ff" d="M695.56,-364.51C698.76,-364 701.93,-363.49 705,-363 808.48,-346.55 835.2,-347.31 938,-327 942.77,-326.06 947.73,-324.99 952.67,-323.88"/>
<polygon fill="#63b8ff" stroke="#63b8ff" points="953.73,-327.22 962.67,-321.55 952.14,-320.41 953.73,-327.22"/>
</g>
<!-- Node42 -->
<g id="node42" class="node">
<title>Node42</title>
<g id="a_node42"><a xlink:href="value__handle_8h.html" target="_top" xlink:title=" ">
<polygon fill="white" stroke="#666666" points="928.5,-321.5 805.5,-321.5 805.5,-302.5 928.5,-302.5 928.5,-321.5"/>
<text text-anchor="middle" x="867" y="-309.5" font-family="Helvetica,sans-Serif" font-size="10.00">ccf/kv/value_handle.h</text>
</a>
</g>
</g>
<!-- Node41&#45;&gt;Node42 -->
<g id="edge71" class="edge">
<title>Node41&#45;&gt;Node42</title>
<path fill="none" stroke="#63b8ff" d="M684.12,-362.99C721.6,-352.75 784.68,-335.5 826.07,-324.19"/>
<polygon fill="#63b8ff" stroke="#63b8ff" points="827.12,-327.53 835.85,-321.52 825.28,-320.78 827.12,-327.53"/>
</g>
<!-- Node42&#45;&gt;Node23 -->
<g id="edge73" class="edge">
<title>Node42&#45;&gt;Node23</title>
<path fill="none" stroke="#63b8ff" d="M869.43,-302.37C871.67,-294.4 875.1,-282.2 878.18,-271.27"/>
<polygon fill="#63b8ff" stroke="#63b8ff" points="881.62,-271.93 880.96,-261.36 874.88,-270.04 881.62,-271.93"/>
</g>
<!-- Node42&#45;&gt;Node40 -->
<g id="edge72" class="edge">
<title>Node42&#45;&gt;Node40</title>
<path fill="none" stroke="#63b8ff" d="M848.79,-302.37C825.85,-291.49 786.19,-272.69 759.53,-260.05"/>
<polygon fill="#63b8ff" stroke="#63b8ff" points="760.88,-256.82 750.35,-255.7 757.89,-263.15 760.88,-256.82"/>
</g>
</g>
</svg>
        <g id="navigator" transform="translate(0 0)" fill="#404254">
                <rect fill="#f2f5e9" fill-opacity="0.5" stroke="#606060" stroke-width=".5" x="0" y="0" width="60" height="60"/>
                <use id="zoomplus" xlink:href="#zoomPlus" x="17" y="9" onmousedown="handleZoom(evt,'in')"/>
                <use id="zoomminus" xlink:href="#zoomMin" x="42" y="9" onmousedown="handleZoom(evt,'out')"/>
                <use id="reset" xlink:href="#resetDef" x="30" y="36" onmousedown="handleReset()"/>
                <g id="arrowUp" xlink:href="#dirArrow" transform="translate(30 24)" onmousedown="handlePan(0,-1)">
                  <use xlink:href="#rim" fill="#404040">
                        <set attributeName="fill" to="#808080" begin="arrowUp.mouseover" end="arrowUp.mouseout"/>
                  </use>
                  <path fill="none" stroke="white" stroke-width="1.5" d="M0,-3.0v7 M-2.5,-0.5L0,-3.0L2.5,-0.5"/>
                </g>
                <g id="arrowRight" xlink:href="#dirArrow" transform="rotate(90) translate(36 -43)" onmousedown="handlePan(1,0)">
                  <use xlink:href="#rim" fill="#404040">
                        <set attributeName="fill" to="#808080" begin="arrowRight.mouseover" end="arrowRight.mouseout"/>
                  </use>
                  <path fill="none" stroke="white" stroke-width="1.5" d="M0,-3.0v7 M-2.5,-0.5L0,-3.0L2.5,-0.5"/>
                </g>
                <g id="arrowDown" xlink:href="#dirArrow" transform="rotate(180) translate(-30 -48)" onmousedown="handlePan(0,1)">
                  <use xlink:href="#rim" fill="#404040">
                        <set attributeName="fill" to="#808080" begin="arrowDown.mouseover" end="arrowDown.mouseout"/>
                  </use>
                  <path fill="none" stroke="white" stroke-width="1.5" d="M0,-3.0v7 M-2.5,-0.5L0,-3.0L2.5,-0.5"/>
                </g>
                <g id="arrowLeft" xlink:href="#dirArrow" transform="rotate(270) translate(-36 17)" onmousedown="handlePan(-1,0)">
                  <use xlink:href="#rim" fill="#404040">
                        <set attributeName="fill" to="#808080" begin="arrowLeft.mouseover" end="arrowLeft.mouseout"/>
                  </use>
                  <path fill="none" stroke="white" stroke-width="1.5" d="M0,-3.0v7 M-2.5,-0.5L0,-3.0L2.5,-0.5"/>
                </g>
        </g>
        <svg viewBox="0 0 15 15" width="100%" height="30px" preserveAspectRatio="xMaxYMin meet">
         <g id="arrow_out" transform="scale(0.3 0.3)">
          <a xlink:href="gov_8h__incl_org.svg" target="_base">
           <rect id="button" ry="5" rx="5" y="6" x="6" height="38" width="38"
                fill="#f2f5e9" fill-opacity="0.5" stroke="#606060" stroke-width="1.0"/>
           <path id="arrow"
             d="M 11.500037,31.436501 C 11.940474,20.09759 22.043105,11.32322 32.158766,21.979434 L 37.068811,17.246167 C 37.068811,17.246167 37.088388,32 37.088388,32 L 22.160133,31.978069 C 22.160133,31.978069 26.997745,27.140456 26.997745,27.140456 C 18.528582,18.264221 13.291696,25.230495 11.500037,31.436501 z"
             style="fill:#404040;"/>
          </a>
         </g>
        </svg>
</svg>
