<?xml version="1.0" encoding="UTF-8" standalone="no"?>
<!DOCTYPE svg PUBLIC "-//W3C//DTD SVG 1.1//EN"
 "http://www.w3.org/Graphics/SVG/1.1/DTD/svg11.dtd">
<!-- Generated by graphviz version 2.43.0 (0)
 -->
<!-- Title: src/host/enclave.h Pages: 1 -->
<!--zoomable 467 -->
<svg id="main" version="1.1" xmlns="http://www.w3.org/2000/svg" xmlns:xlink="http://www.w3.org/1999/xlink" xml:space="preserve" onload="init(evt)">
<style type="text/css"><![CDATA[
.edge:hover path { stroke: red; }
.edge:hover polygon { stroke: red; fill: red; }
]]></style>
<script type="text/javascript"><![CDATA[
var edges = document.getElementsByTagName('g');
if (edges && edges.length) {
  for (var i=0;i<edges.length;i++) {
    if (edges[i].id.substr(0,4)=='edge') {
      edges[i].setAttribute('class','edge');
    }
  }
}
]]></script>
        <defs>
                <circle id="rim" cx="0" cy="0" r="7"/>
                <circle id="rim2" cx="0" cy="0" r="3.5"/>
                <g id="zoomPlus">
                        <use xlink:href="#rim" fill="#404040">
                                <set attributeName="fill" to="#808080" begin="zoomplus.mouseover" end="zoomplus.mouseout"/>
                        </use>
                        <path d="M-4,0h8M0,-4v8" fill="none" stroke="white" stroke-width="1.5" pointer-events="none"/>
                </g>
                <g id="zoomMin">
                        <use xlink:href="#rim" fill="#404040">
                                <set attributeName="fill" to="#808080" begin="zoomminus.mouseover" end="zoomminus.mouseout"/>
                        </use>
                        <path d="M-4,0h8" fill="none" stroke="white" stroke-width="1.5" pointer-events="none"/>
                </g>
                <g id="dirArrow">
                        <path fill="none" stroke="white" stroke-width="1.5" d="M0,-3.0v7 M-2.5,-0.5L0,-3.0L2.5,-0.5"/>
                </g>
               <g id="resetDef">
                       <use xlink:href="#rim2" fill="#404040">
                               <set attributeName="fill" to="#808080" begin="reset.mouseover" end="reset.mouseout"/>
                       </use>
               </g>
        </defs>

<script type="text/javascript">
var viewWidth = 1649;
var viewHeight = 467;
var sectionId = 'dynsection-0';
</script>
<script xlink:href="svgpan.js"/>
<svg id="graph" class="graph">
<g id="viewport">
<title>src/host/enclave.h</title>
<!-- Node1 -->
<g id="node1" class="node">
<title>Node1</title>
<g id="a_node1"><a xlink:title=" ">
<polygon fill="#999999" stroke="#666666" points="1041.16,-459 936.16,-459 936.16,-440 1041.16,-440 1041.16,-459"/>
<text text-anchor="middle" x="988.66" y="-447" font-family="Helvetica,sans-Serif" font-size="10.00">src/host/enclave.h</text>
</a>
</g>
</g>
<!-- Node2 -->
<g id="node2" class="node">
<title>Node2</title>
<g id="a_node2"><a xlink:href="logger_8h.html" target="_top" xlink:title=" ">
<polygon fill="white" stroke="#666666" points="505.16,-239 418.16,-239 418.16,-220 505.16,-220 505.16,-239"/>
<text text-anchor="middle" x="461.66" y="-227" font-family="Helvetica,sans-Serif" font-size="10.00">ccf/ds/logger.h</text>
</a>
</g>
</g>
<!-- Node1&#45;&gt;Node2 -->
<g id="edge1" class="edge">
<title>Node1&#45;&gt;Node2</title>
<path fill="none" stroke="#63b8ff" d="M943.49,-439.93C907.23,-432.39 855.36,-420.11 811.66,-404 683.5,-356.74 540.36,-276.45 485.14,-244.36"/>
<polygon fill="#63b8ff" stroke="#63b8ff" points="486.56,-241.14 476.16,-239.12 483.03,-247.18 486.56,-241.14"/>
</g>
<!-- Node17 -->
<g id="node17" class="node">
<title>Node17</title>
<g id="a_node17"><a xlink:title=" ">
<polygon fill="#e0e0e0" stroke="#999999" points="1028.16,-404 949.16,-404 949.16,-385 1028.16,-385 1028.16,-404"/>
<text text-anchor="middle" x="988.66" y="-392" font-family="Helvetica,sans-Serif" font-size="10.00">ccf/version.h</text>
</a>
</g>
</g>
<!-- Node1&#45;&gt;Node17 -->
<g id="edge18" class="edge">
<title>Node1&#45;&gt;Node17</title>
<path fill="none" stroke="#63b8ff" d="M988.66,-439.75C988.66,-432.8 988.66,-422.85 988.66,-414.13"/>
<polygon fill="#63b8ff" stroke="#63b8ff" points="992.16,-414.09 988.66,-404.09 985.16,-414.09 992.16,-414.09"/>
</g>
<!-- Node18 -->
<g id="node18" class="node">
<title>Node18</title>
<g id="a_node18"><a xlink:href="interface_8h.html" target="_top" xlink:title=" ">
<polygon fill="white" stroke="#666666" points="930.66,-404 820.66,-404 820.66,-385 930.66,-385 930.66,-404"/>
<text text-anchor="middle" x="875.66" y="-392" font-family="Helvetica,sans-Serif" font-size="10.00">enclave/interface.h</text>
</a>
</g>
</g>
<!-- Node1&#45;&gt;Node18 -->
<g id="edge19" class="edge">
<title>Node1&#45;&gt;Node18</title>
<path fill="none" stroke="#63b8ff" d="M970.5,-439.98C952.41,-431.5 924.37,-418.35 903.47,-408.54"/>
<polygon fill="#63b8ff" stroke="#63b8ff" points="904.68,-405.25 894.14,-404.17 901.71,-411.59 904.68,-405.25"/>
</g>
<!-- Node48 -->
<g id="node48" class="node">
<title>Node48</title>
<g id="a_node48"><a xlink:title=" ">
<polygon fill="#e0e0e0" stroke="#999999" points="1096.66,-404 1046.66,-404 1046.66,-385 1096.66,-385 1096.66,-404"/>
<text text-anchor="middle" x="1071.66" y="-392" font-family="Helvetica,sans-Serif" font-size="10.00">dlfcn.h</text>
</a>
</g>
</g>
<!-- Node1&#45;&gt;Node48 -->
<g id="edge75" class="edge">
<title>Node1&#45;&gt;Node48</title>
<path fill="none" stroke="#63b8ff" d="M1001.99,-439.98C1014.74,-431.84 1034.21,-419.41 1049.33,-409.76"/>
<polygon fill="#63b8ff" stroke="#63b8ff" points="1051.54,-412.5 1058.08,-404.17 1047.77,-406.6 1051.54,-412.5"/>
</g>
<!-- Node49 -->
<g id="node49" class="node">
<title>Node49</title>
<g id="a_node49"><a xlink:title=" ">
<polygon fill="#e0e0e0" stroke="#999999" points="1182.66,-404 1114.66,-404 1114.66,-385 1182.66,-385 1182.66,-404"/>
<text text-anchor="middle" x="1148.66" y="-392" font-family="Helvetica,sans-Serif" font-size="10.00">filesystem</text>
</a>
</g>
</g>
<!-- Node1&#45;&gt;Node49 -->
<g id="edge76" class="edge">
<title>Node1&#45;&gt;Node49</title>
<path fill="none" stroke="#63b8ff" d="M1014.37,-439.98C1041.11,-431.13 1083.19,-417.19 1113.11,-407.28"/>
<polygon fill="#63b8ff" stroke="#63b8ff" points="1114.36,-410.55 1122.75,-404.08 1112.16,-403.9 1114.36,-410.55"/>
</g>
<!-- Node3 -->
<g id="node3" class="node">
<title>Node3</title>
<g id="a_node3"><a xlink:href="enum__formatter_8h.html" target="_top" xlink:title=" ">
<polygon fill="white" stroke="#666666" points="669.66,-184 533.66,-184 533.66,-165 669.66,-165 669.66,-184"/>
<text text-anchor="middle" x="601.66" y="-172" font-family="Helvetica,sans-Serif" font-size="10.00">ccf/ds/enum_formatter.h</text>
</a>
</g>
</g>
<!-- Node2&#45;&gt;Node3 -->
<g id="edge2" class="edge">
<title>Node2&#45;&gt;Node3</title>
<path fill="none" stroke="#63b8ff" d="M484.15,-219.98C507.18,-211.27 543.2,-197.63 569.29,-187.75"/>
<polygon fill="#63b8ff" stroke="#63b8ff" points="570.64,-190.98 578.76,-184.17 568.16,-184.44 570.64,-190.98"/>
</g>
<!-- Node4 -->
<g id="node4" class="node">
<title>Node4</title>
<g id="a_node4"><a xlink:title=" ">
<polygon fill="#e0e0e0" stroke="#999999" points="674.16,-129 595.16,-129 595.16,-110 674.16,-110 674.16,-129"/>
<text text-anchor="middle" x="634.66" y="-117" font-family="Helvetica,sans-Serif" font-size="10.00">fmt/format.h</text>
</a>
</g>
</g>
<!-- Node2&#45;&gt;Node4 -->
<g id="edge12" class="edge">
<title>Node2&#45;&gt;Node4</title>
<path fill="none" stroke="#63b8ff" d="M505.24,-225.9C562.18,-221.49 657.21,-210.3 678.66,-184 691.65,-168.07 673.31,-148.45 656.5,-135.27"/>
<polygon fill="#63b8ff" stroke="#63b8ff" points="658.15,-132.14 648.02,-129.02 654,-137.77 658.15,-132.14"/>
</g>
<!-- Node5 -->
<g id="node5" class="node">
<title>Node5</title>
<g id="a_node5"><a xlink:href="thread__ids_8h.html" target="_top" xlink:title=" ">
<polygon fill="white" stroke="#666666" points="515.66,-184 407.66,-184 407.66,-165 515.66,-165 515.66,-184"/>
<text text-anchor="middle" x="461.66" y="-172" font-family="Helvetica,sans-Serif" font-size="10.00">ccf/ds/thread_ids.h</text>
</a>
</g>
</g>
<!-- Node2&#45;&gt;Node5 -->
<g id="edge4" class="edge">
<title>Node2&#45;&gt;Node5</title>
<path fill="none" stroke="#63b8ff" d="M461.66,-219.75C461.66,-212.8 461.66,-202.85 461.66,-194.13"/>
<polygon fill="#63b8ff" stroke="#63b8ff" points="465.16,-194.09 461.66,-184.09 458.16,-194.09 465.16,-194.09"/>
</g>
<!-- Node11 -->
<g id="node11" class="node">
<title>Node11</title>
<g id="a_node11"><a xlink:title=" ">
<polygon fill="#e0e0e0" stroke="#999999" points="110.16,-184 31.16,-184 31.16,-165 110.16,-165 110.16,-184"/>
<text text-anchor="middle" x="70.66" y="-172" font-family="Helvetica,sans-Serif" font-size="10.00">fmt/chrono.h</text>
</a>
</g>
</g>
<!-- Node2&#45;&gt;Node11 -->
<g id="edge11" class="edge">
<title>Node2&#45;&gt;Node11</title>
<path fill="none" stroke="#63b8ff" d="M417.98,-223.49C354.63,-216.08 233.32,-201.35 120.39,-184.21"/>
<polygon fill="#63b8ff" stroke="#63b8ff" points="120.6,-180.7 110.19,-182.65 119.54,-187.62 120.6,-180.7"/>
</g>
<!-- Node12 -->
<g id="node12" class="node">
<title>Node12</title>
<g id="a_node12"><a xlink:title=" ">
<polygon fill="#e0e0e0" stroke="#999999" points="187.66,-184 127.66,-184 127.66,-165 187.66,-165 187.66,-184"/>
<text text-anchor="middle" x="157.66" y="-172" font-family="Helvetica,sans-Serif" font-size="10.00">iostream</text>
</a>
</g>
</g>
<!-- Node2&#45;&gt;Node12 -->
<g id="edge13" class="edge">
<title>Node2&#45;&gt;Node12</title>
<path fill="none" stroke="#63b8ff" d="M417.93,-221.82C367.31,-213.94 281.18,-200.08 197.76,-184.14"/>
<polygon fill="#63b8ff" stroke="#63b8ff" points="198.34,-180.69 187.86,-182.23 197.02,-187.56 198.34,-180.69"/>
</g>
<!-- Node13 -->
<g id="node13" class="node">
<title>Node13</title>
<g id="a_node13"><a xlink:title=" ">
<polygon fill="#e0e0e0" stroke="#999999" points="315.66,-184 205.66,-184 205.66,-165 315.66,-165 315.66,-184"/>
<text text-anchor="middle" x="260.66" y="-172" font-family="Helvetica,sans-Serif" font-size="10.00">nlohmann/json.hpp</text>
</a>
</g>
</g>
<!-- Node2&#45;&gt;Node13 -->
<g id="edge14" class="edge">
<title>Node2&#45;&gt;Node13</title>
<path fill="none" stroke="#63b8ff" d="M429.36,-219.98C395.03,-210.93 340.6,-196.58 302.89,-186.64"/>
<polygon fill="#63b8ff" stroke="#63b8ff" points="303.77,-183.25 293.21,-184.08 301.98,-190.02 303.77,-183.25"/>
</g>
<!-- Node14 -->
<g id="node14" class="node">
<title>Node14</title>
<g id="a_node14"><a xlink:title=" ">
<polygon fill="#e0e0e0" stroke="#999999" points="747.66,-129 691.66,-129 691.66,-110 747.66,-110 747.66,-129"/>
<text text-anchor="middle" x="719.66" y="-117" font-family="Helvetica,sans-Serif" font-size="10.00">optional</text>
</a>
</g>
</g>
<!-- Node2&#45;&gt;Node14 -->
<g id="edge15" class="edge">
<title>Node2&#45;&gt;Node14</title>
<path fill="none" stroke="#63b8ff" d="M505.24,-225.26C564.78,-220.01 667.4,-207.74 695.66,-184 708.76,-172.99 714.72,-154.05 717.43,-139.71"/>
<polygon fill="#63b8ff" stroke="#63b8ff" points="720.94,-139.84 718.97,-129.43 714.02,-138.8 720.94,-139.84"/>
</g>
<!-- Node15 -->
<g id="node15" class="node">
<title>Node15</title>
<g id="a_node15"><a xlink:title=" ">
<polygon fill="#e0e0e0" stroke="#999999" points="389.66,-184 333.66,-184 333.66,-165 389.66,-165 389.66,-184"/>
<text text-anchor="middle" x="361.66" y="-172" font-family="Helvetica,sans-Serif" font-size="10.00">sstream</text>
</a>
</g>
</g>
<!-- Node2&#45;&gt;Node15 -->
<g id="edge16" class="edge">
<title>Node2&#45;&gt;Node15</title>
<path fill="none" stroke="#63b8ff" d="M445.59,-219.98C429.79,-211.61 405.44,-198.7 387.03,-188.95"/>
<polygon fill="#63b8ff" stroke="#63b8ff" points="388.49,-185.76 378.02,-184.17 385.21,-191.95 388.49,-185.76"/>
</g>
<!-- Node16 -->
<g id="node16" class="node">
<title>Node16</title>
<g id="a_node16"><a xlink:title=" ">
<polygon fill="#e0e0e0" stroke="#999999" points="479.16,-19 410.16,-19 410.16,0 479.16,0 479.16,-19"/>
<text text-anchor="middle" x="444.66" y="-7" font-family="Helvetica,sans-Serif" font-size="10.00">type_traits</text>
</a>
</g>
</g>
<!-- Node2&#45;&gt;Node16 -->
<g id="edge17" class="edge">
<title>Node2&#45;&gt;Node16</title>
<path fill="none" stroke="#63b8ff" d="M417.82,-227.33C311.73,-224.06 47.92,-213.05 21.66,-184 -90.8,-59.59 270.48,-22.36 400.15,-13.14"/>
<polygon fill="#63b8ff" stroke="#63b8ff" points="400.42,-16.63 410.16,-12.46 399.94,-9.65 400.42,-16.63"/>
</g>
<!-- Node3&#45;&gt;Node4 -->
<g id="edge3" class="edge">
<title>Node3&#45;&gt;Node4</title>
<path fill="none" stroke="#63b8ff" d="M607.11,-164.75C611.67,-157.42 618.33,-146.73 623.95,-137.7"/>
<polygon fill="#63b8ff" stroke="#63b8ff" points="627,-139.43 629.31,-129.09 621.05,-135.73 627,-139.43"/>
</g>
<!-- Node5&#45;&gt;Node4 -->
<g id="edge5" class="edge">
<title>Node5&#45;&gt;Node4</title>
<path fill="none" stroke="#63b8ff" d="M489.45,-164.98C518.62,-156.05 564.66,-141.94 597.06,-132.02"/>
<polygon fill="#63b8ff" stroke="#63b8ff" points="598.11,-135.36 606.65,-129.08 596.06,-128.66 598.11,-135.36"/>
</g>
<!-- Node6 -->
<g id="node6" class="node">
<title>Node6</title>
<g id="a_node6"><a xlink:title=" ">
<polygon fill="#e0e0e0" stroke="#999999" points="440.66,-129 354.66,-129 354.66,-110 440.66,-110 440.66,-129"/>
<text text-anchor="middle" x="397.66" y="-117" font-family="Helvetica,sans-Serif" font-size="10.00">fmt/ostream.h</text>
</a>
</g>
</g>
<!-- Node5&#45;&gt;Node6 -->
<g id="edge6" class="edge">
<title>Node5&#45;&gt;Node6</title>
<path fill="none" stroke="#63b8ff" d="M451.38,-164.98C441.82,-157.07 427.38,-145.11 415.87,-135.58"/>
<polygon fill="#63b8ff" stroke="#63b8ff" points="418.06,-132.85 408.13,-129.17 413.6,-138.24 418.06,-132.85"/>
</g>
<!-- Node7 -->
<g id="node7" class="node">
<title>Node7</title>
<g id="a_node7"><a xlink:title=" ">
<polygon fill="#e0e0e0" stroke="#999999" points="520.16,-129 459.16,-129 459.16,-110 520.16,-110 520.16,-129"/>
<text text-anchor="middle" x="489.66" y="-117" font-family="Helvetica,sans-Serif" font-size="10.00">fmt/std.h</text>
</a>
</g>
</g>
<!-- Node5&#45;&gt;Node7 -->
<g id="edge7" class="edge">
<title>Node5&#45;&gt;Node7</title>
<path fill="none" stroke="#63b8ff" d="M466.28,-164.75C470.11,-157.49 475.68,-146.95 480.42,-137.98"/>
<polygon fill="#63b8ff" stroke="#63b8ff" points="483.54,-139.57 485.12,-129.09 477.35,-136.3 483.54,-139.57"/>
</g>
<!-- Node8 -->
<g id="node8" class="node">
<title>Node8</title>
<g id="a_node8"><a xlink:title=" ">
<polygon fill="#e0e0e0" stroke="#999999" points="270.66,-129 226.66,-129 226.66,-110 270.66,-110 270.66,-129"/>
<text text-anchor="middle" x="248.66" y="-117" font-family="Helvetica,sans-Serif" font-size="10.00">limits</text>
</a>
</g>
</g>
<!-- Node5&#45;&gt;Node8 -->
<g id="edge8" class="edge">
<title>Node5&#45;&gt;Node8</title>
<path fill="none" stroke="#63b8ff" d="M425.33,-164.93C390.62,-156.68 336.59,-143.64 281.01,-129.3"/>
<polygon fill="#63b8ff" stroke="#63b8ff" points="281.55,-125.82 270.99,-126.7 279.79,-132.6 281.55,-125.82"/>
</g>
<!-- Node9 -->
<g id="node9" class="node">
<title>Node9</title>
<g id="a_node9"><a xlink:title=" ">
<polygon fill="#e0e0e0" stroke="#999999" points="576.66,-129 538.66,-129 538.66,-110 576.66,-110 576.66,-129"/>
<text text-anchor="middle" x="557.66" y="-117" font-family="Helvetica,sans-Serif" font-size="10.00">map</text>
</a>
</g>
</g>
<!-- Node5&#45;&gt;Node9 -->
<g id="edge9" class="edge">
<title>Node5&#45;&gt;Node9</title>
<path fill="none" stroke="#63b8ff" d="M477.08,-164.98C492.11,-156.69 515.2,-143.94 532.82,-134.22"/>
<polygon fill="#63b8ff" stroke="#63b8ff" points="534.89,-137.07 541.95,-129.17 531.51,-130.94 534.89,-137.07"/>
</g>
<!-- Node10 -->
<g id="node10" class="node">
<title>Node10</title>
<g id="a_node10"><a xlink:title=" ">
<polygon fill="#e0e0e0" stroke="#999999" points="336.66,-129 288.66,-129 288.66,-110 336.66,-110 336.66,-129"/>
<text text-anchor="middle" x="312.66" y="-117" font-family="Helvetica,sans-Serif" font-size="10.00">thread</text>
</a>
</g>
</g>
<!-- Node5&#45;&gt;Node10 -->
<g id="edge10" class="edge">
<title>Node5&#45;&gt;Node10</title>
<path fill="none" stroke="#63b8ff" d="M437.72,-164.98C413.1,-156.23 374.54,-142.51 346.74,-132.62"/>
<polygon fill="#63b8ff" stroke="#63b8ff" points="347.63,-129.22 337.03,-129.17 345.28,-135.82 347.63,-129.22"/>
</g>
<!-- Node19 -->
<g id="node19" class="node">
<title>Node19</title>
<g id="a_node19"><a xlink:href="oversized_8h.html" target="_top" xlink:title=" ">
<polygon fill="white" stroke="#666666" points="1202.16,-349 1115.16,-349 1115.16,-330 1202.16,-330 1202.16,-349"/>
<text text-anchor="middle" x="1158.66" y="-337" font-family="Helvetica,sans-Serif" font-size="10.00">ds/oversized.h</text>
</a>
</g>
</g>
<!-- Node18&#45;&gt;Node19 -->
<g id="edge20" class="edge">
<title>Node18&#45;&gt;Node19</title>
<path fill="none" stroke="#63b8ff" d="M921.13,-384.98C971.18,-375.61 1051.59,-360.55 1104.77,-350.59"/>
<polygon fill="#63b8ff" stroke="#63b8ff" points="1105.51,-354.01 1114.7,-348.73 1104.23,-347.13 1105.51,-354.01"/>
</g>
<!-- Node24 -->
<g id="node24" class="node">
<title>Node24</title>
<g id="a_node24"><a xlink:href="ring__buffer__types_8h.html" target="_top" xlink:title=" ">
<polygon fill="white" stroke="#666666" points="949.66,-184 839.66,-184 839.66,-165 949.66,-165 949.66,-184"/>
<text text-anchor="middle" x="894.66" y="-172" font-family="Helvetica,sans-Serif" font-size="10.00">ring_buffer_types.h</text>
</a>
</g>
</g>
<!-- Node18&#45;&gt;Node24 -->
<g id="edge72" class="edge">
<title>Node18&#45;&gt;Node24</title>
<path fill="none" stroke="#63b8ff" d="M866.05,-384.69C857.79,-376.41 846.46,-363.18 841.66,-349 838.95,-341 840.27,-338.33 841.66,-330 850.18,-278.91 873.52,-222.07 886.2,-193.69"/>
<polygon fill="#63b8ff" stroke="#63b8ff" points="889.52,-194.84 890.48,-184.28 883.15,-191.94 889.52,-194.84"/>
</g>
<!-- Node29 -->
<g id="node29" class="node">
<title>Node29</title>
<g id="a_node29"><a xlink:title=" ">
<polygon fill="#e0e0e0" stroke="#999999" points="1001.16,-19 954.16,-19 954.16,0 1001.16,0 1001.16,-19"/>
<text text-anchor="middle" x="977.66" y="-7" font-family="Helvetica,sans-Serif" font-size="10.00">vector</text>
</a>
</g>
</g>
<!-- Node18&#45;&gt;Node29 -->
<g id="edge74" class="edge">
<title>Node18&#45;&gt;Node29</title>
<path fill="none" stroke="#63b8ff" d="M893.43,-384.95C922.65,-369.5 977.66,-333.99 977.66,-285.5 977.66,-285.5 977.66,-285.5 977.66,-118.5 977.66,-87.19 977.66,-50.77 977.66,-29.23"/>
<polygon fill="#63b8ff" stroke="#63b8ff" points="981.16,-29.18 977.66,-19.18 974.16,-29.18 981.16,-29.18"/>
</g>
<!-- Node47 -->
<g id="node47" class="node">
<title>Node47</title>
<g id="a_node47"><a xlink:title=" ">
<polygon fill="#e0e0e0" stroke="#999999" points="900.66,-349 850.66,-349 850.66,-330 900.66,-330 900.66,-349"/>
<text text-anchor="middle" x="875.66" y="-337" font-family="Helvetica,sans-Serif" font-size="10.00">chrono</text>
</a>
</g>
</g>
<!-- Node18&#45;&gt;Node47 -->
<g id="edge73" class="edge">
<title>Node18&#45;&gt;Node47</title>
<path fill="none" stroke="#63b8ff" d="M875.66,-384.75C875.66,-377.8 875.66,-367.85 875.66,-359.13"/>
<polygon fill="#63b8ff" stroke="#63b8ff" points="879.16,-359.09 875.66,-349.09 872.16,-359.09 879.16,-359.09"/>
</g>
<!-- Node19&#45;&gt;Node4 -->
<g id="edge70" class="edge">
<title>Node19&#45;&gt;Node4</title>
<path fill="none" stroke="#63b8ff" d="M1138.12,-329.95C1057.25,-296.31 760.6,-172.89 664.75,-133.02"/>
<polygon fill="#63b8ff" stroke="#63b8ff" points="665.92,-129.71 655.34,-129.1 663.23,-136.18 665.92,-129.71"/>
</g>
<!-- Node20 -->
<g id="node20" class="node">
<title>Node20</title>
<g id="a_node20"><a xlink:href="messaging_8h.html" target="_top" xlink:title=" ">
<polygon fill="white" stroke="#666666" points="1164.16,-294 1085.16,-294 1085.16,-275 1164.16,-275 1164.16,-294"/>
<text text-anchor="middle" x="1124.66" y="-282" font-family="Helvetica,sans-Serif" font-size="10.00">messaging.h</text>
</a>
</g>
</g>
<!-- Node19&#45;&gt;Node20 -->
<g id="edge21" class="edge">
<title>Node19&#45;&gt;Node20</title>
<path fill="none" stroke="#63b8ff" d="M1153.04,-329.75C1148.34,-322.42 1141.48,-311.73 1135.69,-302.7"/>
<polygon fill="#63b8ff" stroke="#63b8ff" points="1138.51,-300.62 1130.17,-294.09 1132.62,-304.4 1138.51,-300.62"/>
</g>
<!-- Node21 -->
<g id="node21" class="node">
<title>Node21</title>
<g id="a_node21"><a xlink:href="ring__buffer_8h.html" target="_top" xlink:title=" ">
<polygon fill="white" stroke="#666666" points="1518.16,-239 1441.16,-239 1441.16,-220 1518.16,-220 1518.16,-239"/>
<text text-anchor="middle" x="1479.66" y="-227" font-family="Helvetica,sans-Serif" font-size="10.00">ring_buffer.h</text>
</a>
</g>
</g>
<!-- Node19&#45;&gt;Node21 -->
<g id="edge68" class="edge">
<title>Node19&#45;&gt;Node21</title>
<path fill="none" stroke="#63b8ff" d="M1167.95,-329.98C1183.57,-316.16 1216.66,-288.96 1249.66,-275 1266.11,-268.04 1368.34,-249.67 1430.84,-238.83"/>
<polygon fill="#63b8ff" stroke="#63b8ff" points="1431.63,-242.25 1440.89,-237.09 1430.44,-235.35 1431.63,-242.25"/>
</g>
<!-- Node38 -->
<g id="node38" class="node">
<title>Node38</title>
<g id="a_node38"><a xlink:href="serialized_8h.html" target="_top" xlink:title=" ">
<polygon fill="white" stroke="#666666" points="1230.16,-74 1157.16,-74 1157.16,-55 1230.16,-55 1230.16,-74"/>
<text text-anchor="middle" x="1193.66" y="-62" font-family="Helvetica,sans-Serif" font-size="10.00">serialized.h</text>
</a>
</g>
</g>
<!-- Node19&#45;&gt;Node38 -->
<g id="edge69" class="edge">
<title>Node19&#45;&gt;Node38</title>
<path fill="none" stroke="#63b8ff" d="M1163.39,-329.83C1172.73,-311.87 1192.66,-269.03 1192.66,-230.5 1192.66,-230.5 1192.66,-230.5 1192.66,-173.5 1192.66,-142.19 1193.08,-105.77 1193.38,-84.23"/>
<polygon fill="#63b8ff" stroke="#63b8ff" points="1196.88,-84.23 1193.52,-74.18 1189.88,-84.13 1196.88,-84.23"/>
</g>
<!-- Node46 -->
<g id="node46" class="node">
<title>Node46</title>
<g id="a_node46"><a xlink:title=" ">
<polygon fill="#e0e0e0" stroke="#999999" points="1352.16,-294 1259.16,-294 1259.16,-275 1352.16,-275 1352.16,-294"/>
<text text-anchor="middle" x="1305.66" y="-282" font-family="Helvetica,sans-Serif" font-size="10.00">unordered_map</text>
</a>
</g>
</g>
<!-- Node19&#45;&gt;Node46 -->
<g id="edge71" class="edge">
<title>Node19&#45;&gt;Node46</title>
<path fill="none" stroke="#63b8ff" d="M1182.28,-329.98C1206.56,-321.23 1244.61,-307.51 1272.03,-297.62"/>
<polygon fill="#63b8ff" stroke="#63b8ff" points="1273.39,-300.85 1281.61,-294.17 1271.02,-294.27 1273.39,-300.85"/>
</g>
<!-- Node20&#45;&gt;Node2 -->
<g id="edge22" class="edge">
<title>Node20&#45;&gt;Node2</title>
<path fill="none" stroke="#63b8ff" d="M1084.68,-280.3C970.87,-271.21 645.07,-245.16 515.63,-234.81"/>
<polygon fill="#63b8ff" stroke="#63b8ff" points="515.8,-231.32 505.55,-234.01 515.24,-238.29 515.8,-231.32"/>
</g>
<!-- Node20&#45;&gt;Node9 -->
<g id="edge66" class="edge">
<title>Node20&#45;&gt;Node9</title>
<path fill="none" stroke="#63b8ff" d="M1094.22,-274.95C1013.38,-252.22 786.4,-188.14 586.71,-129.28"/>
<polygon fill="#63b8ff" stroke="#63b8ff" points="587.51,-125.86 576.93,-126.39 585.53,-132.58 587.51,-125.86"/>
</g>
<!-- Node20&#45;&gt;Node21 -->
<g id="edge23" class="edge">
<title>Node20&#45;&gt;Node21</title>
<path fill="none" stroke="#63b8ff" d="M1164.26,-277.83C1221.99,-269.52 1332.64,-253.47 1426.66,-239 1427.95,-238.8 1429.27,-238.6 1430.59,-238.39"/>
<polygon fill="#63b8ff" stroke="#63b8ff" points="1431.54,-241.79 1440.88,-236.78 1430.46,-234.87 1431.54,-241.79"/>
</g>
<!-- Node39 -->
<g id="node39" class="node">
<title>Node39</title>
<g id="a_node39"><a xlink:title=" ">
<polygon fill="#e0e0e0" stroke="#999999" points="1380.16,-19 1315.16,-19 1315.16,0 1380.16,0 1380.16,-19"/>
<text text-anchor="middle" x="1347.66" y="-7" font-family="Helvetica,sans-Serif" font-size="10.00">stdexcept</text>
</a>
</g>
</g>
<!-- Node20&#45;&gt;Node39 -->
<g id="edge67" class="edge">
<title>Node20&#45;&gt;Node39</title>
<path fill="none" stroke="#63b8ff" d="M1150.08,-274.93C1210.78,-252.91 1363.49,-187.93 1422.66,-74 1434.3,-51.58 1407.38,-33.85 1382.61,-22.89"/>
<polygon fill="#63b8ff" stroke="#63b8ff" points="1383.89,-19.63 1373.31,-19.02 1381.2,-26.09 1383.89,-19.63"/>
</g>
<!-- Node42 -->
<g id="node42" class="node">
<title>Node42</title>
<g id="a_node42"><a xlink:title=" ">
<polygon fill="#e0e0e0" stroke="#999999" points="1161.66,-129 1111.66,-129 1111.66,-110 1161.66,-110 1161.66,-129"/>
<text text-anchor="middle" x="1136.66" y="-117" font-family="Helvetica,sans-Serif" font-size="10.00">atomic</text>
</a>
</g>
</g>
<!-- Node20&#45;&gt;Node42 -->
<g id="edge64" class="edge">
<title>Node20&#45;&gt;Node42</title>
<path fill="none" stroke="#63b8ff" d="M1125.3,-274.74C1127.18,-249.31 1132.64,-175.08 1135.25,-139.69"/>
<polygon fill="#63b8ff" stroke="#63b8ff" points="1138.77,-139.54 1136.01,-129.31 1131.79,-139.02 1138.77,-139.54"/>
</g>
<!-- Node45 -->
<g id="node45" class="node">
<title>Node45</title>
<g id="a_node45"><a xlink:title=" ">
<polygon fill="#e0e0e0" stroke="#999999" points="1113.16,-239 1006.16,-239 1006.16,-220 1113.16,-220 1113.16,-239"/>
<text text-anchor="middle" x="1059.66" y="-227" font-family="Helvetica,sans-Serif" font-size="10.00">condition_variable</text>
</a>
</g>
</g>
<!-- Node20&#45;&gt;Node45 -->
<g id="edge65" class="edge">
<title>Node20&#45;&gt;Node45</title>
<path fill="none" stroke="#63b8ff" d="M1114.21,-274.98C1104.51,-267.07 1089.84,-255.11 1078.16,-245.58"/>
<polygon fill="#63b8ff" stroke="#63b8ff" points="1080.25,-242.78 1070.29,-239.17 1075.83,-248.2 1080.25,-242.78"/>
</g>
<!-- Node22 -->
<g id="node22" class="node">
<title>Node22</title>
<g id="a_node22"><a xlink:href="ccf__memcpy_8h.html" target="_top" xlink:title=" ">
<polygon fill="white" stroke="#666666" points="1640.66,-74 1554.66,-74 1554.66,-55 1640.66,-55 1640.66,-74"/>
<text text-anchor="middle" x="1597.66" y="-62" font-family="Helvetica,sans-Serif" font-size="10.00">ccf_memcpy.h</text>
</a>
</g>
</g>
<!-- Node21&#45;&gt;Node22 -->
<g id="edge24" class="edge">
<title>Node21&#45;&gt;Node22</title>
<path fill="none" stroke="#63b8ff" d="M1518.31,-225.86C1546.8,-221.65 1583.75,-210.95 1602.66,-184 1623.57,-154.19 1613.21,-109.02 1604.8,-83.94"/>
<polygon fill="#63b8ff" stroke="#63b8ff" points="1607.98,-82.45 1601.3,-74.23 1601.4,-84.83 1607.98,-82.45"/>
</g>
<!-- Node23 -->
<g id="node23" class="node">
<title>Node23</title>
<g id="a_node23"><a xlink:title=" ">
<polygon fill="#e0e0e0" stroke="#999999" points="1525.66,-19 1475.66,-19 1475.66,0 1525.66,0 1525.66,-19"/>
<text text-anchor="middle" x="1500.66" y="-7" font-family="Helvetica,sans-Serif" font-size="10.00">cstring</text>
</a>
</g>
</g>
<!-- Node21&#45;&gt;Node23 -->
<g id="edge61" class="edge">
<title>Node21&#45;&gt;Node23</title>
<path fill="none" stroke="#63b8ff" d="M1480.48,-219.95C1483.56,-187.95 1494.48,-74.68 1498.84,-29.4"/>
<polygon fill="#63b8ff" stroke="#63b8ff" points="1502.34,-29.51 1499.82,-19.22 1495.38,-28.84 1502.34,-29.51"/>
</g>
<!-- Node21&#45;&gt;Node24 -->
<g id="edge26" class="edge">
<title>Node21&#45;&gt;Node24</title>
<path fill="none" stroke="#63b8ff" d="M1440.82,-224.98C1342.41,-216.07 1082.38,-192.51 960.04,-181.42"/>
<polygon fill="#63b8ff" stroke="#63b8ff" points="960.33,-177.94 950.05,-180.52 959.7,-184.91 960.33,-177.94"/>
</g>
<!-- Node43 -->
<g id="node43" class="node">
<title>Node43</title>
<g id="a_node43"><a xlink:title=" ">
<polygon fill="#e0e0e0" stroke="#999999" points="1594.16,-184 1529.16,-184 1529.16,-165 1594.16,-165 1594.16,-184"/>
<text text-anchor="middle" x="1561.66" y="-172" font-family="Helvetica,sans-Serif" font-size="10.00">functional</text>
</a>
</g>
</g>
<!-- Node21&#45;&gt;Node43 -->
<g id="edge62" class="edge">
<title>Node21&#45;&gt;Node43</title>
<path fill="none" stroke="#63b8ff" d="M1492.83,-219.98C1505.43,-211.84 1524.66,-199.41 1539.6,-189.76"/>
<polygon fill="#63b8ff" stroke="#63b8ff" points="1541.75,-192.54 1548.24,-184.17 1537.95,-186.66 1541.75,-192.54"/>
</g>
<!-- Node44 -->
<g id="node44" class="node">
<title>Node44</title>
<g id="a_node44"><a xlink:title=" ">
<polygon fill="#e0e0e0" stroke="#999999" points="1472.66,-184 1440.66,-184 1440.66,-165 1472.66,-165 1472.66,-184"/>
<text text-anchor="middle" x="1456.66" y="-172" font-family="Helvetica,sans-Serif" font-size="10.00">set</text>
</a>
</g>
</g>
<!-- Node21&#45;&gt;Node44 -->
<g id="edge63" class="edge">
<title>Node21&#45;&gt;Node44</title>
<path fill="none" stroke="#63b8ff" d="M1475.86,-219.75C1472.75,-212.57 1468.24,-202.18 1464.37,-193.27"/>
<polygon fill="#63b8ff" stroke="#63b8ff" points="1467.58,-191.87 1460.39,-184.09 1461.16,-194.66 1467.58,-191.87"/>
</g>
<!-- Node22&#45;&gt;Node23 -->
<g id="edge25" class="edge">
<title>Node22&#45;&gt;Node23</title>
<path fill="none" stroke="#63b8ff" d="M1582.07,-54.98C1566.89,-46.69 1543.56,-33.94 1525.76,-24.22"/>
<polygon fill="#63b8ff" stroke="#63b8ff" points="1526.98,-20.89 1516.53,-19.17 1523.62,-27.04 1526.98,-20.89"/>
</g>
<!-- Node24&#45;&gt;Node4 -->
<g id="edge57" class="edge">
<title>Node24&#45;&gt;Node4</title>
<path fill="none" stroke="#63b8ff" d="M852.88,-164.98C806.92,-155.61 733.09,-140.56 684.23,-130.6"/>
<polygon fill="#63b8ff" stroke="#63b8ff" points="684.7,-127.13 674.2,-128.56 683.3,-133.99 684.7,-127.13"/>
</g>
<!-- Node24&#45;&gt;Node14 -->
<g id="edge58" class="edge">
<title>Node24&#45;&gt;Node14</title>
<path fill="none" stroke="#63b8ff" d="M866.54,-164.98C836.95,-156.02 790.19,-141.86 757.4,-131.93"/>
<polygon fill="#63b8ff" stroke="#63b8ff" points="758.29,-128.54 747.71,-128.99 756.26,-135.24 758.29,-128.54"/>
</g>
<!-- Node25 -->
<g id="node25" class="node">
<title>Node25</title>
<g id="a_node25"><a xlink:href="include_2ccf_2ds_2hash_8h.html" target="_top" xlink:title=" ">
<polygon fill="white" stroke="#666666" points="1087.66,-129 1007.66,-129 1007.66,-110 1087.66,-110 1087.66,-129"/>
<text text-anchor="middle" x="1047.66" y="-117" font-family="Helvetica,sans-Serif" font-size="10.00">ccf/ds/hash.h</text>
</a>
</g>
</g>
<!-- Node24&#45;&gt;Node25 -->
<g id="edge27" class="edge">
<title>Node24&#45;&gt;Node25</title>
<path fill="none" stroke="#63b8ff" d="M919.24,-164.98C944.71,-156.16 984.7,-142.31 1013.29,-132.41"/>
<polygon fill="#63b8ff" stroke="#63b8ff" points="1014.58,-135.66 1022.88,-129.08 1012.29,-129.05 1014.58,-135.66"/>
</g>
<!-- Node24&#45;&gt;Node29 -->
<g id="edge60" class="edge">
<title>Node24&#45;&gt;Node29</title>
<path fill="none" stroke="#63b8ff" d="M900.05,-164.75C905.46,-155.86 913.94,-141.64 920.66,-129 939.24,-94.04 958.81,-52.06 969.5,-28.62"/>
<polygon fill="#63b8ff" stroke="#63b8ff" points="972.8,-29.8 973.75,-19.24 966.43,-26.91 972.8,-29.8"/>
</g>
<!-- Node32 -->
<g id="node32" class="node">
<title>Node32</title>
<g id="a_node32"><a xlink:href="nonstd_8h.html" target="_top" xlink:title=" ">
<polygon fill="white" stroke="#666666" points="661.66,-74 571.66,-74 571.66,-55 661.66,-55 661.66,-74"/>
<text text-anchor="middle" x="616.66" y="-62" font-family="Helvetica,sans-Serif" font-size="10.00">ccf/ds/nonstd.h</text>
</a>
</g>
</g>
<!-- Node24&#45;&gt;Node32 -->
<g id="edge36" class="edge">
<title>Node24&#45;&gt;Node32</title>
<path fill="none" stroke="#63b8ff" d="M876.39,-164.94C841.69,-148.7 768.59,-114.62 756.66,-110 723.72,-97.24 685.45,-85.27 657.25,-76.96"/>
<polygon fill="#63b8ff" stroke="#63b8ff" points="657.93,-73.51 647.35,-74.07 655.97,-80.23 657.93,-73.51"/>
</g>
<!-- Node35 -->
<g id="node35" class="node">
<title>Node35</title>
<g id="a_node35"><a xlink:title=" ">
<polygon fill="#e0e0e0" stroke="#999999" points="842.66,-19 798.66,-19 798.66,0 842.66,0 842.66,-19"/>
<text text-anchor="middle" x="820.66" y="-7" font-family="Helvetica,sans-Serif" font-size="10.00">string</text>
</a>
</g>
</g>
<!-- Node24&#45;&gt;Node35 -->
<g id="edge59" class="edge">
<title>Node24&#45;&gt;Node35</title>
<path fill="none" stroke="#63b8ff" d="M882,-164.87C862.9,-152.05 825.37,-127.59 791.66,-110 756.01,-91.4 730.72,-107.62 708.66,-74 704.03,-66.94 703.92,-61.99 708.66,-55 713.44,-47.95 757.47,-31.86 788.88,-21.08"/>
<polygon fill="#63b8ff" stroke="#63b8ff" points="790.22,-24.32 798.56,-17.79 787.97,-17.7 790.22,-24.32"/>
</g>
<!-- Node37 -->
<g id="node37" class="node">
<title>Node37</title>
<g id="a_node37"><a xlink:href="serializer_8h.html" target="_top" xlink:title=" ">
<polygon fill="white" stroke="#666666" points="911.66,-129 841.66,-129 841.66,-110 911.66,-110 911.66,-129"/>
<text text-anchor="middle" x="876.66" y="-117" font-family="Helvetica,sans-Serif" font-size="10.00">serializer.h</text>
</a>
</g>
</g>
<!-- Node24&#45;&gt;Node37 -->
<g id="edge44" class="edge">
<title>Node24&#45;&gt;Node37</title>
<path fill="none" stroke="#63b8ff" d="M891.69,-164.75C889.3,-157.72 885.87,-147.62 882.89,-138.84"/>
<polygon fill="#63b8ff" stroke="#63b8ff" points="886.11,-137.43 879.58,-129.09 879.48,-139.68 886.11,-137.43"/>
</g>
<!-- Node24&#45;&gt;Node42 -->
<g id="edge56" class="edge">
<title>Node24&#45;&gt;Node42</title>
<path fill="none" stroke="#63b8ff" d="M933.54,-164.98C980.02,-154.8 1057.12,-137.92 1101.76,-128.14"/>
<polygon fill="#63b8ff" stroke="#63b8ff" points="1102.55,-131.55 1111.57,-125.99 1101.06,-124.71 1102.55,-131.55"/>
</g>
<!-- Node26 -->
<g id="node26" class="node">
<title>Node26</title>
<g id="a_node26"><a xlink:href="siphash_8h.html" target="_top" xlink:title=" ">
<polygon fill="white" stroke="#666666" points="1139.16,-74 1044.16,-74 1044.16,-55 1139.16,-55 1139.16,-74"/>
<text text-anchor="middle" x="1091.66" y="-62" font-family="Helvetica,sans-Serif" font-size="10.00">ccf/ds/siphash.h</text>
</a>
</g>
</g>
<!-- Node25&#45;&gt;Node26 -->
<g id="edge28" class="edge">
<title>Node25&#45;&gt;Node26</title>
<path fill="none" stroke="#63b8ff" d="M1054.92,-109.75C1061.2,-102.18 1070.45,-91.05 1078.09,-81.84"/>
<polygon fill="#63b8ff" stroke="#63b8ff" points="1080.83,-84.02 1084.53,-74.09 1075.45,-79.55 1080.83,-84.02"/>
</g>
<!-- Node28 -->
<g id="node28" class="node">
<title>Node28</title>
<g id="a_node28"><a xlink:title=" ">
<polygon fill="#e0e0e0" stroke="#999999" points="1218.66,-19 1168.66,-19 1168.66,0 1218.66,0 1218.66,-19"/>
<text text-anchor="middle" x="1193.66" y="-7" font-family="Helvetica,sans-Serif" font-size="10.00">cstdint</text>
</a>
</g>
</g>
<!-- Node25&#45;&gt;Node28 -->
<g id="edge33" class="edge">
<title>Node25&#45;&gt;Node28</title>
<path fill="none" stroke="#63b8ff" d="M1087.89,-112.12C1092.86,-111.38 1097.87,-110.65 1102.66,-110 1169.84,-100.82 1360.63,-124.7 1405.66,-74 1411.27,-67.69 1410.98,-61.56 1405.66,-55 1383.82,-28.11 1283.63,-16.88 1229.16,-12.69"/>
<polygon fill="#63b8ff" stroke="#63b8ff" points="1229.14,-9.18 1218.92,-11.95 1228.64,-16.16 1229.14,-9.18"/>
</g>
<!-- Node25&#45;&gt;Node29 -->
<g id="edge35" class="edge">
<title>Node25&#45;&gt;Node29</title>
<path fill="none" stroke="#63b8ff" d="M1041.93,-109.66C1030.34,-91.77 1003.91,-51 988.8,-27.69"/>
<polygon fill="#63b8ff" stroke="#63b8ff" points="991.65,-25.65 983.27,-19.16 985.77,-29.45 991.65,-25.65"/>
</g>
<!-- Node30 -->
<g id="node30" class="node">
<title>Node30</title>
<g id="a_node30"><a xlink:title=" ">
<polygon fill="#e0e0e0" stroke="#999999" points="780.66,-19 738.66,-19 738.66,0 780.66,0 780.66,-19"/>
<text text-anchor="middle" x="759.66" y="-7" font-family="Helvetica,sans-Serif" font-size="10.00">array</text>
</a>
</g>
</g>
<!-- Node25&#45;&gt;Node30 -->
<g id="edge32" class="edge">
<title>Node25&#45;&gt;Node30</title>
<path fill="none" stroke="#63b8ff" d="M1024.58,-109.84C972.97,-90.49 848.24,-43.72 790.25,-21.97"/>
<polygon fill="#63b8ff" stroke="#63b8ff" points="791.47,-18.69 780.88,-18.46 789.01,-25.25 791.47,-18.69"/>
</g>
<!-- Node31 -->
<g id="node31" class="node">
<title>Node31</title>
<g id="a_node31"><a xlink:title=" ">
<polygon fill="#e0e0e0" stroke="#999999" points="1397.16,-74 1248.16,-74 1248.16,-55 1397.16,-55 1397.16,-74"/>
<text text-anchor="middle" x="1322.66" y="-62" font-family="Helvetica,sans-Serif" font-size="10.00">small_vector/SmallVector.h</text>
</a>
</g>
</g>
<!-- Node25&#45;&gt;Node31 -->
<g id="edge34" class="edge">
<title>Node25&#45;&gt;Node31</title>
<path fill="none" stroke="#63b8ff" d="M1087.94,-110.74C1135.59,-101.55 1215.14,-86.22 1268.24,-75.99"/>
<polygon fill="#63b8ff" stroke="#63b8ff" points="1269.01,-79.4 1278.16,-74.08 1267.68,-72.53 1269.01,-79.4"/>
</g>
<!-- Node27 -->
<g id="node27" class="node">
<title>Node27</title>
<g id="a_node27"><a xlink:title=" ">
<polygon fill="#e0e0e0" stroke="#999999" points="1118.16,-19 1065.16,-19 1065.16,0 1118.16,0 1118.16,-19"/>
<text text-anchor="middle" x="1091.66" y="-7" font-family="Helvetica,sans-Serif" font-size="10.00">cstddef</text>
</a>
</g>
</g>
<!-- Node26&#45;&gt;Node27 -->
<g id="edge29" class="edge">
<title>Node26&#45;&gt;Node27</title>
<path fill="none" stroke="#63b8ff" d="M1091.66,-54.75C1091.66,-47.8 1091.66,-37.85 1091.66,-29.13"/>
<polygon fill="#63b8ff" stroke="#63b8ff" points="1095.16,-29.09 1091.66,-19.09 1088.16,-29.09 1095.16,-29.09"/>
</g>
<!-- Node26&#45;&gt;Node28 -->
<g id="edge30" class="edge">
<title>Node26&#45;&gt;Node28</title>
<path fill="none" stroke="#63b8ff" d="M1108.05,-54.98C1124.23,-46.57 1149.23,-33.59 1168.04,-23.81"/>
<polygon fill="#63b8ff" stroke="#63b8ff" points="1169.71,-26.89 1176.97,-19.17 1166.48,-20.68 1169.71,-26.89"/>
</g>
<!-- Node26&#45;&gt;Node29 -->
<g id="edge31" class="edge">
<title>Node26&#45;&gt;Node29</title>
<path fill="none" stroke="#63b8ff" d="M1073.34,-54.98C1055,-46.46 1026.55,-33.23 1005.43,-23.41"/>
<polygon fill="#63b8ff" stroke="#63b8ff" points="1006.85,-20.21 996.31,-19.17 1003.9,-26.56 1006.85,-20.21"/>
</g>
<!-- Node32&#45;&gt;Node16 -->
<g id="edge42" class="edge">
<title>Node32&#45;&gt;Node16</title>
<path fill="none" stroke="#63b8ff" d="M589.02,-54.98C560.15,-46.09 514.65,-32.07 482.46,-22.15"/>
<polygon fill="#63b8ff" stroke="#63b8ff" points="483.1,-18.68 472.51,-19.08 481.04,-25.37 483.1,-18.68"/>
</g>
<!-- Node32&#45;&gt;Node29 -->
<g id="edge43" class="edge">
<title>Node32&#45;&gt;Node29</title>
<path fill="none" stroke="#63b8ff" d="M662.01,-56.84C735.38,-46.07 878.45,-25.06 943.73,-15.48"/>
<polygon fill="#63b8ff" stroke="#63b8ff" points="944.49,-18.91 953.88,-13.99 943.48,-11.98 944.49,-18.91"/>
</g>
<!-- Node32&#45;&gt;Node30 -->
<g id="edge38" class="edge">
<title>Node32&#45;&gt;Node30</title>
<path fill="none" stroke="#63b8ff" d="M639.63,-54.98C663.86,-46.01 702.15,-31.82 728.95,-21.88"/>
<polygon fill="#63b8ff" stroke="#63b8ff" points="730.44,-25.06 738.6,-18.3 728.01,-18.5 730.44,-25.06"/>
</g>
<!-- Node33 -->
<g id="node33" class="node">
<title>Node33</title>
<g id="a_node33"><a xlink:title=" ">
<polygon fill="#e0e0e0" stroke="#999999" points="561.66,-19 497.66,-19 497.66,0 561.66,0 561.66,-19"/>
<text text-anchor="middle" x="529.66" y="-7" font-family="Helvetica,sans-Serif" font-size="10.00">algorithm</text>
</a>
</g>
</g>
<!-- Node32&#45;&gt;Node33 -->
<g id="edge37" class="edge">
<title>Node32&#45;&gt;Node33</title>
<path fill="none" stroke="#63b8ff" d="M602.68,-54.98C589.19,-46.77 568.52,-34.18 552.62,-24.49"/>
<polygon fill="#63b8ff" stroke="#63b8ff" points="554.25,-21.38 543.89,-19.17 550.61,-27.36 554.25,-21.38"/>
</g>
<!-- Node34 -->
<g id="node34" class="node">
<title>Node34</title>
<g id="a_node34"><a xlink:title=" ">
<polygon fill="#e0e0e0" stroke="#999999" points="720.16,-19 671.16,-19 671.16,0 720.16,0 720.16,-19"/>
<text text-anchor="middle" x="695.66" y="-7" font-family="Helvetica,sans-Serif" font-size="10.00">cctype</text>
</a>
</g>
</g>
<!-- Node32&#45;&gt;Node34 -->
<g id="edge39" class="edge">
<title>Node32&#45;&gt;Node34</title>
<path fill="none" stroke="#63b8ff" d="M629.35,-54.98C641.49,-46.84 660.02,-34.41 674.4,-24.76"/>
<polygon fill="#63b8ff" stroke="#63b8ff" points="676.38,-27.65 682.73,-19.17 672.48,-21.84 676.38,-27.65"/>
</g>
<!-- Node32&#45;&gt;Node35 -->
<g id="edge40" class="edge">
<title>Node32&#45;&gt;Node35</title>
<path fill="none" stroke="#63b8ff" d="M650.51,-54.96C683.44,-46.62 735.13,-33.42 788.94,-19.16"/>
<polygon fill="#63b8ff" stroke="#63b8ff" points="789.89,-22.53 798.65,-16.58 788.09,-15.76 789.89,-22.53"/>
</g>
<!-- Node36 -->
<g id="node36" class="node">
<title>Node36</title>
<g id="a_node36"><a xlink:title=" ">
<polygon fill="#e0e0e0" stroke="#999999" points="653.16,-19 580.16,-19 580.16,0 653.16,0 653.16,-19"/>
<text text-anchor="middle" x="616.66" y="-7" font-family="Helvetica,sans-Serif" font-size="10.00">string_view</text>
</a>
</g>
</g>
<!-- Node32&#45;&gt;Node36 -->
<g id="edge41" class="edge">
<title>Node32&#45;&gt;Node36</title>
<path fill="none" stroke="#63b8ff" d="M616.66,-54.75C616.66,-47.8 616.66,-37.85 616.66,-29.13"/>
<polygon fill="#63b8ff" stroke="#63b8ff" points="620.16,-29.09 616.66,-19.09 613.16,-29.09 620.16,-29.09"/>
</g>
<!-- Node37&#45;&gt;Node16 -->
<g id="edge54" class="edge">
<title>Node37&#45;&gt;Node16</title>
<path fill="none" stroke="#63b8ff" d="M841.45,-115.09C770.75,-107.97 613.92,-90.83 562.66,-74 526.52,-62.14 488.42,-39.53 465.6,-24.74"/>
<polygon fill="#63b8ff" stroke="#63b8ff" points="467.35,-21.7 457.08,-19.12 463.5,-27.55 467.35,-21.7"/>
</g>
<!-- Node37&#45;&gt;Node29 -->
<g id="edge55" class="edge">
<title>Node37&#45;&gt;Node29</title>
<path fill="none" stroke="#63b8ff" d="M882.48,-109.84C891.18,-97.18 908.39,-73.17 925.66,-55 935.76,-44.37 948.21,-33.64 958.4,-25.39"/>
<polygon fill="#63b8ff" stroke="#63b8ff" points="960.67,-28.05 966.32,-19.09 956.31,-22.57 960.67,-28.05"/>
</g>
<!-- Node37&#45;&gt;Node32 -->
<g id="edge45" class="edge">
<title>Node37&#45;&gt;Node32</title>
<path fill="none" stroke="#63b8ff" d="M841.59,-111.35C797.02,-102.27 719.71,-86.51 668.37,-76.04"/>
<polygon fill="#63b8ff" stroke="#63b8ff" points="668.96,-72.59 658.46,-74.02 667.56,-79.45 668.96,-72.59"/>
</g>
<!-- Node37&#45;&gt;Node38 -->
<g id="edge46" class="edge">
<title>Node37&#45;&gt;Node38</title>
<path fill="none" stroke="#63b8ff" d="M911.78,-112.96C961.66,-105.05 1056.17,-89.87 1147.09,-74.07"/>
<polygon fill="#63b8ff" stroke="#63b8ff" points="1147.76,-77.5 1157.01,-72.34 1146.56,-70.61 1147.76,-77.5"/>
</g>
<!-- Node40 -->
<g id="node40" class="node">
<title>Node40</title>
<g id="a_node40"><a xlink:title=" ">
<polygon fill="#e0e0e0" stroke="#999999" points="835.66,-74 777.66,-74 777.66,-55 835.66,-55 835.66,-74"/>
<text text-anchor="middle" x="806.66" y="-62" font-family="Helvetica,sans-Serif" font-size="10.00">memory</text>
</a>
</g>
</g>
<!-- Node37&#45;&gt;Node40 -->
<g id="edge52" class="edge">
<title>Node37&#45;&gt;Node40</title>
<path fill="none" stroke="#63b8ff" d="M865.41,-109.98C854.86,-102 838.86,-89.88 826.22,-80.31"/>
<polygon fill="#63b8ff" stroke="#63b8ff" points="828.19,-77.42 818.11,-74.17 823.97,-83 828.19,-77.42"/>
</g>
<!-- Node41 -->
<g id="node41" class="node">
<title>Node41</title>
<g id="a_node41"><a xlink:title=" ">
<polygon fill="#e0e0e0" stroke="#999999" points="759.16,-74 718.16,-74 718.16,-55 759.16,-55 759.16,-74"/>
<text text-anchor="middle" x="738.66" y="-62" font-family="Helvetica,sans-Serif" font-size="10.00">tuple</text>
</a>
</g>
</g>
<!-- Node37&#45;&gt;Node41 -->
<g id="edge53" class="edge">
<title>Node37&#45;&gt;Node41</title>
<path fill="none" stroke="#63b8ff" d="M854.49,-109.98C831.35,-101.1 794.91,-87.1 769.09,-77.19"/>
<polygon fill="#63b8ff" stroke="#63b8ff" points="770.01,-73.79 759.42,-73.47 767.5,-80.33 770.01,-73.79"/>
</g>
<!-- Node38&#45;&gt;Node23 -->
<g id="edge48" class="edge">
<title>Node38&#45;&gt;Node23</title>
<path fill="none" stroke="#63b8ff" d="M1230.49,-56.49C1233.25,-55.98 1236,-55.48 1238.66,-55 1319.64,-40.48 1414.92,-24.6 1465.29,-16.29"/>
<polygon fill="#63b8ff" stroke="#63b8ff" points="1466.04,-19.72 1475.34,-14.64 1464.9,-12.81 1466.04,-19.72"/>
</g>
<!-- Node38&#45;&gt;Node28 -->
<g id="edge47" class="edge">
<title>Node38&#45;&gt;Node28</title>
<path fill="none" stroke="#63b8ff" d="M1193.66,-54.75C1193.66,-47.8 1193.66,-37.85 1193.66,-29.13"/>
<polygon fill="#63b8ff" stroke="#63b8ff" points="1197.16,-29.09 1193.66,-19.09 1190.16,-29.09 1197.16,-29.09"/>
</g>
<!-- Node38&#45;&gt;Node29 -->
<g id="edge51" class="edge">
<title>Node38&#45;&gt;Node29</title>
<path fill="none" stroke="#63b8ff" d="M1158.95,-54.98C1118.25,-45 1051.26,-28.56 1011.11,-18.71"/>
<polygon fill="#63b8ff" stroke="#63b8ff" points="1011.81,-15.28 1001.27,-16.29 1010.15,-22.08 1011.81,-15.28"/>
</g>
<!-- Node38&#45;&gt;Node35 -->
<g id="edge50" class="edge">
<title>Node38&#45;&gt;Node35</title>
<path fill="none" stroke="#63b8ff" d="M1157.03,-56.57C1153.86,-56.02 1150.71,-55.49 1147.66,-55 1040.08,-37.75 911.89,-21.57 853.07,-14.39"/>
<polygon fill="#63b8ff" stroke="#63b8ff" points="853.26,-10.89 842.92,-13.16 852.42,-17.84 853.26,-10.89"/>
</g>
<!-- Node38&#45;&gt;Node39 -->
<g id="edge49" class="edge">
<title>Node38&#45;&gt;Node39</title>
<path fill="none" stroke="#63b8ff" d="M1218.4,-54.98C1244.03,-46.16 1284.29,-32.31 1313.07,-22.41"/>
<polygon fill="#63b8ff" stroke="#63b8ff" points="1314.4,-25.65 1322.72,-19.08 1312.13,-19.03 1314.4,-25.65"/>
</g>
</g>
</svg>
        <g id="navigator" transform="translate(0 0)" fill="#404254">
                <rect fill="#f2f5e9" fill-opacity="0.5" stroke="#606060" stroke-width=".5" x="0" y="0" width="60" height="60"/>
                <use id="zoomplus" xlink:href="#zoomPlus" x="17" y="9" onmousedown="handleZoom(evt,'in')"/>
                <use id="zoomminus" xlink:href="#zoomMin" x="42" y="9" onmousedown="handleZoom(evt,'out')"/>
                <use id="reset" xlink:href="#resetDef" x="30" y="36" onmousedown="handleReset()"/>
                <g id="arrowUp" xlink:href="#dirArrow" transform="translate(30 24)" onmousedown="handlePan(0,-1)">
                  <use xlink:href="#rim" fill="#404040">
                        <set attributeName="fill" to="#808080" begin="arrowUp.mouseover" end="arrowUp.mouseout"/>
                  </use>
                  <path fill="none" stroke="white" stroke-width="1.5" d="M0,-3.0v7 M-2.5,-0.5L0,-3.0L2.5,-0.5"/>
                </g>
                <g id="arrowRight" xlink:href="#dirArrow" transform="rotate(90) translate(36 -43)" onmousedown="handlePan(1,0)">
                  <use xlink:href="#rim" fill="#404040">
                        <set attributeName="fill" to="#808080" begin="arrowRight.mouseover" end="arrowRight.mouseout"/>
                  </use>
                  <path fill="none" stroke="white" stroke-width="1.5" d="M0,-3.0v7 M-2.5,-0.5L0,-3.0L2.5,-0.5"/>
                </g>
                <g id="arrowDown" xlink:href="#dirArrow" transform="rotate(180) translate(-30 -48)" onmousedown="handlePan(0,1)">
                  <use xlink:href="#rim" fill="#404040">
                        <set attributeName="fill" to="#808080" begin="arrowDown.mouseover" end="arrowDown.mouseout"/>
                  </use>
                  <path fill="none" stroke="white" stroke-width="1.5" d="M0,-3.0v7 M-2.5,-0.5L0,-3.0L2.5,-0.5"/>
                </g>
                <g id="arrowLeft" xlink:href="#dirArrow" transform="rotate(270) translate(-36 17)" onmousedown="handlePan(-1,0)">
                  <use xlink:href="#rim" fill="#404040">
                        <set attributeName="fill" to="#808080" begin="arrowLeft.mouseover" end="arrowLeft.mouseout"/>
                  </use>
                  <path fill="none" stroke="white" stroke-width="1.5" d="M0,-3.0v7 M-2.5,-0.5L0,-3.0L2.5,-0.5"/>
                </g>
        </g>
        <svg viewBox="0 0 15 15" width="100%" height="30px" preserveAspectRatio="xMaxYMin meet">
         <g id="arrow_out" transform="scale(0.3 0.3)">
          <a xlink:href="host_2enclave_8h__incl_org.svg" target="_base">
           <rect id="button" ry="5" rx="5" y="6" x="6" height="38" width="38"
                fill="#f2f5e9" fill-opacity="0.5" stroke="#606060" stroke-width="1.0"/>
           <path id="arrow"
             d="M 11.500037,31.436501 C 11.940474,20.09759 22.043105,11.32322 32.158766,21.979434 L 37.068811,17.246167 C 37.068811,17.246167 37.088388,32 37.088388,32 L 22.160133,31.978069 C 22.160133,31.978069 26.997745,27.140456 26.997745,27.140456 C 18.528582,18.264221 13.291696,25.230495 11.500037,31.436501 z"
             style="fill:#404040;"/>
          </a>
         </g>
        </svg>
</svg>
