<?xml version="1.0" encoding="UTF-8" standalone="no"?>
<!DOCTYPE svg PUBLIC "-//W3C//DTD SVG 1.1//EN"
 "http://www.w3.org/Graphics/SVG/1.1/DTD/svg11.dtd">
<!-- Generated by graphviz version 2.43.0 (0)
 -->
<!-- Title: src/http/http_builder.h Pages: 1 -->
<svg width="1057pt" height="137pt"
 viewBox="0.00 0.00 1057.00 137.00" xmlns="http://www.w3.org/2000/svg" xmlns:xlink="http://www.w3.org/1999/xlink">
<g id="graph0" class="graph" transform="scale(1 1) rotate(0) translate(4 133)">
<title>src/http/http_builder.h</title>
<!-- Node1 -->
<g id="node1" class="node">
<title>Node1</title>
<g id="a_node1"><a xlink:title=" ">
<polygon fill="#999999" stroke="#666666" points="732.5,-129 609.5,-129 609.5,-110 732.5,-110 732.5,-129"/>
<text text-anchor="middle" x="671" y="-117" font-family="Helvetica,sans-Serif" font-size="10.00">src/http/http_builder.h</text>
</a>
</g>
</g>
<!-- Node2 -->
<g id="node2" class="node">
<title>Node2</title>
<g id="a_node2"><a xlink:href="nonstd_8h.html" target="_top" xlink:title=" ">
<polygon fill="white" stroke="#666666" points="327,-74 237,-74 237,-55 327,-55 327,-74"/>
<text text-anchor="middle" x="282" y="-62" font-family="Helvetica,sans-Serif" font-size="10.00">ccf/ds/nonstd.h</text>
</a>
</g>
</g>
<!-- Node1&#45;&gt;Node2 -->
<g id="edge1" class="edge">
<title>Node1&#45;&gt;Node2</title>
<path fill="none" stroke="#63b8ff" d="M609.36,-110.1C534.53,-99.91 409.42,-82.86 337.48,-73.06"/>
<polygon fill="#63b8ff" stroke="#63b8ff" points="337.64,-69.55 327.26,-71.67 336.7,-76.48 337.64,-69.55"/>
</g>
<!-- Node6 -->
<g id="node6" class="node">
<title>Node6</title>
<g id="a_node6"><a xlink:title=" ">
<polygon fill="#e0e0e0" stroke="#999999" points="498,-19 454,-19 454,0 498,0 498,-19"/>
<text text-anchor="middle" x="476" y="-7" font-family="Helvetica,sans-Serif" font-size="10.00">string</text>
</a>
</g>
</g>
<!-- Node1&#45;&gt;Node6 -->
<g id="edge16" class="edge">
<title>Node1&#45;&gt;Node6</title>
<path fill="none" stroke="#63b8ff" d="M670.97,-109.73C670.42,-96.04 667.29,-69.65 652,-55 613.01,-17.66 547.4,-10.36 508.25,-9.63"/>
<polygon fill="#63b8ff" stroke="#63b8ff" points="508.21,-6.13 498.19,-9.57 508.17,-13.13 508.21,-6.13"/>
</g>
<!-- Node9 -->
<g id="node9" class="node">
<title>Node9</title>
<g id="a_node9"><a xlink:title=" ">
<polygon fill="#e0e0e0" stroke="#999999" points="435.5,-19 388.5,-19 388.5,0 435.5,0 435.5,-19"/>
<text text-anchor="middle" x="412" y="-7" font-family="Helvetica,sans-Serif" font-size="10.00">vector</text>
</a>
</g>
</g>
<!-- Node1&#45;&gt;Node9 -->
<g id="edge17" class="edge">
<title>Node1&#45;&gt;Node9</title>
<path fill="none" stroke="#63b8ff" d="M609.21,-117.79C534.68,-115.47 415.88,-106.6 388,-74 376.46,-60.5 386.82,-40.89 397.3,-27.04"/>
<polygon fill="#63b8ff" stroke="#63b8ff" points="400.04,-29.22 403.65,-19.26 394.61,-24.8 400.04,-29.22"/>
</g>
<!-- Node10 -->
<g id="node10" class="node">
<title>Node10</title>
<g id="a_node10"><a xlink:href="http__consts_8h.html" target="_top" xlink:title=" ">
<polygon fill="white" stroke="#666666" points="642.5,-74 543.5,-74 543.5,-55 642.5,-55 642.5,-74"/>
<text text-anchor="middle" x="593" y="-62" font-family="Helvetica,sans-Serif" font-size="10.00">ccf/http_consts.h</text>
</a>
</g>
</g>
<!-- Node1&#45;&gt;Node10 -->
<g id="edge9" class="edge">
<title>Node1&#45;&gt;Node10</title>
<path fill="none" stroke="#63b8ff" d="M658.47,-109.98C646.6,-101.92 628.54,-89.65 614.39,-80.03"/>
<polygon fill="#63b8ff" stroke="#63b8ff" points="616,-76.9 605.76,-74.17 612.06,-82.69 616,-76.9"/>
</g>
<!-- Node11 -->
<g id="node11" class="node">
<title>Node11</title>
<g id="a_node11"><a xlink:href="http__header__map_8h.html" target="_top" xlink:title=" ">
<polygon fill="white" stroke="#666666" points="525,-74 397,-74 397,-55 525,-55 525,-74"/>
<text text-anchor="middle" x="461" y="-62" font-family="Helvetica,sans-Serif" font-size="10.00">ccf/http_header_map.h</text>
</a>
</g>
</g>
<!-- Node1&#45;&gt;Node11 -->
<g id="edge10" class="edge">
<title>Node1&#45;&gt;Node11</title>
<path fill="none" stroke="#63b8ff" d="M637.26,-109.98C601.32,-100.91 544.28,-86.52 504.87,-76.57"/>
<polygon fill="#63b8ff" stroke="#63b8ff" points="505.56,-73.14 495,-74.08 503.84,-79.92 505.56,-73.14"/>
</g>
<!-- Node12 -->
<g id="node12" class="node">
<title>Node12</title>
<g id="a_node12"><a xlink:href="http__status_8h.html" target="_top" xlink:title=" ">
<polygon fill="white" stroke="#666666" points="797,-74 699,-74 699,-55 797,-55 797,-74"/>
<text text-anchor="middle" x="748" y="-62" font-family="Helvetica,sans-Serif" font-size="10.00">ccf/http_status.h</text>
</a>
</g>
</g>
<!-- Node1&#45;&gt;Node12 -->
<g id="edge12" class="edge">
<title>Node1&#45;&gt;Node12</title>
<path fill="none" stroke="#63b8ff" d="M683.37,-109.98C695.09,-101.92 712.92,-89.65 726.89,-80.03"/>
<polygon fill="#63b8ff" stroke="#63b8ff" points="729.15,-82.72 735.4,-74.17 725.18,-76.96 729.15,-82.72"/>
</g>
<!-- Node13 -->
<g id="node13" class="node">
<title>Node13</title>
<g id="a_node13"><a xlink:title=" ">
<polygon fill="#e0e0e0" stroke="#999999" points="894.5,-74 815.5,-74 815.5,-55 894.5,-55 894.5,-74"/>
<text text-anchor="middle" x="855" y="-62" font-family="Helvetica,sans-Serif" font-size="10.00">fmt/format.h</text>
</a>
</g>
</g>
<!-- Node1&#45;&gt;Node13 -->
<g id="edge13" class="edge">
<title>Node1&#45;&gt;Node13</title>
<path fill="none" stroke="#63b8ff" d="M700.56,-109.98C731.72,-101.01 780.97,-86.82 815.46,-76.89"/>
<polygon fill="#63b8ff" stroke="#63b8ff" points="816.57,-80.21 825.21,-74.08 814.63,-73.49 816.57,-80.21"/>
</g>
<!-- Node14 -->
<g id="node14" class="node">
<title>Node14</title>
<g id="a_node14"><a xlink:title=" ">
<polygon fill="#e0e0e0" stroke="#999999" points="993,-74 913,-74 913,-55 993,-55 993,-74"/>
<text text-anchor="middle" x="953" y="-62" font-family="Helvetica,sans-Serif" font-size="10.00">llhttp/llhttp.h</text>
</a>
</g>
</g>
<!-- Node1&#45;&gt;Node14 -->
<g id="edge14" class="edge">
<title>Node1&#45;&gt;Node14</title>
<path fill="none" stroke="#63b8ff" d="M716.31,-109.98C767.36,-100.39 850.09,-84.84 902.99,-74.9"/>
<polygon fill="#63b8ff" stroke="#63b8ff" points="903.65,-78.34 912.83,-73.05 902.35,-71.46 903.65,-78.34"/>
</g>
<!-- Node15 -->
<g id="node15" class="node">
<title>Node15</title>
<g id="a_node15"><a xlink:title=" ">
<polygon fill="#e0e0e0" stroke="#999999" points="1049,-74 1011,-74 1011,-55 1049,-55 1049,-74"/>
<text text-anchor="middle" x="1030" y="-62" font-family="Helvetica,sans-Serif" font-size="10.00">map</text>
</a>
</g>
</g>
<!-- Node1&#45;&gt;Node15 -->
<g id="edge15" class="edge">
<title>Node1&#45;&gt;Node15</title>
<path fill="none" stroke="#63b8ff" d="M732.52,-113.22C797.22,-107 902.06,-95.02 1000.97,-73.9"/>
<polygon fill="#63b8ff" stroke="#63b8ff" points="1001.8,-77.31 1010.83,-71.76 1000.31,-70.47 1001.8,-77.31"/>
</g>
<!-- Node3 -->
<g id="node3" class="node">
<title>Node3</title>
<g id="a_node3"><a xlink:title=" ">
<polygon fill="#e0e0e0" stroke="#999999" points="370,-19 306,-19 306,0 370,0 370,-19"/>
<text text-anchor="middle" x="338" y="-7" font-family="Helvetica,sans-Serif" font-size="10.00">algorithm</text>
</a>
</g>
</g>
<!-- Node2&#45;&gt;Node3 -->
<g id="edge2" class="edge">
<title>Node2&#45;&gt;Node3</title>
<path fill="none" stroke="#63b8ff" d="M291,-54.98C299.19,-47.23 311.51,-35.58 321.47,-26.14"/>
<polygon fill="#63b8ff" stroke="#63b8ff" points="323.98,-28.59 328.84,-19.17 319.17,-23.5 323.98,-28.59"/>
</g>
<!-- Node4 -->
<g id="node4" class="node">
<title>Node4</title>
<g id="a_node4"><a xlink:title=" ">
<polygon fill="#e0e0e0" stroke="#999999" points="42,-19 0,-19 0,0 42,0 42,-19"/>
<text text-anchor="middle" x="21" y="-7" font-family="Helvetica,sans-Serif" font-size="10.00">array</text>
</a>
</g>
</g>
<!-- Node2&#45;&gt;Node4 -->
<g id="edge3" class="edge">
<title>Node2&#45;&gt;Node4</title>
<path fill="none" stroke="#63b8ff" d="M236.61,-55.94C191.95,-48.24 121.65,-35.41 52.06,-19.09"/>
<polygon fill="#63b8ff" stroke="#63b8ff" points="52.78,-15.66 42.25,-16.76 51.17,-22.48 52.78,-15.66"/>
</g>
<!-- Node5 -->
<g id="node5" class="node">
<title>Node5</title>
<g id="a_node5"><a xlink:title=" ">
<polygon fill="#e0e0e0" stroke="#999999" points="109.5,-19 60.5,-19 60.5,0 109.5,0 109.5,-19"/>
<text text-anchor="middle" x="85" y="-7" font-family="Helvetica,sans-Serif" font-size="10.00">cctype</text>
</a>
</g>
</g>
<!-- Node2&#45;&gt;Node5 -->
<g id="edge4" class="edge">
<title>Node2&#45;&gt;Node5</title>
<path fill="none" stroke="#63b8ff" d="M250.35,-54.98C214.56,-45.36 156.47,-29.73 119.54,-19.79"/>
<polygon fill="#63b8ff" stroke="#63b8ff" points="120.28,-16.37 109.71,-17.15 118.46,-23.13 120.28,-16.37"/>
</g>
<!-- Node2&#45;&gt;Node6 -->
<g id="edge5" class="edge">
<title>Node2&#45;&gt;Node6</title>
<path fill="none" stroke="#63b8ff" d="M313.17,-54.98C349.04,-45.18 407.66,-29.17 443.92,-19.26"/>
<polygon fill="#63b8ff" stroke="#63b8ff" points="445.23,-22.53 453.96,-16.52 443.39,-15.78 445.23,-22.53"/>
</g>
<!-- Node7 -->
<g id="node7" class="node">
<title>Node7</title>
<g id="a_node7"><a xlink:title=" ">
<polygon fill="#e0e0e0" stroke="#999999" points="200.5,-19 127.5,-19 127.5,0 200.5,0 200.5,-19"/>
<text text-anchor="middle" x="164" y="-7" font-family="Helvetica,sans-Serif" font-size="10.00">string_view</text>
</a>
</g>
</g>
<!-- Node2&#45;&gt;Node7 -->
<g id="edge6" class="edge">
<title>Node2&#45;&gt;Node7</title>
<path fill="none" stroke="#63b8ff" d="M263.04,-54.98C243.97,-46.42 214.34,-33.11 192.45,-23.28"/>
<polygon fill="#63b8ff" stroke="#63b8ff" points="193.86,-20.07 183.3,-19.17 190.99,-26.46 193.86,-20.07"/>
</g>
<!-- Node8 -->
<g id="node8" class="node">
<title>Node8</title>
<g id="a_node8"><a xlink:title=" ">
<polygon fill="#e0e0e0" stroke="#999999" points="287.5,-19 218.5,-19 218.5,0 287.5,0 287.5,-19"/>
<text text-anchor="middle" x="253" y="-7" font-family="Helvetica,sans-Serif" font-size="10.00">type_traits</text>
</a>
</g>
</g>
<!-- Node2&#45;&gt;Node8 -->
<g id="edge7" class="edge">
<title>Node2&#45;&gt;Node8</title>
<path fill="none" stroke="#63b8ff" d="M277.21,-54.75C273.24,-47.49 267.47,-36.95 262.57,-27.98"/>
<polygon fill="#63b8ff" stroke="#63b8ff" points="265.57,-26.18 257.7,-19.09 259.43,-29.54 265.57,-26.18"/>
</g>
<!-- Node2&#45;&gt;Node9 -->
<g id="edge8" class="edge">
<title>Node2&#45;&gt;Node9</title>
<path fill="none" stroke="#63b8ff" d="M302.89,-54.98C324.08,-46.34 357.13,-32.87 381.3,-23.02"/>
<polygon fill="#63b8ff" stroke="#63b8ff" points="382.79,-26.19 390.73,-19.17 380.15,-19.7 382.79,-26.19"/>
</g>
<!-- Node11&#45;&gt;Node6 -->
<g id="edge11" class="edge">
<title>Node11&#45;&gt;Node6</title>
<path fill="none" stroke="#63b8ff" d="M463.48,-54.75C465.46,-47.72 468.32,-37.62 470.81,-28.84"/>
<polygon fill="#63b8ff" stroke="#63b8ff" points="474.21,-29.66 473.57,-19.09 467.48,-27.76 474.21,-29.66"/>
</g>
</g>
</svg>
