<?xml version="1.0" encoding="UTF-8" standalone="no"?>
<!DOCTYPE svg PUBLIC "-//W3C//DTD SVG 1.1//EN"
 "http://www.w3.org/Graphics/SVG/1.1/DTD/svg11.dtd">
<!-- Generated by graphviz version 2.43.0 (0)
 -->
<!-- Title: include/ccf/crypto/public_key.h Pages: 1 -->
<!--zoomable 368 -->
<svg id="main" version="1.1" xmlns="http://www.w3.org/2000/svg" xmlns:xlink="http://www.w3.org/1999/xlink" xml:space="preserve" onload="init(evt)">
<style type="text/css"><![CDATA[
.edge:hover path { stroke: red; }
.edge:hover polygon { stroke: red; fill: red; }
]]></style>
<script type="text/javascript"><![CDATA[
var edges = document.getElementsByTagName('g');
if (edges && edges.length) {
  for (var i=0;i<edges.length;i++) {
    if (edges[i].id.substr(0,4)=='edge') {
      edges[i].setAttribute('class','edge');
    }
  }
}
]]></script>
        <defs>
                <circle id="rim" cx="0" cy="0" r="7"/>
                <circle id="rim2" cx="0" cy="0" r="3.5"/>
                <g id="zoomPlus">
                        <use xlink:href="#rim" fill="#404040">
                                <set attributeName="fill" to="#808080" begin="zoomplus.mouseover" end="zoomplus.mouseout"/>
                        </use>
                        <path d="M-4,0h8M0,-4v8" fill="none" stroke="white" stroke-width="1.5" pointer-events="none"/>
                </g>
                <g id="zoomMin">
                        <use xlink:href="#rim" fill="#404040">
                                <set attributeName="fill" to="#808080" begin="zoomminus.mouseover" end="zoomminus.mouseout"/>
                        </use>
                        <path d="M-4,0h8" fill="none" stroke="white" stroke-width="1.5" pointer-events="none"/>
                </g>
                <g id="dirArrow">
                        <path fill="none" stroke="white" stroke-width="1.5" d="M0,-3.0v7 M-2.5,-0.5L0,-3.0L2.5,-0.5"/>
                </g>
               <g id="resetDef">
                       <use xlink:href="#rim2" fill="#404040">
                               <set attributeName="fill" to="#808080" begin="reset.mouseover" end="reset.mouseout"/>
                       </use>
               </g>
        </defs>

<script type="text/javascript">
var viewWidth = 1236;
var viewHeight = 368;
var sectionId = 'dynsection-0';
</script>
<script xlink:href="svgpan.js"/>
<svg id="graph" class="graph">
<g id="viewport">
<title>include/ccf/crypto/public_key.h</title>
<!-- Node1 -->
<g id="node1" class="node">
<title>Node1</title>
<g id="a_node1"><a xlink:title=" ">
<polygon fill="#999999" stroke="#666666" points="1022.5,-360 919.5,-360 919.5,-330 1022.5,-330 1022.5,-360"/>
<text text-anchor="start" x="927.5" y="-348" font-family="Helvetica,sans-Serif" font-size="10.00">include/ccf/crypto</text>
<text text-anchor="middle" x="971" y="-337" font-family="Helvetica,sans-Serif" font-size="10.00">/public_key.h</text>
</a>
</g>
</g>
<!-- Node2 -->
<g id="node2" class="node">
<title>Node2</title>
<g id="a_node2"><a xlink:href="curve_8h.html" target="_top" xlink:title=" ">
<polygon fill="white" stroke="#666666" points="540,-294 436,-294 436,-275 540,-275 540,-294"/>
<text text-anchor="middle" x="488" y="-282" font-family="Helvetica,sans-Serif" font-size="10.00">ccf/crypto/curve.h</text>
</a>
</g>
</g>
<!-- Node1&#45;&gt;Node2 -->
<g id="edge1" class="edge">
<title>Node1&#45;&gt;Node2</title>
<path fill="none" stroke="#63b8ff" d="M919.31,-337.74C829.85,-326.9 646.51,-304.7 550.22,-293.04"/>
<polygon fill="#63b8ff" stroke="#63b8ff" points="550.4,-289.53 540.05,-291.8 549.55,-296.48 550.4,-289.53"/>
</g>
<!-- Node6 -->
<g id="node6" class="node">
<title>Node6</title>
<g id="a_node6"><a xlink:title=" ">
<polygon fill="#e0e0e0" stroke="#999999" points="98,-19 54,-19 54,0 98,0 98,-19"/>
<text text-anchor="middle" x="76" y="-7" font-family="Helvetica,sans-Serif" font-size="10.00">string</text>
</a>
</g>
</g>
<!-- Node1&#45;&gt;Node6 -->
<g id="edge43" class="edge">
<title>Node1&#45;&gt;Node6</title>
<path fill="none" stroke="#63b8ff" d="M919.48,-343.45C718.74,-340.61 0,-323.95 0,-230.5 0,-230.5 0,-230.5 0,-118.5 0,-79.47 33.61,-44.58 56.13,-25.6"/>
<polygon fill="#63b8ff" stroke="#63b8ff" points="58.56,-28.14 64.12,-19.12 54.15,-22.7 58.56,-28.14"/>
</g>
<!-- Node7 -->
<g id="node7" class="node">
<title>Node7</title>
<g id="a_node7"><a xlink:title=" ">
<polygon fill="#e0e0e0" stroke="#999999" points="911.5,-19 864.5,-19 864.5,0 911.5,0 911.5,-19"/>
<text text-anchor="middle" x="888" y="-7" font-family="Helvetica,sans-Serif" font-size="10.00">vector</text>
</a>
</g>
</g>
<!-- Node1&#45;&gt;Node7 -->
<g id="edge44" class="edge">
<title>Node1&#45;&gt;Node7</title>
<path fill="none" stroke="#63b8ff" d="M998.04,-329.95C1029.15,-311.62 1076,-276.4 1076,-230.5 1076,-230.5 1076,-230.5 1076,-118.5 1076,-48.28 976.15,-23.05 921.99,-14.53"/>
<polygon fill="#63b8ff" stroke="#63b8ff" points="922.21,-11.02 911.81,-13.04 921.2,-17.95 922.21,-11.02"/>
</g>
<!-- Node20 -->
<g id="node20" class="node">
<title>Node20</title>
<g id="a_node20"><a xlink:href="hash__bytes_8h.html" target="_top" xlink:title=" ">
<polygon fill="white" stroke="#666666" points="1048,-129 916,-129 916,-110 1048,-110 1048,-129"/>
<text text-anchor="middle" x="982" y="-117" font-family="Helvetica,sans-Serif" font-size="10.00">ccf/crypto/hash_bytes.h</text>
</a>
</g>
</g>
<!-- Node1&#45;&gt;Node20 -->
<g id="edge26" class="edge">
<title>Node1&#45;&gt;Node20</title>
<path fill="none" stroke="#63b8ff" d="M973.46,-329.64C978.39,-299.29 988.75,-226.37 986,-165 985.62,-156.47 984.82,-147.04 984.04,-139.07"/>
<polygon fill="#63b8ff" stroke="#63b8ff" points="987.51,-138.6 982.99,-129.02 980.55,-139.32 987.51,-138.6"/>
</g>
<!-- Node21 -->
<g id="node21" class="node">
<title>Node21</title>
<g id="a_node21"><a xlink:href="pem_8h.html" target="_top" xlink:title=" ">
<polygon fill="white" stroke="#666666" points="866,-239 768,-239 768,-220 866,-220 866,-239"/>
<text text-anchor="middle" x="817" y="-227" font-family="Helvetica,sans-Serif" font-size="10.00">ccf/crypto/pem.h</text>
</a>
</g>
</g>
<!-- Node1&#45;&gt;Node21 -->
<g id="edge28" class="edge">
<title>Node1&#45;&gt;Node21</title>
<path fill="none" stroke="#63b8ff" d="M951.81,-329.85C922.58,-308.31 867.16,-267.47 837.29,-245.46"/>
<polygon fill="#63b8ff" stroke="#63b8ff" points="839.03,-242.39 828.9,-239.27 834.87,-248.02 839.03,-242.39"/>
</g>
<!-- Node26 -->
<g id="node26" class="node">
<title>Node26</title>
<g id="a_node26"><a xlink:href="san_8h.html" target="_top" xlink:title=" ">
<polygon fill="white" stroke="#666666" points="284,-239 190,-239 190,-220 284,-220 284,-239"/>
<text text-anchor="middle" x="237" y="-227" font-family="Helvetica,sans-Serif" font-size="10.00">ccf/crypto/san.h</text>
</a>
</g>
</g>
<!-- Node1&#45;&gt;Node26 -->
<g id="edge36" class="edge">
<title>Node1&#45;&gt;Node26</title>
<path fill="none" stroke="#63b8ff" d="M919.41,-343.21C822.1,-340.85 605.21,-331.44 427,-294 368.98,-281.81 303.98,-257.7 267.02,-242.94"/>
<polygon fill="#63b8ff" stroke="#63b8ff" points="267.96,-239.55 257.37,-239.05 265.34,-246.04 267.96,-239.55"/>
</g>
<!-- Node27 -->
<g id="node27" class="node">
<title>Node27</title>
<g id="a_node27"><a xlink:title=" ">
<polygon fill="#e0e0e0" stroke="#999999" points="1154,-294 1104,-294 1104,-275 1154,-275 1154,-294"/>
<text text-anchor="middle" x="1129" y="-282" font-family="Helvetica,sans-Serif" font-size="10.00">cstdint</text>
</a>
</g>
</g>
<!-- Node1&#45;&gt;Node27 -->
<g id="edge41" class="edge">
<title>Node1&#45;&gt;Node27</title>
<path fill="none" stroke="#63b8ff" d="M1008.84,-329.99C1035.44,-320.14 1070.67,-307.1 1096.1,-297.68"/>
<polygon fill="#63b8ff" stroke="#63b8ff" points="1097.5,-300.89 1105.67,-294.14 1095.07,-294.33 1097.5,-300.89"/>
</g>
<!-- Node28 -->
<g id="node28" class="node">
<title>Node28</title>
<g id="a_node28"><a xlink:title=" ">
<polygon fill="#e0e0e0" stroke="#999999" points="1228,-294 1172,-294 1172,-275 1228,-275 1228,-294"/>
<text text-anchor="middle" x="1200" y="-282" font-family="Helvetica,sans-Serif" font-size="10.00">optional</text>
</a>
</g>
</g>
<!-- Node1&#45;&gt;Node28 -->
<g id="edge42" class="edge">
<title>Node1&#45;&gt;Node28</title>
<path fill="none" stroke="#63b8ff" d="M1022.68,-330.8C1064.88,-320.02 1123.58,-305.02 1161.67,-295.29"/>
<polygon fill="#63b8ff" stroke="#63b8ff" points="1163.02,-298.56 1171.84,-292.69 1161.29,-291.78 1163.02,-298.56"/>
</g>
<!-- Node3 -->
<g id="node3" class="node">
<title>Node3</title>
<g id="a_node3"><a xlink:href="md__type_8h.html" target="_top" xlink:title=" ">
<polygon fill="white" stroke="#666666" points="459.5,-239 340.5,-239 340.5,-220 459.5,-220 459.5,-239"/>
<text text-anchor="middle" x="400" y="-227" font-family="Helvetica,sans-Serif" font-size="10.00">ccf/crypto/md_type.h</text>
</a>
</g>
</g>
<!-- Node2&#45;&gt;Node3 -->
<g id="edge2" class="edge">
<title>Node2&#45;&gt;Node3</title>
<path fill="none" stroke="#63b8ff" d="M473.86,-274.98C460.21,-266.77 439.31,-254.18 423.22,-244.49"/>
<polygon fill="#63b8ff" stroke="#63b8ff" points="424.77,-241.33 414.4,-239.17 421.16,-247.33 424.77,-241.33"/>
</g>
<!-- Node4 -->
<g id="node4" class="node">
<title>Node4</title>
<g id="a_node4"><a xlink:href="json_8h.html" target="_top" xlink:title=" ">
<polygon fill="white" stroke="#666666" points="438.5,-184 361.5,-184 361.5,-165 438.5,-165 438.5,-184"/>
<text text-anchor="middle" x="400" y="-172" font-family="Helvetica,sans-Serif" font-size="10.00">ccf/ds/json.h</text>
</a>
</g>
</g>
<!-- Node2&#45;&gt;Node4 -->
<g id="edge22" class="edge">
<title>Node2&#45;&gt;Node4</title>
<path fill="none" stroke="#63b8ff" d="M435.65,-275.45C395.41,-268.08 344.64,-255.75 332,-239 317.07,-219.22 344.45,-200.35 368.8,-188.39"/>
<polygon fill="#63b8ff" stroke="#63b8ff" points="370.29,-191.56 377.88,-184.16 367.34,-185.21 370.29,-191.56"/>
</g>
<!-- Node2&#45;&gt;Node6 -->
<g id="edge25" class="edge">
<title>Node2&#45;&gt;Node6</title>
<path fill="none" stroke="#63b8ff" d="M435.94,-281.92C317.49,-276.93 38,-256.55 38,-175.5 38,-175.5 38,-175.5 38,-118.5 38,-85.02 54.45,-48.84 65.7,-28.01"/>
<polygon fill="#63b8ff" stroke="#63b8ff" points="68.87,-29.53 70.72,-19.1 62.76,-26.1 68.87,-29.53"/>
</g>
<!-- Node15 -->
<g id="node15" class="node">
<title>Node15</title>
<g id="a_node15"><a xlink:title=" ">
<polygon fill="#e0e0e0" stroke="#999999" points="549.5,-74 470.5,-74 470.5,-55 549.5,-55 549.5,-74"/>
<text text-anchor="middle" x="510" y="-62" font-family="Helvetica,sans-Serif" font-size="10.00">fmt/format.h</text>
</a>
</g>
</g>
<!-- Node2&#45;&gt;Node15 -->
<g id="edge23" class="edge">
<title>Node2&#45;&gt;Node15</title>
<path fill="none" stroke="#63b8ff" d="M488.86,-274.95C492.09,-242.95 503.52,-129.68 508.09,-84.4"/>
<polygon fill="#63b8ff" stroke="#63b8ff" points="511.6,-84.52 509.12,-74.22 504.63,-83.82 511.6,-84.52"/>
</g>
<!-- Node18 -->
<g id="node18" class="node">
<title>Node18</title>
<g id="a_node18"><a xlink:href="enum__formatter_8h.html" target="_top" xlink:title=" ">
<polygon fill="white" stroke="#666666" points="652,-129 516,-129 516,-110 652,-110 652,-129"/>
<text text-anchor="middle" x="584" y="-117" font-family="Helvetica,sans-Serif" font-size="10.00">ccf/ds/enum_formatter.h</text>
</a>
</g>
</g>
<!-- Node2&#45;&gt;Node18 -->
<g id="edge20" class="edge">
<title>Node2&#45;&gt;Node18</title>
<path fill="none" stroke="#63b8ff" d="M535.85,-274.99C556.47,-268.7 578.64,-257.8 591,-239 611.02,-208.55 600.04,-163.62 591.34,-138.75"/>
<polygon fill="#63b8ff" stroke="#63b8ff" points="594.52,-137.27 587.73,-129.14 587.97,-139.73 594.52,-137.27"/>
</g>
<!-- Node19 -->
<g id="node19" class="node">
<title>Node19</title>
<g id="a_node19"><a xlink:title=" ">
<polygon fill="#e0e0e0" stroke="#999999" points="581.5,-239 516.5,-239 516.5,-220 581.5,-220 581.5,-239"/>
<text text-anchor="middle" x="549" y="-227" font-family="Helvetica,sans-Serif" font-size="10.00">stdexcept</text>
</a>
</g>
</g>
<!-- Node2&#45;&gt;Node19 -->
<g id="edge24" class="edge">
<title>Node2&#45;&gt;Node19</title>
<path fill="none" stroke="#63b8ff" d="M497.8,-274.98C506.82,-267.15 520.41,-255.34 531.32,-245.86"/>
<polygon fill="#63b8ff" stroke="#63b8ff" points="533.77,-248.37 539.02,-239.17 529.18,-243.09 533.77,-248.37"/>
</g>
<!-- Node3&#45;&gt;Node4 -->
<g id="edge3" class="edge">
<title>Node3&#45;&gt;Node4</title>
<path fill="none" stroke="#63b8ff" d="M400,-219.75C400,-212.8 400,-202.85 400,-194.13"/>
<polygon fill="#63b8ff" stroke="#63b8ff" points="403.5,-194.09 400,-184.09 396.5,-194.09 403.5,-194.09"/>
</g>
<!-- Node5 -->
<g id="node5" class="node">
<title>Node5</title>
<g id="a_node5"><a xlink:href="include_2ccf_2crypto_2base64_8h.html" target="_top" xlink:title=" ">
<polygon fill="white" stroke="#666666" points="216,-74 104,-74 104,-55 216,-55 216,-74"/>
<text text-anchor="middle" x="160" y="-62" font-family="Helvetica,sans-Serif" font-size="10.00">ccf/crypto/base64.h</text>
</a>
</g>
</g>
<!-- Node4&#45;&gt;Node5 -->
<g id="edge4" class="edge">
<title>Node4&#45;&gt;Node5</title>
<path fill="none" stroke="#63b8ff" d="M361.17,-170.35C305.34,-165.07 206.22,-152.59 180,-129 167.52,-117.78 162.77,-98.86 160.99,-84.58"/>
<polygon fill="#63b8ff" stroke="#63b8ff" points="164.45,-84.03 160.1,-74.37 157.48,-84.63 164.45,-84.03"/>
</g>
<!-- Node8 -->
<g id="node8" class="node">
<title>Node8</title>
<g id="a_node8"><a xlink:href="include_2ccf_2ds_2json__schema_8h.html" target="_top" xlink:title=" ">
<polygon fill="white" stroke="#666666" points="309.5,-129 188.5,-129 188.5,-110 309.5,-110 309.5,-129"/>
<text text-anchor="middle" x="249" y="-117" font-family="Helvetica,sans-Serif" font-size="10.00">ccf/ds/json_schema.h</text>
</a>
</g>
</g>
<!-- Node4&#45;&gt;Node8 -->
<g id="edge7" class="edge">
<title>Node4&#45;&gt;Node8</title>
<path fill="none" stroke="#63b8ff" d="M375.74,-164.98C350.68,-156.19 311.37,-142.39 283.17,-132.49"/>
<polygon fill="#63b8ff" stroke="#63b8ff" points="284.3,-129.18 273.7,-129.17 281.98,-135.78 284.3,-129.18"/>
</g>
<!-- Node4&#45;&gt;Node15 -->
<g id="edge18" class="edge">
<title>Node4&#45;&gt;Node15</title>
<path fill="none" stroke="#63b8ff" d="M409,-164.66C427.63,-146.38 470.6,-104.18 494.04,-81.17"/>
<polygon fill="#63b8ff" stroke="#63b8ff" points="496.5,-83.66 501.18,-74.16 491.59,-78.67 496.5,-83.66"/>
</g>
<!-- Node17 -->
<g id="node17" class="node">
<title>Node17</title>
<g id="a_node17"><a xlink:title=" ">
<polygon fill="#e0e0e0" stroke="#999999" points="422,-129 366,-129 366,-110 422,-110 422,-129"/>
<text text-anchor="middle" x="394" y="-117" font-family="Helvetica,sans-Serif" font-size="10.00">sstream</text>
</a>
</g>
</g>
<!-- Node4&#45;&gt;Node17 -->
<g id="edge19" class="edge">
<title>Node4&#45;&gt;Node17</title>
<path fill="none" stroke="#63b8ff" d="M399.01,-164.75C398.22,-157.8 397.1,-147.85 396.11,-139.13"/>
<polygon fill="#63b8ff" stroke="#63b8ff" points="399.58,-138.63 394.97,-129.09 392.62,-139.42 399.58,-138.63"/>
</g>
<!-- Node5&#45;&gt;Node6 -->
<g id="edge5" class="edge">
<title>Node5&#45;&gt;Node6</title>
<path fill="none" stroke="#63b8ff" d="M146.5,-54.98C133.6,-46.84 113.9,-34.41 98.6,-24.76"/>
<polygon fill="#63b8ff" stroke="#63b8ff" points="100.07,-21.55 89.74,-19.17 96.33,-27.47 100.07,-21.55"/>
</g>
<!-- Node5&#45;&gt;Node7 -->
<g id="edge6" class="edge">
<title>Node5&#45;&gt;Node7</title>
<path fill="none" stroke="#63b8ff" d="M216.35,-55.91C219.27,-55.59 222.17,-55.28 225,-55 465.68,-31.21 756.79,-16.54 854.33,-12.01"/>
<polygon fill="#63b8ff" stroke="#63b8ff" points="854.64,-15.5 864.47,-11.54 854.32,-8.51 854.64,-15.5"/>
</g>
<!-- Node9 -->
<g id="node9" class="node">
<title>Node9</title>
<g id="a_node9"><a xlink:href="nonstd_8h.html" target="_top" xlink:title=" ">
<polygon fill="white" stroke="#666666" points="324,-74 234,-74 234,-55 324,-55 324,-74"/>
<text text-anchor="middle" x="279" y="-62" font-family="Helvetica,sans-Serif" font-size="10.00">ccf/ds/nonstd.h</text>
</a>
</g>
</g>
<!-- Node8&#45;&gt;Node9 -->
<g id="edge8" class="edge">
<title>Node8&#45;&gt;Node9</title>
<path fill="none" stroke="#63b8ff" d="M253.95,-109.75C258.06,-102.49 264.03,-91.95 269.1,-82.98"/>
<polygon fill="#63b8ff" stroke="#63b8ff" points="272.26,-84.52 274.14,-74.09 266.17,-81.07 272.26,-84.52"/>
</g>
<!-- Node8&#45;&gt;Node15 -->
<g id="edge16" class="edge">
<title>Node8&#45;&gt;Node15</title>
<path fill="none" stroke="#63b8ff" d="M290.93,-109.98C337.08,-100.61 411.19,-85.56 460.24,-75.6"/>
<polygon fill="#63b8ff" stroke="#63b8ff" points="461.21,-78.98 470.31,-73.56 459.81,-72.12 461.21,-78.98"/>
</g>
<!-- Node16 -->
<g id="node16" class="node">
<title>Node16</title>
<g id="a_node16"><a xlink:title=" ">
<polygon fill="#e0e0e0" stroke="#999999" points="452,-74 342,-74 342,-55 452,-55 452,-74"/>
<text text-anchor="middle" x="397" y="-62" font-family="Helvetica,sans-Serif" font-size="10.00">nlohmann/json.hpp</text>
</a>
</g>
</g>
<!-- Node8&#45;&gt;Node16 -->
<g id="edge17" class="edge">
<title>Node8&#45;&gt;Node16</title>
<path fill="none" stroke="#63b8ff" d="M272.78,-109.98C297.23,-101.23 335.53,-87.51 363.15,-77.62"/>
<polygon fill="#63b8ff" stroke="#63b8ff" points="364.55,-80.84 372.79,-74.17 362.19,-74.25 364.55,-80.84"/>
</g>
<!-- Node9&#45;&gt;Node6 -->
<g id="edge12" class="edge">
<title>Node9&#45;&gt;Node6</title>
<path fill="none" stroke="#63b8ff" d="M246.38,-54.98C208.38,-45.06 145.97,-28.77 108.16,-18.9"/>
<polygon fill="#63b8ff" stroke="#63b8ff" points="108.75,-15.43 98.19,-16.29 106.98,-22.21 108.75,-15.43"/>
</g>
<!-- Node9&#45;&gt;Node7 -->
<g id="edge15" class="edge">
<title>Node9&#45;&gt;Node7</title>
<path fill="none" stroke="#63b8ff" d="M324.05,-56.15C327.07,-55.73 330.08,-55.35 333,-55 529.96,-31.64 767.74,-17.14 854.37,-12.3"/>
<polygon fill="#63b8ff" stroke="#63b8ff" points="854.61,-15.79 864.4,-11.75 854.23,-8.8 854.61,-15.79"/>
</g>
<!-- Node10 -->
<g id="node10" class="node">
<title>Node10</title>
<g id="a_node10"><a xlink:title=" ">
<polygon fill="#e0e0e0" stroke="#999999" points="434,-19 370,-19 370,0 434,0 434,-19"/>
<text text-anchor="middle" x="402" y="-7" font-family="Helvetica,sans-Serif" font-size="10.00">algorithm</text>
</a>
</g>
</g>
<!-- Node9&#45;&gt;Node10 -->
<g id="edge9" class="edge">
<title>Node9&#45;&gt;Node10</title>
<path fill="none" stroke="#63b8ff" d="M298.76,-54.98C318.73,-46.38 349.8,-32.99 372.65,-23.15"/>
<polygon fill="#63b8ff" stroke="#63b8ff" points="374.08,-26.34 381.88,-19.17 371.31,-19.91 374.08,-26.34"/>
</g>
<!-- Node11 -->
<g id="node11" class="node">
<title>Node11</title>
<g id="a_node11"><a xlink:title=" ">
<polygon fill="#e0e0e0" stroke="#999999" points="197,-19 155,-19 155,0 197,0 197,-19"/>
<text text-anchor="middle" x="176" y="-7" font-family="Helvetica,sans-Serif" font-size="10.00">array</text>
</a>
</g>
</g>
<!-- Node9&#45;&gt;Node11 -->
<g id="edge10" class="edge">
<title>Node9&#45;&gt;Node11</title>
<path fill="none" stroke="#63b8ff" d="M262.45,-54.98C246.11,-46.57 220.87,-33.59 201.87,-23.81"/>
<polygon fill="#63b8ff" stroke="#63b8ff" points="203.34,-20.63 192.85,-19.17 200.14,-26.86 203.34,-20.63"/>
</g>
<!-- Node12 -->
<g id="node12" class="node">
<title>Node12</title>
<g id="a_node12"><a xlink:title=" ">
<polygon fill="#e0e0e0" stroke="#999999" points="264.5,-19 215.5,-19 215.5,0 264.5,0 264.5,-19"/>
<text text-anchor="middle" x="240" y="-7" font-family="Helvetica,sans-Serif" font-size="10.00">cctype</text>
</a>
</g>
</g>
<!-- Node9&#45;&gt;Node12 -->
<g id="edge11" class="edge">
<title>Node9&#45;&gt;Node12</title>
<path fill="none" stroke="#63b8ff" d="M272.56,-54.75C267.11,-47.34 259.14,-36.5 252.44,-27.41"/>
<polygon fill="#63b8ff" stroke="#63b8ff" points="255.07,-25.07 246.32,-19.09 249.43,-29.22 255.07,-25.07"/>
</g>
<!-- Node13 -->
<g id="node13" class="node">
<title>Node13</title>
<g id="a_node13"><a xlink:title=" ">
<polygon fill="#e0e0e0" stroke="#999999" points="602.5,-19 529.5,-19 529.5,0 602.5,0 602.5,-19"/>
<text text-anchor="middle" x="566" y="-7" font-family="Helvetica,sans-Serif" font-size="10.00">string_view</text>
</a>
</g>
</g>
<!-- Node9&#45;&gt;Node13 -->
<g id="edge13" class="edge">
<title>Node9&#45;&gt;Node13</title>
<path fill="none" stroke="#63b8ff" d="M324.16,-55.16C377.4,-45.33 465.44,-29.07 519.33,-19.12"/>
<polygon fill="#63b8ff" stroke="#63b8ff" points="520.1,-22.54 529.3,-17.28 518.83,-15.65 520.1,-22.54"/>
</g>
<!-- Node14 -->
<g id="node14" class="node">
<title>Node14</title>
<g id="a_node14"><a xlink:title=" ">
<polygon fill="#e0e0e0" stroke="#999999" points="351.5,-19 282.5,-19 282.5,0 351.5,0 351.5,-19"/>
<text text-anchor="middle" x="317" y="-7" font-family="Helvetica,sans-Serif" font-size="10.00">type_traits</text>
</a>
</g>
</g>
<!-- Node9&#45;&gt;Node14 -->
<g id="edge14" class="edge">
<title>Node9&#45;&gt;Node14</title>
<path fill="none" stroke="#63b8ff" d="M285.27,-54.75C290.59,-47.34 298.36,-36.5 304.88,-27.41"/>
<polygon fill="#63b8ff" stroke="#63b8ff" points="307.86,-29.26 310.84,-19.09 302.17,-25.18 307.86,-29.26"/>
</g>
<!-- Node18&#45;&gt;Node15 -->
<g id="edge21" class="edge">
<title>Node18&#45;&gt;Node15</title>
<path fill="none" stroke="#63b8ff" d="M572.11,-109.98C560.85,-101.92 543.71,-89.65 530.29,-80.03"/>
<polygon fill="#63b8ff" stroke="#63b8ff" points="532.27,-77.15 522.11,-74.17 528.2,-82.84 532.27,-77.15"/>
</g>
<!-- Node20&#45;&gt;Node7 -->
<g id="edge27" class="edge">
<title>Node20&#45;&gt;Node7</title>
<path fill="none" stroke="#63b8ff" d="M974.31,-109.66C958.53,-91.54 922.3,-49.91 902.16,-26.77"/>
<polygon fill="#63b8ff" stroke="#63b8ff" points="904.74,-24.4 895.54,-19.16 899.46,-29 904.74,-24.4"/>
</g>
<!-- Node21&#45;&gt;Node4 -->
<g id="edge29" class="edge">
<title>Node21&#45;&gt;Node4</title>
<path fill="none" stroke="#63b8ff" d="M767.94,-222.26C687.68,-212.06 529.26,-191.93 449.03,-181.73"/>
<polygon fill="#63b8ff" stroke="#63b8ff" points="449.07,-178.21 438.71,-180.42 448.19,-185.15 449.07,-178.21"/>
</g>
<!-- Node21&#45;&gt;Node7 -->
<g id="edge35" class="edge">
<title>Node21&#45;&gt;Node7</title>
<path fill="none" stroke="#63b8ff" d="M866.23,-226.27C896.57,-222.04 933.31,-211.15 953,-184 976.25,-151.93 910.49,-134.91 907,-129 888.54,-97.7 886.41,-54.06 886.93,-29.41"/>
<polygon fill="#63b8ff" stroke="#63b8ff" points="890.44,-29.38 887.33,-19.25 883.44,-29.11 890.44,-29.38"/>
</g>
<!-- Node21&#45;&gt;Node13 -->
<g id="edge34" class="edge">
<title>Node21&#45;&gt;Node13</title>
<path fill="none" stroke="#63b8ff" d="M768,-227.63C734.19,-224.22 691.13,-213.74 667,-184 646.21,-158.38 674.5,-140.11 661,-110 644.78,-73.83 609.66,-42.74 586.97,-25.34"/>
<polygon fill="#63b8ff" stroke="#63b8ff" points="588.77,-22.32 578.66,-19.16 584.59,-27.94 588.77,-22.32"/>
</g>
<!-- Node22 -->
<g id="node22" class="node">
<title>Node22</title>
<g id="a_node22"><a xlink:title=" ">
<polygon fill="#e0e0e0" stroke="#999999" points="726,-184 676,-184 676,-165 726,-165 726,-184"/>
<text text-anchor="middle" x="701" y="-172" font-family="Helvetica,sans-Serif" font-size="10.00">cstring</text>
</a>
</g>
</g>
<!-- Node21&#45;&gt;Node22 -->
<g id="edge30" class="edge">
<title>Node21&#45;&gt;Node22</title>
<path fill="none" stroke="#63b8ff" d="M798.36,-219.98C779.7,-211.46 750.75,-198.23 729.26,-188.41"/>
<polygon fill="#63b8ff" stroke="#63b8ff" points="730.53,-185.14 719.98,-184.17 727.62,-191.51 730.53,-185.14"/>
</g>
<!-- Node23 -->
<g id="node23" class="node">
<title>Node23</title>
<g id="a_node23"><a xlink:title=" ">
<polygon fill="#e0e0e0" stroke="#999999" points="809.5,-184 744.5,-184 744.5,-165 809.5,-165 809.5,-184"/>
<text text-anchor="middle" x="777" y="-172" font-family="Helvetica,sans-Serif" font-size="10.00">exception</text>
</a>
</g>
</g>
<!-- Node21&#45;&gt;Node23 -->
<g id="edge31" class="edge">
<title>Node21&#45;&gt;Node23</title>
<path fill="none" stroke="#63b8ff" d="M810.39,-219.75C804.74,-212.26 796.46,-201.28 789.55,-192.13"/>
<polygon fill="#63b8ff" stroke="#63b8ff" points="792.3,-189.96 783.48,-184.09 786.71,-194.18 792.3,-189.96"/>
</g>
<!-- Node24 -->
<g id="node24" class="node">
<title>Node24</title>
<g id="a_node24"><a xlink:title=" ">
<polygon fill="#e0e0e0" stroke="#999999" points="886,-184 828,-184 828,-165 886,-165 886,-184"/>
<text text-anchor="middle" x="857" y="-172" font-family="Helvetica,sans-Serif" font-size="10.00">memory</text>
</a>
</g>
</g>
<!-- Node21&#45;&gt;Node24 -->
<g id="edge32" class="edge">
<title>Node21&#45;&gt;Node24</title>
<path fill="none" stroke="#63b8ff" d="M823.61,-219.75C829.26,-212.26 837.54,-201.28 844.45,-192.13"/>
<polygon fill="#63b8ff" stroke="#63b8ff" points="847.29,-194.18 850.52,-184.09 841.7,-189.96 847.29,-194.18"/>
</g>
<!-- Node25 -->
<g id="node25" class="node">
<title>Node25</title>
<g id="a_node25"><a xlink:title=" ">
<polygon fill="#e0e0e0" stroke="#999999" points="944,-184 904,-184 904,-165 944,-165 944,-184"/>
<text text-anchor="middle" x="924" y="-172" font-family="Helvetica,sans-Serif" font-size="10.00">span</text>
</a>
</g>
</g>
<!-- Node21&#45;&gt;Node25 -->
<g id="edge33" class="edge">
<title>Node21&#45;&gt;Node25</title>
<path fill="none" stroke="#63b8ff" d="M834.19,-219.98C851.25,-211.54 877.63,-198.47 897.4,-188.68"/>
<polygon fill="#63b8ff" stroke="#63b8ff" points="899.09,-191.75 906.5,-184.17 895.98,-185.47 899.09,-191.75"/>
</g>
<!-- Node26&#45;&gt;Node4 -->
<g id="edge37" class="edge">
<title>Node26&#45;&gt;Node4</title>
<path fill="none" stroke="#63b8ff" d="M263.19,-219.98C290.44,-211.13 333.3,-197.19 363.78,-187.28"/>
<polygon fill="#63b8ff" stroke="#63b8ff" points="365.18,-190.5 373.61,-184.08 363.01,-183.85 365.18,-190.5"/>
</g>
<!-- Node26&#45;&gt;Node6 -->
<g id="edge40" class="edge">
<title>Node26&#45;&gt;Node6</title>
<path fill="none" stroke="#63b8ff" d="M223.5,-219.91C210.97,-211.58 192.15,-198.15 178,-184 134.69,-140.7 122.66,-128.64 95,-74 87.77,-59.71 82.78,-42.18 79.74,-29.16"/>
<polygon fill="#63b8ff" stroke="#63b8ff" points="83.09,-28.11 77.56,-19.08 76.25,-29.59 83.09,-28.11"/>
</g>
<!-- Node26&#45;&gt;Node9 -->
<g id="edge38" class="edge">
<title>Node26&#45;&gt;Node9</title>
<path fill="none" stroke="#63b8ff" d="M226.79,-219.78C204.43,-199.61 155.08,-148.53 180,-110 190.19,-94.25 207.43,-84.02 224.69,-77.4"/>
<polygon fill="#63b8ff" stroke="#63b8ff" points="225.94,-80.67 234.24,-74.08 223.64,-74.05 225.94,-80.67"/>
</g>
<!-- Node26&#45;&gt;Node15 -->
<g id="edge39" class="edge">
<title>Node26&#45;&gt;Node15</title>
<path fill="none" stroke="#63b8ff" d="M243.23,-219.88C259.43,-198.1 305.24,-140.4 357,-110 375.01,-99.42 425.01,-85.84 462.99,-76.48"/>
<polygon fill="#63b8ff" stroke="#63b8ff" points="463.97,-79.84 472.85,-74.07 462.31,-73.04 463.97,-79.84"/>
</g>
</g>
</svg>
        <g id="navigator" transform="translate(0 0)" fill="#404254">
                <rect fill="#f2f5e9" fill-opacity="0.5" stroke="#606060" stroke-width=".5" x="0" y="0" width="60" height="60"/>
                <use id="zoomplus" xlink:href="#zoomPlus" x="17" y="9" onmousedown="handleZoom(evt,'in')"/>
                <use id="zoomminus" xlink:href="#zoomMin" x="42" y="9" onmousedown="handleZoom(evt,'out')"/>
                <use id="reset" xlink:href="#resetDef" x="30" y="36" onmousedown="handleReset()"/>
                <g id="arrowUp" xlink:href="#dirArrow" transform="translate(30 24)" onmousedown="handlePan(0,-1)">
                  <use xlink:href="#rim" fill="#404040">
                        <set attributeName="fill" to="#808080" begin="arrowUp.mouseover" end="arrowUp.mouseout"/>
                  </use>
                  <path fill="none" stroke="white" stroke-width="1.5" d="M0,-3.0v7 M-2.5,-0.5L0,-3.0L2.5,-0.5"/>
                </g>
                <g id="arrowRight" xlink:href="#dirArrow" transform="rotate(90) translate(36 -43)" onmousedown="handlePan(1,0)">
                  <use xlink:href="#rim" fill="#404040">
                        <set attributeName="fill" to="#808080" begin="arrowRight.mouseover" end="arrowRight.mouseout"/>
                  </use>
                  <path fill="none" stroke="white" stroke-width="1.5" d="M0,-3.0v7 M-2.5,-0.5L0,-3.0L2.5,-0.5"/>
                </g>
                <g id="arrowDown" xlink:href="#dirArrow" transform="rotate(180) translate(-30 -48)" onmousedown="handlePan(0,1)">
                  <use xlink:href="#rim" fill="#404040">
                        <set attributeName="fill" to="#808080" begin="arrowDown.mouseover" end="arrowDown.mouseout"/>
                  </use>
                  <path fill="none" stroke="white" stroke-width="1.5" d="M0,-3.0v7 M-2.5,-0.5L0,-3.0L2.5,-0.5"/>
                </g>
                <g id="arrowLeft" xlink:href="#dirArrow" transform="rotate(270) translate(-36 17)" onmousedown="handlePan(-1,0)">
                  <use xlink:href="#rim" fill="#404040">
                        <set attributeName="fill" to="#808080" begin="arrowLeft.mouseover" end="arrowLeft.mouseout"/>
                  </use>
                  <path fill="none" stroke="white" stroke-width="1.5" d="M0,-3.0v7 M-2.5,-0.5L0,-3.0L2.5,-0.5"/>
                </g>
        </g>
        <svg viewBox="0 0 15 15" width="100%" height="30px" preserveAspectRatio="xMaxYMin meet">
         <g id="arrow_out" transform="scale(0.3 0.3)">
          <a xlink:href="include_2ccf_2crypto_2public__key_8h__incl_org.svg" target="_base">
           <rect id="button" ry="5" rx="5" y="6" x="6" height="38" width="38"
                fill="#f2f5e9" fill-opacity="0.5" stroke="#606060" stroke-width="1.0"/>
           <path id="arrow"
             d="M 11.500037,31.436501 C 11.940474,20.09759 22.043105,11.32322 32.158766,21.979434 L 37.068811,17.246167 C 37.068811,17.246167 37.088388,32 37.088388,32 L 22.160133,31.978069 C 22.160133,31.978069 26.997745,27.140456 26.997745,27.140456 C 18.528582,18.264221 13.291696,25.230495 11.500037,31.436501 z"
             style="fill:#404040;"/>
          </a>
         </g>
        </svg>
</svg>
