<?xml version="1.0" encoding="UTF-8" standalone="no"?>
<!DOCTYPE svg PUBLIC "-//W3C//DTD SVG 1.1//EN"
 "http://www.w3.org/Graphics/SVG/1.1/DTD/svg11.dtd">
<!-- Generated by graphviz version 2.43.0 (0)
 -->
<!-- Title: include/ccf/crypto/verifier.h Pages: 1 -->
<svg width="1072pt" height="478pt"
 viewBox="0.00 0.00 1072.00 478.00" xmlns="http://www.w3.org/2000/svg" xmlns:xlink="http://www.w3.org/1999/xlink">
<g id="graph0" class="graph" transform="scale(1 1) rotate(0) translate(4 474)">
<title>include/ccf/crypto/verifier.h</title>
<!-- Node1 -->
<g id="node1" class="node">
<title>Node1</title>
<g id="a_node1"><a xlink:title=" ">
<polygon fill="#999999" stroke="#666666" points="722.5,-470 619.5,-470 619.5,-440 722.5,-440 722.5,-470"/>
<text text-anchor="start" x="627.5" y="-458" font-family="Helvetica,sans-Serif" font-size="10.00">include/ccf/crypto</text>
<text text-anchor="middle" x="671" y="-447" font-family="Helvetica,sans-Serif" font-size="10.00">/verifier.h</text>
</a>
</g>
</g>
<!-- Node2 -->
<g id="node2" class="node">
<title>Node2</title>
<g id="a_node2"><a xlink:href="include_2ccf_2crypto_2key__pair_8h.html" target="_top" xlink:title=" ">
<polygon fill="white" stroke="#666666" points="642.5,-404 525.5,-404 525.5,-385 642.5,-385 642.5,-404"/>
<text text-anchor="middle" x="584" y="-392" font-family="Helvetica,sans-Serif" font-size="10.00">ccf/crypto/key_pair.h</text>
</a>
</g>
</g>
<!-- Node1&#45;&gt;Node2 -->
<g id="edge1" class="edge">
<title>Node1&#45;&gt;Node2</title>
<path fill="none" stroke="#63b8ff" d="M649.94,-439.84C636.46,-430.77 619.01,-419.04 605.45,-409.92"/>
<polygon fill="#63b8ff" stroke="#63b8ff" points="607.03,-406.77 596.78,-404.09 603.13,-412.58 607.03,-406.77"/>
</g>
<!-- Node21 -->
<g id="node21" class="node">
<title>Node21</title>
<g id="a_node21"><a xlink:href="pem_8h.html" target="_top" xlink:title=" ">
<polygon fill="white" stroke="#666666" points="870,-294 772,-294 772,-275 870,-275 870,-294"/>
<text text-anchor="middle" x="821" y="-282" font-family="Helvetica,sans-Serif" font-size="10.00">ccf/crypto/pem.h</text>
</a>
</g>
</g>
<!-- Node1&#45;&gt;Node21 -->
<g id="edge54" class="edge">
<title>Node1&#45;&gt;Node21</title>
<path fill="none" stroke="#63b8ff" d="M683.53,-439.92C711.07,-408.99 776.73,-335.23 806.22,-302.1"/>
<polygon fill="#63b8ff" stroke="#63b8ff" points="809.17,-304.05 813.21,-294.25 803.94,-299.4 809.17,-304.05"/>
</g>
<!-- Node26 -->
<g id="node26" class="node">
<title>Node26</title>
<g id="a_node26"><a xlink:href="include_2ccf_2crypto_2public__key_8h.html" target="_top" xlink:title=" ">
<polygon fill="white" stroke="#666666" points="690.5,-349 563.5,-349 563.5,-330 690.5,-330 690.5,-349"/>
<text text-anchor="middle" x="627" y="-337" font-family="Helvetica,sans-Serif" font-size="10.00">ccf/crypto/public_key.h</text>
</a>
</g>
</g>
<!-- Node1&#45;&gt;Node26 -->
<g id="edge55" class="edge">
<title>Node1&#45;&gt;Node26</title>
<path fill="none" stroke="#63b8ff" d="M668.18,-439.92C665.09,-425.74 659.56,-403.39 652,-385 648.17,-375.68 642.8,-365.85 638.03,-357.82"/>
<polygon fill="#63b8ff" stroke="#63b8ff" points="640.85,-355.73 632.63,-349.05 634.89,-359.4 640.85,-355.73"/>
</g>
<!-- Node3 -->
<g id="node3" class="node">
<title>Node3</title>
<g id="a_node3"><a xlink:href="curve_8h.html" target="_top" xlink:title=" ">
<polygon fill="white" stroke="#666666" points="497,-294 393,-294 393,-275 497,-275 497,-294"/>
<text text-anchor="middle" x="445" y="-282" font-family="Helvetica,sans-Serif" font-size="10.00">ccf/crypto/curve.h</text>
</a>
</g>
</g>
<!-- Node2&#45;&gt;Node3 -->
<g id="edge2" class="edge">
<title>Node2&#45;&gt;Node3</title>
<path fill="none" stroke="#63b8ff" d="M572.63,-384.66C548.89,-366.22 493.84,-323.45 464.4,-300.57"/>
<polygon fill="#63b8ff" stroke="#63b8ff" points="466.19,-297.53 456.14,-294.16 461.89,-303.06 466.19,-297.53"/>
</g>
<!-- Node7 -->
<g id="node7" class="node">
<title>Node7</title>
<g id="a_node7"><a xlink:title=" ">
<polygon fill="#e0e0e0" stroke="#999999" points="91,-19 47,-19 47,0 91,0 91,-19"/>
<text text-anchor="middle" x="69" y="-7" font-family="Helvetica,sans-Serif" font-size="10.00">string</text>
</a>
</g>
</g>
<!-- Node2&#45;&gt;Node7 -->
<g id="edge52" class="edge">
<title>Node2&#45;&gt;Node7</title>
<path fill="none" stroke="#63b8ff" d="M525.33,-388.78C377.24,-376.08 0,-338.54 0,-285.5 0,-285.5 0,-285.5 0,-118.5 0,-80.59 30.56,-45.3 51.01,-25.94"/>
<polygon fill="#63b8ff" stroke="#63b8ff" points="53.48,-28.42 58.52,-19.1 48.77,-23.24 53.48,-28.42"/>
</g>
<!-- Node8 -->
<g id="node8" class="node">
<title>Node8</title>
<g id="a_node8"><a xlink:title=" ">
<polygon fill="#e0e0e0" stroke="#999999" points="736.5,-19 689.5,-19 689.5,0 736.5,0 736.5,-19"/>
<text text-anchor="middle" x="713" y="-7" font-family="Helvetica,sans-Serif" font-size="10.00">vector</text>
</a>
</g>
</g>
<!-- Node2&#45;&gt;Node8 -->
<g id="edge53" class="edge">
<title>Node2&#45;&gt;Node8</title>
<path fill="none" stroke="#63b8ff" d="M642.86,-392.52C771.03,-388.79 1064,-370.92 1064,-285.5 1064,-285.5 1064,-285.5 1064,-118.5 1064,-52.49 834.33,-22.6 746.55,-13.59"/>
<polygon fill="#63b8ff" stroke="#63b8ff" points="746.87,-10.11 736.58,-12.6 746.18,-17.07 746.87,-10.11"/>
</g>
<!-- Node2&#45;&gt;Node21 -->
<g id="edge27" class="edge">
<title>Node2&#45;&gt;Node21</title>
<path fill="none" stroke="#63b8ff" d="M617.02,-385C644.89,-377.27 685.47,-364.69 719,-349 748.98,-334.97 780.99,-313.93 800.99,-299.97"/>
<polygon fill="#63b8ff" stroke="#63b8ff" points="803.14,-302.73 809.28,-294.1 799.1,-297.02 803.14,-302.73"/>
</g>
<!-- Node2&#45;&gt;Node26 -->
<g id="edge35" class="edge">
<title>Node2&#45;&gt;Node26</title>
<path fill="none" stroke="#63b8ff" d="M591.1,-384.75C597.17,-377.26 606.09,-366.28 613.51,-357.13"/>
<polygon fill="#63b8ff" stroke="#63b8ff" points="616.45,-359.06 620.03,-349.09 611.01,-354.65 616.45,-359.06"/>
</g>
<!-- Node28 -->
<g id="node28" class="node">
<title>Node28</title>
<g id="a_node28"><a xlink:href="san_8h.html" target="_top" xlink:title=" ">
<polygon fill="white" stroke="#666666" points="160,-239 66,-239 66,-220 160,-220 160,-239"/>
<text text-anchor="middle" x="113" y="-227" font-family="Helvetica,sans-Serif" font-size="10.00">ccf/crypto/san.h</text>
</a>
</g>
</g>
<!-- Node2&#45;&gt;Node28 -->
<g id="edge49" class="edge">
<title>Node2&#45;&gt;Node28</title>
<path fill="none" stroke="#63b8ff" d="M559.34,-384.97C480.98,-357.85 237.54,-273.6 147.2,-242.33"/>
<polygon fill="#63b8ff" stroke="#63b8ff" points="148.29,-239.01 137.7,-239.05 146,-245.63 148.29,-239.01"/>
</g>
<!-- Node29 -->
<g id="node29" class="node">
<title>Node29</title>
<g id="a_node29"><a xlink:title=" ">
<polygon fill="#e0e0e0" stroke="#999999" points="585,-294 535,-294 535,-275 585,-275 585,-294"/>
<text text-anchor="middle" x="560" y="-282" font-family="Helvetica,sans-Serif" font-size="10.00">cstdint</text>
</a>
</g>
</g>
<!-- Node2&#45;&gt;Node29 -->
<g id="edge50" class="edge">
<title>Node2&#45;&gt;Node29</title>
<path fill="none" stroke="#63b8ff" d="M576.06,-384.75C568.97,-376.3 559.1,-362.79 555,-349 550.66,-334.41 552.44,-317.14 555,-304.3"/>
<polygon fill="#63b8ff" stroke="#63b8ff" points="558.47,-304.87 557.33,-294.34 551.65,-303.28 558.47,-304.87"/>
</g>
<!-- Node30 -->
<g id="node30" class="node">
<title>Node30</title>
<g id="a_node30"><a xlink:title=" ">
<polygon fill="#e0e0e0" stroke="#999999" points="748,-294 692,-294 692,-275 748,-275 748,-294"/>
<text text-anchor="middle" x="720" y="-282" font-family="Helvetica,sans-Serif" font-size="10.00">optional</text>
</a>
</g>
</g>
<!-- Node2&#45;&gt;Node30 -->
<g id="edge51" class="edge">
<title>Node2&#45;&gt;Node30</title>
<path fill="none" stroke="#63b8ff" d="M633,-384.97C656.11,-378.63 682.41,-367.7 700,-349 711.5,-336.78 716.39,-317.99 718.46,-304.02"/>
<polygon fill="#63b8ff" stroke="#63b8ff" points="721.94,-304.4 719.6,-294.07 714.99,-303.61 721.94,-304.4"/>
</g>
<!-- Node4 -->
<g id="node4" class="node">
<title>Node4</title>
<g id="a_node4"><a xlink:href="md__type_8h.html" target="_top" xlink:title=" ">
<polygon fill="white" stroke="#666666" points="335.5,-239 216.5,-239 216.5,-220 335.5,-220 335.5,-239"/>
<text text-anchor="middle" x="276" y="-227" font-family="Helvetica,sans-Serif" font-size="10.00">ccf/crypto/md_type.h</text>
</a>
</g>
</g>
<!-- Node3&#45;&gt;Node4 -->
<g id="edge3" class="edge">
<title>Node3&#45;&gt;Node4</title>
<path fill="none" stroke="#63b8ff" d="M417.85,-274.98C389.47,-266.09 344.77,-252.07 313.14,-242.15"/>
<polygon fill="#63b8ff" stroke="#63b8ff" points="313.95,-238.73 303.37,-239.08 311.86,-245.41 313.95,-238.73"/>
</g>
<!-- Node5 -->
<g id="node5" class="node">
<title>Node5</title>
<g id="a_node5"><a xlink:href="json_8h.html" target="_top" xlink:title=" ">
<polygon fill="white" stroke="#666666" points="431.5,-184 354.5,-184 354.5,-165 431.5,-165 431.5,-184"/>
<text text-anchor="middle" x="393" y="-172" font-family="Helvetica,sans-Serif" font-size="10.00">ccf/ds/json.h</text>
</a>
</g>
</g>
<!-- Node3&#45;&gt;Node5 -->
<g id="edge23" class="edge">
<title>Node3&#45;&gt;Node5</title>
<path fill="none" stroke="#63b8ff" d="M424.8,-274.91C410.53,-267.64 392.49,-255.71 384,-239 376.83,-224.9 380.39,-206.9 384.98,-193.67"/>
<polygon fill="#63b8ff" stroke="#63b8ff" points="388.28,-194.83 388.69,-184.24 381.77,-192.26 388.28,-194.83"/>
</g>
<!-- Node3&#45;&gt;Node7 -->
<g id="edge26" class="edge">
<title>Node3&#45;&gt;Node7</title>
<path fill="none" stroke="#63b8ff" d="M392.91,-278.69C332.46,-272.26 237.31,-259.27 208,-239 187.86,-225.07 106.54,-78.96 78.53,-27.95"/>
<polygon fill="#63b8ff" stroke="#63b8ff" points="81.55,-26.18 73.68,-19.09 75.41,-29.54 81.55,-26.18"/>
</g>
<!-- Node16 -->
<g id="node16" class="node">
<title>Node16</title>
<g id="a_node16"><a xlink:title=" ">
<polygon fill="#e0e0e0" stroke="#999999" points="587.5,-74 508.5,-74 508.5,-55 587.5,-55 587.5,-74"/>
<text text-anchor="middle" x="548" y="-62" font-family="Helvetica,sans-Serif" font-size="10.00">fmt/format.h</text>
</a>
</g>
</g>
<!-- Node3&#45;&gt;Node16 -->
<g id="edge24" class="edge">
<title>Node3&#45;&gt;Node16</title>
<path fill="none" stroke="#63b8ff" d="M450.19,-274.96C455.25,-266.23 462.79,-252.13 467,-239 477.16,-207.27 466.53,-195.9 479,-165 492.1,-132.54 517.35,-100.22 533.4,-81.58"/>
<polygon fill="#63b8ff" stroke="#63b8ff" points="536.07,-83.85 540.05,-74.03 530.81,-79.22 536.07,-83.85"/>
</g>
<!-- Node19 -->
<g id="node19" class="node">
<title>Node19</title>
<g id="a_node19"><a xlink:href="enum__formatter_8h.html" target="_top" xlink:title=" ">
<polygon fill="white" stroke="#666666" points="624,-184 488,-184 488,-165 624,-165 624,-184"/>
<text text-anchor="middle" x="556" y="-172" font-family="Helvetica,sans-Serif" font-size="10.00">ccf/ds/enum_formatter.h</text>
</a>
</g>
</g>
<!-- Node3&#45;&gt;Node19 -->
<g id="edge21" class="edge">
<title>Node3&#45;&gt;Node19</title>
<path fill="none" stroke="#63b8ff" d="M479.06,-274.86C498.89,-268.16 522.89,-256.93 538,-239 548.5,-226.54 552.89,-208.33 554.72,-194.61"/>
<polygon fill="#63b8ff" stroke="#63b8ff" points="558.23,-194.65 555.73,-184.35 551.26,-193.96 558.23,-194.65"/>
</g>
<!-- Node20 -->
<g id="node20" class="node">
<title>Node20</title>
<g id="a_node20"><a xlink:title=" ">
<polygon fill="#e0e0e0" stroke="#999999" points="457.5,-239 392.5,-239 392.5,-220 457.5,-220 457.5,-239"/>
<text text-anchor="middle" x="425" y="-227" font-family="Helvetica,sans-Serif" font-size="10.00">stdexcept</text>
</a>
</g>
</g>
<!-- Node3&#45;&gt;Node20 -->
<g id="edge25" class="edge">
<title>Node3&#45;&gt;Node20</title>
<path fill="none" stroke="#63b8ff" d="M441.7,-274.75C439.02,-267.65 435.15,-257.4 431.81,-248.56"/>
<polygon fill="#63b8ff" stroke="#63b8ff" points="435.05,-247.21 428.24,-239.09 428.5,-249.68 435.05,-247.21"/>
</g>
<!-- Node4&#45;&gt;Node5 -->
<g id="edge4" class="edge">
<title>Node4&#45;&gt;Node5</title>
<path fill="none" stroke="#63b8ff" d="M294.8,-219.98C313.62,-211.46 342.82,-198.23 364.5,-188.41"/>
<polygon fill="#63b8ff" stroke="#63b8ff" points="366.2,-191.48 373.86,-184.17 363.31,-185.11 366.2,-191.48"/>
</g>
<!-- Node6 -->
<g id="node6" class="node">
<title>Node6</title>
<g id="a_node6"><a xlink:href="include_2ccf_2crypto_2base64_8h.html" target="_top" xlink:title=" ">
<polygon fill="white" stroke="#666666" points="362,-74 250,-74 250,-55 362,-55 362,-74"/>
<text text-anchor="middle" x="306" y="-62" font-family="Helvetica,sans-Serif" font-size="10.00">ccf/crypto/base64.h</text>
</a>
</g>
</g>
<!-- Node5&#45;&gt;Node6 -->
<g id="edge5" class="edge">
<title>Node5&#45;&gt;Node6</title>
<path fill="none" stroke="#63b8ff" d="M354.11,-169.61C305.8,-163.89 227.58,-151.36 210,-129 191.46,-105.41 227.7,-87.64 260.84,-76.99"/>
<polygon fill="#63b8ff" stroke="#63b8ff" points="261.96,-80.3 270.51,-74.04 259.92,-73.61 261.96,-80.3"/>
</g>
<!-- Node9 -->
<g id="node9" class="node">
<title>Node9</title>
<g id="a_node9"><a xlink:href="include_2ccf_2ds_2json__schema_8h.html" target="_top" xlink:title=" ">
<polygon fill="white" stroke="#666666" points="339.5,-129 218.5,-129 218.5,-110 339.5,-110 339.5,-129"/>
<text text-anchor="middle" x="279" y="-117" font-family="Helvetica,sans-Serif" font-size="10.00">ccf/ds/json_schema.h</text>
</a>
</g>
</g>
<!-- Node5&#45;&gt;Node9 -->
<g id="edge8" class="edge">
<title>Node5&#45;&gt;Node9</title>
<path fill="none" stroke="#63b8ff" d="M374.68,-164.98C356.34,-156.46 327.89,-143.23 306.77,-133.41"/>
<polygon fill="#63b8ff" stroke="#63b8ff" points="308.19,-130.21 297.65,-129.17 305.24,-136.56 308.19,-130.21"/>
</g>
<!-- Node5&#45;&gt;Node16 -->
<g id="edge19" class="edge">
<title>Node5&#45;&gt;Node16</title>
<path fill="none" stroke="#63b8ff" d="M406.68,-164.84C420.51,-156.01 442.43,-141.84 461,-129 484.44,-112.79 510.81,-93.37 528.31,-80.31"/>
<polygon fill="#63b8ff" stroke="#63b8ff" points="530.69,-82.91 536.59,-74.11 526.49,-77.3 530.69,-82.91"/>
</g>
<!-- Node18 -->
<g id="node18" class="node">
<title>Node18</title>
<g id="a_node18"><a xlink:title=" ">
<polygon fill="#e0e0e0" stroke="#999999" points="452,-129 396,-129 396,-110 452,-110 452,-129"/>
<text text-anchor="middle" x="424" y="-117" font-family="Helvetica,sans-Serif" font-size="10.00">sstream</text>
</a>
</g>
</g>
<!-- Node5&#45;&gt;Node18 -->
<g id="edge20" class="edge">
<title>Node5&#45;&gt;Node18</title>
<path fill="none" stroke="#63b8ff" d="M398.12,-164.75C402.36,-157.49 408.53,-146.95 413.78,-137.98"/>
<polygon fill="#63b8ff" stroke="#63b8ff" points="416.95,-139.49 418.98,-129.09 410.91,-135.95 416.95,-139.49"/>
</g>
<!-- Node6&#45;&gt;Node7 -->
<g id="edge6" class="edge">
<title>Node6&#45;&gt;Node7</title>
<path fill="none" stroke="#63b8ff" d="M263.23,-54.97C223.58,-46.91 162.72,-34.13 101.19,-19.19"/>
<polygon fill="#63b8ff" stroke="#63b8ff" points="101.86,-15.75 91.31,-16.78 100.19,-22.55 101.86,-15.75"/>
</g>
<!-- Node6&#45;&gt;Node8 -->
<g id="edge7" class="edge">
<title>Node6&#45;&gt;Node8</title>
<path fill="none" stroke="#63b8ff" d="M362.02,-56.17C365.06,-55.78 368.07,-55.38 371,-55 483.86,-40.28 617.68,-22.88 679.1,-14.9"/>
<polygon fill="#63b8ff" stroke="#63b8ff" points="679.9,-18.33 689.37,-13.57 679,-11.39 679.9,-18.33"/>
</g>
<!-- Node10 -->
<g id="node10" class="node">
<title>Node10</title>
<g id="a_node10"><a xlink:href="nonstd_8h.html" target="_top" xlink:title=" ">
<polygon fill="white" stroke="#666666" points="232,-74 142,-74 142,-55 232,-55 232,-74"/>
<text text-anchor="middle" x="187" y="-62" font-family="Helvetica,sans-Serif" font-size="10.00">ccf/ds/nonstd.h</text>
</a>
</g>
</g>
<!-- Node9&#45;&gt;Node10 -->
<g id="edge9" class="edge">
<title>Node9&#45;&gt;Node10</title>
<path fill="none" stroke="#63b8ff" d="M264.22,-109.98C249.82,-101.69 227.69,-88.94 210.81,-79.22"/>
<polygon fill="#63b8ff" stroke="#63b8ff" points="212.46,-76.13 202.05,-74.17 208.97,-82.19 212.46,-76.13"/>
</g>
<!-- Node9&#45;&gt;Node16 -->
<g id="edge17" class="edge">
<title>Node9&#45;&gt;Node16</title>
<path fill="none" stroke="#63b8ff" d="M322.22,-109.98C370.29,-100.51 447.83,-85.24 498.35,-75.28"/>
<polygon fill="#63b8ff" stroke="#63b8ff" points="499.26,-78.67 508.39,-73.3 497.91,-71.8 499.26,-78.67"/>
</g>
<!-- Node17 -->
<g id="node17" class="node">
<title>Node17</title>
<g id="a_node17"><a xlink:title=" ">
<polygon fill="#e0e0e0" stroke="#999999" points="490,-74 380,-74 380,-55 490,-55 490,-74"/>
<text text-anchor="middle" x="435" y="-62" font-family="Helvetica,sans-Serif" font-size="10.00">nlohmann/json.hpp</text>
</a>
</g>
</g>
<!-- Node9&#45;&gt;Node17 -->
<g id="edge18" class="edge">
<title>Node9&#45;&gt;Node17</title>
<path fill="none" stroke="#63b8ff" d="M304.06,-109.98C330.03,-101.16 370.81,-87.31 399.96,-77.41"/>
<polygon fill="#63b8ff" stroke="#63b8ff" points="401.4,-80.61 409.74,-74.08 399.15,-73.99 401.4,-80.61"/>
</g>
<!-- Node10&#45;&gt;Node7 -->
<g id="edge13" class="edge">
<title>Node10&#45;&gt;Node7</title>
<path fill="none" stroke="#63b8ff" d="M168.04,-54.98C148.97,-46.42 119.34,-33.11 97.45,-23.28"/>
<polygon fill="#63b8ff" stroke="#63b8ff" points="98.86,-20.07 88.3,-19.17 95.99,-26.46 98.86,-20.07"/>
</g>
<!-- Node10&#45;&gt;Node8 -->
<g id="edge16" class="edge">
<title>Node10&#45;&gt;Node8</title>
<path fill="none" stroke="#63b8ff" d="M232.05,-56.19C235.08,-55.77 238.08,-55.37 241,-55 404.79,-34.41 601.65,-18.77 679.23,-12.96"/>
<polygon fill="#63b8ff" stroke="#63b8ff" points="679.66,-16.44 689.37,-12.21 679.14,-9.46 679.66,-16.44"/>
</g>
<!-- Node11 -->
<g id="node11" class="node">
<title>Node11</title>
<g id="a_node11"><a xlink:title=" ">
<polygon fill="#e0e0e0" stroke="#999999" points="388,-19 324,-19 324,0 388,0 388,-19"/>
<text text-anchor="middle" x="356" y="-7" font-family="Helvetica,sans-Serif" font-size="10.00">algorithm</text>
</a>
</g>
</g>
<!-- Node10&#45;&gt;Node11 -->
<g id="edge10" class="edge">
<title>Node10&#45;&gt;Node11</title>
<path fill="none" stroke="#63b8ff" d="M214.15,-54.98C242.53,-46.09 287.23,-32.07 318.86,-22.15"/>
<polygon fill="#63b8ff" stroke="#63b8ff" points="320.14,-25.41 328.63,-19.08 318.05,-18.73 320.14,-25.41"/>
</g>
<!-- Node12 -->
<g id="node12" class="node">
<title>Node12</title>
<g id="a_node12"><a xlink:title=" ">
<polygon fill="#e0e0e0" stroke="#999999" points="151,-19 109,-19 109,0 151,0 151,-19"/>
<text text-anchor="middle" x="130" y="-7" font-family="Helvetica,sans-Serif" font-size="10.00">array</text>
</a>
</g>
</g>
<!-- Node10&#45;&gt;Node12 -->
<g id="edge11" class="edge">
<title>Node10&#45;&gt;Node12</title>
<path fill="none" stroke="#63b8ff" d="M177.84,-54.98C169.5,-47.23 156.97,-35.58 146.82,-26.14"/>
<polygon fill="#63b8ff" stroke="#63b8ff" points="149.03,-23.42 139.32,-19.17 144.26,-28.54 149.03,-23.42"/>
</g>
<!-- Node13 -->
<g id="node13" class="node">
<title>Node13</title>
<g id="a_node13"><a xlink:title=" ">
<polygon fill="#e0e0e0" stroke="#999999" points="218.5,-19 169.5,-19 169.5,0 218.5,0 218.5,-19"/>
<text text-anchor="middle" x="194" y="-7" font-family="Helvetica,sans-Serif" font-size="10.00">cctype</text>
</a>
</g>
</g>
<!-- Node10&#45;&gt;Node13 -->
<g id="edge12" class="edge">
<title>Node10&#45;&gt;Node13</title>
<path fill="none" stroke="#63b8ff" d="M188.16,-54.75C189.07,-47.8 190.39,-37.85 191.54,-29.13"/>
<polygon fill="#63b8ff" stroke="#63b8ff" points="195.03,-29.46 192.87,-19.09 188.09,-28.54 195.03,-29.46"/>
</g>
<!-- Node14 -->
<g id="node14" class="node">
<title>Node14</title>
<g id="a_node14"><a xlink:title=" ">
<polygon fill="#e0e0e0" stroke="#999999" points="588.5,-19 515.5,-19 515.5,0 588.5,0 588.5,-19"/>
<text text-anchor="middle" x="552" y="-7" font-family="Helvetica,sans-Serif" font-size="10.00">string_view</text>
</a>
</g>
</g>
<!-- Node10&#45;&gt;Node14 -->
<g id="edge14" class="edge">
<title>Node10&#45;&gt;Node14</title>
<path fill="none" stroke="#63b8ff" d="M232.07,-56.36C235.09,-55.89 238.09,-55.44 241,-55 334.56,-40.94 444.12,-25.5 505.04,-17.01"/>
<polygon fill="#63b8ff" stroke="#63b8ff" points="505.69,-20.45 515.11,-15.61 504.73,-13.52 505.69,-20.45"/>
</g>
<!-- Node15 -->
<g id="node15" class="node">
<title>Node15</title>
<g id="a_node15"><a xlink:title=" ">
<polygon fill="#e0e0e0" stroke="#999999" points="305.5,-19 236.5,-19 236.5,0 305.5,0 305.5,-19"/>
<text text-anchor="middle" x="271" y="-7" font-family="Helvetica,sans-Serif" font-size="10.00">type_traits</text>
</a>
</g>
</g>
<!-- Node10&#45;&gt;Node15 -->
<g id="edge15" class="edge">
<title>Node10&#45;&gt;Node15</title>
<path fill="none" stroke="#63b8ff" d="M200.5,-54.98C213.4,-46.84 233.1,-34.41 248.4,-24.76"/>
<polygon fill="#63b8ff" stroke="#63b8ff" points="250.67,-27.47 257.26,-19.17 246.93,-21.55 250.67,-27.47"/>
</g>
<!-- Node19&#45;&gt;Node16 -->
<g id="edge22" class="edge">
<title>Node19&#45;&gt;Node16</title>
<path fill="none" stroke="#63b8ff" d="M555.35,-164.66C554.05,-147.17 551.13,-107.8 549.39,-84.27"/>
<polygon fill="#63b8ff" stroke="#63b8ff" points="552.87,-83.87 548.64,-74.16 545.89,-84.39 552.87,-83.87"/>
</g>
<!-- Node21&#45;&gt;Node5 -->
<g id="edge28" class="edge">
<title>Node21&#45;&gt;Node5</title>
<path fill="none" stroke="#63b8ff" d="M787.06,-274.94C710.11,-255.52 522.46,-208.17 436.86,-186.57"/>
<polygon fill="#63b8ff" stroke="#63b8ff" points="437.5,-183.12 426.95,-184.07 435.79,-189.91 437.5,-183.12"/>
</g>
<!-- Node21&#45;&gt;Node8 -->
<g id="edge34" class="edge">
<title>Node21&#45;&gt;Node8</title>
<path fill="none" stroke="#63b8ff" d="M870.36,-277.32C918.59,-270.31 987.52,-257.42 1007,-239 1028.4,-218.76 1026,-204.96 1026,-175.5 1026,-175.5 1026,-175.5 1026,-118.5 1026,-59.91 827.54,-26.15 746.68,-14.83"/>
<polygon fill="#63b8ff" stroke="#63b8ff" points="746.91,-11.32 736.53,-13.44 745.96,-18.26 746.91,-11.32"/>
</g>
<!-- Node21&#45;&gt;Node14 -->
<g id="edge33" class="edge">
<title>Node21&#45;&gt;Node14</title>
<path fill="none" stroke="#63b8ff" d="M782.04,-274.95C746.42,-265.22 701.96,-247.09 721,-220 750.17,-178.5 846.41,-208.9 821,-165 772.98,-82.04 661.71,-39.76 598.35,-21.69"/>
<polygon fill="#63b8ff" stroke="#63b8ff" points="599.18,-18.29 588.61,-18.99 597.31,-25.03 599.18,-18.29"/>
</g>
<!-- Node22 -->
<g id="node22" class="node">
<title>Node22</title>
<g id="a_node22"><a xlink:title=" ">
<polygon fill="#e0e0e0" stroke="#999999" points="914,-239 864,-239 864,-220 914,-220 914,-239"/>
<text text-anchor="middle" x="889" y="-227" font-family="Helvetica,sans-Serif" font-size="10.00">cstring</text>
</a>
</g>
</g>
<!-- Node21&#45;&gt;Node22 -->
<g id="edge29" class="edge">
<title>Node21&#45;&gt;Node22</title>
<path fill="none" stroke="#63b8ff" d="M831.93,-274.98C842.08,-267.07 857.42,-255.11 869.65,-245.58"/>
<polygon fill="#63b8ff" stroke="#63b8ff" points="872.14,-248.08 877.88,-239.17 867.84,-242.56 872.14,-248.08"/>
</g>
<!-- Node23 -->
<g id="node23" class="node">
<title>Node23</title>
<g id="a_node23"><a xlink:title=" ">
<polygon fill="#e0e0e0" stroke="#999999" points="997.5,-239 932.5,-239 932.5,-220 997.5,-220 997.5,-239"/>
<text text-anchor="middle" x="965" y="-227" font-family="Helvetica,sans-Serif" font-size="10.00">exception</text>
</a>
</g>
</g>
<!-- Node21&#45;&gt;Node23 -->
<g id="edge30" class="edge">
<title>Node21&#45;&gt;Node23</title>
<path fill="none" stroke="#63b8ff" d="M844.14,-274.98C867.82,-266.27 904.87,-252.63 931.71,-242.75"/>
<polygon fill="#63b8ff" stroke="#63b8ff" points="933.27,-245.91 941.44,-239.17 930.85,-239.34 933.27,-245.91"/>
</g>
<!-- Node24 -->
<g id="node24" class="node">
<title>Node24</title>
<g id="a_node24"><a xlink:title=" ">
<polygon fill="#e0e0e0" stroke="#999999" points="788,-239 730,-239 730,-220 788,-220 788,-239"/>
<text text-anchor="middle" x="759" y="-227" font-family="Helvetica,sans-Serif" font-size="10.00">memory</text>
</a>
</g>
</g>
<!-- Node21&#45;&gt;Node24 -->
<g id="edge31" class="edge">
<title>Node21&#45;&gt;Node24</title>
<path fill="none" stroke="#63b8ff" d="M811.04,-274.98C801.87,-267.15 788.06,-255.34 776.97,-245.86"/>
<polygon fill="#63b8ff" stroke="#63b8ff" points="779.02,-243.01 769.14,-239.17 774.47,-248.33 779.02,-243.01"/>
</g>
<!-- Node25 -->
<g id="node25" class="node">
<title>Node25</title>
<g id="a_node25"><a xlink:title=" ">
<polygon fill="#e0e0e0" stroke="#999999" points="846,-239 806,-239 806,-220 846,-220 846,-239"/>
<text text-anchor="middle" x="826" y="-227" font-family="Helvetica,sans-Serif" font-size="10.00">span</text>
</a>
</g>
</g>
<!-- Node21&#45;&gt;Node25 -->
<g id="edge32" class="edge">
<title>Node21&#45;&gt;Node25</title>
<path fill="none" stroke="#63b8ff" d="M821.83,-274.75C822.48,-267.8 823.42,-257.85 824.24,-249.13"/>
<polygon fill="#63b8ff" stroke="#63b8ff" points="827.73,-249.37 825.19,-239.09 820.77,-248.72 827.73,-249.37"/>
</g>
<!-- Node26&#45;&gt;Node3 -->
<g id="edge36" class="edge">
<title>Node26&#45;&gt;Node3</title>
<path fill="none" stroke="#63b8ff" d="M597.76,-329.98C566.94,-321.01 518.22,-306.82 484.11,-296.89"/>
<polygon fill="#63b8ff" stroke="#63b8ff" points="485.05,-293.52 474.47,-294.08 483.09,-300.24 485.05,-293.52"/>
</g>
<!-- Node26&#45;&gt;Node7 -->
<g id="edge47" class="edge">
<title>Node26&#45;&gt;Node7</title>
<path fill="none" stroke="#63b8ff" d="M563.41,-333.46C411.1,-320.53 38,-283.46 38,-230.5 38,-230.5 38,-230.5 38,-118.5 38,-85.79 51.3,-49.6 60.48,-28.52"/>
<polygon fill="#63b8ff" stroke="#63b8ff" points="63.75,-29.77 64.69,-19.22 57.37,-26.88 63.75,-29.77"/>
</g>
<!-- Node26&#45;&gt;Node8 -->
<g id="edge48" class="edge">
<title>Node26&#45;&gt;Node8</title>
<path fill="none" stroke="#63b8ff" d="M628.77,-329.84C631.3,-317.59 636.2,-294.51 641,-275 663.87,-182.1 695.22,-71.99 707.63,-29"/>
<polygon fill="#63b8ff" stroke="#63b8ff" points="711.07,-29.72 710.48,-19.14 704.34,-27.77 711.07,-29.72"/>
</g>
<!-- Node26&#45;&gt;Node21 -->
<g id="edge39" class="edge">
<title>Node26&#45;&gt;Node21</title>
<path fill="none" stroke="#63b8ff" d="M658.17,-329.98C691.16,-320.97 743.4,-306.7 779.77,-296.76"/>
<polygon fill="#63b8ff" stroke="#63b8ff" points="780.86,-300.09 789.59,-294.08 779.02,-293.34 780.86,-300.09"/>
</g>
<!-- Node27 -->
<g id="node27" class="node">
<title>Node27</title>
<g id="a_node27"><a xlink:href="hash__bytes_8h.html" target="_top" xlink:title=" ">
<polygon fill="white" stroke="#666666" points="812,-184 680,-184 680,-165 812,-165 812,-184"/>
<text text-anchor="middle" x="746" y="-172" font-family="Helvetica,sans-Serif" font-size="10.00">ccf/crypto/hash_bytes.h</text>
</a>
</g>
</g>
<!-- Node26&#45;&gt;Node27 -->
<g id="edge37" class="edge">
<title>Node26&#45;&gt;Node27</title>
<path fill="none" stroke="#63b8ff" d="M630,-329.69C637.38,-308.91 658.04,-255.87 688,-220 697.76,-208.32 711.1,-197.81 722.53,-189.95"/>
<polygon fill="#63b8ff" stroke="#63b8ff" points="724.77,-192.67 731.18,-184.23 720.91,-186.83 724.77,-192.67"/>
</g>
<!-- Node26&#45;&gt;Node28 -->
<g id="edge40" class="edge">
<title>Node26&#45;&gt;Node28</title>
<path fill="none" stroke="#63b8ff" d="M576.13,-329.93C526.87,-321.46 450.13,-307.79 384,-294 303.56,-277.22 210.42,-254.72 156.94,-241.5"/>
<polygon fill="#63b8ff" stroke="#63b8ff" points="157.65,-238.07 147.1,-239.06 155.97,-244.86 157.65,-238.07"/>
</g>
<!-- Node26&#45;&gt;Node29 -->
<g id="edge45" class="edge">
<title>Node26&#45;&gt;Node29</title>
<path fill="none" stroke="#63b8ff" d="M616.24,-329.98C606.23,-322.07 591.11,-310.11 579.07,-300.58"/>
<polygon fill="#63b8ff" stroke="#63b8ff" points="580.97,-297.63 570.96,-294.17 576.63,-303.12 580.97,-297.63"/>
</g>
<!-- Node26&#45;&gt;Node30 -->
<g id="edge46" class="edge">
<title>Node26&#45;&gt;Node30</title>
<path fill="none" stroke="#63b8ff" d="M641.94,-329.98C656.5,-321.69 678.87,-308.94 695.93,-299.22"/>
<polygon fill="#63b8ff" stroke="#63b8ff" points="697.83,-302.16 704.79,-294.17 694.36,-296.08 697.83,-302.16"/>
</g>
<!-- Node27&#45;&gt;Node8 -->
<g id="edge38" class="edge">
<title>Node27&#45;&gt;Node8</title>
<path fill="none" stroke="#63b8ff" d="M744.23,-164.74C739.06,-139.2 723.92,-64.43 716.79,-29.23"/>
<polygon fill="#63b8ff" stroke="#63b8ff" points="720.2,-28.41 714.78,-19.31 713.34,-29.8 720.2,-28.41"/>
</g>
<!-- Node28&#45;&gt;Node5 -->
<g id="edge41" class="edge">
<title>Node28&#45;&gt;Node5</title>
<path fill="none" stroke="#63b8ff" d="M157.99,-219.98C209,-210.33 291.88,-194.64 344.36,-184.71"/>
<polygon fill="#63b8ff" stroke="#63b8ff" points="345.26,-188.1 354.43,-182.8 343.96,-181.22 345.26,-188.1"/>
</g>
<!-- Node28&#45;&gt;Node7 -->
<g id="edge44" class="edge">
<title>Node28&#45;&gt;Node7</title>
<path fill="none" stroke="#63b8ff" d="M110.13,-219.71C107.28,-210.79 102.94,-196.54 100,-184 86.92,-128.28 76.41,-61.37 71.69,-29.36"/>
<polygon fill="#63b8ff" stroke="#63b8ff" points="75.12,-28.63 70.22,-19.23 68.19,-29.63 75.12,-28.63"/>
</g>
<!-- Node28&#45;&gt;Node10 -->
<g id="edge42" class="edge">
<title>Node28&#45;&gt;Node10</title>
<path fill="none" stroke="#63b8ff" d="M116.98,-219.74C128.62,-194.09 162.81,-118.78 178.7,-83.78"/>
<polygon fill="#63b8ff" stroke="#63b8ff" points="182.05,-84.86 183,-74.31 175.68,-81.97 182.05,-84.86"/>
</g>
<!-- Node28&#45;&gt;Node16 -->
<g id="edge43" class="edge">
<title>Node28&#45;&gt;Node16</title>
<path fill="none" stroke="#63b8ff" d="M134.68,-219.91C176.49,-203.21 271.04,-164.88 349,-129 366.15,-121.11 369.37,-116.77 387,-110 423.64,-95.93 466.54,-84.3 498.84,-76.46"/>
<polygon fill="#63b8ff" stroke="#63b8ff" points="500.02,-79.78 508.94,-74.05 498.4,-72.97 500.02,-79.78"/>
</g>
</g>
</svg>
