<?xml version="1.0" encoding="UTF-8" standalone="no"?>
<!DOCTYPE svg PUBLIC "-//W3C//DTD SVG 1.1//EN"
 "http://www.w3.org/Graphics/SVG/1.1/DTD/svg11.dtd">
<!-- Generated by graphviz version 2.43.0 (0)
 -->
<!-- Title: Graphical Class Hierarchy Pages: 1 -->
<svg width="1056pt" height="156pt"
 viewBox="0.00 0.00 1056.00 156.00" xmlns="http://www.w3.org/2000/svg" xmlns:xlink="http://www.w3.org/1999/xlink">
<g id="graph0" class="graph" transform="scale(1 1) rotate(0) translate(4 152)">
<title>Graphical Class Hierarchy</title>
<!-- Node0 -->
<g id="node1" class="node">
<title>Node0</title>
<g id="a_node1"><a xlink:href="structccf_1_1endpoints_1_1Endpoint_1_1Installer.html" target="_top" xlink:title=" ">
<polygon fill="white" stroke="#666666" points="133,-97.5 0,-97.5 0,-67.5 133,-67.5 133,-97.5"/>
<text text-anchor="start" x="8" y="-85.5" font-family="Helvetica,sans-Serif" font-size="10.00">ccf::endpoints::Endpoint</text>
<text text-anchor="middle" x="66.5" y="-74.5" font-family="Helvetica,sans-Serif" font-size="10.00">::Installer</text>
</a>
</g>
</g>
<!-- Node1 -->
<g id="node2" class="node">
<title>Node1</title>
<g id="a_node2"><a xlink:href="classccf_1_1endpoints_1_1EndpointRegistry.html" target="_top" xlink:title=" ">
<polygon fill="white" stroke="#666666" points="302,-97.5 169,-97.5 169,-67.5 302,-67.5 302,-97.5"/>
<text text-anchor="start" x="177" y="-85.5" font-family="Helvetica,sans-Serif" font-size="10.00">ccf::endpoints::Endpoint</text>
<text text-anchor="middle" x="235.5" y="-74.5" font-family="Helvetica,sans-Serif" font-size="10.00">Registry</text>
</a>
</g>
</g>
<!-- Node0&#45;&gt;Node1 -->
<g id="edge1" class="edge">
<title>Node0&#45;&gt;Node1</title>
<path fill="none" stroke="#63b8ff" d="M143.07,-82.5C151.68,-82.5 160.42,-82.5 168.89,-82.5"/>
<polygon fill="#63b8ff" stroke="#63b8ff" points="143.02,-79 133.02,-82.5 143.02,-86 143.02,-79"/>
</g>
<!-- Node2 -->
<g id="node3" class="node">
<title>Node2</title>
<g id="a_node3"><a xlink:href="classccf_1_1BaseEndpointRegistry.html" target="_top" xlink:title=" ">
<polygon fill="white" stroke="#666666" points="481,-92 338,-92 338,-73 481,-73 481,-92"/>
<text text-anchor="middle" x="409.5" y="-80" font-family="Helvetica,sans-Serif" font-size="10.00">ccf::BaseEndpointRegistry</text>
</a>
</g>
</g>
<!-- Node1&#45;&gt;Node2 -->
<g id="edge2" class="edge">
<title>Node1&#45;&gt;Node2</title>
<path fill="none" stroke="#63b8ff" d="M312.25,-82.5C320.72,-82.5 329.32,-82.5 337.72,-82.5"/>
<polygon fill="#63b8ff" stroke="#63b8ff" points="312.02,-79 302.02,-82.5 312.02,-86 312.02,-79"/>
</g>
<!-- Node3 -->
<g id="node4" class="node">
<title>Node3</title>
<g id="a_node4"><a xlink:href="classccf_1_1CommonEndpointRegistry.html" target="_top" xlink:title=" ">
<polygon fill="white" stroke="#666666" points="681,-111 517,-111 517,-92 681,-92 681,-111"/>
<text text-anchor="middle" x="599" y="-99" font-family="Helvetica,sans-Serif" font-size="10.00">ccf::CommonEndpointRegistry</text>
</a>
</g>
</g>
<!-- Node2&#45;&gt;Node3 -->
<g id="edge3" class="edge">
<title>Node2&#45;&gt;Node3</title>
<path fill="none" stroke="#63b8ff" d="M491.31,-90.69C499.74,-91.54 508.31,-92.41 516.74,-93.27"/>
<polygon fill="#63b8ff" stroke="#63b8ff" points="491.42,-87.18 481.12,-89.66 490.71,-94.15 491.42,-87.18"/>
</g>
<!-- Node11 -->
<g id="node12" class="node">
<title>Node11</title>
<g id="a_node12"><a xlink:href="classnobuiltins_1_1NoBuiltinsRegistry.html" target="_top" xlink:title=" ">
<polygon fill="white" stroke="#666666" points="679.5,-74 518.5,-74 518.5,-55 679.5,-55 679.5,-74"/>
<text text-anchor="middle" x="599" y="-62" font-family="Helvetica,sans-Serif" font-size="10.00">nobuiltins::NoBuiltinsRegistry</text>
</a>
</g>
</g>
<!-- Node2&#45;&gt;Node11 -->
<g id="edge11" class="edge">
<title>Node2&#45;&gt;Node11</title>
<path fill="none" stroke="#63b8ff" d="M491.19,-74.75C500.18,-73.89 509.34,-73.01 518.33,-72.15"/>
<polygon fill="#63b8ff" stroke="#63b8ff" points="490.74,-71.28 481.12,-75.72 491.41,-78.25 490.74,-71.28"/>
</g>
<!-- Node4 -->
<g id="node5" class="node">
<title>Node4</title>
<g id="a_node5"><a xlink:href="classccf_1_1MemberEndpoints.html" target="_top" xlink:title=" ">
<polygon fill="white" stroke="#666666" points="850.5,-148 725.5,-148 725.5,-129 850.5,-129 850.5,-148"/>
<text text-anchor="middle" x="788" y="-136" font-family="Helvetica,sans-Serif" font-size="10.00">ccf::MemberEndpoints</text>
</a>
</g>
</g>
<!-- Node3&#45;&gt;Node4 -->
<g id="edge4" class="edge">
<title>Node3&#45;&gt;Node4</title>
<path fill="none" stroke="#63b8ff" d="M658.2,-113.02C684.05,-118.13 714.1,-124.08 738.68,-128.94"/>
<polygon fill="#63b8ff" stroke="#63b8ff" points="658.65,-109.54 648.16,-111.03 657.29,-116.4 658.65,-109.54"/>
</g>
<!-- Node5 -->
<g id="node6" class="node">
<title>Node5</title>
<g id="a_node6"><a xlink:href="classccf_1_1NodeEndpoints.html" target="_top" xlink:title=" ">
<polygon fill="white" stroke="#666666" points="843,-111 733,-111 733,-92 843,-92 843,-111"/>
<text text-anchor="middle" x="788" y="-99" font-family="Helvetica,sans-Serif" font-size="10.00">ccf::NodeEndpoints</text>
</a>
</g>
</g>
<!-- Node3&#45;&gt;Node5 -->
<g id="edge5" class="edge">
<title>Node3&#45;&gt;Node5</title>
<path fill="none" stroke="#63b8ff" d="M691.48,-101.5C705.62,-101.5 719.83,-101.5 732.8,-101.5"/>
<polygon fill="#63b8ff" stroke="#63b8ff" points="691.21,-98 681.21,-101.5 691.21,-105 691.21,-98"/>
</g>
<!-- Node6 -->
<g id="node7" class="node">
<title>Node6</title>
<g id="a_node7"><a xlink:href="classccf_1_1UserEndpointRegistry.html" target="_top" xlink:title=" ">
<polygon fill="white" stroke="#666666" points="859,-74 717,-74 717,-55 859,-55 859,-74"/>
<text text-anchor="middle" x="788" y="-62" font-family="Helvetica,sans-Serif" font-size="10.00">ccf::UserEndpointRegistry</text>
</a>
</g>
</g>
<!-- Node3&#45;&gt;Node6 -->
<g id="edge6" class="edge">
<title>Node3&#45;&gt;Node6</title>
<path fill="none" stroke="#63b8ff" d="M658.2,-89.98C684.05,-84.87 714.1,-78.92 738.68,-74.06"/>
<polygon fill="#63b8ff" stroke="#63b8ff" points="657.29,-86.6 648.16,-91.97 658.65,-93.46 657.29,-86.6"/>
</g>
<!-- Node7 -->
<g id="node8" class="node">
<title>Node7</title>
<g id="a_node8"><a xlink:href="classccfapp_1_1JSHandlers.html" target="_top" xlink:title=" ">
<polygon fill="white" stroke="#666666" points="1025,-130 918,-130 918,-111 1025,-111 1025,-130"/>
<text text-anchor="middle" x="971.5" y="-118" font-family="Helvetica,sans-Serif" font-size="10.00">ccfapp::JSHandlers</text>
</a>
</g>
</g>
<!-- Node6&#45;&gt;Node7 -->
<g id="edge7" class="edge">
<title>Node6&#45;&gt;Node7</title>
<path fill="none" stroke="#63b8ff" d="M840.21,-76.99C846.61,-78.96 853,-81.14 859,-83.5 875.83,-90.13 878.07,-96.13 895,-102.5 903.7,-105.77 913.2,-108.59 922.43,-110.96"/>
<polygon fill="#63b8ff" stroke="#63b8ff" points="840.79,-73.51 830.21,-74.06 838.82,-80.23 840.79,-73.51"/>
</g>
<!-- Node8 -->
<g id="node9" class="node">
<title>Node8</title>
<g id="a_node9"><a xlink:href="classccfapp_1_1TpccHandlers.html" target="_top" xlink:title=" ">
<polygon fill="white" stroke="#666666" points="1032,-93 911,-93 911,-74 1032,-74 1032,-93"/>
<text text-anchor="middle" x="971.5" y="-81" font-family="Helvetica,sans-Serif" font-size="10.00">ccfapp::TpccHandlers</text>
</a>
</g>
</g>
<!-- Node6&#45;&gt;Node8 -->
<g id="edge8" class="edge">
<title>Node6&#45;&gt;Node8</title>
<path fill="none" stroke="#63b8ff" d="M869.27,-72.9C883.23,-74.36 897.54,-75.86 910.83,-77.25"/>
<polygon fill="#63b8ff" stroke="#63b8ff" points="869.48,-69.41 859.17,-71.85 868.75,-76.37 869.48,-69.41"/>
</g>
<!-- Node9 -->
<g id="node10" class="node">
<title>Node9</title>
<g id="a_node10"><a xlink:href="classccfapp_1_1V8Handlers.html" target="_top" xlink:title=" ">
<polygon fill="white" stroke="#666666" points="1027,-56 916,-56 916,-37 1027,-37 1027,-56"/>
<text text-anchor="middle" x="971.5" y="-44" font-family="Helvetica,sans-Serif" font-size="10.00">ccfapp::V8Handlers</text>
</a>
</g>
</g>
<!-- Node6&#45;&gt;Node9 -->
<g id="edge9" class="edge">
<title>Node6&#45;&gt;Node9</title>
<path fill="none" stroke="#63b8ff" d="M869.44,-56.52C885.18,-54.96 901.34,-53.36 915.99,-51.91"/>
<polygon fill="#63b8ff" stroke="#63b8ff" points="868.78,-53.07 859.17,-57.54 869.47,-60.04 868.78,-53.07"/>
</g>
<!-- Node10 -->
<g id="node11" class="node">
<title>Node10</title>
<g id="a_node11"><a xlink:href="classloggingapp_1_1LoggerHandlers.html" target="_top" xlink:title=" ">
<polygon fill="white" stroke="#666666" points="1048,-19 895,-19 895,0 1048,0 1048,-19"/>
<text text-anchor="middle" x="971.5" y="-7" font-family="Helvetica,sans-Serif" font-size="10.00">loggingapp::LoggerHandlers</text>
</a>
</g>
</g>
<!-- Node6&#45;&gt;Node10 -->
<g id="edge10" class="edge">
<title>Node6&#45;&gt;Node10</title>
<path fill="none" stroke="#63b8ff" d="M824.91,-51.5C845.33,-44.31 871.45,-35.45 895,-28.5 906.28,-25.17 918.61,-21.91 929.98,-19.06"/>
<polygon fill="#63b8ff" stroke="#63b8ff" points="823.64,-48.23 815.38,-54.88 825.98,-54.83 823.64,-48.23"/>
</g>
</g>
</svg>
