<?xml version="1.0" encoding="UTF-8" standalone="no"?>
<!DOCTYPE svg PUBLIC "-//W3C//DTD SVG 1.1//EN"
 "http://www.w3.org/Graphics/SVG/1.1/DTD/svg11.dtd">
<!-- Generated by graphviz version 2.43.0 (0)
 -->
<!-- Title: Graphical Class Hierarchy Pages: 1 -->
<svg width="317pt" height="298pt"
 viewBox="0.00 0.00 317.00 298.00" xmlns="http://www.w3.org/2000/svg" xmlns:xlink="http://www.w3.org/1999/xlink">
<g id="graph0" class="graph" transform="scale(1 1) rotate(0) translate(4 294)">
<title>Graphical Class Hierarchy</title>
<!-- Node0 -->
<g id="node1" class="node">
<title>Node0</title>
<g id="a_node1"><a xlink:href="structccf_1_1AuthnIdentity.html" target="_top" xlink:title=" ">
<polygon fill="white" stroke="#666666" points="102,-151 0,-151 0,-132 102,-132 102,-151"/>
<text text-anchor="middle" x="51" y="-139" font-family="Helvetica,sans-Serif" font-size="10.00">ccf::AuthnIdentity</text>
</a>
</g>
</g>
<!-- Node1 -->
<g id="node2" class="node">
<title>Node1</title>
<g id="a_node2"><a xlink:href="structccf_1_1EmptyAuthnIdentity.html" target="_top" xlink:title=" ">
<polygon fill="white" stroke="#666666" points="290.5,-290 156.5,-290 156.5,-271 290.5,-271 290.5,-290"/>
<text text-anchor="middle" x="223.5" y="-278" font-family="Helvetica,sans-Serif" font-size="10.00">ccf::EmptyAuthnIdentity</text>
</a>
</g>
</g>
<!-- Node0&#45;&gt;Node1 -->
<g id="edge1" class="edge">
<title>Node0&#45;&gt;Node1</title>
<path fill="none" stroke="#63b8ff" d="M59.99,-160.42C72.46,-187.55 99.23,-237.02 138,-262.5 143.64,-266.21 149.91,-269.17 156.41,-271.53"/>
<polygon fill="#63b8ff" stroke="#63b8ff" points="63.16,-158.94 55.91,-151.22 56.76,-161.78 63.16,-158.94"/>
</g>
<!-- Node2 -->
<g id="node3" class="node">
<title>Node2</title>
<g id="a_node3"><a xlink:href="structccf_1_1JwtAuthnIdentity.html" target="_top" xlink:title=" ">
<polygon fill="white" stroke="#666666" points="282,-253 165,-253 165,-234 282,-234 282,-253"/>
<text text-anchor="middle" x="223.5" y="-241" font-family="Helvetica,sans-Serif" font-size="10.00">ccf::JwtAuthnIdentity</text>
</a>
</g>
</g>
<!-- Node0&#45;&gt;Node2 -->
<g id="edge2" class="edge">
<title>Node0&#45;&gt;Node2</title>
<path fill="none" stroke="#63b8ff" d="M64.95,-159.11C80.2,-178.49 107.37,-209.09 138,-225.5 146.2,-229.89 155.38,-233.21 164.59,-235.72"/>
<polygon fill="#63b8ff" stroke="#63b8ff" points="67.67,-156.9 58.81,-151.08 62.11,-161.15 67.67,-156.9"/>
</g>
<!-- Node3 -->
<g id="node4" class="node">
<title>Node3</title>
<g id="a_node4"><a xlink:href="structccf_1_1MemberCertAuthnIdentity.html" target="_top" xlink:title=" ">
<polygon fill="white" stroke="#666666" points="305,-216 142,-216 142,-197 305,-197 305,-216"/>
<text text-anchor="middle" x="223.5" y="-204" font-family="Helvetica,sans-Serif" font-size="10.00">ccf::MemberCertAuthnIdentity</text>
</a>
</g>
</g>
<!-- Node0&#45;&gt;Node3 -->
<g id="edge3" class="edge">
<title>Node0&#45;&gt;Node3</title>
<path fill="none" stroke="#63b8ff" d="M75.57,-156.35C92.41,-166.4 115.91,-179.28 138,-187.5 148.01,-191.22 158.96,-194.34 169.57,-196.91"/>
<polygon fill="#63b8ff" stroke="#63b8ff" points="77.31,-153.32 66.95,-151.11 73.68,-159.3 77.31,-153.32"/>
</g>
<!-- Node4 -->
<g id="node5" class="node">
<title>Node4</title>
<g id="a_node5"><a xlink:href="structccf_1_1MemberSignatureAuthnIdentity.html" target="_top" xlink:title=" ">
<polygon fill="white" stroke="#666666" points="299.5,-178.5 147.5,-178.5 147.5,-148.5 299.5,-148.5 299.5,-178.5"/>
<text text-anchor="start" x="155.5" y="-166.5" font-family="Helvetica,sans-Serif" font-size="10.00">ccf::MemberSignatureAuthn</text>
<text text-anchor="middle" x="223.5" y="-155.5" font-family="Helvetica,sans-Serif" font-size="10.00">Identity</text>
</a>
</g>
</g>
<!-- Node0&#45;&gt;Node4 -->
<g id="edge4" class="edge">
<title>Node0&#45;&gt;Node4</title>
<path fill="none" stroke="#63b8ff" d="M112.41,-149.29C123.71,-150.75 135.66,-152.29 147.34,-153.8"/>
<polygon fill="#63b8ff" stroke="#63b8ff" points="112.6,-145.79 102.23,-147.98 111.7,-152.73 112.6,-145.79"/>
</g>
<!-- Node5 -->
<g id="node6" class="node">
<title>Node5</title>
<g id="a_node6"><a xlink:href="structccf_1_1NodeCertAuthnIdentity.html" target="_top" xlink:title=" ">
<polygon fill="white" stroke="#666666" points="297.5,-130 149.5,-130 149.5,-111 297.5,-111 297.5,-130"/>
<text text-anchor="middle" x="223.5" y="-118" font-family="Helvetica,sans-Serif" font-size="10.00">ccf::NodeCertAuthnIdentity</text>
</a>
</g>
</g>
<!-- Node0&#45;&gt;Node5 -->
<g id="edge5" class="edge">
<title>Node0&#45;&gt;Node5</title>
<path fill="none" stroke="#63b8ff" d="M112.48,-134.05C124.38,-132.59 136.98,-131.03 149.25,-129.52"/>
<polygon fill="#63b8ff" stroke="#63b8ff" points="111.73,-130.62 102.23,-135.31 112.59,-137.56 111.73,-130.62"/>
</g>
<!-- Node6 -->
<g id="node7" class="node">
<title>Node6</title>
<g id="a_node7"><a xlink:href="structccf_1_1UserCertAuthnIdentity.html" target="_top" xlink:title=" ">
<polygon fill="white" stroke="#666666" points="296,-93 151,-93 151,-74 296,-74 296,-93"/>
<text text-anchor="middle" x="223.5" y="-81" font-family="Helvetica,sans-Serif" font-size="10.00">ccf::UserCertAuthnIdentity</text>
</a>
</g>
</g>
<!-- Node0&#45;&gt;Node6 -->
<g id="edge6" class="edge">
<title>Node0&#45;&gt;Node6</title>
<path fill="none" stroke="#63b8ff" d="M79.47,-127.3C96.08,-119.16 117.86,-109.25 138,-102.5 148.84,-98.87 160.68,-95.72 171.99,-93.08"/>
<polygon fill="#63b8ff" stroke="#63b8ff" points="77.73,-124.26 70.35,-131.85 80.86,-130.52 77.73,-124.26"/>
</g>
<!-- Node7 -->
<g id="node8" class="node">
<title>Node7</title>
<g id="a_node8"><a xlink:href="structccf_1_1UserSignatureAuthnIdentity.html" target="_top" xlink:title=" ">
<polygon fill="white" stroke="#666666" points="309,-56 138,-56 138,-37 309,-37 309,-56"/>
<text text-anchor="middle" x="223.5" y="-44" font-family="Helvetica,sans-Serif" font-size="10.00">ccf::UserSignatureAuthnIdentity</text>
</a>
</g>
</g>
<!-- Node0&#45;&gt;Node7 -->
<g id="edge7" class="edge">
<title>Node0&#45;&gt;Node7</title>
<path fill="none" stroke="#63b8ff" d="M66.77,-124.08C82.6,-106.58 109.33,-80.15 138,-65.5 145.63,-61.6 154.05,-58.49 162.54,-56.02"/>
<polygon fill="#63b8ff" stroke="#63b8ff" points="63.9,-122.05 59.92,-131.87 69.15,-126.68 63.9,-122.05"/>
</g>
<!-- Node8 -->
<g id="node9" class="node">
<title>Node8</title>
<g id="a_node9"><a xlink:href="structloggingapp_1_1CustomIdentity.html" target="_top" xlink:title=" ">
<polygon fill="white" stroke="#666666" points="299.5,-19 147.5,-19 147.5,0 299.5,0 299.5,-19"/>
<text text-anchor="middle" x="223.5" y="-7" font-family="Helvetica,sans-Serif" font-size="10.00">loggingapp::CustomIdentity</text>
</a>
</g>
</g>
<!-- Node0&#45;&gt;Node8 -->
<g id="edge8" class="edge">
<title>Node0&#45;&gt;Node8</title>
<path fill="none" stroke="#63b8ff" d="M60.92,-122.79C74.09,-97.29 101.19,-52.13 138,-28.5 144.07,-24.6 150.84,-21.5 157.83,-19.02"/>
<polygon fill="#63b8ff" stroke="#63b8ff" points="57.76,-121.29 56.43,-131.8 64.02,-124.41 57.76,-121.29"/>
</g>
</g>
</svg>
