<?xml version="1.0" encoding="UTF-8" standalone="no"?>
<!DOCTYPE svg PUBLIC "-//W3C//DTD SVG 1.1//EN"
 "http://www.w3.org/Graphics/SVG/1.1/DTD/svg11.dtd">
<!-- Generated by graphviz version 2.43.0 (0)
 -->
<!-- Title: Graphical Class Hierarchy Pages: 1 -->
<svg width="597pt" height="380pt"
 viewBox="0.00 0.00 597.00 379.50" xmlns="http://www.w3.org/2000/svg" xmlns:xlink="http://www.w3.org/1999/xlink">
<g id="graph0" class="graph" transform="scale(1 1) rotate(0) translate(4 375.5)">
<title>Graphical Class Hierarchy</title>
<!-- Node0 -->
<g id="node1" class="node">
<title>Node0</title>
<g id="a_node1"><a xlink:title=" ">
<polygon fill="#e0e0e0" stroke="#999999" points="86,-251 0,-251 0,-232 86,-232 86,-251"/>
<text text-anchor="middle" x="43" y="-239" font-family="Helvetica,sans-Serif" font-size="10.00">std::exception</text>
</a>
</g>
</g>
<!-- Node1 -->
<g id="node2" class="node">
<title>Node1</title>
<g id="a_node2"><a xlink:href="classccf_1_1NodeToNode_1_1DroppedMessageException.html" target="_top" xlink:title=" ">
<polygon fill="white" stroke="#666666" points="267,-355.5 122,-355.5 122,-325.5 267,-325.5 267,-355.5"/>
<text text-anchor="start" x="130" y="-343.5" font-family="Helvetica,sans-Serif" font-size="10.00">ccf::NodeToNode::Dropped</text>
<text text-anchor="middle" x="194.5" y="-332.5" font-family="Helvetica,sans-Serif" font-size="10.00">MessageException</text>
</a>
</g>
</g>
<!-- Node0&#45;&gt;Node1 -->
<g id="edge1" class="edge">
<title>Node0&#45;&gt;Node1</title>
<path fill="none" stroke="#63b8ff" d="M58.27,-259.17C72.74,-276.03 96.55,-301.08 122,-316.5 127.6,-319.89 133.74,-322.88 139.99,-325.48"/>
<polygon fill="#63b8ff" stroke="#63b8ff" points="60.7,-256.62 51.6,-251.19 55.33,-261.11 60.7,-256.62"/>
</g>
<!-- Node2 -->
<g id="node3" class="node">
<title>Node2</title>
<g id="a_node3"><a xlink:href="structccf_1_1RpcException.html" target="_top" xlink:title=" ">
<polygon fill="white" stroke="#666666" points="245.5,-307 143.5,-307 143.5,-288 245.5,-288 245.5,-307"/>
<text text-anchor="middle" x="194.5" y="-295" font-family="Helvetica,sans-Serif" font-size="10.00">ccf::RpcException</text>
</a>
</g>
</g>
<!-- Node0&#45;&gt;Node2 -->
<g id="edge2" class="edge">
<title>Node0&#45;&gt;Node2</title>
<path fill="none" stroke="#63b8ff" d="M70,-255.85C84.9,-263.64 104.12,-272.98 122,-279.5 130.78,-282.7 140.36,-285.54 149.58,-287.97"/>
<polygon fill="#63b8ff" stroke="#63b8ff" points="71.37,-252.61 60.9,-251 68.08,-258.79 71.37,-252.61"/>
</g>
<!-- Node3 -->
<g id="node4" class="node">
<title>Node3</title>
<g id="a_node4"><a xlink:href="classccf_1_1ccf__logic__error.html" target="_top" xlink:title=" ">
<polygon fill="white" stroke="#666666" points="248,-270 141,-270 141,-251 248,-251 248,-270"/>
<text text-anchor="middle" x="194.5" y="-258" font-family="Helvetica,sans-Serif" font-size="10.00">ccf::ccf_logic_error</text>
</a>
</g>
</g>
<!-- Node0&#45;&gt;Node3 -->
<g id="edge3" class="edge">
<title>Node0&#45;&gt;Node3</title>
<path fill="none" stroke="#63b8ff" d="M96.3,-248.15C110.73,-249.98 126.39,-251.97 140.85,-253.81"/>
<polygon fill="#63b8ff" stroke="#63b8ff" points="96.4,-244.63 86.04,-246.84 95.52,-251.58 96.4,-244.63"/>
</g>
<!-- Node7 -->
<g id="node8" class="node">
<title>Node7</title>
<g id="a_node8"><a xlink:href="classkv_1_1KvSerialiserException.html" target="_top" xlink:title=" ">
<polygon fill="white" stroke="#666666" points="264.5,-233 124.5,-233 124.5,-214 264.5,-214 264.5,-233"/>
<text text-anchor="middle" x="194.5" y="-221" font-family="Helvetica,sans-Serif" font-size="10.00">kv::KvSerialiserException</text>
</a>
</g>
</g>
<!-- Node0&#45;&gt;Node7 -->
<g id="edge7" class="edge">
<title>Node0&#45;&gt;Node7</title>
<path fill="none" stroke="#63b8ff" d="M96.1,-235.23C105.22,-234.13 114.83,-232.97 124.33,-231.83"/>
<polygon fill="#63b8ff" stroke="#63b8ff" points="95.55,-231.77 86.04,-236.44 96.39,-238.72 95.55,-231.77"/>
</g>
<!-- Node8 -->
<g id="node9" class="node">
<title>Node8</title>
<g id="a_node9"><a xlink:title=" ">
<polygon fill="#e0e0e0" stroke="#999999" points="239,-179 150,-179 150,-160 239,-160 239,-179"/>
<text text-anchor="middle" x="194.5" y="-167" font-family="Helvetica,sans-Serif" font-size="10.00">std::logic_error</text>
</a>
</g>
</g>
<!-- Node0&#45;&gt;Node8 -->
<g id="edge8" class="edge">
<title>Node0&#45;&gt;Node8</title>
<path fill="none" stroke="#63b8ff" d="M72.87,-227.6C102.47,-213.34 147.72,-191.55 173.57,-179.1"/>
<polygon fill="#63b8ff" stroke="#63b8ff" points="71.34,-224.45 63.85,-231.94 74.38,-230.75 71.34,-224.45"/>
</g>
<!-- Node14 -->
<g id="node15" class="node">
<title>Node14</title>
<g id="a_node15"><a xlink:title=" ">
<polygon fill="#e0e0e0" stroke="#999999" points="246.5,-56 142.5,-56 142.5,-37 246.5,-37 246.5,-56"/>
<text text-anchor="middle" x="194.5" y="-44" font-family="Helvetica,sans-Serif" font-size="10.00">std::runtime_error</text>
</a>
</g>
</g>
<!-- Node0&#45;&gt;Node14 -->
<g id="edge14" class="edge">
<title>Node0&#45;&gt;Node14</title>
<path fill="none" stroke="#63b8ff" d="M57.61,-223.75C88.34,-183.66 162.32,-87.18 186.04,-56.23"/>
<polygon fill="#63b8ff" stroke="#63b8ff" points="54.72,-221.76 51.41,-231.83 60.28,-226.02 54.72,-221.76"/>
</g>
<!-- Node4 -->
<g id="node5" class="node">
<title>Node4</title>
<g id="a_node5"><a xlink:href="classccf_1_1ccf__oe__attester__init__error.html" target="_top" xlink:title=" ">
<polygon fill="white" stroke="#666666" points="440.5,-371.5 329.5,-371.5 329.5,-341.5 440.5,-341.5 440.5,-371.5"/>
<text text-anchor="start" x="337.5" y="-359.5" font-family="Helvetica,sans-Serif" font-size="10.00">ccf::ccf_oe_attester</text>
<text text-anchor="middle" x="385" y="-348.5" font-family="Helvetica,sans-Serif" font-size="10.00">_init_error</text>
</a>
</g>
</g>
<!-- Node3&#45;&gt;Node4 -->
<g id="edge4" class="edge">
<title>Node3&#45;&gt;Node4</title>
<path fill="none" stroke="#63b8ff" d="M257.7,-273.94C260.95,-275.59 264.08,-277.43 267,-279.5 290.23,-295.97 280.01,-315.7 303,-332.5 310.82,-338.21 319.99,-342.57 329.29,-345.9"/>
<polygon fill="#63b8ff" stroke="#63b8ff" points="258.8,-270.61 248.23,-269.83 256,-277.03 258.8,-270.61"/>
</g>
<!-- Node5 -->
<g id="node6" class="node">
<title>Node5</title>
<g id="a_node6"><a xlink:href="classccf_1_1ccf__oe__verifier__init__error.html" target="_top" xlink:title=" ">
<polygon fill="white" stroke="#666666" points="438.5,-323.5 331.5,-323.5 331.5,-293.5 438.5,-293.5 438.5,-323.5"/>
<text text-anchor="start" x="339.5" y="-311.5" font-family="Helvetica,sans-Serif" font-size="10.00">ccf::ccf_oe_verifier</text>
<text text-anchor="middle" x="385" y="-300.5" font-family="Helvetica,sans-Serif" font-size="10.00">_init_error</text>
</a>
</g>
</g>
<!-- Node3&#45;&gt;Node5 -->
<g id="edge5" class="edge">
<title>Node3&#45;&gt;Node5</title>
<path fill="none" stroke="#63b8ff" d="M243.14,-272.63C270.04,-279.48 303.71,-288.05 331.38,-295.1"/>
<polygon fill="#63b8ff" stroke="#63b8ff" points="243.75,-269.17 233.19,-270.1 242.02,-275.96 243.75,-269.17"/>
</g>
<!-- Node6 -->
<g id="node7" class="node">
<title>Node6</title>
<g id="a_node7"><a xlink:href="classccf_1_1ccf__openssl__rdrand__init__error.html" target="_top" xlink:title=" ">
<polygon fill="white" stroke="#666666" points="450,-275.5 320,-275.5 320,-245.5 450,-245.5 450,-275.5"/>
<text text-anchor="start" x="328" y="-263.5" font-family="Helvetica,sans-Serif" font-size="10.00">ccf::ccf_openssl_rdrand</text>
<text text-anchor="middle" x="385" y="-252.5" font-family="Helvetica,sans-Serif" font-size="10.00">_init_error</text>
</a>
</g>
</g>
<!-- Node3&#45;&gt;Node6 -->
<g id="edge6" class="edge">
<title>Node3&#45;&gt;Node6</title>
<path fill="none" stroke="#63b8ff" d="M258.14,-260.5C277.92,-260.5 299.8,-260.5 319.7,-260.5"/>
<polygon fill="#63b8ff" stroke="#63b8ff" points="258.01,-257 248.01,-260.5 258.01,-264 258.01,-257"/>
</g>
<!-- Node9 -->
<g id="node10" class="node">
<title>Node9</title>
<g id="a_node10"><a xlink:href="classmessaging_1_1already__handled.html" target="_top" xlink:title=" ">
<polygon fill="white" stroke="#666666" points="441.5,-227.5 328.5,-227.5 328.5,-197.5 441.5,-197.5 441.5,-227.5"/>
<text text-anchor="start" x="336.5" y="-215.5" font-family="Helvetica,sans-Serif" font-size="10.00">messaging::already</text>
<text text-anchor="middle" x="385" y="-204.5" font-family="Helvetica,sans-Serif" font-size="10.00">_handled</text>
</a>
</g>
</g>
<!-- Node8&#45;&gt;Node9 -->
<g id="edge9" class="edge">
<title>Node8&#45;&gt;Node9</title>
<path fill="none" stroke="#63b8ff" d="M247.41,-181.34C272.53,-187.07 302.73,-193.96 328.33,-199.8"/>
<polygon fill="#63b8ff" stroke="#63b8ff" points="247.86,-177.85 237.33,-179.04 246.31,-184.68 247.86,-177.85"/>
</g>
<!-- Node10 -->
<g id="node11" class="node">
<title>Node10</title>
<g id="a_node11"><a xlink:href="classmessaging_1_1no__handler.html" target="_top" xlink:title=" ">
<polygon fill="white" stroke="#666666" points="450,-179 320,-179 320,-160 450,-160 450,-179"/>
<text text-anchor="middle" x="385" y="-167" font-family="Helvetica,sans-Serif" font-size="10.00">messaging::no_handler</text>
</a>
</g>
</g>
<!-- Node8&#45;&gt;Node10 -->
<g id="edge10" class="edge">
<title>Node8&#45;&gt;Node10</title>
<path fill="none" stroke="#63b8ff" d="M249.35,-169.5C271.31,-169.5 296.87,-169.5 319.79,-169.5"/>
<polygon fill="#63b8ff" stroke="#63b8ff" points="249.22,-166 239.22,-169.5 249.22,-173 249.22,-166"/>
</g>
<!-- Node11 -->
<g id="node12" class="node">
<title>Node11</title>
<g id="a_node12"><a xlink:href="classringbuffer_1_1message__error.html" target="_top" xlink:title=" ">
<polygon fill="white" stroke="#666666" points="442,-141.5 328,-141.5 328,-111.5 442,-111.5 442,-141.5"/>
<text text-anchor="start" x="336" y="-129.5" font-family="Helvetica,sans-Serif" font-size="10.00">ringbuffer::message</text>
<text text-anchor="middle" x="385" y="-118.5" font-family="Helvetica,sans-Serif" font-size="10.00">_error</text>
</a>
</g>
</g>
<!-- Node8&#45;&gt;Node11 -->
<g id="edge11" class="edge">
<title>Node8&#45;&gt;Node11</title>
<path fill="none" stroke="#63b8ff" d="M247.36,-157.67C272.38,-151.96 302.44,-145.11 327.98,-139.28"/>
<polygon fill="#63b8ff" stroke="#63b8ff" points="246.31,-154.32 237.33,-159.96 247.86,-161.15 246.31,-154.32"/>
</g>
<!-- Node12 -->
<g id="node13" class="node">
<title>Node12</title>
<g id="a_node13"><a xlink:title=" ">
<polygon fill="#e0e0e0" stroke="#999999" points="446.5,-93 323.5,-93 323.5,-74 446.5,-74 446.5,-93"/>
<text text-anchor="middle" x="385" y="-81" font-family="Helvetica,sans-Serif" font-size="10.00">std::invalid_argument</text>
</a>
</g>
</g>
<!-- Node8&#45;&gt;Node12 -->
<g id="edge12" class="edge">
<title>Node8&#45;&gt;Node12</title>
<path fill="none" stroke="#63b8ff" d="M216.1,-153.78C236.96,-138.59 270.66,-115.94 303,-102.5 312.07,-98.73 322.04,-95.62 331.78,-93.09"/>
<polygon fill="#63b8ff" stroke="#63b8ff" points="213.94,-151.03 207.99,-159.79 218.11,-156.65 213.94,-151.03"/>
</g>
<!-- Node13 -->
<g id="node14" class="node">
<title>Node13</title>
<g id="a_node14"><a xlink:href="classJsonParseError.html" target="_top" xlink:title=" ">
<polygon fill="white" stroke="#666666" points="589,-93 503,-93 503,-74 589,-74 589,-93"/>
<text text-anchor="middle" x="546" y="-81" font-family="Helvetica,sans-Serif" font-size="10.00">JsonParseError</text>
</a>
</g>
</g>
<!-- Node12&#45;&gt;Node13 -->
<g id="edge13" class="edge">
<title>Node12&#45;&gt;Node13</title>
<path fill="none" stroke="#63b8ff" d="M456.81,-83.5C472.53,-83.5 488.72,-83.5 502.87,-83.5"/>
<polygon fill="#63b8ff" stroke="#63b8ff" points="456.56,-80 446.56,-83.5 456.56,-87 456.56,-80"/>
</g>
<!-- Node15 -->
<g id="node16" class="node">
<title>Node15</title>
<g id="a_node16"><a xlink:href="classhttp_1_1RequestHeaderTooLarge.html" target="_top" xlink:title=" ">
<polygon fill="white" stroke="#666666" points="465.5,-56 304.5,-56 304.5,-37 465.5,-37 465.5,-56"/>
<text text-anchor="middle" x="385" y="-44" font-family="Helvetica,sans-Serif" font-size="10.00">http::RequestHeaderTooLarge</text>
</a>
</g>
</g>
<!-- Node14&#45;&gt;Node15 -->
<g id="edge15" class="edge">
<title>Node14&#45;&gt;Node15</title>
<path fill="none" stroke="#63b8ff" d="M256.76,-46.5C271.9,-46.5 288.34,-46.5 304.22,-46.5"/>
<polygon fill="#63b8ff" stroke="#63b8ff" points="256.51,-43 246.51,-46.5 256.51,-50 256.51,-43"/>
</g>
<!-- Node16 -->
<g id="node17" class="node">
<title>Node16</title>
<g id="a_node17"><a xlink:href="classhttp_1_1RequestPayloadTooLarge.html" target="_top" xlink:title=" ">
<polygon fill="white" stroke="#666666" points="467,-19 303,-19 303,0 467,0 467,-19"/>
<text text-anchor="middle" x="385" y="-7" font-family="Helvetica,sans-Serif" font-size="10.00">http::RequestPayloadTooLarge</text>
</a>
</g>
</g>
<!-- Node14&#45;&gt;Node16 -->
<g id="edge16" class="edge">
<title>Node14&#45;&gt;Node16</title>
<path fill="none" stroke="#63b8ff" d="M254.17,-34.98C280.22,-29.87 310.52,-23.92 335.29,-19.06"/>
<polygon fill="#63b8ff" stroke="#63b8ff" points="253.18,-31.61 244.04,-36.97 254.53,-38.48 253.18,-31.61"/>
</g>
</g>
</svg>
