<?xml version="1.0" encoding="UTF-8" standalone="no"?>
<!DOCTYPE svg PUBLIC "-//W3C//DTD SVG 1.1//EN"
 "http://www.w3.org/Graphics/SVG/1.1/DTD/svg11.dtd">
<!-- Generated by graphviz version 2.43.0 (0)
 -->
<!-- Title: include/ccf/js_openenclave_plugin.h Pages: 1 -->
<svg width="416pt" height="104pt"
 viewBox="0.00 0.00 416.00 104.00" xmlns="http://www.w3.org/2000/svg" xmlns:xlink="http://www.w3.org/1999/xlink">
<g id="graph0" class="graph" transform="scale(1 1) rotate(0) translate(4 100)">
<title>include/ccf/js_openenclave_plugin.h</title>
<!-- Node1 -->
<g id="node1" class="node">
<title>Node1</title>
<g id="a_node1"><a xlink:title=" ">
<polygon fill="#999999" stroke="#666666" points="269,-96 121,-96 121,-66 269,-66 269,-96"/>
<text text-anchor="start" x="129" y="-84" font-family="Helvetica,sans-Serif" font-size="10.00">include/ccf/js_openenclave</text>
<text text-anchor="middle" x="195" y="-73" font-family="Helvetica,sans-Serif" font-size="10.00">_plugin.h</text>
</a>
</g>
</g>
<!-- Node2 -->
<g id="node2" class="node">
<title>Node2</title>
<g id="a_node2"><a xlink:href="js__generic_8cpp.html" target="_top" xlink:title=" ">
<polygon fill="white" stroke="#666666" points="110,-30 0,-30 0,0 110,0 110,-30"/>
<text text-anchor="start" x="8" y="-18" font-family="Helvetica,sans-Serif" font-size="10.00">src/apps/js_generic</text>
<text text-anchor="middle" x="55" y="-7" font-family="Helvetica,sans-Serif" font-size="10.00">/js_generic.cpp</text>
</a>
</g>
</g>
<!-- Node1&#45;&gt;Node2 -->
<g id="edge1" class="edge">
<title>Node1&#45;&gt;Node2</title>
<path fill="none" stroke="#63b8ff" d="M155.15,-61.78C133.08,-51.69 106.06,-39.34 85.65,-30.01"/>
<polygon fill="#63b8ff" stroke="#63b8ff" points="153.73,-64.98 164.28,-65.95 156.64,-58.61 153.73,-64.98"/>
</g>
<!-- Node3 -->
<g id="node3" class="node">
<title>Node3</title>
<g id="a_node3"><a xlink:href="js__v8_8cpp.html" target="_top" xlink:title=" ">
<polygon fill="white" stroke="#666666" points="262,-24.5 128,-24.5 128,-5.5 262,-5.5 262,-24.5"/>
<text text-anchor="middle" x="195" y="-12.5" font-family="Helvetica,sans-Serif" font-size="10.00">src/apps/js_v8/js_v8.cpp</text>
</a>
</g>
</g>
<!-- Node1&#45;&gt;Node3 -->
<g id="edge2" class="edge">
<title>Node1&#45;&gt;Node3</title>
<path fill="none" stroke="#63b8ff" d="M195,-55.6C195,-44.8 195,-32.78 195,-24.84"/>
<polygon fill="#63b8ff" stroke="#63b8ff" points="191.5,-55.8 195,-65.8 198.5,-55.8 191.5,-55.8"/>
</g>
<!-- Node4 -->
<g id="node4" class="node">
<title>Node4</title>
<g id="a_node4"><a xlink:href="openenclave_8cpp.html" target="_top" xlink:title=" ">
<polygon fill="white" stroke="#666666" points="408,-24.5 280,-24.5 280,-5.5 408,-5.5 408,-24.5"/>
<text text-anchor="middle" x="344" y="-12.5" font-family="Helvetica,sans-Serif" font-size="10.00">src/js/openenclave.cpp</text>
</a>
</g>
</g>
<!-- Node1&#45;&gt;Node4 -->
<g id="edge3" class="edge">
<title>Node1&#45;&gt;Node4</title>
<path fill="none" stroke="#63b8ff" d="M237.04,-61.94C265.59,-49.68 302.04,-34.02 324.17,-24.52"/>
<polygon fill="#63b8ff" stroke="#63b8ff" points="235.51,-58.79 227.7,-65.95 238.27,-65.22 235.51,-58.79"/>
</g>
</g>
</svg>
