<?xml version="1.0" encoding="UTF-8" standalone="no"?>
<!DOCTYPE svg PUBLIC "-//W3C//DTD SVG 1.1//EN"
 "http://www.w3.org/Graphics/SVG/1.1/DTD/svg11.dtd">
<!-- Generated by graphviz version 2.43.0 (0)
 -->
<!-- Title: include/ccf/endpoints/authentication/jwt_auth.h Pages: 1 -->
<!--zoomable 467 -->
<svg id="main" version="1.1" xmlns="http://www.w3.org/2000/svg" xmlns:xlink="http://www.w3.org/1999/xlink" xml:space="preserve" onload="init(evt)">
<style type="text/css"><![CDATA[
.edge:hover path { stroke: red; }
.edge:hover polygon { stroke: red; fill: red; }
]]></style>
<script type="text/javascript"><![CDATA[
var edges = document.getElementsByTagName('g');
if (edges && edges.length) {
  for (var i=0;i<edges.length;i++) {
    if (edges[i].id.substr(0,4)=='edge') {
      edges[i].setAttribute('class','edge');
    }
  }
}
]]></script>
        <defs>
                <circle id="rim" cx="0" cy="0" r="7"/>
                <circle id="rim2" cx="0" cy="0" r="3.5"/>
                <g id="zoomPlus">
                        <use xlink:href="#rim" fill="#404040">
                                <set attributeName="fill" to="#808080" begin="zoomplus.mouseover" end="zoomplus.mouseout"/>
                        </use>
                        <path d="M-4,0h8M0,-4v8" fill="none" stroke="white" stroke-width="1.5" pointer-events="none"/>
                </g>
                <g id="zoomMin">
                        <use xlink:href="#rim" fill="#404040">
                                <set attributeName="fill" to="#808080" begin="zoomminus.mouseover" end="zoomminus.mouseout"/>
                        </use>
                        <path d="M-4,0h8" fill="none" stroke="white" stroke-width="1.5" pointer-events="none"/>
                </g>
                <g id="dirArrow">
                        <path fill="none" stroke="white" stroke-width="1.5" d="M0,-3.0v7 M-2.5,-0.5L0,-3.0L2.5,-0.5"/>
                </g>
               <g id="resetDef">
                       <use xlink:href="#rim2" fill="#404040">
                               <set attributeName="fill" to="#808080" begin="reset.mouseover" end="reset.mouseout"/>
                       </use>
               </g>
        </defs>

<script type="text/javascript">
var viewWidth = 1561;
var viewHeight = 467;
var sectionId = 'dynsection-1';
</script>
<script xlink:href="svgpan.js"/>
<svg id="graph" class="graph">
<g id="viewport">
<title>include/ccf/endpoints/authentication/jwt_auth.h</title>
<!-- Node1 -->
<g id="node1" class="node">
<title>Node1</title>
<g id="a_node1"><a xlink:title=" ">
<polygon fill="#999999" stroke="#666666" points="1381.5,-459 1237.5,-459 1237.5,-429 1381.5,-429 1381.5,-459"/>
<text text-anchor="start" x="1245.5" y="-447" font-family="Helvetica,sans-Serif" font-size="10.00">include/ccf/endpoints</text>
<text text-anchor="middle" x="1309.5" y="-436" font-family="Helvetica,sans-Serif" font-size="10.00">/authentication/jwt_auth.h</text>
</a>
</g>
</g>
<!-- Node2 -->
<g id="node2" class="node">
<title>Node2</title>
<g id="a_node2"><a xlink:href="common__auth__policies_8h.html" target="_top" xlink:title=" ">
<polygon fill="white" stroke="#666666" points="793,-393 678,-393 678,-363 793,-363 793,-393"/>
<text text-anchor="start" x="686" y="-381" font-family="Helvetica,sans-Serif" font-size="10.00">include/ccf/common</text>
<text text-anchor="middle" x="735.5" y="-370" font-family="Helvetica,sans-Serif" font-size="10.00">_auth_policies.h</text>
</a>
</g>
</g>
<!-- Node1&#45;&gt;Node2 -->
<g id="edge1" class="edge">
<title>Node1&#45;&gt;Node2</title>
<path fill="none" stroke="#63b8ff" d="M1227.33,-433.84C1109.49,-420.7 895.45,-396.83 793.06,-385.42"/>
<polygon fill="#63b8ff" stroke="#63b8ff" points="1227.06,-437.33 1237.38,-434.96 1227.83,-430.37 1227.06,-437.33"/>
</g>
<!-- Node19 -->
<g id="node19" class="node">
<title>Node19</title>
<g id="a_node19"><a xlink:href="request__authn__identity_8h.html" target="_top" xlink:title=" ">
<polygon fill="white" stroke="#666666" points="1379.5,-393 1239.5,-393 1239.5,-363 1379.5,-363 1379.5,-393"/>
<text text-anchor="start" x="1247.5" y="-381" font-family="Helvetica,sans-Serif" font-size="10.00">src/apps/js_v8/tmpl</text>
<text text-anchor="middle" x="1309.5" y="-370" font-family="Helvetica,sans-Serif" font-size="10.00">/request_authn_identity.h</text>
</a>
</g>
</g>
<!-- Node1&#45;&gt;Node19 -->
<g id="edge21" class="edge">
<title>Node1&#45;&gt;Node19</title>
<path fill="none" stroke="#63b8ff" d="M1309.5,-418.54C1309.5,-409.96 1309.5,-400.61 1309.5,-393.16"/>
<polygon fill="#63b8ff" stroke="#63b8ff" points="1306,-418.8 1309.5,-428.8 1313,-418.8 1306,-418.8"/>
</g>
<!-- Node22 -->
<g id="node22" class="node">
<title>Node22</title>
<g id="a_node22"><a xlink:href="jwt__auth_8cpp.html" target="_top" xlink:title=" ">
<polygon fill="white" stroke="#666666" points="1553,-393 1398,-393 1398,-363 1553,-363 1553,-393"/>
<text text-anchor="start" x="1406" y="-381" font-family="Helvetica,sans-Serif" font-size="10.00">src/endpoints/authentication</text>
<text text-anchor="middle" x="1475.5" y="-370" font-family="Helvetica,sans-Serif" font-size="10.00">/jwt_auth.cpp</text>
</a>
</g>
</g>
<!-- Node1&#45;&gt;Node22 -->
<g id="edge24" class="edge">
<title>Node1&#45;&gt;Node22</title>
<path fill="none" stroke="#63b8ff" d="M1355.35,-425.32C1381.77,-415.14 1414.52,-402.51 1439.16,-393.01"/>
<polygon fill="#63b8ff" stroke="#63b8ff" points="1354,-422.09 1345.93,-428.95 1356.52,-428.62 1354,-422.09"/>
</g>
<!-- Node3 -->
<g id="node3" class="node">
<title>Node3</title>
<g id="a_node3"><a xlink:href="logging_8cpp.html" target="_top" xlink:title=" ">
<polygon fill="white" stroke="#666666" points="123,-327 0,-327 0,-297 123,-297 123,-327"/>
<text text-anchor="start" x="8" y="-315" font-family="Helvetica,sans-Serif" font-size="10.00">samples/apps/logging</text>
<text text-anchor="middle" x="61.5" y="-304" font-family="Helvetica,sans-Serif" font-size="10.00">/logging.cpp</text>
</a>
</g>
</g>
<!-- Node2&#45;&gt;Node3 -->
<g id="edge2" class="edge">
<title>Node2&#45;&gt;Node3</title>
<path fill="none" stroke="#63b8ff" d="M667.65,-373.93C555.59,-368.28 324.98,-354.27 131.5,-327 128.8,-326.62 126.05,-326.2 123.27,-325.75"/>
<polygon fill="#63b8ff" stroke="#63b8ff" points="667.63,-377.43 677.79,-374.43 667.98,-370.44 667.63,-377.43"/>
</g>
<!-- Node4 -->
<g id="node4" class="node">
<title>Node4</title>
<g id="a_node4"><a xlink:href="nobuiltins_8cpp.html" target="_top" xlink:title=" ">
<polygon fill="white" stroke="#666666" points="276,-327 141,-327 141,-297 276,-297 276,-327"/>
<text text-anchor="start" x="149" y="-315" font-family="Helvetica,sans-Serif" font-size="10.00">samples/apps/nobuiltins</text>
<text text-anchor="middle" x="208.5" y="-304" font-family="Helvetica,sans-Serif" font-size="10.00">/nobuiltins.cpp</text>
</a>
</g>
</g>
<!-- Node2&#45;&gt;Node4 -->
<g id="edge3" class="edge">
<title>Node2&#45;&gt;Node4</title>
<path fill="none" stroke="#63b8ff" d="M667.65,-370.94C579.4,-362.71 420.54,-346.75 285.5,-327 282.41,-326.55 279.25,-326.06 276.06,-325.56"/>
<polygon fill="#63b8ff" stroke="#63b8ff" points="667.52,-374.44 677.8,-371.88 668.16,-367.47 667.52,-374.44"/>
</g>
<!-- Node5 -->
<g id="node5" class="node">
<title>Node5</title>
<g id="a_node5"><a xlink:href="js__generic_2named__auth__policies_8h.html" target="_top" xlink:title=" ">
<polygon fill="white" stroke="#666666" points="426.5,-327 294.5,-327 294.5,-297 426.5,-297 426.5,-327"/>
<text text-anchor="start" x="302.5" y="-315" font-family="Helvetica,sans-Serif" font-size="10.00">src/apps/js_generic</text>
<text text-anchor="middle" x="360.5" y="-304" font-family="Helvetica,sans-Serif" font-size="10.00">/named_auth_policies.h</text>
</a>
</g>
</g>
<!-- Node2&#45;&gt;Node5 -->
<g id="edge4" class="edge">
<title>Node2&#45;&gt;Node5</title>
<path fill="none" stroke="#63b8ff" d="M667.69,-366.08C606.84,-356.2 515.13,-341.07 435.5,-327 432.63,-326.49 429.7,-325.97 426.74,-325.44"/>
<polygon fill="#63b8ff" stroke="#63b8ff" points="667.5,-369.6 677.93,-367.75 668.62,-362.69 667.5,-369.6"/>
</g>
<!-- Node7 -->
<g id="node7" class="node">
<title>Node7</title>
<g id="a_node7"><a xlink:href="js__v8_2named__auth__policies_8h.html" target="_top" xlink:title=" ">
<polygon fill="white" stroke="#666666" points="566.5,-327 444.5,-327 444.5,-297 566.5,-297 566.5,-327"/>
<text text-anchor="start" x="452.5" y="-315" font-family="Helvetica,sans-Serif" font-size="10.00">src/apps/js_v8/named</text>
<text text-anchor="middle" x="505.5" y="-304" font-family="Helvetica,sans-Serif" font-size="10.00">_auth_policies.h</text>
</a>
</g>
</g>
<!-- Node2&#45;&gt;Node7 -->
<g id="edge6" class="edge">
<title>Node2&#45;&gt;Node7</title>
<path fill="none" stroke="#63b8ff" d="M675.32,-360.25C638.16,-349.91 591.03,-336.8 555.86,-327.01"/>
<polygon fill="#63b8ff" stroke="#63b8ff" points="674.45,-363.65 685.03,-362.95 676.33,-356.9 674.45,-363.65"/>
</g>
<!-- Node9 -->
<g id="node9" class="node">
<title>Node9</title>
<g id="a_node9"><a xlink:href="tpcc_8cpp.html" target="_top" xlink:title=" ">
<polygon fill="white" stroke="#666666" points="730,-321.5 585,-321.5 585,-302.5 730,-302.5 730,-321.5"/>
<text text-anchor="middle" x="657.5" y="-309.5" font-family="Helvetica,sans-Serif" font-size="10.00">src/apps/tpcc/app/tpcc.cpp</text>
</a>
</g>
</g>
<!-- Node2&#45;&gt;Node9 -->
<g id="edge8" class="edge">
<title>Node2&#45;&gt;Node9</title>
<path fill="none" stroke="#63b8ff" d="M710.22,-356.26C696.03,-344.61 679.06,-330.69 668.28,-321.84"/>
<polygon fill="#63b8ff" stroke="#63b8ff" points="708.24,-359.16 718.19,-362.8 712.68,-353.75 708.24,-359.16"/>
</g>
<!-- Node10 -->
<g id="node10" class="node">
<title>Node10</title>
<g id="a_node10"><a xlink:href="common__endpoint__registry_8cpp.html" target="_top" xlink:title=" ">
<polygon fill="white" stroke="#666666" points="876.5,-327 748.5,-327 748.5,-297 876.5,-297 876.5,-327"/>
<text text-anchor="start" x="756.5" y="-315" font-family="Helvetica,sans-Serif" font-size="10.00">src/endpoints/common</text>
<text text-anchor="middle" x="812.5" y="-304" font-family="Helvetica,sans-Serif" font-size="10.00">_endpoint_registry.cpp</text>
</a>
</g>
</g>
<!-- Node2&#45;&gt;Node10 -->
<g id="edge9" class="edge">
<title>Node2&#45;&gt;Node10</title>
<path fill="none" stroke="#63b8ff" d="M760.52,-356.2C771.95,-346.7 785.2,-335.69 795.46,-327.16"/>
<polygon fill="#63b8ff" stroke="#63b8ff" points="758.04,-353.71 752.59,-362.8 762.52,-359.1 758.04,-353.71"/>
</g>
<!-- Node11 -->
<g id="node11" class="node">
<title>Node11</title>
<g id="a_node11"><a xlink:href="endpoint__registry_8cpp.html" target="_top" xlink:title=" ">
<polygon fill="white" stroke="#666666" points="1022.5,-327 894.5,-327 894.5,-297 1022.5,-297 1022.5,-327"/>
<text text-anchor="start" x="902.5" y="-315" font-family="Helvetica,sans-Serif" font-size="10.00">src/endpoints/endpoint</text>
<text text-anchor="middle" x="958.5" y="-304" font-family="Helvetica,sans-Serif" font-size="10.00">_registry.cpp</text>
</a>
</g>
</g>
<!-- Node2&#45;&gt;Node11 -->
<g id="edge10" class="edge">
<title>Node2&#45;&gt;Node11</title>
<path fill="none" stroke="#63b8ff" d="M794.31,-360.12C830.27,-349.8 875.72,-336.76 909.68,-327.01"/>
<polygon fill="#63b8ff" stroke="#63b8ff" points="793.08,-356.83 784.44,-362.95 795.02,-363.56 793.08,-356.83"/>
</g>
<!-- Node12 -->
<g id="node12" class="node">
<title>Node12</title>
<g id="a_node12"><a xlink:href="member__frontend_8h.html" target="_top" xlink:title=" ">
<polygon fill="white" stroke="#666666" points="1110.5,-195 990.5,-195 990.5,-165 1110.5,-165 1110.5,-195"/>
<text text-anchor="start" x="998.5" y="-183" font-family="Helvetica,sans-Serif" font-size="10.00">src/node/rpc/member</text>
<text text-anchor="middle" x="1050.5" y="-172" font-family="Helvetica,sans-Serif" font-size="10.00">_frontend.h</text>
</a>
</g>
</g>
<!-- Node2&#45;&gt;Node12 -->
<g id="edge11" class="edge">
<title>Node2&#45;&gt;Node12</title>
<path fill="none" stroke="#63b8ff" d="M803.37,-374.64C880.85,-370.44 1000.84,-358.84 1031.5,-327 1066.25,-290.91 1058.93,-224.5 1053.58,-195.35"/>
<polygon fill="#63b8ff" stroke="#63b8ff" points="803.01,-371.15 793.2,-375.16 803.37,-378.14 803.01,-371.15"/>
</g>
<!-- Node15 -->
<g id="node15" class="node">
<title>Node15</title>
<g id="a_node15"><a xlink:href="node__frontend_8h.html" target="_top" xlink:title=" ">
<polygon fill="white" stroke="#666666" points="1236.5,-321.5 1078.5,-321.5 1078.5,-302.5 1236.5,-302.5 1236.5,-321.5"/>
<text text-anchor="middle" x="1157.5" y="-309.5" font-family="Helvetica,sans-Serif" font-size="10.00">src/node/rpc/node_frontend.h</text>
</a>
</g>
</g>
<!-- Node2&#45;&gt;Node15 -->
<g id="edge14" class="edge">
<title>Node2&#45;&gt;Node15</title>
<path fill="none" stroke="#63b8ff" d="M803.35,-366.71C886.09,-354.16 1024.41,-333.19 1101.41,-321.51"/>
<polygon fill="#63b8ff" stroke="#63b8ff" points="802.65,-363.28 793.29,-368.24 803.7,-370.2 802.65,-363.28"/>
</g>
<!-- Node6 -->
<g id="node6" class="node">
<title>Node6</title>
<g id="a_node6"><a xlink:href="js__generic__base_8cpp.html" target="_top" xlink:title=" ">
<polygon fill="white" stroke="#666666" points="419.5,-261 301.5,-261 301.5,-231 419.5,-231 419.5,-261"/>
<text text-anchor="start" x="309.5" y="-249" font-family="Helvetica,sans-Serif" font-size="10.00">src/apps/js_generic</text>
<text text-anchor="middle" x="360.5" y="-238" font-family="Helvetica,sans-Serif" font-size="10.00">/js_generic_base.cpp</text>
</a>
</g>
</g>
<!-- Node5&#45;&gt;Node6 -->
<g id="edge5" class="edge">
<title>Node5&#45;&gt;Node6</title>
<path fill="none" stroke="#63b8ff" d="M360.5,-286.54C360.5,-277.96 360.5,-268.61 360.5,-261.16"/>
<polygon fill="#63b8ff" stroke="#63b8ff" points="357,-286.8 360.5,-296.8 364,-286.8 357,-286.8"/>
</g>
<!-- Node8 -->
<g id="node8" class="node">
<title>Node8</title>
<g id="a_node8"><a xlink:href="js__v8__base_8cpp.html" target="_top" xlink:title=" ">
<polygon fill="white" stroke="#666666" points="562.5,-261 448.5,-261 448.5,-231 562.5,-231 562.5,-261"/>
<text text-anchor="start" x="456.5" y="-249" font-family="Helvetica,sans-Serif" font-size="10.00">src/apps/js_v8/js_v8</text>
<text text-anchor="middle" x="505.5" y="-238" font-family="Helvetica,sans-Serif" font-size="10.00">_base.cpp</text>
</a>
</g>
</g>
<!-- Node7&#45;&gt;Node8 -->
<g id="edge7" class="edge">
<title>Node7&#45;&gt;Node8</title>
<path fill="none" stroke="#63b8ff" d="M505.5,-286.54C505.5,-277.96 505.5,-268.61 505.5,-261.16"/>
<polygon fill="#63b8ff" stroke="#63b8ff" points="502,-286.8 505.5,-296.8 509,-286.8 502,-286.8"/>
</g>
<!-- Node13 -->
<g id="node13" class="node">
<title>Node13</title>
<g id="a_node13"><a xlink:href="enclave_2enclave_8h.html" target="_top" xlink:title=" ">
<polygon fill="white" stroke="#666666" points="1218.5,-74 1096.5,-74 1096.5,-55 1218.5,-55 1218.5,-74"/>
<text text-anchor="middle" x="1157.5" y="-62" font-family="Helvetica,sans-Serif" font-size="10.00">src/enclave/enclave.h</text>
</a>
</g>
</g>
<!-- Node12&#45;&gt;Node13 -->
<g id="edge12" class="edge">
<title>Node12&#45;&gt;Node13</title>
<path fill="none" stroke="#63b8ff" d="M1070.92,-157.34C1094.64,-132.18 1132.65,-91.86 1149.27,-74.23"/>
<polygon fill="#63b8ff" stroke="#63b8ff" points="1068.36,-154.95 1064.05,-164.63 1073.46,-159.75 1068.36,-154.95"/>
</g>
<!-- Node14 -->
<g id="node14" class="node">
<title>Node14</title>
<g id="a_node14"><a xlink:href="enclave_2main_8cpp.html" target="_top" xlink:title=" ">
<polygon fill="white" stroke="#666666" points="1217.5,-19 1097.5,-19 1097.5,0 1217.5,0 1217.5,-19"/>
<text text-anchor="middle" x="1157.5" y="-7" font-family="Helvetica,sans-Serif" font-size="10.00">src/enclave/main.cpp</text>
</a>
</g>
</g>
<!-- Node13&#45;&gt;Node14 -->
<g id="edge13" class="edge">
<title>Node13&#45;&gt;Node14</title>
<path fill="none" stroke="#63b8ff" d="M1157.5,-44.66C1157.5,-35.93 1157.5,-25.99 1157.5,-19.09"/>
<polygon fill="#63b8ff" stroke="#63b8ff" points="1154,-44.75 1157.5,-54.75 1161,-44.75 1154,-44.75"/>
</g>
<!-- Node15&#45;&gt;Node13 -->
<g id="edge15" class="edge">
<title>Node15&#45;&gt;Node13</title>
<path fill="none" stroke="#63b8ff" d="M1157.5,-291.97C1157.5,-242.15 1157.5,-109.29 1157.5,-74.13"/>
<polygon fill="#63b8ff" stroke="#63b8ff" points="1154,-292.26 1157.5,-302.26 1161,-292.26 1154,-292.26"/>
</g>
<!-- Node16 -->
<g id="node16" class="node">
<title>Node16</title>
<g id="a_node16"><a xlink:href="jwt__key__auto__refresh_8h.html" target="_top" xlink:title=" ">
<polygon fill="white" stroke="#666666" points="1292,-261 1167,-261 1167,-231 1292,-231 1292,-261"/>
<text text-anchor="start" x="1175" y="-249" font-family="Helvetica,sans-Serif" font-size="10.00">src/node/jwt_key_auto</text>
<text text-anchor="middle" x="1229.5" y="-238" font-family="Helvetica,sans-Serif" font-size="10.00">_refresh.h</text>
</a>
</g>
</g>
<!-- Node15&#45;&gt;Node16 -->
<g id="edge16" class="edge">
<title>Node15&#45;&gt;Node16</title>
<path fill="none" stroke="#63b8ff" d="M1174.7,-295.71C1186.52,-285.21 1202.09,-271.36 1213.62,-261.12"/>
<polygon fill="#63b8ff" stroke="#63b8ff" points="1172.36,-293.11 1167.21,-302.37 1177.01,-298.34 1172.36,-293.11"/>
</g>
<!-- Node17 -->
<g id="node17" class="node">
<title>Node17</title>
<g id="a_node17"><a xlink:href="node__state_8h.html" target="_top" xlink:title=" ">
<polygon fill="white" stroke="#666666" points="1291.5,-189.5 1167.5,-189.5 1167.5,-170.5 1291.5,-170.5 1291.5,-189.5"/>
<text text-anchor="middle" x="1229.5" y="-177.5" font-family="Helvetica,sans-Serif" font-size="10.00">src/node/node_state.h</text>
</a>
</g>
</g>
<!-- Node16&#45;&gt;Node17 -->
<g id="edge17" class="edge">
<title>Node16&#45;&gt;Node17</title>
<path fill="none" stroke="#63b8ff" d="M1229.5,-220.6C1229.5,-209.8 1229.5,-197.78 1229.5,-189.84"/>
<polygon fill="#63b8ff" stroke="#63b8ff" points="1226,-220.8 1229.5,-230.8 1233,-220.8 1226,-220.8"/>
</g>
<!-- Node17&#45;&gt;Node13 -->
<g id="edge18" class="edge">
<title>Node17&#45;&gt;Node13</title>
<path fill="none" stroke="#63b8ff" d="M1217.58,-161.99C1210.94,-152.4 1202.61,-140.13 1195.5,-129 1183.19,-109.72 1169.63,-86.55 1162.51,-74.22"/>
<polygon fill="#63b8ff" stroke="#63b8ff" points="1214.74,-164.04 1223.32,-170.25 1220.48,-160.04 1214.74,-164.04"/>
</g>
<!-- Node18 -->
<g id="node18" class="node">
<title>Node18</title>
<g id="a_node18"><a xlink:href="gov__effects_8h.html" target="_top" xlink:title=" ">
<polygon fill="white" stroke="#666666" points="1348.5,-129 1204.5,-129 1204.5,-110 1348.5,-110 1348.5,-129"/>
<text text-anchor="middle" x="1276.5" y="-117" font-family="Helvetica,sans-Serif" font-size="10.00">src/node/rpc/gov_effects.h</text>
</a>
</g>
</g>
<!-- Node17&#45;&gt;Node18 -->
<g id="edge19" class="edge">
<title>Node17&#45;&gt;Node18</title>
<path fill="none" stroke="#63b8ff" d="M1242.8,-162.45C1251.5,-151.62 1262.51,-137.91 1269.54,-129.17"/>
<polygon fill="#63b8ff" stroke="#63b8ff" points="1239.97,-160.38 1236.44,-170.37 1245.43,-164.76 1239.97,-160.38"/>
</g>
<!-- Node18&#45;&gt;Node13 -->
<g id="edge20" class="edge">
<title>Node18&#45;&gt;Node13</title>
<path fill="none" stroke="#63b8ff" d="M1248.2,-105.9C1226.22,-96.11 1196.32,-82.79 1176.97,-74.17"/>
<polygon fill="#63b8ff" stroke="#63b8ff" points="1246.82,-109.11 1257.38,-109.98 1249.67,-102.72 1246.82,-109.11"/>
</g>
<!-- Node20 -->
<g id="node20" class="node">
<title>Node20</title>
<g id="a_node20"><a xlink:href="request_8cpp.html" target="_top" xlink:title=" ">
<polygon fill="white" stroke="#666666" points="1365,-327 1254,-327 1254,-297 1365,-297 1365,-327"/>
<text text-anchor="start" x="1262" y="-315" font-family="Helvetica,sans-Serif" font-size="10.00">src/apps/js_v8/tmpl</text>
<text text-anchor="middle" x="1309.5" y="-304" font-family="Helvetica,sans-Serif" font-size="10.00">/request.cpp</text>
</a>
</g>
</g>
<!-- Node19&#45;&gt;Node20 -->
<g id="edge22" class="edge">
<title>Node19&#45;&gt;Node20</title>
<path fill="none" stroke="#63b8ff" d="M1309.5,-352.54C1309.5,-343.96 1309.5,-334.61 1309.5,-327.16"/>
<polygon fill="#63b8ff" stroke="#63b8ff" points="1306,-352.8 1309.5,-362.8 1313,-352.8 1306,-352.8"/>
</g>
<!-- Node21 -->
<g id="node21" class="node">
<title>Node21</title>
<g id="a_node21"><a xlink:href="request__authn__identity_8cpp.html" target="_top" xlink:title=" ">
<polygon fill="white" stroke="#666666" points="1534,-327 1383,-327 1383,-297 1534,-297 1534,-327"/>
<text text-anchor="start" x="1391" y="-315" font-family="Helvetica,sans-Serif" font-size="10.00">src/apps/js_v8/tmpl</text>
<text text-anchor="middle" x="1458.5" y="-304" font-family="Helvetica,sans-Serif" font-size="10.00">/request_authn_identity.cpp</text>
</a>
</g>
</g>
<!-- Node19&#45;&gt;Node21 -->
<g id="edge23" class="edge">
<title>Node19&#45;&gt;Node21</title>
<path fill="none" stroke="#63b8ff" d="M1351.59,-358.92C1375.14,-348.8 1404.06,-336.38 1425.88,-327.01"/>
<polygon fill="#63b8ff" stroke="#63b8ff" points="1350.01,-355.79 1342.2,-362.95 1352.77,-362.22 1350.01,-355.79"/>
</g>
</g>
</svg>
        <g id="navigator" transform="translate(0 0)" fill="#404254">
                <rect fill="#f2f5e9" fill-opacity="0.5" stroke="#606060" stroke-width=".5" x="0" y="0" width="60" height="60"/>
                <use id="zoomplus" xlink:href="#zoomPlus" x="17" y="9" onmousedown="handleZoom(evt,'in')"/>
                <use id="zoomminus" xlink:href="#zoomMin" x="42" y="9" onmousedown="handleZoom(evt,'out')"/>
                <use id="reset" xlink:href="#resetDef" x="30" y="36" onmousedown="handleReset()"/>
                <g id="arrowUp" xlink:href="#dirArrow" transform="translate(30 24)" onmousedown="handlePan(0,-1)">
                  <use xlink:href="#rim" fill="#404040">
                        <set attributeName="fill" to="#808080" begin="arrowUp.mouseover" end="arrowUp.mouseout"/>
                  </use>
                  <path fill="none" stroke="white" stroke-width="1.5" d="M0,-3.0v7 M-2.5,-0.5L0,-3.0L2.5,-0.5"/>
                </g>
                <g id="arrowRight" xlink:href="#dirArrow" transform="rotate(90) translate(36 -43)" onmousedown="handlePan(1,0)">
                  <use xlink:href="#rim" fill="#404040">
                        <set attributeName="fill" to="#808080" begin="arrowRight.mouseover" end="arrowRight.mouseout"/>
                  </use>
                  <path fill="none" stroke="white" stroke-width="1.5" d="M0,-3.0v7 M-2.5,-0.5L0,-3.0L2.5,-0.5"/>
                </g>
                <g id="arrowDown" xlink:href="#dirArrow" transform="rotate(180) translate(-30 -48)" onmousedown="handlePan(0,1)">
                  <use xlink:href="#rim" fill="#404040">
                        <set attributeName="fill" to="#808080" begin="arrowDown.mouseover" end="arrowDown.mouseout"/>
                  </use>
                  <path fill="none" stroke="white" stroke-width="1.5" d="M0,-3.0v7 M-2.5,-0.5L0,-3.0L2.5,-0.5"/>
                </g>
                <g id="arrowLeft" xlink:href="#dirArrow" transform="rotate(270) translate(-36 17)" onmousedown="handlePan(-1,0)">
                  <use xlink:href="#rim" fill="#404040">
                        <set attributeName="fill" to="#808080" begin="arrowLeft.mouseover" end="arrowLeft.mouseout"/>
                  </use>
                  <path fill="none" stroke="white" stroke-width="1.5" d="M0,-3.0v7 M-2.5,-0.5L0,-3.0L2.5,-0.5"/>
                </g>
        </g>
        <svg viewBox="0 0 15 15" width="100%" height="30px" preserveAspectRatio="xMaxYMin meet">
         <g id="arrow_out" transform="scale(0.3 0.3)">
          <a xlink:href="jwt__auth_8h__dep__incl_org.svg" target="_base">
           <rect id="button" ry="5" rx="5" y="6" x="6" height="38" width="38"
                fill="#f2f5e9" fill-opacity="0.5" stroke="#606060" stroke-width="1.0"/>
           <path id="arrow"
             d="M 11.500037,31.436501 C 11.940474,20.09759 22.043105,11.32322 32.158766,21.979434 L 37.068811,17.246167 C 37.068811,17.246167 37.088388,32 37.088388,32 L 22.160133,31.978069 C 22.160133,31.978069 26.997745,27.140456 26.997745,27.140456 C 18.528582,18.264221 13.291696,25.230495 11.500037,31.436501 z"
             style="fill:#404040;"/>
          </a>
         </g>
        </svg>
</svg>
