<?xml version="1.0" encoding="UTF-8" standalone="no"?>
<!DOCTYPE svg PUBLIC "-//W3C//DTD SVG 1.1//EN"
 "http://www.w3.org/Graphics/SVG/1.1/DTD/svg11.dtd">
<!-- Generated by graphviz version 2.43.0 (0)
 -->
<!-- Title: src/node/ledger_secrets.h Pages: 1 -->
<!--zoomable 588 -->
<svg id="main" version="1.1" xmlns="http://www.w3.org/2000/svg" xmlns:xlink="http://www.w3.org/1999/xlink" xml:space="preserve" onload="init(evt)">
<style type="text/css"><![CDATA[
.edge:hover path { stroke: red; }
.edge:hover polygon { stroke: red; fill: red; }
]]></style>
<script type="text/javascript"><![CDATA[
var edges = document.getElementsByTagName('g');
if (edges && edges.length) {
  for (var i=0;i<edges.length;i++) {
    if (edges[i].id.substr(0,4)=='edge') {
      edges[i].setAttribute('class','edge');
    }
  }
}
]]></script>
        <defs>
                <circle id="rim" cx="0" cy="0" r="7"/>
                <circle id="rim2" cx="0" cy="0" r="3.5"/>
                <g id="zoomPlus">
                        <use xlink:href="#rim" fill="#404040">
                                <set attributeName="fill" to="#808080" begin="zoomplus.mouseover" end="zoomplus.mouseout"/>
                        </use>
                        <path d="M-4,0h8M0,-4v8" fill="none" stroke="white" stroke-width="1.5" pointer-events="none"/>
                </g>
                <g id="zoomMin">
                        <use xlink:href="#rim" fill="#404040">
                                <set attributeName="fill" to="#808080" begin="zoomminus.mouseover" end="zoomminus.mouseout"/>
                        </use>
                        <path d="M-4,0h8" fill="none" stroke="white" stroke-width="1.5" pointer-events="none"/>
                </g>
                <g id="dirArrow">
                        <path fill="none" stroke="white" stroke-width="1.5" d="M0,-3.0v7 M-2.5,-0.5L0,-3.0L2.5,-0.5"/>
                </g>
               <g id="resetDef">
                       <use xlink:href="#rim2" fill="#404040">
                               <set attributeName="fill" to="#808080" begin="reset.mouseover" end="reset.mouseout"/>
                       </use>
               </g>
        </defs>

<script type="text/javascript">
var viewWidth = 2108;
var viewHeight = 588;
var sectionId = 'dynsection-1';
</script>
<script xlink:href="svgpan.js"/>
<svg id="graph" class="graph">
<g id="viewport">
<title>src/node/ledger_secrets.h</title>
<!-- Node1 -->
<g id="node1" class="node">
<title>Node1</title>
<g id="a_node1"><a xlink:title=" ">
<polygon fill="#999999" stroke="#666666" points="626.5,-580 485.5,-580 485.5,-561 626.5,-561 626.5,-580"/>
<text text-anchor="middle" x="556" y="-568" font-family="Helvetica,sans-Serif" font-size="10.00">src/node/ledger_secrets.h</text>
</a>
</g>
</g>
<!-- Node2 -->
<g id="node2" class="node">
<title>Node2</title>
<g id="a_node2"><a xlink:href="node_2encryptor_8h.html" target="_top" xlink:title=" ">
<polygon fill="white" stroke="#666666" points="328,-266.5 212,-266.5 212,-247.5 328,-247.5 328,-266.5"/>
<text text-anchor="middle" x="270" y="-254.5" font-family="Helvetica,sans-Serif" font-size="10.00">src/node/encryptor.h</text>
</a>
</g>
</g>
<!-- Node1&#45;&gt;Node2 -->
<g id="edge1" class="edge">
<title>Node1&#45;&gt;Node2</title>
<path fill="none" stroke="#63b8ff" d="M475.1,-567.52C329.43,-561.73 38,-539.09 38,-450.5 38,-450.5 38,-450.5 38,-388 38,-348.64 45.64,-333.05 76,-308 114.23,-276.46 170.01,-264.54 211.96,-260.17"/>
<polygon fill="#63b8ff" stroke="#63b8ff" points="475.21,-571.02 485.33,-567.9 475.47,-564.03 475.21,-571.02"/>
</g>
<!-- Node3 -->
<g id="node3" class="node">
<title>Node3</title>
<g id="a_node3"><a xlink:href="historical__queries_8h.html" target="_top" xlink:title=" ">
<polygon fill="white" stroke="#666666" points="337,-206 231,-206 231,-176 337,-176 337,-206"/>
<text text-anchor="start" x="239" y="-194" font-family="Helvetica,sans-Serif" font-size="10.00">src/node/historical</text>
<text text-anchor="middle" x="284" y="-183" font-family="Helvetica,sans-Serif" font-size="10.00">_queries.h</text>
</a>
</g>
</g>
<!-- Node1&#45;&gt;Node3 -->
<g id="edge11" class="edge">
<title>Node1&#45;&gt;Node3</title>
<path fill="none" stroke="#63b8ff" d="M474.92,-568.97C355.58,-567.03 139.27,-558.8 70,-525 29.17,-505.08 0,-495.93 0,-450.5 0,-450.5 0,-450.5 0,-322 0,-221.55 148.72,-198.4 230.91,-193.28"/>
<polygon fill="#63b8ff" stroke="#63b8ff" points="475.05,-572.47 485.1,-569.12 475.15,-565.47 475.05,-572.47"/>
</g>
<!-- Node9 -->
<g id="node9" class="node">
<title>Node9</title>
<g id="a_node9"><a xlink:href="network__state_8h.html" target="_top" xlink:title=" ">
<polygon fill="white" stroke="#666666" points="1048,-398.5 908,-398.5 908,-379.5 1048,-379.5 1048,-398.5"/>
<text text-anchor="middle" x="978" y="-386.5" font-family="Helvetica,sans-Serif" font-size="10.00">src/node/network_state.h</text>
</a>
</g>
</g>
<!-- Node1&#45;&gt;Node9 -->
<g id="edge12" class="edge">
<title>Node1&#45;&gt;Node9</title>
<path fill="none" stroke="#63b8ff" d="M585.64,-556.89C666.51,-522.49 889.45,-427.67 957.81,-398.59"/>
<polygon fill="#63b8ff" stroke="#63b8ff" points="583.9,-553.83 576.07,-560.96 586.64,-560.27 583.9,-553.83"/>
</g>
<!-- Node22 -->
<g id="node22" class="node">
<title>Node22</title>
<g id="a_node22"><a xlink:href="secret__broadcast_8h.html" target="_top" xlink:title=" ">
<polygon fill="white" stroke="#666666" points="1212.5,-332.5 1059.5,-332.5 1059.5,-313.5 1212.5,-313.5 1212.5,-332.5"/>
<text text-anchor="middle" x="1136" y="-320.5" font-family="Helvetica,sans-Serif" font-size="10.00">src/node/secret_broadcast.h</text>
</a>
</g>
</g>
<!-- Node1&#45;&gt;Node22 -->
<g id="edge58" class="edge">
<title>Node1&#45;&gt;Node22</title>
<path fill="none" stroke="#63b8ff" d="M617.73,-559.16C716.63,-540.48 914.01,-494.37 1057,-404 1088.68,-383.98 1117.28,-348.99 1129.6,-332.75"/>
<polygon fill="#63b8ff" stroke="#63b8ff" points="617.08,-555.72 607.89,-560.99 618.36,-562.6 617.08,-555.72"/>
</g>
<!-- Node23 -->
<g id="node23" class="node">
<title>Node23</title>
<g id="a_node23"><a xlink:href="share__manager_8h.html" target="_top" xlink:title=" ">
<polygon fill="white" stroke="#666666" points="643.5,-332.5 498.5,-332.5 498.5,-313.5 643.5,-313.5 643.5,-332.5"/>
<text text-anchor="middle" x="571" y="-320.5" font-family="Helvetica,sans-Serif" font-size="10.00">src/node/share_manager.h</text>
</a>
</g>
</g>
<!-- Node1&#45;&gt;Node23 -->
<g id="edge59" class="edge">
<title>Node1&#45;&gt;Node23</title>
<path fill="none" stroke="#63b8ff" d="M557.16,-550.47C560.21,-500.65 568.32,-367.79 570.47,-332.63"/>
<polygon fill="#63b8ff" stroke="#63b8ff" points="553.65,-550.57 556.53,-560.76 560.64,-550.99 553.65,-550.57"/>
</g>
<!-- Node25 -->
<g id="node25" class="node">
<title>Node25</title>
<g id="a_node25"><a xlink:href="call__types_8h.html" target="_top" xlink:title=" ">
<polygon fill="white" stroke="#666666" points="478.5,-459 341.5,-459 341.5,-440 478.5,-440 478.5,-459"/>
<text text-anchor="middle" x="410" y="-447" font-family="Helvetica,sans-Serif" font-size="10.00">src/node/rpc/call_types.h</text>
</a>
</g>
</g>
<!-- Node1&#45;&gt;Node25 -->
<g id="edge44" class="edge">
<title>Node1&#45;&gt;Node25</title>
<path fill="none" stroke="#63b8ff" d="M542.88,-552.98C529.62,-536.96 508.01,-512.55 486,-495 467.59,-480.32 443.83,-467.2 427.81,-459.07"/>
<polygon fill="#63b8ff" stroke="#63b8ff" points="540.31,-555.37 549.33,-560.93 545.74,-550.96 540.31,-555.37"/>
</g>
<!-- Node29 -->
<g id="node29" class="node">
<title>Node29</title>
<g id="a_node29"><a xlink:href="node__call__types_8h.html" target="_top" xlink:title=" ">
<polygon fill="white" stroke="#666666" points="476.5,-525 351.5,-525 351.5,-495 476.5,-495 476.5,-525"/>
<text text-anchor="start" x="359.5" y="-513" font-family="Helvetica,sans-Serif" font-size="10.00">src/node/rpc/node_call</text>
<text text-anchor="middle" x="414" y="-502" font-family="Helvetica,sans-Serif" font-size="10.00">_types.h</text>
</a>
</g>
</g>
<!-- Node1&#45;&gt;Node29 -->
<g id="edge56" class="edge">
<title>Node1&#45;&gt;Node29</title>
<path fill="none" stroke="#63b8ff" d="M525.85,-557.08C503.09,-547.7 471.83,-534.82 448.14,-525.06"/>
<polygon fill="#63b8ff" stroke="#63b8ff" points="524.77,-560.42 535.35,-560.99 527.44,-553.95 524.77,-560.42"/>
</g>
<!-- Node30 -->
<g id="node30" class="node">
<title>Node30</title>
<g id="a_node30"><a xlink:href="genesis__gen_8h.html" target="_top" xlink:title=" ">
<polygon fill="white" stroke="#666666" points="714,-404 604,-404 604,-374 714,-374 714,-404"/>
<text text-anchor="start" x="612" y="-392" font-family="Helvetica,sans-Serif" font-size="10.00">src/service/genesis</text>
<text text-anchor="middle" x="659" y="-381" font-family="Helvetica,sans-Serif" font-size="10.00">_gen.h</text>
</a>
</g>
</g>
<!-- Node1&#45;&gt;Node30 -->
<g id="edge60" class="edge">
<title>Node1&#45;&gt;Node30</title>
<path fill="none" stroke="#63b8ff" d="M565.98,-552.11C586.3,-516.69 632.15,-436.79 650.84,-404.22"/>
<polygon fill="#63b8ff" stroke="#63b8ff" points="562.91,-550.43 560.97,-560.84 568.98,-553.91 562.91,-550.43"/>
</g>
<!-- Node2&#45;&gt;Node3 -->
<g id="edge2" class="edge">
<title>Node2&#45;&gt;Node3</title>
<path fill="none" stroke="#63b8ff" d="M274.08,-237.35C276.24,-227.47 278.86,-215.51 280.86,-206.36"/>
<polygon fill="#63b8ff" stroke="#63b8ff" points="270.61,-236.85 271.89,-247.37 277.44,-238.35 270.61,-236.85"/>
</g>
<!-- Node7 -->
<g id="node7" class="node">
<title>Node7</title>
<g id="a_node7"><a xlink:href="node__state_8h.html" target="_top" xlink:title=" ">
<polygon fill="white" stroke="#666666" points="795,-200.5 671,-200.5 671,-181.5 795,-181.5 795,-200.5"/>
<text text-anchor="middle" x="733" y="-188.5" font-family="Helvetica,sans-Serif" font-size="10.00">src/node/node_state.h</text>
</a>
</g>
</g>
<!-- Node2&#45;&gt;Node7 -->
<g id="edge7" class="edge">
<title>Node2&#45;&gt;Node7</title>
<path fill="none" stroke="#63b8ff" d="M321.42,-245.58C328.33,-244.3 335.33,-243.07 342,-242 457.7,-223.37 593.58,-207.29 670.86,-198.69"/>
<polygon fill="#63b8ff" stroke="#63b8ff" points="320.59,-242.17 311.42,-247.47 321.89,-249.05 320.59,-242.17"/>
</g>
<!-- Node4 -->
<g id="node4" class="node">
<title>Node4</title>
<g id="a_node4"><a xlink:href="enclave_2enclave_8h.html" target="_top" xlink:title=" ">
<polygon fill="white" stroke="#666666" points="871,-74 749,-74 749,-55 871,-55 871,-74"/>
<text text-anchor="middle" x="810" y="-62" font-family="Helvetica,sans-Serif" font-size="10.00">src/enclave/enclave.h</text>
</a>
</g>
</g>
<!-- Node3&#45;&gt;Node4 -->
<g id="edge3" class="edge">
<title>Node3&#45;&gt;Node4</title>
<path fill="none" stroke="#63b8ff" d="M342.11,-173.2C402.14,-156.14 498.7,-129.52 583,-110 644.23,-95.82 715.43,-82.35 761.53,-74.02"/>
<polygon fill="#63b8ff" stroke="#63b8ff" points="341.09,-169.85 332.43,-175.96 343,-176.58 341.09,-169.85"/>
</g>
<!-- Node6 -->
<g id="node6" class="node">
<title>Node6</title>
<g id="a_node6"><a xlink:href="historical__transaction__fetcher_8h.html" target="_top" xlink:title=" ">
<polygon fill="white" stroke="#666666" points="451.5,-140 326.5,-140 326.5,-110 451.5,-110 451.5,-140"/>
<text text-anchor="start" x="334.5" y="-128" font-family="Helvetica,sans-Serif" font-size="10.00">src/indexing/historical</text>
<text text-anchor="middle" x="389" y="-117" font-family="Helvetica,sans-Serif" font-size="10.00">_transaction_fetcher.h</text>
</a>
</g>
</g>
<!-- Node3&#45;&gt;Node6 -->
<g id="edge5" class="edge">
<title>Node3&#45;&gt;Node6</title>
<path fill="none" stroke="#63b8ff" d="M315.67,-170.69C331.88,-160.82 351.25,-149.01 366.01,-140.01"/>
<polygon fill="#63b8ff" stroke="#63b8ff" points="313.76,-167.76 307.04,-175.95 317.4,-173.74 313.76,-167.76"/>
</g>
<!-- Node5 -->
<g id="node5" class="node">
<title>Node5</title>
<g id="a_node5"><a xlink:href="enclave_2main_8cpp.html" target="_top" xlink:title=" ">
<polygon fill="white" stroke="#666666" points="870,-19 750,-19 750,0 870,0 870,-19"/>
<text text-anchor="middle" x="810" y="-7" font-family="Helvetica,sans-Serif" font-size="10.00">src/enclave/main.cpp</text>
</a>
</g>
</g>
<!-- Node4&#45;&gt;Node5 -->
<g id="edge4" class="edge">
<title>Node4&#45;&gt;Node5</title>
<path fill="none" stroke="#63b8ff" d="M810,-44.66C810,-35.93 810,-25.99 810,-19.09"/>
<polygon fill="#63b8ff" stroke="#63b8ff" points="806.5,-44.75 810,-54.75 813.5,-44.75 806.5,-44.75"/>
</g>
<!-- Node6&#45;&gt;Node4 -->
<g id="edge6" class="edge">
<title>Node6&#45;&gt;Node4</title>
<path fill="none" stroke="#63b8ff" d="M461.71,-113.9C542.83,-102.62 672.66,-84.58 748.8,-74"/>
<polygon fill="#63b8ff" stroke="#63b8ff" points="461,-110.46 451.57,-115.31 461.96,-117.4 461,-110.46"/>
</g>
<!-- Node7&#45;&gt;Node4 -->
<g id="edge8" class="edge">
<title>Node7&#45;&gt;Node4</title>
<path fill="none" stroke="#63b8ff" d="M755.53,-175.67C767.73,-166.8 782.1,-154.37 791,-140 804.07,-118.89 808.18,-89.13 809.45,-74.43"/>
<polygon fill="#63b8ff" stroke="#63b8ff" points="753.36,-172.91 747.13,-181.48 757.34,-178.67 753.36,-172.91"/>
</g>
<!-- Node8 -->
<g id="node8" class="node">
<title>Node8</title>
<g id="a_node8"><a xlink:href="gov__effects_8h.html" target="_top" xlink:title=" ">
<polygon fill="white" stroke="#666666" points="782,-134.5 638,-134.5 638,-115.5 782,-115.5 782,-134.5"/>
<text text-anchor="middle" x="710" y="-122.5" font-family="Helvetica,sans-Serif" font-size="10.00">src/node/rpc/gov_effects.h</text>
</a>
</g>
</g>
<!-- Node7&#45;&gt;Node8 -->
<g id="edge9" class="edge">
<title>Node7&#45;&gt;Node8</title>
<path fill="none" stroke="#63b8ff" d="M726.47,-171.82C722.13,-159.74 716.62,-144.41 713.2,-134.91"/>
<polygon fill="#63b8ff" stroke="#63b8ff" points="723.22,-173.14 729.9,-181.37 729.81,-170.77 723.22,-173.14"/>
</g>
<!-- Node8&#45;&gt;Node4 -->
<g id="edge10" class="edge">
<title>Node8&#45;&gt;Node4</title>
<path fill="none" stroke="#63b8ff" d="M733.47,-110.27C752.56,-99.1 778.91,-83.69 795.18,-74.17"/>
<polygon fill="#63b8ff" stroke="#63b8ff" points="731.62,-107.3 724.76,-115.37 735.15,-113.34 731.62,-107.3"/>
</g>
<!-- Node9&#45;&gt;Node4 -->
<g id="edge13" class="edge">
<title>Node9&#45;&gt;Node4</title>
<path fill="none" stroke="#63b8ff" d="M1058.3,-385.26C1285.42,-376.47 1916,-344.27 1916,-258 1916,-258 1916,-258 1916,-190 1916,-83.97 1102.9,-68.24 871.04,-65.9"/>
<polygon fill="#63b8ff" stroke="#63b8ff" points="1057.98,-381.77 1048.12,-385.65 1058.25,-388.77 1057.98,-381.77"/>
</g>
<!-- Node9&#45;&gt;Node7 -->
<g id="edge30" class="edge">
<title>Node9&#45;&gt;Node7</title>
<path fill="none" stroke="#63b8ff" d="M954.47,-374.1C939.75,-364.83 920.83,-351.84 906,-338 866.01,-300.68 871.27,-276.71 829,-242 806.49,-223.52 776.04,-209.09 755.53,-200.58"/>
<polygon fill="#63b8ff" stroke="#63b8ff" points="952.66,-377.1 963.01,-379.36 956.33,-371.14 952.66,-377.1"/>
</g>
<!-- Node10 -->
<g id="node10" class="node">
<title>Node10</title>
<g id="a_node10"><a xlink:href="wrap_8h.html" target="_top" xlink:title=" ">
<polygon fill="white" stroke="#666666" points="1385,-332.5 1307,-332.5 1307,-313.5 1385,-313.5 1385,-332.5"/>
<text text-anchor="middle" x="1346" y="-320.5" font-family="Helvetica,sans-Serif" font-size="10.00">src/js/wrap.h</text>
</a>
</g>
</g>
<!-- Node9&#45;&gt;Node10 -->
<g id="edge14" class="edge">
<title>Node9&#45;&gt;Node10</title>
<path fill="none" stroke="#63b8ff" d="M1037.12,-377.72C1112.93,-364.53 1242.27,-342.04 1306.87,-330.8"/>
<polygon fill="#63b8ff" stroke="#63b8ff" points="1036.5,-374.27 1027.25,-379.44 1037.7,-381.17 1036.5,-374.27"/>
</g>
<!-- Node19 -->
<g id="node19" class="node">
<title>Node19</title>
<g id="a_node19"><a xlink:href="node__frontend_8h.html" target="_top" xlink:title=" ">
<polygon fill="white" stroke="#666666" points="858,-332.5 700,-332.5 700,-313.5 858,-313.5 858,-332.5"/>
<text text-anchor="middle" x="779" y="-320.5" font-family="Helvetica,sans-Serif" font-size="10.00">src/node/rpc/node_frontend.h</text>
</a>
</g>
</g>
<!-- Node9&#45;&gt;Node19 -->
<g id="edge31" class="edge">
<title>Node9&#45;&gt;Node19</title>
<path fill="none" stroke="#63b8ff" d="M941.44,-376.24C902.17,-363.61 840.71,-343.85 805.73,-332.6"/>
<polygon fill="#63b8ff" stroke="#63b8ff" points="940.57,-379.64 951.16,-379.37 942.71,-372.98 940.57,-379.64"/>
</g>
<!-- Node21 -->
<g id="node21" class="node">
<title>Node21</title>
<g id="a_node21"><a xlink:href="user__frontend_8h.html" target="_top" xlink:title=" ">
<polygon fill="white" stroke="#666666" points="2099.5,-134.5 1944.5,-134.5 1944.5,-115.5 2099.5,-115.5 2099.5,-134.5"/>
<text text-anchor="middle" x="2022" y="-122.5" font-family="Helvetica,sans-Serif" font-size="10.00">src/node/rpc/user_frontend.h</text>
</a>
</g>
</g>
<!-- Node9&#45;&gt;Node21 -->
<g id="edge35" class="edge">
<title>Node9&#45;&gt;Node21</title>
<path fill="none" stroke="#63b8ff" d="M1058.17,-388.56C1274.62,-389.42 1859.28,-387.1 1930,-338 2002.17,-287.89 2018.19,-168.37 2021.31,-134.86"/>
<polygon fill="#63b8ff" stroke="#63b8ff" points="1058.16,-385.06 1048.15,-388.52 1058.13,-392.06 1058.16,-385.06"/>
</g>
<!-- Node9&#45;&gt;Node22 -->
<g id="edge37" class="edge">
<title>Node9&#45;&gt;Node22</title>
<path fill="none" stroke="#63b8ff" d="M1008.83,-375.51C1040.06,-362.86 1087.53,-343.63 1114.78,-332.6"/>
<polygon fill="#63b8ff" stroke="#63b8ff" points="1007.26,-372.37 999.31,-379.37 1009.89,-378.86 1007.26,-372.37"/>
</g>
<!-- Node9&#45;&gt;Node23 -->
<g id="edge39" class="edge">
<title>Node9&#45;&gt;Node23</title>
<path fill="none" stroke="#63b8ff" d="M913.62,-377.88C833.96,-365.35 699.75,-344.25 625.15,-332.51"/>
<polygon fill="#63b8ff" stroke="#63b8ff" points="913.11,-381.34 923.53,-379.44 914.2,-374.42 913.11,-381.34"/>
</g>
<!-- Node24 -->
<g id="node24" class="node">
<title>Node24</title>
<g id="a_node24"><a xlink:href="snapshotter_8h.html" target="_top" xlink:title=" ">
<polygon fill="white" stroke="#666666" points="1041.5,-332.5 914.5,-332.5 914.5,-313.5 1041.5,-313.5 1041.5,-332.5"/>
<text text-anchor="middle" x="978" y="-320.5" font-family="Helvetica,sans-Serif" font-size="10.00">src/node/snapshotter.h</text>
</a>
</g>
</g>
<!-- Node9&#45;&gt;Node24 -->
<g id="edge42" class="edge">
<title>Node9&#45;&gt;Node24</title>
<path fill="none" stroke="#63b8ff" d="M978,-369.08C978,-357.13 978,-342.22 978,-332.91"/>
<polygon fill="#63b8ff" stroke="#63b8ff" points="974.5,-369.37 978,-379.37 981.5,-369.37 974.5,-369.37"/>
</g>
<!-- Node10&#45;&gt;Node4 -->
<g id="edge16" class="edge">
<title>Node10&#45;&gt;Node4</title>
<path fill="none" stroke="#63b8ff" d="M1395.26,-320.88C1517.69,-317.6 1828.18,-305.97 1859,-272 1867.96,-262.13 1867.61,-252.18 1859,-242 1730.57,-90.16 1075.76,-68.88 871.16,-65.95"/>
<polygon fill="#63b8ff" stroke="#63b8ff" points="1394.95,-317.39 1385.04,-321.15 1395.13,-324.39 1394.95,-317.39"/>
</g>
<!-- Node10&#45;&gt;Node7 -->
<g id="edge27" class="edge">
<title>Node10&#45;&gt;Node7</title>
<path fill="none" stroke="#63b8ff" d="M1296.77,-316.05C1238.82,-308.45 1139.96,-293.65 1057,-272 1018.24,-261.88 1010.58,-252.79 972,-242 907.7,-224.01 832.06,-209.23 783.36,-200.52"/>
<polygon fill="#63b8ff" stroke="#63b8ff" points="1296.39,-319.53 1306.76,-317.34 1297.29,-312.59 1296.39,-319.53"/>
</g>
<!-- Node11 -->
<g id="node11" class="node">
<title>Node11</title>
<g id="a_node11"><a xlink:href="js__generic__base_8cpp.html" target="_top" xlink:title=" ">
<polygon fill="white" stroke="#666666" points="1184,-272 1066,-272 1066,-242 1184,-242 1184,-272"/>
<text text-anchor="start" x="1074" y="-260" font-family="Helvetica,sans-Serif" font-size="10.00">src/apps/js_generic</text>
<text text-anchor="middle" x="1125" y="-249" font-family="Helvetica,sans-Serif" font-size="10.00">/js_generic_base.cpp</text>
</a>
</g>
</g>
<!-- Node10&#45;&gt;Node11 -->
<g id="edge15" class="edge">
<title>Node10&#45;&gt;Node11</title>
<path fill="none" stroke="#63b8ff" d="M1306.23,-310.48C1269.09,-299.73 1213.54,-283.64 1173.74,-272.12"/>
<polygon fill="#63b8ff" stroke="#63b8ff" points="1305.62,-313.95 1316.19,-313.37 1307.56,-307.23 1305.62,-313.95"/>
</g>
<!-- Node12 -->
<g id="node12" class="node">
<title>Node12</title>
<g id="a_node12"><a xlink:href="js_2consensus_8cpp.html" target="_top" xlink:title=" ">
<polygon fill="white" stroke="#666666" points="1318,-266.5 1202,-266.5 1202,-247.5 1318,-247.5 1318,-266.5"/>
<text text-anchor="middle" x="1260" y="-254.5" font-family="Helvetica,sans-Serif" font-size="10.00">src/js/consensus.cpp</text>
</a>
</g>
</g>
<!-- Node10&#45;&gt;Node12 -->
<g id="edge17" class="edge">
<title>Node10&#45;&gt;Node12</title>
<path fill="none" stroke="#63b8ff" d="M1326.29,-307.33C1309.43,-294.78 1285.71,-277.13 1271.69,-266.7"/>
<polygon fill="#63b8ff" stroke="#63b8ff" points="1324.29,-310.21 1334.4,-313.37 1328.47,-304.59 1324.29,-310.21"/>
</g>
<!-- Node13 -->
<g id="node13" class="node">
<title>Node13</title>
<g id="a_node13"><a xlink:href="wrap_8cpp.html" target="_top" xlink:title=" ">
<polygon fill="white" stroke="#666666" points="1426.5,-200.5 1337.5,-200.5 1337.5,-181.5 1426.5,-181.5 1426.5,-200.5"/>
<text text-anchor="middle" x="1382" y="-188.5" font-family="Helvetica,sans-Serif" font-size="10.00">src/js/wrap.cpp</text>
</a>
</g>
</g>
<!-- Node10&#45;&gt;Node13 -->
<g id="edge26" class="edge">
<title>Node10&#45;&gt;Node13</title>
<path fill="none" stroke="#63b8ff" d="M1349.95,-303.16C1353.49,-286.86 1359.03,-262.73 1365,-242 1369.21,-227.37 1375.11,-210.69 1378.74,-200.77"/>
<polygon fill="#63b8ff" stroke="#63b8ff" points="1346.5,-302.54 1347.84,-313.05 1353.35,-304 1346.5,-302.54"/>
</g>
<!-- Node14 -->
<g id="node14" class="node">
<title>Node14</title>
<g id="a_node14"><a xlink:href="conv_8cpp.html" target="_top" xlink:title=" ">
<polygon fill="white" stroke="#666666" points="1462,-266.5 1374,-266.5 1374,-247.5 1462,-247.5 1462,-266.5"/>
<text text-anchor="middle" x="1418" y="-254.5" font-family="Helvetica,sans-Serif" font-size="10.00">src/js/conv.cpp</text>
</a>
</g>
</g>
<!-- Node10&#45;&gt;Node14 -->
<g id="edge19" class="edge">
<title>Node10&#45;&gt;Node14</title>
<path fill="none" stroke="#63b8ff" d="M1363.24,-306.68C1377.21,-294.26 1396.42,-277.18 1407.98,-266.91"/>
<polygon fill="#63b8ff" stroke="#63b8ff" points="1360.86,-304.11 1355.71,-313.37 1365.51,-309.34 1360.86,-304.11"/>
</g>
<!-- Node15 -->
<g id="node15" class="node">
<title>Node15</title>
<g id="a_node15"><a xlink:href="js_2crypto_8cpp.html" target="_top" xlink:title=" ">
<polygon fill="white" stroke="#666666" points="1850,-266.5 1754,-266.5 1754,-247.5 1850,-247.5 1850,-266.5"/>
<text text-anchor="middle" x="1802" y="-254.5" font-family="Helvetica,sans-Serif" font-size="10.00">src/js/crypto.cpp</text>
</a>
</g>
</g>
<!-- Node10&#45;&gt;Node15 -->
<g id="edge21" class="edge">
<title>Node10&#45;&gt;Node15</title>
<path fill="none" stroke="#63b8ff" d="M1395.2,-317.69C1470.8,-310.65 1619.93,-295.11 1745,-272 1753.22,-270.48 1762.02,-268.5 1770.19,-266.51"/>
<polygon fill="#63b8ff" stroke="#63b8ff" points="1394.66,-314.23 1385.03,-318.63 1395.31,-321.2 1394.66,-314.23"/>
</g>
<!-- Node16 -->
<g id="node16" class="node">
<title>Node16</title>
<g id="a_node16"><a xlink:href="js_2historical_8cpp.html" target="_top" xlink:title=" ">
<polygon fill="white" stroke="#666666" points="1590,-266.5 1480,-266.5 1480,-247.5 1590,-247.5 1590,-266.5"/>
<text text-anchor="middle" x="1535" y="-254.5" font-family="Helvetica,sans-Serif" font-size="10.00">src/js/historical.cpp</text>
</a>
</g>
</g>
<!-- Node10&#45;&gt;Node16 -->
<g id="edge23" class="edge">
<title>Node10&#45;&gt;Node16</title>
<path fill="none" stroke="#63b8ff" d="M1381.43,-310C1418.76,-297.36 1476.6,-277.78 1509.61,-266.6"/>
<polygon fill="#63b8ff" stroke="#63b8ff" points="1379.84,-306.85 1371.49,-313.37 1382.08,-313.48 1379.84,-306.85"/>
</g>
<!-- Node17 -->
<g id="node17" class="node">
<title>Node17</title>
<g id="a_node17"><a xlink:href="openenclave_8cpp.html" target="_top" xlink:title=" ">
<polygon fill="white" stroke="#666666" points="1736,-266.5 1608,-266.5 1608,-247.5 1736,-247.5 1736,-266.5"/>
<text text-anchor="middle" x="1672" y="-254.5" font-family="Helvetica,sans-Serif" font-size="10.00">src/js/openenclave.cpp</text>
</a>
</g>
</g>
<!-- Node10&#45;&gt;Node17 -->
<g id="edge25" class="edge">
<title>Node10&#45;&gt;Node17</title>
<path fill="none" stroke="#63b8ff" d="M1395.49,-312.28C1459.02,-299.81 1568.24,-278.37 1628.65,-266.51"/>
<polygon fill="#63b8ff" stroke="#63b8ff" points="1394.46,-308.92 1385.32,-314.28 1395.81,-315.79 1394.46,-308.92"/>
</g>
<!-- Node18 -->
<g id="node18" class="node">
<title>Node18</title>
<g id="a_node18"><a xlink:href="member__frontend_8h.html" target="_top" xlink:title=" ">
<polygon fill="white" stroke="#666666" points="571,-272 451,-272 451,-242 571,-242 571,-272"/>
<text text-anchor="start" x="459" y="-260" font-family="Helvetica,sans-Serif" font-size="10.00">src/node/rpc/member</text>
<text text-anchor="middle" x="511" y="-249" font-family="Helvetica,sans-Serif" font-size="10.00">_frontend.h</text>
</a>
</g>
</g>
<!-- Node10&#45;&gt;Node18 -->
<g id="edge28" class="edge">
<title>Node10&#45;&gt;Node18</title>
<path fill="none" stroke="#63b8ff" d="M1296.85,-315.93C1274.1,-313.26 1246.7,-310.22 1222,-308 984.2,-286.6 924.12,-289.52 686,-272 647.85,-269.19 605.05,-265.77 571.32,-263.02"/>
<polygon fill="#63b8ff" stroke="#63b8ff" points="1296.61,-319.43 1306.95,-317.13 1297.44,-312.48 1296.61,-319.43"/>
</g>
<!-- Node12&#45;&gt;Node13 -->
<g id="edge18" class="edge">
<title>Node12&#45;&gt;Node13</title>
<path fill="none" stroke="#63b8ff" d="M1285.36,-242.69C1309.4,-230.09 1344.8,-211.51 1365.42,-200.7"/>
<polygon fill="#63b8ff" stroke="#63b8ff" points="1283.68,-239.62 1276.45,-247.37 1286.93,-245.82 1283.68,-239.62"/>
</g>
<!-- Node14&#45;&gt;Node13 -->
<g id="edge20" class="edge">
<title>Node14&#45;&gt;Node13</title>
<path fill="none" stroke="#63b8ff" d="M1408.18,-238.55C1401.33,-226.36 1392.47,-210.61 1387.01,-200.91"/>
<polygon fill="#63b8ff" stroke="#63b8ff" points="1405.19,-240.37 1413.14,-247.37 1411.29,-236.94 1405.19,-240.37"/>
</g>
<!-- Node15&#45;&gt;Node13 -->
<g id="edge22" class="edge">
<title>Node15&#45;&gt;Node13</title>
<path fill="none" stroke="#63b8ff" d="M1759.8,-245.12C1754.83,-243.99 1749.81,-242.92 1745,-242 1631.12,-220.23 1495.41,-204.12 1426.67,-196.64"/>
<polygon fill="#63b8ff" stroke="#63b8ff" points="1759.34,-248.6 1769.87,-247.49 1760.94,-241.79 1759.34,-248.6"/>
</g>
<!-- Node16&#45;&gt;Node13 -->
<g id="edge24" class="edge">
<title>Node16&#45;&gt;Node13</title>
<path fill="none" stroke="#63b8ff" d="M1504.78,-243.36C1474.63,-230.75 1429.11,-211.71 1402.8,-200.7"/>
<polygon fill="#63b8ff" stroke="#63b8ff" points="1503.79,-246.74 1514.37,-247.37 1506.49,-240.28 1503.79,-246.74"/>
</g>
<!-- Node18&#45;&gt;Node4 -->
<g id="edge29" class="edge">
<title>Node18&#45;&gt;Node4</title>
<path fill="none" stroke="#63b8ff" d="M523.15,-232.98C541.56,-200.4 579.68,-141.34 629,-110 664.92,-87.18 711.69,-76.06 748.69,-70.64"/>
<polygon fill="#63b8ff" stroke="#63b8ff" points="520.05,-231.35 518.28,-241.8 526.18,-234.73 520.05,-231.35"/>
</g>
<!-- Node19&#45;&gt;Node4 -->
<g id="edge32" class="edge">
<title>Node19&#45;&gt;Node4</title>
<path fill="none" stroke="#63b8ff" d="M800.76,-306.85C811.44,-298.06 823.22,-285.96 829,-272 858.62,-200.49 825.09,-103.44 813.59,-74.19"/>
<polygon fill="#63b8ff" stroke="#63b8ff" points="798.35,-304.29 792.57,-313.17 802.63,-309.83 798.35,-304.29"/>
</g>
<!-- Node20 -->
<g id="node20" class="node">
<title>Node20</title>
<g id="a_node20"><a xlink:href="jwt__key__auto__refresh_8h.html" target="_top" xlink:title=" ">
<polygon fill="white" stroke="#666666" points="819.5,-272 694.5,-272 694.5,-242 819.5,-242 819.5,-272"/>
<text text-anchor="start" x="702.5" y="-260" font-family="Helvetica,sans-Serif" font-size="10.00">src/node/jwt_key_auto</text>
<text text-anchor="middle" x="757" y="-249" font-family="Helvetica,sans-Serif" font-size="10.00">_refresh.h</text>
</a>
</g>
</g>
<!-- Node19&#45;&gt;Node20 -->
<g id="edge33" class="edge">
<title>Node19&#45;&gt;Node20</title>
<path fill="none" stroke="#63b8ff" d="M772.7,-303.67C769.28,-293.72 765.12,-281.61 761.94,-272.36"/>
<polygon fill="#63b8ff" stroke="#63b8ff" points="769.47,-305.05 776.03,-313.37 776.09,-302.77 769.47,-305.05"/>
</g>
<!-- Node20&#45;&gt;Node7 -->
<g id="edge34" class="edge">
<title>Node20&#45;&gt;Node7</title>
<path fill="none" stroke="#63b8ff" d="M748.1,-232.28C743.99,-221.31 739.35,-208.94 736.32,-200.84"/>
<polygon fill="#63b8ff" stroke="#63b8ff" points="744.89,-233.66 751.67,-241.8 751.44,-231.2 744.89,-233.66"/>
</g>
<!-- Node21&#45;&gt;Node4 -->
<g id="edge36" class="edge">
<title>Node21&#45;&gt;Node4</title>
<path fill="none" stroke="#63b8ff" d="M1962.32,-113.93C1951.59,-112.4 1940.48,-111 1930,-110 1527.32,-71.48 1040.11,-66.18 871.17,-65.54"/>
<polygon fill="#63b8ff" stroke="#63b8ff" points="1962.07,-117.43 1972.47,-115.43 1963.09,-110.51 1962.07,-117.43"/>
</g>
<!-- Node22&#45;&gt;Node7 -->
<g id="edge38" class="edge">
<title>Node22&#45;&gt;Node7</title>
<path fill="none" stroke="#63b8ff" d="M1095.35,-310.59C1064.76,-301.49 1022.07,-287.7 986,-272 960.47,-260.89 956.93,-252.16 931,-242 881.32,-222.54 821.62,-208.68 780.85,-200.56"/>
<polygon fill="#63b8ff" stroke="#63b8ff" points="1094.66,-314.03 1105.24,-313.49 1096.63,-307.32 1094.66,-314.03"/>
</g>
<!-- Node23&#45;&gt;Node7 -->
<g id="edge40" class="edge">
<title>Node23&#45;&gt;Node7</title>
<path fill="none" stroke="#63b8ff" d="M585.19,-305.97C600.67,-288.99 626.63,-261.94 652,-242 673.05,-225.46 699.89,-209.83 716.77,-200.58"/>
<polygon fill="#63b8ff" stroke="#63b8ff" points="582.58,-303.64 578.49,-313.42 587.78,-308.33 582.58,-303.64"/>
</g>
<!-- Node23&#45;&gt;Node18 -->
<g id="edge41" class="edge">
<title>Node23&#45;&gt;Node18</title>
<path fill="none" stroke="#63b8ff" d="M555.86,-305.85C546.2,-295.54 533.78,-282.3 524.46,-272.36"/>
<polygon fill="#63b8ff" stroke="#63b8ff" points="553.52,-308.47 562.91,-313.37 558.62,-303.68 553.52,-308.47"/>
</g>
<!-- Node24&#45;&gt;Node7 -->
<g id="edge43" class="edge">
<title>Node24&#45;&gt;Node7</title>
<path fill="none" stroke="#63b8ff" d="M965.43,-304.65C951.42,-286.5 927.13,-258.43 900,-242 864.66,-220.6 819.53,-207.81 785.09,-200.53"/>
<polygon fill="#63b8ff" stroke="#63b8ff" points="962.99,-307.22 971.79,-313.12 968.59,-303.02 962.99,-307.22"/>
</g>
<!-- Node25&#45;&gt;Node13 -->
<g id="edge46" class="edge">
<title>Node25&#45;&gt;Node13</title>
<path fill="none" stroke="#63b8ff" d="M489.04,-446.14C637.15,-441.2 951.08,-428.2 1057,-404 1139.71,-385.11 1275.22,-374.08 1222,-308 1174.92,-249.54 1104.08,-330.46 1057,-272 1048.64,-261.62 1048.32,-252.12 1057,-242 1092.59,-200.51 1256.8,-193.12 1337.28,-192.02"/>
<polygon fill="#63b8ff" stroke="#63b8ff" points="488.54,-442.65 478.66,-446.48 488.77,-449.65 488.54,-442.65"/>
</g>
<!-- Node25&#45;&gt;Node18 -->
<g id="edge49" class="edge">
<title>Node25&#45;&gt;Node18</title>
<path fill="none" stroke="#63b8ff" d="M330.9,-440.85C215.47,-426.73 22.1,-390.19 95,-308 106.68,-294.84 338.37,-273.01 450.81,-263.13"/>
<polygon fill="#63b8ff" stroke="#63b8ff" points="330.79,-444.36 341.13,-442.06 331.62,-437.41 330.79,-444.36"/>
</g>
<!-- Node26 -->
<g id="node26" class="node">
<title>Node26</title>
<g id="a_node26"><a xlink:href="common__endpoint__registry_8cpp.html" target="_top" xlink:title=" ">
<polygon fill="white" stroke="#666666" points="232,-338 104,-338 104,-308 232,-308 232,-338"/>
<text text-anchor="start" x="112" y="-326" font-family="Helvetica,sans-Serif" font-size="10.00">src/endpoints/common</text>
<text text-anchor="middle" x="168" y="-315" font-family="Helvetica,sans-Serif" font-size="10.00">_endpoint_registry.cpp</text>
</a>
</g>
</g>
<!-- Node25&#45;&gt;Node26 -->
<g id="edge45" class="edge">
<title>Node25&#45;&gt;Node26</title>
<path fill="none" stroke="#63b8ff" d="M379.48,-436C359.25,-427.49 332.25,-415.68 309,-404 266.5,-382.65 218.66,-354.62 191.06,-338.04"/>
<polygon fill="#63b8ff" stroke="#63b8ff" points="378.25,-439.28 388.82,-439.9 380.94,-432.82 378.25,-439.28"/>
</g>
<!-- Node27 -->
<g id="node27" class="node">
<title>Node27</title>
<g id="a_node27"><a xlink:href="resharing_8h.html" target="_top" xlink:title=" ">
<polygon fill="white" stroke="#666666" points="366,-332.5 250,-332.5 250,-313.5 366,-313.5 366,-332.5"/>
<text text-anchor="middle" x="308" y="-320.5" font-family="Helvetica,sans-Serif" font-size="10.00">src/node/resharing.h</text>
</a>
</g>
</g>
<!-- Node25&#45;&gt;Node27 -->
<g id="edge47" class="edge">
<title>Node25&#45;&gt;Node27</title>
<path fill="none" stroke="#63b8ff" d="M371.63,-435.99C355.64,-428.96 338.23,-418.59 327,-404 310.37,-382.39 307.98,-348.49 307.84,-332.67"/>
<polygon fill="#63b8ff" stroke="#63b8ff" points="370.74,-439.41 381.33,-439.95 373.39,-432.93 370.74,-439.41"/>
</g>
<!-- Node28 -->
<g id="node28" class="node">
<title>Node28</title>
<g id="a_node28"><a xlink:href="serialization_8h.html" target="_top" xlink:title=" ">
<polygon fill="white" stroke="#666666" points="484,-398.5 336,-398.5 336,-379.5 484,-379.5 484,-398.5"/>
<text text-anchor="middle" x="410" y="-386.5" font-family="Helvetica,sans-Serif" font-size="10.00">src/node/rpc/serialization.h</text>
</a>
</g>
</g>
<!-- Node25&#45;&gt;Node28 -->
<g id="edge50" class="edge">
<title>Node25&#45;&gt;Node28</title>
<path fill="none" stroke="#63b8ff" d="M410,-429.66C410,-419.24 410,-406.8 410,-398.67"/>
<polygon fill="#63b8ff" stroke="#63b8ff" points="406.5,-429.87 410,-439.87 413.5,-429.87 406.5,-429.87"/>
</g>
<!-- Node27&#45;&gt;Node7 -->
<g id="edge48" class="edge">
<title>Node27&#45;&gt;Node7</title>
<path fill="none" stroke="#63b8ff" d="M318.28,-304.71C330.46,-285.91 352.61,-256.58 380,-242 429.1,-215.85 583.28,-201.77 670.77,-195.71"/>
<polygon fill="#63b8ff" stroke="#63b8ff" points="315.15,-303.12 312.84,-313.46 321.09,-306.81 315.15,-303.12"/>
</g>
<!-- Node28&#45;&gt;Node7 -->
<g id="edge52" class="edge">
<title>Node28&#45;&gt;Node7</title>
<path fill="none" stroke="#63b8ff" d="M408.08,-369.22C406.01,-337.99 406.91,-275.53 442,-242 474.01,-211.41 595.33,-199.34 670.85,-194.72"/>
<polygon fill="#63b8ff" stroke="#63b8ff" points="404.59,-369.53 408.91,-379.2 411.56,-368.94 404.59,-369.53"/>
</g>
<!-- Node28&#45;&gt;Node18 -->
<g id="edge54" class="edge">
<title>Node28&#45;&gt;Node18</title>
<path fill="none" stroke="#63b8ff" d="M418.45,-369.73C426.73,-352.82 440.37,-327.44 456,-308 466.84,-294.53 481.4,-281.46 492.82,-272.06"/>
<polygon fill="#63b8ff" stroke="#63b8ff" points="415.16,-368.5 414.02,-379.03 421.48,-371.51 415.16,-368.5"/>
</g>
<!-- Node28&#45;&gt;Node19 -->
<g id="edge55" class="edge">
<title>Node28&#45;&gt;Node19</title>
<path fill="none" stroke="#63b8ff" d="M469.25,-377.72C541.58,-365.18 662.54,-344.2 729.91,-332.51"/>
<polygon fill="#63b8ff" stroke="#63b8ff" points="468.64,-374.28 459.38,-379.44 469.83,-381.17 468.64,-374.28"/>
</g>
<!-- Node28&#45;&gt;Node26 -->
<g id="edge51" class="edge">
<title>Node28&#45;&gt;Node26</title>
<path fill="none" stroke="#63b8ff" d="M367.72,-376.82C326.95,-366.04 265.09,-349.68 221.03,-338.02"/>
<polygon fill="#63b8ff" stroke="#63b8ff" points="367.05,-380.26 377.61,-379.44 368.84,-373.49 367.05,-380.26"/>
</g>
<!-- Node28&#45;&gt;Node27 -->
<g id="edge53" class="edge">
<title>Node28&#45;&gt;Node27</title>
<path fill="none" stroke="#63b8ff" d="M387.72,-374.02C367.66,-361.43 338.8,-343.32 321.86,-332.7"/>
<polygon fill="#63b8ff" stroke="#63b8ff" points="385.91,-377.02 396.24,-379.37 389.63,-371.09 385.91,-377.02"/>
</g>
<!-- Node29&#45;&gt;Node25 -->
<g id="edge57" class="edge">
<title>Node29&#45;&gt;Node25</title>
<path fill="none" stroke="#63b8ff" d="M412.34,-484.75C411.72,-475.72 411.06,-466.03 410.6,-459.27"/>
<polygon fill="#63b8ff" stroke="#63b8ff" points="408.86,-485.1 413.03,-494.84 415.84,-484.62 408.86,-485.1"/>
</g>
<!-- Node30&#45;&gt;Node7 -->
<g id="edge61" class="edge">
<title>Node30&#45;&gt;Node7</title>
<path fill="none" stroke="#63b8ff" d="M659.35,-363.88C660.68,-333.8 665.99,-281.53 686,-242 694.61,-224.99 710.82,-209.71 721.76,-200.65"/>
<polygon fill="#63b8ff" stroke="#63b8ff" points="655.85,-363.78 659.02,-373.89 662.84,-364.01 655.85,-363.78"/>
</g>
<!-- Node30&#45;&gt;Node18 -->
<g id="edge62" class="edge">
<title>Node30&#45;&gt;Node18</title>
<path fill="none" stroke="#63b8ff" d="M593.64,-376.95C551.69,-368.38 502.76,-355.08 490,-338 475.31,-318.33 489.61,-289.24 500.73,-272.1"/>
<polygon fill="#63b8ff" stroke="#63b8ff" points="593.08,-380.41 603.57,-378.92 594.44,-373.54 593.08,-380.41"/>
</g>
<!-- Node30&#45;&gt;Node19 -->
<g id="edge63" class="edge">
<title>Node30&#45;&gt;Node19</title>
<path fill="none" stroke="#63b8ff" d="M694.37,-369.14C717.12,-357 745.59,-341.82 763.03,-332.52"/>
<polygon fill="#63b8ff" stroke="#63b8ff" points="692.51,-366.16 685.33,-373.95 695.81,-372.34 692.51,-366.16"/>
</g>
<!-- Node30&#45;&gt;Node22 -->
<g id="edge64" class="edge">
<title>Node30&#45;&gt;Node22</title>
<path fill="none" stroke="#63b8ff" d="M724.41,-380.39C802.32,-371.17 936.33,-354.75 1051,-338 1062.4,-336.34 1074.63,-334.41 1086.16,-332.52"/>
<polygon fill="#63b8ff" stroke="#63b8ff" points="723.79,-376.94 714.27,-381.59 724.61,-383.9 723.79,-376.94"/>
</g>
<!-- Node30&#45;&gt;Node23 -->
<g id="edge65" class="edge">
<title>Node30&#45;&gt;Node23</title>
<path fill="none" stroke="#63b8ff" d="M631.33,-367.87C615.04,-356.03 595.27,-341.65 582.91,-332.66"/>
<polygon fill="#63b8ff" stroke="#63b8ff" points="629.32,-370.75 639.47,-373.8 633.44,-365.08 629.32,-370.75"/>
</g>
</g>
</svg>
        <g id="navigator" transform="translate(0 0)" fill="#404254">
                <rect fill="#f2f5e9" fill-opacity="0.5" stroke="#606060" stroke-width=".5" x="0" y="0" width="60" height="60"/>
                <use id="zoomplus" xlink:href="#zoomPlus" x="17" y="9" onmousedown="handleZoom(evt,'in')"/>
                <use id="zoomminus" xlink:href="#zoomMin" x="42" y="9" onmousedown="handleZoom(evt,'out')"/>
                <use id="reset" xlink:href="#resetDef" x="30" y="36" onmousedown="handleReset()"/>
                <g id="arrowUp" xlink:href="#dirArrow" transform="translate(30 24)" onmousedown="handlePan(0,-1)">
                  <use xlink:href="#rim" fill="#404040">
                        <set attributeName="fill" to="#808080" begin="arrowUp.mouseover" end="arrowUp.mouseout"/>
                  </use>
                  <path fill="none" stroke="white" stroke-width="1.5" d="M0,-3.0v7 M-2.5,-0.5L0,-3.0L2.5,-0.5"/>
                </g>
                <g id="arrowRight" xlink:href="#dirArrow" transform="rotate(90) translate(36 -43)" onmousedown="handlePan(1,0)">
                  <use xlink:href="#rim" fill="#404040">
                        <set attributeName="fill" to="#808080" begin="arrowRight.mouseover" end="arrowRight.mouseout"/>
                  </use>
                  <path fill="none" stroke="white" stroke-width="1.5" d="M0,-3.0v7 M-2.5,-0.5L0,-3.0L2.5,-0.5"/>
                </g>
                <g id="arrowDown" xlink:href="#dirArrow" transform="rotate(180) translate(-30 -48)" onmousedown="handlePan(0,1)">
                  <use xlink:href="#rim" fill="#404040">
                        <set attributeName="fill" to="#808080" begin="arrowDown.mouseover" end="arrowDown.mouseout"/>
                  </use>
                  <path fill="none" stroke="white" stroke-width="1.5" d="M0,-3.0v7 M-2.5,-0.5L0,-3.0L2.5,-0.5"/>
                </g>
                <g id="arrowLeft" xlink:href="#dirArrow" transform="rotate(270) translate(-36 17)" onmousedown="handlePan(-1,0)">
                  <use xlink:href="#rim" fill="#404040">
                        <set attributeName="fill" to="#808080" begin="arrowLeft.mouseover" end="arrowLeft.mouseout"/>
                  </use>
                  <path fill="none" stroke="white" stroke-width="1.5" d="M0,-3.0v7 M-2.5,-0.5L0,-3.0L2.5,-0.5"/>
                </g>
        </g>
        <svg viewBox="0 0 15 15" width="100%" height="30px" preserveAspectRatio="xMaxYMin meet">
         <g id="arrow_out" transform="scale(0.3 0.3)">
          <a xlink:href="ledger__secrets_8h__dep__incl_org.svg" target="_base">
           <rect id="button" ry="5" rx="5" y="6" x="6" height="38" width="38"
                fill="#f2f5e9" fill-opacity="0.5" stroke="#606060" stroke-width="1.0"/>
           <path id="arrow"
             d="M 11.500037,31.436501 C 11.940474,20.09759 22.043105,11.32322 32.158766,21.979434 L 37.068811,17.246167 C 37.068811,17.246167 37.088388,32 37.088388,32 L 22.160133,31.978069 C 22.160133,31.978069 26.997745,27.140456 26.997745,27.140456 C 18.528582,18.264221 13.291696,25.230495 11.500037,31.436501 z"
             style="fill:#404040;"/>
          </a>
         </g>
        </svg>
</svg>
