<?xml version="1.0" encoding="UTF-8" standalone="no"?>
<!DOCTYPE svg PUBLIC "-//W3C//DTD SVG 1.1//EN"
 "http://www.w3.org/Graphics/SVG/1.1/DTD/svg11.dtd">
<!-- Generated by graphviz version 2.43.0 (0)
 -->
<!-- Title: src/host/lfs_file_handler.h Pages: 1 -->
<svg width="1840pt" height="379pt"
 viewBox="0.00 0.00 1840.17 379.00" xmlns="http://www.w3.org/2000/svg" xmlns:xlink="http://www.w3.org/1999/xlink">
<g id="graph0" class="graph" transform="scale(1 1) rotate(0) translate(4 375)">
<title>src/host/lfs_file_handler.h</title>
<!-- Node1 -->
<g id="node1" class="node">
<title>Node1</title>
<g id="a_node1"><a xlink:title=" ">
<polygon fill="#999999" stroke="#666666" points="989.17,-371 849.17,-371 849.17,-352 989.17,-352 989.17,-371"/>
<text text-anchor="middle" x="919.17" y="-359" font-family="Helvetica,sans-Serif" font-size="10.00">src/host/lfs_file_handler.h</text>
</a>
</g>
</g>
<!-- Node2 -->
<g id="node2" class="node">
<title>Node2</title>
<g id="a_node2"><a xlink:href="messaging_8h.html" target="_top" xlink:title=" ">
<polygon fill="white" stroke="#666666" points="916.67,-316 823.67,-316 823.67,-297 916.67,-297 916.67,-316"/>
<text text-anchor="middle" x="870.17" y="-304" font-family="Helvetica,sans-Serif" font-size="10.00">ds/messaging.h</text>
</a>
</g>
</g>
<!-- Node1&#45;&gt;Node2 -->
<g id="edge1" class="edge">
<title>Node1&#45;&gt;Node2</title>
<path fill="none" stroke="#63b8ff" d="M911.08,-351.75C904.02,-344.11 893.58,-332.82 885.02,-323.56"/>
<polygon fill="#63b8ff" stroke="#63b8ff" points="887.47,-321.06 878.11,-316.09 882.33,-325.81 887.47,-321.06"/>
</g>
<!-- Node43 -->
<g id="node43" class="node">
<title>Node43</title>
<g id="a_node43"><a xlink:href="lfs__ringbuffer__types_8h.html" target="_top" xlink:title=" ">
<polygon fill="white" stroke="#666666" points="785.17,-261 659.17,-261 659.17,-231 785.17,-231 785.17,-261"/>
<text text-anchor="start" x="667.17" y="-249" font-family="Helvetica,sans-Serif" font-size="10.00">indexing/lfs_ringbuffer</text>
<text text-anchor="middle" x="722.17" y="-238" font-family="Helvetica,sans-Serif" font-size="10.00">_types.h</text>
</a>
</g>
</g>
<!-- Node1&#45;&gt;Node43 -->
<g id="edge64" class="edge">
<title>Node1&#45;&gt;Node43</title>
<path fill="none" stroke="#63b8ff" d="M894.18,-351.87C872.38,-343.88 840.26,-331.01 814.17,-316 789.78,-301.97 764.36,-282.47 746.44,-267.78"/>
<polygon fill="#63b8ff" stroke="#63b8ff" points="748.21,-264.7 738.28,-261 743.74,-270.08 748.21,-264.7"/>
</g>
<!-- Node46 -->
<g id="node46" class="node">
<title>Node46</title>
<g id="a_node46"><a xlink:title=" ">
<polygon fill="#e0e0e0" stroke="#999999" points="1003.17,-316 935.17,-316 935.17,-297 1003.17,-297 1003.17,-316"/>
<text text-anchor="middle" x="969.17" y="-304" font-family="Helvetica,sans-Serif" font-size="10.00">filesystem</text>
</a>
</g>
</g>
<!-- Node1&#45;&gt;Node46 -->
<g id="edge71" class="edge">
<title>Node1&#45;&gt;Node46</title>
<path fill="none" stroke="#63b8ff" d="M927.43,-351.75C934.64,-344.11 945.28,-332.82 954.02,-323.56"/>
<polygon fill="#63b8ff" stroke="#63b8ff" points="956.75,-325.76 961.07,-316.09 951.66,-320.96 956.75,-325.76"/>
</g>
<!-- Node47 -->
<g id="node47" class="node">
<title>Node47</title>
<g id="a_node47"><a xlink:title=" ">
<polygon fill="#e0e0e0" stroke="#999999" points="1076.67,-316 1021.67,-316 1021.67,-297 1076.67,-297 1076.67,-316"/>
<text text-anchor="middle" x="1049.17" y="-304" font-family="Helvetica,sans-Serif" font-size="10.00">fstream</text>
</a>
</g>
</g>
<!-- Node1&#45;&gt;Node47 -->
<g id="edge72" class="edge">
<title>Node1&#45;&gt;Node47</title>
<path fill="none" stroke="#63b8ff" d="M940.06,-351.98C961.25,-343.34 994.3,-329.87 1018.47,-320.02"/>
<polygon fill="#63b8ff" stroke="#63b8ff" points="1019.97,-323.19 1027.91,-316.17 1017.32,-316.7 1019.97,-323.19"/>
</g>
<!-- Node3 -->
<g id="node3" class="node">
<title>Node3</title>
<g id="a_node3"><a xlink:href="logger_8h.html" target="_top" xlink:title=" ">
<polygon fill="white" stroke="#666666" points="437.67,-255.5 350.67,-255.5 350.67,-236.5 437.67,-236.5 437.67,-255.5"/>
<text text-anchor="middle" x="394.17" y="-243.5" font-family="Helvetica,sans-Serif" font-size="10.00">ccf/ds/logger.h</text>
</a>
</g>
</g>
<!-- Node2&#45;&gt;Node3 -->
<g id="edge2" class="edge">
<title>Node2&#45;&gt;Node3</title>
<path fill="none" stroke="#63b8ff" d="M823.66,-299.78C734.94,-288.88 541.98,-265.17 447.9,-253.6"/>
<polygon fill="#63b8ff" stroke="#63b8ff" points="448.1,-250.1 437.75,-252.36 447.25,-257.05 448.1,-250.1"/>
</g>
<!-- Node10 -->
<g id="node10" class="node">
<title>Node10</title>
<g id="a_node10"><a xlink:title=" ">
<polygon fill="#e0e0e0" stroke="#999999" points="688.17,-140 650.17,-140 650.17,-121 688.17,-121 688.17,-140"/>
<text text-anchor="middle" x="669.17" y="-128" font-family="Helvetica,sans-Serif" font-size="10.00">map</text>
</a>
</g>
</g>
<!-- Node2&#45;&gt;Node10 -->
<g id="edge62" class="edge">
<title>Node2&#45;&gt;Node10</title>
<path fill="none" stroke="#63b8ff" d="M864.24,-296.98C848.45,-274.77 803.24,-214.19 754.17,-176 736.92,-162.57 715.02,-151.22 697.77,-143.34"/>
<polygon fill="#63b8ff" stroke="#63b8ff" points="698.78,-139.96 688.22,-139.11 695.94,-146.36 698.78,-139.96"/>
</g>
<!-- Node18 -->
<g id="node18" class="node">
<title>Node18</title>
<g id="a_node18"><a xlink:href="ring__buffer_8h.html" target="_top" xlink:title=" ">
<polygon fill="white" stroke="#666666" points="1706.67,-255.5 1629.67,-255.5 1629.67,-236.5 1706.67,-236.5 1706.67,-255.5"/>
<text text-anchor="middle" x="1668.17" y="-243.5" font-family="Helvetica,sans-Serif" font-size="10.00">ring_buffer.h</text>
</a>
</g>
</g>
<!-- Node2&#45;&gt;Node18 -->
<g id="edge19" class="edge">
<title>Node2&#45;&gt;Node18</title>
<path fill="none" stroke="#63b8ff" d="M916.88,-298.07C920.02,-297.68 923.14,-297.32 926.17,-297 1206.89,-267.79 1279.16,-287.16 1560.17,-261 1579.63,-259.19 1600.98,-256.56 1619.52,-254.06"/>
<polygon fill="#63b8ff" stroke="#63b8ff" points="1620.07,-257.52 1629.51,-252.7 1619.13,-250.59 1620.07,-257.52"/>
</g>
<!-- Node36 -->
<g id="node36" class="node">
<title>Node36</title>
<g id="a_node36"><a xlink:title=" ">
<polygon fill="#e0e0e0" stroke="#999999" points="1463.67,-19 1398.67,-19 1398.67,0 1463.67,0 1463.67,-19"/>
<text text-anchor="middle" x="1431.17" y="-7" font-family="Helvetica,sans-Serif" font-size="10.00">stdexcept</text>
</a>
</g>
</g>
<!-- Node2&#45;&gt;Node36 -->
<g id="edge63" class="edge">
<title>Node2&#45;&gt;Node36</title>
<path fill="none" stroke="#63b8ff" d="M916.9,-297.89C1069.92,-272.91 1546.17,-194.5 1546.17,-186.5 1546.17,-186.5 1546.17,-186.5 1546.17,-129.5 1546.17,-95.33 1549.01,-81.28 1527.17,-55 1513.48,-38.52 1492.33,-27.81 1473.36,-21.05"/>
<polygon fill="#63b8ff" stroke="#63b8ff" points="1474.29,-17.67 1463.69,-17.86 1472.09,-24.31 1474.29,-17.67"/>
</g>
<!-- Node39 -->
<g id="node39" class="node">
<title>Node39</title>
<g id="a_node39"><a xlink:title=" ">
<polygon fill="#e0e0e0" stroke="#999999" points="830.17,-140 780.17,-140 780.17,-121 830.17,-121 830.17,-140"/>
<text text-anchor="middle" x="805.17" y="-128" font-family="Helvetica,sans-Serif" font-size="10.00">atomic</text>
</a>
</g>
</g>
<!-- Node2&#45;&gt;Node39 -->
<g id="edge60" class="edge">
<title>Node2&#45;&gt;Node39</title>
<path fill="none" stroke="#63b8ff" d="M866.86,-296.63C856.69,-269.4 825.76,-186.61 811.95,-149.65"/>
<polygon fill="#63b8ff" stroke="#63b8ff" points="815.18,-148.29 808.4,-140.14 808.62,-150.74 815.18,-148.29"/>
</g>
<!-- Node42 -->
<g id="node42" class="node">
<title>Node42</title>
<g id="a_node42"><a xlink:title=" ">
<polygon fill="#e0e0e0" stroke="#999999" points="1005.67,-255.5 898.67,-255.5 898.67,-236.5 1005.67,-236.5 1005.67,-255.5"/>
<text text-anchor="middle" x="952.17" y="-243.5" font-family="Helvetica,sans-Serif" font-size="10.00">condition_variable</text>
</a>
</g>
</g>
<!-- Node2&#45;&gt;Node42 -->
<g id="edge61" class="edge">
<title>Node2&#45;&gt;Node42</title>
<path fill="none" stroke="#63b8ff" d="M882.27,-296.87C895.23,-287.62 916.03,-272.78 931.58,-261.69"/>
<polygon fill="#63b8ff" stroke="#63b8ff" points="933.92,-264.32 940.02,-255.67 929.85,-258.63 933.92,-264.32"/>
</g>
<!-- Node4 -->
<g id="node4" class="node">
<title>Node4</title>
<g id="a_node4"><a xlink:href="enum__formatter_8h.html" target="_top" xlink:title=" ">
<polygon fill="white" stroke="#666666" points="654.17,-195 518.17,-195 518.17,-176 654.17,-176 654.17,-195"/>
<text text-anchor="middle" x="586.17" y="-183" font-family="Helvetica,sans-Serif" font-size="10.00">ccf/ds/enum_formatter.h</text>
</a>
</g>
</g>
<!-- Node3&#45;&gt;Node4 -->
<g id="edge3" class="edge">
<title>Node3&#45;&gt;Node4</title>
<path fill="none" stroke="#63b8ff" d="M422.09,-236.49C455.36,-226.36 511.12,-209.37 548.27,-198.05"/>
<polygon fill="#63b8ff" stroke="#63b8ff" points="549.67,-201.28 558.22,-195.02 547.63,-194.58 549.67,-201.28"/>
</g>
<!-- Node5 -->
<g id="node5" class="node">
<title>Node5</title>
<g id="a_node5"><a xlink:title=" ">
<polygon fill="#e0e0e0" stroke="#999999" points="465.67,-140 386.67,-140 386.67,-121 465.67,-121 465.67,-140"/>
<text text-anchor="middle" x="426.17" y="-128" font-family="Helvetica,sans-Serif" font-size="10.00">fmt/format.h</text>
</a>
</g>
</g>
<!-- Node3&#45;&gt;Node5 -->
<g id="edge13" class="edge">
<title>Node3&#45;&gt;Node5</title>
<path fill="none" stroke="#63b8ff" d="M350.51,-243.57C283.02,-239.8 165.23,-226.06 206.17,-176 216.92,-162.86 315.02,-146.98 376.53,-138.19"/>
<polygon fill="#63b8ff" stroke="#63b8ff" points="377.04,-141.65 386.45,-136.79 376.06,-134.72 377.04,-141.65"/>
</g>
<!-- Node6 -->
<g id="node6" class="node">
<title>Node6</title>
<g id="a_node6"><a xlink:href="thread__ids_8h.html" target="_top" xlink:title=" ">
<polygon fill="white" stroke="#666666" points="159.17,-195 51.17,-195 51.17,-176 159.17,-176 159.17,-195"/>
<text text-anchor="middle" x="105.17" y="-183" font-family="Helvetica,sans-Serif" font-size="10.00">ccf/ds/thread_ids.h</text>
</a>
</g>
</g>
<!-- Node3&#45;&gt;Node6 -->
<g id="edge5" class="edge">
<title>Node3&#45;&gt;Node6</title>
<path fill="none" stroke="#63b8ff" d="M352.15,-236.49C300.57,-226.05 213.09,-208.35 157.28,-197.05"/>
<polygon fill="#63b8ff" stroke="#63b8ff" points="157.74,-193.57 147.25,-195.02 156.35,-200.43 157.74,-193.57"/>
</g>
<!-- Node12 -->
<g id="node12" class="node">
<title>Node12</title>
<g id="a_node12"><a xlink:title=" ">
<polygon fill="#e0e0e0" stroke="#999999" points="294.67,-195 215.67,-195 215.67,-176 294.67,-176 294.67,-195"/>
<text text-anchor="middle" x="255.17" y="-183" font-family="Helvetica,sans-Serif" font-size="10.00">fmt/chrono.h</text>
</a>
</g>
</g>
<!-- Node3&#45;&gt;Node12 -->
<g id="edge12" class="edge">
<title>Node3&#45;&gt;Node12</title>
<path fill="none" stroke="#63b8ff" d="M373.96,-236.49C350.49,-226.62 311.57,-210.23 284.71,-198.93"/>
<polygon fill="#63b8ff" stroke="#63b8ff" points="285.98,-195.67 275.41,-195.02 283.27,-202.12 285.98,-195.67"/>
</g>
<!-- Node13 -->
<g id="node13" class="node">
<title>Node13</title>
<g id="a_node13"><a xlink:title=" ">
<polygon fill="#e0e0e0" stroke="#999999" points="372.17,-195 312.17,-195 312.17,-176 372.17,-176 372.17,-195"/>
<text text-anchor="middle" x="342.17" y="-183" font-family="Helvetica,sans-Serif" font-size="10.00">iostream</text>
</a>
</g>
</g>
<!-- Node3&#45;&gt;Node13 -->
<g id="edge14" class="edge">
<title>Node3&#45;&gt;Node13</title>
<path fill="none" stroke="#63b8ff" d="M386.5,-236.37C378.67,-227.55 366.31,-213.66 356.64,-202.77"/>
<polygon fill="#63b8ff" stroke="#63b8ff" points="359.14,-200.32 349.88,-195.17 353.9,-204.97 359.14,-200.32"/>
</g>
<!-- Node14 -->
<g id="node14" class="node">
<title>Node14</title>
<g id="a_node14"><a xlink:title=" ">
<polygon fill="#e0e0e0" stroke="#999999" points="500.17,-195 390.17,-195 390.17,-176 500.17,-176 500.17,-195"/>
<text text-anchor="middle" x="445.17" y="-183" font-family="Helvetica,sans-Serif" font-size="10.00">nlohmann/json.hpp</text>
</a>
</g>
</g>
<!-- Node3&#45;&gt;Node14 -->
<g id="edge15" class="edge">
<title>Node3&#45;&gt;Node14</title>
<path fill="none" stroke="#63b8ff" d="M401.7,-236.37C409.38,-227.55 421.5,-213.66 430.99,-202.77"/>
<polygon fill="#63b8ff" stroke="#63b8ff" points="433.68,-205.01 437.62,-195.17 428.41,-200.41 433.68,-205.01"/>
</g>
<!-- Node15 -->
<g id="node15" class="node">
<title>Node15</title>
<g id="a_node15"><a xlink:title=" ">
<polygon fill="#e0e0e0" stroke="#999999" points="762.17,-140 706.17,-140 706.17,-121 762.17,-121 762.17,-140"/>
<text text-anchor="middle" x="734.17" y="-128" font-family="Helvetica,sans-Serif" font-size="10.00">optional</text>
</a>
</g>
</g>
<!-- Node3&#45;&gt;Node15 -->
<g id="edge16" class="edge">
<title>Node3&#45;&gt;Node15</title>
<path fill="none" stroke="#63b8ff" d="M437.74,-245.39C521.24,-245.12 698.94,-239.21 737.17,-195 747.76,-182.76 745.23,-163.71 741.14,-149.67"/>
<polygon fill="#63b8ff" stroke="#63b8ff" points="744.43,-148.45 737.9,-140.1 737.8,-150.69 744.43,-148.45"/>
</g>
<!-- Node16 -->
<g id="node16" class="node">
<title>Node16</title>
<g id="a_node16"><a xlink:title=" ">
<polygon fill="#e0e0e0" stroke="#999999" points="728.17,-195 672.17,-195 672.17,-176 728.17,-176 728.17,-195"/>
<text text-anchor="middle" x="700.17" y="-183" font-family="Helvetica,sans-Serif" font-size="10.00">sstream</text>
</a>
</g>
</g>
<!-- Node3&#45;&gt;Node16 -->
<g id="edge17" class="edge">
<title>Node3&#45;&gt;Node16</title>
<path fill="none" stroke="#63b8ff" d="M438.08,-237.42C489.45,-228.43 577.28,-212.65 662.12,-195.15"/>
<polygon fill="#63b8ff" stroke="#63b8ff" points="662.84,-198.58 671.92,-193.12 661.42,-191.72 662.84,-198.58"/>
</g>
<!-- Node17 -->
<g id="node17" class="node">
<title>Node17</title>
<g id="a_node17"><a xlink:title=" ">
<polygon fill="#e0e0e0" stroke="#999999" points="692.67,-19 623.67,-19 623.67,0 692.67,0 692.67,-19"/>
<text text-anchor="middle" x="658.17" y="-7" font-family="Helvetica,sans-Serif" font-size="10.00">type_traits</text>
</a>
</g>
</g>
<!-- Node3&#45;&gt;Node17 -->
<g id="edge18" class="edge">
<title>Node3&#45;&gt;Node17</title>
<path fill="none" stroke="#63b8ff" d="M350.49,-245.13C232.9,-244.03 -75.38,-230.87 17.17,-121 94.03,-29.76 480.63,-13.86 613.36,-11.09"/>
<polygon fill="#63b8ff" stroke="#63b8ff" points="613.64,-14.58 623.57,-10.89 613.51,-7.58 613.64,-14.58"/>
</g>
<!-- Node4&#45;&gt;Node5 -->
<g id="edge4" class="edge">
<title>Node4&#45;&gt;Node5</title>
<path fill="none" stroke="#63b8ff" d="M560.47,-175.98C533.72,-167.13 491.64,-153.19 461.72,-143.28"/>
<polygon fill="#63b8ff" stroke="#63b8ff" points="462.67,-139.9 452.08,-140.08 460.47,-146.55 462.67,-139.9"/>
</g>
<!-- Node6&#45;&gt;Node5 -->
<g id="edge6" class="edge">
<title>Node6&#45;&gt;Node5</title>
<path fill="none" stroke="#63b8ff" d="M156.75,-175.98C217.23,-166 316.78,-149.56 376.45,-139.71"/>
<polygon fill="#63b8ff" stroke="#63b8ff" points="377.09,-143.15 386.39,-138.07 375.95,-136.24 377.09,-143.15"/>
</g>
<!-- Node7 -->
<g id="node7" class="node">
<title>Node7</title>
<g id="a_node7"><a xlink:title=" ">
<polygon fill="#e0e0e0" stroke="#999999" points="258.17,-140 172.17,-140 172.17,-121 258.17,-121 258.17,-140"/>
<text text-anchor="middle" x="215.17" y="-128" font-family="Helvetica,sans-Serif" font-size="10.00">fmt/ostream.h</text>
</a>
</g>
</g>
<!-- Node6&#45;&gt;Node7 -->
<g id="edge7" class="edge">
<title>Node6&#45;&gt;Node7</title>
<path fill="none" stroke="#63b8ff" d="M122.85,-175.98C140.46,-167.5 167.75,-154.35 188.1,-144.54"/>
<polygon fill="#63b8ff" stroke="#63b8ff" points="189.69,-147.66 197.18,-140.17 186.65,-141.36 189.69,-147.66"/>
</g>
<!-- Node8 -->
<g id="node8" class="node">
<title>Node8</title>
<g id="a_node8"><a xlink:title=" ">
<polygon fill="#e0e0e0" stroke="#999999" points="87.67,-140 26.67,-140 26.67,-121 87.67,-121 87.67,-140"/>
<text text-anchor="middle" x="57.17" y="-128" font-family="Helvetica,sans-Serif" font-size="10.00">fmt/std.h</text>
</a>
</g>
</g>
<!-- Node6&#45;&gt;Node8 -->
<g id="edge8" class="edge">
<title>Node6&#45;&gt;Node8</title>
<path fill="none" stroke="#63b8ff" d="M97.25,-175.75C90.33,-168.11 80.11,-156.82 71.72,-147.56"/>
<polygon fill="#63b8ff" stroke="#63b8ff" points="74.26,-145.15 64.95,-140.09 69.07,-149.85 74.26,-145.15"/>
</g>
<!-- Node9 -->
<g id="node9" class="node">
<title>Node9</title>
<g id="a_node9"><a xlink:title=" ">
<polygon fill="#e0e0e0" stroke="#999999" points="320.17,-140 276.17,-140 276.17,-121 320.17,-121 320.17,-140"/>
<text text-anchor="middle" x="298.17" y="-128" font-family="Helvetica,sans-Serif" font-size="10.00">limits</text>
</a>
</g>
</g>
<!-- Node6&#45;&gt;Node9 -->
<g id="edge9" class="edge">
<title>Node6&#45;&gt;Node9</title>
<path fill="none" stroke="#63b8ff" d="M136.18,-175.98C171.77,-166.21 229.87,-150.26 265.96,-140.35"/>
<polygon fill="#63b8ff" stroke="#63b8ff" points="267.25,-143.62 275.96,-137.6 265.39,-136.87 267.25,-143.62"/>
</g>
<!-- Node6&#45;&gt;Node10 -->
<g id="edge10" class="edge">
<title>Node6&#45;&gt;Node10</title>
<path fill="none" stroke="#63b8ff" d="M159.42,-179.92C174.55,-178.65 191,-177.27 206.17,-176 399.05,-159.88 449.89,-175.4 640.17,-140 640.27,-139.98 640.37,-139.96 640.47,-139.94"/>
<polygon fill="#63b8ff" stroke="#63b8ff" points="641.02,-143.41 649.96,-137.72 639.43,-136.59 641.02,-143.41"/>
</g>
<!-- Node11 -->
<g id="node11" class="node">
<title>Node11</title>
<g id="a_node11"><a xlink:title=" ">
<polygon fill="#e0e0e0" stroke="#999999" points="154.17,-140 106.17,-140 106.17,-121 154.17,-121 154.17,-140"/>
<text text-anchor="middle" x="130.17" y="-128" font-family="Helvetica,sans-Serif" font-size="10.00">thread</text>
</a>
</g>
</g>
<!-- Node6&#45;&gt;Node11 -->
<g id="edge11" class="edge">
<title>Node6&#45;&gt;Node11</title>
<path fill="none" stroke="#63b8ff" d="M109.3,-175.75C112.69,-168.57 117.59,-158.18 121.79,-149.27"/>
<polygon fill="#63b8ff" stroke="#63b8ff" points="125.02,-150.63 126.12,-140.09 118.69,-147.64 125.02,-150.63"/>
</g>
<!-- Node19 -->
<g id="node19" class="node">
<title>Node19</title>
<g id="a_node19"><a xlink:href="ccf__memcpy_8h.html" target="_top" xlink:title=" ">
<polygon fill="white" stroke="#666666" points="1660.17,-79.5 1574.17,-79.5 1574.17,-60.5 1660.17,-60.5 1660.17,-79.5"/>
<text text-anchor="middle" x="1617.17" y="-67.5" font-family="Helvetica,sans-Serif" font-size="10.00">ccf_memcpy.h</text>
</a>
</g>
</g>
<!-- Node18&#45;&gt;Node19 -->
<g id="edge20" class="edge">
<title>Node18&#45;&gt;Node19</title>
<path fill="none" stroke="#63b8ff" d="M1665.57,-236.13C1657.63,-209.02 1633.53,-126.82 1622.63,-89.63"/>
<polygon fill="#63b8ff" stroke="#63b8ff" points="1625.88,-88.26 1619.71,-79.64 1619.16,-90.22 1625.88,-88.26"/>
</g>
<!-- Node20 -->
<g id="node20" class="node">
<title>Node20</title>
<g id="a_node20"><a xlink:title=" ">
<polygon fill="#e0e0e0" stroke="#999999" points="1642.17,-19 1592.17,-19 1592.17,0 1642.17,0 1642.17,-19"/>
<text text-anchor="middle" x="1617.17" y="-7" font-family="Helvetica,sans-Serif" font-size="10.00">cstring</text>
</a>
</g>
</g>
<!-- Node18&#45;&gt;Node20 -->
<g id="edge57" class="edge">
<title>Node18&#45;&gt;Node20</title>
<path fill="none" stroke="#63b8ff" d="M1670.73,-236.12C1678.35,-207.97 1698.56,-118.82 1669.17,-55 1663.43,-42.52 1652.26,-32.24 1641.75,-24.71"/>
<polygon fill="#63b8ff" stroke="#63b8ff" points="1643.47,-21.65 1633.2,-19.05 1639.61,-27.49 1643.47,-21.65"/>
</g>
<!-- Node21 -->
<g id="node21" class="node">
<title>Node21</title>
<g id="a_node21"><a xlink:href="ring__buffer__types_8h.html" target="_top" xlink:title=" ">
<polygon fill="white" stroke="#666666" points="1008.17,-195 898.17,-195 898.17,-176 1008.17,-176 1008.17,-195"/>
<text text-anchor="middle" x="953.17" y="-183" font-family="Helvetica,sans-Serif" font-size="10.00">ring_buffer_types.h</text>
</a>
</g>
</g>
<!-- Node18&#45;&gt;Node21 -->
<g id="edge22" class="edge">
<title>Node18&#45;&gt;Node21</title>
<path fill="none" stroke="#63b8ff" d="M1629.48,-241.83C1512.93,-232.3 1164.29,-203.77 1018.44,-191.84"/>
<polygon fill="#63b8ff" stroke="#63b8ff" points="1018.55,-188.34 1008.3,-191.01 1017.98,-195.31 1018.55,-188.34"/>
</g>
<!-- Node40 -->
<g id="node40" class="node">
<title>Node40</title>
<g id="a_node40"><a xlink:title=" ">
<polygon fill="#e0e0e0" stroke="#999999" points="1781.67,-195 1716.67,-195 1716.67,-176 1781.67,-176 1781.67,-195"/>
<text text-anchor="middle" x="1749.17" y="-183" font-family="Helvetica,sans-Serif" font-size="10.00">functional</text>
</a>
</g>
</g>
<!-- Node18&#45;&gt;Node40 -->
<g id="edge58" class="edge">
<title>Node18&#45;&gt;Node40</title>
<path fill="none" stroke="#63b8ff" d="M1680.12,-236.37C1692.93,-227.12 1713.47,-212.28 1728.83,-201.19"/>
<polygon fill="#63b8ff" stroke="#63b8ff" points="1731.11,-203.86 1737.17,-195.17 1727.02,-198.18 1731.11,-203.86"/>
</g>
<!-- Node41 -->
<g id="node41" class="node">
<title>Node41</title>
<g id="a_node41"><a xlink:title=" ">
<polygon fill="#e0e0e0" stroke="#999999" points="1832.17,-195 1800.17,-195 1800.17,-176 1832.17,-176 1832.17,-195"/>
<text text-anchor="middle" x="1816.17" y="-183" font-family="Helvetica,sans-Serif" font-size="10.00">set</text>
</a>
</g>
</g>
<!-- Node18&#45;&gt;Node41 -->
<g id="edge59" class="edge">
<title>Node18&#45;&gt;Node41</title>
<path fill="none" stroke="#63b8ff" d="M1689.69,-236.49C1716.51,-225.89 1762.29,-207.8 1790.79,-196.53"/>
<polygon fill="#63b8ff" stroke="#63b8ff" points="1792.08,-199.79 1800.1,-192.85 1789.51,-193.28 1792.08,-199.79"/>
</g>
<!-- Node19&#45;&gt;Node20 -->
<g id="edge21" class="edge">
<title>Node19&#45;&gt;Node20</title>
<path fill="none" stroke="#63b8ff" d="M1617.17,-60.37C1617.17,-52.25 1617.17,-39.81 1617.17,-29.39"/>
<polygon fill="#63b8ff" stroke="#63b8ff" points="1620.67,-29.17 1617.17,-19.17 1613.67,-29.17 1620.67,-29.17"/>
</g>
<!-- Node21&#45;&gt;Node5 -->
<g id="edge53" class="edge">
<title>Node21&#45;&gt;Node5</title>
<path fill="none" stroke="#63b8ff" d="M897.99,-179.8C811.29,-172.27 637.89,-156.65 491.17,-140 486.14,-139.43 480.9,-138.8 475.66,-138.15"/>
<polygon fill="#63b8ff" stroke="#63b8ff" points="476.04,-134.67 465.68,-136.88 475.16,-141.61 476.04,-134.67"/>
</g>
<!-- Node21&#45;&gt;Node15 -->
<g id="edge54" class="edge">
<title>Node21&#45;&gt;Node15</title>
<path fill="none" stroke="#63b8ff" d="M917.99,-175.98C878.08,-166.33 813.25,-150.64 772.2,-140.7"/>
<polygon fill="#63b8ff" stroke="#63b8ff" points="772.85,-137.26 762.31,-138.31 771.21,-144.06 772.85,-137.26"/>
</g>
<!-- Node22 -->
<g id="node22" class="node">
<title>Node22</title>
<g id="a_node22"><a xlink:href="include_2ccf_2ds_2hash_8h.html" target="_top" xlink:title=" ">
<polygon fill="white" stroke="#666666" points="1235.17,-140 1155.17,-140 1155.17,-121 1235.17,-121 1235.17,-140"/>
<text text-anchor="middle" x="1195.17" y="-128" font-family="Helvetica,sans-Serif" font-size="10.00">ccf/ds/hash.h</text>
</a>
</g>
</g>
<!-- Node21&#45;&gt;Node22 -->
<g id="edge23" class="edge">
<title>Node21&#45;&gt;Node22</title>
<path fill="none" stroke="#63b8ff" d="M992.05,-175.98C1033.91,-166.82 1100.6,-152.21 1146.06,-142.26"/>
<polygon fill="#63b8ff" stroke="#63b8ff" points="1146.97,-145.64 1155.99,-140.08 1145.47,-138.8 1146.97,-145.64"/>
</g>
<!-- Node26 -->
<g id="node26" class="node">
<title>Node26</title>
<g id="a_node26"><a xlink:title=" ">
<polygon fill="#e0e0e0" stroke="#999999" points="1121.67,-19 1074.67,-19 1074.67,0 1121.67,0 1121.67,-19"/>
<text text-anchor="middle" x="1098.17" y="-7" font-family="Helvetica,sans-Serif" font-size="10.00">vector</text>
</a>
</g>
</g>
<!-- Node21&#45;&gt;Node26 -->
<g id="edge56" class="edge">
<title>Node21&#45;&gt;Node26</title>
<path fill="none" stroke="#63b8ff" d="M960.56,-175.63C983.55,-148.05 1054.03,-63.47 1084.22,-27.25"/>
<polygon fill="#63b8ff" stroke="#63b8ff" points="1087.26,-29.07 1090.97,-19.14 1081.88,-24.59 1087.26,-29.07"/>
</g>
<!-- Node29 -->
<g id="node29" class="node">
<title>Node29</title>
<g id="a_node29"><a xlink:href="nonstd_8h.html" target="_top" xlink:title=" ">
<polygon fill="white" stroke="#666666" points="918.17,-79.5 828.17,-79.5 828.17,-60.5 918.17,-60.5 918.17,-79.5"/>
<text text-anchor="middle" x="873.17" y="-67.5" font-family="Helvetica,sans-Serif" font-size="10.00">ccf/ds/nonstd.h</text>
</a>
</g>
</g>
<!-- Node21&#45;&gt;Node29 -->
<g id="edge32" class="edge">
<title>Node21&#45;&gt;Node29</title>
<path fill="none" stroke="#63b8ff" d="M958.45,-175.62C965.37,-162.7 975.49,-138.36 965.17,-121 954.41,-102.9 934.56,-90.95 916.04,-83.28"/>
<polygon fill="#63b8ff" stroke="#63b8ff" points="917.13,-79.95 906.54,-79.65 914.63,-86.49 917.13,-79.95"/>
</g>
<!-- Node32 -->
<g id="node32" class="node">
<title>Node32</title>
<g id="a_node32"><a xlink:title=" ">
<polygon fill="#e0e0e0" stroke="#999999" points="755.17,-19 711.17,-19 711.17,0 755.17,0 755.17,-19"/>
<text text-anchor="middle" x="733.17" y="-7" font-family="Helvetica,sans-Serif" font-size="10.00">string</text>
</a>
</g>
</g>
<!-- Node21&#45;&gt;Node32 -->
<g id="edge55" class="edge">
<title>Node21&#45;&gt;Node32</title>
<path fill="none" stroke="#63b8ff" d="M938.63,-175.87C917.17,-163.26 875.61,-139.31 839.17,-121 804.33,-103.5 785.52,-113.74 759.17,-85 745.03,-69.57 738.51,-46.03 735.55,-29.55"/>
<polygon fill="#63b8ff" stroke="#63b8ff" points="738.98,-28.82 734.02,-19.46 732.06,-29.87 738.98,-28.82"/>
</g>
<!-- Node34 -->
<g id="node34" class="node">
<title>Node34</title>
<g id="a_node34"><a xlink:href="serializer_8h.html" target="_top" xlink:title=" ">
<polygon fill="white" stroke="#666666" points="956.17,-140 886.17,-140 886.17,-121 956.17,-121 956.17,-140"/>
<text text-anchor="middle" x="921.17" y="-128" font-family="Helvetica,sans-Serif" font-size="10.00">serializer.h</text>
</a>
</g>
</g>
<!-- Node21&#45;&gt;Node34 -->
<g id="edge40" class="edge">
<title>Node21&#45;&gt;Node34</title>
<path fill="none" stroke="#63b8ff" d="M947.89,-175.75C943.46,-168.42 937.01,-157.73 931.55,-148.7"/>
<polygon fill="#63b8ff" stroke="#63b8ff" points="934.52,-146.84 926.36,-140.09 928.53,-150.46 934.52,-146.84"/>
</g>
<!-- Node21&#45;&gt;Node39 -->
<g id="edge52" class="edge">
<title>Node21&#45;&gt;Node39</title>
<path fill="none" stroke="#63b8ff" d="M929.39,-175.98C904.94,-167.23 866.64,-153.51 839.03,-143.62"/>
<polygon fill="#63b8ff" stroke="#63b8ff" points="839.98,-140.25 829.38,-140.17 837.62,-146.84 839.98,-140.25"/>
</g>
<!-- Node23 -->
<g id="node23" class="node">
<title>Node23</title>
<g id="a_node23"><a xlink:href="siphash_8h.html" target="_top" xlink:title=" ">
<polygon fill="white" stroke="#666666" points="1517.67,-79.5 1422.67,-79.5 1422.67,-60.5 1517.67,-60.5 1517.67,-79.5"/>
<text text-anchor="middle" x="1470.17" y="-67.5" font-family="Helvetica,sans-Serif" font-size="10.00">ccf/ds/siphash.h</text>
</a>
</g>
</g>
<!-- Node22&#45;&gt;Node23 -->
<g id="edge24" class="edge">
<title>Node22&#45;&gt;Node23</title>
<path fill="none" stroke="#63b8ff" d="M1235.26,-121.33C1278.1,-112.54 1348,-98.08 1408.17,-85 1412.91,-83.97 1417.85,-82.88 1422.78,-81.78"/>
<polygon fill="#63b8ff" stroke="#63b8ff" points="1423.82,-85.14 1432.82,-79.54 1422.3,-78.31 1423.82,-85.14"/>
</g>
<!-- Node25 -->
<g id="node25" class="node">
<title>Node25</title>
<g id="a_node25"><a xlink:title=" ">
<polygon fill="#e0e0e0" stroke="#999999" points="1380.17,-19 1330.17,-19 1330.17,0 1380.17,0 1380.17,-19"/>
<text text-anchor="middle" x="1355.17" y="-7" font-family="Helvetica,sans-Serif" font-size="10.00">cstdint</text>
</a>
</g>
</g>
<!-- Node22&#45;&gt;Node25 -->
<g id="edge29" class="edge">
<title>Node22&#45;&gt;Node25</title>
<path fill="none" stroke="#63b8ff" d="M1235.5,-125.26C1283.16,-119.32 1358.16,-106.74 1375.17,-85 1388.15,-68.43 1377.65,-44.13 1367.62,-27.83"/>
<polygon fill="#63b8ff" stroke="#63b8ff" points="1370.39,-25.68 1361.94,-19.28 1364.56,-29.55 1370.39,-25.68"/>
</g>
<!-- Node22&#45;&gt;Node26 -->
<g id="edge31" class="edge">
<title>Node22&#45;&gt;Node26</title>
<path fill="none" stroke="#63b8ff" d="M1169.42,-120.91C1152.17,-113.88 1130.3,-102.24 1117.17,-85 1104.94,-68.94 1100.53,-45.84 1098.97,-29.64"/>
<polygon fill="#63b8ff" stroke="#63b8ff" points="1102.43,-28.99 1098.26,-19.25 1095.45,-29.47 1102.43,-28.99"/>
</g>
<!-- Node27 -->
<g id="node27" class="node">
<title>Node27</title>
<g id="a_node27"><a xlink:title=" ">
<polygon fill="#e0e0e0" stroke="#999999" points="1056.17,-19 1014.17,-19 1014.17,0 1056.17,0 1056.17,-19"/>
<text text-anchor="middle" x="1035.17" y="-7" font-family="Helvetica,sans-Serif" font-size="10.00">array</text>
</a>
</g>
</g>
<!-- Node22&#45;&gt;Node27 -->
<g id="edge28" class="edge">
<title>Node22&#45;&gt;Node27</title>
<path fill="none" stroke="#63b8ff" d="M1169.8,-120.93C1149.7,-113.39 1121.55,-101.11 1100.17,-85 1078.63,-68.77 1059.04,-44.39 1047.12,-27.98"/>
<polygon fill="#63b8ff" stroke="#63b8ff" points="1049.67,-25.52 1041.04,-19.37 1043.95,-29.55 1049.67,-25.52"/>
</g>
<!-- Node28 -->
<g id="node28" class="node">
<title>Node28</title>
<g id="a_node28"><a xlink:title=" ">
<polygon fill="#e0e0e0" stroke="#999999" points="1366.67,-79.5 1217.67,-79.5 1217.67,-60.5 1366.67,-60.5 1366.67,-79.5"/>
<text text-anchor="middle" x="1292.17" y="-67.5" font-family="Helvetica,sans-Serif" font-size="10.00">small_vector/SmallVector.h</text>
</a>
</g>
</g>
<!-- Node22&#45;&gt;Node28 -->
<g id="edge30" class="edge">
<title>Node22&#45;&gt;Node28</title>
<path fill="none" stroke="#63b8ff" d="M1209.48,-120.87C1225.17,-111.41 1250.57,-96.09 1269.09,-84.92"/>
<polygon fill="#63b8ff" stroke="#63b8ff" points="1271.05,-87.83 1277.8,-79.67 1267.43,-81.83 1271.05,-87.83"/>
</g>
<!-- Node24 -->
<g id="node24" class="node">
<title>Node24</title>
<g id="a_node24"><a xlink:title=" ">
<polygon fill="#e0e0e0" stroke="#999999" points="1534.67,-19 1481.67,-19 1481.67,0 1534.67,0 1534.67,-19"/>
<text text-anchor="middle" x="1508.17" y="-7" font-family="Helvetica,sans-Serif" font-size="10.00">cstddef</text>
</a>
</g>
</g>
<!-- Node23&#45;&gt;Node24 -->
<g id="edge25" class="edge">
<title>Node23&#45;&gt;Node24</title>
<path fill="none" stroke="#63b8ff" d="M1475.78,-60.37C1481.34,-51.81 1490,-38.47 1496.97,-27.74"/>
<polygon fill="#63b8ff" stroke="#63b8ff" points="1500.03,-29.46 1502.54,-19.17 1494.16,-25.65 1500.03,-29.46"/>
</g>
<!-- Node23&#45;&gt;Node25 -->
<g id="edge26" class="edge">
<title>Node23&#45;&gt;Node25</title>
<path fill="none" stroke="#63b8ff" d="M1453.2,-60.37C1434.26,-50.73 1403.39,-35.03 1381.35,-23.81"/>
<polygon fill="#63b8ff" stroke="#63b8ff" points="1382.71,-20.58 1372.21,-19.17 1379.54,-26.82 1382.71,-20.58"/>
</g>
<!-- Node23&#45;&gt;Node26 -->
<g id="edge27" class="edge">
<title>Node23&#45;&gt;Node26</title>
<path fill="none" stroke="#63b8ff" d="M1422.3,-61.47C1345.93,-49.46 1198.39,-26.26 1132,-15.82"/>
<polygon fill="#63b8ff" stroke="#63b8ff" points="1132.48,-12.35 1122.06,-14.26 1131.39,-19.27 1132.48,-12.35"/>
</g>
<!-- Node29&#45;&gt;Node17 -->
<g id="edge38" class="edge">
<title>Node29&#45;&gt;Node17</title>
<path fill="none" stroke="#63b8ff" d="M841.91,-60.49C804.25,-50.25 740.88,-33 699.29,-21.69"/>
<polygon fill="#63b8ff" stroke="#63b8ff" points="700.04,-18.27 689.47,-19.02 698.2,-25.02 700.04,-18.27"/>
</g>
<!-- Node29&#45;&gt;Node26 -->
<g id="edge39" class="edge">
<title>Node29&#45;&gt;Node26</title>
<path fill="none" stroke="#63b8ff" d="M905.89,-60.49C948.23,-49.49 1021.62,-30.4 1064.44,-19.27"/>
<polygon fill="#63b8ff" stroke="#63b8ff" points="1065.58,-22.59 1074.38,-16.69 1063.82,-15.82 1065.58,-22.59"/>
</g>
<!-- Node29&#45;&gt;Node27 -->
<g id="edge34" class="edge">
<title>Node29&#45;&gt;Node27</title>
<path fill="none" stroke="#63b8ff" d="M896.73,-60.49C925.23,-50.2 973.3,-32.84 1004.63,-21.53"/>
<polygon fill="#63b8ff" stroke="#63b8ff" points="1005.95,-24.77 1014.16,-18.09 1003.57,-18.19 1005.95,-24.77"/>
</g>
<!-- Node30 -->
<g id="node30" class="node">
<title>Node30</title>
<g id="a_node30"><a xlink:title=" ">
<polygon fill="#e0e0e0" stroke="#999999" points="837.17,-19 773.17,-19 773.17,0 837.17,0 837.17,-19"/>
<text text-anchor="middle" x="805.17" y="-7" font-family="Helvetica,sans-Serif" font-size="10.00">algorithm</text>
</a>
</g>
</g>
<!-- Node29&#45;&gt;Node30 -->
<g id="edge33" class="edge">
<title>Node29&#45;&gt;Node30</title>
<path fill="none" stroke="#63b8ff" d="M863.14,-60.37C852.59,-51.3 835.79,-36.84 822.98,-25.82"/>
<polygon fill="#63b8ff" stroke="#63b8ff" points="825.11,-23.04 815.25,-19.17 820.55,-28.34 825.11,-23.04"/>
</g>
<!-- Node31 -->
<g id="node31" class="node">
<title>Node31</title>
<g id="a_node31"><a xlink:title=" ">
<polygon fill="#e0e0e0" stroke="#999999" points="904.67,-19 855.67,-19 855.67,0 904.67,0 904.67,-19"/>
<text text-anchor="middle" x="880.17" y="-7" font-family="Helvetica,sans-Serif" font-size="10.00">cctype</text>
</a>
</g>
</g>
<!-- Node29&#45;&gt;Node31 -->
<g id="edge35" class="edge">
<title>Node29&#45;&gt;Node31</title>
<path fill="none" stroke="#63b8ff" d="M874.21,-60.37C875.18,-52.25 876.67,-39.81 877.91,-29.39"/>
<polygon fill="#63b8ff" stroke="#63b8ff" points="881.42,-29.51 879.14,-19.17 874.47,-28.68 881.42,-29.51"/>
</g>
<!-- Node29&#45;&gt;Node32 -->
<g id="edge36" class="edge">
<title>Node29&#45;&gt;Node32</title>
<path fill="none" stroke="#63b8ff" d="M852.82,-60.49C829.18,-50.62 789.97,-34.23 762.92,-22.93"/>
<polygon fill="#63b8ff" stroke="#63b8ff" points="764.13,-19.64 753.55,-19.02 761.43,-26.1 764.13,-19.64"/>
</g>
<!-- Node33 -->
<g id="node33" class="node">
<title>Node33</title>
<g id="a_node33"><a xlink:title=" ">
<polygon fill="#e0e0e0" stroke="#999999" points="995.67,-19 922.67,-19 922.67,0 995.67,0 995.67,-19"/>
<text text-anchor="middle" x="959.17" y="-7" font-family="Helvetica,sans-Serif" font-size="10.00">string_view</text>
</a>
</g>
</g>
<!-- Node29&#45;&gt;Node33 -->
<g id="edge37" class="edge">
<title>Node29&#45;&gt;Node33</title>
<path fill="none" stroke="#63b8ff" d="M885.86,-60.37C899.58,-51.04 921.68,-36.01 938.03,-24.88"/>
<polygon fill="#63b8ff" stroke="#63b8ff" points="940.13,-27.69 946.43,-19.17 936.19,-21.9 940.13,-27.69"/>
</g>
<!-- Node34&#45;&gt;Node17 -->
<g id="edge50" class="edge">
<title>Node34&#45;&gt;Node17</title>
<path fill="none" stroke="#63b8ff" d="M886.03,-123.71C852.29,-117.28 800.5,-105.06 759.17,-85 726.73,-69.26 694.02,-42.73 674.95,-25.94"/>
<polygon fill="#63b8ff" stroke="#63b8ff" points="677.21,-23.27 667.42,-19.2 672.53,-28.48 677.21,-23.27"/>
</g>
<!-- Node34&#45;&gt;Node26 -->
<g id="edge51" class="edge">
<title>Node34&#45;&gt;Node26</title>
<path fill="none" stroke="#63b8ff" d="M929.72,-120.88C944.68,-106.12 976.98,-75.6 1008.17,-55 1027.07,-42.52 1049.97,-31.24 1067.94,-23.16"/>
<polygon fill="#63b8ff" stroke="#63b8ff" points="1069.62,-26.25 1077.36,-19.02 1066.8,-19.84 1069.62,-26.25"/>
</g>
<!-- Node34&#45;&gt;Node29 -->
<g id="edge41" class="edge">
<title>Node34&#45;&gt;Node29</title>
<path fill="none" stroke="#63b8ff" d="M914.09,-120.87C906.93,-112.14 895.68,-98.43 886.79,-87.59"/>
<polygon fill="#63b8ff" stroke="#63b8ff" points="889.33,-85.18 880.28,-79.67 883.92,-89.62 889.33,-85.18"/>
</g>
<!-- Node35 -->
<g id="node35" class="node">
<title>Node35</title>
<g id="a_node35"><a xlink:href="serialized_8h.html" target="_top" xlink:title=" ">
<polygon fill="white" stroke="#666666" points="1199.67,-79.5 1126.67,-79.5 1126.67,-60.5 1199.67,-60.5 1199.67,-79.5"/>
<text text-anchor="middle" x="1163.17" y="-67.5" font-family="Helvetica,sans-Serif" font-size="10.00">serialized.h</text>
</a>
</g>
</g>
<!-- Node34&#45;&gt;Node35 -->
<g id="edge42" class="edge">
<title>Node34&#45;&gt;Node35</title>
<path fill="none" stroke="#63b8ff" d="M956.36,-120.99C999.11,-110.66 1071.29,-93.21 1118.07,-81.9"/>
<polygon fill="#63b8ff" stroke="#63b8ff" points="1119.04,-85.27 1127.94,-79.52 1117.4,-78.46 1119.04,-85.27"/>
</g>
<!-- Node37 -->
<g id="node37" class="node">
<title>Node37</title>
<g id="a_node37"><a xlink:title=" ">
<polygon fill="#e0e0e0" stroke="#999999" points="636.17,-79.5 578.17,-79.5 578.17,-60.5 636.17,-60.5 636.17,-79.5"/>
<text text-anchor="middle" x="607.17" y="-67.5" font-family="Helvetica,sans-Serif" font-size="10.00">memory</text>
</a>
</g>
</g>
<!-- Node34&#45;&gt;Node37 -->
<g id="edge48" class="edge">
<title>Node34&#45;&gt;Node37</title>
<path fill="none" stroke="#63b8ff" d="M885.75,-125.43C833.66,-119.05 733.56,-105.3 650.17,-85 647.14,-84.26 644.02,-83.42 640.9,-82.51"/>
<polygon fill="#63b8ff" stroke="#63b8ff" points="641.68,-79.09 631.09,-79.5 639.62,-85.78 641.68,-79.09"/>
</g>
<!-- Node38 -->
<g id="node38" class="node">
<title>Node38</title>
<g id="a_node38"><a xlink:title=" ">
<polygon fill="#e0e0e0" stroke="#999999" points="809.67,-79.5 768.67,-79.5 768.67,-60.5 809.67,-60.5 809.67,-79.5"/>
<text text-anchor="middle" x="789.17" y="-67.5" font-family="Helvetica,sans-Serif" font-size="10.00">tuple</text>
</a>
</g>
</g>
<!-- Node34&#45;&gt;Node38 -->
<g id="edge49" class="edge">
<title>Node34&#45;&gt;Node38</title>
<path fill="none" stroke="#63b8ff" d="M901.17,-120.95C880.56,-112.1 847.52,-97.8 819.17,-85 818.32,-84.62 817.46,-84.23 816.6,-83.83"/>
<polygon fill="#63b8ff" stroke="#63b8ff" points="817.77,-80.52 807.22,-79.51 814.84,-86.88 817.77,-80.52"/>
</g>
<!-- Node35&#45;&gt;Node20 -->
<g id="edge44" class="edge">
<title>Node35&#45;&gt;Node20</title>
<path fill="none" stroke="#63b8ff" d="M1187.7,-60.42C1194.28,-58.38 1201.44,-56.39 1208.17,-55 1355.24,-24.55 1394.91,-35.69 1544.17,-19 1556.43,-17.63 1569.84,-16.08 1581.79,-14.69"/>
<polygon fill="#63b8ff" stroke="#63b8ff" points="1582.32,-18.15 1591.84,-13.51 1581.5,-11.2 1582.32,-18.15"/>
</g>
<!-- Node35&#45;&gt;Node25 -->
<g id="edge43" class="edge">
<title>Node35&#45;&gt;Node25</title>
<path fill="none" stroke="#63b8ff" d="M1190.77,-60.38C1196.52,-58.59 1202.54,-56.73 1208.17,-55 1246.37,-43.28 1290.21,-30.03 1320,-21.06"/>
<polygon fill="#63b8ff" stroke="#63b8ff" points="1321.36,-24.31 1329.92,-18.08 1319.34,-17.61 1321.36,-24.31"/>
</g>
<!-- Node35&#45;&gt;Node26 -->
<g id="edge47" class="edge">
<title>Node35&#45;&gt;Node26</title>
<path fill="none" stroke="#63b8ff" d="M1153.58,-60.37C1143.6,-51.38 1127.74,-37.11 1115.54,-26.14"/>
<polygon fill="#63b8ff" stroke="#63b8ff" points="1117.58,-23.26 1107.8,-19.17 1112.89,-28.46 1117.58,-23.26"/>
</g>
<!-- Node35&#45;&gt;Node32 -->
<g id="edge46" class="edge">
<title>Node35&#45;&gt;Node32</title>
<path fill="none" stroke="#63b8ff" d="M1126.58,-66.18C1057.65,-60.48 903.76,-45.96 765.37,-18.98"/>
<polygon fill="#63b8ff" stroke="#63b8ff" points="765.92,-15.52 755.43,-17.01 764.56,-22.39 765.92,-15.52"/>
</g>
<!-- Node35&#45;&gt;Node36 -->
<g id="edge45" class="edge">
<title>Node35&#45;&gt;Node36</title>
<path fill="none" stroke="#63b8ff" d="M1189.21,-60.39C1195.39,-58.49 1201.99,-56.57 1208.17,-55 1284.56,-35.58 1307.02,-35.14 1388.39,-19.13"/>
<polygon fill="#63b8ff" stroke="#63b8ff" points="1389.49,-22.48 1398.62,-17.1 1388.12,-15.62 1389.49,-22.48"/>
</g>
<!-- Node43&#45;&gt;Node21 -->
<g id="edge65" class="edge">
<title>Node43&#45;&gt;Node21</title>
<path fill="none" stroke="#63b8ff" d="M777.5,-230.99C817.89,-220.76 871.89,-207.09 909.31,-197.61"/>
<polygon fill="#63b8ff" stroke="#63b8ff" points="910.56,-200.9 919.4,-195.05 908.84,-194.12 910.56,-200.9"/>
</g>
<!-- Node44 -->
<g id="node44" class="node">
<title>Node44</title>
<g id="a_node44"><a xlink:href="lfs__interface_8h.html" target="_top" xlink:title=" ">
<polygon fill="white" stroke="#666666" points="631.67,-140 500.67,-140 500.67,-121 631.67,-121 631.67,-140"/>
<text text-anchor="middle" x="566.17" y="-128" font-family="Helvetica,sans-Serif" font-size="10.00">indexing/lfs_interface.h</text>
</a>
</g>
</g>
<!-- Node43&#45;&gt;Node44 -->
<g id="edge66" class="edge">
<title>Node43&#45;&gt;Node44</title>
<path fill="none" stroke="#63b8ff" d="M731.36,-230.83C739.85,-215.75 749.47,-191.91 737.17,-176 724.95,-160.19 680.9,-148.95 640.56,-141.72"/>
<polygon fill="#63b8ff" stroke="#63b8ff" points="641.13,-138.27 630.68,-140.01 639.94,-145.17 641.13,-138.27"/>
</g>
<!-- Node44&#45;&gt;Node26 -->
<g id="edge70" class="edge">
<title>Node44&#45;&gt;Node26</title>
<path fill="none" stroke="#63b8ff" d="M631.68,-121.86C733.89,-109.87 920.38,-87.74 927.17,-85 947.78,-76.69 947.52,-65.37 967.17,-55 984.36,-45.93 1032.13,-30.56 1064.97,-20.46"/>
<polygon fill="#63b8ff" stroke="#63b8ff" points="1066.09,-23.78 1074.64,-17.52 1064.05,-17.09 1066.09,-23.78"/>
</g>
<!-- Node44&#45;&gt;Node32 -->
<g id="edge69" class="edge">
<title>Node44&#45;&gt;Node32</title>
<path fill="none" stroke="#63b8ff" d="M583.69,-120.85C600.09,-112.48 625.01,-99.02 645.17,-85 671.44,-66.73 699.21,-42.23 716.37,-26.4"/>
<polygon fill="#63b8ff" stroke="#63b8ff" points="718.96,-28.77 723.89,-19.4 714.19,-23.65 718.96,-28.77"/>
</g>
<!-- Node44&#45;&gt;Node37 -->
<g id="edge68" class="edge">
<title>Node44&#45;&gt;Node37</title>
<path fill="none" stroke="#63b8ff" d="M572.22,-120.87C578.28,-112.23 587.76,-98.7 595.32,-87.92"/>
<polygon fill="#63b8ff" stroke="#63b8ff" points="598.22,-89.87 601.1,-79.67 592.49,-85.85 598.22,-89.87"/>
</g>
<!-- Node45 -->
<g id="node45" class="node">
<title>Node45</title>
<g id="a_node45"><a xlink:href="node__subsystem__interface_8h.html" target="_top" xlink:title=" ">
<polygon fill="white" stroke="#666666" points="560.17,-85 444.17,-85 444.17,-55 560.17,-55 560.17,-85"/>
<text text-anchor="start" x="452.17" y="-73" font-family="Helvetica,sans-Serif" font-size="10.00">ccf/node_subsystem</text>
<text text-anchor="middle" x="502.17" y="-62" font-family="Helvetica,sans-Serif" font-size="10.00">_interface.h</text>
</a>
</g>
</g>
<!-- Node44&#45;&gt;Node45 -->
<g id="edge67" class="edge">
<title>Node44&#45;&gt;Node45</title>
<path fill="none" stroke="#63b8ff" d="M556.73,-120.87C548.45,-113.3 536.06,-101.98 525.19,-92.04"/>
<polygon fill="#63b8ff" stroke="#63b8ff" points="527.36,-89.28 517.61,-85.11 522.63,-94.44 527.36,-89.28"/>
</g>
</g>
</svg>
