<?xml version="1.0" encoding="UTF-8" standalone="no"?>
<!DOCTYPE svg PUBLIC "-//W3C//DTD SVG 1.1//EN"
 "http://www.w3.org/Graphics/SVG/1.1/DTD/svg11.dtd">
<!-- Generated by graphviz version 2.43.0 (0)
 -->
<!-- Title: src/node/node_types.h Pages: 1 -->
<!--zoomable 544 -->
<svg id="main" version="1.1" xmlns="http://www.w3.org/2000/svg" xmlns:xlink="http://www.w3.org/1999/xlink" xml:space="preserve" onload="init(evt)">
<style type="text/css"><![CDATA[
.edge:hover path { stroke: red; }
.edge:hover polygon { stroke: red; fill: red; }
]]></style>
<script type="text/javascript"><![CDATA[
var edges = document.getElementsByTagName('g');
if (edges && edges.length) {
  for (var i=0;i<edges.length;i++) {
    if (edges[i].id.substr(0,4)=='edge') {
      edges[i].setAttribute('class','edge');
    }
  }
}
]]></script>
        <defs>
                <circle id="rim" cx="0" cy="0" r="7"/>
                <circle id="rim2" cx="0" cy="0" r="3.5"/>
                <g id="zoomPlus">
                        <use xlink:href="#rim" fill="#404040">
                                <set attributeName="fill" to="#808080" begin="zoomplus.mouseover" end="zoomplus.mouseout"/>
                        </use>
                        <path d="M-4,0h8M0,-4v8" fill="none" stroke="white" stroke-width="1.5" pointer-events="none"/>
                </g>
                <g id="zoomMin">
                        <use xlink:href="#rim" fill="#404040">
                                <set attributeName="fill" to="#808080" begin="zoomminus.mouseover" end="zoomminus.mouseout"/>
                        </use>
                        <path d="M-4,0h8" fill="none" stroke="white" stroke-width="1.5" pointer-events="none"/>
                </g>
                <g id="dirArrow">
                        <path fill="none" stroke="white" stroke-width="1.5" d="M0,-3.0v7 M-2.5,-0.5L0,-3.0L2.5,-0.5"/>
                </g>
               <g id="resetDef">
                       <use xlink:href="#rim2" fill="#404040">
                               <set attributeName="fill" to="#808080" begin="reset.mouseover" end="reset.mouseout"/>
                       </use>
               </g>
        </defs>

<script type="text/javascript">
var viewWidth = 756;
var viewHeight = 544;
var sectionId = 'dynsection-1';
</script>
<script xlink:href="svgpan.js"/>
<svg id="graph" class="graph">
<g id="viewport">
<title>src/node/node_types.h</title>
<!-- Node1 -->
<g id="node1" class="node">
<title>Node1</title>
<g id="a_node1"><a xlink:title=" ">
<polygon fill="#999999" stroke="#666666" points="249,-536 123,-536 123,-517 249,-517 249,-536"/>
<text text-anchor="middle" x="186" y="-524" font-family="Helvetica,sans-Serif" font-size="10.00">src/node/node_types.h</text>
</a>
</g>
</g>
<!-- Node2 -->
<g id="node2" class="node">
<title>Node2</title>
<g id="a_node2"><a xlink:href="raft_8h.html" target="_top" xlink:title=" ">
<polygon fill="white" stroke="#666666" points="157.5,-420.5 28.5,-420.5 28.5,-401.5 157.5,-401.5 157.5,-420.5"/>
<text text-anchor="middle" x="93" y="-408.5" font-family="Helvetica,sans-Serif" font-size="10.00">src/consensus/aft/raft.h</text>
</a>
</g>
</g>
<!-- Node1&#45;&gt;Node2 -->
<g id="edge1" class="edge">
<title>Node1&#45;&gt;Node2</title>
<path fill="none" stroke="#63b8ff" d="M158.39,-511.95C145.29,-504.37 130.29,-493.85 120,-481 105.2,-462.53 97.73,-434.96 94.69,-420.92"/>
<polygon fill="#63b8ff" stroke="#63b8ff" points="157.05,-515.21 167.5,-516.95 160.41,-509.07 157.05,-515.21"/>
</g>
<!-- Node4 -->
<g id="node4" class="node">
<title>Node4</title>
<g id="a_node4"><a xlink:href="enclave_2enclave_8h.html" target="_top" xlink:title=" ">
<polygon fill="white" stroke="#666666" points="559,-74 437,-74 437,-55 559,-55 559,-74"/>
<text text-anchor="middle" x="498" y="-62" font-family="Helvetica,sans-Serif" font-size="10.00">src/enclave/enclave.h</text>
</a>
</g>
</g>
<!-- Node1&#45;&gt;Node4 -->
<g id="edge7" class="edge">
<title>Node1&#45;&gt;Node4</title>
<path fill="none" stroke="#63b8ff" d="M124.77,-514.53C70.57,-500.88 0,-471.65 0,-412 0,-412 0,-412 0,-173.5 0,-85.03 303.96,-68.88 436.94,-66.04"/>
<polygon fill="#63b8ff" stroke="#63b8ff" points="124.14,-517.98 134.68,-516.9 125.77,-511.17 124.14,-517.98"/>
</g>
<!-- Node7 -->
<g id="node7" class="node">
<title>Node7</title>
<g id="a_node7"><a xlink:href="node__connections_8h.html" target="_top" xlink:title=" ">
<polygon fill="white" stroke="#666666" points="634.5,-481 479.5,-481 479.5,-462 634.5,-462 634.5,-481"/>
<text text-anchor="middle" x="557" y="-469" font-family="Helvetica,sans-Serif" font-size="10.00">src/host/node_connections.h</text>
</a>
</g>
</g>
<!-- Node1&#45;&gt;Node7 -->
<g id="edge8" class="edge">
<title>Node1&#45;&gt;Node7</title>
<path fill="none" stroke="#63b8ff" d="M255.61,-515.56C325.26,-505.61 431.28,-490.46 497.23,-481.04"/>
<polygon fill="#63b8ff" stroke="#63b8ff" points="255.01,-512.11 245.61,-516.98 256,-519.04 255.01,-512.11"/>
</g>
<!-- Node9 -->
<g id="node9" class="node">
<title>Node9</title>
<g id="a_node9"><a xlink:href="channels_8h.html" target="_top" xlink:title=" ">
<polygon fill="white" stroke="#666666" points="242.5,-481 129.5,-481 129.5,-462 242.5,-462 242.5,-481"/>
<text text-anchor="middle" x="186" y="-469" font-family="Helvetica,sans-Serif" font-size="10.00">src/node/channels.h</text>
</a>
</g>
</g>
<!-- Node1&#45;&gt;Node9 -->
<g id="edge10" class="edge">
<title>Node1&#45;&gt;Node9</title>
<path fill="none" stroke="#63b8ff" d="M186,-506.66C186,-497.93 186,-487.99 186,-481.09"/>
<polygon fill="#63b8ff" stroke="#63b8ff" points="182.5,-506.75 186,-516.75 189.5,-506.75 182.5,-506.75"/>
</g>
<!-- Node11 -->
<g id="node11" class="node">
<title>Node11</title>
<g id="a_node11"><a xlink:href="node__to__node_8h.html" target="_top" xlink:title=" ">
<polygon fill="white" stroke="#666666" points="399,-481 261,-481 261,-462 399,-462 399,-481"/>
<text text-anchor="middle" x="330" y="-469" font-family="Helvetica,sans-Serif" font-size="10.00">src/node/node_to_node.h</text>
</a>
</g>
</g>
<!-- Node1&#45;&gt;Node11 -->
<g id="edge13" class="edge">
<title>Node1&#45;&gt;Node11</title>
<path fill="none" stroke="#63b8ff" d="M218.82,-513.42C245.53,-503.59 282.6,-489.95 306.44,-481.17"/>
<polygon fill="#63b8ff" stroke="#63b8ff" points="217.31,-510.25 209.14,-516.98 219.73,-516.82 217.31,-510.25"/>
</g>
<!-- Node3 -->
<g id="node3" class="node">
<title>Node3</title>
<g id="a_node3"><a xlink:href="node__state_8h.html" target="_top" xlink:title=" ">
<polygon fill="white" stroke="#666666" points="378,-184 254,-184 254,-165 378,-165 378,-184"/>
<text text-anchor="middle" x="316" y="-172" font-family="Helvetica,sans-Serif" font-size="10.00">src/node/node_state.h</text>
</a>
</g>
</g>
<!-- Node2&#45;&gt;Node3 -->
<g id="edge2" class="edge">
<title>Node2&#45;&gt;Node3</title>
<path fill="none" stroke="#63b8ff" d="M104.35,-392.53C127.92,-357.1 185.18,-275.46 247,-220 263.34,-205.34 284.99,-192.21 299.65,-184.08"/>
<polygon fill="#63b8ff" stroke="#63b8ff" points="101.19,-390.96 98.61,-401.24 107.04,-394.81 101.19,-390.96"/>
</g>
<!-- Node3&#45;&gt;Node4 -->
<g id="edge3" class="edge">
<title>Node3&#45;&gt;Node4</title>
<path fill="none" stroke="#63b8ff" d="M350.64,-161.23C371.18,-153.3 397.35,-142.05 419,-129 446.43,-112.47 474.79,-87.35 488.89,-74.21"/>
<polygon fill="#63b8ff" stroke="#63b8ff" points="349.18,-158.04 341.05,-164.85 351.65,-164.59 349.18,-158.04"/>
</g>
<!-- Node6 -->
<g id="node6" class="node">
<title>Node6</title>
<g id="a_node6"><a xlink:href="gov__effects_8h.html" target="_top" xlink:title=" ">
<polygon fill="white" stroke="#666666" points="410,-129 266,-129 266,-110 410,-110 410,-129"/>
<text text-anchor="middle" x="338" y="-117" font-family="Helvetica,sans-Serif" font-size="10.00">src/node/rpc/gov_effects.h</text>
</a>
</g>
</g>
<!-- Node3&#45;&gt;Node6 -->
<g id="edge5" class="edge">
<title>Node3&#45;&gt;Node6</title>
<path fill="none" stroke="#63b8ff" d="M323.58,-155.24C327.26,-146.37 331.51,-136.14 334.43,-129.09"/>
<polygon fill="#63b8ff" stroke="#63b8ff" points="320.23,-154.17 319.63,-164.75 326.7,-156.85 320.23,-154.17"/>
</g>
<!-- Node5 -->
<g id="node5" class="node">
<title>Node5</title>
<g id="a_node5"><a xlink:href="enclave_2main_8cpp.html" target="_top" xlink:title=" ">
<polygon fill="white" stroke="#666666" points="558,-19 438,-19 438,0 558,0 558,-19"/>
<text text-anchor="middle" x="498" y="-7" font-family="Helvetica,sans-Serif" font-size="10.00">src/enclave/main.cpp</text>
</a>
</g>
</g>
<!-- Node4&#45;&gt;Node5 -->
<g id="edge4" class="edge">
<title>Node4&#45;&gt;Node5</title>
<path fill="none" stroke="#63b8ff" d="M498,-44.66C498,-35.93 498,-25.99 498,-19.09"/>
<polygon fill="#63b8ff" stroke="#63b8ff" points="494.5,-44.75 498,-54.75 501.5,-44.75 494.5,-44.75"/>
</g>
<!-- Node6&#45;&gt;Node4 -->
<g id="edge6" class="edge">
<title>Node6&#45;&gt;Node4</title>
<path fill="none" stroke="#63b8ff" d="M373.33,-106.8C403.19,-96.91 445.27,-82.97 472.09,-74.08"/>
<polygon fill="#63b8ff" stroke="#63b8ff" points="372.1,-103.52 363.71,-109.98 374.3,-110.16 372.1,-103.52"/>
</g>
<!-- Node8 -->
<g id="node8" class="node">
<title>Node8</title>
<g id="a_node8"><a xlink:href="host_2main_8cpp.html" target="_top" xlink:title=" ">
<polygon fill="white" stroke="#666666" points="623.5,-420.5 520.5,-420.5 520.5,-401.5 623.5,-401.5 623.5,-420.5"/>
<text text-anchor="middle" x="572" y="-408.5" font-family="Helvetica,sans-Serif" font-size="10.00">src/host/main.cpp</text>
</a>
</g>
</g>
<!-- Node7&#45;&gt;Node8 -->
<g id="edge9" class="edge">
<title>Node7&#45;&gt;Node8</title>
<path fill="none" stroke="#63b8ff" d="M561.75,-451.99C564.43,-441.51 567.67,-428.89 569.78,-420.67"/>
<polygon fill="#63b8ff" stroke="#63b8ff" points="558.31,-451.31 559.21,-461.87 565.09,-453.05 558.31,-451.31"/>
</g>
<!-- Node10 -->
<g id="node10" class="node">
<title>Node10</title>
<g id="a_node10"><a xlink:href="node__to__node__channel__manager_8h.html" target="_top" xlink:title=" ">
<polygon fill="white" stroke="#666666" points="304.5,-426 175.5,-426 175.5,-396 304.5,-396 304.5,-426"/>
<text text-anchor="start" x="183.5" y="-414" font-family="Helvetica,sans-Serif" font-size="10.00">src/node/node_to_node</text>
<text text-anchor="middle" x="240" y="-403" font-family="Helvetica,sans-Serif" font-size="10.00">_channel_manager.h</text>
</a>
</g>
</g>
<!-- Node9&#45;&gt;Node10 -->
<g id="edge11" class="edge">
<title>Node9&#45;&gt;Node10</title>
<path fill="none" stroke="#63b8ff" d="M200.84,-454.43C209.02,-445.56 219.09,-434.65 226.97,-426.11"/>
<polygon fill="#63b8ff" stroke="#63b8ff" points="198.18,-452.15 193.97,-461.87 203.32,-456.89 198.18,-452.15"/>
</g>
<!-- Node10&#45;&gt;Node3 -->
<g id="edge12" class="edge">
<title>Node10&#45;&gt;Node3</title>
<path fill="none" stroke="#63b8ff" d="M237.7,-385.49C235.27,-347.59 235.14,-273.54 264,-220 272.46,-204.31 288.86,-191.73 300.99,-184"/>
<polygon fill="#63b8ff" stroke="#63b8ff" points="234.22,-385.89 238.46,-395.6 241.2,-385.37 234.22,-385.89"/>
</g>
<!-- Node11&#45;&gt;Node2 -->
<g id="edge14" class="edge">
<title>Node11&#45;&gt;Node2</title>
<path fill="none" stroke="#63b8ff" d="M285.59,-459.54C239.78,-448.23 169.3,-430.83 127.5,-420.52"/>
<polygon fill="#63b8ff" stroke="#63b8ff" points="284.99,-463 295.54,-461.99 286.67,-456.2 284.99,-463"/>
</g>
<!-- Node11&#45;&gt;Node3 -->
<g id="edge15" class="edge">
<title>Node11&#45;&gt;Node3</title>
<path fill="none" stroke="#63b8ff" d="M328.28,-451.55C324.9,-413.43 317.54,-324.72 315,-250 314.19,-226.21 315.06,-198.13 315.62,-184.22"/>
<polygon fill="#63b8ff" stroke="#63b8ff" points="324.81,-452.04 329.18,-461.69 331.78,-451.42 324.81,-452.04"/>
</g>
<!-- Node11&#45;&gt;Node10 -->
<g id="edge16" class="edge">
<title>Node11&#45;&gt;Node10</title>
<path fill="none" stroke="#63b8ff" d="M308.14,-456.29C294.05,-447.13 275.78,-435.26 261.71,-426.11"/>
<polygon fill="#63b8ff" stroke="#63b8ff" points="306.43,-459.35 316.72,-461.87 310.24,-453.48 306.43,-459.35"/>
</g>
<!-- Node12 -->
<g id="node12" class="node">
<title>Node12</title>
<g id="a_node12"><a xlink:href="forwarder_8h.html" target="_top" xlink:title=" ">
<polygon fill="white" stroke="#666666" points="502,-420.5 368,-420.5 368,-401.5 502,-401.5 502,-420.5"/>
<text text-anchor="middle" x="435" y="-408.5" font-family="Helvetica,sans-Serif" font-size="10.00">src/node/rpc/forwarder.h</text>
</a>
</g>
</g>
<!-- Node11&#45;&gt;Node12 -->
<g id="edge17" class="edge">
<title>Node11&#45;&gt;Node12</title>
<path fill="none" stroke="#63b8ff" d="M354.37,-456.92C374.43,-445.74 402.28,-430.23 419.44,-420.67"/>
<polygon fill="#63b8ff" stroke="#63b8ff" points="352.53,-453.94 345.49,-461.87 355.93,-460.06 352.53,-453.94"/>
</g>
<!-- Node12&#45;&gt;Node4 -->
<g id="edge18" class="edge">
<title>Node12&#45;&gt;Node4</title>
<path fill="none" stroke="#63b8ff" d="M478.53,-398.88C564.54,-376.3 748,-324.82 748,-296.5 748,-296.5 748,-296.5 748,-173.5 748,-91.47 633.17,-71.02 559.16,-66.36"/>
<polygon fill="#63b8ff" stroke="#63b8ff" points="477.59,-395.51 468.79,-401.43 479.35,-402.29 477.59,-395.51"/>
</g>
<!-- Node13 -->
<g id="node13" class="node">
<title>Node13</title>
<g id="a_node13"><a xlink:href="frontend_8h.html" target="_top" xlink:title=" ">
<polygon fill="white" stroke="#666666" points="505.5,-360 376.5,-360 376.5,-341 505.5,-341 505.5,-360"/>
<text text-anchor="middle" x="441" y="-348" font-family="Helvetica,sans-Serif" font-size="10.00">src/node/rpc/frontend.h</text>
</a>
</g>
</g>
<!-- Node12&#45;&gt;Node13 -->
<g id="edge19" class="edge">
<title>Node12&#45;&gt;Node13</title>
<path fill="none" stroke="#63b8ff" d="M436.93,-391.16C438,-380.74 439.28,-368.3 440.11,-360.17"/>
<polygon fill="#63b8ff" stroke="#63b8ff" points="433.42,-391.06 435.89,-401.37 440.39,-391.78 433.42,-391.06"/>
</g>
<!-- Node13&#45;&gt;Node3 -->
<g id="edge20" class="edge">
<title>Node13&#45;&gt;Node3</title>
<path fill="none" stroke="#63b8ff" d="M400.92,-337.17C384.04,-330.16 365.46,-319.76 353,-305 321.93,-268.2 316.9,-206.77 316.13,-184.18"/>
<polygon fill="#63b8ff" stroke="#63b8ff" points="400.01,-340.57 410.6,-340.91 402.53,-334.04 400.01,-340.57"/>
</g>
<!-- Node14 -->
<g id="node14" class="node">
<title>Node14</title>
<g id="a_node14"><a xlink:href="member__frontend_8h.html" target="_top" xlink:title=" ">
<polygon fill="white" stroke="#666666" points="646,-250 526,-250 526,-220 646,-220 646,-250"/>
<text text-anchor="start" x="534" y="-238" font-family="Helvetica,sans-Serif" font-size="10.00">src/node/rpc/member</text>
<text text-anchor="middle" x="586" y="-227" font-family="Helvetica,sans-Serif" font-size="10.00">_frontend.h</text>
</a>
</g>
</g>
<!-- Node13&#45;&gt;Node14 -->
<g id="edge21" class="edge">
<title>Node13&#45;&gt;Node14</title>
<path fill="none" stroke="#63b8ff" d="M473.47,-336.94C490.95,-329.26 512.3,-318.35 529,-305 548.91,-289.09 566.7,-265.25 576.92,-250.17"/>
<polygon fill="#63b8ff" stroke="#63b8ff" points="472.04,-333.74 464.2,-340.87 474.78,-340.19 472.04,-333.74"/>
</g>
<!-- Node15 -->
<g id="node15" class="node">
<title>Node15</title>
<g id="a_node15"><a xlink:href="node__frontend_8h.html" target="_top" xlink:title=" ">
<polygon fill="white" stroke="#666666" points="520,-305 362,-305 362,-286 520,-286 520,-305"/>
<text text-anchor="middle" x="441" y="-293" font-family="Helvetica,sans-Serif" font-size="10.00">src/node/rpc/node_frontend.h</text>
</a>
</g>
</g>
<!-- Node13&#45;&gt;Node15 -->
<g id="edge23" class="edge">
<title>Node13&#45;&gt;Node15</title>
<path fill="none" stroke="#63b8ff" d="M441,-330.66C441,-321.93 441,-311.99 441,-305.09"/>
<polygon fill="#63b8ff" stroke="#63b8ff" points="437.5,-330.75 441,-340.75 444.5,-330.75 437.5,-330.75"/>
</g>
<!-- Node17 -->
<g id="node17" class="node">
<title>Node17</title>
<g id="a_node17"><a xlink:href="user__frontend_8h.html" target="_top" xlink:title=" ">
<polygon fill="white" stroke="#666666" points="719.5,-184 564.5,-184 564.5,-165 719.5,-165 719.5,-184"/>
<text text-anchor="middle" x="642" y="-172" font-family="Helvetica,sans-Serif" font-size="10.00">src/node/rpc/user_frontend.h</text>
</a>
</g>
</g>
<!-- Node13&#45;&gt;Node17 -->
<g id="edge27" class="edge">
<title>Node13&#45;&gt;Node17</title>
<path fill="none" stroke="#63b8ff" d="M508.28,-338.65C558.73,-326.54 624.18,-301.39 655,-250 667.56,-229.06 655.01,-199.22 647.2,-184.47"/>
<polygon fill="#63b8ff" stroke="#63b8ff" points="507.37,-335.27 498.4,-340.91 508.93,-342.09 507.37,-335.27"/>
</g>
<!-- Node14&#45;&gt;Node4 -->
<g id="edge22" class="edge">
<title>Node14&#45;&gt;Node4</title>
<path fill="none" stroke="#63b8ff" d="M571.75,-211.17C566.62,-202.73 560.9,-193.01 556,-184 534.13,-143.75 511.03,-94.06 501.97,-74.25"/>
<polygon fill="#63b8ff" stroke="#63b8ff" points="568.79,-213.05 577.01,-219.75 574.76,-209.39 568.79,-213.05"/>
</g>
<!-- Node15&#45;&gt;Node4 -->
<g id="edge24" class="edge">
<title>Node15&#45;&gt;Node4</title>
<path fill="none" stroke="#63b8ff" d="M458.6,-278.75C466.19,-270.9 474.38,-260.79 479,-250 506.01,-186.95 501.23,-101.1 498.86,-74.03"/>
<polygon fill="#63b8ff" stroke="#63b8ff" points="456.09,-276.31 451.36,-285.79 460.97,-281.33 456.09,-276.31"/>
</g>
<!-- Node16 -->
<g id="node16" class="node">
<title>Node16</title>
<g id="a_node16"><a xlink:href="jwt__key__auto__refresh_8h.html" target="_top" xlink:title=" ">
<polygon fill="white" stroke="#666666" points="469.5,-250 344.5,-250 344.5,-220 469.5,-220 469.5,-250"/>
<text text-anchor="start" x="352.5" y="-238" font-family="Helvetica,sans-Serif" font-size="10.00">src/node/jwt_key_auto</text>
<text text-anchor="middle" x="407" y="-227" font-family="Helvetica,sans-Serif" font-size="10.00">_refresh.h</text>
</a>
</g>
</g>
<!-- Node15&#45;&gt;Node16 -->
<g id="edge25" class="edge">
<title>Node15&#45;&gt;Node16</title>
<path fill="none" stroke="#63b8ff" d="M430.86,-277.05C425.86,-268.45 419.91,-258.21 415.2,-250.11"/>
<polygon fill="#63b8ff" stroke="#63b8ff" points="427.93,-278.98 435.98,-285.87 433.98,-275.46 427.93,-278.98"/>
</g>
<!-- Node16&#45;&gt;Node3 -->
<g id="edge26" class="edge">
<title>Node16&#45;&gt;Node3</title>
<path fill="none" stroke="#63b8ff" d="M376.43,-214.35C360.45,-204.07 341.7,-192.02 329.37,-184.09"/>
<polygon fill="#63b8ff" stroke="#63b8ff" points="374.67,-217.38 384.97,-219.84 378.45,-211.49 374.67,-217.38"/>
</g>
<!-- Node17&#45;&gt;Node4 -->
<g id="edge28" class="edge">
<title>Node17&#45;&gt;Node4</title>
<path fill="none" stroke="#63b8ff" d="M622,-158.5C591.43,-135.57 534.03,-92.52 509.54,-74.16"/>
<polygon fill="#63b8ff" stroke="#63b8ff" points="620.12,-161.46 630.22,-164.66 624.32,-155.86 620.12,-161.46"/>
</g>
</g>
</svg>
        <g id="navigator" transform="translate(0 0)" fill="#404254">
                <rect fill="#f2f5e9" fill-opacity="0.5" stroke="#606060" stroke-width=".5" x="0" y="0" width="60" height="60"/>
                <use id="zoomplus" xlink:href="#zoomPlus" x="17" y="9" onmousedown="handleZoom(evt,'in')"/>
                <use id="zoomminus" xlink:href="#zoomMin" x="42" y="9" onmousedown="handleZoom(evt,'out')"/>
                <use id="reset" xlink:href="#resetDef" x="30" y="36" onmousedown="handleReset()"/>
                <g id="arrowUp" xlink:href="#dirArrow" transform="translate(30 24)" onmousedown="handlePan(0,-1)">
                  <use xlink:href="#rim" fill="#404040">
                        <set attributeName="fill" to="#808080" begin="arrowUp.mouseover" end="arrowUp.mouseout"/>
                  </use>
                  <path fill="none" stroke="white" stroke-width="1.5" d="M0,-3.0v7 M-2.5,-0.5L0,-3.0L2.5,-0.5"/>
                </g>
                <g id="arrowRight" xlink:href="#dirArrow" transform="rotate(90) translate(36 -43)" onmousedown="handlePan(1,0)">
                  <use xlink:href="#rim" fill="#404040">
                        <set attributeName="fill" to="#808080" begin="arrowRight.mouseover" end="arrowRight.mouseout"/>
                  </use>
                  <path fill="none" stroke="white" stroke-width="1.5" d="M0,-3.0v7 M-2.5,-0.5L0,-3.0L2.5,-0.5"/>
                </g>
                <g id="arrowDown" xlink:href="#dirArrow" transform="rotate(180) translate(-30 -48)" onmousedown="handlePan(0,1)">
                  <use xlink:href="#rim" fill="#404040">
                        <set attributeName="fill" to="#808080" begin="arrowDown.mouseover" end="arrowDown.mouseout"/>
                  </use>
                  <path fill="none" stroke="white" stroke-width="1.5" d="M0,-3.0v7 M-2.5,-0.5L0,-3.0L2.5,-0.5"/>
                </g>
                <g id="arrowLeft" xlink:href="#dirArrow" transform="rotate(270) translate(-36 17)" onmousedown="handlePan(-1,0)">
                  <use xlink:href="#rim" fill="#404040">
                        <set attributeName="fill" to="#808080" begin="arrowLeft.mouseover" end="arrowLeft.mouseout"/>
                  </use>
                  <path fill="none" stroke="white" stroke-width="1.5" d="M0,-3.0v7 M-2.5,-0.5L0,-3.0L2.5,-0.5"/>
                </g>
        </g>
        <svg viewBox="0 0 15 15" width="100%" height="30px" preserveAspectRatio="xMaxYMin meet">
         <g id="arrow_out" transform="scale(0.3 0.3)">
          <a xlink:href="node__types_8h__dep__incl_org.svg" target="_base">
           <rect id="button" ry="5" rx="5" y="6" x="6" height="38" width="38"
                fill="#f2f5e9" fill-opacity="0.5" stroke="#606060" stroke-width="1.0"/>
           <path id="arrow"
             d="M 11.500037,31.436501 C 11.940474,20.09759 22.043105,11.32322 32.158766,21.979434 L 37.068811,17.246167 C 37.068811,17.246167 37.088388,32 37.088388,32 L 22.160133,31.978069 C 22.160133,31.978069 26.997745,27.140456 26.997745,27.140456 C 18.528582,18.264221 13.291696,25.230495 11.500037,31.436501 z"
             style="fill:#404040;"/>
          </a>
         </g>
        </svg>
</svg>
