<?xml version="1.0" encoding="UTF-8" standalone="no"?>
<!DOCTYPE svg PUBLIC "-//W3C//DTD SVG 1.1//EN"
 "http://www.w3.org/Graphics/SVG/1.1/DTD/svg11.dtd">
<!-- Generated by graphviz version 2.43.0 (0)
 -->
<!-- Title: src/node/node_to_node.h Pages: 1 -->
<!--zoomable 489 -->
<svg id="main" version="1.1" xmlns="http://www.w3.org/2000/svg" xmlns:xlink="http://www.w3.org/1999/xlink" xml:space="preserve" onload="init(evt)">
<style type="text/css"><![CDATA[
.edge:hover path { stroke: red; }
.edge:hover polygon { stroke: red; fill: red; }
]]></style>
<script type="text/javascript"><![CDATA[
var edges = document.getElementsByTagName('g');
if (edges && edges.length) {
  for (var i=0;i<edges.length;i++) {
    if (edges[i].id.substr(0,4)=='edge') {
      edges[i].setAttribute('class','edge');
    }
  }
}
]]></script>
        <defs>
                <circle id="rim" cx="0" cy="0" r="7"/>
                <circle id="rim2" cx="0" cy="0" r="3.5"/>
                <g id="zoomPlus">
                        <use xlink:href="#rim" fill="#404040">
                                <set attributeName="fill" to="#808080" begin="zoomplus.mouseover" end="zoomplus.mouseout"/>
                        </use>
                        <path d="M-4,0h8M0,-4v8" fill="none" stroke="white" stroke-width="1.5" pointer-events="none"/>
                </g>
                <g id="zoomMin">
                        <use xlink:href="#rim" fill="#404040">
                                <set attributeName="fill" to="#808080" begin="zoomminus.mouseover" end="zoomminus.mouseout"/>
                        </use>
                        <path d="M-4,0h8" fill="none" stroke="white" stroke-width="1.5" pointer-events="none"/>
                </g>
                <g id="dirArrow">
                        <path fill="none" stroke="white" stroke-width="1.5" d="M0,-3.0v7 M-2.5,-0.5L0,-3.0L2.5,-0.5"/>
                </g>
               <g id="resetDef">
                       <use xlink:href="#rim2" fill="#404040">
                               <set attributeName="fill" to="#808080" begin="reset.mouseover" end="reset.mouseout"/>
                       </use>
               </g>
        </defs>

<script type="text/javascript">
var viewWidth = 665;
var viewHeight = 489;
var sectionId = 'dynsection-1';
</script>
<script xlink:href="svgpan.js"/>
<svg id="graph" class="graph">
<g id="viewport">
<title>src/node/node_to_node.h</title>
<!-- Node1 -->
<g id="node1" class="node">
<title>Node1</title>
<g id="a_node1"><a xlink:title=" ">
<polygon fill="#999999" stroke="#666666" points="209.26,-481 71.26,-481 71.26,-462 209.26,-462 209.26,-481"/>
<text text-anchor="middle" x="140.26" y="-469" font-family="Helvetica,sans-Serif" font-size="10.00">src/node/node_to_node.h</text>
</a>
</g>
</g>
<!-- Node2 -->
<g id="node2" class="node">
<title>Node2</title>
<g id="a_node2"><a xlink:href="raft_8h.html" target="_top" xlink:title=" ">
<polygon fill="white" stroke="#666666" points="251.76,-371 122.76,-371 122.76,-352 251.76,-352 251.76,-371"/>
<text text-anchor="middle" x="187.26" y="-359" font-family="Helvetica,sans-Serif" font-size="10.00">src/consensus/aft/raft.h</text>
</a>
</g>
</g>
<!-- Node1&#45;&gt;Node2 -->
<g id="edge1" class="edge">
<title>Node1&#45;&gt;Node2</title>
<path fill="none" stroke="#63b8ff" d="M148.11,-452.44C158.35,-428.92 175.84,-388.73 183.49,-371.16"/>
<polygon fill="#63b8ff" stroke="#63b8ff" points="144.88,-451.1 144.1,-461.66 151.3,-453.89 144.88,-451.1"/>
</g>
<!-- Node3 -->
<g id="node3" class="node">
<title>Node3</title>
<g id="a_node3"><a xlink:href="node__state_8h.html" target="_top" xlink:title=" ">
<polygon fill="white" stroke="#666666" points="269.26,-189.5 145.26,-189.5 145.26,-170.5 269.26,-170.5 269.26,-189.5"/>
<text text-anchor="middle" x="207.26" y="-177.5" font-family="Helvetica,sans-Serif" font-size="10.00">src/node/node_state.h</text>
</a>
</g>
</g>
<!-- Node1&#45;&gt;Node3 -->
<g id="edge7" class="edge">
<title>Node1&#45;&gt;Node3</title>
<path fill="none" stroke="#63b8ff" d="M100.58,-458.57C59.5,-443.48 1.26,-413.14 1.26,-362.5 1.26,-362.5 1.26,-362.5 1.26,-305.5 1.26,-271.33 -3.77,-255.3 20.26,-231 52.74,-198.14 104.28,-186.15 145.03,-182.1"/>
<polygon fill="#63b8ff" stroke="#63b8ff" points="99.5,-461.9 110.09,-461.91 101.82,-455.3 99.5,-461.9"/>
</g>
<!-- Node7 -->
<g id="node7" class="node">
<title>Node7</title>
<g id="a_node7"><a xlink:href="node__to__node__channel__manager_8h.html" target="_top" xlink:title=" ">
<polygon fill="white" stroke="#666666" points="158.76,-261 29.76,-261 29.76,-231 158.76,-231 158.76,-261"/>
<text text-anchor="start" x="37.76" y="-249" font-family="Helvetica,sans-Serif" font-size="10.00">src/node/node_to_node</text>
<text text-anchor="middle" x="94.26" y="-238" font-family="Helvetica,sans-Serif" font-size="10.00">_channel_manager.h</text>
</a>
</g>
</g>
<!-- Node1&#45;&gt;Node7 -->
<g id="edge8" class="edge">
<title>Node1&#45;&gt;Node7</title>
<path fill="none" stroke="#63b8ff" d="M134.9,-452.17C129.23,-432.3 120.28,-399.6 114.26,-371 105.93,-331.53 99.2,-284.35 96.1,-261.21"/>
<polygon fill="#63b8ff" stroke="#63b8ff" points="131.54,-453.14 137.68,-461.78 138.27,-451.2 131.54,-453.14"/>
</g>
<!-- Node8 -->
<g id="node8" class="node">
<title>Node8</title>
<g id="a_node8"><a xlink:href="forwarder_8h.html" target="_top" xlink:title=" ">
<polygon fill="white" stroke="#666666" points="494.26,-426 360.26,-426 360.26,-407 494.26,-407 494.26,-426"/>
<text text-anchor="middle" x="427.26" y="-414" font-family="Helvetica,sans-Serif" font-size="10.00">src/node/rpc/forwarder.h</text>
</a>
</g>
</g>
<!-- Node1&#45;&gt;Node8 -->
<g id="edge10" class="edge">
<title>Node1&#45;&gt;Node8</title>
<path fill="none" stroke="#63b8ff" d="M196.43,-460.13C250.23,-450.19 330.47,-435.37 380.78,-426.08"/>
<polygon fill="#63b8ff" stroke="#63b8ff" points="195.57,-456.73 186.37,-461.98 196.84,-463.61 195.57,-456.73"/>
</g>
<!-- Node2&#45;&gt;Node3 -->
<g id="edge2" class="edge">
<title>Node2&#45;&gt;Node3</title>
<path fill="none" stroke="#63b8ff" d="M189.37,-341.53C193.66,-303.02 203.25,-216.99 206.3,-189.57"/>
<polygon fill="#63b8ff" stroke="#63b8ff" points="185.85,-341.52 188.22,-351.84 192.81,-342.29 185.85,-341.52"/>
</g>
<!-- Node4 -->
<g id="node4" class="node">
<title>Node4</title>
<g id="a_node4"><a xlink:href="enclave_2enclave_8h.html" target="_top" xlink:title=" ">
<polygon fill="white" stroke="#666666" points="521.26,-74 399.26,-74 399.26,-55 521.26,-55 521.26,-74"/>
<text text-anchor="middle" x="460.26" y="-62" font-family="Helvetica,sans-Serif" font-size="10.00">src/enclave/enclave.h</text>
</a>
</g>
</g>
<!-- Node3&#45;&gt;Node4 -->
<g id="edge3" class="edge">
<title>Node3&#45;&gt;Node4</title>
<path fill="none" stroke="#63b8ff" d="M207.26,-160.21C208.32,-144.52 212.44,-122.74 226.26,-110 250.92,-87.26 338.31,-75.47 399.02,-69.88"/>
<polygon fill="#63b8ff" stroke="#63b8ff" points="203.75,-160.23 206.93,-170.33 210.75,-160.45 203.75,-160.23"/>
</g>
<!-- Node6 -->
<g id="node6" class="node">
<title>Node6</title>
<g id="a_node6"><a xlink:href="gov__effects_8h.html" target="_top" xlink:title=" ">
<polygon fill="white" stroke="#666666" points="379.26,-129 235.26,-129 235.26,-110 379.26,-110 379.26,-129"/>
<text text-anchor="middle" x="307.26" y="-117" font-family="Helvetica,sans-Serif" font-size="10.00">src/node/rpc/gov_effects.h</text>
</a>
</g>
</g>
<!-- Node3&#45;&gt;Node6 -->
<g id="edge5" class="edge">
<title>Node3&#45;&gt;Node6</title>
<path fill="none" stroke="#63b8ff" d="M230.72,-165.27C249.81,-154.1 276.17,-138.69 292.44,-129.17"/>
<polygon fill="#63b8ff" stroke="#63b8ff" points="228.88,-162.3 222.01,-170.37 232.41,-168.34 228.88,-162.3"/>
</g>
<!-- Node5 -->
<g id="node5" class="node">
<title>Node5</title>
<g id="a_node5"><a xlink:href="enclave_2main_8cpp.html" target="_top" xlink:title=" ">
<polygon fill="white" stroke="#666666" points="520.26,-19 400.26,-19 400.26,0 520.26,0 520.26,-19"/>
<text text-anchor="middle" x="460.26" y="-7" font-family="Helvetica,sans-Serif" font-size="10.00">src/enclave/main.cpp</text>
</a>
</g>
</g>
<!-- Node4&#45;&gt;Node5 -->
<g id="edge4" class="edge">
<title>Node4&#45;&gt;Node5</title>
<path fill="none" stroke="#63b8ff" d="M460.26,-44.66C460.26,-35.93 460.26,-25.99 460.26,-19.09"/>
<polygon fill="#63b8ff" stroke="#63b8ff" points="456.76,-44.75 460.26,-54.75 463.76,-44.75 456.76,-44.75"/>
</g>
<!-- Node6&#45;&gt;Node4 -->
<g id="edge6" class="edge">
<title>Node6&#45;&gt;Node4</title>
<path fill="none" stroke="#63b8ff" d="M341.41,-106.67C369.94,-96.79 409.94,-82.93 435.48,-74.08"/>
<polygon fill="#63b8ff" stroke="#63b8ff" points="340.14,-103.4 331.84,-109.98 342.43,-110.02 340.14,-103.4"/>
</g>
<!-- Node7&#45;&gt;Node3 -->
<g id="edge9" class="edge">
<title>Node7&#45;&gt;Node3</title>
<path fill="none" stroke="#63b8ff" d="M127.85,-225.97C149.23,-213.87 175.87,-198.78 192.22,-189.52"/>
<polygon fill="#63b8ff" stroke="#63b8ff" points="126.03,-222.98 119.05,-230.95 129.48,-229.07 126.03,-222.98"/>
</g>
<!-- Node8&#45;&gt;Node4 -->
<g id="edge11" class="edge">
<title>Node8&#45;&gt;Node4</title>
<path fill="none" stroke="#63b8ff" d="M504.52,-410.52C571.33,-401.52 657.26,-376.52 657.26,-307.5 657.26,-307.5 657.26,-307.5 657.26,-179 657.26,-143.33 644.52,-131.77 616.26,-110 589.03,-89.04 552.33,-77.95 521.36,-72.08"/>
<polygon fill="#63b8ff" stroke="#63b8ff" points="503.89,-407.07 494.4,-411.78 504.76,-414.02 503.89,-407.07"/>
</g>
<!-- Node9 -->
<g id="node9" class="node">
<title>Node9</title>
<g id="a_node9"><a xlink:href="frontend_8h.html" target="_top" xlink:title=" ">
<polygon fill="white" stroke="#666666" points="491.76,-371 362.76,-371 362.76,-352 491.76,-352 491.76,-371"/>
<text text-anchor="middle" x="427.26" y="-359" font-family="Helvetica,sans-Serif" font-size="10.00">src/node/rpc/frontend.h</text>
</a>
</g>
</g>
<!-- Node8&#45;&gt;Node9 -->
<g id="edge12" class="edge">
<title>Node8&#45;&gt;Node9</title>
<path fill="none" stroke="#63b8ff" d="M427.26,-396.66C427.26,-387.93 427.26,-377.99 427.26,-371.09"/>
<polygon fill="#63b8ff" stroke="#63b8ff" points="423.76,-396.75 427.26,-406.75 430.76,-396.75 423.76,-396.75"/>
</g>
<!-- Node9&#45;&gt;Node3 -->
<g id="edge13" class="edge">
<title>Node9&#45;&gt;Node3</title>
<path fill="none" stroke="#63b8ff" d="M364.72,-349.62C338.75,-342.95 309.35,-332.42 286.26,-316 240,-283.12 216.61,-213.95 209.59,-189.66"/>
<polygon fill="#63b8ff" stroke="#63b8ff" points="363.94,-353.04 374.48,-351.99 365.59,-346.23 363.94,-353.04"/>
</g>
<!-- Node10 -->
<g id="node10" class="node">
<title>Node10</title>
<g id="a_node10"><a xlink:href="member__frontend_8h.html" target="_top" xlink:title=" ">
<polygon fill="white" stroke="#666666" points="629.26,-195 509.26,-195 509.26,-165 629.26,-165 629.26,-195"/>
<text text-anchor="start" x="517.26" y="-183" font-family="Helvetica,sans-Serif" font-size="10.00">src/node/rpc/member</text>
<text text-anchor="middle" x="569.26" y="-172" font-family="Helvetica,sans-Serif" font-size="10.00">_frontend.h</text>
</a>
</g>
</g>
<!-- Node9&#45;&gt;Node10 -->
<g id="edge14" class="edge">
<title>Node9&#45;&gt;Node10</title>
<path fill="none" stroke="#63b8ff" d="M454.08,-347.05C467.61,-339.31 483.58,-328.62 495.26,-316 530.1,-278.33 554.3,-221.23 564.23,-195.03"/>
<polygon fill="#63b8ff" stroke="#63b8ff" points="452.27,-344.05 445.19,-351.92 455.64,-350.19 452.27,-344.05"/>
</g>
<!-- Node11 -->
<g id="node11" class="node">
<title>Node11</title>
<g id="a_node11"><a xlink:href="node__frontend_8h.html" target="_top" xlink:title=" ">
<polygon fill="white" stroke="#666666" points="453.26,-316 295.26,-316 295.26,-297 453.26,-297 453.26,-316"/>
<text text-anchor="middle" x="374.26" y="-304" font-family="Helvetica,sans-Serif" font-size="10.00">src/node/rpc/node_frontend.h</text>
</a>
</g>
</g>
<!-- Node9&#45;&gt;Node11 -->
<g id="edge16" class="edge">
<title>Node9&#45;&gt;Node11</title>
<path fill="none" stroke="#63b8ff" d="M411.27,-344.52C401.93,-335.18 390.51,-323.75 382.84,-316.09"/>
<polygon fill="#63b8ff" stroke="#63b8ff" points="408.96,-347.15 418.5,-351.75 413.91,-342.2 408.96,-347.15"/>
</g>
<!-- Node13 -->
<g id="node13" class="node">
<title>Node13</title>
<g id="a_node13"><a xlink:href="user__frontend_8h.html" target="_top" xlink:title=" ">
<polygon fill="white" stroke="#666666" points="590.76,-129 435.76,-129 435.76,-110 590.76,-110 590.76,-129"/>
<text text-anchor="middle" x="513.26" y="-117" font-family="Helvetica,sans-Serif" font-size="10.00">src/node/rpc/user_frontend.h</text>
</a>
</g>
</g>
<!-- Node9&#45;&gt;Node13 -->
<g id="edge20" class="edge">
<title>Node9&#45;&gt;Node13</title>
<path fill="none" stroke="#63b8ff" d="M442.74,-344.27C449.6,-336.29 457.24,-326.21 462.26,-316 492.76,-253.88 482.11,-231.78 500.26,-165 503.68,-152.42 507.97,-137.94 510.67,-129"/>
<polygon fill="#63b8ff" stroke="#63b8ff" points="440.1,-341.96 436.01,-351.73 445.3,-346.65 440.1,-341.96"/>
</g>
<!-- Node10&#45;&gt;Node4 -->
<g id="edge15" class="edge">
<title>Node10&#45;&gt;Node4</title>
<path fill="none" stroke="#63b8ff" d="M590.4,-157.05C601.47,-142.83 610.76,-124.35 600.26,-110 582.19,-85.3 550.3,-73.98 521.51,-68.92"/>
<polygon fill="#63b8ff" stroke="#63b8ff" points="587.58,-154.97 583.81,-164.87 592.93,-159.48 587.58,-154.97"/>
</g>
<!-- Node11&#45;&gt;Node4 -->
<g id="edge17" class="edge">
<title>Node11&#45;&gt;Node4</title>
<path fill="none" stroke="#63b8ff" d="M380.33,-286.94C382.87,-278.99 385.8,-269.56 388.26,-261 407.33,-194.36 397.39,-172.55 427.26,-110 433.8,-96.29 444.84,-82.55 452.33,-74.04"/>
<polygon fill="#63b8ff" stroke="#63b8ff" points="376.93,-286.08 377.18,-296.68 383.59,-288.24 376.93,-286.08"/>
</g>
<!-- Node12 -->
<g id="node12" class="node">
<title>Node12</title>
<g id="a_node12"><a xlink:href="jwt__key__auto__refresh_8h.html" target="_top" xlink:title=" ">
<polygon fill="white" stroke="#666666" points="378.76,-261 253.76,-261 253.76,-231 378.76,-231 378.76,-261"/>
<text text-anchor="start" x="261.76" y="-249" font-family="Helvetica,sans-Serif" font-size="10.00">src/node/jwt_key_auto</text>
<text text-anchor="middle" x="316.26" y="-238" font-family="Helvetica,sans-Serif" font-size="10.00">_refresh.h</text>
</a>
</g>
</g>
<!-- Node11&#45;&gt;Node12 -->
<g id="edge18" class="edge">
<title>Node11&#45;&gt;Node12</title>
<path fill="none" stroke="#63b8ff" d="M358.59,-289.7C349.75,-280.78 338.8,-269.74 330.25,-261.11"/>
<polygon fill="#63b8ff" stroke="#63b8ff" points="356.17,-292.23 365.7,-296.87 361.14,-287.3 356.17,-292.23"/>
</g>
<!-- Node12&#45;&gt;Node3 -->
<g id="edge19" class="edge">
<title>Node12&#45;&gt;Node3</title>
<path fill="none" stroke="#63b8ff" d="M283.58,-225.81C263,-213.73 237.46,-198.73 221.76,-189.52"/>
<polygon fill="#63b8ff" stroke="#63b8ff" points="281.94,-228.91 292.34,-230.95 285.48,-222.87 281.94,-228.91"/>
</g>
<!-- Node13&#45;&gt;Node4 -->
<g id="edge21" class="edge">
<title>Node13&#45;&gt;Node4</title>
<path fill="none" stroke="#63b8ff" d="M497.27,-102.52C487.93,-93.18 476.51,-81.75 468.84,-74.09"/>
<polygon fill="#63b8ff" stroke="#63b8ff" points="494.96,-105.15 504.5,-109.75 499.91,-100.2 494.96,-105.15"/>
</g>
</g>
</svg>
        <g id="navigator" transform="translate(0 0)" fill="#404254">
                <rect fill="#f2f5e9" fill-opacity="0.5" stroke="#606060" stroke-width=".5" x="0" y="0" width="60" height="60"/>
                <use id="zoomplus" xlink:href="#zoomPlus" x="17" y="9" onmousedown="handleZoom(evt,'in')"/>
                <use id="zoomminus" xlink:href="#zoomMin" x="42" y="9" onmousedown="handleZoom(evt,'out')"/>
                <use id="reset" xlink:href="#resetDef" x="30" y="36" onmousedown="handleReset()"/>
                <g id="arrowUp" xlink:href="#dirArrow" transform="translate(30 24)" onmousedown="handlePan(0,-1)">
                  <use xlink:href="#rim" fill="#404040">
                        <set attributeName="fill" to="#808080" begin="arrowUp.mouseover" end="arrowUp.mouseout"/>
                  </use>
                  <path fill="none" stroke="white" stroke-width="1.5" d="M0,-3.0v7 M-2.5,-0.5L0,-3.0L2.5,-0.5"/>
                </g>
                <g id="arrowRight" xlink:href="#dirArrow" transform="rotate(90) translate(36 -43)" onmousedown="handlePan(1,0)">
                  <use xlink:href="#rim" fill="#404040">
                        <set attributeName="fill" to="#808080" begin="arrowRight.mouseover" end="arrowRight.mouseout"/>
                  </use>
                  <path fill="none" stroke="white" stroke-width="1.5" d="M0,-3.0v7 M-2.5,-0.5L0,-3.0L2.5,-0.5"/>
                </g>
                <g id="arrowDown" xlink:href="#dirArrow" transform="rotate(180) translate(-30 -48)" onmousedown="handlePan(0,1)">
                  <use xlink:href="#rim" fill="#404040">
                        <set attributeName="fill" to="#808080" begin="arrowDown.mouseover" end="arrowDown.mouseout"/>
                  </use>
                  <path fill="none" stroke="white" stroke-width="1.5" d="M0,-3.0v7 M-2.5,-0.5L0,-3.0L2.5,-0.5"/>
                </g>
                <g id="arrowLeft" xlink:href="#dirArrow" transform="rotate(270) translate(-36 17)" onmousedown="handlePan(-1,0)">
                  <use xlink:href="#rim" fill="#404040">
                        <set attributeName="fill" to="#808080" begin="arrowLeft.mouseover" end="arrowLeft.mouseout"/>
                  </use>
                  <path fill="none" stroke="white" stroke-width="1.5" d="M0,-3.0v7 M-2.5,-0.5L0,-3.0L2.5,-0.5"/>
                </g>
        </g>
        <svg viewBox="0 0 15 15" width="100%" height="30px" preserveAspectRatio="xMaxYMin meet">
         <g id="arrow_out" transform="scale(0.3 0.3)">
          <a xlink:href="node__to__node_8h__dep__incl_org.svg" target="_base">
           <rect id="button" ry="5" rx="5" y="6" x="6" height="38" width="38"
                fill="#f2f5e9" fill-opacity="0.5" stroke="#606060" stroke-width="1.0"/>
           <path id="arrow"
             d="M 11.500037,31.436501 C 11.940474,20.09759 22.043105,11.32322 32.158766,21.979434 L 37.068811,17.246167 C 37.068811,17.246167 37.088388,32 37.088388,32 L 22.160133,31.978069 C 22.160133,31.978069 26.997745,27.140456 26.997745,27.140456 C 18.528582,18.264221 13.291696,25.230495 11.500037,31.436501 z"
             style="fill:#404040;"/>
          </a>
         </g>
        </svg>
</svg>
