<?xml version="1.0" encoding="UTF-8" standalone="no"?>
<!DOCTYPE svg PUBLIC "-//W3C//DTD SVG 1.1//EN"
 "http://www.w3.org/Graphics/SVG/1.1/DTD/svg11.dtd">
<!-- Generated by graphviz version 2.43.0 (0)
 -->
<!-- Title: src/service/tables/previous_service_identity.h Pages: 1 -->
<!--zoomable 445 -->
<svg id="main" version="1.1" xmlns="http://www.w3.org/2000/svg" xmlns:xlink="http://www.w3.org/1999/xlink" xml:space="preserve" onload="init(evt)">
<style type="text/css"><![CDATA[
.edge:hover path { stroke: red; }
.edge:hover polygon { stroke: red; fill: red; }
]]></style>
<script type="text/javascript"><![CDATA[
var edges = document.getElementsByTagName('g');
if (edges && edges.length) {
  for (var i=0;i<edges.length;i++) {
    if (edges[i].id.substr(0,4)=='edge') {
      edges[i].setAttribute('class','edge');
    }
  }
}
]]></script>
        <defs>
                <circle id="rim" cx="0" cy="0" r="7"/>
                <circle id="rim2" cx="0" cy="0" r="3.5"/>
                <g id="zoomPlus">
                        <use xlink:href="#rim" fill="#404040">
                                <set attributeName="fill" to="#808080" begin="zoomplus.mouseover" end="zoomplus.mouseout"/>
                        </use>
                        <path d="M-4,0h8M0,-4v8" fill="none" stroke="white" stroke-width="1.5" pointer-events="none"/>
                </g>
                <g id="zoomMin">
                        <use xlink:href="#rim" fill="#404040">
                                <set attributeName="fill" to="#808080" begin="zoomminus.mouseover" end="zoomminus.mouseout"/>
                        </use>
                        <path d="M-4,0h8" fill="none" stroke="white" stroke-width="1.5" pointer-events="none"/>
                </g>
                <g id="dirArrow">
                        <path fill="none" stroke="white" stroke-width="1.5" d="M0,-3.0v7 M-2.5,-0.5L0,-3.0L2.5,-0.5"/>
                </g>
               <g id="resetDef">
                       <use xlink:href="#rim2" fill="#404040">
                               <set attributeName="fill" to="#808080" begin="reset.mouseover" end="reset.mouseout"/>
                       </use>
               </g>
        </defs>

<script type="text/javascript">
var viewWidth = 1388;
var viewHeight = 445;
var sectionId = 'dynsection-0';
</script>
<script xlink:href="svgpan.js"/>
<svg id="graph" class="graph">
<g id="viewport">
<title>src/service/tables/previous_service_identity.h</title>
<!-- Node1 -->
<g id="node1" class="node">
<title>Node1</title>
<g id="a_node1"><a xlink:title=" ">
<polygon fill="#999999" stroke="#666666" points="548,-437 396,-437 396,-407 548,-407 548,-437"/>
<text text-anchor="start" x="404" y="-425" font-family="Helvetica,sans-Serif" font-size="10.00">src/service/tables</text>
<text text-anchor="middle" x="472" y="-414" font-family="Helvetica,sans-Serif" font-size="10.00">/previous_service_identity.h</text>
</a>
</g>
</g>
<!-- Node2 -->
<g id="node2" class="node">
<title>Node2</title>
<g id="a_node2"><a xlink:href="pem_8h.html" target="_top" xlink:title=" ">
<polygon fill="white" stroke="#666666" points="435,-371 337,-371 337,-352 435,-352 435,-371"/>
<text text-anchor="middle" x="386" y="-359" font-family="Helvetica,sans-Serif" font-size="10.00">ccf/crypto/pem.h</text>
</a>
</g>
</g>
<!-- Node1&#45;&gt;Node2 -->
<g id="edge1" class="edge">
<title>Node1&#45;&gt;Node2</title>
<path fill="none" stroke="#63b8ff" d="M451.18,-406.84C437.85,-397.77 420.61,-386.04 407.21,-376.92"/>
<polygon fill="#63b8ff" stroke="#63b8ff" points="408.87,-373.83 398.63,-371.09 404.93,-379.61 408.87,-373.83"/>
</g>
<!-- Node5 -->
<g id="node5" class="node">
<title>Node5</title>
<g id="a_node5"><a xlink:title=" ">
<polygon fill="#e0e0e0" stroke="#999999" points="651,-129 607,-129 607,-110 651,-110 651,-129"/>
<text text-anchor="middle" x="629" y="-117" font-family="Helvetica,sans-Serif" font-size="10.00">string</text>
</a>
</g>
</g>
<!-- Node1&#45;&gt;Node5 -->
<g id="edge60" class="edge">
<title>Node1&#45;&gt;Node5</title>
<path fill="none" stroke="#63b8ff" d="M475.07,-406.93C482.55,-374.43 503.64,-292.2 538,-231 558.95,-193.7 592.87,-156.59 612.85,-136.29"/>
<polygon fill="#63b8ff" stroke="#63b8ff" points="615.41,-138.68 620,-129.13 610.46,-133.73 615.41,-138.68"/>
</g>
<!-- Node6 -->
<g id="node6" class="node">
<title>Node6</title>
<g id="a_node6"><a xlink:title=" ">
<polygon fill="#e0e0e0" stroke="#999999" points="564.5,-19 517.5,-19 517.5,0 564.5,0 564.5,-19"/>
<text text-anchor="middle" x="541" y="-7" font-family="Helvetica,sans-Serif" font-size="10.00">vector</text>
</a>
</g>
</g>
<!-- Node1&#45;&gt;Node6 -->
<g id="edge61" class="edge">
<title>Node1&#45;&gt;Node6</title>
<path fill="none" stroke="#63b8ff" d="M395.9,-418.32C262.4,-411.52 0,-387.94 0,-307.5 0,-307.5 0,-307.5 0,-118.5 0,-87.83 2.18,-73.01 27,-55 65.81,-26.85 399.28,-14.66 507.35,-11.42"/>
<polygon fill="#63b8ff" stroke="#63b8ff" points="507.48,-14.92 517.38,-11.13 507.28,-7.92 507.48,-14.92"/>
</g>
<!-- Node21 -->
<g id="node21" class="node">
<title>Node21</title>
<g id="a_node21"><a xlink:href="value_8h.html" target="_top" xlink:title=" ">
<polygon fill="white" stroke="#666666" points="835.5,-371 750.5,-371 750.5,-352 835.5,-352 835.5,-371"/>
<text text-anchor="middle" x="793" y="-359" font-family="Helvetica,sans-Serif" font-size="10.00">ccf/kv/value.h</text>
</a>
</g>
</g>
<!-- Node1&#45;&gt;Node21 -->
<g id="edge25" class="edge">
<title>Node1&#45;&gt;Node21</title>
<path fill="none" stroke="#63b8ff" d="M548.07,-407.14C607.34,-396.33 688.09,-381.62 740.38,-372.09"/>
<polygon fill="#63b8ff" stroke="#63b8ff" points="741.23,-375.49 750.44,-370.26 739.98,-368.61 741.23,-375.49"/>
</g>
<!-- Node3 -->
<g id="node3" class="node">
<title>Node3</title>
<g id="a_node3"><a xlink:href="json_8h.html" target="_top" xlink:title=" ">
<polygon fill="white" stroke="#666666" points="383.5,-316 306.5,-316 306.5,-297 383.5,-297 383.5,-316"/>
<text text-anchor="middle" x="345" y="-304" font-family="Helvetica,sans-Serif" font-size="10.00">ccf/ds/json.h</text>
</a>
</g>
</g>
<!-- Node2&#45;&gt;Node3 -->
<g id="edge2" class="edge">
<title>Node2&#45;&gt;Node3</title>
<path fill="none" stroke="#63b8ff" d="M379.23,-351.75C373.44,-344.26 364.94,-333.28 357.86,-324.13"/>
<polygon fill="#63b8ff" stroke="#63b8ff" points="360.53,-321.86 351.64,-316.09 354.99,-326.14 360.53,-321.86"/>
</g>
<!-- Node2&#45;&gt;Node6 -->
<g id="edge24" class="edge">
<title>Node2&#45;&gt;Node6</title>
<path fill="none" stroke="#63b8ff" d="M407.35,-351.92C423.73,-344.44 446.02,-332.26 461,-316 500.04,-273.63 546.84,-131.17 554,-74 555.05,-65.62 555.2,-63.36 554,-55 552.75,-46.24 550.17,-36.79 547.64,-28.86"/>
<polygon fill="#63b8ff" stroke="#63b8ff" points="550.88,-27.54 544.34,-19.2 544.26,-29.8 550.88,-27.54"/>
</g>
<!-- Node12 -->
<g id="node12" class="node">
<title>Node12</title>
<g id="a_node12"><a xlink:title=" ">
<polygon fill="#e0e0e0" stroke="#999999" points="177.5,-129 104.5,-129 104.5,-110 177.5,-110 177.5,-129"/>
<text text-anchor="middle" x="141" y="-117" font-family="Helvetica,sans-Serif" font-size="10.00">string_view</text>
</a>
</g>
</g>
<!-- Node2&#45;&gt;Node12 -->
<g id="edge23" class="edge">
<title>Node2&#45;&gt;Node12</title>
<path fill="none" stroke="#63b8ff" d="M338.76,-351.95C308.79,-345.18 269.97,-333.82 239,-316 207.93,-298.12 200.18,-290.63 180,-261 154.08,-222.93 145.3,-168.01 142.39,-139.42"/>
<polygon fill="#63b8ff" stroke="#63b8ff" points="145.86,-138.87 141.5,-129.21 138.89,-139.48 145.86,-138.87"/>
</g>
<!-- Node17 -->
<g id="node17" class="node">
<title>Node17</title>
<g id="a_node17"><a xlink:title=" ">
<polygon fill="#e0e0e0" stroke="#999999" points="452,-316 402,-316 402,-297 452,-297 452,-316"/>
<text text-anchor="middle" x="427" y="-304" font-family="Helvetica,sans-Serif" font-size="10.00">cstring</text>
</a>
</g>
</g>
<!-- Node2&#45;&gt;Node17 -->
<g id="edge19" class="edge">
<title>Node2&#45;&gt;Node17</title>
<path fill="none" stroke="#63b8ff" d="M392.77,-351.75C398.56,-344.26 407.06,-333.28 414.14,-324.13"/>
<polygon fill="#63b8ff" stroke="#63b8ff" points="417.01,-326.14 420.36,-316.09 411.47,-321.86 417.01,-326.14"/>
</g>
<!-- Node18 -->
<g id="node18" class="node">
<title>Node18</title>
<g id="a_node18"><a xlink:title=" ">
<polygon fill="#e0e0e0" stroke="#999999" points="93.5,-316 28.5,-316 28.5,-297 93.5,-297 93.5,-316"/>
<text text-anchor="middle" x="61" y="-304" font-family="Helvetica,sans-Serif" font-size="10.00">exception</text>
</a>
</g>
</g>
<!-- Node2&#45;&gt;Node18 -->
<g id="edge20" class="edge">
<title>Node2&#45;&gt;Node18</title>
<path fill="none" stroke="#63b8ff" d="M336.74,-352.92C281.13,-344.3 187.98,-329.63 108,-316 106.54,-315.75 105.06,-315.5 103.57,-315.24"/>
<polygon fill="#63b8ff" stroke="#63b8ff" points="104.06,-311.77 93.6,-313.48 102.84,-318.66 104.06,-311.77"/>
</g>
<!-- Node19 -->
<g id="node19" class="node">
<title>Node19</title>
<g id="a_node19"><a xlink:title=" ">
<polygon fill="#e0e0e0" stroke="#999999" points="1380,-189.5 1322,-189.5 1322,-170.5 1380,-170.5 1380,-189.5"/>
<text text-anchor="middle" x="1351" y="-177.5" font-family="Helvetica,sans-Serif" font-size="10.00">memory</text>
</a>
</g>
</g>
<!-- Node2&#45;&gt;Node19 -->
<g id="edge21" class="edge">
<title>Node2&#45;&gt;Node19</title>
<path fill="none" stroke="#63b8ff" d="M435.17,-358.8C595.03,-353.14 1093.77,-334.18 1164,-316 1218.46,-301.9 1232.89,-294.61 1278,-261 1302.52,-242.73 1325.35,-215.38 1338.74,-197.87"/>
<polygon fill="#63b8ff" stroke="#63b8ff" points="1341.66,-199.81 1344.84,-189.7 1336.05,-195.62 1341.66,-199.81"/>
</g>
<!-- Node20 -->
<g id="node20" class="node">
<title>Node20</title>
<g id="a_node20"><a xlink:title=" ">
<polygon fill="#e0e0e0" stroke="#999999" points="288,-316 248,-316 248,-297 288,-297 288,-316"/>
<text text-anchor="middle" x="268" y="-304" font-family="Helvetica,sans-Serif" font-size="10.00">span</text>
</a>
</g>
</g>
<!-- Node2&#45;&gt;Node20 -->
<g id="edge22" class="edge">
<title>Node2&#45;&gt;Node20</title>
<path fill="none" stroke="#63b8ff" d="M367.04,-351.98C347.97,-343.42 318.34,-330.11 296.45,-320.28"/>
<polygon fill="#63b8ff" stroke="#63b8ff" points="297.86,-317.07 287.3,-316.17 294.99,-323.46 297.86,-317.07"/>
</g>
<!-- Node4 -->
<g id="node4" class="node">
<title>Node4</title>
<g id="a_node4"><a xlink:href="include_2ccf_2crypto_2base64_8h.html" target="_top" xlink:title=" ">
<polygon fill="white" stroke="#666666" points="511,-189.5 399,-189.5 399,-170.5 511,-170.5 511,-189.5"/>
<text text-anchor="middle" x="455" y="-177.5" font-family="Helvetica,sans-Serif" font-size="10.00">ccf/crypto/base64.h</text>
</a>
</g>
</g>
<!-- Node3&#45;&gt;Node4 -->
<g id="edge3" class="edge">
<title>Node3&#45;&gt;Node4</title>
<path fill="none" stroke="#63b8ff" d="M355.39,-296.75C365.43,-288.09 380.88,-274.24 393,-261 411.82,-240.44 431.12,-214.64 443.08,-197.99"/>
<polygon fill="#63b8ff" stroke="#63b8ff" points="445.98,-199.96 448.92,-189.78 440.28,-195.9 445.98,-199.96"/>
</g>
<!-- Node7 -->
<g id="node7" class="node">
<title>Node7</title>
<g id="a_node7"><a xlink:href="include_2ccf_2ds_2json__schema_8h.html" target="_top" xlink:title=" ">
<polygon fill="white" stroke="#666666" points="309.5,-255.5 188.5,-255.5 188.5,-236.5 309.5,-236.5 309.5,-255.5"/>
<text text-anchor="middle" x="249" y="-243.5" font-family="Helvetica,sans-Serif" font-size="10.00">ccf/ds/json_schema.h</text>
</a>
</g>
</g>
<!-- Node3&#45;&gt;Node7 -->
<g id="edge6" class="edge">
<title>Node3&#45;&gt;Node7</title>
<path fill="none" stroke="#63b8ff" d="M330.83,-296.87C315.31,-287.41 290.17,-272.09 271.85,-260.92"/>
<polygon fill="#63b8ff" stroke="#63b8ff" points="273.58,-257.88 263.22,-255.67 269.94,-263.86 273.58,-257.88"/>
</g>
<!-- Node14 -->
<g id="node14" class="node">
<title>Node14</title>
<g id="a_node14"><a xlink:title=" ">
<polygon fill="#e0e0e0" stroke="#999999" points="115.5,-74 36.5,-74 36.5,-55 115.5,-55 115.5,-74"/>
<text text-anchor="middle" x="76" y="-62" font-family="Helvetica,sans-Serif" font-size="10.00">fmt/format.h</text>
</a>
</g>
</g>
<!-- Node3&#45;&gt;Node14 -->
<g id="edge17" class="edge">
<title>Node3&#45;&gt;Node14</title>
<path fill="none" stroke="#63b8ff" d="M306.4,-297.58C264.68,-288.59 201.28,-273.53 180,-261 117.26,-224.06 103.59,-198.83 83,-129 78.73,-114.5 77.02,-97.44 76.36,-84.66"/>
<polygon fill="#63b8ff" stroke="#63b8ff" points="79.84,-84.19 76,-74.32 72.85,-84.43 79.84,-84.19"/>
</g>
<!-- Node16 -->
<g id="node16" class="node">
<title>Node16</title>
<g id="a_node16"><a xlink:title=" ">
<polygon fill="#e0e0e0" stroke="#999999" points="384,-255.5 328,-255.5 328,-236.5 384,-236.5 384,-255.5"/>
<text text-anchor="middle" x="356" y="-243.5" font-family="Helvetica,sans-Serif" font-size="10.00">sstream</text>
</a>
</g>
</g>
<!-- Node3&#45;&gt;Node16 -->
<g id="edge18" class="edge">
<title>Node3&#45;&gt;Node16</title>
<path fill="none" stroke="#63b8ff" d="M346.62,-296.87C348.17,-288.66 350.54,-276.04 352.51,-265.55"/>
<polygon fill="#63b8ff" stroke="#63b8ff" points="355.96,-266.14 354.37,-255.67 349.08,-264.85 355.96,-266.14"/>
</g>
<!-- Node4&#45;&gt;Node5 -->
<g id="edge4" class="edge">
<title>Node4&#45;&gt;Node5</title>
<path fill="none" stroke="#63b8ff" d="M480.3,-170.49C511.22,-160.1 563.57,-142.5 597.19,-131.2"/>
<polygon fill="#63b8ff" stroke="#63b8ff" points="598.61,-134.41 606.98,-127.9 596.38,-127.77 598.61,-134.41"/>
</g>
<!-- Node4&#45;&gt;Node6 -->
<g id="edge5" class="edge">
<title>Node4&#45;&gt;Node6</title>
<path fill="none" stroke="#63b8ff" d="M473.23,-170.46C488.81,-162.15 510.5,-148 522,-129 540.82,-97.92 542.81,-54.2 542.18,-29.48"/>
<polygon fill="#63b8ff" stroke="#63b8ff" points="545.66,-29.12 541.73,-19.29 538.67,-29.43 545.66,-29.12"/>
</g>
<!-- Node8 -->
<g id="node8" class="node">
<title>Node8</title>
<g id="a_node8"><a xlink:href="nonstd_8h.html" target="_top" xlink:title=" ">
<polygon fill="white" stroke="#666666" points="381,-189.5 291,-189.5 291,-170.5 381,-170.5 381,-189.5"/>
<text text-anchor="middle" x="336" y="-177.5" font-family="Helvetica,sans-Serif" font-size="10.00">ccf/ds/nonstd.h</text>
</a>
</g>
</g>
<!-- Node7&#45;&gt;Node8 -->
<g id="edge7" class="edge">
<title>Node7&#45;&gt;Node8</title>
<path fill="none" stroke="#63b8ff" d="M260.73,-236.37C274.87,-225.97 298.86,-208.32 315.95,-195.75"/>
<polygon fill="#63b8ff" stroke="#63b8ff" points="318.19,-198.44 324.17,-189.7 314.05,-192.81 318.19,-198.44"/>
</g>
<!-- Node7&#45;&gt;Node14 -->
<g id="edge15" class="edge">
<title>Node7&#45;&gt;Node14</title>
<path fill="none" stroke="#63b8ff" d="M227.71,-236.43C207.57,-227.73 177.06,-213.01 154,-195 122.99,-170.79 114.21,-163.34 95,-129 87.18,-115.02 82.24,-97.46 79.37,-84.36"/>
<polygon fill="#63b8ff" stroke="#63b8ff" points="82.73,-83.32 77.36,-74.19 75.87,-84.68 82.73,-83.32"/>
</g>
<!-- Node15 -->
<g id="node15" class="node">
<title>Node15</title>
<g id="a_node15"><a xlink:title=" ">
<polygon fill="#e0e0e0" stroke="#999999" points="273,-189.5 163,-189.5 163,-170.5 273,-170.5 273,-189.5"/>
<text text-anchor="middle" x="218" y="-177.5" font-family="Helvetica,sans-Serif" font-size="10.00">nlohmann/json.hpp</text>
</a>
</g>
</g>
<!-- Node7&#45;&gt;Node15 -->
<g id="edge16" class="edge">
<title>Node7&#45;&gt;Node15</title>
<path fill="none" stroke="#63b8ff" d="M244.82,-236.37C240.22,-226.88 232.71,-211.36 226.8,-199.16"/>
<polygon fill="#63b8ff" stroke="#63b8ff" points="229.82,-197.38 222.31,-189.91 223.52,-200.43 229.82,-197.38"/>
</g>
<!-- Node8&#45;&gt;Node5 -->
<g id="edge11" class="edge">
<title>Node8&#45;&gt;Node5</title>
<path fill="none" stroke="#63b8ff" d="M367.32,-170.49C374.73,-168.58 382.63,-166.64 390,-165 463.58,-148.63 550.81,-133.45 596.84,-125.76"/>
<polygon fill="#63b8ff" stroke="#63b8ff" points="597.53,-129.19 606.82,-124.1 596.38,-122.28 597.53,-129.19"/>
</g>
<!-- Node8&#45;&gt;Node6 -->
<g id="edge14" class="edge">
<title>Node8&#45;&gt;Node6</title>
<path fill="none" stroke="#63b8ff" d="M308.8,-170.41C279.4,-160.52 235.48,-143.73 226,-129 221.43,-121.9 221.01,-116.81 226,-110 259.85,-63.81 432.54,-29.14 506.88,-16.12"/>
<polygon fill="#63b8ff" stroke="#63b8ff" points="507.85,-19.51 517.11,-14.36 506.66,-12.61 507.85,-19.51"/>
</g>
<!-- Node9 -->
<g id="node9" class="node">
<title>Node9</title>
<g id="a_node9"><a xlink:title=" ">
<polygon fill="#e0e0e0" stroke="#999999" points="453,-129 389,-129 389,-110 453,-110 453,-129"/>
<text text-anchor="middle" x="421" y="-117" font-family="Helvetica,sans-Serif" font-size="10.00">algorithm</text>
</a>
</g>
</g>
<!-- Node8&#45;&gt;Node9 -->
<g id="edge8" class="edge">
<title>Node8&#45;&gt;Node9</title>
<path fill="none" stroke="#63b8ff" d="M348.54,-170.37C362.1,-161.04 383.94,-146.01 400.1,-134.88"/>
<polygon fill="#63b8ff" stroke="#63b8ff" points="402.15,-137.72 408.41,-129.17 398.18,-131.95 402.15,-137.72"/>
</g>
<!-- Node10 -->
<g id="node10" class="node">
<title>Node10</title>
<g id="a_node10"><a xlink:title=" ">
<polygon fill="#e0e0e0" stroke="#999999" points="513,-129 471,-129 471,-110 513,-110 513,-129"/>
<text text-anchor="middle" x="492" y="-117" font-family="Helvetica,sans-Serif" font-size="10.00">array</text>
</a>
</g>
</g>
<!-- Node8&#45;&gt;Node10 -->
<g id="edge9" class="edge">
<title>Node8&#45;&gt;Node10</title>
<path fill="none" stroke="#63b8ff" d="M358.68,-170.49C385.71,-160.36 431,-143.38 461.18,-132.06"/>
<polygon fill="#63b8ff" stroke="#63b8ff" points="462.66,-135.24 470.79,-128.45 460.2,-128.69 462.66,-135.24"/>
</g>
<!-- Node11 -->
<g id="node11" class="node">
<title>Node11</title>
<g id="a_node11"><a xlink:title=" ">
<polygon fill="#e0e0e0" stroke="#999999" points="283.5,-129 234.5,-129 234.5,-110 283.5,-110 283.5,-129"/>
<text text-anchor="middle" x="259" y="-117" font-family="Helvetica,sans-Serif" font-size="10.00">cctype</text>
</a>
</g>
</g>
<!-- Node8&#45;&gt;Node11 -->
<g id="edge10" class="edge">
<title>Node8&#45;&gt;Node11</title>
<path fill="none" stroke="#63b8ff" d="M324.64,-170.37C312.58,-161.21 293.3,-146.56 278.75,-135.51"/>
<polygon fill="#63b8ff" stroke="#63b8ff" points="280.49,-132.43 270.41,-129.17 276.25,-138 280.49,-132.43"/>
</g>
<!-- Node8&#45;&gt;Node12 -->
<g id="edge12" class="edge">
<title>Node8&#45;&gt;Node12</title>
<path fill="none" stroke="#63b8ff" d="M307.65,-170.49C273.71,-160.31 216.74,-143.22 179.01,-131.9"/>
<polygon fill="#63b8ff" stroke="#63b8ff" points="179.97,-128.54 169.39,-129.02 177.96,-135.24 179.97,-128.54"/>
</g>
<!-- Node13 -->
<g id="node13" class="node">
<title>Node13</title>
<g id="a_node13"><a xlink:title=" ">
<polygon fill="#e0e0e0" stroke="#999999" points="370.5,-129 301.5,-129 301.5,-110 370.5,-110 370.5,-129"/>
<text text-anchor="middle" x="336" y="-117" font-family="Helvetica,sans-Serif" font-size="10.00">type_traits</text>
</a>
</g>
</g>
<!-- Node8&#45;&gt;Node13 -->
<g id="edge13" class="edge">
<title>Node8&#45;&gt;Node13</title>
<path fill="none" stroke="#63b8ff" d="M336,-170.37C336,-162.25 336,-149.81 336,-139.39"/>
<polygon fill="#63b8ff" stroke="#63b8ff" points="339.5,-139.17 336,-129.17 332.5,-139.17 339.5,-139.17"/>
</g>
<!-- Node22 -->
<g id="node22" class="node">
<title>Node22</title>
<g id="a_node22"><a xlink:href="get__name_8h.html" target="_top" xlink:title=" ">
<polygon fill="white" stroke="#666666" points="846.5,-316 739.5,-316 739.5,-297 846.5,-297 846.5,-316"/>
<text text-anchor="middle" x="793" y="-304" font-family="Helvetica,sans-Serif" font-size="10.00">ccf/kv/get_name.h</text>
</a>
</g>
</g>
<!-- Node21&#45;&gt;Node22 -->
<g id="edge26" class="edge">
<title>Node21&#45;&gt;Node22</title>
<path fill="none" stroke="#63b8ff" d="M793,-351.75C793,-344.8 793,-334.85 793,-326.13"/>
<polygon fill="#63b8ff" stroke="#63b8ff" points="796.5,-326.09 793,-316.09 789.5,-326.09 796.5,-326.09"/>
</g>
<!-- Node23 -->
<g id="node23" class="node">
<title>Node23</title>
<g id="a_node23"><a xlink:href="include_2ccf_2kv_2hooks_8h.html" target="_top" xlink:title=" ">
<polygon fill="white" stroke="#666666" points="1268.5,-255.5 1181.5,-255.5 1181.5,-236.5 1268.5,-236.5 1268.5,-255.5"/>
<text text-anchor="middle" x="1225" y="-243.5" font-family="Helvetica,sans-Serif" font-size="10.00">ccf/kv/hooks.h</text>
</a>
</g>
</g>
<!-- Node21&#45;&gt;Node23 -->
<g id="edge28" class="edge">
<title>Node21&#45;&gt;Node23</title>
<path fill="none" stroke="#63b8ff" d="M835.63,-359.17C920.62,-355.9 1107.77,-345.5 1164,-316 1186.49,-304.2 1204.55,-280.48 1215.03,-264.18"/>
<polygon fill="#63b8ff" stroke="#63b8ff" points="1218.05,-265.94 1220.29,-255.58 1212.08,-262.28 1218.05,-265.94"/>
</g>
<!-- Node26 -->
<g id="node26" class="node">
<title>Node26</title>
<g id="a_node26"><a xlink:href="blit__serialiser_8h.html" target="_top" xlink:title=" ">
<polygon fill="white" stroke="#666666" points="762.5,-261 663.5,-261 663.5,-231 762.5,-231 762.5,-261"/>
<text text-anchor="start" x="671.5" y="-249" font-family="Helvetica,sans-Serif" font-size="10.00">ccf/kv/serialisers</text>
<text text-anchor="middle" x="713" y="-238" font-family="Helvetica,sans-Serif" font-size="10.00">/blit_serialiser.h</text>
</a>
</g>
</g>
<!-- Node21&#45;&gt;Node26 -->
<g id="edge32" class="edge">
<title>Node21&#45;&gt;Node26</title>
<path fill="none" stroke="#63b8ff" d="M774.85,-351.9C760.83,-344.35 742.03,-332.06 731,-316 721.9,-302.74 717.4,-285.18 715.17,-271.09"/>
<polygon fill="#63b8ff" stroke="#63b8ff" points="718.64,-270.58 713.88,-261.12 711.7,-271.48 718.64,-270.58"/>
</g>
<!-- Node33 -->
<g id="node33" class="node">
<title>Node33</title>
<g id="a_node33"><a xlink:href="json__serialiser_8h.html" target="_top" xlink:title=" ">
<polygon fill="white" stroke="#666666" points="645.5,-261 546.5,-261 546.5,-231 645.5,-231 645.5,-261"/>
<text text-anchor="start" x="554.5" y="-249" font-family="Helvetica,sans-Serif" font-size="10.00">ccf/kv/serialisers</text>
<text text-anchor="middle" x="596" y="-238" font-family="Helvetica,sans-Serif" font-size="10.00">/json_serialiser.h</text>
</a>
</g>
</g>
<!-- Node21&#45;&gt;Node33 -->
<g id="edge42" class="edge">
<title>Node21&#45;&gt;Node33</title>
<path fill="none" stroke="#63b8ff" d="M778.19,-351.97C746.78,-333.87 672.8,-291.25 629.39,-266.24"/>
<polygon fill="#63b8ff" stroke="#63b8ff" points="631.03,-263.14 620.61,-261.18 627.53,-269.21 631.03,-263.14"/>
</g>
<!-- Node34 -->
<g id="node34" class="node">
<title>Node34</title>
<g id="a_node34"><a xlink:href="untyped_8h.html" target="_top" xlink:title=" ">
<polygon fill="white" stroke="#666666" points="1155,-316 1057,-316 1057,-297 1155,-297 1155,-316"/>
<text text-anchor="middle" x="1106" y="-304" font-family="Helvetica,sans-Serif" font-size="10.00">ccf/kv/untyped.h</text>
</a>
</g>
</g>
<!-- Node21&#45;&gt;Node34 -->
<g id="edge45" class="edge">
<title>Node21&#45;&gt;Node34</title>
<path fill="none" stroke="#63b8ff" d="M835.54,-353.3C890.16,-344.05 985.25,-327.95 1046.88,-317.51"/>
<polygon fill="#63b8ff" stroke="#63b8ff" points="1047.58,-320.94 1056.85,-315.82 1046.41,-314.04 1047.58,-320.94"/>
</g>
<!-- Node37 -->
<g id="node37" class="node">
<title>Node37</title>
<g id="a_node37"><a xlink:href="value__handle_8h.html" target="_top" xlink:title=" ">
<polygon fill="white" stroke="#666666" points="987.5,-316 864.5,-316 864.5,-297 987.5,-297 987.5,-316"/>
<text text-anchor="middle" x="926" y="-304" font-family="Helvetica,sans-Serif" font-size="10.00">ccf/kv/value_handle.h</text>
</a>
</g>
</g>
<!-- Node21&#45;&gt;Node37 -->
<g id="edge50" class="edge">
<title>Node21&#45;&gt;Node37</title>
<path fill="none" stroke="#63b8ff" d="M814.37,-351.98C836.15,-343.3 870.16,-329.75 894.92,-319.88"/>
<polygon fill="#63b8ff" stroke="#63b8ff" points="896.25,-323.12 904.24,-316.17 893.66,-316.62 896.25,-323.12"/>
</g>
<!-- Node22&#45;&gt;Node5 -->
<g id="edge27" class="edge">
<title>Node22&#45;&gt;Node5</title>
<path fill="none" stroke="#63b8ff" d="M792.33,-296.96C790.84,-282.3 786.14,-251.94 772,-231 767.73,-224.68 687.47,-164.23 649.11,-135.51"/>
<polygon fill="#63b8ff" stroke="#63b8ff" points="650.85,-132.45 640.75,-129.26 646.66,-138.05 650.85,-132.45"/>
</g>
<!-- Node23&#45;&gt;Node19 -->
<g id="edge31" class="edge">
<title>Node23&#45;&gt;Node19</title>
<path fill="none" stroke="#63b8ff" d="M1241.99,-236.37C1263.22,-225.59 1299.78,-207.02 1324.65,-194.38"/>
<polygon fill="#63b8ff" stroke="#63b8ff" points="1326.54,-197.35 1333.87,-189.7 1323.37,-191.11 1326.54,-197.35"/>
</g>
<!-- Node24 -->
<g id="node24" class="node">
<title>Node24</title>
<g id="a_node24"><a xlink:href="version_8h.html" target="_top" xlink:title=" ">
<polygon fill="white" stroke="#666666" points="1304,-189.5 1210,-189.5 1210,-170.5 1304,-170.5 1304,-189.5"/>
<text text-anchor="middle" x="1257" y="-177.5" font-family="Helvetica,sans-Serif" font-size="10.00">ccf/kv/version.h</text>
</a>
</g>
</g>
<!-- Node23&#45;&gt;Node24 -->
<g id="edge29" class="edge">
<title>Node23&#45;&gt;Node24</title>
<path fill="none" stroke="#63b8ff" d="M1229.32,-236.37C1234.06,-226.88 1241.82,-211.36 1247.92,-199.16"/>
<polygon fill="#63b8ff" stroke="#63b8ff" points="1251.21,-200.41 1252.55,-189.91 1244.94,-197.28 1251.21,-200.41"/>
</g>
<!-- Node25 -->
<g id="node25" class="node">
<title>Node25</title>
<g id="a_node25"><a xlink:title=" ">
<polygon fill="#e0e0e0" stroke="#999999" points="1191.5,-189.5 1126.5,-189.5 1126.5,-170.5 1191.5,-170.5 1191.5,-189.5"/>
<text text-anchor="middle" x="1159" y="-177.5" font-family="Helvetica,sans-Serif" font-size="10.00">functional</text>
</a>
</g>
</g>
<!-- Node23&#45;&gt;Node25 -->
<g id="edge30" class="edge">
<title>Node23&#45;&gt;Node25</title>
<path fill="none" stroke="#63b8ff" d="M1216.1,-236.37C1205.73,-226.31 1188.37,-209.48 1175.51,-197.01"/>
<polygon fill="#63b8ff" stroke="#63b8ff" points="1177.8,-194.35 1168.18,-189.91 1172.93,-199.38 1177.8,-194.35"/>
</g>
<!-- Node26&#45;&gt;Node8 -->
<g id="edge33" class="edge">
<title>Node26&#45;&gt;Node8</title>
<path fill="none" stroke="#63b8ff" d="M663.4,-232.68C660.56,-232.08 657.75,-231.52 655,-231 538.19,-209.03 506.62,-217.96 390,-195 385.55,-194.12 380.92,-193.1 376.33,-192.01"/>
<polygon fill="#63b8ff" stroke="#63b8ff" points="376.96,-188.56 366.41,-189.56 375.28,-195.36 376.96,-188.56"/>
</g>
<!-- Node27 -->
<g id="node27" class="node">
<title>Node27</title>
<g id="a_node27"><a xlink:href="serialised__entry_8h.html" target="_top" xlink:title=" ">
<polygon fill="white" stroke="#666666" points="841.5,-195 736.5,-195 736.5,-165 841.5,-165 841.5,-195"/>
<text text-anchor="start" x="744.5" y="-183" font-family="Helvetica,sans-Serif" font-size="10.00">ccf/kv/serialisers</text>
<text text-anchor="middle" x="789" y="-172" font-family="Helvetica,sans-Serif" font-size="10.00">/serialised_entry.h</text>
</a>
</g>
</g>
<!-- Node26&#45;&gt;Node27 -->
<g id="edge34" class="edge">
<title>Node26&#45;&gt;Node27</title>
<path fill="none" stroke="#63b8ff" d="M729.87,-230.8C740,-222.26 753.08,-211.25 764.35,-201.75"/>
<polygon fill="#63b8ff" stroke="#63b8ff" points="766.79,-204.28 772.18,-195.16 762.28,-198.93 766.79,-204.28"/>
</g>
<!-- Node28 -->
<g id="node28" class="node">
<title>Node28</title>
<g id="a_node28"><a xlink:href="byte__vector_8h.html" target="_top" xlink:title=" ">
<polygon fill="white" stroke="#666666" points="804,-129 704,-129 704,-110 804,-110 804,-129"/>
<text text-anchor="middle" x="754" y="-117" font-family="Helvetica,sans-Serif" font-size="10.00">ccf/byte_vector.h</text>
</a>
</g>
</g>
<!-- Node27&#45;&gt;Node28 -->
<g id="edge35" class="edge">
<title>Node27&#45;&gt;Node28</title>
<path fill="none" stroke="#63b8ff" d="M780.53,-164.84C775.71,-156.78 769.63,-146.62 764.5,-138.06"/>
<polygon fill="#63b8ff" stroke="#63b8ff" points="767.38,-136.05 759.24,-129.27 761.38,-139.64 767.38,-136.05"/>
</g>
<!-- Node28&#45;&gt;Node14 -->
<g id="edge40" class="edge">
<title>Node28&#45;&gt;Node14</title>
<path fill="none" stroke="#63b8ff" d="M703.76,-113.83C689.61,-112.54 674.21,-111.18 660,-110 462.31,-93.53 226.76,-76.32 125.87,-69.06"/>
<polygon fill="#63b8ff" stroke="#63b8ff" points="125.89,-65.55 115.67,-68.33 125.39,-72.54 125.89,-65.55"/>
</g>
<!-- Node29 -->
<g id="node29" class="node">
<title>Node29</title>
<g id="a_node29"><a xlink:href="siphash_8h.html" target="_top" xlink:title=" ">
<polygon fill="white" stroke="#666666" points="868.5,-74 773.5,-74 773.5,-55 868.5,-55 868.5,-74"/>
<text text-anchor="middle" x="821" y="-62" font-family="Helvetica,sans-Serif" font-size="10.00">ccf/ds/siphash.h</text>
</a>
</g>
</g>
<!-- Node28&#45;&gt;Node29 -->
<g id="edge36" class="edge">
<title>Node28&#45;&gt;Node29</title>
<path fill="none" stroke="#63b8ff" d="M764.76,-109.98C774.77,-102.07 789.89,-90.11 801.93,-80.58"/>
<polygon fill="#63b8ff" stroke="#63b8ff" points="804.37,-83.12 810.04,-74.17 800.03,-77.63 804.37,-83.12"/>
</g>
<!-- Node32 -->
<g id="node32" class="node">
<title>Node32</title>
<g id="a_node32"><a xlink:title=" ">
<polygon fill="#e0e0e0" stroke="#999999" points="755.5,-74 606.5,-74 606.5,-55 755.5,-55 755.5,-74"/>
<text text-anchor="middle" x="681" y="-62" font-family="Helvetica,sans-Serif" font-size="10.00">small_vector/SmallVector.h</text>
</a>
</g>
</g>
<!-- Node28&#45;&gt;Node32 -->
<g id="edge41" class="edge">
<title>Node28&#45;&gt;Node32</title>
<path fill="none" stroke="#63b8ff" d="M742.27,-109.98C731.27,-102 714.58,-89.88 701.4,-80.31"/>
<polygon fill="#63b8ff" stroke="#63b8ff" points="703.09,-77.21 692.94,-74.17 698.98,-82.88 703.09,-77.21"/>
</g>
<!-- Node29&#45;&gt;Node6 -->
<g id="edge39" class="edge">
<title>Node29&#45;&gt;Node6</title>
<path fill="none" stroke="#63b8ff" d="M776.01,-54.98C719.87,-44.36 625.13,-26.43 574.8,-16.9"/>
<polygon fill="#63b8ff" stroke="#63b8ff" points="575.24,-13.42 564.76,-15 573.94,-20.3 575.24,-13.42"/>
</g>
<!-- Node30 -->
<g id="node30" class="node">
<title>Node30</title>
<g id="a_node30"><a xlink:title=" ">
<polygon fill="#e0e0e0" stroke="#999999" points="812.5,-19 759.5,-19 759.5,0 812.5,0 812.5,-19"/>
<text text-anchor="middle" x="786" y="-7" font-family="Helvetica,sans-Serif" font-size="10.00">cstddef</text>
</a>
</g>
</g>
<!-- Node29&#45;&gt;Node30 -->
<g id="edge37" class="edge">
<title>Node29&#45;&gt;Node30</title>
<path fill="none" stroke="#63b8ff" d="M815.22,-54.75C810.38,-47.42 803.32,-36.73 797.36,-27.7"/>
<polygon fill="#63b8ff" stroke="#63b8ff" points="800.1,-25.5 791.67,-19.09 794.26,-29.36 800.1,-25.5"/>
</g>
<!-- Node31 -->
<g id="node31" class="node">
<title>Node31</title>
<g id="a_node31"><a xlink:title=" ">
<polygon fill="#e0e0e0" stroke="#999999" points="881,-19 831,-19 831,0 881,0 881,-19"/>
<text text-anchor="middle" x="856" y="-7" font-family="Helvetica,sans-Serif" font-size="10.00">cstdint</text>
</a>
</g>
</g>
<!-- Node29&#45;&gt;Node31 -->
<g id="edge38" class="edge">
<title>Node29&#45;&gt;Node31</title>
<path fill="none" stroke="#63b8ff" d="M826.78,-54.75C831.62,-47.42 838.68,-36.73 844.64,-27.7"/>
<polygon fill="#63b8ff" stroke="#63b8ff" points="847.74,-29.36 850.33,-19.09 841.9,-25.5 847.74,-29.36"/>
</g>
<!-- Node33&#45;&gt;Node15 -->
<g id="edge44" class="edge">
<title>Node33&#45;&gt;Node15</title>
<path fill="none" stroke="#63b8ff" d="M546.36,-238C484.33,-229.04 375.03,-212.57 282,-195 276.55,-193.97 270.86,-192.83 265.21,-191.65"/>
<polygon fill="#63b8ff" stroke="#63b8ff" points="265.66,-188.17 255.15,-189.51 264.2,-195.01 265.66,-188.17"/>
</g>
<!-- Node33&#45;&gt;Node27 -->
<g id="edge43" class="edge">
<title>Node33&#45;&gt;Node27</title>
<path fill="none" stroke="#63b8ff" d="M638.35,-230.95C667.39,-221.33 706.1,-208.49 737.01,-198.24"/>
<polygon fill="#63b8ff" stroke="#63b8ff" points="738.35,-201.48 746.74,-195.01 736.15,-194.84 738.35,-201.48"/>
</g>
<!-- Node34&#45;&gt;Node23 -->
<g id="edge46" class="edge">
<title>Node34&#45;&gt;Node23</title>
<path fill="none" stroke="#63b8ff" d="M1123.3,-296.99C1143.05,-287.29 1175.55,-271.31 1198.49,-260.03"/>
<polygon fill="#63b8ff" stroke="#63b8ff" points="1200.25,-263.07 1207.68,-255.52 1197.16,-256.79 1200.25,-263.07"/>
</g>
<!-- Node34&#45;&gt;Node27 -->
<g id="edge47" class="edge">
<title>Node34&#45;&gt;Node27</title>
<path fill="none" stroke="#63b8ff" d="M1056.64,-297.28C1023.55,-290.51 979.66,-279.03 944,-261 924.8,-251.29 924.5,-241.99 906,-231 884.84,-218.43 859.93,-207.33 838.55,-198.8"/>
<polygon fill="#63b8ff" stroke="#63b8ff" points="839.59,-195.45 829,-195.06 837.04,-201.97 839.59,-195.45"/>
</g>
<!-- Node35 -->
<g id="node35" class="node">
<title>Node35</title>
<g id="a_node35"><a xlink:title=" ">
<polygon fill="#e0e0e0" stroke="#999999" points="1125,-255.5 1087,-255.5 1087,-236.5 1125,-236.5 1125,-255.5"/>
<text text-anchor="middle" x="1106" y="-243.5" font-family="Helvetica,sans-Serif" font-size="10.00">map</text>
</a>
</g>
</g>
<!-- Node34&#45;&gt;Node35 -->
<g id="edge48" class="edge">
<title>Node34&#45;&gt;Node35</title>
<path fill="none" stroke="#63b8ff" d="M1106,-296.87C1106,-288.75 1106,-276.31 1106,-265.89"/>
<polygon fill="#63b8ff" stroke="#63b8ff" points="1109.5,-265.67 1106,-255.67 1102.5,-265.67 1109.5,-265.67"/>
</g>
<!-- Node36 -->
<g id="node36" class="node">
<title>Node36</title>
<g id="a_node36"><a xlink:title=" ">
<polygon fill="#e0e0e0" stroke="#999999" points="1108,-189.5 1052,-189.5 1052,-170.5 1108,-170.5 1108,-189.5"/>
<text text-anchor="middle" x="1080" y="-177.5" font-family="Helvetica,sans-Serif" font-size="10.00">optional</text>
</a>
</g>
</g>
<!-- Node34&#45;&gt;Node36 -->
<g id="edge49" class="edge">
<title>Node34&#45;&gt;Node36</title>
<path fill="none" stroke="#63b8ff" d="M1113.81,-296.66C1125.26,-282.59 1144.18,-254.3 1134,-231 1127.64,-216.45 1114.72,-204.24 1103.12,-195.53"/>
<polygon fill="#63b8ff" stroke="#63b8ff" points="1104.82,-192.45 1094.63,-189.57 1100.8,-198.18 1104.82,-192.45"/>
</g>
<!-- Node38 -->
<g id="node38" class="node">
<title>Node38</title>
<g id="a_node38"><a xlink:href="unit_8h.html" target="_top" xlink:title=" ">
<polygon fill="white" stroke="#666666" points="896.5,-255.5 819.5,-255.5 819.5,-236.5 896.5,-236.5 896.5,-255.5"/>
<text text-anchor="middle" x="858" y="-243.5" font-family="Helvetica,sans-Serif" font-size="10.00">ccf/kv/unit.h</text>
</a>
</g>
</g>
<!-- Node37&#45;&gt;Node38 -->
<g id="edge51" class="edge">
<title>Node37&#45;&gt;Node38</title>
<path fill="none" stroke="#63b8ff" d="M915.97,-296.87C905.42,-287.8 888.61,-273.34 875.81,-262.32"/>
<polygon fill="#63b8ff" stroke="#63b8ff" points="877.94,-259.54 868.07,-255.67 873.37,-264.84 877.94,-259.54"/>
</g>
<!-- Node39 -->
<g id="node39" class="node">
<title>Node39</title>
<g id="a_node39"><a xlink:href="untyped__map__handle_8h.html" target="_top" xlink:title=" ">
<polygon fill="white" stroke="#666666" points="1069,-261 953,-261 953,-231 1069,-231 1069,-261"/>
<text text-anchor="start" x="961" y="-249" font-family="Helvetica,sans-Serif" font-size="10.00">ccf/kv/untyped_map</text>
<text text-anchor="middle" x="1011" y="-238" font-family="Helvetica,sans-Serif" font-size="10.00">_handle.h</text>
</a>
</g>
</g>
<!-- Node37&#45;&gt;Node39 -->
<g id="edge53" class="edge">
<title>Node37&#45;&gt;Node39</title>
<path fill="none" stroke="#63b8ff" d="M938.54,-296.87C949.97,-289 967.27,-277.09 982.11,-266.89"/>
<polygon fill="#63b8ff" stroke="#63b8ff" points="984.24,-269.67 990.49,-261.11 980.27,-263.9 984.24,-269.67"/>
</g>
<!-- Node38&#45;&gt;Node27 -->
<g id="edge52" class="edge">
<title>Node38&#45;&gt;Node27</title>
<path fill="none" stroke="#63b8ff" d="M848.69,-236.37C839.25,-227.61 824.27,-213.71 811.68,-202.04"/>
<polygon fill="#63b8ff" stroke="#63b8ff" points="813.93,-199.35 804.22,-195.12 809.17,-204.48 813.93,-199.35"/>
</g>
<!-- Node39&#45;&gt;Node5 -->
<g id="edge59" class="edge">
<title>Node39&#45;&gt;Node5</title>
<path fill="none" stroke="#63b8ff" d="M968.69,-230.98C944.56,-222.18 914.2,-209.72 889,-195 870.42,-184.15 870.53,-174.03 851,-165 817.62,-149.57 714.44,-132.92 661.33,-125.08"/>
<polygon fill="#63b8ff" stroke="#63b8ff" points="661.5,-121.57 651.1,-123.59 660.49,-128.5 661.5,-121.57"/>
</g>
<!-- Node39&#45;&gt;Node24 -->
<g id="edge56" class="edge">
<title>Node39&#45;&gt;Node24</title>
<path fill="none" stroke="#63b8ff" d="M1064.99,-230.95C1109.93,-219.26 1173.06,-202.84 1214.48,-192.06"/>
<polygon fill="#63b8ff" stroke="#63b8ff" points="1215.47,-195.42 1224.26,-189.52 1213.7,-188.65 1215.47,-195.42"/>
</g>
<!-- Node39&#45;&gt;Node25 -->
<g id="edge57" class="edge">
<title>Node39&#45;&gt;Node25</title>
<path fill="none" stroke="#63b8ff" d="M1043.48,-230.95C1069.32,-219.78 1105.15,-204.29 1130.03,-193.53"/>
<polygon fill="#63b8ff" stroke="#63b8ff" points="1131.51,-196.7 1139.3,-189.52 1128.74,-190.27 1131.51,-196.7"/>
</g>
<!-- Node39&#45;&gt;Node27 -->
<g id="edge55" class="edge">
<title>Node39&#45;&gt;Node27</title>
<path fill="none" stroke="#63b8ff" d="M962.28,-230.95C928.45,-221.2 883.2,-208.16 847.43,-197.84"/>
<polygon fill="#63b8ff" stroke="#63b8ff" points="848.18,-194.42 837.61,-195.01 846.24,-201.15 848.18,-194.42"/>
</g>
<!-- Node39&#45;&gt;Node36 -->
<g id="edge58" class="edge">
<title>Node39&#45;&gt;Node36</title>
<path fill="none" stroke="#63b8ff" d="M1026.31,-230.8C1037.18,-220.72 1051.76,-207.19 1062.99,-196.78"/>
<polygon fill="#63b8ff" stroke="#63b8ff" points="1065.51,-199.21 1070.46,-189.84 1060.75,-194.08 1065.51,-199.21"/>
</g>
<!-- Node40 -->
<g id="node40" class="node">
<title>Node40</title>
<g id="a_node40"><a xlink:href="abstract__handle_8h.html" target="_top" xlink:title=" ">
<polygon fill="white" stroke="#666666" points="1034,-189.5 898,-189.5 898,-170.5 1034,-170.5 1034,-189.5"/>
<text text-anchor="middle" x="966" y="-177.5" font-family="Helvetica,sans-Serif" font-size="10.00">ccf/kv/abstract_handle.h</text>
</a>
</g>
</g>
<!-- Node39&#45;&gt;Node40 -->
<g id="edge54" class="edge">
<title>Node39&#45;&gt;Node40</title>
<path fill="none" stroke="#63b8ff" d="M1001.01,-230.8C994.27,-221.21 985.34,-208.5 978.18,-198.32"/>
<polygon fill="#63b8ff" stroke="#63b8ff" points="980.83,-196.01 972.22,-189.84 975.11,-200.04 980.83,-196.01"/>
</g>
</g>
</svg>
        <g id="navigator" transform="translate(0 0)" fill="#404254">
                <rect fill="#f2f5e9" fill-opacity="0.5" stroke="#606060" stroke-width=".5" x="0" y="0" width="60" height="60"/>
                <use id="zoomplus" xlink:href="#zoomPlus" x="17" y="9" onmousedown="handleZoom(evt,'in')"/>
                <use id="zoomminus" xlink:href="#zoomMin" x="42" y="9" onmousedown="handleZoom(evt,'out')"/>
                <use id="reset" xlink:href="#resetDef" x="30" y="36" onmousedown="handleReset()"/>
                <g id="arrowUp" xlink:href="#dirArrow" transform="translate(30 24)" onmousedown="handlePan(0,-1)">
                  <use xlink:href="#rim" fill="#404040">
                        <set attributeName="fill" to="#808080" begin="arrowUp.mouseover" end="arrowUp.mouseout"/>
                  </use>
                  <path fill="none" stroke="white" stroke-width="1.5" d="M0,-3.0v7 M-2.5,-0.5L0,-3.0L2.5,-0.5"/>
                </g>
                <g id="arrowRight" xlink:href="#dirArrow" transform="rotate(90) translate(36 -43)" onmousedown="handlePan(1,0)">
                  <use xlink:href="#rim" fill="#404040">
                        <set attributeName="fill" to="#808080" begin="arrowRight.mouseover" end="arrowRight.mouseout"/>
                  </use>
                  <path fill="none" stroke="white" stroke-width="1.5" d="M0,-3.0v7 M-2.5,-0.5L0,-3.0L2.5,-0.5"/>
                </g>
                <g id="arrowDown" xlink:href="#dirArrow" transform="rotate(180) translate(-30 -48)" onmousedown="handlePan(0,1)">
                  <use xlink:href="#rim" fill="#404040">
                        <set attributeName="fill" to="#808080" begin="arrowDown.mouseover" end="arrowDown.mouseout"/>
                  </use>
                  <path fill="none" stroke="white" stroke-width="1.5" d="M0,-3.0v7 M-2.5,-0.5L0,-3.0L2.5,-0.5"/>
                </g>
                <g id="arrowLeft" xlink:href="#dirArrow" transform="rotate(270) translate(-36 17)" onmousedown="handlePan(-1,0)">
                  <use xlink:href="#rim" fill="#404040">
                        <set attributeName="fill" to="#808080" begin="arrowLeft.mouseover" end="arrowLeft.mouseout"/>
                  </use>
                  <path fill="none" stroke="white" stroke-width="1.5" d="M0,-3.0v7 M-2.5,-0.5L0,-3.0L2.5,-0.5"/>
                </g>
        </g>
        <svg viewBox="0 0 15 15" width="100%" height="30px" preserveAspectRatio="xMaxYMin meet">
         <g id="arrow_out" transform="scale(0.3 0.3)">
          <a xlink:href="previous__service__identity_8h__incl_org.svg" target="_base">
           <rect id="button" ry="5" rx="5" y="6" x="6" height="38" width="38"
                fill="#f2f5e9" fill-opacity="0.5" stroke="#606060" stroke-width="1.0"/>
           <path id="arrow"
             d="M 11.500037,31.436501 C 11.940474,20.09759 22.043105,11.32322 32.158766,21.979434 L 37.068811,17.246167 C 37.068811,17.246167 37.088388,32 37.088388,32 L 22.160133,31.978069 C 22.160133,31.978069 26.997745,27.140456 26.997745,27.140456 C 18.528582,18.264221 13.291696,25.230495 11.500037,31.436501 z"
             style="fill:#404040;"/>
          </a>
         </g>
        </svg>
</svg>
