<?xml version="1.0" encoding="UTF-8" standalone="no"?>
<!DOCTYPE svg PUBLIC "-//W3C//DTD SVG 1.1//EN"
 "http://www.w3.org/Graphics/SVG/1.1/DTD/svg11.dtd">
<!-- Generated by graphviz version 2.43.0 (0)
 -->
<!-- Title: include/ccf/kv/read_only_store.h Pages: 1 -->
<svg width="1354pt" height="368pt"
 viewBox="0.00 0.00 1354.00 368.00" xmlns="http://www.w3.org/2000/svg" xmlns:xlink="http://www.w3.org/1999/xlink">
<g id="graph0" class="graph" transform="scale(1 1) rotate(0) translate(4 364)">
<title>include/ccf/kv/read_only_store.h</title>
<!-- Node1 -->
<g id="node1" class="node">
<title>Node1</title>
<g id="a_node1"><a xlink:title=" ">
<polygon fill="#999999" stroke="#666666" points="753.5,-360 644.5,-360 644.5,-330 753.5,-330 753.5,-360"/>
<text text-anchor="start" x="652.5" y="-348" font-family="Helvetica,sans-Serif" font-size="10.00">include/ccf/kv/read</text>
<text text-anchor="middle" x="699" y="-337" font-family="Helvetica,sans-Serif" font-size="10.00">_only_store.h</text>
</a>
</g>
</g>
<!-- Node2 -->
<g id="node2" class="node">
<title>Node2</title>
<g id="a_node2"><a xlink:href="tx_8h.html" target="_top" xlink:title=" ">
<polygon fill="white" stroke="#666666" points="725.5,-294 672.5,-294 672.5,-275 725.5,-275 725.5,-294"/>
<text text-anchor="middle" x="699" y="-282" font-family="Helvetica,sans-Serif" font-size="10.00">ccf/tx.h</text>
</a>
</g>
</g>
<!-- Node1&#45;&gt;Node2 -->
<g id="edge1" class="edge">
<title>Node1&#45;&gt;Node2</title>
<path fill="none" stroke="#63b8ff" d="M699,-329.84C699,-322.21 699,-312.7 699,-304.45"/>
<polygon fill="#63b8ff" stroke="#63b8ff" points="702.5,-304.27 699,-294.27 695.5,-304.27 702.5,-304.27"/>
</g>
<!-- Node31 -->
<g id="node31" class="node">
<title>Node31</title>
<g id="a_node31"><a xlink:href="tx__id_8h.html" target="_top" xlink:title=" ">
<polygon fill="white" stroke="#666666" points="394.5,-239 327.5,-239 327.5,-220 394.5,-220 394.5,-239"/>
<text text-anchor="middle" x="361" y="-227" font-family="Helvetica,sans-Serif" font-size="10.00">ccf/tx_id.h</text>
</a>
</g>
</g>
<!-- Node1&#45;&gt;Node31 -->
<g id="edge55" class="edge">
<title>Node1&#45;&gt;Node31</title>
<path fill="none" stroke="#63b8ff" d="M657.22,-329.97C590.12,-307.44 459.54,-263.59 396.6,-242.46"/>
<polygon fill="#63b8ff" stroke="#63b8ff" points="397.34,-239.01 386.74,-239.14 395.11,-245.65 397.34,-239.01"/>
</g>
<!-- Node35 -->
<g id="node35" class="node">
<title>Node35</title>
<g id="a_node35"><a xlink:title=" ">
<polygon fill="#e0e0e0" stroke="#999999" points="1346,-239 1288,-239 1288,-220 1346,-220 1346,-239"/>
<text text-anchor="middle" x="1317" y="-227" font-family="Helvetica,sans-Serif" font-size="10.00">memory</text>
</a>
</g>
</g>
<!-- Node1&#45;&gt;Node35 -->
<g id="edge56" class="edge">
<title>Node1&#45;&gt;Node35</title>
<path fill="none" stroke="#63b8ff" d="M753.75,-334.28C856.04,-316.05 1083.09,-275.3 1274,-239 1275.26,-238.76 1276.54,-238.51 1277.84,-238.27"/>
<polygon fill="#63b8ff" stroke="#63b8ff" points="1278.72,-241.66 1287.87,-236.32 1277.38,-234.79 1278.72,-241.66"/>
</g>
<!-- Node3 -->
<g id="node3" class="node">
<title>Node3</title>
<g id="a_node3"><a xlink:href="ccf__assert_8h.html" target="_top" xlink:title=" ">
<polygon fill="white" stroke="#666666" points="851,-239 759,-239 759,-220 851,-220 851,-239"/>
<text text-anchor="middle" x="805" y="-227" font-family="Helvetica,sans-Serif" font-size="10.00">ccf/ccf_assert.h</text>
</a>
</g>
</g>
<!-- Node2&#45;&gt;Node3 -->
<g id="edge2" class="edge">
<title>Node2&#45;&gt;Node3</title>
<path fill="none" stroke="#63b8ff" d="M716.03,-274.98C732.93,-266.54 759.06,-253.47 778.64,-243.68"/>
<polygon fill="#63b8ff" stroke="#63b8ff" points="780.28,-246.77 787.66,-239.17 777.15,-240.51 780.28,-246.77"/>
</g>
<!-- Node11 -->
<g id="node11" class="node">
<title>Node11</title>
<g id="a_node11"><a xlink:title=" ">
<polygon fill="#e0e0e0" stroke="#999999" points="1274,-74 1236,-74 1236,-55 1274,-55 1274,-74"/>
<text text-anchor="middle" x="1255" y="-62" font-family="Helvetica,sans-Serif" font-size="10.00">map</text>
</a>
</g>
</g>
<!-- Node2&#45;&gt;Node11 -->
<g id="edge51" class="edge">
<title>Node2&#45;&gt;Node11</title>
<path fill="none" stroke="#63b8ff" d="M725.52,-276.27C757.45,-267.54 812.7,-252.37 860,-239 1029.61,-191.08 1120.43,-257.56 1241,-129 1252.21,-117.05 1255.21,-98.23 1255.7,-84.17"/>
<polygon fill="#63b8ff" stroke="#63b8ff" points="1259.2,-84.14 1255.67,-74.15 1252.2,-84.16 1259.2,-84.14"/>
</g>
<!-- Node16 -->
<g id="node16" class="node">
<title>Node16</title>
<g id="a_node16"><a xlink:title=" ">
<polygon fill="#e0e0e0" stroke="#999999" points="739,-129 683,-129 683,-110 739,-110 739,-129"/>
<text text-anchor="middle" x="711" y="-117" font-family="Helvetica,sans-Serif" font-size="10.00">optional</text>
</a>
</g>
</g>
<!-- Node2&#45;&gt;Node16 -->
<g id="edge53" class="edge">
<title>Node2&#45;&gt;Node16</title>
<path fill="none" stroke="#63b8ff" d="M699.65,-274.74C701.52,-249.31 706.98,-175.08 709.59,-139.69"/>
<polygon fill="#63b8ff" stroke="#63b8ff" points="713.11,-139.54 710.35,-129.31 706.13,-139.02 713.11,-139.54"/>
</g>
<!-- Node19 -->
<g id="node19" class="node">
<title>Node19</title>
<g id="a_node19"><a xlink:href="sha256__hash_8h.html" target="_top" xlink:title=" ">
<polygon fill="white" stroke="#666666" points="643,-239 503,-239 503,-220 643,-220 643,-239"/>
<text text-anchor="middle" x="573" y="-227" font-family="Helvetica,sans-Serif" font-size="10.00">ccf/crypto/sha256_hash.h</text>
</a>
</g>
</g>
<!-- Node2&#45;&gt;Node19 -->
<g id="edge20" class="edge">
<title>Node2&#45;&gt;Node19</title>
<path fill="none" stroke="#63b8ff" d="M678.76,-274.98C658.3,-266.38 626.47,-252.99 603.07,-243.15"/>
<polygon fill="#63b8ff" stroke="#63b8ff" points="604.19,-239.82 593.61,-239.17 601.47,-246.27 604.19,-239.82"/>
</g>
<!-- Node22 -->
<g id="node22" class="node">
<title>Node22</title>
<g id="a_node22"><a xlink:title=" ">
<polygon fill="#e0e0e0" stroke="#999999" points="70,-19 26,-19 26,0 70,0 70,-19"/>
<text text-anchor="middle" x="48" y="-7" font-family="Helvetica,sans-Serif" font-size="10.00">string</text>
</a>
</g>
</g>
<!-- Node2&#45;&gt;Node22 -->
<g id="edge54" class="edge">
<title>Node2&#45;&gt;Node22</title>
<path fill="none" stroke="#63b8ff" d="M672.45,-282.26C544.77,-275.93 0,-244.88 0,-175.5 0,-175.5 0,-175.5 0,-118.5 0,-83.8 20.94,-47.82 35.16,-27.39"/>
<polygon fill="#63b8ff" stroke="#63b8ff" points="38.09,-29.31 41.12,-19.16 32.42,-25.21 38.09,-29.31"/>
</g>
<!-- Node2&#45;&gt;Node31 -->
<g id="edge41" class="edge">
<title>Node2&#45;&gt;Node31</title>
<path fill="none" stroke="#63b8ff" d="M672.48,-279.34C614.41,-270.24 475.54,-248.46 404.49,-237.32"/>
<polygon fill="#63b8ff" stroke="#63b8ff" points="404.93,-233.85 394.51,-235.76 403.85,-240.76 404.93,-233.85"/>
</g>
<!-- Node34 -->
<g id="node34" class="node">
<title>Node34</title>
<g id="a_node34"><a xlink:title=" ">
<polygon fill="#e0e0e0" stroke="#999999" points="693,-239 661,-239 661,-220 693,-220 693,-239"/>
<text text-anchor="middle" x="677" y="-227" font-family="Helvetica,sans-Serif" font-size="10.00">list</text>
</a>
</g>
</g>
<!-- Node2&#45;&gt;Node34 -->
<g id="edge50" class="edge">
<title>Node2&#45;&gt;Node34</title>
<path fill="none" stroke="#63b8ff" d="M695.37,-274.75C692.42,-267.65 688.17,-257.4 684.49,-248.56"/>
<polygon fill="#63b8ff" stroke="#63b8ff" points="687.63,-246.98 680.57,-239.09 681.17,-249.67 687.63,-246.98"/>
</g>
<!-- Node2&#45;&gt;Node35 -->
<g id="edge52" class="edge">
<title>Node2&#45;&gt;Node35</title>
<path fill="none" stroke="#63b8ff" d="M725.77,-282.55C807.98,-279.4 1063.95,-267.79 1274,-239 1275.27,-238.83 1276.56,-238.64 1277.87,-238.44"/>
<polygon fill="#63b8ff" stroke="#63b8ff" points="1278.66,-241.85 1287.93,-236.73 1277.49,-234.95 1278.66,-241.85"/>
</g>
<!-- Node4 -->
<g id="node4" class="node">
<title>Node4</title>
<g id="a_node4"><a xlink:href="logger_8h.html" target="_top" xlink:title=" ">
<polygon fill="white" stroke="#666666" points="867.5,-184 780.5,-184 780.5,-165 867.5,-165 867.5,-184"/>
<text text-anchor="middle" x="824" y="-172" font-family="Helvetica,sans-Serif" font-size="10.00">ccf/ds/logger.h</text>
</a>
</g>
</g>
<!-- Node3&#45;&gt;Node4 -->
<g id="edge3" class="edge">
<title>Node3&#45;&gt;Node4</title>
<path fill="none" stroke="#63b8ff" d="M808.14,-219.75C810.68,-212.65 814.36,-202.4 817.53,-193.56"/>
<polygon fill="#63b8ff" stroke="#63b8ff" points="820.84,-194.68 820.92,-184.09 814.25,-192.32 820.84,-194.68"/>
</g>
<!-- Node5 -->
<g id="node5" class="node">
<title>Node5</title>
<g id="a_node5"><a xlink:href="enum__formatter_8h.html" target="_top" xlink:title=" ">
<polygon fill="white" stroke="#666666" points="931,-129 795,-129 795,-110 931,-110 931,-129"/>
<text text-anchor="middle" x="863" y="-117" font-family="Helvetica,sans-Serif" font-size="10.00">ccf/ds/enum_formatter.h</text>
</a>
</g>
</g>
<!-- Node4&#45;&gt;Node5 -->
<g id="edge4" class="edge">
<title>Node4&#45;&gt;Node5</title>
<path fill="none" stroke="#63b8ff" d="M830.44,-164.75C835.89,-157.34 843.86,-146.5 850.56,-137.41"/>
<polygon fill="#63b8ff" stroke="#63b8ff" points="853.57,-139.22 856.68,-129.09 847.93,-135.07 853.57,-139.22"/>
</g>
<!-- Node6 -->
<g id="node6" class="node">
<title>Node6</title>
<g id="a_node6"><a xlink:title=" ">
<polygon fill="#e0e0e0" stroke="#999999" points="694.5,-74 615.5,-74 615.5,-55 694.5,-55 694.5,-74"/>
<text text-anchor="middle" x="655" y="-62" font-family="Helvetica,sans-Serif" font-size="10.00">fmt/format.h</text>
</a>
</g>
</g>
<!-- Node4&#45;&gt;Node6 -->
<g id="edge14" class="edge">
<title>Node4&#45;&gt;Node6</title>
<path fill="none" stroke="#63b8ff" d="M815.22,-164.89C801.63,-151.88 774.33,-126.92 748,-110 728.47,-97.45 704.86,-86.2 686.32,-78.14"/>
<polygon fill="#63b8ff" stroke="#63b8ff" points="687.43,-74.82 676.86,-74.12 684.7,-81.26 687.43,-74.82"/>
</g>
<!-- Node7 -->
<g id="node7" class="node">
<title>Node7</title>
<g id="a_node7"><a xlink:href="thread__ids_8h.html" target="_top" xlink:title=" ">
<polygon fill="white" stroke="#666666" points="1232,-129 1124,-129 1124,-110 1232,-110 1232,-129"/>
<text text-anchor="middle" x="1178" y="-117" font-family="Helvetica,sans-Serif" font-size="10.00">ccf/ds/thread_ids.h</text>
</a>
</g>
</g>
<!-- Node4&#45;&gt;Node7 -->
<g id="edge6" class="edge">
<title>Node4&#45;&gt;Node7</title>
<path fill="none" stroke="#63b8ff" d="M867.76,-166.95C929.47,-157.71 1042.47,-140.79 1113.72,-130.12"/>
<polygon fill="#63b8ff" stroke="#63b8ff" points="1114.55,-133.54 1123.92,-128.6 1113.52,-126.62 1114.55,-133.54"/>
</g>
<!-- Node13 -->
<g id="node13" class="node">
<title>Node13</title>
<g id="a_node13"><a xlink:title=" ">
<polygon fill="#e0e0e0" stroke="#999999" points="1028.5,-129 949.5,-129 949.5,-110 1028.5,-110 1028.5,-129"/>
<text text-anchor="middle" x="989" y="-117" font-family="Helvetica,sans-Serif" font-size="10.00">fmt/chrono.h</text>
</a>
</g>
</g>
<!-- Node4&#45;&gt;Node13 -->
<g id="edge13" class="edge">
<title>Node4&#45;&gt;Node13</title>
<path fill="none" stroke="#63b8ff" d="M850.51,-164.98C878.21,-156.09 921.86,-142.07 952.74,-132.15"/>
<polygon fill="#63b8ff" stroke="#63b8ff" points="953.83,-135.47 962.28,-129.08 951.69,-128.81 953.83,-135.47"/>
</g>
<!-- Node14 -->
<g id="node14" class="node">
<title>Node14</title>
<g id="a_node14"><a xlink:title=" ">
<polygon fill="#e0e0e0" stroke="#999999" points="1106,-129 1046,-129 1046,-110 1106,-110 1106,-129"/>
<text text-anchor="middle" x="1076" y="-117" font-family="Helvetica,sans-Serif" font-size="10.00">iostream</text>
</a>
</g>
</g>
<!-- Node4&#45;&gt;Node14 -->
<g id="edge15" class="edge">
<title>Node4&#45;&gt;Node14</title>
<path fill="none" stroke="#63b8ff" d="M865.87,-164.99C906.93,-156.6 971.58,-143.27 1035.84,-129.45"/>
<polygon fill="#63b8ff" stroke="#63b8ff" points="1036.69,-132.84 1045.73,-127.31 1035.21,-126 1036.69,-132.84"/>
</g>
<!-- Node15 -->
<g id="node15" class="node">
<title>Node15</title>
<g id="a_node15"><a xlink:title=" ">
<polygon fill="#e0e0e0" stroke="#999999" points="344,-74 234,-74 234,-55 344,-55 344,-74"/>
<text text-anchor="middle" x="289" y="-62" font-family="Helvetica,sans-Serif" font-size="10.00">nlohmann/json.hpp</text>
</a>
</g>
</g>
<!-- Node4&#45;&gt;Node15 -->
<g id="edge16" class="edge">
<title>Node4&#45;&gt;Node15</title>
<path fill="none" stroke="#63b8ff" d="M780.49,-171.08C659.41,-164.15 326.24,-143.84 308,-129 294.9,-118.34 290.58,-99.03 289.27,-84.5"/>
<polygon fill="#63b8ff" stroke="#63b8ff" points="292.75,-83.93 288.76,-74.12 285.76,-84.28 292.75,-83.93"/>
</g>
<!-- Node4&#45;&gt;Node16 -->
<g id="edge17" class="edge">
<title>Node4&#45;&gt;Node16</title>
<path fill="none" stroke="#63b8ff" d="M805.84,-164.98C787.75,-156.5 759.72,-143.35 738.81,-133.54"/>
<polygon fill="#63b8ff" stroke="#63b8ff" points="740.03,-130.25 729.49,-129.17 737.05,-136.59 740.03,-130.25"/>
</g>
<!-- Node17 -->
<g id="node17" class="node">
<title>Node17</title>
<g id="a_node17"><a xlink:title=" ">
<polygon fill="#e0e0e0" stroke="#999999" points="627,-129 571,-129 571,-110 627,-110 627,-129"/>
<text text-anchor="middle" x="599" y="-117" font-family="Helvetica,sans-Serif" font-size="10.00">sstream</text>
</a>
</g>
</g>
<!-- Node4&#45;&gt;Node17 -->
<g id="edge18" class="edge">
<title>Node4&#45;&gt;Node17</title>
<path fill="none" stroke="#63b8ff" d="M787.85,-164.98C746.54,-155.25 679.21,-139.39 637.1,-129.47"/>
<polygon fill="#63b8ff" stroke="#63b8ff" points="637.76,-126.03 627.23,-127.15 636.16,-132.85 637.76,-126.03"/>
</g>
<!-- Node18 -->
<g id="node18" class="node">
<title>Node18</title>
<g id="a_node18"><a xlink:title=" ">
<polygon fill="#e0e0e0" stroke="#999999" points="961.5,-19 892.5,-19 892.5,0 961.5,0 961.5,-19"/>
<text text-anchor="middle" x="927" y="-7" font-family="Helvetica,sans-Serif" font-size="10.00">type_traits</text>
</a>
</g>
</g>
<!-- Node4&#45;&gt;Node18 -->
<g id="edge19" class="edge">
<title>Node4&#45;&gt;Node18</title>
<path fill="none" stroke="#63b8ff" d="M867.78,-173.14C961.45,-171.69 1177.94,-164.48 1241,-129 1267.81,-113.92 1273.15,-103.14 1283,-74 1285.71,-66 1288.59,-61.33 1283,-55 1262.68,-31.99 1062.52,-18.03 971.57,-12.82"/>
<polygon fill="#63b8ff" stroke="#63b8ff" points="971.73,-9.33 961.55,-12.26 971.34,-16.32 971.73,-9.33"/>
</g>
<!-- Node5&#45;&gt;Node6 -->
<g id="edge5" class="edge">
<title>Node5&#45;&gt;Node6</title>
<path fill="none" stroke="#63b8ff" d="M829.58,-109.98C794.06,-100.93 737.73,-86.58 698.7,-76.64"/>
<polygon fill="#63b8ff" stroke="#63b8ff" points="699.24,-73.16 688.68,-74.08 697.51,-79.94 699.24,-73.16"/>
</g>
<!-- Node7&#45;&gt;Node6 -->
<g id="edge7" class="edge">
<title>Node7&#45;&gt;Node6</title>
<path fill="none" stroke="#63b8ff" d="M1123.72,-111.04C1120.77,-110.68 1117.85,-110.33 1115,-110 966,-92.75 789.3,-76.96 704.82,-69.7"/>
<polygon fill="#63b8ff" stroke="#63b8ff" points="705,-66.2 694.74,-68.84 704.41,-73.18 705,-66.2"/>
</g>
<!-- Node8 -->
<g id="node8" class="node">
<title>Node8</title>
<g id="a_node8"><a xlink:title=" ">
<polygon fill="#e0e0e0" stroke="#999999" points="1076,-74 990,-74 990,-55 1076,-55 1076,-74"/>
<text text-anchor="middle" x="1033" y="-62" font-family="Helvetica,sans-Serif" font-size="10.00">fmt/ostream.h</text>
</a>
</g>
</g>
<!-- Node7&#45;&gt;Node8 -->
<g id="edge8" class="edge">
<title>Node7&#45;&gt;Node8</title>
<path fill="none" stroke="#63b8ff" d="M1154.7,-109.98C1130.75,-101.23 1093.22,-87.51 1066.17,-77.62"/>
<polygon fill="#63b8ff" stroke="#63b8ff" points="1067.31,-74.32 1056.72,-74.17 1064.91,-80.89 1067.31,-74.32"/>
</g>
<!-- Node9 -->
<g id="node9" class="node">
<title>Node9</title>
<g id="a_node9"><a xlink:title=" ">
<polygon fill="#e0e0e0" stroke="#999999" points="1155.5,-74 1094.5,-74 1094.5,-55 1155.5,-55 1155.5,-74"/>
<text text-anchor="middle" x="1125" y="-62" font-family="Helvetica,sans-Serif" font-size="10.00">fmt/std.h</text>
</a>
</g>
</g>
<!-- Node7&#45;&gt;Node9 -->
<g id="edge9" class="edge">
<title>Node7&#45;&gt;Node9</title>
<path fill="none" stroke="#63b8ff" d="M1169.25,-109.75C1161.53,-102.03 1150.1,-90.6 1140.78,-81.28"/>
<polygon fill="#63b8ff" stroke="#63b8ff" points="1143.14,-78.69 1133.59,-74.09 1138.19,-83.64 1143.14,-78.69"/>
</g>
<!-- Node10 -->
<g id="node10" class="node">
<title>Node10</title>
<g id="a_node10"><a xlink:title=" ">
<polygon fill="#e0e0e0" stroke="#999999" points="1218,-74 1174,-74 1174,-55 1218,-55 1218,-74"/>
<text text-anchor="middle" x="1196" y="-62" font-family="Helvetica,sans-Serif" font-size="10.00">limits</text>
</a>
</g>
</g>
<!-- Node7&#45;&gt;Node10 -->
<g id="edge10" class="edge">
<title>Node7&#45;&gt;Node10</title>
<path fill="none" stroke="#63b8ff" d="M1180.97,-109.75C1183.36,-102.72 1186.79,-92.62 1189.77,-83.84"/>
<polygon fill="#63b8ff" stroke="#63b8ff" points="1193.18,-84.68 1193.08,-74.09 1186.55,-82.43 1193.18,-84.68"/>
</g>
<!-- Node7&#45;&gt;Node11 -->
<g id="edge11" class="edge">
<title>Node7&#45;&gt;Node11</title>
<path fill="none" stroke="#63b8ff" d="M1190.37,-109.98C1202.09,-101.92 1219.92,-89.65 1233.89,-80.03"/>
<polygon fill="#63b8ff" stroke="#63b8ff" points="1236.15,-82.72 1242.4,-74.17 1232.18,-76.96 1236.15,-82.72"/>
</g>
<!-- Node12 -->
<g id="node12" class="node">
<title>Node12</title>
<g id="a_node12"><a xlink:title=" ">
<polygon fill="#e0e0e0" stroke="#999999" points="972,-74 924,-74 924,-55 972,-55 972,-74"/>
<text text-anchor="middle" x="948" y="-62" font-family="Helvetica,sans-Serif" font-size="10.00">thread</text>
</a>
</g>
</g>
<!-- Node7&#45;&gt;Node12 -->
<g id="edge12" class="edge">
<title>Node7&#45;&gt;Node12</title>
<path fill="none" stroke="#63b8ff" d="M1138.67,-109.98C1100.95,-101.73 1042.14,-88.65 982.16,-74.23"/>
<polygon fill="#63b8ff" stroke="#63b8ff" points="982.67,-70.75 972.13,-71.8 981.03,-77.55 982.67,-70.75"/>
</g>
<!-- Node19&#45;&gt;Node6 -->
<g id="edge40" class="edge">
<title>Node19&#45;&gt;Node6</title>
<path fill="none" stroke="#63b8ff" d="M592.47,-219.95C606.88,-212.57 625.73,-200.48 636,-184 655.32,-153.01 657.09,-108.92 656.29,-84.19"/>
<polygon fill="#63b8ff" stroke="#63b8ff" points="659.77,-83.83 655.77,-74.02 652.78,-84.18 659.77,-83.83"/>
</g>
<!-- Node20 -->
<g id="node20" class="node">
<title>Node20</title>
<g id="a_node20"><a xlink:href="json_8h.html" target="_top" xlink:title=" ">
<polygon fill="white" stroke="#666666" points="492.5,-184 415.5,-184 415.5,-165 492.5,-165 492.5,-184"/>
<text text-anchor="middle" x="454" y="-172" font-family="Helvetica,sans-Serif" font-size="10.00">ccf/ds/json.h</text>
</a>
</g>
</g>
<!-- Node19&#45;&gt;Node20 -->
<g id="edge21" class="edge">
<title>Node19&#45;&gt;Node20</title>
<path fill="none" stroke="#63b8ff" d="M553.88,-219.98C534.65,-211.42 504.77,-198.11 482.69,-188.28"/>
<polygon fill="#63b8ff" stroke="#63b8ff" points="484.03,-185.04 473.47,-184.17 481.18,-191.44 484.03,-185.04"/>
</g>
<!-- Node27 -->
<g id="node27" class="node">
<title>Node27</title>
<g id="a_node27"><a xlink:title=" ">
<polygon fill="#e0e0e0" stroke="#999999" points="500,-19 458,-19 458,0 500,0 500,-19"/>
<text text-anchor="middle" x="479" y="-7" font-family="Helvetica,sans-Serif" font-size="10.00">array</text>
</a>
</g>
</g>
<!-- Node19&#45;&gt;Node27 -->
<g id="edge38" class="edge">
<title>Node19&#45;&gt;Node27</title>
<path fill="none" stroke="#63b8ff" d="M569.32,-219.95C555.43,-187.74 506.05,-73.23 486.78,-28.55"/>
<polygon fill="#63b8ff" stroke="#63b8ff" points="489.94,-27.02 482.76,-19.22 483.51,-29.79 489.94,-27.02"/>
</g>
<!-- Node30 -->
<g id="node30" class="node">
<title>Node30</title>
<g id="a_node30"><a xlink:title=" ">
<polygon fill="#e0e0e0" stroke="#999999" points="627,-184 587,-184 587,-165 627,-165 627,-184"/>
<text text-anchor="middle" x="607" y="-172" font-family="Helvetica,sans-Serif" font-size="10.00">span</text>
</a>
</g>
</g>
<!-- Node19&#45;&gt;Node30 -->
<g id="edge39" class="edge">
<title>Node19&#45;&gt;Node30</title>
<path fill="none" stroke="#63b8ff" d="M578.61,-219.75C583.32,-212.42 590.17,-201.73 595.97,-192.7"/>
<polygon fill="#63b8ff" stroke="#63b8ff" points="599.04,-194.4 601.49,-184.09 593.14,-190.62 599.04,-194.4"/>
</g>
<!-- Node20&#45;&gt;Node6 -->
<g id="edge36" class="edge">
<title>Node20&#45;&gt;Node6</title>
<path fill="none" stroke="#63b8ff" d="M467.76,-164.9C488.08,-152.31 527.44,-128.39 562,-110 583.4,-98.62 608.17,-86.83 626.77,-78.24"/>
<polygon fill="#63b8ff" stroke="#63b8ff" points="628.25,-81.42 635.88,-74.07 625.34,-75.05 628.25,-81.42"/>
</g>
<!-- Node20&#45;&gt;Node17 -->
<g id="edge37" class="edge">
<title>Node20&#45;&gt;Node17</title>
<path fill="none" stroke="#63b8ff" d="M477.3,-164.98C501.25,-156.23 538.78,-142.51 565.83,-132.62"/>
<polygon fill="#63b8ff" stroke="#63b8ff" points="567.09,-135.89 575.28,-129.17 564.69,-129.32 567.09,-135.89"/>
</g>
<!-- Node21 -->
<g id="node21" class="node">
<title>Node21</title>
<g id="a_node21"><a xlink:href="include_2ccf_2crypto_2base64_8h.html" target="_top" xlink:title=" ">
<polygon fill="white" stroke="#666666" points="216,-74 104,-74 104,-55 216,-55 216,-74"/>
<text text-anchor="middle" x="160" y="-62" font-family="Helvetica,sans-Serif" font-size="10.00">ccf/crypto/base64.h</text>
</a>
</g>
</g>
<!-- Node20&#45;&gt;Node21 -->
<g id="edge22" class="edge">
<title>Node20&#45;&gt;Node21</title>
<path fill="none" stroke="#63b8ff" d="M415.39,-166.92C378.52,-159.95 321.8,-147.37 275,-129 240.67,-115.52 203.82,-93.73 181.34,-79.51"/>
<polygon fill="#63b8ff" stroke="#63b8ff" points="183.21,-76.56 172.9,-74.1 179.43,-82.45 183.21,-76.56"/>
</g>
<!-- Node24 -->
<g id="node24" class="node">
<title>Node24</title>
<g id="a_node24"><a xlink:href="include_2ccf_2ds_2json__schema_8h.html" target="_top" xlink:title=" ">
<polygon fill="white" stroke="#666666" points="438.5,-129 317.5,-129 317.5,-110 438.5,-110 438.5,-129"/>
<text text-anchor="middle" x="378" y="-117" font-family="Helvetica,sans-Serif" font-size="10.00">ccf/ds/json_schema.h</text>
</a>
</g>
</g>
<!-- Node20&#45;&gt;Node24 -->
<g id="edge25" class="edge">
<title>Node20&#45;&gt;Node24</title>
<path fill="none" stroke="#63b8ff" d="M441.79,-164.98C430.22,-156.92 412.62,-144.65 398.84,-135.03"/>
<polygon fill="#63b8ff" stroke="#63b8ff" points="400.64,-132.02 390.43,-129.17 396.63,-137.76 400.64,-132.02"/>
</g>
<!-- Node21&#45;&gt;Node22 -->
<g id="edge23" class="edge">
<title>Node21&#45;&gt;Node22</title>
<path fill="none" stroke="#63b8ff" d="M142.01,-54.98C124.07,-46.5 96.28,-33.35 75.57,-23.54"/>
<polygon fill="#63b8ff" stroke="#63b8ff" points="76.86,-20.28 66.32,-19.17 73.86,-26.61 76.86,-20.28"/>
</g>
<!-- Node23 -->
<g id="node23" class="node">
<title>Node23</title>
<g id="a_node23"><a xlink:title=" ">
<polygon fill="#e0e0e0" stroke="#999999" points="280.5,-19 233.5,-19 233.5,0 280.5,0 280.5,-19"/>
<text text-anchor="middle" x="257" y="-7" font-family="Helvetica,sans-Serif" font-size="10.00">vector</text>
</a>
</g>
</g>
<!-- Node21&#45;&gt;Node23 -->
<g id="edge24" class="edge">
<title>Node21&#45;&gt;Node23</title>
<path fill="none" stroke="#63b8ff" d="M175.58,-54.98C190.77,-46.69 214.1,-33.94 231.9,-24.22"/>
<polygon fill="#63b8ff" stroke="#63b8ff" points="234.03,-27.04 241.13,-19.17 230.68,-20.89 234.03,-27.04"/>
</g>
<!-- Node24&#45;&gt;Node6 -->
<g id="edge34" class="edge">
<title>Node24&#45;&gt;Node6</title>
<path fill="none" stroke="#63b8ff" d="M422.5,-109.98C472.4,-100.44 553.11,-85 605.1,-75.05"/>
<polygon fill="#63b8ff" stroke="#63b8ff" points="605.94,-78.45 615.1,-73.13 604.62,-71.58 605.94,-78.45"/>
</g>
<!-- Node24&#45;&gt;Node15 -->
<g id="edge35" class="edge">
<title>Node24&#45;&gt;Node15</title>
<path fill="none" stroke="#63b8ff" d="M363.7,-109.98C349.9,-101.77 328.76,-89.18 312.49,-79.49"/>
<polygon fill="#63b8ff" stroke="#63b8ff" points="313.94,-76.28 303.56,-74.17 310.36,-82.29 313.94,-76.28"/>
</g>
<!-- Node25 -->
<g id="node25" class="node">
<title>Node25</title>
<g id="a_node25"><a xlink:href="nonstd_8h.html" target="_top" xlink:title=" ">
<polygon fill="white" stroke="#666666" points="452,-74 362,-74 362,-55 452,-55 452,-74"/>
<text text-anchor="middle" x="407" y="-62" font-family="Helvetica,sans-Serif" font-size="10.00">ccf/ds/nonstd.h</text>
</a>
</g>
</g>
<!-- Node24&#45;&gt;Node25 -->
<g id="edge26" class="edge">
<title>Node24&#45;&gt;Node25</title>
<path fill="none" stroke="#63b8ff" d="M382.79,-109.75C386.76,-102.49 392.53,-91.95 397.43,-82.98"/>
<polygon fill="#63b8ff" stroke="#63b8ff" points="400.57,-84.54 402.3,-74.09 394.43,-81.18 400.57,-84.54"/>
</g>
<!-- Node25&#45;&gt;Node18 -->
<g id="edge32" class="edge">
<title>Node25&#45;&gt;Node18</title>
<path fill="none" stroke="#63b8ff" d="M452.24,-58.89C550.82,-48.84 784.04,-25.07 882.21,-15.07"/>
<polygon fill="#63b8ff" stroke="#63b8ff" points="882.8,-18.52 892.39,-14.03 882.09,-11.56 882.8,-18.52"/>
</g>
<!-- Node25&#45;&gt;Node22 -->
<g id="edge30" class="edge">
<title>Node25&#45;&gt;Node22</title>
<path fill="none" stroke="#63b8ff" d="M361.92,-56.37C358.9,-55.9 355.91,-55.44 353,-55 253.59,-39.92 135.81,-23.01 80.17,-15.07"/>
<polygon fill="#63b8ff" stroke="#63b8ff" points="80.6,-11.6 70.21,-13.65 79.62,-18.53 80.6,-11.6"/>
</g>
<!-- Node25&#45;&gt;Node23 -->
<g id="edge33" class="edge">
<title>Node25&#45;&gt;Node23</title>
<path fill="none" stroke="#63b8ff" d="M382.9,-54.98C357.82,-46.12 318.37,-32.18 290.32,-22.27"/>
<polygon fill="#63b8ff" stroke="#63b8ff" points="291.14,-18.85 280.55,-18.82 288.81,-25.45 291.14,-18.85"/>
</g>
<!-- Node26 -->
<g id="node26" class="node">
<title>Node26</title>
<g id="a_node26"><a xlink:title=" ">
<polygon fill="#e0e0e0" stroke="#999999" points="439,-19 375,-19 375,0 439,0 439,-19"/>
<text text-anchor="middle" x="407" y="-7" font-family="Helvetica,sans-Serif" font-size="10.00">algorithm</text>
</a>
</g>
</g>
<!-- Node25&#45;&gt;Node26 -->
<g id="edge27" class="edge">
<title>Node25&#45;&gt;Node26</title>
<path fill="none" stroke="#63b8ff" d="M407,-54.75C407,-47.8 407,-37.85 407,-29.13"/>
<polygon fill="#63b8ff" stroke="#63b8ff" points="410.5,-29.09 407,-19.09 403.5,-29.09 410.5,-29.09"/>
</g>
<!-- Node25&#45;&gt;Node27 -->
<g id="edge28" class="edge">
<title>Node25&#45;&gt;Node27</title>
<path fill="none" stroke="#63b8ff" d="M418.57,-54.98C429.42,-47 445.88,-34.88 458.88,-25.31"/>
<polygon fill="#63b8ff" stroke="#63b8ff" points="461.24,-27.92 467.22,-19.17 457.09,-22.28 461.24,-27.92"/>
</g>
<!-- Node28 -->
<g id="node28" class="node">
<title>Node28</title>
<g id="a_node28"><a xlink:title=" ">
<polygon fill="#e0e0e0" stroke="#999999" points="356.5,-19 307.5,-19 307.5,0 356.5,0 356.5,-19"/>
<text text-anchor="middle" x="332" y="-7" font-family="Helvetica,sans-Serif" font-size="10.00">cctype</text>
</a>
</g>
</g>
<!-- Node25&#45;&gt;Node28 -->
<g id="edge29" class="edge">
<title>Node25&#45;&gt;Node28</title>
<path fill="none" stroke="#63b8ff" d="M394.95,-54.98C383.54,-46.92 366.17,-34.65 352.57,-25.03"/>
<polygon fill="#63b8ff" stroke="#63b8ff" points="354.46,-22.08 344.27,-19.17 350.42,-27.8 354.46,-22.08"/>
</g>
<!-- Node29 -->
<g id="node29" class="node">
<title>Node29</title>
<g id="a_node29"><a xlink:title=" ">
<polygon fill="#e0e0e0" stroke="#999999" points="197.5,-19 124.5,-19 124.5,0 197.5,0 197.5,-19"/>
<text text-anchor="middle" x="161" y="-7" font-family="Helvetica,sans-Serif" font-size="10.00">string_view</text>
</a>
</g>
</g>
<!-- Node25&#45;&gt;Node29 -->
<g id="edge31" class="edge">
<title>Node25&#45;&gt;Node29</title>
<path fill="none" stroke="#63b8ff" d="M367.48,-54.98C323.91,-45.6 253.9,-30.52 207.67,-20.56"/>
<polygon fill="#63b8ff" stroke="#63b8ff" points="208.13,-17.07 197.61,-18.39 206.65,-23.92 208.13,-17.07"/>
</g>
<!-- Node31&#45;&gt;Node6 -->
<g id="edge45" class="edge">
<title>Node31&#45;&gt;Node6</title>
<path fill="none" stroke="#63b8ff" d="M365.37,-219.59C372.32,-206.18 387.09,-180.72 406,-165 465.02,-115.93 551.3,-88.79 605.24,-75.69"/>
<polygon fill="#63b8ff" stroke="#63b8ff" points="606.33,-79.04 615.26,-73.33 604.72,-72.22 606.33,-79.04"/>
</g>
<!-- Node31&#45;&gt;Node15 -->
<g id="edge46" class="edge">
<title>Node31&#45;&gt;Node15</title>
<path fill="none" stroke="#63b8ff" d="M327.25,-228.43C293.9,-226.34 244.43,-217.33 220,-184 194.36,-149.03 240.14,-103.83 268.69,-80.66"/>
<polygon fill="#63b8ff" stroke="#63b8ff" points="271.19,-83.14 276.9,-74.21 266.87,-77.64 271.19,-83.14"/>
</g>
<!-- Node31&#45;&gt;Node16 -->
<g id="edge47" class="edge">
<title>Node31&#45;&gt;Node16</title>
<path fill="none" stroke="#63b8ff" d="M388.76,-219.94C451.17,-200.68 602.64,-153.94 673.41,-132.1"/>
<polygon fill="#63b8ff" stroke="#63b8ff" points="674.72,-135.36 683.24,-129.07 672.65,-128.67 674.72,-135.36"/>
</g>
<!-- Node31&#45;&gt;Node20 -->
<g id="edge42" class="edge">
<title>Node31&#45;&gt;Node20</title>
<path fill="none" stroke="#63b8ff" d="M375.94,-219.98C390.5,-211.69 412.87,-198.94 429.93,-189.22"/>
<polygon fill="#63b8ff" stroke="#63b8ff" points="431.83,-192.16 438.79,-184.17 428.36,-186.08 431.83,-192.16"/>
</g>
<!-- Node31&#45;&gt;Node22 -->
<g id="edge48" class="edge">
<title>Node31&#45;&gt;Node22</title>
<path fill="none" stroke="#63b8ff" d="M327.35,-225.55C288.34,-221.02 223.01,-209.97 173,-184 108.23,-150.36 69.22,-66.07 54.61,-28.76"/>
<polygon fill="#63b8ff" stroke="#63b8ff" points="57.8,-27.3 50.99,-19.18 51.25,-29.77 57.8,-27.3"/>
</g>
<!-- Node31&#45;&gt;Node29 -->
<g id="edge49" class="edge">
<title>Node31&#45;&gt;Node29</title>
<path fill="none" stroke="#63b8ff" d="M327.44,-223.47C295.35,-217.58 246.45,-205.75 209,-184 148.12,-148.64 122.52,-138.81 95,-74 85.9,-52.58 108.78,-34.9 130.04,-23.68"/>
<polygon fill="#63b8ff" stroke="#63b8ff" points="131.84,-26.7 139.26,-19.14 128.75,-20.42 131.84,-26.7"/>
</g>
<!-- Node32 -->
<g id="node32" class="node">
<title>Node32</title>
<g id="a_node32"><a xlink:title=" ">
<polygon fill="#e0e0e0" stroke="#999999" points="290.5,-184 229.5,-184 229.5,-165 290.5,-165 290.5,-184"/>
<text text-anchor="middle" x="260" y="-172" font-family="Helvetica,sans-Serif" font-size="10.00">charconv</text>
</a>
</g>
</g>
<!-- Node31&#45;&gt;Node32 -->
<g id="edge43" class="edge">
<title>Node31&#45;&gt;Node32</title>
<path fill="none" stroke="#63b8ff" d="M344.77,-219.98C328.82,-211.61 304.22,-198.7 285.62,-188.95"/>
<polygon fill="#63b8ff" stroke="#63b8ff" points="287,-185.72 276.52,-184.17 283.75,-191.92 287,-185.72"/>
</g>
<!-- Node33 -->
<g id="node33" class="node">
<title>Node33</title>
<g id="a_node33"><a xlink:title=" ">
<polygon fill="#e0e0e0" stroke="#999999" points="359,-184 309,-184 309,-165 359,-165 359,-184"/>
<text text-anchor="middle" x="334" y="-172" font-family="Helvetica,sans-Serif" font-size="10.00">cstdint</text>
</a>
</g>
</g>
<!-- Node31&#45;&gt;Node33 -->
<g id="edge44" class="edge">
<title>Node31&#45;&gt;Node33</title>
<path fill="none" stroke="#63b8ff" d="M356.54,-219.75C352.88,-212.57 347.59,-202.18 343.05,-193.27"/>
<polygon fill="#63b8ff" stroke="#63b8ff" points="346.03,-191.41 338.38,-184.09 339.8,-194.59 346.03,-191.41"/>
</g>
</g>
</svg>
