<?xml version="1.0" encoding="UTF-8" standalone="no"?>
<!DOCTYPE svg PUBLIC "-//W3C//DTD SVG 1.1//EN"
 "http://www.w3.org/Graphics/SVG/1.1/DTD/svg11.dtd">
<!-- Generated by graphviz version 2.43.0 (0)
 -->
<!-- Title: src/node/rpc/rpc_exception.h Pages: 1 -->
<svg width="697pt" height="302pt"
 viewBox="0.00 0.00 696.50 302.00" xmlns="http://www.w3.org/2000/svg" xmlns:xlink="http://www.w3.org/1999/xlink">
<g id="graph0" class="graph" transform="scale(1 1) rotate(0) translate(4 298)">
<title>src/node/rpc/rpc_exception.h</title>
<!-- Node1 -->
<g id="node1" class="node">
<title>Node1</title>
<g id="a_node1"><a xlink:title=" ">
<polygon fill="#999999" stroke="#666666" points="673,-294 517,-294 517,-275 673,-275 673,-294"/>
<text text-anchor="middle" x="595" y="-282" font-family="Helvetica,sans-Serif" font-size="10.00">src/node/rpc/rpc_exception.h</text>
</a>
</g>
</g>
<!-- Node2 -->
<g id="node2" class="node">
<title>Node2</title>
<g id="a_node2"><a xlink:href="odata__error_8h.html" target="_top" xlink:title=" ">
<polygon fill="white" stroke="#666666" points="567,-239 469,-239 469,-220 567,-220 567,-239"/>
<text text-anchor="middle" x="518" y="-227" font-family="Helvetica,sans-Serif" font-size="10.00">ccf/odata_error.h</text>
</a>
</g>
</g>
<!-- Node1&#45;&gt;Node2 -->
<g id="edge1" class="edge">
<title>Node1&#45;&gt;Node2</title>
<path fill="none" stroke="#63b8ff" d="M582.63,-274.98C570.91,-266.92 553.08,-254.65 539.11,-245.03"/>
<polygon fill="#63b8ff" stroke="#63b8ff" points="540.82,-241.96 530.6,-239.17 536.85,-247.72 540.82,-241.96"/>
</g>
<!-- Node5 -->
<g id="node5" class="node">
<title>Node5</title>
<g id="a_node5"><a xlink:title=" ">
<polygon fill="#e0e0e0" stroke="#999999" points="533,-19 489,-19 489,0 533,0 533,-19"/>
<text text-anchor="middle" x="511" y="-7" font-family="Helvetica,sans-Serif" font-size="10.00">string</text>
</a>
</g>
</g>
<!-- Node1&#45;&gt;Node5 -->
<g id="edge21" class="edge">
<title>Node1&#45;&gt;Node5</title>
<path fill="none" stroke="#63b8ff" d="M595,-274.82C595,-256.48 595,-212.44 595,-175.5 595,-175.5 595,-175.5 595,-118.5 595,-89.04 593.37,-78.79 576,-55 566.46,-41.93 551.86,-31.44 538.91,-23.93"/>
<polygon fill="#63b8ff" stroke="#63b8ff" points="540.32,-20.72 529.87,-19 536.97,-26.86 540.32,-20.72"/>
</g>
<!-- Node18 -->
<g id="node18" class="node">
<title>Node18</title>
<g id="a_node18"><a xlink:title=" ">
<polygon fill="#e0e0e0" stroke="#999999" points="688.5,-239 623.5,-239 623.5,-220 688.5,-220 688.5,-239"/>
<text text-anchor="middle" x="656" y="-227" font-family="Helvetica,sans-Serif" font-size="10.00">exception</text>
</a>
</g>
</g>
<!-- Node1&#45;&gt;Node18 -->
<g id="edge20" class="edge">
<title>Node1&#45;&gt;Node18</title>
<path fill="none" stroke="#63b8ff" d="M604.8,-274.98C613.82,-267.15 627.41,-255.34 638.32,-245.86"/>
<polygon fill="#63b8ff" stroke="#63b8ff" points="640.77,-248.37 646.02,-239.17 636.18,-243.09 640.77,-248.37"/>
</g>
<!-- Node3 -->
<g id="node3" class="node">
<title>Node3</title>
<g id="a_node3"><a xlink:href="json_8h.html" target="_top" xlink:title=" ">
<polygon fill="white" stroke="#666666" points="450.5,-184 373.5,-184 373.5,-165 450.5,-165 450.5,-184"/>
<text text-anchor="middle" x="412" y="-172" font-family="Helvetica,sans-Serif" font-size="10.00">ccf/ds/json.h</text>
</a>
</g>
</g>
<!-- Node2&#45;&gt;Node3 -->
<g id="edge2" class="edge">
<title>Node2&#45;&gt;Node3</title>
<path fill="none" stroke="#63b8ff" d="M500.97,-219.98C484.07,-211.54 457.94,-198.47 438.36,-188.68"/>
<polygon fill="#63b8ff" stroke="#63b8ff" points="439.85,-185.51 429.34,-184.17 436.72,-191.77 439.85,-185.51"/>
</g>
<!-- Node17 -->
<g id="node17" class="node">
<title>Node17</title>
<g id="a_node17"><a xlink:href="http__status_8h.html" target="_top" xlink:title=" ">
<polygon fill="white" stroke="#666666" points="567,-184 469,-184 469,-165 567,-165 567,-184"/>
<text text-anchor="middle" x="518" y="-172" font-family="Helvetica,sans-Serif" font-size="10.00">ccf/http_status.h</text>
</a>
</g>
</g>
<!-- Node2&#45;&gt;Node17 -->
<g id="edge19" class="edge">
<title>Node2&#45;&gt;Node17</title>
<path fill="none" stroke="#63b8ff" d="M518,-219.75C518,-212.8 518,-202.85 518,-194.13"/>
<polygon fill="#63b8ff" stroke="#63b8ff" points="521.5,-194.09 518,-184.09 514.5,-194.09 521.5,-194.09"/>
</g>
<!-- Node4 -->
<g id="node4" class="node">
<title>Node4</title>
<g id="a_node4"><a xlink:href="include_2ccf_2crypto_2base64_8h.html" target="_top" xlink:title=" ">
<polygon fill="white" stroke="#666666" points="567,-74 455,-74 455,-55 567,-55 567,-74"/>
<text text-anchor="middle" x="511" y="-62" font-family="Helvetica,sans-Serif" font-size="10.00">ccf/crypto/base64.h</text>
</a>
</g>
</g>
<!-- Node3&#45;&gt;Node4 -->
<g id="edge3" class="edge">
<title>Node3&#45;&gt;Node4</title>
<path fill="none" stroke="#63b8ff" d="M437.41,-164.91C454.79,-157.82 477.12,-146.12 491,-129 501.35,-116.24 506.37,-98.06 508.79,-84.42"/>
<polygon fill="#63b8ff" stroke="#63b8ff" points="512.3,-84.65 510.27,-74.25 505.37,-83.65 512.3,-84.65"/>
</g>
<!-- Node7 -->
<g id="node7" class="node">
<title>Node7</title>
<g id="a_node7"><a xlink:href="include_2ccf_2ds_2json__schema_8h.html" target="_top" xlink:title=" ">
<polygon fill="white" stroke="#666666" points="357.5,-129 236.5,-129 236.5,-110 357.5,-110 357.5,-129"/>
<text text-anchor="middle" x="297" y="-117" font-family="Helvetica,sans-Serif" font-size="10.00">ccf/ds/json_schema.h</text>
</a>
</g>
</g>
<!-- Node3&#45;&gt;Node7 -->
<g id="edge6" class="edge">
<title>Node3&#45;&gt;Node7</title>
<path fill="none" stroke="#63b8ff" d="M393.52,-164.98C375.02,-156.46 346.32,-143.23 325.02,-133.41"/>
<polygon fill="#63b8ff" stroke="#63b8ff" points="326.36,-130.18 315.81,-129.17 323.43,-136.53 326.36,-130.18"/>
</g>
<!-- Node14 -->
<g id="node14" class="node">
<title>Node14</title>
<g id="a_node14"><a xlink:title=" ">
<polygon fill="#e0e0e0" stroke="#999999" points="437.5,-74 358.5,-74 358.5,-55 437.5,-55 437.5,-74"/>
<text text-anchor="middle" x="398" y="-62" font-family="Helvetica,sans-Serif" font-size="10.00">fmt/format.h</text>
</a>
</g>
</g>
<!-- Node3&#45;&gt;Node14 -->
<g id="edge17" class="edge">
<title>Node3&#45;&gt;Node14</title>
<path fill="none" stroke="#63b8ff" d="M410.85,-164.66C408.59,-147.17 403.48,-107.8 400.43,-84.27"/>
<polygon fill="#63b8ff" stroke="#63b8ff" points="403.88,-83.63 399.12,-74.16 396.94,-84.53 403.88,-83.63"/>
</g>
<!-- Node16 -->
<g id="node16" class="node">
<title>Node16</title>
<g id="a_node16"><a xlink:title=" ">
<polygon fill="#e0e0e0" stroke="#999999" points="482,-129 426,-129 426,-110 482,-110 482,-129"/>
<text text-anchor="middle" x="454" y="-117" font-family="Helvetica,sans-Serif" font-size="10.00">sstream</text>
</a>
</g>
</g>
<!-- Node3&#45;&gt;Node16 -->
<g id="edge18" class="edge">
<title>Node3&#45;&gt;Node16</title>
<path fill="none" stroke="#63b8ff" d="M418.94,-164.75C424.87,-157.26 433.57,-146.28 440.82,-137.13"/>
<polygon fill="#63b8ff" stroke="#63b8ff" points="443.73,-139.1 447.19,-129.09 438.24,-134.75 443.73,-139.1"/>
</g>
<!-- Node4&#45;&gt;Node5 -->
<g id="edge4" class="edge">
<title>Node4&#45;&gt;Node5</title>
<path fill="none" stroke="#63b8ff" d="M511,-54.75C511,-47.8 511,-37.85 511,-29.13"/>
<polygon fill="#63b8ff" stroke="#63b8ff" points="514.5,-29.09 511,-19.09 507.5,-29.09 514.5,-29.09"/>
</g>
<!-- Node6 -->
<g id="node6" class="node">
<title>Node6</title>
<g id="a_node6"><a xlink:title=" ">
<polygon fill="#e0e0e0" stroke="#999999" points="452.5,-19 405.5,-19 405.5,0 452.5,0 452.5,-19"/>
<text text-anchor="middle" x="429" y="-7" font-family="Helvetica,sans-Serif" font-size="10.00">vector</text>
</a>
</g>
</g>
<!-- Node4&#45;&gt;Node6 -->
<g id="edge5" class="edge">
<title>Node4&#45;&gt;Node6</title>
<path fill="none" stroke="#63b8ff" d="M497.83,-54.98C485.23,-46.84 466,-34.41 451.06,-24.76"/>
<polygon fill="#63b8ff" stroke="#63b8ff" points="452.71,-21.66 442.41,-19.17 448.91,-27.54 452.71,-21.66"/>
</g>
<!-- Node8 -->
<g id="node8" class="node">
<title>Node8</title>
<g id="a_node8"><a xlink:href="nonstd_8h.html" target="_top" xlink:title=" ">
<polygon fill="white" stroke="#666666" points="212,-74 122,-74 122,-55 212,-55 212,-74"/>
<text text-anchor="middle" x="167" y="-62" font-family="Helvetica,sans-Serif" font-size="10.00">ccf/ds/nonstd.h</text>
</a>
</g>
</g>
<!-- Node7&#45;&gt;Node8 -->
<g id="edge7" class="edge">
<title>Node7&#45;&gt;Node8</title>
<path fill="none" stroke="#63b8ff" d="M276.11,-109.98C254.92,-101.34 221.87,-87.87 197.7,-78.02"/>
<polygon fill="#63b8ff" stroke="#63b8ff" points="198.85,-74.7 188.27,-74.17 196.21,-81.19 198.85,-74.7"/>
</g>
<!-- Node7&#45;&gt;Node14 -->
<g id="edge15" class="edge">
<title>Node7&#45;&gt;Node14</title>
<path fill="none" stroke="#63b8ff" d="M313.23,-109.98C329.18,-101.61 353.78,-88.7 372.38,-78.95"/>
<polygon fill="#63b8ff" stroke="#63b8ff" points="374.25,-81.92 381.48,-74.17 371,-75.72 374.25,-81.92"/>
</g>
<!-- Node15 -->
<g id="node15" class="node">
<title>Node15</title>
<g id="a_node15"><a xlink:title=" ">
<polygon fill="#e0e0e0" stroke="#999999" points="340,-74 230,-74 230,-55 340,-55 340,-74"/>
<text text-anchor="middle" x="285" y="-62" font-family="Helvetica,sans-Serif" font-size="10.00">nlohmann/json.hpp</text>
</a>
</g>
</g>
<!-- Node7&#45;&gt;Node15 -->
<g id="edge16" class="edge">
<title>Node7&#45;&gt;Node15</title>
<path fill="none" stroke="#63b8ff" d="M295.02,-109.75C293.43,-102.72 291.14,-92.62 289.15,-83.84"/>
<polygon fill="#63b8ff" stroke="#63b8ff" points="292.57,-83.07 286.94,-74.09 285.74,-84.62 292.57,-83.07"/>
</g>
<!-- Node8&#45;&gt;Node5 -->
<g id="edge11" class="edge">
<title>Node8&#45;&gt;Node5</title>
<path fill="none" stroke="#63b8ff" d="M212.08,-56.38C215.1,-55.91 218.09,-55.45 221,-55 328.05,-38.58 355.08,-36.26 462,-19 467.3,-18.14 472.91,-17.2 478.38,-16.27"/>
<polygon fill="#63b8ff" stroke="#63b8ff" points="479.32,-19.66 488.58,-14.5 478.13,-12.76 479.32,-19.66"/>
</g>
<!-- Node8&#45;&gt;Node6 -->
<g id="edge14" class="edge">
<title>Node8&#45;&gt;Node6</title>
<path fill="none" stroke="#63b8ff" d="M209.09,-54.98C260.87,-44.51 347.73,-26.94 395.31,-17.32"/>
<polygon fill="#63b8ff" stroke="#63b8ff" points="396.29,-20.69 405.4,-15.27 394.91,-13.83 396.29,-20.69"/>
</g>
<!-- Node9 -->
<g id="node9" class="node">
<title>Node9</title>
<g id="a_node9"><a xlink:title=" ">
<polygon fill="#e0e0e0" stroke="#999999" points="64,-19 0,-19 0,0 64,0 64,-19"/>
<text text-anchor="middle" x="32" y="-7" font-family="Helvetica,sans-Serif" font-size="10.00">algorithm</text>
</a>
</g>
</g>
<!-- Node8&#45;&gt;Node9 -->
<g id="edge8" class="edge">
<title>Node8&#45;&gt;Node9</title>
<path fill="none" stroke="#63b8ff" d="M145.31,-54.98C123.2,-46.3 88.68,-32.75 63.55,-22.88"/>
<polygon fill="#63b8ff" stroke="#63b8ff" points="64.67,-19.57 54.08,-19.17 62.11,-26.08 64.67,-19.57"/>
</g>
<!-- Node10 -->
<g id="node10" class="node">
<title>Node10</title>
<g id="a_node10"><a xlink:title=" ">
<polygon fill="#e0e0e0" stroke="#999999" points="124,-19 82,-19 82,0 124,0 124,-19"/>
<text text-anchor="middle" x="103" y="-7" font-family="Helvetica,sans-Serif" font-size="10.00">array</text>
</a>
</g>
</g>
<!-- Node8&#45;&gt;Node10 -->
<g id="edge9" class="edge">
<title>Node8&#45;&gt;Node10</title>
<path fill="none" stroke="#63b8ff" d="M156.72,-54.98C147.16,-47.07 132.72,-35.11 121.22,-25.58"/>
<polygon fill="#63b8ff" stroke="#63b8ff" points="123.4,-22.85 113.47,-19.17 118.94,-28.24 123.4,-22.85"/>
</g>
<!-- Node11 -->
<g id="node11" class="node">
<title>Node11</title>
<g id="a_node11"><a xlink:title=" ">
<polygon fill="#e0e0e0" stroke="#999999" points="191.5,-19 142.5,-19 142.5,0 191.5,0 191.5,-19"/>
<text text-anchor="middle" x="167" y="-7" font-family="Helvetica,sans-Serif" font-size="10.00">cctype</text>
</a>
</g>
</g>
<!-- Node8&#45;&gt;Node11 -->
<g id="edge10" class="edge">
<title>Node8&#45;&gt;Node11</title>
<path fill="none" stroke="#63b8ff" d="M167,-54.75C167,-47.8 167,-37.85 167,-29.13"/>
<polygon fill="#63b8ff" stroke="#63b8ff" points="170.5,-29.09 167,-19.09 163.5,-29.09 170.5,-29.09"/>
</g>
<!-- Node12 -->
<g id="node12" class="node">
<title>Node12</title>
<g id="a_node12"><a xlink:title=" ">
<polygon fill="#e0e0e0" stroke="#999999" points="282.5,-19 209.5,-19 209.5,0 282.5,0 282.5,-19"/>
<text text-anchor="middle" x="246" y="-7" font-family="Helvetica,sans-Serif" font-size="10.00">string_view</text>
</a>
</g>
</g>
<!-- Node8&#45;&gt;Node12 -->
<g id="edge12" class="edge">
<title>Node8&#45;&gt;Node12</title>
<path fill="none" stroke="#63b8ff" d="M179.69,-54.98C191.83,-46.84 210.36,-34.41 224.75,-24.76"/>
<polygon fill="#63b8ff" stroke="#63b8ff" points="226.72,-27.65 233.08,-19.17 222.82,-21.84 226.72,-27.65"/>
</g>
<!-- Node13 -->
<g id="node13" class="node">
<title>Node13</title>
<g id="a_node13"><a xlink:title=" ">
<polygon fill="#e0e0e0" stroke="#999999" points="369.5,-19 300.5,-19 300.5,0 369.5,0 369.5,-19"/>
<text text-anchor="middle" x="335" y="-7" font-family="Helvetica,sans-Serif" font-size="10.00">type_traits</text>
</a>
</g>
</g>
<!-- Node8&#45;&gt;Node13 -->
<g id="edge13" class="edge">
<title>Node8&#45;&gt;Node13</title>
<path fill="none" stroke="#63b8ff" d="M193.99,-54.98C222.2,-46.09 266.64,-32.07 298.08,-22.15"/>
<polygon fill="#63b8ff" stroke="#63b8ff" points="299.31,-25.43 307.8,-19.08 297.21,-18.75 299.31,-25.43"/>
</g>
</g>
</svg>
