<?xml version="1.0" encoding="UTF-8" standalone="no"?>
<!DOCTYPE svg PUBLIC "-//W3C//DTD SVG 1.1//EN"
 "http://www.w3.org/Graphics/SVG/1.1/DTD/svg11.dtd">
<!-- Generated by graphviz version 2.43.0 (0)
 -->
<!-- Title: include/ccf/seq_no_collection.h Pages: 1 -->
<svg width="676pt" height="313pt"
 viewBox="0.00 0.00 676.00 313.00" xmlns="http://www.w3.org/2000/svg" xmlns:xlink="http://www.w3.org/1999/xlink">
<g id="graph0" class="graph" transform="scale(1 1) rotate(0) translate(4 309)">
<title>include/ccf/seq_no_collection.h</title>
<!-- Node1 -->
<g id="node1" class="node">
<title>Node1</title>
<g id="a_node1"><a xlink:title=" ">
<polygon fill="#999999" stroke="#666666" points="293,-305 186,-305 186,-275 293,-275 293,-305"/>
<text text-anchor="start" x="194" y="-293" font-family="Helvetica,sans-Serif" font-size="10.00">include/ccf/seq_no</text>
<text text-anchor="middle" x="239.5" y="-282" font-family="Helvetica,sans-Serif" font-size="10.00">_collection.h</text>
</a>
</g>
</g>
<!-- Node2 -->
<g id="node2" class="node">
<title>Node2</title>
<g id="a_node2"><a xlink:href="contiguous__set_8h.html" target="_top" xlink:title=" ">
<polygon fill="white" stroke="#666666" points="131,-129 0,-129 0,-110 131,-110 131,-129"/>
<text text-anchor="middle" x="65.5" y="-117" font-family="Helvetica,sans-Serif" font-size="10.00">ccf/ds/contiguous_set.h</text>
</a>
</g>
</g>
<!-- Node1&#45;&gt;Node2 -->
<g id="edge1" class="edge">
<title>Node1&#45;&gt;Node2</title>
<path fill="none" stroke="#63b8ff" d="M224.96,-274.92C192.75,-243.73 115.55,-168.97 81.78,-136.27"/>
<polygon fill="#63b8ff" stroke="#63b8ff" points="84.16,-133.7 74.54,-129.25 79.29,-138.73 84.16,-133.7"/>
</g>
<!-- Node6 -->
<g id="node6" class="node">
<title>Node6</title>
<g id="a_node6"><a xlink:href="tx__id_8h.html" target="_top" xlink:title=" ">
<polygon fill="white" stroke="#666666" points="448,-239 381,-239 381,-220 448,-220 448,-239"/>
<text text-anchor="middle" x="414.5" y="-227" font-family="Helvetica,sans-Serif" font-size="10.00">ccf/tx_id.h</text>
</a>
</g>
</g>
<!-- Node1&#45;&gt;Node6 -->
<g id="edge5" class="edge">
<title>Node1&#45;&gt;Node6</title>
<path fill="none" stroke="#63b8ff" d="M281.42,-274.99C311.23,-265.02 350.83,-251.78 379.06,-242.35"/>
<polygon fill="#63b8ff" stroke="#63b8ff" points="380.54,-245.54 388.91,-239.05 378.32,-238.9 380.54,-245.54"/>
</g>
<!-- Node3 -->
<g id="node3" class="node">
<title>Node3</title>
<g id="a_node3"><a xlink:title=" ">
<polygon fill="#e0e0e0" stroke="#999999" points="203,-74 124,-74 124,-55 203,-55 203,-74"/>
<text text-anchor="middle" x="163.5" y="-62" font-family="Helvetica,sans-Serif" font-size="10.00">fmt/format.h</text>
</a>
</g>
</g>
<!-- Node2&#45;&gt;Node3 -->
<g id="edge2" class="edge">
<title>Node2&#45;&gt;Node3</title>
<path fill="none" stroke="#63b8ff" d="M81.25,-109.98C96.73,-101.61 120.59,-88.7 138.64,-78.95"/>
<polygon fill="#63b8ff" stroke="#63b8ff" points="140.34,-82.01 147.47,-74.17 137.01,-75.85 140.34,-82.01"/>
</g>
<!-- Node4 -->
<g id="node4" class="node">
<title>Node4</title>
<g id="a_node4"><a xlink:title=" ">
<polygon fill="#e0e0e0" stroke="#999999" points="67.5,-74 11.5,-74 11.5,-55 67.5,-55 67.5,-74"/>
<text text-anchor="middle" x="39.5" y="-62" font-family="Helvetica,sans-Serif" font-size="10.00">numeric</text>
</a>
</g>
</g>
<!-- Node2&#45;&gt;Node4 -->
<g id="edge3" class="edge">
<title>Node2&#45;&gt;Node4</title>
<path fill="none" stroke="#63b8ff" d="M61.21,-109.75C57.69,-102.57 52.59,-92.18 48.22,-83.27"/>
<polygon fill="#63b8ff" stroke="#63b8ff" points="51.26,-81.53 43.71,-74.09 44.98,-84.61 51.26,-81.53"/>
</g>
<!-- Node5 -->
<g id="node5" class="node">
<title>Node5</title>
<g id="a_node5"><a xlink:title=" ">
<polygon fill="#e0e0e0" stroke="#999999" points="212,-19 165,-19 165,0 212,0 212,-19"/>
<text text-anchor="middle" x="188.5" y="-7" font-family="Helvetica,sans-Serif" font-size="10.00">vector</text>
</a>
</g>
</g>
<!-- Node2&#45;&gt;Node5 -->
<g id="edge4" class="edge">
<title>Node2&#45;&gt;Node5</title>
<path fill="none" stroke="#63b8ff" d="M70.67,-109.87C78.79,-96.84 95.57,-71.85 114.5,-55 128.46,-42.57 146.38,-31.69 161.08,-23.8"/>
<polygon fill="#63b8ff" stroke="#63b8ff" points="162.95,-26.78 170.21,-19.06 159.72,-20.56 162.95,-26.78"/>
</g>
<!-- Node6&#45;&gt;Node3 -->
<g id="edge25" class="edge">
<title>Node6&#45;&gt;Node3</title>
<path fill="none" stroke="#63b8ff" d="M380.72,-225.31C328.43,-219.72 231.23,-206.57 205.5,-184 176.2,-158.3 167.34,-110.79 164.66,-84.41"/>
<polygon fill="#63b8ff" stroke="#63b8ff" points="168.13,-83.91 163.83,-74.22 161.15,-84.47 168.13,-83.91"/>
</g>
<!-- Node7 -->
<g id="node7" class="node">
<title>Node7</title>
<g id="a_node7"><a xlink:href="json_8h.html" target="_top" xlink:title=" ">
<polygon fill="white" stroke="#666666" points="292,-184 215,-184 215,-165 292,-165 292,-184"/>
<text text-anchor="middle" x="253.5" y="-172" font-family="Helvetica,sans-Serif" font-size="10.00">ccf/ds/json.h</text>
</a>
</g>
</g>
<!-- Node6&#45;&gt;Node7 -->
<g id="edge6" class="edge">
<title>Node6&#45;&gt;Node7</title>
<path fill="none" stroke="#63b8ff" d="M388.63,-219.98C361.72,-211.13 319.38,-197.19 289.27,-187.28"/>
<polygon fill="#63b8ff" stroke="#63b8ff" points="290.16,-183.88 279.57,-184.08 287.97,-190.53 290.16,-183.88"/>
</g>
<!-- Node9 -->
<g id="node9" class="node">
<title>Node9</title>
<g id="a_node9"><a xlink:title=" ">
<polygon fill="#e0e0e0" stroke="#999999" points="571.5,-19 527.5,-19 527.5,0 571.5,0 571.5,-19"/>
<text text-anchor="middle" x="549.5" y="-7" font-family="Helvetica,sans-Serif" font-size="10.00">string</text>
</a>
</g>
</g>
<!-- Node6&#45;&gt;Node9 -->
<g id="edge28" class="edge">
<title>Node6&#45;&gt;Node9</title>
<path fill="none" stroke="#63b8ff" d="M448.05,-225C476.54,-220.3 516.65,-209.37 541.5,-184 583.15,-141.48 594,-112.19 577.5,-55 574.63,-45.06 568.82,-35.2 563.22,-27.29"/>
<polygon fill="#63b8ff" stroke="#63b8ff" points="566,-25.16 557.17,-19.3 560.42,-29.39 566,-25.16"/>
</g>
<!-- Node15 -->
<g id="node15" class="node">
<title>Node15</title>
<g id="a_node15"><a xlink:title=" ">
<polygon fill="#e0e0e0" stroke="#999999" points="668,-19 595,-19 595,0 668,0 668,-19"/>
<text text-anchor="middle" x="631.5" y="-7" font-family="Helvetica,sans-Serif" font-size="10.00">string_view</text>
</a>
</g>
</g>
<!-- Node6&#45;&gt;Node15 -->
<g id="edge29" class="edge">
<title>Node6&#45;&gt;Node15</title>
<path fill="none" stroke="#63b8ff" d="M448.24,-225.77C481.04,-221.57 530.73,-210.92 564.5,-184 613.49,-144.95 626.7,-65.45 630.23,-29.23"/>
<polygon fill="#63b8ff" stroke="#63b8ff" points="633.74,-29.35 631.07,-19.1 626.76,-28.77 633.74,-29.35"/>
</g>
<!-- Node17 -->
<g id="node17" class="node">
<title>Node17</title>
<g id="a_node17"><a xlink:title=" ">
<polygon fill="#e0e0e0" stroke="#999999" points="568.5,-74 458.5,-74 458.5,-55 568.5,-55 568.5,-74"/>
<text text-anchor="middle" x="513.5" y="-62" font-family="Helvetica,sans-Serif" font-size="10.00">nlohmann/json.hpp</text>
</a>
</g>
</g>
<!-- Node6&#45;&gt;Node17 -->
<g id="edge26" class="edge">
<title>Node6&#45;&gt;Node17</title>
<path fill="none" stroke="#63b8ff" d="M448.06,-224.54C473.22,-219.62 506.03,-208.6 522.5,-184 542.89,-153.55 530.65,-108.3 521.25,-83.46"/>
<polygon fill="#63b8ff" stroke="#63b8ff" points="524.48,-82.12 517.49,-74.16 517.99,-84.74 524.48,-82.12"/>
</g>
<!-- Node19 -->
<g id="node19" class="node">
<title>Node19</title>
<g id="a_node19"><a xlink:title=" ">
<polygon fill="#e0e0e0" stroke="#999999" points="371,-184 310,-184 310,-165 371,-165 371,-184"/>
<text text-anchor="middle" x="340.5" y="-172" font-family="Helvetica,sans-Serif" font-size="10.00">charconv</text>
</a>
</g>
</g>
<!-- Node6&#45;&gt;Node19 -->
<g id="edge23" class="edge">
<title>Node6&#45;&gt;Node19</title>
<path fill="none" stroke="#63b8ff" d="M402.61,-219.98C391.35,-211.92 374.21,-199.65 360.79,-190.03"/>
<polygon fill="#63b8ff" stroke="#63b8ff" points="362.77,-187.15 352.61,-184.17 358.7,-192.84 362.77,-187.15"/>
</g>
<!-- Node20 -->
<g id="node20" class="node">
<title>Node20</title>
<g id="a_node20"><a xlink:title=" ">
<polygon fill="#e0e0e0" stroke="#999999" points="439.5,-184 389.5,-184 389.5,-165 439.5,-165 439.5,-184"/>
<text text-anchor="middle" x="414.5" y="-172" font-family="Helvetica,sans-Serif" font-size="10.00">cstdint</text>
</a>
</g>
</g>
<!-- Node6&#45;&gt;Node20 -->
<g id="edge24" class="edge">
<title>Node6&#45;&gt;Node20</title>
<path fill="none" stroke="#63b8ff" d="M414.5,-219.75C414.5,-212.8 414.5,-202.85 414.5,-194.13"/>
<polygon fill="#63b8ff" stroke="#63b8ff" points="418,-194.09 414.5,-184.09 411,-194.09 418,-194.09"/>
</g>
<!-- Node21 -->
<g id="node21" class="node">
<title>Node21</title>
<g id="a_node21"><a xlink:title=" ">
<polygon fill="#e0e0e0" stroke="#999999" points="513.5,-184 457.5,-184 457.5,-165 513.5,-165 513.5,-184"/>
<text text-anchor="middle" x="485.5" y="-172" font-family="Helvetica,sans-Serif" font-size="10.00">optional</text>
</a>
</g>
</g>
<!-- Node6&#45;&gt;Node21 -->
<g id="edge27" class="edge">
<title>Node6&#45;&gt;Node21</title>
<path fill="none" stroke="#63b8ff" d="M425.91,-219.98C436.61,-212 452.84,-199.88 465.66,-190.31"/>
<polygon fill="#63b8ff" stroke="#63b8ff" points="467.97,-192.96 473.89,-184.17 463.78,-187.35 467.97,-192.96"/>
</g>
<!-- Node7&#45;&gt;Node3 -->
<g id="edge21" class="edge">
<title>Node7&#45;&gt;Node3</title>
<path fill="none" stroke="#63b8ff" d="M246.13,-164.66C231.1,-146.61 196.65,-105.28 177.31,-82.08"/>
<polygon fill="#63b8ff" stroke="#63b8ff" points="179.81,-79.6 170.72,-74.16 174.43,-84.08 179.81,-79.6"/>
</g>
<!-- Node8 -->
<g id="node8" class="node">
<title>Node8</title>
<g id="a_node8"><a xlink:href="include_2ccf_2crypto_2base64_8h.html" target="_top" xlink:title=" ">
<polygon fill="white" stroke="#666666" points="332.5,-74 220.5,-74 220.5,-55 332.5,-55 332.5,-74"/>
<text text-anchor="middle" x="276.5" y="-62" font-family="Helvetica,sans-Serif" font-size="10.00">ccf/crypto/base64.h</text>
</a>
</g>
</g>
<!-- Node7&#45;&gt;Node8 -->
<g id="edge7" class="edge">
<title>Node7&#45;&gt;Node8</title>
<path fill="none" stroke="#63b8ff" d="M263.94,-164.87C272.92,-156.7 285.24,-143.55 290.5,-129 295.89,-114.09 291.15,-96.42 285.78,-83.52"/>
<polygon fill="#63b8ff" stroke="#63b8ff" points="288.9,-81.93 281.51,-74.33 282.55,-84.87 288.9,-81.93"/>
</g>
<!-- Node10 -->
<g id="node10" class="node">
<title>Node10</title>
<g id="a_node10"><a xlink:href="include_2ccf_2ds_2json__schema_8h.html" target="_top" xlink:title=" ">
<polygon fill="white" stroke="#666666" points="459,-129 338,-129 338,-110 459,-110 459,-129"/>
<text text-anchor="middle" x="398.5" y="-117" font-family="Helvetica,sans-Serif" font-size="10.00">ccf/ds/json_schema.h</text>
</a>
</g>
</g>
<!-- Node7&#45;&gt;Node10 -->
<g id="edge10" class="edge">
<title>Node7&#45;&gt;Node10</title>
<path fill="none" stroke="#63b8ff" d="M276.8,-164.98C300.75,-156.23 338.28,-142.51 365.33,-132.62"/>
<polygon fill="#63b8ff" stroke="#63b8ff" points="366.59,-135.89 374.78,-129.17 364.19,-129.32 366.59,-135.89"/>
</g>
<!-- Node18 -->
<g id="node18" class="node">
<title>Node18</title>
<g id="a_node18"><a xlink:title=" ">
<polygon fill="#e0e0e0" stroke="#999999" points="281.5,-129 225.5,-129 225.5,-110 281.5,-110 281.5,-129"/>
<text text-anchor="middle" x="253.5" y="-117" font-family="Helvetica,sans-Serif" font-size="10.00">sstream</text>
</a>
</g>
</g>
<!-- Node7&#45;&gt;Node18 -->
<g id="edge22" class="edge">
<title>Node7&#45;&gt;Node18</title>
<path fill="none" stroke="#63b8ff" d="M253.5,-164.75C253.5,-157.8 253.5,-147.85 253.5,-139.13"/>
<polygon fill="#63b8ff" stroke="#63b8ff" points="257,-139.09 253.5,-129.09 250,-139.09 257,-139.09"/>
</g>
<!-- Node8&#45;&gt;Node5 -->
<g id="edge9" class="edge">
<title>Node8&#45;&gt;Node5</title>
<path fill="none" stroke="#63b8ff" d="M262.36,-54.98C248.71,-46.77 227.81,-34.18 211.72,-24.49"/>
<polygon fill="#63b8ff" stroke="#63b8ff" points="213.27,-21.33 202.9,-19.17 209.66,-27.33 213.27,-21.33"/>
</g>
<!-- Node8&#45;&gt;Node9 -->
<g id="edge8" class="edge">
<title>Node8&#45;&gt;Node9</title>
<path fill="none" stroke="#63b8ff" d="M329.39,-54.94C376.18,-47.09 446.49,-34.64 517.2,-18.91"/>
<polygon fill="#63b8ff" stroke="#63b8ff" points="518.19,-22.27 527.17,-16.67 516.65,-15.44 518.19,-22.27"/>
</g>
<!-- Node10&#45;&gt;Node3 -->
<g id="edge19" class="edge">
<title>Node10&#45;&gt;Node3</title>
<path fill="none" stroke="#63b8ff" d="M360.74,-109.98C320.18,-100.84 255.61,-86.27 211.47,-76.32"/>
<polygon fill="#63b8ff" stroke="#63b8ff" points="212.08,-72.87 201.55,-74.08 210.54,-79.7 212.08,-72.87"/>
</g>
<!-- Node11 -->
<g id="node11" class="node">
<title>Node11</title>
<g id="a_node11"><a xlink:href="nonstd_8h.html" target="_top" xlink:title=" ">
<polygon fill="white" stroke="#666666" points="440.5,-74 350.5,-74 350.5,-55 440.5,-55 440.5,-74"/>
<text text-anchor="middle" x="395.5" y="-62" font-family="Helvetica,sans-Serif" font-size="10.00">ccf/ds/nonstd.h</text>
</a>
</g>
</g>
<!-- Node10&#45;&gt;Node11 -->
<g id="edge11" class="edge">
<title>Node10&#45;&gt;Node11</title>
<path fill="none" stroke="#63b8ff" d="M398,-109.75C397.61,-102.8 397.05,-92.85 396.55,-84.13"/>
<polygon fill="#63b8ff" stroke="#63b8ff" points="400.05,-83.88 395.99,-74.09 393.06,-84.27 400.05,-83.88"/>
</g>
<!-- Node10&#45;&gt;Node17 -->
<g id="edge20" class="edge">
<title>Node10&#45;&gt;Node17</title>
<path fill="none" stroke="#63b8ff" d="M416.98,-109.98C435.48,-101.46 464.18,-88.23 485.48,-78.41"/>
<polygon fill="#63b8ff" stroke="#63b8ff" points="487.07,-81.53 494.69,-74.17 484.14,-75.18 487.07,-81.53"/>
</g>
<!-- Node11&#45;&gt;Node5 -->
<g id="edge18" class="edge">
<title>Node11&#45;&gt;Node5</title>
<path fill="none" stroke="#63b8ff" d="M362.14,-54.99C329.09,-46.55 276.78,-33.18 222.15,-19.16"/>
<polygon fill="#63b8ff" stroke="#63b8ff" points="222.85,-15.73 212.29,-16.63 221.11,-22.51 222.85,-15.73"/>
</g>
<!-- Node11&#45;&gt;Node9 -->
<g id="edge15" class="edge">
<title>Node11&#45;&gt;Node9</title>
<path fill="none" stroke="#63b8ff" d="M420.24,-54.98C446.71,-45.88 488.78,-31.4 517.69,-21.45"/>
<polygon fill="#63b8ff" stroke="#63b8ff" points="519,-24.7 527.32,-18.13 516.72,-18.08 519,-24.7"/>
</g>
<!-- Node12 -->
<g id="node12" class="node">
<title>Node12</title>
<g id="a_node12"><a xlink:title=" ">
<polygon fill="#e0e0e0" stroke="#999999" points="294.5,-19 230.5,-19 230.5,0 294.5,0 294.5,-19"/>
<text text-anchor="middle" x="262.5" y="-7" font-family="Helvetica,sans-Serif" font-size="10.00">algorithm</text>
</a>
</g>
</g>
<!-- Node11&#45;&gt;Node12 -->
<g id="edge12" class="edge">
<title>Node11&#45;&gt;Node12</title>
<path fill="none" stroke="#63b8ff" d="M374.13,-54.98C352.35,-46.3 318.34,-32.75 293.58,-22.88"/>
<polygon fill="#63b8ff" stroke="#63b8ff" points="294.84,-19.62 284.26,-19.17 292.25,-26.12 294.84,-19.62"/>
</g>
<!-- Node13 -->
<g id="node13" class="node">
<title>Node13</title>
<g id="a_node13"><a xlink:title=" ">
<polygon fill="#e0e0e0" stroke="#999999" points="354.5,-19 312.5,-19 312.5,0 354.5,0 354.5,-19"/>
<text text-anchor="middle" x="333.5" y="-7" font-family="Helvetica,sans-Serif" font-size="10.00">array</text>
</a>
</g>
</g>
<!-- Node11&#45;&gt;Node13 -->
<g id="edge13" class="edge">
<title>Node11&#45;&gt;Node13</title>
<path fill="none" stroke="#63b8ff" d="M385.54,-54.98C376.37,-47.15 362.56,-35.34 351.47,-25.86"/>
<polygon fill="#63b8ff" stroke="#63b8ff" points="353.52,-23.01 343.64,-19.17 348.97,-28.33 353.52,-23.01"/>
</g>
<!-- Node14 -->
<g id="node14" class="node">
<title>Node14</title>
<g id="a_node14"><a xlink:title=" ">
<polygon fill="#e0e0e0" stroke="#999999" points="422,-19 373,-19 373,0 422,0 422,-19"/>
<text text-anchor="middle" x="397.5" y="-7" font-family="Helvetica,sans-Serif" font-size="10.00">cctype</text>
</a>
</g>
</g>
<!-- Node11&#45;&gt;Node14 -->
<g id="edge14" class="edge">
<title>Node11&#45;&gt;Node14</title>
<path fill="none" stroke="#63b8ff" d="M395.83,-54.75C396.09,-47.8 396.47,-37.85 396.8,-29.13"/>
<polygon fill="#63b8ff" stroke="#63b8ff" points="400.3,-29.21 397.18,-19.09 393.3,-28.95 400.3,-29.21"/>
</g>
<!-- Node11&#45;&gt;Node15 -->
<g id="edge16" class="edge">
<title>Node11&#45;&gt;Node15</title>
<path fill="none" stroke="#63b8ff" d="M433.42,-54.98C474.64,-45.73 540.54,-30.93 584.89,-20.97"/>
<polygon fill="#63b8ff" stroke="#63b8ff" points="585.85,-24.34 594.84,-18.73 584.32,-17.51 585.85,-24.34"/>
</g>
<!-- Node16 -->
<g id="node16" class="node">
<title>Node16</title>
<g id="a_node16"><a xlink:title=" ">
<polygon fill="#e0e0e0" stroke="#999999" points="509,-19 440,-19 440,0 509,0 509,-19"/>
<text text-anchor="middle" x="474.5" y="-7" font-family="Helvetica,sans-Serif" font-size="10.00">type_traits</text>
</a>
</g>
</g>
<!-- Node11&#45;&gt;Node16 -->
<g id="edge17" class="edge">
<title>Node11&#45;&gt;Node16</title>
<path fill="none" stroke="#63b8ff" d="M408.19,-54.98C420.33,-46.84 438.86,-34.41 453.25,-24.76"/>
<polygon fill="#63b8ff" stroke="#63b8ff" points="455.22,-27.65 461.58,-19.17 451.32,-21.84 455.22,-27.65"/>
</g>
</g>
</svg>
