<?xml version="1.0" encoding="UTF-8" standalone="no"?>
<!DOCTYPE svg PUBLIC "-//W3C//DTD SVG 1.1//EN"
 "http://www.w3.org/Graphics/SVG/1.1/DTD/svg11.dtd">
<!-- Generated by graphviz version 2.43.0 (0)
 -->
<!-- Title: include/ccf/serdes.h Pages: 1 -->
<svg width="1322pt" height="467pt"
 viewBox="0.00 0.00 1321.50 467.00" xmlns="http://www.w3.org/2000/svg" xmlns:xlink="http://www.w3.org/1999/xlink">
<g id="graph0" class="graph" transform="scale(1 1) rotate(0) translate(4 463)">
<title>include/ccf/serdes.h</title>
<!-- Node1 -->
<g id="node1" class="node">
<title>Node1</title>
<g id="a_node1"><a xlink:title=" ">
<polygon fill="#999999" stroke="#666666" points="977,-459 864,-459 864,-440 977,-440 977,-459"/>
<text text-anchor="middle" x="920.5" y="-447" font-family="Helvetica,sans-Serif" font-size="10.00">include/ccf/serdes.h</text>
</a>
</g>
</g>
<!-- Node2 -->
<g id="node2" class="node">
<title>Node2</title>
<g id="a_node2"><a xlink:href="json__handler_8h.html" target="_top" xlink:title=" ">
<polygon fill="white" stroke="#666666" points="565,-398.5 422,-398.5 422,-379.5 565,-379.5 565,-398.5"/>
<text text-anchor="middle" x="493.5" y="-386.5" font-family="Helvetica,sans-Serif" font-size="10.00">include/ccf/json_handler.h</text>
</a>
</g>
</g>
<!-- Node1&#45;&gt;Node2 -->
<g id="edge1" class="edge">
<title>Node1&#45;&gt;Node2</title>
<path fill="none" stroke="#63b8ff" d="M853.64,-439.34C772.01,-428.16 635.06,-409.39 555.64,-398.51"/>
<polygon fill="#63b8ff" stroke="#63b8ff" points="853.42,-442.84 863.8,-440.73 854.37,-435.91 853.42,-442.84"/>
</g>
<!-- Node11 -->
<g id="node11" class="node">
<title>Node11</title>
<g id="a_node11"><a xlink:href="jwt__key__auto__refresh_8h.html" target="_top" xlink:title=" ">
<polygon fill="white" stroke="#666666" points="791,-272 666,-272 666,-242 791,-242 791,-272"/>
<text text-anchor="start" x="674" y="-260" font-family="Helvetica,sans-Serif" font-size="10.00">src/node/jwt_key_auto</text>
<text text-anchor="middle" x="728.5" y="-249" font-family="Helvetica,sans-Serif" font-size="10.00">_refresh.h</text>
</a>
</g>
</g>
<!-- Node1&#45;&gt;Node11 -->
<g id="edge26" class="edge">
<title>Node1&#45;&gt;Node11</title>
<path fill="none" stroke="#63b8ff" d="M866.47,-437.03C845.85,-430.34 823.47,-419.95 807.5,-404 775.02,-371.58 792.77,-347.55 769.5,-308 761.87,-295.04 751,-281.94 742.36,-272.41"/>
<polygon fill="#63b8ff" stroke="#63b8ff" points="865.53,-440.4 876.11,-439.94 867.55,-433.7 865.53,-440.4"/>
</g>
<!-- Node12 -->
<g id="node12" class="node">
<title>Node12</title>
<g id="a_node12"><a xlink:href="node__state_8h.html" target="_top" xlink:title=" ">
<polygon fill="white" stroke="#666666" points="922.5,-200.5 798.5,-200.5 798.5,-181.5 922.5,-181.5 922.5,-200.5"/>
<text text-anchor="middle" x="860.5" y="-188.5" font-family="Helvetica,sans-Serif" font-size="10.00">src/node/node_state.h</text>
</a>
</g>
</g>
<!-- Node1&#45;&gt;Node12 -->
<g id="edge27" class="edge">
<title>Node1&#45;&gt;Node12</title>
<path fill="none" stroke="#63b8ff" d="M932.67,-431.52C937.66,-423.57 942.88,-413.72 945.5,-404 964.25,-334.48 983.56,-304.32 947.5,-242 935.37,-221.04 910.77,-208.1 890.81,-200.65"/>
<polygon fill="#63b8ff" stroke="#63b8ff" points="929.74,-429.62 927.08,-439.87 935.55,-433.51 929.74,-429.62"/>
</g>
<!-- Node14 -->
<g id="node14" class="node">
<title>Node14</title>
<g id="a_node14"><a xlink:href="rpc__tls__client_8h.html" target="_top" xlink:title=" ">
<polygon fill="white" stroke="#666666" points="1141,-404 1040,-404 1040,-374 1141,-374 1141,-404"/>
<text text-anchor="start" x="1048" y="-392" font-family="Helvetica,sans-Serif" font-size="10.00">src/clients/rpc_tls</text>
<text text-anchor="middle" x="1090.5" y="-381" font-family="Helvetica,sans-Serif" font-size="10.00">_client.h</text>
</a>
</g>
</g>
<!-- Node1&#45;&gt;Node14 -->
<g id="edge16" class="edge">
<title>Node1&#45;&gt;Node14</title>
<path fill="none" stroke="#63b8ff" d="M954.77,-436.71C982.16,-427.28 1020.64,-414.04 1049.63,-404.06"/>
<polygon fill="#63b8ff" stroke="#63b8ff" points="953.54,-433.43 945.22,-439.99 955.81,-440.05 953.54,-433.43"/>
</g>
<!-- Node19 -->
<g id="node19" class="node">
<title>Node19</title>
<g id="a_node19"><a xlink:href="orc__requests_8h.html" target="_top" xlink:title=" ">
<polygon fill="white" stroke="#666666" points="936,-404 817,-404 817,-374 936,-374 936,-404"/>
<text text-anchor="start" x="825" y="-392" font-family="Helvetica,sans-Serif" font-size="10.00">src/consensus/aft/orc</text>
<text text-anchor="middle" x="876.5" y="-381" font-family="Helvetica,sans-Serif" font-size="10.00">_requests.h</text>
</a>
</g>
</g>
<!-- Node1&#45;&gt;Node19 -->
<g id="edge22" class="edge">
<title>Node1&#45;&gt;Node19</title>
<path fill="none" stroke="#63b8ff" d="M907.79,-431.61C901.24,-422.89 893.34,-412.39 887.12,-404.11"/>
<polygon fill="#63b8ff" stroke="#63b8ff" points="905.2,-433.98 914.01,-439.87 910.79,-429.77 905.2,-433.98"/>
</g>
<!-- Node21 -->
<g id="node21" class="node">
<title>Node21</title>
<g id="a_node21"><a xlink:href="resharing_8h.html" target="_top" xlink:title=" ">
<polygon fill="white" stroke="#666666" points="1110.5,-266.5 994.5,-266.5 994.5,-247.5 1110.5,-247.5 1110.5,-266.5"/>
<text text-anchor="middle" x="1052.5" y="-254.5" font-family="Helvetica,sans-Serif" font-size="10.00">src/node/resharing.h</text>
</a>
</g>
</g>
<!-- Node1&#45;&gt;Node21 -->
<g id="edge28" class="edge">
<title>Node1&#45;&gt;Node21</title>
<path fill="none" stroke="#63b8ff" d="M944.53,-434.5C956.46,-426.67 970.44,-416.06 980.5,-404 1018.16,-358.87 1042.15,-290.69 1049.83,-266.71"/>
<polygon fill="#63b8ff" stroke="#63b8ff" points="942.51,-431.64 935.91,-439.93 946.24,-437.57 942.51,-431.64"/>
</g>
<!-- Node3 -->
<g id="node3" class="node">
<title>Node3</title>
<g id="a_node3"><a xlink:href="logging_8cpp.html" target="_top" xlink:title=" ">
<polygon fill="white" stroke="#666666" points="123,-338 0,-338 0,-308 123,-308 123,-338"/>
<text text-anchor="start" x="8" y="-326" font-family="Helvetica,sans-Serif" font-size="10.00">samples/apps/logging</text>
<text text-anchor="middle" x="61.5" y="-315" font-family="Helvetica,sans-Serif" font-size="10.00">/logging.cpp</text>
</a>
</g>
</g>
<!-- Node2&#45;&gt;Node3 -->
<g id="edge2" class="edge">
<title>Node2&#45;&gt;Node3</title>
<path fill="none" stroke="#63b8ff" d="M412.44,-378.22C338.93,-369.02 227.69,-354.25 131.5,-338 128.81,-337.55 126.07,-337.07 123.3,-336.57"/>
<polygon fill="#63b8ff" stroke="#63b8ff" points="412.2,-381.72 422.56,-379.48 413.07,-374.77 412.2,-381.72"/>
</g>
<!-- Node4 -->
<g id="node4" class="node">
<title>Node4</title>
<g id="a_node4"><a xlink:href="nobuiltins_8cpp.html" target="_top" xlink:title=" ">
<polygon fill="white" stroke="#666666" points="276,-338 141,-338 141,-308 276,-308 276,-338"/>
<text text-anchor="start" x="149" y="-326" font-family="Helvetica,sans-Serif" font-size="10.00">samples/apps/nobuiltins</text>
<text text-anchor="middle" x="208.5" y="-315" font-family="Helvetica,sans-Serif" font-size="10.00">/nobuiltins.cpp</text>
</a>
</g>
</g>
<!-- Node2&#45;&gt;Node4 -->
<g id="edge3" class="edge">
<title>Node2&#45;&gt;Node4</title>
<path fill="none" stroke="#63b8ff" d="M445.53,-377.23C397.55,-366.45 323.5,-349.83 270.95,-338.02"/>
<polygon fill="#63b8ff" stroke="#63b8ff" points="444.84,-380.66 455.36,-379.44 446.37,-373.83 444.84,-380.66"/>
</g>
<!-- Node5 -->
<g id="node5" class="node">
<title>Node5</title>
<g id="a_node5"><a xlink:href="common__endpoint__registry_8cpp.html" target="_top" xlink:title=" ">
<polygon fill="white" stroke="#666666" points="422.5,-338 294.5,-338 294.5,-308 422.5,-308 422.5,-338"/>
<text text-anchor="start" x="302.5" y="-326" font-family="Helvetica,sans-Serif" font-size="10.00">src/endpoints/common</text>
<text text-anchor="middle" x="358.5" y="-315" font-family="Helvetica,sans-Serif" font-size="10.00">_endpoint_registry.cpp</text>
</a>
</g>
</g>
<!-- Node2&#45;&gt;Node5 -->
<g id="edge4" class="edge">
<title>Node2&#45;&gt;Node5</title>
<path fill="none" stroke="#63b8ff" d="M466.24,-375.08C443.63,-364.36 411.55,-349.15 388.28,-338.12"/>
<polygon fill="#63b8ff" stroke="#63b8ff" points="464.76,-378.25 475.29,-379.37 467.76,-371.92 464.76,-378.25"/>
</g>
<!-- Node6 -->
<g id="node6" class="node">
<title>Node6</title>
<g id="a_node6"><a xlink:href="json__handler_8cpp.html" target="_top" xlink:title=" ">
<polygon fill="white" stroke="#666666" points="546,-338 441,-338 441,-308 546,-308 546,-338"/>
<text text-anchor="start" x="449" y="-326" font-family="Helvetica,sans-Serif" font-size="10.00">src/endpoints/json</text>
<text text-anchor="middle" x="493.5" y="-315" font-family="Helvetica,sans-Serif" font-size="10.00">_handler.cpp</text>
</a>
</g>
</g>
<!-- Node2&#45;&gt;Node6 -->
<g id="edge5" class="edge">
<title>Node2&#45;&gt;Node6</title>
<path fill="none" stroke="#63b8ff" d="M493.5,-369.35C493.5,-359.47 493.5,-347.51 493.5,-338.36"/>
<polygon fill="#63b8ff" stroke="#63b8ff" points="490,-369.37 493.5,-379.37 497,-369.37 490,-369.37"/>
</g>
<!-- Node7 -->
<g id="node7" class="node">
<title>Node7</title>
<g id="a_node7"><a xlink:href="member__frontend_8h.html" target="_top" xlink:title=" ">
<polygon fill="white" stroke="#666666" points="609.5,-140 489.5,-140 489.5,-110 609.5,-110 609.5,-140"/>
<text text-anchor="start" x="497.5" y="-128" font-family="Helvetica,sans-Serif" font-size="10.00">src/node/rpc/member</text>
<text text-anchor="middle" x="549.5" y="-117" font-family="Helvetica,sans-Serif" font-size="10.00">_frontend.h</text>
</a>
</g>
</g>
<!-- Node2&#45;&gt;Node7 -->
<g id="edge6" class="edge">
<title>Node2&#45;&gt;Node7</title>
<path fill="none" stroke="#63b8ff" d="M519.54,-374.13C532.62,-365.62 547.22,-353.39 554.5,-338 586.71,-269.95 564.27,-175.34 553.94,-140.03"/>
<polygon fill="#63b8ff" stroke="#63b8ff" points="517.55,-371.24 510.83,-379.43 521.19,-377.23 517.55,-371.24"/>
</g>
<!-- Node10 -->
<g id="node10" class="node">
<title>Node10</title>
<g id="a_node10"><a xlink:href="node__frontend_8h.html" target="_top" xlink:title=" ">
<polygon fill="white" stroke="#666666" points="760.5,-332.5 602.5,-332.5 602.5,-313.5 760.5,-313.5 760.5,-332.5"/>
<text text-anchor="middle" x="681.5" y="-320.5" font-family="Helvetica,sans-Serif" font-size="10.00">src/node/rpc/node_frontend.h</text>
</a>
</g>
</g>
<!-- Node2&#45;&gt;Node10 -->
<g id="edge9" class="edge">
<title>Node2&#45;&gt;Node10</title>
<path fill="none" stroke="#63b8ff" d="M528.75,-376C565.87,-363.36 623.41,-343.78 656.25,-332.6"/>
<polygon fill="#63b8ff" stroke="#63b8ff" points="527.19,-372.83 518.85,-379.37 529.45,-379.46 527.19,-372.83"/>
</g>
<!-- Node8 -->
<g id="node8" class="node">
<title>Node8</title>
<g id="a_node8"><a xlink:href="enclave_2enclave_8h.html" target="_top" xlink:title=" ">
<polygon fill="white" stroke="#666666" points="741.5,-74 619.5,-74 619.5,-55 741.5,-55 741.5,-74"/>
<text text-anchor="middle" x="680.5" y="-62" font-family="Helvetica,sans-Serif" font-size="10.00">src/enclave/enclave.h</text>
</a>
</g>
</g>
<!-- Node7&#45;&gt;Node8 -->
<g id="edge7" class="edge">
<title>Node7&#45;&gt;Node8</title>
<path fill="none" stroke="#63b8ff" d="M590.32,-105.77C613.94,-95.22 642.58,-82.43 661.15,-74.14"/>
<polygon fill="#63b8ff" stroke="#63b8ff" points="588.58,-102.71 580.88,-109.99 591.44,-109.11 588.58,-102.71"/>
</g>
<!-- Node9 -->
<g id="node9" class="node">
<title>Node9</title>
<g id="a_node9"><a xlink:href="enclave_2main_8cpp.html" target="_top" xlink:title=" ">
<polygon fill="white" stroke="#666666" points="740.5,-19 620.5,-19 620.5,0 740.5,0 740.5,-19"/>
<text text-anchor="middle" x="680.5" y="-7" font-family="Helvetica,sans-Serif" font-size="10.00">src/enclave/main.cpp</text>
</a>
</g>
</g>
<!-- Node8&#45;&gt;Node9 -->
<g id="edge8" class="edge">
<title>Node8&#45;&gt;Node9</title>
<path fill="none" stroke="#63b8ff" d="M680.5,-44.66C680.5,-35.93 680.5,-25.99 680.5,-19.09"/>
<polygon fill="#63b8ff" stroke="#63b8ff" points="677,-44.75 680.5,-54.75 684,-44.75 677,-44.75"/>
</g>
<!-- Node10&#45;&gt;Node8 -->
<g id="edge10" class="edge">
<title>Node10&#45;&gt;Node8</title>
<path fill="none" stroke="#63b8ff" d="M670.32,-304.65C665,-295.36 659.21,-283.5 656.5,-272 638.75,-196.83 667.45,-103.03 677.34,-74.28"/>
<polygon fill="#63b8ff" stroke="#63b8ff" points="667.37,-306.54 675.55,-313.27 673.36,-302.91 667.37,-306.54"/>
</g>
<!-- Node10&#45;&gt;Node11 -->
<g id="edge11" class="edge">
<title>Node10&#45;&gt;Node11</title>
<path fill="none" stroke="#63b8ff" d="M693.81,-305.24C701.31,-295.02 710.8,-282.1 717.95,-272.36"/>
<polygon fill="#63b8ff" stroke="#63b8ff" points="690.94,-303.24 687.84,-313.37 696.58,-307.38 690.94,-303.24"/>
</g>
<!-- Node11&#45;&gt;Node12 -->
<g id="edge12" class="edge">
<title>Node11&#45;&gt;Node12</title>
<path fill="none" stroke="#63b8ff" d="M766.74,-237.46C791.88,-225.27 823.58,-209.9 842.93,-200.52"/>
<polygon fill="#63b8ff" stroke="#63b8ff" points="764.94,-234.44 757.47,-241.95 767.99,-240.74 764.94,-234.44"/>
</g>
<!-- Node12&#45;&gt;Node8 -->
<g id="edge13" class="edge">
<title>Node12&#45;&gt;Node8</title>
<path fill="none" stroke="#63b8ff" d="M832.63,-176.98C813.66,-167.66 788.33,-154.27 767.5,-140 736.66,-118.87 704.2,-88.6 689.13,-74"/>
<polygon fill="#63b8ff" stroke="#63b8ff" points="831.12,-180.14 841.64,-181.35 834.17,-173.84 831.12,-180.14"/>
</g>
<!-- Node13 -->
<g id="node13" class="node">
<title>Node13</title>
<g id="a_node13"><a xlink:href="gov__effects_8h.html" target="_top" xlink:title=" ">
<polygon fill="white" stroke="#666666" points="920.5,-134.5 776.5,-134.5 776.5,-115.5 920.5,-115.5 920.5,-134.5"/>
<text text-anchor="middle" x="848.5" y="-122.5" font-family="Helvetica,sans-Serif" font-size="10.00">src/node/rpc/gov_effects.h</text>
</a>
</g>
</g>
<!-- Node12&#45;&gt;Node13 -->
<g id="edge14" class="edge">
<title>Node12&#45;&gt;Node13</title>
<path fill="none" stroke="#63b8ff" d="M857.02,-171.45C854.77,-159.43 851.93,-144.32 850.17,-134.91"/>
<polygon fill="#63b8ff" stroke="#63b8ff" points="853.6,-172.18 858.88,-181.37 860.48,-170.89 853.6,-172.18"/>
</g>
<!-- Node13&#45;&gt;Node8 -->
<g id="edge15" class="edge">
<title>Node13&#45;&gt;Node8</title>
<path fill="none" stroke="#63b8ff" d="M814.53,-112.17C782.04,-100.86 733.84,-84.07 704.96,-74.02"/>
<polygon fill="#63b8ff" stroke="#63b8ff" points="813.48,-115.51 824.07,-115.49 815.78,-108.9 813.48,-115.51"/>
</g>
<!-- Node15 -->
<g id="node15" class="node">
<title>Node15</title>
<g id="a_node15"><a xlink:href="perf__client_8h.html" target="_top" xlink:title=" ">
<polygon fill="white" stroke="#666666" points="1240,-272 1129,-272 1129,-242 1240,-242 1240,-272"/>
<text text-anchor="start" x="1137" y="-260" font-family="Helvetica,sans-Serif" font-size="10.00">src/clients/perf/perf</text>
<text text-anchor="middle" x="1184.5" y="-249" font-family="Helvetica,sans-Serif" font-size="10.00">_client.h</text>
</a>
</g>
</g>
<!-- Node14&#45;&gt;Node15 -->
<g id="edge17" class="edge">
<title>Node14&#45;&gt;Node15</title>
<path fill="none" stroke="#63b8ff" d="M1091.66,-363.51C1093.51,-346.62 1098.13,-324.34 1109.5,-308 1120.32,-292.46 1137.66,-280.44 1152.95,-272.08"/>
<polygon fill="#63b8ff" stroke="#63b8ff" points="1088.15,-363.47 1090.8,-373.72 1095.12,-364.05 1088.15,-363.47"/>
</g>
<!-- Node18 -->
<g id="node18" class="node">
<title>Node18</title>
<g id="a_node18"><a xlink:href="timing_8h.html" target="_top" xlink:title=" ">
<polygon fill="white" stroke="#666666" points="1250.5,-332.5 1118.5,-332.5 1118.5,-313.5 1250.5,-313.5 1250.5,-332.5"/>
<text text-anchor="middle" x="1184.5" y="-320.5" font-family="Helvetica,sans-Serif" font-size="10.00">src/clients/perf/timing.h</text>
</a>
</g>
</g>
<!-- Node14&#45;&gt;Node18 -->
<g id="edge20" class="edge">
<title>Node14&#45;&gt;Node18</title>
<path fill="none" stroke="#63b8ff" d="M1120.06,-367.87C1137.46,-356.03 1158.58,-341.65 1171.78,-332.66"/>
<polygon fill="#63b8ff" stroke="#63b8ff" points="1117.66,-365.28 1111.36,-373.8 1121.6,-371.06 1117.66,-365.28"/>
</g>
<!-- Node16 -->
<g id="node16" class="node">
<title>Node16</title>
<g id="a_node16"><a xlink:href="tpcc__client_8cpp.html" target="_top" xlink:title=" ">
<polygon fill="white" stroke="#666666" points="1313.5,-206 1197.5,-206 1197.5,-176 1313.5,-176 1313.5,-206"/>
<text text-anchor="start" x="1205.5" y="-194" font-family="Helvetica,sans-Serif" font-size="10.00">src/apps/tpcc/clients</text>
<text text-anchor="middle" x="1255.5" y="-183" font-family="Helvetica,sans-Serif" font-size="10.00">/tpcc_client.cpp</text>
</a>
</g>
</g>
<!-- Node15&#45;&gt;Node16 -->
<g id="edge18" class="edge">
<title>Node15&#45;&gt;Node16</title>
<path fill="none" stroke="#63b8ff" d="M1207.88,-234.92C1218.35,-225.49 1230.42,-214.61 1239.79,-206.16"/>
<polygon fill="#63b8ff" stroke="#63b8ff" points="1205.34,-232.5 1200.26,-241.8 1210.03,-237.7 1205.34,-232.5"/>
</g>
<!-- Node17 -->
<g id="node17" class="node">
<title>Node17</title>
<g id="a_node17"><a xlink:href="scenario__perf__client_8cpp.html" target="_top" xlink:title=" ">
<polygon fill="white" stroke="#666666" points="1179,-206 1046,-206 1046,-176 1179,-176 1179,-206"/>
<text text-anchor="start" x="1054" y="-194" font-family="Helvetica,sans-Serif" font-size="10.00">src/clients/perf/scenario</text>
<text text-anchor="middle" x="1112.5" y="-183" font-family="Helvetica,sans-Serif" font-size="10.00">_perf_client.cpp</text>
</a>
</g>
</g>
<!-- Node15&#45;&gt;Node17 -->
<g id="edge19" class="edge">
<title>Node15&#45;&gt;Node17</title>
<path fill="none" stroke="#63b8ff" d="M1160.79,-234.92C1150.17,-225.49 1137.93,-214.61 1128.43,-206.16"/>
<polygon fill="#63b8ff" stroke="#63b8ff" points="1158.72,-237.77 1168.52,-241.8 1163.37,-232.54 1158.72,-237.77"/>
</g>
<!-- Node18&#45;&gt;Node15 -->
<g id="edge21" class="edge">
<title>Node18&#45;&gt;Node15</title>
<path fill="none" stroke="#63b8ff" d="M1184.5,-303.35C1184.5,-293.47 1184.5,-281.51 1184.5,-272.36"/>
<polygon fill="#63b8ff" stroke="#63b8ff" points="1181,-303.37 1184.5,-313.37 1188,-303.37 1181,-303.37"/>
</g>
<!-- Node19&#45;&gt;Node10 -->
<g id="edge25" class="edge">
<title>Node19&#45;&gt;Node10</title>
<path fill="none" stroke="#63b8ff" d="M823.9,-370.74C786.2,-358.36 737.04,-342.23 707.45,-332.52"/>
<polygon fill="#63b8ff" stroke="#63b8ff" points="823.11,-374.16 833.71,-373.95 825.3,-367.51 823.11,-374.16"/>
</g>
<!-- Node20 -->
<g id="node20" class="node">
<title>Node20</title>
<g id="a_node20"><a xlink:href="raft_8h.html" target="_top" xlink:title=" ">
<polygon fill="white" stroke="#666666" points="938,-266.5 809,-266.5 809,-247.5 938,-247.5 938,-266.5"/>
<text text-anchor="middle" x="873.5" y="-254.5" font-family="Helvetica,sans-Serif" font-size="10.00">src/consensus/aft/raft.h</text>
</a>
</g>
</g>
<!-- Node19&#45;&gt;Node20 -->
<g id="edge23" class="edge">
<title>Node19&#45;&gt;Node20</title>
<path fill="none" stroke="#63b8ff" d="M875.94,-363.57C875.26,-334.17 874.15,-286.31 873.7,-266.75"/>
<polygon fill="#63b8ff" stroke="#63b8ff" points="872.44,-363.92 876.17,-373.84 879.44,-363.76 872.44,-363.92"/>
</g>
<!-- Node20&#45;&gt;Node12 -->
<g id="edge24" class="edge">
<title>Node20&#45;&gt;Node12</title>
<path fill="none" stroke="#63b8ff" d="M869.73,-237.45C867.29,-225.43 864.22,-210.32 862.31,-200.91"/>
<polygon fill="#63b8ff" stroke="#63b8ff" points="866.33,-238.27 871.75,-247.37 873.19,-236.87 866.33,-238.27"/>
</g>
<!-- Node21&#45;&gt;Node12 -->
<g id="edge29" class="edge">
<title>Node21&#45;&gt;Node12</title>
<path fill="none" stroke="#63b8ff" d="M1016.99,-244.16C979.09,-231.53 919.97,-211.82 886.29,-200.6"/>
<polygon fill="#63b8ff" stroke="#63b8ff" points="1016.01,-247.53 1026.61,-247.37 1018.23,-240.89 1016.01,-247.53"/>
</g>
</g>
</svg>
