<?xml version="1.0" encoding="UTF-8" standalone="no"?>
<!DOCTYPE svg PUBLIC "-//W3C//DTD SVG 1.1//EN"
 "http://www.w3.org/Graphics/SVG/1.1/DTD/svg11.dtd">
<!-- Generated by graphviz version 2.43.0 (0)
 -->
<!-- Title: src/ds/serializer.h Pages: 1 -->
<svg width="726pt" height="137pt"
 viewBox="0.00 0.00 726.00 137.00" xmlns="http://www.w3.org/2000/svg" xmlns:xlink="http://www.w3.org/1999/xlink">
<g id="graph0" class="graph" transform="scale(1 1) rotate(0) translate(4 133)">
<title>src/ds/serializer.h</title>
<!-- Node1 -->
<g id="node1" class="node">
<title>Node1</title>
<g id="a_node1"><a xlink:title=" ">
<polygon fill="#999999" stroke="#666666" points="524,-129 423,-129 423,-110 524,-110 524,-129"/>
<text text-anchor="middle" x="473.5" y="-117" font-family="Helvetica,sans-Serif" font-size="10.00">src/ds/serializer.h</text>
</a>
</g>
</g>
<!-- Node2 -->
<g id="node2" class="node">
<title>Node2</title>
<g id="a_node2"><a xlink:href="nonstd_8h.html" target="_top" xlink:title=" ">
<polygon fill="white" stroke="#666666" points="325.5,-74 235.5,-74 235.5,-55 325.5,-55 325.5,-74"/>
<text text-anchor="middle" x="280.5" y="-62" font-family="Helvetica,sans-Serif" font-size="10.00">ccf/ds/nonstd.h</text>
</a>
</g>
</g>
<!-- Node1&#45;&gt;Node2 -->
<g id="edge1" class="edge">
<title>Node1&#45;&gt;Node2</title>
<path fill="none" stroke="#63b8ff" d="M442.49,-109.98C409.67,-100.97 357.7,-86.7 321.51,-76.76"/>
<polygon fill="#63b8ff" stroke="#63b8ff" points="322.32,-73.36 311.75,-74.08 320.47,-80.11 322.32,-73.36"/>
</g>
<!-- Node8 -->
<g id="node8" class="node">
<title>Node8</title>
<g id="a_node8"><a xlink:title=" ">
<polygon fill="#e0e0e0" stroke="#999999" points="370,-19 301,-19 301,0 370,0 370,-19"/>
<text text-anchor="middle" x="335.5" y="-7" font-family="Helvetica,sans-Serif" font-size="10.00">type_traits</text>
</a>
</g>
</g>
<!-- Node1&#45;&gt;Node8 -->
<g id="edge17" class="edge">
<title>Node1&#45;&gt;Node8</title>
<path fill="none" stroke="#63b8ff" d="M462.21,-109.66C438.64,-91.22 383.99,-48.45 354.76,-25.57"/>
<polygon fill="#63b8ff" stroke="#63b8ff" points="356.6,-22.57 346.56,-19.16 352.28,-28.08 356.6,-22.57"/>
</g>
<!-- Node9 -->
<g id="node9" class="node">
<title>Node9</title>
<g id="a_node9"><a xlink:title=" ">
<polygon fill="#e0e0e0" stroke="#999999" points="498,-19 451,-19 451,0 498,0 498,-19"/>
<text text-anchor="middle" x="474.5" y="-7" font-family="Helvetica,sans-Serif" font-size="10.00">vector</text>
</a>
</g>
</g>
<!-- Node1&#45;&gt;Node9 -->
<g id="edge18" class="edge">
<title>Node1&#45;&gt;Node9</title>
<path fill="none" stroke="#63b8ff" d="M470.05,-109.91C465.58,-97.75 458.67,-74.77 461.5,-55 462.75,-46.24 465.33,-36.79 467.86,-28.86"/>
<polygon fill="#63b8ff" stroke="#63b8ff" points="471.24,-29.8 471.16,-19.2 464.62,-27.54 471.24,-29.8"/>
</g>
<!-- Node10 -->
<g id="node10" class="node">
<title>Node10</title>
<g id="a_node10"><a xlink:href="serialized_8h.html" target="_top" xlink:title=" ">
<polygon fill="white" stroke="#666666" points="543,-74 470,-74 470,-55 543,-55 543,-74"/>
<text text-anchor="middle" x="506.5" y="-62" font-family="Helvetica,sans-Serif" font-size="10.00">serialized.h</text>
</a>
</g>
</g>
<!-- Node1&#45;&gt;Node10 -->
<g id="edge9" class="edge">
<title>Node1&#45;&gt;Node10</title>
<path fill="none" stroke="#63b8ff" d="M478.95,-109.75C483.51,-102.42 490.17,-91.73 495.79,-82.7"/>
<polygon fill="#63b8ff" stroke="#63b8ff" points="498.84,-84.43 501.15,-74.09 492.9,-80.73 498.84,-84.43"/>
</g>
<!-- Node14 -->
<g id="node14" class="node">
<title>Node14</title>
<g id="a_node14"><a xlink:title=" ">
<polygon fill="#e0e0e0" stroke="#999999" points="619.5,-74 561.5,-74 561.5,-55 619.5,-55 619.5,-74"/>
<text text-anchor="middle" x="590.5" y="-62" font-family="Helvetica,sans-Serif" font-size="10.00">memory</text>
</a>
</g>
</g>
<!-- Node1&#45;&gt;Node14 -->
<g id="edge15" class="edge">
<title>Node1&#45;&gt;Node14</title>
<path fill="none" stroke="#63b8ff" d="M492.3,-109.98C511.12,-101.46 540.32,-88.23 562,-78.41"/>
<polygon fill="#63b8ff" stroke="#63b8ff" points="563.7,-81.48 571.36,-74.17 560.81,-75.11 563.7,-81.48"/>
</g>
<!-- Node15 -->
<g id="node15" class="node">
<title>Node15</title>
<g id="a_node15"><a xlink:title=" ">
<polygon fill="#e0e0e0" stroke="#999999" points="679,-74 638,-74 638,-55 679,-55 679,-74"/>
<text text-anchor="middle" x="658.5" y="-62" font-family="Helvetica,sans-Serif" font-size="10.00">tuple</text>
</a>
</g>
</g>
<!-- Node1&#45;&gt;Node15 -->
<g id="edge16" class="edge">
<title>Node1&#45;&gt;Node15</title>
<path fill="none" stroke="#63b8ff" d="M503.22,-109.98C537.38,-100.2 593.16,-84.22 627.74,-74.31"/>
<polygon fill="#63b8ff" stroke="#63b8ff" points="629.1,-77.56 637.75,-71.45 627.17,-70.83 629.1,-77.56"/>
</g>
<!-- Node3 -->
<g id="node3" class="node">
<title>Node3</title>
<g id="a_node3"><a xlink:title=" ">
<polygon fill="#e0e0e0" stroke="#999999" points="222.5,-19 158.5,-19 158.5,0 222.5,0 222.5,-19"/>
<text text-anchor="middle" x="190.5" y="-7" font-family="Helvetica,sans-Serif" font-size="10.00">algorithm</text>
</a>
</g>
</g>
<!-- Node2&#45;&gt;Node3 -->
<g id="edge2" class="edge">
<title>Node2&#45;&gt;Node3</title>
<path fill="none" stroke="#63b8ff" d="M266.04,-54.98C252.08,-46.77 230.71,-34.18 214.25,-24.49"/>
<polygon fill="#63b8ff" stroke="#63b8ff" points="215.62,-21.23 205.22,-19.17 212.06,-27.26 215.62,-21.23"/>
</g>
<!-- Node4 -->
<g id="node4" class="node">
<title>Node4</title>
<g id="a_node4"><a xlink:title=" ">
<polygon fill="#e0e0e0" stroke="#999999" points="282.5,-19 240.5,-19 240.5,0 282.5,0 282.5,-19"/>
<text text-anchor="middle" x="261.5" y="-7" font-family="Helvetica,sans-Serif" font-size="10.00">array</text>
</a>
</g>
</g>
<!-- Node2&#45;&gt;Node4 -->
<g id="edge3" class="edge">
<title>Node2&#45;&gt;Node4</title>
<path fill="none" stroke="#63b8ff" d="M277.36,-54.75C274.82,-47.65 271.14,-37.4 267.97,-28.56"/>
<polygon fill="#63b8ff" stroke="#63b8ff" points="271.25,-27.32 264.58,-19.09 264.66,-29.68 271.25,-27.32"/>
</g>
<!-- Node5 -->
<g id="node5" class="node">
<title>Node5</title>
<g id="a_node5"><a xlink:title=" ">
<polygon fill="#e0e0e0" stroke="#999999" points="49,-19 0,-19 0,0 49,0 49,-19"/>
<text text-anchor="middle" x="24.5" y="-7" font-family="Helvetica,sans-Serif" font-size="10.00">cctype</text>
</a>
</g>
</g>
<!-- Node2&#45;&gt;Node5 -->
<g id="edge4" class="edge">
<title>Node2&#45;&gt;Node5</title>
<path fill="none" stroke="#63b8ff" d="M235.5,-55.27C192.46,-47.24 125.53,-34.3 59.12,-19.28"/>
<polygon fill="#63b8ff" stroke="#63b8ff" points="59.86,-15.86 49.33,-17.05 58.3,-22.69 59.86,-15.86"/>
</g>
<!-- Node6 -->
<g id="node6" class="node">
<title>Node6</title>
<g id="a_node6"><a xlink:title=" ">
<polygon fill="#e0e0e0" stroke="#999999" points="432.5,-19 388.5,-19 388.5,0 432.5,0 432.5,-19"/>
<text text-anchor="middle" x="410.5" y="-7" font-family="Helvetica,sans-Serif" font-size="10.00">string</text>
</a>
</g>
</g>
<!-- Node2&#45;&gt;Node6 -->
<g id="edge5" class="edge">
<title>Node2&#45;&gt;Node6</title>
<path fill="none" stroke="#63b8ff" d="M301.39,-54.98C322.58,-46.34 355.63,-32.87 379.8,-23.02"/>
<polygon fill="#63b8ff" stroke="#63b8ff" points="381.29,-26.19 389.23,-19.17 378.65,-19.7 381.29,-26.19"/>
</g>
<!-- Node7 -->
<g id="node7" class="node">
<title>Node7</title>
<g id="a_node7"><a xlink:title=" ">
<polygon fill="#e0e0e0" stroke="#999999" points="140,-19 67,-19 67,0 140,0 140,-19"/>
<text text-anchor="middle" x="103.5" y="-7" font-family="Helvetica,sans-Serif" font-size="10.00">string_view</text>
</a>
</g>
</g>
<!-- Node2&#45;&gt;Node7 -->
<g id="edge6" class="edge">
<title>Node2&#45;&gt;Node7</title>
<path fill="none" stroke="#63b8ff" d="M252.06,-54.98C222.22,-46.05 175.12,-31.94 141.97,-22.02"/>
<polygon fill="#63b8ff" stroke="#63b8ff" points="142.74,-18.6 132.16,-19.08 140.74,-25.3 142.74,-18.6"/>
</g>
<!-- Node2&#45;&gt;Node8 -->
<g id="edge7" class="edge">
<title>Node2&#45;&gt;Node8</title>
<path fill="none" stroke="#63b8ff" d="M289.58,-54.75C297.59,-47.03 309.46,-35.6 319.12,-26.28"/>
<polygon fill="#63b8ff" stroke="#63b8ff" points="321.81,-28.55 326.59,-19.09 316.96,-23.51 321.81,-28.55"/>
</g>
<!-- Node2&#45;&gt;Node9 -->
<g id="edge8" class="edge">
<title>Node2&#45;&gt;Node9</title>
<path fill="none" stroke="#63b8ff" d="M311.67,-54.98C347.11,-45.3 404.75,-29.56 441.1,-19.63"/>
<polygon fill="#63b8ff" stroke="#63b8ff" points="442.02,-23 450.75,-16.99 440.18,-16.25 442.02,-23"/>
</g>
<!-- Node10&#45;&gt;Node6 -->
<g id="edge13" class="edge">
<title>Node10&#45;&gt;Node6</title>
<path fill="none" stroke="#63b8ff" d="M491.08,-54.98C476.05,-46.69 452.96,-33.94 435.34,-24.22"/>
<polygon fill="#63b8ff" stroke="#63b8ff" points="436.65,-20.94 426.2,-19.17 433.27,-27.07 436.65,-20.94"/>
</g>
<!-- Node10&#45;&gt;Node9 -->
<g id="edge14" class="edge">
<title>Node10&#45;&gt;Node9</title>
<path fill="none" stroke="#63b8ff" d="M501.22,-54.75C496.79,-47.42 490.34,-36.73 484.88,-27.7"/>
<polygon fill="#63b8ff" stroke="#63b8ff" points="487.85,-25.84 479.69,-19.09 481.86,-29.46 487.85,-25.84"/>
</g>
<!-- Node11 -->
<g id="node11" class="node">
<title>Node11</title>
<g id="a_node11"><a xlink:title=" ">
<polygon fill="#e0e0e0" stroke="#999999" points="566.5,-19 516.5,-19 516.5,0 566.5,0 566.5,-19"/>
<text text-anchor="middle" x="541.5" y="-7" font-family="Helvetica,sans-Serif" font-size="10.00">cstdint</text>
</a>
</g>
</g>
<!-- Node10&#45;&gt;Node11 -->
<g id="edge10" class="edge">
<title>Node10&#45;&gt;Node11</title>
<path fill="none" stroke="#63b8ff" d="M512.28,-54.75C517.12,-47.42 524.18,-36.73 530.14,-27.7"/>
<polygon fill="#63b8ff" stroke="#63b8ff" points="533.24,-29.36 535.83,-19.09 527.4,-25.5 533.24,-29.36"/>
</g>
<!-- Node12 -->
<g id="node12" class="node">
<title>Node12</title>
<g id="a_node12"><a xlink:title=" ">
<polygon fill="#e0e0e0" stroke="#999999" points="634.5,-19 584.5,-19 584.5,0 634.5,0 634.5,-19"/>
<text text-anchor="middle" x="609.5" y="-7" font-family="Helvetica,sans-Serif" font-size="10.00">cstring</text>
</a>
</g>
</g>
<!-- Node10&#45;&gt;Node12 -->
<g id="edge11" class="edge">
<title>Node10&#45;&gt;Node12</title>
<path fill="none" stroke="#63b8ff" d="M523.05,-54.98C539.39,-46.57 564.63,-33.59 583.63,-23.81"/>
<polygon fill="#63b8ff" stroke="#63b8ff" points="585.36,-26.86 592.65,-19.17 582.16,-20.63 585.36,-26.86"/>
</g>
<!-- Node13 -->
<g id="node13" class="node">
<title>Node13</title>
<g id="a_node13"><a xlink:title=" ">
<polygon fill="#e0e0e0" stroke="#999999" points="718,-19 653,-19 653,0 718,0 718,-19"/>
<text text-anchor="middle" x="685.5" y="-7" font-family="Helvetica,sans-Serif" font-size="10.00">stdexcept</text>
</a>
</g>
</g>
<!-- Node10&#45;&gt;Node13 -->
<g id="edge12" class="edge">
<title>Node10&#45;&gt;Node13</title>
<path fill="none" stroke="#63b8ff" d="M535.26,-54.98C565.44,-46.05 613.07,-31.94 646.6,-22.02"/>
<polygon fill="#63b8ff" stroke="#63b8ff" points="647.92,-25.28 656.52,-19.08 645.93,-18.57 647.92,-25.28"/>
</g>
</g>
</svg>
