<?xml version="1.0" encoding="UTF-8" standalone="no"?>
<!DOCTYPE svg PUBLIC "-//W3C//DTD SVG 1.1//EN"
 "http://www.w3.org/Graphics/SVG/1.1/DTD/svg11.dtd">
<!-- Generated by graphviz version 2.43.0 (0)
 -->
<!-- Title: src/node/session_metrics.h Pages: 1 -->
<svg width="1820pt" height="588pt"
 viewBox="0.00 0.00 1820.00 588.00" xmlns="http://www.w3.org/2000/svg" xmlns:xlink="http://www.w3.org/1999/xlink">
<g id="graph0" class="graph" transform="scale(1 1) rotate(0) translate(4 584)">
<title>src/node/session_metrics.h</title>
<!-- Node1 -->
<g id="node1" class="node">
<title>Node1</title>
<g id="a_node1"><a xlink:title=" ">
<polygon fill="#999999" stroke="#666666" points="687.5,-580 538.5,-580 538.5,-561 687.5,-561 687.5,-580"/>
<text text-anchor="middle" x="613" y="-568" font-family="Helvetica,sans-Serif" font-size="10.00">src/node/session_metrics.h</text>
</a>
</g>
</g>
<!-- Node2 -->
<g id="node2" class="node">
<title>Node2</title>
<g id="a_node2"><a xlink:href="rpc__sessions_8h.html" target="_top" xlink:title=" ">
<polygon fill="white" stroke="#666666" points="392,-525 246,-525 246,-506 392,-506 392,-525"/>
<text text-anchor="middle" x="319" y="-513" font-family="Helvetica,sans-Serif" font-size="10.00">src/enclave/rpc_sessions.h</text>
</a>
</g>
</g>
<!-- Node1&#45;&gt;Node2 -->
<g id="edge1" class="edge">
<title>Node1&#45;&gt;Node2</title>
<path fill="none" stroke="#63b8ff" d="M555.8,-559.19C500.68,-549.25 418.25,-534.39 366.61,-525.08"/>
<polygon fill="#63b8ff" stroke="#63b8ff" points="555.3,-562.65 565.76,-560.98 556.54,-555.77 555.3,-562.65"/>
</g>
<!-- Node10 -->
<g id="node10" class="node">
<title>Node10</title>
<g id="a_node10"><a xlink:href="node__frontend_8h.html" target="_top" xlink:title=" ">
<polygon fill="white" stroke="#666666" points="597,-332.5 439,-332.5 439,-313.5 597,-313.5 597,-332.5"/>
<text text-anchor="middle" x="518" y="-320.5" font-family="Helvetica,sans-Serif" font-size="10.00">src/node/rpc/node_frontend.h</text>
</a>
</g>
</g>
<!-- Node1&#45;&gt;Node10 -->
<g id="edge23" class="edge">
<title>Node1&#45;&gt;Node10</title>
<path fill="none" stroke="#63b8ff" d="M606.54,-551.14C594.21,-516.35 566.21,-438.51 540,-374 534.07,-359.42 526.58,-342.72 522.05,-332.79"/>
<polygon fill="#63b8ff" stroke="#63b8ff" points="603.34,-552.59 609.97,-560.86 609.94,-550.26 603.34,-552.59"/>
</g>
<!-- Node15 -->
<g id="node15" class="node">
<title>Node15</title>
<g id="a_node15"><a xlink:href="node__interface_8h.html" target="_top" xlink:title=" ">
<polygon fill="white" stroke="#666666" points="889.5,-398.5 728.5,-398.5 728.5,-379.5 889.5,-379.5 889.5,-398.5"/>
<text text-anchor="middle" x="809" y="-386.5" font-family="Helvetica,sans-Serif" font-size="10.00">src/node/rpc/node_interface.h</text>
</a>
</g>
</g>
<!-- Node1&#45;&gt;Node15 -->
<g id="edge24" class="edge">
<title>Node1&#45;&gt;Node15</title>
<path fill="none" stroke="#63b8ff" d="M630.05,-553.89C670.03,-517.27 768.8,-426.82 799.64,-398.57"/>
<polygon fill="#63b8ff" stroke="#63b8ff" points="627.46,-551.51 622.45,-560.84 632.19,-556.67 627.46,-551.51"/>
</g>
<!-- Node30 -->
<g id="node30" class="node">
<title>Node30</title>
<g id="a_node30"><a xlink:href="node__operation__interface_8h.html" target="_top" xlink:title=" ">
<polygon fill="white" stroke="#666666" points="949.5,-470 794.5,-470 794.5,-440 949.5,-440 949.5,-470"/>
<text text-anchor="start" x="802.5" y="-458" font-family="Helvetica,sans-Serif" font-size="10.00">src/node/rpc/node_operation</text>
<text text-anchor="middle" x="872" y="-447" font-family="Helvetica,sans-Serif" font-size="10.00">_interface.h</text>
</a>
</g>
</g>
<!-- Node1&#45;&gt;Node30 -->
<g id="edge53" class="edge">
<title>Node1&#45;&gt;Node30</title>
<path fill="none" stroke="#63b8ff" d="M660.5,-558.45C689.86,-550.82 727.92,-539.44 760,-525 794.36,-509.53 830.96,-485.34 852.63,-470.09"/>
<polygon fill="#63b8ff" stroke="#63b8ff" points="659.34,-555.14 650.51,-561 661.06,-561.92 659.34,-555.14"/>
</g>
<!-- Node3 -->
<g id="node3" class="node">
<title>Node3</title>
<g id="a_node3"><a xlink:href="enclave_2enclave_8h.html" target="_top" xlink:title=" ">
<polygon fill="white" stroke="#666666" points="775,-74 653,-74 653,-55 775,-55 775,-74"/>
<text text-anchor="middle" x="714" y="-62" font-family="Helvetica,sans-Serif" font-size="10.00">src/enclave/enclave.h</text>
</a>
</g>
</g>
<!-- Node2&#45;&gt;Node3 -->
<g id="edge2" class="edge">
<title>Node2&#45;&gt;Node3</title>
<path fill="none" stroke="#63b8ff" d="M235.72,-508.09C168.61,-501.59 80.71,-489.63 51,-470 15.82,-446.75 0,-432.17 0,-390 0,-390 0,-390 0,-190 0,-123.98 479.89,-82.53 652.82,-69.74"/>
<polygon fill="#63b8ff" stroke="#63b8ff" points="235.6,-511.59 245.88,-509.05 236.25,-504.62 235.6,-511.59"/>
</g>
<!-- Node5 -->
<g id="node5" class="node">
<title>Node5</title>
<g id="a_node5"><a xlink:href="node__client_8h.html" target="_top" xlink:title=" ">
<polygon fill="white" stroke="#666666" points="382,-464.5 256,-464.5 256,-445.5 382,-445.5 382,-464.5"/>
<text text-anchor="middle" x="319" y="-452.5" font-family="Helvetica,sans-Serif" font-size="10.00">src/node/node_client.h</text>
</a>
</g>
</g>
<!-- Node2&#45;&gt;Node5 -->
<g id="edge4" class="edge">
<title>Node2&#45;&gt;Node5</title>
<path fill="none" stroke="#63b8ff" d="M319,-495.66C319,-485.24 319,-472.8 319,-464.67"/>
<polygon fill="#63b8ff" stroke="#63b8ff" points="315.5,-495.87 319,-505.87 322.5,-495.87 315.5,-495.87"/>
</g>
<!-- Node8 -->
<g id="node8" class="node">
<title>Node8</title>
<g id="a_node8"><a xlink:href="node__state_8h.html" target="_top" xlink:title=" ">
<polygon fill="white" stroke="#666666" points="390,-200.5 266,-200.5 266,-181.5 390,-181.5 390,-200.5"/>
<text text-anchor="middle" x="328" y="-188.5" font-family="Helvetica,sans-Serif" font-size="10.00">src/node/node_state.h</text>
</a>
</g>
</g>
<!-- Node2&#45;&gt;Node8 -->
<g id="edge20" class="edge">
<title>Node2&#45;&gt;Node8</title>
<path fill="none" stroke="#63b8ff" d="M362.08,-502.94C407.32,-488.24 476.08,-458.03 507,-404 513.62,-392.43 514.16,-385.25 507,-374 486.72,-342.13 461.47,-358.9 430,-338 393.56,-313.8 381.4,-308.3 357,-272 341.34,-248.7 332.95,-215.92 329.67,-200.56"/>
<polygon fill="#63b8ff" stroke="#63b8ff" points="361.03,-499.6 352.53,-505.93 363.12,-506.28 361.03,-499.6"/>
</g>
<!-- Node14 -->
<g id="node14" class="node">
<title>Node14</title>
<g id="a_node14"><a xlink:href="resharing_8h.html" target="_top" xlink:title=" ">
<polygon fill="white" stroke="#666666" points="176,-464.5 60,-464.5 60,-445.5 176,-445.5 176,-464.5"/>
<text text-anchor="middle" x="118" y="-452.5" font-family="Helvetica,sans-Serif" font-size="10.00">src/node/resharing.h</text>
</a>
</g>
</g>
<!-- Node2&#45;&gt;Node14 -->
<g id="edge21" class="edge">
<title>Node2&#45;&gt;Node14</title>
<path fill="none" stroke="#63b8ff" d="M279.86,-503.11C240.98,-491.79 182.26,-474.7 147.26,-464.52"/>
<polygon fill="#63b8ff" stroke="#63b8ff" points="279.19,-506.56 289.77,-505.99 281.15,-499.84 279.19,-506.56"/>
</g>
<!-- Node4 -->
<g id="node4" class="node">
<title>Node4</title>
<g id="a_node4"><a xlink:href="enclave_2main_8cpp.html" target="_top" xlink:title=" ">
<polygon fill="white" stroke="#666666" points="774,-19 654,-19 654,0 774,0 774,-19"/>
<text text-anchor="middle" x="714" y="-7" font-family="Helvetica,sans-Serif" font-size="10.00">src/enclave/main.cpp</text>
</a>
</g>
</g>
<!-- Node3&#45;&gt;Node4 -->
<g id="edge3" class="edge">
<title>Node3&#45;&gt;Node4</title>
<path fill="none" stroke="#63b8ff" d="M714,-44.66C714,-35.93 714,-25.99 714,-19.09"/>
<polygon fill="#63b8ff" stroke="#63b8ff" points="710.5,-44.75 714,-54.75 717.5,-44.75 710.5,-44.75"/>
</g>
<!-- Node6 -->
<g id="node6" class="node">
<title>Node6</title>
<g id="a_node6"><a xlink:href="orc__requests_8h.html" target="_top" xlink:title=" ">
<polygon fill="white" stroke="#666666" points="497.5,-404 378.5,-404 378.5,-374 497.5,-374 497.5,-404"/>
<text text-anchor="start" x="386.5" y="-392" font-family="Helvetica,sans-Serif" font-size="10.00">src/consensus/aft/orc</text>
<text text-anchor="middle" x="438" y="-381" font-family="Helvetica,sans-Serif" font-size="10.00">_requests.h</text>
</a>
</g>
</g>
<!-- Node5&#45;&gt;Node6 -->
<g id="edge5" class="edge">
<title>Node5&#45;&gt;Node6</title>
<path fill="none" stroke="#63b8ff" d="M344.11,-440.5C363.96,-429.82 391.61,-414.95 411.75,-404.12"/>
<polygon fill="#63b8ff" stroke="#63b8ff" points="342.2,-437.55 335.05,-445.37 345.51,-443.71 342.2,-437.55"/>
</g>
<!-- Node7 -->
<g id="node7" class="node">
<title>Node7</title>
<g id="a_node7"><a xlink:href="raft_8h.html" target="_top" xlink:title=" ">
<polygon fill="white" stroke="#666666" points="368.5,-332.5 239.5,-332.5 239.5,-313.5 368.5,-313.5 368.5,-332.5"/>
<text text-anchor="middle" x="304" y="-320.5" font-family="Helvetica,sans-Serif" font-size="10.00">src/consensus/aft/raft.h</text>
</a>
</g>
</g>
<!-- Node5&#45;&gt;Node7 -->
<g id="edge15" class="edge">
<title>Node5&#45;&gt;Node7</title>
<path fill="none" stroke="#63b8ff" d="M325.85,-435.61C330.97,-419.26 336.26,-394.8 331,-374 327.04,-358.31 317.07,-342.21 310.42,-332.65"/>
<polygon fill="#63b8ff" stroke="#63b8ff" points="322.39,-434.89 322.46,-445.48 329.01,-437.16 322.39,-434.89"/>
</g>
<!-- Node12 -->
<g id="node12" class="node">
<title>Node12</title>
<g id="a_node12"><a xlink:href="http__node__client_8h.html" target="_top" xlink:title=" ">
<polygon fill="white" stroke="#666666" points="176,-404 66,-404 66,-374 176,-374 176,-404"/>
<text text-anchor="start" x="74" y="-392" font-family="Helvetica,sans-Serif" font-size="10.00">src/node/http_node</text>
<text text-anchor="middle" x="121" y="-381" font-family="Helvetica,sans-Serif" font-size="10.00">_client.h</text>
</a>
</g>
</g>
<!-- Node5&#45;&gt;Node12 -->
<g id="edge16" class="edge">
<title>Node5&#45;&gt;Node12</title>
<path fill="none" stroke="#63b8ff" d="M282.52,-442.21C249.24,-431.45 200.02,-415.54 164.67,-404.12"/>
<polygon fill="#63b8ff" stroke="#63b8ff" points="281.71,-445.62 292.3,-445.37 283.86,-438.96 281.71,-445.62"/>
</g>
<!-- Node13 -->
<g id="node13" class="node">
<title>Node13</title>
<g id="a_node13"><a xlink:href="retired__nodes__cleanup_8h.html" target="_top" xlink:title=" ">
<polygon fill="white" stroke="#666666" points="322,-404 194,-404 194,-374 322,-374 322,-404"/>
<text text-anchor="start" x="202" y="-392" font-family="Helvetica,sans-Serif" font-size="10.00">src/node/retired_nodes</text>
<text text-anchor="middle" x="258" y="-381" font-family="Helvetica,sans-Serif" font-size="10.00">_cleanup.h</text>
</a>
</g>
</g>
<!-- Node5&#45;&gt;Node13 -->
<g id="edge18" class="edge">
<title>Node5&#45;&gt;Node13</title>
<path fill="none" stroke="#63b8ff" d="M303.61,-437.85C293.78,-427.54 281.16,-414.3 271.69,-404.36"/>
<polygon fill="#63b8ff" stroke="#63b8ff" points="301.34,-440.54 310.77,-445.37 306.41,-435.72 301.34,-440.54"/>
</g>
<!-- Node6&#45;&gt;Node7 -->
<g id="edge6" class="edge">
<title>Node6&#45;&gt;Node7</title>
<path fill="none" stroke="#63b8ff" d="M399.52,-369.62C373.95,-357.41 341.56,-341.94 321.83,-332.52"/>
<polygon fill="#63b8ff" stroke="#63b8ff" points="398.06,-372.8 408.59,-373.95 401.08,-366.49 398.06,-372.8"/>
</g>
<!-- Node6&#45;&gt;Node10 -->
<g id="edge11" class="edge">
<title>Node6&#45;&gt;Node10</title>
<path fill="none" stroke="#63b8ff" d="M463.93,-367.26C478.48,-355.61 495.89,-341.69 506.94,-332.84"/>
<polygon fill="#63b8ff" stroke="#63b8ff" points="461.38,-364.82 455.75,-373.8 465.75,-370.28 461.38,-364.82"/>
</g>
<!-- Node7&#45;&gt;Node8 -->
<g id="edge7" class="edge">
<title>Node7&#45;&gt;Node8</title>
<path fill="none" stroke="#63b8ff" d="M307.39,-303.61C312.64,-275.19 322.52,-221.69 326.39,-200.73"/>
<polygon fill="#63b8ff" stroke="#63b8ff" points="303.95,-303 305.57,-313.47 310.83,-304.27 303.95,-303"/>
</g>
<!-- Node8&#45;&gt;Node3 -->
<g id="edge8" class="edge">
<title>Node8&#45;&gt;Node3</title>
<path fill="none" stroke="#63b8ff" d="M324.42,-171C322.18,-152.75 322.21,-125.69 338,-110 359.89,-88.25 551.91,-74.47 652.74,-68.67"/>
<polygon fill="#63b8ff" stroke="#63b8ff" points="320.99,-171.71 325.99,-181.05 327.9,-170.63 320.99,-171.71"/>
</g>
<!-- Node9 -->
<g id="node9" class="node">
<title>Node9</title>
<g id="a_node9"><a xlink:href="gov__effects_8h.html" target="_top" xlink:title=" ">
<polygon fill="white" stroke="#666666" points="491,-134.5 347,-134.5 347,-115.5 491,-115.5 491,-134.5"/>
<text text-anchor="middle" x="419" y="-122.5" font-family="Helvetica,sans-Serif" font-size="10.00">src/node/rpc/gov_effects.h</text>
</a>
</g>
</g>
<!-- Node8&#45;&gt;Node9 -->
<g id="edge9" class="edge">
<title>Node8&#45;&gt;Node9</title>
<path fill="none" stroke="#63b8ff" d="M348.85,-175.33C366.7,-162.78 391.8,-145.13 406.63,-134.7"/>
<polygon fill="#63b8ff" stroke="#63b8ff" points="346.44,-172.75 340.27,-181.37 350.47,-178.48 346.44,-172.75"/>
</g>
<!-- Node9&#45;&gt;Node3 -->
<g id="edge10" class="edge">
<title>Node9&#45;&gt;Node3</title>
<path fill="none" stroke="#63b8ff" d="M471.78,-113.53C528.71,-102.24 618.27,-84.48 671.05,-74.02"/>
<polygon fill="#63b8ff" stroke="#63b8ff" points="471.02,-110.12 461.9,-115.49 472.39,-116.98 471.02,-110.12"/>
</g>
<!-- Node10&#45;&gt;Node3 -->
<g id="edge12" class="edge">
<title>Node10&#45;&gt;Node3</title>
<path fill="none" stroke="#63b8ff" d="M519.88,-302.75C522.2,-285.84 527.24,-261.04 538,-242 581.87,-164.4 669.1,-97.4 701.5,-74.19"/>
<polygon fill="#63b8ff" stroke="#63b8ff" points="516.37,-302.69 518.68,-313.02 523.32,-303.5 516.37,-302.69"/>
</g>
<!-- Node11 -->
<g id="node11" class="node">
<title>Node11</title>
<g id="a_node11"><a xlink:href="jwt__key__auto__refresh_8h.html" target="_top" xlink:title=" ">
<polygon fill="white" stroke="#666666" points="490.5,-272 365.5,-272 365.5,-242 490.5,-242 490.5,-272"/>
<text text-anchor="start" x="373.5" y="-260" font-family="Helvetica,sans-Serif" font-size="10.00">src/node/jwt_key_auto</text>
<text text-anchor="middle" x="428" y="-249" font-family="Helvetica,sans-Serif" font-size="10.00">_refresh.h</text>
</a>
</g>
</g>
<!-- Node10&#45;&gt;Node11 -->
<g id="edge13" class="edge">
<title>Node10&#45;&gt;Node11</title>
<path fill="none" stroke="#63b8ff" d="M497.35,-307.32C482.48,-296.74 462.53,-282.56 447.85,-272.12"/>
<polygon fill="#63b8ff" stroke="#63b8ff" points="495.68,-310.43 505.86,-313.37 499.74,-304.72 495.68,-310.43"/>
</g>
<!-- Node11&#45;&gt;Node8 -->
<g id="edge14" class="edge">
<title>Node11&#45;&gt;Node8</title>
<path fill="none" stroke="#63b8ff" d="M397.31,-236.36C378.66,-224.42 355.77,-209.77 341.53,-200.66"/>
<polygon fill="#63b8ff" stroke="#63b8ff" points="395.5,-239.35 405.81,-241.8 399.27,-233.46 395.5,-239.35"/>
</g>
<!-- Node12&#45;&gt;Node8 -->
<g id="edge17" class="edge">
<title>Node12&#45;&gt;Node8</title>
<path fill="none" stroke="#63b8ff" d="M143.37,-366.82C188.34,-324.24 288.03,-229.85 318.78,-200.73"/>
<polygon fill="#63b8ff" stroke="#63b8ff" points="140.74,-364.49 135.89,-373.9 145.55,-369.57 140.74,-364.49"/>
</g>
<!-- Node13&#45;&gt;Node7 -->
<g id="edge19" class="edge">
<title>Node13&#45;&gt;Node7</title>
<path fill="none" stroke="#63b8ff" d="M274.09,-365.61C282.2,-354.32 291.58,-341.28 297.64,-332.84"/>
<polygon fill="#63b8ff" stroke="#63b8ff" points="271.2,-363.63 268.21,-373.8 276.89,-367.72 271.2,-363.63"/>
</g>
<!-- Node14&#45;&gt;Node8 -->
<g id="edge22" class="edge">
<title>Node14&#45;&gt;Node8</title>
<path fill="none" stroke="#63b8ff" d="M91.96,-440.13C78.88,-431.62 64.28,-419.39 57,-404 51.3,-391.95 50.9,-385.85 57,-374 108.24,-274.49 241.72,-220.2 300.04,-200.58"/>
<polygon fill="#63b8ff" stroke="#63b8ff" points="90.31,-443.23 100.67,-445.43 93.95,-437.24 90.31,-443.23"/>
</g>
<!-- Node15&#45;&gt;Node10 -->
<g id="edge50" class="edge">
<title>Node15&#45;&gt;Node10</title>
<path fill="none" stroke="#63b8ff" d="M760.15,-377.26C702.9,-364.67 609.19,-344.06 556.71,-332.51"/>
<polygon fill="#63b8ff" stroke="#63b8ff" points="759.54,-380.71 770.06,-379.44 761.04,-373.87 759.54,-380.71"/>
</g>
<!-- Node16 -->
<g id="node16" class="node">
<title>Node16</title>
<g id="a_node16"><a xlink:href="wrap_8cpp.html" target="_top" xlink:title=" ">
<polygon fill="white" stroke="#666666" points="1062.5,-200.5 973.5,-200.5 973.5,-181.5 1062.5,-181.5 1062.5,-200.5"/>
<text text-anchor="middle" x="1018" y="-188.5" font-family="Helvetica,sans-Serif" font-size="10.00">src/js/wrap.cpp</text>
</a>
</g>
</g>
<!-- Node15&#45;&gt;Node16 -->
<g id="edge25" class="edge">
<title>Node15&#45;&gt;Node16</title>
<path fill="none" stroke="#63b8ff" d="M805.46,-369.33C800.81,-338.73 796.56,-277.74 828,-242 846.98,-220.42 923.29,-205.59 973.24,-197.97"/>
<polygon fill="#63b8ff" stroke="#63b8ff" points="802.05,-370.19 807.19,-379.46 808.95,-369.01 802.05,-370.19"/>
</g>
<!-- Node17 -->
<g id="node17" class="node">
<title>Node17</title>
<g id="a_node17"><a xlink:href="wrap_8h.html" target="_top" xlink:title=" ">
<polygon fill="white" stroke="#666666" points="1170,-332.5 1092,-332.5 1092,-313.5 1170,-313.5 1170,-332.5"/>
<text text-anchor="middle" x="1131" y="-320.5" font-family="Helvetica,sans-Serif" font-size="10.00">src/js/wrap.h</text>
</a>
</g>
</g>
<!-- Node15&#45;&gt;Node17 -->
<g id="edge26" class="edge">
<title>Node15&#45;&gt;Node17</title>
<path fill="none" stroke="#63b8ff" d="M862.07,-377.45C926.63,-364.62 1034.1,-343.26 1091.69,-331.81"/>
<polygon fill="#63b8ff" stroke="#63b8ff" points="861.22,-374.05 852.09,-379.44 862.58,-380.92 861.22,-374.05"/>
</g>
<!-- Node24 -->
<g id="node24" class="node">
<title>Node24</title>
<g id="a_node24"><a xlink:href="member__frontend_8h.html" target="_top" xlink:title=" ">
<polygon fill="white" stroke="#666666" points="1797,-272 1677,-272 1677,-242 1797,-242 1797,-272"/>
<text text-anchor="start" x="1685" y="-260" font-family="Helvetica,sans-Serif" font-size="10.00">src/node/rpc/member</text>
<text text-anchor="middle" x="1737" y="-249" font-family="Helvetica,sans-Serif" font-size="10.00">_frontend.h</text>
</a>
</g>
</g>
<!-- Node15&#45;&gt;Node24 -->
<g id="edge46" class="edge">
<title>Node15&#45;&gt;Node24</title>
<path fill="none" stroke="#63b8ff" d="M899.79,-387.56C976.57,-384.45 1088.26,-373.38 1179,-338 1200.71,-329.54 1200.07,-315.88 1222,-308 1409.16,-240.77 1471.09,-299.82 1668,-272 1670.9,-271.59 1673.87,-271.13 1676.86,-270.64"/>
<polygon fill="#63b8ff" stroke="#63b8ff" points="899.53,-384.07 889.66,-387.94 899.79,-391.07 899.53,-384.07"/>
</g>
<!-- Node25 -->
<g id="node25" class="node">
<title>Node25</title>
<g id="a_node25"><a xlink:href="historical__queries_8h.html" target="_top" xlink:title=" ">
<polygon fill="white" stroke="#666666" points="829,-206 723,-206 723,-176 829,-176 829,-206"/>
<text text-anchor="start" x="731" y="-194" font-family="Helvetica,sans-Serif" font-size="10.00">src/node/historical</text>
<text text-anchor="middle" x="776" y="-183" font-family="Helvetica,sans-Serif" font-size="10.00">_queries.h</text>
</a>
</g>
</g>
<!-- Node15&#45;&gt;Node25 -->
<g id="edge42" class="edge">
<title>Node15&#45;&gt;Node25</title>
<path fill="none" stroke="#63b8ff" d="M803.13,-369.47C800.34,-360.11 797.15,-348.54 795,-338 785.24,-290.16 779.47,-232.44 777.17,-206.21"/>
<polygon fill="#63b8ff" stroke="#63b8ff" points="799.85,-370.71 806.13,-379.24 806.54,-368.66 799.85,-370.71"/>
</g>
<!-- Node27 -->
<g id="node27" class="node">
<title>Node27</title>
<g id="a_node27"><a xlink:href="network__identity__subsystem_8h.html" target="_top" xlink:title=" ">
<polygon fill="white" stroke="#666666" points="742.5,-338 615.5,-338 615.5,-308 742.5,-308 742.5,-338"/>
<text text-anchor="start" x="623.5" y="-326" font-family="Helvetica,sans-Serif" font-size="10.00">src/node/rpc/network</text>
<text text-anchor="middle" x="679" y="-315" font-family="Helvetica,sans-Serif" font-size="10.00">_identity_subsystem.h</text>
</a>
</g>
</g>
<!-- Node15&#45;&gt;Node27 -->
<g id="edge47" class="edge">
<title>Node15&#45;&gt;Node27</title>
<path fill="none" stroke="#63b8ff" d="M782.46,-374.93C760.71,-364.22 729.98,-349.1 707.67,-338.12"/>
<polygon fill="#63b8ff" stroke="#63b8ff" points="780.95,-378.09 791.47,-379.37 784.04,-371.81 780.95,-378.09"/>
</g>
<!-- Node29 -->
<g id="node29" class="node">
<title>Node29</title>
<g id="a_node29"><a xlink:href="node__operation_8h.html" target="_top" xlink:title=" ">
<polygon fill="white" stroke="#666666" points="1428,-332.5 1264,-332.5 1264,-313.5 1428,-313.5 1428,-332.5"/>
<text text-anchor="middle" x="1346" y="-320.5" font-family="Helvetica,sans-Serif" font-size="10.00">src/node/rpc/node_operation.h</text>
</a>
</g>
</g>
<!-- Node15&#45;&gt;Node29 -->
<g id="edge51" class="edge">
<title>Node15&#45;&gt;Node29</title>
<path fill="none" stroke="#63b8ff" d="M890.79,-378.25C995.43,-365.78 1175.03,-344.38 1274.48,-332.52"/>
<polygon fill="#63b8ff" stroke="#63b8ff" points="890.1,-374.81 880.59,-379.47 890.93,-381.76 890.1,-374.81"/>
</g>
<!-- Node17&#45;&gt;Node3 -->
<g id="edge28" class="edge">
<title>Node17&#45;&gt;Node3</title>
<path fill="none" stroke="#63b8ff" d="M1164.62,-310.57C1168.1,-309.6 1171.6,-308.72 1175,-308 1316.59,-277.79 1584.37,-355.11 1494,-242 1403.65,-128.92 943.07,-82.96 775.26,-69.8"/>
<polygon fill="#63b8ff" stroke="#63b8ff" points="1163.56,-307.23 1154.98,-313.44 1165.56,-313.94 1163.56,-307.23"/>
</g>
<!-- Node17&#45;&gt;Node8 -->
<g id="edge39" class="edge">
<title>Node17&#45;&gt;Node8</title>
<path fill="none" stroke="#63b8ff" d="M1081.75,-314.36C1021.73,-304.93 917.27,-288.17 828,-272 760.24,-259.73 743.88,-253.57 676,-242 576.27,-225.01 459.8,-209.06 390.07,-199.92"/>
<polygon fill="#63b8ff" stroke="#63b8ff" points="1081.29,-317.83 1091.71,-315.92 1082.37,-310.91 1081.29,-317.83"/>
</g>
<!-- Node17&#45;&gt;Node16 -->
<g id="edge38" class="edge">
<title>Node17&#45;&gt;Node16</title>
<path fill="none" stroke="#63b8ff" d="M1081.7,-317.9C1050.98,-312.5 1013.69,-300.15 994,-272 978.21,-249.42 999.08,-216.29 1010.89,-200.71"/>
<polygon fill="#63b8ff" stroke="#63b8ff" points="1081.41,-321.4 1091.82,-319.48 1082.48,-314.48 1081.41,-321.4"/>
</g>
<!-- Node18 -->
<g id="node18" class="node">
<title>Node18</title>
<g id="a_node18"><a xlink:href="js__generic__base_8cpp.html" target="_top" xlink:title=" ">
<polygon fill="white" stroke="#666666" points="1659,-272 1541,-272 1541,-242 1659,-242 1659,-272"/>
<text text-anchor="start" x="1549" y="-260" font-family="Helvetica,sans-Serif" font-size="10.00">src/apps/js_generic</text>
<text text-anchor="middle" x="1600" y="-249" font-family="Helvetica,sans-Serif" font-size="10.00">/js_generic_base.cpp</text>
</a>
</g>
</g>
<!-- Node17&#45;&gt;Node18 -->
<g id="edge27" class="edge">
<title>Node17&#45;&gt;Node18</title>
<path fill="none" stroke="#63b8ff" d="M1170.05,-310.96C1174.73,-309.86 1179.45,-308.83 1184,-308 1334.77,-280.34 1375.37,-294.46 1527,-272 1531.47,-271.34 1536.08,-270.6 1540.71,-269.81"/>
<polygon fill="#63b8ff" stroke="#63b8ff" points="1168.83,-307.66 1159.98,-313.49 1170.53,-314.45 1168.83,-307.66"/>
</g>
<!-- Node19 -->
<g id="node19" class="node">
<title>Node19</title>
<g id="a_node19"><a xlink:href="js_2consensus_8cpp.html" target="_top" xlink:title=" ">
<polygon fill="white" stroke="#666666" points="1119,-266.5 1003,-266.5 1003,-247.5 1119,-247.5 1119,-266.5"/>
<text text-anchor="middle" x="1061" y="-254.5" font-family="Helvetica,sans-Serif" font-size="10.00">src/js/consensus.cpp</text>
</a>
</g>
</g>
<!-- Node17&#45;&gt;Node19 -->
<g id="edge29" class="edge">
<title>Node17&#45;&gt;Node19</title>
<path fill="none" stroke="#63b8ff" d="M1113.86,-306.33C1100.31,-293.94 1081.87,-277.09 1070.74,-266.91"/>
<polygon fill="#63b8ff" stroke="#63b8ff" points="1111.82,-309.2 1121.56,-313.37 1116.54,-304.04 1111.82,-309.2"/>
</g>
<!-- Node20 -->
<g id="node20" class="node">
<title>Node20</title>
<g id="a_node20"><a xlink:href="conv_8cpp.html" target="_top" xlink:title=" ">
<polygon fill="white" stroke="#666666" points="1371,-266.5 1283,-266.5 1283,-247.5 1371,-247.5 1371,-266.5"/>
<text text-anchor="middle" x="1327" y="-254.5" font-family="Helvetica,sans-Serif" font-size="10.00">src/js/conv.cpp</text>
</a>
</g>
</g>
<!-- Node17&#45;&gt;Node20 -->
<g id="edge31" class="edge">
<title>Node17&#45;&gt;Node20</title>
<path fill="none" stroke="#63b8ff" d="M1167.25,-310.16C1205.94,-297.53 1266.29,-277.82 1300.67,-266.6"/>
<polygon fill="#63b8ff" stroke="#63b8ff" points="1165.85,-306.94 1157.43,-313.37 1168.03,-313.59 1165.85,-306.94"/>
</g>
<!-- Node21 -->
<g id="node21" class="node">
<title>Node21</title>
<g id="a_node21"><a xlink:href="js_2crypto_8cpp.html" target="_top" xlink:title=" ">
<polygon fill="white" stroke="#666666" points="1485,-266.5 1389,-266.5 1389,-247.5 1485,-247.5 1485,-266.5"/>
<text text-anchor="middle" x="1437" y="-254.5" font-family="Helvetica,sans-Serif" font-size="10.00">src/js/crypto.cpp</text>
</a>
</g>
</g>
<!-- Node17&#45;&gt;Node21 -->
<g id="edge33" class="edge">
<title>Node17&#45;&gt;Node21</title>
<path fill="none" stroke="#63b8ff" d="M1171.47,-310.97C1175.69,-309.92 1179.93,-308.91 1184,-308 1270.43,-288.68 1293.4,-290.57 1380,-272 1387.67,-270.35 1395.89,-268.43 1403.62,-266.55"/>
<polygon fill="#63b8ff" stroke="#63b8ff" points="1170.55,-307.59 1161.73,-313.46 1172.29,-314.37 1170.55,-307.59"/>
</g>
<!-- Node22 -->
<g id="node22" class="node">
<title>Node22</title>
<g id="a_node22"><a xlink:href="js_2historical_8cpp.html" target="_top" xlink:title=" ">
<polygon fill="white" stroke="#666666" points="947,-266.5 837,-266.5 837,-247.5 947,-247.5 947,-266.5"/>
<text text-anchor="middle" x="892" y="-254.5" font-family="Helvetica,sans-Serif" font-size="10.00">src/js/historical.cpp</text>
</a>
</g>
</g>
<!-- Node17&#45;&gt;Node22 -->
<g id="edge35" class="edge">
<title>Node17&#45;&gt;Node22</title>
<path fill="none" stroke="#63b8ff" d="M1088.88,-310.72C1041.82,-298.12 966.65,-277.99 924.1,-266.6"/>
<polygon fill="#63b8ff" stroke="#63b8ff" points="1088.2,-314.16 1098.77,-313.37 1090.01,-307.4 1088.2,-314.16"/>
</g>
<!-- Node23 -->
<g id="node23" class="node">
<title>Node23</title>
<g id="a_node23"><a xlink:href="openenclave_8cpp.html" target="_top" xlink:title=" ">
<polygon fill="white" stroke="#666666" points="1265,-266.5 1137,-266.5 1137,-247.5 1265,-247.5 1265,-266.5"/>
<text text-anchor="middle" x="1201" y="-254.5" font-family="Helvetica,sans-Serif" font-size="10.00">src/js/openenclave.cpp</text>
</a>
</g>
</g>
<!-- Node17&#45;&gt;Node23 -->
<g id="edge37" class="edge">
<title>Node17&#45;&gt;Node23</title>
<path fill="none" stroke="#63b8ff" d="M1148.14,-306.33C1161.69,-293.94 1180.13,-277.09 1191.26,-266.91"/>
<polygon fill="#63b8ff" stroke="#63b8ff" points="1145.46,-304.04 1140.44,-313.37 1150.18,-309.2 1145.46,-304.04"/>
</g>
<!-- Node17&#45;&gt;Node24 -->
<g id="edge40" class="edge">
<title>Node17&#45;&gt;Node24</title>
<path fill="none" stroke="#63b8ff" d="M1169.3,-310.99C1174.22,-309.84 1179.21,-308.8 1184,-308 1396.73,-272.3 1454.32,-301.5 1668,-272 1670.91,-271.6 1673.87,-271.15 1676.87,-270.67"/>
<polygon fill="#63b8ff" stroke="#63b8ff" points="1168.25,-307.65 1159.4,-313.47 1169.95,-314.44 1168.25,-307.65"/>
</g>
<!-- Node19&#45;&gt;Node16 -->
<g id="edge30" class="edge">
<title>Node19&#45;&gt;Node16</title>
<path fill="none" stroke="#63b8ff" d="M1049.52,-238.91C1041.3,-226.68 1030.56,-210.7 1023.98,-200.91"/>
<polygon fill="#63b8ff" stroke="#63b8ff" points="1046.72,-241.02 1055.2,-247.37 1052.53,-237.12 1046.72,-241.02"/>
</g>
<!-- Node20&#45;&gt;Node16 -->
<g id="edge32" class="edge">
<title>Node20&#45;&gt;Node16</title>
<path fill="none" stroke="#63b8ff" d="M1286.01,-244.89C1281.96,-243.88 1277.91,-242.9 1274,-242 1200.29,-225.09 1113.81,-208.96 1062.58,-199.79"/>
<polygon fill="#63b8ff" stroke="#63b8ff" points="1285.42,-248.35 1295.98,-247.44 1287.16,-241.57 1285.42,-248.35"/>
</g>
<!-- Node21&#45;&gt;Node16 -->
<g id="edge34" class="edge">
<title>Node21&#45;&gt;Node16</title>
<path fill="none" stroke="#63b8ff" d="M1394.8,-245.12C1389.83,-243.99 1384.81,-242.92 1380,-242 1266.43,-220.27 1131.1,-204.14 1062.54,-196.65"/>
<polygon fill="#63b8ff" stroke="#63b8ff" points="1394.34,-248.6 1404.87,-247.49 1395.94,-241.79 1394.34,-248.6"/>
</g>
<!-- Node22&#45;&gt;Node16 -->
<g id="edge36" class="edge">
<title>Node22&#45;&gt;Node16</title>
<path fill="none" stroke="#63b8ff" d="M918.19,-242.69C943.02,-230.09 979.58,-211.51 1000.87,-200.7"/>
<polygon fill="#63b8ff" stroke="#63b8ff" points="916.32,-239.72 908.99,-247.37 919.49,-245.96 916.32,-239.72"/>
</g>
<!-- Node24&#45;&gt;Node3 -->
<g id="edge41" class="edge">
<title>Node24&#45;&gt;Node3</title>
<path fill="none" stroke="#63b8ff" d="M1715.43,-234.71C1679.77,-201.06 1604.69,-136.71 1527,-110 1456.65,-85.82 952.31,-71.32 775.25,-66.93"/>
<polygon fill="#63b8ff" stroke="#63b8ff" points="1713.19,-237.4 1722.83,-241.78 1718.02,-232.34 1713.19,-237.4"/>
</g>
<!-- Node25&#45;&gt;Node3 -->
<g id="edge43" class="edge">
<title>Node25&#45;&gt;Node3</title>
<path fill="none" stroke="#63b8ff" d="M764.34,-166.6C750.37,-138.53 727.65,-92.92 718.27,-74.07"/>
<polygon fill="#63b8ff" stroke="#63b8ff" points="761.3,-168.33 768.89,-175.72 767.56,-165.21 761.3,-168.33"/>
</g>
<!-- Node26 -->
<g id="node26" class="node">
<title>Node26</title>
<g id="a_node26"><a xlink:href="historical__transaction__fetcher_8h.html" target="_top" xlink:title=" ">
<polygon fill="white" stroke="#666666" points="886.5,-140 761.5,-140 761.5,-110 886.5,-110 886.5,-140"/>
<text text-anchor="start" x="769.5" y="-128" font-family="Helvetica,sans-Serif" font-size="10.00">src/indexing/historical</text>
<text text-anchor="middle" x="824" y="-117" font-family="Helvetica,sans-Serif" font-size="10.00">_transaction_fetcher.h</text>
</a>
</g>
</g>
<!-- Node25&#45;&gt;Node26 -->
<g id="edge44" class="edge">
<title>Node25&#45;&gt;Node26</title>
<path fill="none" stroke="#63b8ff" d="M792.86,-167.53C799.68,-158.43 807.35,-148.19 813.38,-140.16"/>
<polygon fill="#63b8ff" stroke="#63b8ff" points="789.85,-165.7 786.65,-175.8 795.45,-169.9 789.85,-165.7"/>
</g>
<!-- Node26&#45;&gt;Node3 -->
<g id="edge45" class="edge">
<title>Node26&#45;&gt;Node3</title>
<path fill="none" stroke="#63b8ff" d="M788.66,-105.21C769.04,-94.77 745.56,-82.29 730.24,-74.14"/>
<polygon fill="#63b8ff" stroke="#63b8ff" points="787.18,-108.38 797.65,-109.99 790.47,-102.2 787.18,-108.38"/>
</g>
<!-- Node27&#45;&gt;Node3 -->
<g id="edge48" class="edge">
<title>Node27&#45;&gt;Node3</title>
<path fill="none" stroke="#63b8ff" d="M682.29,-297.91C689.81,-242.8 707.99,-109.52 712.81,-74.21"/>
<polygon fill="#63b8ff" stroke="#63b8ff" points="678.82,-297.46 680.93,-307.84 685.75,-298.41 678.82,-297.46"/>
</g>
<!-- Node28 -->
<g id="node28" class="node">
<title>Node28</title>
<g id="a_node28"><a xlink:href="historical__queries__adapter_8cpp.html" target="_top" xlink:title=" ">
<polygon fill="white" stroke="#666666" points="667,-272 547,-272 547,-242 667,-242 667,-272"/>
<text text-anchor="start" x="555" y="-260" font-family="Helvetica,sans-Serif" font-size="10.00">src/node/historical</text>
<text text-anchor="middle" x="607" y="-249" font-family="Helvetica,sans-Serif" font-size="10.00">_queries_adapter.cpp</text>
</a>
</g>
</g>
<!-- Node27&#45;&gt;Node28 -->
<g id="edge49" class="edge">
<title>Node27&#45;&gt;Node28</title>
<path fill="none" stroke="#63b8ff" d="M655.29,-300.92C644.67,-291.49 632.43,-280.61 622.93,-272.16"/>
<polygon fill="#63b8ff" stroke="#63b8ff" points="653.22,-303.77 663.02,-307.8 657.87,-298.54 653.22,-303.77"/>
</g>
<!-- Node29&#45;&gt;Node3 -->
<g id="edge52" class="edge">
<title>Node29&#45;&gt;Node3</title>
<path fill="none" stroke="#63b8ff" d="M1438.2,-318.46C1565.42,-312.62 1781.92,-298.83 1806,-272 1814.9,-262.08 1812.72,-253.51 1806,-242 1745.78,-138.89 1686.67,-143.31 1572,-110 1422.32,-66.52 945.16,-64.37 775.01,-65.05"/>
<polygon fill="#63b8ff" stroke="#63b8ff" points="1437.9,-314.97 1428.07,-318.92 1438.22,-321.97 1437.9,-314.97"/>
</g>
<!-- Node30&#45;&gt;Node15 -->
<g id="edge55" class="edge">
<title>Node30&#45;&gt;Node15</title>
<path fill="none" stroke="#63b8ff" d="M850.94,-432.6C839.61,-421.1 826.25,-407.52 817.71,-398.84"/>
<polygon fill="#63b8ff" stroke="#63b8ff" points="848.51,-435.13 858.02,-439.8 853.5,-430.21 848.51,-435.13"/>
</g>
<!-- Node30&#45;&gt;Node24 -->
<g id="edge54" class="edge">
<title>Node30&#45;&gt;Node24</title>
<path fill="none" stroke="#63b8ff" d="M940.48,-437.39C1011.35,-418.71 1124.07,-384.74 1214,-338 1234.03,-327.59 1233.86,-315.94 1255,-308 1427.48,-243.21 1485.64,-298.36 1668,-272 1670.9,-271.58 1673.87,-271.12 1676.86,-270.62"/>
<polygon fill="#63b8ff" stroke="#63b8ff" points="939.56,-434.01 930.76,-439.93 941.32,-440.79 939.56,-434.01"/>
</g>
<!-- Node30&#45;&gt;Node29 -->
<g id="edge56" class="edge">
<title>Node30&#45;&gt;Node29</title>
<path fill="none" stroke="#63b8ff" d="M959.9,-448.04C1054.92,-440.61 1199.55,-426.12 1250,-404 1288.75,-387.02 1324.17,-349.49 1338.85,-332.57"/>
<polygon fill="#63b8ff" stroke="#63b8ff" points="959.42,-444.57 949.72,-448.83 959.96,-451.55 959.42,-444.57"/>
</g>
</g>
</svg>
