<?xml version="1.0" encoding="UTF-8" standalone="no"?>
<!DOCTYPE svg PUBLIC "-//W3C//DTD SVG 1.1//EN"
 "http://www.w3.org/Graphics/SVG/1.1/DTD/svg11.dtd">
<!-- Generated by graphviz version 2.43.0 (0)
 -->
<!-- Title: include/ccf/crypto/sha256_hash.h Pages: 1 -->
<svg width="579pt" height="258pt"
 viewBox="0.00 0.00 579.00 258.00" xmlns="http://www.w3.org/2000/svg" xmlns:xlink="http://www.w3.org/1999/xlink">
<g id="graph0" class="graph" transform="scale(1 1) rotate(0) translate(4 254)">
<title>include/ccf/crypto/sha256_hash.h</title>
<!-- Node1 -->
<g id="node1" class="node">
<title>Node1</title>
<g id="a_node1"><a xlink:title=" ">
<polygon fill="#999999" stroke="#666666" points="436.5,-250 333.5,-250 333.5,-220 436.5,-220 436.5,-250"/>
<text text-anchor="start" x="341.5" y="-238" font-family="Helvetica,sans-Serif" font-size="10.00">include/ccf/crypto</text>
<text text-anchor="middle" x="385" y="-227" font-family="Helvetica,sans-Serif" font-size="10.00">/sha256_hash.h</text>
</a>
</g>
</g>
<!-- Node2 -->
<g id="node2" class="node">
<title>Node2</title>
<g id="a_node2"><a xlink:href="json_8h.html" target="_top" xlink:title=" ">
<polygon fill="white" stroke="#666666" points="283.5,-184 206.5,-184 206.5,-165 283.5,-165 283.5,-184"/>
<text text-anchor="middle" x="245" y="-172" font-family="Helvetica,sans-Serif" font-size="10.00">ccf/ds/json.h</text>
</a>
</g>
</g>
<!-- Node1&#45;&gt;Node2 -->
<g id="edge1" class="edge">
<title>Node1&#45;&gt;Node2</title>
<path fill="none" stroke="#63b8ff" d="M351.47,-219.99C328.21,-210.27 297.51,-197.44 275.05,-188.06"/>
<polygon fill="#63b8ff" stroke="#63b8ff" points="276.25,-184.77 265.68,-184.14 273.55,-191.22 276.25,-184.77"/>
</g>
<!-- Node9 -->
<g id="node9" class="node">
<title>Node9</title>
<g id="a_node9"><a xlink:title=" ">
<polygon fill="#e0e0e0" stroke="#999999" points="571,-19 529,-19 529,0 571,0 571,-19"/>
<text text-anchor="middle" x="550" y="-7" font-family="Helvetica,sans-Serif" font-size="10.00">array</text>
</a>
</g>
</g>
<!-- Node1&#45;&gt;Node9 -->
<g id="edge18" class="edge">
<title>Node1&#45;&gt;Node9</title>
<path fill="none" stroke="#63b8ff" d="M395.57,-219.68C424.73,-180.19 506.19,-69.85 537.51,-27.42"/>
<polygon fill="#63b8ff" stroke="#63b8ff" points="540.43,-29.36 543.55,-19.23 534.8,-25.2 540.43,-29.36"/>
</g>
<!-- Node13 -->
<g id="node13" class="node">
<title>Node13</title>
<g id="a_node13"><a xlink:title=" ">
<polygon fill="#e0e0e0" stroke="#999999" points="209.5,-74 130.5,-74 130.5,-55 209.5,-55 209.5,-74"/>
<text text-anchor="middle" x="170" y="-62" font-family="Helvetica,sans-Serif" font-size="10.00">fmt/format.h</text>
</a>
</g>
</g>
<!-- Node1&#45;&gt;Node13 -->
<g id="edge20" class="edge">
<title>Node1&#45;&gt;Node13</title>
<path fill="none" stroke="#63b8ff" d="M333.19,-228.73C293.62,-222.76 239.08,-210.2 198,-184 171.13,-166.86 162.88,-158.95 152,-129 146.45,-113.72 152.58,-95.88 159.15,-83.01"/>
<polygon fill="#63b8ff" stroke="#63b8ff" points="162.22,-84.69 164.07,-74.25 156.11,-81.25 162.22,-84.69"/>
</g>
<!-- Node16 -->
<g id="node16" class="node">
<title>Node16</title>
<g id="a_node16"><a xlink:title=" ">
<polygon fill="#e0e0e0" stroke="#999999" points="542,-184 502,-184 502,-165 542,-165 542,-184"/>
<text text-anchor="middle" x="522" y="-172" font-family="Helvetica,sans-Serif" font-size="10.00">span</text>
</a>
</g>
</g>
<!-- Node1&#45;&gt;Node16 -->
<g id="edge19" class="edge">
<title>Node1&#45;&gt;Node16</title>
<path fill="none" stroke="#63b8ff" d="M417.81,-219.99C440.47,-210.31 470.35,-197.56 492.3,-188.18"/>
<polygon fill="#63b8ff" stroke="#63b8ff" points="493.95,-191.29 501.77,-184.14 491.2,-184.85 493.95,-191.29"/>
</g>
<!-- Node3 -->
<g id="node3" class="node">
<title>Node3</title>
<g id="a_node3"><a xlink:href="include_2ccf_2crypto_2base64_8h.html" target="_top" xlink:title=" ">
<polygon fill="white" stroke="#666666" points="112,-74 0,-74 0,-55 112,-55 112,-74"/>
<text text-anchor="middle" x="56" y="-62" font-family="Helvetica,sans-Serif" font-size="10.00">ccf/crypto/base64.h</text>
</a>
</g>
</g>
<!-- Node2&#45;&gt;Node3 -->
<g id="edge2" class="edge">
<title>Node2&#45;&gt;Node3</title>
<path fill="none" stroke="#63b8ff" d="M225,-164.9C205.89,-156.45 176.45,-142.85 152,-129 124.83,-113.61 95.06,-93.35 75.99,-79.9"/>
<polygon fill="#63b8ff" stroke="#63b8ff" points="77.97,-77.01 67.79,-74.07 73.91,-82.71 77.97,-77.01"/>
</g>
<!-- Node6 -->
<g id="node6" class="node">
<title>Node6</title>
<g id="a_node6"><a xlink:href="include_2ccf_2ds_2json__schema_8h.html" target="_top" xlink:title=" ">
<polygon fill="white" stroke="#666666" points="394.5,-129 273.5,-129 273.5,-110 394.5,-110 394.5,-129"/>
<text text-anchor="middle" x="334" y="-117" font-family="Helvetica,sans-Serif" font-size="10.00">ccf/ds/json_schema.h</text>
</a>
</g>
</g>
<!-- Node2&#45;&gt;Node6 -->
<g id="edge5" class="edge">
<title>Node2&#45;&gt;Node6</title>
<path fill="none" stroke="#63b8ff" d="M259.3,-164.98C273.1,-156.77 294.24,-144.18 310.51,-134.49"/>
<polygon fill="#63b8ff" stroke="#63b8ff" points="312.64,-137.29 319.44,-129.17 309.06,-131.28 312.64,-137.29"/>
</g>
<!-- Node2&#45;&gt;Node13 -->
<g id="edge16" class="edge">
<title>Node2&#45;&gt;Node13</title>
<path fill="none" stroke="#63b8ff" d="M244.1,-165C242.39,-152.12 237.74,-127.34 226,-110 217.76,-97.83 205.17,-87.4 194.01,-79.7"/>
<polygon fill="#63b8ff" stroke="#63b8ff" points="195.77,-76.67 185.48,-74.14 191.94,-82.53 195.77,-76.67"/>
</g>
<!-- Node15 -->
<g id="node15" class="node">
<title>Node15</title>
<g id="a_node15"><a xlink:title=" ">
<polygon fill="#e0e0e0" stroke="#999999" points="217,-129 161,-129 161,-110 217,-110 217,-129"/>
<text text-anchor="middle" x="189" y="-117" font-family="Helvetica,sans-Serif" font-size="10.00">sstream</text>
</a>
</g>
</g>
<!-- Node2&#45;&gt;Node15 -->
<g id="edge17" class="edge">
<title>Node2&#45;&gt;Node15</title>
<path fill="none" stroke="#63b8ff" d="M236,-164.98C227.81,-157.23 215.49,-145.58 205.53,-136.14"/>
<polygon fill="#63b8ff" stroke="#63b8ff" points="207.83,-133.5 198.16,-129.17 203.02,-138.59 207.83,-133.5"/>
</g>
<!-- Node4 -->
<g id="node4" class="node">
<title>Node4</title>
<g id="a_node4"><a xlink:title=" ">
<polygon fill="#e0e0e0" stroke="#999999" points="100,-19 56,-19 56,0 100,0 100,-19"/>
<text text-anchor="middle" x="78" y="-7" font-family="Helvetica,sans-Serif" font-size="10.00">string</text>
</a>
</g>
</g>
<!-- Node3&#45;&gt;Node4 -->
<g id="edge3" class="edge">
<title>Node3&#45;&gt;Node4</title>
<path fill="none" stroke="#63b8ff" d="M59.63,-54.75C62.58,-47.65 66.83,-37.4 70.51,-28.56"/>
<polygon fill="#63b8ff" stroke="#63b8ff" points="73.83,-29.67 74.43,-19.09 67.37,-26.98 73.83,-29.67"/>
</g>
<!-- Node5 -->
<g id="node5" class="node">
<title>Node5</title>
<g id="a_node5"><a xlink:title=" ">
<polygon fill="#e0e0e0" stroke="#999999" points="176.5,-19 129.5,-19 129.5,0 176.5,0 176.5,-19"/>
<text text-anchor="middle" x="153" y="-7" font-family="Helvetica,sans-Serif" font-size="10.00">vector</text>
</a>
</g>
</g>
<!-- Node3&#45;&gt;Node5 -->
<g id="edge4" class="edge">
<title>Node3&#45;&gt;Node5</title>
<path fill="none" stroke="#63b8ff" d="M71.58,-54.98C86.77,-46.69 110.1,-33.94 127.9,-24.22"/>
<polygon fill="#63b8ff" stroke="#63b8ff" points="130.03,-27.04 137.13,-19.17 126.68,-20.89 130.03,-27.04"/>
</g>
<!-- Node7 -->
<g id="node7" class="node">
<title>Node7</title>
<g id="a_node7"><a xlink:href="nonstd_8h.html" target="_top" xlink:title=" ">
<polygon fill="white" stroke="#666666" points="446,-74 356,-74 356,-55 446,-55 446,-74"/>
<text text-anchor="middle" x="401" y="-62" font-family="Helvetica,sans-Serif" font-size="10.00">ccf/ds/nonstd.h</text>
</a>
</g>
</g>
<!-- Node6&#45;&gt;Node7 -->
<g id="edge6" class="edge">
<title>Node6&#45;&gt;Node7</title>
<path fill="none" stroke="#63b8ff" d="M344.76,-109.98C354.77,-102.07 369.89,-90.11 381.93,-80.58"/>
<polygon fill="#63b8ff" stroke="#63b8ff" points="384.37,-83.12 390.04,-74.17 380.03,-77.63 384.37,-83.12"/>
</g>
<!-- Node6&#45;&gt;Node13 -->
<g id="edge14" class="edge">
<title>Node6&#45;&gt;Node13</title>
<path fill="none" stroke="#63b8ff" d="M307.65,-109.98C280.24,-101.13 237.11,-87.19 206.44,-77.28"/>
<polygon fill="#63b8ff" stroke="#63b8ff" points="207.15,-73.83 196.56,-74.08 205,-80.49 207.15,-73.83"/>
</g>
<!-- Node14 -->
<g id="node14" class="node">
<title>Node14</title>
<g id="a_node14"><a xlink:title=" ">
<polygon fill="#e0e0e0" stroke="#999999" points="338,-74 228,-74 228,-55 338,-55 338,-74"/>
<text text-anchor="middle" x="283" y="-62" font-family="Helvetica,sans-Serif" font-size="10.00">nlohmann/json.hpp</text>
</a>
</g>
</g>
<!-- Node6&#45;&gt;Node14 -->
<g id="edge15" class="edge">
<title>Node6&#45;&gt;Node14</title>
<path fill="none" stroke="#63b8ff" d="M325.58,-109.75C318.23,-102.11 307.37,-90.82 298.46,-81.56"/>
<polygon fill="#63b8ff" stroke="#63b8ff" points="300.72,-78.87 291.26,-74.09 295.68,-83.72 300.72,-78.87"/>
</g>
<!-- Node7&#45;&gt;Node4 -->
<g id="edge10" class="edge">
<title>Node7&#45;&gt;Node4</title>
<path fill="none" stroke="#63b8ff" d="M355.85,-56.37C279.61,-44.32 132.45,-21.04 121,-19 117.52,-18.38 113.89,-17.71 110.28,-17.02"/>
<polygon fill="#63b8ff" stroke="#63b8ff" points="110.77,-13.55 100.29,-15.07 109.43,-20.42 110.77,-13.55"/>
</g>
<!-- Node7&#45;&gt;Node5 -->
<g id="edge13" class="edge">
<title>Node7&#45;&gt;Node5</title>
<path fill="none" stroke="#63b8ff" d="M360.53,-54.94C318.42,-46.03 250.57,-31.62 192,-19 190.28,-18.63 188.51,-18.25 186.73,-17.86"/>
<polygon fill="#63b8ff" stroke="#63b8ff" points="187.02,-14.34 176.51,-15.64 185.54,-21.18 187.02,-14.34"/>
</g>
<!-- Node8 -->
<g id="node8" class="node">
<title>Node8</title>
<g id="a_node8"><a xlink:title=" ">
<polygon fill="#e0e0e0" stroke="#999999" points="352,-19 288,-19 288,0 352,0 352,-19"/>
<text text-anchor="middle" x="320" y="-7" font-family="Helvetica,sans-Serif" font-size="10.00">algorithm</text>
</a>
</g>
</g>
<!-- Node7&#45;&gt;Node8 -->
<g id="edge7" class="edge">
<title>Node7&#45;&gt;Node8</title>
<path fill="none" stroke="#63b8ff" d="M387.99,-54.98C375.54,-46.84 356.54,-34.41 341.79,-24.76"/>
<polygon fill="#63b8ff" stroke="#63b8ff" points="343.54,-21.72 333.25,-19.17 339.7,-27.57 343.54,-21.72"/>
</g>
<!-- Node7&#45;&gt;Node9 -->
<g id="edge8" class="edge">
<title>Node7&#45;&gt;Node9</title>
<path fill="none" stroke="#63b8ff" d="M424.94,-54.98C450.44,-45.92 490.89,-31.53 518.85,-21.58"/>
<polygon fill="#63b8ff" stroke="#63b8ff" points="520.29,-24.78 528.54,-18.13 517.94,-18.19 520.29,-24.78"/>
</g>
<!-- Node10 -->
<g id="node10" class="node">
<title>Node10</title>
<g id="a_node10"><a xlink:title=" ">
<polygon fill="#e0e0e0" stroke="#999999" points="419.5,-19 370.5,-19 370.5,0 419.5,0 419.5,-19"/>
<text text-anchor="middle" x="395" y="-7" font-family="Helvetica,sans-Serif" font-size="10.00">cctype</text>
</a>
</g>
</g>
<!-- Node7&#45;&gt;Node10 -->
<g id="edge9" class="edge">
<title>Node7&#45;&gt;Node10</title>
<path fill="none" stroke="#63b8ff" d="M400.01,-54.75C399.22,-47.8 398.1,-37.85 397.11,-29.13"/>
<polygon fill="#63b8ff" stroke="#63b8ff" points="400.58,-28.63 395.97,-19.09 393.62,-29.42 400.58,-28.63"/>
</g>
<!-- Node11 -->
<g id="node11" class="node">
<title>Node11</title>
<g id="a_node11"><a xlink:title=" ">
<polygon fill="#e0e0e0" stroke="#999999" points="510.5,-19 437.5,-19 437.5,0 510.5,0 510.5,-19"/>
<text text-anchor="middle" x="474" y="-7" font-family="Helvetica,sans-Serif" font-size="10.00">string_view</text>
</a>
</g>
</g>
<!-- Node7&#45;&gt;Node11 -->
<g id="edge11" class="edge">
<title>Node7&#45;&gt;Node11</title>
<path fill="none" stroke="#63b8ff" d="M412.73,-54.98C423.73,-47 440.42,-34.88 453.6,-25.31"/>
<polygon fill="#63b8ff" stroke="#63b8ff" points="456.02,-27.88 462.06,-19.17 451.91,-22.21 456.02,-27.88"/>
</g>
<!-- Node12 -->
<g id="node12" class="node">
<title>Node12</title>
<g id="a_node12"><a xlink:title=" ">
<polygon fill="#e0e0e0" stroke="#999999" points="269.5,-19 200.5,-19 200.5,0 269.5,0 269.5,-19"/>
<text text-anchor="middle" x="235" y="-7" font-family="Helvetica,sans-Serif" font-size="10.00">type_traits</text>
</a>
</g>
</g>
<!-- Node7&#45;&gt;Node12 -->
<g id="edge12" class="edge">
<title>Node7&#45;&gt;Node12</title>
<path fill="none" stroke="#63b8ff" d="M374.33,-54.98C346.46,-46.09 302.55,-32.07 271.48,-22.15"/>
<polygon fill="#63b8ff" stroke="#63b8ff" points="272.47,-18.79 261.88,-19.08 270.34,-25.46 272.47,-18.79"/>
</g>
</g>
</svg>
