<?xml version="1.0" encoding="UTF-8" standalone="no"?>
<!DOCTYPE svg PUBLIC "-//W3C//DTD SVG 1.1//EN"
 "http://www.w3.org/Graphics/SVG/1.1/DTD/svg11.dtd">
<!-- Generated by graphviz version 2.43.0 (0)
 -->
<!-- Title: src/service/tables/signatures.h Pages: 1 -->
<!--zoomable 643 -->
<svg id="main" version="1.1" xmlns="http://www.w3.org/2000/svg" xmlns:xlink="http://www.w3.org/1999/xlink" xml:space="preserve" onload="init(evt)">
<style type="text/css"><![CDATA[
.edge:hover path { stroke: red; }
.edge:hover polygon { stroke: red; fill: red; }
]]></style>
<script type="text/javascript"><![CDATA[
var edges = document.getElementsByTagName('g');
if (edges && edges.length) {
  for (var i=0;i<edges.length;i++) {
    if (edges[i].id.substr(0,4)=='edge') {
      edges[i].setAttribute('class','edge');
    }
  }
}
]]></script>
        <defs>
                <circle id="rim" cx="0" cy="0" r="7"/>
                <circle id="rim2" cx="0" cy="0" r="3.5"/>
                <g id="zoomPlus">
                        <use xlink:href="#rim" fill="#404040">
                                <set attributeName="fill" to="#808080" begin="zoomplus.mouseover" end="zoomplus.mouseout"/>
                        </use>
                        <path d="M-4,0h8M0,-4v8" fill="none" stroke="white" stroke-width="1.5" pointer-events="none"/>
                </g>
                <g id="zoomMin">
                        <use xlink:href="#rim" fill="#404040">
                                <set attributeName="fill" to="#808080" begin="zoomminus.mouseover" end="zoomminus.mouseout"/>
                        </use>
                        <path d="M-4,0h8" fill="none" stroke="white" stroke-width="1.5" pointer-events="none"/>
                </g>
                <g id="dirArrow">
                        <path fill="none" stroke="white" stroke-width="1.5" d="M0,-3.0v7 M-2.5,-0.5L0,-3.0L2.5,-0.5"/>
                </g>
               <g id="resetDef">
                       <use xlink:href="#rim2" fill="#404040">
                               <set attributeName="fill" to="#808080" begin="reset.mouseover" end="reset.mouseout"/>
                       </use>
               </g>
        </defs>

<script type="text/javascript">
var viewWidth = 2511;
var viewHeight = 643;
var sectionId = 'dynsection-1';
</script>
<script xlink:href="svgpan.js"/>
<svg id="graph" class="graph">
<g id="viewport">
<title>src/service/tables/signatures.h</title>
<!-- Node1 -->
<g id="node1" class="node">
<title>Node1</title>
<g id="a_node1"><a xlink:title=" ">
<polygon fill="#999999" stroke="#666666" points="950,-635 848,-635 848,-605 950,-605 950,-635"/>
<text text-anchor="start" x="856" y="-623" font-family="Helvetica,sans-Serif" font-size="10.00">src/service/tables</text>
<text text-anchor="middle" x="899" y="-612" font-family="Helvetica,sans-Serif" font-size="10.00">/signatures.h</text>
</a>
</g>
</g>
<!-- Node2 -->
<g id="node2" class="node">
<title>Node2</title>
<g id="a_node2"><a xlink:href="raft_8h.html" target="_top" xlink:title=" ">
<polygon fill="white" stroke="#666666" points="963.5,-514 834.5,-514 834.5,-495 963.5,-495 963.5,-514"/>
<text text-anchor="middle" x="899" y="-502" font-family="Helvetica,sans-Serif" font-size="10.00">src/consensus/aft/raft.h</text>
</a>
</g>
</g>
<!-- Node1&#45;&gt;Node2 -->
<g id="edge1" class="edge">
<title>Node1&#45;&gt;Node2</title>
<path fill="none" stroke="#63b8ff" d="M899,-594.35C899,-569.09 899,-531.18 899,-514.23"/>
<polygon fill="#63b8ff" stroke="#63b8ff" points="895.5,-594.63 899,-604.63 902.5,-594.63 895.5,-594.63"/>
</g>
<!-- Node7 -->
<g id="node7" class="node">
<title>Node7</title>
<g id="a_node7"><a xlink:href="deserialise_8h.html" target="_top" xlink:title=" ">
<polygon fill="white" stroke="#666666" points="855.5,-569 744.5,-569 744.5,-550 855.5,-550 855.5,-569"/>
<text text-anchor="middle" x="800" y="-557" font-family="Helvetica,sans-Serif" font-size="10.00">src/kv/deserialise.h</text>
</a>
</g>
</g>
<!-- Node1&#45;&gt;Node7 -->
<g id="edge7" class="edge">
<title>Node1&#45;&gt;Node7</title>
<path fill="none" stroke="#63b8ff" d="M866.48,-599.78C848.96,-589.43 828.22,-577.18 814.62,-569.14"/>
<polygon fill="#63b8ff" stroke="#63b8ff" points="864.9,-602.91 875.29,-604.99 868.46,-596.89 864.9,-602.91"/>
</g>
<!-- Node13 -->
<g id="node13" class="node">
<title>Node13</title>
<g id="a_node13"><a xlink:href="history_8h.html" target="_top" xlink:title=" ">
<polygon fill="white" stroke="#666666" points="460,-453.5 358,-453.5 358,-434.5 460,-434.5 460,-453.5"/>
<text text-anchor="middle" x="409" y="-441.5" font-family="Helvetica,sans-Serif" font-size="10.00">src/node/history.h</text>
</a>
</g>
</g>
<!-- Node1&#45;&gt;Node13 -->
<g id="edge74" class="edge">
<title>Node1&#45;&gt;Node13</title>
<path fill="none" stroke="#63b8ff" d="M840.03,-602.07C808.67,-592.8 769.56,-580.83 735,-569 618.7,-529.2 481.85,-474.55 430.18,-453.63"/>
<polygon fill="#63b8ff" stroke="#63b8ff" points="839.34,-605.52 849.93,-604.98 841.32,-598.8 839.34,-605.52"/>
</g>
<!-- Node26 -->
<g id="node26" class="node">
<title>Node26</title>
<g id="a_node26"><a xlink:href="network__tables_8h.html" target="_top" xlink:title=" ">
<polygon fill="white" stroke="#666666" points="1206,-459 1094,-459 1094,-429 1206,-429 1206,-459"/>
<text text-anchor="start" x="1102" y="-447" font-family="Helvetica,sans-Serif" font-size="10.00">src/service/network</text>
<text text-anchor="middle" x="1150" y="-436" font-family="Helvetica,sans-Serif" font-size="10.00">_tables.h</text>
</a>
</g>
</g>
<!-- Node1&#45;&gt;Node26 -->
<g id="edge77" class="edge">
<title>Node1&#45;&gt;Node26</title>
<path fill="none" stroke="#63b8ff" d="M927.87,-598.98C979.17,-563.42 1084.99,-490.07 1129.53,-459.19"/>
<polygon fill="#63b8ff" stroke="#63b8ff" points="925.76,-596.19 919.54,-604.76 929.75,-601.94 925.76,-596.19"/>
</g>
<!-- Node40 -->
<g id="node40" class="node">
<title>Node40</title>
<g id="a_node40"><a xlink:href="src_2node_2hooks_8h.html" target="_top" xlink:title=" ">
<polygon fill="white" stroke="#666666" points="1474.5,-569 1375.5,-569 1375.5,-550 1474.5,-550 1474.5,-569"/>
<text text-anchor="middle" x="1425" y="-557" font-family="Helvetica,sans-Serif" font-size="10.00">src/node/hooks.h</text>
</a>
</g>
</g>
<!-- Node1&#45;&gt;Node40 -->
<g id="edge75" class="edge">
<title>Node1&#45;&gt;Node40</title>
<path fill="none" stroke="#63b8ff" d="M960.55,-612.15C1065.9,-600.44 1278.74,-576.77 1375.33,-566.02"/>
<polygon fill="#63b8ff" stroke="#63b8ff" points="959.94,-608.7 950.39,-613.28 960.72,-615.66 959.94,-608.7"/>
</g>
<!-- Node3 -->
<g id="node3" class="node">
<title>Node3</title>
<g id="a_node3"><a xlink:href="node__state_8h.html" target="_top" xlink:title=" ">
<polygon fill="white" stroke="#666666" points="1077,-195 953,-195 953,-176 1077,-176 1077,-195"/>
<text text-anchor="middle" x="1015" y="-183" font-family="Helvetica,sans-Serif" font-size="10.00">src/node/node_state.h</text>
</a>
</g>
</g>
<!-- Node2&#45;&gt;Node3 -->
<g id="edge2" class="edge">
<title>Node2&#45;&gt;Node3</title>
<path fill="none" stroke="#63b8ff" d="M887.56,-486.37C876.6,-470.58 859.09,-446.95 841,-429 822.32,-410.47 809.28,-414.42 794,-393 768.59,-357.36 760.7,-339.29 772,-297 780.74,-264.3 782.67,-250.97 810,-231 851.31,-200.81 909.03,-190.35 952.7,-187.06"/>
<polygon fill="#63b8ff" stroke="#63b8ff" points="884.69,-488.36 893.22,-494.65 890.47,-484.42 884.69,-488.36"/>
</g>
<!-- Node4 -->
<g id="node4" class="node">
<title>Node4</title>
<g id="a_node4"><a xlink:href="enclave_2enclave_8h.html" target="_top" xlink:title=" ">
<polygon fill="white" stroke="#666666" points="1117,-74 995,-74 995,-55 1117,-55 1117,-74"/>
<text text-anchor="middle" x="1056" y="-62" font-family="Helvetica,sans-Serif" font-size="10.00">src/enclave/enclave.h</text>
</a>
</g>
</g>
<!-- Node3&#45;&gt;Node4 -->
<g id="edge3" class="edge">
<title>Node3&#45;&gt;Node4</title>
<path fill="none" stroke="#63b8ff" d="M995.64,-168.82C987.64,-161.09 979.24,-151.06 975,-140 970.23,-127.55 968.21,-121.48 975,-110 985.7,-91.91 1006.66,-80.68 1024.58,-74.03"/>
<polygon fill="#63b8ff" stroke="#63b8ff" points="993.58,-171.67 1003.36,-175.73 998.25,-166.45 993.58,-171.67"/>
</g>
<!-- Node6 -->
<g id="node6" class="node">
<title>Node6</title>
<g id="a_node6"><a xlink:href="gov__effects_8h.html" target="_top" xlink:title=" ">
<polygon fill="white" stroke="#666666" points="1128,-134.5 984,-134.5 984,-115.5 1128,-115.5 1128,-134.5"/>
<text text-anchor="middle" x="1056" y="-122.5" font-family="Helvetica,sans-Serif" font-size="10.00">src/node/rpc/gov_effects.h</text>
</a>
</g>
</g>
<!-- Node3&#45;&gt;Node6 -->
<g id="edge5" class="edge">
<title>Node3&#45;&gt;Node6</title>
<path fill="none" stroke="#63b8ff" d="M1026.82,-167.63C1034.38,-156.85 1043.86,-143.32 1049.93,-134.67"/>
<polygon fill="#63b8ff" stroke="#63b8ff" points="1023.92,-165.67 1021.05,-175.87 1029.66,-169.69 1023.92,-165.67"/>
</g>
<!-- Node5 -->
<g id="node5" class="node">
<title>Node5</title>
<g id="a_node5"><a xlink:href="enclave_2main_8cpp.html" target="_top" xlink:title=" ">
<polygon fill="white" stroke="#666666" points="1116,-19 996,-19 996,0 1116,0 1116,-19"/>
<text text-anchor="middle" x="1056" y="-7" font-family="Helvetica,sans-Serif" font-size="10.00">src/enclave/main.cpp</text>
</a>
</g>
</g>
<!-- Node4&#45;&gt;Node5 -->
<g id="edge4" class="edge">
<title>Node4&#45;&gt;Node5</title>
<path fill="none" stroke="#63b8ff" d="M1056,-44.66C1056,-35.93 1056,-25.99 1056,-19.09"/>
<polygon fill="#63b8ff" stroke="#63b8ff" points="1052.5,-44.75 1056,-54.75 1059.5,-44.75 1052.5,-44.75"/>
</g>
<!-- Node6&#45;&gt;Node4 -->
<g id="edge6" class="edge">
<title>Node6&#45;&gt;Node4</title>
<path fill="none" stroke="#63b8ff" d="M1056,-105.16C1056,-94.74 1056,-82.3 1056,-74.17"/>
<polygon fill="#63b8ff" stroke="#63b8ff" points="1052.5,-105.37 1056,-115.37 1059.5,-105.37 1052.5,-105.37"/>
</g>
<!-- Node8 -->
<g id="node8" class="node">
<title>Node8</title>
<g id="a_node8"><a xlink:href="store_8h.html" target="_top" xlink:title=" ">
<polygon fill="white" stroke="#666666" points="736.5,-514 653.5,-514 653.5,-495 736.5,-495 736.5,-514"/>
<text text-anchor="middle" x="695" y="-502" font-family="Helvetica,sans-Serif" font-size="10.00">src/kv/store.h</text>
</a>
</g>
</g>
<!-- Node7&#45;&gt;Node8 -->
<g id="edge8" class="edge">
<title>Node7&#45;&gt;Node8</title>
<path fill="none" stroke="#63b8ff" d="M773.98,-545.37C754.7,-535.63 728.95,-522.64 712.18,-514.17"/>
<polygon fill="#63b8ff" stroke="#63b8ff" points="772.63,-548.6 783.13,-549.98 775.78,-542.35 772.63,-548.6"/>
</g>
<!-- Node9 -->
<g id="node9" class="node">
<title>Node9</title>
<g id="a_node9"><a xlink:href="indexer_8h.html" target="_top" xlink:title=" ">
<polygon fill="white" stroke="#666666" points="832.5,-453.5 709.5,-453.5 709.5,-434.5 832.5,-434.5 832.5,-453.5"/>
<text text-anchor="middle" x="771" y="-441.5" font-family="Helvetica,sans-Serif" font-size="10.00">src/indexing/indexer.h</text>
</a>
</g>
</g>
<!-- Node8&#45;&gt;Node9 -->
<g id="edge9" class="edge">
<title>Node8&#45;&gt;Node9</title>
<path fill="none" stroke="#63b8ff" d="M714.44,-488.54C728.79,-477.49 747.82,-462.84 759.74,-453.67"/>
<polygon fill="#63b8ff" stroke="#63b8ff" points="712,-485.99 706.21,-494.87 716.27,-491.54 712,-485.99"/>
</g>
<!-- Node10 -->
<g id="node10" class="node">
<title>Node10</title>
<g id="a_node10"><a xlink:href="visit__each__entry__in__map_8cpp.html" target="_top" xlink:title=" ">
<polygon fill="white" stroke="#666666" points="691.5,-459 530.5,-459 530.5,-429 691.5,-429 691.5,-459"/>
<text text-anchor="start" x="538.5" y="-447" font-family="Helvetica,sans-Serif" font-size="10.00">src/indexing/strategies</text>
<text text-anchor="middle" x="611" y="-436" font-family="Helvetica,sans-Serif" font-size="10.00">/visit_each_entry_in_map.cpp</text>
</a>
</g>
</g>
<!-- Node8&#45;&gt;Node10 -->
<g id="edge11" class="edge">
<title>Node8&#45;&gt;Node10</title>
<path fill="none" stroke="#63b8ff" d="M674.22,-489.03C661.12,-479.9 644.27,-468.17 631.27,-459.11"/>
<polygon fill="#63b8ff" stroke="#63b8ff" points="672.4,-492.03 682.61,-494.87 676.4,-486.28 672.4,-492.03"/>
</g>
<!-- Node11 -->
<g id="node11" class="node">
<title>Node11</title>
<g id="a_node11"><a xlink:href="historical__queries_8h.html" target="_top" xlink:title=" ">
<polygon fill="white" stroke="#666666" points="106,-327 0,-327 0,-297 106,-297 106,-327"/>
<text text-anchor="start" x="8" y="-315" font-family="Helvetica,sans-Serif" font-size="10.00">src/node/historical</text>
<text text-anchor="middle" x="53" y="-304" font-family="Helvetica,sans-Serif" font-size="10.00">_queries.h</text>
</a>
</g>
</g>
<!-- Node8&#45;&gt;Node11 -->
<g id="edge12" class="edge">
<title>Node8&#45;&gt;Node11</title>
<path fill="none" stroke="#63b8ff" d="M643.36,-500.59C575.13,-495.9 451.59,-484.47 349,-459 267.92,-438.87 247.35,-431.09 173,-393 134.89,-373.48 94.15,-344.34 71.3,-327.15"/>
<polygon fill="#63b8ff" stroke="#63b8ff" points="643.21,-504.08 653.42,-501.26 643.67,-497.1 643.21,-504.08"/>
</g>
<!-- Node8&#45;&gt;Node13 -->
<g id="edge16" class="edge">
<title>Node8&#45;&gt;Node13</title>
<path fill="none" stroke="#63b8ff" d="M643.48,-492.96C588.28,-481.67 501.71,-463.96 450.64,-453.52"/>
<polygon fill="#63b8ff" stroke="#63b8ff" points="642.91,-496.42 653.41,-494.99 644.32,-489.56 642.91,-496.42"/>
</g>
<!-- Node15 -->
<g id="node15" class="node">
<title>Node15</title>
<g id="a_node15"><a xlink:href="snapshotter_8h.html" target="_top" xlink:title=" ">
<polygon fill="white" stroke="#666666" points="619.5,-255.5 492.5,-255.5 492.5,-236.5 619.5,-236.5 619.5,-255.5"/>
<text text-anchor="middle" x="556" y="-243.5" font-family="Helvetica,sans-Serif" font-size="10.00">src/node/snapshotter.h</text>
</a>
</g>
</g>
<!-- Node8&#45;&gt;Node15 -->
<g id="edge39" class="edge">
<title>Node8&#45;&gt;Node15</title>
<path fill="none" stroke="#63b8ff" d="M643.08,-497.25C597.41,-490.56 535.93,-478.23 521,-459 490.37,-419.55 565.57,-409 591,-327 594.95,-314.27 595.01,-309.72 591,-297 585.84,-280.63 573.19,-264.95 564.6,-255.65"/>
<polygon fill="#63b8ff" stroke="#63b8ff" points="642.76,-500.74 653.15,-498.67 643.74,-493.81 642.76,-500.74"/>
</g>
<!-- Node21 -->
<g id="node21" class="node">
<title>Node21</title>
<g id="a_node21"><a xlink:href="frontend_8h.html" target="_top" xlink:title=" ">
<polygon fill="white" stroke="#666666" points="932.5,-387.5 803.5,-387.5 803.5,-368.5 932.5,-368.5 932.5,-387.5"/>
<text text-anchor="middle" x="868" y="-375.5" font-family="Helvetica,sans-Serif" font-size="10.00">src/node/rpc/frontend.h</text>
</a>
</g>
</g>
<!-- Node8&#45;&gt;Node21 -->
<g id="edge29" class="edge">
<title>Node8&#45;&gt;Node21</title>
<path fill="none" stroke="#63b8ff" d="M746.87,-499.45C777.83,-494.45 815.89,-483.38 841,-459 861.19,-439.4 866.28,-404.2 867.57,-387.82"/>
<polygon fill="#63b8ff" stroke="#63b8ff" points="746.06,-496.03 736.66,-500.92 747.06,-502.96 746.06,-496.03"/>
</g>
<!-- Node8&#45;&gt;Node26 -->
<g id="edge40" class="edge">
<title>Node8&#45;&gt;Node26</title>
<path fill="none" stroke="#63b8ff" d="M746.65,-496.86C832.77,-485.79 1005.02,-463.64 1093.97,-452.2"/>
<polygon fill="#63b8ff" stroke="#63b8ff" points="746.06,-493.41 736.58,-498.15 746.95,-500.35 746.06,-493.41"/>
</g>
<!-- Node9&#45;&gt;Node3 -->
<g id="edge10" class="edge">
<title>Node9&#45;&gt;Node3</title>
<path fill="none" stroke="#63b8ff" d="M752.27,-427.98C741.1,-418.55 727,-405.78 716,-393 667.34,-336.44 622.75,-287.05 672,-231 690.21,-210.28 858.99,-196.38 952.81,-190.18"/>
<polygon fill="#63b8ff" stroke="#63b8ff" points="750.21,-430.81 760.14,-434.48 754.67,-425.42 750.21,-430.81"/>
</g>
<!-- Node11&#45;&gt;Node4 -->
<g id="edge13" class="edge">
<title>Node11&#45;&gt;Node4</title>
<path fill="none" stroke="#63b8ff" d="M58.13,-286.93C62.79,-269.77 71.1,-246.99 85,-231 162.58,-141.74 207.39,-139.16 322,-110 448.66,-77.77 842.24,-68.63 994.76,-66.26"/>
<polygon fill="#63b8ff" stroke="#63b8ff" points="54.7,-286.23 55.69,-296.78 61.5,-287.92 54.7,-286.23"/>
</g>
<!-- Node12 -->
<g id="node12" class="node">
<title>Node12</title>
<g id="a_node12"><a xlink:href="historical__transaction__fetcher_8h.html" target="_top" xlink:title=" ">
<polygon fill="white" stroke="#666666" points="456.5,-140 331.5,-140 331.5,-110 456.5,-110 456.5,-140"/>
<text text-anchor="start" x="339.5" y="-128" font-family="Helvetica,sans-Serif" font-size="10.00">src/indexing/historical</text>
<text text-anchor="middle" x="394" y="-117" font-family="Helvetica,sans-Serif" font-size="10.00">_transaction_fetcher.h</text>
</a>
</g>
</g>
<!-- Node11&#45;&gt;Node12 -->
<g id="edge14" class="edge">
<title>Node11&#45;&gt;Node12</title>
<path fill="none" stroke="#63b8ff" d="M67.23,-288.37C79.37,-270.66 98.27,-246.5 120,-231 185.21,-184.47 273.69,-155.48 332.25,-140.05"/>
<polygon fill="#63b8ff" stroke="#63b8ff" points="64.13,-286.7 61.52,-296.97 69.97,-290.57 64.13,-286.7"/>
</g>
<!-- Node12&#45;&gt;Node4 -->
<g id="edge15" class="edge">
<title>Node12&#45;&gt;Node4</title>
<path fill="none" stroke="#63b8ff" d="M466.54,-117.59C597.82,-105.99 872.54,-81.71 994.92,-70.9"/>
<polygon fill="#63b8ff" stroke="#63b8ff" points="466.23,-114.1 456.58,-118.47 466.85,-121.08 466.23,-114.1"/>
</g>
<!-- Node13&#45;&gt;Node3 -->
<g id="edge18" class="edge">
<title>Node13&#45;&gt;Node3</title>
<path fill="none" stroke="#63b8ff" d="M406.71,-424.03C404.07,-395.21 402.21,-339.29 421,-297 437.34,-260.22 446.76,-248.51 483,-231 564.37,-191.69 830.45,-186.45 952.64,-186.18"/>
<polygon fill="#63b8ff" stroke="#63b8ff" points="403.27,-424.71 407.8,-434.29 410.23,-423.98 403.27,-424.71"/>
</g>
<!-- Node13&#45;&gt;Node11 -->
<g id="edge17" class="edge">
<title>Node13&#45;&gt;Node11</title>
<path fill="none" stroke="#63b8ff" d="M370.82,-431.46C339.3,-421.75 293.49,-407.21 254,-393 194.45,-371.57 126.21,-343.69 86.52,-327.14"/>
<polygon fill="#63b8ff" stroke="#63b8ff" points="369.94,-434.85 380.52,-434.44 371.99,-428.16 369.94,-434.85"/>
</g>
<!-- Node14 -->
<g id="node14" class="node">
<title>Node14</title>
<g id="a_node14"><a xlink:href="snapshot__serdes_8h.html" target="_top" xlink:title=" ">
<polygon fill="white" stroke="#666666" points="582,-321.5 430,-321.5 430,-302.5 582,-302.5 582,-321.5"/>
<text text-anchor="middle" x="506" y="-309.5" font-family="Helvetica,sans-Serif" font-size="10.00">src/node/snapshot_serdes.h</text>
</a>
</g>
</g>
<!-- Node13&#45;&gt;Node14 -->
<g id="edge19" class="edge">
<title>Node13&#45;&gt;Node14</title>
<path fill="none" stroke="#63b8ff" d="M421.61,-426.1C442.5,-398.1 483.57,-343.06 499.48,-321.73"/>
<polygon fill="#63b8ff" stroke="#63b8ff" points="418.54,-424.36 415.36,-434.47 424.15,-428.55 418.54,-424.36"/>
</g>
<!-- Node16 -->
<g id="node16" class="node">
<title>Node16</title>
<g id="a_node16"><a xlink:href="tx__receipt__impl_8h.html" target="_top" xlink:title=" ">
<polygon fill="white" stroke="#666666" points="373,-393 263,-393 263,-363 373,-363 373,-393"/>
<text text-anchor="start" x="271" y="-381" font-family="Helvetica,sans-Serif" font-size="10.00">src/node/tx_receipt</text>
<text text-anchor="middle" x="318" y="-370" font-family="Helvetica,sans-Serif" font-size="10.00">_impl.h</text>
</a>
</g>
</g>
<!-- Node13&#45;&gt;Node16 -->
<g id="edge22" class="edge">
<title>Node13&#45;&gt;Node16</title>
<path fill="none" stroke="#63b8ff" d="M388.55,-428.62C373.47,-418.01 353.06,-403.66 338.07,-393.12"/>
<polygon fill="#63b8ff" stroke="#63b8ff" points="386.53,-431.48 396.73,-434.37 390.56,-425.75 386.53,-431.48"/>
</g>
<!-- Node14&#45;&gt;Node15 -->
<g id="edge20" class="edge">
<title>Node14&#45;&gt;Node15</title>
<path fill="none" stroke="#63b8ff" d="M519.07,-294.27C528.66,-281.99 541.31,-265.8 549.04,-255.91"/>
<polygon fill="#63b8ff" stroke="#63b8ff" points="516.14,-292.33 512.74,-302.37 521.66,-296.64 516.14,-292.33"/>
</g>
<!-- Node15&#45;&gt;Node3 -->
<g id="edge21" class="edge">
<title>Node15&#45;&gt;Node3</title>
<path fill="none" stroke="#63b8ff" d="M610.93,-234.7C618.67,-233.38 626.52,-232.11 634,-231 745.99,-214.43 877.26,-200.24 952.81,-192.58"/>
<polygon fill="#63b8ff" stroke="#63b8ff" points="610.13,-231.29 600.88,-236.46 611.33,-238.19 610.13,-231.29"/>
</g>
<!-- Node16&#45;&gt;Node11 -->
<g id="edge26" class="edge">
<title>Node16&#45;&gt;Node11</title>
<path fill="none" stroke="#63b8ff" d="M252.81,-361.25C207.76,-350.38 148.59,-336.08 106.35,-325.88"/>
<polygon fill="#63b8ff" stroke="#63b8ff" points="252.23,-364.72 262.77,-363.66 253.87,-357.91 252.23,-364.72"/>
</g>
<!-- Node16&#45;&gt;Node14 -->
<g id="edge28" class="edge">
<title>Node16&#45;&gt;Node14</title>
<path fill="none" stroke="#63b8ff" d="M369.18,-359.58C405.46,-347.23 452.57,-331.19 480.98,-321.52"/>
<polygon fill="#63b8ff" stroke="#63b8ff" points="367.6,-356.42 359.26,-362.95 369.85,-363.05 367.6,-356.42"/>
</g>
<!-- Node17 -->
<g id="node17" class="node">
<title>Node17</title>
<g id="a_node17"><a xlink:href="src_2apps_2js__v8_2tmpl_2receipt_8h.html" target="_top" xlink:title=" ">
<polygon fill="white" stroke="#666666" points="373.5,-327 262.5,-327 262.5,-297 373.5,-297 373.5,-327"/>
<text text-anchor="start" x="270.5" y="-315" font-family="Helvetica,sans-Serif" font-size="10.00">src/apps/js_v8/tmpl</text>
<text text-anchor="middle" x="318" y="-304" font-family="Helvetica,sans-Serif" font-size="10.00">/receipt.h</text>
</a>
</g>
</g>
<!-- Node16&#45;&gt;Node17 -->
<g id="edge23" class="edge">
<title>Node16&#45;&gt;Node17</title>
<path fill="none" stroke="#63b8ff" d="M318,-352.54C318,-343.96 318,-334.61 318,-327.16"/>
<polygon fill="#63b8ff" stroke="#63b8ff" points="314.5,-352.8 318,-362.8 321.5,-352.8 314.5,-352.8"/>
</g>
<!-- Node20 -->
<g id="node20" class="node">
<title>Node20</title>
<g id="a_node20"><a xlink:href="historical__queries__adapter_8cpp.html" target="_top" xlink:title=" ">
<polygon fill="white" stroke="#666666" points="244,-327 124,-327 124,-297 244,-297 244,-327"/>
<text text-anchor="start" x="132" y="-315" font-family="Helvetica,sans-Serif" font-size="10.00">src/node/historical</text>
<text text-anchor="middle" x="184" y="-304" font-family="Helvetica,sans-Serif" font-size="10.00">_queries_adapter.cpp</text>
</a>
</g>
</g>
<!-- Node16&#45;&gt;Node20 -->
<g id="edge27" class="edge">
<title>Node16&#45;&gt;Node20</title>
<path fill="none" stroke="#63b8ff" d="M279.29,-358.51C258.27,-348.47 232.7,-336.26 213.34,-327.01"/>
<polygon fill="#63b8ff" stroke="#63b8ff" points="278.06,-361.8 288.59,-362.95 281.08,-355.49 278.06,-361.8"/>
</g>
<!-- Node18 -->
<g id="node18" class="node">
<title>Node18</title>
<g id="a_node18"><a xlink:href="historical__state_8cpp.html" target="_top" xlink:title=" ">
<polygon fill="white" stroke="#666666" points="373.5,-261 258.5,-261 258.5,-231 373.5,-231 373.5,-261"/>
<text text-anchor="start" x="266.5" y="-249" font-family="Helvetica,sans-Serif" font-size="10.00">src/apps/js_v8/tmpl</text>
<text text-anchor="middle" x="316" y="-238" font-family="Helvetica,sans-Serif" font-size="10.00">/historical_state.cpp</text>
</a>
</g>
</g>
<!-- Node17&#45;&gt;Node18 -->
<g id="edge24" class="edge">
<title>Node17&#45;&gt;Node18</title>
<path fill="none" stroke="#63b8ff" d="M317.24,-286.54C316.97,-277.96 316.68,-268.61 316.44,-261.16"/>
<polygon fill="#63b8ff" stroke="#63b8ff" points="313.75,-286.91 317.56,-296.8 320.74,-286.69 313.75,-286.91"/>
</g>
<!-- Node19 -->
<g id="node19" class="node">
<title>Node19</title>
<g id="a_node19"><a xlink:href="apps_2js__v8_2tmpl_2receipt_8cpp.html" target="_top" xlink:title=" ">
<polygon fill="white" stroke="#666666" points="240.5,-261 129.5,-261 129.5,-231 240.5,-231 240.5,-261"/>
<text text-anchor="start" x="137.5" y="-249" font-family="Helvetica,sans-Serif" font-size="10.00">src/apps/js_v8/tmpl</text>
<text text-anchor="middle" x="185" y="-238" font-family="Helvetica,sans-Serif" font-size="10.00">/receipt.cpp</text>
</a>
</g>
</g>
<!-- Node17&#45;&gt;Node19 -->
<g id="edge25" class="edge">
<title>Node17&#45;&gt;Node19</title>
<path fill="none" stroke="#63b8ff" d="M279.58,-292.51C258.72,-282.47 233.33,-270.26 214.12,-261.01"/>
<polygon fill="#63b8ff" stroke="#63b8ff" points="278.28,-295.77 288.81,-296.95 281.32,-289.46 278.28,-295.77"/>
</g>
<!-- Node21&#45;&gt;Node3 -->
<g id="edge30" class="edge">
<title>Node21&#45;&gt;Node3</title>
<path fill="none" stroke="#63b8ff" d="M828.06,-364.44C810.35,-356.66 791.23,-344.68 781,-327 774.32,-315.46 773.86,-308.26 781,-297 820.32,-234.95 904.86,-207.09 960.83,-195.05"/>
<polygon fill="#63b8ff" stroke="#63b8ff" points="827.11,-367.84 837.69,-368.35 829.74,-361.35 827.11,-367.84"/>
</g>
<!-- Node22 -->
<g id="node22" class="node">
<title>Node22</title>
<g id="a_node22"><a xlink:href="member__frontend_8h.html" target="_top" xlink:title=" ">
<polygon fill="white" stroke="#666666" points="1559,-261 1439,-261 1439,-231 1559,-231 1559,-261"/>
<text text-anchor="start" x="1447" y="-249" font-family="Helvetica,sans-Serif" font-size="10.00">src/node/rpc/member</text>
<text text-anchor="middle" x="1499" y="-238" font-family="Helvetica,sans-Serif" font-size="10.00">_frontend.h</text>
</a>
</g>
</g>
<!-- Node21&#45;&gt;Node22 -->
<g id="edge31" class="edge">
<title>Node21&#45;&gt;Node22</title>
<path fill="none" stroke="#63b8ff" d="M889.82,-363.18C920.18,-344.7 977.48,-312.47 1031,-297 1173.28,-255.88 1348.69,-247.92 1438.99,-246.78"/>
<polygon fill="#63b8ff" stroke="#63b8ff" points="887.97,-360.21 881.3,-368.45 891.64,-366.17 887.97,-360.21"/>
</g>
<!-- Node23 -->
<g id="node23" class="node">
<title>Node23</title>
<g id="a_node23"><a xlink:href="node__frontend_8h.html" target="_top" xlink:title=" ">
<polygon fill="white" stroke="#666666" points="1198,-321.5 1040,-321.5 1040,-302.5 1198,-302.5 1198,-321.5"/>
<text text-anchor="middle" x="1119" y="-309.5" font-family="Helvetica,sans-Serif" font-size="10.00">src/node/rpc/node_frontend.h</text>
</a>
</g>
</g>
<!-- Node21&#45;&gt;Node23 -->
<g id="edge33" class="edge">
<title>Node21&#45;&gt;Node23</title>
<path fill="none" stroke="#63b8ff" d="M911.36,-365.94C960.85,-353.32 1040.72,-332.96 1085.61,-321.51"/>
<polygon fill="#63b8ff" stroke="#63b8ff" points="910.42,-362.57 901.59,-368.44 912.15,-369.36 910.42,-362.57"/>
</g>
<!-- Node25 -->
<g id="node25" class="node">
<title>Node25</title>
<g id="a_node25"><a xlink:href="user__frontend_8h.html" target="_top" xlink:title=" ">
<polygon fill="white" stroke="#666666" points="945.5,-321.5 790.5,-321.5 790.5,-302.5 945.5,-302.5 945.5,-321.5"/>
<text text-anchor="middle" x="868" y="-309.5" font-family="Helvetica,sans-Serif" font-size="10.00">src/node/rpc/user_frontend.h</text>
</a>
</g>
</g>
<!-- Node21&#45;&gt;Node25 -->
<g id="edge37" class="edge">
<title>Node21&#45;&gt;Node25</title>
<path fill="none" stroke="#63b8ff" d="M868,-358.08C868,-346.13 868,-331.22 868,-321.91"/>
<polygon fill="#63b8ff" stroke="#63b8ff" points="864.5,-358.37 868,-368.37 871.5,-358.37 864.5,-358.37"/>
</g>
<!-- Node22&#45;&gt;Node4 -->
<g id="edge32" class="edge">
<title>Node22&#45;&gt;Node4</title>
<path fill="none" stroke="#63b8ff" d="M1455.38,-226.82C1392.47,-200.67 1272.56,-151.05 1170,-110 1138.24,-97.29 1101.34,-82.96 1078.33,-74.08"/>
<polygon fill="#63b8ff" stroke="#63b8ff" points="1454.4,-230.2 1464.98,-230.81 1457.09,-223.74 1454.4,-230.2"/>
</g>
<!-- Node23&#45;&gt;Node4 -->
<g id="edge34" class="edge">
<title>Node23&#45;&gt;Node4</title>
<path fill="none" stroke="#63b8ff" d="M1127.34,-292.61C1142.93,-255.25 1171.91,-169.01 1137,-110 1126.3,-91.91 1105.34,-80.68 1087.42,-74.03"/>
<polygon fill="#63b8ff" stroke="#63b8ff" points="1123.96,-291.61 1123.19,-302.17 1130.38,-294.39 1123.96,-291.61"/>
</g>
<!-- Node24 -->
<g id="node24" class="node">
<title>Node24</title>
<g id="a_node24"><a xlink:href="jwt__key__auto__refresh_8h.html" target="_top" xlink:title=" ">
<polygon fill="white" stroke="#666666" points="1127.5,-261 1002.5,-261 1002.5,-231 1127.5,-231 1127.5,-261"/>
<text text-anchor="start" x="1010.5" y="-249" font-family="Helvetica,sans-Serif" font-size="10.00">src/node/jwt_key_auto</text>
<text text-anchor="middle" x="1065" y="-238" font-family="Helvetica,sans-Serif" font-size="10.00">_refresh.h</text>
</a>
</g>
</g>
<!-- Node23&#45;&gt;Node24 -->
<g id="edge35" class="edge">
<title>Node23&#45;&gt;Node24</title>
<path fill="none" stroke="#63b8ff" d="M1105.12,-294.54C1096.46,-284.28 1085.42,-271.2 1077.12,-261.36"/>
<polygon fill="#63b8ff" stroke="#63b8ff" points="1102.59,-296.98 1111.72,-302.37 1107.94,-292.47 1102.59,-296.98"/>
</g>
<!-- Node24&#45;&gt;Node3 -->
<g id="edge36" class="edge">
<title>Node24&#45;&gt;Node3</title>
<path fill="none" stroke="#63b8ff" d="M1046.27,-223.09C1038.01,-213.42 1028.77,-202.61 1022.49,-195.27"/>
<polygon fill="#63b8ff" stroke="#63b8ff" points="1043.74,-225.51 1052.9,-230.84 1049.06,-220.96 1043.74,-225.51"/>
</g>
<!-- Node25&#45;&gt;Node4 -->
<g id="edge38" class="edge">
<title>Node25&#45;&gt;Node4</title>
<path fill="none" stroke="#63b8ff" d="M872.81,-292.31C883.59,-253.71 913.09,-164.24 967,-110 984.05,-92.85 1009.07,-81.15 1028.24,-74.06"/>
<polygon fill="#63b8ff" stroke="#63b8ff" points="869.37,-291.61 870.16,-302.18 876.13,-293.43 869.37,-291.61"/>
</g>
<!-- Node27 -->
<g id="node27" class="node">
<title>Node27</title>
<g id="a_node27"><a xlink:href="kv__module__loader_8cpp.html" target="_top" xlink:title=" ">
<polygon fill="white" stroke="#666666" points="1524.5,-393 1381.5,-393 1381.5,-363 1524.5,-363 1524.5,-393"/>
<text text-anchor="start" x="1389.5" y="-381" font-family="Helvetica,sans-Serif" font-size="10.00">src/apps/js_v8/kv_module</text>
<text text-anchor="middle" x="1453" y="-370" font-family="Helvetica,sans-Serif" font-size="10.00">_loader.cpp</text>
</a>
</g>
</g>
<!-- Node26&#45;&gt;Node27 -->
<g id="edge41" class="edge">
<title>Node26&#45;&gt;Node27</title>
<path fill="none" stroke="#63b8ff" d="M1216.12,-429.03C1266.6,-418.37 1335.87,-403.74 1386.46,-393.06"/>
<polygon fill="#63b8ff" stroke="#63b8ff" points="1215.34,-425.62 1206.28,-431.11 1216.79,-432.47 1215.34,-425.62"/>
</g>
<!-- Node28 -->
<g id="node28" class="node">
<title>Node28</title>
<g id="a_node28"><a xlink:href="network__state_8h.html" target="_top" xlink:title=" ">
<polygon fill="white" stroke="#666666" points="1363,-387.5 1223,-387.5 1223,-368.5 1363,-368.5 1363,-387.5"/>
<text text-anchor="middle" x="1293" y="-375.5" font-family="Helvetica,sans-Serif" font-size="10.00">src/node/network_state.h</text>
</a>
</g>
</g>
<!-- Node26&#45;&gt;Node28 -->
<g id="edge42" class="edge">
<title>Node26&#45;&gt;Node28</title>
<path fill="none" stroke="#63b8ff" d="M1190.71,-424.78C1218.05,-412.54 1252.82,-396.98 1273.97,-387.52"/>
<polygon fill="#63b8ff" stroke="#63b8ff" points="1189.08,-421.68 1181.38,-428.95 1191.94,-428.06 1189.08,-421.68"/>
</g>
<!-- Node39 -->
<g id="node39" class="node">
<title>Node39</title>
<g id="a_node39"><a xlink:href="genesis__gen_8h.html" target="_top" xlink:title=" ">
<polygon fill="white" stroke="#666666" points="1205,-393 1095,-393 1095,-363 1205,-363 1205,-393"/>
<text text-anchor="start" x="1103" y="-381" font-family="Helvetica,sans-Serif" font-size="10.00">src/service/genesis</text>
<text text-anchor="middle" x="1150" y="-370" font-family="Helvetica,sans-Serif" font-size="10.00">_gen.h</text>
</a>
</g>
</g>
<!-- Node26&#45;&gt;Node39 -->
<g id="edge68" class="edge">
<title>Node26&#45;&gt;Node39</title>
<path fill="none" stroke="#63b8ff" d="M1150,-418.54C1150,-409.96 1150,-400.61 1150,-393.16"/>
<polygon fill="#63b8ff" stroke="#63b8ff" points="1146.5,-418.8 1150,-428.8 1153.5,-418.8 1146.5,-418.8"/>
</g>
<!-- Node28&#45;&gt;Node3 -->
<g id="edge59" class="edge">
<title>Node28&#45;&gt;Node3</title>
<path fill="none" stroke="#63b8ff" d="M1331.3,-364.56C1348.82,-356.73 1367.89,-344.68 1378,-327 1384.62,-315.43 1385.79,-307.82 1378,-297 1341.78,-246.67 1162.54,-210.61 1070.21,-195.05"/>
<polygon fill="#63b8ff" stroke="#63b8ff" points="1329.7,-361.43 1321.79,-368.48 1332.37,-367.9 1329.7,-361.43"/>
</g>
<!-- Node28&#45;&gt;Node4 -->
<g id="edge43" class="edge">
<title>Node28&#45;&gt;Node4</title>
<path fill="none" stroke="#63b8ff" d="M1345.64,-366.75C1354.42,-365.31 1363.45,-363.98 1372,-363 1667.81,-328.96 1744.98,-359.17 2041,-327 2248.17,-304.49 2503,-455.39 2503,-247 2503,-247 2503,-247 2503,-184.5 2503,-113.84 1392.67,-75.66 1117.25,-67.28"/>
<polygon fill="#63b8ff" stroke="#63b8ff" points="1344.77,-363.35 1335.5,-368.49 1345.95,-370.25 1344.77,-363.35"/>
</g>
<!-- Node28&#45;&gt;Node15 -->
<g id="edge67" class="edge">
<title>Node28&#45;&gt;Node15</title>
<path fill="none" stroke="#63b8ff" d="M1238.83,-366.72C1230.53,-365.34 1222.05,-364.05 1214,-363 1022.5,-338.13 969.77,-367.69 781,-327 701.97,-309.97 612.79,-272.47 574.78,-255.56"/>
<polygon fill="#63b8ff" stroke="#63b8ff" points="1238.37,-370.19 1248.82,-368.43 1239.56,-363.29 1238.37,-370.19"/>
</g>
<!-- Node28&#45;&gt;Node23 -->
<g id="edge60" class="edge">
<title>Node28&#45;&gt;Node23</title>
<path fill="none" stroke="#63b8ff" d="M1259.94,-364.84C1225.56,-352.2 1172.63,-332.73 1142.37,-321.6"/>
<polygon fill="#63b8ff" stroke="#63b8ff" points="1258.94,-368.2 1269.53,-368.37 1261.36,-361.63 1258.94,-368.2"/>
</g>
<!-- Node28&#45;&gt;Node25 -->
<g id="edge61" class="edge">
<title>Node28&#45;&gt;Node25</title>
<path fill="none" stroke="#63b8ff" d="M1236.18,-366.71C1228.73,-365.42 1221.19,-364.16 1214,-363 1115.43,-347.15 1000.67,-331.02 931.23,-321.52"/>
<polygon fill="#63b8ff" stroke="#63b8ff" points="1235.8,-370.19 1246.26,-368.46 1237,-363.3 1235.8,-370.19"/>
</g>
<!-- Node29 -->
<g id="node29" class="node">
<title>Node29</title>
<g id="a_node29"><a xlink:href="wrap_8h.html" target="_top" xlink:title=" ">
<polygon fill="white" stroke="#666666" points="2032,-321.5 1954,-321.5 1954,-302.5 2032,-302.5 2032,-321.5"/>
<text text-anchor="middle" x="1993" y="-309.5" font-family="Helvetica,sans-Serif" font-size="10.00">src/js/wrap.h</text>
</a>
</g>
</g>
<!-- Node28&#45;&gt;Node29 -->
<g id="edge44" class="edge">
<title>Node28&#45;&gt;Node29</title>
<path fill="none" stroke="#63b8ff" d="M1346.86,-366.75C1355.26,-365.36 1363.85,-364.05 1372,-363 1591.12,-334.83 1855.9,-319.78 1953.99,-314.85"/>
<polygon fill="#63b8ff" stroke="#63b8ff" points="1346.03,-363.34 1336.76,-368.48 1347.21,-370.24 1346.03,-363.34"/>
</g>
<!-- Node37 -->
<g id="node37" class="node">
<title>Node37</title>
<g id="a_node37"><a xlink:href="secret__broadcast_8h.html" target="_top" xlink:title=" ">
<polygon fill="white" stroke="#666666" points="1369.5,-321.5 1216.5,-321.5 1216.5,-302.5 1369.5,-302.5 1369.5,-321.5"/>
<text text-anchor="middle" x="1293" y="-309.5" font-family="Helvetica,sans-Serif" font-size="10.00">src/node/secret_broadcast.h</text>
</a>
</g>
</g>
<!-- Node28&#45;&gt;Node37 -->
<g id="edge62" class="edge">
<title>Node28&#45;&gt;Node37</title>
<path fill="none" stroke="#63b8ff" d="M1293,-358.08C1293,-346.13 1293,-331.22 1293,-321.91"/>
<polygon fill="#63b8ff" stroke="#63b8ff" points="1289.5,-358.37 1293,-368.37 1296.5,-358.37 1289.5,-358.37"/>
</g>
<!-- Node38 -->
<g id="node38" class="node">
<title>Node38</title>
<g id="a_node38"><a xlink:href="share__manager_8h.html" target="_top" xlink:title=" ">
<polygon fill="white" stroke="#666666" points="1571.5,-321.5 1426.5,-321.5 1426.5,-302.5 1571.5,-302.5 1571.5,-321.5"/>
<text text-anchor="middle" x="1499" y="-309.5" font-family="Helvetica,sans-Serif" font-size="10.00">src/node/share_manager.h</text>
</a>
</g>
</g>
<!-- Node28&#45;&gt;Node38 -->
<g id="edge64" class="edge">
<title>Node28&#45;&gt;Node38</title>
<path fill="none" stroke="#63b8ff" d="M1330.58,-365.32C1371.22,-352.7 1435.04,-332.87 1471.33,-321.6"/>
<polygon fill="#63b8ff" stroke="#63b8ff" points="1329.29,-362.06 1320.78,-368.37 1331.37,-368.74 1329.29,-362.06"/>
</g>
<!-- Node29&#45;&gt;Node3 -->
<g id="edge57" class="edge">
<title>Node29&#45;&gt;Node3</title>
<path fill="none" stroke="#63b8ff" d="M1943.62,-311.03C1874.3,-309.52 1745.28,-300.95 1644,-261 1622.32,-252.45 1622.95,-238.83 1601,-231 1505.98,-197.12 1208.09,-189.03 1077.45,-187.1"/>
<polygon fill="#63b8ff" stroke="#63b8ff" points="1943.75,-314.54 1953.81,-311.21 1943.87,-307.54 1943.75,-314.54"/>
</g>
<!-- Node29&#45;&gt;Node4 -->
<g id="edge46" class="edge">
<title>Node29&#45;&gt;Node4</title>
<path fill="none" stroke="#63b8ff" d="M2042.01,-308.95C2149.98,-303.92 2400.79,-289.29 2426,-261 2434.87,-251.05 2433.62,-241.94 2426,-231 2349.9,-121.79 1373.35,-77.46 1117.19,-67.68"/>
<polygon fill="#63b8ff" stroke="#63b8ff" points="2041.85,-305.45 2032.02,-309.4 2042.17,-312.44 2041.85,-305.45"/>
</g>
<!-- Node29&#45;&gt;Node22 -->
<g id="edge58" class="edge">
<title>Node29&#45;&gt;Node22</title>
<path fill="none" stroke="#63b8ff" d="M1943.76,-304.62C1852.65,-292.82 1658.05,-267.61 1559.24,-254.8"/>
<polygon fill="#63b8ff" stroke="#63b8ff" points="1943.46,-308.11 1953.82,-305.92 1944.36,-301.17 1943.46,-308.11"/>
</g>
<!-- Node30 -->
<g id="node30" class="node">
<title>Node30</title>
<g id="a_node30"><a xlink:href="js__generic__base_8cpp.html" target="_top" xlink:title=" ">
<polygon fill="white" stroke="#666666" points="1917,-261 1799,-261 1799,-231 1917,-231 1917,-261"/>
<text text-anchor="start" x="1807" y="-249" font-family="Helvetica,sans-Serif" font-size="10.00">src/apps/js_generic</text>
<text text-anchor="middle" x="1858" y="-238" font-family="Helvetica,sans-Serif" font-size="10.00">/js_generic_base.cpp</text>
</a>
</g>
</g>
<!-- Node29&#45;&gt;Node30 -->
<g id="edge45" class="edge">
<title>Node29&#45;&gt;Node30</title>
<path fill="none" stroke="#63b8ff" d="M1965.74,-298.08C1943.13,-287.36 1911.05,-272.15 1887.78,-261.12"/>
<polygon fill="#63b8ff" stroke="#63b8ff" points="1964.26,-301.25 1974.79,-302.37 1967.26,-294.92 1964.26,-301.25"/>
</g>
<!-- Node31 -->
<g id="node31" class="node">
<title>Node31</title>
<g id="a_node31"><a xlink:href="js_2consensus_8cpp.html" target="_top" xlink:title=" ">
<polygon fill="white" stroke="#666666" points="2051,-255.5 1935,-255.5 1935,-236.5 2051,-236.5 2051,-255.5"/>
<text text-anchor="middle" x="1993" y="-243.5" font-family="Helvetica,sans-Serif" font-size="10.00">src/js/consensus.cpp</text>
</a>
</g>
</g>
<!-- Node29&#45;&gt;Node31 -->
<g id="edge47" class="edge">
<title>Node29&#45;&gt;Node31</title>
<path fill="none" stroke="#63b8ff" d="M1993,-292.08C1993,-280.13 1993,-265.22 1993,-255.91"/>
<polygon fill="#63b8ff" stroke="#63b8ff" points="1989.5,-292.37 1993,-302.37 1996.5,-292.37 1989.5,-292.37"/>
</g>
<!-- Node32 -->
<g id="node32" class="node">
<title>Node32</title>
<g id="a_node32"><a xlink:href="wrap_8cpp.html" target="_top" xlink:title=" ">
<polygon fill="white" stroke="#666666" points="2267.5,-195 2178.5,-195 2178.5,-176 2267.5,-176 2267.5,-195"/>
<text text-anchor="middle" x="2223" y="-183" font-family="Helvetica,sans-Serif" font-size="10.00">src/js/wrap.cpp</text>
</a>
</g>
</g>
<!-- Node29&#45;&gt;Node32 -->
<g id="edge56" class="edge">
<title>Node29&#45;&gt;Node32</title>
<path fill="none" stroke="#63b8ff" d="M2042.19,-308.67C2146.86,-303.22 2384.06,-288 2408,-261 2450.5,-213.07 2334.96,-195.51 2267.6,-189.45"/>
<polygon fill="#63b8ff" stroke="#63b8ff" points="2042,-305.18 2032.19,-309.19 2042.35,-312.17 2042,-305.18"/>
</g>
<!-- Node33 -->
<g id="node33" class="node">
<title>Node33</title>
<g id="a_node33"><a xlink:href="conv_8cpp.html" target="_top" xlink:title=" ">
<polygon fill="white" stroke="#666666" points="2157,-255.5 2069,-255.5 2069,-236.5 2157,-236.5 2157,-255.5"/>
<text text-anchor="middle" x="2113" y="-243.5" font-family="Helvetica,sans-Serif" font-size="10.00">src/js/conv.cpp</text>
</a>
</g>
</g>
<!-- Node29&#45;&gt;Node33 -->
<g id="edge49" class="edge">
<title>Node29&#45;&gt;Node33</title>
<path fill="none" stroke="#63b8ff" d="M2018.26,-297.53C2041.9,-284.92 2076.5,-266.47 2096.69,-255.7"/>
<polygon fill="#63b8ff" stroke="#63b8ff" points="2016.36,-294.57 2009.18,-302.37 2019.65,-300.75 2016.36,-294.57"/>
</g>
<!-- Node34 -->
<g id="node34" class="node">
<title>Node34</title>
<g id="a_node34"><a xlink:href="js_2crypto_8cpp.html" target="_top" xlink:title=" ">
<polygon fill="white" stroke="#666666" points="2271,-255.5 2175,-255.5 2175,-236.5 2271,-236.5 2271,-255.5"/>
<text text-anchor="middle" x="2223" y="-243.5" font-family="Helvetica,sans-Serif" font-size="10.00">src/js/crypto.cpp</text>
</a>
</g>
</g>
<!-- Node29&#45;&gt;Node34 -->
<g id="edge51" class="edge">
<title>Node29&#45;&gt;Node34</title>
<path fill="none" stroke="#63b8ff" d="M2033.81,-299.64C2079.13,-287.03 2151.25,-266.97 2192.11,-255.6"/>
<polygon fill="#63b8ff" stroke="#63b8ff" points="2032.71,-296.32 2024.02,-302.37 2034.59,-303.06 2032.71,-296.32"/>
</g>
<!-- Node35 -->
<g id="node35" class="node">
<title>Node35</title>
<g id="a_node35"><a xlink:href="js_2historical_8cpp.html" target="_top" xlink:title=" ">
<polygon fill="white" stroke="#666666" points="2399,-255.5 2289,-255.5 2289,-236.5 2399,-236.5 2399,-255.5"/>
<text text-anchor="middle" x="2344" y="-243.5" font-family="Helvetica,sans-Serif" font-size="10.00">src/js/historical.cpp</text>
</a>
</g>
</g>
<!-- Node29&#45;&gt;Node35 -->
<g id="edge53" class="edge">
<title>Node29&#45;&gt;Node35</title>
<path fill="none" stroke="#63b8ff" d="M2042.31,-303.07C2099.58,-293.71 2196.84,-277.33 2280,-261 2288.48,-259.33 2297.57,-257.42 2306.15,-255.56"/>
<polygon fill="#63b8ff" stroke="#63b8ff" points="2041.4,-299.67 2032.09,-304.74 2042.52,-306.58 2041.4,-299.67"/>
</g>
<!-- Node36 -->
<g id="node36" class="node">
<title>Node36</title>
<g id="a_node36"><a xlink:href="openenclave_8cpp.html" target="_top" xlink:title=" ">
<polygon fill="white" stroke="#666666" points="1781,-255.5 1653,-255.5 1653,-236.5 1781,-236.5 1781,-255.5"/>
<text text-anchor="middle" x="1717" y="-243.5" font-family="Helvetica,sans-Serif" font-size="10.00">src/js/openenclave.cpp</text>
</a>
</g>
</g>
<!-- Node29&#45;&gt;Node36 -->
<g id="edge55" class="edge">
<title>Node29&#45;&gt;Node36</title>
<path fill="none" stroke="#63b8ff" d="M1946,-300.1C1891.63,-287.49 1803.28,-267.01 1753.72,-255.51"/>
<polygon fill="#63b8ff" stroke="#63b8ff" points="1945.53,-303.59 1956.06,-302.44 1947.11,-296.77 1945.53,-303.59"/>
</g>
<!-- Node31&#45;&gt;Node32 -->
<g id="edge48" class="edge">
<title>Node31&#45;&gt;Node32</title>
<path fill="none" stroke="#63b8ff" d="M2036.38,-233.97C2080.84,-222.66 2149.04,-205.31 2189.52,-195.02"/>
<polygon fill="#63b8ff" stroke="#63b8ff" points="2035.27,-230.64 2026.44,-236.49 2037,-237.42 2035.27,-230.64"/>
</g>
<!-- Node33&#45;&gt;Node32 -->
<g id="edge50" class="edge">
<title>Node33&#45;&gt;Node32</title>
<path fill="none" stroke="#63b8ff" d="M2138.24,-231.58C2159.28,-220.38 2188.64,-204.77 2206.7,-195.17"/>
<polygon fill="#63b8ff" stroke="#63b8ff" points="2136.42,-228.58 2129.23,-236.37 2139.7,-234.76 2136.42,-228.58"/>
</g>
<!-- Node34&#45;&gt;Node32 -->
<g id="edge52" class="edge">
<title>Node34&#45;&gt;Node32</title>
<path fill="none" stroke="#63b8ff" d="M2223,-226.16C2223,-215.74 2223,-203.3 2223,-195.17"/>
<polygon fill="#63b8ff" stroke="#63b8ff" points="2219.5,-226.37 2223,-236.37 2226.5,-226.37 2219.5,-226.37"/>
</g>
<!-- Node35&#45;&gt;Node32 -->
<g id="edge54" class="edge">
<title>Node35&#45;&gt;Node32</title>
<path fill="none" stroke="#63b8ff" d="M2317.39,-232.13C2294.05,-220.85 2260.79,-204.77 2240.62,-195.02"/>
<polygon fill="#63b8ff" stroke="#63b8ff" points="2315.88,-235.29 2326.41,-236.49 2318.93,-228.99 2315.88,-235.29"/>
</g>
<!-- Node37&#45;&gt;Node3 -->
<g id="edge63" class="edge">
<title>Node37&#45;&gt;Node3</title>
<path fill="none" stroke="#63b8ff" d="M1268.66,-297.45C1238.17,-280.75 1184.06,-251.99 1136,-231 1103.8,-216.93 1065.58,-203.38 1040.84,-195.01"/>
<polygon fill="#63b8ff" stroke="#63b8ff" points="1267.25,-300.67 1277.7,-302.43 1270.62,-294.54 1267.25,-300.67"/>
</g>
<!-- Node38&#45;&gt;Node3 -->
<g id="edge65" class="edge">
<title>Node38&#45;&gt;Node3</title>
<path fill="none" stroke="#63b8ff" d="M1478.81,-296.39C1447.26,-273.58 1389.58,-232 1387,-231 1331.96,-209.67 1167.98,-196.22 1077.19,-190.19"/>
<polygon fill="#63b8ff" stroke="#63b8ff" points="1476.8,-299.25 1486.95,-302.27 1480.9,-293.58 1476.8,-299.25"/>
</g>
<!-- Node38&#45;&gt;Node22 -->
<g id="edge66" class="edge">
<title>Node38&#45;&gt;Node22</title>
<path fill="none" stroke="#63b8ff" d="M1499,-292.35C1499,-282.47 1499,-270.51 1499,-261.36"/>
<polygon fill="#63b8ff" stroke="#63b8ff" points="1495.5,-292.37 1499,-302.37 1502.5,-292.37 1495.5,-292.37"/>
</g>
<!-- Node39&#45;&gt;Node3 -->
<g id="edge69" class="edge">
<title>Node39&#45;&gt;Node3</title>
<path fill="none" stroke="#63b8ff" d="M1087.44,-359.46C1067.82,-351.79 1047.1,-341.21 1031,-327 996.59,-296.64 982.56,-275.68 993,-231 996.1,-217.74 1003.75,-203.9 1009.16,-195.24"/>
<polygon fill="#63b8ff" stroke="#63b8ff" points="1086.37,-362.79 1096.97,-363 1088.81,-356.23 1086.37,-362.79"/>
</g>
<!-- Node39&#45;&gt;Node22 -->
<g id="edge70" class="edge">
<title>Node39&#45;&gt;Node22</title>
<path fill="none" stroke="#63b8ff" d="M1215.07,-363.2C1310.97,-352.74 1527.89,-385.57 1581,-327 1602.98,-302.76 1562.85,-276.64 1531.36,-261.07"/>
<polygon fill="#63b8ff" stroke="#63b8ff" points="1214.53,-359.74 1205.08,-364.52 1215.45,-366.68 1214.53,-359.74"/>
</g>
<!-- Node39&#45;&gt;Node23 -->
<g id="edge71" class="edge">
<title>Node39&#45;&gt;Node23</title>
<path fill="none" stroke="#63b8ff" d="M1138.67,-353.61C1133.32,-342.56 1127.25,-330.03 1123.28,-321.84"/>
<polygon fill="#63b8ff" stroke="#63b8ff" points="1135.61,-355.32 1143.12,-362.8 1141.91,-352.27 1135.61,-355.32"/>
</g>
<!-- Node39&#45;&gt;Node37 -->
<g id="edge72" class="edge">
<title>Node39&#45;&gt;Node37</title>
<path fill="none" stroke="#63b8ff" d="M1190.71,-358.78C1218.05,-346.54 1252.82,-330.98 1273.97,-321.52"/>
<polygon fill="#63b8ff" stroke="#63b8ff" points="1189.08,-355.68 1181.38,-362.95 1191.94,-362.06 1189.08,-355.68"/>
</g>
<!-- Node39&#45;&gt;Node38 -->
<g id="edge73" class="edge">
<title>Node39&#45;&gt;Node38</title>
<path fill="none" stroke="#63b8ff" d="M1215.14,-362.82C1301.91,-345.87 1391.47,-330.63 1446.61,-321.52"/>
<polygon fill="#63b8ff" stroke="#63b8ff" points="1214.27,-359.43 1205.13,-364.79 1215.61,-366.3 1214.27,-359.43"/>
</g>
<!-- Node40&#45;&gt;Node3 -->
<g id="edge76" class="edge">
<title>Node40&#45;&gt;Node3</title>
<path fill="none" stroke="#63b8ff" d="M1484.92,-552.16C1547.92,-541.79 1638,-514.76 1638,-445 1638,-445 1638,-445 1638,-377 1638,-341.02 1597.66,-251.38 1568,-231 1528.31,-203.73 1213.11,-191.91 1077.11,-188.04"/>
<polygon fill="#63b8ff" stroke="#63b8ff" points="1484.02,-548.76 1474.67,-553.74 1485.09,-555.68 1484.02,-548.76"/>
</g>
</g>
</svg>
        <g id="navigator" transform="translate(0 0)" fill="#404254">
                <rect fill="#f2f5e9" fill-opacity="0.5" stroke="#606060" stroke-width=".5" x="0" y="0" width="60" height="60"/>
                <use id="zoomplus" xlink:href="#zoomPlus" x="17" y="9" onmousedown="handleZoom(evt,'in')"/>
                <use id="zoomminus" xlink:href="#zoomMin" x="42" y="9" onmousedown="handleZoom(evt,'out')"/>
                <use id="reset" xlink:href="#resetDef" x="30" y="36" onmousedown="handleReset()"/>
                <g id="arrowUp" xlink:href="#dirArrow" transform="translate(30 24)" onmousedown="handlePan(0,-1)">
                  <use xlink:href="#rim" fill="#404040">
                        <set attributeName="fill" to="#808080" begin="arrowUp.mouseover" end="arrowUp.mouseout"/>
                  </use>
                  <path fill="none" stroke="white" stroke-width="1.5" d="M0,-3.0v7 M-2.5,-0.5L0,-3.0L2.5,-0.5"/>
                </g>
                <g id="arrowRight" xlink:href="#dirArrow" transform="rotate(90) translate(36 -43)" onmousedown="handlePan(1,0)">
                  <use xlink:href="#rim" fill="#404040">
                        <set attributeName="fill" to="#808080" begin="arrowRight.mouseover" end="arrowRight.mouseout"/>
                  </use>
                  <path fill="none" stroke="white" stroke-width="1.5" d="M0,-3.0v7 M-2.5,-0.5L0,-3.0L2.5,-0.5"/>
                </g>
                <g id="arrowDown" xlink:href="#dirArrow" transform="rotate(180) translate(-30 -48)" onmousedown="handlePan(0,1)">
                  <use xlink:href="#rim" fill="#404040">
                        <set attributeName="fill" to="#808080" begin="arrowDown.mouseover" end="arrowDown.mouseout"/>
                  </use>
                  <path fill="none" stroke="white" stroke-width="1.5" d="M0,-3.0v7 M-2.5,-0.5L0,-3.0L2.5,-0.5"/>
                </g>
                <g id="arrowLeft" xlink:href="#dirArrow" transform="rotate(270) translate(-36 17)" onmousedown="handlePan(-1,0)">
                  <use xlink:href="#rim" fill="#404040">
                        <set attributeName="fill" to="#808080" begin="arrowLeft.mouseover" end="arrowLeft.mouseout"/>
                  </use>
                  <path fill="none" stroke="white" stroke-width="1.5" d="M0,-3.0v7 M-2.5,-0.5L0,-3.0L2.5,-0.5"/>
                </g>
        </g>
        <svg viewBox="0 0 15 15" width="100%" height="30px" preserveAspectRatio="xMaxYMin meet">
         <g id="arrow_out" transform="scale(0.3 0.3)">
          <a xlink:href="signatures_8h__dep__incl_org.svg" target="_base">
           <rect id="button" ry="5" rx="5" y="6" x="6" height="38" width="38"
                fill="#f2f5e9" fill-opacity="0.5" stroke="#606060" stroke-width="1.0"/>
           <path id="arrow"
             d="M 11.500037,31.436501 C 11.940474,20.09759 22.043105,11.32322 32.158766,21.979434 L 37.068811,17.246167 C 37.068811,17.246167 37.088388,32 37.088388,32 L 22.160133,31.978069 C 22.160133,31.978069 26.997745,27.140456 26.997745,27.140456 C 18.528582,18.264221 13.291696,25.230495 11.500037,31.436501 z"
             style="fill:#404040;"/>
          </a>
         </g>
        </svg>
</svg>
