<?xml version="1.0" encoding="UTF-8" standalone="no"?>
<!DOCTYPE svg PUBLIC "-//W3C//DTD SVG 1.1//EN"
 "http://www.w3.org/Graphics/SVG/1.1/DTD/svg11.dtd">
<!-- Generated by graphviz version 2.43.0 (0)
 -->
<!-- Title: src/crypto/openssl/base64.h Pages: 1 -->
<svg width="1727pt" height="379pt"
 viewBox="0.00 0.00 1727.08 379.00" xmlns="http://www.w3.org/2000/svg" xmlns:xlink="http://www.w3.org/1999/xlink">
<g id="graph0" class="graph" transform="scale(1 1) rotate(0) translate(4 375)">
<title>src/crypto/openssl/base64.h</title>
<!-- Node1 -->
<g id="node1" class="node">
<title>Node1</title>
<g id="a_node1"><a xlink:title=" ">
<polygon fill="#999999" stroke="#666666" points="1342.58,-371 1237.58,-371 1237.58,-341 1342.58,-341 1342.58,-371"/>
<text text-anchor="start" x="1245.58" y="-359" font-family="Helvetica,sans-Serif" font-size="10.00">src/crypto/openssl</text>
<text text-anchor="middle" x="1290.08" y="-348" font-family="Helvetica,sans-Serif" font-size="10.00">/base64.h</text>
</a>
</g>
</g>
<!-- Node2 -->
<g id="node2" class="node">
<title>Node2</title>
<g id="a_node2"><a xlink:href="logger_8h.html" target="_top" xlink:title=" ">
<polygon fill="white" stroke="#666666" points="552.58,-184 465.58,-184 465.58,-165 552.58,-165 552.58,-184"/>
<text text-anchor="middle" x="509.08" y="-172" font-family="Helvetica,sans-Serif" font-size="10.00">ccf/ds/logger.h</text>
</a>
</g>
</g>
<!-- Node1&#45;&gt;Node2 -->
<g id="edge1" class="edge">
<title>Node1&#45;&gt;Node2</title>
<path fill="none" stroke="#63b8ff" d="M1237.34,-351.94C1057.32,-340.95 475.25,-300.88 421.08,-239 401.96,-217.16 437.72,-198.61 469.24,-187.3"/>
<polygon fill="#63b8ff" stroke="#63b8ff" points="470.48,-190.57 478.81,-184.02 468.22,-183.95 470.48,-190.57"/>
</g>
<!-- Node17 -->
<g id="node17" class="node">
<title>Node17</title>
<g id="a_node17"><a xlink:href="openssl__wrappers_8h.html" target="_top" xlink:title=" ">
<polygon fill="white" stroke="#666666" points="1185.08,-305 1057.08,-305 1057.08,-275 1185.08,-275 1185.08,-305"/>
<text text-anchor="start" x="1065.08" y="-293" font-family="Helvetica,sans-Serif" font-size="10.00">crypto/openssl/openssl</text>
<text text-anchor="middle" x="1121.08" y="-282" font-family="Helvetica,sans-Serif" font-size="10.00">_wrappers.h</text>
</a>
</g>
</g>
<!-- Node1&#45;&gt;Node17 -->
<g id="edge18" class="edge">
<title>Node1&#45;&gt;Node17</title>
<path fill="none" stroke="#63b8ff" d="M1252.99,-340.95C1227.89,-331.45 1194.55,-318.82 1167.66,-308.64"/>
<polygon fill="#63b8ff" stroke="#63b8ff" points="1168.67,-305.28 1158.08,-305.01 1166.19,-311.83 1168.67,-305.28"/>
</g>
<!-- Node21 -->
<g id="node21" class="node">
<title>Node21</title>
<g id="a_node21"><a xlink:title=" ">
<polygon fill="#e0e0e0" stroke="#999999" points="1648.08,-19 1604.08,-19 1604.08,0 1648.08,0 1648.08,-19"/>
<text text-anchor="middle" x="1626.08" y="-7" font-family="Helvetica,sans-Serif" font-size="10.00">string</text>
</a>
</g>
</g>
<!-- Node1&#45;&gt;Node21 -->
<g id="edge65" class="edge">
<title>Node1&#45;&gt;Node21</title>
<path fill="none" stroke="#63b8ff" d="M1342.68,-350.87C1457.24,-340.42 1719.08,-308.05 1719.08,-230.5 1719.08,-230.5 1719.08,-230.5 1719.08,-118.5 1719.08,-76.48 1678.16,-42.69 1650.61,-24.7"/>
<polygon fill="#63b8ff" stroke="#63b8ff" points="1652.19,-21.56 1641.85,-19.21 1648.47,-27.49 1652.19,-21.56"/>
</g>
<!-- Node22 -->
<g id="node22" class="node">
<title>Node22</title>
<g id="a_node22"><a xlink:title=" ">
<polygon fill="#e0e0e0" stroke="#999999" points="1284.58,-19 1237.58,-19 1237.58,0 1284.58,0 1284.58,-19"/>
<text text-anchor="middle" x="1261.08" y="-7" font-family="Helvetica,sans-Serif" font-size="10.00">vector</text>
</a>
</g>
</g>
<!-- Node1&#45;&gt;Node22 -->
<g id="edge66" class="edge">
<title>Node1&#45;&gt;Node22</title>
<path fill="none" stroke="#63b8ff" d="M1237.55,-355.53C995.69,-357.3 1.08,-356.89 1.08,-230.5 1.08,-230.5 1.08,-230.5 1.08,-118.5 1.08,-89.04 -3.23,-73.01 20.08,-55 44.65,-36.01 1031.13,-15.14 1227.34,-11.17"/>
<polygon fill="#63b8ff" stroke="#63b8ff" points="1227.43,-14.67 1237.36,-10.97 1227.29,-7.67 1227.43,-14.67"/>
</g>
<!-- Node40 -->
<g id="node40" class="node">
<title>Node40</title>
<g id="a_node40"><a xlink:title=" ">
<polygon fill="#e0e0e0" stroke="#999999" points="1527.58,-239 1448.58,-239 1448.58,-220 1527.58,-220 1527.58,-239"/>
<text text-anchor="middle" x="1488.08" y="-227" font-family="Helvetica,sans-Serif" font-size="10.00">openssl/err.h</text>
</a>
</g>
</g>
<!-- Node1&#45;&gt;Node40 -->
<g id="edge63" class="edge">
<title>Node1&#45;&gt;Node40</title>
<path fill="none" stroke="#63b8ff" d="M1312.41,-340.96C1350.45,-317.04 1427.4,-268.65 1465.56,-244.66"/>
<polygon fill="#63b8ff" stroke="#63b8ff" points="1467.78,-247.4 1474.38,-239.11 1464.06,-241.47 1467.78,-247.4"/>
</g>
<!-- Node41 -->
<g id="node41" class="node">
<title>Node41</title>
<g id="a_node41"><a xlink:title=" ">
<polygon fill="#e0e0e0" stroke="#999999" points="1629.08,-239 1545.08,-239 1545.08,-220 1629.08,-220 1629.08,-239"/>
<text text-anchor="middle" x="1587.08" y="-227" font-family="Helvetica,sans-Serif" font-size="10.00">openssl/evp.h</text>
</a>
</g>
</g>
<!-- Node1&#45;&gt;Node41 -->
<g id="edge64" class="edge">
<title>Node1&#45;&gt;Node41</title>
<path fill="none" stroke="#63b8ff" d="M1323.57,-340.96C1381.96,-316.48 1501.47,-266.38 1557.21,-243.02"/>
<polygon fill="#63b8ff" stroke="#63b8ff" points="1558.67,-246.2 1566.54,-239.11 1555.96,-239.75 1558.67,-246.2"/>
</g>
<!-- Node3 -->
<g id="node3" class="node">
<title>Node3</title>
<g id="a_node3"><a xlink:href="enum__formatter_8h.html" target="_top" xlink:title=" ">
<polygon fill="white" stroke="#666666" points="701.08,-129 565.08,-129 565.08,-110 701.08,-110 701.08,-129"/>
<text text-anchor="middle" x="633.08" y="-117" font-family="Helvetica,sans-Serif" font-size="10.00">ccf/ds/enum_formatter.h</text>
</a>
</g>
</g>
<!-- Node2&#45;&gt;Node3 -->
<g id="edge2" class="edge">
<title>Node2&#45;&gt;Node3</title>
<path fill="none" stroke="#63b8ff" d="M529,-164.98C549.13,-156.38 580.46,-142.99 603.49,-133.15"/>
<polygon fill="#63b8ff" stroke="#63b8ff" points="604.97,-136.32 612.79,-129.17 602.22,-129.88 604.97,-136.32"/>
</g>
<!-- Node4 -->
<g id="node4" class="node">
<title>Node4</title>
<g id="a_node4"><a xlink:title=" ">
<polygon fill="#e0e0e0" stroke="#999999" points="886.58,-74 807.58,-74 807.58,-55 886.58,-55 886.58,-74"/>
<text text-anchor="middle" x="847.08" y="-62" font-family="Helvetica,sans-Serif" font-size="10.00">fmt/format.h</text>
</a>
</g>
</g>
<!-- Node2&#45;&gt;Node4 -->
<g id="edge12" class="edge">
<title>Node2&#45;&gt;Node4</title>
<path fill="none" stroke="#63b8ff" d="M512.8,-164.81C519.32,-150.73 534.23,-123.17 556.08,-110 595.71,-86.1 724.89,-73.75 797.09,-68.56"/>
<polygon fill="#63b8ff" stroke="#63b8ff" points="797.58,-72.04 807.32,-67.85 797.1,-65.05 797.58,-72.04"/>
</g>
<!-- Node5 -->
<g id="node5" class="node">
<title>Node5</title>
<g id="a_node5"><a xlink:href="thread__ids_8h.html" target="_top" xlink:title=" ">
<polygon fill="white" stroke="#666666" points="319.08,-129 211.08,-129 211.08,-110 319.08,-110 319.08,-129"/>
<text text-anchor="middle" x="265.08" y="-117" font-family="Helvetica,sans-Serif" font-size="10.00">ccf/ds/thread_ids.h</text>
</a>
</g>
</g>
<!-- Node2&#45;&gt;Node5 -->
<g id="edge4" class="edge">
<title>Node2&#45;&gt;Node5</title>
<path fill="none" stroke="#63b8ff" d="M469.87,-164.98C427.67,-155.82 360.43,-141.21 314.6,-131.26"/>
<polygon fill="#63b8ff" stroke="#63b8ff" points="315.1,-127.78 304.59,-129.08 313.62,-134.63 315.1,-127.78"/>
</g>
<!-- Node11 -->
<g id="node11" class="node">
<title>Node11</title>
<g id="a_node11"><a xlink:title=" ">
<polygon fill="#e0e0e0" stroke="#999999" points="836.58,-129 757.58,-129 757.58,-110 836.58,-110 836.58,-129"/>
<text text-anchor="middle" x="797.08" y="-117" font-family="Helvetica,sans-Serif" font-size="10.00">fmt/chrono.h</text>
</a>
</g>
</g>
<!-- Node2&#45;&gt;Node11 -->
<g id="edge11" class="edge">
<title>Node2&#45;&gt;Node11</title>
<path fill="none" stroke="#63b8ff" d="M552.82,-165.45C605.26,-155.8 692.92,-139.67 747.73,-129.58"/>
<polygon fill="#63b8ff" stroke="#63b8ff" points="748.36,-133.02 757.57,-127.77 747.1,-126.14 748.36,-133.02"/>
</g>
<!-- Node12 -->
<g id="node12" class="node">
<title>Node12</title>
<g id="a_node12"><a xlink:title=" ">
<polygon fill="#e0e0e0" stroke="#999999" points="435.08,-129 375.08,-129 375.08,-110 435.08,-110 435.08,-129"/>
<text text-anchor="middle" x="405.08" y="-117" font-family="Helvetica,sans-Serif" font-size="10.00">iostream</text>
</a>
</g>
</g>
<!-- Node2&#45;&gt;Node12 -->
<g id="edge13" class="edge">
<title>Node2&#45;&gt;Node12</title>
<path fill="none" stroke="#63b8ff" d="M492.37,-164.98C475.86,-156.57 450.38,-143.59 431.2,-133.81"/>
<polygon fill="#63b8ff" stroke="#63b8ff" points="432.59,-130.59 422.09,-129.17 429.41,-136.83 432.59,-130.59"/>
</g>
<!-- Node13 -->
<g id="node13" class="node">
<title>Node13</title>
<g id="a_node13"><a xlink:title=" ">
<polygon fill="#e0e0e0" stroke="#999999" points="1015.08,-74 905.08,-74 905.08,-55 1015.08,-55 1015.08,-74"/>
<text text-anchor="middle" x="960.08" y="-62" font-family="Helvetica,sans-Serif" font-size="10.00">nlohmann/json.hpp</text>
</a>
</g>
</g>
<!-- Node2&#45;&gt;Node13 -->
<g id="edge14" class="edge">
<title>Node2&#45;&gt;Node13</title>
<path fill="none" stroke="#63b8ff" d="M552.67,-167.03C593.98,-160.16 657.36,-147.69 710.08,-129 727.87,-122.69 730.25,-116.21 748.08,-110 796.08,-93.27 852.49,-81.81 895.05,-74.7"/>
<polygon fill="#63b8ff" stroke="#63b8ff" points="895.7,-78.15 905.01,-73.08 894.58,-71.24 895.7,-78.15"/>
</g>
<!-- Node14 -->
<g id="node14" class="node">
<title>Node14</title>
<g id="a_node14"><a xlink:title=" ">
<polygon fill="#e0e0e0" stroke="#999999" points="509.08,-129 453.08,-129 453.08,-110 509.08,-110 509.08,-129"/>
<text text-anchor="middle" x="481.08" y="-117" font-family="Helvetica,sans-Serif" font-size="10.00">optional</text>
</a>
</g>
</g>
<!-- Node2&#45;&gt;Node14 -->
<g id="edge15" class="edge">
<title>Node2&#45;&gt;Node14</title>
<path fill="none" stroke="#63b8ff" d="M504.45,-164.75C500.62,-157.49 495.05,-146.95 490.31,-137.98"/>
<polygon fill="#63b8ff" stroke="#63b8ff" points="493.38,-136.3 485.61,-129.09 487.19,-139.57 493.38,-136.3"/>
</g>
<!-- Node15 -->
<g id="node15" class="node">
<title>Node15</title>
<g id="a_node15"><a xlink:title=" ">
<polygon fill="#e0e0e0" stroke="#999999" points="1127.08,-129 1071.08,-129 1071.08,-110 1127.08,-110 1127.08,-129"/>
<text text-anchor="middle" x="1099.08" y="-117" font-family="Helvetica,sans-Serif" font-size="10.00">sstream</text>
</a>
</g>
</g>
<!-- Node2&#45;&gt;Node15 -->
<g id="edge16" class="edge">
<title>Node2&#45;&gt;Node15</title>
<path fill="none" stroke="#63b8ff" d="M552.86,-170.11C641.75,-163.15 849.72,-146.41 1024.08,-129 1036.08,-127.8 1049.14,-126.37 1060.96,-125.02"/>
<polygon fill="#63b8ff" stroke="#63b8ff" points="1061.43,-128.49 1070.96,-123.87 1060.63,-121.53 1061.43,-128.49"/>
</g>
<!-- Node16 -->
<g id="node16" class="node">
<title>Node16</title>
<g id="a_node16"><a xlink:title=" ">
<polygon fill="#e0e0e0" stroke="#999999" points="848.58,-19 779.58,-19 779.58,0 848.58,0 848.58,-19"/>
<text text-anchor="middle" x="814.08" y="-7" font-family="Helvetica,sans-Serif" font-size="10.00">type_traits</text>
</a>
</g>
</g>
<!-- Node2&#45;&gt;Node16 -->
<g id="edge17" class="edge">
<title>Node2&#45;&gt;Node16</title>
<path fill="none" stroke="#63b8ff" d="M465.36,-169.48C413.19,-162.95 336.5,-146.87 366.08,-110 416.39,-47.29 665.81,-21.62 769.13,-13.56"/>
<polygon fill="#63b8ff" stroke="#63b8ff" points="769.54,-17.04 779.24,-12.79 769.01,-10.06 769.54,-17.04"/>
</g>
<!-- Node3&#45;&gt;Node4 -->
<g id="edge3" class="edge">
<title>Node3&#45;&gt;Node4</title>
<path fill="none" stroke="#63b8ff" d="M667.46,-109.98C704.17,-100.89 762.46,-86.46 802.63,-76.51"/>
<polygon fill="#63b8ff" stroke="#63b8ff" points="803.56,-79.88 812.42,-74.08 801.88,-73.09 803.56,-79.88"/>
</g>
<!-- Node5&#45;&gt;Node4 -->
<g id="edge5" class="edge">
<title>Node5&#45;&gt;Node4</title>
<path fill="none" stroke="#63b8ff" d="M319.31,-113.56C431.8,-103.32 689.06,-79.89 797.46,-70.02"/>
<polygon fill="#63b8ff" stroke="#63b8ff" points="797.84,-73.5 807.48,-69.11 797.2,-66.53 797.84,-73.5"/>
</g>
<!-- Node6 -->
<g id="node6" class="node">
<title>Node6</title>
<g id="a_node6"><a xlink:title=" ">
<polygon fill="#e0e0e0" stroke="#999999" points="181.08,-74 95.08,-74 95.08,-55 181.08,-55 181.08,-74"/>
<text text-anchor="middle" x="138.08" y="-62" font-family="Helvetica,sans-Serif" font-size="10.00">fmt/ostream.h</text>
</a>
</g>
</g>
<!-- Node5&#45;&gt;Node6 -->
<g id="edge6" class="edge">
<title>Node5&#45;&gt;Node6</title>
<path fill="none" stroke="#63b8ff" d="M244.67,-109.98C224.06,-101.38 191.97,-87.99 168.38,-78.15"/>
<polygon fill="#63b8ff" stroke="#63b8ff" points="169.43,-74.79 158.85,-74.17 166.73,-81.25 169.43,-74.79"/>
</g>
<!-- Node7 -->
<g id="node7" class="node">
<title>Node7</title>
<g id="a_node7"><a xlink:title=" ">
<polygon fill="#e0e0e0" stroke="#999999" points="260.58,-74 199.58,-74 199.58,-55 260.58,-55 260.58,-74"/>
<text text-anchor="middle" x="230.08" y="-62" font-family="Helvetica,sans-Serif" font-size="10.00">fmt/std.h</text>
</a>
</g>
</g>
<!-- Node5&#45;&gt;Node7 -->
<g id="edge7" class="edge">
<title>Node5&#45;&gt;Node7</title>
<path fill="none" stroke="#63b8ff" d="M259.3,-109.75C254.46,-102.42 247.4,-91.73 241.43,-82.7"/>
<polygon fill="#63b8ff" stroke="#63b8ff" points="244.18,-80.5 235.75,-74.09 238.34,-84.36 244.18,-80.5"/>
</g>
<!-- Node8 -->
<g id="node8" class="node">
<title>Node8</title>
<g id="a_node8"><a xlink:title=" ">
<polygon fill="#e0e0e0" stroke="#999999" points="323.08,-74 279.08,-74 279.08,-55 323.08,-55 323.08,-74"/>
<text text-anchor="middle" x="301.08" y="-62" font-family="Helvetica,sans-Serif" font-size="10.00">limits</text>
</a>
</g>
</g>
<!-- Node5&#45;&gt;Node8 -->
<g id="edge8" class="edge">
<title>Node5&#45;&gt;Node8</title>
<path fill="none" stroke="#63b8ff" d="M271.02,-109.75C276.05,-102.34 283.41,-91.5 289.59,-82.41"/>
<polygon fill="#63b8ff" stroke="#63b8ff" points="292.52,-84.33 295.24,-74.09 286.73,-80.39 292.52,-84.33"/>
</g>
<!-- Node9 -->
<g id="node9" class="node">
<title>Node9</title>
<g id="a_node9"><a xlink:title=" ">
<polygon fill="#e0e0e0" stroke="#999999" points="379.08,-74 341.08,-74 341.08,-55 379.08,-55 379.08,-74"/>
<text text-anchor="middle" x="360.08" y="-62" font-family="Helvetica,sans-Serif" font-size="10.00">map</text>
</a>
</g>
</g>
<!-- Node5&#45;&gt;Node9 -->
<g id="edge9" class="edge">
<title>Node5&#45;&gt;Node9</title>
<path fill="none" stroke="#63b8ff" d="M280.34,-109.98C295.21,-101.69 318.06,-88.94 335.49,-79.22"/>
<polygon fill="#63b8ff" stroke="#63b8ff" points="337.51,-82.1 344.54,-74.17 334.1,-75.99 337.51,-82.1"/>
</g>
<!-- Node10 -->
<g id="node10" class="node">
<title>Node10</title>
<g id="a_node10"><a xlink:title=" ">
<polygon fill="#e0e0e0" stroke="#999999" points="77.08,-74 29.08,-74 29.08,-55 77.08,-55 77.08,-74"/>
<text text-anchor="middle" x="53.08" y="-62" font-family="Helvetica,sans-Serif" font-size="10.00">thread</text>
</a>
</g>
</g>
<!-- Node5&#45;&gt;Node10 -->
<g id="edge10" class="edge">
<title>Node5&#45;&gt;Node10</title>
<path fill="none" stroke="#63b8ff" d="M230.41,-109.97C196.37,-101.58 142.73,-88.3 87.23,-74.28"/>
<polygon fill="#63b8ff" stroke="#63b8ff" points="87.77,-70.8 77.22,-71.74 86.06,-77.59 87.77,-70.8"/>
</g>
<!-- Node17&#45;&gt;Node4 -->
<g id="edge52" class="edge">
<title>Node17&#45;&gt;Node4</title>
<path fill="none" stroke="#63b8ff" d="M1156.67,-274.85C1172.14,-266.77 1188.82,-255 1198.08,-239 1226.83,-189.33 1242.23,-152.88 1204.08,-110 1160.14,-60.63 979.94,-81.94 896.75,-73.77"/>
<polygon fill="#63b8ff" stroke="#63b8ff" points="896.97,-70.27 886.63,-72.55 896.14,-77.22 896.97,-70.27"/>
</g>
<!-- Node18 -->
<g id="node18" class="node">
<title>Node18</title>
<g id="a_node18"><a xlink:href="pem_8h.html" target="_top" xlink:title=" ">
<polygon fill="white" stroke="#666666" points="1392.08,-239 1294.08,-239 1294.08,-220 1392.08,-220 1392.08,-239"/>
<text text-anchor="middle" x="1343.08" y="-227" font-family="Helvetica,sans-Serif" font-size="10.00">ccf/crypto/pem.h</text>
</a>
</g>
</g>
<!-- Node17&#45;&gt;Node18 -->
<g id="edge19" class="edge">
<title>Node17&#45;&gt;Node18</title>
<path fill="none" stroke="#63b8ff" d="M1174.25,-274.99C1213.06,-264.76 1264.96,-251.09 1300.92,-241.61"/>
<polygon fill="#63b8ff" stroke="#63b8ff" points="1301.84,-244.99 1310.62,-239.05 1300.06,-238.22 1301.84,-244.99"/>
</g>
<!-- Node31 -->
<g id="node31" class="node">
<title>Node31</title>
<g id="a_node31"><a xlink:title=" ">
<polygon fill="#e0e0e0" stroke="#999999" points="1691.08,-184 1633.08,-184 1633.08,-165 1691.08,-165 1691.08,-184"/>
<text text-anchor="middle" x="1662.08" y="-172" font-family="Helvetica,sans-Serif" font-size="10.00">memory</text>
</a>
</g>
</g>
<!-- Node17&#45;&gt;Node31 -->
<g id="edge53" class="edge">
<title>Node17&#45;&gt;Node31</title>
<path fill="none" stroke="#63b8ff" d="M1185.13,-282.67C1242.7,-275.78 1329.01,-262.49 1401.08,-239 1419.41,-233.03 1421.81,-226.17 1440.08,-220 1442.25,-219.26 1559.81,-195.84 1622.95,-183.28"/>
<polygon fill="#63b8ff" stroke="#63b8ff" points="1623.83,-186.67 1632.96,-181.29 1622.47,-179.81 1623.83,-186.67"/>
</g>
<!-- Node33 -->
<g id="node33" class="node">
<title>Node33</title>
<g id="a_node33"><a xlink:title=" ">
<polygon fill="#e0e0e0" stroke="#999999" points="1195.08,-129 1145.08,-129 1145.08,-110 1195.08,-110 1195.08,-129"/>
<text text-anchor="middle" x="1170.08" y="-117" font-family="Helvetica,sans-Serif" font-size="10.00">chrono</text>
</a>
</g>
</g>
<!-- Node17&#45;&gt;Node33 -->
<g id="edge43" class="edge">
<title>Node17&#45;&gt;Node33</title>
<path fill="none" stroke="#63b8ff" d="M1146.79,-274.97C1159.65,-266.43 1173.95,-254.23 1181.08,-239 1196.43,-206.22 1185.62,-162.82 1177.27,-138.68"/>
<polygon fill="#63b8ff" stroke="#63b8ff" points="1180.46,-137.21 1173.7,-129.05 1173.89,-139.64 1180.46,-137.21"/>
</g>
<!-- Node34 -->
<g id="node34" class="node">
<title>Node34</title>
<g id="a_node34"><a xlink:href="x509__time__fmt_8h.html" target="_top" xlink:title=" ">
<polygon fill="white" stroke="#666666" points="1013.08,-184 899.08,-184 899.08,-165 1013.08,-165 1013.08,-184"/>
<text text-anchor="middle" x="956.08" y="-172" font-family="Helvetica,sans-Serif" font-size="10.00">ds/x509_time_fmt.h</text>
</a>
</g>
</g>
<!-- Node17&#45;&gt;Node34 -->
<g id="edge44" class="edge">
<title>Node17&#45;&gt;Node34</title>
<path fill="none" stroke="#63b8ff" d="M1057.03,-289.22C893.67,-289.12 471.33,-284.42 429.08,-239 423.33,-232.82 423.36,-226.22 429.08,-220 459.58,-186.81 753.41,-178.35 888.61,-176.22"/>
<polygon fill="#63b8ff" stroke="#63b8ff" points="888.9,-179.71 898.85,-176.06 888.8,-172.71 888.9,-179.71"/>
</g>
<!-- Node37 -->
<g id="node37" class="node">
<title>Node37</title>
<g id="a_node37"><a xlink:title=" ">
<polygon fill="#e0e0e0" stroke="#999999" points="527.58,-239 438.58,-239 438.58,-220 527.58,-220 527.58,-239"/>
<text text-anchor="middle" x="483.08" y="-227" font-family="Helvetica,sans-Serif" font-size="10.00">openssl/asn1.h</text>
</a>
</g>
</g>
<!-- Node17&#45;&gt;Node37 -->
<g id="edge54" class="edge">
<title>Node17&#45;&gt;Node37</title>
<path fill="none" stroke="#63b8ff" d="M1056.86,-285.07C950.85,-278.23 732.4,-262.7 537.98,-239.16"/>
<polygon fill="#63b8ff" stroke="#63b8ff" points="538.21,-235.66 527.86,-237.92 537.37,-242.61 538.21,-235.66"/>
</g>
<!-- Node38 -->
<g id="node38" class="node">
<title>Node38</title>
<g id="a_node38"><a xlink:title=" ">
<polygon fill="#e0e0e0" stroke="#999999" points="622.58,-239 545.58,-239 545.58,-220 622.58,-220 622.58,-239"/>
<text text-anchor="middle" x="584.08" y="-227" font-family="Helvetica,sans-Serif" font-size="10.00">openssl/ec.h</text>
</a>
</g>
</g>
<!-- Node17&#45;&gt;Node38 -->
<g id="edge55" class="edge">
<title>Node17&#45;&gt;Node38</title>
<path fill="none" stroke="#63b8ff" d="M1057.07,-284.06C965.33,-276.62 790.97,-261.18 633.14,-239.2"/>
<polygon fill="#63b8ff" stroke="#63b8ff" points="633.16,-235.67 622.77,-237.74 632.18,-242.6 633.16,-235.67"/>
</g>
<!-- Node39 -->
<g id="node39" class="node">
<title>Node39</title>
<g id="a_node39"><a xlink:title=" ">
<polygon fill="#e0e0e0" stroke="#999999" points="739.58,-239 640.58,-239 640.58,-220 739.58,-220 739.58,-239"/>
<text text-anchor="middle" x="690.08" y="-227" font-family="Helvetica,sans-Serif" font-size="10.00">openssl/engine.h</text>
</a>
</g>
</g>
<!-- Node17&#45;&gt;Node39 -->
<g id="edge56" class="edge">
<title>Node17&#45;&gt;Node39</title>
<path fill="none" stroke="#63b8ff" d="M1056.87,-280.56C984.8,-271.04 864.1,-254.97 749.64,-239.07"/>
<polygon fill="#63b8ff" stroke="#63b8ff" points="750.03,-235.59 739.65,-237.68 749.07,-242.52 750.03,-235.59"/>
</g>
<!-- Node17&#45;&gt;Node40 -->
<g id="edge57" class="edge">
<title>Node17&#45;&gt;Node40</title>
<path fill="none" stroke="#63b8ff" d="M1185.42,-278.74C1257.53,-267.25 1372.87,-248.86 1438.38,-238.42"/>
<polygon fill="#63b8ff" stroke="#63b8ff" points="1439.12,-241.85 1448.45,-236.82 1438.02,-234.93 1439.12,-241.85"/>
</g>
<!-- Node17&#45;&gt;Node41 -->
<g id="edge58" class="edge">
<title>Node17&#45;&gt;Node41</title>
<path fill="none" stroke="#63b8ff" d="M1185.18,-282.19C1264.74,-273.53 1404.82,-257.62 1534.93,-239.11"/>
<polygon fill="#63b8ff" stroke="#63b8ff" points="1535.67,-242.54 1545.08,-237.65 1534.68,-235.61 1535.67,-242.54"/>
</g>
<!-- Node42 -->
<g id="node42" class="node">
<title>Node42</title>
<g id="a_node42"><a xlink:title=" ">
<polygon fill="#e0e0e0" stroke="#999999" points="846.08,-239 758.08,-239 758.08,-220 846.08,-220 846.08,-239"/>
<text text-anchor="middle" x="802.08" y="-227" font-family="Helvetica,sans-Serif" font-size="10.00">openssl/pem.h</text>
</a>
</g>
</g>
<!-- Node17&#45;&gt;Node42 -->
<g id="edge59" class="edge">
<title>Node17&#45;&gt;Node42</title>
<path fill="none" stroke="#63b8ff" d="M1056.91,-277.23C997.99,-266.43 911.65,-250.59 856.16,-240.42"/>
<polygon fill="#63b8ff" stroke="#63b8ff" points="856.63,-236.95 846.17,-238.59 855.37,-243.83 856.63,-236.95"/>
</g>
<!-- Node43 -->
<g id="node43" class="node">
<title>Node43</title>
<g id="a_node43"><a xlink:title=" ">
<polygon fill="#e0e0e0" stroke="#999999" points="944.08,-239 864.08,-239 864.08,-220 944.08,-220 944.08,-239"/>
<text text-anchor="middle" x="904.08" y="-227" font-family="Helvetica,sans-Serif" font-size="10.00">openssl/ssl.h</text>
</a>
</g>
</g>
<!-- Node17&#45;&gt;Node43 -->
<g id="edge60" class="edge">
<title>Node17&#45;&gt;Node43</title>
<path fill="none" stroke="#63b8ff" d="M1069.1,-274.99C1031.33,-264.8 980.87,-251.2 945.74,-241.73"/>
<polygon fill="#63b8ff" stroke="#63b8ff" points="946.37,-238.28 935.81,-239.05 944.55,-245.04 946.37,-238.28"/>
</g>
<!-- Node44 -->
<g id="node44" class="node">
<title>Node44</title>
<g id="a_node44"><a xlink:title=" ">
<polygon fill="#e0e0e0" stroke="#999999" points="1052.08,-239 962.08,-239 962.08,-220 1052.08,-220 1052.08,-239"/>
<text text-anchor="middle" x="1007.08" y="-227" font-family="Helvetica,sans-Serif" font-size="10.00">openssl/x509.h</text>
</a>
</g>
</g>
<!-- Node17&#45;&gt;Node44 -->
<g id="edge61" class="edge">
<title>Node17&#45;&gt;Node44</title>
<path fill="none" stroke="#63b8ff" d="M1093.77,-274.99C1075.43,-265.58 1051.4,-253.24 1033.29,-243.95"/>
<polygon fill="#63b8ff" stroke="#63b8ff" points="1034.41,-240.59 1023.91,-239.14 1031.21,-246.82 1034.41,-240.59"/>
</g>
<!-- Node45 -->
<g id="node45" class="node">
<title>Node45</title>
<g id="a_node45"><a xlink:title=" ">
<polygon fill="#e0e0e0" stroke="#999999" points="1172.08,-239 1070.08,-239 1070.08,-220 1172.08,-220 1172.08,-239"/>
<text text-anchor="middle" x="1121.08" y="-227" font-family="Helvetica,sans-Serif" font-size="10.00">openssl/x509v3.h</text>
</a>
</g>
</g>
<!-- Node17&#45;&gt;Node45 -->
<g id="edge62" class="edge">
<title>Node17&#45;&gt;Node45</title>
<path fill="none" stroke="#63b8ff" d="M1121.08,-274.84C1121.08,-267.21 1121.08,-257.7 1121.08,-249.45"/>
<polygon fill="#63b8ff" stroke="#63b8ff" points="1124.58,-249.27 1121.08,-239.27 1117.58,-249.27 1124.58,-249.27"/>
</g>
<!-- Node19 -->
<g id="node19" class="node">
<title>Node19</title>
<g id="a_node19"><a xlink:href="json_8h.html" target="_top" xlink:title=" ">
<polygon fill="white" stroke="#666666" points="1328.58,-184 1251.58,-184 1251.58,-165 1328.58,-165 1328.58,-184"/>
<text text-anchor="middle" x="1290.08" y="-172" font-family="Helvetica,sans-Serif" font-size="10.00">ccf/ds/json.h</text>
</a>
</g>
</g>
<!-- Node18&#45;&gt;Node19 -->
<g id="edge20" class="edge">
<title>Node18&#45;&gt;Node19</title>
<path fill="none" stroke="#63b8ff" d="M1334.33,-219.75C1326.61,-212.03 1315.17,-200.6 1305.86,-191.28"/>
<polygon fill="#63b8ff" stroke="#63b8ff" points="1308.21,-188.69 1298.67,-184.09 1303.26,-193.64 1308.21,-188.69"/>
</g>
<!-- Node18&#45;&gt;Node22 -->
<g id="edge42" class="edge">
<title>Node18&#45;&gt;Node22</title>
<path fill="none" stroke="#63b8ff" d="M1346.37,-219.64C1351.45,-206.75 1362.08,-182.44 1376.08,-165 1395.5,-140.81 1435.32,-136.44 1419.08,-110 1400.56,-79.85 1378.24,-92.49 1348.08,-74 1323.5,-58.94 1296.98,-38.99 1279.77,-25.51"/>
<polygon fill="#63b8ff" stroke="#63b8ff" points="1281.69,-22.56 1271.67,-19.1 1277.34,-28.05 1281.69,-22.56"/>
</g>
<!-- Node28 -->
<g id="node28" class="node">
<title>Node28</title>
<g id="a_node28"><a xlink:title=" ">
<polygon fill="#e0e0e0" stroke="#999999" points="1585.58,-19 1512.58,-19 1512.58,0 1585.58,0 1585.58,-19"/>
<text text-anchor="middle" x="1549.08" y="-7" font-family="Helvetica,sans-Serif" font-size="10.00">string_view</text>
</a>
</g>
</g>
<!-- Node18&#45;&gt;Node28 -->
<g id="edge41" class="edge">
<title>Node18&#45;&gt;Node28</title>
<path fill="none" stroke="#63b8ff" d="M1392.34,-220.29C1462.45,-208.49 1582.97,-187.73 1586.08,-184 1622.79,-139.96 1605.57,-108.92 1586.08,-55 1582.13,-44.09 1574.22,-33.96 1566.71,-26.14"/>
<polygon fill="#63b8ff" stroke="#63b8ff" points="1569.12,-23.6 1559.51,-19.13 1564.24,-28.61 1569.12,-23.6"/>
</g>
<!-- Node29 -->
<g id="node29" class="node">
<title>Node29</title>
<g id="a_node29"><a xlink:title=" ">
<polygon fill="#e0e0e0" stroke="#999999" points="1435.08,-184 1385.08,-184 1385.08,-165 1435.08,-165 1435.08,-184"/>
<text text-anchor="middle" x="1410.08" y="-172" font-family="Helvetica,sans-Serif" font-size="10.00">cstring</text>
</a>
</g>
</g>
<!-- Node18&#45;&gt;Node29 -->
<g id="edge37" class="edge">
<title>Node18&#45;&gt;Node29</title>
<path fill="none" stroke="#63b8ff" d="M1353.84,-219.98C1363.84,-212.07 1378.96,-200.11 1391.01,-190.58"/>
<polygon fill="#63b8ff" stroke="#63b8ff" points="1393.45,-193.12 1399.12,-184.17 1389.1,-187.63 1393.45,-193.12"/>
</g>
<!-- Node30 -->
<g id="node30" class="node">
<title>Node30</title>
<g id="a_node30"><a xlink:title=" ">
<polygon fill="#e0e0e0" stroke="#999999" points="1518.58,-184 1453.58,-184 1453.58,-165 1518.58,-165 1518.58,-184"/>
<text text-anchor="middle" x="1486.08" y="-172" font-family="Helvetica,sans-Serif" font-size="10.00">exception</text>
</a>
</g>
</g>
<!-- Node18&#45;&gt;Node30 -->
<g id="edge38" class="edge">
<title>Node18&#45;&gt;Node30</title>
<path fill="none" stroke="#63b8ff" d="M1366.05,-219.98C1389.58,-211.27 1426.36,-197.63 1453.01,-187.75"/>
<polygon fill="#63b8ff" stroke="#63b8ff" points="1454.52,-190.93 1462.68,-184.17 1452.09,-184.36 1454.52,-190.93"/>
</g>
<!-- Node18&#45;&gt;Node31 -->
<g id="edge39" class="edge">
<title>Node18&#45;&gt;Node31</title>
<path fill="none" stroke="#63b8ff" d="M1392.27,-221.1C1447.55,-212.67 1539.89,-198.21 1619.08,-184 1620.34,-183.77 1621.63,-183.54 1622.92,-183.3"/>
<polygon fill="#63b8ff" stroke="#63b8ff" points="1623.78,-186.7 1632.96,-181.4 1622.48,-179.82 1623.78,-186.7"/>
</g>
<!-- Node32 -->
<g id="node32" class="node">
<title>Node32</title>
<g id="a_node32"><a xlink:title=" ">
<polygon fill="#e0e0e0" stroke="#999999" points="1577.08,-184 1537.08,-184 1537.08,-165 1577.08,-165 1577.08,-184"/>
<text text-anchor="middle" x="1557.08" y="-172" font-family="Helvetica,sans-Serif" font-size="10.00">span</text>
</a>
</g>
</g>
<!-- Node18&#45;&gt;Node32 -->
<g id="edge40" class="edge">
<title>Node18&#45;&gt;Node32</title>
<path fill="none" stroke="#63b8ff" d="M1381.13,-219.92C1416.57,-211.8 1471.11,-198.99 1527.1,-184.16"/>
<polygon fill="#63b8ff" stroke="#63b8ff" points="1528.07,-187.53 1536.83,-181.57 1526.27,-180.76 1528.07,-187.53"/>
</g>
<!-- Node19&#45;&gt;Node4 -->
<g id="edge35" class="edge">
<title>Node19&#45;&gt;Node4</title>
<path fill="none" stroke="#63b8ff" d="M1285.64,-164.67C1277.94,-150.4 1260.64,-122.58 1237.08,-110 1172.41,-75.49 986.46,-83.79 896.81,-73.86"/>
<polygon fill="#63b8ff" stroke="#63b8ff" points="896.98,-70.36 886.62,-72.59 896.11,-77.3 896.98,-70.36"/>
</g>
<!-- Node19&#45;&gt;Node15 -->
<g id="edge36" class="edge">
<title>Node19&#45;&gt;Node15</title>
<path fill="none" stroke="#63b8ff" d="M1259.39,-164.98C1226.18,-155.77 1173.18,-141.06 1137.29,-131.1"/>
<polygon fill="#63b8ff" stroke="#63b8ff" points="1137.77,-127.6 1127.2,-128.3 1135.9,-134.35 1137.77,-127.6"/>
</g>
<!-- Node20 -->
<g id="node20" class="node">
<title>Node20</title>
<g id="a_node20"><a xlink:href="include_2ccf_2crypto_2base64_8h.html" target="_top" xlink:title=" ">
<polygon fill="white" stroke="#666666" points="1577.08,-74 1465.08,-74 1465.08,-55 1577.08,-55 1577.08,-74"/>
<text text-anchor="middle" x="1521.08" y="-62" font-family="Helvetica,sans-Serif" font-size="10.00">ccf/crypto/base64.h</text>
</a>
</g>
</g>
<!-- Node19&#45;&gt;Node20 -->
<g id="edge21" class="edge">
<title>Node19&#45;&gt;Node20</title>
<path fill="none" stroke="#63b8ff" d="M1321.08,-164.95C1347.7,-157.1 1386.78,-144.38 1419.08,-129 1448.96,-114.77 1480.99,-93.78 1501.02,-79.88"/>
<polygon fill="#63b8ff" stroke="#63b8ff" points="1503.16,-82.65 1509.33,-74.04 1499.14,-76.93 1503.16,-82.65"/>
</g>
<!-- Node23 -->
<g id="node23" class="node">
<title>Node23</title>
<g id="a_node23"><a xlink:href="include_2ccf_2ds_2json__schema_8h.html" target="_top" xlink:title=" ">
<polygon fill="white" stroke="#666666" points="1410.58,-129 1289.58,-129 1289.58,-110 1410.58,-110 1410.58,-129"/>
<text text-anchor="middle" x="1350.08" y="-117" font-family="Helvetica,sans-Serif" font-size="10.00">ccf/ds/json_schema.h</text>
</a>
</g>
</g>
<!-- Node19&#45;&gt;Node23 -->
<g id="edge24" class="edge">
<title>Node19&#45;&gt;Node23</title>
<path fill="none" stroke="#63b8ff" d="M1299.72,-164.98C1308.59,-157.15 1321.95,-145.34 1332.69,-135.86"/>
<polygon fill="#63b8ff" stroke="#63b8ff" points="1335.08,-138.41 1340.26,-129.17 1330.45,-133.17 1335.08,-138.41"/>
</g>
<!-- Node20&#45;&gt;Node21 -->
<g id="edge22" class="edge">
<title>Node20&#45;&gt;Node21</title>
<path fill="none" stroke="#63b8ff" d="M1537.95,-54.98C1554.69,-46.54 1580.58,-33.47 1599.97,-23.68"/>
<polygon fill="#63b8ff" stroke="#63b8ff" points="1601.55,-26.8 1608.9,-19.17 1598.4,-20.55 1601.55,-26.8"/>
</g>
<!-- Node20&#45;&gt;Node22 -->
<g id="edge23" class="edge">
<title>Node20&#45;&gt;Node22</title>
<path fill="none" stroke="#63b8ff" d="M1472.4,-54.97C1428.27,-47.02 1361.24,-34.41 1294.62,-19.25"/>
<polygon fill="#63b8ff" stroke="#63b8ff" points="1295.33,-15.82 1284.8,-16.99 1293.76,-22.64 1295.33,-15.82"/>
</g>
<!-- Node23&#45;&gt;Node4 -->
<g id="edge33" class="edge">
<title>Node23&#45;&gt;Node4</title>
<path fill="none" stroke="#63b8ff" d="M1289.51,-111.54C1284.62,-111.01 1279.77,-110.49 1275.08,-110 1109.99,-92.81 1065.46,-96.33 896.59,-73.96"/>
<polygon fill="#63b8ff" stroke="#63b8ff" points="896.99,-70.48 886.62,-72.63 896.07,-77.42 896.99,-70.48"/>
</g>
<!-- Node23&#45;&gt;Node13 -->
<g id="edge34" class="edge">
<title>Node23&#45;&gt;Node13</title>
<path fill="none" stroke="#63b8ff" d="M1289.57,-110.28C1217.95,-100.54 1099.13,-84.4 1025.45,-74.38"/>
<polygon fill="#63b8ff" stroke="#63b8ff" points="1025.74,-70.89 1015.36,-73.01 1024.8,-77.83 1025.74,-70.89"/>
</g>
<!-- Node24 -->
<g id="node24" class="node">
<title>Node24</title>
<g id="a_node24"><a xlink:href="nonstd_8h.html" target="_top" xlink:title=" ">
<polygon fill="white" stroke="#666666" points="1447.08,-74 1357.08,-74 1357.08,-55 1447.08,-55 1447.08,-74"/>
<text text-anchor="middle" x="1402.08" y="-62" font-family="Helvetica,sans-Serif" font-size="10.00">ccf/ds/nonstd.h</text>
</a>
</g>
</g>
<!-- Node23&#45;&gt;Node24 -->
<g id="edge25" class="edge">
<title>Node23&#45;&gt;Node24</title>
<path fill="none" stroke="#63b8ff" d="M1358.66,-109.75C1366.24,-102.03 1377.46,-90.6 1386.59,-81.28"/>
<polygon fill="#63b8ff" stroke="#63b8ff" points="1389.15,-83.68 1393.65,-74.09 1384.15,-78.78 1389.15,-83.68"/>
</g>
<!-- Node24&#45;&gt;Node16 -->
<g id="edge31" class="edge">
<title>Node24&#45;&gt;Node16</title>
<path fill="none" stroke="#63b8ff" d="M1356.91,-59.43C1247.24,-49.54 967.85,-24.36 858.71,-14.52"/>
<polygon fill="#63b8ff" stroke="#63b8ff" points="858.97,-11.03 848.7,-13.62 858.34,-18 858.97,-11.03"/>
</g>
<!-- Node24&#45;&gt;Node21 -->
<g id="edge29" class="edge">
<title>Node24&#45;&gt;Node21</title>
<path fill="none" stroke="#63b8ff" d="M1441.37,-54.94C1478.39,-46.76 1535.63,-33.83 1594,-19.2"/>
<polygon fill="#63b8ff" stroke="#63b8ff" points="1594.91,-22.58 1603.76,-16.74 1593.2,-15.79 1594.91,-22.58"/>
</g>
<!-- Node24&#45;&gt;Node22 -->
<g id="edge32" class="edge">
<title>Node24&#45;&gt;Node22</title>
<path fill="none" stroke="#63b8ff" d="M1379.42,-54.98C1356.23,-46.27 1319.96,-32.63 1293.68,-22.75"/>
<polygon fill="#63b8ff" stroke="#63b8ff" points="1294.74,-19.41 1284.14,-19.17 1292.27,-25.97 1294.74,-19.41"/>
</g>
<!-- Node25 -->
<g id="node25" class="node">
<title>Node25</title>
<g id="a_node25"><a xlink:title=" ">
<polygon fill="#e0e0e0" stroke="#999999" points="1434.08,-19 1370.08,-19 1370.08,0 1434.08,0 1434.08,-19"/>
<text text-anchor="middle" x="1402.08" y="-7" font-family="Helvetica,sans-Serif" font-size="10.00">algorithm</text>
</a>
</g>
</g>
<!-- Node24&#45;&gt;Node25 -->
<g id="edge26" class="edge">
<title>Node24&#45;&gt;Node25</title>
<path fill="none" stroke="#63b8ff" d="M1402.08,-54.75C1402.08,-47.8 1402.08,-37.85 1402.08,-29.13"/>
<polygon fill="#63b8ff" stroke="#63b8ff" points="1405.58,-29.09 1402.08,-19.09 1398.58,-29.09 1405.58,-29.09"/>
</g>
<!-- Node26 -->
<g id="node26" class="node">
<title>Node26</title>
<g id="a_node26"><a xlink:title=" ">
<polygon fill="#e0e0e0" stroke="#999999" points="1494.08,-19 1452.08,-19 1452.08,0 1494.08,0 1494.08,-19"/>
<text text-anchor="middle" x="1473.08" y="-7" font-family="Helvetica,sans-Serif" font-size="10.00">array</text>
</a>
</g>
</g>
<!-- Node24&#45;&gt;Node26 -->
<g id="edge27" class="edge">
<title>Node24&#45;&gt;Node26</title>
<path fill="none" stroke="#63b8ff" d="M1413.48,-54.98C1424.19,-47 1440.42,-34.88 1453.24,-25.31"/>
<polygon fill="#63b8ff" stroke="#63b8ff" points="1455.54,-27.96 1461.46,-19.17 1451.36,-22.35 1455.54,-27.96"/>
</g>
<!-- Node27 -->
<g id="node27" class="node">
<title>Node27</title>
<g id="a_node27"><a xlink:title=" ">
<polygon fill="#e0e0e0" stroke="#999999" points="1351.58,-19 1302.58,-19 1302.58,0 1351.58,0 1351.58,-19"/>
<text text-anchor="middle" x="1327.08" y="-7" font-family="Helvetica,sans-Serif" font-size="10.00">cctype</text>
</a>
</g>
</g>
<!-- Node24&#45;&gt;Node27 -->
<g id="edge28" class="edge">
<title>Node24&#45;&gt;Node27</title>
<path fill="none" stroke="#63b8ff" d="M1390.03,-54.98C1378.61,-46.92 1361.25,-34.65 1347.64,-25.03"/>
<polygon fill="#63b8ff" stroke="#63b8ff" points="1349.53,-22.08 1339.35,-19.17 1345.49,-27.8 1349.53,-22.08"/>
</g>
<!-- Node24&#45;&gt;Node28 -->
<g id="edge30" class="edge">
<title>Node24&#45;&gt;Node28</title>
<path fill="none" stroke="#63b8ff" d="M1425.7,-54.98C1449.98,-46.23 1488.03,-32.51 1515.45,-22.62"/>
<polygon fill="#63b8ff" stroke="#63b8ff" points="1516.81,-25.85 1525.03,-19.17 1514.44,-19.27 1516.81,-25.85"/>
</g>
<!-- Node34&#45;&gt;Node4 -->
<g id="edge47" class="edge">
<title>Node34&#45;&gt;Node4</title>
<path fill="none" stroke="#63b8ff" d="M936.87,-164.9C921.24,-157.18 899.36,-144.68 884.08,-129 871.16,-115.75 861.01,-97.13 854.63,-83.48"/>
<polygon fill="#63b8ff" stroke="#63b8ff" points="857.76,-81.9 850.5,-74.18 851.36,-84.74 857.76,-81.9"/>
</g>
<!-- Node34&#45;&gt;Node11 -->
<g id="edge46" class="edge">
<title>Node34&#45;&gt;Node11</title>
<path fill="none" stroke="#63b8ff" d="M930.53,-164.98C903.95,-156.13 862.14,-142.19 832.41,-132.28"/>
<polygon fill="#63b8ff" stroke="#63b8ff" points="833.42,-128.92 822.82,-129.08 831.2,-135.56 833.42,-128.92"/>
</g>
<!-- Node34&#45;&gt;Node15 -->
<g id="edge49" class="edge">
<title>Node34&#45;&gt;Node15</title>
<path fill="none" stroke="#63b8ff" d="M979.05,-164.98C1002.58,-156.27 1039.36,-142.63 1066.01,-132.75"/>
<polygon fill="#63b8ff" stroke="#63b8ff" points="1067.52,-135.93 1075.68,-129.17 1065.09,-129.36 1067.52,-135.93"/>
</g>
<!-- Node34&#45;&gt;Node22 -->
<g id="edge51" class="edge">
<title>Node34&#45;&gt;Node22</title>
<path fill="none" stroke="#63b8ff" d="M969.61,-164.94C989.57,-152.42 1028.22,-128.57 1062.08,-110 1122.33,-76.95 1194.96,-41.78 1233.65,-23.4"/>
<polygon fill="#63b8ff" stroke="#63b8ff" points="1235.19,-26.54 1242.73,-19.1 1232.19,-20.22 1235.19,-26.54"/>
</g>
<!-- Node34&#45;&gt;Node33 -->
<g id="edge45" class="edge">
<title>Node34&#45;&gt;Node33</title>
<path fill="none" stroke="#63b8ff" d="M990.59,-165C1024.85,-156.55 1079.12,-143.15 1135.1,-129.24"/>
<polygon fill="#63b8ff" stroke="#63b8ff" points="1135.97,-132.63 1144.83,-126.82 1134.28,-125.84 1135.97,-132.63"/>
</g>
<!-- Node35 -->
<g id="node35" class="node">
<title>Node35</title>
<g id="a_node35"><a xlink:title=" ">
<polygon fill="#e0e0e0" stroke="#999999" points="949.08,-129 893.08,-129 893.08,-110 949.08,-110 949.08,-129"/>
<text text-anchor="middle" x="921.08" y="-117" font-family="Helvetica,sans-Serif" font-size="10.00">iomanip</text>
</a>
</g>
</g>
<!-- Node34&#45;&gt;Node35 -->
<g id="edge48" class="edge">
<title>Node34&#45;&gt;Node35</title>
<path fill="none" stroke="#63b8ff" d="M950.3,-164.75C945.46,-157.42 938.4,-146.73 932.43,-137.7"/>
<polygon fill="#63b8ff" stroke="#63b8ff" points="935.18,-135.5 926.75,-129.09 929.34,-139.36 935.18,-135.5"/>
</g>
<!-- Node36 -->
<g id="node36" class="node">
<title>Node36</title>
<g id="a_node36"><a xlink:title=" ">
<polygon fill="#e0e0e0" stroke="#999999" points="1015.08,-129 967.08,-129 967.08,-110 1015.08,-110 1015.08,-129"/>
<text text-anchor="middle" x="991.08" y="-117" font-family="Helvetica,sans-Serif" font-size="10.00">time.h</text>
</a>
</g>
</g>
<!-- Node34&#45;&gt;Node36 -->
<g id="edge50" class="edge">
<title>Node34&#45;&gt;Node36</title>
<path fill="none" stroke="#63b8ff" d="M961.86,-164.75C966.7,-157.42 973.76,-146.73 979.72,-137.7"/>
<polygon fill="#63b8ff" stroke="#63b8ff" points="982.82,-139.36 985.41,-129.09 976.97,-135.5 982.82,-139.36"/>
</g>
</g>
</svg>
