<?xml version="1.0" encoding="UTF-8" standalone="no"?>
<!DOCTYPE svg PUBLIC "-//W3C//DTD SVG 1.1//EN"
 "http://www.w3.org/Graphics/SVG/1.1/DTD/svg11.dtd">
<!-- Generated by graphviz version 2.43.0 (0)
 -->
<!-- Title: host::CCHostConfig Pages: 1 -->
<!--zoomable 718 -->
<svg id="main" version="1.1" xmlns="http://www.w3.org/2000/svg" xmlns:xlink="http://www.w3.org/1999/xlink" xml:space="preserve" onload="init(evt)">
<style type="text/css"><![CDATA[
.edge:hover path { stroke: red; }
.edge:hover polygon { stroke: red; fill: red; }
]]></style>
<script type="text/javascript"><![CDATA[
var edges = document.getElementsByTagName('g');
if (edges && edges.length) {
  for (var i=0;i<edges.length;i++) {
    if (edges[i].id.substr(0,4)=='edge') {
      edges[i].setAttribute('class','edge');
    }
  }
}
]]></script>
        <defs>
                <circle id="rim" cx="0" cy="0" r="7"/>
                <circle id="rim2" cx="0" cy="0" r="3.5"/>
                <g id="zoomPlus">
                        <use xlink:href="#rim" fill="#404040">
                                <set attributeName="fill" to="#808080" begin="zoomplus.mouseover" end="zoomplus.mouseout"/>
                        </use>
                        <path d="M-4,0h8M0,-4v8" fill="none" stroke="white" stroke-width="1.5" pointer-events="none"/>
                </g>
                <g id="zoomMin">
                        <use xlink:href="#rim" fill="#404040">
                                <set attributeName="fill" to="#808080" begin="zoomminus.mouseover" end="zoomminus.mouseout"/>
                        </use>
                        <path d="M-4,0h8" fill="none" stroke="white" stroke-width="1.5" pointer-events="none"/>
                </g>
                <g id="dirArrow">
                        <path fill="none" stroke="white" stroke-width="1.5" d="M0,-3.0v7 M-2.5,-0.5L0,-3.0L2.5,-0.5"/>
                </g>
               <g id="resetDef">
                       <use xlink:href="#rim2" fill="#404040">
                               <set attributeName="fill" to="#808080" begin="reset.mouseover" end="reset.mouseout"/>
                       </use>
               </g>
        </defs>

<script type="text/javascript">
var viewWidth = 1932;
var viewHeight = 718;
var sectionId = 'dynsection-0';
</script>
<script xlink:href="svgpan.js"/>
<svg id="graph" class="graph">
<g id="viewport">
<title>host::CCHostConfig</title>
<!-- Node1 -->
<g id="node1" class="node">
<title>Node1</title>
<g id="a_node1"><a xlink:title=" ">
<polygon fill="#999999" stroke="#666666" points="1924,-298.07 1814,-298.07 1814,-279.07 1924,-279.07 1924,-298.07"/>
<text text-anchor="middle" x="1869" y="-286.07" font-family="Helvetica,sans-Serif" font-size="10.00">host::CCHostConfig</text>
</a>
</g>
</g>
<!-- Node2 -->
<g id="node2" class="node">
<title>Node2</title>
<g id="a_node2"><a xlink:href="structCCFConfig.html" target="_top" xlink:title=" ">
<polygon fill="white" stroke="#666666" points="1704.5,-553.07 1637.5,-553.07 1637.5,-534.07 1704.5,-534.07 1704.5,-553.07"/>
<text text-anchor="middle" x="1671" y="-541.07" font-family="Helvetica,sans-Serif" font-size="10.00">CCFConfig</text>
</a>
</g>
</g>
<!-- Node2&#45;&gt;Node1 -->
<g id="edge1" class="edge">
<title>Node2&#45;&gt;Node1</title>
<path fill="none" stroke="#63b8ff" d="M1688.4,-526.52C1713.02,-500.55 1760.43,-449.09 1796,-401.57 1823.32,-365.07 1851.01,-318.22 1862.49,-298.26"/>
<polygon fill="#63b8ff" stroke="#63b8ff" points="1685.62,-524.36 1681.25,-534.01 1690.69,-529.19 1685.62,-524.36"/>
</g>
<!-- Node3 -->
<g id="node3" class="node">
<title>Node3</title>
<g id="a_node3"><a xlink:href="structconsensus_1_1Configuration.html" target="_top" xlink:title=" ">
<polygon fill="white" stroke="#666666" points="1437.5,-634.07 1298.5,-634.07 1298.5,-615.07 1437.5,-615.07 1437.5,-634.07"/>
<text text-anchor="middle" x="1368" y="-622.07" font-family="Helvetica,sans-Serif" font-size="10.00">consensus::Configuration</text>
</a>
</g>
</g>
<!-- Node3&#45;&gt;Node2 -->
<g id="edge2" class="edge">
<title>Node3&#45;&gt;Node2</title>
<path fill="none" stroke="#9a32cd" stroke-dasharray="5,2" d="M1430.89,-612.24C1436.41,-610.55 1441.85,-608.67 1447,-606.57 1455.68,-603.02 1456.23,-598.87 1465,-595.57 1521.15,-574.44 1540.3,-588.98 1598,-572.57 1615.89,-567.48 1635.41,-559.45 1649.61,-553.13"/>
<polygon fill="#9a32cd" stroke="#9a32cd" points="1429.59,-608.97 1420.92,-615.05 1431.49,-615.7 1429.59,-608.97"/>
<text text-anchor="middle" x="1531.5" y="-598.57" font-family="Helvetica,sans-Serif" font-size="10.00"> consensus</text>
</g>
<!-- Node4 -->
<g id="node4" class="node">
<title>Node4</title>
<g id="a_node4"><a xlink:href="structds_1_1TimeString.html" target="_top" xlink:title=" ">
<polygon fill="white" stroke="#666666" points="1103,-560.07 1016,-560.07 1016,-541.07 1103,-541.07 1103,-560.07"/>
<text text-anchor="middle" x="1059.5" y="-548.07" font-family="Helvetica,sans-Serif" font-size="10.00">ds::TimeString</text>
</a>
</g>
</g>
<!-- Node4&#45;&gt;Node1 -->
<g id="edge24" class="edge">
<title>Node4&#45;&gt;Node1</title>
<path fill="none" stroke="#9a32cd" stroke-dasharray="5,2" d="M1112.88,-553.58C1124.03,-556.52 1134.88,-561.45 1143,-569.57 1168.16,-594.72 1133.16,-625.42 1161,-647.57 1179.93,-662.63 1462.56,-680.15 1598,-640.57 1716.55,-605.92 1738.46,-554.86 1796,-445.57 1824.64,-391.17 1853.58,-323.22 1863.98,-298.3"/>
<polygon fill="#9a32cd" stroke="#9a32cd" points="1113.57,-550.15 1103.06,-551.49 1112.11,-557 1113.57,-550.15"/>
<text text-anchor="middle" x="1531.5" y="-685.57" font-family="Helvetica,sans-Serif" font-size="10.00"> client_connection_timeout</text>
<text text-anchor="middle" x="1531.5" y="-674.57" font-family="Helvetica,sans-Serif" font-size="10.00">slow_io_logging_threshold</text>
<text text-anchor="middle" x="1531.5" y="-663.57" font-family="Helvetica,sans-Serif" font-size="10.00">tick_interval</text>
</g>
<!-- Node4&#45;&gt;Node3 -->
<g id="edge3" class="edge">
<title>Node4&#45;&gt;Node3</title>
<path fill="none" stroke="#9a32cd" stroke-dasharray="5,2" d="M1113.07,-557.41C1123.46,-560.19 1133.95,-564.09 1143,-569.57 1153.52,-575.93 1150.29,-584.54 1161,-590.57 1202.69,-614.05 1256.16,-622.35 1298.17,-624.89"/>
<polygon fill="#9a32cd" stroke="#9a32cd" points="1113.71,-553.97 1103.17,-555.08 1112.1,-560.78 1113.71,-553.97"/>
<text text-anchor="middle" x="1216" y="-635.57" font-family="Helvetica,sans-Serif" font-size="10.00"> election_timeout</text>
<text text-anchor="middle" x="1216" y="-624.57" font-family="Helvetica,sans-Serif" font-size="10.00">message_timeout</text>
</g>
<!-- Node14 -->
<g id="node14" class="node">
<title>Node14</title>
<g id="a_node14"><a xlink:href="structCCFConfig_1_1LedgerSignatures.html" target="_top" xlink:title=" ">
<polygon fill="white" stroke="#666666" points="1447,-597.07 1289,-597.07 1289,-578.07 1447,-578.07 1447,-597.07"/>
<text text-anchor="middle" x="1368" y="-585.07" font-family="Helvetica,sans-Serif" font-size="10.00">CCFConfig::LedgerSignatures</text>
</a>
</g>
</g>
<!-- Node4&#45;&gt;Node14 -->
<g id="edge19" class="edge">
<title>Node4&#45;&gt;Node14</title>
<path fill="none" stroke="#9a32cd" stroke-dasharray="5,2" d="M1112.95,-557.48C1128.42,-559.48 1145.39,-561.65 1161,-563.57 1203.17,-568.75 1250.23,-574.26 1288.72,-578.68"/>
<polygon fill="#9a32cd" stroke="#9a32cd" points="1113.4,-554.01 1103.03,-556.19 1112.49,-560.95 1113.4,-554.01"/>
<text text-anchor="middle" x="1216" y="-578.57" font-family="Helvetica,sans-Serif" font-size="10.00"> delay</text>
</g>
<!-- Node15 -->
<g id="node15" class="node">
<title>Node15</title>
<g id="a_node15"><a xlink:href="structCCFConfig_1_1JWT.html" target="_top" xlink:title=" ">
<polygon fill="white" stroke="#666666" points="1414,-560.07 1322,-560.07 1322,-541.07 1414,-541.07 1414,-560.07"/>
<text text-anchor="middle" x="1368" y="-548.07" font-family="Helvetica,sans-Serif" font-size="10.00">CCFConfig::JWT</text>
</a>
</g>
</g>
<!-- Node4&#45;&gt;Node15 -->
<g id="edge21" class="edge">
<title>Node4&#45;&gt;Node15</title>
<path fill="none" stroke="#9a32cd" stroke-dasharray="5,2" d="M1113.31,-550.57C1172.12,-550.57 1266.2,-550.57 1321.75,-550.57"/>
<polygon fill="#9a32cd" stroke="#9a32cd" points="1113.12,-547.07 1103.12,-550.57 1113.12,-554.07 1113.12,-547.07"/>
<text text-anchor="middle" x="1216" y="-553.57" font-family="Helvetica,sans-Serif" font-size="10.00"> key_refresh_interval</text>
</g>
<!-- Node28 -->
<g id="node28" class="node">
<title>Node28</title>
<g id="a_node28"><a xlink:href="structhost_1_1CCHostConfig_1_1Command_1_1Join.html" target="_top" xlink:title=" ">
<polygon fill="white" stroke="#666666" points="1423,-522.57 1313,-522.57 1313,-492.57 1423,-492.57 1423,-522.57"/>
<text text-anchor="start" x="1321" y="-510.57" font-family="Helvetica,sans-Serif" font-size="10.00">host::CCHostConfig</text>
<text text-anchor="middle" x="1368" y="-499.57" font-family="Helvetica,sans-Serif" font-size="10.00">::Command::Join</text>
</a>
</g>
</g>
<!-- Node4&#45;&gt;Node28 -->
<g id="edge46" class="edge">
<title>Node4&#45;&gt;Node28</title>
<path fill="none" stroke="#9a32cd" stroke-dasharray="5,2" d="M1112.95,-542.61C1128.42,-540.3 1145.38,-537.79 1161,-535.57 1212.45,-528.23 1271.2,-520.29 1312.76,-514.74"/>
<polygon fill="#9a32cd" stroke="#9a32cd" points="1112.4,-539.15 1103.03,-544.09 1113.43,-546.07 1112.4,-539.15"/>
<text text-anchor="middle" x="1216" y="-538.57" font-family="Helvetica,sans-Serif" font-size="10.00"> retry_timeout</text>
</g>
<!-- Node5 -->
<g id="node5" class="node">
<title>Node5</title>
<g id="a_node5"><a xlink:href="structds_1_1UnitString.html" target="_top" xlink:title=" ">
<polygon fill="white" stroke="#666666" points="795.5,-449.07 712.5,-449.07 712.5,-430.07 795.5,-430.07 795.5,-449.07"/>
<text text-anchor="middle" x="754" y="-437.07" font-family="Helvetica,sans-Serif" font-size="10.00">ds::UnitString</text>
</a>
</g>
</g>
<!-- Node5&#45;&gt;Node4 -->
<g id="edge4" class="edge">
<title>Node5&#45;&gt;Node4</title>
<path fill="none" stroke="#63b8ff" d="M790.85,-452.68C852.68,-475.29 977.93,-521.1 1032.32,-540.99"/>
<polygon fill="#63b8ff" stroke="#63b8ff" points="791.73,-449.28 781.14,-449.13 789.33,-455.85 791.73,-449.28"/>
</g>
<!-- Node19 -->
<g id="node19" class="node">
<title>Node19</title>
<g id="a_node19"><a xlink:href="structds_1_1SizeString.html" target="_top" xlink:title=" ">
<polygon fill="white" stroke="#666666" points="1101,-427.07 1018,-427.07 1018,-408.07 1101,-408.07 1101,-427.07"/>
<text text-anchor="middle" x="1059.5" y="-415.07" font-family="Helvetica,sans-Serif" font-size="10.00">ds::SizeString</text>
</a>
</g>
</g>
<!-- Node5&#45;&gt;Node19 -->
<g id="edge31" class="edge">
<title>Node5&#45;&gt;Node19</title>
<path fill="none" stroke="#63b8ff" d="M805.78,-434.85C818.58,-433.71 832.29,-432.55 845,-431.57 905.18,-426.92 974.99,-422.53 1017.95,-419.95"/>
<polygon fill="#63b8ff" stroke="#63b8ff" points="805.4,-431.37 795.75,-435.74 806.03,-438.34 805.4,-431.37"/>
</g>
<!-- Node6 -->
<g id="node6" class="node">
<title>Node6</title>
<g id="a_node6"><a xlink:title=" ">
<polygon fill="white" stroke="#666666" points="206,-337.07 141,-337.07 141,-318.07 206,-318.07 206,-337.07"/>
<text text-anchor="middle" x="173.5" y="-325.07" font-family="Helvetica,sans-Serif" font-size="10.00">std::string</text>
</a>
</g>
</g>
<!-- Node6&#45;&gt;Node5 -->
<g id="edge5" class="edge">
<title>Node6&#45;&gt;Node5</title>
<path fill="none" stroke="#9a32cd" stroke-dasharray="5,2" d="M184.05,-346.2C192.51,-360.72 206.28,-380.12 224,-390.57 306.44,-439.15 602.78,-441.17 712.11,-440.19"/>
<polygon fill="#9a32cd" stroke="#9a32cd" points="186.93,-344.18 179.05,-337.09 180.79,-347.54 186.93,-344.18"/>
<text text-anchor="middle" x="458.5" y="-439.57" font-family="Helvetica,sans-Serif" font-size="10.00"> str</text>
</g>
<!-- Node10 -->
<g id="node10" class="node">
<title>Node10</title>
<g id="a_node10"><a xlink:href="structccf_1_1NodeInfoNetwork__v2_1_1NetInterface.html" target="_top" xlink:title=" ">
<polygon fill="white" stroke="#666666" points="519.5,-543.57 397.5,-543.57 397.5,-513.57 519.5,-513.57 519.5,-543.57"/>
<text text-anchor="start" x="405.5" y="-531.57" font-family="Helvetica,sans-Serif" font-size="10.00">ccf::NodeInfoNetwork</text>
<text text-anchor="middle" x="458.5" y="-520.57" font-family="Helvetica,sans-Serif" font-size="10.00">_v2::NetInterface</text>
</a>
</g>
</g>
<!-- Node6&#45;&gt;Node10 -->
<g id="edge10" class="edge">
<title>Node6&#45;&gt;Node10</title>
<path fill="none" stroke="#9a32cd" stroke-dasharray="5,2" d="M174.13,-347.61C174.66,-382.77 181.23,-455.35 224,-492.57 271.26,-533.7 345.26,-538.56 397.25,-535.8"/>
<polygon fill="#9a32cd" stroke="#9a32cd" points="177.63,-347.23 174.14,-337.23 170.63,-347.23 177.63,-347.23"/>
<text text-anchor="middle" x="298.5" y="-549.57" font-family="Helvetica,sans-Serif" font-size="10.00"> bind_address</text>
<text text-anchor="middle" x="298.5" y="-538.57" font-family="Helvetica,sans-Serif" font-size="10.00">published_address</text>
</g>
<!-- Node11 -->
<g id="node11" class="node">
<title>Node11</title>
<g id="a_node11"><a xlink:title=" ">
<polygon fill="white" stroke="#666666" points="827,-602.57 681,-602.57 681,-572.57 827,-572.57 827,-602.57"/>
<text text-anchor="start" x="689" y="-590.57" font-family="Helvetica,sans-Serif" font-size="10.00">std::map&lt; RpcInterfaceID,</text>
<text text-anchor="middle" x="754" y="-579.57" font-family="Helvetica,sans-Serif" font-size="10.00"> NetInterface &gt;</text>
</a>
</g>
</g>
<!-- Node6&#45;&gt;Node11 -->
<g id="edge12" class="edge">
<title>Node6&#45;&gt;Node11</title>
<path fill="none" stroke="#9a32cd" stroke-dasharray="5,2" d="M175.68,-347.39C179.19,-398.7 191.38,-533.78 224,-561.57 362.05,-679.2 601.42,-631 704.02,-602.67"/>
<polygon fill="#9a32cd" stroke="#9a32cd" points="179.17,-347.03 175.03,-337.27 172.18,-347.48 179.17,-347.03"/>
<text text-anchor="middle" x="458.5" y="-639.57" font-family="Helvetica,sans-Serif" font-size="10.00"> keys</text>
</g>
<!-- Node12 -->
<g id="node12" class="node">
<title>Node12</title>
<g id="a_node12"><a xlink:href="structCCFConfig_1_1NodeCertificateInfo.html" target="_top" xlink:title=" ">
<polygon fill="white" stroke="#666666" points="1143,-475.07 976,-475.07 976,-456.07 1143,-456.07 1143,-475.07"/>
<text text-anchor="middle" x="1059.5" y="-463.07" font-family="Helvetica,sans-Serif" font-size="10.00">CCFConfig::NodeCertificateInfo</text>
</a>
</g>
</g>
<!-- Node6&#45;&gt;Node12 -->
<g id="edge15" class="edge">
<title>Node6&#45;&gt;Node12</title>
<path fill="none" stroke="#9a32cd" stroke-dasharray="5,2" d="M179.2,-346.89C185.55,-368.64 199.05,-403.3 224,-421.57 284.85,-466.11 315.97,-443.97 391,-451.57 600.74,-472.81 849.37,-470.94 975.77,-468.07"/>
<polygon fill="#9a32cd" stroke="#9a32cd" points="182.55,-345.87 176.58,-337.12 175.79,-347.68 182.55,-345.87"/>
<text text-anchor="middle" x="603.5" y="-470.57" font-family="Helvetica,sans-Serif" font-size="10.00"> subject_name</text>
</g>
<!-- Node13 -->
<g id="node13" class="node">
<title>Node13</title>
<g id="a_node13"><a xlink:title=" ">
<polygon fill="white" stroke="#666666" points="824,-399.07 684,-399.07 684,-380.07 824,-380.07 824,-399.07"/>
<text text-anchor="middle" x="754" y="-387.07" font-family="Helvetica,sans-Serif" font-size="10.00">std::vector&lt; std::string &gt;</text>
</a>
</g>
</g>
<!-- Node6&#45;&gt;Node13 -->
<g id="edge17" class="edge">
<title>Node6&#45;&gt;Node13</title>
<path fill="none" stroke="#9a32cd" stroke-dasharray="5,2" d="M193.33,-343.59C202.08,-350.08 212.98,-356.9 224,-360.57 381.74,-413.08 580.45,-405.9 683.64,-397.14"/>
<polygon fill="#9a32cd" stroke="#9a32cd" points="195.4,-340.76 185.37,-337.34 191.07,-346.27 195.4,-340.76"/>
<text text-anchor="middle" x="458.5" y="-405.57" font-family="Helvetica,sans-Serif" font-size="10.00"> elements</text>
</g>
<!-- Node16 -->
<g id="node16" class="node">
<title>Node16</title>
<g id="a_node16"><a xlink:href="structhost_1_1CCHostConfig_1_1Enclave.html" target="_top" xlink:title=" ">
<polygon fill="white" stroke="#666666" points="658.5,-313.57 548.5,-313.57 548.5,-283.57 658.5,-283.57 658.5,-313.57"/>
<text text-anchor="start" x="556.5" y="-301.57" font-family="Helvetica,sans-Serif" font-size="10.00">host::CCHostConfig</text>
<text text-anchor="middle" x="603.5" y="-290.57" font-family="Helvetica,sans-Serif" font-size="10.00">::Enclave</text>
</a>
</g>
</g>
<!-- Node6&#45;&gt;Node16 -->
<g id="edge23" class="edge">
<title>Node6&#45;&gt;Node16</title>
<path fill="none" stroke="#9a32cd" stroke-dasharray="5,2" d="M216.26,-322.33C218.88,-322.05 221.47,-321.8 224,-321.57 339.23,-311.09 474.63,-304.16 548.21,-300.84"/>
<polygon fill="#9a32cd" stroke="#9a32cd" points="215.71,-318.86 206.16,-323.44 216.48,-325.82 215.71,-318.86"/>
<text text-anchor="middle" x="298.5" y="-324.57" font-family="Helvetica,sans-Serif" font-size="10.00"> file</text>
</g>
<!-- Node17 -->
<g id="node17" class="node">
<title>Node17</title>
<g id="a_node17"><a xlink:href="structhost_1_1CCHostConfig_1_1OutputFiles.html" target="_top" xlink:title=" ">
<polygon fill="white" stroke="#666666" points="956.5,-252.57 846.5,-252.57 846.5,-222.57 956.5,-222.57 956.5,-252.57"/>
<text text-anchor="start" x="854.5" y="-240.57" font-family="Helvetica,sans-Serif" font-size="10.00">host::CCHostConfig</text>
<text text-anchor="middle" x="901.5" y="-229.57" font-family="Helvetica,sans-Serif" font-size="10.00">::OutputFiles</text>
</a>
</g>
</g>
<!-- Node6&#45;&gt;Node17 -->
<g id="edge26" class="edge">
<title>Node6&#45;&gt;Node17</title>
<path fill="none" stroke="#9a32cd" stroke-dasharray="5,2" d="M201.12,-313.29C241.02,-292.79 319.32,-256 391,-242.57 554.46,-211.93 752.61,-223.6 846.35,-231.95"/>
<polygon fill="#9a32cd" stroke="#9a32cd" points="199.31,-310.28 192.06,-318.01 202.55,-316.49 199.31,-310.28"/>
<text text-anchor="middle" x="458.5" y="-289.57" font-family="Helvetica,sans-Serif" font-size="10.00"> node_certificate_file</text>
<text text-anchor="start" x="402.5" y="-278.57" font-family="Helvetica,sans-Serif" font-size="10.00">node_to_node_address</text>
<text text-anchor="middle" x="458.5" y="-267.57" font-family="Helvetica,sans-Serif" font-size="10.00">_file</text>
<text text-anchor="middle" x="458.5" y="-256.57" font-family="Helvetica,sans-Serif" font-size="10.00">pid_file</text>
<text text-anchor="middle" x="458.5" y="-245.57" font-family="Helvetica,sans-Serif" font-size="10.00">rpc_addresses_file</text>
</g>
<!-- Node18 -->
<g id="node18" class="node">
<title>Node18</title>
<g id="a_node18"><a xlink:href="structhost_1_1CCHostConfig_1_1Ledger.html" target="_top" xlink:title=" ">
<polygon fill="white" stroke="#666666" points="1423,-361.57 1313,-361.57 1313,-331.57 1423,-331.57 1423,-361.57"/>
<text text-anchor="start" x="1321" y="-349.57" font-family="Helvetica,sans-Serif" font-size="10.00">host::CCHostConfig</text>
<text text-anchor="middle" x="1368" y="-338.57" font-family="Helvetica,sans-Serif" font-size="10.00">::Ledger</text>
</a>
</g>
</g>
<!-- Node6&#45;&gt;Node18 -->
<g id="edge28" class="edge">
<title>Node6&#45;&gt;Node18</title>
<path fill="none" stroke="#9a32cd" stroke-dasharray="5,2" d="M216.26,-332.05C218.87,-332.25 221.47,-332.42 224,-332.57 439.84,-344.77 1116.2,-346.34 1312.86,-346.54"/>
<polygon fill="#9a32cd" stroke="#9a32cd" points="216.42,-328.55 206.16,-331.19 215.82,-335.53 216.42,-328.55"/>
<text text-anchor="middle" x="754" y="-346.57" font-family="Helvetica,sans-Serif" font-size="10.00"> directory</text>
</g>
<!-- Node20 -->
<g id="node20" class="node">
<title>Node20</title>
<g id="a_node20"><a xlink:href="structhost_1_1CCHostConfig_1_1Snapshots.html" target="_top" xlink:title=" ">
<polygon fill="white" stroke="#666666" points="1271,-187.57 1161,-187.57 1161,-157.57 1271,-157.57 1271,-187.57"/>
<text text-anchor="start" x="1169" y="-175.57" font-family="Helvetica,sans-Serif" font-size="10.00">host::CCHostConfig</text>
<text text-anchor="middle" x="1216" y="-164.57" font-family="Helvetica,sans-Serif" font-size="10.00">::Snapshots</text>
</a>
</g>
</g>
<!-- Node6&#45;&gt;Node20 -->
<g id="edge33" class="edge">
<title>Node6&#45;&gt;Node20</title>
<path fill="none" stroke="#9a32cd" stroke-dasharray="5,2" d="M180.08,-308.36C186.96,-288.4 200.7,-257.98 224,-242.57 286.4,-201.3 316.63,-229.64 391,-221.57 680.22,-190.16 1028.88,-177.75 1160.86,-173.96"/>
<polygon fill="#9a32cd" stroke="#9a32cd" points="176.73,-307.37 177.02,-317.96 183.4,-309.5 176.73,-307.37"/>
<text text-anchor="middle" x="603.5" y="-209.57" font-family="Helvetica,sans-Serif" font-size="10.00"> directory</text>
</g>
<!-- Node23 -->
<g id="node23" class="node">
<title>Node23</title>
<g id="a_node23"><a xlink:href="structhost_1_1CCHostConfig_1_1Command.html" target="_top" xlink:title=" ">
<polygon fill="white" stroke="#666666" points="1726,-136.57 1616,-136.57 1616,-106.57 1726,-106.57 1726,-136.57"/>
<text text-anchor="start" x="1624" y="-124.57" font-family="Helvetica,sans-Serif" font-size="10.00">host::CCHostConfig</text>
<text text-anchor="middle" x="1671" y="-113.57" font-family="Helvetica,sans-Serif" font-size="10.00">::Command</text>
</a>
</g>
</g>
<!-- Node6&#45;&gt;Node23 -->
<g id="edge38" class="edge">
<title>Node6&#45;&gt;Node23</title>
<path fill="none" stroke="#9a32cd" stroke-dasharray="5,2" d="M175.05,-307.76C177.11,-249.61 186.27,-81.23 224,-44.57 299.21,28.52 352.63,-10.57 457.5,-10.57 457.5,-10.57 457.5,-10.57 1369,-10.57 1473.37,-10.57 1504.24,-16.71 1598,-62.57 1620.5,-73.57 1642.15,-92.88 1655.73,-106.4"/>
<polygon fill="#9a32cd" stroke="#9a32cd" points="171.55,-307.74 174.73,-317.84 178.55,-307.96 171.55,-307.74"/>
<text text-anchor="middle" x="901.5" y="-13.57" font-family="Helvetica,sans-Serif" font-size="10.00"> service_certificate_file</text>
</g>
<!-- Node26 -->
<g id="node26" class="node">
<title>Node26</title>
<g id="a_node26"><a xlink:href="structhost_1_1ParsedMemberInfo.html" target="_top" xlink:title=" ">
<polygon fill="white" stroke="#666666" points="526,-149.07 391,-149.07 391,-130.07 526,-130.07 526,-149.07"/>
<text text-anchor="middle" x="458.5" y="-137.07" font-family="Helvetica,sans-Serif" font-size="10.00">host::ParsedMemberInfo</text>
</a>
</g>
</g>
<!-- Node6&#45;&gt;Node26 -->
<g id="edge42" class="edge">
<title>Node6&#45;&gt;Node26</title>
<path fill="none" stroke="#9a32cd" stroke-dasharray="5,2" d="M177.28,-307.85C183.5,-266.72 199.93,-173.96 224,-154.57 279.83,-109.59 369.67,-119.5 420.08,-130"/>
<polygon fill="#9a32cd" stroke="#9a32cd" points="173.81,-307.37 175.82,-317.77 180.74,-308.38 173.81,-307.37"/>
<text text-anchor="middle" x="298.5" y="-157.57" font-family="Helvetica,sans-Serif" font-size="10.00"> certificate_file</text>
</g>
<!-- Node29 -->
<g id="node29" class="node">
<title>Node29</title>
<g id="a_node29"><a xlink:href="structhost_1_1CCHostConfig_1_1Command_1_1Recover.html" target="_top" xlink:title=" ">
<polygon fill="white" stroke="#666666" points="663,-83.57 544,-83.57 544,-53.57 663,-53.57 663,-83.57"/>
<text text-anchor="start" x="552" y="-71.57" font-family="Helvetica,sans-Serif" font-size="10.00">host::CCHostConfig</text>
<text text-anchor="middle" x="603.5" y="-60.57" font-family="Helvetica,sans-Serif" font-size="10.00">::Command::Recover</text>
</a>
</g>
</g>
<!-- Node6&#45;&gt;Node29 -->
<g id="edge48" class="edge">
<title>Node6&#45;&gt;Node29</title>
<path fill="none" stroke="#9a32cd" stroke-dasharray="5,2" d="M176.02,-307.95C180.24,-258.97 193.84,-133.3 224,-106.57 312.22,-28.37 461.43,-40.75 543.69,-55.41"/>
<polygon fill="#9a32cd" stroke="#9a32cd" points="172.53,-307.67 175.2,-317.92 179.51,-308.24 172.53,-307.67"/>
<text text-anchor="middle" x="298.5" y="-109.57" font-family="Helvetica,sans-Serif" font-size="10.00"> previous_service_identity_file</text>
</g>
<!-- Node7 -->
<g id="node7" class="node">
<title>Node7</title>
<g id="a_node7"><a xlink:title=" ">
<polygon fill="white" stroke="#666666" points="104,-342.57 0,-342.57 0,-312.57 104,-312.57 104,-342.57"/>
<text text-anchor="start" x="8" y="-330.57" font-family="Helvetica,sans-Serif" font-size="10.00">std::basic_string&lt;</text>
<text text-anchor="middle" x="52" y="-319.57" font-family="Helvetica,sans-Serif" font-size="10.00"> Char &gt;</text>
</a>
</g>
</g>
<!-- Node7&#45;&gt;Node6 -->
<g id="edge6" class="edge">
<title>Node7&#45;&gt;Node6</title>
<path fill="none" stroke="#63b8ff" d="M114.1,-327.57C123.41,-327.57 132.68,-327.57 141,-327.57"/>
<polygon fill="#63b8ff" stroke="#63b8ff" points="114.03,-324.07 104.03,-327.57 114.03,-331.07 114.03,-324.07"/>
</g>
<!-- Node8 -->
<g id="node8" class="node">
<title>Node8</title>
<g id="a_node8"><a xlink:href="structccf_1_1NodeInfoNetwork.html" target="_top" xlink:title=" ">
<polygon fill="white" stroke="#666666" points="1429,-710.07 1307,-710.07 1307,-691.07 1429,-691.07 1429,-710.07"/>
<text text-anchor="middle" x="1368" y="-698.07" font-family="Helvetica,sans-Serif" font-size="10.00">ccf::NodeInfoNetwork</text>
</a>
</g>
</g>
<!-- Node8&#45;&gt;Node2 -->
<g id="edge7" class="edge">
<title>Node8&#45;&gt;Node2</title>
<path fill="none" stroke="#9a32cd" stroke-dasharray="5,2" d="M1390.84,-684.88C1406.55,-673.52 1428.19,-657.75 1447,-643.57 1455.09,-637.47 1455.73,-633.66 1465,-629.57 1519.87,-605.32 1543.85,-632.39 1598,-606.57 1624.99,-593.7 1649.62,-567.78 1661.87,-553.53"/>
<polygon fill="#9a32cd" stroke="#9a32cd" points="1388.4,-682.32 1382.34,-691.01 1392.5,-688 1388.4,-682.32"/>
<text text-anchor="middle" x="1531.5" y="-632.57" font-family="Helvetica,sans-Serif" font-size="10.00"> network</text>
</g>
<!-- Node9 -->
<g id="node9" class="node">
<title>Node9</title>
<g id="a_node9"><a xlink:href="structccf_1_1NodeInfoNetwork__v2.html" target="_top" xlink:title=" ">
<polygon fill="white" stroke="#666666" points="1129,-597.07 990,-597.07 990,-578.07 1129,-578.07 1129,-597.07"/>
<text text-anchor="middle" x="1059.5" y="-585.07" font-family="Helvetica,sans-Serif" font-size="10.00">ccf::NodeInfoNetwork_v2</text>
</a>
</g>
</g>
<!-- Node9&#45;&gt;Node8 -->
<g id="edge8" class="edge">
<title>Node9&#45;&gt;Node8</title>
<path fill="none" stroke="#63b8ff" d="M1074.23,-604.97C1091.85,-625.9 1124.53,-660.27 1161,-676.57 1207.02,-697.14 1264.31,-702.39 1306.79,-702.92"/>
<polygon fill="#63b8ff" stroke="#63b8ff" points="1076.88,-602.68 1067.83,-597.16 1071.46,-607.11 1076.88,-602.68"/>
</g>
<!-- Node10&#45;&gt;Node9 -->
<g id="edge9" class="edge">
<title>Node10&#45;&gt;Node9</title>
<path fill="none" stroke="#9a32cd" stroke-dasharray="5,2" d="M529.93,-531.39C604.02,-534.77 723.94,-541.43 827,-552.57 888.02,-559.16 957.6,-570.15 1004.41,-578.06"/>
<polygon fill="#9a32cd" stroke="#9a32cd" points="529.94,-527.89 519.79,-530.93 529.62,-534.88 529.94,-527.89"/>
<text text-anchor="middle" x="754" y="-555.57" font-family="Helvetica,sans-Serif" font-size="10.00"> node_to_node_interface</text>
</g>
<!-- Node10&#45;&gt;Node11 -->
<g id="edge13" class="edge">
<title>Node10&#45;&gt;Node11</title>
<path fill="none" stroke="#9a32cd" stroke-dasharray="5,2" d="M529.95,-538.47C569.29,-544.46 619.09,-552.83 663,-562.57 675.82,-565.41 689.54,-568.96 702.31,-572.48"/>
<polygon fill="#9a32cd" stroke="#9a32cd" points="530.34,-534.99 519.93,-536.96 529.29,-541.91 530.34,-534.99"/>
<text text-anchor="middle" x="603.5" y="-565.57" font-family="Helvetica,sans-Serif" font-size="10.00"> elements</text>
</g>
<!-- Node11&#45;&gt;Node9 -->
<g id="edge11" class="edge">
<title>Node11&#45;&gt;Node9</title>
<path fill="none" stroke="#9a32cd" stroke-dasharray="5,2" d="M837.32,-587.57C885.12,-587.57 944.62,-587.57 989.87,-587.57"/>
<polygon fill="#9a32cd" stroke="#9a32cd" points="837.31,-584.07 827.31,-587.57 837.31,-591.07 837.31,-584.07"/>
<text text-anchor="middle" x="901.5" y="-590.57" font-family="Helvetica,sans-Serif" font-size="10.00"> rpc_interfaces</text>
</g>
<!-- Node12&#45;&gt;Node2 -->
<g id="edge14" class="edge">
<title>Node12&#45;&gt;Node2</title>
<path fill="none" stroke="#9a32cd" stroke-dasharray="5,2" d="M1153.61,-460.23C1232.27,-457.39 1347.67,-457.16 1447,-472.57 1522.88,-484.34 1608.27,-517.43 1647.76,-533.94"/>
<polygon fill="#9a32cd" stroke="#9a32cd" points="1153.1,-456.74 1143.24,-460.62 1153.36,-463.74 1153.1,-456.74"/>
<text text-anchor="middle" x="1368" y="-475.57" font-family="Helvetica,sans-Serif" font-size="10.00"> node_certificate</text>
</g>
<!-- Node13&#45;&gt;Node12 -->
<g id="edge16" class="edge">
<title>Node13&#45;&gt;Node12</title>
<path fill="none" stroke="#9a32cd" stroke-dasharray="5,2" d="M803.14,-401.62C863.34,-416.7 965.16,-442.19 1020.29,-456"/>
<polygon fill="#9a32cd" stroke="#9a32cd" points="803.68,-398.15 793.13,-399.12 801.98,-404.94 803.68,-398.15"/>
<text text-anchor="middle" x="901.5" y="-441.57" font-family="Helvetica,sans-Serif" font-size="10.00"> subject_alt_names</text>
</g>
<!-- Node13&#45;&gt;Node18 -->
<g id="edge29" class="edge">
<title>Node13&#45;&gt;Node18</title>
<path fill="none" stroke="#9a32cd" stroke-dasharray="5,2" d="M834.01,-384.02C960.35,-375.14 1204.62,-357.98 1312.97,-350.36"/>
<polygon fill="#9a32cd" stroke="#9a32cd" points="833.74,-380.53 824.01,-384.72 834.24,-387.51 833.74,-380.53"/>
<text text-anchor="middle" x="1059.5" y="-376.57" font-family="Helvetica,sans-Serif" font-size="10.00"> read_only_directories</text>
</g>
<!-- Node24 -->
<g id="node24" class="node">
<title>Node24</title>
<g id="a_node24"><a xlink:href="structhost_1_1CCHostConfig_1_1Command_1_1Start.html" target="_top" xlink:title=" ">
<polygon fill="white" stroke="#666666" points="1114.5,-144.57 1004.5,-144.57 1004.5,-114.57 1114.5,-114.57 1114.5,-144.57"/>
<text text-anchor="start" x="1012.5" y="-132.57" font-family="Helvetica,sans-Serif" font-size="10.00">host::CCHostConfig</text>
<text text-anchor="middle" x="1059.5" y="-121.57" font-family="Helvetica,sans-Serif" font-size="10.00">::Command::Start</text>
</a>
</g>
</g>
<!-- Node13&#45;&gt;Node24 -->
<g id="edge43" class="edge">
<title>Node13&#45;&gt;Node24</title>
<path fill="none" stroke="#9a32cd" stroke-dasharray="5,2" d="M795.61,-376.42C806.15,-372.3 817.27,-367.31 827,-361.57 835.97,-356.28 836.84,-353.03 845,-346.57 894.27,-307.55 913.43,-305.88 958,-261.57 996.2,-223.59 1032.22,-170.66 1048.86,-144.89"/>
<polygon fill="#9a32cd" stroke="#9a32cd" points="794.29,-373.17 786.14,-379.95 796.74,-379.73 794.29,-373.17"/>
<text text-anchor="middle" x="901.5" y="-349.57" font-family="Helvetica,sans-Serif" font-size="10.00"> constitution_files</text>
</g>
<!-- Node14&#45;&gt;Node2 -->
<g id="edge18" class="edge">
<title>Node14&#45;&gt;Node2</title>
<path fill="none" stroke="#9a32cd" stroke-dasharray="5,2" d="M1426.83,-575.53C1433.68,-573.72 1440.54,-571.73 1447,-569.57 1455.3,-566.79 1456.52,-563.76 1465,-561.57 1524.5,-546.19 1596.58,-543.35 1637.49,-543.14"/>
<polygon fill="#9a32cd" stroke="#9a32cd" points="1425.68,-572.21 1416.84,-578.05 1427.39,-579 1425.68,-572.21"/>
<text text-anchor="middle" x="1531.5" y="-564.57" font-family="Helvetica,sans-Serif" font-size="10.00"> ledger_signatures</text>
</g>
<!-- Node15&#45;&gt;Node2 -->
<g id="edge20" class="edge">
<title>Node15&#45;&gt;Node2</title>
<path fill="none" stroke="#9a32cd" stroke-dasharray="5,2" d="M1417.79,-538.62C1440.18,-533.18 1462.39,-527.88 1465,-527.57 1523.7,-520.63 1539.24,-521.12 1598,-527.57 1610.98,-528.99 1625.05,-531.82 1637.28,-534.71"/>
<polygon fill="#9a32cd" stroke="#9a32cd" points="1416.79,-535.26 1407.9,-541.03 1418.44,-542.06 1416.79,-535.26"/>
<text text-anchor="middle" x="1531.5" y="-530.57" font-family="Helvetica,sans-Serif" font-size="10.00"> jwt</text>
</g>
<!-- Node16&#45;&gt;Node1 -->
<g id="edge22" class="edge">
<title>Node16&#45;&gt;Node1</title>
<path fill="none" stroke="#9a32cd" stroke-dasharray="5,2" d="M668.9,-298.06C889.17,-296.31 1610.13,-290.61 1813.91,-289"/>
<polygon fill="#9a32cd" stroke="#9a32cd" points="668.76,-294.56 658.79,-298.14 668.82,-301.56 668.76,-294.56"/>
<text text-anchor="middle" x="1216" y="-296.57" font-family="Helvetica,sans-Serif" font-size="10.00"> enclave</text>
</g>
<!-- Node17&#45;&gt;Node1 -->
<g id="edge25" class="edge">
<title>Node17&#45;&gt;Node1</title>
<path fill="none" stroke="#9a32cd" stroke-dasharray="5,2" d="M966.82,-236.92C1114.09,-236.15 1486.93,-238.33 1796,-274.57 1805.36,-275.66 1815.32,-277.3 1824.76,-279.06"/>
<polygon fill="#9a32cd" stroke="#9a32cd" points="966.59,-233.42 956.61,-236.98 966.63,-240.42 966.59,-233.42"/>
<text text-anchor="middle" x="1368" y="-249.57" font-family="Helvetica,sans-Serif" font-size="10.00"> output_files</text>
</g>
<!-- Node18&#45;&gt;Node1 -->
<g id="edge27" class="edge">
<title>Node18&#45;&gt;Node1</title>
<path fill="none" stroke="#9a32cd" stroke-dasharray="5,2" d="M1433.24,-341.75C1516.99,-335.05 1667.92,-321.58 1796,-302.57 1804.57,-301.3 1813.66,-299.71 1822.4,-298.07"/>
<polygon fill="#9a32cd" stroke="#9a32cd" points="1432.81,-338.27 1423.12,-342.55 1433.36,-345.25 1432.81,-338.27"/>
<text text-anchor="middle" x="1671" y="-326.57" font-family="Helvetica,sans-Serif" font-size="10.00"> ledger</text>
</g>
<!-- Node19&#45;&gt;Node18 -->
<g id="edge30" class="edge">
<title>Node19&#45;&gt;Node18</title>
<path fill="none" stroke="#9a32cd" stroke-dasharray="5,2" d="M1095.75,-404.7C1114.87,-398.05 1139.03,-390.17 1161,-384.57 1189.01,-377.42 1261.7,-364.49 1312.75,-355.72"/>
<polygon fill="#9a32cd" stroke="#9a32cd" points="1094.51,-401.42 1086.25,-408.05 1096.84,-408.03 1094.51,-401.42"/>
<text text-anchor="middle" x="1216" y="-387.57" font-family="Helvetica,sans-Serif" font-size="10.00"> chunk_size</text>
</g>
<!-- Node22 -->
<g id="node22" class="node">
<title>Node22</title>
<g id="a_node22"><a xlink:href="structhost_1_1CCHostConfig_1_1Memory.html" target="_top" xlink:title=" ">
<polygon fill="white" stroke="#666666" points="1586.5,-405.57 1476.5,-405.57 1476.5,-375.57 1586.5,-375.57 1586.5,-405.57"/>
<text text-anchor="start" x="1484.5" y="-393.57" font-family="Helvetica,sans-Serif" font-size="10.00">host::CCHostConfig</text>
<text text-anchor="middle" x="1531.5" y="-382.57" font-family="Helvetica,sans-Serif" font-size="10.00">::Memory</text>
</a>
</g>
</g>
<!-- Node19&#45;&gt;Node22 -->
<g id="edge36" class="edge">
<title>Node19&#45;&gt;Node22</title>
<path fill="none" stroke="#9a32cd" stroke-dasharray="5,2" d="M1111.54,-414.64C1200.84,-409.51 1384.63,-398.95 1476.19,-393.69"/>
<polygon fill="#9a32cd" stroke="#9a32cd" points="1111.17,-411.15 1101.39,-415.22 1111.57,-418.14 1111.17,-411.15"/>
<text text-anchor="middle" x="1216" y="-436.57" font-family="Helvetica,sans-Serif" font-size="10.00"> circuit_size</text>
<text text-anchor="middle" x="1216" y="-425.57" font-family="Helvetica,sans-Serif" font-size="10.00">max_fragment_size</text>
<text text-anchor="middle" x="1216" y="-414.57" font-family="Helvetica,sans-Serif" font-size="10.00">max_msg_size</text>
</g>
<!-- Node20&#45;&gt;Node1 -->
<g id="edge32" class="edge">
<title>Node20&#45;&gt;Node1</title>
<path fill="none" stroke="#9a32cd" stroke-dasharray="5,2" d="M1281.62,-167.91C1378.85,-162.26 1568.18,-156.55 1726,-183.57 1758.28,-189.09 1768.68,-188.52 1796,-206.57 1826.03,-226.41 1851.15,-261.97 1862.1,-278.98"/>
<polygon fill="#9a32cd" stroke="#9a32cd" points="1281.14,-164.43 1271.37,-168.53 1281.56,-171.42 1281.14,-164.43"/>
<text text-anchor="middle" x="1531.5" y="-170.57" font-family="Helvetica,sans-Serif" font-size="10.00"> snapshots</text>
</g>
<!-- Node21 -->
<g id="node21" class="node">
<title>Node21</title>
<g id="a_node21"><a xlink:href="structhost_1_1CCHostConfig_1_1Logging.html" target="_top" xlink:title=" ">
<polygon fill="white" stroke="#666666" points="1726,-222.57 1616,-222.57 1616,-192.57 1726,-192.57 1726,-222.57"/>
<text text-anchor="start" x="1624" y="-210.57" font-family="Helvetica,sans-Serif" font-size="10.00">host::CCHostConfig</text>
<text text-anchor="middle" x="1671" y="-199.57" font-family="Helvetica,sans-Serif" font-size="10.00">::Logging</text>
</a>
</g>
</g>
<!-- Node21&#45;&gt;Node1 -->
<g id="edge34" class="edge">
<title>Node21&#45;&gt;Node1</title>
<path fill="none" stroke="#9a32cd" stroke-dasharray="5,2" d="M1736.29,-209.86C1756.12,-212.39 1777.57,-217.08 1796,-225.57 1823.46,-238.21 1848.27,-264.72 1860.31,-278.99"/>
<polygon fill="#9a32cd" stroke="#9a32cd" points="1736.42,-206.35 1726.09,-208.72 1735.64,-213.31 1736.42,-206.35"/>
<text text-anchor="middle" x="1770" y="-228.57" font-family="Helvetica,sans-Serif" font-size="10.00"> logging</text>
</g>
<!-- Node22&#45;&gt;Node1 -->
<g id="edge35" class="edge">
<title>Node22&#45;&gt;Node1</title>
<path fill="none" stroke="#9a32cd" stroke-dasharray="5,2" d="M1596.56,-391.49C1651.8,-389.97 1732.47,-382.08 1796,-352.57 1823.6,-339.74 1848.35,-312.81 1860.35,-298.3"/>
<polygon fill="#9a32cd" stroke="#9a32cd" points="1596.47,-387.99 1586.55,-391.71 1596.62,-394.99 1596.47,-387.99"/>
<text text-anchor="middle" x="1671" y="-392.57" font-family="Helvetica,sans-Serif" font-size="10.00"> memory</text>
</g>
<!-- Node23&#45;&gt;Node1 -->
<g id="edge37" class="edge">
<title>Node23&#45;&gt;Node1</title>
<path fill="none" stroke="#9a32cd" stroke-dasharray="5,2" d="M1736.32,-119.33C1757.01,-121.48 1778.96,-127.08 1796,-139.57 1844.43,-175.06 1861.77,-251.91 1866.51,-278.93"/>
<polygon fill="#9a32cd" stroke="#9a32cd" points="1736.53,-115.84 1726.29,-118.54 1735.98,-122.82 1736.53,-115.84"/>
<text text-anchor="middle" x="1770" y="-142.57" font-family="Helvetica,sans-Serif" font-size="10.00"> command</text>
</g>
<!-- Node24&#45;&gt;Node23 -->
<g id="edge39" class="edge">
<title>Node24&#45;&gt;Node23</title>
<path fill="none" stroke="#9a32cd" stroke-dasharray="5,2" d="M1124.77,-128.72C1245.26,-127.14 1503.08,-123.76 1615.59,-122.28"/>
<polygon fill="#9a32cd" stroke="#9a32cd" points="1124.54,-125.23 1114.59,-128.86 1124.63,-132.23 1124.54,-125.23"/>
<text text-anchor="middle" x="1368" y="-129.57" font-family="Helvetica,sans-Serif" font-size="10.00"> start</text>
</g>
<!-- Node25 -->
<g id="node25" class="node">
<title>Node25</title>
<g id="a_node25"><a xlink:title=" ">
<polygon fill="white" stroke="#666666" points="813.5,-152.57 694.5,-152.57 694.5,-122.57 813.5,-122.57 813.5,-152.57"/>
<text text-anchor="start" x="702.5" y="-140.57" font-family="Helvetica,sans-Serif" font-size="10.00">std::vector&lt; host::</text>
<text text-anchor="middle" x="754" y="-129.57" font-family="Helvetica,sans-Serif" font-size="10.00">ParsedMemberInfo &gt;</text>
</a>
</g>
</g>
<!-- Node25&#45;&gt;Node24 -->
<g id="edge40" class="edge">
<title>Node25&#45;&gt;Node24</title>
<path fill="none" stroke="#9a32cd" stroke-dasharray="5,2" d="M823.83,-135.75C878.56,-134.31 954.06,-132.32 1004.49,-130.99"/>
<polygon fill="#9a32cd" stroke="#9a32cd" points="823.42,-132.26 813.52,-136.02 823.61,-139.26 823.42,-132.26"/>
<text text-anchor="middle" x="901.5" y="-138.57" font-family="Helvetica,sans-Serif" font-size="10.00"> members</text>
</g>
<!-- Node26&#45;&gt;Node25 -->
<g id="edge41" class="edge">
<title>Node26&#45;&gt;Node25</title>
<path fill="none" stroke="#9a32cd" stroke-dasharray="5,2" d="M536.41,-139.04C585.73,-138.71 648.78,-138.28 694.12,-137.97"/>
<polygon fill="#9a32cd" stroke="#9a32cd" points="536.08,-135.55 526.1,-139.11 536.12,-142.55 536.08,-135.55"/>
<text text-anchor="middle" x="603.5" y="-142.57" font-family="Helvetica,sans-Serif" font-size="10.00"> elements</text>
</g>
<!-- Node27 -->
<g id="node27" class="node">
<title>Node27</title>
<g id="a_node27"><a xlink:href="structccf_1_1ServiceConfiguration.html" target="_top" xlink:title=" ">
<polygon fill="white" stroke="#666666" points="822.5,-104.07 685.5,-104.07 685.5,-85.07 822.5,-85.07 822.5,-104.07"/>
<text text-anchor="middle" x="754" y="-92.07" font-family="Helvetica,sans-Serif" font-size="10.00">ccf::ServiceConfiguration</text>
</a>
</g>
</g>
<!-- Node27&#45;&gt;Node24 -->
<g id="edge44" class="edge">
<title>Node27&#45;&gt;Node24</title>
<path fill="none" stroke="#9a32cd" stroke-dasharray="5,2" d="M833.09,-103.3C870.84,-107.56 916.78,-112.77 958,-117.57 973.01,-119.31 989.28,-121.24 1004.26,-123.03"/>
<polygon fill="#9a32cd" stroke="#9a32cd" points="833.01,-99.77 822.68,-102.13 832.22,-106.73 833.01,-99.77"/>
<text text-anchor="middle" x="901.5" y="-120.57" font-family="Helvetica,sans-Serif" font-size="10.00"> service_configuration</text>
</g>
<!-- Node28&#45;&gt;Node23 -->
<g id="edge45" class="edge">
<title>Node28&#45;&gt;Node23</title>
<path fill="none" stroke="#9a32cd" stroke-dasharray="5,2" d="M1433.26,-499.06C1486.84,-488.28 1560.29,-464.13 1598,-410.57 1627.13,-369.19 1596.4,-230.22 1616,-183.57 1623.8,-165.01 1639.39,-148.09 1651.82,-136.63"/>
<polygon fill="#9a32cd" stroke="#9a32cd" points="1432.34,-495.67 1423.17,-500.98 1433.65,-502.55 1432.34,-495.67"/>
<text text-anchor="middle" x="1531.5" y="-493.57" font-family="Helvetica,sans-Serif" font-size="10.00"> join</text>
</g>
<!-- Node29&#45;&gt;Node23 -->
<g id="edge47" class="edge">
<title>Node29&#45;&gt;Node23</title>
<path fill="none" stroke="#9a32cd" stroke-dasharray="5,2" d="M673.27,-64.2C733.24,-60.77 822.59,-56.57 900.5,-56.57 900.5,-56.57 900.5,-56.57 1369,-56.57 1463.09,-56.57 1570.08,-87.29 1627.75,-106.49"/>
<polygon fill="#9a32cd" stroke="#9a32cd" points="672.94,-60.71 663.16,-64.79 673.35,-67.7 672.94,-60.71"/>
<text text-anchor="middle" x="1059.5" y="-59.57" font-family="Helvetica,sans-Serif" font-size="10.00"> recover</text>
</g>
</g>
</svg>
        <g id="navigator" transform="translate(0 0)" fill="#404254">
                <rect fill="#f2f5e9" fill-opacity="0.5" stroke="#606060" stroke-width=".5" x="0" y="0" width="60" height="60"/>
                <use id="zoomplus" xlink:href="#zoomPlus" x="17" y="9" onmousedown="handleZoom(evt,'in')"/>
                <use id="zoomminus" xlink:href="#zoomMin" x="42" y="9" onmousedown="handleZoom(evt,'out')"/>
                <use id="reset" xlink:href="#resetDef" x="30" y="36" onmousedown="handleReset()"/>
                <g id="arrowUp" xlink:href="#dirArrow" transform="translate(30 24)" onmousedown="handlePan(0,-1)">
                  <use xlink:href="#rim" fill="#404040">
                        <set attributeName="fill" to="#808080" begin="arrowUp.mouseover" end="arrowUp.mouseout"/>
                  </use>
                  <path fill="none" stroke="white" stroke-width="1.5" d="M0,-3.0v7 M-2.5,-0.5L0,-3.0L2.5,-0.5"/>
                </g>
                <g id="arrowRight" xlink:href="#dirArrow" transform="rotate(90) translate(36 -43)" onmousedown="handlePan(1,0)">
                  <use xlink:href="#rim" fill="#404040">
                        <set attributeName="fill" to="#808080" begin="arrowRight.mouseover" end="arrowRight.mouseout"/>
                  </use>
                  <path fill="none" stroke="white" stroke-width="1.5" d="M0,-3.0v7 M-2.5,-0.5L0,-3.0L2.5,-0.5"/>
                </g>
                <g id="arrowDown" xlink:href="#dirArrow" transform="rotate(180) translate(-30 -48)" onmousedown="handlePan(0,1)">
                  <use xlink:href="#rim" fill="#404040">
                        <set attributeName="fill" to="#808080" begin="arrowDown.mouseover" end="arrowDown.mouseout"/>
                  </use>
                  <path fill="none" stroke="white" stroke-width="1.5" d="M0,-3.0v7 M-2.5,-0.5L0,-3.0L2.5,-0.5"/>
                </g>
                <g id="arrowLeft" xlink:href="#dirArrow" transform="rotate(270) translate(-36 17)" onmousedown="handlePan(-1,0)">
                  <use xlink:href="#rim" fill="#404040">
                        <set attributeName="fill" to="#808080" begin="arrowLeft.mouseover" end="arrowLeft.mouseout"/>
                  </use>
                  <path fill="none" stroke="white" stroke-width="1.5" d="M0,-3.0v7 M-2.5,-0.5L0,-3.0L2.5,-0.5"/>
                </g>
        </g>
        <svg viewBox="0 0 15 15" width="100%" height="30px" preserveAspectRatio="xMaxYMin meet">
         <g id="arrow_out" transform="scale(0.3 0.3)">
          <a xlink:href="structhost_1_1CCHostConfig__coll__graph_org.svg" target="_base">
           <rect id="button" ry="5" rx="5" y="6" x="6" height="38" width="38"
                fill="#f2f5e9" fill-opacity="0.5" stroke="#606060" stroke-width="1.0"/>
           <path id="arrow"
             d="M 11.500037,31.436501 C 11.940474,20.09759 22.043105,11.32322 32.158766,21.979434 L 37.068811,17.246167 C 37.068811,17.246167 37.088388,32 37.088388,32 L 22.160133,31.978069 C 22.160133,31.978069 26.997745,27.140456 26.997745,27.140456 C 18.528582,18.264221 13.291696,25.230495 11.500037,31.436501 z"
             style="fill:#404040;"/>
          </a>
         </g>
        </svg>
</svg>
