<?xml version="1.0" encoding="UTF-8" standalone="no"?>
<!DOCTYPE svg PUBLIC "-//W3C//DTD SVG 1.1//EN"
 "http://www.w3.org/Graphics/SVG/1.1/DTD/svg11.dtd">
<!-- Generated by graphviz version 2.43.0 (0)
 -->
<!-- Title: ccf::JoinNetworkNodeToNode::Out::NetworkInfo Pages: 1 -->
<svg width="268pt" height="258pt"
 viewBox="0.00 0.00 268.00 258.00" xmlns="http://www.w3.org/2000/svg" xmlns:xlink="http://www.w3.org/1999/xlink">
<g id="graph0" class="graph" transform="scale(1 1) rotate(0) translate(4 254)">
<title>ccf::JoinNetworkNodeToNode::Out::NetworkInfo</title>
<!-- Node1 -->
<g id="node1" class="node">
<title>Node1</title>
<g id="a_node1"><a xlink:title=" ">
<polygon fill="#999999" stroke="#666666" points="211,-30 54,-30 54,0 211,0 211,-30"/>
<text text-anchor="start" x="62" y="-18" font-family="Helvetica,sans-Serif" font-size="10.00">ccf::JoinNetworkNodeToNode</text>
<text text-anchor="middle" x="132.5" y="-7" font-family="Helvetica,sans-Serif" font-size="10.00">::Out::NetworkInfo</text>
</a>
</g>
</g>
<!-- Node2 -->
<g id="node2" class="node">
<title>Node2</title>
<g id="a_node2"><a xlink:title=" ">
<polygon fill="white" stroke="#666666" points="127,-107 0,-107 0,-77 127,-77 127,-107"/>
<text text-anchor="start" x="8" y="-95" font-family="Helvetica,sans-Serif" font-size="10.00">std::map&lt; kv::Version,</text>
<text text-anchor="middle" x="63.5" y="-84" font-family="Helvetica,sans-Serif" font-size="10.00"> LedgerSecretPtr &gt;</text>
</a>
</g>
</g>
<!-- Node2&#45;&gt;Node1 -->
<g id="edge1" class="edge">
<title>Node2&#45;&gt;Node1</title>
<path fill="none" stroke="#9a32cd" stroke-dasharray="5,2" d="M78.15,-68.49C83.02,-61.64 88.69,-54.26 94.5,-48 100.36,-41.68 107.45,-35.41 113.9,-30.12"/>
<polygon fill="#9a32cd" stroke="#9a32cd" points="75.24,-66.55 72.46,-76.78 81.01,-70.52 75.24,-66.55"/>
<text text-anchor="middle" x="132" y="-51" font-family="Helvetica,sans-Serif" font-size="10.00"> ledger_secrets</text>
</g>
<!-- Node3 -->
<g id="node3" class="node">
<title>Node3</title>
<g id="a_node3"><a xlink:title=" ">
<polygon fill="white" stroke="#666666" points="122.5,-184 4.5,-184 4.5,-165 122.5,-165 122.5,-184"/>
<text text-anchor="middle" x="63.5" y="-172" font-family="Helvetica,sans-Serif" font-size="10.00">std::shared_ptr&lt; T &gt;</text>
</a>
</g>
</g>
<!-- Node3&#45;&gt;Node2 -->
<g id="edge2" class="edge">
<title>Node3&#45;&gt;Node2</title>
<path fill="none" stroke="#9a32cd" stroke-dasharray="5,2" d="M63.5,-154.6C63.5,-140.1 63.5,-120.4 63.5,-107.22"/>
<polygon fill="#9a32cd" stroke="#9a32cd" points="60,-154.89 63.5,-164.89 67,-154.89 60,-154.89"/>
<text text-anchor="middle" x="88" y="-133.5" font-family="Helvetica,sans-Serif" font-size="10.00"> elements</text>
</g>
<!-- Node4 -->
<g id="node4" class="node">
<title>Node4</title>
<g id="a_node4"><a xlink:title=" ">
<polygon fill="white" stroke="#666666" points="78,-250 49,-250 49,-231 78,-231 78,-250"/>
<text text-anchor="middle" x="63.5" y="-238" font-family="Helvetica,sans-Serif" font-size="10.00">T</text>
</a>
</g>
</g>
<!-- Node4&#45;&gt;Node3 -->
<g id="edge3" class="edge">
<title>Node4&#45;&gt;Node3</title>
<path fill="none" stroke="#9a32cd" stroke-dasharray="5,2" d="M63.5,-220.58C63.5,-208.63 63.5,-193.72 63.5,-184.41"/>
<polygon fill="#9a32cd" stroke="#9a32cd" points="60,-220.87 63.5,-230.87 67,-220.87 60,-220.87"/>
<text text-anchor="middle" x="72" y="-205" font-family="Helvetica,sans-Serif" font-size="10.00"> ptr</text>
</g>
<!-- Node5 -->
<g id="node5" class="node">
<title>Node5</title>
<g id="a_node5"><a xlink:href="structccf_1_1NetworkIdentity.html" target="_top" xlink:title=" ">
<polygon fill="white" stroke="#666666" points="260,-101.5 145,-101.5 145,-82.5 260,-82.5 260,-101.5"/>
<text text-anchor="middle" x="202.5" y="-89.5" font-family="Helvetica,sans-Serif" font-size="10.00">ccf::NetworkIdentity</text>
</a>
</g>
</g>
<!-- Node5&#45;&gt;Node1 -->
<g id="edge4" class="edge">
<title>Node5&#45;&gt;Node1</title>
<path fill="none" stroke="#9a32cd" stroke-dasharray="5,2" d="M190.67,-73.97C184.69,-65.8 177.1,-56.06 169.5,-48 163.67,-41.82 156.75,-35.59 150.48,-30.28"/>
<polygon fill="#9a32cd" stroke="#9a32cd" points="187.99,-76.24 196.65,-82.35 193.69,-72.18 187.99,-76.24"/>
<text text-anchor="middle" x="199" y="-51" font-family="Helvetica,sans-Serif" font-size="10.00"> identity</text>
</g>
<!-- Node6 -->
<g id="node6" class="node">
<title>Node6</title>
<g id="a_node6"><a xlink:href="classcrypto_1_1Pem.html" target="_top" xlink:title=" ">
<polygon fill="white" stroke="#666666" points="240,-184 165,-184 165,-165 240,-165 240,-184"/>
<text text-anchor="middle" x="202.5" y="-172" font-family="Helvetica,sans-Serif" font-size="10.00">crypto::Pem</text>
</a>
</g>
</g>
<!-- Node6&#45;&gt;Node5 -->
<g id="edge5" class="edge">
<title>Node6&#45;&gt;Node5</title>
<path fill="none" stroke="#9a32cd" stroke-dasharray="5,2" d="M202.5,-154.67C202.5,-138.01 202.5,-114.43 202.5,-101.8"/>
<polygon fill="#9a32cd" stroke="#9a32cd" points="199,-154.89 202.5,-164.89 206,-154.89 199,-154.89"/>
<text text-anchor="middle" x="223.5" y="-139" font-family="Helvetica,sans-Serif" font-size="10.00"> cert</text>
<text text-anchor="middle" x="223.5" y="-128" font-family="Helvetica,sans-Serif" font-size="10.00">priv_key</text>
</g>
</g>
</svg>
