<?xml version="1.0" encoding="UTF-8" standalone="no"?>
<!DOCTYPE svg PUBLIC "-//W3C//DTD SVG 1.1//EN"
 "http://www.w3.org/Graphics/SVG/1.1/DTD/svg11.dtd">
<!-- Generated by graphviz version 2.43.0 (0)
 -->
<!-- Title: http::HttpSignatureVerifier::SignatureParams Pages: 1 -->
<svg width="353pt" height="259pt"
 viewBox="0.00 0.00 352.73 259.00" xmlns="http://www.w3.org/2000/svg" xmlns:xlink="http://www.w3.org/1999/xlink">
<g id="graph0" class="graph" transform="scale(1 1) rotate(0) translate(4 255)">
<title>http::HttpSignatureVerifier::SignatureParams</title>
<!-- Node1 -->
<g id="node1" class="node">
<title>Node1</title>
<g id="a_node1"><a xlink:title=" ">
<polygon fill="#999999" stroke="#666666" points="249.73,-30 105.73,-30 105.73,0 249.73,0 249.73,-30"/>
<text text-anchor="start" x="113.73" y="-18" font-family="Helvetica,sans-Serif" font-size="10.00">http::HttpSignatureVerifier</text>
<text text-anchor="middle" x="177.73" y="-7" font-family="Helvetica,sans-Serif" font-size="10.00">::SignatureParams</text>
</a>
</g>
</g>
<!-- Node2 -->
<g id="node2" class="node">
<title>Node2</title>
<g id="a_node2"><a xlink:title=" ">
<polygon fill="white" stroke="#666666" points="133.73,-178.5 39.73,-178.5 39.73,-159.5 133.73,-159.5 133.73,-178.5"/>
<text text-anchor="middle" x="86.73" y="-166.5" font-family="Helvetica,sans-Serif" font-size="10.00">std::string_view</text>
</a>
</g>
</g>
<!-- Node2&#45;&gt;Node1 -->
<g id="edge1" class="edge">
<title>Node2&#45;&gt;Node1</title>
<path fill="none" stroke="#9a32cd" stroke-dasharray="5,2" d="M59.12,-154.42C28.16,-137.32 -15.17,-106.59 5.73,-77 28.31,-45.04 69.13,-29.72 105.34,-22.42"/>
<polygon fill="#9a32cd" stroke="#9a32cd" points="57.78,-157.67 68.25,-159.27 61.07,-151.49 57.78,-157.67"/>
<text text-anchor="middle" x="55.23" y="-95" font-family="Helvetica,sans-Serif" font-size="10.00"> signature</text>
<text text-anchor="middle" x="55.23" y="-84" font-family="Helvetica,sans-Serif" font-size="10.00">signature_algorithm</text>
</g>
<!-- Node4 -->
<g id="node4" class="node">
<title>Node4</title>
<g id="a_node4"><a xlink:title=" ">
<polygon fill="white" stroke="#666666" points="241.73,-107 113.73,-107 113.73,-77 241.73,-77 241.73,-107"/>
<text text-anchor="start" x="121.73" y="-95" font-family="Helvetica,sans-Serif" font-size="10.00">std::vector&lt; std::string</text>
<text text-anchor="middle" x="177.73" y="-84" font-family="Helvetica,sans-Serif" font-size="10.00">_view &gt;</text>
</a>
</g>
</g>
<!-- Node2&#45;&gt;Node4 -->
<g id="edge4" class="edge">
<title>Node2&#45;&gt;Node4</title>
<path fill="none" stroke="#9a32cd" stroke-dasharray="5,2" d="M104.9,-153.02C121.13,-139.65 144.71,-120.21 160.61,-107.11"/>
<polygon fill="#9a32cd" stroke="#9a32cd" points="102.66,-150.34 97.17,-159.4 107.11,-155.74 102.66,-150.34"/>
<text text-anchor="middle" x="162.23" y="-128" font-family="Helvetica,sans-Serif" font-size="10.00"> elements</text>
</g>
<!-- Node3 -->
<g id="node3" class="node">
<title>Node3</title>
<g id="a_node3"><a xlink:title=" ">
<polygon fill="white" stroke="#666666" points="149.23,-251 24.23,-251 24.23,-221 149.23,-221 149.23,-251"/>
<text text-anchor="start" x="32.23" y="-239" font-family="Helvetica,sans-Serif" font-size="10.00">std::basic_string_view</text>
<text text-anchor="middle" x="86.73" y="-228" font-family="Helvetica,sans-Serif" font-size="10.00">&lt; Char &gt;</text>
</a>
</g>
</g>
<!-- Node3&#45;&gt;Node2 -->
<g id="edge2" class="edge">
<title>Node3&#45;&gt;Node2</title>
<path fill="none" stroke="#63b8ff" d="M86.73,-210.75C86.73,-199.52 86.73,-186.88 86.73,-178.69"/>
<polygon fill="#63b8ff" stroke="#63b8ff" points="83.23,-210.9 86.73,-220.9 90.23,-210.9 83.23,-210.9"/>
</g>
<!-- Node4&#45;&gt;Node1 -->
<g id="edge3" class="edge">
<title>Node4&#45;&gt;Node1</title>
<path fill="none" stroke="#9a32cd" stroke-dasharray="5,2" d="M177.73,-66.54C177.73,-54.45 177.73,-40.29 177.73,-30.04"/>
<polygon fill="#9a32cd" stroke="#9a32cd" points="174.23,-66.89 177.73,-76.89 181.23,-66.89 174.23,-66.89"/>
<text text-anchor="middle" x="217.73" y="-51" font-family="Helvetica,sans-Serif" font-size="10.00"> signed_headers</text>
</g>
<!-- Node5 -->
<g id="node5" class="node">
<title>Node5</title>
<g id="a_node5"><a xlink:title=" ">
<polygon fill="white" stroke="#666666" points="325.23,-101.5 260.23,-101.5 260.23,-82.5 325.23,-82.5 325.23,-101.5"/>
<text text-anchor="middle" x="292.73" y="-89.5" font-family="Helvetica,sans-Serif" font-size="10.00">std::string</text>
</a>
</g>
</g>
<!-- Node5&#45;&gt;Node1 -->
<g id="edge5" class="edge">
<title>Node5&#45;&gt;Node1</title>
<path fill="none" stroke="#9a32cd" stroke-dasharray="5,2" d="M283.28,-73.31C277.92,-64.7 270.53,-54.76 261.73,-48 252.08,-40.58 240.51,-34.72 229.09,-30.14"/>
<polygon fill="#9a32cd" stroke="#9a32cd" points="280.4,-75.33 288.42,-82.24 286.46,-71.83 280.4,-75.33"/>
<text text-anchor="middle" x="290.23" y="-51" font-family="Helvetica,sans-Serif" font-size="10.00"> key_id</text>
</g>
<!-- Node6 -->
<g id="node6" class="node">
<title>Node6</title>
<g id="a_node6"><a xlink:title=" ">
<polygon fill="white" stroke="#666666" points="344.73,-184 240.73,-184 240.73,-154 344.73,-154 344.73,-184"/>
<text text-anchor="start" x="248.73" y="-172" font-family="Helvetica,sans-Serif" font-size="10.00">std::basic_string&lt;</text>
<text text-anchor="middle" x="292.73" y="-161" font-family="Helvetica,sans-Serif" font-size="10.00"> Char &gt;</text>
</a>
</g>
</g>
<!-- Node6&#45;&gt;Node5 -->
<g id="edge6" class="edge">
<title>Node6&#45;&gt;Node5</title>
<path fill="none" stroke="#63b8ff" d="M292.73,-143.68C292.73,-129.36 292.73,-112.11 292.73,-101.87"/>
<polygon fill="#63b8ff" stroke="#63b8ff" points="289.23,-143.89 292.73,-153.89 296.23,-143.89 289.23,-143.89"/>
</g>
</g>
</svg>
