<?xml version="1.0" encoding="UTF-8" standalone="no"?>
<!DOCTYPE svg PUBLIC "-//W3C//DTD SVG 1.1//EN"
 "http://www.w3.org/Graphics/SVG/1.1/DTD/svg11.dtd">
<!-- Generated by graphviz version 2.43.0 (0)
 -->
<!-- Title: kv::MapChanges Pages: 1 -->
<!--zoomable 279 -->
<svg id="main" version="1.1" xmlns="http://www.w3.org/2000/svg" xmlns:xlink="http://www.w3.org/1999/xlink" xml:space="preserve" onload="init(evt)">
<style type="text/css"><![CDATA[
.edge:hover path { stroke: red; }
.edge:hover polygon { stroke: red; fill: red; }
]]></style>
<script type="text/javascript"><![CDATA[
var edges = document.getElementsByTagName('g');
if (edges && edges.length) {
  for (var i=0;i<edges.length;i++) {
    if (edges[i].id.substr(0,4)=='edge') {
      edges[i].setAttribute('class','edge');
    }
  }
}
]]></script>
        <defs>
                <circle id="rim" cx="0" cy="0" r="7"/>
                <circle id="rim2" cx="0" cy="0" r="3.5"/>
                <g id="zoomPlus">
                        <use xlink:href="#rim" fill="#404040">
                                <set attributeName="fill" to="#808080" begin="zoomplus.mouseover" end="zoomplus.mouseout"/>
                        </use>
                        <path d="M-4,0h8M0,-4v8" fill="none" stroke="white" stroke-width="1.5" pointer-events="none"/>
                </g>
                <g id="zoomMin">
                        <use xlink:href="#rim" fill="#404040">
                                <set attributeName="fill" to="#808080" begin="zoomminus.mouseover" end="zoomminus.mouseout"/>
                        </use>
                        <path d="M-4,0h8" fill="none" stroke="white" stroke-width="1.5" pointer-events="none"/>
                </g>
                <g id="dirArrow">
                        <path fill="none" stroke="white" stroke-width="1.5" d="M0,-3.0v7 M-2.5,-0.5L0,-3.0L2.5,-0.5"/>
                </g>
               <g id="resetDef">
                       <use xlink:href="#rim2" fill="#404040">
                               <set attributeName="fill" to="#808080" begin="reset.mouseover" end="reset.mouseout"/>
                       </use>
               </g>
        </defs>

<script type="text/javascript">
var viewWidth = 1040;
var viewHeight = 279;
var sectionId = 'dynsection-0';
</script>
<script xlink:href="svgpan.js"/>
<svg id="graph" class="graph">
<g id="viewport">
<title>kv::MapChanges</title>
<!-- Node1 -->
<g id="node1" class="node">
<title>Node1</title>
<g id="a_node1"><a xlink:title=" ">
<polygon fill="#999999" stroke="#666666" points="1032,-187.5 935,-187.5 935,-168.5 1032,-168.5 1032,-187.5"/>
<text text-anchor="middle" x="983.5" y="-175.5" font-family="Helvetica,sans-Serif" font-size="10.00">kv::MapChanges</text>
</a>
</g>
</g>
<!-- Node2 -->
<g id="node2" class="node">
<title>Node2</title>
<g id="a_node2"><a xlink:title=" ">
<polygon fill="white" stroke="#666666" points="835.5,-223 722.5,-223 722.5,-193 835.5,-193 835.5,-223"/>
<text text-anchor="start" x="730.5" y="-211" font-family="Helvetica,sans-Serif" font-size="10.00">std::shared_ptr&lt; kv</text>
<text text-anchor="middle" x="779" y="-200" font-family="Helvetica,sans-Serif" font-size="10.00">::AbstractMap &gt;</text>
</a>
</g>
</g>
<!-- Node2&#45;&gt;Node1 -->
<g id="edge1" class="edge">
<title>Node2&#45;&gt;Node1</title>
<path fill="none" stroke="#9a32cd" stroke-dasharray="5,2" d="M845.68,-198.27C874.76,-193.96 908.32,-188.99 934.92,-185.05"/>
<polygon fill="#9a32cd" stroke="#9a32cd" points="844.98,-194.83 835.6,-199.76 846.01,-201.76 844.98,-194.83"/>
<text text-anchor="middle" x="890" y="-198" font-family="Helvetica,sans-Serif" font-size="10.00"> map</text>
</g>
<!-- Node3 -->
<g id="node3" class="node">
<title>Node3</title>
<g id="a_node3"><a xlink:href="classkv_1_1AbstractMap.html" target="_top" xlink:title=" ">
<polygon fill="white" stroke="#666666" points="641.5,-222.5 546.5,-222.5 546.5,-203.5 641.5,-203.5 641.5,-222.5"/>
<text text-anchor="middle" x="594" y="-210.5" font-family="Helvetica,sans-Serif" font-size="10.00">kv::AbstractMap</text>
</a>
</g>
</g>
<!-- Node3&#45;&gt;Node2 -->
<g id="edge2" class="edge">
<title>Node3&#45;&gt;Node2</title>
<path fill="none" stroke="#9a32cd" stroke-dasharray="5,2" d="M651.72,-211.45C674.19,-210.84 699.94,-210.13 722.31,-209.52"/>
<polygon fill="#9a32cd" stroke="#9a32cd" points="651.55,-207.95 641.65,-211.73 651.74,-214.95 651.55,-207.95"/>
<text text-anchor="middle" x="686.5" y="-213" font-family="Helvetica,sans-Serif" font-size="10.00"> ptr</text>
</g>
<!-- Node4 -->
<g id="node4" class="node">
<title>Node4</title>
<g id="a_node4"><a xlink:title=" ">
<polygon fill="white" stroke="#666666" points="430,-271 278,-271 278,-241 430,-241 430,-271"/>
<text text-anchor="start" x="286" y="-259" font-family="Helvetica,sans-Serif" font-size="10.00">std::enable_shared</text>
<text text-anchor="middle" x="354" y="-248" font-family="Helvetica,sans-Serif" font-size="10.00">_from_this&lt; AbstractMap &gt;</text>
</a>
</g>
</g>
<!-- Node4&#45;&gt;Node3 -->
<g id="edge3" class="edge">
<title>Node4&#45;&gt;Node3</title>
<path fill="none" stroke="#63b8ff" d="M440.24,-240.6C475.93,-234.15 516.03,-226.91 546.19,-221.46"/>
<polygon fill="#63b8ff" stroke="#63b8ff" points="439.52,-237.17 430.3,-242.39 440.77,-244.06 439.52,-237.17"/>
</g>
<!-- Node5 -->
<g id="node5" class="node">
<title>Node5</title>
<g id="a_node5"><a xlink:href="structkv_1_1GetName.html" target="_top" xlink:title=" ">
<polygon fill="white" stroke="#666666" points="394,-222.5 314,-222.5 314,-203.5 394,-203.5 394,-222.5"/>
<text text-anchor="middle" x="354" y="-210.5" font-family="Helvetica,sans-Serif" font-size="10.00">kv::GetName</text>
</a>
</g>
</g>
<!-- Node5&#45;&gt;Node3 -->
<g id="edge4" class="edge">
<title>Node5&#45;&gt;Node3</title>
<path fill="none" stroke="#63b8ff" d="M404.23,-213C445.89,-213 505.2,-213 546.17,-213"/>
<polygon fill="#63b8ff" stroke="#63b8ff" points="404.03,-209.5 394.03,-213 404.03,-216.5 404.03,-209.5"/>
</g>
<!-- Node6 -->
<g id="node6" class="node">
<title>Node6</title>
<g id="a_node6"><a xlink:title=" ">
<polygon fill="white" stroke="#666666" points="206,-222.5 141,-222.5 141,-203.5 206,-203.5 206,-222.5"/>
<text text-anchor="middle" x="173.5" y="-210.5" font-family="Helvetica,sans-Serif" font-size="10.00">std::string</text>
</a>
</g>
</g>
<!-- Node6&#45;&gt;Node5 -->
<g id="edge5" class="edge">
<title>Node6&#45;&gt;Node5</title>
<path fill="none" stroke="#9a32cd" stroke-dasharray="5,2" d="M216.37,-213C245.78,-213 284.88,-213 313.71,-213"/>
<polygon fill="#9a32cd" stroke="#9a32cd" points="216,-209.5 206,-213 216,-216.5 216,-209.5"/>
<text text-anchor="middle" x="239.5" y="-216" font-family="Helvetica,sans-Serif" font-size="10.00"> name</text>
</g>
<!-- Node7 -->
<g id="node7" class="node">
<title>Node7</title>
<g id="a_node7"><a xlink:title=" ">
<polygon fill="white" stroke="#666666" points="104,-228 0,-228 0,-198 104,-198 104,-228"/>
<text text-anchor="start" x="8" y="-216" font-family="Helvetica,sans-Serif" font-size="10.00">std::basic_string&lt;</text>
<text text-anchor="middle" x="52" y="-205" font-family="Helvetica,sans-Serif" font-size="10.00"> Char &gt;</text>
</a>
</g>
</g>
<!-- Node7&#45;&gt;Node6 -->
<g id="edge6" class="edge">
<title>Node7&#45;&gt;Node6</title>
<path fill="none" stroke="#63b8ff" d="M114.1,-213C123.41,-213 132.68,-213 141,-213"/>
<polygon fill="#63b8ff" stroke="#63b8ff" points="114.03,-209.5 104.03,-213 114.03,-216.5 114.03,-209.5"/>
</g>
<!-- Node8 -->
<g id="node8" class="node">
<title>Node8</title>
<g id="a_node8"><a xlink:title=" ">
<polygon fill="white" stroke="#666666" points="845,-169 713,-169 713,-139 845,-139 845,-169"/>
<text text-anchor="start" x="721" y="-157" font-family="Helvetica,sans-Serif" font-size="10.00">std::unique_ptr&lt; kv</text>
<text text-anchor="middle" x="779" y="-146" font-family="Helvetica,sans-Serif" font-size="10.00">::untyped::ChangeSet &gt;</text>
</a>
</g>
</g>
<!-- Node8&#45;&gt;Node1 -->
<g id="edge7" class="edge">
<title>Node8&#45;&gt;Node1</title>
<path fill="none" stroke="#9a32cd" stroke-dasharray="5,2" d="M855.35,-158.47C875.44,-160.1 897.08,-162.23 917,-165 923.89,-165.96 931.15,-167.18 938.22,-168.49"/>
<polygon fill="#9a32cd" stroke="#9a32cd" points="855.57,-154.98 845.33,-157.7 855.03,-161.96 855.57,-154.98"/>
<text text-anchor="middle" x="890" y="-168" font-family="Helvetica,sans-Serif" font-size="10.00"> changeset</text>
</g>
<!-- Node9 -->
<g id="node9" class="node">
<title>Node9</title>
<g id="a_node9"><a xlink:href="structkv_1_1untyped_1_1ChangeSet.html" target="_top" xlink:title=" ">
<polygon fill="white" stroke="#666666" points="660,-148.5 528,-148.5 528,-129.5 660,-129.5 660,-148.5"/>
<text text-anchor="middle" x="594" y="-136.5" font-family="Helvetica,sans-Serif" font-size="10.00">kv::untyped::ChangeSet</text>
</a>
</g>
</g>
<!-- Node9&#45;&gt;Node8 -->
<g id="edge8" class="edge">
<title>Node9&#45;&gt;Node8</title>
<path fill="none" stroke="#9a32cd" stroke-dasharray="5,2" d="M670.22,-145.17C684.37,-146.33 699.06,-147.53 712.87,-148.66"/>
<polygon fill="#9a32cd" stroke="#9a32cd" points="670.29,-141.66 660.03,-144.33 669.71,-148.64 670.29,-141.66"/>
<text text-anchor="middle" x="686.5" y="-149" font-family="Helvetica,sans-Serif" font-size="10.00"> ptr</text>
</g>
<!-- Node10 -->
<g id="node10" class="node">
<title>Node10</title>
<g id="a_node10"><a xlink:href="classkv_1_1AbstractChangeSet.html" target="_top" xlink:title=" ">
<polygon fill="white" stroke="#666666" points="417.5,-185.5 290.5,-185.5 290.5,-166.5 417.5,-166.5 417.5,-185.5"/>
<text text-anchor="middle" x="354" y="-173.5" font-family="Helvetica,sans-Serif" font-size="10.00">kv::AbstractChangeSet</text>
</a>
</g>
</g>
<!-- Node10&#45;&gt;Node9 -->
<g id="edge9" class="edge">
<title>Node10&#45;&gt;Node9</title>
<path fill="none" stroke="#63b8ff" d="M427.76,-172.15C453.83,-170.05 483.37,-166.85 510,-162 528.09,-158.7 547.96,-153.27 563.72,-148.5"/>
<polygon fill="#63b8ff" stroke="#63b8ff" points="427.27,-168.67 417.57,-172.92 427.81,-175.65 427.27,-168.67"/>
</g>
<!-- Node11 -->
<g id="node11" class="node">
<title>Node11</title>
<g id="a_node11"><a xlink:href="classchamp_1_1Map.html" target="_top" xlink:title=" ">
<polygon fill="white" stroke="#666666" points="420,-148.5 288,-148.5 288,-129.5 420,-129.5 420,-148.5"/>
<text text-anchor="middle" x="354" y="-136.5" font-family="Helvetica,sans-Serif" font-size="10.00">champ::Map&lt; K, V, H &gt;</text>
</a>
</g>
</g>
<!-- Node11&#45;&gt;Node9 -->
<g id="edge10" class="edge">
<title>Node11&#45;&gt;Node9</title>
<path fill="none" stroke="#9a32cd" stroke-dasharray="5,2" d="M430.43,-139C461.66,-139 497.54,-139 527.63,-139"/>
<polygon fill="#9a32cd" stroke="#9a32cd" points="430.03,-135.5 420.03,-139 430.03,-142.5 430.03,-135.5"/>
<text text-anchor="middle" x="481.5" y="-153" font-family="Helvetica,sans-Serif" font-size="10.00"> committed</text>
<text text-anchor="middle" x="481.5" y="-142" font-family="Helvetica,sans-Serif" font-size="10.00">state</text>
</g>
<!-- Node12 -->
<g id="node12" class="node">
<title>Node12</title>
<g id="a_node12"><a xlink:title=" ">
<polygon fill="white" stroke="#666666" points="435,-111.5 273,-111.5 273,-70.5 435,-70.5 435,-111.5"/>
<text text-anchor="start" x="281" y="-99.5" font-family="Helvetica,sans-Serif" font-size="10.00">std::map&lt; K, std::tuple</text>
<text text-anchor="start" x="281" y="-88.5" font-family="Helvetica,sans-Serif" font-size="10.00">&lt; DeletableVersion, LastRead</text>
<text text-anchor="middle" x="354" y="-77.5" font-family="Helvetica,sans-Serif" font-size="10.00">Version &gt; &gt;</text>
</a>
</g>
</g>
<!-- Node12&#45;&gt;Node9 -->
<g id="edge11" class="edge">
<title>Node12&#45;&gt;Node9</title>
<path fill="none" stroke="#9a32cd" stroke-dasharray="5,2" d="M445.26,-109.2C479.45,-116.1 517.01,-123.67 545.7,-129.46"/>
<polygon fill="#9a32cd" stroke="#9a32cd" points="445.74,-105.73 435.24,-107.18 444.35,-112.59 445.74,-105.73"/>
<text text-anchor="middle" x="481.5" y="-125" font-family="Helvetica,sans-Serif" font-size="10.00"> reads</text>
</g>
<!-- Node13 -->
<g id="node13" class="node">
<title>Node13</title>
<g id="a_node13"><a xlink:title=" ">
<polygon fill="white" stroke="#666666" points="188,-100.5 159,-100.5 159,-81.5 188,-81.5 188,-100.5"/>
<text text-anchor="middle" x="173.5" y="-88.5" font-family="Helvetica,sans-Serif" font-size="10.00">K</text>
</a>
</g>
</g>
<!-- Node13&#45;&gt;Node12 -->
<g id="edge12" class="edge">
<title>Node13&#45;&gt;Node12</title>
<path fill="none" stroke="#9a32cd" stroke-dasharray="5,2" d="M198.39,-91C217.55,-91 245.62,-91 272.59,-91"/>
<polygon fill="#9a32cd" stroke="#9a32cd" points="198.21,-87.5 188.21,-91 198.21,-94.5 198.21,-87.5"/>
<text text-anchor="middle" x="239.5" y="-94" font-family="Helvetica,sans-Serif" font-size="10.00"> keys</text>
</g>
<!-- Node14 -->
<g id="node14" class="node">
<title>Node14</title>
<g id="a_node14"><a xlink:title=" ">
<polygon fill="white" stroke="#666666" points="424.5,-52 283.5,-52 283.5,0 424.5,0 424.5,-52"/>
<text text-anchor="start" x="291.5" y="-40" font-family="Helvetica,sans-Serif" font-size="10.00">std::map&lt; kv::serialisers</text>
<text text-anchor="start" x="291.5" y="-29" font-family="Helvetica,sans-Serif" font-size="10.00">::SerialisedEntry, std</text>
<text text-anchor="start" x="291.5" y="-18" font-family="Helvetica,sans-Serif" font-size="10.00">::optional&lt; kv::serialisers</text>
<text text-anchor="middle" x="354" y="-7" font-family="Helvetica,sans-Serif" font-size="10.00">::SerialisedEntry &gt; &gt;</text>
</a>
</g>
</g>
<!-- Node14&#45;&gt;Node9 -->
<g id="edge13" class="edge">
<title>Node14&#45;&gt;Node9</title>
<path fill="none" stroke="#9a32cd" stroke-dasharray="5,2" d="M424.69,-56.31C428.18,-57.89 431.63,-59.46 435,-61 485.89,-84.34 544.76,-114.17 574.2,-129.28"/>
<polygon fill="#9a32cd" stroke="#9a32cd" points="425.94,-53.04 415.38,-52.15 423.08,-59.43 425.94,-53.04"/>
<text text-anchor="middle" x="481.5" y="-99" font-family="Helvetica,sans-Serif" font-size="10.00"> writes</text>
</g>
</g>
</svg>
        <g id="navigator" transform="translate(0 0)" fill="#404254">
                <rect fill="#f2f5e9" fill-opacity="0.5" stroke="#606060" stroke-width=".5" x="0" y="0" width="60" height="60"/>
                <use id="zoomplus" xlink:href="#zoomPlus" x="17" y="9" onmousedown="handleZoom(evt,'in')"/>
                <use id="zoomminus" xlink:href="#zoomMin" x="42" y="9" onmousedown="handleZoom(evt,'out')"/>
                <use id="reset" xlink:href="#resetDef" x="30" y="36" onmousedown="handleReset()"/>
                <g id="arrowUp" xlink:href="#dirArrow" transform="translate(30 24)" onmousedown="handlePan(0,-1)">
                  <use xlink:href="#rim" fill="#404040">
                        <set attributeName="fill" to="#808080" begin="arrowUp.mouseover" end="arrowUp.mouseout"/>
                  </use>
                  <path fill="none" stroke="white" stroke-width="1.5" d="M0,-3.0v7 M-2.5,-0.5L0,-3.0L2.5,-0.5"/>
                </g>
                <g id="arrowRight" xlink:href="#dirArrow" transform="rotate(90) translate(36 -43)" onmousedown="handlePan(1,0)">
                  <use xlink:href="#rim" fill="#404040">
                        <set attributeName="fill" to="#808080" begin="arrowRight.mouseover" end="arrowRight.mouseout"/>
                  </use>
                  <path fill="none" stroke="white" stroke-width="1.5" d="M0,-3.0v7 M-2.5,-0.5L0,-3.0L2.5,-0.5"/>
                </g>
                <g id="arrowDown" xlink:href="#dirArrow" transform="rotate(180) translate(-30 -48)" onmousedown="handlePan(0,1)">
                  <use xlink:href="#rim" fill="#404040">
                        <set attributeName="fill" to="#808080" begin="arrowDown.mouseover" end="arrowDown.mouseout"/>
                  </use>
                  <path fill="none" stroke="white" stroke-width="1.5" d="M0,-3.0v7 M-2.5,-0.5L0,-3.0L2.5,-0.5"/>
                </g>
                <g id="arrowLeft" xlink:href="#dirArrow" transform="rotate(270) translate(-36 17)" onmousedown="handlePan(-1,0)">
                  <use xlink:href="#rim" fill="#404040">
                        <set attributeName="fill" to="#808080" begin="arrowLeft.mouseover" end="arrowLeft.mouseout"/>
                  </use>
                  <path fill="none" stroke="white" stroke-width="1.5" d="M0,-3.0v7 M-2.5,-0.5L0,-3.0L2.5,-0.5"/>
                </g>
        </g>
        <svg viewBox="0 0 15 15" width="100%" height="30px" preserveAspectRatio="xMaxYMin meet">
         <g id="arrow_out" transform="scale(0.3 0.3)">
          <a xlink:href="structkv_1_1MapChanges__coll__graph_org.svg" target="_base">
           <rect id="button" ry="5" rx="5" y="6" x="6" height="38" width="38"
                fill="#f2f5e9" fill-opacity="0.5" stroke="#606060" stroke-width="1.0"/>
           <path id="arrow"
             d="M 11.500037,31.436501 C 11.940474,20.09759 22.043105,11.32322 32.158766,21.979434 L 37.068811,17.246167 C 37.068811,17.246167 37.088388,32 37.088388,32 L 22.160133,31.978069 C 22.160133,31.978069 26.997745,27.140456 26.997745,27.140456 C 18.528582,18.264221 13.291696,25.230495 11.500037,31.436501 z"
             style="fill:#404040;"/>
          </a>
         </g>
        </svg>
</svg>
