<?xml version="1.0" encoding="UTF-8" standalone="no"?>
<!DOCTYPE svg PUBLIC "-//W3C//DTD SVG 1.1//EN"
 "http://www.w3.org/Graphics/SVG/1.1/DTD/svg11.dtd">
<!-- Generated by graphviz version 2.43.0 (0)
 -->
<!-- Title: ccf::TLSEndpoint::SendRecvMsg Pages: 1 -->
<svg width="276pt" height="237pt"
 viewBox="0.00 0.00 275.50 237.00" xmlns="http://www.w3.org/2000/svg" xmlns:xlink="http://www.w3.org/1999/xlink">
<g id="graph0" class="graph" transform="scale(1 1) rotate(0) translate(4 233)">
<title>ccf::TLSEndpoint::SendRecvMsg</title>
<!-- Node1 -->
<g id="node1" class="node">
<title>Node1</title>
<g id="a_node1"><a xlink:title=" ">
<polygon fill="#999999" stroke="#666666" points="193.5,-19 23.5,-19 23.5,0 193.5,0 193.5,-19"/>
<text text-anchor="middle" x="108.5" y="-7" font-family="Helvetica,sans-Serif" font-size="10.00">ccf::TLSEndpoint::SendRecvMsg</text>
</a>
</g>
</g>
<!-- Node2 -->
<g id="node2" class="node">
<title>Node2</title>
<g id="a_node2"><a xlink:title=" ">
<polygon fill="white" stroke="#666666" points="125,-90.5 0,-90.5 0,-71.5 125,-71.5 125,-90.5"/>
<text text-anchor="middle" x="62.5" y="-78.5" font-family="Helvetica,sans-Serif" font-size="10.00">std::vector&lt; uint8_t &gt;</text>
</a>
</g>
</g>
<!-- Node2&#45;&gt;Node1 -->
<g id="edge1" class="edge">
<title>Node2&#45;&gt;Node1</title>
<path fill="none" stroke="#9a32cd" stroke-dasharray="5,2" d="M73.86,-62.84C83.05,-48.95 95.62,-29.96 102.81,-19.09"/>
<polygon fill="#9a32cd" stroke="#9a32cd" points="70.74,-61.21 68.14,-71.48 76.58,-65.07 70.74,-61.21"/>
<text text-anchor="middle" x="102" y="-40" font-family="Helvetica,sans-Serif" font-size="10.00"> data</text>
</g>
<!-- Node3 -->
<g id="node3" class="node">
<title>Node3</title>
<g id="a_node3"><a xlink:title=" ">
<polygon fill="white" stroke="#666666" points="258,-96 143,-96 143,-66 258,-66 258,-96"/>
<text text-anchor="start" x="151" y="-84" font-family="Helvetica,sans-Serif" font-size="10.00">std::shared_ptr&lt; ccf</text>
<text text-anchor="middle" x="200.5" y="-73" font-family="Helvetica,sans-Serif" font-size="10.00">::Endpoint &gt;</text>
</a>
</g>
</g>
<!-- Node3&#45;&gt;Node1 -->
<g id="edge2" class="edge">
<title>Node3&#45;&gt;Node1</title>
<path fill="none" stroke="#9a32cd" stroke-dasharray="5,2" d="M173.55,-59.64C155.68,-46.14 133.15,-29.12 119.84,-19.07"/>
<polygon fill="#9a32cd" stroke="#9a32cd" points="171.79,-62.7 181.88,-65.94 176.01,-57.12 171.79,-62.7"/>
<text text-anchor="middle" x="167.5" y="-40" font-family="Helvetica,sans-Serif" font-size="10.00"> self</text>
</g>
<!-- Node4 -->
<g id="node4" class="node">
<title>Node4</title>
<g id="a_node4"><a xlink:href="classccf_1_1Endpoint.html" target="_top" xlink:title=" ">
<polygon fill="white" stroke="#666666" points="240,-162 161,-162 161,-143 240,-143 240,-162"/>
<text text-anchor="middle" x="200.5" y="-150" font-family="Helvetica,sans-Serif" font-size="10.00">ccf::Endpoint</text>
</a>
</g>
</g>
<!-- Node4&#45;&gt;Node3 -->
<g id="edge3" class="edge">
<title>Node4&#45;&gt;Node3</title>
<path fill="none" stroke="#9a32cd" stroke-dasharray="5,2" d="M200.5,-132.71C200.5,-121.19 200.5,-106.68 200.5,-96.14"/>
<polygon fill="#9a32cd" stroke="#9a32cd" points="197,-132.98 200.5,-142.98 204,-132.98 197,-132.98"/>
<text text-anchor="middle" x="209" y="-117" font-family="Helvetica,sans-Serif" font-size="10.00"> ptr</text>
</g>
<!-- Node5 -->
<g id="node5" class="node">
<title>Node5</title>
<g id="a_node5"><a xlink:title=" ">
<polygon fill="white" stroke="#666666" points="267.5,-229 133.5,-229 133.5,-199 267.5,-199 267.5,-229"/>
<text text-anchor="start" x="141.5" y="-217" font-family="Helvetica,sans-Serif" font-size="10.00">std::enable_shared</text>
<text text-anchor="middle" x="200.5" y="-206" font-family="Helvetica,sans-Serif" font-size="10.00">_from_this&lt; Endpoint &gt;</text>
</a>
</g>
</g>
<!-- Node5&#45;&gt;Node4 -->
<g id="edge4" class="edge">
<title>Node5&#45;&gt;Node4</title>
<path fill="none" stroke="#63b8ff" d="M200.5,-188.79C200.5,-179.36 200.5,-169.15 200.5,-162.16"/>
<polygon fill="#63b8ff" stroke="#63b8ff" points="197,-188.9 200.5,-198.9 204,-188.9 197,-188.9"/>
</g>
</g>
</svg>
