<?xml version="1.0" encoding="UTF-8" standalone="no"?>
<!DOCTYPE svg PUBLIC "-//W3C//DTD SVG 1.1//EN"
 "http://www.w3.org/Graphics/SVG/1.1/DTD/svg11.dtd">
<!-- Generated by graphviz version 2.43.0 (0)
 -->
<!-- Title: crypto::OpenSSL::Unique_STACK_OF_X509_EXTENSIONS Pages: 1 -->
<svg width="205pt" height="215pt"
 viewBox="0.00 0.00 205.00 215.00" xmlns="http://www.w3.org/2000/svg" xmlns:xlink="http://www.w3.org/1999/xlink">
<g id="graph0" class="graph" transform="scale(1 1) rotate(0) translate(4 211)">
<title>crypto::OpenSSL::Unique_STACK_OF_X509_EXTENSIONS</title>
<!-- Node1 -->
<g id="node1" class="node">
<title>Node1</title>
<g id="a_node1"><a xlink:title=" ">
<polygon fill="#999999" stroke="#666666" points="183.5,-30 13.5,-30 13.5,0 183.5,0 183.5,-30"/>
<text text-anchor="start" x="21.5" y="-18" font-family="Helvetica,sans-Serif" font-size="10.00">crypto::OpenSSL::Unique</text>
<text text-anchor="middle" x="98.5" y="-7" font-family="Helvetica,sans-Serif" font-size="10.00">_STACK_OF_X509_EXTENSIONS</text>
</a>
</g>
</g>
<!-- Node2 -->
<g id="node2" class="node">
<title>Node2</title>
<g id="a_node2"><a xlink:href="classcrypto_1_1OpenSSL_1_1Unique__SSL__OBJECT.html" target="_top" xlink:title=" ">
<polygon fill="white" stroke="#666666" points="174,-119 23,-119 23,-67 174,-67 174,-119"/>
<text text-anchor="start" x="31" y="-107" font-family="Helvetica,sans-Serif" font-size="10.00">crypto::OpenSSL::Unique</text>
<text text-anchor="start" x="31" y="-96" font-family="Helvetica,sans-Serif" font-size="10.00">_SSL_OBJECT&lt; STACK_OF</text>
<text text-anchor="start" x="31" y="-85" font-family="Helvetica,sans-Serif" font-size="10.00">(X509_EXTENSION), nullptr,</text>
<text text-anchor="middle" x="98.5" y="-74" font-family="Helvetica,sans-Serif" font-size="10.00"> nullptr &gt;</text>
</a>
</g>
</g>
<!-- Node2&#45;&gt;Node1 -->
<g id="edge1" class="edge">
<title>Node2&#45;&gt;Node1</title>
<path fill="none" stroke="#63b8ff" d="M98.5,-56.46C98.5,-47.22 98.5,-37.78 98.5,-30.35"/>
<polygon fill="#63b8ff" stroke="#63b8ff" points="95,-56.69 98.5,-66.69 102,-56.69 95,-56.69"/>
</g>
<!-- Node3 -->
<g id="node3" class="node">
<title>Node3</title>
<g id="a_node3"><a xlink:title=" ">
<polygon fill="white" stroke="#666666" points="197,-207 0,-207 0,-166 197,-166 197,-207"/>
<text text-anchor="start" x="8" y="-195" font-family="Helvetica,sans-Serif" font-size="10.00">std::unique_ptr&lt; STACK</text>
<text text-anchor="start" x="8" y="-184" font-family="Helvetica,sans-Serif" font-size="10.00">_OF(X509_EXTENSION), void</text>
<text text-anchor="middle" x="98.5" y="-173" font-family="Helvetica,sans-Serif" font-size="10.00">(*)(STACK_OF(X509_EXTENSION) *)&gt;</text>
</a>
</g>
</g>
<!-- Node3&#45;&gt;Node2 -->
<g id="edge2" class="edge">
<title>Node3&#45;&gt;Node2</title>
<path fill="none" stroke="#9a32cd" stroke-dasharray="5,2" d="M98.5,-155.39C98.5,-143.62 98.5,-130.28 98.5,-119.05"/>
<polygon fill="#9a32cd" stroke="#9a32cd" points="95,-155.65 98.5,-165.65 102,-155.65 95,-155.65"/>
<text text-anchor="middle" x="103.5" y="-140" font-family="Helvetica,sans-Serif" font-size="10.00"> p</text>
</g>
</g>
</svg>
