<?xml version="1.0" encoding="UTF-8" standalone="no"?>
<!DOCTYPE svg PUBLIC "-//W3C//DTD SVG 1.1//EN"
 "http://www.w3.org/Graphics/SVG/1.1/DTD/svg11.dtd">
<!-- Generated by graphviz version 2.43.0 (0)
 -->
<!-- Title: aft::AppendEntries Pages: 1 -->
<svg width="260pt" height="93pt"
 viewBox="0.00 0.00 260.00 93.00" xmlns="http://www.w3.org/2000/svg" xmlns:xlink="http://www.w3.org/1999/xlink">
<g id="graph0" class="graph" transform="scale(1 1) rotate(0) translate(4 89)">
<title>aft::AppendEntries</title>
<!-- Node1 -->
<g id="node1" class="node">
<title>Node1</title>
<g id="a_node1"><a xlink:title=" ">
<polygon fill="#999999" stroke="#666666" points="165,-19 59,-19 59,0 165,0 165,-19"/>
<text text-anchor="middle" x="112" y="-7" font-family="Helvetica,sans-Serif" font-size="10.00">aft::AppendEntries</text>
</a>
</g>
</g>
<!-- Node2 -->
<g id="node2" class="node">
<title>Node2</title>
<g id="a_node2"><a xlink:href="structaft_1_1RaftHeader.html" target="_top" xlink:title=" ">
<polygon fill="white" stroke="#666666" points="90,-79.5 0,-79.5 0,-60.5 90,-60.5 90,-79.5"/>
<text text-anchor="middle" x="45" y="-67.5" font-family="Helvetica,sans-Serif" font-size="10.00">aft::RaftHeader</text>
</a>
</g>
</g>
<!-- Node2&#45;&gt;Node1 -->
<g id="edge1" class="edge">
<title>Node2&#45;&gt;Node1</title>
<path fill="none" stroke="#63b8ff" d="M62.5,-53.72C75.1,-42.71 91.67,-28.25 102.07,-19.17"/>
<polygon fill="#63b8ff" stroke="#63b8ff" points="60.12,-51.15 54.89,-60.37 64.72,-56.43 60.12,-51.15"/>
</g>
<!-- Node3 -->
<g id="node3" class="node">
<title>Node3</title>
<g id="a_node3"><a xlink:href="structconsensus_1_1AppendEntriesIndex.html" target="_top" xlink:title=" ">
<polygon fill="white" stroke="#666666" points="252,-85 108,-85 108,-55 252,-55 252,-85"/>
<text text-anchor="start" x="116" y="-73" font-family="Helvetica,sans-Serif" font-size="10.00">consensus::AppendEntries</text>
<text text-anchor="middle" x="180" y="-62" font-family="Helvetica,sans-Serif" font-size="10.00">Index</text>
</a>
</g>
</g>
<!-- Node3&#45;&gt;Node1 -->
<g id="edge2" class="edge">
<title>Node3&#45;&gt;Node1</title>
<path fill="none" stroke="#63b8ff" d="M155.87,-48.24C144.31,-38.29 131.07,-26.91 122.19,-19.27"/>
<polygon fill="#63b8ff" stroke="#63b8ff" points="153.68,-50.97 163.54,-54.84 158.24,-45.66 153.68,-50.97"/>
</g>
</g>
</svg>
