<?xml version="1.0" encoding="UTF-8" standalone="no"?>
<!DOCTYPE svg PUBLIC "-//W3C//DTD SVG 1.1//EN"
 "http://www.w3.org/Graphics/SVG/1.1/DTD/svg11.dtd">
<!-- Generated by graphviz version 2.43.0 (0)
 -->
<!-- Title: tpcc::OrderLine Pages: 1 -->
<svg width="306pt" height="104pt"
 viewBox="0.00 0.00 305.50 104.00" xmlns="http://www.w3.org/2000/svg" xmlns:xlink="http://www.w3.org/1999/xlink">
<g id="graph0" class="graph" transform="scale(1 1) rotate(0) translate(4 100)">
<title>tpcc::OrderLine</title>
<!-- Node1 -->
<g id="node1" class="node">
<title>Node1</title>
<g id="a_node1"><a xlink:title=" ">
<polygon fill="#999999" stroke="#666666" points="199.5,-19 109.5,-19 109.5,0 199.5,0 199.5,-19"/>
<text text-anchor="middle" x="154.5" y="-7" font-family="Helvetica,sans-Serif" font-size="10.00">tpcc::OrderLine</text>
</a>
</g>
</g>
<!-- Node2 -->
<g id="node2" class="node">
<title>Node2</title>
<g id="a_node2"><a xlink:title=" ">
<polygon fill="white" stroke="#666666" points="151,-96 0,-96 0,-66 151,-66 151,-96"/>
<text text-anchor="start" x="8" y="-84" font-family="Helvetica,sans-Serif" font-size="10.00">std::array&lt; char, DATETIME</text>
<text text-anchor="middle" x="75.5" y="-73" font-family="Helvetica,sans-Serif" font-size="10.00">_SIZE+1 &gt;</text>
</a>
</g>
</g>
<!-- Node2&#45;&gt;Node1 -->
<g id="edge1" class="edge">
<title>Node2&#45;&gt;Node1</title>
<path fill="none" stroke="#9a32cd" stroke-dasharray="5,2" d="M99.02,-59.31C114.2,-45.95 133.17,-29.26 144.53,-19.27"/>
<polygon fill="#9a32cd" stroke="#9a32cd" points="96.68,-56.7 91.49,-65.94 101.31,-61.96 96.68,-56.7"/>
<text text-anchor="middle" x="150" y="-40" font-family="Helvetica,sans-Serif" font-size="10.00"> delivery_d</text>
</g>
<!-- Node3 -->
<g id="node3" class="node">
<title>Node3</title>
<g id="a_node3"><a xlink:title=" ">
<polygon fill="white" stroke="#666666" points="297.5,-96 169.5,-96 169.5,-66 297.5,-66 297.5,-96"/>
<text text-anchor="start" x="177.5" y="-84" font-family="Helvetica,sans-Serif" font-size="10.00">std::array&lt; char, Stock</text>
<text text-anchor="middle" x="233.5" y="-73" font-family="Helvetica,sans-Serif" font-size="10.00">::DIST+1 &gt;</text>
</a>
</g>
</g>
<!-- Node3&#45;&gt;Node1 -->
<g id="edge2" class="edge">
<title>Node3&#45;&gt;Node1</title>
<path fill="none" stroke="#9a32cd" stroke-dasharray="5,2" d="M209.98,-59.31C194.8,-45.95 175.83,-29.26 164.47,-19.27"/>
<polygon fill="#9a32cd" stroke="#9a32cd" points="207.69,-61.96 217.51,-65.94 212.32,-56.7 207.69,-61.96"/>
<text text-anchor="middle" x="218.5" y="-40" font-family="Helvetica,sans-Serif" font-size="10.00"> dist_info</text>
</g>
</g>
</svg>
