<?xml version="1.0" encoding="UTF-8" standalone="no"?>
<!DOCTYPE svg PUBLIC "-//W3C//DTD SVG 1.1//EN"
 "http://www.w3.org/Graphics/SVG/1.1/DTD/svg11.dtd">
<!-- Generated by graphviz version 2.43.0 (0)
 -->
<!-- Title: ccf::endpoints::EndpointDefinition Pages: 1 -->
<svg width="985pt" height="201pt"
 viewBox="0.00 0.00 985.00 200.50" xmlns="http://www.w3.org/2000/svg" xmlns:xlink="http://www.w3.org/1999/xlink">
<g id="graph0" class="graph" transform="scale(1 1) rotate(0) translate(4 196.5)">
<title>ccf::endpoints::EndpointDefinition</title>
<!-- Node1 -->
<g id="node1" class="node">
<title>Node1</title>
<g id="a_node1"><a xlink:title=" ">
<polygon fill="#999999" stroke="#666666" points="977,-101.5 844,-101.5 844,-71.5 977,-71.5 977,-101.5"/>
<text text-anchor="start" x="852" y="-89.5" font-family="Helvetica,sans-Serif" font-size="10.00">ccf::endpoints::Endpoint</text>
<text text-anchor="middle" x="910.5" y="-78.5" font-family="Helvetica,sans-Serif" font-size="10.00">Definition</text>
</a>
</g>
</g>
<!-- Node2 -->
<g id="node2" class="node">
<title>Node2</title>
<g id="a_node2"><a xlink:href="structccf_1_1endpoints_1_1EndpointKey.html" target="_top" xlink:title=" ">
<polygon fill="white" stroke="#666666" points="480.5,-77 329.5,-77 329.5,-58 480.5,-58 480.5,-77"/>
<text text-anchor="middle" x="405" y="-65" font-family="Helvetica,sans-Serif" font-size="10.00">ccf::endpoints::EndpointKey</text>
</a>
</g>
</g>
<!-- Node2&#45;&gt;Node1 -->
<g id="edge1" class="edge">
<title>Node2&#45;&gt;Node1</title>
<path fill="none" stroke="#9a32cd" stroke-dasharray="5,2" d="M490.59,-70.69C590.13,-74.45 753.29,-80.61 843.81,-84.02"/>
<polygon fill="#9a32cd" stroke="#9a32cd" points="490.69,-67.19 480.56,-70.31 490.42,-74.19 490.69,-67.19"/>
<text text-anchor="middle" x="667" y="-82.5" font-family="Helvetica,sans-Serif" font-size="10.00"> dispatch</text>
</g>
<!-- Node3 -->
<g id="node3" class="node">
<title>Node3</title>
<g id="a_node3"><a xlink:title=" ">
<polygon fill="white" stroke="#666666" points="220.5,-135 155.5,-135 155.5,-116 220.5,-116 220.5,-135"/>
<text text-anchor="middle" x="188" y="-123" font-family="Helvetica,sans-Serif" font-size="10.00">std::string</text>
</a>
</g>
</g>
<!-- Node3&#45;&gt;Node1 -->
<g id="edge5" class="edge">
<title>Node3&#45;&gt;Node1</title>
<path fill="none" stroke="#9a32cd" stroke-dasharray="5,2" d="M231.02,-123.61C333.02,-118.97 601.83,-106.36 826,-92.5 831.8,-92.14 837.83,-91.75 843.87,-91.34"/>
<polygon fill="#9a32cd" stroke="#9a32cd" points="230.66,-120.13 220.83,-124.08 230.98,-127.12 230.66,-120.13"/>
<text text-anchor="middle" x="545" y="-112.5" font-family="Helvetica,sans-Serif" font-size="10.00"> full_uri_path</text>
</g>
<!-- Node3&#45;&gt;Node2 -->
<g id="edge2" class="edge">
<title>Node3&#45;&gt;Node2</title>
<path fill="none" stroke="#9a32cd" stroke-dasharray="5,2" d="M207.29,-109.14C219.38,-99.34 236.06,-87.63 253,-81.5 277.01,-72.81 304.51,-68.69 329.4,-66.93"/>
<polygon fill="#9a32cd" stroke="#9a32cd" points="204.75,-106.71 199.37,-115.83 209.26,-112.06 204.75,-106.71"/>
<text text-anchor="middle" x="277.5" y="-84.5" font-family="Helvetica,sans-Serif" font-size="10.00"> uri_path</text>
</g>
<!-- Node6 -->
<g id="node6" class="node">
<title>Node6</title>
<g id="a_node6"><a xlink:href="structccf_1_1endpoints_1_1EndpointProperties.html" target="_top" xlink:title=" ">
<polygon fill="white" stroke="#666666" points="733.5,-164.5 600.5,-164.5 600.5,-134.5 733.5,-134.5 733.5,-164.5"/>
<text text-anchor="start" x="608.5" y="-152.5" font-family="Helvetica,sans-Serif" font-size="10.00">ccf::endpoints::Endpoint</text>
<text text-anchor="middle" x="667" y="-141.5" font-family="Helvetica,sans-Serif" font-size="10.00">Properties</text>
</a>
</g>
</g>
<!-- Node3&#45;&gt;Node6 -->
<g id="edge9" class="edge">
<title>Node3&#45;&gt;Node6</title>
<path fill="none" stroke="#9a32cd" stroke-dasharray="5,2" d="M221.4,-138.75C231.42,-142.55 242.57,-146.47 253,-149.5 282.22,-157.98 289.74,-160.37 320,-163.5 435.83,-175.47 465.95,-172.06 582,-162.5 587.88,-162.02 593.98,-161.36 600.08,-160.61"/>
<polygon fill="#9a32cd" stroke="#9a32cd" points="222.41,-135.38 211.82,-135.03 219.88,-141.91 222.41,-135.38"/>
<text text-anchor="middle" x="405" y="-184.5" font-family="Helvetica,sans-Serif" font-size="10.00"> js_function</text>
<text text-anchor="middle" x="405" y="-173.5" font-family="Helvetica,sans-Serif" font-size="10.00">js_module</text>
</g>
<!-- Node7 -->
<g id="node7" class="node">
<title>Node7</title>
<g id="a_node7"><a xlink:title=" ">
<polygon fill="white" stroke="#666666" points="475,-154 335,-154 335,-135 475,-135 475,-154"/>
<text text-anchor="middle" x="405" y="-142" font-family="Helvetica,sans-Serif" font-size="10.00">std::vector&lt; std::string &gt;</text>
</a>
</g>
</g>
<!-- Node3&#45;&gt;Node7 -->
<g id="edge8" class="edge">
<title>Node3&#45;&gt;Node7</title>
<path fill="none" stroke="#9a32cd" stroke-dasharray="5,2" d="M230.69,-129.18C260.21,-131.79 300.49,-135.35 334.79,-138.38"/>
<polygon fill="#9a32cd" stroke="#9a32cd" points="230.99,-125.7 220.72,-128.3 230.38,-132.67 230.99,-125.7"/>
<text text-anchor="middle" x="277.5" y="-137.5" font-family="Helvetica,sans-Serif" font-size="10.00"> elements</text>
</g>
<!-- Node4 -->
<g id="node4" class="node">
<title>Node4</title>
<g id="a_node4"><a xlink:title=" ">
<polygon fill="white" stroke="#666666" points="104,-140.5 0,-140.5 0,-110.5 104,-110.5 104,-140.5"/>
<text text-anchor="start" x="8" y="-128.5" font-family="Helvetica,sans-Serif" font-size="10.00">std::basic_string&lt;</text>
<text text-anchor="middle" x="52" y="-117.5" font-family="Helvetica,sans-Serif" font-size="10.00"> Char &gt;</text>
</a>
</g>
</g>
<!-- Node4&#45;&gt;Node3 -->
<g id="edge3" class="edge">
<title>Node4&#45;&gt;Node3</title>
<path fill="none" stroke="#63b8ff" d="M114.32,-125.5C128.57,-125.5 143.16,-125.5 155.49,-125.5"/>
<polygon fill="#63b8ff" stroke="#63b8ff" points="114.04,-122 104.04,-125.5 114.04,-129 114.04,-122"/>
</g>
<!-- Node5 -->
<g id="node5" class="node">
<title>Node5</title>
<g id="a_node5"><a xlink:href="classccf_1_1RESTVerb.html" target="_top" xlink:title=" ">
<polygon fill="white" stroke="#666666" points="229.5,-56 146.5,-56 146.5,-37 229.5,-37 229.5,-56"/>
<text text-anchor="middle" x="188" y="-44" font-family="Helvetica,sans-Serif" font-size="10.00">ccf::RESTVerb</text>
</a>
</g>
</g>
<!-- Node5&#45;&gt;Node2 -->
<g id="edge4" class="edge">
<title>Node5&#45;&gt;Node2</title>
<path fill="none" stroke="#9a32cd" stroke-dasharray="5,2" d="M239.83,-44.96C259.32,-44.89 281.73,-45.44 302,-47.5 322.83,-49.62 345.72,-53.92 364.53,-58"/>
<polygon fill="#9a32cd" stroke="#9a32cd" points="239.6,-41.46 229.63,-45.05 239.66,-48.46 239.6,-41.46"/>
<text text-anchor="middle" x="277.5" y="-50.5" font-family="Helvetica,sans-Serif" font-size="10.00"> verb</text>
</g>
<!-- Node6&#45;&gt;Node1 -->
<g id="edge6" class="edge">
<title>Node6&#45;&gt;Node1</title>
<path fill="none" stroke="#9a32cd" stroke-dasharray="5,2" d="M743.59,-138.87C769.94,-134.31 799.53,-128.23 826,-120.5 843.13,-115.5 861.56,-108.21 876.74,-101.66"/>
<polygon fill="#9a32cd" stroke="#9a32cd" points="742.94,-135.43 733.66,-140.54 744.1,-142.33 742.94,-135.43"/>
<text text-anchor="middle" x="789" y="-139.5" font-family="Helvetica,sans-Serif" font-size="10.00"> properties</text>
</g>
<!-- Node7&#45;&gt;Node6 -->
<g id="edge7" class="edge">
<title>Node7&#45;&gt;Node6</title>
<path fill="none" stroke="#9a32cd" stroke-dasharray="5,2" d="M485.53,-146.03C522.34,-146.74 565.54,-147.57 600.44,-148.24"/>
<polygon fill="#9a32cd" stroke="#9a32cd" points="485.4,-142.53 475.33,-145.83 485.26,-149.53 485.4,-142.53"/>
<text text-anchor="middle" x="545" y="-150.5" font-family="Helvetica,sans-Serif" font-size="10.00"> authn_policies</text>
</g>
<!-- Node8 -->
<g id="node8" class="node">
<title>Node8</title>
<g id="a_node8"><a xlink:title=" ">
<polygon fill="white" stroke="#666666" points="734,-30.5 600,-30.5 600,-0.5 734,-0.5 734,-30.5"/>
<text text-anchor="start" x="608" y="-18.5" font-family="Helvetica,sans-Serif" font-size="10.00">std::vector&lt; std::shared</text>
<text text-anchor="middle" x="667" y="-7.5" font-family="Helvetica,sans-Serif" font-size="10.00">_ptr&lt; AuthnPolicy &gt; &gt;</text>
</a>
</g>
</g>
<!-- Node8&#45;&gt;Node1 -->
<g id="edge10" class="edge">
<title>Node8&#45;&gt;Node1</title>
<path fill="none" stroke="#9a32cd" stroke-dasharray="5,2" d="M744.06,-23.54C770.45,-27.62 799.95,-33.66 826,-42.5 847.26,-49.71 869.68,-61.81 885.93,-71.49"/>
<polygon fill="#9a32cd" stroke="#9a32cd" points="744.51,-20.07 734.11,-22.07 743.49,-26.99 744.51,-20.07"/>
<text text-anchor="middle" x="789" y="-45.5" font-family="Helvetica,sans-Serif" font-size="10.00"> authn_policies</text>
</g>
<!-- Node9 -->
<g id="node9" class="node">
<title>Node9</title>
<g id="a_node9"><a xlink:title=" ">
<polygon fill="white" stroke="#666666" points="490,-20 320,-20 320,-1 490,-1 490,-20"/>
<text text-anchor="middle" x="405" y="-8" font-family="Helvetica,sans-Serif" font-size="10.00">std::shared_ptr&lt; AuthnPolicy &gt;</text>
</a>
</g>
</g>
<!-- Node9&#45;&gt;Node8 -->
<g id="edge11" class="edge">
<title>Node9&#45;&gt;Node8</title>
<path fill="none" stroke="#9a32cd" stroke-dasharray="5,2" d="M500.2,-12.31C533.26,-12.95 569.68,-13.65 599.94,-14.23"/>
<polygon fill="#9a32cd" stroke="#9a32cd" points="500.12,-8.81 490.06,-12.12 499.99,-15.81 500.12,-8.81"/>
<text text-anchor="middle" x="545" y="-17.5" font-family="Helvetica,sans-Serif" font-size="10.00"> elements</text>
</g>
<!-- Node10 -->
<g id="node10" class="node">
<title>Node10</title>
<g id="a_node10"><a xlink:href="classccf_1_1AuthnPolicy.html" target="_top" xlink:title=" ">
<polygon fill="white" stroke="#666666" points="235,-19 141,-19 141,0 235,0 235,-19"/>
<text text-anchor="middle" x="188" y="-7" font-family="Helvetica,sans-Serif" font-size="10.00">ccf::AuthnPolicy</text>
</a>
</g>
</g>
<!-- Node10&#45;&gt;Node9 -->
<g id="edge12" class="edge">
<title>Node10&#45;&gt;Node9</title>
<path fill="none" stroke="#9a32cd" stroke-dasharray="5,2" d="M245.28,-9.76C268.04,-9.87 294.79,-9.99 319.79,-10.11"/>
<polygon fill="#9a32cd" stroke="#9a32cd" points="245.14,-6.26 235.12,-9.71 245.11,-13.26 245.14,-6.26"/>
<text text-anchor="middle" x="277.5" y="-13.5" font-family="Helvetica,sans-Serif" font-size="10.00"> ptr</text>
</g>
</g>
</svg>
