<?xml version="1.0" encoding="UTF-8" standalone="no"?>
<!DOCTYPE svg PUBLIC "-//W3C//DTD SVG 1.1//EN"
 "http://www.w3.org/Graphics/SVG/1.1/DTD/svg11.dtd">
<!-- Generated by graphviz version 2.43.0 (0)
 -->
<!-- Title: crypto::OpenSSL::Unique_X509_TIME Pages: 1 -->
<svg width="206pt" height="193pt"
 viewBox="0.00 0.00 206.00 193.00" xmlns="http://www.w3.org/2000/svg" xmlns:xlink="http://www.w3.org/1999/xlink">
<g id="graph0" class="graph" transform="scale(1 1) rotate(0) translate(4 189)">
<title>crypto::OpenSSL::Unique_X509_TIME</title>
<!-- Node1 -->
<g id="node1" class="node">
<title>Node1</title>
<g id="a_node1"><a xlink:title=" ">
<polygon fill="#999999" stroke="#666666" points="167.5,-30 30.5,-30 30.5,0 167.5,0 167.5,-30"/>
<text text-anchor="start" x="38.5" y="-18" font-family="Helvetica,sans-Serif" font-size="10.00">crypto::OpenSSL::Unique</text>
<text text-anchor="middle" x="99" y="-7" font-family="Helvetica,sans-Serif" font-size="10.00">_X509_TIME</text>
</a>
</g>
</g>
<!-- Node2 -->
<g id="node2" class="node">
<title>Node2</title>
<g id="a_node2"><a xlink:href="classcrypto_1_1OpenSSL_1_1Unique__SSL__OBJECT.html" target="_top" xlink:title=" ">
<polygon fill="white" stroke="#666666" points="198,-108 0,-108 0,-67 198,-67 198,-108"/>
<text text-anchor="start" x="8" y="-96" font-family="Helvetica,sans-Serif" font-size="10.00">crypto::OpenSSL::Unique</text>
<text text-anchor="start" x="8" y="-85" font-family="Helvetica,sans-Serif" font-size="10.00">_SSL_OBJECT&lt; ASN1_TIME,</text>
<text text-anchor="middle" x="99" y="-74" font-family="Helvetica,sans-Serif" font-size="10.00"> ASN1_TIME_new, ASN1_TIME_free &gt;</text>
</a>
</g>
</g>
<!-- Node2&#45;&gt;Node1 -->
<g id="edge1" class="edge">
<title>Node2&#45;&gt;Node1</title>
<path fill="none" stroke="#63b8ff" d="M99,-56.58C99,-47.51 99,-37.95 99,-30.39"/>
<polygon fill="#63b8ff" stroke="#63b8ff" points="95.5,-56.86 99,-66.86 102.5,-56.86 95.5,-56.86"/>
</g>
<!-- Node3 -->
<g id="node3" class="node">
<title>Node3</title>
<g id="a_node3"><a xlink:title=" ">
<polygon fill="white" stroke="#666666" points="181.5,-185 16.5,-185 16.5,-155 181.5,-155 181.5,-185"/>
<text text-anchor="start" x="24.5" y="-173" font-family="Helvetica,sans-Serif" font-size="10.00">std::unique_ptr&lt; ASN1</text>
<text text-anchor="middle" x="99" y="-162" font-family="Helvetica,sans-Serif" font-size="10.00">_TIME, void(*)(ASN1_TIME *)&gt;</text>
</a>
</g>
</g>
<!-- Node3&#45;&gt;Node2 -->
<g id="edge2" class="edge">
<title>Node3&#45;&gt;Node2</title>
<path fill="none" stroke="#9a32cd" stroke-dasharray="5,2" d="M99,-144.94C99,-133.17 99,-119.19 99,-108.09"/>
<polygon fill="#9a32cd" stroke="#9a32cd" points="95.5,-144.98 99,-154.98 102.5,-144.98 95.5,-144.98"/>
<text text-anchor="middle" x="104" y="-129" font-family="Helvetica,sans-Serif" font-size="10.00"> p</text>
</g>
</g>
</svg>
