<?xml version="1.0" encoding="UTF-8" standalone="no"?>
<!DOCTYPE svg PUBLIC "-//W3C//DTD SVG 1.1//EN"
 "http://www.w3.org/Graphics/SVG/1.1/DTD/svg11.dtd">
<!-- Generated by graphviz version 2.43.0 (0)
 -->
<!-- Title: ccf::JoinNetworkNodeToNode::In Pages: 1 -->
<svg width="347pt" height="447pt"
 viewBox="0.00 0.00 346.50 447.00" xmlns="http://www.w3.org/2000/svg" xmlns:xlink="http://www.w3.org/1999/xlink">
<g id="graph0" class="graph" transform="scale(1 1) rotate(0) translate(4 443)">
<title>ccf::JoinNetworkNodeToNode::In</title>
<!-- Node1 -->
<g id="node1" class="node">
<title>Node1</title>
<g id="a_node1"><a xlink:title=" ">
<polygon fill="#999999" stroke="#666666" points="215.5,-19 43.5,-19 43.5,0 215.5,0 215.5,-19"/>
<text text-anchor="middle" x="129.5" y="-7" font-family="Helvetica,sans-Serif" font-size="10.00">ccf::JoinNetworkNodeToNode::In</text>
</a>
</g>
</g>
<!-- Node2 -->
<g id="node2" class="node">
<title>Node2</title>
<g id="a_node2"><a xlink:href="structccf_1_1NodeInfoNetwork.html" target="_top" xlink:title=" ">
<polygon fill="white" stroke="#666666" points="130.5,-85 8.5,-85 8.5,-66 130.5,-66 130.5,-85"/>
<text text-anchor="middle" x="69.5" y="-73" font-family="Helvetica,sans-Serif" font-size="10.00">ccf::NodeInfoNetwork</text>
</a>
</g>
</g>
<!-- Node2&#45;&gt;Node1 -->
<g id="edge1" class="edge">
<title>Node2&#45;&gt;Node1</title>
<path fill="none" stroke="#9a32cd" stroke-dasharray="5,2" d="M66.15,-55.97C65.92,-49.5 66.85,-42.49 70.5,-37 76.04,-28.68 84.86,-22.95 94.01,-19"/>
<polygon fill="#9a32cd" stroke="#9a32cd" points="62.68,-56.46 67.32,-65.99 69.63,-55.65 62.68,-56.46"/>
<text text-anchor="middle" x="119" y="-40" font-family="Helvetica,sans-Serif" font-size="10.00"> node_info_network</text>
</g>
<!-- Node3 -->
<g id="node3" class="node">
<title>Node3</title>
<g id="a_node3"><a xlink:href="structccf_1_1NodeInfoNetwork__v2.html" target="_top" xlink:title=" ">
<polygon fill="white" stroke="#666666" points="139,-141 0,-141 0,-122 139,-122 139,-141"/>
<text text-anchor="middle" x="69.5" y="-129" font-family="Helvetica,sans-Serif" font-size="10.00">ccf::NodeInfoNetwork_v2</text>
</a>
</g>
</g>
<!-- Node3&#45;&gt;Node2 -->
<g id="edge2" class="edge">
<title>Node3&#45;&gt;Node2</title>
<path fill="none" stroke="#63b8ff" d="M69.5,-111.3C69.5,-102.41 69.5,-92.28 69.5,-85.25"/>
<polygon fill="#63b8ff" stroke="#63b8ff" points="66,-111.58 69.5,-121.58 73,-111.58 66,-111.58"/>
</g>
<!-- Node4 -->
<g id="node4" class="node">
<title>Node4</title>
<g id="a_node4"><a xlink:href="structccf_1_1NodeInfoNetwork__v2_1_1NetInterface.html" target="_top" xlink:title=" ">
<polygon fill="white" stroke="#666666" points="220.5,-295 98.5,-295 98.5,-265 220.5,-265 220.5,-295"/>
<text text-anchor="start" x="106.5" y="-283" font-family="Helvetica,sans-Serif" font-size="10.00">ccf::NodeInfoNetwork</text>
<text text-anchor="middle" x="159.5" y="-272" font-family="Helvetica,sans-Serif" font-size="10.00">_v2::NetInterface</text>
</a>
</g>
</g>
<!-- Node4&#45;&gt;Node3 -->
<g id="edge3" class="edge">
<title>Node4&#45;&gt;Node3</title>
<path fill="none" stroke="#9a32cd" stroke-dasharray="5,2" d="M110.72,-260.57C92.18,-250.89 73,-237 62.5,-218 48.67,-192.97 59.52,-157.39 65.81,-141.17"/>
<polygon fill="#9a32cd" stroke="#9a32cd" points="109.22,-263.73 119.74,-264.99 112.3,-257.45 109.22,-263.73"/>
<text text-anchor="middle" x="123" y="-200.5" font-family="Helvetica,sans-Serif" font-size="10.00"> node_to_node_interface</text>
</g>
<!-- Node7 -->
<g id="node7" class="node">
<title>Node7</title>
<g id="a_node7"><a xlink:title=" ">
<polygon fill="white" stroke="#666666" points="338.5,-218 192.5,-218 192.5,-188 338.5,-188 338.5,-218"/>
<text text-anchor="start" x="200.5" y="-206" font-family="Helvetica,sans-Serif" font-size="10.00">std::map&lt; RpcInterfaceID,</text>
<text text-anchor="middle" x="265.5" y="-195" font-family="Helvetica,sans-Serif" font-size="10.00"> NetInterface &gt;</text>
</a>
</g>
</g>
<!-- Node4&#45;&gt;Node7 -->
<g id="edge8" class="edge">
<title>Node4&#45;&gt;Node7</title>
<path fill="none" stroke="#9a32cd" stroke-dasharray="5,2" d="M178.76,-257.11C185.79,-249.87 194.09,-242.1 202.5,-236 211.83,-229.23 222.81,-223.11 232.96,-218.09"/>
<polygon fill="#9a32cd" stroke="#9a32cd" points="175.97,-254.98 171.69,-264.67 181.08,-259.76 175.97,-254.98"/>
<text text-anchor="middle" x="227" y="-239" font-family="Helvetica,sans-Serif" font-size="10.00"> elements</text>
</g>
<!-- Node5 -->
<g id="node5" class="node">
<title>Node5</title>
<g id="a_node5"><a xlink:title=" ">
<polygon fill="white" stroke="#666666" points="245,-372 180,-372 180,-353 245,-353 245,-372"/>
<text text-anchor="middle" x="212.5" y="-360" font-family="Helvetica,sans-Serif" font-size="10.00">std::string</text>
</a>
</g>
</g>
<!-- Node5&#45;&gt;Node4 -->
<g id="edge4" class="edge">
<title>Node5&#45;&gt;Node4</title>
<path fill="none" stroke="#9a32cd" stroke-dasharray="5,2" d="M173.62,-347.89C168.42,-344.47 163.77,-340.23 160.5,-335 153.14,-323.23 153.96,-307.02 155.95,-295.44"/>
<polygon fill="#9a32cd" stroke="#9a32cd" points="172.28,-351.15 182.73,-352.92 175.66,-345.02 172.28,-351.15"/>
<text text-anchor="middle" x="206" y="-327" font-family="Helvetica,sans-Serif" font-size="10.00"> bind_address</text>
<text text-anchor="middle" x="206" y="-316" font-family="Helvetica,sans-Serif" font-size="10.00">published_address</text>
</g>
<!-- Node5&#45;&gt;Node7 -->
<g id="edge7" class="edge">
<title>Node5&#45;&gt;Node7</title>
<path fill="none" stroke="#9a32cd" stroke-dasharray="5,2" d="M240.5,-347C244.81,-343.62 248.73,-339.62 251.5,-335 273.85,-297.73 270.74,-243.62 267.65,-218.2"/>
<polygon fill="#9a32cd" stroke="#9a32cd" points="238.3,-344.27 231.97,-352.77 242.22,-350.07 238.3,-344.27"/>
<text text-anchor="middle" x="282.5" y="-277.5" font-family="Helvetica,sans-Serif" font-size="10.00"> keys</text>
</g>
<!-- Node6 -->
<g id="node6" class="node">
<title>Node6</title>
<g id="a_node6"><a xlink:title=" ">
<polygon fill="white" stroke="#666666" points="264.5,-439 160.5,-439 160.5,-409 264.5,-409 264.5,-439"/>
<text text-anchor="start" x="168.5" y="-427" font-family="Helvetica,sans-Serif" font-size="10.00">std::basic_string&lt;</text>
<text text-anchor="middle" x="212.5" y="-416" font-family="Helvetica,sans-Serif" font-size="10.00"> Char &gt;</text>
</a>
</g>
</g>
<!-- Node6&#45;&gt;Node5 -->
<g id="edge5" class="edge">
<title>Node6&#45;&gt;Node5</title>
<path fill="none" stroke="#63b8ff" d="M212.5,-398.79C212.5,-389.36 212.5,-379.15 212.5,-372.16"/>
<polygon fill="#63b8ff" stroke="#63b8ff" points="209,-398.9 212.5,-408.9 216,-398.9 209,-398.9"/>
</g>
<!-- Node7&#45;&gt;Node3 -->
<g id="edge6" class="edge">
<title>Node7&#45;&gt;Node3</title>
<path fill="none" stroke="#9a32cd" stroke-dasharray="5,2" d="M216.21,-184.52C177.09,-170.65 124.08,-151.85 93.66,-141.07"/>
<polygon fill="#9a32cd" stroke="#9a32cd" points="215.24,-187.89 225.84,-187.94 217.58,-181.29 215.24,-187.89"/>
<text text-anchor="middle" x="209" y="-162" font-family="Helvetica,sans-Serif" font-size="10.00"> rpc_interfaces</text>
</g>
<!-- Node8 -->
<g id="node8" class="node">
<title>Node8</title>
<g id="a_node8"><a xlink:href="classcrypto_1_1Pem.html" target="_top" xlink:title=" ">
<polygon fill="white" stroke="#666666" points="227,-85 152,-85 152,-66 227,-66 227,-85"/>
<text text-anchor="middle" x="189.5" y="-73" font-family="Helvetica,sans-Serif" font-size="10.00">crypto::Pem</text>
</a>
</g>
</g>
<!-- Node8&#45;&gt;Node1 -->
<g id="edge9" class="edge">
<title>Node8&#45;&gt;Node1</title>
<path fill="none" stroke="#9a32cd" stroke-dasharray="5,2" d="M181.16,-56.79C177.53,-50.15 172.87,-42.81 167.5,-37 161.06,-30.03 152.48,-23.86 145.11,-19.22"/>
<polygon fill="#9a32cd" stroke="#9a32cd" points="178.07,-58.42 185.71,-65.76 184.31,-55.26 178.07,-58.42"/>
<text text-anchor="middle" x="230.5" y="-40" font-family="Helvetica,sans-Serif" font-size="10.00"> public_encryption_key</text>
</g>
</g>
</svg>
