<?xml version="1.0" encoding="UTF-8" standalone="no"?>
<!DOCTYPE svg PUBLIC "-//W3C//DTD SVG 1.1//EN"
 "http://www.w3.org/Graphics/SVG/1.1/DTD/svg11.dtd">
<!-- Generated by graphviz version 2.43.0 (0)
 -->
<!-- Title: ccf::NetworkTables Pages: 1 -->
<svg width="1318pt" height="1193pt"
 viewBox="0.00 0.00 1318.00 1193.36" xmlns="http://www.w3.org/2000/svg" xmlns:xlink="http://www.w3.org/1999/xlink">
<g id="graph0" class="graph" transform="scale(1 1) rotate(0) translate(4 1189.36)">
<title>ccf::NetworkTables</title>
<!-- Node1 -->
<g id="node1" class="node">
<title>Node1</title>
<g id="a_node1"><a xlink:title=" ">
<polygon fill="#999999" stroke="#666666" points="1310,-582.86 1202,-582.86 1202,-563.86 1310,-563.86 1310,-582.86"/>
<text text-anchor="middle" x="1256" y="-570.86" font-family="Helvetica,sans-Serif" font-size="10.00">ccf::NetworkTables</text>
</a>
</g>
</g>
<!-- Node2 -->
<g id="node2" class="node">
<title>Node2</title>
<g id="a_node2"><a xlink:title=" ">
<polygon fill="white" stroke="#666666" points="987,-1176.36 874,-1176.36 874,-1146.36 987,-1146.36 987,-1176.36"/>
<text text-anchor="start" x="882" y="-1164.36" font-family="Helvetica,sans-Serif" font-size="10.00">std::shared_ptr&lt; kv</text>
<text text-anchor="middle" x="930.5" y="-1153.36" font-family="Helvetica,sans-Serif" font-size="10.00">::Store &gt;</text>
</a>
</g>
</g>
<!-- Node2&#45;&gt;Node1 -->
<g id="edge1" class="edge">
<title>Node2&#45;&gt;Node1</title>
<path fill="none" stroke="#9a32cd" stroke-dasharray="5,2" d="M997.18,-1172.81C1054.56,-1178.71 1136,-1176.5 1184,-1128.36 1224.3,-1087.95 1250.44,-654.05 1254.46,-583.14"/>
<polygon fill="#9a32cd" stroke="#9a32cd" points="997.44,-1169.32 987.11,-1171.66 996.65,-1176.27 997.44,-1169.32"/>
<text text-anchor="middle" x="1115.5" y="-1177.36" font-family="Helvetica,sans-Serif" font-size="10.00"> tables</text>
</g>
<!-- Node3 -->
<g id="node3" class="node">
<title>Node3</title>
<g id="a_node3"><a xlink:href="classkv_1_1Store.html" target="_top" xlink:title=" ">
<polygon fill="white" stroke="#666666" points="768.5,-1071.86 709.5,-1071.86 709.5,-1052.86 768.5,-1052.86 768.5,-1071.86"/>
<text text-anchor="middle" x="739" y="-1059.86" font-family="Helvetica,sans-Serif" font-size="10.00">kv::Store</text>
</a>
</g>
</g>
<!-- Node3&#45;&gt;Node2 -->
<g id="edge2" class="edge">
<title>Node3&#45;&gt;Node2</title>
<path fill="none" stroke="#9a32cd" stroke-dasharray="5,2" d="M755.97,-1079.19C773.16,-1096.33 802.1,-1122.45 832,-1137.36 844.95,-1143.82 859.75,-1148.61 873.84,-1152.14"/>
<polygon fill="#9a32cd" stroke="#9a32cd" points="758.43,-1076.71 748.93,-1072.02 753.44,-1081.61 758.43,-1076.71"/>
<text text-anchor="middle" x="805.5" y="-1128.36" font-family="Helvetica,sans-Serif" font-size="10.00"> ptr</text>
</g>
<!-- Node4 -->
<g id="node4" class="node">
<title>Node4</title>
<g id="a_node4"><a xlink:href="classkv_1_1AbstractStore.html" target="_top" xlink:title=" ">
<polygon fill="white" stroke="#666666" points="638,-1071.86 538,-1071.86 538,-1052.86 638,-1052.86 638,-1071.86"/>
<text text-anchor="middle" x="588" y="-1059.86" font-family="Helvetica,sans-Serif" font-size="10.00">kv::AbstractStore</text>
</a>
</g>
</g>
<!-- Node4&#45;&gt;Node3 -->
<g id="edge3" class="edge">
<title>Node4&#45;&gt;Node3</title>
<path fill="none" stroke="#63b8ff" d="M648.34,-1062.36C669.33,-1062.36 691.99,-1062.36 709.28,-1062.36"/>
<polygon fill="#63b8ff" stroke="#63b8ff" points="648.2,-1058.86 638.2,-1062.36 648.2,-1065.86 648.2,-1058.86"/>
</g>
<!-- Node5 -->
<g id="node5" class="node">
<title>Node5</title>
<g id="a_node5"><a xlink:href="classkv_1_1StoreState.html" target="_top" xlink:title=" ">
<polygon fill="white" stroke="#666666" points="630.5,-1034.86 545.5,-1034.86 545.5,-1015.86 630.5,-1015.86 630.5,-1034.86"/>
<text text-anchor="middle" x="588" y="-1022.86" font-family="Helvetica,sans-Serif" font-size="10.00">kv::StoreState</text>
</a>
</g>
</g>
<!-- Node5&#45;&gt;Node3 -->
<g id="edge4" class="edge">
<title>Node5&#45;&gt;Node3</title>
<path fill="none" stroke="#63b8ff" d="M637.26,-1037.35C660.99,-1043.24 688.79,-1050.14 709.17,-1055.2"/>
<polygon fill="#63b8ff" stroke="#63b8ff" points="637.92,-1033.91 627.37,-1034.89 636.23,-1040.7 637.92,-1033.91"/>
</g>
<!-- Node6 -->
<g id="node6" class="node">
<title>Node6</title>
<g id="a_node6"><a xlink:title=" ">
<polygon fill="white" stroke="#666666" points="374,-1006.86 305,-1006.86 305,-987.86 374,-987.86 374,-1006.86"/>
<text text-anchor="middle" x="339.5" y="-994.86" font-family="Helvetica,sans-Serif" font-size="10.00">std::mutex</text>
</a>
</g>
</g>
<!-- Node6&#45;&gt;Node5 -->
<g id="edge5" class="edge">
<title>Node6&#45;&gt;Node5</title>
<path fill="none" stroke="#9a32cd" stroke-dasharray="5,2" d="M384.49,-992.89C415.91,-990.85 459.01,-990.39 496,-998.36 504.56,-1000.21 505.74,-1003.47 514,-1006.36 524.01,-1009.87 535,-1013.05 545.34,-1015.78"/>
<polygon fill="#9a32cd" stroke="#9a32cd" points="384.02,-989.42 374.3,-993.64 384.53,-996.4 384.02,-989.42"/>
<text text-anchor="middle" x="462.5" y="-1023.36" font-family="Helvetica,sans-Serif" font-size="10.00"> commit_lock</text>
<text text-anchor="middle" x="462.5" y="-1012.36" font-family="Helvetica,sans-Serif" font-size="10.00">maps_lock</text>
<text text-anchor="middle" x="462.5" y="-1001.36" font-family="Helvetica,sans-Serif" font-size="10.00">version_lock</text>
</g>
<!-- Node7 -->
<g id="node7" class="node">
<title>Node7</title>
<g id="a_node7"><a xlink:title=" ">
<polygon fill="white" stroke="#666666" points="411,-891.36 268,-891.36 268,-839.36 411,-839.36 411,-891.36"/>
<text text-anchor="start" x="276" y="-879.36" font-family="Helvetica,sans-Serif" font-size="10.00">std::map&lt; std::string,</text>
<text text-anchor="start" x="276" y="-868.36" font-family="Helvetica,sans-Serif" font-size="10.00"> std::pair&lt; kv::Version,</text>
<text text-anchor="start" x="276" y="-857.36" font-family="Helvetica,sans-Serif" font-size="10.00"> std::shared_ptr&lt; untyped</text>
<text text-anchor="middle" x="339.5" y="-846.36" font-family="Helvetica,sans-Serif" font-size="10.00">::Map &gt; &gt; &gt;</text>
</a>
</g>
</g>
<!-- Node7&#45;&gt;Node5 -->
<g id="edge6" class="edge">
<title>Node7&#45;&gt;Node5</title>
<path fill="none" stroke="#9a32cd" stroke-dasharray="5,2" d="M394.79,-896.96C426.69,-917.25 466.43,-945.69 496,-977.36 506.35,-988.45 501.79,-997.37 514,-1006.36 523.07,-1013.04 534.28,-1017.38 545.18,-1020.19"/>
<polygon fill="#9a32cd" stroke="#9a32cd" points="396.35,-893.8 386.02,-891.45 392.63,-899.73 396.35,-893.8"/>
<text text-anchor="middle" x="462.5" y="-980.36" font-family="Helvetica,sans-Serif" font-size="10.00"> maps</text>
</g>
<!-- Node8 -->
<g id="node8" class="node">
<title>Node8</title>
<g id="a_node8"><a xlink:title=" ">
<polygon fill="white" stroke="#666666" points="206,-679.86 141,-679.86 141,-660.86 206,-660.86 206,-679.86"/>
<text text-anchor="middle" x="173.5" y="-667.86" font-family="Helvetica,sans-Serif" font-size="10.00">std::string</text>
</a>
</g>
</g>
<!-- Node8&#45;&gt;Node7 -->
<g id="edge7" class="edge">
<title>Node8&#45;&gt;Node7</title>
<path fill="none" stroke="#9a32cd" stroke-dasharray="5,2" d="M189.17,-687.81C218.07,-722.17 282.49,-798.76 316.49,-839.2"/>
<polygon fill="#9a32cd" stroke="#9a32cd" points="191.75,-685.43 182.63,-680.03 186.39,-689.94 191.75,-685.43"/>
<text text-anchor="middle" x="237" y="-759.36" font-family="Helvetica,sans-Serif" font-size="10.00"> keys</text>
</g>
<!-- Node14 -->
<g id="node14" class="node">
<title>Node14</title>
<g id="a_node14"><a xlink:href="structkv_1_1GetName.html" target="_top" xlink:title=" ">
<polygon fill="white" stroke="#666666" points="779,-582.86 699,-582.86 699,-563.86 779,-563.86 779,-582.86"/>
<text text-anchor="middle" x="739" y="-570.86" font-family="Helvetica,sans-Serif" font-size="10.00">kv::GetName</text>
</a>
</g>
</g>
<!-- Node8&#45;&gt;Node14 -->
<g id="edge14" class="edge">
<title>Node8&#45;&gt;Node14</title>
<path fill="none" stroke="#9a32cd" stroke-dasharray="5,2" d="M215.91,-663.24C320.83,-645.17 596.08,-597.79 698.69,-580.13"/>
<polygon fill="#9a32cd" stroke="#9a32cd" points="215.26,-659.79 206,-664.94 216.45,-666.69 215.26,-659.79"/>
<text text-anchor="middle" x="462.5" y="-629.36" font-family="Helvetica,sans-Serif" font-size="10.00"> name</text>
</g>
<!-- Node9 -->
<g id="node9" class="node">
<title>Node9</title>
<g id="a_node9"><a xlink:title=" ">
<polygon fill="white" stroke="#666666" points="104,-685.36 0,-685.36 0,-655.36 104,-655.36 104,-685.36"/>
<text text-anchor="start" x="8" y="-673.36" font-family="Helvetica,sans-Serif" font-size="10.00">std::basic_string&lt;</text>
<text text-anchor="middle" x="52" y="-662.36" font-family="Helvetica,sans-Serif" font-size="10.00"> Char &gt;</text>
</a>
</g>
</g>
<!-- Node9&#45;&gt;Node8 -->
<g id="edge8" class="edge">
<title>Node9&#45;&gt;Node8</title>
<path fill="none" stroke="#63b8ff" d="M114.1,-670.36C123.41,-670.36 132.68,-670.36 141,-670.36"/>
<polygon fill="#63b8ff" stroke="#63b8ff" points="114.03,-666.86 104.03,-670.36 114.03,-673.86 114.03,-666.86"/>
</g>
<!-- Node10 -->
<g id="node10" class="node">
<title>Node10</title>
<g id="a_node10"><a xlink:title=" ">
<polygon fill="white" stroke="#666666" points="406.5,-1079.36 272.5,-1079.36 272.5,-1027.36 406.5,-1027.36 406.5,-1079.36"/>
<text text-anchor="start" x="280.5" y="-1067.36" font-family="Helvetica,sans-Serif" font-size="10.00">std::unordered_map</text>
<text text-anchor="start" x="280.5" y="-1056.36" font-family="Helvetica,sans-Serif" font-size="10.00">&lt; Version, std::tuple</text>
<text text-anchor="start" x="280.5" y="-1045.36" font-family="Helvetica,sans-Serif" font-size="10.00">&lt; std::unique_ptr&lt; kv</text>
<text text-anchor="middle" x="339.5" y="-1034.36" font-family="Helvetica,sans-Serif" font-size="10.00">::PendingTx &gt;, bool &gt; &gt;</text>
</a>
</g>
</g>
<!-- Node10&#45;&gt;Node5 -->
<g id="edge9" class="edge">
<title>Node10&#45;&gt;Node5</title>
<path fill="none" stroke="#9a32cd" stroke-dasharray="5,2" d="M416.56,-1044.72C458.92,-1039.91 510.04,-1034.11 545.18,-1030.11"/>
<polygon fill="#9a32cd" stroke="#9a32cd" points="416.1,-1041.25 406.56,-1045.86 416.89,-1048.21 416.1,-1041.25"/>
<text text-anchor="middle" x="462.5" y="-1045.36" font-family="Helvetica,sans-Serif" font-size="10.00"> pending_txs</text>
</g>
<!-- Node11 -->
<g id="node11" class="node">
<title>Node11</title>
<g id="a_node11"><a xlink:href="classkv_1_1ExecutionWrapperStore.html" target="_top" xlink:title=" ">
<polygon fill="white" stroke="#666666" points="662,-997.86 514,-997.86 514,-978.86 662,-978.86 662,-997.86"/>
<text text-anchor="middle" x="588" y="-985.86" font-family="Helvetica,sans-Serif" font-size="10.00">kv::ExecutionWrapperStore</text>
</a>
</g>
</g>
<!-- Node11&#45;&gt;Node3 -->
<g id="edge10" class="edge">
<title>Node11&#45;&gt;Node3</title>
<path fill="none" stroke="#63b8ff" d="M648.56,-1000.95C653.19,-1002.56 657.72,-1004.36 662,-1006.36 687.82,-1018.47 713.65,-1039.99 727.55,-1052.53"/>
<polygon fill="#63b8ff" stroke="#63b8ff" points="649.58,-997.6 638.99,-997.9 647.46,-1004.27 649.58,-997.6"/>
</g>
<!-- Node12 -->
<g id="node12" class="node">
<title>Node12</title>
<g id="a_node12"><a xlink:href="classkv_1_1ReadOnlyStore.html" target="_top" xlink:title=" ">
<polygon fill="white" stroke="#666666" points="641.5,-1108.86 534.5,-1108.86 534.5,-1089.86 641.5,-1089.86 641.5,-1108.86"/>
<text text-anchor="middle" x="588" y="-1096.86" font-family="Helvetica,sans-Serif" font-size="10.00">kv::ReadOnlyStore</text>
</a>
</g>
</g>
<!-- Node12&#45;&gt;Node3 -->
<g id="edge11" class="edge">
<title>Node12&#45;&gt;Node3</title>
<path fill="none" stroke="#63b8ff" d="M637.48,-1087.43C645.66,-1085.41 654.07,-1083.33 662,-1081.36 677.71,-1077.46 695.23,-1073.08 709.49,-1069.51"/>
<polygon fill="#63b8ff" stroke="#63b8ff" points="636.52,-1084.06 627.65,-1089.86 638.2,-1090.86 636.52,-1084.06"/>
</g>
<!-- Node13 -->
<g id="node13" class="node">
<title>Node13</title>
<g id="a_node13"><a xlink:href="classkv_1_1TypedMap.html" target="_top" xlink:title=" ">
<polygon fill="white" stroke="#666666" points="1004,-1080.36 857,-1080.36 857,-1050.36 1004,-1050.36 1004,-1080.36"/>
<text text-anchor="start" x="865" y="-1068.36" font-family="Helvetica,sans-Serif" font-size="10.00">kv::TypedMap&lt; MemberId,</text>
<text text-anchor="middle" x="930.5" y="-1057.36" font-family="Helvetica,sans-Serif" font-size="10.00"> crypto::Pem &gt;</text>
</a>
</g>
</g>
<!-- Node13&#45;&gt;Node1 -->
<g id="edge12" class="edge">
<title>Node13&#45;&gt;Node1</title>
<path fill="none" stroke="#9a32cd" stroke-dasharray="5,2" d="M1013.98,-1054.32C1085.28,-1044.41 1177.89,-1030.51 1184,-1024.36 1248.72,-959.33 1254.45,-643.11 1254.95,-583.18"/>
<polygon fill="#9a32cd" stroke="#9a32cd" points="1013.49,-1050.86 1004.07,-1055.69 1014.45,-1057.79 1013.49,-1050.86"/>
<text text-anchor="middle" x="1115.5" y="-1073.36" font-family="Helvetica,sans-Serif" font-size="10.00"> member_certs</text>
<text text-anchor="start" x="1066" y="-1062.36" font-family="Helvetica,sans-Serif" font-size="10.00">member_encryption</text>
<text text-anchor="middle" x="1115.5" y="-1051.36" font-family="Helvetica,sans-Serif" font-size="10.00">_public_keys</text>
</g>
<!-- Node14&#45;&gt;Node13 -->
<g id="edge13" class="edge">
<title>Node14&#45;&gt;Node13</title>
<path fill="none" stroke="#63b8ff" d="M741.14,-593.37C744.82,-651.13 758.45,-822.74 797,-959.36 807.76,-997.5 801.8,-1015.7 832,-1041.36 839.17,-1047.46 847.66,-1052.05 856.58,-1055.5"/>
<polygon fill="#63b8ff" stroke="#63b8ff" points="744.62,-592.87 740.52,-583.1 737.63,-593.3 744.62,-592.87"/>
</g>
<!-- Node15 -->
<g id="node15" class="node">
<title>Node15</title>
<g id="a_node15"><a xlink:href="classkv_1_1TypedMap.html" target="_top" xlink:title=" ">
<polygon fill="white" stroke="#666666" points="1004,-1032.36 857,-1032.36 857,-1002.36 1004,-1002.36 1004,-1032.36"/>
<text text-anchor="start" x="865" y="-1020.36" font-family="Helvetica,sans-Serif" font-size="10.00">kv::TypedMap&lt; MemberId,</text>
<text text-anchor="middle" x="930.5" y="-1009.36" font-family="Helvetica,sans-Serif" font-size="10.00"> MemberDetails &gt;</text>
</a>
</g>
</g>
<!-- Node14&#45;&gt;Node15 -->
<g id="edge16" class="edge">
<title>Node14&#45;&gt;Node15</title>
<path fill="none" stroke="#63b8ff" d="M741.41,-592.96C745.61,-646.17 760.17,-797.4 797,-917.36 807.91,-952.91 803.33,-969.68 832,-993.36 839.26,-999.36 847.79,-1003.89 856.74,-1007.31"/>
<polygon fill="#63b8ff" stroke="#63b8ff" points="744.89,-592.59 740.64,-582.88 737.91,-593.12 744.89,-592.59"/>
</g>
<!-- Node16 -->
<g id="node16" class="node">
<title>Node16</title>
<g id="a_node16"><a xlink:href="classkv_1_1TypedMap.html" target="_top" xlink:title=" ">
<polygon fill="white" stroke="#666666" points="988.5,-984.36 872.5,-984.36 872.5,-954.36 988.5,-954.36 988.5,-984.36"/>
<text text-anchor="start" x="880.5" y="-972.36" font-family="Helvetica,sans-Serif" font-size="10.00">kv::TypedMap&lt; std::</text>
<text text-anchor="middle" x="930.5" y="-961.36" font-family="Helvetica,sans-Serif" font-size="10.00">string, Module &gt;</text>
</a>
</g>
</g>
<!-- Node14&#45;&gt;Node16 -->
<g id="edge18" class="edge">
<title>Node14&#45;&gt;Node16</title>
<path fill="none" stroke="#63b8ff" d="M741.92,-592.91C749.18,-662.61 777.36,-897.27 832,-944.36 843.32,-954.12 857.95,-960.15 872.42,-963.85"/>
<polygon fill="#63b8ff" stroke="#63b8ff" points="745.39,-592.46 740.9,-582.87 738.43,-593.17 745.39,-592.46"/>
</g>
<!-- Node17 -->
<g id="node17" class="node">
<title>Node17</title>
<g id="a_node17"><a xlink:href="classkv_1_1TypedMap.html" target="_top" xlink:title=" ">
<polygon fill="white" stroke="#666666" points="988.5,-935.86 872.5,-935.86 872.5,-894.86 988.5,-894.86 988.5,-935.86"/>
<text text-anchor="start" x="880.5" y="-923.86" font-family="Helvetica,sans-Serif" font-size="10.00">kv::TypedMap&lt; std::</text>
<text text-anchor="start" x="880.5" y="-912.86" font-family="Helvetica,sans-Serif" font-size="10.00">string, std::vector</text>
<text text-anchor="middle" x="930.5" y="-901.86" font-family="Helvetica,sans-Serif" font-size="10.00">&lt; uint8_t &gt; &gt;</text>
</a>
</g>
</g>
<!-- Node14&#45;&gt;Node17 -->
<g id="edge20" class="edge">
<title>Node14&#45;&gt;Node17</title>
<path fill="none" stroke="#63b8ff" d="M742.28,-592.89C747.78,-636.2 763.86,-743.02 797,-826.36 808.27,-854.69 808.04,-866.5 832,-885.36 843.69,-894.57 858.2,-900.96 872.43,-905.4"/>
<polygon fill="#63b8ff" stroke="#63b8ff" points="745.74,-592.37 741.05,-582.87 738.79,-593.22 745.74,-592.37"/>
</g>
<!-- Node18 -->
<g id="node18" class="node">
<title>Node18</title>
<g id="a_node18"><a xlink:href="classkv_1_1TypedValue.html" target="_top" xlink:title=" ">
<polygon fill="white" stroke="#666666" points="988.5,-876.36 872.5,-876.36 872.5,-846.36 988.5,-846.36 988.5,-876.36"/>
<text text-anchor="start" x="880.5" y="-864.36" font-family="Helvetica,sans-Serif" font-size="10.00">kv::TypedValue&lt; std</text>
<text text-anchor="middle" x="930.5" y="-853.36" font-family="Helvetica,sans-Serif" font-size="10.00">::string &gt;</text>
</a>
</g>
</g>
<!-- Node14&#45;&gt;Node18 -->
<g id="edge22" class="edge">
<title>Node14&#45;&gt;Node18</title>
<path fill="none" stroke="#63b8ff" d="M740,-593.16C741.2,-643.69 752.12,-777.64 832,-837.36 843.73,-846.13 858.26,-851.73 872.49,-855.29"/>
<polygon fill="#63b8ff" stroke="#63b8ff" points="743.5,-592.9 739.87,-582.95 736.5,-592.99 743.5,-592.9"/>
</g>
<!-- Node19 -->
<g id="node19" class="node">
<title>Node19</title>
<g id="a_node19"><a xlink:href="classkv_1_1TypedMap.html" target="_top" xlink:title=" ">
<polygon fill="white" stroke="#666666" points="1007.5,-828.36 853.5,-828.36 853.5,-798.36 1007.5,-798.36 1007.5,-828.36"/>
<text text-anchor="start" x="861.5" y="-816.36" font-family="Helvetica,sans-Serif" font-size="10.00">kv::TypedMap&lt; CodeDigest,</text>
<text text-anchor="middle" x="930.5" y="-805.36" font-family="Helvetica,sans-Serif" font-size="10.00"> CodeStatus &gt;</text>
</a>
</g>
</g>
<!-- Node14&#45;&gt;Node19 -->
<g id="edge24" class="edge">
<title>Node14&#45;&gt;Node19</title>
<path fill="none" stroke="#63b8ff" d="M741.92,-593.44C747.28,-637.22 766.61,-741.23 832,-789.36 838.46,-794.12 845.74,-797.94 853.35,-801.01"/>
<polygon fill="#63b8ff" stroke="#63b8ff" points="745.37,-592.78 740.8,-583.22 738.41,-593.55 745.37,-592.78"/>
</g>
<!-- Node20 -->
<g id="node20" class="node">
<title>Node20</title>
<g id="a_node20"><a xlink:href="classkv_1_1TypedMap.html" target="_top" xlink:title=" ">
<polygon fill="white" stroke="#666666" points="1004,-780.36 857,-780.36 857,-750.36 1004,-750.36 1004,-780.36"/>
<text text-anchor="start" x="865" y="-768.36" font-family="Helvetica,sans-Serif" font-size="10.00">kv::TypedMap&lt; MemberId,</text>
<text text-anchor="middle" x="930.5" y="-757.36" font-family="Helvetica,sans-Serif" font-size="10.00"> MemberAck &gt;</text>
</a>
</g>
</g>
<!-- Node14&#45;&gt;Node20 -->
<g id="edge26" class="edge">
<title>Node14&#45;&gt;Node20</title>
<path fill="none" stroke="#63b8ff" d="M744.79,-592.98C754.58,-628.69 780.48,-704.05 832,-741.36 839.48,-746.78 848.05,-750.99 856.92,-754.25"/>
<polygon fill="#63b8ff" stroke="#63b8ff" points="748.06,-591.68 742.16,-582.88 741.29,-593.44 748.06,-591.68"/>
</g>
<!-- Node21 -->
<g id="node21" class="node">
<title>Node21</title>
<g id="a_node21"><a xlink:href="classkv_1_1TypedMap.html" target="_top" xlink:title=" ">
<polygon fill="white" stroke="#666666" points="1004,-732.36 857,-732.36 857,-702.36 1004,-702.36 1004,-732.36"/>
<text text-anchor="start" x="865" y="-720.36" font-family="Helvetica,sans-Serif" font-size="10.00">kv::TypedMap&lt; MemberId,</text>
<text text-anchor="middle" x="930.5" y="-709.36" font-family="Helvetica,sans-Serif" font-size="10.00"> SignedReq &gt;</text>
</a>
</g>
</g>
<!-- Node14&#45;&gt;Node21 -->
<g id="edge28" class="edge">
<title>Node14&#45;&gt;Node21</title>
<path fill="none" stroke="#63b8ff" d="M749.05,-591.97C763.03,-618.68 792.45,-667.51 832,-693.36 839.59,-698.32 848.11,-702.26 856.89,-705.38"/>
<polygon fill="#63b8ff" stroke="#63b8ff" points="752.1,-590.25 744.46,-582.91 745.86,-593.42 752.1,-590.25"/>
</g>
<!-- Node22 -->
<g id="node22" class="node">
<title>Node22</title>
<g id="a_node22"><a xlink:href="classkv_1_1TypedValue.html" target="_top" xlink:title=" ">
<polygon fill="white" stroke="#666666" points="1005,-684.36 856,-684.36 856,-654.36 1005,-654.36 1005,-684.36"/>
<text text-anchor="start" x="864" y="-672.36" font-family="Helvetica,sans-Serif" font-size="10.00">kv::TypedValue&lt; Encrypted</text>
<text text-anchor="middle" x="930.5" y="-661.36" font-family="Helvetica,sans-Serif" font-size="10.00">LedgerSecretInfo &gt;</text>
</a>
</g>
</g>
<!-- Node14&#45;&gt;Node22 -->
<g id="edge30" class="edge">
<title>Node14&#45;&gt;Node22</title>
<path fill="none" stroke="#63b8ff" d="M756.85,-590.2C774.23,-606.64 802.85,-631.18 832,-645.36 839.52,-649.02 847.66,-652.15 855.9,-654.83"/>
<polygon fill="#63b8ff" stroke="#63b8ff" points="758.89,-587.31 749.26,-582.87 754.02,-592.34 758.89,-587.31"/>
</g>
<!-- Node23 -->
<g id="node23" class="node">
<title>Node23</title>
<g id="a_node23"><a xlink:href="classkv_1_1TypedMap.html" target="_top" xlink:title=" ">
<polygon fill="white" stroke="#666666" points="1009.5,-636.36 851.5,-636.36 851.5,-606.36 1009.5,-606.36 1009.5,-636.36"/>
<text text-anchor="start" x="859.5" y="-624.36" font-family="Helvetica,sans-Serif" font-size="10.00">kv::TypedMap&lt; MemberId,</text>
<text text-anchor="middle" x="930.5" y="-613.36" font-family="Helvetica,sans-Serif" font-size="10.00"> EncryptedSubmittedShare &gt;</text>
</a>
</g>
</g>
<!-- Node14&#45;&gt;Node23 -->
<g id="edge32" class="edge">
<title>Node14&#45;&gt;Node23</title>
<path fill="none" stroke="#63b8ff" d="M786.09,-585.52C800.76,-589.35 817.05,-593.57 832,-597.36 843.58,-600.3 855.94,-603.38 867.83,-606.32"/>
<polygon fill="#63b8ff" stroke="#63b8ff" points="786.8,-582.09 776.24,-582.94 785.02,-588.86 786.8,-582.09"/>
</g>
<!-- Node24 -->
<g id="node24" class="node">
<title>Node24</title>
<g id="a_node24"><a xlink:href="classkv_1_1TypedMap.html" target="_top" xlink:title=" ">
<polygon fill="white" stroke="#666666" points="988.5,-588.36 872.5,-588.36 872.5,-558.36 988.5,-558.36 988.5,-588.36"/>
<text text-anchor="start" x="880.5" y="-576.36" font-family="Helvetica,sans-Serif" font-size="10.00">kv::TypedMap&lt; std::</text>
<text text-anchor="middle" x="930.5" y="-565.36" font-family="Helvetica,sans-Serif" font-size="10.00">string, std::string &gt;</text>
</a>
</g>
</g>
<!-- Node14&#45;&gt;Node24 -->
<g id="edge34" class="edge">
<title>Node14&#45;&gt;Node24</title>
<path fill="none" stroke="#63b8ff" d="M789.41,-573.36C814.8,-573.36 845.88,-573.36 872.31,-573.36"/>
<polygon fill="#63b8ff" stroke="#63b8ff" points="789.26,-569.86 779.26,-573.36 789.26,-576.86 789.26,-569.86"/>
</g>
<!-- Node25 -->
<g id="node25" class="node">
<title>Node25</title>
<g id="a_node25"><a xlink:href="classkv_1_1TypedMap.html" target="_top" xlink:title=" ">
<polygon fill="white" stroke="#666666" points="1001.5,-540.36 859.5,-540.36 859.5,-510.36 1001.5,-510.36 1001.5,-540.36"/>
<text text-anchor="start" x="867.5" y="-528.36" font-family="Helvetica,sans-Serif" font-size="10.00">kv::TypedMap&lt; JwtIssuer,</text>
<text text-anchor="middle" x="930.5" y="-517.36" font-family="Helvetica,sans-Serif" font-size="10.00"> JwtIssuerMetadata &gt;</text>
</a>
</g>
</g>
<!-- Node14&#45;&gt;Node25 -->
<g id="edge36" class="edge">
<title>Node14&#45;&gt;Node25</title>
<path fill="none" stroke="#63b8ff" d="M786.09,-561.21C800.76,-557.37 817.05,-553.15 832,-549.36 843.58,-546.43 855.94,-543.35 867.83,-540.41"/>
<polygon fill="#63b8ff" stroke="#63b8ff" points="785.02,-557.87 776.24,-563.79 786.8,-564.64 785.02,-557.87"/>
</g>
<!-- Node26 -->
<g id="node26" class="node">
<title>Node26</title>
<g id="a_node26"><a xlink:href="classkv_1_1TypedMap.html" target="_top" xlink:title=" ">
<polygon fill="white" stroke="#666666" points="1000.5,-492.36 860.5,-492.36 860.5,-462.36 1000.5,-462.36 1000.5,-492.36"/>
<text text-anchor="start" x="868.5" y="-480.36" font-family="Helvetica,sans-Serif" font-size="10.00">kv::TypedMap&lt; JwtKeyId,</text>
<text text-anchor="middle" x="930.5" y="-469.36" font-family="Helvetica,sans-Serif" font-size="10.00"> Cert &gt;</text>
</a>
</g>
</g>
<!-- Node14&#45;&gt;Node26 -->
<g id="edge38" class="edge">
<title>Node14&#45;&gt;Node26</title>
<path fill="none" stroke="#63b8ff" d="M756.85,-556.52C774.23,-540.09 802.85,-515.54 832,-501.36 840.86,-497.06 850.55,-493.48 860.29,-490.52"/>
<polygon fill="#63b8ff" stroke="#63b8ff" points="754.02,-554.39 749.26,-563.86 758.89,-559.42 754.02,-554.39"/>
</g>
<!-- Node27 -->
<g id="node27" class="node">
<title>Node27</title>
<g id="a_node27"><a xlink:href="classkv_1_1TypedMap.html" target="_top" xlink:title=" ">
<polygon fill="white" stroke="#666666" points="1000.5,-444.36 860.5,-444.36 860.5,-414.36 1000.5,-414.36 1000.5,-444.36"/>
<text text-anchor="start" x="868.5" y="-432.36" font-family="Helvetica,sans-Serif" font-size="10.00">kv::TypedMap&lt; JwtKeyId,</text>
<text text-anchor="middle" x="930.5" y="-421.36" font-family="Helvetica,sans-Serif" font-size="10.00"> JwtIssuer &gt;</text>
</a>
</g>
</g>
<!-- Node14&#45;&gt;Node27 -->
<g id="edge40" class="edge">
<title>Node14&#45;&gt;Node27</title>
<path fill="none" stroke="#63b8ff" d="M749.05,-554.75C763.03,-528.04 792.45,-479.22 832,-453.36 840.61,-447.74 850.43,-443.43 860.44,-440.13"/>
<polygon fill="#63b8ff" stroke="#63b8ff" points="745.86,-553.31 744.46,-563.81 752.1,-556.47 745.86,-553.31"/>
</g>
<!-- Node28 -->
<g id="node28" class="node">
<title>Node28</title>
<g id="a_node28"><a xlink:href="classkv_1_1TypedMap.html" target="_top" xlink:title=" ">
<polygon fill="white" stroke="#666666" points="995,-396.36 866,-396.36 866,-366.36 995,-366.36 995,-396.36"/>
<text text-anchor="start" x="874" y="-384.36" font-family="Helvetica,sans-Serif" font-size="10.00">kv::TypedMap&lt; UserId,</text>
<text text-anchor="middle" x="930.5" y="-373.36" font-family="Helvetica,sans-Serif" font-size="10.00"> crypto::Pem &gt;</text>
</a>
</g>
</g>
<!-- Node14&#45;&gt;Node28 -->
<g id="edge42" class="edge">
<title>Node14&#45;&gt;Node28</title>
<path fill="none" stroke="#63b8ff" d="M744.91,-553.85C754.9,-518.37 781.07,-443.44 832,-405.36 841.91,-397.95 853.83,-392.81 865.87,-389.24"/>
<polygon fill="#63b8ff" stroke="#63b8ff" points="741.53,-552.95 742.32,-563.51 748.29,-554.76 741.53,-552.95"/>
</g>
<!-- Node29 -->
<g id="node29" class="node">
<title>Node29</title>
<g id="a_node29"><a xlink:href="classkv_1_1TypedMap.html" target="_top" xlink:title=" ">
<polygon fill="white" stroke="#666666" points="995,-348.36 866,-348.36 866,-318.36 995,-318.36 995,-348.36"/>
<text text-anchor="start" x="874" y="-336.36" font-family="Helvetica,sans-Serif" font-size="10.00">kv::TypedMap&lt; UserId,</text>
<text text-anchor="middle" x="930.5" y="-325.36" font-family="Helvetica,sans-Serif" font-size="10.00"> UserDetails &gt;</text>
</a>
</g>
</g>
<!-- Node14&#45;&gt;Node29 -->
<g id="edge44" class="edge">
<title>Node14&#45;&gt;Node29</title>
<path fill="none" stroke="#63b8ff" d="M742.03,-553.43C747.59,-509.93 767.32,-406.44 832,-357.36 841.86,-349.88 853.75,-344.7 865.79,-341.13"/>
<polygon fill="#63b8ff" stroke="#63b8ff" points="738.52,-553.24 740.85,-563.57 745.48,-554.04 738.52,-553.24"/>
</g>
<!-- Node30 -->
<g id="node30" class="node">
<title>Node30</title>
<g id="a_node30"><a xlink:href="classkv_1_1TypedMap.html" target="_top" xlink:title=" ">
<polygon fill="white" stroke="#666666" points="996.5,-300.36 864.5,-300.36 864.5,-270.36 996.5,-270.36 996.5,-300.36"/>
<text text-anchor="start" x="872.5" y="-288.36" font-family="Helvetica,sans-Serif" font-size="10.00">kv::TypedMap&lt; NodeId,</text>
<text text-anchor="middle" x="930.5" y="-277.36" font-family="Helvetica,sans-Serif" font-size="10.00"> NodeInfo &gt;</text>
</a>
</g>
</g>
<!-- Node14&#45;&gt;Node30 -->
<g id="edge46" class="edge">
<title>Node14&#45;&gt;Node30</title>
<path fill="none" stroke="#63b8ff" d="M740.03,-553.6C741.29,-503.15 752.34,-369.38 832,-309.36 841.47,-302.23 852.79,-297.19 864.3,-293.64"/>
<polygon fill="#63b8ff" stroke="#63b8ff" points="736.53,-553.75 739.88,-563.8 743.52,-553.85 736.53,-553.75"/>
</g>
<!-- Node31 -->
<g id="node31" class="node">
<title>Node31</title>
<g id="a_node31"><a xlink:href="classkv_1_1TypedMap.html" target="_top" xlink:title=" ">
<polygon fill="white" stroke="#666666" points="996.5,-252.36 864.5,-252.36 864.5,-222.36 996.5,-222.36 996.5,-252.36"/>
<text text-anchor="start" x="872.5" y="-240.36" font-family="Helvetica,sans-Serif" font-size="10.00">kv::TypedMap&lt; NodeId,</text>
<text text-anchor="middle" x="930.5" y="-229.36" font-family="Helvetica,sans-Serif" font-size="10.00"> crypto::Pem &gt;</text>
</a>
</g>
</g>
<!-- Node14&#45;&gt;Node31 -->
<g id="edge48" class="edge">
<title>Node14&#45;&gt;Node31</title>
<path fill="none" stroke="#63b8ff" d="M742.79,-553.64C752.09,-490.93 784.18,-298.16 832,-261.36 841.46,-254.08 852.84,-248.98 864.44,-245.41"/>
<polygon fill="#63b8ff" stroke="#63b8ff" points="739.29,-553.37 741.32,-563.76 746.22,-554.37 739.29,-553.37"/>
</g>
<!-- Node32 -->
<g id="node32" class="node">
<title>Node32</title>
<g id="a_node32"><a xlink:href="classkv_1_1TypedValue.html" target="_top" xlink:title=" ">
<polygon fill="white" stroke="#666666" points="1014,-203.86 847,-203.86 847,-184.86 1014,-184.86 1014,-203.86"/>
<text text-anchor="middle" x="930.5" y="-191.86" font-family="Helvetica,sans-Serif" font-size="10.00">kv::TypedValue&lt; ServiceInfo &gt;</text>
</a>
</g>
</g>
<!-- Node14&#45;&gt;Node32 -->
<g id="edge50" class="edge">
<title>Node14&#45;&gt;Node32</title>
<path fill="none" stroke="#63b8ff" d="M741.87,-553.71C748.9,-484.72 776.17,-255.53 832,-213.36 836.95,-209.62 842.44,-206.56 848.22,-204.05"/>
<polygon fill="#63b8ff" stroke="#63b8ff" points="738.39,-553.38 740.89,-563.68 745.35,-554.07 738.39,-553.38"/>
</g>
<!-- Node33 -->
<g id="node33" class="node">
<title>Node33</title>
<g id="a_node33"><a xlink:href="classkv_1_1TypedValue.html" target="_top" xlink:title=" ">
<polygon fill="white" stroke="#666666" points="1015.5,-166.36 845.5,-166.36 845.5,-136.36 1015.5,-136.36 1015.5,-166.36"/>
<text text-anchor="start" x="853.5" y="-154.36" font-family="Helvetica,sans-Serif" font-size="10.00">kv::TypedValue&lt; LedgerSecrets</text>
<text text-anchor="middle" x="930.5" y="-143.36" font-family="Helvetica,sans-Serif" font-size="10.00">ForNodes &gt;</text>
</a>
</g>
</g>
<!-- Node14&#45;&gt;Node33 -->
<g id="edge52" class="edge">
<title>Node14&#45;&gt;Node33</title>
<path fill="none" stroke="#63b8ff" d="M740.67,-553.68C743.03,-500.29 753.39,-348.89 797,-232.36 807.42,-204.52 807.99,-192.9 832,-175.36 836.65,-171.97 841.71,-169.05 847.02,-166.55"/>
<polygon fill="#63b8ff" stroke="#63b8ff" points="737.17,-553.67 740.27,-563.8 744.16,-553.95 737.17,-553.67"/>
</g>
<!-- Node34 -->
<g id="node34" class="node">
<title>Node34</title>
<g id="a_node34"><a xlink:href="classkv_1_1TypedValue.html" target="_top" xlink:title=" ">
<polygon fill="white" stroke="#666666" points="1003.5,-118.36 857.5,-118.36 857.5,-88.36 1003.5,-88.36 1003.5,-118.36"/>
<text text-anchor="start" x="865.5" y="-106.36" font-family="Helvetica,sans-Serif" font-size="10.00">kv::TypedValue&lt; Snapshot</text>
<text text-anchor="middle" x="930.5" y="-95.36" font-family="Helvetica,sans-Serif" font-size="10.00">Hash &gt;</text>
</a>
</g>
</g>
<!-- Node14&#45;&gt;Node34 -->
<g id="edge54" class="edge">
<title>Node14&#45;&gt;Node34</title>
<path fill="none" stroke="#63b8ff" d="M740.41,-553.62C742.13,-495.92 751.04,-323.25 797,-189.36 807.27,-159.43 806.79,-146.49 832,-127.36 839.57,-121.62 848.33,-117.24 857.44,-113.89"/>
<polygon fill="#63b8ff" stroke="#63b8ff" points="736.9,-553.77 740.15,-563.85 743.9,-553.95 736.9,-553.77"/>
</g>
<!-- Node35 -->
<g id="node35" class="node">
<title>Node35</title>
<g id="a_node35"><a xlink:href="classkv_1_1TypedValue.html" target="_top" xlink:title=" ">
<polygon fill="white" stroke="#666666" points="1029,-69.86 832,-69.86 832,-50.86 1029,-50.86 1029,-69.86"/>
<text text-anchor="middle" x="930.5" y="-57.86" font-family="Helvetica,sans-Serif" font-size="10.00">kv::TypedValue&lt; PrimarySignature &gt;</text>
</a>
</g>
</g>
<!-- Node14&#45;&gt;Node35 -->
<g id="edge56" class="edge">
<title>Node14&#45;&gt;Node35</title>
<path fill="none" stroke="#63b8ff" d="M740.02,-553.29C740.63,-490.75 746.7,-294.52 797,-142.36 807.05,-111.95 806.08,-98.18 832,-79.36 837.16,-75.61 842.87,-72.55 848.86,-70.06"/>
<polygon fill="#63b8ff" stroke="#63b8ff" points="736.52,-553.65 739.96,-563.67 743.52,-553.69 736.52,-553.65"/>
</g>
<!-- Node36 -->
<g id="node36" class="node">
<title>Node36</title>
<g id="a_node36"><a xlink:href="classkv_1_1TypedValue.html" target="_top" xlink:title=" ">
<polygon fill="white" stroke="#666666" points="991,-32.36 870,-32.36 870,-2.36 991,-2.36 991,-32.36"/>
<text text-anchor="start" x="878" y="-20.36" font-family="Helvetica,sans-Serif" font-size="10.00">kv::TypedValue&lt; std</text>
<text text-anchor="middle" x="930.5" y="-9.36" font-family="Helvetica,sans-Serif" font-size="10.00">::vector&lt; uint8_t &gt; &gt;</text>
</a>
</g>
</g>
<!-- Node14&#45;&gt;Node36 -->
<g id="edge58" class="edge">
<title>Node14&#45;&gt;Node36</title>
<path fill="none" stroke="#63b8ff" d="M741.14,-553.45C745.88,-474.17 765.23,-181.12 797,-94.36 806.71,-67.86 808.93,-57.63 832,-41.36 843.11,-33.53 856.5,-28.24 869.75,-24.67"/>
<polygon fill="#63b8ff" stroke="#63b8ff" points="737.64,-553.35 740.55,-563.54 744.63,-553.77 737.64,-553.35"/>
</g>
<!-- Node37 -->
<g id="node37" class="node">
<title>Node37</title>
<g id="a_node37"><a xlink:href="classkv_1_1TypedMap.html" target="_top" xlink:title=" ">
<polygon fill="white" stroke="#666666" points="1024.5,-1128.36 836.5,-1128.36 836.5,-1098.36 1024.5,-1098.36 1024.5,-1128.36"/>
<text text-anchor="start" x="844.5" y="-1116.36" font-family="Helvetica,sans-Serif" font-size="10.00">kv::TypedMap&lt; kv::Reconfiguration</text>
<text text-anchor="middle" x="930.5" y="-1105.36" font-family="Helvetica,sans-Serif" font-size="10.00">Id, ResharingResult &gt;</text>
</a>
</g>
</g>
<!-- Node14&#45;&gt;Node37 -->
<g id="edge60" class="edge">
<title>Node14&#45;&gt;Node37</title>
<path fill="none" stroke="#63b8ff" d="M740.8,-593.21C743.68,-655.07 755.64,-849.54 797,-1004.36 807.54,-1043.83 801.04,-1062.71 832,-1089.36 835.96,-1092.78 840.34,-1095.72 844.97,-1098.25"/>
<polygon fill="#63b8ff" stroke="#63b8ff" points="744.28,-592.78 740.35,-582.94 737.29,-593.09 744.28,-592.78"/>
</g>
<!-- Node15&#45;&gt;Node1 -->
<g id="edge15" class="edge">
<title>Node15&#45;&gt;Node1</title>
<path fill="none" stroke="#9a32cd" stroke-dasharray="5,2" d="M1014.25,-1014.76C1078.44,-1010.94 1160.36,-1001.53 1184,-978.36 1242.76,-920.78 1253.27,-638.56 1254.78,-582.9"/>
<polygon fill="#9a32cd" stroke="#9a32cd" points="1013.9,-1011.28 1004.11,-1015.33 1014.29,-1018.26 1013.9,-1011.28"/>
<text text-anchor="middle" x="1115.5" y="-1015.36" font-family="Helvetica,sans-Serif" font-size="10.00"> member_info</text>
</g>
<!-- Node16&#45;&gt;Node1 -->
<g id="edge17" class="edge">
<title>Node16&#45;&gt;Node1</title>
<path fill="none" stroke="#9a32cd" stroke-dasharray="5,2" d="M998.94,-966.61C1064.62,-962.48 1158.23,-952.29 1184,-927.36 1235.47,-877.57 1251.62,-634.64 1254.5,-583.02"/>
<polygon fill="#9a32cd" stroke="#9a32cd" points="998.42,-963.13 988.65,-967.22 998.84,-970.12 998.42,-963.13"/>
<text text-anchor="middle" x="1115.5" y="-966.36" font-family="Helvetica,sans-Serif" font-size="10.00"> modules</text>
</g>
<!-- Node17&#45;&gt;Node1 -->
<g id="edge19" class="edge">
<title>Node17&#45;&gt;Node1</title>
<path fill="none" stroke="#9a32cd" stroke-dasharray="5,2" d="M998.98,-914.71C1064.45,-912.62 1157.66,-905.37 1184,-881.36 1229.93,-839.5 1250.17,-630.61 1254.22,-583.02"/>
<polygon fill="#9a32cd" stroke="#9a32cd" points="998.62,-911.21 988.72,-915 998.82,-918.21 998.62,-911.21"/>
<text text-anchor="middle" x="1115.5" y="-915.36" font-family="Helvetica,sans-Serif" font-size="10.00"> modules_quickjs_bytecode</text>
</g>
<!-- Node18&#45;&gt;Node1 -->
<g id="edge21" class="edge">
<title>Node18&#45;&gt;Node1</title>
<path fill="none" stroke="#9a32cd" stroke-dasharray="5,2" d="M998.8,-858.72C1064.12,-854.78 1157.22,-845.06 1184,-821.36 1257.61,-756.21 1257.19,-620.46 1255.57,-583.08"/>
<polygon fill="#9a32cd" stroke="#9a32cd" points="998.35,-855.24 988.57,-859.3 998.75,-862.23 998.35,-855.24"/>
<text text-anchor="middle" x="1115.5" y="-869.36" font-family="Helvetica,sans-Serif" font-size="10.00"> constitution</text>
<text text-anchor="middle" x="1115.5" y="-858.36" font-family="Helvetica,sans-Serif" font-size="10.00">modules_quickjs_version</text>
</g>
<!-- Node19&#45;&gt;Node1 -->
<g id="edge23" class="edge">
<title>Node19&#45;&gt;Node1</title>
<path fill="none" stroke="#9a32cd" stroke-dasharray="5,2" d="M1017.96,-808.99C1080.84,-804.12 1159.14,-794.02 1184,-773.36 1244.92,-722.73 1253.59,-616.08 1254.81,-583.21"/>
<polygon fill="#9a32cd" stroke="#9a32cd" points="1017.32,-805.53 1007.61,-809.75 1017.84,-812.51 1017.32,-805.53"/>
<text text-anchor="middle" x="1115.5" y="-809.36" font-family="Helvetica,sans-Serif" font-size="10.00"> node_code_ids</text>
</g>
<!-- Node20&#45;&gt;Node1 -->
<g id="edge25" class="edge">
<title>Node20&#45;&gt;Node1</title>
<path fill="none" stroke="#9a32cd" stroke-dasharray="5,2" d="M1013.99,-760.6C1077.13,-755.45 1157.71,-745.16 1184,-725.36 1232.63,-688.74 1249.18,-610.61 1253.62,-583.15"/>
<polygon fill="#9a32cd" stroke="#9a32cd" points="1013.71,-757.11 1004.02,-761.38 1014.26,-764.08 1013.71,-757.11"/>
<text text-anchor="middle" x="1115.5" y="-761.36" font-family="Helvetica,sans-Serif" font-size="10.00"> member_acks</text>
</g>
<!-- Node21&#45;&gt;Node1 -->
<g id="edge27" class="edge">
<title>Node21&#45;&gt;Node1</title>
<path fill="none" stroke="#9a32cd" stroke-dasharray="5,2" d="M1014.53,-713.24C1077.03,-708.79 1156.48,-699.83 1184,-682.36 1222.32,-658.04 1244.24,-604.72 1251.88,-582.93"/>
<polygon fill="#9a32cd" stroke="#9a32cd" points="1014,-709.77 1004.26,-713.94 1014.47,-716.75 1014,-709.77"/>
<text text-anchor="middle" x="1115.5" y="-713.36" font-family="Helvetica,sans-Serif" font-size="10.00"> governance_history</text>
</g>
<!-- Node22&#45;&gt;Node1 -->
<g id="edge29" class="edge">
<title>Node22&#45;&gt;Node1</title>
<path fill="none" stroke="#9a32cd" stroke-dasharray="5,2" d="M1015.54,-669.53C1066.3,-666.81 1131.16,-658.2 1184,-634.36 1210.66,-622.34 1234.93,-597.06 1246.99,-583.12"/>
<polygon fill="#9a32cd" stroke="#9a32cd" points="1015.08,-666.05 1005.26,-670.01 1015.41,-673.04 1015.08,-666.05"/>
<text text-anchor="middle" x="1115.5" y="-670.36" font-family="Helvetica,sans-Serif" font-size="10.00"> encrypted_ledger_secrets</text>
</g>
<!-- Node23&#45;&gt;Node1 -->
<g id="edge31" class="edge">
<title>Node23&#45;&gt;Node1</title>
<path fill="none" stroke="#9a32cd" stroke-dasharray="5,2" d="M1019.82,-611.54C1068.41,-605.7 1129.69,-597.64 1184,-588.36 1193.31,-586.77 1203.26,-584.83 1212.68,-582.87"/>
<polygon fill="#9a32cd" stroke="#9a32cd" points="1019.17,-608.09 1009.65,-612.75 1020,-615.04 1019.17,-608.09"/>
<text text-anchor="start" x="1062" y="-622.36" font-family="Helvetica,sans-Serif" font-size="10.00"> encrypted_submitted</text>
<text text-anchor="middle" x="1115.5" y="-611.36" font-family="Helvetica,sans-Serif" font-size="10.00">_shares</text>
</g>
<!-- Node24&#45;&gt;Node1 -->
<g id="edge33" class="edge">
<title>Node24&#45;&gt;Node1</title>
<path fill="none" stroke="#9a32cd" stroke-dasharray="5,2" d="M998.78,-573.36C1059.11,-573.36 1146.45,-573.36 1201.96,-573.36"/>
<polygon fill="#9a32cd" stroke="#9a32cd" points="998.59,-569.86 988.59,-573.36 998.59,-576.86 998.59,-569.86"/>
<text text-anchor="middle" x="1115.5" y="-576.36" font-family="Helvetica,sans-Serif" font-size="10.00"> ca_cert_bundles</text>
</g>
<!-- Node25&#45;&gt;Node1 -->
<g id="edge35" class="edge">
<title>Node25&#45;&gt;Node1</title>
<path fill="none" stroke="#9a32cd" stroke-dasharray="5,2" d="M1011.71,-534.22C1061.46,-540.12 1126.62,-548.57 1184,-558.36 1193.31,-559.95 1203.26,-561.9 1212.68,-563.86"/>
<polygon fill="#9a32cd" stroke="#9a32cd" points="1011.99,-530.73 1001.65,-533.04 1011.18,-537.68 1011.99,-530.73"/>
<text text-anchor="middle" x="1115.5" y="-561.36" font-family="Helvetica,sans-Serif" font-size="10.00"> jwt_issuers</text>
</g>
<!-- Node26&#45;&gt;Node1 -->
<g id="edge37" class="edge">
<title>Node26&#45;&gt;Node1</title>
<path fill="none" stroke="#9a32cd" stroke-dasharray="5,2" d="M1010.68,-483.51C1061.71,-489.53 1128.61,-501.33 1184,-524.36 1207.51,-534.14 1231.1,-552.54 1244.3,-563.8"/>
<polygon fill="#9a32cd" stroke="#9a32cd" points="1011.03,-480.03 1000.7,-482.38 1010.24,-486.98 1011.03,-480.03"/>
<text text-anchor="middle" x="1115.5" y="-527.36" font-family="Helvetica,sans-Serif" font-size="10.00"> jwt_public_signing_keys</text>
</g>
<!-- Node27&#45;&gt;Node1 -->
<g id="edge39" class="edge">
<title>Node27&#45;&gt;Node1</title>
<path fill="none" stroke="#9a32cd" stroke-dasharray="5,2" d="M1010.57,-423.52C1063.49,-423.36 1132.61,-430.73 1184,-463.36 1222.57,-487.85 1244.34,-541.7 1251.92,-563.7"/>
<polygon fill="#9a32cd" stroke="#9a32cd" points="1010.5,-420.02 1000.54,-423.64 1010.59,-427.02 1010.5,-420.02"/>
<text text-anchor="start" x="1068.5" y="-477.36" font-family="Helvetica,sans-Serif" font-size="10.00"> jwt_public_signing</text>
<text text-anchor="middle" x="1115.5" y="-466.36" font-family="Helvetica,sans-Serif" font-size="10.00">_key_issuer</text>
</g>
<!-- Node28&#45;&gt;Node1 -->
<g id="edge41" class="edge">
<title>Node28&#45;&gt;Node1</title>
<path fill="none" stroke="#9a32cd" stroke-dasharray="5,2" d="M1005.44,-371.42C1059.93,-368.14 1133.1,-372.69 1184,-410.36 1236.35,-449.11 1250.64,-534.72 1254.04,-563.62"/>
<polygon fill="#9a32cd" stroke="#9a32cd" points="1004.88,-367.95 995.15,-372.14 1005.37,-374.93 1004.88,-367.95"/>
<text text-anchor="middle" x="1115.5" y="-413.36" font-family="Helvetica,sans-Serif" font-size="10.00"> user_certs</text>
</g>
<!-- Node29&#45;&gt;Node1 -->
<g id="edge43" class="edge">
<title>Node29&#45;&gt;Node1</title>
<path fill="none" stroke="#9a32cd" stroke-dasharray="5,2" d="M1005.15,-320.1C1060.21,-314.51 1134.25,-316.73 1184,-356.36 1251.28,-409.96 1255.51,-528.61 1255.24,-563.52"/>
<polygon fill="#9a32cd" stroke="#9a32cd" points="1004.65,-316.63 995.11,-321.22 1005.43,-323.59 1004.65,-316.63"/>
<text text-anchor="middle" x="1115.5" y="-359.36" font-family="Helvetica,sans-Serif" font-size="10.00"> user_info</text>
</g>
<!-- Node30&#45;&gt;Node1 -->
<g id="edge45" class="edge">
<title>Node30&#45;&gt;Node1</title>
<path fill="none" stroke="#9a32cd" stroke-dasharray="5,2" d="M1006.73,-269.42C1061.93,-262.32 1135.44,-263.08 1184,-303.36 1225.88,-338.1 1248.91,-519.55 1253.94,-563.68"/>
<polygon fill="#9a32cd" stroke="#9a32cd" points="1006.07,-265.98 996.65,-270.83 1007.04,-272.91 1006.07,-265.98"/>
<text text-anchor="middle" x="1115.5" y="-306.36" font-family="Helvetica,sans-Serif" font-size="10.00"> nodes</text>
</g>
<!-- Node31&#45;&gt;Node1 -->
<g id="edge47" class="edge">
<title>Node31&#45;&gt;Node1</title>
<path fill="none" stroke="#9a32cd" stroke-dasharray="5,2" d="M1006.94,-231.86C1071.56,-228.84 1158.16,-229.4 1184,-251.36 1233.61,-293.54 1251.12,-515.05 1254.4,-563.85"/>
<polygon fill="#9a32cd" stroke="#9a32cd" points="1006.58,-228.37 996.77,-232.37 1006.93,-235.36 1006.58,-228.37"/>
<text text-anchor="middle" x="1115.5" y="-254.36" font-family="Helvetica,sans-Serif" font-size="10.00"> node_endorsed_certificates</text>
</g>
<!-- Node32&#45;&gt;Node1 -->
<g id="edge49" class="edge">
<title>Node32&#45;&gt;Node1</title>
<path fill="none" stroke="#9a32cd" stroke-dasharray="5,2" d="M1024.41,-191.16C1086.5,-191.08 1160.87,-195.64 1184,-216.36 1237.77,-264.55 1252.12,-511.14 1254.58,-563.56"/>
<polygon fill="#9a32cd" stroke="#9a32cd" points="1024.15,-187.66 1014.16,-191.21 1024.18,-194.66 1024.15,-187.66"/>
<text text-anchor="middle" x="1115.5" y="-219.36" font-family="Helvetica,sans-Serif" font-size="10.00"> service</text>
</g>
<!-- Node33&#45;&gt;Node1 -->
<g id="edge51" class="edge">
<title>Node33&#45;&gt;Node1</title>
<path fill="none" stroke="#9a32cd" stroke-dasharray="5,2" d="M1025.87,-135.64C1078.83,-132.43 1142.42,-138.79 1184,-177.36 1242.88,-232 1253.27,-508.11 1254.77,-563.63"/>
<polygon fill="#9a32cd" stroke="#9a32cd" points="1025.49,-132.16 1015.77,-136.37 1025.99,-139.14 1025.49,-132.16"/>
<text text-anchor="middle" x="1115.5" y="-180.36" font-family="Helvetica,sans-Serif" font-size="10.00"> secrets</text>
</g>
<!-- Node34&#45;&gt;Node1 -->
<g id="edge53" class="edge">
<title>Node34&#45;&gt;Node1</title>
<path fill="none" stroke="#9a32cd" stroke-dasharray="5,2" d="M1013.66,-98.23C1077.73,-96.11 1159.78,-98.19 1184,-120.36 1252.11,-182.72 1255.08,-504.1 1255.04,-563.81"/>
<polygon fill="#9a32cd" stroke="#9a32cd" points="1013.41,-94.74 1003.54,-98.6 1013.67,-101.73 1013.41,-94.74"/>
<text text-anchor="middle" x="1115.5" y="-123.36" font-family="Helvetica,sans-Serif" font-size="10.00"> snapshot_evidence</text>
</g>
<!-- Node35&#45;&gt;Node1 -->
<g id="edge55" class="edge">
<title>Node35&#45;&gt;Node1</title>
<path fill="none" stroke="#9a32cd" stroke-dasharray="5,2" d="M1039.41,-57.28C1098.23,-58.03 1163.2,-63.64 1184,-83.36 1256.51,-152.12 1255.88,-500.16 1255.15,-563.47"/>
<polygon fill="#9a32cd" stroke="#9a32cd" points="1039.3,-53.78 1029.27,-57.2 1039.24,-60.78 1039.3,-53.78"/>
<text text-anchor="middle" x="1115.5" y="-86.36" font-family="Helvetica,sans-Serif" font-size="10.00"> signatures</text>
</g>
<!-- Node36&#45;&gt;Node1 -->
<g id="edge57" class="edge">
<title>Node36&#45;&gt;Node1</title>
<path fill="none" stroke="#9a32cd" stroke-dasharray="5,2" d="M1001.12,-3.37C1058.02,3.67 1136.55,2.66 1184,-43.36 1261.8,-118.82 1256.74,-497.56 1255.25,-563.55"/>
<polygon fill="#9a32cd" stroke="#9a32cd" points="1000.56,0.08 991.12,-4.72 1001.5,-6.85 1000.56,0.08"/>
<text text-anchor="middle" x="1115.5" y="-46.36" font-family="Helvetica,sans-Serif" font-size="10.00"> serialise_tree</text>
</g>
<!-- Node37&#45;&gt;Node1 -->
<g id="edge59" class="edge">
<title>Node37&#45;&gt;Node1</title>
<path fill="none" stroke="#9a32cd" stroke-dasharray="5,2" d="M1035.09,-1114.37C1095.11,-1112.63 1162.9,-1105.9 1184,-1085.36 1258.93,-1012.46 1256.28,-648.13 1255.2,-583.25"/>
<polygon fill="#9a32cd" stroke="#9a32cd" points="1034.67,-1110.88 1024.76,-1114.62 1034.84,-1117.88 1034.67,-1110.88"/>
<text text-anchor="middle" x="1115.5" y="-1116.36" font-family="Helvetica,sans-Serif" font-size="10.00"> resharings</text>
</g>
</g>
</svg>
