<?xml version="1.0" encoding="UTF-8" standalone="no"?>
<!DOCTYPE svg PUBLIC "-//W3C//DTD SVG 1.1//EN"
 "http://www.w3.org/Graphics/SVG/1.1/DTD/svg11.dtd">
<!-- Generated by graphviz version 2.43.0 (0)
 -->
<!-- Title: nobuiltins::TransactionIDResponse Pages: 1 -->
<svg width="192pt" height="160pt"
 viewBox="0.00 0.00 192.00 160.00" xmlns="http://www.w3.org/2000/svg" xmlns:xlink="http://www.w3.org/1999/xlink">
<g id="graph0" class="graph" transform="scale(1 1) rotate(0) translate(4 156)">
<title>nobuiltins::TransactionIDResponse</title>
<!-- Node1 -->
<g id="node1" class="node">
<title>Node1</title>
<g id="a_node1"><a xlink:title=" ">
<polygon fill="#999999" stroke="#666666" points="184,-19 0,-19 0,0 184,0 184,-19"/>
<text text-anchor="middle" x="92" y="-7" font-family="Helvetica,sans-Serif" font-size="10.00">nobuiltins::TransactionIDResponse</text>
</a>
</g>
</g>
<!-- Node2 -->
<g id="node2" class="node">
<title>Node2</title>
<g id="a_node2"><a xlink:title=" ">
<polygon fill="white" stroke="#666666" points="124.5,-85 59.5,-85 59.5,-66 124.5,-66 124.5,-85"/>
<text text-anchor="middle" x="92" y="-73" font-family="Helvetica,sans-Serif" font-size="10.00">std::string</text>
</a>
</g>
</g>
<!-- Node2&#45;&gt;Node1 -->
<g id="edge1" class="edge">
<title>Node2&#45;&gt;Node1</title>
<path fill="none" stroke="#9a32cd" stroke-dasharray="5,2" d="M92,-55.58C92,-43.63 92,-28.72 92,-19.41"/>
<polygon fill="#9a32cd" stroke="#9a32cd" points="88.5,-55.87 92,-65.87 95.5,-55.87 88.5,-55.87"/>
<text text-anchor="middle" x="128.5" y="-40" font-family="Helvetica,sans-Serif" font-size="10.00"> transaction_id</text>
</g>
<!-- Node3 -->
<g id="node3" class="node">
<title>Node3</title>
<g id="a_node3"><a xlink:title=" ">
<polygon fill="white" stroke="#666666" points="144,-152 40,-152 40,-122 144,-122 144,-152"/>
<text text-anchor="start" x="48" y="-140" font-family="Helvetica,sans-Serif" font-size="10.00">std::basic_string&lt;</text>
<text text-anchor="middle" x="92" y="-129" font-family="Helvetica,sans-Serif" font-size="10.00"> Char &gt;</text>
</a>
</g>
</g>
<!-- Node3&#45;&gt;Node2 -->
<g id="edge2" class="edge">
<title>Node3&#45;&gt;Node2</title>
<path fill="none" stroke="#63b8ff" d="M92,-111.79C92,-102.36 92,-92.15 92,-85.16"/>
<polygon fill="#63b8ff" stroke="#63b8ff" points="88.5,-111.9 92,-121.9 95.5,-111.9 88.5,-111.9"/>
</g>
</g>
</svg>
