<?xml version="1.0" encoding="UTF-8" standalone="no"?>
<!DOCTYPE svg PUBLIC "-//W3C//DTD SVG 1.1//EN"
 "http://www.w3.org/Graphics/SVG/1.1/DTD/svg11.dtd">
<!-- Generated by graphviz version 2.43.0 (0)
 -->
<!-- Title: ccf::NodeMetrics Pages: 1 -->
<svg width="240pt" height="335pt"
 viewBox="0.00 0.00 240.00 335.00" xmlns="http://www.w3.org/2000/svg" xmlns:xlink="http://www.w3.org/1999/xlink">
<g id="graph0" class="graph" transform="scale(1 1) rotate(0) translate(4 331)">
<title>ccf::NodeMetrics</title>
<!-- Node1 -->
<g id="node1" class="node">
<title>Node1</title>
<g id="a_node1"><a xlink:title=" ">
<polygon fill="#999999" stroke="#666666" points="158,-19 60,-19 60,0 158,0 158,-19"/>
<text text-anchor="middle" x="109" y="-7" font-family="Helvetica,sans-Serif" font-size="10.00">ccf::NodeMetrics</text>
</a>
</g>
</g>
<!-- Node2 -->
<g id="node2" class="node">
<title>Node2</title>
<g id="a_node2"><a xlink:href="structccf_1_1SessionMetrics.html" target="_top" xlink:title=" ">
<polygon fill="white" stroke="#666666" points="164,-85 54,-85 54,-66 164,-66 164,-85"/>
<text text-anchor="middle" x="109" y="-73" font-family="Helvetica,sans-Serif" font-size="10.00">ccf::SessionMetrics</text>
</a>
</g>
</g>
<!-- Node2&#45;&gt;Node1 -->
<g id="edge1" class="edge">
<title>Node2&#45;&gt;Node1</title>
<path fill="none" stroke="#9a32cd" stroke-dasharray="5,2" d="M109,-55.58C109,-43.63 109,-28.72 109,-19.41"/>
<polygon fill="#9a32cd" stroke="#9a32cd" points="105.5,-55.87 109,-65.87 112.5,-55.87 105.5,-55.87"/>
<text text-anchor="middle" x="132" y="-40" font-family="Helvetica,sans-Serif" font-size="10.00"> sessions</text>
</g>
<!-- Node3 -->
<g id="node3" class="node">
<title>Node3</title>
<g id="a_node3"><a xlink:title=" ">
<polygon fill="white" stroke="#666666" points="170,-173 48,-173 48,-132 170,-132 170,-173"/>
<text text-anchor="start" x="56" y="-161" font-family="Helvetica,sans-Serif" font-size="10.00">std::map&lt; std::string,</text>
<text text-anchor="start" x="56" y="-150" font-family="Helvetica,sans-Serif" font-size="10.00"> ccf::SessionMetrics</text>
<text text-anchor="middle" x="109" y="-139" font-family="Helvetica,sans-Serif" font-size="10.00">::PerInterface &gt;</text>
</a>
</g>
</g>
<!-- Node3&#45;&gt;Node2 -->
<g id="edge2" class="edge">
<title>Node3&#45;&gt;Node2</title>
<path fill="none" stroke="#9a32cd" stroke-dasharray="5,2" d="M109,-121.7C109,-108.59 109,-94.18 109,-85.24"/>
<polygon fill="#9a32cd" stroke="#9a32cd" points="105.5,-121.79 109,-131.79 112.5,-121.79 105.5,-121.79"/>
<text text-anchor="middle" x="135" y="-106" font-family="Helvetica,sans-Serif" font-size="10.00"> interfaces</text>
</g>
<!-- Node4 -->
<g id="node4" class="node">
<title>Node4</title>
<g id="a_node4"><a xlink:title=" ">
<polygon fill="white" stroke="#666666" points="89.5,-244.5 24.5,-244.5 24.5,-225.5 89.5,-225.5 89.5,-244.5"/>
<text text-anchor="middle" x="57" y="-232.5" font-family="Helvetica,sans-Serif" font-size="10.00">std::string</text>
</a>
</g>
</g>
<!-- Node4&#45;&gt;Node3 -->
<g id="edge3" class="edge">
<title>Node4&#45;&gt;Node3</title>
<path fill="none" stroke="#9a32cd" stroke-dasharray="5,2" d="M68.22,-216.63C76.51,-203.8 87.79,-186.33 96.39,-173.02"/>
<polygon fill="#9a32cd" stroke="#9a32cd" points="65.05,-215.09 62.56,-225.39 70.93,-218.88 65.05,-215.09"/>
<text text-anchor="middle" x="98" y="-194" font-family="Helvetica,sans-Serif" font-size="10.00"> keys</text>
</g>
<!-- Node5 -->
<g id="node5" class="node">
<title>Node5</title>
<g id="a_node5"><a xlink:title=" ">
<polygon fill="white" stroke="#666666" points="104,-327 0,-327 0,-297 104,-297 104,-327"/>
<text text-anchor="start" x="8" y="-315" font-family="Helvetica,sans-Serif" font-size="10.00">std::basic_string&lt;</text>
<text text-anchor="middle" x="52" y="-304" font-family="Helvetica,sans-Serif" font-size="10.00"> Char &gt;</text>
</a>
</g>
</g>
<!-- Node5&#45;&gt;Node4 -->
<g id="edge4" class="edge">
<title>Node5&#45;&gt;Node4</title>
<path fill="none" stroke="#63b8ff" d="M53.62,-286.68C54.58,-272.36 55.73,-255.11 56.41,-244.87"/>
<polygon fill="#63b8ff" stroke="#63b8ff" points="50.11,-286.68 52.94,-296.89 57.1,-287.15 50.11,-286.68"/>
</g>
<!-- Node6 -->
<g id="node6" class="node">
<title>Node6</title>
<g id="a_node6"><a xlink:href="structccf_1_1SessionMetrics_1_1PerInterface.html" target="_top" xlink:title=" ">
<polygon fill="white" stroke="#666666" points="227,-250 117,-250 117,-220 227,-220 227,-250"/>
<text text-anchor="start" x="125" y="-238" font-family="Helvetica,sans-Serif" font-size="10.00">ccf::SessionMetrics</text>
<text text-anchor="middle" x="172" y="-227" font-family="Helvetica,sans-Serif" font-size="10.00">::PerInterface</text>
</a>
</g>
</g>
<!-- Node6&#45;&gt;Node3 -->
<g id="edge5" class="edge">
<title>Node6&#45;&gt;Node3</title>
<path fill="none" stroke="#9a32cd" stroke-dasharray="5,2" d="M154.84,-212.08C145.31,-199.9 133.55,-184.87 124.33,-173.09"/>
<polygon fill="#9a32cd" stroke="#9a32cd" points="152.11,-214.26 161.03,-219.98 157.62,-209.95 152.11,-214.26"/>
<text text-anchor="middle" x="171.5" y="-194" font-family="Helvetica,sans-Serif" font-size="10.00"> elements</text>
</g>
<!-- Node7 -->
<g id="node7" class="node">
<title>Node7</title>
<g id="a_node7"><a xlink:href="structccf_1_1SessionMetrics_1_1Errors.html" target="_top" xlink:title=" ">
<polygon fill="white" stroke="#666666" points="232,-327 122,-327 122,-297 232,-297 232,-327"/>
<text text-anchor="start" x="130" y="-315" font-family="Helvetica,sans-Serif" font-size="10.00">ccf::SessionMetrics</text>
<text text-anchor="middle" x="177" y="-304" font-family="Helvetica,sans-Serif" font-size="10.00">::Errors</text>
</a>
</g>
</g>
<!-- Node7&#45;&gt;Node6 -->
<g id="edge6" class="edge">
<title>Node7&#45;&gt;Node6</title>
<path fill="none" stroke="#9a32cd" stroke-dasharray="5,2" d="M175.39,-286.91C174.58,-274.74 173.63,-260.4 172.94,-250.04"/>
<polygon fill="#9a32cd" stroke="#9a32cd" points="171.9,-287.15 176.06,-296.89 178.89,-286.68 171.9,-287.15"/>
<text text-anchor="middle" x="191" y="-271" font-family="Helvetica,sans-Serif" font-size="10.00"> errors</text>
</g>
</g>
</svg>
