<?xml version="1.0" encoding="UTF-8" standalone="no"?>
<!DOCTYPE svg PUBLIC "-//W3C//DTD SVG 1.1//EN"
 "http://www.w3.org/Graphics/SVG/1.1/DTD/svg11.dtd">
<!-- Generated by graphviz version 2.43.0 (0)
 -->
<!-- Title: client::PerfOptions Pages: 1 -->
<svg width="129pt" height="237pt"
 viewBox="0.00 0.00 128.50 237.00" xmlns="http://www.w3.org/2000/svg" xmlns:xlink="http://www.w3.org/1999/xlink">
<g id="graph0" class="graph" transform="scale(1 1) rotate(0) translate(4 233)">
<title>client::PerfOptions</title>
<!-- Node1 -->
<g id="node1" class="node">
<title>Node1</title>
<g id="a_node1"><a xlink:title=" ">
<polygon fill="#999999" stroke="#666666" points="107,-19 0,-19 0,0 107,0 107,-19"/>
<text text-anchor="middle" x="53.5" y="-7" font-family="Helvetica,sans-Serif" font-size="10.00">client::PerfOptions</text>
</a>
</g>
</g>
<!-- Node2 -->
<g id="node2" class="node">
<title>Node2</title>
<g id="a_node2"><a xlink:title=" ">
<polygon fill="white" stroke="#666666" points="86,-162 21,-162 21,-143 86,-143 86,-162"/>
<text text-anchor="middle" x="53.5" y="-150" font-family="Helvetica,sans-Serif" font-size="10.00">std::string</text>
</a>
</g>
</g>
<!-- Node2&#45;&gt;Node1 -->
<g id="edge1" class="edge">
<title>Node2&#45;&gt;Node1</title>
<path fill="none" stroke="#9a32cd" stroke-dasharray="5,2" d="M53.5,-132.39C53.5,-101.49 53.5,-41.77 53.5,-19.32"/>
<polygon fill="#9a32cd" stroke="#9a32cd" points="50,-132.68 53.5,-142.68 57,-132.68 50,-132.68"/>
<text text-anchor="middle" x="87" y="-117" font-family="Helvetica,sans-Serif" font-size="10.00"> bearer_token</text>
<text text-anchor="middle" x="87" y="-106" font-family="Helvetica,sans-Serif" font-size="10.00">ca_file</text>
<text text-anchor="middle" x="87" y="-95" font-family="Helvetica,sans-Serif" font-size="10.00">cert_file</text>
<text text-anchor="middle" x="87" y="-84" font-family="Helvetica,sans-Serif" font-size="10.00">key_file</text>
<text text-anchor="middle" x="87" y="-73" font-family="Helvetica,sans-Serif" font-size="10.00">label</text>
<text text-anchor="middle" x="87" y="-62" font-family="Helvetica,sans-Serif" font-size="10.00">pid_file</text>
<text text-anchor="start" x="53.5" y="-51" font-family="Helvetica,sans-Serif" font-size="10.00">verification</text>
<text text-anchor="middle" x="87" y="-40" font-family="Helvetica,sans-Serif" font-size="10.00">_file</text>
</g>
<!-- Node3 -->
<g id="node3" class="node">
<title>Node3</title>
<g id="a_node3"><a xlink:title=" ">
<polygon fill="white" stroke="#666666" points="105.5,-229 1.5,-229 1.5,-199 105.5,-199 105.5,-229"/>
<text text-anchor="start" x="9.5" y="-217" font-family="Helvetica,sans-Serif" font-size="10.00">std::basic_string&lt;</text>
<text text-anchor="middle" x="53.5" y="-206" font-family="Helvetica,sans-Serif" font-size="10.00"> Char &gt;</text>
</a>
</g>
</g>
<!-- Node3&#45;&gt;Node2 -->
<g id="edge2" class="edge">
<title>Node3&#45;&gt;Node2</title>
<path fill="none" stroke="#63b8ff" d="M53.5,-188.79C53.5,-179.36 53.5,-169.15 53.5,-162.16"/>
<polygon fill="#63b8ff" stroke="#63b8ff" points="50,-188.9 53.5,-198.9 57,-188.9 50,-188.9"/>
</g>
</g>
</svg>
