<?xml version="1.0" encoding="UTF-8" standalone="no"?>
<!DOCTYPE svg PUBLIC "-//W3C//DTD SVG 1.1//EN"
 "http://www.w3.org/Graphics/SVG/1.1/DTD/svg11.dtd">
<!-- Generated by graphviz version 2.43.0 (0)
 -->
<!-- Title: src/enclave/thread_local.cpp Pages: 1 -->
<svg width="456pt" height="148pt"
 viewBox="0.00 0.00 455.50 148.00" xmlns="http://www.w3.org/2000/svg" xmlns:xlink="http://www.w3.org/1999/xlink">
<g id="graph0" class="graph" transform="scale(1 1) rotate(0) translate(4 144)">
<title>src/enclave/thread_local.cpp</title>
<!-- Node1 -->
<g id="node1" class="node">
<title>Node1</title>
<g id="a_node1"><a xlink:title=" ">
<polygon fill="#999999" stroke="#666666" points="321,-140 214,-140 214,-110 321,-110 321,-140"/>
<text text-anchor="start" x="222" y="-128" font-family="Helvetica,sans-Serif" font-size="10.00">src/enclave/thread</text>
<text text-anchor="middle" x="267.5" y="-117" font-family="Helvetica,sans-Serif" font-size="10.00">_local.cpp</text>
</a>
</g>
</g>
<!-- Node2 -->
<g id="node2" class="node">
<title>Node2</title>
<g id="a_node2"><a xlink:href="thread__ids_8h.html" target="_top" xlink:title=" ">
<polygon fill="white" stroke="#666666" points="321.5,-74 213.5,-74 213.5,-55 321.5,-55 321.5,-74"/>
<text text-anchor="middle" x="267.5" y="-62" font-family="Helvetica,sans-Serif" font-size="10.00">ccf/ds/thread_ids.h</text>
</a>
</g>
</g>
<!-- Node1&#45;&gt;Node2 -->
<g id="edge1" class="edge">
<title>Node1&#45;&gt;Node2</title>
<path fill="none" stroke="#63b8ff" d="M267.5,-109.84C267.5,-102.21 267.5,-92.7 267.5,-84.45"/>
<polygon fill="#63b8ff" stroke="#63b8ff" points="271,-84.27 267.5,-74.27 264,-84.27 271,-84.27"/>
</g>
<!-- Node3 -->
<g id="node3" class="node">
<title>Node3</title>
<g id="a_node3"><a xlink:title=" ">
<polygon fill="#e0e0e0" stroke="#999999" points="79,-19 0,-19 0,0 79,0 79,-19"/>
<text text-anchor="middle" x="39.5" y="-7" font-family="Helvetica,sans-Serif" font-size="10.00">fmt/format.h</text>
</a>
</g>
</g>
<!-- Node2&#45;&gt;Node3 -->
<g id="edge2" class="edge">
<title>Node2&#45;&gt;Node3</title>
<path fill="none" stroke="#63b8ff" d="M230.87,-54.98C191.59,-45.86 129.13,-31.33 86.31,-21.38"/>
<polygon fill="#63b8ff" stroke="#63b8ff" points="86.95,-17.94 76.42,-19.08 85.37,-24.76 86.95,-17.94"/>
</g>
<!-- Node4 -->
<g id="node4" class="node">
<title>Node4</title>
<g id="a_node4"><a xlink:title=" ">
<polygon fill="#e0e0e0" stroke="#999999" points="183.5,-19 97.5,-19 97.5,0 183.5,0 183.5,-19"/>
<text text-anchor="middle" x="140.5" y="-7" font-family="Helvetica,sans-Serif" font-size="10.00">fmt/ostream.h</text>
</a>
</g>
</g>
<!-- Node2&#45;&gt;Node4 -->
<g id="edge3" class="edge">
<title>Node2&#45;&gt;Node4</title>
<path fill="none" stroke="#63b8ff" d="M247.1,-54.98C226.48,-46.38 194.39,-32.99 170.81,-23.15"/>
<polygon fill="#63b8ff" stroke="#63b8ff" points="171.85,-19.79 161.28,-19.17 169.16,-26.25 171.85,-19.79"/>
</g>
<!-- Node5 -->
<g id="node5" class="node">
<title>Node5</title>
<g id="a_node5"><a xlink:title=" ">
<polygon fill="#e0e0e0" stroke="#999999" points="263,-19 202,-19 202,0 263,0 263,-19"/>
<text text-anchor="middle" x="232.5" y="-7" font-family="Helvetica,sans-Serif" font-size="10.00">fmt/std.h</text>
</a>
</g>
</g>
<!-- Node2&#45;&gt;Node5 -->
<g id="edge4" class="edge">
<title>Node2&#45;&gt;Node5</title>
<path fill="none" stroke="#63b8ff" d="M261.72,-54.75C256.88,-47.42 249.82,-36.73 243.86,-27.7"/>
<polygon fill="#63b8ff" stroke="#63b8ff" points="246.6,-25.5 238.17,-19.09 240.76,-29.36 246.6,-25.5"/>
</g>
<!-- Node6 -->
<g id="node6" class="node">
<title>Node6</title>
<g id="a_node6"><a xlink:title=" ">
<polygon fill="#e0e0e0" stroke="#999999" points="325.5,-19 281.5,-19 281.5,0 325.5,0 325.5,-19"/>
<text text-anchor="middle" x="303.5" y="-7" font-family="Helvetica,sans-Serif" font-size="10.00">limits</text>
</a>
</g>
</g>
<!-- Node2&#45;&gt;Node6 -->
<g id="edge5" class="edge">
<title>Node2&#45;&gt;Node6</title>
<path fill="none" stroke="#63b8ff" d="M273.44,-54.75C278.48,-47.34 285.84,-36.5 292.01,-27.41"/>
<polygon fill="#63b8ff" stroke="#63b8ff" points="294.94,-29.33 297.67,-19.09 289.15,-25.39 294.94,-29.33"/>
</g>
<!-- Node7 -->
<g id="node7" class="node">
<title>Node7</title>
<g id="a_node7"><a xlink:title=" ">
<polygon fill="#e0e0e0" stroke="#999999" points="381.5,-19 343.5,-19 343.5,0 381.5,0 381.5,-19"/>
<text text-anchor="middle" x="362.5" y="-7" font-family="Helvetica,sans-Serif" font-size="10.00">map</text>
</a>
</g>
</g>
<!-- Node2&#45;&gt;Node7 -->
<g id="edge6" class="edge">
<title>Node2&#45;&gt;Node7</title>
<path fill="none" stroke="#63b8ff" d="M282.76,-54.98C297.63,-46.69 320.48,-33.94 337.92,-24.22"/>
<polygon fill="#63b8ff" stroke="#63b8ff" points="339.93,-27.1 346.96,-19.17 336.52,-20.99 339.93,-27.1"/>
</g>
<!-- Node8 -->
<g id="node8" class="node">
<title>Node8</title>
<g id="a_node8"><a xlink:title=" ">
<polygon fill="#e0e0e0" stroke="#999999" points="447.5,-19 399.5,-19 399.5,0 447.5,0 447.5,-19"/>
<text text-anchor="middle" x="423.5" y="-7" font-family="Helvetica,sans-Serif" font-size="10.00">thread</text>
</a>
</g>
</g>
<!-- Node2&#45;&gt;Node8 -->
<g id="edge7" class="edge">
<title>Node2&#45;&gt;Node8</title>
<path fill="none" stroke="#63b8ff" d="M292.56,-54.98C318.84,-46.06 360.28,-31.98 389.49,-22.05"/>
<polygon fill="#63b8ff" stroke="#63b8ff" points="390.93,-25.26 399.27,-18.73 388.67,-18.64 390.93,-25.26"/>
</g>
</g>
</svg>
