<?xml version="1.0" encoding="UTF-8" standalone="no"?>
<!DOCTYPE svg PUBLIC "-//W3C//DTD SVG 1.1//EN"
 "http://www.w3.org/Graphics/SVG/1.1/DTD/svg11.dtd">
<!-- Generated by graphviz version 2.43.0 (0)
 -->
<!-- Title: include/ccf/service/tables/users.h Pages: 1 -->
<svg width="1480pt" height="511pt"
 viewBox="0.00 0.00 1479.74 511.00" xmlns="http://www.w3.org/2000/svg" xmlns:xlink="http://www.w3.org/1999/xlink">
<g id="graph0" class="graph" transform="scale(1 1) rotate(0) translate(4 507)">
<title>include/ccf/service/tables/users.h</title>
<!-- Node1 -->
<g id="node1" class="node">
<title>Node1</title>
<g id="a_node1"><a xlink:title=" ">
<polygon fill="#999999" stroke="#666666" points="699.5,-503 592.5,-503 592.5,-473 699.5,-473 699.5,-503"/>
<text text-anchor="start" x="600.5" y="-491" font-family="Helvetica,sans-Serif" font-size="10.00">include/ccf/service</text>
<text text-anchor="middle" x="646" y="-480" font-family="Helvetica,sans-Serif" font-size="10.00">/tables/users.h</text>
</a>
</g>
</g>
<!-- Node2 -->
<g id="node2" class="node">
<title>Node2</title>
<g id="a_node2"><a xlink:href="cert__auth_8cpp.html" target="_top" xlink:title=" ">
<polygon fill="white" stroke="#666666" points="471.5,-437 316.5,-437 316.5,-407 471.5,-407 471.5,-437"/>
<text text-anchor="start" x="324.5" y="-425" font-family="Helvetica,sans-Serif" font-size="10.00">src/endpoints/authentication</text>
<text text-anchor="middle" x="394" y="-414" font-family="Helvetica,sans-Serif" font-size="10.00">/cert_auth.cpp</text>
</a>
</g>
</g>
<!-- Node1&#45;&gt;Node2 -->
<g id="edge1" class="edge">
<title>Node1&#45;&gt;Node2</title>
<path fill="none" stroke="#63b8ff" d="M582.37,-470.84C541.4,-460.43 488.66,-447.04 449.41,-437.07"/>
<polygon fill="#63b8ff" stroke="#63b8ff" points="581.69,-474.28 592.25,-473.35 583.42,-467.49 581.69,-474.28"/>
</g>
<!-- Node3 -->
<g id="node3" class="node">
<title>Node3</title>
<g id="a_node3"><a xlink:href="sig__auth_8cpp.html" target="_top" xlink:title=" ">
<polygon fill="white" stroke="#666666" points="644.5,-437 489.5,-437 489.5,-407 644.5,-407 644.5,-437"/>
<text text-anchor="start" x="497.5" y="-425" font-family="Helvetica,sans-Serif" font-size="10.00">src/endpoints/authentication</text>
<text text-anchor="middle" x="567" y="-414" font-family="Helvetica,sans-Serif" font-size="10.00">/sig_auth.cpp</text>
</a>
</g>
</g>
<!-- Node1&#45;&gt;Node3 -->
<g id="edge2" class="edge">
<title>Node1&#45;&gt;Node3</title>
<path fill="none" stroke="#63b8ff" d="M620.67,-466.48C608.86,-456.91 595.11,-445.77 584.48,-437.16"/>
<polygon fill="#63b8ff" stroke="#63b8ff" points="618.49,-469.22 628.47,-472.8 622.9,-463.78 618.49,-469.22"/>
</g>
<!-- Node4 -->
<g id="node4" class="node">
<title>Node4</title>
<g id="a_node4"><a xlink:href="base__endpoint__registry_8cpp.html" target="_top" xlink:title=" ">
<polygon fill="white" stroke="#666666" points="789,-437 663,-437 663,-407 789,-407 789,-437"/>
<text text-anchor="start" x="671" y="-425" font-family="Helvetica,sans-Serif" font-size="10.00">src/endpoints/base</text>
<text text-anchor="middle" x="726" y="-414" font-family="Helvetica,sans-Serif" font-size="10.00">_endpoint_registry.cpp</text>
</a>
</g>
</g>
<!-- Node1&#45;&gt;Node4 -->
<g id="edge3" class="edge">
<title>Node1&#45;&gt;Node4</title>
<path fill="none" stroke="#63b8ff" d="M671.65,-466.48C683.61,-456.91 697.53,-445.77 708.3,-437.16"/>
<polygon fill="#63b8ff" stroke="#63b8ff" points="669.38,-463.82 663.75,-472.8 673.75,-469.28 669.38,-463.82"/>
</g>
<!-- Node5 -->
<g id="node5" class="node">
<title>Node5</title>
<g id="a_node5"><a xlink:href="network__tables_8h.html" target="_top" xlink:title=" ">
<polygon fill="white" stroke="#666666" points="919,-437 807,-437 807,-407 919,-407 919,-437"/>
<text text-anchor="start" x="815" y="-425" font-family="Helvetica,sans-Serif" font-size="10.00">src/service/network</text>
<text text-anchor="middle" x="863" y="-414" font-family="Helvetica,sans-Serif" font-size="10.00">_tables.h</text>
</a>
</g>
</g>
<!-- Node1&#45;&gt;Node5 -->
<g id="edge4" class="edge">
<title>Node1&#45;&gt;Node5</title>
<path fill="none" stroke="#63b8ff" d="M703.23,-470.12C738.22,-459.8 782.44,-446.76 815.49,-437.01"/>
<polygon fill="#63b8ff" stroke="#63b8ff" points="702.22,-466.77 693.62,-472.95 704.2,-473.48 702.22,-466.77"/>
</g>
<!-- Node6 -->
<g id="node6" class="node">
<title>Node6</title>
<g id="a_node6"><a xlink:href="kv__module__loader_8cpp.html" target="_top" xlink:title=" ">
<polygon fill="white" stroke="#666666" points="774.5,-371 631.5,-371 631.5,-341 774.5,-341 774.5,-371"/>
<text text-anchor="start" x="639.5" y="-359" font-family="Helvetica,sans-Serif" font-size="10.00">src/apps/js_v8/kv_module</text>
<text text-anchor="middle" x="703" y="-348" font-family="Helvetica,sans-Serif" font-size="10.00">_loader.cpp</text>
</a>
</g>
</g>
<!-- Node5&#45;&gt;Node6 -->
<g id="edge5" class="edge">
<title>Node5&#45;&gt;Node6</title>
<path fill="none" stroke="#63b8ff" d="M818.47,-403.19C793.06,-393.02 761.67,-380.47 738.03,-371.01"/>
<polygon fill="#63b8ff" stroke="#63b8ff" points="817.3,-406.49 827.89,-406.95 819.9,-399.99 817.3,-406.49"/>
</g>
<!-- Node7 -->
<g id="node7" class="node">
<title>Node7</title>
<g id="a_node7"><a xlink:href="network__state_8h.html" target="_top" xlink:title=" ">
<polygon fill="white" stroke="#666666" points="933,-365.5 793,-365.5 793,-346.5 933,-346.5 933,-365.5"/>
<text text-anchor="middle" x="863" y="-353.5" font-family="Helvetica,sans-Serif" font-size="10.00">src/node/network_state.h</text>
</a>
</g>
</g>
<!-- Node5&#45;&gt;Node7 -->
<g id="edge6" class="edge">
<title>Node5&#45;&gt;Node7</title>
<path fill="none" stroke="#63b8ff" d="M863,-396.6C863,-385.8 863,-373.78 863,-365.84"/>
<polygon fill="#63b8ff" stroke="#63b8ff" points="859.5,-396.8 863,-406.8 866.5,-396.8 859.5,-396.8"/>
</g>
<!-- Node27 -->
<g id="node27" class="node">
<title>Node27</title>
<g id="a_node27"><a xlink:href="genesis__gen_8h.html" target="_top" xlink:title=" ">
<polygon fill="white" stroke="#666666" points="1335,-371 1225,-371 1225,-341 1335,-341 1335,-371"/>
<text text-anchor="start" x="1233" y="-359" font-family="Helvetica,sans-Serif" font-size="10.00">src/service/genesis</text>
<text text-anchor="middle" x="1280" y="-348" font-family="Helvetica,sans-Serif" font-size="10.00">_gen.h</text>
</a>
</g>
</g>
<!-- Node5&#45;&gt;Node27 -->
<g id="edge42" class="edge">
<title>Node5&#45;&gt;Node27</title>
<path fill="none" stroke="#63b8ff" d="M929.17,-410.84C1010.98,-398.29 1148.7,-377.15 1224.98,-365.44"/>
<polygon fill="#63b8ff" stroke="#63b8ff" points="928.59,-407.39 919.24,-412.37 929.65,-414.31 928.59,-407.39"/>
</g>
<!-- Node8 -->
<g id="node8" class="node">
<title>Node8</title>
<g id="a_node8"><a xlink:href="enclave_2enclave_8h.html" target="_top" xlink:title=" ">
<polygon fill="white" stroke="#666666" points="1039,-74 917,-74 917,-55 1039,-55 1039,-74"/>
<text text-anchor="middle" x="978" y="-62" font-family="Helvetica,sans-Serif" font-size="10.00">src/enclave/enclave.h</text>
</a>
</g>
</g>
<!-- Node7&#45;&gt;Node8 -->
<g id="edge7" class="edge">
<title>Node7&#45;&gt;Node8</title>
<path fill="none" stroke="#63b8ff" d="M810.36,-344.75C801.58,-343.31 792.55,-341.98 784,-341 634.33,-323.82 250.34,-351.38 107,-305 53.16,-287.58 0,-292.59 0,-236 0,-236 0,-236 0,-173.5 0,-80.83 702.71,-67.66 916.82,-65.8"/>
<polygon fill="#63b8ff" stroke="#63b8ff" points="810.05,-348.25 820.5,-346.49 811.23,-341.35 810.05,-348.25"/>
</g>
<!-- Node10 -->
<g id="node10" class="node">
<title>Node10</title>
<g id="a_node10"><a xlink:href="wrap_8h.html" target="_top" xlink:title=" ">
<polygon fill="white" stroke="#666666" points="743,-305 665,-305 665,-286 743,-286 743,-305"/>
<text text-anchor="middle" x="704" y="-293" font-family="Helvetica,sans-Serif" font-size="10.00">src/js/wrap.h</text>
</a>
</g>
</g>
<!-- Node7&#45;&gt;Node10 -->
<g id="edge9" class="edge">
<title>Node7&#45;&gt;Node10</title>
<path fill="none" stroke="#63b8ff" d="M830.45,-343.02C799.71,-331.71 754.36,-315.03 727.15,-305.02"/>
<polygon fill="#63b8ff" stroke="#63b8ff" points="829.29,-346.33 839.88,-346.49 831.7,-339.76 829.29,-346.33"/>
</g>
<!-- Node18 -->
<g id="node18" class="node">
<title>Node18</title>
<g id="a_node18"><a xlink:href="node__state_8h.html" target="_top" xlink:title=" ">
<polygon fill="white" stroke="#666666" points="1092,-184 968,-184 968,-165 1092,-165 1092,-184"/>
<text text-anchor="middle" x="1030" y="-172" font-family="Helvetica,sans-Serif" font-size="10.00">src/node/node_state.h</text>
</a>
</g>
</g>
<!-- Node7&#45;&gt;Node18 -->
<g id="edge28" class="edge">
<title>Node7&#45;&gt;Node18</title>
<path fill="none" stroke="#63b8ff" d="M832.68,-342.22C806.1,-329.18 774.13,-307.8 791,-286 830.06,-235.53 872.84,-278.38 930,-250 949.27,-240.43 950.81,-232.94 968,-220 984.93,-207.25 1004.92,-193.05 1017.53,-184.2"/>
<polygon fill="#63b8ff" stroke="#63b8ff" points="831.23,-345.4 841.77,-346.47 834.19,-339.06 831.23,-345.4"/>
</g>
<!-- Node21 -->
<g id="node21" class="node">
<title>Node21</title>
<g id="a_node21"><a xlink:href="node__frontend_8h.html" target="_top" xlink:title=" ">
<polygon fill="white" stroke="#666666" points="1274,-305 1116,-305 1116,-286 1274,-286 1274,-305"/>
<text text-anchor="middle" x="1195" y="-293" font-family="Helvetica,sans-Serif" font-size="10.00">src/node/rpc/node_frontend.h</text>
</a>
</g>
</g>
<!-- Node7&#45;&gt;Node21 -->
<g id="edge29" class="edge">
<title>Node7&#45;&gt;Node21</title>
<path fill="none" stroke="#63b8ff" d="M921.21,-344.74C985.22,-333.46 1086.89,-315.55 1146.67,-305.02"/>
<polygon fill="#63b8ff" stroke="#63b8ff" points="920.52,-341.31 911.28,-346.49 921.73,-348.21 920.52,-341.31"/>
</g>
<!-- Node23 -->
<g id="node23" class="node">
<title>Node23</title>
<g id="a_node23"><a xlink:href="user__frontend_8h.html" target="_top" xlink:title=" ">
<polygon fill="white" stroke="#666666" points="516.5,-129 361.5,-129 361.5,-110 516.5,-110 516.5,-129"/>
<text text-anchor="middle" x="439" y="-117" font-family="Helvetica,sans-Serif" font-size="10.00">src/node/rpc/user_frontend.h</text>
</a>
</g>
</g>
<!-- Node7&#45;&gt;Node23 -->
<g id="edge33" class="edge">
<title>Node7&#45;&gt;Node23</title>
<path fill="none" stroke="#63b8ff" d="M807.05,-344.72C799.32,-343.41 791.47,-342.13 784,-341 623.01,-316.68 164.74,-372.07 57,-250 -31.68,-149.53 225.7,-126.9 361.31,-121.88"/>
<polygon fill="#63b8ff" stroke="#63b8ff" points="806.66,-348.21 817.11,-346.46 807.86,-341.31 806.66,-348.21"/>
</g>
<!-- Node24 -->
<g id="node24" class="node">
<title>Node24</title>
<g id="a_node24"><a xlink:href="secret__broadcast_8h.html" target="_top" xlink:title=" ">
<polygon fill="white" stroke="#666666" points="1097.5,-305 944.5,-305 944.5,-286 1097.5,-286 1097.5,-305"/>
<text text-anchor="middle" x="1021" y="-293" font-family="Helvetica,sans-Serif" font-size="10.00">src/node/secret_broadcast.h</text>
</a>
</g>
</g>
<!-- Node7&#45;&gt;Node24 -->
<g id="edge35" class="edge">
<title>Node7&#45;&gt;Node24</title>
<path fill="none" stroke="#63b8ff" d="M895.74,-342.88C926.28,-331.57 971.07,-314.99 998,-305.02"/>
<polygon fill="#63b8ff" stroke="#63b8ff" points="894.14,-339.74 885.97,-346.49 896.57,-346.3 894.14,-339.74"/>
</g>
<!-- Node25 -->
<g id="node25" class="node">
<title>Node25</title>
<g id="a_node25"><a xlink:href="share__manager_8h.html" target="_top" xlink:title=" ">
<polygon fill="white" stroke="#666666" points="1437.5,-305 1292.5,-305 1292.5,-286 1437.5,-286 1437.5,-305"/>
<text text-anchor="middle" x="1365" y="-293" font-family="Helvetica,sans-Serif" font-size="10.00">src/node/share_manager.h</text>
</a>
</g>
</g>
<!-- Node7&#45;&gt;Node25 -->
<g id="edge37" class="edge">
<title>Node7&#45;&gt;Node25</title>
<path fill="none" stroke="#63b8ff" d="M943.03,-345.67C1039.25,-334.46 1199.35,-315.8 1292.21,-304.98"/>
<polygon fill="#63b8ff" stroke="#63b8ff" points="942.59,-342.2 933.07,-346.84 943.4,-349.15 942.59,-342.2"/>
</g>
<!-- Node26 -->
<g id="node26" class="node">
<title>Node26</title>
<g id="a_node26"><a xlink:href="snapshotter_8h.html" target="_top" xlink:title=" ">
<polygon fill="white" stroke="#666666" points="926.5,-305 799.5,-305 799.5,-286 926.5,-286 926.5,-305"/>
<text text-anchor="middle" x="863" y="-293" font-family="Helvetica,sans-Serif" font-size="10.00">src/node/snapshotter.h</text>
</a>
</g>
</g>
<!-- Node7&#45;&gt;Node26 -->
<g id="edge40" class="edge">
<title>Node7&#45;&gt;Node26</title>
<path fill="none" stroke="#63b8ff" d="M863,-336.16C863,-325.74 863,-313.3 863,-305.17"/>
<polygon fill="#63b8ff" stroke="#63b8ff" points="859.5,-336.37 863,-346.37 866.5,-336.37 859.5,-336.37"/>
</g>
<!-- Node9 -->
<g id="node9" class="node">
<title>Node9</title>
<g id="a_node9"><a xlink:href="enclave_2main_8cpp.html" target="_top" xlink:title=" ">
<polygon fill="white" stroke="#666666" points="1038,-19 918,-19 918,0 1038,0 1038,-19"/>
<text text-anchor="middle" x="978" y="-7" font-family="Helvetica,sans-Serif" font-size="10.00">src/enclave/main.cpp</text>
</a>
</g>
</g>
<!-- Node8&#45;&gt;Node9 -->
<g id="edge8" class="edge">
<title>Node8&#45;&gt;Node9</title>
<path fill="none" stroke="#63b8ff" d="M978,-44.66C978,-35.93 978,-25.99 978,-19.09"/>
<polygon fill="#63b8ff" stroke="#63b8ff" points="974.5,-44.75 978,-54.75 981.5,-44.75 974.5,-44.75"/>
</g>
<!-- Node10&#45;&gt;Node8 -->
<g id="edge11" class="edge">
<title>Node10&#45;&gt;Node8</title>
<path fill="none" stroke="#63b8ff" d="M752.98,-288.38C780.86,-282.62 814.76,-271.49 838,-250 887.58,-204.16 851.79,-160.15 897,-110 912.26,-93.08 935.51,-81.24 953.19,-74.05"/>
<polygon fill="#63b8ff" stroke="#63b8ff" points="752.19,-284.97 743.01,-290.27 753.49,-291.85 752.19,-284.97"/>
</g>
<!-- Node11 -->
<g id="node11" class="node">
<title>Node11</title>
<g id="a_node11"><a xlink:href="js__generic__base_8cpp.html" target="_top" xlink:title=" ">
<polygon fill="white" stroke="#666666" points="812,-250 694,-250 694,-220 812,-220 812,-250"/>
<text text-anchor="start" x="702" y="-238" font-family="Helvetica,sans-Serif" font-size="10.00">src/apps/js_generic</text>
<text text-anchor="middle" x="753" y="-227" font-family="Helvetica,sans-Serif" font-size="10.00">/js_generic_base.cpp</text>
</a>
</g>
</g>
<!-- Node10&#45;&gt;Node11 -->
<g id="edge10" class="edge">
<title>Node10&#45;&gt;Node11</title>
<path fill="none" stroke="#63b8ff" d="M717.69,-278.15C725.08,-269.34 734.1,-258.56 741.18,-250.11"/>
<polygon fill="#63b8ff" stroke="#63b8ff" points="714.97,-275.95 711.23,-285.87 720.33,-280.45 714.97,-275.95"/>
</g>
<!-- Node12 -->
<g id="node12" class="node">
<title>Node12</title>
<g id="a_node12"><a xlink:href="js_2consensus_8cpp.html" target="_top" xlink:title=" ">
<polygon fill="white" stroke="#666666" points="424,-244.5 308,-244.5 308,-225.5 424,-225.5 424,-244.5"/>
<text text-anchor="middle" x="366" y="-232.5" font-family="Helvetica,sans-Serif" font-size="10.00">src/js/consensus.cpp</text>
</a>
</g>
</g>
<!-- Node10&#45;&gt;Node12 -->
<g id="edge12" class="edge">
<title>Node10&#45;&gt;Node12</title>
<path fill="none" stroke="#63b8ff" d="M654.81,-287.08C600.42,-278.72 510.28,-264.41 433,-250 424.01,-248.32 414.36,-246.39 405.27,-244.5"/>
<polygon fill="#63b8ff" stroke="#63b8ff" points="654.45,-290.56 664.86,-288.62 655.51,-283.64 654.45,-290.56"/>
</g>
<!-- Node13 -->
<g id="node13" class="node">
<title>Node13</title>
<g id="a_node13"><a xlink:href="wrap_8cpp.html" target="_top" xlink:title=" ">
<polygon fill="white" stroke="#666666" points="410.5,-184 321.5,-184 321.5,-165 410.5,-165 410.5,-184"/>
<text text-anchor="middle" x="366" y="-172" font-family="Helvetica,sans-Serif" font-size="10.00">src/js/wrap.cpp</text>
</a>
</g>
</g>
<!-- Node10&#45;&gt;Node13 -->
<g id="edge21" class="edge">
<title>Node10&#45;&gt;Node13</title>
<path fill="none" stroke="#63b8ff" d="M751.17,-283.19C794.08,-270.77 847.04,-248.71 821,-220 793.74,-189.94 519.68,-179.51 410.52,-176.53"/>
<polygon fill="#63b8ff" stroke="#63b8ff" points="750.06,-279.87 741.37,-285.92 751.94,-286.61 750.06,-279.87"/>
</g>
<!-- Node14 -->
<g id="node14" class="node">
<title>Node14</title>
<g id="a_node14"><a xlink:href="conv_8cpp.html" target="_top" xlink:title=" ">
<polygon fill="white" stroke="#666666" points="530,-244.5 442,-244.5 442,-225.5 530,-225.5 530,-244.5"/>
<text text-anchor="middle" x="486" y="-232.5" font-family="Helvetica,sans-Serif" font-size="10.00">src/js/conv.cpp</text>
</a>
</g>
</g>
<!-- Node10&#45;&gt;Node14 -->
<g id="edge14" class="edge">
<title>Node10&#45;&gt;Node14</title>
<path fill="none" stroke="#63b8ff" d="M662.62,-283.4C620.47,-272.08 556.02,-254.79 517.74,-244.52"/>
<polygon fill="#63b8ff" stroke="#63b8ff" points="661.74,-286.78 672.3,-285.99 663.55,-280.02 661.74,-286.78"/>
</g>
<!-- Node15 -->
<g id="node15" class="node">
<title>Node15</title>
<g id="a_node15"><a xlink:href="js_2crypto_8cpp.html" target="_top" xlink:title=" ">
<polygon fill="white" stroke="#666666" points="290,-244.5 194,-244.5 194,-225.5 290,-225.5 290,-244.5"/>
<text text-anchor="middle" x="242" y="-232.5" font-family="Helvetica,sans-Serif" font-size="10.00">src/js/crypto.cpp</text>
</a>
</g>
</g>
<!-- Node10&#45;&gt;Node15 -->
<g id="edge16" class="edge">
<title>Node10&#45;&gt;Node15</title>
<path fill="none" stroke="#63b8ff" d="M654.65,-291.18C578.08,-285.55 426.23,-272.51 299,-250 290.67,-248.53 281.75,-246.54 273.5,-244.52"/>
<polygon fill="#63b8ff" stroke="#63b8ff" points="654.72,-294.69 664.94,-291.92 655.22,-287.71 654.72,-294.69"/>
</g>
<!-- Node16 -->
<g id="node16" class="node">
<title>Node16</title>
<g id="a_node16"><a xlink:href="js_2historical_8cpp.html" target="_top" xlink:title=" ">
<polygon fill="white" stroke="#666666" points="176,-244.5 66,-244.5 66,-225.5 176,-225.5 176,-244.5"/>
<text text-anchor="middle" x="121" y="-232.5" font-family="Helvetica,sans-Serif" font-size="10.00">src/js/historical.cpp</text>
</a>
</g>
</g>
<!-- Node10&#45;&gt;Node16 -->
<g id="edge18" class="edge">
<title>Node10&#45;&gt;Node16</title>
<path fill="none" stroke="#63b8ff" d="M654.54,-292.4C561.95,-288 356.33,-275.97 185,-250 175.55,-248.57 165.42,-246.57 156.06,-244.53"/>
<polygon fill="#63b8ff" stroke="#63b8ff" points="654.58,-295.91 664.73,-292.88 654.91,-288.91 654.58,-295.91"/>
</g>
<!-- Node17 -->
<g id="node17" class="node">
<title>Node17</title>
<g id="a_node17"><a xlink:href="openenclave_8cpp.html" target="_top" xlink:title=" ">
<polygon fill="white" stroke="#666666" points="676,-244.5 548,-244.5 548,-225.5 676,-225.5 676,-244.5"/>
<text text-anchor="middle" x="612" y="-232.5" font-family="Helvetica,sans-Serif" font-size="10.00">src/js/openenclave.cpp</text>
</a>
</g>
</g>
<!-- Node10&#45;&gt;Node17 -->
<g id="edge20" class="edge">
<title>Node10&#45;&gt;Node17</title>
<path fill="none" stroke="#63b8ff" d="M681.93,-280.47C664.41,-269.32 640.47,-254.1 625.63,-244.67"/>
<polygon fill="#63b8ff" stroke="#63b8ff" points="680.11,-283.46 690.43,-285.87 683.86,-277.55 680.11,-283.46"/>
</g>
<!-- Node10&#45;&gt;Node18 -->
<g id="edge22" class="edge">
<title>Node10&#45;&gt;Node18</title>
<path fill="none" stroke="#63b8ff" d="M753.24,-284.74C800.18,-275.1 867.27,-260.32 892,-250 915.22,-240.31 918.03,-232.26 940,-220 964.2,-206.5 993.06,-192.6 1011.45,-184.01"/>
<polygon fill="#63b8ff" stroke="#63b8ff" points="752.35,-281.35 743.25,-286.78 753.75,-288.21 752.35,-281.35"/>
</g>
<!-- Node20 -->
<g id="node20" class="node">
<title>Node20</title>
<g id="a_node20"><a xlink:href="member__frontend_8h.html" target="_top" xlink:title=" ">
<polygon fill="white" stroke="#666666" points="1416,-250 1296,-250 1296,-220 1416,-220 1416,-250"/>
<text text-anchor="start" x="1304" y="-238" font-family="Helvetica,sans-Serif" font-size="10.00">src/node/rpc/member</text>
<text text-anchor="middle" x="1356" y="-227" font-family="Helvetica,sans-Serif" font-size="10.00">_frontend.h</text>
</a>
</g>
</g>
<!-- Node10&#45;&gt;Node20 -->
<g id="edge26" class="edge">
<title>Node10&#45;&gt;Node20</title>
<path fill="none" stroke="#63b8ff" d="M753.47,-289.59C765.73,-288.39 778.84,-287.13 791,-286 974.84,-268.88 1192.47,-250.02 1295.78,-241.15"/>
<polygon fill="#63b8ff" stroke="#63b8ff" points="753.02,-286.12 743.4,-290.57 753.7,-293.08 753.02,-286.12"/>
</g>
<!-- Node12&#45;&gt;Node13 -->
<g id="edge13" class="edge">
<title>Node12&#45;&gt;Node13</title>
<path fill="none" stroke="#63b8ff" d="M366,-215.16C366,-204.74 366,-192.3 366,-184.17"/>
<polygon fill="#63b8ff" stroke="#63b8ff" points="362.5,-215.37 366,-225.37 369.5,-215.37 362.5,-215.37"/>
</g>
<!-- Node14&#45;&gt;Node13 -->
<g id="edge15" class="edge">
<title>Node14&#45;&gt;Node13</title>
<path fill="none" stroke="#63b8ff" d="M459.3,-220.98C436.17,-209.71 403.39,-193.73 383.47,-184.02"/>
<polygon fill="#63b8ff" stroke="#63b8ff" points="458.03,-224.26 468.55,-225.49 461.1,-217.97 458.03,-224.26"/>
</g>
<!-- Node15&#45;&gt;Node13 -->
<g id="edge17" class="edge">
<title>Node15&#45;&gt;Node13</title>
<path fill="none" stroke="#63b8ff" d="M269.27,-221.13C293.19,-209.85 327.28,-193.77 347.95,-184.02"/>
<polygon fill="#63b8ff" stroke="#63b8ff" points="267.58,-218.06 260.03,-225.49 270.57,-224.39 267.58,-218.06"/>
</g>
<!-- Node16&#45;&gt;Node13 -->
<g id="edge19" class="edge">
<title>Node16&#45;&gt;Node13</title>
<path fill="none" stroke="#63b8ff" d="M166.61,-223.11C213.96,-211.8 287.04,-194.35 330.33,-184.02"/>
<polygon fill="#63b8ff" stroke="#63b8ff" points="165.54,-219.77 156.63,-225.49 167.16,-226.58 165.54,-219.77"/>
</g>
<!-- Node18&#45;&gt;Node8 -->
<g id="edge23" class="edge">
<title>Node18&#45;&gt;Node8</title>
<path fill="none" stroke="#63b8ff" d="M1046.08,-157.28C1057.06,-144.16 1068.11,-125.4 1059,-110 1048.3,-91.91 1027.34,-80.68 1009.42,-74.03"/>
<polygon fill="#63b8ff" stroke="#63b8ff" points="1043.21,-155.24 1039.09,-165 1048.4,-159.94 1043.21,-155.24"/>
</g>
<!-- Node19 -->
<g id="node19" class="node">
<title>Node19</title>
<g id="a_node19"><a xlink:href="gov__effects_8h.html" target="_top" xlink:title=" ">
<polygon fill="white" stroke="#666666" points="1050,-129 906,-129 906,-110 1050,-110 1050,-129"/>
<text text-anchor="middle" x="978" y="-117" font-family="Helvetica,sans-Serif" font-size="10.00">src/node/rpc/gov_effects.h</text>
</a>
</g>
</g>
<!-- Node18&#45;&gt;Node19 -->
<g id="edge24" class="edge">
<title>Node18&#45;&gt;Node19</title>
<path fill="none" stroke="#63b8ff" d="M1014.32,-157.52C1005.16,-148.18 993.95,-136.75 986.43,-129.09"/>
<polygon fill="#63b8ff" stroke="#63b8ff" points="1011.91,-160.06 1021.41,-164.75 1016.91,-155.16 1011.91,-160.06"/>
</g>
<!-- Node19&#45;&gt;Node8 -->
<g id="edge25" class="edge">
<title>Node19&#45;&gt;Node8</title>
<path fill="none" stroke="#63b8ff" d="M978,-99.66C978,-90.93 978,-80.99 978,-74.09"/>
<polygon fill="#63b8ff" stroke="#63b8ff" points="974.5,-99.75 978,-109.75 981.5,-99.75 974.5,-99.75"/>
</g>
<!-- Node20&#45;&gt;Node8 -->
<g id="edge27" class="edge">
<title>Node20&#45;&gt;Node8</title>
<path fill="none" stroke="#63b8ff" d="M1345.47,-210.28C1331.35,-181.48 1303.41,-133.81 1264,-110 1227.17,-87.75 1111.63,-75.36 1039.17,-69.59"/>
<polygon fill="#63b8ff" stroke="#63b8ff" points="1342.44,-212.07 1349.89,-219.61 1348.77,-209.08 1342.44,-212.07"/>
</g>
<!-- Node21&#45;&gt;Node8 -->
<g id="edge30" class="edge">
<title>Node21&#45;&gt;Node8</title>
<path fill="none" stroke="#63b8ff" d="M1198.39,-275.75C1200.33,-260.12 1201,-237.64 1193,-220 1156.17,-138.79 1051.69,-91.94 1003.24,-74.01"/>
<polygon fill="#63b8ff" stroke="#63b8ff" points="1194.91,-275.34 1196.86,-285.75 1201.83,-276.39 1194.91,-275.34"/>
</g>
<!-- Node22 -->
<g id="node22" class="node">
<title>Node22</title>
<g id="a_node22"><a xlink:href="jwt__key__auto__refresh_8h.html" target="_top" xlink:title=" ">
<polygon fill="white" stroke="#666666" points="1183.5,-250 1058.5,-250 1058.5,-220 1183.5,-220 1183.5,-250"/>
<text text-anchor="start" x="1066.5" y="-238" font-family="Helvetica,sans-Serif" font-size="10.00">src/node/jwt_key_auto</text>
<text text-anchor="middle" x="1121" y="-227" font-family="Helvetica,sans-Serif" font-size="10.00">_refresh.h</text>
</a>
</g>
</g>
<!-- Node21&#45;&gt;Node22 -->
<g id="edge31" class="edge">
<title>Node21&#45;&gt;Node22</title>
<path fill="none" stroke="#63b8ff" d="M1176.03,-279.5C1164.58,-270.45 1150.09,-259 1138.85,-250.11"/>
<polygon fill="#63b8ff" stroke="#63b8ff" points="1174.07,-282.41 1184.08,-285.87 1178.41,-276.92 1174.07,-282.41"/>
</g>
<!-- Node22&#45;&gt;Node18 -->
<g id="edge32" class="edge">
<title>Node22&#45;&gt;Node18</title>
<path fill="none" stroke="#63b8ff" d="M1090.43,-214.35C1074.45,-204.07 1055.7,-192.02 1043.37,-184.09"/>
<polygon fill="#63b8ff" stroke="#63b8ff" points="1088.67,-217.38 1098.97,-219.84 1092.45,-211.49 1088.67,-217.38"/>
</g>
<!-- Node23&#45;&gt;Node8 -->
<g id="edge34" class="edge">
<title>Node23&#45;&gt;Node8</title>
<path fill="none" stroke="#63b8ff" d="M526.56,-109.89C636.23,-99.11 821.33,-80.91 916.87,-71.51"/>
<polygon fill="#63b8ff" stroke="#63b8ff" points="526.12,-106.42 516.51,-110.88 526.81,-113.38 526.12,-106.42"/>
</g>
<!-- Node24&#45;&gt;Node18 -->
<g id="edge36" class="edge">
<title>Node24&#45;&gt;Node18</title>
<path fill="none" stroke="#63b8ff" d="M1022.41,-275.86C1024.38,-249.81 1027.88,-203.56 1029.33,-184.3"/>
<polygon fill="#63b8ff" stroke="#63b8ff" points="1018.91,-275.71 1021.65,-285.94 1025.89,-276.23 1018.91,-275.71"/>
</g>
<!-- Node25&#45;&gt;Node18 -->
<g id="edge38" class="edge">
<title>Node25&#45;&gt;Node18</title>
<path fill="none" stroke="#63b8ff" d="M1338.14,-281.44C1304.69,-265.52 1245.54,-238.44 1193,-220 1150.51,-205.08 1100.37,-192.06 1067.03,-184.02"/>
<polygon fill="#63b8ff" stroke="#63b8ff" points="1336.73,-284.65 1347.26,-285.81 1339.75,-278.34 1336.73,-284.65"/>
</g>
<!-- Node25&#45;&gt;Node20 -->
<g id="edge39" class="edge">
<title>Node25&#45;&gt;Node20</title>
<path fill="none" stroke="#63b8ff" d="M1362.14,-275.93C1360.86,-267.58 1359.36,-257.87 1358.17,-250.11"/>
<polygon fill="#63b8ff" stroke="#63b8ff" points="1358.69,-276.52 1363.67,-285.87 1365.61,-275.45 1358.69,-276.52"/>
</g>
<!-- Node26&#45;&gt;Node18 -->
<g id="edge41" class="edge">
<title>Node26&#45;&gt;Node18</title>
<path fill="none" stroke="#63b8ff" d="M903.23,-282.53C923.84,-275.19 948.6,-264.41 968,-250 993.67,-230.94 1015.39,-199.13 1024.88,-184"/>
<polygon fill="#63b8ff" stroke="#63b8ff" points="901.82,-279.31 893.49,-285.86 904.09,-285.94 901.82,-279.31"/>
</g>
<!-- Node27&#45;&gt;Node18 -->
<g id="edge43" class="edge">
<title>Node27&#45;&gt;Node18</title>
<path fill="none" stroke="#63b8ff" d="M1345.33,-345.63C1391.83,-337.48 1448.52,-323.96 1463,-305 1485.58,-275.43 1460.62,-243.35 1425,-220 1371.69,-185.05 1189.6,-177.37 1092.37,-175.8"/>
<polygon fill="#63b8ff" stroke="#63b8ff" points="1344.55,-342.22 1335.28,-347.34 1345.73,-349.12 1344.55,-342.22"/>
</g>
<!-- Node27&#45;&gt;Node20 -->
<g id="edge44" class="edge">
<title>Node27&#45;&gt;Node20</title>
<path fill="none" stroke="#63b8ff" d="M1345.41,-353.4C1381.54,-348.75 1423.71,-336.29 1447,-305 1464.46,-281.54 1431.59,-262.21 1400.59,-250.04"/>
<polygon fill="#63b8ff" stroke="#63b8ff" points="1344.95,-349.93 1335.4,-354.52 1345.72,-356.89 1344.95,-349.93"/>
</g>
<!-- Node27&#45;&gt;Node21 -->
<g id="edge45" class="edge">
<title>Node27&#45;&gt;Node21</title>
<path fill="none" stroke="#63b8ff" d="M1251.09,-335.1C1236.34,-324.95 1219.16,-313.13 1207.74,-305.27"/>
<polygon fill="#63b8ff" stroke="#63b8ff" points="1249.2,-338.05 1259.42,-340.84 1253.17,-332.29 1249.2,-338.05"/>
</g>
<!-- Node27&#45;&gt;Node24 -->
<g id="edge46" class="edge">
<title>Node27&#45;&gt;Node24</title>
<path fill="none" stroke="#63b8ff" d="M1214.84,-340.28C1165.66,-329.17 1099.87,-314.31 1058.98,-305.08"/>
<polygon fill="#63b8ff" stroke="#63b8ff" points="1214.23,-343.73 1224.76,-342.52 1215.77,-336.9 1214.23,-343.73"/>
</g>
<!-- Node27&#45;&gt;Node25 -->
<g id="edge47" class="edge">
<title>Node27&#45;&gt;Node25</title>
<path fill="none" stroke="#63b8ff" d="M1308.91,-335.1C1323.66,-324.95 1340.84,-313.13 1352.26,-305.27"/>
<polygon fill="#63b8ff" stroke="#63b8ff" points="1306.83,-332.29 1300.58,-340.84 1310.8,-338.05 1306.83,-332.29"/>
</g>
</g>
</svg>
