<?xml version="1.0" encoding="UTF-8" standalone="no"?>
<!DOCTYPE svg PUBLIC "-//W3C//DTD SVG 1.1//EN"
 "http://www.w3.org/Graphics/SVG/1.1/DTD/svg11.dtd">
<!-- Generated by graphviz version 2.43.0 (0)
 -->
<!-- Title: src/apps/js_v8/v8_runner.h Pages: 1 -->
<svg width="603pt" height="82pt"
 viewBox="0.00 0.00 603.00 82.00" xmlns="http://www.w3.org/2000/svg" xmlns:xlink="http://www.w3.org/1999/xlink">
<g id="graph0" class="graph" transform="scale(1 1) rotate(0) translate(4 78)">
<title>src/apps/js_v8/v8_runner.h</title>
<!-- Node1 -->
<g id="node1" class="node">
<title>Node1</title>
<g id="a_node1"><a xlink:title=" ">
<polygon fill="#999999" stroke="#666666" points="375.5,-74 229.5,-74 229.5,-55 375.5,-55 375.5,-74"/>
<text text-anchor="middle" x="302.5" y="-62" font-family="Helvetica,sans-Serif" font-size="10.00">src/apps/js_v8/v8_runner.h</text>
</a>
</g>
</g>
<!-- Node2 -->
<g id="node2" class="node">
<title>Node2</title>
<g id="a_node2"><a xlink:title=" ">
<polygon fill="#e0e0e0" stroke="#999999" points="65,-19 0,-19 0,0 65,0 65,-19"/>
<text text-anchor="middle" x="32.5" y="-7" font-family="Helvetica,sans-Serif" font-size="10.00">functional</text>
</a>
</g>
</g>
<!-- Node1&#45;&gt;Node2 -->
<g id="edge1" class="edge">
<title>Node1&#45;&gt;Node2</title>
<path fill="none" stroke="#63b8ff" d="M258.35,-54.98C214.47,-46.48 144.98,-32.98 74.94,-19.08"/>
<polygon fill="#63b8ff" stroke="#63b8ff" points="75.55,-15.63 65.05,-17.11 74.18,-22.49 75.55,-15.63"/>
</g>
<!-- Node3 -->
<g id="node3" class="node">
<title>Node3</title>
<g id="a_node3"><a xlink:title=" ">
<polygon fill="#e0e0e0" stroke="#999999" points="141.5,-19 83.5,-19 83.5,0 141.5,0 141.5,-19"/>
<text text-anchor="middle" x="112.5" y="-7" font-family="Helvetica,sans-Serif" font-size="10.00">memory</text>
</a>
</g>
</g>
<!-- Node1&#45;&gt;Node3 -->
<g id="edge2" class="edge">
<title>Node1&#45;&gt;Node3</title>
<path fill="none" stroke="#63b8ff" d="M271.97,-54.98C239.32,-45.88 187.43,-31.4 151.76,-21.45"/>
<polygon fill="#63b8ff" stroke="#63b8ff" points="152.28,-17.96 141.7,-18.65 150.39,-24.7 152.28,-17.96"/>
</g>
<!-- Node4 -->
<g id="node4" class="node">
<title>Node4</title>
<g id="a_node4"><a xlink:title=" ">
<polygon fill="#e0e0e0" stroke="#999999" points="215.5,-19 159.5,-19 159.5,0 215.5,0 215.5,-19"/>
<text text-anchor="middle" x="187.5" y="-7" font-family="Helvetica,sans-Serif" font-size="10.00">optional</text>
</a>
</g>
</g>
<!-- Node1&#45;&gt;Node4 -->
<g id="edge3" class="edge">
<title>Node1&#45;&gt;Node4</title>
<path fill="none" stroke="#63b8ff" d="M284.02,-54.98C265.52,-46.46 236.82,-33.23 215.52,-23.41"/>
<polygon fill="#63b8ff" stroke="#63b8ff" points="216.86,-20.18 206.31,-19.17 213.93,-26.53 216.86,-20.18"/>
</g>
<!-- Node5 -->
<g id="node5" class="node">
<title>Node5</title>
<g id="a_node5"><a xlink:title=" ">
<polygon fill="#e0e0e0" stroke="#999999" points="299,-19 234,-19 234,0 299,0 299,-19"/>
<text text-anchor="middle" x="266.5" y="-7" font-family="Helvetica,sans-Serif" font-size="10.00">stdexcept</text>
</a>
</g>
</g>
<!-- Node1&#45;&gt;Node5 -->
<g id="edge4" class="edge">
<title>Node1&#45;&gt;Node5</title>
<path fill="none" stroke="#63b8ff" d="M296.56,-54.75C291.52,-47.34 284.16,-36.5 277.99,-27.41"/>
<polygon fill="#63b8ff" stroke="#63b8ff" points="280.85,-25.39 272.33,-19.09 275.06,-29.33 280.85,-25.39"/>
</g>
<!-- Node6 -->
<g id="node6" class="node">
<title>Node6</title>
<g id="a_node6"><a xlink:title=" ">
<polygon fill="#e0e0e0" stroke="#999999" points="361.5,-19 317.5,-19 317.5,0 361.5,0 361.5,-19"/>
<text text-anchor="middle" x="339.5" y="-7" font-family="Helvetica,sans-Serif" font-size="10.00">string</text>
</a>
</g>
</g>
<!-- Node1&#45;&gt;Node6 -->
<g id="edge5" class="edge">
<title>Node1&#45;&gt;Node6</title>
<path fill="none" stroke="#63b8ff" d="M308.61,-54.75C313.78,-47.34 321.35,-36.5 327.69,-27.41"/>
<polygon fill="#63b8ff" stroke="#63b8ff" points="330.65,-29.29 333.5,-19.09 324.91,-25.29 330.65,-29.29"/>
</g>
<!-- Node7 -->
<g id="node7" class="node">
<title>Node7</title>
<g id="a_node7"><a xlink:title=" ">
<polygon fill="#e0e0e0" stroke="#999999" points="473,-19 380,-19 380,0 473,0 473,-19"/>
<text text-anchor="middle" x="426.5" y="-7" font-family="Helvetica,sans-Serif" font-size="10.00">unordered_map</text>
</a>
</g>
</g>
<!-- Node1&#45;&gt;Node7 -->
<g id="edge6" class="edge">
<title>Node1&#45;&gt;Node7</title>
<path fill="none" stroke="#63b8ff" d="M322.42,-54.98C342.55,-46.38 373.88,-32.99 396.91,-23.15"/>
<polygon fill="#63b8ff" stroke="#63b8ff" points="398.4,-26.32 406.21,-19.17 395.64,-19.88 398.4,-26.32"/>
</g>
<!-- Node8 -->
<g id="node8" class="node">
<title>Node8</title>
<g id="a_node8"><a xlink:title=" ">
<polygon fill="#e0e0e0" stroke="#999999" points="529.5,-19 491.5,-19 491.5,0 529.5,0 529.5,-19"/>
<text text-anchor="middle" x="510.5" y="-7" font-family="Helvetica,sans-Serif" font-size="10.00">v8.h</text>
</a>
</g>
</g>
<!-- Node1&#45;&gt;Node8 -->
<g id="edge7" class="edge">
<title>Node1&#45;&gt;Node8</title>
<path fill="none" stroke="#63b8ff" d="M339.53,-54.94C373.96,-46.86 426.88,-34.09 481.42,-19.19"/>
<polygon fill="#63b8ff" stroke="#63b8ff" points="482.55,-22.51 491.26,-16.49 480.69,-15.76 482.55,-22.51"/>
</g>
<!-- Node9 -->
<g id="node9" class="node">
<title>Node9</title>
<g id="a_node9"><a xlink:title=" ">
<polygon fill="#e0e0e0" stroke="#999999" points="595,-19 548,-19 548,0 595,0 595,-19"/>
<text text-anchor="middle" x="571.5" y="-7" font-family="Helvetica,sans-Serif" font-size="10.00">vector</text>
</a>
</g>
</g>
<!-- Node1&#45;&gt;Node9 -->
<g id="edge8" class="edge">
<title>Node1&#45;&gt;Node9</title>
<path fill="none" stroke="#63b8ff" d="M352.88,-54.99C398.64,-47.04 468.21,-34.39 537.92,-19"/>
<polygon fill="#63b8ff" stroke="#63b8ff" points="538.75,-22.41 547.75,-16.82 537.23,-15.57 538.75,-22.41"/>
</g>
</g>
</svg>
