<?xml version="1.0" encoding="UTF-8" standalone="no"?>
<!DOCTYPE svg PUBLIC "-//W3C//DTD SVG 1.1//EN"
 "http://www.w3.org/Graphics/SVG/1.1/DTD/svg11.dtd">
<!-- Generated by graphviz version 2.43.0 (0)
 -->
<!-- Title: src/apps/js_v8/v8_oe_stubs.cpp Pages: 1 -->
<svg width="1099pt" height="203pt"
 viewBox="0.00 0.00 1098.50 203.00" xmlns="http://www.w3.org/2000/svg" xmlns:xlink="http://www.w3.org/1999/xlink">
<g id="graph0" class="graph" transform="scale(1 1) rotate(0) translate(4 199)">
<title>src/apps/js_v8/v8_oe_stubs.cpp</title>
<!-- Node1 -->
<g id="node1" class="node">
<title>Node1</title>
<g id="a_node1"><a xlink:title=" ">
<polygon fill="#999999" stroke="#666666" points="905,-195 787,-195 787,-165 905,-165 905,-195"/>
<text text-anchor="start" x="795" y="-183" font-family="Helvetica,sans-Serif" font-size="10.00">src/apps/js_v8/v8_oe</text>
<text text-anchor="middle" x="846" y="-172" font-family="Helvetica,sans-Serif" font-size="10.00">_stubs.cpp</text>
</a>
</g>
</g>
<!-- Node2 -->
<g id="node2" class="node">
<title>Node2</title>
<g id="a_node2"><a xlink:href="logger_8h.html" target="_top" xlink:title=" ">
<polygon fill="white" stroke="#666666" points="546.5,-129 459.5,-129 459.5,-110 546.5,-110 546.5,-129"/>
<text text-anchor="middle" x="503" y="-117" font-family="Helvetica,sans-Serif" font-size="10.00">ccf/ds/logger.h</text>
</a>
</g>
</g>
<!-- Node1&#45;&gt;Node2 -->
<g id="edge1" class="edge">
<title>Node1&#45;&gt;Node2</title>
<path fill="none" stroke="#63b8ff" d="M786.65,-168.88C721.89,-157.83 619.16,-140.31 556.72,-129.66"/>
<polygon fill="#63b8ff" stroke="#63b8ff" points="557.13,-126.18 546.68,-127.95 555.95,-133.08 557.13,-126.18"/>
</g>
<!-- Node17 -->
<g id="node17" class="node">
<title>Node17</title>
<g id="a_node17"><a xlink:title=" ">
<polygon fill="#e0e0e0" stroke="#999999" points="744.5,-129 681.5,-129 681.5,-110 744.5,-110 744.5,-129"/>
<text text-anchor="middle" x="713" y="-117" font-family="Helvetica,sans-Serif" font-size="10.00">pthread.h</text>
</a>
</g>
</g>
<!-- Node1&#45;&gt;Node17 -->
<g id="edge18" class="edge">
<title>Node1&#45;&gt;Node17</title>
<path fill="none" stroke="#63b8ff" d="M814.14,-164.99C792.15,-155.31 763.15,-142.56 741.84,-133.18"/>
<polygon fill="#63b8ff" stroke="#63b8ff" points="743.2,-129.96 732.64,-129.14 740.39,-136.37 743.2,-129.96"/>
</g>
<!-- Node18 -->
<g id="node18" class="node">
<title>Node18</title>
<g id="a_node18"><a xlink:title=" ">
<polygon fill="#e0e0e0" stroke="#999999" points="843,-129 763,-129 763,-110 843,-110 843,-129"/>
<text text-anchor="middle" x="803" y="-117" font-family="Helvetica,sans-Serif" font-size="10.00">semaphore.h</text>
</a>
</g>
</g>
<!-- Node1&#45;&gt;Node18 -->
<g id="edge19" class="edge">
<title>Node1&#45;&gt;Node18</title>
<path fill="none" stroke="#63b8ff" d="M835.59,-164.84C829.54,-156.61 821.88,-146.18 815.5,-137.51"/>
<polygon fill="#63b8ff" stroke="#63b8ff" points="818.19,-135.25 809.44,-129.27 812.55,-139.4 818.19,-135.25"/>
</g>
<!-- Node19 -->
<g id="node19" class="node">
<title>Node19</title>
<g id="a_node19"><a xlink:href="signal_8h.html" target="_top" xlink:title=" ">
<polygon fill="white" stroke="#666666" points="916.5,-129 861.5,-129 861.5,-110 916.5,-110 916.5,-129"/>
<text text-anchor="middle" x="889" y="-117" font-family="Helvetica,sans-Serif" font-size="10.00">signal.h</text>
</a>
</g>
</g>
<!-- Node1&#45;&gt;Node19 -->
<g id="edge20" class="edge">
<title>Node1&#45;&gt;Node19</title>
<path fill="none" stroke="#63b8ff" d="M856.41,-164.84C862.46,-156.61 870.12,-146.18 876.5,-137.51"/>
<polygon fill="#63b8ff" stroke="#63b8ff" points="879.45,-139.4 882.56,-129.27 873.81,-135.25 879.45,-139.4"/>
</g>
<!-- Node24 -->
<g id="node24" class="node">
<title>Node24</title>
<g id="a_node24"><a xlink:title=" ">
<polygon fill="#e0e0e0" stroke="#999999" points="985,-129 935,-129 935,-110 985,-110 985,-129"/>
<text text-anchor="middle" x="960" y="-117" font-family="Helvetica,sans-Serif" font-size="10.00">stdio.h</text>
</a>
</g>
</g>
<!-- Node1&#45;&gt;Node24 -->
<g id="edge25" class="edge">
<title>Node1&#45;&gt;Node24</title>
<path fill="none" stroke="#63b8ff" d="M873.31,-164.99C891.65,-155.58 915.68,-143.24 933.79,-133.95"/>
<polygon fill="#63b8ff" stroke="#63b8ff" points="935.87,-136.82 943.16,-129.14 932.67,-130.59 935.87,-136.82"/>
</g>
<!-- Node25 -->
<g id="node25" class="node">
<title>Node25</title>
<g id="a_node25"><a xlink:title=" ">
<polygon fill="#e0e0e0" stroke="#999999" points="1090.5,-129 1003.5,-129 1003.5,-110 1090.5,-110 1090.5,-129"/>
<text text-anchor="middle" x="1047" y="-117" font-family="Helvetica,sans-Serif" font-size="10.00">sys/resource.h</text>
</a>
</g>
</g>
<!-- Node1&#45;&gt;Node25 -->
<g id="edge26" class="edge">
<title>Node1&#45;&gt;Node25</title>
<path fill="none" stroke="#63b8ff" d="M894.14,-164.99C928.98,-154.85 975.47,-141.32 1007.99,-131.85"/>
<polygon fill="#63b8ff" stroke="#63b8ff" points="1008.99,-135.21 1017.61,-129.05 1007.03,-128.49 1008.99,-135.21"/>
</g>
<!-- Node3 -->
<g id="node3" class="node">
<title>Node3</title>
<g id="a_node3"><a xlink:href="enum__formatter_8h.html" target="_top" xlink:title=" ">
<polygon fill="white" stroke="#666666" points="136,-74 0,-74 0,-55 136,-55 136,-74"/>
<text text-anchor="middle" x="68" y="-62" font-family="Helvetica,sans-Serif" font-size="10.00">ccf/ds/enum_formatter.h</text>
</a>
</g>
</g>
<!-- Node2&#45;&gt;Node3 -->
<g id="edge2" class="edge">
<title>Node2&#45;&gt;Node3</title>
<path fill="none" stroke="#63b8ff" d="M459.3,-113.18C386.1,-104.26 237.73,-86.18 146.2,-75.03"/>
<polygon fill="#63b8ff" stroke="#63b8ff" points="146.5,-71.54 136.15,-73.8 145.66,-78.49 146.5,-71.54"/>
</g>
<!-- Node4 -->
<g id="node4" class="node">
<title>Node4</title>
<g id="a_node4"><a xlink:title=" ">
<polygon fill="#e0e0e0" stroke="#999999" points="100.5,-19 21.5,-19 21.5,0 100.5,0 100.5,-19"/>
<text text-anchor="middle" x="61" y="-7" font-family="Helvetica,sans-Serif" font-size="10.00">fmt/format.h</text>
</a>
</g>
</g>
<!-- Node2&#45;&gt;Node4 -->
<g id="edge12" class="edge">
<title>Node2&#45;&gt;Node4</title>
<path fill="none" stroke="#63b8ff" d="M459.38,-116.71C397.85,-113.2 282.61,-103.02 189,-74 168.39,-67.61 116.66,-40.57 85.64,-23.9"/>
<polygon fill="#63b8ff" stroke="#63b8ff" points="87.2,-20.77 76.74,-19.1 83.87,-26.93 87.2,-20.77"/>
</g>
<!-- Node5 -->
<g id="node5" class="node">
<title>Node5</title>
<g id="a_node5"><a xlink:href="thread__ids_8h.html" target="_top" xlink:title=" ">
<polygon fill="white" stroke="#666666" points="306,-74 198,-74 198,-55 306,-55 306,-74"/>
<text text-anchor="middle" x="252" y="-62" font-family="Helvetica,sans-Serif" font-size="10.00">ccf/ds/thread_ids.h</text>
</a>
</g>
</g>
<!-- Node2&#45;&gt;Node5 -->
<g id="edge4" class="edge">
<title>Node2&#45;&gt;Node5</title>
<path fill="none" stroke="#63b8ff" d="M462.67,-109.98C419.16,-100.8 349.8,-86.15 302.65,-76.19"/>
<polygon fill="#63b8ff" stroke="#63b8ff" points="303.15,-72.72 292.64,-74.08 301.7,-79.57 303.15,-72.72"/>
</g>
<!-- Node11 -->
<g id="node11" class="node">
<title>Node11</title>
<g id="a_node11"><a xlink:title=" ">
<polygon fill="#e0e0e0" stroke="#999999" points="403.5,-74 324.5,-74 324.5,-55 403.5,-55 403.5,-74"/>
<text text-anchor="middle" x="364" y="-62" font-family="Helvetica,sans-Serif" font-size="10.00">fmt/chrono.h</text>
</a>
</g>
</g>
<!-- Node2&#45;&gt;Node11 -->
<g id="edge11" class="edge">
<title>Node2&#45;&gt;Node11</title>
<path fill="none" stroke="#63b8ff" d="M480.67,-109.98C457.8,-101.27 422.04,-87.63 396.14,-77.75"/>
<polygon fill="#63b8ff" stroke="#63b8ff" points="397.33,-74.46 386.74,-74.17 394.84,-81 397.33,-74.46"/>
</g>
<!-- Node12 -->
<g id="node12" class="node">
<title>Node12</title>
<g id="a_node12"><a xlink:title=" ">
<polygon fill="#e0e0e0" stroke="#999999" points="481,-74 421,-74 421,-55 481,-55 481,-74"/>
<text text-anchor="middle" x="451" y="-62" font-family="Helvetica,sans-Serif" font-size="10.00">iostream</text>
</a>
</g>
</g>
<!-- Node2&#45;&gt;Node12 -->
<g id="edge13" class="edge">
<title>Node2&#45;&gt;Node12</title>
<path fill="none" stroke="#63b8ff" d="M494.41,-109.75C486.84,-102.03 475.62,-90.6 466.49,-81.28"/>
<polygon fill="#63b8ff" stroke="#63b8ff" points="468.93,-78.78 459.43,-74.09 463.93,-83.68 468.93,-78.78"/>
</g>
<!-- Node13 -->
<g id="node13" class="node">
<title>Node13</title>
<g id="a_node13"><a xlink:title=" ">
<polygon fill="#e0e0e0" stroke="#999999" points="609,-74 499,-74 499,-55 609,-55 609,-74"/>
<text text-anchor="middle" x="554" y="-62" font-family="Helvetica,sans-Serif" font-size="10.00">nlohmann/json.hpp</text>
</a>
</g>
</g>
<!-- Node2&#45;&gt;Node13 -->
<g id="edge14" class="edge">
<title>Node2&#45;&gt;Node13</title>
<path fill="none" stroke="#63b8ff" d="M511.42,-109.75C518.77,-102.11 529.63,-90.82 538.54,-81.56"/>
<polygon fill="#63b8ff" stroke="#63b8ff" points="541.32,-83.72 545.74,-74.09 536.28,-78.87 541.32,-83.72"/>
</g>
<!-- Node14 -->
<g id="node14" class="node">
<title>Node14</title>
<g id="a_node14"><a xlink:title=" ">
<polygon fill="#e0e0e0" stroke="#999999" points="683,-74 627,-74 627,-55 683,-55 683,-74"/>
<text text-anchor="middle" x="655" y="-62" font-family="Helvetica,sans-Serif" font-size="10.00">optional</text>
</a>
</g>
</g>
<!-- Node2&#45;&gt;Node14 -->
<g id="edge15" class="edge">
<title>Node2&#45;&gt;Node14</title>
<path fill="none" stroke="#63b8ff" d="M527.42,-109.98C552.72,-101.16 592.45,-87.31 620.86,-77.41"/>
<polygon fill="#63b8ff" stroke="#63b8ff" points="622.1,-80.68 630.39,-74.08 619.79,-74.07 622.1,-80.68"/>
</g>
<!-- Node15 -->
<g id="node15" class="node">
<title>Node15</title>
<g id="a_node15"><a xlink:title=" ">
<polygon fill="#e0e0e0" stroke="#999999" points="757,-74 701,-74 701,-55 757,-55 757,-74"/>
<text text-anchor="middle" x="729" y="-62" font-family="Helvetica,sans-Serif" font-size="10.00">sstream</text>
</a>
</g>
</g>
<!-- Node2&#45;&gt;Node15 -->
<g id="edge16" class="edge">
<title>Node2&#45;&gt;Node15</title>
<path fill="none" stroke="#63b8ff" d="M539.31,-109.98C580.92,-100.23 648.81,-84.31 691.08,-74.39"/>
<polygon fill="#63b8ff" stroke="#63b8ff" points="692.05,-77.76 700.99,-72.07 690.45,-70.94 692.05,-77.76"/>
</g>
<!-- Node16 -->
<g id="node16" class="node">
<title>Node16</title>
<g id="a_node16"><a xlink:title=" ">
<polygon fill="#e0e0e0" stroke="#999999" points="844.5,-74 775.5,-74 775.5,-55 844.5,-55 844.5,-74"/>
<text text-anchor="middle" x="810" y="-62" font-family="Helvetica,sans-Serif" font-size="10.00">type_traits</text>
</a>
</g>
</g>
<!-- Node2&#45;&gt;Node16 -->
<g id="edge17" class="edge">
<title>Node2&#45;&gt;Node16</title>
<path fill="none" stroke="#63b8ff" d="M546.8,-111.41C597.05,-103.2 682.19,-89.08 765.54,-74.05"/>
<polygon fill="#63b8ff" stroke="#63b8ff" points="766.21,-77.48 775.43,-72.26 764.96,-70.59 766.21,-77.48"/>
</g>
<!-- Node3&#45;&gt;Node4 -->
<g id="edge3" class="edge">
<title>Node3&#45;&gt;Node4</title>
<path fill="none" stroke="#63b8ff" d="M66.84,-54.75C65.93,-47.8 64.61,-37.85 63.46,-29.13"/>
<polygon fill="#63b8ff" stroke="#63b8ff" points="66.91,-28.54 62.13,-19.09 59.97,-29.46 66.91,-28.54"/>
</g>
<!-- Node5&#45;&gt;Node4 -->
<g id="edge5" class="edge">
<title>Node5&#45;&gt;Node4</title>
<path fill="none" stroke="#63b8ff" d="M221.31,-54.98C188.83,-45.97 137.4,-31.7 101.59,-21.76"/>
<polygon fill="#63b8ff" stroke="#63b8ff" points="102.5,-18.38 91.93,-19.08 100.63,-25.13 102.5,-18.38"/>
</g>
<!-- Node6 -->
<g id="node6" class="node">
<title>Node6</title>
<g id="a_node6"><a xlink:title=" ">
<polygon fill="#e0e0e0" stroke="#999999" points="205,-19 119,-19 119,0 205,0 205,-19"/>
<text text-anchor="middle" x="162" y="-7" font-family="Helvetica,sans-Serif" font-size="10.00">fmt/ostream.h</text>
</a>
</g>
</g>
<!-- Node5&#45;&gt;Node6 -->
<g id="edge6" class="edge">
<title>Node5&#45;&gt;Node6</title>
<path fill="none" stroke="#63b8ff" d="M237.54,-54.98C223.58,-46.77 202.21,-34.18 185.75,-24.49"/>
<polygon fill="#63b8ff" stroke="#63b8ff" points="187.12,-21.23 176.72,-19.17 183.56,-27.26 187.12,-21.23"/>
</g>
<!-- Node7 -->
<g id="node7" class="node">
<title>Node7</title>
<g id="a_node7"><a xlink:title=" ">
<polygon fill="#e0e0e0" stroke="#999999" points="284.5,-19 223.5,-19 223.5,0 284.5,0 284.5,-19"/>
<text text-anchor="middle" x="254" y="-7" font-family="Helvetica,sans-Serif" font-size="10.00">fmt/std.h</text>
</a>
</g>
</g>
<!-- Node5&#45;&gt;Node7 -->
<g id="edge7" class="edge">
<title>Node5&#45;&gt;Node7</title>
<path fill="none" stroke="#63b8ff" d="M252.33,-54.75C252.59,-47.8 252.97,-37.85 253.3,-29.13"/>
<polygon fill="#63b8ff" stroke="#63b8ff" points="256.8,-29.21 253.68,-19.09 249.8,-28.95 256.8,-29.21"/>
</g>
<!-- Node8 -->
<g id="node8" class="node">
<title>Node8</title>
<g id="a_node8"><a xlink:title=" ">
<polygon fill="#e0e0e0" stroke="#999999" points="347,-19 303,-19 303,0 347,0 347,-19"/>
<text text-anchor="middle" x="325" y="-7" font-family="Helvetica,sans-Serif" font-size="10.00">limits</text>
</a>
</g>
</g>
<!-- Node5&#45;&gt;Node8 -->
<g id="edge8" class="edge">
<title>Node5&#45;&gt;Node8</title>
<path fill="none" stroke="#63b8ff" d="M263.73,-54.98C274.73,-47 291.42,-34.88 304.6,-25.31"/>
<polygon fill="#63b8ff" stroke="#63b8ff" points="307.02,-27.88 313.06,-19.17 302.91,-22.21 307.02,-27.88"/>
</g>
<!-- Node9 -->
<g id="node9" class="node">
<title>Node9</title>
<g id="a_node9"><a xlink:title=" ">
<polygon fill="#e0e0e0" stroke="#999999" points="403,-19 365,-19 365,0 403,0 403,-19"/>
<text text-anchor="middle" x="384" y="-7" font-family="Helvetica,sans-Serif" font-size="10.00">map</text>
</a>
</g>
</g>
<!-- Node5&#45;&gt;Node9 -->
<g id="edge9" class="edge">
<title>Node5&#45;&gt;Node9</title>
<path fill="none" stroke="#63b8ff" d="M273.21,-54.98C295.5,-46.03 330.69,-31.9 355.42,-21.97"/>
<polygon fill="#63b8ff" stroke="#63b8ff" points="357.01,-25.11 364.99,-18.13 354.4,-18.61 357.01,-25.11"/>
</g>
<!-- Node10 -->
<g id="node10" class="node">
<title>Node10</title>
<g id="a_node10"><a xlink:title=" ">
<polygon fill="#e0e0e0" stroke="#999999" points="469,-19 421,-19 421,0 469,0 469,-19"/>
<text text-anchor="middle" x="445" y="-7" font-family="Helvetica,sans-Serif" font-size="10.00">thread</text>
</a>
</g>
</g>
<!-- Node5&#45;&gt;Node10 -->
<g id="edge10" class="edge">
<title>Node5&#45;&gt;Node10</title>
<path fill="none" stroke="#63b8ff" d="M283.01,-54.98C317.92,-45.4 374.49,-29.86 410.7,-19.92"/>
<polygon fill="#63b8ff" stroke="#63b8ff" points="412.07,-23.17 420.79,-17.15 410.22,-16.42 412.07,-23.17"/>
</g>
<!-- Node20 -->
<g id="node20" class="node">
<title>Node20</title>
<g id="a_node20"><a xlink:href="proxy_8h.html" target="_top" xlink:title=" ">
<polygon fill="white" stroke="#666666" points="915,-74 863,-74 863,-55 915,-55 915,-74"/>
<text text-anchor="middle" x="889" y="-62" font-family="Helvetica,sans-Serif" font-size="10.00">proxy.h</text>
</a>
</g>
</g>
<!-- Node19&#45;&gt;Node20 -->
<g id="edge21" class="edge">
<title>Node19&#45;&gt;Node20</title>
<path fill="none" stroke="#63b8ff" d="M889,-109.75C889,-102.8 889,-92.85 889,-84.13"/>
<polygon fill="#63b8ff" stroke="#63b8ff" points="892.5,-84.09 889,-74.09 885.5,-84.09 892.5,-84.09"/>
</g>
<!-- Node23 -->
<g id="node23" class="node">
<title>Node23</title>
<g id="a_node23"><a xlink:title=" ">
<polygon fill="#e0e0e0" stroke="#999999" points="983,-74 933,-74 933,-55 983,-55 983,-74"/>
<text text-anchor="middle" x="958" y="-62" font-family="Helvetica,sans-Serif" font-size="10.00">chrono</text>
</a>
</g>
</g>
<!-- Node19&#45;&gt;Node23 -->
<g id="edge24" class="edge">
<title>Node19&#45;&gt;Node23</title>
<path fill="none" stroke="#63b8ff" d="M900.09,-109.98C910.49,-102 926.26,-89.88 938.72,-80.31"/>
<polygon fill="#63b8ff" stroke="#63b8ff" points="940.91,-83.04 946.71,-74.17 936.65,-77.49 940.91,-83.04"/>
</g>
<!-- Node21 -->
<g id="node21" class="node">
<title>Node21</title>
<g id="a_node21"><a xlink:title=" ">
<polygon fill="#e0e0e0" stroke="#999999" points="885,-19 827,-19 827,0 885,0 885,-19"/>
<text text-anchor="middle" x="856" y="-7" font-family="Helvetica,sans-Serif" font-size="10.00">memory</text>
</a>
</g>
</g>
<!-- Node20&#45;&gt;Node21 -->
<g id="edge22" class="edge">
<title>Node20&#45;&gt;Node21</title>
<path fill="none" stroke="#63b8ff" d="M883.55,-54.75C878.99,-47.42 872.33,-36.73 866.71,-27.7"/>
<polygon fill="#63b8ff" stroke="#63b8ff" points="869.6,-25.73 861.35,-19.09 863.66,-29.43 869.6,-25.73"/>
</g>
<!-- Node22 -->
<g id="node22" class="node">
<title>Node22</title>
<g id="a_node22"><a xlink:title=" ">
<polygon fill="#e0e0e0" stroke="#999999" points="940.5,-19 903.5,-19 903.5,0 940.5,0 940.5,-19"/>
<text text-anchor="middle" x="922" y="-7" font-family="Helvetica,sans-Serif" font-size="10.00">uv.h</text>
</a>
</g>
</g>
<!-- Node20&#45;&gt;Node22 -->
<g id="edge23" class="edge">
<title>Node20&#45;&gt;Node22</title>
<path fill="none" stroke="#63b8ff" d="M894.45,-54.75C899.01,-47.42 905.67,-36.73 911.29,-27.7"/>
<polygon fill="#63b8ff" stroke="#63b8ff" points="914.34,-29.43 916.65,-19.09 908.4,-25.73 914.34,-29.43"/>
</g>
</g>
</svg>
