<?xml version="1.0" encoding="UTF-8" standalone="no"?>
<!DOCTYPE svg PUBLIC "-//W3C//DTD SVG 1.1//EN"
 "http://www.w3.org/Graphics/SVG/1.1/DTD/svg11.dtd">
<!-- Generated by graphviz version 2.43.0 (0)
 -->
<!-- Title: src/service/tables/view_change.h Pages: 1 -->
<!--zoomable 511 -->
<svg id="main" version="1.1" xmlns="http://www.w3.org/2000/svg" xmlns:xlink="http://www.w3.org/1999/xlink" xml:space="preserve" onload="init(evt)">
<style type="text/css"><![CDATA[
.edge:hover path { stroke: red; }
.edge:hover polygon { stroke: red; fill: red; }
]]></style>
<script type="text/javascript"><![CDATA[
var edges = document.getElementsByTagName('g');
if (edges && edges.length) {
  for (var i=0;i<edges.length;i++) {
    if (edges[i].id.substr(0,4)=='edge') {
      edges[i].setAttribute('class','edge');
    }
  }
}
]]></script>
        <defs>
                <circle id="rim" cx="0" cy="0" r="7"/>
                <circle id="rim2" cx="0" cy="0" r="3.5"/>
                <g id="zoomPlus">
                        <use xlink:href="#rim" fill="#404040">
                                <set attributeName="fill" to="#808080" begin="zoomplus.mouseover" end="zoomplus.mouseout"/>
                        </use>
                        <path d="M-4,0h8M0,-4v8" fill="none" stroke="white" stroke-width="1.5" pointer-events="none"/>
                </g>
                <g id="zoomMin">
                        <use xlink:href="#rim" fill="#404040">
                                <set attributeName="fill" to="#808080" begin="zoomminus.mouseover" end="zoomminus.mouseout"/>
                        </use>
                        <path d="M-4,0h8" fill="none" stroke="white" stroke-width="1.5" pointer-events="none"/>
                </g>
                <g id="dirArrow">
                        <path fill="none" stroke="white" stroke-width="1.5" d="M0,-3.0v7 M-2.5,-0.5L0,-3.0L2.5,-0.5"/>
                </g>
               <g id="resetDef">
                       <use xlink:href="#rim2" fill="#404040">
                               <set attributeName="fill" to="#808080" begin="reset.mouseover" end="reset.mouseout"/>
                       </use>
               </g>
        </defs>

<script type="text/javascript">
var viewWidth = 1640;
var viewHeight = 511;
var sectionId = 'dynsection-0';
</script>
<script xlink:href="svgpan.js"/>
<svg id="graph" class="graph">
<g id="viewport">
<title>src/service/tables/view_change.h</title>
<!-- Node1 -->
<g id="node1" class="node">
<title>Node1</title>
<g id="a_node1"><a xlink:title=" ">
<polygon fill="#999999" stroke="#666666" points="1097,-503 995,-503 995,-473 1097,-473 1097,-503"/>
<text text-anchor="start" x="1003" y="-491" font-family="Helvetica,sans-Serif" font-size="10.00">src/service/tables</text>
<text text-anchor="middle" x="1046" y="-480" font-family="Helvetica,sans-Serif" font-size="10.00">/view_change.h</text>
</a>
</g>
</g>
<!-- Node2 -->
<g id="node2" class="node">
<title>Node2</title>
<g id="a_node2"><a xlink:href="service_2map_8h.html" target="_top" xlink:title=" ">
<polygon fill="white" stroke="#666666" points="661.5,-437 558.5,-437 558.5,-418 661.5,-418 661.5,-437"/>
<text text-anchor="middle" x="610" y="-425" font-family="Helvetica,sans-Serif" font-size="10.00">ccf/service/map.h</text>
</a>
</g>
</g>
<!-- Node1&#45;&gt;Node2 -->
<g id="edge1" class="edge">
<title>Node1&#45;&gt;Node2</title>
<path fill="none" stroke="#63b8ff" d="M994.7,-480.12C914.15,-469.31 758.29,-448.4 671.72,-436.78"/>
<polygon fill="#63b8ff" stroke="#63b8ff" points="672.15,-433.31 661.78,-435.45 671.22,-440.25 672.15,-433.31"/>
</g>
<!-- Node5 -->
<g id="node5" class="node">
<title>Node5</title>
<g id="a_node5"><a xlink:title=" ">
<polygon fill="#e0e0e0" stroke="#999999" points="558,-19 514,-19 514,0 558,0 558,-19"/>
<text text-anchor="middle" x="536" y="-7" font-family="Helvetica,sans-Serif" font-size="10.00">string</text>
</a>
</g>
</g>
<!-- Node1&#45;&gt;Node5 -->
<g id="edge79" class="edge">
<title>Node1&#45;&gt;Node5</title>
<path fill="none" stroke="#63b8ff" d="M994.84,-486.89C784.84,-485.76 0,-474.76 0,-373.5 0,-373.5 0,-373.5 0,-118.5 0,-15.16 387.71,-9.48 503.64,-10.09"/>
<polygon fill="#63b8ff" stroke="#63b8ff" points="503.96,-13.59 513.99,-10.17 504.01,-6.59 503.96,-13.59"/>
</g>
<!-- Node18 -->
<g id="node18" class="node">
<title>Node18</title>
<g id="a_node18"><a xlink:title=" ">
<polygon fill="#e0e0e0" stroke="#999999" points="1411.5,-19 1364.5,-19 1364.5,0 1411.5,0 1411.5,-19"/>
<text text-anchor="middle" x="1388" y="-7" font-family="Helvetica,sans-Serif" font-size="10.00">vector</text>
</a>
</g>
</g>
<!-- Node1&#45;&gt;Node18 -->
<g id="edge80" class="edge">
<title>Node1&#45;&gt;Node18</title>
<path fill="none" stroke="#63b8ff" d="M1097.36,-482.29C1200.06,-471.44 1421,-440.33 1421,-373.5 1421,-373.5 1421,-373.5 1421,-118.5 1421,-85.63 1406.84,-49.49 1397.07,-28.46"/>
<polygon fill="#63b8ff" stroke="#63b8ff" points="1400.09,-26.66 1392.59,-19.18 1393.79,-29.71 1400.09,-26.66"/>
</g>
<!-- Node38 -->
<g id="node38" class="node">
<title>Node38</title>
<g id="a_node38"><a xlink:href="node__signature_8h.html" target="_top" xlink:title=" ">
<polygon fill="white" stroke="#666666" points="1550.5,-255.5 1449.5,-255.5 1449.5,-236.5 1550.5,-236.5 1550.5,-255.5"/>
<text text-anchor="middle" x="1500" y="-243.5" font-family="Helvetica,sans-Serif" font-size="10.00">node_signature.h</text>
</a>
</g>
</g>
<!-- Node1&#45;&gt;Node38 -->
<g id="edge61" class="edge">
<title>Node1&#45;&gt;Node38</title>
<path fill="none" stroke="#63b8ff" d="M1097.29,-486.94C1190.87,-485.79 1384.36,-478.33 1435,-437 1488.12,-393.65 1497.98,-304.78 1499.7,-265.91"/>
<polygon fill="#63b8ff" stroke="#63b8ff" points="1503.21,-265.66 1500.01,-255.55 1496.22,-265.45 1503.21,-265.66"/>
</g>
<!-- Node3 -->
<g id="node3" class="node">
<title>Node3</title>
<g id="a_node3"><a xlink:href="kv_2map_8h.html" target="_top" xlink:title=" ">
<polygon fill="white" stroke="#666666" points="493,-382 413,-382 413,-363 493,-363 493,-382"/>
<text text-anchor="middle" x="453" y="-370" font-family="Helvetica,sans-Serif" font-size="10.00">ccf/kv/map.h</text>
</a>
</g>
</g>
<!-- Node2&#45;&gt;Node3 -->
<g id="edge2" class="edge">
<title>Node2&#45;&gt;Node3</title>
<path fill="none" stroke="#63b8ff" d="M584.78,-417.98C558.64,-409.16 517.6,-395.31 488.27,-385.41"/>
<polygon fill="#63b8ff" stroke="#63b8ff" points="489.02,-381.96 478.42,-382.08 486.78,-388.6 489.02,-381.96"/>
</g>
<!-- Node33 -->
<g id="node33" class="node">
<title>Node33</title>
<g id="a_node33"><a xlink:href="set_8h.html" target="_top" xlink:title=" ">
<polygon fill="white" stroke="#666666" points="598.5,-382 525.5,-382 525.5,-363 598.5,-363 598.5,-382"/>
<text text-anchor="middle" x="562" y="-370" font-family="Helvetica,sans-Serif" font-size="10.00">ccf/kv/set.h</text>
</a>
</g>
</g>
<!-- Node2&#45;&gt;Node33 -->
<g id="edge42" class="edge">
<title>Node2&#45;&gt;Node33</title>
<path fill="none" stroke="#63b8ff" d="M602.07,-417.75C595.15,-410.11 584.93,-398.82 576.55,-389.56"/>
<polygon fill="#63b8ff" stroke="#63b8ff" points="579.09,-387.15 569.78,-382.09 573.9,-391.85 579.09,-387.15"/>
</g>
<!-- Node36 -->
<g id="node36" class="node">
<title>Node36</title>
<g id="a_node36"><a xlink:href="value_8h.html" target="_top" xlink:title=" ">
<polygon fill="white" stroke="#666666" points="701.5,-382 616.5,-382 616.5,-363 701.5,-363 701.5,-382"/>
<text text-anchor="middle" x="659" y="-370" font-family="Helvetica,sans-Serif" font-size="10.00">ccf/kv/value.h</text>
</a>
</g>
</g>
<!-- Node2&#45;&gt;Node36 -->
<g id="edge52" class="edge">
<title>Node2&#45;&gt;Node36</title>
<path fill="none" stroke="#63b8ff" d="M618.09,-417.75C625.16,-410.11 635.59,-398.82 644.15,-389.56"/>
<polygon fill="#63b8ff" stroke="#63b8ff" points="646.84,-391.81 651.06,-382.09 641.7,-387.06 646.84,-391.81"/>
</g>
<!-- Node4 -->
<g id="node4" class="node">
<title>Node4</title>
<g id="a_node4"><a xlink:href="get__name_8h.html" target="_top" xlink:title=" ">
<polygon fill="white" stroke="#666666" points="309.5,-321.5 202.5,-321.5 202.5,-302.5 309.5,-302.5 309.5,-321.5"/>
<text text-anchor="middle" x="256" y="-309.5" font-family="Helvetica,sans-Serif" font-size="10.00">ccf/kv/get_name.h</text>
</a>
</g>
</g>
<!-- Node3&#45;&gt;Node4 -->
<g id="edge3" class="edge">
<title>Node3&#45;&gt;Node4</title>
<path fill="none" stroke="#63b8ff" d="M424.35,-362.99C390.07,-352.81 332.52,-335.72 294.4,-324.4"/>
<polygon fill="#63b8ff" stroke="#63b8ff" points="295.26,-321.01 284.68,-321.52 293.27,-327.72 295.26,-321.01"/>
</g>
<!-- Node6 -->
<g id="node6" class="node">
<title>Node6</title>
<g id="a_node6"><a xlink:href="include_2ccf_2kv_2hooks_8h.html" target="_top" xlink:title=" ">
<polygon fill="white" stroke="#666666" points="381.5,-255.5 294.5,-255.5 294.5,-236.5 381.5,-236.5 381.5,-255.5"/>
<text text-anchor="middle" x="338" y="-243.5" font-family="Helvetica,sans-Serif" font-size="10.00">ccf/kv/hooks.h</text>
</a>
</g>
</g>
<!-- Node3&#45;&gt;Node6 -->
<g id="edge5" class="edge">
<title>Node3&#45;&gt;Node6</title>
<path fill="none" stroke="#63b8ff" d="M412.83,-369.96C316.85,-365.88 80.46,-353.24 57,-327 48.11,-317.06 48.44,-307.22 57,-297 85.36,-263.15 210.44,-252.2 283.81,-248.67"/>
<polygon fill="#63b8ff" stroke="#63b8ff" points="284.41,-252.14 294.25,-248.2 284.1,-245.15 284.41,-252.14"/>
</g>
<!-- Node10 -->
<g id="node10" class="node">
<title>Node10</title>
<g id="a_node10"><a xlink:href="map__handle_8h.html" target="_top" xlink:title=" ">
<polygon fill="white" stroke="#666666" points="184,-321.5 66,-321.5 66,-302.5 184,-302.5 184,-321.5"/>
<text text-anchor="middle" x="125" y="-309.5" font-family="Helvetica,sans-Serif" font-size="10.00">ccf/kv/map_handle.h</text>
</a>
</g>
</g>
<!-- Node3&#45;&gt;Node10 -->
<g id="edge9" class="edge">
<title>Node3&#45;&gt;Node10</title>
<path fill="none" stroke="#63b8ff" d="M412.56,-364.94C361.53,-356.57 271.13,-341.45 194,-327 188.23,-325.92 182.19,-324.75 176.19,-323.57"/>
<polygon fill="#63b8ff" stroke="#63b8ff" points="176.68,-320.09 166.19,-321.57 175.31,-326.96 176.68,-320.09"/>
</g>
<!-- Node22 -->
<g id="node22" class="node">
<title>Node22</title>
<g id="a_node22"><a xlink:href="blit__serialiser_8h.html" target="_top" xlink:title=" ">
<polygon fill="white" stroke="#666666" points="748.5,-327 649.5,-327 649.5,-297 748.5,-297 748.5,-327"/>
<text text-anchor="start" x="657.5" y="-315" font-family="Helvetica,sans-Serif" font-size="10.00">ccf/kv/serialisers</text>
<text text-anchor="middle" x="699" y="-304" font-family="Helvetica,sans-Serif" font-size="10.00">/blit_serialiser.h</text>
</a>
</g>
</g>
<!-- Node3&#45;&gt;Node22 -->
<g id="edge24" class="edge">
<title>Node3&#45;&gt;Node22</title>
<path fill="none" stroke="#63b8ff" d="M489.4,-362.93C525.21,-354.5 581.71,-341.15 639.32,-327.4"/>
<polygon fill="#63b8ff" stroke="#63b8ff" points="640.42,-330.73 649.33,-325 638.79,-323.92 640.42,-330.73"/>
</g>
<!-- Node29 -->
<g id="node29" class="node">
<title>Node29</title>
<g id="a_node29"><a xlink:href="json__serialiser_8h.html" target="_top" xlink:title=" ">
<polygon fill="white" stroke="#666666" points="1006.5,-327 907.5,-327 907.5,-297 1006.5,-297 1006.5,-327"/>
<text text-anchor="start" x="915.5" y="-315" font-family="Helvetica,sans-Serif" font-size="10.00">ccf/kv/serialisers</text>
<text text-anchor="middle" x="957" y="-304" font-family="Helvetica,sans-Serif" font-size="10.00">/json_serialiser.h</text>
</a>
</g>
</g>
<!-- Node3&#45;&gt;Node29 -->
<g id="edge34" class="edge">
<title>Node3&#45;&gt;Node29</title>
<path fill="none" stroke="#63b8ff" d="M493.26,-365.92C501.12,-364.89 509.32,-363.87 517,-363 683.22,-344.14 729.06,-354.66 897.47,-327.11"/>
<polygon fill="#63b8ff" stroke="#63b8ff" points="898.13,-330.55 907.42,-325.46 896.98,-323.64 898.13,-330.55"/>
</g>
<!-- Node31 -->
<g id="node31" class="node">
<title>Node31</title>
<g id="a_node31"><a xlink:href="untyped_8h.html" target="_top" xlink:title=" ">
<polygon fill="white" stroke="#666666" points="502,-321.5 404,-321.5 404,-302.5 502,-302.5 502,-321.5"/>
<text text-anchor="middle" x="453" y="-309.5" font-family="Helvetica,sans-Serif" font-size="10.00">ccf/kv/untyped.h</text>
</a>
</g>
</g>
<!-- Node3&#45;&gt;Node31 -->
<g id="edge37" class="edge">
<title>Node3&#45;&gt;Node31</title>
<path fill="none" stroke="#63b8ff" d="M453,-362.87C453,-354.75 453,-342.31 453,-331.89"/>
<polygon fill="#63b8ff" stroke="#63b8ff" points="456.5,-331.67 453,-321.67 449.5,-331.67 456.5,-331.67"/>
</g>
<!-- Node4&#45;&gt;Node5 -->
<g id="edge4" class="edge">
<title>Node4&#45;&gt;Node5</title>
<path fill="none" stroke="#63b8ff" d="M241.54,-302.26C212.96,-283.76 152,-237.65 152,-181 152,-181 152,-181 152,-118.5 152,-45.64 411.43,-19.59 503.81,-12.62"/>
<polygon fill="#63b8ff" stroke="#63b8ff" points="504.26,-16.1 513.98,-11.88 503.75,-9.12 504.26,-16.1"/>
</g>
<!-- Node7 -->
<g id="node7" class="node">
<title>Node7</title>
<g id="a_node7"><a xlink:href="version_8h.html" target="_top" xlink:title=" ">
<polygon fill="white" stroke="#666666" points="434,-189.5 340,-189.5 340,-170.5 434,-170.5 434,-189.5"/>
<text text-anchor="middle" x="387" y="-177.5" font-family="Helvetica,sans-Serif" font-size="10.00">ccf/kv/version.h</text>
</a>
</g>
</g>
<!-- Node6&#45;&gt;Node7 -->
<g id="edge6" class="edge">
<title>Node6&#45;&gt;Node7</title>
<path fill="none" stroke="#63b8ff" d="M344.61,-236.37C352.09,-226.59 364.47,-210.42 373.93,-198.08"/>
<polygon fill="#63b8ff" stroke="#63b8ff" points="376.88,-199.97 380.18,-189.91 371.32,-195.72 376.88,-199.97"/>
</g>
<!-- Node8 -->
<g id="node8" class="node">
<title>Node8</title>
<g id="a_node8"><a xlink:title=" ">
<polygon fill="#e0e0e0" stroke="#999999" points="321.5,-189.5 256.5,-189.5 256.5,-170.5 321.5,-170.5 321.5,-189.5"/>
<text text-anchor="middle" x="289" y="-177.5" font-family="Helvetica,sans-Serif" font-size="10.00">functional</text>
</a>
</g>
</g>
<!-- Node6&#45;&gt;Node8 -->
<g id="edge7" class="edge">
<title>Node6&#45;&gt;Node8</title>
<path fill="none" stroke="#63b8ff" d="M331.39,-236.37C323.91,-226.59 311.53,-210.42 302.07,-198.08"/>
<polygon fill="#63b8ff" stroke="#63b8ff" points="304.68,-195.72 295.82,-189.91 299.12,-199.97 304.68,-195.72"/>
</g>
<!-- Node9 -->
<g id="node9" class="node">
<title>Node9</title>
<g id="a_node9"><a xlink:title=" ">
<polygon fill="#e0e0e0" stroke="#999999" points="238,-189.5 180,-189.5 180,-170.5 238,-170.5 238,-189.5"/>
<text text-anchor="middle" x="209" y="-177.5" font-family="Helvetica,sans-Serif" font-size="10.00">memory</text>
</a>
</g>
</g>
<!-- Node6&#45;&gt;Node9 -->
<g id="edge8" class="edge">
<title>Node6&#45;&gt;Node9</title>
<path fill="none" stroke="#63b8ff" d="M320.6,-236.37C298.77,-225.54 261.11,-206.85 235.64,-194.22"/>
<polygon fill="#63b8ff" stroke="#63b8ff" points="237.05,-191.01 226.53,-189.7 233.94,-197.28 237.05,-191.01"/>
</g>
<!-- Node11 -->
<g id="node11" class="node">
<title>Node11</title>
<g id="a_node11"><a xlink:href="untyped__map__handle_8h.html" target="_top" xlink:title=" ">
<polygon fill="white" stroke="#666666" points="622,-261 506,-261 506,-231 622,-231 622,-261"/>
<text text-anchor="start" x="514" y="-249" font-family="Helvetica,sans-Serif" font-size="10.00">ccf/kv/untyped_map</text>
<text text-anchor="middle" x="564" y="-238" font-family="Helvetica,sans-Serif" font-size="10.00">_handle.h</text>
</a>
</g>
</g>
<!-- Node10&#45;&gt;Node11 -->
<g id="edge10" class="edge">
<title>Node10&#45;&gt;Node11</title>
<path fill="none" stroke="#63b8ff" d="M164.31,-302.45C173.99,-300.5 184.35,-298.55 194,-297 324.63,-276.02 361.38,-282.55 495.68,-261.12"/>
<polygon fill="#63b8ff" stroke="#63b8ff" points="496.64,-264.51 505.95,-259.45 495.52,-257.6 496.64,-264.51"/>
</g>
<!-- Node11&#45;&gt;Node5 -->
<g id="edge23" class="edge">
<title>Node11&#45;&gt;Node5</title>
<path fill="none" stroke="#63b8ff" d="M561.11,-230.61C559.19,-220.64 556.7,-207.05 555,-195 546.5,-134.82 540.2,-63.09 537.48,-29.55"/>
<polygon fill="#63b8ff" stroke="#63b8ff" points="540.96,-29.05 536.67,-19.36 533.98,-29.61 540.96,-29.05"/>
</g>
<!-- Node11&#45;&gt;Node7 -->
<g id="edge20" class="edge">
<title>Node11&#45;&gt;Node7</title>
<path fill="none" stroke="#63b8ff" d="M525.16,-230.95C493.71,-219.58 449.88,-203.74 420.09,-192.96"/>
<polygon fill="#63b8ff" stroke="#63b8ff" points="421.15,-189.63 410.56,-189.52 418.77,-196.21 421.15,-189.63"/>
</g>
<!-- Node11&#45;&gt;Node8 -->
<g id="edge21" class="edge">
<title>Node11&#45;&gt;Node8</title>
<path fill="none" stroke="#63b8ff" d="M505.95,-232.71C439.74,-218.67 339.49,-197.32 331,-195 328.38,-194.28 325.68,-193.5 322.98,-192.68"/>
<polygon fill="#63b8ff" stroke="#63b8ff" points="323.88,-189.29 313.29,-189.6 321.76,-195.96 323.88,-189.29"/>
</g>
<!-- Node12 -->
<g id="node12" class="node">
<title>Node12</title>
<g id="a_node12"><a xlink:href="abstract__handle_8h.html" target="_top" xlink:title=" ">
<polygon fill="white" stroke="#666666" points="700,-189.5 564,-189.5 564,-170.5 700,-170.5 700,-189.5"/>
<text text-anchor="middle" x="632" y="-177.5" font-family="Helvetica,sans-Serif" font-size="10.00">ccf/kv/abstract_handle.h</text>
</a>
</g>
</g>
<!-- Node11&#45;&gt;Node12 -->
<g id="edge11" class="edge">
<title>Node11&#45;&gt;Node12</title>
<path fill="none" stroke="#63b8ff" d="M579.09,-230.8C589.8,-220.72 604.17,-207.19 615.23,-196.78"/>
<polygon fill="#63b8ff" stroke="#63b8ff" points="617.72,-199.25 622.6,-189.84 612.92,-194.15 617.72,-199.25"/>
</g>
<!-- Node13 -->
<g id="node13" class="node">
<title>Node13</title>
<g id="a_node13"><a xlink:href="serialised__entry_8h.html" target="_top" xlink:title=" ">
<polygon fill="white" stroke="#666666" points="881.5,-195 776.5,-195 776.5,-165 881.5,-165 881.5,-195"/>
<text text-anchor="start" x="784.5" y="-183" font-family="Helvetica,sans-Serif" font-size="10.00">ccf/kv/serialisers</text>
<text text-anchor="middle" x="829" y="-172" font-family="Helvetica,sans-Serif" font-size="10.00">/serialised_entry.h</text>
</a>
</g>
</g>
<!-- Node11&#45;&gt;Node13 -->
<g id="edge12" class="edge">
<title>Node11&#45;&gt;Node13</title>
<path fill="none" stroke="#63b8ff" d="M622.16,-230.95C664.84,-220.65 722.75,-206.66 766.44,-196.11"/>
<polygon fill="#63b8ff" stroke="#63b8ff" points="767.48,-199.46 776.37,-193.71 765.83,-192.65 767.48,-199.46"/>
</g>
<!-- Node21 -->
<g id="node21" class="node">
<title>Node21</title>
<g id="a_node21"><a xlink:title=" ">
<polygon fill="#e0e0e0" stroke="#999999" points="508,-189.5 452,-189.5 452,-170.5 508,-170.5 508,-189.5"/>
<text text-anchor="middle" x="480" y="-177.5" font-family="Helvetica,sans-Serif" font-size="10.00">optional</text>
</a>
</g>
</g>
<!-- Node11&#45;&gt;Node21 -->
<g id="edge22" class="edge">
<title>Node11&#45;&gt;Node21</title>
<path fill="none" stroke="#63b8ff" d="M545.36,-230.8C531.88,-220.53 513.69,-206.67 499.92,-196.18"/>
<polygon fill="#63b8ff" stroke="#63b8ff" points="501.68,-193.12 491.61,-189.84 497.44,-198.69 501.68,-193.12"/>
</g>
<!-- Node14 -->
<g id="node14" class="node">
<title>Node14</title>
<g id="a_node14"><a xlink:href="byte__vector_8h.html" target="_top" xlink:title=" ">
<polygon fill="white" stroke="#666666" points="1255,-129 1155,-129 1155,-110 1255,-110 1255,-129"/>
<text text-anchor="middle" x="1205" y="-117" font-family="Helvetica,sans-Serif" font-size="10.00">ccf/byte_vector.h</text>
</a>
</g>
</g>
<!-- Node13&#45;&gt;Node14 -->
<g id="edge13" class="edge">
<title>Node13&#45;&gt;Node14</title>
<path fill="none" stroke="#63b8ff" d="M881.68,-170.8C950.88,-160.04 1072.12,-141.17 1144.85,-129.86"/>
<polygon fill="#63b8ff" stroke="#63b8ff" points="1145.44,-133.31 1154.78,-128.31 1144.36,-126.39 1145.44,-133.31"/>
</g>
<!-- Node15 -->
<g id="node15" class="node">
<title>Node15</title>
<g id="a_node15"><a xlink:href="siphash_8h.html" target="_top" xlink:title=" ">
<polygon fill="white" stroke="#666666" points="1392.5,-74 1297.5,-74 1297.5,-55 1392.5,-55 1392.5,-74"/>
<text text-anchor="middle" x="1345" y="-62" font-family="Helvetica,sans-Serif" font-size="10.00">ccf/ds/siphash.h</text>
</a>
</g>
</g>
<!-- Node14&#45;&gt;Node15 -->
<g id="edge14" class="edge">
<title>Node14&#45;&gt;Node15</title>
<path fill="none" stroke="#63b8ff" d="M1227.49,-109.98C1250.52,-101.27 1286.54,-87.63 1312.63,-77.75"/>
<polygon fill="#63b8ff" stroke="#63b8ff" points="1313.98,-80.98 1322.1,-74.17 1311.51,-74.44 1313.98,-80.98"/>
</g>
<!-- Node19 -->
<g id="node19" class="node">
<title>Node19</title>
<g id="a_node19"><a xlink:title=" ">
<polygon fill="#e0e0e0" stroke="#999999" points="1112.5,-74 1033.5,-74 1033.5,-55 1112.5,-55 1112.5,-74"/>
<text text-anchor="middle" x="1073" y="-62" font-family="Helvetica,sans-Serif" font-size="10.00">fmt/format.h</text>
</a>
</g>
</g>
<!-- Node14&#45;&gt;Node19 -->
<g id="edge18" class="edge">
<title>Node14&#45;&gt;Node19</title>
<path fill="none" stroke="#63b8ff" d="M1183.79,-109.98C1162.27,-101.34 1128.72,-87.87 1104.17,-78.02"/>
<polygon fill="#63b8ff" stroke="#63b8ff" points="1105.18,-74.65 1094.59,-74.17 1102.57,-81.14 1105.18,-74.65"/>
</g>
<!-- Node20 -->
<g id="node20" class="node">
<title>Node20</title>
<g id="a_node20"><a xlink:title=" ">
<polygon fill="#e0e0e0" stroke="#999999" points="1279.5,-74 1130.5,-74 1130.5,-55 1279.5,-55 1279.5,-74"/>
<text text-anchor="middle" x="1205" y="-62" font-family="Helvetica,sans-Serif" font-size="10.00">small_vector/SmallVector.h</text>
</a>
</g>
</g>
<!-- Node14&#45;&gt;Node20 -->
<g id="edge19" class="edge">
<title>Node14&#45;&gt;Node20</title>
<path fill="none" stroke="#63b8ff" d="M1205,-109.75C1205,-102.8 1205,-92.85 1205,-84.13"/>
<polygon fill="#63b8ff" stroke="#63b8ff" points="1208.5,-84.09 1205,-74.09 1201.5,-84.09 1208.5,-84.09"/>
</g>
<!-- Node16 -->
<g id="node16" class="node">
<title>Node16</title>
<g id="a_node16"><a xlink:title=" ">
<polygon fill="#e0e0e0" stroke="#999999" points="1346.5,-19 1293.5,-19 1293.5,0 1346.5,0 1346.5,-19"/>
<text text-anchor="middle" x="1320" y="-7" font-family="Helvetica,sans-Serif" font-size="10.00">cstddef</text>
</a>
</g>
</g>
<!-- Node15&#45;&gt;Node16 -->
<g id="edge15" class="edge">
<title>Node15&#45;&gt;Node16</title>
<path fill="none" stroke="#63b8ff" d="M1340.87,-54.75C1337.49,-47.57 1332.58,-37.18 1328.38,-28.27"/>
<polygon fill="#63b8ff" stroke="#63b8ff" points="1331.48,-26.64 1324.05,-19.09 1325.15,-29.63 1331.48,-26.64"/>
</g>
<!-- Node17 -->
<g id="node17" class="node">
<title>Node17</title>
<g id="a_node17"><a xlink:title=" ">
<polygon fill="#e0e0e0" stroke="#999999" points="1480,-19 1430,-19 1430,0 1480,0 1480,-19"/>
<text text-anchor="middle" x="1455" y="-7" font-family="Helvetica,sans-Serif" font-size="10.00">cstdint</text>
</a>
</g>
</g>
<!-- Node15&#45;&gt;Node17 -->
<g id="edge16" class="edge">
<title>Node15&#45;&gt;Node17</title>
<path fill="none" stroke="#63b8ff" d="M1362.67,-54.98C1380.29,-46.5 1407.58,-33.35 1427.93,-23.54"/>
<polygon fill="#63b8ff" stroke="#63b8ff" points="1429.52,-26.66 1437.01,-19.17 1426.48,-20.36 1429.52,-26.66"/>
</g>
<!-- Node15&#45;&gt;Node18 -->
<g id="edge17" class="edge">
<title>Node15&#45;&gt;Node18</title>
<path fill="none" stroke="#63b8ff" d="M1352.1,-54.75C1358.17,-47.26 1367.09,-36.28 1374.51,-27.13"/>
<polygon fill="#63b8ff" stroke="#63b8ff" points="1377.45,-29.06 1381.03,-19.09 1372.01,-24.65 1377.45,-29.06"/>
</g>
<!-- Node22&#45;&gt;Node13 -->
<g id="edge33" class="edge">
<title>Node22&#45;&gt;Node13</title>
<path fill="none" stroke="#63b8ff" d="M748.69,-297.89C790.89,-286.25 845.64,-269.77 852,-261 864.17,-244.22 855.48,-221.13 845.49,-204.07"/>
<polygon fill="#63b8ff" stroke="#63b8ff" points="848.23,-201.86 839.93,-195.29 842.32,-205.61 848.23,-201.86"/>
</g>
<!-- Node23 -->
<g id="node23" class="node">
<title>Node23</title>
<g id="a_node23"><a xlink:href="nonstd_8h.html" target="_top" xlink:title=" ">
<polygon fill="white" stroke="#666666" points="757,-74 667,-74 667,-55 757,-55 757,-74"/>
<text text-anchor="middle" x="712" y="-62" font-family="Helvetica,sans-Serif" font-size="10.00">ccf/ds/nonstd.h</text>
</a>
</g>
</g>
<!-- Node22&#45;&gt;Node23 -->
<g id="edge25" class="edge">
<title>Node22&#45;&gt;Node23</title>
<path fill="none" stroke="#63b8ff" d="M700.52,-296.73C702.79,-274.87 706.99,-231.73 709,-195 711.15,-155.66 711.76,-109.53 711.93,-84.31"/>
<polygon fill="#63b8ff" stroke="#63b8ff" points="715.43,-84.32 711.99,-74.3 708.43,-84.28 715.43,-84.32"/>
</g>
<!-- Node23&#45;&gt;Node5 -->
<g id="edge29" class="edge">
<title>Node23&#45;&gt;Node5</title>
<path fill="none" stroke="#63b8ff" d="M683.72,-54.98C652.02,-45.44 600.74,-30 567.7,-20.05"/>
<polygon fill="#63b8ff" stroke="#63b8ff" points="568.66,-16.68 558.08,-17.15 566.64,-23.38 568.66,-16.68"/>
</g>
<!-- Node23&#45;&gt;Node18 -->
<g id="edge32" class="edge">
<title>Node23&#45;&gt;Node18</title>
<path fill="none" stroke="#63b8ff" d="M757.04,-56.08C760.07,-55.68 763.08,-55.32 766,-55 1023.85,-26.9 1094.86,-60.07 1354.25,-18.97"/>
<polygon fill="#63b8ff" stroke="#63b8ff" points="1355.03,-22.39 1364.35,-17.34 1353.92,-15.47 1355.03,-22.39"/>
</g>
<!-- Node24 -->
<g id="node24" class="node">
<title>Node24</title>
<g id="a_node24"><a xlink:title=" ">
<polygon fill="#e0e0e0" stroke="#999999" points="728,-19 664,-19 664,0 728,0 728,-19"/>
<text text-anchor="middle" x="696" y="-7" font-family="Helvetica,sans-Serif" font-size="10.00">algorithm</text>
</a>
</g>
</g>
<!-- Node23&#45;&gt;Node24 -->
<g id="edge26" class="edge">
<title>Node23&#45;&gt;Node24</title>
<path fill="none" stroke="#63b8ff" d="M709.36,-54.75C707.24,-47.72 704.19,-37.62 701.54,-28.84"/>
<polygon fill="#63b8ff" stroke="#63b8ff" points="704.83,-27.65 698.59,-19.09 698.13,-29.67 704.83,-27.65"/>
</g>
<!-- Node25 -->
<g id="node25" class="node">
<title>Node25</title>
<g id="a_node25"><a xlink:title=" ">
<polygon fill="#e0e0e0" stroke="#999999" points="788,-19 746,-19 746,0 788,0 788,-19"/>
<text text-anchor="middle" x="767" y="-7" font-family="Helvetica,sans-Serif" font-size="10.00">array</text>
</a>
</g>
</g>
<!-- Node23&#45;&gt;Node25 -->
<g id="edge27" class="edge">
<title>Node23&#45;&gt;Node25</title>
<path fill="none" stroke="#63b8ff" d="M721.08,-54.75C729.09,-47.03 740.96,-35.6 750.62,-26.28"/>
<polygon fill="#63b8ff" stroke="#63b8ff" points="753.31,-28.55 758.09,-19.09 748.46,-23.51 753.31,-28.55"/>
</g>
<!-- Node26 -->
<g id="node26" class="node">
<title>Node26</title>
<g id="a_node26"><a xlink:title=" ">
<polygon fill="#e0e0e0" stroke="#999999" points="855.5,-19 806.5,-19 806.5,0 855.5,0 855.5,-19"/>
<text text-anchor="middle" x="831" y="-7" font-family="Helvetica,sans-Serif" font-size="10.00">cctype</text>
</a>
</g>
</g>
<!-- Node23&#45;&gt;Node26 -->
<g id="edge28" class="edge">
<title>Node23&#45;&gt;Node26</title>
<path fill="none" stroke="#63b8ff" d="M731.12,-54.98C750.35,-46.42 780.23,-33.11 802.31,-23.28"/>
<polygon fill="#63b8ff" stroke="#63b8ff" points="803.82,-26.44 811.53,-19.17 800.97,-20.04 803.82,-26.44"/>
</g>
<!-- Node27 -->
<g id="node27" class="node">
<title>Node27</title>
<g id="a_node27"><a xlink:title=" ">
<polygon fill="#e0e0e0" stroke="#999999" points="946.5,-19 873.5,-19 873.5,0 946.5,0 946.5,-19"/>
<text text-anchor="middle" x="910" y="-7" font-family="Helvetica,sans-Serif" font-size="10.00">string_view</text>
</a>
</g>
</g>
<!-- Node23&#45;&gt;Node27 -->
<g id="edge30" class="edge">
<title>Node23&#45;&gt;Node27</title>
<path fill="none" stroke="#63b8ff" d="M743.81,-54.98C777.49,-45.97 830.8,-31.7 867.92,-21.76"/>
<polygon fill="#63b8ff" stroke="#63b8ff" points="869.18,-25.05 877.94,-19.08 867.37,-18.29 869.18,-25.05"/>
</g>
<!-- Node28 -->
<g id="node28" class="node">
<title>Node28</title>
<g id="a_node28"><a xlink:title=" ">
<polygon fill="#e0e0e0" stroke="#999999" points="645.5,-19 576.5,-19 576.5,0 645.5,0 645.5,-19"/>
<text text-anchor="middle" x="611" y="-7" font-family="Helvetica,sans-Serif" font-size="10.00">type_traits</text>
</a>
</g>
</g>
<!-- Node23&#45;&gt;Node28 -->
<g id="edge31" class="edge">
<title>Node23&#45;&gt;Node28</title>
<path fill="none" stroke="#63b8ff" d="M695.77,-54.98C679.82,-46.61 655.22,-33.7 636.62,-23.95"/>
<polygon fill="#63b8ff" stroke="#63b8ff" points="638,-20.72 627.52,-19.17 634.75,-26.92 638,-20.72"/>
</g>
<!-- Node29&#45;&gt;Node13 -->
<g id="edge35" class="edge">
<title>Node29&#45;&gt;Node13</title>
<path fill="none" stroke="#63b8ff" d="M945.21,-296.99C931.3,-280.68 907.24,-253.15 885,-231 875.09,-221.13 863.65,-210.75 853.7,-202.02"/>
<polygon fill="#63b8ff" stroke="#63b8ff" points="855.94,-199.33 846.1,-195.41 851.35,-204.62 855.94,-199.33"/>
</g>
<!-- Node30 -->
<g id="node30" class="node">
<title>Node30</title>
<g id="a_node30"><a xlink:title=" ">
<polygon fill="#e0e0e0" stroke="#999999" points="885,-74 775,-74 775,-55 885,-55 885,-74"/>
<text text-anchor="middle" x="830" y="-62" font-family="Helvetica,sans-Serif" font-size="10.00">nlohmann/json.hpp</text>
</a>
</g>
</g>
<!-- Node29&#45;&gt;Node30 -->
<g id="edge36" class="edge">
<title>Node29&#45;&gt;Node30</title>
<path fill="none" stroke="#63b8ff" d="M951.21,-296.62C940.37,-270.11 915.88,-211.95 891,-165 875.18,-135.15 854.1,-101.98 841.31,-82.47"/>
<polygon fill="#63b8ff" stroke="#63b8ff" points="844.19,-80.49 835.76,-74.07 838.35,-84.34 844.19,-80.49"/>
</g>
<!-- Node31&#45;&gt;Node6 -->
<g id="edge38" class="edge">
<title>Node31&#45;&gt;Node6</title>
<path fill="none" stroke="#63b8ff" d="M437.49,-302.37C418.29,-291.68 385.34,-273.35 362.65,-260.72"/>
<polygon fill="#63b8ff" stroke="#63b8ff" points="364.07,-257.5 353.63,-255.7 360.67,-263.62 364.07,-257.5"/>
</g>
<!-- Node31&#45;&gt;Node13 -->
<g id="edge39" class="edge">
<title>Node31&#45;&gt;Node13</title>
<path fill="none" stroke="#63b8ff" d="M487.8,-302.44C523.94,-293.26 581.94,-277.74 631,-261 686.11,-242.19 748.12,-216.35 787.82,-199.19"/>
<polygon fill="#63b8ff" stroke="#63b8ff" points="789.39,-202.32 797.17,-195.13 786.61,-195.9 789.39,-202.32"/>
</g>
<!-- Node31&#45;&gt;Node21 -->
<g id="edge41" class="edge">
<title>Node31&#45;&gt;Node21</title>
<path fill="none" stroke="#63b8ff" d="M449.09,-302.35C442.91,-287.41 432.41,-255.97 441,-231 445.39,-218.25 454.5,-206.25 462.82,-197.21"/>
<polygon fill="#63b8ff" stroke="#63b8ff" points="465.58,-199.39 470.08,-189.79 460.58,-194.49 465.58,-199.39"/>
</g>
<!-- Node32 -->
<g id="node32" class="node">
<title>Node32</title>
<g id="a_node32"><a xlink:title=" ">
<polygon fill="#e0e0e0" stroke="#999999" points="488,-255.5 450,-255.5 450,-236.5 488,-236.5 488,-255.5"/>
<text text-anchor="middle" x="469" y="-243.5" font-family="Helvetica,sans-Serif" font-size="10.00">map</text>
</a>
</g>
</g>
<!-- Node31&#45;&gt;Node32 -->
<g id="edge40" class="edge">
<title>Node31&#45;&gt;Node32</title>
<path fill="none" stroke="#63b8ff" d="M455.16,-302.37C457.48,-293.07 461.26,-277.98 464.28,-265.9"/>
<polygon fill="#63b8ff" stroke="#63b8ff" points="467.74,-266.46 466.77,-255.91 460.95,-264.76 467.74,-266.46"/>
</g>
<!-- Node33&#45;&gt;Node4 -->
<g id="edge43" class="edge">
<title>Node33&#45;&gt;Node4</title>
<path fill="none" stroke="#63b8ff" d="M525.27,-364.85C478.48,-356.32 395.15,-340.98 324,-327 318.53,-325.93 312.82,-324.78 307.13,-323.63"/>
<polygon fill="#63b8ff" stroke="#63b8ff" points="307.47,-320.13 296.97,-321.56 306.07,-326.99 307.47,-320.13"/>
</g>
<!-- Node33&#45;&gt;Node6 -->
<g id="edge44" class="edge">
<title>Node33&#45;&gt;Node6</title>
<path fill="none" stroke="#63b8ff" d="M525.39,-365.41C471,-356.06 373.92,-338.08 362,-327 345.12,-311.3 339.95,-284.24 338.45,-265.99"/>
<polygon fill="#63b8ff" stroke="#63b8ff" points="341.95,-265.75 337.93,-255.95 334.96,-266.11 341.95,-265.75"/>
</g>
<!-- Node33&#45;&gt;Node22 -->
<g id="edge45" class="edge">
<title>Node33&#45;&gt;Node22</title>
<path fill="none" stroke="#63b8ff" d="M581.92,-362.99C601.47,-354.65 631.88,-341.66 656.81,-331.02"/>
<polygon fill="#63b8ff" stroke="#63b8ff" points="658.24,-334.21 666.06,-327.06 655.49,-327.77 658.24,-334.21"/>
</g>
<!-- Node33&#45;&gt;Node29 -->
<g id="edge46" class="edge">
<title>Node33&#45;&gt;Node29</title>
<path fill="none" stroke="#63b8ff" d="M598.62,-364.53C601.79,-363.99 604.95,-363.47 608,-363 733.53,-343.66 769,-349.98 897.19,-327.2"/>
<polygon fill="#63b8ff" stroke="#63b8ff" points="898.18,-330.58 907.4,-325.36 896.94,-323.69 898.18,-330.58"/>
</g>
<!-- Node33&#45;&gt;Node31 -->
<g id="edge51" class="edge">
<title>Node33&#45;&gt;Node31</title>
<path fill="none" stroke="#63b8ff" d="M545.92,-362.87C528.05,-353.28 498.96,-337.67 478.09,-326.47"/>
<polygon fill="#63b8ff" stroke="#63b8ff" points="479.62,-323.31 469.15,-321.67 476.31,-329.48 479.62,-323.31"/>
</g>
<!-- Node34 -->
<g id="node34" class="node">
<title>Node34</title>
<g id="a_node34"><a xlink:href="set__handle_8h.html" target="_top" xlink:title=" ">
<polygon fill="white" stroke="#666666" points="631.5,-321.5 520.5,-321.5 520.5,-302.5 631.5,-302.5 631.5,-321.5"/>
<text text-anchor="middle" x="576" y="-309.5" font-family="Helvetica,sans-Serif" font-size="10.00">ccf/kv/set_handle.h</text>
</a>
</g>
</g>
<!-- Node33&#45;&gt;Node34 -->
<g id="edge47" class="edge">
<title>Node33&#45;&gt;Node34</title>
<path fill="none" stroke="#63b8ff" d="M564.07,-362.87C566.03,-354.66 569.05,-342.04 571.56,-331.55"/>
<polygon fill="#63b8ff" stroke="#63b8ff" points="575,-332.21 573.93,-321.67 568.19,-330.58 575,-332.21"/>
</g>
<!-- Node34&#45;&gt;Node11 -->
<g id="edge50" class="edge">
<title>Node34&#45;&gt;Node11</title>
<path fill="none" stroke="#63b8ff" d="M574.38,-302.37C572.89,-294.4 570.6,-282.2 568.55,-271.27"/>
<polygon fill="#63b8ff" stroke="#63b8ff" points="571.98,-270.54 566.69,-261.36 565.1,-271.83 571.98,-270.54"/>
</g>
<!-- Node35 -->
<g id="node35" class="node">
<title>Node35</title>
<g id="a_node35"><a xlink:href="unit_8h.html" target="_top" xlink:title=" ">
<polygon fill="white" stroke="#666666" points="842.5,-255.5 765.5,-255.5 765.5,-236.5 842.5,-236.5 842.5,-255.5"/>
<text text-anchor="middle" x="804" y="-243.5" font-family="Helvetica,sans-Serif" font-size="10.00">ccf/kv/unit.h</text>
</a>
</g>
</g>
<!-- Node34&#45;&gt;Node35 -->
<g id="edge48" class="edge">
<title>Node34&#45;&gt;Node35</title>
<path fill="none" stroke="#63b8ff" d="M606.75,-302.37C647.32,-290.98 718.81,-270.91 763.68,-258.32"/>
<polygon fill="#63b8ff" stroke="#63b8ff" points="764.69,-261.67 773.37,-255.6 762.8,-254.93 764.69,-261.67"/>
</g>
<!-- Node35&#45;&gt;Node13 -->
<g id="edge49" class="edge">
<title>Node35&#45;&gt;Node13</title>
<path fill="none" stroke="#63b8ff" d="M807.37,-236.37C810.51,-228.32 815.35,-215.94 819.65,-204.93"/>
<polygon fill="#63b8ff" stroke="#63b8ff" points="823.01,-205.95 823.39,-195.36 816.49,-203.4 823.01,-205.95"/>
</g>
<!-- Node36&#45;&gt;Node4 -->
<g id="edge53" class="edge">
<title>Node36&#45;&gt;Node4</title>
<path fill="none" stroke="#63b8ff" d="M616.44,-364.33C613.58,-363.87 610.75,-363.42 608,-363 507.41,-347.48 390.37,-331.21 319.8,-321.59"/>
<polygon fill="#63b8ff" stroke="#63b8ff" points="320.11,-318.1 309.73,-320.22 319.17,-325.04 320.11,-318.1"/>
</g>
<!-- Node36&#45;&gt;Node6 -->
<g id="edge54" class="edge">
<title>Node36&#45;&gt;Node6</title>
<path fill="none" stroke="#63b8ff" d="M616.4,-364.37C541.87,-351.89 395.59,-327.37 395,-327 371.34,-312.19 354.63,-283.61 345.66,-264.93"/>
<polygon fill="#63b8ff" stroke="#63b8ff" points="348.8,-263.37 341.48,-255.72 342.43,-266.27 348.8,-263.37"/>
</g>
<!-- Node36&#45;&gt;Node22 -->
<g id="edge55" class="edge">
<title>Node36&#45;&gt;Node22</title>
<path fill="none" stroke="#63b8ff" d="M664.9,-362.87C669.83,-355.67 677.07,-345.07 683.62,-335.49"/>
<polygon fill="#63b8ff" stroke="#63b8ff" points="686.59,-337.34 689.35,-327.11 680.82,-333.39 686.59,-337.34"/>
</g>
<!-- Node36&#45;&gt;Node29 -->
<g id="edge56" class="edge">
<title>Node36&#45;&gt;Node29</title>
<path fill="none" stroke="#63b8ff" d="M701.62,-364.31C747.65,-356.38 823.34,-342.89 897.4,-327.28"/>
<polygon fill="#63b8ff" stroke="#63b8ff" points="898.31,-330.67 907.37,-325.17 896.86,-323.82 898.31,-330.67"/>
</g>
<!-- Node36&#45;&gt;Node31 -->
<g id="edge57" class="edge">
<title>Node36&#45;&gt;Node31</title>
<path fill="none" stroke="#63b8ff" d="M629.05,-362.99C593.04,-352.77 532.5,-335.58 492.65,-324.26"/>
<polygon fill="#63b8ff" stroke="#63b8ff" points="493.57,-320.88 482.99,-321.52 491.65,-327.62 493.57,-320.88"/>
</g>
<!-- Node37 -->
<g id="node37" class="node">
<title>Node37</title>
<g id="a_node37"><a xlink:href="value__handle_8h.html" target="_top" xlink:title=" ">
<polygon fill="white" stroke="#666666" points="889.5,-321.5 766.5,-321.5 766.5,-302.5 889.5,-302.5 889.5,-321.5"/>
<text text-anchor="middle" x="828" y="-309.5" font-family="Helvetica,sans-Serif" font-size="10.00">ccf/kv/value_handle.h</text>
</a>
</g>
</g>
<!-- Node36&#45;&gt;Node37 -->
<g id="edge58" class="edge">
<title>Node36&#45;&gt;Node37</title>
<path fill="none" stroke="#63b8ff" d="M683.57,-362.99C712.61,-352.94 761.1,-336.16 793.8,-324.84"/>
<polygon fill="#63b8ff" stroke="#63b8ff" points="795.09,-328.1 803.4,-321.52 792.8,-321.48 795.09,-328.1"/>
</g>
<!-- Node37&#45;&gt;Node11 -->
<g id="edge60" class="edge">
<title>Node37&#45;&gt;Node11</title>
<path fill="none" stroke="#63b8ff" d="M792.67,-302.44C751.7,-292.5 683.24,-275.91 631.88,-263.46"/>
<polygon fill="#63b8ff" stroke="#63b8ff" points="632.4,-259.98 621.85,-261.02 630.75,-266.78 632.4,-259.98"/>
</g>
<!-- Node37&#45;&gt;Node35 -->
<g id="edge59" class="edge">
<title>Node37&#45;&gt;Node35</title>
<path fill="none" stroke="#63b8ff" d="M824.76,-302.37C821.24,-292.97 815.5,-277.67 810.95,-265.53"/>
<polygon fill="#63b8ff" stroke="#63b8ff" points="814.13,-264.04 807.34,-255.91 807.57,-266.5 814.13,-264.04"/>
</g>
<!-- Node38&#45;&gt;Node18 -->
<g id="edge78" class="edge">
<title>Node38&#45;&gt;Node18</title>
<path fill="none" stroke="#63b8ff" d="M1498.58,-236.4C1493.66,-208.36 1475.33,-117.76 1435,-55 1427.84,-43.85 1417.3,-33.54 1408.02,-25.65"/>
<polygon fill="#63b8ff" stroke="#63b8ff" points="1409.96,-22.71 1399.98,-19.13 1405.55,-28.15 1409.96,-22.71"/>
</g>
<!-- Node39 -->
<g id="node39" class="node">
<title>Node39</title>
<g id="a_node39"><a xlink:href="json_8h.html" target="_top" xlink:title=" ">
<polygon fill="white" stroke="#666666" points="1165.5,-189.5 1088.5,-189.5 1088.5,-170.5 1165.5,-170.5 1165.5,-189.5"/>
<text text-anchor="middle" x="1127" y="-177.5" font-family="Helvetica,sans-Serif" font-size="10.00">ccf/ds/json.h</text>
</a>
</g>
</g>
<!-- Node38&#45;&gt;Node39 -->
<g id="edge62" class="edge">
<title>Node38&#45;&gt;Node39</title>
<path fill="none" stroke="#63b8ff" d="M1450.08,-236.44C1378.28,-224.11 1246.68,-201.53 1175.61,-189.34"/>
<polygon fill="#63b8ff" stroke="#63b8ff" points="1176.02,-185.86 1165.58,-187.62 1174.84,-192.76 1176.02,-185.86"/>
</g>
<!-- Node43 -->
<g id="node43" class="node">
<title>Node43</title>
<g id="a_node43"><a xlink:href="serialized_8h.html" target="_top" xlink:title=" ">
<polygon fill="white" stroke="#666666" points="1574.5,-74 1487.5,-74 1487.5,-55 1574.5,-55 1574.5,-74"/>
<text text-anchor="middle" x="1531" y="-62" font-family="Helvetica,sans-Serif" font-size="10.00">ds/serialized.h</text>
</a>
</g>
</g>
<!-- Node38&#45;&gt;Node43 -->
<g id="edge72" class="edge">
<title>Node38&#45;&gt;Node43</title>
<path fill="none" stroke="#63b8ff" d="M1501.5,-236.34C1506.25,-208.8 1521.11,-122.76 1527.75,-84.34"/>
<polygon fill="#63b8ff" stroke="#63b8ff" points="1531.27,-84.52 1529.52,-74.07 1524.37,-83.33 1531.27,-84.52"/>
</g>
<!-- Node39&#45;&gt;Node19 -->
<g id="edge70" class="edge">
<title>Node39&#45;&gt;Node19</title>
<path fill="none" stroke="#63b8ff" d="M1124.73,-170.21C1121.1,-156.81 1113.33,-130.64 1103,-110 1098.21,-100.43 1091.69,-90.5 1085.94,-82.45"/>
<polygon fill="#63b8ff" stroke="#63b8ff" points="1088.68,-80.26 1079.93,-74.28 1083.04,-84.41 1088.68,-80.26"/>
</g>
<!-- Node40 -->
<g id="node40" class="node">
<title>Node40</title>
<g id="a_node40"><a xlink:href="include_2ccf_2crypto_2base64_8h.html" target="_top" xlink:title=" ">
<polygon fill="white" stroke="#666666" points="1015,-74 903,-74 903,-55 1015,-55 1015,-74"/>
<text text-anchor="middle" x="959" y="-62" font-family="Helvetica,sans-Serif" font-size="10.00">ccf/crypto/base64.h</text>
</a>
</g>
</g>
<!-- Node39&#45;&gt;Node40 -->
<g id="edge63" class="edge">
<title>Node39&#45;&gt;Node40</title>
<path fill="none" stroke="#63b8ff" d="M1121.78,-170.17C1112.85,-155.75 1093.34,-127.05 1070,-110 1049.64,-95.13 1023.63,-84.36 1001.91,-77.14"/>
<polygon fill="#63b8ff" stroke="#63b8ff" points="1002.85,-73.77 992.26,-74.07 1000.73,-80.44 1002.85,-73.77"/>
</g>
<!-- Node41 -->
<g id="node41" class="node">
<title>Node41</title>
<g id="a_node41"><a xlink:href="include_2ccf_2ds_2json__schema_8h.html" target="_top" xlink:title=" ">
<polygon fill="white" stroke="#666666" points="1060.5,-129 939.5,-129 939.5,-110 1060.5,-110 1060.5,-129"/>
<text text-anchor="middle" x="1000" y="-117" font-family="Helvetica,sans-Serif" font-size="10.00">ccf/ds/json_schema.h</text>
</a>
</g>
</g>
<!-- Node39&#45;&gt;Node41 -->
<g id="edge66" class="edge">
<title>Node39&#45;&gt;Node41</title>
<path fill="none" stroke="#63b8ff" d="M1108.53,-170.49C1087.28,-160.7 1052.15,-144.52 1027.63,-133.23"/>
<polygon fill="#63b8ff" stroke="#63b8ff" points="1029.04,-130.02 1018.49,-129.02 1026.11,-136.38 1029.04,-130.02"/>
</g>
<!-- Node42 -->
<g id="node42" class="node">
<title>Node42</title>
<g id="a_node42"><a xlink:title=" ">
<polygon fill="#e0e0e0" stroke="#999999" points="1329,-129 1273,-129 1273,-110 1329,-110 1329,-129"/>
<text text-anchor="middle" x="1301" y="-117" font-family="Helvetica,sans-Serif" font-size="10.00">sstream</text>
</a>
</g>
</g>
<!-- Node39&#45;&gt;Node42 -->
<g id="edge71" class="edge">
<title>Node39&#45;&gt;Node42</title>
<path fill="none" stroke="#63b8ff" d="M1152.3,-170.49C1182.2,-160.44 1232.12,-143.66 1265.78,-132.34"/>
<polygon fill="#63b8ff" stroke="#63b8ff" points="1267.31,-135.52 1275.67,-129.02 1265.07,-128.89 1267.31,-135.52"/>
</g>
<!-- Node40&#45;&gt;Node5 -->
<g id="edge64" class="edge">
<title>Node40&#45;&gt;Node5</title>
<path fill="none" stroke="#63b8ff" d="M902.99,-56.1C899.95,-55.72 896.94,-55.35 894,-55 752.53,-37.94 713.05,-45.43 568.42,-18.77"/>
<polygon fill="#63b8ff" stroke="#63b8ff" points="568.75,-15.27 558.28,-16.87 567.47,-22.15 568.75,-15.27"/>
</g>
<!-- Node40&#45;&gt;Node18 -->
<g id="edge65" class="edge">
<title>Node40&#45;&gt;Node18</title>
<path fill="none" stroke="#63b8ff" d="M1015.16,-56.19C1018.49,-55.78 1021.79,-55.38 1025,-55 1168.65,-37.94 1208.73,-45.7 1354.13,-19.1"/>
<polygon fill="#63b8ff" stroke="#63b8ff" points="1355.13,-22.48 1364.33,-17.22 1353.85,-15.6 1355.13,-22.48"/>
</g>
<!-- Node41&#45;&gt;Node19 -->
<g id="edge68" class="edge">
<title>Node41&#45;&gt;Node19</title>
<path fill="none" stroke="#63b8ff" d="M1011.73,-109.98C1022.73,-102 1039.42,-89.88 1052.6,-80.31"/>
<polygon fill="#63b8ff" stroke="#63b8ff" points="1055.02,-82.88 1061.06,-74.17 1050.91,-77.21 1055.02,-82.88"/>
</g>
<!-- Node41&#45;&gt;Node23 -->
<g id="edge67" class="edge">
<title>Node41&#45;&gt;Node23</title>
<path fill="none" stroke="#63b8ff" d="M953.73,-109.98C902.94,-100.64 821.44,-85.64 767.32,-75.68"/>
<polygon fill="#63b8ff" stroke="#63b8ff" points="767.68,-72.19 757.21,-73.82 766.41,-79.07 767.68,-72.19"/>
</g>
<!-- Node41&#45;&gt;Node30 -->
<g id="edge69" class="edge">
<title>Node41&#45;&gt;Node30</title>
<path fill="none" stroke="#63b8ff" d="M972.69,-109.98C944.15,-101.09 899.17,-87.07 867.36,-77.15"/>
<polygon fill="#63b8ff" stroke="#63b8ff" points="868.12,-73.72 857.53,-74.08 866.03,-80.4 868.12,-73.72"/>
</g>
<!-- Node43&#45;&gt;Node5 -->
<g id="edge76" class="edge">
<title>Node43&#45;&gt;Node5</title>
<path fill="none" stroke="#63b8ff" d="M1487.43,-60.38C1462.43,-58.66 1430.46,-56.55 1402,-55 1034.88,-34.98 936.54,-74.23 568.38,-18.61"/>
<polygon fill="#63b8ff" stroke="#63b8ff" points="568.66,-15.12 558.25,-17.07 567.61,-22.04 568.66,-15.12"/>
</g>
<!-- Node43&#45;&gt;Node17 -->
<g id="edge73" class="edge">
<title>Node43&#45;&gt;Node17</title>
<path fill="none" stroke="#63b8ff" d="M1518.79,-54.98C1507.22,-46.92 1489.62,-34.65 1475.84,-25.03"/>
<polygon fill="#63b8ff" stroke="#63b8ff" points="1477.64,-22.02 1467.43,-19.17 1473.63,-27.76 1477.64,-22.02"/>
</g>
<!-- Node43&#45;&gt;Node18 -->
<g id="edge77" class="edge">
<title>Node43&#45;&gt;Node18</title>
<path fill="none" stroke="#63b8ff" d="M1508.02,-54.98C1484.5,-46.27 1447.71,-32.63 1421.06,-22.75"/>
<polygon fill="#63b8ff" stroke="#63b8ff" points="1421.99,-19.36 1411.39,-19.17 1419.55,-25.93 1421.99,-19.36"/>
</g>
<!-- Node44 -->
<g id="node44" class="node">
<title>Node44</title>
<g id="a_node44"><a xlink:title=" ">
<polygon fill="#e0e0e0" stroke="#999999" points="1632,-19 1582,-19 1582,0 1632,0 1632,-19"/>
<text text-anchor="middle" x="1607" y="-7" font-family="Helvetica,sans-Serif" font-size="10.00">cstring</text>
</a>
</g>
</g>
<!-- Node43&#45;&gt;Node44 -->
<g id="edge74" class="edge">
<title>Node43&#45;&gt;Node44</title>
<path fill="none" stroke="#63b8ff" d="M1543.21,-54.98C1554.78,-46.92 1572.38,-34.65 1586.16,-25.03"/>
<polygon fill="#63b8ff" stroke="#63b8ff" points="1588.37,-27.76 1594.57,-19.17 1584.36,-22.02 1588.37,-27.76"/>
</g>
<!-- Node45 -->
<g id="node45" class="node">
<title>Node45</title>
<g id="a_node45"><a xlink:title=" ">
<polygon fill="#e0e0e0" stroke="#999999" points="1563.5,-19 1498.5,-19 1498.5,0 1563.5,0 1563.5,-19"/>
<text text-anchor="middle" x="1531" y="-7" font-family="Helvetica,sans-Serif" font-size="10.00">stdexcept</text>
</a>
</g>
</g>
<!-- Node43&#45;&gt;Node45 -->
<g id="edge75" class="edge">
<title>Node43&#45;&gt;Node45</title>
<path fill="none" stroke="#63b8ff" d="M1531,-54.75C1531,-47.8 1531,-37.85 1531,-29.13"/>
<polygon fill="#63b8ff" stroke="#63b8ff" points="1534.5,-29.09 1531,-19.09 1527.5,-29.09 1534.5,-29.09"/>
</g>
</g>
</svg>
        <g id="navigator" transform="translate(0 0)" fill="#404254">
                <rect fill="#f2f5e9" fill-opacity="0.5" stroke="#606060" stroke-width=".5" x="0" y="0" width="60" height="60"/>
                <use id="zoomplus" xlink:href="#zoomPlus" x="17" y="9" onmousedown="handleZoom(evt,'in')"/>
                <use id="zoomminus" xlink:href="#zoomMin" x="42" y="9" onmousedown="handleZoom(evt,'out')"/>
                <use id="reset" xlink:href="#resetDef" x="30" y="36" onmousedown="handleReset()"/>
                <g id="arrowUp" xlink:href="#dirArrow" transform="translate(30 24)" onmousedown="handlePan(0,-1)">
                  <use xlink:href="#rim" fill="#404040">
                        <set attributeName="fill" to="#808080" begin="arrowUp.mouseover" end="arrowUp.mouseout"/>
                  </use>
                  <path fill="none" stroke="white" stroke-width="1.5" d="M0,-3.0v7 M-2.5,-0.5L0,-3.0L2.5,-0.5"/>
                </g>
                <g id="arrowRight" xlink:href="#dirArrow" transform="rotate(90) translate(36 -43)" onmousedown="handlePan(1,0)">
                  <use xlink:href="#rim" fill="#404040">
                        <set attributeName="fill" to="#808080" begin="arrowRight.mouseover" end="arrowRight.mouseout"/>
                  </use>
                  <path fill="none" stroke="white" stroke-width="1.5" d="M0,-3.0v7 M-2.5,-0.5L0,-3.0L2.5,-0.5"/>
                </g>
                <g id="arrowDown" xlink:href="#dirArrow" transform="rotate(180) translate(-30 -48)" onmousedown="handlePan(0,1)">
                  <use xlink:href="#rim" fill="#404040">
                        <set attributeName="fill" to="#808080" begin="arrowDown.mouseover" end="arrowDown.mouseout"/>
                  </use>
                  <path fill="none" stroke="white" stroke-width="1.5" d="M0,-3.0v7 M-2.5,-0.5L0,-3.0L2.5,-0.5"/>
                </g>
                <g id="arrowLeft" xlink:href="#dirArrow" transform="rotate(270) translate(-36 17)" onmousedown="handlePan(-1,0)">
                  <use xlink:href="#rim" fill="#404040">
                        <set attributeName="fill" to="#808080" begin="arrowLeft.mouseover" end="arrowLeft.mouseout"/>
                  </use>
                  <path fill="none" stroke="white" stroke-width="1.5" d="M0,-3.0v7 M-2.5,-0.5L0,-3.0L2.5,-0.5"/>
                </g>
        </g>
        <svg viewBox="0 0 15 15" width="100%" height="30px" preserveAspectRatio="xMaxYMin meet">
         <g id="arrow_out" transform="scale(0.3 0.3)">
          <a xlink:href="view__change_8h__incl_org.svg" target="_base">
           <rect id="button" ry="5" rx="5" y="6" x="6" height="38" width="38"
                fill="#f2f5e9" fill-opacity="0.5" stroke="#606060" stroke-width="1.0"/>
           <path id="arrow"
             d="M 11.500037,31.436501 C 11.940474,20.09759 22.043105,11.32322 32.158766,21.979434 L 37.068811,17.246167 C 37.068811,17.246167 37.088388,32 37.088388,32 L 22.160133,31.978069 C 22.160133,31.978069 26.997745,27.140456 26.997745,27.140456 C 18.528582,18.264221 13.291696,25.230495 11.500037,31.436501 z"
             style="fill:#404040;"/>
          </a>
         </g>
        </svg>
</svg>
