<?xml version="1.0" encoding="UTF-8" standalone="no"?>
<!DOCTYPE svg PUBLIC "-//W3C//DTD SVG 1.1//EN"
 "http://www.w3.org/Graphics/SVG/1.1/DTD/svg11.dtd">
<!-- Generated by graphviz version 2.43.0 (0)
 -->
<!-- Title: src/js/wrap.h Pages: 1 -->
<svg width="1105pt" height="269pt"
 viewBox="0.00 0.00 1105.00 269.00" xmlns="http://www.w3.org/2000/svg" xmlns:xlink="http://www.w3.org/1999/xlink">
<g id="graph0" class="graph" transform="scale(1 1) rotate(0) translate(4 265)">
<title>src/js/wrap.h</title>
<!-- Node1 -->
<g id="node1" class="node">
<title>Node1</title>
<g id="a_node1"><a xlink:title=" ">
<polygon fill="#999999" stroke="#666666" points="484,-261 406,-261 406,-242 484,-242 484,-261"/>
<text text-anchor="middle" x="445" y="-249" font-family="Helvetica,sans-Serif" font-size="10.00">src/js/wrap.h</text>
</a>
</g>
</g>
<!-- Node2 -->
<g id="node2" class="node">
<title>Node2</title>
<g id="a_node2"><a xlink:href="js__generic__base_8cpp.html" target="_top" xlink:title=" ">
<polygon fill="white" stroke="#666666" points="118,-206 0,-206 0,-176 118,-176 118,-206"/>
<text text-anchor="start" x="8" y="-194" font-family="Helvetica,sans-Serif" font-size="10.00">src/apps/js_generic</text>
<text text-anchor="middle" x="59" y="-183" font-family="Helvetica,sans-Serif" font-size="10.00">/js_generic_base.cpp</text>
</a>
</g>
</g>
<!-- Node1&#45;&gt;Node2 -->
<g id="edge1" class="edge">
<title>Node1&#45;&gt;Node2</title>
<path fill="none" stroke="#63b8ff" d="M395.63,-244.23C333.86,-236.21 224.89,-221.5 132,-206 127.55,-205.26 122.94,-204.45 118.32,-203.62"/>
<polygon fill="#63b8ff" stroke="#63b8ff" points="395.5,-247.74 405.87,-245.55 396.4,-240.8 395.5,-247.74"/>
</g>
<!-- Node3 -->
<g id="node3" class="node">
<title>Node3</title>
<g id="a_node3"><a xlink:href="enclave_2enclave_8h.html" target="_top" xlink:title=" ">
<polygon fill="white" stroke="#666666" points="898,-74 776,-74 776,-55 898,-55 898,-74"/>
<text text-anchor="middle" x="837" y="-62" font-family="Helvetica,sans-Serif" font-size="10.00">src/enclave/enclave.h</text>
</a>
</g>
</g>
<!-- Node1&#45;&gt;Node3 -->
<g id="edge2" class="edge">
<title>Node1&#45;&gt;Node3</title>
<path fill="none" stroke="#63b8ff" d="M395.68,-250.04C323.4,-248.19 194.09,-240.08 165,-206 156.34,-195.86 157.45,-186.99 165,-176 233.65,-76.13 623.27,-65.35 775.79,-65.02"/>
<polygon fill="#63b8ff" stroke="#63b8ff" points="395.84,-253.54 405.92,-250.26 396,-246.54 395.84,-253.54"/>
</g>
<!-- Node5 -->
<g id="node5" class="node">
<title>Node5</title>
<g id="a_node5"><a xlink:href="js_2consensus_8cpp.html" target="_top" xlink:title=" ">
<polygon fill="white" stroke="#666666" points="290,-200.5 174,-200.5 174,-181.5 290,-181.5 290,-200.5"/>
<text text-anchor="middle" x="232" y="-188.5" font-family="Helvetica,sans-Serif" font-size="10.00">src/js/consensus.cpp</text>
</a>
</g>
</g>
<!-- Node1&#45;&gt;Node5 -->
<g id="edge4" class="edge">
<title>Node1&#45;&gt;Node5</title>
<path fill="none" stroke="#63b8ff" d="M404.31,-239.32C363.12,-228.01 300.33,-210.77 263.01,-200.52"/>
<polygon fill="#63b8ff" stroke="#63b8ff" points="403.46,-242.72 414.03,-241.99 405.31,-235.97 403.46,-242.72"/>
</g>
<!-- Node6 -->
<g id="node6" class="node">
<title>Node6</title>
<g id="a_node6"><a xlink:href="wrap_8cpp.html" target="_top" xlink:title=" ">
<polygon fill="white" stroke="#666666" points="434.5,-134.5 345.5,-134.5 345.5,-115.5 434.5,-115.5 434.5,-134.5"/>
<text text-anchor="middle" x="390" y="-122.5" font-family="Helvetica,sans-Serif" font-size="10.00">src/js/wrap.cpp</text>
</a>
</g>
</g>
<!-- Node1&#45;&gt;Node6 -->
<g id="edge13" class="edge">
<title>Node1&#45;&gt;Node6</title>
<path fill="none" stroke="#63b8ff" d="M396.01,-242.91C374.1,-236.8 350.26,-225.8 337,-206 319.67,-180.11 355.94,-149.36 376.75,-134.66"/>
<polygon fill="#63b8ff" stroke="#63b8ff" points="395.35,-246.35 405.9,-245.38 397.05,-239.56 395.35,-246.35"/>
</g>
<!-- Node7 -->
<g id="node7" class="node">
<title>Node7</title>
<g id="a_node7"><a xlink:href="conv_8cpp.html" target="_top" xlink:title=" ">
<polygon fill="white" stroke="#666666" points="434,-200.5 346,-200.5 346,-181.5 434,-181.5 434,-200.5"/>
<text text-anchor="middle" x="390" y="-188.5" font-family="Helvetica,sans-Serif" font-size="10.00">src/js/conv.cpp</text>
</a>
</g>
</g>
<!-- Node1&#45;&gt;Node7 -->
<g id="edge6" class="edge">
<title>Node1&#45;&gt;Node7</title>
<path fill="none" stroke="#63b8ff" d="M429.74,-234.27C419.51,-223.39 406.45,-209.49 398.15,-200.67"/>
<polygon fill="#63b8ff" stroke="#63b8ff" points="427.48,-236.98 436.88,-241.87 432.58,-232.19 427.48,-236.98"/>
</g>
<!-- Node8 -->
<g id="node8" class="node">
<title>Node8</title>
<g id="a_node8"><a xlink:href="js_2crypto_8cpp.html" target="_top" xlink:title=" ">
<polygon fill="white" stroke="#666666" points="548,-200.5 452,-200.5 452,-181.5 548,-181.5 548,-200.5"/>
<text text-anchor="middle" x="500" y="-188.5" font-family="Helvetica,sans-Serif" font-size="10.00">src/js/crypto.cpp</text>
</a>
</g>
</g>
<!-- Node1&#45;&gt;Node8 -->
<g id="edge8" class="edge">
<title>Node1&#45;&gt;Node8</title>
<path fill="none" stroke="#63b8ff" d="M460.26,-234.27C470.49,-223.39 483.55,-209.49 491.85,-200.67"/>
<polygon fill="#63b8ff" stroke="#63b8ff" points="457.42,-232.19 453.12,-241.87 462.52,-236.98 457.42,-232.19"/>
</g>
<!-- Node9 -->
<g id="node9" class="node">
<title>Node9</title>
<g id="a_node9"><a xlink:href="js_2historical_8cpp.html" target="_top" xlink:title=" ">
<polygon fill="white" stroke="#666666" points="676,-200.5 566,-200.5 566,-181.5 676,-181.5 676,-200.5"/>
<text text-anchor="middle" x="621" y="-188.5" font-family="Helvetica,sans-Serif" font-size="10.00">src/js/historical.cpp</text>
</a>
</g>
</g>
<!-- Node1&#45;&gt;Node9 -->
<g id="edge10" class="edge">
<title>Node1&#45;&gt;Node9</title>
<path fill="none" stroke="#63b8ff" d="M480.15,-238.82C514.19,-227.5 564.99,-210.62 595.38,-200.52"/>
<polygon fill="#63b8ff" stroke="#63b8ff" points="478.98,-235.52 470.59,-241.99 481.19,-242.16 478.98,-235.52"/>
</g>
<!-- Node10 -->
<g id="node10" class="node">
<title>Node10</title>
<g id="a_node10"><a xlink:href="openenclave_8cpp.html" target="_top" xlink:title=" ">
<polygon fill="white" stroke="#666666" points="822,-200.5 694,-200.5 694,-181.5 822,-181.5 822,-200.5"/>
<text text-anchor="middle" x="758" y="-188.5" font-family="Helvetica,sans-Serif" font-size="10.00">src/js/openenclave.cpp</text>
</a>
</g>
</g>
<!-- Node1&#45;&gt;Node10 -->
<g id="edge12" class="edge">
<title>Node1&#45;&gt;Node10</title>
<path fill="none" stroke="#63b8ff" d="M494.01,-241.5C542.52,-232.58 618.91,-218.46 685,-206 694.26,-204.25 704.17,-202.37 713.61,-200.56"/>
<polygon fill="#63b8ff" stroke="#63b8ff" points="493.29,-238.08 484.09,-243.33 494.56,-244.96 493.29,-238.08"/>
</g>
<!-- Node11 -->
<g id="node11" class="node">
<title>Node11</title>
<g id="a_node11"><a xlink:href="node__state_8h.html" target="_top" xlink:title=" ">
<polygon fill="white" stroke="#666666" points="964,-200.5 840,-200.5 840,-181.5 964,-181.5 964,-200.5"/>
<text text-anchor="middle" x="902" y="-188.5" font-family="Helvetica,sans-Serif" font-size="10.00">src/node/node_state.h</text>
</a>
</g>
</g>
<!-- Node1&#45;&gt;Node11 -->
<g id="edge14" class="edge">
<title>Node1&#45;&gt;Node11</title>
<path fill="none" stroke="#63b8ff" d="M494.38,-246.08C567.96,-239.21 710.62,-224.78 831,-206 840.93,-204.45 851.59,-202.5 861.55,-200.56"/>
<polygon fill="#63b8ff" stroke="#63b8ff" points="493.67,-242.63 484.04,-247.04 494.32,-249.6 493.67,-242.63"/>
</g>
<!-- Node13 -->
<g id="node13" class="node">
<title>Node13</title>
<g id="a_node13"><a xlink:href="member__frontend_8h.html" target="_top" xlink:title=" ">
<polygon fill="white" stroke="#666666" points="1097,-140 977,-140 977,-110 1097,-110 1097,-140"/>
<text text-anchor="start" x="985" y="-128" font-family="Helvetica,sans-Serif" font-size="10.00">src/node/rpc/member</text>
<text text-anchor="middle" x="1037" y="-117" font-family="Helvetica,sans-Serif" font-size="10.00">_frontend.h</text>
</a>
</g>
</g>
<!-- Node1&#45;&gt;Node13 -->
<g id="edge18" class="edge">
<title>Node1&#45;&gt;Node13</title>
<path fill="none" stroke="#63b8ff" d="M494.31,-251.23C609.15,-252.16 890.95,-249.77 973,-206 1000.62,-191.27 1020.51,-158.98 1030.25,-140.24"/>
<polygon fill="#63b8ff" stroke="#63b8ff" points="494.08,-247.73 484.05,-251.13 494.02,-254.73 494.08,-247.73"/>
</g>
<!-- Node4 -->
<g id="node4" class="node">
<title>Node4</title>
<g id="a_node4"><a xlink:href="enclave_2main_8cpp.html" target="_top" xlink:title=" ">
<polygon fill="white" stroke="#666666" points="897,-19 777,-19 777,0 897,0 897,-19"/>
<text text-anchor="middle" x="837" y="-7" font-family="Helvetica,sans-Serif" font-size="10.00">src/enclave/main.cpp</text>
</a>
</g>
</g>
<!-- Node3&#45;&gt;Node4 -->
<g id="edge3" class="edge">
<title>Node3&#45;&gt;Node4</title>
<path fill="none" stroke="#63b8ff" d="M837,-44.66C837,-35.93 837,-25.99 837,-19.09"/>
<polygon fill="#63b8ff" stroke="#63b8ff" points="833.5,-44.75 837,-54.75 840.5,-44.75 833.5,-44.75"/>
</g>
<!-- Node5&#45;&gt;Node6 -->
<g id="edge5" class="edge">
<title>Node5&#45;&gt;Node6</title>
<path fill="none" stroke="#63b8ff" d="M262.83,-177.51C294.06,-164.86 341.53,-145.63 368.78,-134.6"/>
<polygon fill="#63b8ff" stroke="#63b8ff" points="261.26,-174.37 253.31,-181.37 263.89,-180.86 261.26,-174.37"/>
</g>
<!-- Node7&#45;&gt;Node6 -->
<g id="edge7" class="edge">
<title>Node7&#45;&gt;Node6</title>
<path fill="none" stroke="#63b8ff" d="M390,-171.08C390,-159.13 390,-144.22 390,-134.91"/>
<polygon fill="#63b8ff" stroke="#63b8ff" points="386.5,-171.37 390,-181.37 393.5,-171.37 386.5,-171.37"/>
</g>
<!-- Node8&#45;&gt;Node6 -->
<g id="edge9" class="edge">
<title>Node8&#45;&gt;Node6</title>
<path fill="none" stroke="#63b8ff" d="M476.26,-176.19C454.62,-163.59 423.29,-145.37 404.95,-134.7"/>
<polygon fill="#63b8ff" stroke="#63b8ff" points="474.76,-179.36 485.16,-181.37 478.28,-173.31 474.76,-179.36"/>
</g>
<!-- Node9&#45;&gt;Node6 -->
<g id="edge11" class="edge">
<title>Node9&#45;&gt;Node6</title>
<path fill="none" stroke="#63b8ff" d="M580.01,-178.64C534.5,-166.03 462.07,-145.97 421.03,-134.6"/>
<polygon fill="#63b8ff" stroke="#63b8ff" points="579.27,-182.07 589.85,-181.37 581.14,-175.33 579.27,-182.07"/>
</g>
<!-- Node11&#45;&gt;Node3 -->
<g id="edge15" class="edge">
<title>Node11&#45;&gt;Node3</title>
<path fill="none" stroke="#63b8ff" d="M856.73,-177.95C837.59,-170.37 817.17,-158.42 806,-140 792.48,-117.72 814.97,-88.49 828.28,-74.17"/>
<polygon fill="#63b8ff" stroke="#63b8ff" points="855.68,-181.29 866.27,-181.42 858.07,-174.71 855.68,-181.29"/>
</g>
<!-- Node12 -->
<g id="node12" class="node">
<title>Node12</title>
<g id="a_node12"><a xlink:href="gov__effects_8h.html" target="_top" xlink:title=" ">
<polygon fill="white" stroke="#666666" points="959,-134.5 815,-134.5 815,-115.5 959,-115.5 959,-134.5"/>
<text text-anchor="middle" x="887" y="-122.5" font-family="Helvetica,sans-Serif" font-size="10.00">src/node/rpc/gov_effects.h</text>
</a>
</g>
</g>
<!-- Node11&#45;&gt;Node12 -->
<g id="edge16" class="edge">
<title>Node11&#45;&gt;Node12</title>
<path fill="none" stroke="#63b8ff" d="M897.65,-171.45C894.84,-159.43 891.29,-144.32 889.09,-134.91"/>
<polygon fill="#63b8ff" stroke="#63b8ff" points="894.29,-172.43 899.98,-181.37 901.1,-170.83 894.29,-172.43"/>
</g>
<!-- Node12&#45;&gt;Node3 -->
<g id="edge17" class="edge">
<title>Node12&#45;&gt;Node3</title>
<path fill="none" stroke="#63b8ff" d="M872.86,-107.45C863.6,-96.62 851.88,-82.91 844.41,-74.17"/>
<polygon fill="#63b8ff" stroke="#63b8ff" points="870.46,-110.04 879.62,-115.37 875.79,-105.49 870.46,-110.04"/>
</g>
<!-- Node13&#45;&gt;Node3 -->
<g id="edge19" class="edge">
<title>Node13&#45;&gt;Node3</title>
<path fill="none" stroke="#63b8ff" d="M979.42,-107.16C942.39,-96.33 895.84,-82.71 866.24,-74.05"/>
<polygon fill="#63b8ff" stroke="#63b8ff" points="978.51,-110.54 989.1,-109.99 980.48,-103.82 978.51,-110.54"/>
</g>
</g>
</svg>
