<?xml version="1.0" encoding="UTF-8" standalone="no"?>
<!DOCTYPE svg PUBLIC "-//W3C//DTD SVG 1.1//EN"
 "http://www.w3.org/Graphics/SVG/1.1/DTD/svg11.dtd">
<!-- Generated by graphviz version 2.43.0 (0)
 -->
<!-- Title: include/ccf/node/acme_subsystem_interface.h Pages: 1 -->
<svg width="2026pt" height="390pt"
 viewBox="0.00 0.00 2026.00 390.00" xmlns="http://www.w3.org/2000/svg" xmlns:xlink="http://www.w3.org/1999/xlink">
<g id="graph0" class="graph" transform="scale(1 1) rotate(0) translate(4 386)">
<title>include/ccf/node/acme_subsystem_interface.h</title>
<!-- Node1 -->
<g id="node1" class="node">
<title>Node1</title>
<g id="a_node1"><a xlink:title=" ">
<polygon fill="#999999" stroke="#666666" points="545.5,-382 412.5,-382 412.5,-352 545.5,-352 545.5,-382"/>
<text text-anchor="start" x="420.5" y="-370" font-family="Helvetica,sans-Serif" font-size="10.00">include/ccf/node/acme</text>
<text text-anchor="middle" x="479" y="-359" font-family="Helvetica,sans-Serif" font-size="10.00">_subsystem_interface.h</text>
</a>
</g>
</g>
<!-- Node2 -->
<g id="node2" class="node">
<title>Node2</title>
<g id="a_node2"><a xlink:href="pem_8h.html" target="_top" xlink:title=" ">
<polygon fill="white" stroke="#666666" points="344,-244.5 246,-244.5 246,-225.5 344,-225.5 344,-244.5"/>
<text text-anchor="middle" x="295" y="-232.5" font-family="Helvetica,sans-Serif" font-size="10.00">ccf/crypto/pem.h</text>
</a>
</g>
</g>
<!-- Node1&#45;&gt;Node2 -->
<g id="edge1" class="edge">
<title>Node1&#45;&gt;Node2</title>
<path fill="none" stroke="#63b8ff" d="M448.67,-351.89C429.98,-342.67 405.87,-329.81 386,-316 357.54,-296.22 328.02,-268.76 310.59,-251.7"/>
<polygon fill="#63b8ff" stroke="#63b8ff" points="313.05,-249.21 303.48,-244.66 308.12,-254.19 313.05,-249.21"/>
</g>
<!-- Node5 -->
<g id="node5" class="node">
<title>Node5</title>
<g id="a_node5"><a xlink:title=" ">
<polygon fill="#e0e0e0" stroke="#999999" points="666,-19 622,-19 622,0 666,0 666,-19"/>
<text text-anchor="middle" x="644" y="-7" font-family="Helvetica,sans-Serif" font-size="10.00">string</text>
</a>
</g>
</g>
<!-- Node1&#45;&gt;Node5 -->
<g id="edge69" class="edge">
<title>Node1&#45;&gt;Node5</title>
<path fill="none" stroke="#63b8ff" d="M473.65,-351.86C456.49,-303.82 408.1,-144.88 482,-55 498.35,-35.11 569.19,-21.49 611.59,-14.95"/>
<polygon fill="#63b8ff" stroke="#63b8ff" points="612.33,-18.38 621.71,-13.44 611.3,-11.46 612.33,-18.38"/>
</g>
<!-- Node6 -->
<g id="node6" class="node">
<title>Node6</title>
<g id="a_node6"><a xlink:title=" ">
<polygon fill="#e0e0e0" stroke="#999999" points="385.5,-19 338.5,-19 338.5,0 385.5,0 385.5,-19"/>
<text text-anchor="middle" x="362" y="-7" font-family="Helvetica,sans-Serif" font-size="10.00">vector</text>
</a>
</g>
</g>
<!-- Node1&#45;&gt;Node6 -->
<g id="edge70" class="edge">
<title>Node1&#45;&gt;Node6</title>
<path fill="none" stroke="#63b8ff" d="M412.4,-361.84C280.78,-351.79 0,-320.44 0,-236 0,-236 0,-236 0,-118.5 0,-50.44 237.97,-21.75 328.03,-13.33"/>
<polygon fill="#63b8ff" stroke="#63b8ff" points="328.61,-16.79 338.25,-12.4 327.97,-9.82 328.61,-16.79"/>
</g>
<!-- Node14 -->
<g id="node14" class="node">
<title>Node14</title>
<g id="a_node14"><a xlink:title=" ">
<polygon fill="#e0e0e0" stroke="#999999" points="728,-74 672,-74 672,-55 728,-55 728,-74"/>
<text text-anchor="middle" x="700" y="-62" font-family="Helvetica,sans-Serif" font-size="10.00">optional</text>
</a>
</g>
</g>
<!-- Node1&#45;&gt;Node14 -->
<g id="edge68" class="edge">
<title>Node1&#45;&gt;Node14</title>
<path fill="none" stroke="#63b8ff" d="M475.71,-351.59C470.24,-324.01 462.07,-262.73 486,-220 527.06,-146.69 619.09,-99.13 668.01,-78.05"/>
<polygon fill="#63b8ff" stroke="#63b8ff" points="669.62,-81.17 677.48,-74.07 666.9,-74.72 669.62,-81.17"/>
</g>
<!-- Node23 -->
<g id="node23" class="node">
<title>Node23</title>
<g id="a_node23"><a xlink:href="http__header__map_8h.html" target="_top" xlink:title=" ">
<polygon fill="white" stroke="#666666" points="1753,-74 1625,-74 1625,-55 1753,-55 1753,-74"/>
<text text-anchor="middle" x="1689" y="-62" font-family="Helvetica,sans-Serif" font-size="10.00">ccf/http_header_map.h</text>
</a>
</g>
</g>
<!-- Node1&#45;&gt;Node23 -->
<g id="edge27" class="edge">
<title>Node1&#45;&gt;Node23</title>
<path fill="none" stroke="#63b8ff" d="M545.67,-364.81C777.14,-359.8 1532,-335.81 1532,-236 1532,-236 1532,-236 1532,-173.5 1532,-120.02 1594.59,-91.02 1640.73,-76.91"/>
<polygon fill="#63b8ff" stroke="#63b8ff" points="1641.97,-80.19 1650.59,-74.04 1640.01,-73.47 1641.97,-80.19"/>
</g>
<!-- Node25 -->
<g id="node25" class="node">
<title>Node25</title>
<g id="a_node25"><a xlink:href="http__status_8h.html" target="_top" xlink:title=" ">
<polygon fill="white" stroke="#666666" points="605,-310.5 507,-310.5 507,-291.5 605,-291.5 605,-310.5"/>
<text text-anchor="middle" x="556" y="-298.5" font-family="Helvetica,sans-Serif" font-size="10.00">ccf/http_status.h</text>
</a>
</g>
</g>
<!-- Node1&#45;&gt;Node25 -->
<g id="edge30" class="edge">
<title>Node1&#45;&gt;Node25</title>
<path fill="none" stroke="#63b8ff" d="M496.09,-351.8C508.33,-341.62 524.8,-327.93 537.38,-317.48"/>
<polygon fill="#63b8ff" stroke="#63b8ff" points="539.91,-319.93 545.36,-310.84 535.43,-314.54 539.91,-319.93"/>
</g>
<!-- Node26 -->
<g id="node26" class="node">
<title>Node26</title>
<g id="a_node26"><a xlink:href="node__subsystem__interface_8h.html" target="_top" xlink:title=" ">
<polygon fill="white" stroke="#666666" points="739,-316 623,-316 623,-286 739,-286 739,-316"/>
<text text-anchor="start" x="631" y="-304" font-family="Helvetica,sans-Serif" font-size="10.00">ccf/node_subsystem</text>
<text text-anchor="middle" x="681" y="-293" font-family="Helvetica,sans-Serif" font-size="10.00">_interface.h</text>
</a>
</g>
</g>
<!-- Node1&#45;&gt;Node26 -->
<g id="edge31" class="edge">
<title>Node1&#45;&gt;Node26</title>
<path fill="none" stroke="#63b8ff" d="M523.33,-351.95C553.85,-342.28 594.58,-329.38 627,-319.11"/>
<polygon fill="#63b8ff" stroke="#63b8ff" points="628.3,-322.37 636.77,-316.01 626.18,-315.7 628.3,-322.37"/>
</g>
<!-- Node27 -->
<g id="node27" class="node">
<title>Node27</title>
<g id="a_node27"><a xlink:href="acme__client__config_8h.html" target="_top" xlink:title=" ">
<polygon fill="white" stroke="#666666" points="625.5,-250 494.5,-250 494.5,-220 625.5,-220 625.5,-250"/>
<text text-anchor="start" x="502.5" y="-238" font-family="Helvetica,sans-Serif" font-size="10.00">ccf/service/acme_client</text>
<text text-anchor="middle" x="560" y="-227" font-family="Helvetica,sans-Serif" font-size="10.00">_config.h</text>
</a>
</g>
</g>
<!-- Node1&#45;&gt;Node27 -->
<g id="edge32" class="edge">
<title>Node1&#45;&gt;Node27</title>
<path fill="none" stroke="#63b8ff" d="M479.61,-351.93C480.92,-335.07 485.05,-306.53 498,-286 505.33,-274.37 516.32,-264.23 527.02,-256.18"/>
<polygon fill="#63b8ff" stroke="#63b8ff" points="529.34,-258.83 535.46,-250.18 525.28,-253.12 529.34,-258.83"/>
</g>
<!-- Node28 -->
<g id="node28" class="node">
<title>Node28</title>
<g id="a_node28"><a xlink:href="node__info__network_8h.html" target="_top" xlink:title=" ">
<polygon fill="white" stroke="#666666" points="877,-316 757,-316 757,-286 877,-286 877,-316"/>
<text text-anchor="start" x="765" y="-304" font-family="Helvetica,sans-Serif" font-size="10.00">ccf/service/node_info</text>
<text text-anchor="middle" x="817" y="-293" font-family="Helvetica,sans-Serif" font-size="10.00">_network.h</text>
</a>
</g>
</g>
<!-- Node1&#45;&gt;Node28 -->
<g id="edge37" class="edge">
<title>Node1&#45;&gt;Node28</title>
<path fill="none" stroke="#63b8ff" d="M545.66,-353.92C597.79,-344.41 672.36,-330.64 746.78,-316.22"/>
<polygon fill="#63b8ff" stroke="#63b8ff" points="747.65,-319.62 756.8,-314.27 746.32,-312.74 747.65,-319.62"/>
</g>
<!-- Node3 -->
<g id="node3" class="node">
<title>Node3</title>
<g id="a_node3"><a xlink:href="json_8h.html" target="_top" xlink:title=" ">
<polygon fill="white" stroke="#666666" points="803.5,-184 726.5,-184 726.5,-165 803.5,-165 803.5,-184"/>
<text text-anchor="middle" x="765" y="-172" font-family="Helvetica,sans-Serif" font-size="10.00">ccf/ds/json.h</text>
</a>
</g>
</g>
<!-- Node2&#45;&gt;Node3 -->
<g id="edge2" class="edge">
<title>Node2&#45;&gt;Node3</title>
<path fill="none" stroke="#63b8ff" d="M344.41,-227.85C434.96,-216.58 626.44,-192.75 716.39,-181.55"/>
<polygon fill="#63b8ff" stroke="#63b8ff" points="716.83,-185.02 726.32,-180.31 715.97,-178.08 716.83,-185.02"/>
</g>
<!-- Node2&#45;&gt;Node6 -->
<g id="edge26" class="edge">
<title>Node2&#45;&gt;Node6</title>
<path fill="none" stroke="#63b8ff" d="M297.49,-225.41C304.97,-199.59 328.03,-120.4 348,-55 350.63,-46.37 353.63,-36.83 356.17,-28.8"/>
<polygon fill="#63b8ff" stroke="#63b8ff" points="359.58,-29.61 359.27,-19.02 352.91,-27.49 359.58,-29.61"/>
</g>
<!-- Node12 -->
<g id="node12" class="node">
<title>Node12</title>
<g id="a_node12"><a xlink:title=" ">
<polygon fill="#e0e0e0" stroke="#999999" points="540.5,-19 467.5,-19 467.5,0 540.5,0 540.5,-19"/>
<text text-anchor="middle" x="504" y="-7" font-family="Helvetica,sans-Serif" font-size="10.00">string_view</text>
</a>
</g>
</g>
<!-- Node2&#45;&gt;Node12 -->
<g id="edge25" class="edge">
<title>Node2&#45;&gt;Node12</title>
<path fill="none" stroke="#63b8ff" d="M300.62,-225.17C321.19,-193.04 392.8,-82.75 424,-55 438.65,-41.97 457.77,-31.16 473.64,-23.46"/>
<polygon fill="#63b8ff" stroke="#63b8ff" points="475.45,-26.48 483.03,-19.08 472.49,-20.13 475.45,-26.48"/>
</g>
<!-- Node19 -->
<g id="node19" class="node">
<title>Node19</title>
<g id="a_node19"><a xlink:title=" ">
<polygon fill="#e0e0e0" stroke="#999999" points="136,-184 86,-184 86,-165 136,-165 136,-184"/>
<text text-anchor="middle" x="111" y="-172" font-family="Helvetica,sans-Serif" font-size="10.00">cstring</text>
</a>
</g>
</g>
<!-- Node2&#45;&gt;Node19 -->
<g id="edge21" class="edge">
<title>Node2&#45;&gt;Node19</title>
<path fill="none" stroke="#63b8ff" d="M268.24,-225.49C235.95,-215.23 181.55,-197.93 145.97,-186.62"/>
<polygon fill="#63b8ff" stroke="#63b8ff" points="146.61,-183.15 136.02,-183.45 144.48,-189.82 146.61,-183.15"/>
</g>
<!-- Node20 -->
<g id="node20" class="node">
<title>Node20</title>
<g id="a_node20"><a xlink:title=" ">
<polygon fill="#e0e0e0" stroke="#999999" points="219.5,-184 154.5,-184 154.5,-165 219.5,-165 219.5,-184"/>
<text text-anchor="middle" x="187" y="-172" font-family="Helvetica,sans-Serif" font-size="10.00">exception</text>
</a>
</g>
</g>
<!-- Node2&#45;&gt;Node20 -->
<g id="edge22" class="edge">
<title>Node2&#45;&gt;Node20</title>
<path fill="none" stroke="#63b8ff" d="M279.06,-225.37C261.36,-215.78 232.54,-200.17 211.86,-188.97"/>
<polygon fill="#63b8ff" stroke="#63b8ff" points="213.46,-185.85 203,-184.17 210.13,-192.01 213.46,-185.85"/>
</g>
<!-- Node21 -->
<g id="node21" class="node">
<title>Node21</title>
<g id="a_node21"><a xlink:title=" ">
<polygon fill="#e0e0e0" stroke="#999999" points="296,-184 238,-184 238,-165 296,-165 296,-184"/>
<text text-anchor="middle" x="267" y="-172" font-family="Helvetica,sans-Serif" font-size="10.00">memory</text>
</a>
</g>
</g>
<!-- Node2&#45;&gt;Node21 -->
<g id="edge23" class="edge">
<title>Node2&#45;&gt;Node21</title>
<path fill="none" stroke="#63b8ff" d="M290.87,-225.37C286.86,-216.99 280.65,-204.01 275.56,-193.39"/>
<polygon fill="#63b8ff" stroke="#63b8ff" points="278.62,-191.68 271.15,-184.17 272.31,-194.7 278.62,-191.68"/>
</g>
<!-- Node22 -->
<g id="node22" class="node">
<title>Node22</title>
<g id="a_node22"><a xlink:title=" ">
<polygon fill="#e0e0e0" stroke="#999999" points="68,-184 28,-184 28,-165 68,-165 68,-184"/>
<text text-anchor="middle" x="48" y="-172" font-family="Helvetica,sans-Serif" font-size="10.00">span</text>
</a>
</g>
</g>
<!-- Node2&#45;&gt;Node22 -->
<g id="edge24" class="edge">
<title>Node2&#45;&gt;Node22</title>
<path fill="none" stroke="#63b8ff" d="M254.65,-225.5C212.81,-216.52 145.32,-201.57 78.14,-184.18"/>
<polygon fill="#63b8ff" stroke="#63b8ff" points="78.8,-180.74 68.24,-181.6 77.03,-187.51 78.8,-180.74"/>
</g>
<!-- Node4 -->
<g id="node4" class="node">
<title>Node4</title>
<g id="a_node4"><a xlink:href="include_2ccf_2crypto_2base64_8h.html" target="_top" xlink:title=" ">
<polygon fill="white" stroke="#666666" points="616,-74 504,-74 504,-55 616,-55 616,-74"/>
<text text-anchor="middle" x="560" y="-62" font-family="Helvetica,sans-Serif" font-size="10.00">ccf/crypto/base64.h</text>
</a>
</g>
</g>
<!-- Node3&#45;&gt;Node4 -->
<g id="edge3" class="edge">
<title>Node3&#45;&gt;Node4</title>
<path fill="none" stroke="#63b8ff" d="M748.57,-164.84C712.8,-146 627.66,-101.14 585.11,-78.73"/>
<polygon fill="#63b8ff" stroke="#63b8ff" points="586.7,-75.61 576.22,-74.05 583.44,-81.8 586.7,-75.61"/>
</g>
<!-- Node7 -->
<g id="node7" class="node">
<title>Node7</title>
<g id="a_node7"><a xlink:href="include_2ccf_2ds_2json__schema_8h.html" target="_top" xlink:title=" ">
<polygon fill="white" stroke="#666666" points="923.5,-129 802.5,-129 802.5,-110 923.5,-110 923.5,-129"/>
<text text-anchor="middle" x="863" y="-117" font-family="Helvetica,sans-Serif" font-size="10.00">ccf/ds/json_schema.h</text>
</a>
</g>
</g>
<!-- Node3&#45;&gt;Node7 -->
<g id="edge6" class="edge">
<title>Node3&#45;&gt;Node7</title>
<path fill="none" stroke="#63b8ff" d="M780.75,-164.98C796.23,-156.61 820.09,-143.7 838.14,-133.95"/>
<polygon fill="#63b8ff" stroke="#63b8ff" points="839.84,-137.01 846.97,-129.17 836.51,-130.85 839.84,-137.01"/>
</g>
<!-- Node15 -->
<g id="node15" class="node">
<title>Node15</title>
<g id="a_node15"><a xlink:title=" ">
<polygon fill="#e0e0e0" stroke="#999999" points="1365.5,-19 1286.5,-19 1286.5,0 1365.5,0 1365.5,-19"/>
<text text-anchor="middle" x="1326" y="-7" font-family="Helvetica,sans-Serif" font-size="10.00">fmt/format.h</text>
</a>
</g>
</g>
<!-- Node3&#45;&gt;Node15 -->
<g id="edge19" class="edge">
<title>Node3&#45;&gt;Node15</title>
<path fill="none" stroke="#63b8ff" d="M803.82,-168.95C839.31,-163.51 892.31,-152.05 933,-129 974.02,-105.76 966.67,-75.75 1009,-55 1054.93,-32.48 1198.73,-19.34 1275.89,-13.73"/>
<polygon fill="#63b8ff" stroke="#63b8ff" points="1276.59,-17.19 1286.32,-12.99 1276.09,-10.21 1276.59,-17.19"/>
</g>
<!-- Node18 -->
<g id="node18" class="node">
<title>Node18</title>
<g id="a_node18"><a xlink:title=" ">
<polygon fill="#e0e0e0" stroke="#999999" points="1202,-74 1146,-74 1146,-55 1202,-55 1202,-74"/>
<text text-anchor="middle" x="1174" y="-62" font-family="Helvetica,sans-Serif" font-size="10.00">sstream</text>
</a>
</g>
</g>
<!-- Node3&#45;&gt;Node18 -->
<g id="edge20" class="edge">
<title>Node3&#45;&gt;Node18</title>
<path fill="none" stroke="#63b8ff" d="M803.75,-165.86C844.39,-157.63 910,-143.72 966,-129 1027.23,-112.9 1097.48,-90.65 1138.67,-77.21"/>
<polygon fill="#63b8ff" stroke="#63b8ff" points="1139.83,-80.52 1148.24,-74.08 1137.65,-73.86 1139.83,-80.52"/>
</g>
<!-- Node4&#45;&gt;Node5 -->
<g id="edge4" class="edge">
<title>Node4&#45;&gt;Node5</title>
<path fill="none" stroke="#63b8ff" d="M573.5,-54.98C586.4,-46.84 606.1,-34.41 621.4,-24.76"/>
<polygon fill="#63b8ff" stroke="#63b8ff" points="623.67,-27.47 630.26,-19.17 619.93,-21.55 623.67,-27.47"/>
</g>
<!-- Node4&#45;&gt;Node6 -->
<g id="edge5" class="edge">
<title>Node4&#45;&gt;Node6</title>
<path fill="none" stroke="#63b8ff" d="M528.19,-54.98C491.82,-45.25 432.54,-29.38 395.48,-19.46"/>
<polygon fill="#63b8ff" stroke="#63b8ff" points="396.22,-16.04 385.66,-16.83 394.41,-22.8 396.22,-16.04"/>
</g>
<!-- Node8 -->
<g id="node8" class="node">
<title>Node8</title>
<g id="a_node8"><a xlink:href="nonstd_8h.html" target="_top" xlink:title=" ">
<polygon fill="white" stroke="#666666" points="836,-74 746,-74 746,-55 836,-55 836,-74"/>
<text text-anchor="middle" x="791" y="-62" font-family="Helvetica,sans-Serif" font-size="10.00">ccf/ds/nonstd.h</text>
</a>
</g>
</g>
<!-- Node7&#45;&gt;Node8 -->
<g id="edge7" class="edge">
<title>Node7&#45;&gt;Node8</title>
<path fill="none" stroke="#63b8ff" d="M851.43,-109.98C840.58,-102 824.12,-89.88 811.12,-80.31"/>
<polygon fill="#63b8ff" stroke="#63b8ff" points="812.91,-77.28 802.78,-74.17 808.76,-82.92 812.91,-77.28"/>
</g>
<!-- Node7&#45;&gt;Node14 -->
<g id="edge15" class="edge">
<title>Node7&#45;&gt;Node14</title>
<path fill="none" stroke="#63b8ff" d="M836.81,-109.98C809.56,-101.13 766.7,-87.19 736.22,-77.28"/>
<polygon fill="#63b8ff" stroke="#63b8ff" points="736.99,-73.85 726.39,-74.08 734.82,-80.5 736.99,-73.85"/>
</g>
<!-- Node7&#45;&gt;Node15 -->
<g id="edge16" class="edge">
<title>Node7&#45;&gt;Node15</title>
<path fill="none" stroke="#63b8ff" d="M870.22,-109.68C882.48,-95.41 908.88,-67.6 938,-55 997.69,-29.17 1185.84,-17.06 1276.37,-12.62"/>
<polygon fill="#63b8ff" stroke="#63b8ff" points="1276.57,-16.11 1286.39,-12.14 1276.24,-9.12 1276.57,-16.11"/>
</g>
<!-- Node16 -->
<g id="node16" class="node">
<title>Node16</title>
<g id="a_node16"><a xlink:title=" ">
<polygon fill="#e0e0e0" stroke="#999999" points="1128,-74 1018,-74 1018,-55 1128,-55 1128,-74"/>
<text text-anchor="middle" x="1073" y="-62" font-family="Helvetica,sans-Serif" font-size="10.00">nlohmann/json.hpp</text>
</a>
</g>
</g>
<!-- Node7&#45;&gt;Node16 -->
<g id="edge17" class="edge">
<title>Node7&#45;&gt;Node16</title>
<path fill="none" stroke="#63b8ff" d="M896.74,-109.98C932.68,-100.91 989.72,-86.52 1029.13,-76.57"/>
<polygon fill="#63b8ff" stroke="#63b8ff" points="1030.16,-79.92 1039,-74.08 1028.44,-73.14 1030.16,-79.92"/>
</g>
<!-- Node17 -->
<g id="node17" class="node">
<title>Node17</title>
<g id="a_node17"><a xlink:title=" ">
<polygon fill="#e0e0e0" stroke="#999999" points="886,-74 854,-74 854,-55 886,-55 886,-74"/>
<text text-anchor="middle" x="870" y="-62" font-family="Helvetica,sans-Serif" font-size="10.00">set</text>
</a>
</g>
</g>
<!-- Node7&#45;&gt;Node17 -->
<g id="edge18" class="edge">
<title>Node7&#45;&gt;Node17</title>
<path fill="none" stroke="#63b8ff" d="M864.16,-109.75C865.07,-102.8 866.39,-92.85 867.54,-84.13"/>
<polygon fill="#63b8ff" stroke="#63b8ff" points="871.03,-84.46 868.87,-74.09 864.09,-83.54 871.03,-84.46"/>
</g>
<!-- Node8&#45;&gt;Node5 -->
<g id="edge11" class="edge">
<title>Node8&#45;&gt;Node5</title>
<path fill="none" stroke="#63b8ff" d="M767.38,-54.98C742.52,-46.02 703.23,-31.86 675.69,-21.92"/>
<polygon fill="#63b8ff" stroke="#63b8ff" points="676.71,-18.57 666.12,-18.47 674.34,-25.16 676.71,-18.57"/>
</g>
<!-- Node8&#45;&gt;Node6 -->
<g id="edge14" class="edge">
<title>Node8&#45;&gt;Node6</title>
<path fill="none" stroke="#63b8ff" d="M745.94,-56.28C742.91,-55.83 739.91,-55.4 737,-55 611.5,-37.68 461.79,-21.15 395.93,-14.09"/>
<polygon fill="#63b8ff" stroke="#63b8ff" points="396.05,-10.58 385.73,-13 395.3,-17.54 396.05,-10.58"/>
</g>
<!-- Node9 -->
<g id="node9" class="node">
<title>Node9</title>
<g id="a_node9"><a xlink:title=" ">
<polygon fill="#e0e0e0" stroke="#999999" points="898,-19 834,-19 834,0 898,0 898,-19"/>
<text text-anchor="middle" x="866" y="-7" font-family="Helvetica,sans-Serif" font-size="10.00">algorithm</text>
</a>
</g>
</g>
<!-- Node8&#45;&gt;Node9 -->
<g id="edge8" class="edge">
<title>Node8&#45;&gt;Node9</title>
<path fill="none" stroke="#63b8ff" d="M803.05,-54.98C814.46,-46.92 831.83,-34.65 845.43,-25.03"/>
<polygon fill="#63b8ff" stroke="#63b8ff" points="847.58,-27.8 853.73,-19.17 843.54,-22.08 847.58,-27.8"/>
</g>
<!-- Node10 -->
<g id="node10" class="node">
<title>Node10</title>
<g id="a_node10"><a xlink:title=" ">
<polygon fill="#e0e0e0" stroke="#999999" points="748,-19 706,-19 706,0 748,0 748,-19"/>
<text text-anchor="middle" x="727" y="-7" font-family="Helvetica,sans-Serif" font-size="10.00">array</text>
</a>
</g>
</g>
<!-- Node8&#45;&gt;Node10 -->
<g id="edge9" class="edge">
<title>Node8&#45;&gt;Node10</title>
<path fill="none" stroke="#63b8ff" d="M780.72,-54.98C771.16,-47.07 756.72,-35.11 745.22,-25.58"/>
<polygon fill="#63b8ff" stroke="#63b8ff" points="747.4,-22.85 737.47,-19.17 742.94,-28.24 747.4,-22.85"/>
</g>
<!-- Node11 -->
<g id="node11" class="node">
<title>Node11</title>
<g id="a_node11"><a xlink:title=" ">
<polygon fill="#e0e0e0" stroke="#999999" points="815.5,-19 766.5,-19 766.5,0 815.5,0 815.5,-19"/>
<text text-anchor="middle" x="791" y="-7" font-family="Helvetica,sans-Serif" font-size="10.00">cctype</text>
</a>
</g>
</g>
<!-- Node8&#45;&gt;Node11 -->
<g id="edge10" class="edge">
<title>Node8&#45;&gt;Node11</title>
<path fill="none" stroke="#63b8ff" d="M791,-54.75C791,-47.8 791,-37.85 791,-29.13"/>
<polygon fill="#63b8ff" stroke="#63b8ff" points="794.5,-29.09 791,-19.09 787.5,-29.09 794.5,-29.09"/>
</g>
<!-- Node8&#45;&gt;Node12 -->
<g id="edge12" class="edge">
<title>Node8&#45;&gt;Node12</title>
<path fill="none" stroke="#63b8ff" d="M745.84,-55.16C692.6,-45.33 604.56,-29.07 550.67,-19.12"/>
<polygon fill="#63b8ff" stroke="#63b8ff" points="551.17,-15.65 540.7,-17.28 549.9,-22.54 551.17,-15.65"/>
</g>
<!-- Node13 -->
<g id="node13" class="node">
<title>Node13</title>
<g id="a_node13"><a xlink:title=" ">
<polygon fill="#e0e0e0" stroke="#999999" points="1125.5,-19 1056.5,-19 1056.5,0 1125.5,0 1125.5,-19"/>
<text text-anchor="middle" x="1091" y="-7" font-family="Helvetica,sans-Serif" font-size="10.00">type_traits</text>
</a>
</g>
</g>
<!-- Node8&#45;&gt;Node13 -->
<g id="edge13" class="edge">
<title>Node8&#45;&gt;Node13</title>
<path fill="none" stroke="#63b8ff" d="M836.24,-55.51C892.95,-45.49 989.55,-28.42 1046.1,-18.43"/>
<polygon fill="#63b8ff" stroke="#63b8ff" points="1046.94,-21.84 1056.17,-16.65 1045.72,-14.95 1046.94,-21.84"/>
</g>
<!-- Node23&#45;&gt;Node5 -->
<g id="edge29" class="edge">
<title>Node23&#45;&gt;Node5</title>
<path fill="none" stroke="#63b8ff" d="M1624.93,-55.76C1621.92,-55.48 1618.93,-55.23 1616,-55 1208.47,-23.34 1103.75,-59.44 697,-19 690.31,-18.33 683.17,-17.37 676.38,-16.32"/>
<polygon fill="#63b8ff" stroke="#63b8ff" points="676.53,-12.8 666.1,-14.65 675.41,-19.71 676.53,-12.8"/>
</g>
<!-- Node24 -->
<g id="node24" class="node">
<title>Node24</title>
<g id="a_node24"><a xlink:title=" ">
<polygon fill="#e0e0e0" stroke="#999999" points="1706,-19 1668,-19 1668,0 1706,0 1706,-19"/>
<text text-anchor="middle" x="1687" y="-7" font-family="Helvetica,sans-Serif" font-size="10.00">map</text>
</a>
</g>
</g>
<!-- Node23&#45;&gt;Node24 -->
<g id="edge28" class="edge">
<title>Node23&#45;&gt;Node24</title>
<path fill="none" stroke="#63b8ff" d="M1688.67,-54.75C1688.41,-47.8 1688.03,-37.85 1687.7,-29.13"/>
<polygon fill="#63b8ff" stroke="#63b8ff" points="1691.2,-28.95 1687.32,-19.09 1684.2,-29.21 1691.2,-28.95"/>
</g>
<!-- Node27&#45;&gt;Node3 -->
<g id="edge33" class="edge">
<title>Node27&#45;&gt;Node3</title>
<path fill="none" stroke="#63b8ff" d="M609.1,-219.99C644.63,-209.85 692.04,-196.32 725.22,-186.85"/>
<polygon fill="#63b8ff" stroke="#63b8ff" points="726.37,-190.16 735.03,-184.05 724.45,-183.43 726.37,-190.16"/>
</g>
<!-- Node27&#45;&gt;Node5 -->
<g id="edge35" class="edge">
<title>Node27&#45;&gt;Node5</title>
<path fill="none" stroke="#63b8ff" d="M546.36,-219.66C517.39,-187.45 455.5,-108.03 495,-55 521.75,-19.1 576.37,-11.04 611.53,-9.81"/>
<polygon fill="#63b8ff" stroke="#63b8ff" points="611.83,-13.31 621.76,-9.63 611.7,-6.31 611.83,-13.31"/>
</g>
<!-- Node27&#45;&gt;Node6 -->
<g id="edge36" class="edge">
<title>Node27&#45;&gt;Node6</title>
<path fill="none" stroke="#63b8ff" d="M541.66,-219.97C529.59,-210.38 513.73,-197.09 501,-184 449.32,-130.87 396.95,-59.82 374.01,-27.63"/>
<polygon fill="#63b8ff" stroke="#63b8ff" points="376.75,-25.43 368.11,-19.29 371.03,-29.47 376.75,-25.43"/>
</g>
<!-- Node27&#45;&gt;Node14 -->
<g id="edge34" class="edge">
<title>Node27&#45;&gt;Node14</title>
<path fill="none" stroke="#63b8ff" d="M571.7,-219.92C597.39,-188.99 658.68,-115.23 686.21,-82.1"/>
<polygon fill="#63b8ff" stroke="#63b8ff" points="689.03,-84.18 692.73,-74.25 683.64,-79.71 689.03,-84.18"/>
</g>
<!-- Node28&#45;&gt;Node3 -->
<g id="edge38" class="edge">
<title>Node28&#45;&gt;Node3</title>
<path fill="none" stroke="#63b8ff" d="M799.46,-285.69C789.61,-276.58 778.1,-263.9 772,-250 764.27,-232.37 763.14,-210.18 763.57,-194.62"/>
<polygon fill="#63b8ff" stroke="#63b8ff" points="767.08,-194.37 764.11,-184.2 760.09,-194.01 767.08,-194.37"/>
</g>
<!-- Node28&#45;&gt;Node5 -->
<g id="edge67" class="edge">
<title>Node28&#45;&gt;Node5</title>
<path fill="none" stroke="#63b8ff" d="M780.93,-285.8C763.86,-277.54 744.34,-265.63 731,-250 673.27,-182.35 652.56,-73.25 646.33,-29.53"/>
<polygon fill="#63b8ff" stroke="#63b8ff" points="649.77,-28.9 644.99,-19.44 642.83,-29.82 649.77,-28.9"/>
</g>
<!-- Node28&#45;&gt;Node8 -->
<g id="edge39" class="edge">
<title>Node28&#45;&gt;Node8</title>
<path fill="none" stroke="#63b8ff" d="M797.43,-285.87C772.46,-266.36 730.95,-228.49 718,-184 706.04,-142.94 745.51,-102.01 771.02,-80.66"/>
<polygon fill="#63b8ff" stroke="#63b8ff" points="773.44,-83.2 779.03,-74.2 769.05,-77.75 773.44,-83.2"/>
</g>
<!-- Node28&#45;&gt;Node27 -->
<g id="edge66" class="edge">
<title>Node28&#45;&gt;Node27</title>
<path fill="none" stroke="#63b8ff" d="M760.6,-285.95C720.93,-276.08 667.71,-262.82 626.05,-252.45"/>
<polygon fill="#63b8ff" stroke="#63b8ff" points="626.82,-249.03 616.27,-250.01 625.13,-255.83 626.82,-249.03"/>
</g>
<!-- Node29 -->
<g id="node29" class="node">
<title>Node29</title>
<g id="a_node29"><a xlink:href="http__configuration_8h.html" target="_top" xlink:title=" ">
<polygon fill="white" stroke="#666666" points="911.5,-244.5 780.5,-244.5 780.5,-225.5 911.5,-225.5 911.5,-244.5"/>
<text text-anchor="middle" x="846" y="-232.5" font-family="Helvetica,sans-Serif" font-size="10.00">ccf/http_configuration.h</text>
</a>
</g>
</g>
<!-- Node28&#45;&gt;Node29 -->
<g id="edge40" class="edge">
<title>Node28&#45;&gt;Node29</title>
<path fill="none" stroke="#63b8ff" d="M823.44,-285.8C827.65,-276.5 833.19,-264.27 837.73,-254.26"/>
<polygon fill="#63b8ff" stroke="#63b8ff" points="841.05,-255.4 841.99,-244.84 834.68,-252.51 841.05,-255.4"/>
</g>
<!-- Node29&#45;&gt;Node3 -->
<g id="edge41" class="edge">
<title>Node29&#45;&gt;Node3</title>
<path fill="none" stroke="#63b8ff" d="M834.05,-225.37C821.25,-216.12 800.7,-201.28 785.35,-190.19"/>
<polygon fill="#63b8ff" stroke="#63b8ff" points="787.16,-187.18 777,-184.17 783.06,-192.86 787.16,-187.18"/>
</g>
<!-- Node29&#45;&gt;Node14 -->
<g id="edge65" class="edge">
<title>Node29&#45;&gt;Node14</title>
<path fill="none" stroke="#63b8ff" d="M843.13,-225.32C838.34,-211.61 827.74,-184.49 813,-165 786.32,-129.72 745.54,-97.61 720.95,-79.89"/>
<polygon fill="#63b8ff" stroke="#63b8ff" points="722.87,-76.95 712.69,-74.03 718.82,-82.67 722.87,-76.95"/>
</g>
<!-- Node30 -->
<g id="node30" class="node">
<title>Node30</title>
<g id="a_node30"><a xlink:href="unit__strings_8h.html" target="_top" xlink:title=" ">
<polygon fill="white" stroke="#666666" points="1144,-184 1030,-184 1030,-165 1144,-165 1144,-184"/>
<text text-anchor="middle" x="1087" y="-172" font-family="Helvetica,sans-Serif" font-size="10.00">ccf/ds/unit_strings.h</text>
</a>
</g>
</g>
<!-- Node29&#45;&gt;Node30 -->
<g id="edge42" class="edge">
<title>Node29&#45;&gt;Node30</title>
<path fill="none" stroke="#63b8ff" d="M881.04,-225.49C923.61,-215.16 995.49,-197.71 1042.09,-186.4"/>
<polygon fill="#63b8ff" stroke="#63b8ff" points="1043.02,-189.78 1051.91,-184.02 1041.37,-182.97 1043.02,-189.78"/>
</g>
<!-- Node30&#45;&gt;Node5 -->
<g id="edge64" class="edge">
<title>Node30&#45;&gt;Node5</title>
<path fill="none" stroke="#63b8ff" d="M1076.52,-164.99C1048.78,-142.96 970.4,-83.74 895,-55 884.82,-51.12 741.62,-26.85 676.2,-15.88"/>
<polygon fill="#63b8ff" stroke="#63b8ff" points="676.47,-12.37 666.03,-14.17 675.31,-19.28 676.47,-12.37"/>
</g>
<!-- Node30&#45;&gt;Node8 -->
<g id="edge60" class="edge">
<title>Node30&#45;&gt;Node8</title>
<path fill="none" stroke="#63b8ff" d="M1029.87,-173.08C953.61,-171.19 824.57,-162.92 794,-129 783.27,-117.1 783.75,-98.27 786.17,-84.2"/>
<polygon fill="#63b8ff" stroke="#63b8ff" points="789.65,-84.68 788.35,-74.16 782.81,-83.19 789.65,-84.68"/>
</g>
<!-- Node30&#45;&gt;Node16 -->
<g id="edge63" class="edge">
<title>Node30&#45;&gt;Node16</title>
<path fill="none" stroke="#63b8ff" d="M1129.47,-164.96C1166.41,-155.48 1211.25,-137.74 1192,-110 1179.46,-91.93 1158.64,-81.18 1137.89,-74.8"/>
<polygon fill="#63b8ff" stroke="#63b8ff" points="1138.64,-71.38 1128.07,-72.08 1136.77,-78.12 1138.64,-71.38"/>
</g>
<!-- Node31 -->
<g id="node31" class="node">
<title>Node31</title>
<g id="a_node31"><a xlink:href="logger_8h.html" target="_top" xlink:title=" ">
<polygon fill="white" stroke="#666666" points="1347.5,-129 1260.5,-129 1260.5,-110 1347.5,-110 1347.5,-129"/>
<text text-anchor="middle" x="1304" y="-117" font-family="Helvetica,sans-Serif" font-size="10.00">ccf/ds/logger.h</text>
</a>
</g>
</g>
<!-- Node30&#45;&gt;Node31 -->
<g id="edge43" class="edge">
<title>Node30&#45;&gt;Node31</title>
<path fill="none" stroke="#63b8ff" d="M1121.86,-164.98C1159.09,-155.89 1218.2,-141.46 1258.93,-131.51"/>
<polygon fill="#63b8ff" stroke="#63b8ff" points="1259.98,-134.85 1268.86,-129.08 1258.32,-128.05 1259.98,-134.85"/>
</g>
<!-- Node40 -->
<g id="node40" class="node">
<title>Node40</title>
<g id="a_node40"><a xlink:title=" ">
<polygon fill="#e0e0e0" stroke="#999999" points="1117.5,-129 1056.5,-129 1056.5,-110 1117.5,-110 1117.5,-129"/>
<text text-anchor="middle" x="1087" y="-117" font-family="Helvetica,sans-Serif" font-size="10.00">charconv</text>
</a>
</g>
</g>
<!-- Node30&#45;&gt;Node40 -->
<g id="edge61" class="edge">
<title>Node30&#45;&gt;Node40</title>
<path fill="none" stroke="#63b8ff" d="M1087,-164.75C1087,-157.8 1087,-147.85 1087,-139.13"/>
<polygon fill="#63b8ff" stroke="#63b8ff" points="1090.5,-139.09 1087,-129.09 1083.5,-139.09 1090.5,-139.09"/>
</g>
<!-- Node41 -->
<g id="node41" class="node">
<title>Node41</title>
<g id="a_node41"><a xlink:title=" ">
<polygon fill="#e0e0e0" stroke="#999999" points="1182.5,-129 1135.5,-129 1135.5,-110 1182.5,-110 1182.5,-129"/>
<text text-anchor="middle" x="1159" y="-117" font-family="Helvetica,sans-Serif" font-size="10.00">cmath</text>
</a>
</g>
</g>
<!-- Node30&#45;&gt;Node41 -->
<g id="edge62" class="edge">
<title>Node30&#45;&gt;Node41</title>
<path fill="none" stroke="#63b8ff" d="M1098.57,-164.98C1109.42,-157 1125.88,-144.88 1138.88,-135.31"/>
<polygon fill="#63b8ff" stroke="#63b8ff" points="1141.24,-137.92 1147.22,-129.17 1137.09,-132.28 1141.24,-137.92"/>
</g>
<!-- Node31&#45;&gt;Node13 -->
<g id="edge59" class="edge">
<title>Node31&#45;&gt;Node13</title>
<path fill="none" stroke="#63b8ff" d="M1293.38,-109.96C1276.65,-96.82 1242.78,-71.43 1211,-55 1184.92,-41.52 1153.8,-30.1 1129.78,-22.21"/>
<polygon fill="#63b8ff" stroke="#63b8ff" points="1130.55,-18.78 1119.96,-19.04 1128.41,-25.44 1130.55,-18.78"/>
</g>
<!-- Node31&#45;&gt;Node14 -->
<g id="edge57" class="edge">
<title>Node31&#45;&gt;Node14</title>
<path fill="none" stroke="#63b8ff" d="M1260.19,-115.15C1138.84,-105.85 803.46,-80.09 738.28,-73.58"/>
<polygon fill="#63b8ff" stroke="#63b8ff" points="738.53,-70.09 728.2,-72.43 737.74,-77.04 738.53,-70.09"/>
</g>
<!-- Node31&#45;&gt;Node15 -->
<g id="edge54" class="edge">
<title>Node31&#45;&gt;Node15</title>
<path fill="none" stroke="#63b8ff" d="M1347.74,-110.24C1368.2,-103.95 1390.72,-92.99 1403,-74 1417.08,-52.23 1388.4,-34.22 1362.13,-23"/>
<polygon fill="#63b8ff" stroke="#63b8ff" points="1363.23,-19.67 1352.65,-19.19 1360.62,-26.17 1363.23,-19.67"/>
</g>
<!-- Node31&#45;&gt;Node16 -->
<g id="edge56" class="edge">
<title>Node31&#45;&gt;Node16</title>
<path fill="none" stroke="#63b8ff" d="M1266.89,-109.98C1227.01,-100.84 1163.54,-86.27 1120.16,-76.32"/>
<polygon fill="#63b8ff" stroke="#63b8ff" points="1120.93,-72.91 1110.41,-74.08 1119.37,-79.73 1120.93,-72.91"/>
</g>
<!-- Node31&#45;&gt;Node18 -->
<g id="edge58" class="edge">
<title>Node31&#45;&gt;Node18</title>
<path fill="none" stroke="#63b8ff" d="M1283.11,-109.98C1261.92,-101.34 1228.87,-87.87 1204.7,-78.02"/>
<polygon fill="#63b8ff" stroke="#63b8ff" points="1205.85,-74.7 1195.27,-74.17 1203.21,-81.19 1205.85,-74.7"/>
</g>
<!-- Node32 -->
<g id="node32" class="node">
<title>Node32</title>
<g id="a_node32"><a xlink:href="enum__formatter_8h.html" target="_top" xlink:title=" ">
<polygon fill="white" stroke="#666666" points="1394,-74 1258,-74 1258,-55 1394,-55 1394,-74"/>
<text text-anchor="middle" x="1326" y="-62" font-family="Helvetica,sans-Serif" font-size="10.00">ccf/ds/enum_formatter.h</text>
</a>
</g>
</g>
<!-- Node31&#45;&gt;Node32 -->
<g id="edge44" class="edge">
<title>Node31&#45;&gt;Node32</title>
<path fill="none" stroke="#63b8ff" d="M1307.63,-109.75C1310.58,-102.65 1314.83,-92.4 1318.51,-83.56"/>
<polygon fill="#63b8ff" stroke="#63b8ff" points="1321.83,-84.67 1322.43,-74.09 1315.37,-81.98 1321.83,-84.67"/>
</g>
<!-- Node33 -->
<g id="node33" class="node">
<title>Node33</title>
<g id="a_node33"><a xlink:href="thread__ids_8h.html" target="_top" xlink:title=" ">
<polygon fill="white" stroke="#666666" points="1879,-74 1771,-74 1771,-55 1879,-55 1879,-74"/>
<text text-anchor="middle" x="1825" y="-62" font-family="Helvetica,sans-Serif" font-size="10.00">ccf/ds/thread_ids.h</text>
</a>
</g>
</g>
<!-- Node31&#45;&gt;Node33 -->
<g id="edge46" class="edge">
<title>Node31&#45;&gt;Node33</title>
<path fill="none" stroke="#63b8ff" d="M1347.63,-114.81C1427.39,-107.93 1602.31,-92.32 1760.34,-74.15"/>
<polygon fill="#63b8ff" stroke="#63b8ff" points="1761.19,-77.58 1770.72,-72.95 1760.38,-70.63 1761.19,-77.58"/>
</g>
<!-- Node38 -->
<g id="node38" class="node">
<title>Node38</title>
<g id="a_node38"><a xlink:title=" ">
<polygon fill="#e0e0e0" stroke="#999999" points="1529.5,-74 1450.5,-74 1450.5,-55 1529.5,-55 1529.5,-74"/>
<text text-anchor="middle" x="1490" y="-62" font-family="Helvetica,sans-Serif" font-size="10.00">fmt/chrono.h</text>
</a>
</g>
</g>
<!-- Node31&#45;&gt;Node38 -->
<g id="edge53" class="edge">
<title>Node31&#45;&gt;Node38</title>
<path fill="none" stroke="#63b8ff" d="M1333.88,-109.98C1365.38,-101.01 1415.17,-86.82 1450.03,-76.89"/>
<polygon fill="#63b8ff" stroke="#63b8ff" points="1451.22,-80.19 1459.88,-74.08 1449.31,-73.46 1451.22,-80.19"/>
</g>
<!-- Node39 -->
<g id="node39" class="node">
<title>Node39</title>
<g id="a_node39"><a xlink:title=" ">
<polygon fill="#e0e0e0" stroke="#999999" points="1607,-74 1547,-74 1547,-55 1607,-55 1607,-74"/>
<text text-anchor="middle" x="1577" y="-62" font-family="Helvetica,sans-Serif" font-size="10.00">iostream</text>
</a>
</g>
</g>
<!-- Node31&#45;&gt;Node39 -->
<g id="edge55" class="edge">
<title>Node31&#45;&gt;Node39</title>
<path fill="none" stroke="#63b8ff" d="M1347.83,-110.65C1392.97,-102.46 1465.62,-89 1536.72,-74.43"/>
<polygon fill="#63b8ff" stroke="#63b8ff" points="1537.65,-77.81 1546.74,-72.36 1536.24,-70.95 1537.65,-77.81"/>
</g>
<!-- Node32&#45;&gt;Node15 -->
<g id="edge45" class="edge">
<title>Node32&#45;&gt;Node15</title>
<path fill="none" stroke="#63b8ff" d="M1326,-54.75C1326,-47.8 1326,-37.85 1326,-29.13"/>
<polygon fill="#63b8ff" stroke="#63b8ff" points="1329.5,-29.09 1326,-19.09 1322.5,-29.09 1329.5,-29.09"/>
</g>
<!-- Node33&#45;&gt;Node15 -->
<g id="edge47" class="edge">
<title>Node33&#45;&gt;Node15</title>
<path fill="none" stroke="#63b8ff" d="M1770.72,-56.06C1767.77,-55.69 1764.85,-55.34 1762,-55 1622.44,-38.47 1457.29,-22.63 1376.14,-15.08"/>
<polygon fill="#63b8ff" stroke="#63b8ff" points="1376,-11.56 1365.72,-14.12 1375.36,-18.53 1376,-11.56"/>
</g>
<!-- Node33&#45;&gt;Node24 -->
<g id="edge51" class="edge">
<title>Node33&#45;&gt;Node24</title>
<path fill="none" stroke="#63b8ff" d="M1802.83,-54.98C1779.15,-45.89 1741.55,-31.45 1715.64,-21.5"/>
<polygon fill="#63b8ff" stroke="#63b8ff" points="1716.6,-18.12 1706.01,-17.8 1714.09,-24.65 1716.6,-18.12"/>
</g>
<!-- Node34 -->
<g id="node34" class="node">
<title>Node34</title>
<g id="a_node34"><a xlink:title=" ">
<polygon fill="#e0e0e0" stroke="#999999" points="2018,-19 1932,-19 1932,0 2018,0 2018,-19"/>
<text text-anchor="middle" x="1975" y="-7" font-family="Helvetica,sans-Serif" font-size="10.00">fmt/ostream.h</text>
</a>
</g>
</g>
<!-- Node33&#45;&gt;Node34 -->
<g id="edge48" class="edge">
<title>Node33&#45;&gt;Node34</title>
<path fill="none" stroke="#63b8ff" d="M1849.1,-54.98C1873.88,-46.23 1912.7,-32.51 1940.69,-22.62"/>
<polygon fill="#63b8ff" stroke="#63b8ff" points="1942.2,-25.8 1950.46,-19.17 1939.87,-19.2 1942.2,-25.8"/>
</g>
<!-- Node35 -->
<g id="node35" class="node">
<title>Node35</title>
<g id="a_node35"><a xlink:title=" ">
<polygon fill="#e0e0e0" stroke="#999999" points="1785.5,-19 1724.5,-19 1724.5,0 1785.5,0 1785.5,-19"/>
<text text-anchor="middle" x="1755" y="-7" font-family="Helvetica,sans-Serif" font-size="10.00">fmt/std.h</text>
</a>
</g>
</g>
<!-- Node33&#45;&gt;Node35 -->
<g id="edge49" class="edge">
<title>Node33&#45;&gt;Node35</title>
<path fill="none" stroke="#63b8ff" d="M1813.75,-54.98C1803.2,-47 1787.2,-34.88 1774.56,-25.31"/>
<polygon fill="#63b8ff" stroke="#63b8ff" points="1776.54,-22.42 1766.45,-19.17 1772.31,-28 1776.54,-22.42"/>
</g>
<!-- Node36 -->
<g id="node36" class="node">
<title>Node36</title>
<g id="a_node36"><a xlink:title=" ">
<polygon fill="#e0e0e0" stroke="#999999" points="1848,-19 1804,-19 1804,0 1848,0 1848,-19"/>
<text text-anchor="middle" x="1826" y="-7" font-family="Helvetica,sans-Serif" font-size="10.00">limits</text>
</a>
</g>
</g>
<!-- Node33&#45;&gt;Node36 -->
<g id="edge50" class="edge">
<title>Node33&#45;&gt;Node36</title>
<path fill="none" stroke="#63b8ff" d="M1825.17,-54.75C1825.3,-47.8 1825.48,-37.85 1825.65,-29.13"/>
<polygon fill="#63b8ff" stroke="#63b8ff" points="1829.15,-29.15 1825.84,-19.09 1822.15,-29.02 1829.15,-29.15"/>
</g>
<!-- Node37 -->
<g id="node37" class="node">
<title>Node37</title>
<g id="a_node37"><a xlink:title=" ">
<polygon fill="#e0e0e0" stroke="#999999" points="1914,-19 1866,-19 1866,0 1914,0 1914,-19"/>
<text text-anchor="middle" x="1890" y="-7" font-family="Helvetica,sans-Serif" font-size="10.00">thread</text>
</a>
</g>
</g>
<!-- Node33&#45;&gt;Node37 -->
<g id="edge52" class="edge">
<title>Node33&#45;&gt;Node37</title>
<path fill="none" stroke="#63b8ff" d="M1835.44,-54.98C1845.15,-47.07 1859.82,-35.11 1871.5,-25.58"/>
<polygon fill="#63b8ff" stroke="#63b8ff" points="1873.83,-28.2 1879.37,-19.17 1869.4,-22.78 1873.83,-28.2"/>
</g>
</g>
</svg>
