<?xml version="1.0" encoding="UTF-8" standalone="no"?>
<!DOCTYPE svg PUBLIC "-//W3C//DTD SVG 1.1//EN"
 "http://www.w3.org/Graphics/SVG/1.1/DTD/svg11.dtd">
<!-- Generated by graphviz version 2.43.0 (0)
 -->
<!-- Title: src/service/tables/backup_signatures.h Pages: 1 -->
<svg width="1575pt" height="566pt"
 viewBox="0.00 0.00 1574.50 566.00" xmlns="http://www.w3.org/2000/svg" xmlns:xlink="http://www.w3.org/1999/xlink">
<g id="graph0" class="graph" transform="scale(1 1) rotate(0) translate(4 562)">
<title>src/service/tables/backup_signatures.h</title>
<!-- Node1 -->
<g id="node1" class="node">
<title>Node1</title>
<g id="a_node1"><a xlink:title=" ">
<polygon fill="#999999" stroke="#666666" points="1192,-558 1073,-558 1073,-528 1192,-528 1192,-558"/>
<text text-anchor="start" x="1081" y="-546" font-family="Helvetica,sans-Serif" font-size="10.00">src/service/tables</text>
<text text-anchor="middle" x="1132.5" y="-535" font-family="Helvetica,sans-Serif" font-size="10.00">/backup_signatures.h</text>
</a>
</g>
</g>
<!-- Node2 -->
<g id="node2" class="node">
<title>Node2</title>
<g id="a_node2"><a xlink:href="service_2map_8h.html" target="_top" xlink:title=" ">
<polygon fill="white" stroke="#666666" points="681,-492 578,-492 578,-473 681,-473 681,-492"/>
<text text-anchor="middle" x="629.5" y="-480" font-family="Helvetica,sans-Serif" font-size="10.00">ccf/service/map.h</text>
</a>
</g>
</g>
<!-- Node1&#45;&gt;Node2 -->
<g id="edge1" class="edge">
<title>Node1&#45;&gt;Node2</title>
<path fill="none" stroke="#63b8ff" d="M1072.82,-535.06C976.69,-523.88 788.48,-501.99 691.12,-490.67"/>
<polygon fill="#63b8ff" stroke="#63b8ff" points="691.47,-487.18 681.13,-489.5 690.66,-494.14 691.47,-487.18"/>
</g>
<!-- Node5 -->
<g id="node5" class="node">
<title>Node5</title>
<g id="a_node5"><a xlink:title=" ">
<polygon fill="#e0e0e0" stroke="#999999" points="1097.5,-129 1053.5,-129 1053.5,-110 1097.5,-110 1097.5,-129"/>
<text text-anchor="middle" x="1075.5" y="-117" font-family="Helvetica,sans-Serif" font-size="10.00">string</text>
</a>
</g>
</g>
<!-- Node1&#45;&gt;Node5 -->
<g id="edge90" class="edge">
<title>Node1&#45;&gt;Node5</title>
<path fill="none" stroke="#63b8ff" d="M1128.56,-527.79C1123,-506.43 1113.5,-464.66 1113.5,-428.5 1113.5,-428.5 1113.5,-428.5 1113.5,-245 1113.5,-205.63 1095.9,-162.18 1084.66,-138.45"/>
<polygon fill="#63b8ff" stroke="#63b8ff" points="1087.71,-136.71 1080.16,-129.28 1081.42,-139.8 1087.71,-136.71"/>
</g>
<!-- Node18 -->
<g id="node18" class="node">
<title>Node18</title>
<g id="a_node18"><a xlink:title=" ">
<polygon fill="#e0e0e0" stroke="#999999" points="1292,-19 1245,-19 1245,0 1292,0 1292,-19"/>
<text text-anchor="middle" x="1268.5" y="-7" font-family="Helvetica,sans-Serif" font-size="10.00">vector</text>
</a>
</g>
</g>
<!-- Node1&#45;&gt;Node18 -->
<g id="edge91" class="edge">
<title>Node1&#45;&gt;Node18</title>
<path fill="none" stroke="#63b8ff" d="M1192.39,-538.83C1311.45,-530.87 1566.5,-504.92 1566.5,-428.5 1566.5,-428.5 1566.5,-428.5 1566.5,-118.5 1566.5,-62.86 1380.52,-27.73 1302.41,-15.43"/>
<polygon fill="#63b8ff" stroke="#63b8ff" points="1302.55,-11.91 1292.13,-13.84 1301.48,-18.83 1302.55,-11.91"/>
</g>
<!-- Node40 -->
<g id="node40" class="node">
<title>Node40</title>
<g id="a_node40"><a xlink:href="node__signature_8h.html" target="_top" xlink:title=" ">
<polygon fill="white" stroke="#666666" points="1310,-382 1209,-382 1209,-363 1310,-363 1310,-382"/>
<text text-anchor="middle" x="1259.5" y="-370" font-family="Helvetica,sans-Serif" font-size="10.00">node_signature.h</text>
</a>
</g>
</g>
<!-- Node1&#45;&gt;Node40 -->
<g id="edge70" class="edge">
<title>Node1&#45;&gt;Node40</title>
<path fill="none" stroke="#63b8ff" d="M1143.11,-527.92C1166.32,-497.12 1221.55,-423.85 1246.67,-390.53"/>
<polygon fill="#63b8ff" stroke="#63b8ff" points="1249.68,-392.35 1252.9,-382.25 1244.09,-388.13 1249.68,-392.35"/>
</g>
<!-- Node3 -->
<g id="node3" class="node">
<title>Node3</title>
<g id="a_node3"><a xlink:href="kv_2map_8h.html" target="_top" xlink:title=" ">
<polygon fill="white" stroke="#666666" points="504.5,-437 424.5,-437 424.5,-418 504.5,-418 504.5,-437"/>
<text text-anchor="middle" x="464.5" y="-425" font-family="Helvetica,sans-Serif" font-size="10.00">ccf/kv/map.h</text>
</a>
</g>
</g>
<!-- Node2&#45;&gt;Node3 -->
<g id="edge2" class="edge">
<title>Node2&#45;&gt;Node3</title>
<path fill="none" stroke="#63b8ff" d="M602.99,-472.98C575.29,-464.09 531.64,-450.07 500.76,-440.15"/>
<polygon fill="#63b8ff" stroke="#63b8ff" points="501.81,-436.81 491.22,-437.08 499.67,-443.47 501.81,-436.81"/>
</g>
<!-- Node35 -->
<g id="node35" class="node">
<title>Node35</title>
<g id="a_node35"><a xlink:href="set_8h.html" target="_top" xlink:title=" ">
<polygon fill="white" stroke="#666666" points="604,-382 531,-382 531,-363 604,-363 604,-382"/>
<text text-anchor="middle" x="567.5" y="-370" font-family="Helvetica,sans-Serif" font-size="10.00">ccf/kv/set.h</text>
</a>
</g>
</g>
<!-- Node2&#45;&gt;Node35 -->
<g id="edge51" class="edge">
<title>Node2&#45;&gt;Node35</title>
<path fill="none" stroke="#63b8ff" d="M624.43,-472.66C614.2,-454.85 590.96,-414.37 577.55,-391.01"/>
<polygon fill="#63b8ff" stroke="#63b8ff" points="580.48,-389.09 572.47,-382.16 574.41,-392.57 580.48,-389.09"/>
</g>
<!-- Node38 -->
<g id="node38" class="node">
<title>Node38</title>
<g id="a_node38"><a xlink:href="value_8h.html" target="_top" xlink:title=" ">
<polygon fill="white" stroke="#666666" points="707,-382 622,-382 622,-363 707,-363 707,-382"/>
<text text-anchor="middle" x="664.5" y="-370" font-family="Helvetica,sans-Serif" font-size="10.00">ccf/kv/value.h</text>
</a>
</g>
</g>
<!-- Node2&#45;&gt;Node38 -->
<g id="edge61" class="edge">
<title>Node2&#45;&gt;Node38</title>
<path fill="none" stroke="#63b8ff" d="M632.36,-472.66C638.06,-455.09 650.91,-415.45 658.52,-391.95"/>
<polygon fill="#63b8ff" stroke="#63b8ff" points="661.94,-392.75 661.69,-382.16 655.28,-390.59 661.94,-392.75"/>
</g>
<!-- Node4 -->
<g id="node4" class="node">
<title>Node4</title>
<g id="a_node4"><a xlink:href="get__name_8h.html" target="_top" xlink:title=" ">
<polygon fill="white" stroke="#666666" points="1031,-321.5 924,-321.5 924,-302.5 1031,-302.5 1031,-321.5"/>
<text text-anchor="middle" x="977.5" y="-309.5" font-family="Helvetica,sans-Serif" font-size="10.00">ccf/kv/get_name.h</text>
</a>
</g>
</g>
<!-- Node3&#45;&gt;Node4 -->
<g id="edge3" class="edge">
<title>Node3&#45;&gt;Node4</title>
<path fill="none" stroke="#63b8ff" d="M504.54,-422.96C563.4,-417.25 676.48,-404.32 770.5,-382 834.38,-366.84 906.64,-340.58 946.66,-325.2"/>
<polygon fill="#63b8ff" stroke="#63b8ff" points="948.05,-328.41 956.11,-321.54 945.52,-321.89 948.05,-328.41"/>
</g>
<!-- Node6 -->
<g id="node6" class="node">
<title>Node6</title>
<g id="a_node6"><a xlink:href="include_2ccf_2kv_2hooks_8h.html" target="_top" xlink:title=" ">
<polygon fill="white" stroke="#666666" points="87,-189.5 0,-189.5 0,-170.5 87,-170.5 87,-189.5"/>
<text text-anchor="middle" x="43.5" y="-177.5" font-family="Helvetica,sans-Serif" font-size="10.00">ccf/kv/hooks.h</text>
</a>
</g>
</g>
<!-- Node3&#45;&gt;Node6 -->
<g id="edge5" class="edge">
<title>Node3&#45;&gt;Node6</title>
<path fill="none" stroke="#63b8ff" d="M424.45,-423.26C327.75,-414.55 85.82,-387.06 36.5,-327 6.39,-290.34 23.99,-229.36 35.68,-199.13"/>
<polygon fill="#63b8ff" stroke="#63b8ff" points="38.94,-200.39 39.48,-189.81 32.46,-197.75 38.94,-200.39"/>
</g>
<!-- Node10 -->
<g id="node10" class="node">
<title>Node10</title>
<g id="a_node10"><a xlink:href="map__diff_8h.html" target="_top" xlink:title=" ">
<polygon fill="white" stroke="#666666" points="358,-382 257,-382 257,-363 358,-363 358,-382"/>
<text text-anchor="middle" x="307.5" y="-370" font-family="Helvetica,sans-Serif" font-size="10.00">ccf/kv/map_diff.h</text>
</a>
</g>
</g>
<!-- Node3&#45;&gt;Node10 -->
<g id="edge9" class="edge">
<title>Node3&#45;&gt;Node10</title>
<path fill="none" stroke="#63b8ff" d="M439.28,-417.98C413.14,-409.16 372.1,-395.31 342.77,-385.41"/>
<polygon fill="#63b8ff" stroke="#63b8ff" points="343.52,-381.96 332.92,-382.08 341.28,-388.6 343.52,-381.96"/>
</g>
<!-- Node21 -->
<g id="node21" class="node">
<title>Node21</title>
<g id="a_node21"><a xlink:href="untyped_8h.html" target="_top" xlink:title=" ">
<polygon fill="white" stroke="#666666" points="197.5,-255.5 99.5,-255.5 99.5,-236.5 197.5,-236.5 197.5,-255.5"/>
<text text-anchor="middle" x="148.5" y="-243.5" font-family="Helvetica,sans-Serif" font-size="10.00">ccf/kv/untyped.h</text>
</a>
</g>
</g>
<!-- Node3&#45;&gt;Node21 -->
<g id="edge50" class="edge">
<title>Node3&#45;&gt;Node21</title>
<path fill="none" stroke="#63b8ff" d="M424.37,-423.26C379.83,-418.53 306.57,-407.36 248.5,-382 209.96,-365.17 195.77,-361.34 171.5,-327 158.5,-308.61 152.8,-282.96 150.34,-265.7"/>
<polygon fill="#63b8ff" stroke="#63b8ff" points="153.81,-265.25 149.14,-255.74 146.86,-266.09 153.81,-265.25"/>
</g>
<!-- Node24 -->
<g id="node24" class="node">
<title>Node24</title>
<g id="a_node24"><a xlink:href="map__handle_8h.html" target="_top" xlink:title=" ">
<polygon fill="white" stroke="#666666" points="506.5,-382 388.5,-382 388.5,-363 506.5,-363 506.5,-382"/>
<text text-anchor="middle" x="447.5" y="-370" font-family="Helvetica,sans-Serif" font-size="10.00">ccf/kv/map_handle.h</text>
</a>
</g>
</g>
<!-- Node3&#45;&gt;Node24 -->
<g id="edge29" class="edge">
<title>Node3&#45;&gt;Node24</title>
<path fill="none" stroke="#63b8ff" d="M461.69,-417.75C459.44,-410.72 456.2,-400.62 453.38,-391.84"/>
<polygon fill="#63b8ff" stroke="#63b8ff" points="456.64,-390.54 450.25,-382.09 449.98,-392.68 456.64,-390.54"/>
</g>
<!-- Node26 -->
<g id="node26" class="node">
<title>Node26</title>
<g id="a_node26"><a xlink:href="blit__serialiser_8h.html" target="_top" xlink:title=" ">
<polygon fill="white" stroke="#666666" points="789,-327 690,-327 690,-297 789,-297 789,-327"/>
<text text-anchor="start" x="698" y="-315" font-family="Helvetica,sans-Serif" font-size="10.00">ccf/kv/serialisers</text>
<text text-anchor="middle" x="739.5" y="-304" font-family="Helvetica,sans-Serif" font-size="10.00">/blit_serialiser.h</text>
</a>
</g>
</g>
<!-- Node3&#45;&gt;Node26 -->
<g id="edge37" class="edge">
<title>Node3&#45;&gt;Node26</title>
<path fill="none" stroke="#63b8ff" d="M504.72,-424.32C567.64,-420.13 685.39,-408.85 716.5,-382 729.35,-370.91 735.04,-352.45 737.56,-337.42"/>
<polygon fill="#63b8ff" stroke="#63b8ff" points="741.06,-337.59 738.88,-327.23 734.12,-336.69 741.06,-337.59"/>
</g>
<!-- Node33 -->
<g id="node33" class="node">
<title>Node33</title>
<g id="a_node33"><a xlink:href="json__serialiser_8h.html" target="_top" xlink:title=" ">
<polygon fill="white" stroke="#666666" points="906,-327 807,-327 807,-297 906,-297 906,-327"/>
<text text-anchor="start" x="815" y="-315" font-family="Helvetica,sans-Serif" font-size="10.00">ccf/kv/serialisers</text>
<text text-anchor="middle" x="856.5" y="-304" font-family="Helvetica,sans-Serif" font-size="10.00">/json_serialiser.h</text>
</a>
</g>
</g>
<!-- Node3&#45;&gt;Node33 -->
<g id="edge47" class="edge">
<title>Node3&#45;&gt;Node33</title>
<path fill="none" stroke="#63b8ff" d="M504.8,-424.42C558.91,-420.63 657.39,-410.16 736.5,-382 770.23,-369.99 805.34,-348.6 828.8,-332.8"/>
<polygon fill="#63b8ff" stroke="#63b8ff" points="830.92,-335.59 837.19,-327.05 826.96,-329.82 830.92,-335.59"/>
</g>
<!-- Node4&#45;&gt;Node5 -->
<g id="edge4" class="edge">
<title>Node4&#45;&gt;Node5</title>
<path fill="none" stroke="#63b8ff" d="M985.01,-302.33C1000.62,-283.86 1036.76,-238.75 1056.5,-195 1064.72,-176.79 1069.82,-154.41 1072.64,-138.96"/>
<polygon fill="#63b8ff" stroke="#63b8ff" points="1076.09,-139.53 1074.31,-129.09 1069.19,-138.37 1076.09,-139.53"/>
</g>
<!-- Node7 -->
<g id="node7" class="node">
<title>Node7</title>
<g id="a_node7"><a xlink:href="version_8h.html" target="_top" xlink:title=" ">
<polygon fill="white" stroke="#666666" points="292.5,-129 198.5,-129 198.5,-110 292.5,-110 292.5,-129"/>
<text text-anchor="middle" x="245.5" y="-117" font-family="Helvetica,sans-Serif" font-size="10.00">ccf/kv/version.h</text>
</a>
</g>
</g>
<!-- Node6&#45;&gt;Node7 -->
<g id="edge6" class="edge">
<title>Node6&#45;&gt;Node7</title>
<path fill="none" stroke="#63b8ff" d="M72.87,-170.49C108.1,-160.29 167.29,-143.15 206.37,-131.83"/>
<polygon fill="#63b8ff" stroke="#63b8ff" points="207.46,-135.16 216.09,-129.02 205.51,-128.44 207.46,-135.16"/>
</g>
<!-- Node8 -->
<g id="node8" class="node">
<title>Node8</title>
<g id="a_node8"><a xlink:title=" ">
<polygon fill="#e0e0e0" stroke="#999999" points="180,-129 115,-129 115,-110 180,-110 180,-129"/>
<text text-anchor="middle" x="147.5" y="-117" font-family="Helvetica,sans-Serif" font-size="10.00">functional</text>
</a>
</g>
</g>
<!-- Node6&#45;&gt;Node8 -->
<g id="edge7" class="edge">
<title>Node6&#45;&gt;Node8</title>
<path fill="none" stroke="#63b8ff" d="M58.85,-170.37C75.82,-160.82 103.4,-145.31 123.29,-134.12"/>
<polygon fill="#63b8ff" stroke="#63b8ff" points="125.09,-137.12 132.09,-129.17 121.66,-131.02 125.09,-137.12"/>
</g>
<!-- Node9 -->
<g id="node9" class="node">
<title>Node9</title>
<g id="a_node9"><a xlink:title=" ">
<polygon fill="#e0e0e0" stroke="#999999" points="72.5,-129 14.5,-129 14.5,-110 72.5,-110 72.5,-129"/>
<text text-anchor="middle" x="43.5" y="-117" font-family="Helvetica,sans-Serif" font-size="10.00">memory</text>
</a>
</g>
</g>
<!-- Node6&#45;&gt;Node9 -->
<g id="edge8" class="edge">
<title>Node6&#45;&gt;Node9</title>
<path fill="none" stroke="#63b8ff" d="M43.5,-170.37C43.5,-162.25 43.5,-149.81 43.5,-139.39"/>
<polygon fill="#63b8ff" stroke="#63b8ff" points="47,-139.17 43.5,-129.17 40,-139.17 47,-139.17"/>
</g>
<!-- Node11 -->
<g id="node11" class="node">
<title>Node11</title>
<g id="a_node11"><a xlink:href="untyped__map__diff_8h.html" target="_top" xlink:title=" ">
<polygon fill="white" stroke="#666666" points="363.5,-327 247.5,-327 247.5,-297 363.5,-297 363.5,-327"/>
<text text-anchor="start" x="255.5" y="-315" font-family="Helvetica,sans-Serif" font-size="10.00">ccf/kv/untyped_map</text>
<text text-anchor="middle" x="305.5" y="-304" font-family="Helvetica,sans-Serif" font-size="10.00">_diff.h</text>
</a>
</g>
</g>
<!-- Node10&#45;&gt;Node11 -->
<g id="edge10" class="edge">
<title>Node10&#45;&gt;Node11</title>
<path fill="none" stroke="#63b8ff" d="M307.2,-362.87C306.97,-356.11 306.64,-346.35 306.33,-337.26"/>
<polygon fill="#63b8ff" stroke="#63b8ff" points="309.82,-336.99 305.98,-327.11 302.83,-337.23 309.82,-336.99"/>
</g>
<!-- Node11&#45;&gt;Node5 -->
<g id="edge28" class="edge">
<title>Node11&#45;&gt;Node5</title>
<path fill="none" stroke="#63b8ff" d="M363.73,-302.53C429.92,-292.46 533.59,-275.23 570.5,-261 594.33,-251.82 595.72,-240.31 619.5,-231 695.46,-201.24 721.1,-217.56 799.5,-195 835.59,-184.61 842.54,-175.83 878.5,-165 935.7,-147.77 1004.02,-133.76 1043.33,-126.32"/>
<polygon fill="#63b8ff" stroke="#63b8ff" points="1044.19,-129.72 1053.37,-124.44 1042.9,-122.84 1044.19,-129.72"/>
</g>
<!-- Node11&#45;&gt;Node7 -->
<g id="edge25" class="edge">
<title>Node11&#45;&gt;Node7</title>
<path fill="none" stroke="#63b8ff" d="M291.87,-296.73C273.3,-276.18 240.93,-236.19 228.5,-195 222.77,-176.01 229.53,-153.79 236.15,-138.59"/>
<polygon fill="#63b8ff" stroke="#63b8ff" points="239.42,-139.85 240.55,-129.32 233.1,-136.85 239.42,-139.85"/>
</g>
<!-- Node11&#45;&gt;Node8 -->
<g id="edge26" class="edge">
<title>Node11&#45;&gt;Node8</title>
<path fill="none" stroke="#63b8ff" d="M283.54,-296.85C270.19,-287.62 253.31,-274.75 240.5,-261 203.74,-221.54 171.7,-166.05 156.64,-138.08"/>
<polygon fill="#63b8ff" stroke="#63b8ff" points="159.66,-136.3 151.88,-129.1 153.47,-139.58 159.66,-136.3"/>
</g>
<!-- Node12 -->
<g id="node12" class="node">
<title>Node12</title>
<g id="a_node12"><a xlink:href="abstract__handle_8h.html" target="_top" xlink:title=" ">
<polygon fill="white" stroke="#666666" points="373.5,-189.5 237.5,-189.5 237.5,-170.5 373.5,-170.5 373.5,-189.5"/>
<text text-anchor="middle" x="305.5" y="-177.5" font-family="Helvetica,sans-Serif" font-size="10.00">ccf/kv/abstract_handle.h</text>
</a>
</g>
</g>
<!-- Node11&#45;&gt;Node12 -->
<g id="edge11" class="edge">
<title>Node11&#45;&gt;Node12</title>
<path fill="none" stroke="#63b8ff" d="M305.5,-296.84C305.5,-273.34 305.5,-226.26 305.5,-199.93"/>
<polygon fill="#63b8ff" stroke="#63b8ff" points="309,-199.75 305.5,-189.75 302,-199.75 309,-199.75"/>
</g>
<!-- Node13 -->
<g id="node13" class="node">
<title>Node13</title>
<g id="a_node13"><a xlink:href="serialised__entry_8h.html" target="_top" xlink:title=" ">
<polygon fill="white" stroke="#666666" points="647,-195 542,-195 542,-165 647,-165 647,-195"/>
<text text-anchor="start" x="550" y="-183" font-family="Helvetica,sans-Serif" font-size="10.00">ccf/kv/serialisers</text>
<text text-anchor="middle" x="594.5" y="-172" font-family="Helvetica,sans-Serif" font-size="10.00">/serialised_entry.h</text>
</a>
</g>
</g>
<!-- Node11&#45;&gt;Node13 -->
<g id="edge12" class="edge">
<title>Node11&#45;&gt;Node13</title>
<path fill="none" stroke="#63b8ff" d="M363.76,-303.9C424.25,-295.63 513.98,-280.56 542.5,-261 562.67,-247.17 576.87,-222.68 585.28,-204.42"/>
<polygon fill="#63b8ff" stroke="#63b8ff" points="588.59,-205.6 589.36,-195.03 582.16,-202.81 588.59,-205.6"/>
</g>
<!-- Node11&#45;&gt;Node21 -->
<g id="edge20" class="edge">
<title>Node11&#45;&gt;Node21</title>
<path fill="none" stroke="#63b8ff" d="M271.05,-296.95C243.51,-285.73 205.29,-270.15 178.89,-259.39"/>
<polygon fill="#63b8ff" stroke="#63b8ff" points="179.98,-256.05 169.39,-255.52 177.33,-262.53 179.98,-256.05"/>
</g>
<!-- Node23 -->
<g id="node23" class="node">
<title>Node23</title>
<g id="a_node23"><a xlink:title=" ">
<polygon fill="#e0e0e0" stroke="#999999" points="447.5,-189.5 391.5,-189.5 391.5,-170.5 447.5,-170.5 447.5,-189.5"/>
<text text-anchor="middle" x="419.5" y="-177.5" font-family="Helvetica,sans-Serif" font-size="10.00">optional</text>
</a>
</g>
</g>
<!-- Node11&#45;&gt;Node23 -->
<g id="edge27" class="edge">
<title>Node11&#45;&gt;Node23</title>
<path fill="none" stroke="#63b8ff" d="M317.92,-296.84C339.17,-272.6 382.42,-223.28 405.02,-197.51"/>
<polygon fill="#63b8ff" stroke="#63b8ff" points="407.87,-199.57 411.83,-189.75 402.6,-194.96 407.87,-199.57"/>
</g>
<!-- Node14 -->
<g id="node14" class="node">
<title>Node14</title>
<g id="a_node14"><a xlink:href="byte__vector_8h.html" target="_top" xlink:title=" ">
<polygon fill="white" stroke="#666666" points="501.5,-129 401.5,-129 401.5,-110 501.5,-110 501.5,-129"/>
<text text-anchor="middle" x="451.5" y="-117" font-family="Helvetica,sans-Serif" font-size="10.00">ccf/byte_vector.h</text>
</a>
</g>
</g>
<!-- Node13&#45;&gt;Node14 -->
<g id="edge13" class="edge">
<title>Node13&#45;&gt;Node14</title>
<path fill="none" stroke="#63b8ff" d="M560.25,-164.99C536.39,-155.23 504.85,-142.33 481.89,-132.93"/>
<polygon fill="#63b8ff" stroke="#63b8ff" points="483.2,-129.69 472.62,-129.14 480.55,-136.17 483.2,-129.69"/>
</g>
<!-- Node15 -->
<g id="node15" class="node">
<title>Node15</title>
<g id="a_node15"><a xlink:href="siphash_8h.html" target="_top" xlink:title=" ">
<polygon fill="white" stroke="#666666" points="890,-74 795,-74 795,-55 890,-55 890,-74"/>
<text text-anchor="middle" x="842.5" y="-62" font-family="Helvetica,sans-Serif" font-size="10.00">ccf/ds/siphash.h</text>
</a>
</g>
</g>
<!-- Node14&#45;&gt;Node15 -->
<g id="edge14" class="edge">
<title>Node14&#45;&gt;Node15</title>
<path fill="none" stroke="#63b8ff" d="M501.59,-111.38C504.94,-110.91 508.27,-110.45 511.5,-110 607.18,-96.79 718.5,-81.93 784.59,-73.16"/>
<polygon fill="#63b8ff" stroke="#63b8ff" points="785.34,-76.59 794.8,-71.81 784.42,-69.65 785.34,-76.59"/>
</g>
<!-- Node19 -->
<g id="node19" class="node">
<title>Node19</title>
<g id="a_node19"><a xlink:title=" ">
<polygon fill="#e0e0e0" stroke="#999999" points="1026,-74 947,-74 947,-55 1026,-55 1026,-74"/>
<text text-anchor="middle" x="986.5" y="-62" font-family="Helvetica,sans-Serif" font-size="10.00">fmt/format.h</text>
</a>
</g>
</g>
<!-- Node14&#45;&gt;Node19 -->
<g id="edge18" class="edge">
<title>Node14&#45;&gt;Node19</title>
<path fill="none" stroke="#63b8ff" d="M501.57,-111.22C504.93,-110.79 508.26,-110.38 511.5,-110 683.51,-89.85 727.1,-90.42 899.5,-74 911.54,-72.85 924.51,-71.6 936.67,-70.41"/>
<polygon fill="#63b8ff" stroke="#63b8ff" points="937.05,-73.89 946.66,-69.43 936.36,-66.92 937.05,-73.89"/>
</g>
<!-- Node20 -->
<g id="node20" class="node">
<title>Node20</title>
<g id="a_node20"><a xlink:title=" ">
<polygon fill="#e0e0e0" stroke="#999999" points="526,-74 377,-74 377,-55 526,-55 526,-74"/>
<text text-anchor="middle" x="451.5" y="-62" font-family="Helvetica,sans-Serif" font-size="10.00">small_vector/SmallVector.h</text>
</a>
</g>
</g>
<!-- Node14&#45;&gt;Node20 -->
<g id="edge19" class="edge">
<title>Node14&#45;&gt;Node20</title>
<path fill="none" stroke="#63b8ff" d="M451.5,-109.75C451.5,-102.8 451.5,-92.85 451.5,-84.13"/>
<polygon fill="#63b8ff" stroke="#63b8ff" points="455,-84.09 451.5,-74.09 448,-84.09 455,-84.09"/>
</g>
<!-- Node16 -->
<g id="node16" class="node">
<title>Node16</title>
<g id="a_node16"><a xlink:title=" ">
<polygon fill="#e0e0e0" stroke="#999999" points="869,-19 816,-19 816,0 869,0 869,-19"/>
<text text-anchor="middle" x="842.5" y="-7" font-family="Helvetica,sans-Serif" font-size="10.00">cstddef</text>
</a>
</g>
</g>
<!-- Node15&#45;&gt;Node16 -->
<g id="edge15" class="edge">
<title>Node15&#45;&gt;Node16</title>
<path fill="none" stroke="#63b8ff" d="M842.5,-54.75C842.5,-47.8 842.5,-37.85 842.5,-29.13"/>
<polygon fill="#63b8ff" stroke="#63b8ff" points="846,-29.09 842.5,-19.09 839,-29.09 846,-29.09"/>
</g>
<!-- Node17 -->
<g id="node17" class="node">
<title>Node17</title>
<g id="a_node17"><a xlink:title=" ">
<polygon fill="#e0e0e0" stroke="#999999" points="1101.5,-19 1051.5,-19 1051.5,0 1101.5,0 1101.5,-19"/>
<text text-anchor="middle" x="1076.5" y="-7" font-family="Helvetica,sans-Serif" font-size="10.00">cstdint</text>
</a>
</g>
</g>
<!-- Node15&#45;&gt;Node17 -->
<g id="edge16" class="edge">
<title>Node15&#45;&gt;Node17</title>
<path fill="none" stroke="#63b8ff" d="M880.1,-54.98C924.59,-44.91 998.09,-28.26 1041.44,-18.44"/>
<polygon fill="#63b8ff" stroke="#63b8ff" points="1042.28,-21.84 1051.26,-16.22 1040.73,-15.01 1042.28,-21.84"/>
</g>
<!-- Node15&#45;&gt;Node18 -->
<g id="edge17" class="edge">
<title>Node15&#45;&gt;Node18</title>
<path fill="none" stroke="#63b8ff" d="M890.22,-56.89C895.04,-56.24 899.87,-55.6 904.5,-55 1025.91,-39.26 1170.3,-22.06 1234.65,-14.47"/>
<polygon fill="#63b8ff" stroke="#63b8ff" points="1235.11,-17.94 1244.64,-13.3 1234.29,-10.99 1235.11,-17.94"/>
</g>
<!-- Node21&#45;&gt;Node6 -->
<g id="edge21" class="edge">
<title>Node21&#45;&gt;Node6</title>
<path fill="none" stroke="#63b8ff" d="M134.34,-236.37C116.96,-225.78 87.26,-207.67 66.57,-195.06"/>
<polygon fill="#63b8ff" stroke="#63b8ff" points="68.13,-191.92 57.77,-189.7 64.49,-197.89 68.13,-191.92"/>
</g>
<!-- Node21&#45;&gt;Node13 -->
<g id="edge22" class="edge">
<title>Node21&#45;&gt;Node13</title>
<path fill="none" stroke="#63b8ff" d="M197.51,-237.97C279,-226.27 442.25,-202.85 531.94,-189.98"/>
<polygon fill="#63b8ff" stroke="#63b8ff" points="532.57,-193.42 541.97,-188.54 531.57,-186.49 532.57,-193.42"/>
</g>
<!-- Node22 -->
<g id="node22" class="node">
<title>Node22</title>
<g id="a_node22"><a xlink:title=" ">
<polygon fill="#e0e0e0" stroke="#999999" points="143.5,-189.5 105.5,-189.5 105.5,-170.5 143.5,-170.5 143.5,-189.5"/>
<text text-anchor="middle" x="124.5" y="-177.5" font-family="Helvetica,sans-Serif" font-size="10.00">map</text>
</a>
</g>
</g>
<!-- Node21&#45;&gt;Node22 -->
<g id="edge23" class="edge">
<title>Node21&#45;&gt;Node22</title>
<path fill="none" stroke="#63b8ff" d="M145.26,-236.37C141.74,-226.97 136,-211.67 131.45,-199.53"/>
<polygon fill="#63b8ff" stroke="#63b8ff" points="134.63,-198.04 127.84,-189.91 128.07,-200.5 134.63,-198.04"/>
</g>
<!-- Node21&#45;&gt;Node23 -->
<g id="edge24" class="edge">
<title>Node21&#45;&gt;Node23</title>
<path fill="none" stroke="#63b8ff" d="M197.89,-236.69C245.63,-228.14 319.73,-213.47 382.5,-195 384.64,-194.37 386.84,-193.67 389.03,-192.94"/>
<polygon fill="#63b8ff" stroke="#63b8ff" points="390.31,-196.2 398.56,-189.55 387.96,-189.61 390.31,-196.2"/>
</g>
<!-- Node25 -->
<g id="node25" class="node">
<title>Node25</title>
<g id="a_node25"><a xlink:href="untyped__map__handle_8h.html" target="_top" xlink:title=" ">
<polygon fill="white" stroke="#666666" points="533.5,-261 417.5,-261 417.5,-231 533.5,-231 533.5,-261"/>
<text text-anchor="start" x="425.5" y="-249" font-family="Helvetica,sans-Serif" font-size="10.00">ccf/kv/untyped_map</text>
<text text-anchor="middle" x="475.5" y="-238" font-family="Helvetica,sans-Serif" font-size="10.00">_handle.h</text>
</a>
</g>
</g>
<!-- Node24&#45;&gt;Node25 -->
<g id="edge30" class="edge">
<title>Node24&#45;&gt;Node25</title>
<path fill="none" stroke="#63b8ff" d="M437.34,-362.81C428.6,-354.6 416.6,-341.43 411.5,-327 407.05,-314.43 405.65,-308.98 411.5,-297 417.51,-284.68 428.18,-274.51 439.11,-266.63"/>
<polygon fill="#63b8ff" stroke="#63b8ff" points="441.09,-269.52 447.45,-261.05 437.19,-263.7 441.09,-269.52"/>
</g>
<!-- Node25&#45;&gt;Node5 -->
<g id="edge36" class="edge">
<title>Node25&#45;&gt;Node5</title>
<path fill="none" stroke="#63b8ff" d="M533.78,-237.96C605.77,-228.75 723.71,-211.78 764.5,-195 786.05,-186.14 785.92,-173.79 807.5,-165 888.04,-132.19 991.59,-123.56 1043.22,-121.3"/>
<polygon fill="#63b8ff" stroke="#63b8ff" points="1043.57,-124.79 1053.43,-120.9 1043.3,-117.79 1043.57,-124.79"/>
</g>
<!-- Node25&#45;&gt;Node7 -->
<g id="edge33" class="edge">
<title>Node25&#45;&gt;Node7</title>
<path fill="none" stroke="#63b8ff" d="M484.05,-230.83C493.37,-213.34 505.03,-183.62 489.5,-165 466.17,-137.03 367.09,-126.59 302.59,-122.73"/>
<polygon fill="#63b8ff" stroke="#63b8ff" points="302.73,-119.23 292.55,-122.17 302.33,-126.22 302.73,-119.23"/>
</g>
<!-- Node25&#45;&gt;Node8 -->
<g id="edge34" class="edge">
<title>Node25&#45;&gt;Node8</title>
<path fill="none" stroke="#63b8ff" d="M476.57,-230.77C477.07,-212.64 474.91,-181.67 456.5,-165 414.2,-126.7 263.61,-137.74 190.26,-128.78"/>
<polygon fill="#63b8ff" stroke="#63b8ff" points="190.42,-125.26 180.02,-127.3 189.42,-132.19 190.42,-125.26"/>
</g>
<!-- Node25&#45;&gt;Node12 -->
<g id="edge31" class="edge">
<title>Node25&#45;&gt;Node12</title>
<path fill="none" stroke="#63b8ff" d="M438.19,-230.95C408.12,-219.63 366.26,-203.88 337.65,-193.1"/>
<polygon fill="#63b8ff" stroke="#63b8ff" points="338.72,-189.77 328.12,-189.52 336.25,-196.32 338.72,-189.77"/>
</g>
<!-- Node25&#45;&gt;Node13 -->
<g id="edge32" class="edge">
<title>Node25&#45;&gt;Node13</title>
<path fill="none" stroke="#63b8ff" d="M501.62,-230.95C518.59,-221.83 540.92,-209.82 559.43,-199.86"/>
<polygon fill="#63b8ff" stroke="#63b8ff" points="561.3,-202.83 568.45,-195.01 557.98,-196.67 561.3,-202.83"/>
</g>
<!-- Node25&#45;&gt;Node23 -->
<g id="edge35" class="edge">
<title>Node25&#45;&gt;Node23</title>
<path fill="none" stroke="#63b8ff" d="M463.07,-230.8C454.43,-220.92 442.88,-207.72 433.84,-197.39"/>
<polygon fill="#63b8ff" stroke="#63b8ff" points="436.46,-195.07 427.24,-189.84 431.19,-199.67 436.46,-195.07"/>
</g>
<!-- Node26&#45;&gt;Node13 -->
<g id="edge46" class="edge">
<title>Node26&#45;&gt;Node13</title>
<path fill="none" stroke="#63b8ff" d="M738.64,-296.79C736.85,-279.25 731.37,-249.49 714.5,-231 699.2,-214.23 677.4,-202.91 656.56,-195.36"/>
<polygon fill="#63b8ff" stroke="#63b8ff" points="657.68,-192.04 647.08,-192.15 655.43,-198.67 657.68,-192.04"/>
</g>
<!-- Node27 -->
<g id="node27" class="node">
<title>Node27</title>
<g id="a_node27"><a xlink:href="nonstd_8h.html" target="_top" xlink:title=" ">
<polygon fill="white" stroke="#666666" points="755.5,-189.5 665.5,-189.5 665.5,-170.5 755.5,-170.5 755.5,-189.5"/>
<text text-anchor="middle" x="710.5" y="-177.5" font-family="Helvetica,sans-Serif" font-size="10.00">ccf/ds/nonstd.h</text>
</a>
</g>
</g>
<!-- Node26&#45;&gt;Node27 -->
<g id="edge38" class="edge">
<title>Node26&#45;&gt;Node27</title>
<path fill="none" stroke="#63b8ff" d="M744.38,-296.74C749.17,-280.44 754.8,-253.14 747.5,-231 743.31,-218.28 734.49,-206.15 726.52,-197.02"/>
<polygon fill="#63b8ff" stroke="#63b8ff" points="728.95,-194.5 719.59,-189.55 723.82,-199.26 728.95,-194.5"/>
</g>
<!-- Node27&#45;&gt;Node5 -->
<g id="edge42" class="edge">
<title>Node27&#45;&gt;Node5</title>
<path fill="none" stroke="#63b8ff" d="M744.09,-170.49C752.36,-168.54 761.23,-166.58 769.5,-165 868.82,-146.03 987.65,-130.89 1043.5,-124.21"/>
<polygon fill="#63b8ff" stroke="#63b8ff" points="1043.98,-127.67 1053.5,-123.02 1043.15,-120.72 1043.98,-127.67"/>
</g>
<!-- Node27&#45;&gt;Node18 -->
<g id="edge45" class="edge">
<title>Node27&#45;&gt;Node18</title>
<path fill="none" stroke="#63b8ff" d="M740.62,-170.46C747.16,-168.64 754.06,-166.74 760.5,-165 822.12,-148.4 849.46,-168.61 899.5,-129 928.65,-105.93 908.03,-76.29 938.5,-55 962.49,-38.24 1154.97,-20.15 1234.4,-13.32"/>
<polygon fill="#63b8ff" stroke="#63b8ff" points="1235.16,-16.77 1244.83,-12.44 1234.57,-9.8 1235.16,-16.77"/>
</g>
<!-- Node28 -->
<g id="node28" class="node">
<title>Node28</title>
<g id="a_node28"><a xlink:title=" ">
<polygon fill="#e0e0e0" stroke="#999999" points="671.5,-129 607.5,-129 607.5,-110 671.5,-110 671.5,-129"/>
<text text-anchor="middle" x="639.5" y="-117" font-family="Helvetica,sans-Serif" font-size="10.00">algorithm</text>
</a>
</g>
</g>
<!-- Node27&#45;&gt;Node28 -->
<g id="edge39" class="edge">
<title>Node27&#45;&gt;Node28</title>
<path fill="none" stroke="#63b8ff" d="M700.02,-170.37C689.01,-161.3 671.46,-146.84 658.09,-135.82"/>
<polygon fill="#63b8ff" stroke="#63b8ff" points="659.96,-132.83 650.02,-129.17 655.51,-138.23 659.96,-132.83"/>
</g>
<!-- Node29 -->
<g id="node29" class="node">
<title>Node29</title>
<g id="a_node29"><a xlink:title=" ">
<polygon fill="#e0e0e0" stroke="#999999" points="731.5,-129 689.5,-129 689.5,-110 731.5,-110 731.5,-129"/>
<text text-anchor="middle" x="710.5" y="-117" font-family="Helvetica,sans-Serif" font-size="10.00">array</text>
</a>
</g>
</g>
<!-- Node27&#45;&gt;Node29 -->
<g id="edge40" class="edge">
<title>Node27&#45;&gt;Node29</title>
<path fill="none" stroke="#63b8ff" d="M710.5,-170.37C710.5,-162.25 710.5,-149.81 710.5,-139.39"/>
<polygon fill="#63b8ff" stroke="#63b8ff" points="714,-139.17 710.5,-129.17 707,-139.17 714,-139.17"/>
</g>
<!-- Node30 -->
<g id="node30" class="node">
<title>Node30</title>
<g id="a_node30"><a xlink:title=" ">
<polygon fill="#e0e0e0" stroke="#999999" points="799,-129 750,-129 750,-110 799,-110 799,-129"/>
<text text-anchor="middle" x="774.5" y="-117" font-family="Helvetica,sans-Serif" font-size="10.00">cctype</text>
</a>
</g>
</g>
<!-- Node27&#45;&gt;Node30 -->
<g id="edge41" class="edge">
<title>Node27&#45;&gt;Node30</title>
<path fill="none" stroke="#63b8ff" d="M719.94,-170.37C729.77,-161.38 745.39,-147.11 757.39,-136.14"/>
<polygon fill="#63b8ff" stroke="#63b8ff" points="760,-138.5 765.02,-129.17 755.28,-133.33 760,-138.5"/>
</g>
<!-- Node31 -->
<g id="node31" class="node">
<title>Node31</title>
<g id="a_node31"><a xlink:title=" ">
<polygon fill="#e0e0e0" stroke="#999999" points="890,-129 817,-129 817,-110 890,-110 890,-129"/>
<text text-anchor="middle" x="853.5" y="-117" font-family="Helvetica,sans-Serif" font-size="10.00">string_view</text>
</a>
</g>
</g>
<!-- Node27&#45;&gt;Node31 -->
<g id="edge43" class="edge">
<title>Node27&#45;&gt;Node31</title>
<path fill="none" stroke="#63b8ff" d="M731.29,-170.49C755.44,-160.62 795.48,-144.23 823.12,-132.93"/>
<polygon fill="#63b8ff" stroke="#63b8ff" points="824.75,-136.04 832.68,-129.02 822.1,-129.56 824.75,-136.04"/>
</g>
<!-- Node32 -->
<g id="node32" class="node">
<title>Node32</title>
<g id="a_node32"><a xlink:title=" ">
<polygon fill="#e0e0e0" stroke="#999999" points="589,-129 520,-129 520,-110 589,-110 589,-129"/>
<text text-anchor="middle" x="554.5" y="-117" font-family="Helvetica,sans-Serif" font-size="10.00">type_traits</text>
</a>
</g>
</g>
<!-- Node27&#45;&gt;Node32 -->
<g id="edge44" class="edge">
<title>Node27&#45;&gt;Node32</title>
<path fill="none" stroke="#63b8ff" d="M687.82,-170.49C661.24,-160.53 617.02,-143.95 586.86,-132.63"/>
<polygon fill="#63b8ff" stroke="#63b8ff" points="587.8,-129.25 577.21,-129.02 585.35,-135.81 587.8,-129.25"/>
</g>
<!-- Node33&#45;&gt;Node13 -->
<g id="edge48" class="edge">
<title>Node33&#45;&gt;Node13</title>
<path fill="none" stroke="#63b8ff" d="M838.27,-296.73C815.48,-279.4 774.8,-250.13 736.5,-231 710.27,-217.9 679.77,-206.68 653.77,-198.21"/>
<polygon fill="#63b8ff" stroke="#63b8ff" points="654.63,-194.81 644.04,-195.1 652.5,-201.48 654.63,-194.81"/>
</g>
<!-- Node34 -->
<g id="node34" class="node">
<title>Node34</title>
<g id="a_node34"><a xlink:title=" ">
<polygon fill="#e0e0e0" stroke="#999999" points="1047.5,-189.5 937.5,-189.5 937.5,-170.5 1047.5,-170.5 1047.5,-189.5"/>
<text text-anchor="middle" x="992.5" y="-177.5" font-family="Helvetica,sans-Serif" font-size="10.00">nlohmann/json.hpp</text>
</a>
</g>
</g>
<!-- Node33&#45;&gt;Node34 -->
<g id="edge49" class="edge">
<title>Node33&#45;&gt;Node34</title>
<path fill="none" stroke="#63b8ff" d="M906.15,-300.08C929.04,-292.65 954.78,-280.5 971.5,-261 986.22,-243.83 990.78,-217.51 992.1,-199.79"/>
<polygon fill="#63b8ff" stroke="#63b8ff" points="995.61,-199.73 992.58,-189.58 988.62,-199.4 995.61,-199.73"/>
</g>
<!-- Node35&#45;&gt;Node4 -->
<g id="edge52" class="edge">
<title>Node35&#45;&gt;Node4</title>
<path fill="none" stroke="#63b8ff" d="M604.12,-364.51C607.29,-363.98 610.45,-363.46 613.5,-363 747.14,-342.71 782.28,-349.92 915.5,-327 921.01,-326.05 926.76,-324.93 932.44,-323.75"/>
<polygon fill="#63b8ff" stroke="#63b8ff" points="933.51,-327.1 942.54,-321.56 932.03,-320.25 933.51,-327.1"/>
</g>
<!-- Node35&#45;&gt;Node6 -->
<g id="edge53" class="edge">
<title>Node35&#45;&gt;Node6</title>
<path fill="none" stroke="#63b8ff" d="M530.91,-365.12C525.74,-364.34 520.49,-363.6 515.5,-363 464.82,-356.88 93.9,-362.78 57.5,-327 23.54,-293.61 31.73,-231.08 38.61,-199.81"/>
<polygon fill="#63b8ff" stroke="#63b8ff" points="42.07,-200.36 41,-189.82 35.27,-198.73 42.07,-200.36"/>
</g>
<!-- Node35&#45;&gt;Node21 -->
<g id="edge60" class="edge">
<title>Node35&#45;&gt;Node21</title>
<path fill="none" stroke="#63b8ff" d="M530.88,-365.3C525.72,-364.49 520.48,-363.7 515.5,-363 446.82,-353.4 265.21,-362.28 205.5,-327 181.34,-312.73 164.69,-283.76 155.88,-264.87"/>
<polygon fill="#63b8ff" stroke="#63b8ff" points="159.02,-263.32 151.79,-255.58 152.61,-266.14 159.02,-263.32"/>
</g>
<!-- Node35&#45;&gt;Node26 -->
<g id="edge54" class="edge">
<title>Node35&#45;&gt;Node26</title>
<path fill="none" stroke="#63b8ff" d="M592.51,-362.99C617.59,-354.46 656.92,-341.09 688.59,-330.32"/>
<polygon fill="#63b8ff" stroke="#63b8ff" points="689.81,-333.6 698.15,-327.06 687.55,-326.97 689.81,-333.6"/>
</g>
<!-- Node35&#45;&gt;Node33 -->
<g id="edge55" class="edge">
<title>Node35&#45;&gt;Node33</title>
<path fill="none" stroke="#63b8ff" d="M604.23,-364.64C655.84,-354.97 748.21,-337.52 796.88,-327.28"/>
<polygon fill="#63b8ff" stroke="#63b8ff" points="797.81,-330.66 806.86,-325.14 796.35,-323.81 797.81,-330.66"/>
</g>
<!-- Node36 -->
<g id="node36" class="node">
<title>Node36</title>
<g id="a_node36"><a xlink:href="set__handle_8h.html" target="_top" xlink:title=" ">
<polygon fill="white" stroke="#666666" points="531,-321.5 420,-321.5 420,-302.5 531,-302.5 531,-321.5"/>
<text text-anchor="middle" x="475.5" y="-309.5" font-family="Helvetica,sans-Serif" font-size="10.00">ccf/kv/set_handle.h</text>
</a>
</g>
</g>
<!-- Node35&#45;&gt;Node36 -->
<g id="edge56" class="edge">
<title>Node35&#45;&gt;Node36</title>
<path fill="none" stroke="#63b8ff" d="M553.93,-362.87C539.11,-353.45 515.17,-338.23 497.64,-327.08"/>
<polygon fill="#63b8ff" stroke="#63b8ff" points="499.45,-324.08 489.13,-321.67 495.69,-329.99 499.45,-324.08"/>
</g>
<!-- Node36&#45;&gt;Node25 -->
<g id="edge59" class="edge">
<title>Node36&#45;&gt;Node25</title>
<path fill="none" stroke="#63b8ff" d="M475.5,-302.37C475.5,-294.49 475.5,-282.45 475.5,-271.6"/>
<polygon fill="#63b8ff" stroke="#63b8ff" points="479,-271.36 475.5,-261.36 472,-271.36 479,-271.36"/>
</g>
<!-- Node37 -->
<g id="node37" class="node">
<title>Node37</title>
<g id="a_node37"><a xlink:href="unit_8h.html" target="_top" xlink:title=" ">
<polygon fill="white" stroke="#666666" points="705,-255.5 628,-255.5 628,-236.5 705,-236.5 705,-255.5"/>
<text text-anchor="middle" x="666.5" y="-243.5" font-family="Helvetica,sans-Serif" font-size="10.00">ccf/kv/unit.h</text>
</a>
</g>
</g>
<!-- Node36&#45;&gt;Node37 -->
<g id="edge57" class="edge">
<title>Node36&#45;&gt;Node37</title>
<path fill="none" stroke="#63b8ff" d="M501.26,-302.37C534.82,-291.12 593.63,-271.42 631.29,-258.8"/>
<polygon fill="#63b8ff" stroke="#63b8ff" points="632.47,-262.09 640.84,-255.6 630.25,-255.46 632.47,-262.09"/>
</g>
<!-- Node37&#45;&gt;Node13 -->
<g id="edge58" class="edge">
<title>Node37&#45;&gt;Node13</title>
<path fill="none" stroke="#63b8ff" d="M656.79,-236.37C646.94,-227.61 631.3,-213.71 618.16,-202.04"/>
<polygon fill="#63b8ff" stroke="#63b8ff" points="620.18,-199.14 610.38,-195.12 615.53,-204.38 620.18,-199.14"/>
</g>
<!-- Node38&#45;&gt;Node4 -->
<g id="edge62" class="edge">
<title>Node38&#45;&gt;Node4</title>
<path fill="none" stroke="#63b8ff" d="M707.25,-364.54C757.29,-356.26 842.61,-341.68 915.5,-327 920.58,-325.98 925.87,-324.86 931.14,-323.72"/>
<polygon fill="#63b8ff" stroke="#63b8ff" points="932.16,-327.08 941.17,-321.5 930.65,-320.24 932.16,-327.08"/>
</g>
<!-- Node38&#45;&gt;Node6 -->
<g id="edge63" class="edge">
<title>Node38&#45;&gt;Node6</title>
<path fill="none" stroke="#63b8ff" d="M621.96,-364.15C619.1,-363.74 616.26,-363.35 613.5,-363 430.71,-339.84 375.76,-383.85 200.5,-327 146.27,-309.41 130.63,-301.5 90.5,-261 72.57,-242.9 58.85,-216.63 50.99,-199.19"/>
<polygon fill="#63b8ff" stroke="#63b8ff" points="54.04,-197.42 46.86,-189.63 47.61,-200.19 54.04,-197.42"/>
</g>
<!-- Node38&#45;&gt;Node21 -->
<g id="edge66" class="edge">
<title>Node38&#45;&gt;Node21</title>
<path fill="none" stroke="#63b8ff" d="M621.96,-364.18C619.1,-363.76 616.26,-363.36 613.5,-363 447.49,-341.22 391.98,-393.92 238.5,-327 236.31,-326.04 191.17,-285.5 165.67,-262.51"/>
<polygon fill="#63b8ff" stroke="#63b8ff" points="167.93,-259.83 158.16,-255.73 163.24,-265.03 167.93,-259.83"/>
</g>
<!-- Node38&#45;&gt;Node26 -->
<g id="edge64" class="edge">
<title>Node38&#45;&gt;Node26</title>
<path fill="none" stroke="#63b8ff" d="M675.57,-362.87C685.46,-355.15 700.35,-343.54 713.27,-333.46"/>
<polygon fill="#63b8ff" stroke="#63b8ff" points="715.67,-336.02 721.4,-327.11 711.37,-330.51 715.67,-336.02"/>
</g>
<!-- Node38&#45;&gt;Node33 -->
<g id="edge65" class="edge">
<title>Node38&#45;&gt;Node33</title>
<path fill="none" stroke="#63b8ff" d="M692.42,-362.99C720.65,-354.39 765.08,-340.86 800.58,-330.04"/>
<polygon fill="#63b8ff" stroke="#63b8ff" points="801.79,-333.33 810.34,-327.06 799.75,-326.63 801.79,-333.33"/>
</g>
<!-- Node39 -->
<g id="node39" class="node">
<title>Node39</title>
<g id="a_node39"><a xlink:href="value__handle_8h.html" target="_top" xlink:title=" ">
<polygon fill="white" stroke="#666666" points="672,-321.5 549,-321.5 549,-302.5 672,-302.5 672,-321.5"/>
<text text-anchor="middle" x="610.5" y="-309.5" font-family="Helvetica,sans-Serif" font-size="10.00">ccf/kv/value_handle.h</text>
</a>
</g>
</g>
<!-- Node38&#45;&gt;Node39 -->
<g id="edge67" class="edge">
<title>Node38&#45;&gt;Node39</title>
<path fill="none" stroke="#63b8ff" d="M656.53,-362.87C648.4,-354.05 635.57,-340.16 625.52,-329.27"/>
<polygon fill="#63b8ff" stroke="#63b8ff" points="627.86,-326.64 618.5,-321.67 622.71,-331.39 627.86,-326.64"/>
</g>
<!-- Node39&#45;&gt;Node25 -->
<g id="edge69" class="edge">
<title>Node39&#45;&gt;Node25</title>
<path fill="none" stroke="#63b8ff" d="M592.29,-302.37C572.42,-292.95 540.02,-277.59 514.38,-265.43"/>
<polygon fill="#63b8ff" stroke="#63b8ff" points="515.81,-262.24 505.28,-261.12 512.81,-268.56 515.81,-262.24"/>
</g>
<!-- Node39&#45;&gt;Node37 -->
<g id="edge68" class="edge">
<title>Node39&#45;&gt;Node37</title>
<path fill="none" stroke="#63b8ff" d="M618.05,-302.37C626.69,-292.5 641.03,-276.11 651.87,-263.72"/>
<polygon fill="#63b8ff" stroke="#63b8ff" points="654.76,-265.74 658.71,-255.91 649.49,-261.13 654.76,-265.74"/>
</g>
<!-- Node40&#45;&gt;Node18 -->
<g id="edge89" class="edge">
<title>Node40&#45;&gt;Node18</title>
<path fill="none" stroke="#63b8ff" d="M1262.82,-362.77C1269.71,-344.29 1285.56,-299.74 1293.5,-261 1299.42,-232.1 1298.94,-224.46 1300.5,-195 1301.2,-181.69 1301.86,-178.26 1300.5,-165 1295.4,-115.2 1281.27,-57.77 1273.61,-28.98"/>
<polygon fill="#63b8ff" stroke="#63b8ff" points="1276.93,-27.85 1270.93,-19.11 1270.17,-29.68 1276.93,-27.85"/>
</g>
<!-- Node41 -->
<g id="node41" class="node">
<title>Node41</title>
<g id="a_node41"><a xlink:href="json_8h.html" target="_top" xlink:title=" ">
<polygon fill="white" stroke="#666666" points="1239,-321.5 1162,-321.5 1162,-302.5 1239,-302.5 1239,-321.5"/>
<text text-anchor="middle" x="1200.5" y="-309.5" font-family="Helvetica,sans-Serif" font-size="10.00">ccf/ds/json.h</text>
</a>
</g>
</g>
<!-- Node40&#45;&gt;Node41 -->
<g id="edge71" class="edge">
<title>Node40&#45;&gt;Node41</title>
<path fill="none" stroke="#63b8ff" d="M1250.79,-362.87C1241.82,-353.97 1227.62,-339.89 1216.59,-328.95"/>
<polygon fill="#63b8ff" stroke="#63b8ff" points="1218.81,-326.22 1209.24,-321.67 1213.88,-331.19 1218.81,-326.22"/>
</g>
<!-- Node46 -->
<g id="node46" class="node">
<title>Node46</title>
<g id="a_node46"><a xlink:href="serialized_8h.html" target="_top" xlink:title=" ">
<polygon fill="white" stroke="#666666" points="1435,-189.5 1348,-189.5 1348,-170.5 1435,-170.5 1435,-189.5"/>
<text text-anchor="middle" x="1391.5" y="-177.5" font-family="Helvetica,sans-Serif" font-size="10.00">ds/serialized.h</text>
</a>
</g>
</g>
<!-- Node40&#45;&gt;Node46 -->
<g id="edge83" class="edge">
<title>Node40&#45;&gt;Node46</title>
<path fill="none" stroke="#63b8ff" d="M1281.58,-362.85C1297.86,-355.48 1319.53,-343.46 1333.5,-327 1366.21,-288.46 1381.96,-229.21 1388.16,-199.43"/>
<polygon fill="#63b8ff" stroke="#63b8ff" points="1391.6,-200.05 1390.08,-189.56 1384.73,-198.71 1391.6,-200.05"/>
</g>
<!-- Node41&#45;&gt;Node19 -->
<g id="edge81" class="edge">
<title>Node41&#45;&gt;Node19</title>
<path fill="none" stroke="#63b8ff" d="M1198.9,-302.37C1192.78,-271.68 1167.99,-166.63 1106.5,-110 1087.05,-92.09 1059.75,-81.21 1036.11,-74.7"/>
<polygon fill="#63b8ff" stroke="#63b8ff" points="1036.79,-71.26 1026.23,-72.17 1035.05,-78.05 1036.79,-71.26"/>
</g>
<!-- Node42 -->
<g id="node42" class="node">
<title>Node42</title>
<g id="a_node42"><a xlink:href="include_2ccf_2crypto_2base64_8h.html" target="_top" xlink:title=" ">
<polygon fill="white" stroke="#666666" points="1291.5,-189.5 1179.5,-189.5 1179.5,-170.5 1291.5,-170.5 1291.5,-189.5"/>
<text text-anchor="middle" x="1235.5" y="-177.5" font-family="Helvetica,sans-Serif" font-size="10.00">ccf/crypto/base64.h</text>
</a>
</g>
</g>
<!-- Node41&#45;&gt;Node42 -->
<g id="edge72" class="edge">
<title>Node41&#45;&gt;Node42</title>
<path fill="none" stroke="#63b8ff" d="M1202.39,-302.06C1205.58,-287.22 1212.38,-256.58 1219.5,-231 1222.45,-220.41 1226.17,-208.7 1229.28,-199.28"/>
<polygon fill="#63b8ff" stroke="#63b8ff" points="1232.6,-200.38 1232.46,-189.79 1225.96,-198.16 1232.6,-200.38"/>
</g>
<!-- Node43 -->
<g id="node43" class="node">
<title>Node43</title>
<g id="a_node43"><a xlink:href="include_2ccf_2ds_2json__schema_8h.html" target="_top" xlink:title=" ">
<polygon fill="white" stroke="#666666" points="962,-255.5 841,-255.5 841,-236.5 962,-236.5 962,-255.5"/>
<text text-anchor="middle" x="901.5" y="-243.5" font-family="Helvetica,sans-Serif" font-size="10.00">ccf/ds/json_schema.h</text>
</a>
</g>
</g>
<!-- Node41&#45;&gt;Node43 -->
<g id="edge75" class="edge">
<title>Node41&#45;&gt;Node43</title>
<path fill="none" stroke="#63b8ff" d="M1161.72,-302.7C1107.94,-291.19 1010.69,-270.37 951.52,-257.71"/>
<polygon fill="#63b8ff" stroke="#63b8ff" points="952.16,-254.26 941.64,-255.59 950.69,-261.11 952.16,-254.26"/>
</g>
<!-- Node45 -->
<g id="node45" class="node">
<title>Node45</title>
<g id="a_node45"><a xlink:title=" ">
<polygon fill="#e0e0e0" stroke="#999999" points="1284.5,-255.5 1228.5,-255.5 1228.5,-236.5 1284.5,-236.5 1284.5,-255.5"/>
<text text-anchor="middle" x="1256.5" y="-243.5" font-family="Helvetica,sans-Serif" font-size="10.00">sstream</text>
</a>
</g>
</g>
<!-- Node41&#45;&gt;Node45 -->
<g id="edge82" class="edge">
<title>Node41&#45;&gt;Node45</title>
<path fill="none" stroke="#63b8ff" d="M1208.05,-302.37C1216.69,-292.5 1231.03,-276.11 1241.87,-263.72"/>
<polygon fill="#63b8ff" stroke="#63b8ff" points="1244.76,-265.74 1248.71,-255.91 1239.49,-261.13 1244.76,-265.74"/>
</g>
<!-- Node42&#45;&gt;Node5 -->
<g id="edge73" class="edge">
<title>Node42&#45;&gt;Node5</title>
<path fill="none" stroke="#63b8ff" d="M1212.23,-170.49C1184.47,-160.34 1137.93,-143.32 1106.97,-132.01"/>
<polygon fill="#63b8ff" stroke="#63b8ff" points="1108.1,-128.69 1097.51,-128.55 1105.7,-135.27 1108.1,-128.69"/>
</g>
<!-- Node42&#45;&gt;Node18 -->
<g id="edge74" class="edge">
<title>Node42&#45;&gt;Node18</title>
<path fill="none" stroke="#63b8ff" d="M1237.18,-170.41C1242.28,-144.39 1257.64,-65.97 1264.78,-29.51"/>
<polygon fill="#63b8ff" stroke="#63b8ff" points="1268.29,-29.76 1266.78,-19.27 1261.43,-28.41 1268.29,-29.76"/>
</g>
<!-- Node43&#45;&gt;Node19 -->
<g id="edge78" class="edge">
<title>Node43&#45;&gt;Node19</title>
<path fill="none" stroke="#63b8ff" d="M894.78,-236.14C884.09,-220.87 865.68,-188.95 878.5,-165 892.11,-139.57 910.95,-148.17 932.5,-129 948.31,-114.93 963.68,-96.21 973.95,-82.75"/>
<polygon fill="#63b8ff" stroke="#63b8ff" points="977.02,-84.5 980.19,-74.39 971.41,-80.31 977.02,-84.5"/>
</g>
<!-- Node43&#45;&gt;Node23 -->
<g id="edge77" class="edge">
<title>Node43&#45;&gt;Node23</title>
<path fill="none" stroke="#63b8ff" d="M840.94,-236.96C740.2,-223.58 541.01,-197.13 457.62,-186.06"/>
<polygon fill="#63b8ff" stroke="#63b8ff" points="457.95,-182.57 447.57,-184.73 457.03,-189.51 457.95,-182.57"/>
</g>
<!-- Node43&#45;&gt;Node27 -->
<g id="edge76" class="edge">
<title>Node43&#45;&gt;Node27</title>
<path fill="none" stroke="#63b8ff" d="M875.74,-236.37C842.18,-225.12 783.37,-205.42 745.71,-192.8"/>
<polygon fill="#63b8ff" stroke="#63b8ff" points="746.75,-189.46 736.16,-189.6 744.53,-196.09 746.75,-189.46"/>
</g>
<!-- Node43&#45;&gt;Node34 -->
<g id="edge79" class="edge">
<title>Node43&#45;&gt;Node34</title>
<path fill="none" stroke="#63b8ff" d="M913.77,-236.37C928.56,-225.97 953.65,-208.32 971.53,-195.75"/>
<polygon fill="#63b8ff" stroke="#63b8ff" points="973.96,-198.31 980.13,-189.7 969.94,-192.59 973.96,-198.31"/>
</g>
<!-- Node44 -->
<g id="node44" class="node">
<title>Node44</title>
<g id="a_node44"><a xlink:title=" ">
<polygon fill="#e0e0e0" stroke="#999999" points="919.5,-189.5 887.5,-189.5 887.5,-170.5 919.5,-170.5 919.5,-189.5"/>
<text text-anchor="middle" x="903.5" y="-177.5" font-family="Helvetica,sans-Serif" font-size="10.00">set</text>
</a>
</g>
</g>
<!-- Node43&#45;&gt;Node44 -->
<g id="edge80" class="edge">
<title>Node43&#45;&gt;Node44</title>
<path fill="none" stroke="#63b8ff" d="M901.77,-236.37C902.06,-227.16 902.52,-212.29 902.9,-200.27"/>
<polygon fill="#63b8ff" stroke="#63b8ff" points="906.41,-200.01 903.22,-189.91 899.41,-199.79 906.41,-200.01"/>
</g>
<!-- Node46&#45;&gt;Node5 -->
<g id="edge87" class="edge">
<title>Node46&#45;&gt;Node5</title>
<path fill="none" stroke="#63b8ff" d="M1347.89,-170.93C1283.5,-159.01 1164.47,-136.97 1107.5,-126.42"/>
<polygon fill="#63b8ff" stroke="#63b8ff" points="1108.09,-122.97 1097.62,-124.59 1106.81,-129.86 1108.09,-122.97"/>
</g>
<!-- Node46&#45;&gt;Node17 -->
<g id="edge84" class="edge">
<title>Node46&#45;&gt;Node17</title>
<path fill="none" stroke="#63b8ff" d="M1375.45,-170.41C1324.15,-142.98 1163.96,-57.28 1101.65,-23.95"/>
<polygon fill="#63b8ff" stroke="#63b8ff" points="1102.99,-20.7 1092.52,-19.07 1099.69,-26.87 1102.99,-20.7"/>
</g>
<!-- Node46&#45;&gt;Node18 -->
<g id="edge88" class="edge">
<title>Node46&#45;&gt;Node18</title>
<path fill="none" stroke="#63b8ff" d="M1435.03,-171.12C1476.96,-161.45 1531.08,-142.25 1509.5,-110 1462.78,-40.16 1357.1,-19.29 1302.53,-13.09"/>
<polygon fill="#63b8ff" stroke="#63b8ff" points="1302.64,-9.58 1292.33,-12.04 1301.92,-16.55 1302.64,-9.58"/>
</g>
<!-- Node47 -->
<g id="node47" class="node">
<title>Node47</title>
<g id="a_node47"><a xlink:title=" ">
<polygon fill="#e0e0e0" stroke="#999999" points="1416.5,-129 1366.5,-129 1366.5,-110 1416.5,-110 1416.5,-129"/>
<text text-anchor="middle" x="1391.5" y="-117" font-family="Helvetica,sans-Serif" font-size="10.00">cstring</text>
</a>
</g>
</g>
<!-- Node46&#45;&gt;Node47 -->
<g id="edge85" class="edge">
<title>Node46&#45;&gt;Node47</title>
<path fill="none" stroke="#63b8ff" d="M1391.5,-170.37C1391.5,-162.25 1391.5,-149.81 1391.5,-139.39"/>
<polygon fill="#63b8ff" stroke="#63b8ff" points="1395,-139.17 1391.5,-129.17 1388,-139.17 1395,-139.17"/>
</g>
<!-- Node48 -->
<g id="node48" class="node">
<title>Node48</title>
<g id="a_node48"><a xlink:title=" ">
<polygon fill="#e0e0e0" stroke="#999999" points="1500,-129 1435,-129 1435,-110 1500,-110 1500,-129"/>
<text text-anchor="middle" x="1467.5" y="-117" font-family="Helvetica,sans-Serif" font-size="10.00">stdexcept</text>
</a>
</g>
</g>
<!-- Node46&#45;&gt;Node48 -->
<g id="edge86" class="edge">
<title>Node46&#45;&gt;Node48</title>
<path fill="none" stroke="#63b8ff" d="M1402.71,-170.37C1414.61,-161.21 1433.64,-146.56 1448.01,-135.51"/>
<polygon fill="#63b8ff" stroke="#63b8ff" points="1450.45,-138.04 1456.24,-129.17 1446.18,-132.49 1450.45,-138.04"/>
</g>
</g>
</svg>
