<?xml version="1.0" encoding="UTF-8" standalone="no"?>
<!DOCTYPE svg PUBLIC "-//W3C//DTD SVG 1.1//EN"
 "http://www.w3.org/Graphics/SVG/1.1/DTD/svg11.dtd">
<!-- Generated by graphviz version 2.43.0 (0)
 -->
<!-- Title: src/tls/ca.h Pages: 1 -->
<svg width="1321pt" height="368pt"
 viewBox="0.00 0.00 1321.00 368.00" xmlns="http://www.w3.org/2000/svg" xmlns:xlink="http://www.w3.org/1999/xlink">
<g id="graph0" class="graph" transform="scale(1 1) rotate(0) translate(4 364)">
<title>src/tls/ca.h</title>
<!-- Node1 -->
<g id="node1" class="node">
<title>Node1</title>
<g id="a_node1"><a xlink:title=" ">
<polygon fill="#999999" stroke="#666666" points="196,-360 127,-360 127,-341 196,-341 196,-360"/>
<text text-anchor="middle" x="161.5" y="-348" font-family="Helvetica,sans-Serif" font-size="10.00">src/tls/ca.h</text>
</a>
</g>
</g>
<!-- Node2 -->
<g id="node2" class="node">
<title>Node2</title>
<g id="a_node2"><a xlink:href="pem_8h.html" target="_top" xlink:title=" ">
<polygon fill="white" stroke="#666666" points="210.5,-239 112.5,-239 112.5,-220 210.5,-220 210.5,-239"/>
<text text-anchor="middle" x="161.5" y="-227" font-family="Helvetica,sans-Serif" font-size="10.00">ccf/crypto/pem.h</text>
</a>
</g>
</g>
<!-- Node1&#45;&gt;Node2 -->
<g id="edge1" class="edge">
<title>Node1&#45;&gt;Node2</title>
<path fill="none" stroke="#63b8ff" d="M161.5,-340.94C161.5,-321.91 161.5,-275.69 161.5,-249.47"/>
<polygon fill="#63b8ff" stroke="#63b8ff" points="165,-249.3 161.5,-239.3 158,-249.3 165,-249.3"/>
</g>
<!-- Node20 -->
<g id="node20" class="node">
<title>Node20</title>
<g id="a_node20"><a xlink:title=" ">
<polygon fill="#e0e0e0" stroke="#999999" points="66,-184 1,-184 1,-165 66,-165 66,-184"/>
<text text-anchor="middle" x="33.5" y="-172" font-family="Helvetica,sans-Serif" font-size="10.00">exception</text>
</a>
</g>
</g>
<!-- Node1&#45;&gt;Node20 -->
<g id="edge49" class="edge">
<title>Node1&#45;&gt;Node20</title>
<path fill="none" stroke="#63b8ff" d="M154.98,-340.63C134.69,-313.05 72.47,-228.47 45.82,-192.25"/>
<polygon fill="#63b8ff" stroke="#63b8ff" points="48.6,-190.12 39.86,-184.14 42.96,-194.27 48.6,-190.12"/>
</g>
<!-- Node23 -->
<g id="node23" class="node">
<title>Node23</title>
<g id="a_node23"><a xlink:href="openssl__wrappers_8h.html" target="_top" xlink:title=" ">
<polygon fill="white" stroke="#666666" points="836.5,-305 708.5,-305 708.5,-275 836.5,-275 836.5,-305"/>
<text text-anchor="start" x="716.5" y="-293" font-family="Helvetica,sans-Serif" font-size="10.00">crypto/openssl/openssl</text>
<text text-anchor="middle" x="772.5" y="-282" font-family="Helvetica,sans-Serif" font-size="10.00">_wrappers.h</text>
</a>
</g>
</g>
<!-- Node1&#45;&gt;Node23 -->
<g id="edge27" class="edge">
<title>Node1&#45;&gt;Node23</title>
<path fill="none" stroke="#63b8ff" d="M196.1,-346.19C292.42,-336.96 565.3,-310.84 698.08,-298.13"/>
<polygon fill="#63b8ff" stroke="#63b8ff" points="698.55,-301.6 708.17,-297.16 697.88,-294.63 698.55,-301.6"/>
</g>
<!-- Node3 -->
<g id="node3" class="node">
<title>Node3</title>
<g id="a_node3"><a xlink:href="json_8h.html" target="_top" xlink:title=" ">
<polygon fill="white" stroke="#666666" points="398,-184 321,-184 321,-165 398,-165 398,-184"/>
<text text-anchor="middle" x="359.5" y="-172" font-family="Helvetica,sans-Serif" font-size="10.00">ccf/ds/json.h</text>
</a>
</g>
</g>
<!-- Node2&#45;&gt;Node3 -->
<g id="edge2" class="edge">
<title>Node2&#45;&gt;Node3</title>
<path fill="none" stroke="#63b8ff" d="M193.31,-219.98C226.99,-210.97 280.3,-196.7 317.42,-186.76"/>
<polygon fill="#63b8ff" stroke="#63b8ff" points="318.68,-190.05 327.44,-184.08 316.87,-183.29 318.68,-190.05"/>
</g>
<!-- Node6 -->
<g id="node6" class="node">
<title>Node6</title>
<g id="a_node6"><a xlink:title=" ">
<polygon fill="#e0e0e0" stroke="#999999" points="599,-19 552,-19 552,0 599,0 599,-19"/>
<text text-anchor="middle" x="575.5" y="-7" font-family="Helvetica,sans-Serif" font-size="10.00">vector</text>
</a>
</g>
</g>
<!-- Node2&#45;&gt;Node6 -->
<g id="edge26" class="edge">
<title>Node2&#45;&gt;Node6</title>
<path fill="none" stroke="#63b8ff" d="M210.53,-221.2C213.57,-220.79 216.57,-220.38 219.5,-220 289.14,-210.91 473.96,-221.25 533.5,-184 582.62,-153.26 587.3,-129.64 603.5,-74 608.27,-57.62 599.19,-39.93 590.13,-27.39"/>
<polygon fill="#63b8ff" stroke="#63b8ff" points="592.67,-24.95 583.73,-19.26 587.17,-29.28 592.67,-24.95"/>
</g>
<!-- Node12 -->
<g id="node12" class="node">
<title>Node12</title>
<g id="a_node12"><a xlink:title=" ">
<polygon fill="#e0e0e0" stroke="#999999" points="73,-19 0,-19 0,0 73,0 73,-19"/>
<text text-anchor="middle" x="36.5" y="-7" font-family="Helvetica,sans-Serif" font-size="10.00">string_view</text>
</a>
</g>
</g>
<!-- Node2&#45;&gt;Node12 -->
<g id="edge25" class="edge">
<title>Node2&#45;&gt;Node12</title>
<path fill="none" stroke="#63b8ff" d="M156.6,-219.95C138.05,-187.61 71.92,-72.26 46.53,-27.98"/>
<polygon fill="#63b8ff" stroke="#63b8ff" points="49.51,-26.16 41.5,-19.22 43.44,-29.64 49.51,-26.16"/>
</g>
<!-- Node19 -->
<g id="node19" class="node">
<title>Node19</title>
<g id="a_node19"><a xlink:title=" ">
<polygon fill="#e0e0e0" stroke="#999999" points="466.5,-184 416.5,-184 416.5,-165 466.5,-165 466.5,-184"/>
<text text-anchor="middle" x="441.5" y="-172" font-family="Helvetica,sans-Serif" font-size="10.00">cstring</text>
</a>
</g>
</g>
<!-- Node2&#45;&gt;Node19 -->
<g id="edge21" class="edge">
<title>Node2&#45;&gt;Node19</title>
<path fill="none" stroke="#63b8ff" d="M210.7,-220.58C258.35,-212.69 332.87,-199.78 406.4,-184.12"/>
<polygon fill="#63b8ff" stroke="#63b8ff" points="407.25,-187.52 416.29,-182 405.78,-180.68 407.25,-187.52"/>
</g>
<!-- Node2&#45;&gt;Node20 -->
<g id="edge22" class="edge">
<title>Node2&#45;&gt;Node20</title>
<path fill="none" stroke="#63b8ff" d="M140.93,-219.98C120.07,-211.34 87.53,-197.87 63.73,-188.02"/>
<polygon fill="#63b8ff" stroke="#63b8ff" points="65.02,-184.76 54.44,-184.17 62.34,-191.23 65.02,-184.76"/>
</g>
<!-- Node21 -->
<g id="node21" class="node">
<title>Node21</title>
<g id="a_node21"><a xlink:title=" ">
<polygon fill="#e0e0e0" stroke="#999999" points="685.5,-184 627.5,-184 627.5,-165 685.5,-165 685.5,-184"/>
<text text-anchor="middle" x="656.5" y="-172" font-family="Helvetica,sans-Serif" font-size="10.00">memory</text>
</a>
</g>
</g>
<!-- Node2&#45;&gt;Node21 -->
<g id="edge23" class="edge">
<title>Node2&#45;&gt;Node21</title>
<path fill="none" stroke="#63b8ff" d="M210.52,-221.14C213.56,-220.74 216.57,-220.36 219.5,-220 385.72,-199.85 428.19,-203.37 594.5,-184 601.85,-183.14 609.67,-182.14 617.19,-181.13"/>
<polygon fill="#63b8ff" stroke="#63b8ff" points="617.77,-184.59 627.2,-179.77 616.82,-177.65 617.77,-184.59"/>
</g>
<!-- Node22 -->
<g id="node22" class="node">
<title>Node22</title>
<g id="a_node22"><a xlink:title=" ">
<polygon fill="#e0e0e0" stroke="#999999" points="524.5,-184 484.5,-184 484.5,-165 524.5,-165 524.5,-184"/>
<text text-anchor="middle" x="504.5" y="-172" font-family="Helvetica,sans-Serif" font-size="10.00">span</text>
</a>
</g>
</g>
<!-- Node2&#45;&gt;Node22 -->
<g id="edge24" class="edge">
<title>Node2&#45;&gt;Node22</title>
<path fill="none" stroke="#63b8ff" d="M210.54,-221.29C213.57,-220.85 216.58,-220.42 219.5,-220 330.01,-204.13 361.42,-207.98 474.24,-183.99"/>
<polygon fill="#63b8ff" stroke="#63b8ff" points="475.28,-187.35 484.31,-181.82 473.8,-180.51 475.28,-187.35"/>
</g>
<!-- Node4 -->
<g id="node4" class="node">
<title>Node4</title>
<g id="a_node4"><a xlink:href="include_2ccf_2crypto_2base64_8h.html" target="_top" xlink:title=" ">
<polygon fill="white" stroke="#666666" points="594.5,-74 482.5,-74 482.5,-55 594.5,-55 594.5,-74"/>
<text text-anchor="middle" x="538.5" y="-62" font-family="Helvetica,sans-Serif" font-size="10.00">ccf/crypto/base64.h</text>
</a>
</g>
</g>
<!-- Node3&#45;&gt;Node4 -->
<g id="edge3" class="edge">
<title>Node3&#45;&gt;Node4</title>
<path fill="none" stroke="#63b8ff" d="M373.85,-164.84C404.74,-146.2 477.81,-102.11 515.35,-79.46"/>
<polygon fill="#63b8ff" stroke="#63b8ff" points="517.33,-82.36 524.09,-74.2 513.72,-76.37 517.33,-82.36"/>
</g>
<!-- Node7 -->
<g id="node7" class="node">
<title>Node7</title>
<g id="a_node7"><a xlink:href="include_2ccf_2ds_2json__schema_8h.html" target="_top" xlink:title=" ">
<polygon fill="white" stroke="#666666" points="420,-129 299,-129 299,-110 420,-110 420,-129"/>
<text text-anchor="middle" x="359.5" y="-117" font-family="Helvetica,sans-Serif" font-size="10.00">ccf/ds/json_schema.h</text>
</a>
</g>
</g>
<!-- Node3&#45;&gt;Node7 -->
<g id="edge6" class="edge">
<title>Node3&#45;&gt;Node7</title>
<path fill="none" stroke="#63b8ff" d="M359.5,-164.75C359.5,-157.8 359.5,-147.85 359.5,-139.13"/>
<polygon fill="#63b8ff" stroke="#63b8ff" points="363,-139.09 359.5,-129.09 356,-139.09 363,-139.09"/>
</g>
<!-- Node15 -->
<g id="node15" class="node">
<title>Node15</title>
<g id="a_node15"><a xlink:title=" ">
<polygon fill="#e0e0e0" stroke="#999999" points="750,-74 671,-74 671,-55 750,-55 750,-74"/>
<text text-anchor="middle" x="710.5" y="-62" font-family="Helvetica,sans-Serif" font-size="10.00">fmt/format.h</text>
</a>
</g>
</g>
<!-- Node3&#45;&gt;Node15 -->
<g id="edge19" class="edge">
<title>Node3&#45;&gt;Node15</title>
<path fill="none" stroke="#63b8ff" d="M387.34,-164.94C449.93,-145.68 601.83,-98.94 672.8,-77.1"/>
<polygon fill="#63b8ff" stroke="#63b8ff" points="674.13,-80.35 682.66,-74.07 672.07,-73.66 674.13,-80.35"/>
</g>
<!-- Node18 -->
<g id="node18" class="node">
<title>Node18</title>
<g id="a_node18"><a xlink:title=" ">
<polygon fill="#e0e0e0" stroke="#999999" points="702.5,-129 646.5,-129 646.5,-110 702.5,-110 702.5,-129"/>
<text text-anchor="middle" x="674.5" y="-117" font-family="Helvetica,sans-Serif" font-size="10.00">sstream</text>
</a>
</g>
</g>
<!-- Node3&#45;&gt;Node18 -->
<g id="edge20" class="edge">
<title>Node3&#45;&gt;Node18</title>
<path fill="none" stroke="#63b8ff" d="M398,-166.62C401.21,-166.07 404.41,-165.52 407.5,-165 507.36,-148.17 532.85,-147.05 632.5,-129 633.6,-128.8 634.71,-128.6 635.84,-128.39"/>
<polygon fill="#63b8ff" stroke="#63b8ff" points="636.91,-131.75 646.06,-126.42 635.58,-124.87 636.91,-131.75"/>
</g>
<!-- Node5 -->
<g id="node5" class="node">
<title>Node5</title>
<g id="a_node5"><a xlink:title=" ">
<polygon fill="#e0e0e0" stroke="#999999" points="522.5,-19 478.5,-19 478.5,0 522.5,0 522.5,-19"/>
<text text-anchor="middle" x="500.5" y="-7" font-family="Helvetica,sans-Serif" font-size="10.00">string</text>
</a>
</g>
</g>
<!-- Node4&#45;&gt;Node5 -->
<g id="edge4" class="edge">
<title>Node4&#45;&gt;Node5</title>
<path fill="none" stroke="#63b8ff" d="M532.23,-54.75C526.91,-47.34 519.14,-36.5 512.62,-27.41"/>
<polygon fill="#63b8ff" stroke="#63b8ff" points="515.33,-25.18 506.66,-19.09 509.64,-29.26 515.33,-25.18"/>
</g>
<!-- Node4&#45;&gt;Node6 -->
<g id="edge5" class="edge">
<title>Node4&#45;&gt;Node6</title>
<path fill="none" stroke="#63b8ff" d="M544.61,-54.75C549.78,-47.34 557.35,-36.5 563.69,-27.41"/>
<polygon fill="#63b8ff" stroke="#63b8ff" points="566.65,-29.29 569.5,-19.09 560.91,-25.29 566.65,-29.29"/>
</g>
<!-- Node8 -->
<g id="node8" class="node">
<title>Node8</title>
<g id="a_node8"><a xlink:href="nonstd_8h.html" target="_top" xlink:title=" ">
<polygon fill="white" stroke="#666666" points="212.5,-74 122.5,-74 122.5,-55 212.5,-55 212.5,-74"/>
<text text-anchor="middle" x="167.5" y="-62" font-family="Helvetica,sans-Serif" font-size="10.00">ccf/ds/nonstd.h</text>
</a>
</g>
</g>
<!-- Node7&#45;&gt;Node8 -->
<g id="edge7" class="edge">
<title>Node7&#45;&gt;Node8</title>
<path fill="none" stroke="#63b8ff" d="M328.65,-109.98C296,-100.97 244.3,-86.7 208.3,-76.76"/>
<polygon fill="#63b8ff" stroke="#63b8ff" points="209.16,-73.37 198.59,-74.08 207.3,-80.12 209.16,-73.37"/>
</g>
<!-- Node14 -->
<g id="node14" class="node">
<title>Node14</title>
<g id="a_node14"><a xlink:title=" ">
<polygon fill="#e0e0e0" stroke="#999999" points="286.5,-74 230.5,-74 230.5,-55 286.5,-55 286.5,-74"/>
<text text-anchor="middle" x="258.5" y="-62" font-family="Helvetica,sans-Serif" font-size="10.00">optional</text>
</a>
</g>
</g>
<!-- Node7&#45;&gt;Node14 -->
<g id="edge15" class="edge">
<title>Node7&#45;&gt;Node14</title>
<path fill="none" stroke="#63b8ff" d="M343.27,-109.98C327.32,-101.61 302.72,-88.7 284.12,-78.95"/>
<polygon fill="#63b8ff" stroke="#63b8ff" points="285.5,-75.72 275.02,-74.17 282.25,-81.92 285.5,-75.72"/>
</g>
<!-- Node7&#45;&gt;Node15 -->
<g id="edge16" class="edge">
<title>Node7&#45;&gt;Node15</title>
<path fill="none" stroke="#63b8ff" d="M415.89,-109.98C483.68,-99.75 596.35,-82.74 660.94,-72.98"/>
<polygon fill="#63b8ff" stroke="#63b8ff" points="661.51,-76.44 670.87,-71.48 660.46,-69.52 661.51,-76.44"/>
</g>
<!-- Node16 -->
<g id="node16" class="node">
<title>Node16</title>
<g id="a_node16"><a xlink:title=" ">
<polygon fill="#e0e0e0" stroke="#999999" points="414.5,-74 304.5,-74 304.5,-55 414.5,-55 414.5,-74"/>
<text text-anchor="middle" x="359.5" y="-62" font-family="Helvetica,sans-Serif" font-size="10.00">nlohmann/json.hpp</text>
</a>
</g>
</g>
<!-- Node7&#45;&gt;Node16 -->
<g id="edge17" class="edge">
<title>Node7&#45;&gt;Node16</title>
<path fill="none" stroke="#63b8ff" d="M359.5,-109.75C359.5,-102.8 359.5,-92.85 359.5,-84.13"/>
<polygon fill="#63b8ff" stroke="#63b8ff" points="363,-84.09 359.5,-74.09 356,-84.09 363,-84.09"/>
</g>
<!-- Node17 -->
<g id="node17" class="node">
<title>Node17</title>
<g id="a_node17"><a xlink:title=" ">
<polygon fill="#e0e0e0" stroke="#999999" points="464.5,-74 432.5,-74 432.5,-55 464.5,-55 464.5,-74"/>
<text text-anchor="middle" x="448.5" y="-62" font-family="Helvetica,sans-Serif" font-size="10.00">set</text>
</a>
</g>
</g>
<!-- Node7&#45;&gt;Node17 -->
<g id="edge18" class="edge">
<title>Node7&#45;&gt;Node17</title>
<path fill="none" stroke="#63b8ff" d="M373.8,-109.98C387.6,-101.77 408.74,-89.18 425.01,-79.49"/>
<polygon fill="#63b8ff" stroke="#63b8ff" points="427.14,-82.29 433.94,-74.17 423.56,-76.28 427.14,-82.29"/>
</g>
<!-- Node8&#45;&gt;Node5 -->
<g id="edge11" class="edge">
<title>Node8&#45;&gt;Node5</title>
<path fill="none" stroke="#63b8ff" d="M212.76,-56.3C281.03,-45.43 408.72,-25.11 468.32,-15.62"/>
<polygon fill="#63b8ff" stroke="#63b8ff" points="468.96,-19.06 478.29,-14.03 467.86,-12.15 468.96,-19.06"/>
</g>
<!-- Node8&#45;&gt;Node6 -->
<g id="edge14" class="edge">
<title>Node8&#45;&gt;Node6</title>
<path fill="none" stroke="#63b8ff" d="M212.56,-56.27C215.58,-55.83 218.59,-55.4 221.5,-55 358.93,-36.21 394.42,-40.17 531.5,-19 534.81,-18.49 538.24,-17.91 541.67,-17.3"/>
<polygon fill="#63b8ff" stroke="#63b8ff" points="542.62,-20.69 551.81,-15.42 541.34,-13.8 542.62,-20.69"/>
</g>
<!-- Node9 -->
<g id="node9" class="node">
<title>Node9</title>
<g id="a_node9"><a xlink:title=" ">
<polygon fill="#e0e0e0" stroke="#999999" points="242.5,-19 178.5,-19 178.5,0 242.5,0 242.5,-19"/>
<text text-anchor="middle" x="210.5" y="-7" font-family="Helvetica,sans-Serif" font-size="10.00">algorithm</text>
</a>
</g>
</g>
<!-- Node8&#45;&gt;Node9 -->
<g id="edge8" class="edge">
<title>Node8&#45;&gt;Node9</title>
<path fill="none" stroke="#63b8ff" d="M174.6,-54.75C180.67,-47.26 189.59,-36.28 197.01,-27.13"/>
<polygon fill="#63b8ff" stroke="#63b8ff" points="199.95,-29.06 203.53,-19.09 194.51,-24.65 199.95,-29.06"/>
</g>
<!-- Node10 -->
<g id="node10" class="node">
<title>Node10</title>
<g id="a_node10"><a xlink:title=" ">
<polygon fill="#e0e0e0" stroke="#999999" points="302.5,-19 260.5,-19 260.5,0 302.5,0 302.5,-19"/>
<text text-anchor="middle" x="281.5" y="-7" font-family="Helvetica,sans-Serif" font-size="10.00">array</text>
</a>
</g>
</g>
<!-- Node8&#45;&gt;Node10 -->
<g id="edge9" class="edge">
<title>Node8&#45;&gt;Node10</title>
<path fill="none" stroke="#63b8ff" d="M185.82,-54.98C204.16,-46.46 232.61,-33.23 253.73,-23.41"/>
<polygon fill="#63b8ff" stroke="#63b8ff" points="255.26,-26.56 262.85,-19.17 252.31,-20.21 255.26,-26.56"/>
</g>
<!-- Node11 -->
<g id="node11" class="node">
<title>Node11</title>
<g id="a_node11"><a xlink:title=" ">
<polygon fill="#e0e0e0" stroke="#999999" points="370,-19 321,-19 321,0 370,0 370,-19"/>
<text text-anchor="middle" x="345.5" y="-7" font-family="Helvetica,sans-Serif" font-size="10.00">cctype</text>
</a>
</g>
</g>
<!-- Node8&#45;&gt;Node11 -->
<g id="edge10" class="edge">
<title>Node8&#45;&gt;Node11</title>
<path fill="none" stroke="#63b8ff" d="M196.1,-54.98C227.45,-45.65 277.73,-30.68 311.18,-20.72"/>
<polygon fill="#63b8ff" stroke="#63b8ff" points="312.4,-24.01 320.98,-17.8 310.4,-17.3 312.4,-24.01"/>
</g>
<!-- Node8&#45;&gt;Node12 -->
<g id="edge12" class="edge">
<title>Node8&#45;&gt;Node12</title>
<path fill="none" stroke="#63b8ff" d="M146.45,-54.98C125.09,-46.34 91.8,-32.87 67.44,-23.02"/>
<polygon fill="#63b8ff" stroke="#63b8ff" points="68.51,-19.68 57.93,-19.17 65.89,-26.17 68.51,-19.68"/>
</g>
<!-- Node13 -->
<g id="node13" class="node">
<title>Node13</title>
<g id="a_node13"><a xlink:title=" ">
<polygon fill="#e0e0e0" stroke="#999999" points="160,-19 91,-19 91,0 160,0 160,-19"/>
<text text-anchor="middle" x="125.5" y="-7" font-family="Helvetica,sans-Serif" font-size="10.00">type_traits</text>
</a>
</g>
</g>
<!-- Node8&#45;&gt;Node13 -->
<g id="edge13" class="edge">
<title>Node8&#45;&gt;Node13</title>
<path fill="none" stroke="#63b8ff" d="M160.56,-54.75C154.63,-47.26 145.93,-36.28 138.68,-27.13"/>
<polygon fill="#63b8ff" stroke="#63b8ff" points="141.26,-24.75 132.31,-19.09 135.77,-29.1 141.26,-24.75"/>
</g>
<!-- Node23&#45;&gt;Node2 -->
<g id="edge28" class="edge">
<title>Node23&#45;&gt;Node2</title>
<path fill="none" stroke="#63b8ff" d="M708.1,-284.34C606.69,-276.75 403.4,-260.48 220.59,-239.07"/>
<polygon fill="#63b8ff" stroke="#63b8ff" points="220.86,-235.57 210.52,-237.88 220.04,-242.53 220.86,-235.57"/>
</g>
<!-- Node23&#45;&gt;Node15 -->
<g id="edge38" class="edge">
<title>Node23&#45;&gt;Node15</title>
<path fill="none" stroke="#63b8ff" d="M774.06,-274.84C775.24,-260.79 776.11,-238.7 772.5,-220 771.81,-216.43 733.97,-123.19 717.75,-83.32"/>
<polygon fill="#63b8ff" stroke="#63b8ff" points="720.97,-81.95 713.96,-74.01 714.49,-84.59 720.97,-81.95"/>
</g>
<!-- Node23&#45;&gt;Node21 -->
<g id="edge39" class="edge">
<title>Node23&#45;&gt;Node21</title>
<path fill="none" stroke="#63b8ff" d="M772.04,-274.96C770.83,-259.77 766.78,-235.62 753.5,-220 738.61,-202.49 715.38,-191.5 695.38,-184.83"/>
<polygon fill="#63b8ff" stroke="#63b8ff" points="696.17,-181.41 685.58,-181.8 694.1,-188.09 696.17,-181.41"/>
</g>
<!-- Node24 -->
<g id="node24" class="node">
<title>Node24</title>
<g id="a_node24"><a xlink:title=" ">
<polygon fill="#e0e0e0" stroke="#999999" points="1122.5,-129 1072.5,-129 1072.5,-110 1122.5,-110 1122.5,-129"/>
<text text-anchor="middle" x="1097.5" y="-117" font-family="Helvetica,sans-Serif" font-size="10.00">chrono</text>
</a>
</g>
</g>
<!-- Node23&#45;&gt;Node24 -->
<g id="edge29" class="edge">
<title>Node23&#45;&gt;Node24</title>
<path fill="none" stroke="#63b8ff" d="M799.65,-274.92C861.36,-242.93 1011.46,-165.11 1071.78,-133.84"/>
<polygon fill="#63b8ff" stroke="#63b8ff" points="1073.72,-136.77 1080.98,-129.06 1070.5,-130.56 1073.72,-136.77"/>
</g>
<!-- Node25 -->
<g id="node25" class="node">
<title>Node25</title>
<g id="a_node25"><a xlink:href="x509__time__fmt_8h.html" target="_top" xlink:title=" ">
<polygon fill="white" stroke="#666666" points="881.5,-184 767.5,-184 767.5,-165 881.5,-165 881.5,-184"/>
<text text-anchor="middle" x="824.5" y="-172" font-family="Helvetica,sans-Serif" font-size="10.00">ds/x509_time_fmt.h</text>
</a>
</g>
</g>
<!-- Node23&#45;&gt;Node25 -->
<g id="edge30" class="edge">
<title>Node23&#45;&gt;Node25</title>
<path fill="none" stroke="#63b8ff" d="M794.06,-274.86C805.42,-266.05 818.27,-253.63 824.5,-239 830.51,-224.88 829.99,-207.34 828.25,-194.27"/>
<polygon fill="#63b8ff" stroke="#63b8ff" points="831.66,-193.42 826.56,-184.14 824.76,-194.58 831.66,-193.42"/>
</g>
<!-- Node29 -->
<g id="node29" class="node">
<title>Node29</title>
<g id="a_node29"><a xlink:title=" ">
<polygon fill="#e0e0e0" stroke="#999999" points="1004,-239 915,-239 915,-220 1004,-220 1004,-239"/>
<text text-anchor="middle" x="959.5" y="-227" font-family="Helvetica,sans-Serif" font-size="10.00">openssl/asn1.h</text>
</a>
</g>
</g>
<!-- Node23&#45;&gt;Node29 -->
<g id="edge40" class="edge">
<title>Node23&#45;&gt;Node29</title>
<path fill="none" stroke="#63b8ff" d="M817.29,-274.99C849.42,-264.94 892.2,-251.55 922.42,-242.1"/>
<polygon fill="#63b8ff" stroke="#63b8ff" points="923.66,-245.38 932.16,-239.05 921.57,-238.7 923.66,-245.38"/>
</g>
<!-- Node30 -->
<g id="node30" class="node">
<title>Node30</title>
<g id="a_node30"><a xlink:title=" ">
<polygon fill="#e0e0e0" stroke="#999999" points="1099,-239 1022,-239 1022,-220 1099,-220 1099,-239"/>
<text text-anchor="middle" x="1060.5" y="-227" font-family="Helvetica,sans-Serif" font-size="10.00">openssl/ec.h</text>
</a>
</g>
</g>
<!-- Node23&#45;&gt;Node30 -->
<g id="edge41" class="edge">
<title>Node23&#45;&gt;Node30</title>
<path fill="none" stroke="#63b8ff" d="M836.77,-275.94C889.71,-265.19 963.63,-250.18 1011.77,-240.4"/>
<polygon fill="#63b8ff" stroke="#63b8ff" points="1012.53,-243.81 1021.64,-238.39 1011.14,-236.95 1012.53,-243.81"/>
</g>
<!-- Node31 -->
<g id="node31" class="node">
<title>Node31</title>
<g id="a_node31"><a xlink:title=" ">
<polygon fill="#e0e0e0" stroke="#999999" points="1216,-239 1117,-239 1117,-220 1216,-220 1216,-239"/>
<text text-anchor="middle" x="1166.5" y="-227" font-family="Helvetica,sans-Serif" font-size="10.00">openssl/engine.h</text>
</a>
</g>
</g>
<!-- Node23&#45;&gt;Node31 -->
<g id="edge42" class="edge">
<title>Node23&#45;&gt;Node31</title>
<path fill="none" stroke="#63b8ff" d="M836.68,-279.47C911.45,-268.37 1033.99,-250.18 1106.78,-239.37"/>
<polygon fill="#63b8ff" stroke="#63b8ff" points="1107.34,-242.82 1116.72,-237.89 1106.31,-235.9 1107.34,-242.82"/>
</g>
<!-- Node32 -->
<g id="node32" class="node">
<title>Node32</title>
<g id="a_node32"><a xlink:title=" ">
<polygon fill="#e0e0e0" stroke="#999999" points="1313,-239 1234,-239 1234,-220 1313,-220 1313,-239"/>
<text text-anchor="middle" x="1273.5" y="-227" font-family="Helvetica,sans-Serif" font-size="10.00">openssl/err.h</text>
</a>
</g>
</g>
<!-- Node23&#45;&gt;Node32 -->
<g id="edge43" class="edge">
<title>Node23&#45;&gt;Node32</title>
<path fill="none" stroke="#63b8ff" d="M836.81,-283.24C922.71,-275.24 1079.88,-259.58 1223.65,-239.19"/>
<polygon fill="#63b8ff" stroke="#63b8ff" points="1224.58,-242.59 1233.98,-237.71 1223.59,-235.66 1224.58,-242.59"/>
</g>
<!-- Node33 -->
<g id="node33" class="node">
<title>Node33</title>
<g id="a_node33"><a xlink:title=" ">
<polygon fill="#e0e0e0" stroke="#999999" points="312.5,-239 228.5,-239 228.5,-220 312.5,-220 312.5,-239"/>
<text text-anchor="middle" x="270.5" y="-227" font-family="Helvetica,sans-Serif" font-size="10.00">openssl/evp.h</text>
</a>
</g>
</g>
<!-- Node23&#45;&gt;Node33 -->
<g id="edge44" class="edge">
<title>Node23&#45;&gt;Node33</title>
<path fill="none" stroke="#63b8ff" d="M708.13,-282.98C622.56,-274.73 466.37,-258.81 323.07,-239.15"/>
<polygon fill="#63b8ff" stroke="#63b8ff" points="323.16,-235.63 312.77,-237.73 322.2,-242.56 323.16,-235.63"/>
</g>
<!-- Node34 -->
<g id="node34" class="node">
<title>Node34</title>
<g id="a_node34"><a xlink:title=" ">
<polygon fill="#e0e0e0" stroke="#999999" points="418.5,-239 330.5,-239 330.5,-220 418.5,-220 418.5,-239"/>
<text text-anchor="middle" x="374.5" y="-227" font-family="Helvetica,sans-Serif" font-size="10.00">openssl/pem.h</text>
</a>
</g>
</g>
<!-- Node23&#45;&gt;Node34 -->
<g id="edge45" class="edge">
<title>Node23&#45;&gt;Node34</title>
<path fill="none" stroke="#63b8ff" d="M708.24,-279.98C641.08,-270.49 532.38,-254.94 428.75,-239.17"/>
<polygon fill="#63b8ff" stroke="#63b8ff" points="429.15,-235.69 418.74,-237.65 428.1,-242.61 429.15,-235.69"/>
</g>
<!-- Node35 -->
<g id="node35" class="node">
<title>Node35</title>
<g id="a_node35"><a xlink:title=" ">
<polygon fill="#e0e0e0" stroke="#999999" points="516.5,-239 436.5,-239 436.5,-220 516.5,-220 516.5,-239"/>
<text text-anchor="middle" x="476.5" y="-227" font-family="Helvetica,sans-Serif" font-size="10.00">openssl/ssl.h</text>
</a>
</g>
</g>
<!-- Node23&#45;&gt;Node35 -->
<g id="edge46" class="edge">
<title>Node23&#45;&gt;Node35</title>
<path fill="none" stroke="#63b8ff" d="M708.27,-276.31C653.71,-265.52 576.5,-250.26 526.46,-240.37"/>
<polygon fill="#63b8ff" stroke="#63b8ff" points="527.01,-236.92 516.52,-238.41 525.65,-243.78 527.01,-236.92"/>
</g>
<!-- Node36 -->
<g id="node36" class="node">
<title>Node36</title>
<g id="a_node36"><a xlink:title=" ">
<polygon fill="#e0e0e0" stroke="#999999" points="624.5,-239 534.5,-239 534.5,-220 624.5,-220 624.5,-239"/>
<text text-anchor="middle" x="579.5" y="-227" font-family="Helvetica,sans-Serif" font-size="10.00">openssl/x509.h</text>
</a>
</g>
</g>
<!-- Node23&#45;&gt;Node36 -->
<g id="edge47" class="edge">
<title>Node23&#45;&gt;Node36</title>
<path fill="none" stroke="#63b8ff" d="M726.27,-274.99C692.96,-264.89 648.57,-251.44 617.36,-241.98"/>
<polygon fill="#63b8ff" stroke="#63b8ff" points="618.3,-238.6 607.72,-239.05 616.27,-245.3 618.3,-238.6"/>
</g>
<!-- Node37 -->
<g id="node37" class="node">
<title>Node37</title>
<g id="a_node37"><a xlink:title=" ">
<polygon fill="#e0e0e0" stroke="#999999" points="744.5,-239 642.5,-239 642.5,-220 744.5,-220 744.5,-239"/>
<text text-anchor="middle" x="693.5" y="-227" font-family="Helvetica,sans-Serif" font-size="10.00">openssl/x509v3.h</text>
</a>
</g>
</g>
<!-- Node23&#45;&gt;Node37 -->
<g id="edge48" class="edge">
<title>Node23&#45;&gt;Node37</title>
<path fill="none" stroke="#63b8ff" d="M753.38,-274.84C741.32,-265.91 725.79,-254.41 713.56,-245.35"/>
<polygon fill="#63b8ff" stroke="#63b8ff" points="715.46,-242.4 705.34,-239.27 711.29,-248.03 715.46,-242.4"/>
</g>
<!-- Node25&#45;&gt;Node6 -->
<g id="edge37" class="edge">
<title>Node25&#45;&gt;Node6</title>
<path fill="none" stroke="#63b8ff" d="M865.07,-164.98C901.78,-155.33 947.29,-137.3 927.5,-110 889.6,-57.72 689.77,-25.71 609.21,-14.76"/>
<polygon fill="#63b8ff" stroke="#63b8ff" points="609.48,-11.26 599.11,-13.41 608.56,-18.2 609.48,-11.26"/>
</g>
<!-- Node25&#45;&gt;Node15 -->
<g id="edge33" class="edge">
<title>Node25&#45;&gt;Node15</title>
<path fill="none" stroke="#63b8ff" d="M815.17,-164.66C795.87,-146.38 751.33,-104.18 727.04,-81.17"/>
<polygon fill="#63b8ff" stroke="#63b8ff" points="729.31,-78.5 719.64,-74.16 724.49,-83.58 729.31,-78.5"/>
</g>
<!-- Node25&#45;&gt;Node18 -->
<g id="edge35" class="edge">
<title>Node25&#45;&gt;Node18</title>
<path fill="none" stroke="#63b8ff" d="M800.4,-164.98C775.62,-156.23 736.8,-142.51 708.81,-132.62"/>
<polygon fill="#63b8ff" stroke="#63b8ff" points="709.63,-129.2 699.04,-129.17 707.3,-135.8 709.63,-129.2"/>
</g>
<!-- Node25&#45;&gt;Node24 -->
<g id="edge31" class="edge">
<title>Node25&#45;&gt;Node24</title>
<path fill="none" stroke="#63b8ff" d="M875.5,-164.93C921.83,-156.94 992.28,-144.26 1062.4,-129.14"/>
<polygon fill="#63b8ff" stroke="#63b8ff" points="1063.26,-132.53 1072.29,-126.98 1061.77,-125.69 1063.26,-132.53"/>
</g>
<!-- Node26 -->
<g id="node26" class="node">
<title>Node26</title>
<g id="a_node26"><a xlink:title=" ">
<polygon fill="#e0e0e0" stroke="#999999" points="1054,-129 975,-129 975,-110 1054,-110 1054,-129"/>
<text text-anchor="middle" x="1014.5" y="-117" font-family="Helvetica,sans-Serif" font-size="10.00">fmt/chrono.h</text>
</a>
</g>
</g>
<!-- Node25&#45;&gt;Node26 -->
<g id="edge32" class="edge">
<title>Node25&#45;&gt;Node26</title>
<path fill="none" stroke="#63b8ff" d="M855.03,-164.98C887.2,-156.01 938.06,-141.82 973.67,-131.89"/>
<polygon fill="#63b8ff" stroke="#63b8ff" points="975.04,-135.14 983.73,-129.08 973.16,-128.4 975.04,-135.14"/>
</g>
<!-- Node27 -->
<g id="node27" class="node">
<title>Node27</title>
<g id="a_node27"><a xlink:title=" ">
<polygon fill="#e0e0e0" stroke="#999999" points="852.5,-129 796.5,-129 796.5,-110 852.5,-110 852.5,-129"/>
<text text-anchor="middle" x="824.5" y="-117" font-family="Helvetica,sans-Serif" font-size="10.00">iomanip</text>
</a>
</g>
</g>
<!-- Node25&#45;&gt;Node27 -->
<g id="edge34" class="edge">
<title>Node25&#45;&gt;Node27</title>
<path fill="none" stroke="#63b8ff" d="M824.5,-164.75C824.5,-157.8 824.5,-147.85 824.5,-139.13"/>
<polygon fill="#63b8ff" stroke="#63b8ff" points="828,-139.09 824.5,-129.09 821,-139.09 828,-139.09"/>
</g>
<!-- Node28 -->
<g id="node28" class="node">
<title>Node28</title>
<g id="a_node28"><a xlink:title=" ">
<polygon fill="#e0e0e0" stroke="#999999" points="918.5,-129 870.5,-129 870.5,-110 918.5,-110 918.5,-129"/>
<text text-anchor="middle" x="894.5" y="-117" font-family="Helvetica,sans-Serif" font-size="10.00">time.h</text>
</a>
</g>
</g>
<!-- Node25&#45;&gt;Node28 -->
<g id="edge36" class="edge">
<title>Node25&#45;&gt;Node28</title>
<path fill="none" stroke="#63b8ff" d="M835.75,-164.98C846.3,-157 862.3,-144.88 874.94,-135.31"/>
<polygon fill="#63b8ff" stroke="#63b8ff" points="877.19,-138 883.05,-129.17 872.96,-132.42 877.19,-138"/>
</g>
</g>
</svg>
