<?xml version="1.0" encoding="UTF-8" standalone="no"?>
<!DOCTYPE svg PUBLIC "-//W3C//DTD SVG 1.1//EN"
 "http://www.w3.org/Graphics/SVG/1.1/DTD/svg11.dtd">
<!-- Generated by graphviz version 2.43.0 (0)
 -->
<!-- Title: src/ds/champ_map.h Pages: 1 -->
<svg width="1118pt" height="302pt"
 viewBox="0.00 0.00 1118.00 302.00" xmlns="http://www.w3.org/2000/svg" xmlns:xlink="http://www.w3.org/1999/xlink">
<g id="graph0" class="graph" transform="scale(1 1) rotate(0) translate(4 298)">
<title>src/ds/champ_map.h</title>
<!-- Node1 -->
<g id="node1" class="node">
<title>Node1</title>
<g id="a_node1"><a xlink:title=" ">
<polygon fill="#999999" stroke="#666666" points="765.5,-294 648.5,-294 648.5,-275 765.5,-275 765.5,-294"/>
<text text-anchor="middle" x="707" y="-282" font-family="Helvetica,sans-Serif" font-size="10.00">src/ds/champ_map.h</text>
</a>
</g>
</g>
<!-- Node2 -->
<g id="node2" class="node">
<title>Node2</title>
<g id="a_node2"><a xlink:href="ccf__assert_8h.html" target="_top" xlink:title=" ">
<polygon fill="white" stroke="#666666" points="400,-184 308,-184 308,-165 400,-165 400,-184"/>
<text text-anchor="middle" x="354" y="-172" font-family="Helvetica,sans-Serif" font-size="10.00">ccf/ccf_assert.h</text>
</a>
</g>
</g>
<!-- Node1&#45;&gt;Node2 -->
<g id="edge1" class="edge">
<title>Node1&#45;&gt;Node2</title>
<path fill="none" stroke="#63b8ff" d="M648.19,-279.02C574.92,-272.68 454.55,-259.51 415,-239 394.1,-228.16 376.26,-207.38 365.37,-192.54"/>
<polygon fill="#63b8ff" stroke="#63b8ff" points="368.14,-190.38 359.53,-184.21 362.41,-194.41 368.14,-190.38"/>
</g>
<!-- Node15 -->
<g id="node15" class="node">
<title>Node15</title>
<g id="a_node15"><a xlink:title=" ">
<polygon fill="#e0e0e0" stroke="#999999" points="56,-74 0,-74 0,-55 56,-55 56,-74"/>
<text text-anchor="middle" x="28" y="-62" font-family="Helvetica,sans-Serif" font-size="10.00">optional</text>
</a>
</g>
</g>
<!-- Node1&#45;&gt;Node15 -->
<g id="edge41" class="edge">
<title>Node1&#45;&gt;Node15</title>
<path fill="none" stroke="#63b8ff" d="M648.42,-280.88C583.16,-276.71 475.1,-266.03 386,-239 251.67,-198.25 104.99,-112.85 50.23,-79.38"/>
<polygon fill="#63b8ff" stroke="#63b8ff" points="52.02,-76.37 41.67,-74.11 48.35,-82.33 52.02,-76.37"/>
</g>
<!-- Node18 -->
<g id="node18" class="node">
<title>Node18</title>
<g id="a_node18"><a xlink:href="include_2ccf_2ds_2hash_8h.html" target="_top" xlink:title=" ">
<polygon fill="white" stroke="#666666" points="863,-239 783,-239 783,-220 863,-220 863,-239"/>
<text text-anchor="middle" x="823" y="-227" font-family="Helvetica,sans-Serif" font-size="10.00">ccf/ds/hash.h</text>
</a>
</g>
</g>
<!-- Node1&#45;&gt;Node18 -->
<g id="edge19" class="edge">
<title>Node1&#45;&gt;Node18</title>
<path fill="none" stroke="#63b8ff" d="M725.64,-274.98C744.3,-266.46 773.25,-253.23 794.74,-243.41"/>
<polygon fill="#63b8ff" stroke="#63b8ff" points="796.38,-246.51 804.02,-239.17 793.47,-240.14 796.38,-246.51"/>
</g>
<!-- Node22 -->
<g id="node22" class="node">
<title>Node22</title>
<g id="a_node22"><a xlink:title=" ">
<polygon fill="#e0e0e0" stroke="#999999" points="799.5,-129 752.5,-129 752.5,-110 799.5,-110 799.5,-129"/>
<text text-anchor="middle" x="776" y="-117" font-family="Helvetica,sans-Serif" font-size="10.00">vector</text>
</a>
</g>
</g>
<!-- Node1&#45;&gt;Node22 -->
<g id="edge42" class="edge">
<title>Node1&#45;&gt;Node22</title>
<path fill="none" stroke="#63b8ff" d="M690.19,-274.88C654.66,-255.54 577.71,-207.08 610,-165 625.98,-144.17 698.44,-130.95 742.17,-124.72"/>
<polygon fill="#63b8ff" stroke="#63b8ff" points="742.93,-128.15 752.36,-123.32 741.97,-121.21 742.93,-128.15"/>
</g>
<!-- Node23 -->
<g id="node23" class="node">
<title>Node23</title>
<g id="a_node23"><a xlink:title=" ">
<polygon fill="#e0e0e0" stroke="#999999" points="1110,-184 1068,-184 1068,-165 1110,-165 1110,-184"/>
<text text-anchor="middle" x="1089" y="-172" font-family="Helvetica,sans-Serif" font-size="10.00">array</text>
</a>
</g>
</g>
<!-- Node1&#45;&gt;Node23 -->
<g id="edge39" class="edge">
<title>Node1&#45;&gt;Node23</title>
<path fill="none" stroke="#63b8ff" d="M747.38,-274.99C781.24,-267.3 830.54,-254.77 872,-239 889.65,-232.29 892.29,-226.54 910,-220 960.45,-201.38 1021.73,-188.04 1057.93,-181.06"/>
<polygon fill="#63b8ff" stroke="#63b8ff" points="1058.7,-184.48 1067.88,-179.19 1057.41,-177.6 1058.7,-184.48"/>
</g>
<!-- Node26 -->
<g id="node26" class="node">
<title>Node26</title>
<g id="a_node26"><a xlink:href="map__serializers_8h.html" target="_top" xlink:title=" ">
<polygon fill="white" stroke="#666666" points="541.5,-239 424.5,-239 424.5,-220 541.5,-220 541.5,-239"/>
<text text-anchor="middle" x="483" y="-227" font-family="Helvetica,sans-Serif" font-size="10.00">ds/map_serializers.h</text>
</a>
</g>
</g>
<!-- Node1&#45;&gt;Node26 -->
<g id="edge29" class="edge">
<title>Node1&#45;&gt;Node26</title>
<path fill="none" stroke="#63b8ff" d="M671.01,-274.98C632.51,-265.87 571.31,-251.4 529.26,-241.45"/>
<polygon fill="#63b8ff" stroke="#63b8ff" points="529.81,-237.98 519.27,-239.08 528.2,-244.79 529.81,-237.98"/>
</g>
<!-- Node32 -->
<g id="node32" class="node">
<title>Node32</title>
<g id="a_node32"><a xlink:title=" ">
<polygon fill="#e0e0e0" stroke="#999999" points="983,-239 919,-239 919,-220 983,-220 983,-239"/>
<text text-anchor="middle" x="951" y="-227" font-family="Helvetica,sans-Serif" font-size="10.00">algorithm</text>
</a>
</g>
</g>
<!-- Node1&#45;&gt;Node32 -->
<g id="edge38" class="edge">
<title>Node1&#45;&gt;Node32</title>
<path fill="none" stroke="#63b8ff" d="M746.2,-274.98C790.79,-265.3 863.31,-249.55 909.02,-239.62"/>
<polygon fill="#63b8ff" stroke="#63b8ff" points="909.88,-243.01 918.91,-237.47 908.39,-236.17 909.88,-243.01"/>
</g>
<!-- Node33 -->
<g id="node33" class="node">
<title>Node33</title>
<g id="a_node33"><a xlink:title=" ">
<polygon fill="#e0e0e0" stroke="#999999" points="1059,-239 1001,-239 1001,-220 1059,-220 1059,-239"/>
<text text-anchor="middle" x="1030" y="-227" font-family="Helvetica,sans-Serif" font-size="10.00">memory</text>
</a>
</g>
</g>
<!-- Node1&#45;&gt;Node33 -->
<g id="edge40" class="edge">
<title>Node1&#45;&gt;Node33</title>
<path fill="none" stroke="#63b8ff" d="M765.6,-275.49C821.15,-267.64 907.16,-254.82 991.04,-239.08"/>
<polygon fill="#63b8ff" stroke="#63b8ff" points="991.82,-242.49 1000.99,-237.19 990.52,-235.61 991.82,-242.49"/>
</g>
<!-- Node3 -->
<g id="node3" class="node">
<title>Node3</title>
<g id="a_node3"><a xlink:href="logger_8h.html" target="_top" xlink:title=" ">
<polygon fill="white" stroke="#666666" points="397.5,-129 310.5,-129 310.5,-110 397.5,-110 397.5,-129"/>
<text text-anchor="middle" x="354" y="-117" font-family="Helvetica,sans-Serif" font-size="10.00">ccf/ds/logger.h</text>
</a>
</g>
</g>
<!-- Node2&#45;&gt;Node3 -->
<g id="edge2" class="edge">
<title>Node2&#45;&gt;Node3</title>
<path fill="none" stroke="#63b8ff" d="M354,-164.75C354,-157.8 354,-147.85 354,-139.13"/>
<polygon fill="#63b8ff" stroke="#63b8ff" points="357.5,-139.09 354,-129.09 350.5,-139.09 357.5,-139.09"/>
</g>
<!-- Node4 -->
<g id="node4" class="node">
<title>Node4</title>
<g id="a_node4"><a xlink:href="enum__formatter_8h.html" target="_top" xlink:title=" ">
<polygon fill="white" stroke="#666666" points="675,-74 539,-74 539,-55 675,-55 675,-74"/>
<text text-anchor="middle" x="607" y="-62" font-family="Helvetica,sans-Serif" font-size="10.00">ccf/ds/enum_formatter.h</text>
</a>
</g>
</g>
<!-- Node3&#45;&gt;Node4 -->
<g id="edge3" class="edge">
<title>Node3&#45;&gt;Node4</title>
<path fill="none" stroke="#63b8ff" d="M394.65,-109.98C438.5,-100.8 508.42,-86.15 555.95,-76.19"/>
<polygon fill="#63b8ff" stroke="#63b8ff" points="556.96,-79.56 566.03,-74.08 555.53,-72.71 556.96,-79.56"/>
</g>
<!-- Node5 -->
<g id="node5" class="node">
<title>Node5</title>
<g id="a_node5"><a xlink:title=" ">
<polygon fill="#e0e0e0" stroke="#999999" points="646.5,-19 567.5,-19 567.5,0 646.5,0 646.5,-19"/>
<text text-anchor="middle" x="607" y="-7" font-family="Helvetica,sans-Serif" font-size="10.00">fmt/format.h</text>
</a>
</g>
</g>
<!-- Node3&#45;&gt;Node5 -->
<g id="edge13" class="edge">
<title>Node3&#45;&gt;Node5</title>
<path fill="none" stroke="#63b8ff" d="M397.66,-111.39C400.82,-110.91 403.96,-110.44 407,-110 468.43,-101.08 643.03,-120.64 684,-74 701.7,-53.85 669.86,-34.86 641.91,-22.99"/>
<polygon fill="#63b8ff" stroke="#63b8ff" points="642.86,-19.59 632.27,-19.09 640.23,-26.09 642.86,-19.59"/>
</g>
<!-- Node6 -->
<g id="node6" class="node">
<title>Node6</title>
<g id="a_node6"><a xlink:href="thread__ids_8h.html" target="_top" xlink:title=" ">
<polygon fill="white" stroke="#666666" points="854,-74 746,-74 746,-55 854,-55 854,-74"/>
<text text-anchor="middle" x="800" y="-62" font-family="Helvetica,sans-Serif" font-size="10.00">ccf/ds/thread_ids.h</text>
</a>
</g>
</g>
<!-- Node3&#45;&gt;Node6 -->
<g id="edge5" class="edge">
<title>Node3&#45;&gt;Node6</title>
<path fill="none" stroke="#63b8ff" d="M397.65,-111.34C400.81,-110.87 403.95,-110.42 407,-110 468.87,-101.54 641.19,-82.64 735.79,-72.4"/>
<polygon fill="#63b8ff" stroke="#63b8ff" points="736.25,-75.88 745.81,-71.32 735.5,-68.92 736.25,-75.88"/>
</g>
<!-- Node12 -->
<g id="node12" class="node">
<title>Node12</title>
<g id="a_node12"><a xlink:title=" ">
<polygon fill="#e0e0e0" stroke="#999999" points="153.5,-74 74.5,-74 74.5,-55 153.5,-55 153.5,-74"/>
<text text-anchor="middle" x="114" y="-62" font-family="Helvetica,sans-Serif" font-size="10.00">fmt/chrono.h</text>
</a>
</g>
</g>
<!-- Node3&#45;&gt;Node12 -->
<g id="edge12" class="edge">
<title>Node3&#45;&gt;Node12</title>
<path fill="none" stroke="#63b8ff" d="M315.44,-109.98C273.93,-100.82 207.79,-86.21 162.71,-76.26"/>
<polygon fill="#63b8ff" stroke="#63b8ff" points="163.38,-72.82 152.86,-74.08 161.87,-79.66 163.38,-72.82"/>
</g>
<!-- Node13 -->
<g id="node13" class="node">
<title>Node13</title>
<g id="a_node13"><a xlink:title=" ">
<polygon fill="#e0e0e0" stroke="#999999" points="231,-74 171,-74 171,-55 231,-55 231,-74"/>
<text text-anchor="middle" x="201" y="-62" font-family="Helvetica,sans-Serif" font-size="10.00">iostream</text>
</a>
</g>
</g>
<!-- Node3&#45;&gt;Node13 -->
<g id="edge14" class="edge">
<title>Node3&#45;&gt;Node13</title>
<path fill="none" stroke="#63b8ff" d="M329.42,-109.98C303.95,-101.16 263.96,-87.31 235.37,-77.41"/>
<polygon fill="#63b8ff" stroke="#63b8ff" points="236.37,-74.05 225.77,-74.08 234.08,-80.66 236.37,-74.05"/>
</g>
<!-- Node14 -->
<g id="node14" class="node">
<title>Node14</title>
<g id="a_node14"><a xlink:title=" ">
<polygon fill="#e0e0e0" stroke="#999999" points="359,-74 249,-74 249,-55 359,-55 359,-74"/>
<text text-anchor="middle" x="304" y="-62" font-family="Helvetica,sans-Serif" font-size="10.00">nlohmann/json.hpp</text>
</a>
</g>
</g>
<!-- Node3&#45;&gt;Node14 -->
<g id="edge15" class="edge">
<title>Node3&#45;&gt;Node14</title>
<path fill="none" stroke="#63b8ff" d="M345.74,-109.75C338.54,-102.11 327.89,-90.82 319.15,-81.56"/>
<polygon fill="#63b8ff" stroke="#63b8ff" points="321.51,-78.96 312.1,-74.09 316.42,-83.76 321.51,-78.96"/>
</g>
<!-- Node3&#45;&gt;Node15 -->
<g id="edge16" class="edge">
<title>Node3&#45;&gt;Node15</title>
<path fill="none" stroke="#63b8ff" d="M310.25,-112.78C255.49,-105.39 158.62,-91.59 66.31,-74.13"/>
<polygon fill="#63b8ff" stroke="#63b8ff" points="66.72,-70.65 56.24,-72.21 65.4,-77.52 66.72,-70.65"/>
</g>
<!-- Node16 -->
<g id="node16" class="node">
<title>Node16</title>
<g id="a_node16"><a xlink:title=" ">
<polygon fill="#e0e0e0" stroke="#999999" points="433,-74 377,-74 377,-55 433,-55 433,-74"/>
<text text-anchor="middle" x="405" y="-62" font-family="Helvetica,sans-Serif" font-size="10.00">sstream</text>
</a>
</g>
</g>
<!-- Node3&#45;&gt;Node16 -->
<g id="edge17" class="edge">
<title>Node3&#45;&gt;Node16</title>
<path fill="none" stroke="#63b8ff" d="M362.42,-109.75C369.77,-102.11 380.63,-90.82 389.54,-81.56"/>
<polygon fill="#63b8ff" stroke="#63b8ff" points="392.32,-83.72 396.74,-74.09 387.28,-78.87 392.32,-83.72"/>
</g>
<!-- Node17 -->
<g id="node17" class="node">
<title>Node17</title>
<g id="a_node17"><a xlink:title=" ">
<polygon fill="#e0e0e0" stroke="#999999" points="520.5,-74 451.5,-74 451.5,-55 520.5,-55 520.5,-74"/>
<text text-anchor="middle" x="486" y="-62" font-family="Helvetica,sans-Serif" font-size="10.00">type_traits</text>
</a>
</g>
</g>
<!-- Node3&#45;&gt;Node17 -->
<g id="edge18" class="edge">
<title>Node3&#45;&gt;Node17</title>
<path fill="none" stroke="#63b8ff" d="M375.21,-109.98C396.73,-101.34 430.28,-87.87 454.83,-78.02"/>
<polygon fill="#63b8ff" stroke="#63b8ff" points="456.43,-81.14 464.41,-74.17 453.82,-74.65 456.43,-81.14"/>
</g>
<!-- Node4&#45;&gt;Node5 -->
<g id="edge4" class="edge">
<title>Node4&#45;&gt;Node5</title>
<path fill="none" stroke="#63b8ff" d="M607,-54.75C607,-47.8 607,-37.85 607,-29.13"/>
<polygon fill="#63b8ff" stroke="#63b8ff" points="610.5,-29.09 607,-19.09 603.5,-29.09 610.5,-29.09"/>
</g>
<!-- Node6&#45;&gt;Node5 -->
<g id="edge6" class="edge">
<title>Node6&#45;&gt;Node5</title>
<path fill="none" stroke="#63b8ff" d="M768.99,-54.98C736.17,-45.97 684.2,-31.7 648.01,-21.76"/>
<polygon fill="#63b8ff" stroke="#63b8ff" points="648.82,-18.36 638.25,-19.08 646.97,-25.11 648.82,-18.36"/>
</g>
<!-- Node7 -->
<g id="node7" class="node">
<title>Node7</title>
<g id="a_node7"><a xlink:title=" ">
<polygon fill="#e0e0e0" stroke="#999999" points="751,-19 665,-19 665,0 751,0 751,-19"/>
<text text-anchor="middle" x="708" y="-7" font-family="Helvetica,sans-Serif" font-size="10.00">fmt/ostream.h</text>
</a>
</g>
</g>
<!-- Node6&#45;&gt;Node7 -->
<g id="edge7" class="edge">
<title>Node6&#45;&gt;Node7</title>
<path fill="none" stroke="#63b8ff" d="M785.22,-54.98C770.82,-46.69 748.69,-33.94 731.81,-24.22"/>
<polygon fill="#63b8ff" stroke="#63b8ff" points="733.46,-21.13 723.05,-19.17 729.97,-27.19 733.46,-21.13"/>
</g>
<!-- Node8 -->
<g id="node8" class="node">
<title>Node8</title>
<g id="a_node8"><a xlink:title=" ">
<polygon fill="#e0e0e0" stroke="#999999" points="830.5,-19 769.5,-19 769.5,0 830.5,0 830.5,-19"/>
<text text-anchor="middle" x="800" y="-7" font-family="Helvetica,sans-Serif" font-size="10.00">fmt/std.h</text>
</a>
</g>
</g>
<!-- Node6&#45;&gt;Node8 -->
<g id="edge8" class="edge">
<title>Node6&#45;&gt;Node8</title>
<path fill="none" stroke="#63b8ff" d="M800,-54.75C800,-47.8 800,-37.85 800,-29.13"/>
<polygon fill="#63b8ff" stroke="#63b8ff" points="803.5,-29.09 800,-19.09 796.5,-29.09 803.5,-29.09"/>
</g>
<!-- Node9 -->
<g id="node9" class="node">
<title>Node9</title>
<g id="a_node9"><a xlink:title=" ">
<polygon fill="#e0e0e0" stroke="#999999" points="893,-19 849,-19 849,0 893,0 893,-19"/>
<text text-anchor="middle" x="871" y="-7" font-family="Helvetica,sans-Serif" font-size="10.00">limits</text>
</a>
</g>
</g>
<!-- Node6&#45;&gt;Node9 -->
<g id="edge9" class="edge">
<title>Node6&#45;&gt;Node9</title>
<path fill="none" stroke="#63b8ff" d="M811.41,-54.98C822.11,-47 838.34,-34.88 851.16,-25.31"/>
<polygon fill="#63b8ff" stroke="#63b8ff" points="853.47,-27.96 859.39,-19.17 849.28,-22.35 853.47,-27.96"/>
</g>
<!-- Node10 -->
<g id="node10" class="node">
<title>Node10</title>
<g id="a_node10"><a xlink:title=" ">
<polygon fill="#e0e0e0" stroke="#999999" points="949,-19 911,-19 911,0 949,0 949,-19"/>
<text text-anchor="middle" x="930" y="-7" font-family="Helvetica,sans-Serif" font-size="10.00">map</text>
</a>
</g>
</g>
<!-- Node6&#45;&gt;Node10 -->
<g id="edge10" class="edge">
<title>Node6&#45;&gt;Node10</title>
<path fill="none" stroke="#63b8ff" d="M820.89,-54.98C842.71,-46.09 877.1,-32.07 901.44,-22.15"/>
<polygon fill="#63b8ff" stroke="#63b8ff" points="902.92,-25.32 910.86,-18.3 900.28,-18.84 902.92,-25.32"/>
</g>
<!-- Node11 -->
<g id="node11" class="node">
<title>Node11</title>
<g id="a_node11"><a xlink:title=" ">
<polygon fill="#e0e0e0" stroke="#999999" points="1015,-19 967,-19 967,0 1015,0 1015,-19"/>
<text text-anchor="middle" x="991" y="-7" font-family="Helvetica,sans-Serif" font-size="10.00">thread</text>
</a>
</g>
</g>
<!-- Node6&#45;&gt;Node11 -->
<g id="edge11" class="edge">
<title>Node6&#45;&gt;Node11</title>
<path fill="none" stroke="#63b8ff" d="M830.69,-54.98C865.14,-45.42 920.91,-29.95 956.76,-20"/>
<polygon fill="#63b8ff" stroke="#63b8ff" points="958.05,-23.28 966.75,-17.23 956.18,-16.53 958.05,-23.28"/>
</g>
<!-- Node19 -->
<g id="node19" class="node">
<title>Node19</title>
<g id="a_node19"><a xlink:href="siphash_8h.html" target="_top" xlink:title=" ">
<polygon fill="white" stroke="#666666" points="1011.5,-184 916.5,-184 916.5,-165 1011.5,-165 1011.5,-184"/>
<text text-anchor="middle" x="964" y="-172" font-family="Helvetica,sans-Serif" font-size="10.00">ccf/ds/siphash.h</text>
</a>
</g>
</g>
<!-- Node18&#45;&gt;Node19 -->
<g id="edge20" class="edge">
<title>Node18&#45;&gt;Node19</title>
<path fill="none" stroke="#63b8ff" d="M845.65,-219.98C868.85,-211.27 905.12,-197.63 931.4,-187.75"/>
<polygon fill="#63b8ff" stroke="#63b8ff" points="932.8,-190.97 940.93,-184.17 930.34,-184.41 932.8,-190.97"/>
</g>
<!-- Node21 -->
<g id="node21" class="node">
<title>Node21</title>
<g id="a_node21"><a xlink:title=" ">
<polygon fill="#e0e0e0" stroke="#999999" points="954,-129 904,-129 904,-110 954,-110 954,-129"/>
<text text-anchor="middle" x="929" y="-117" font-family="Helvetica,sans-Serif" font-size="10.00">cstdint</text>
</a>
</g>
</g>
<!-- Node18&#45;&gt;Node21 -->
<g id="edge25" class="edge">
<title>Node18&#45;&gt;Node21</title>
<path fill="none" stroke="#63b8ff" d="M863.29,-222.19C918.27,-213.16 1011.15,-196.31 1021,-184 1040.87,-159.17 997.63,-140.12 963.92,-129.61"/>
<polygon fill="#63b8ff" stroke="#63b8ff" points="964.86,-126.24 954.28,-126.75 962.87,-132.95 964.86,-126.24"/>
</g>
<!-- Node18&#45;&gt;Node22 -->
<g id="edge28" class="edge">
<title>Node18&#45;&gt;Node22</title>
<path fill="none" stroke="#63b8ff" d="M836.84,-219.88C854.33,-207.86 880.71,-185.26 868,-165 855.2,-144.59 830.1,-133.31 809.34,-127.22"/>
<polygon fill="#63b8ff" stroke="#63b8ff" points="810.14,-123.81 799.58,-124.63 808.34,-130.58 810.14,-123.81"/>
</g>
<!-- Node18&#45;&gt;Node23 -->
<g id="edge24" class="edge">
<title>Node18&#45;&gt;Node23</title>
<path fill="none" stroke="#63b8ff" d="M863.18,-221.36C909.36,-213.02 987.35,-198.5 1054,-184 1055.27,-183.72 1056.57,-183.44 1057.88,-183.14"/>
<polygon fill="#63b8ff" stroke="#63b8ff" points="1059,-186.47 1067.94,-180.79 1057.4,-179.66 1059,-186.47"/>
</g>
<!-- Node24 -->
<g id="node24" class="node">
<title>Node24</title>
<g id="a_node24"><a xlink:title=" ">
<polygon fill="#e0e0e0" stroke="#999999" points="768.5,-184 619.5,-184 619.5,-165 768.5,-165 768.5,-184"/>
<text text-anchor="middle" x="694" y="-172" font-family="Helvetica,sans-Serif" font-size="10.00">small_vector/SmallVector.h</text>
</a>
</g>
</g>
<!-- Node18&#45;&gt;Node24 -->
<g id="edge26" class="edge">
<title>Node18&#45;&gt;Node24</title>
<path fill="none" stroke="#63b8ff" d="M802.27,-219.98C781.24,-211.34 748.45,-197.87 724.46,-188.02"/>
<polygon fill="#63b8ff" stroke="#63b8ff" points="725.68,-184.73 715.1,-184.17 723.02,-191.21 725.68,-184.73"/>
</g>
<!-- Node25 -->
<g id="node25" class="node">
<title>Node25</title>
<g id="a_node25"><a xlink:title=" ">
<polygon fill="#e0e0e0" stroke="#999999" points="859.5,-184 786.5,-184 786.5,-165 859.5,-165 859.5,-184"/>
<text text-anchor="middle" x="823" y="-172" font-family="Helvetica,sans-Serif" font-size="10.00">string_view</text>
</a>
</g>
</g>
<!-- Node18&#45;&gt;Node25 -->
<g id="edge27" class="edge">
<title>Node18&#45;&gt;Node25</title>
<path fill="none" stroke="#63b8ff" d="M823,-219.75C823,-212.8 823,-202.85 823,-194.13"/>
<polygon fill="#63b8ff" stroke="#63b8ff" points="826.5,-194.09 823,-184.09 819.5,-194.09 826.5,-194.09"/>
</g>
<!-- Node20 -->
<g id="node20" class="node">
<title>Node20</title>
<g id="a_node20"><a xlink:title=" ">
<polygon fill="#e0e0e0" stroke="#999999" points="1025.5,-129 972.5,-129 972.5,-110 1025.5,-110 1025.5,-129"/>
<text text-anchor="middle" x="999" y="-117" font-family="Helvetica,sans-Serif" font-size="10.00">cstddef</text>
</a>
</g>
</g>
<!-- Node19&#45;&gt;Node20 -->
<g id="edge21" class="edge">
<title>Node19&#45;&gt;Node20</title>
<path fill="none" stroke="#63b8ff" d="M969.78,-164.75C974.62,-157.42 981.68,-146.73 987.64,-137.7"/>
<polygon fill="#63b8ff" stroke="#63b8ff" points="990.74,-139.36 993.33,-129.09 984.9,-135.5 990.74,-139.36"/>
</g>
<!-- Node19&#45;&gt;Node21 -->
<g id="edge22" class="edge">
<title>Node19&#45;&gt;Node21</title>
<path fill="none" stroke="#63b8ff" d="M958.22,-164.75C953.38,-157.42 946.32,-146.73 940.36,-137.7"/>
<polygon fill="#63b8ff" stroke="#63b8ff" points="943.1,-135.5 934.67,-129.09 937.26,-139.36 943.1,-135.5"/>
</g>
<!-- Node19&#45;&gt;Node22 -->
<g id="edge23" class="edge">
<title>Node19&#45;&gt;Node22</title>
<path fill="none" stroke="#63b8ff" d="M933.79,-164.98C899.79,-155.4 844.68,-139.86 809.41,-129.92"/>
<polygon fill="#63b8ff" stroke="#63b8ff" points="810.16,-126.49 799.58,-127.15 808.26,-133.23 810.16,-126.49"/>
</g>
<!-- Node26&#45;&gt;Node2 -->
<g id="edge30" class="edge">
<title>Node26&#45;&gt;Node2</title>
<path fill="none" stroke="#63b8ff" d="M462.27,-219.98C441.24,-211.34 408.45,-197.87 384.46,-188.02"/>
<polygon fill="#63b8ff" stroke="#63b8ff" points="385.68,-184.73 375.1,-184.17 383.02,-191.21 385.68,-184.73"/>
</g>
<!-- Node27 -->
<g id="node27" class="node">
<title>Node27</title>
<g id="a_node27"><a xlink:href="serialized_8h.html" target="_top" xlink:title=" ">
<polygon fill="white" stroke="#666666" points="505.5,-184 418.5,-184 418.5,-165 505.5,-165 505.5,-184"/>
<text text-anchor="middle" x="462" y="-172" font-family="Helvetica,sans-Serif" font-size="10.00">ds/serialized.h</text>
</a>
</g>
</g>
<!-- Node26&#45;&gt;Node27 -->
<g id="edge31" class="edge">
<title>Node26&#45;&gt;Node27</title>
<path fill="none" stroke="#63b8ff" d="M479.53,-219.75C476.72,-212.65 472.66,-202.4 469.15,-193.56"/>
<polygon fill="#63b8ff" stroke="#63b8ff" points="472.34,-192.1 465.4,-184.09 465.83,-194.68 472.34,-192.1"/>
</g>
<!-- Node31 -->
<g id="node31" class="node">
<title>Node31</title>
<g id="a_node31"><a xlink:title=" ">
<polygon fill="#e0e0e0" stroke="#999999" points="564,-184 524,-184 524,-165 564,-165 564,-184"/>
<text text-anchor="middle" x="544" y="-172" font-family="Helvetica,sans-Serif" font-size="10.00">span</text>
</a>
</g>
</g>
<!-- Node26&#45;&gt;Node31 -->
<g id="edge37" class="edge">
<title>Node26&#45;&gt;Node31</title>
<path fill="none" stroke="#63b8ff" d="M492.8,-219.98C501.82,-212.15 515.41,-200.34 526.32,-190.86"/>
<polygon fill="#63b8ff" stroke="#63b8ff" points="528.77,-193.37 534.02,-184.17 524.18,-188.09 528.77,-193.37"/>
</g>
<!-- Node27&#45;&gt;Node21 -->
<g id="edge32" class="edge">
<title>Node27&#45;&gt;Node21</title>
<path fill="none" stroke="#63b8ff" d="M505.65,-166.32C508.81,-165.85 511.95,-165.41 515,-165 654.71,-146.3 821.78,-130.27 893.47,-123.69"/>
<polygon fill="#63b8ff" stroke="#63b8ff" points="894.1,-127.15 903.74,-122.75 893.47,-120.18 894.1,-127.15"/>
</g>
<!-- Node27&#45;&gt;Node22 -->
<g id="edge36" class="edge">
<title>Node27&#45;&gt;Node22</title>
<path fill="none" stroke="#63b8ff" d="M505.66,-166.13C568.96,-155.45 684.88,-135.88 742.15,-126.21"/>
<polygon fill="#63b8ff" stroke="#63b8ff" points="742.86,-129.64 752.13,-124.53 741.69,-122.74 742.86,-129.64"/>
</g>
<!-- Node28 -->
<g id="node28" class="node">
<title>Node28</title>
<g id="a_node28"><a xlink:title=" ">
<polygon fill="#e0e0e0" stroke="#999999" points="466,-129 416,-129 416,-110 466,-110 466,-129"/>
<text text-anchor="middle" x="441" y="-117" font-family="Helvetica,sans-Serif" font-size="10.00">cstring</text>
</a>
</g>
</g>
<!-- Node27&#45;&gt;Node28 -->
<g id="edge33" class="edge">
<title>Node27&#45;&gt;Node28</title>
<path fill="none" stroke="#63b8ff" d="M458.53,-164.75C455.72,-157.65 451.66,-147.4 448.15,-138.56"/>
<polygon fill="#63b8ff" stroke="#63b8ff" points="451.34,-137.1 444.4,-129.09 444.83,-139.68 451.34,-137.1"/>
</g>
<!-- Node29 -->
<g id="node29" class="node">
<title>Node29</title>
<g id="a_node29"><a xlink:title=" ">
<polygon fill="#e0e0e0" stroke="#999999" points="549.5,-129 484.5,-129 484.5,-110 549.5,-110 549.5,-129"/>
<text text-anchor="middle" x="517" y="-117" font-family="Helvetica,sans-Serif" font-size="10.00">stdexcept</text>
</a>
</g>
</g>
<!-- Node27&#45;&gt;Node29 -->
<g id="edge34" class="edge">
<title>Node27&#45;&gt;Node29</title>
<path fill="none" stroke="#63b8ff" d="M471.08,-164.75C479.09,-157.03 490.96,-145.6 500.62,-136.28"/>
<polygon fill="#63b8ff" stroke="#63b8ff" points="503.31,-138.55 508.09,-129.09 498.46,-133.51 503.31,-138.55"/>
</g>
<!-- Node30 -->
<g id="node30" class="node">
<title>Node30</title>
<g id="a_node30"><a xlink:title=" ">
<polygon fill="#e0e0e0" stroke="#999999" points="612,-129 568,-129 568,-110 612,-110 612,-129"/>
<text text-anchor="middle" x="590" y="-117" font-family="Helvetica,sans-Serif" font-size="10.00">string</text>
</a>
</g>
</g>
<!-- Node27&#45;&gt;Node30 -->
<g id="edge35" class="edge">
<title>Node27&#45;&gt;Node30</title>
<path fill="none" stroke="#63b8ff" d="M482.57,-164.98C503.43,-156.34 535.97,-142.87 559.77,-133.02"/>
<polygon fill="#63b8ff" stroke="#63b8ff" points="561.16,-136.23 569.06,-129.17 558.48,-129.76 561.16,-136.23"/>
</g>
</g>
</svg>
