<?xml version="1.0" encoding="UTF-8" standalone="no"?>
<!DOCTYPE svg PUBLIC "-//W3C//DTD SVG 1.1//EN"
 "http://www.w3.org/Graphics/SVG/1.1/DTD/svg11.dtd">
<!-- Generated by graphviz version 2.43.0 (0)
 -->
<!-- Title: ccf::RpcContextImpl Pages: 1 -->
<svg width="828pt" height="200pt"
 viewBox="0.00 0.00 828.00 199.50" xmlns="http://www.w3.org/2000/svg" xmlns:xlink="http://www.w3.org/1999/xlink">
<g id="graph0" class="graph" transform="scale(1 1) rotate(0) translate(4 195.5)">
<title>ccf::RpcContextImpl</title>
<!-- Node1 -->
<g id="node1" class="node">
<title>Node1</title>
<g id="a_node1"><a xlink:title=" ">
<polygon fill="#999999" stroke="#666666" points="820,-105.5 706,-105.5 706,-86.5 820,-86.5 820,-105.5"/>
<text text-anchor="middle" x="763" y="-93.5" font-family="Helvetica,sans-Serif" font-size="10.00">ccf::RpcContextImpl</text>
</a>
</g>
</g>
<!-- Node2 -->
<g id="node2" class="node">
<title>Node2</title>
<g id="a_node2"><a xlink:href="classccf_1_1RpcContext.html" target="_top" xlink:title="Describes the currently executing RPC.">
<polygon fill="white" stroke="#666666" points="530.5,-191.5 438.5,-191.5 438.5,-172.5 530.5,-172.5 530.5,-191.5"/>
<text text-anchor="middle" x="484.5" y="-179.5" font-family="Helvetica,sans-Serif" font-size="10.00">ccf::RpcContext</text>
</a>
</g>
</g>
<!-- Node2&#45;&gt;Node1 -->
<g id="edge1" class="edge">
<title>Node2&#45;&gt;Node1</title>
<path fill="none" stroke="#63b8ff" d="M540.6,-176.56C582.2,-171.17 640.11,-160.88 688,-142 711.36,-132.79 735.54,-116.18 749.65,-105.64"/>
<polygon fill="#63b8ff" stroke="#63b8ff" points="540.15,-173.09 530.65,-177.8 541.01,-180.04 540.15,-173.09"/>
</g>
<!-- Node3 -->
<g id="node3" class="node">
<title>Node3</title>
<g id="a_node3"><a xlink:title=" ">
<polygon fill="white" stroke="#666666" points="542,-154 427,-154 427,-124 542,-124 542,-154"/>
<text text-anchor="start" x="435" y="-142" font-family="Helvetica,sans-Serif" font-size="10.00">std::shared_ptr&lt; ccf</text>
<text text-anchor="middle" x="484.5" y="-131" font-family="Helvetica,sans-Serif" font-size="10.00">::SessionContext &gt;</text>
</a>
</g>
</g>
<!-- Node3&#45;&gt;Node1 -->
<g id="edge2" class="edge">
<title>Node3&#45;&gt;Node1</title>
<path fill="none" stroke="#9a32cd" stroke-dasharray="5,2" d="M552.43,-130.81C591.97,-125.71 642.94,-118.67 688,-111 697.43,-109.39 707.5,-107.48 717.08,-105.57"/>
<polygon fill="#9a32cd" stroke="#9a32cd" points="551.86,-127.36 542.38,-132.1 552.75,-134.3 551.86,-127.36"/>
<text text-anchor="middle" x="631" y="-130" font-family="Helvetica,sans-Serif" font-size="10.00"> session</text>
</g>
<!-- Node4 -->
<g id="node4" class="node">
<title>Node4</title>
<g id="a_node4"><a xlink:href="structccf_1_1SessionContext.html" target="_top" xlink:title=" ">
<polygon fill="white" stroke="#666666" points="328,-148.5 216,-148.5 216,-129.5 328,-129.5 328,-148.5"/>
<text text-anchor="middle" x="272" y="-136.5" font-family="Helvetica,sans-Serif" font-size="10.00">ccf::SessionContext</text>
</a>
</g>
</g>
<!-- Node4&#45;&gt;Node3 -->
<g id="edge3" class="edge">
<title>Node4&#45;&gt;Node3</title>
<path fill="none" stroke="#9a32cd" stroke-dasharray="5,2" d="M338.27,-139C366.66,-139 399.62,-139 426.96,-139"/>
<polygon fill="#9a32cd" stroke="#9a32cd" points="338.03,-135.5 328.03,-139 338.03,-142.5 338.03,-135.5"/>
<text text-anchor="middle" x="370.5" y="-142" font-family="Helvetica,sans-Serif" font-size="10.00"> ptr</text>
</g>
<!-- Node5 -->
<g id="node5" class="node">
<title>Node5</title>
<g id="a_node5"><a xlink:title=" ">
<polygon fill="white" stroke="#666666" points="125,-148.5 0,-148.5 0,-129.5 125,-129.5 125,-148.5"/>
<text text-anchor="middle" x="62.5" y="-136.5" font-family="Helvetica,sans-Serif" font-size="10.00">std::vector&lt; uint8_t &gt;</text>
</a>
</g>
</g>
<!-- Node5&#45;&gt;Node4 -->
<g id="edge4" class="edge">
<title>Node5&#45;&gt;Node4</title>
<path fill="none" stroke="#9a32cd" stroke-dasharray="5,2" d="M135.51,-139C161.87,-139 191.25,-139 215.9,-139"/>
<polygon fill="#9a32cd" stroke="#9a32cd" points="135.2,-135.5 125.2,-139 135.2,-142.5 135.2,-135.5"/>
<text text-anchor="middle" x="170.5" y="-142" font-family="Helvetica,sans-Serif" font-size="10.00"> caller_cert</text>
</g>
<!-- Node6 -->
<g id="node6" class="node">
<title>Node6</title>
<g id="a_node6"><a xlink:title=" ">
<polygon fill="white" stroke="#666666" points="551,-105.5 418,-105.5 418,-86.5 551,-86.5 551,-105.5"/>
<text text-anchor="middle" x="484.5" y="-93.5" font-family="Helvetica,sans-Serif" font-size="10.00">std::shared_ptr&lt; void &gt;</text>
</a>
</g>
</g>
<!-- Node6&#45;&gt;Node1 -->
<g id="edge5" class="edge">
<title>Node6&#45;&gt;Node1</title>
<path fill="none" stroke="#9a32cd" stroke-dasharray="5,2" d="M561.19,-96C606.89,-96 664.15,-96 705.82,-96"/>
<polygon fill="#9a32cd" stroke="#9a32cd" points="561.03,-92.5 551.03,-96 561.03,-99.5 561.03,-92.5"/>
<text text-anchor="middle" x="631" y="-99" font-family="Helvetica,sans-Serif" font-size="10.00"> user_data</text>
</g>
<!-- Node7 -->
<g id="node7" class="node">
<title>Node7</title>
<g id="a_node7"><a xlink:href="classccf_1_1ClaimsDigest.html" target="_top" xlink:title=" ">
<polygon fill="white" stroke="#666666" points="535,-68.5 434,-68.5 434,-49.5 535,-49.5 535,-68.5"/>
<text text-anchor="middle" x="484.5" y="-56.5" font-family="Helvetica,sans-Serif" font-size="10.00">ccf::ClaimsDigest</text>
</a>
</g>
</g>
<!-- Node7&#45;&gt;Node1 -->
<g id="edge6" class="edge">
<title>Node7&#45;&gt;Node1</title>
<path fill="none" stroke="#9a32cd" stroke-dasharray="5,2" d="M545.15,-64.03C585.58,-67.79 640.16,-73.57 688,-81 697.84,-82.53 708.37,-84.47 718.29,-86.45"/>
<polygon fill="#9a32cd" stroke="#9a32cd" points="545.46,-60.54 535.18,-63.12 544.82,-67.51 545.46,-60.54"/>
<text text-anchor="middle" x="631" y="-84" font-family="Helvetica,sans-Serif" font-size="10.00"> claims</text>
</g>
<!-- Node8 -->
<g id="node8" class="node">
<title>Node8</title>
<g id="a_node8"><a xlink:title=" ">
<polygon fill="white" stroke="#666666" points="556,-30 413,-30 413,0 556,0 556,-30"/>
<text text-anchor="start" x="421" y="-18" font-family="Helvetica,sans-Serif" font-size="10.00">std::map&lt; std::string,</text>
<text text-anchor="middle" x="484.5" y="-7" font-family="Helvetica,sans-Serif" font-size="10.00"> std::string, std::less&lt;&gt; &gt;</text>
</a>
</g>
</g>
<!-- Node8&#45;&gt;Node1 -->
<g id="edge7" class="edge">
<title>Node8&#45;&gt;Node1</title>
<path fill="none" stroke="#9a32cd" stroke-dasharray="5,2" d="M566.16,-15.98C604.26,-18.77 649.68,-25.54 688,-41 714.13,-51.54 739.31,-73.58 752.49,-86.33"/>
<polygon fill="#9a32cd" stroke="#9a32cd" points="566.34,-12.48 556.14,-15.32 565.89,-19.47 566.34,-12.48"/>
<text text-anchor="middle" x="631" y="-55" font-family="Helvetica,sans-Serif" font-size="10.00"> decoded_path_params</text>
<text text-anchor="middle" x="631" y="-44" font-family="Helvetica,sans-Serif" font-size="10.00">path_params</text>
</g>
<!-- Node9 -->
<g id="node9" class="node">
<title>Node9</title>
<g id="a_node9"><a xlink:title=" ">
<polygon fill="white" stroke="#666666" points="304.5,-24.5 239.5,-24.5 239.5,-5.5 304.5,-5.5 304.5,-24.5"/>
<text text-anchor="middle" x="272" y="-12.5" font-family="Helvetica,sans-Serif" font-size="10.00">std::string</text>
</a>
</g>
</g>
<!-- Node9&#45;&gt;Node8 -->
<g id="edge8" class="edge">
<title>Node9&#45;&gt;Node8</title>
<path fill="none" stroke="#9a32cd" stroke-dasharray="5,2" d="M314.75,-15C342.76,-15 380.35,-15 412.94,-15"/>
<polygon fill="#9a32cd" stroke="#9a32cd" points="314.51,-11.5 304.51,-15 314.51,-18.5 314.51,-11.5"/>
<text text-anchor="middle" x="370.5" y="-29" font-family="Helvetica,sans-Serif" font-size="10.00"> elements</text>
<text text-anchor="middle" x="370.5" y="-18" font-family="Helvetica,sans-Serif" font-size="10.00">keys</text>
</g>
<!-- Node10 -->
<g id="node10" class="node">
<title>Node10</title>
<g id="a_node10"><a xlink:title=" ">
<polygon fill="white" stroke="#666666" points="114.5,-30 10.5,-30 10.5,0 114.5,0 114.5,-30"/>
<text text-anchor="start" x="18.5" y="-18" font-family="Helvetica,sans-Serif" font-size="10.00">std::basic_string&lt;</text>
<text text-anchor="middle" x="62.5" y="-7" font-family="Helvetica,sans-Serif" font-size="10.00"> Char &gt;</text>
</a>
</g>
</g>
<!-- Node10&#45;&gt;Node9 -->
<g id="edge9" class="edge">
<title>Node10&#45;&gt;Node9</title>
<path fill="none" stroke="#63b8ff" d="M124.86,-15C162.41,-15 208.91,-15 239.24,-15"/>
<polygon fill="#63b8ff" stroke="#63b8ff" points="124.53,-11.5 114.53,-15 124.53,-18.5 124.53,-11.5"/>
</g>
</g>
</svg>
