<?xml version="1.0" encoding="UTF-8" standalone="no"?>
<!DOCTYPE svg PUBLIC "-//W3C//DTD SVG 1.1//EN"
 "http://www.w3.org/Graphics/SVG/1.1/DTD/svg11.dtd">
<!-- Generated by graphviz version 2.43.0 (0)
 -->
<!-- Title: tls::Server Pages: 1 -->
<svg width="777pt" height="108pt"
 viewBox="0.00 0.00 777.00 108.00" xmlns="http://www.w3.org/2000/svg" xmlns:xlink="http://www.w3.org/1999/xlink">
<g id="graph0" class="graph" transform="scale(1 1) rotate(0) translate(4 104)">
<title>tls::Server</title>
<!-- Node1 -->
<g id="node1" class="node">
<title>Node1</title>
<g id="a_node1"><a xlink:title=" ">
<polygon fill="#999999" stroke="#666666" points="769,-63 703,-63 703,-44 769,-44 769,-63"/>
<text text-anchor="middle" x="736" y="-51" font-family="Helvetica,sans-Serif" font-size="10.00">tls::Server</text>
</a>
</g>
</g>
<!-- Node2 -->
<g id="node2" class="node">
<title>Node2</title>
<g id="a_node2"><a xlink:href="classtls_1_1Context.html" target="_top" xlink:title=" ">
<polygon fill="white" stroke="#666666" points="666,-63 593,-63 593,-44 666,-44 666,-63"/>
<text text-anchor="middle" x="629.5" y="-51" font-family="Helvetica,sans-Serif" font-size="10.00">tls::Context</text>
</a>
</g>
</g>
<!-- Node2&#45;&gt;Node1 -->
<g id="edge1" class="edge">
<title>Node2&#45;&gt;Node1</title>
<path fill="none" stroke="#63b8ff" d="M676.2,-53.5C685.23,-53.5 694.53,-53.5 702.99,-53.5"/>
<polygon fill="#63b8ff" stroke="#63b8ff" points="676.17,-50 666.17,-53.5 676.17,-57 676.17,-50"/>
</g>
<!-- Node3 -->
<g id="node3" class="node">
<title>Node3</title>
<g id="a_node3"><a xlink:href="structcrypto_1_1OpenSSL_1_1Unique__SSL__CTX.html" target="_top" xlink:title=" ">
<polygon fill="white" stroke="#666666" points="527,-92.5 390,-92.5 390,-62.5 527,-62.5 527,-92.5"/>
<text text-anchor="start" x="398" y="-80.5" font-family="Helvetica,sans-Serif" font-size="10.00">crypto::OpenSSL::Unique</text>
<text text-anchor="middle" x="458.5" y="-69.5" font-family="Helvetica,sans-Serif" font-size="10.00">_SSL_CTX</text>
</a>
</g>
</g>
<!-- Node3&#45;&gt;Node2 -->
<g id="edge2" class="edge">
<title>Node3&#45;&gt;Node2</title>
<path fill="none" stroke="#9a32cd" stroke-dasharray="5,2" d="M537.33,-66.45C556.7,-63.7 576.54,-60.88 592.74,-58.58"/>
<polygon fill="#9a32cd" stroke="#9a32cd" points="536.67,-63.01 527.26,-67.88 537.66,-69.94 536.67,-63.01"/>
<text text-anchor="middle" x="565.5" y="-65.5" font-family="Helvetica,sans-Serif" font-size="10.00"> cfg</text>
</g>
<!-- Node4 -->
<g id="node4" class="node">
<title>Node4</title>
<g id="a_node4"><a xlink:href="classcrypto_1_1OpenSSL_1_1Unique__SSL__OBJECT.html" target="_top" xlink:title=" ">
<polygon fill="white" stroke="#666666" points="336,-100 199,-100 199,-59 336,-59 336,-100"/>
<text text-anchor="start" x="207" y="-88" font-family="Helvetica,sans-Serif" font-size="10.00">crypto::OpenSSL::Unique</text>
<text text-anchor="start" x="207" y="-77" font-family="Helvetica,sans-Serif" font-size="10.00">_SSL_OBJECT&lt; SSL_CTX,</text>
<text text-anchor="middle" x="267.5" y="-66" font-family="Helvetica,sans-Serif" font-size="10.00"> nullptr, nullptr &gt;</text>
</a>
</g>
</g>
<!-- Node4&#45;&gt;Node3 -->
<g id="edge3" class="edge">
<title>Node4&#45;&gt;Node3</title>
<path fill="none" stroke="#63b8ff" d="M346.57,-78.67C360.97,-78.52 375.9,-78.36 389.96,-78.21"/>
<polygon fill="#63b8ff" stroke="#63b8ff" points="346.16,-75.18 336.2,-78.78 346.24,-82.18 346.16,-75.18"/>
</g>
<!-- Node5 -->
<g id="node5" class="node">
<title>Node5</title>
<g id="a_node5"><a xlink:title=" ">
<polygon fill="white" stroke="#666666" points="147,-94.5 0,-94.5 0,-64.5 147,-64.5 147,-94.5"/>
<text text-anchor="start" x="8" y="-82.5" font-family="Helvetica,sans-Serif" font-size="10.00">std::unique_ptr&lt; SSL</text>
<text text-anchor="middle" x="73.5" y="-71.5" font-family="Helvetica,sans-Serif" font-size="10.00">_CTX, void(*)(SSL_CTX *)&gt;</text>
</a>
</g>
</g>
<!-- Node5&#45;&gt;Node4 -->
<g id="edge4" class="edge">
<title>Node5&#45;&gt;Node4</title>
<path fill="none" stroke="#9a32cd" stroke-dasharray="5,2" d="M157.14,-79.5C171.07,-79.5 185.39,-79.5 198.88,-79.5"/>
<polygon fill="#9a32cd" stroke="#9a32cd" points="157.09,-76 147.09,-79.5 157.09,-83 157.09,-76"/>
<text text-anchor="middle" x="170" y="-82.5" font-family="Helvetica,sans-Serif" font-size="10.00"> p</text>
</g>
<!-- Node6 -->
<g id="node6" class="node">
<title>Node6</title>
<g id="a_node6"><a xlink:href="structcrypto_1_1OpenSSL_1_1Unique__SSL.html" target="_top" xlink:title=" ">
<polygon fill="white" stroke="#666666" points="538,-42 379,-42 379,-23 538,-23 538,-42"/>
<text text-anchor="middle" x="458.5" y="-30" font-family="Helvetica,sans-Serif" font-size="10.00">crypto::OpenSSL::Unique_SSL</text>
</a>
</g>
</g>
<!-- Node6&#45;&gt;Node2 -->
<g id="edge5" class="edge">
<title>Node6&#45;&gt;Node2</title>
<path fill="none" stroke="#9a32cd" stroke-dasharray="5,2" d="M548.23,-36.11C557.3,-37.01 566.35,-38.12 575,-39.5 581.92,-40.6 589.25,-42.22 596.18,-43.96"/>
<polygon fill="#9a32cd" stroke="#9a32cd" points="548.28,-32.6 538.01,-35.19 547.65,-39.57 548.28,-32.6"/>
<text text-anchor="middle" x="565.5" y="-42.5" font-family="Helvetica,sans-Serif" font-size="10.00"> ssl</text>
</g>
<!-- Node7 -->
<g id="node7" class="node">
<title>Node7</title>
<g id="a_node7"><a xlink:href="classcrypto_1_1OpenSSL_1_1Unique__SSL__OBJECT.html" target="_top" xlink:title=" ">
<polygon fill="white" stroke="#666666" points="342,-41 193,-41 193,0 342,0 342,-41"/>
<text text-anchor="start" x="201" y="-29" font-family="Helvetica,sans-Serif" font-size="10.00">crypto::OpenSSL::Unique</text>
<text text-anchor="start" x="201" y="-18" font-family="Helvetica,sans-Serif" font-size="10.00">_SSL_OBJECT&lt; SSL, nullptr,</text>
<text text-anchor="middle" x="267.5" y="-7" font-family="Helvetica,sans-Serif" font-size="10.00"> nullptr &gt;</text>
</a>
</g>
</g>
<!-- Node7&#45;&gt;Node6 -->
<g id="edge6" class="edge">
<title>Node7&#45;&gt;Node6</title>
<path fill="none" stroke="#63b8ff" d="M352.35,-25.82C361.14,-26.38 370.05,-26.95 378.78,-27.5"/>
<polygon fill="#63b8ff" stroke="#63b8ff" points="352.32,-22.31 342.11,-25.17 351.87,-29.3 352.32,-22.31"/>
</g>
<!-- Node8 -->
<g id="node8" class="node">
<title>Node8</title>
<g id="a_node8"><a xlink:title=" ">
<polygon fill="white" stroke="#666666" points="134,-35.5 13,-35.5 13,-5.5 134,-5.5 134,-35.5"/>
<text text-anchor="start" x="21" y="-23.5" font-family="Helvetica,sans-Serif" font-size="10.00">std::unique_ptr&lt; SSL,</text>
<text text-anchor="middle" x="73.5" y="-12.5" font-family="Helvetica,sans-Serif" font-size="10.00"> void(*)(SSL *)&gt;</text>
</a>
</g>
</g>
<!-- Node8&#45;&gt;Node7 -->
<g id="edge7" class="edge">
<title>Node8&#45;&gt;Node7</title>
<path fill="none" stroke="#9a32cd" stroke-dasharray="5,2" d="M144.41,-20.5C160.21,-20.5 177.03,-20.5 192.97,-20.5"/>
<polygon fill="#9a32cd" stroke="#9a32cd" points="144.2,-17 134.2,-20.5 144.2,-24 144.2,-17"/>
<text text-anchor="middle" x="170" y="-23.5" font-family="Helvetica,sans-Serif" font-size="10.00"> p</text>
</g>
</g>
</svg>
