<?xml version="1.0" encoding="UTF-8" standalone="no"?>
<!DOCTYPE svg PUBLIC "-//W3C//DTD SVG 1.1//EN"
 "http://www.w3.org/Graphics/SVG/1.1/DTD/svg11.dtd">
<!-- Generated by graphviz version 2.43.0 (0)
 -->
<!-- Title: ccf::ACMESubsystem Pages: 1 -->
<svg width="316pt" height="149pt"
 viewBox="0.00 0.00 316.00 149.00" xmlns="http://www.w3.org/2000/svg" xmlns:xlink="http://www.w3.org/1999/xlink">
<g id="graph0" class="graph" transform="scale(1 1) rotate(0) translate(4 145)">
<title>ccf::ACMESubsystem</title>
<!-- Node1 -->
<g id="node1" class="node">
<title>Node1</title>
<g id="a_node1"><a xlink:title=" ">
<polygon fill="#999999" stroke="#666666" points="262.5,-19 143.5,-19 143.5,0 262.5,0 262.5,-19"/>
<text text-anchor="middle" x="203" y="-7" font-family="Helvetica,sans-Serif" font-size="10.00">ccf::ACMESubsystem</text>
</a>
</g>
</g>
<!-- Node2 -->
<g id="node2" class="node">
<title>Node2</title>
<g id="a_node2"><a xlink:href="classccf_1_1ACMESubsystemInterface.html" target="_top" xlink:title=" ">
<polygon fill="white" stroke="#666666" points="162,-85 0,-85 0,-66 162,-66 162,-85"/>
<text text-anchor="middle" x="81" y="-73" font-family="Helvetica,sans-Serif" font-size="10.00">ccf::ACMESubsystemInterface</text>
</a>
</g>
</g>
<!-- Node2&#45;&gt;Node1 -->
<g id="edge1" class="edge">
<title>Node2&#45;&gt;Node1</title>
<path fill="none" stroke="#63b8ff" d="M106.36,-61.19C130.4,-48.59 165.8,-30.01 186.42,-19.2"/>
<polygon fill="#63b8ff" stroke="#63b8ff" points="104.68,-58.12 97.45,-65.87 107.93,-64.32 104.68,-58.12"/>
</g>
<!-- Node3 -->
<g id="node3" class="node">
<title>Node3</title>
<g id="a_node3"><a xlink:href="classccf_1_1AbstractNodeSubSystem.html" target="_top" xlink:title=" ">
<polygon fill="white" stroke="#666666" points="159.5,-141 2.5,-141 2.5,-122 159.5,-122 159.5,-141"/>
<text text-anchor="middle" x="81" y="-129" font-family="Helvetica,sans-Serif" font-size="10.00">ccf::AbstractNodeSubSystem</text>
</a>
</g>
</g>
<!-- Node3&#45;&gt;Node2 -->
<g id="edge2" class="edge">
<title>Node3&#45;&gt;Node2</title>
<path fill="none" stroke="#63b8ff" d="M81,-111.3C81,-102.41 81,-92.28 81,-85.25"/>
<polygon fill="#63b8ff" stroke="#63b8ff" points="77.5,-111.58 81,-121.58 84.5,-111.58 77.5,-111.58"/>
</g>
<!-- Node4 -->
<g id="node4" class="node">
<title>Node4</title>
<g id="a_node4"><a xlink:href="classccf_1_1AbstractNodeState.html" target="_top" xlink:title=" ">
<polygon fill="white" stroke="#666666" points="308,-85 180,-85 180,-66 308,-66 308,-85"/>
<text text-anchor="middle" x="244" y="-73" font-family="Helvetica,sans-Serif" font-size="10.00">ccf::AbstractNodeState</text>
</a>
</g>
</g>
<!-- Node4&#45;&gt;Node1 -->
<g id="edge3" class="edge">
<title>Node4&#45;&gt;Node1</title>
<path fill="none" stroke="#9a32cd" stroke-dasharray="5,2" d="M233.05,-57.41C225.21,-45.18 214.98,-29.2 208.7,-19.41"/>
<polygon fill="#9a32cd" stroke="#9a32cd" points="230.13,-59.34 238.47,-65.87 236.02,-55.56 230.13,-59.34"/>
<text text-anchor="middle" x="254" y="-40" font-family="Helvetica,sans-Serif" font-size="10.00"> node_state</text>
</g>
</g>
</svg>
