<?xml version="1.0" encoding="UTF-8" standalone="no"?>
<!DOCTYPE svg PUBLIC "-//W3C//DTD SVG 1.1//EN"
 "http://www.w3.org/Graphics/SVG/1.1/DTD/svg11.dtd">
<!-- Generated by graphviz version 2.43.0 (0)
 -->
<!-- Title: http::ResponseParser Pages: 1 -->
<svg width="773pt" height="113pt"
 viewBox="0.00 0.00 773.00 112.50" xmlns="http://www.w3.org/2000/svg" xmlns:xlink="http://www.w3.org/1999/xlink">
<g id="graph0" class="graph" transform="scale(1 1) rotate(0) translate(4 108.5)">
<title>http::ResponseParser</title>
<!-- Node1 -->
<g id="node1" class="node">
<title>Node1</title>
<g id="a_node1"><a xlink:title=" ">
<polygon fill="#999999" stroke="#666666" points="765,-67.5 646,-67.5 646,-48.5 765,-48.5 765,-67.5"/>
<text text-anchor="middle" x="705.5" y="-55.5" font-family="Helvetica,sans-Serif" font-size="10.00">http::ResponseParser</text>
</a>
</g>
</g>
<!-- Node2 -->
<g id="node2" class="node">
<title>Node2</title>
<g id="a_node2"><a xlink:href="classhttp_1_1Parser.html" target="_top" xlink:title=" ">
<polygon fill="white" stroke="#666666" points="609,-67.5 537,-67.5 537,-48.5 609,-48.5 609,-67.5"/>
<text text-anchor="middle" x="573" y="-55.5" font-family="Helvetica,sans-Serif" font-size="10.00">http::Parser</text>
</a>
</g>
</g>
<!-- Node2&#45;&gt;Node1 -->
<g id="edge1" class="edge">
<title>Node2&#45;&gt;Node1</title>
<path fill="none" stroke="#63b8ff" d="M619.4,-58C627.91,-58 636.92,-58 645.77,-58"/>
<polygon fill="#63b8ff" stroke="#63b8ff" points="619.32,-54.5 609.32,-58 619.32,-61.5 619.32,-54.5"/>
</g>
<!-- Node3 -->
<g id="node3" class="node">
<title>Node3</title>
<g id="a_node3"><a xlink:href="structhttp_1_1ParserConfiguration.html" target="_top" xlink:title=" ">
<polygon fill="white" stroke="#666666" points="431,-104.5 294,-104.5 294,-85.5 431,-85.5 431,-104.5"/>
<text text-anchor="middle" x="362.5" y="-92.5" font-family="Helvetica,sans-Serif" font-size="10.00">http::ParserConfiguration</text>
</a>
</g>
</g>
<!-- Node3&#45;&gt;Node2 -->
<g id="edge2" class="edge">
<title>Node3&#45;&gt;Node2</title>
<path fill="none" stroke="#9a32cd" stroke-dasharray="5,2" d="M441.34,-86.09C466.27,-82.67 493.91,-78.3 519,-73 526.2,-71.48 533.87,-69.51 541.07,-67.51"/>
<polygon fill="#9a32cd" stroke="#9a32cd" points="440.65,-82.65 431.2,-87.44 441.58,-89.59 440.65,-82.65"/>
<text text-anchor="middle" x="485.5" y="-87" font-family="Helvetica,sans-Serif" font-size="10.00"> configuration</text>
</g>
<!-- Node4 -->
<g id="node4" class="node">
<title>Node4</title>
<g id="a_node4"><a xlink:title=" ">
<polygon fill="white" stroke="#666666" points="425,-67.5 300,-67.5 300,-48.5 425,-48.5 425,-67.5"/>
<text text-anchor="middle" x="362.5" y="-55.5" font-family="Helvetica,sans-Serif" font-size="10.00">std::vector&lt; uint8_t &gt;</text>
</a>
</g>
</g>
<!-- Node4&#45;&gt;Node2 -->
<g id="edge3" class="edge">
<title>Node4&#45;&gt;Node2</title>
<path fill="none" stroke="#9a32cd" stroke-dasharray="5,2" d="M435.65,-58C469.86,-58 509.18,-58 536.78,-58"/>
<polygon fill="#9a32cd" stroke="#9a32cd" points="435.21,-54.5 425.21,-58 435.21,-61.5 435.21,-54.5"/>
<text text-anchor="middle" x="485.5" y="-61" font-family="Helvetica,sans-Serif" font-size="10.00"> body_buf</text>
</g>
<!-- Node5 -->
<g id="node5" class="node">
<title>Node5</title>
<g id="a_node5"><a xlink:title=" ">
<polygon fill="white" stroke="#666666" points="434,-30 291,-30 291,0 434,0 434,-30"/>
<text text-anchor="start" x="299" y="-18" font-family="Helvetica,sans-Serif" font-size="10.00">std::map&lt; std::string,</text>
<text text-anchor="middle" x="362.5" y="-7" font-family="Helvetica,sans-Serif" font-size="10.00"> std::string, std::less&lt;&gt; &gt;</text>
</a>
</g>
</g>
<!-- Node5&#45;&gt;Node2 -->
<g id="edge4" class="edge">
<title>Node5&#45;&gt;Node2</title>
<path fill="none" stroke="#9a32cd" stroke-dasharray="5,2" d="M444.09,-27.97C468.28,-32.27 494.8,-37.41 519,-43 525.89,-44.59 533.23,-46.52 540.18,-48.45"/>
<polygon fill="#9a32cd" stroke="#9a32cd" points="444.69,-24.52 434.24,-26.24 443.48,-31.41 444.69,-24.52"/>
<text text-anchor="middle" x="485.5" y="-46" font-family="Helvetica,sans-Serif" font-size="10.00"> headers</text>
</g>
<!-- Node6 -->
<g id="node6" class="node">
<title>Node6</title>
<g id="a_node6"><a xlink:title=" ">
<polygon fill="white" stroke="#666666" points="206,-24.5 141,-24.5 141,-5.5 206,-5.5 206,-24.5"/>
<text text-anchor="middle" x="173.5" y="-12.5" font-family="Helvetica,sans-Serif" font-size="10.00">std::string</text>
</a>
</g>
</g>
<!-- Node6&#45;&gt;Node5 -->
<g id="edge5" class="edge">
<title>Node6&#45;&gt;Node5</title>
<path fill="none" stroke="#9a32cd" stroke-dasharray="5,2" d="M216.49,-15C238.37,-15 265.72,-15 290.75,-15"/>
<polygon fill="#9a32cd" stroke="#9a32cd" points="216.22,-11.5 206.22,-15 216.22,-18.5 216.22,-11.5"/>
<text text-anchor="middle" x="248.5" y="-29" font-family="Helvetica,sans-Serif" font-size="10.00"> elements</text>
<text text-anchor="middle" x="248.5" y="-18" font-family="Helvetica,sans-Serif" font-size="10.00">keys</text>
</g>
<!-- Node7 -->
<g id="node7" class="node">
<title>Node7</title>
<g id="a_node7"><a xlink:title=" ">
<polygon fill="white" stroke="#666666" points="104,-30 0,-30 0,0 104,0 104,-30"/>
<text text-anchor="start" x="8" y="-18" font-family="Helvetica,sans-Serif" font-size="10.00">std::basic_string&lt;</text>
<text text-anchor="middle" x="52" y="-7" font-family="Helvetica,sans-Serif" font-size="10.00"> Char &gt;</text>
</a>
</g>
</g>
<!-- Node7&#45;&gt;Node6 -->
<g id="edge6" class="edge">
<title>Node7&#45;&gt;Node6</title>
<path fill="none" stroke="#63b8ff" d="M114.1,-15C123.41,-15 132.68,-15 141,-15"/>
<polygon fill="#63b8ff" stroke="#63b8ff" points="114.03,-11.5 104.03,-15 114.03,-18.5 114.03,-11.5"/>
</g>
</g>
</svg>
