<?xml version="1.0" encoding="UTF-8" standalone="no"?>
<!DOCTYPE svg PUBLIC "-//W3C//DTD SVG 1.1//EN"
 "http://www.w3.org/Graphics/SVG/1.1/DTD/svg11.dtd">
<!-- Generated by graphviz version 2.43.0 (0)
 -->
<!-- Title: ccf::NodeConfigurationSubsystem Pages: 1 -->
<svg width="2809pt" height="482pt"
 viewBox="0.00 0.00 2809.00 482.00" xmlns="http://www.w3.org/2000/svg" xmlns:xlink="http://www.w3.org/1999/xlink">
<g id="graph0" class="graph" transform="scale(1 1) rotate(0) translate(4 478)">
<title>ccf::NodeConfigurationSubsystem</title>
<!-- Node1 -->
<g id="node1" class="node">
<title>Node1</title>
<g id="a_node1"><a xlink:title=" ">
<polygon fill="#999999" stroke="#666666" points="2801,-361 2620,-361 2620,-342 2801,-342 2801,-361"/>
<text text-anchor="middle" x="2710.5" y="-349" font-family="Helvetica,sans-Serif" font-size="10.00">ccf::NodeConfigurationSubsystem</text>
</a>
</g>
</g>
<!-- Node2 -->
<g id="node2" class="node">
<title>Node2</title>
<g id="a_node2"><a xlink:href="classccf_1_1NodeConfigurationInterface.html" target="_top" xlink:title=" ">
<polygon fill="white" stroke="#666666" points="2492,-398 2322,-398 2322,-379 2492,-379 2492,-398"/>
<text text-anchor="middle" x="2407" y="-386" font-family="Helvetica,sans-Serif" font-size="10.00">ccf::NodeConfigurationInterface</text>
</a>
</g>
</g>
<!-- Node2&#45;&gt;Node1 -->
<g id="edge1" class="edge">
<title>Node2&#45;&gt;Node1</title>
<path fill="none" stroke="#63b8ff" d="M2502.24,-378.31C2533.96,-374.74 2569.53,-370.61 2602,-366.5 2615.37,-364.81 2629.65,-362.89 2643.3,-361.01"/>
<polygon fill="#63b8ff" stroke="#63b8ff" points="2501.64,-374.85 2492.09,-379.44 2502.42,-381.81 2501.64,-374.85"/>
</g>
<!-- Node3 -->
<g id="node3" class="node">
<title>Node3</title>
<g id="a_node3"><a xlink:href="classccf_1_1AbstractNodeSubSystem.html" target="_top" xlink:title=" ">
<polygon fill="white" stroke="#666666" points="2175,-398 2018,-398 2018,-379 2175,-379 2175,-398"/>
<text text-anchor="middle" x="2096.5" y="-386" font-family="Helvetica,sans-Serif" font-size="10.00">ccf::AbstractNodeSubSystem</text>
</a>
</g>
</g>
<!-- Node3&#45;&gt;Node2 -->
<g id="edge2" class="edge">
<title>Node3&#45;&gt;Node2</title>
<path fill="none" stroke="#63b8ff" d="M2185.48,-388.5C2228.34,-388.5 2279.63,-388.5 2321.95,-388.5"/>
<polygon fill="#63b8ff" stroke="#63b8ff" points="2185.35,-385 2175.35,-388.5 2185.35,-392 2185.35,-385"/>
</g>
<!-- Node4 -->
<g id="node4" class="node">
<title>Node4</title>
<g id="a_node4"><a xlink:href="classccf_1_1AbstractNodeState.html" target="_top" xlink:title=" ">
<polygon fill="white" stroke="#666666" points="2471,-361 2343,-361 2343,-342 2471,-342 2471,-361"/>
<text text-anchor="middle" x="2407" y="-349" font-family="Helvetica,sans-Serif" font-size="10.00">ccf::AbstractNodeState</text>
</a>
</g>
</g>
<!-- Node4&#45;&gt;Node1 -->
<g id="edge3" class="edge">
<title>Node4&#45;&gt;Node1</title>
<path fill="none" stroke="#9a32cd" stroke-dasharray="5,2" d="M2481.29,-351.5C2523.02,-351.5 2575.61,-351.5 2619.79,-351.5"/>
<polygon fill="#9a32cd" stroke="#9a32cd" points="2481.2,-348 2471.2,-351.5 2481.2,-355 2481.2,-348"/>
<text text-anchor="middle" x="2556" y="-354.5" font-family="Helvetica,sans-Serif" font-size="10.00"> node_state</text>
</g>
<!-- Node5 -->
<g id="node5" class="node">
<title>Node5</title>
<g id="a_node5"><a xlink:href="structccf_1_1NodeConfigurationState.html" target="_top" xlink:title=" ">
<polygon fill="white" stroke="#666666" points="2483,-324 2331,-324 2331,-305 2483,-305 2483,-324"/>
<text text-anchor="middle" x="2407" y="-312" font-family="Helvetica,sans-Serif" font-size="10.00">ccf::NodeConfigurationState</text>
</a>
</g>
</g>
<!-- Node5&#45;&gt;Node1 -->
<g id="edge4" class="edge">
<title>Node5&#45;&gt;Node1</title>
<path fill="none" stroke="#9a32cd" stroke-dasharray="5,2" d="M2493.45,-323.71C2527.28,-327.48 2566.5,-332.01 2602,-336.5 2615.37,-338.19 2629.65,-340.11 2643.3,-341.99"/>
<polygon fill="#9a32cd" stroke="#9a32cd" points="2493.46,-320.19 2483.14,-322.57 2492.69,-327.15 2493.46,-320.19"/>
<text text-anchor="middle" x="2556" y="-339.5" font-family="Helvetica,sans-Serif" font-size="10.00"> node_config_state</text>
</g>
<!-- Node6 -->
<g id="node6" class="node">
<title>Node6</title>
<g id="a_node6"><a xlink:href="structStartupConfig.html" target="_top" xlink:title=" ">
<polygon fill="white" stroke="#666666" points="2138,-175 2055,-175 2055,-156 2138,-156 2138,-175"/>
<text text-anchor="middle" x="2096.5" y="-163" font-family="Helvetica,sans-Serif" font-size="10.00">StartupConfig</text>
</a>
</g>
</g>
<!-- Node6&#45;&gt;Node5 -->
<g id="edge5" class="edge">
<title>Node6&#45;&gt;Node5</title>
<path fill="none" stroke="#9a32cd" stroke-dasharray="5,2" d="M2126.5,-179.5C2188.57,-209.48 2332.96,-279.22 2386,-304.84"/>
<polygon fill="#9a32cd" stroke="#9a32cd" points="2127.79,-176.24 2117.27,-175.05 2124.75,-182.55 2127.79,-176.24"/>
<text text-anchor="middle" x="2248.5" y="-265.5" font-family="Helvetica,sans-Serif" font-size="10.00"> node_config</text>
</g>
<!-- Node7 -->
<g id="node7" class="node">
<title>Node7</title>
<g id="a_node7"><a xlink:href="structCCFConfig.html" target="_top" xlink:title=" ">
<polygon fill="white" stroke="#666666" points="1896.5,-234 1829.5,-234 1829.5,-215 1896.5,-215 1896.5,-234"/>
<text text-anchor="middle" x="1863" y="-222" font-family="Helvetica,sans-Serif" font-size="10.00">CCFConfig</text>
</a>
</g>
</g>
<!-- Node7&#45;&gt;Node6 -->
<g id="edge6" class="edge">
<title>Node7&#45;&gt;Node6</title>
<path fill="none" stroke="#63b8ff" d="M1906.64,-213.63C1950.01,-202.58 2016.58,-185.61 2058,-175.06"/>
<polygon fill="#63b8ff" stroke="#63b8ff" points="1905.5,-210.31 1896.68,-216.17 1907.23,-217.09 1905.5,-210.31"/>
</g>
<!-- Node8 -->
<g id="node8" class="node">
<title>Node8</title>
<g id="a_node8"><a xlink:href="structconsensus_1_1Configuration.html" target="_top" xlink:title=" ">
<polygon fill="white" stroke="#666666" points="1656.5,-197 1517.5,-197 1517.5,-178 1656.5,-178 1656.5,-197"/>
<text text-anchor="middle" x="1587" y="-185" font-family="Helvetica,sans-Serif" font-size="10.00">consensus::Configuration</text>
</a>
</g>
</g>
<!-- Node8&#45;&gt;Node7 -->
<g id="edge7" class="edge">
<title>Node8&#45;&gt;Node7</title>
<path fill="none" stroke="#9a32cd" stroke-dasharray="5,2" d="M1666.68,-195.81C1700.13,-199.59 1739.52,-204.36 1775,-209.5 1793.05,-212.12 1813.12,-215.54 1829.43,-218.46"/>
<polygon fill="#9a32cd" stroke="#9a32cd" points="1666.83,-192.3 1656.5,-194.67 1666.05,-199.26 1666.83,-192.3"/>
<text text-anchor="middle" x="1729.5" y="-212.5" font-family="Helvetica,sans-Serif" font-size="10.00"> consensus</text>
</g>
<!-- Node9 -->
<g id="node9" class="node">
<title>Node9</title>
<g id="a_node9"><a xlink:href="structds_1_1TimeString.html" target="_top" xlink:title=" ">
<polygon fill="white" stroke="#666666" points="1304,-193 1217,-193 1217,-174 1304,-174 1304,-193"/>
<text text-anchor="middle" x="1260.5" y="-181" font-family="Helvetica,sans-Serif" font-size="10.00">ds::TimeString</text>
</a>
</g>
</g>
<!-- Node9&#45;&gt;Node8 -->
<g id="edge8" class="edge">
<title>Node9&#45;&gt;Node8</title>
<path fill="none" stroke="#9a32cd" stroke-dasharray="5,2" d="M1314.14,-183.33C1360.46,-183.28 1429.71,-183.43 1490,-184.5 1498.84,-184.66 1508.13,-184.88 1517.31,-185.13"/>
<polygon fill="#9a32cd" stroke="#9a32cd" points="1314.03,-179.83 1304.04,-183.34 1314.04,-186.83 1314.03,-179.83"/>
<text text-anchor="middle" x="1421.5" y="-198.5" font-family="Helvetica,sans-Serif" font-size="10.00"> election_timeout</text>
<text text-anchor="middle" x="1421.5" y="-187.5" font-family="Helvetica,sans-Serif" font-size="10.00">message_timeout</text>
</g>
<!-- Node19 -->
<g id="node19" class="node">
<title>Node19</title>
<g id="a_node19"><a xlink:href="structCCFConfig_1_1LedgerSignatures.html" target="_top" xlink:title=" ">
<polygon fill="white" stroke="#666666" points="1666,-160 1508,-160 1508,-141 1666,-141 1666,-160"/>
<text text-anchor="middle" x="1587" y="-148" font-family="Helvetica,sans-Serif" font-size="10.00">CCFConfig::LedgerSignatures</text>
</a>
</g>
</g>
<!-- Node9&#45;&gt;Node19 -->
<g id="edge24" class="edge">
<title>Node9&#45;&gt;Node19</title>
<path fill="none" stroke="#9a32cd" stroke-dasharray="5,2" d="M1314.18,-174.08C1326.86,-172.03 1340.39,-170.02 1353,-168.5 1404.46,-162.31 1462.58,-157.81 1507.9,-154.86"/>
<polygon fill="#9a32cd" stroke="#9a32cd" points="1313.51,-170.64 1304.22,-175.72 1314.65,-177.54 1313.51,-170.64"/>
<text text-anchor="middle" x="1421.5" y="-171.5" font-family="Helvetica,sans-Serif" font-size="10.00"> delay</text>
</g>
<!-- Node20 -->
<g id="node20" class="node">
<title>Node20</title>
<g id="a_node20"><a xlink:href="structCCFConfig_1_1JWT.html" target="_top" xlink:title=" ">
<polygon fill="white" stroke="#666666" points="1633,-234 1541,-234 1541,-215 1633,-215 1633,-234"/>
<text text-anchor="middle" x="1587" y="-222" font-family="Helvetica,sans-Serif" font-size="10.00">CCFConfig::JWT</text>
</a>
</g>
</g>
<!-- Node9&#45;&gt;Node20 -->
<g id="edge26" class="edge">
<title>Node9&#45;&gt;Node20</title>
<path fill="none" stroke="#9a32cd" stroke-dasharray="5,2" d="M1303.6,-195.67C1319.02,-199.7 1336.69,-203.84 1353,-206.5 1417.67,-217.05 1493.47,-221.45 1540.63,-223.26"/>
<polygon fill="#9a32cd" stroke="#9a32cd" points="1304.39,-192.26 1293.83,-193.05 1302.58,-199.02 1304.39,-192.26"/>
<text text-anchor="middle" x="1421.5" y="-223.5" font-family="Helvetica,sans-Serif" font-size="10.00"> key_refresh_interval</text>
</g>
<!-- Node29 -->
<g id="node29" class="node">
<title>Node29</title>
<g id="a_node29"><a xlink:href="structStartupConfig_1_1Join.html" target="_top" xlink:title=" ">
<polygon fill="white" stroke="#666666" points="1640.5,-123 1533.5,-123 1533.5,-104 1640.5,-104 1640.5,-123"/>
<text text-anchor="middle" x="1587" y="-111" font-family="Helvetica,sans-Serif" font-size="10.00">StartupConfig::Join</text>
</a>
</g>
</g>
<!-- Node9&#45;&gt;Node29 -->
<g id="edge38" class="edge">
<title>Node9&#45;&gt;Node29</title>
<path fill="none" stroke="#9a32cd" stroke-dasharray="5,2" d="M1287.29,-169.03C1305.18,-159.66 1329.86,-148.03 1353,-141.5 1413.39,-124.46 1485.44,-117.79 1533.27,-115.18"/>
<polygon fill="#9a32cd" stroke="#9a32cd" points="1285.26,-166.15 1278.1,-173.96 1288.56,-172.32 1285.26,-166.15"/>
<text text-anchor="middle" x="1421.5" y="-144.5" font-family="Helvetica,sans-Serif" font-size="10.00"> retry_timeout</text>
</g>
<!-- Node10 -->
<g id="node10" class="node">
<title>Node10</title>
<g id="a_node10"><a xlink:href="structds_1_1UnitString.html" target="_top" xlink:title=" ">
<polygon fill="white" stroke="#666666" points="886,-195 803,-195 803,-176 886,-176 886,-195"/>
<text text-anchor="middle" x="844.5" y="-183" font-family="Helvetica,sans-Serif" font-size="10.00">ds::UnitString</text>
</a>
</g>
</g>
<!-- Node10&#45;&gt;Node9 -->
<g id="edge9" class="edge">
<title>Node10&#45;&gt;Node9</title>
<path fill="none" stroke="#63b8ff" d="M896.46,-185.25C978.91,-184.86 1140.02,-184.08 1216.82,-183.71"/>
<polygon fill="#63b8ff" stroke="#63b8ff" points="896.31,-181.75 886.33,-185.3 896.35,-188.75 896.31,-181.75"/>
</g>
<!-- Node11 -->
<g id="node11" class="node">
<title>Node11</title>
<g id="a_node11"><a xlink:title=" ">
<polygon fill="white" stroke="#666666" points="441,-296 376,-296 376,-277 441,-277 441,-296"/>
<text text-anchor="middle" x="408.5" y="-284" font-family="Helvetica,sans-Serif" font-size="10.00">std::string</text>
</a>
</g>
</g>
<!-- Node11&#45;&gt;Node6 -->
<g id="edge30" class="edge">
<title>Node11&#45;&gt;Node6</title>
<path fill="none" stroke="#9a32cd" stroke-dasharray="5,2" d="M423.3,-303.77C441.51,-325.35 475.66,-361.84 513,-381.5 591.7,-422.94 619.06,-426.5 708,-426.5 708,-426.5 708,-426.5 1864,-426.5 1932.59,-426.5 2061.03,-222.19 2089.72,-175.1"/>
<polygon fill="#9a32cd" stroke="#9a32cd" points="425.98,-301.52 416.92,-296.04 420.59,-305.98 425.98,-301.52"/>
<text text-anchor="middle" x="1260.5" y="-429.5" font-family="Helvetica,sans-Serif" font-size="10.00"> startup_host_time</text>
</g>
<!-- Node11&#45;&gt;Node10 -->
<g id="edge10" class="edge">
<title>Node11&#45;&gt;Node10</title>
<path fill="none" stroke="#9a32cd" stroke-dasharray="5,2" d="M432.84,-271.71C453.21,-259.51 483.98,-242.76 513,-233.5 614.09,-201.26 739.54,-190.58 802.86,-187.12"/>
<polygon fill="#9a32cd" stroke="#9a32cd" points="430.96,-268.76 424.25,-276.96 434.61,-274.73 430.96,-268.76"/>
<text text-anchor="middle" x="567" y="-236.5" font-family="Helvetica,sans-Serif" font-size="10.00"> str</text>
</g>
<!-- Node15 -->
<g id="node15" class="node">
<title>Node15</title>
<g id="a_node15"><a xlink:href="structccf_1_1NodeInfoNetwork__v2_1_1NetInterface.html" target="_top" xlink:title="Network interface description.">
<polygon fill="white" stroke="#666666" points="770,-345.5 648,-345.5 648,-315.5 770,-315.5 770,-345.5"/>
<text text-anchor="start" x="656" y="-333.5" font-family="Helvetica,sans-Serif" font-size="10.00">ccf::NodeInfoNetwork</text>
<text text-anchor="middle" x="709" y="-322.5" font-family="Helvetica,sans-Serif" font-size="10.00">_v2::NetInterface</text>
</a>
</g>
</g>
<!-- Node11&#45;&gt;Node15 -->
<g id="edge15" class="edge">
<title>Node11&#45;&gt;Node15</title>
<path fill="none" stroke="#9a32cd" stroke-dasharray="5,2" d="M451.2,-292.65C502.37,-300.19 589.49,-313.03 647.88,-321.64"/>
<polygon fill="#9a32cd" stroke="#9a32cd" points="451.57,-289.16 441.16,-291.17 450.54,-296.09 451.57,-289.16"/>
<text text-anchor="middle" x="567" y="-342.5" font-family="Helvetica,sans-Serif" font-size="10.00"> bind_address</text>
<text text-anchor="middle" x="567" y="-331.5" font-family="Helvetica,sans-Serif" font-size="10.00">protocol</text>
<text text-anchor="middle" x="567" y="-320.5" font-family="Helvetica,sans-Serif" font-size="10.00">published_address</text>
</g>
<!-- Node16 -->
<g id="node16" class="node">
<title>Node16</title>
<g id="a_node16"><a xlink:title=" ">
<polygon fill="white" stroke="#666666" points="1066.5,-395.5 920.5,-395.5 920.5,-365.5 1066.5,-365.5 1066.5,-395.5"/>
<text text-anchor="start" x="928.5" y="-383.5" font-family="Helvetica,sans-Serif" font-size="10.00">std::map&lt; RpcInterfaceID,</text>
<text text-anchor="middle" x="993.5" y="-372.5" font-family="Helvetica,sans-Serif" font-size="10.00"> NetInterface &gt;</text>
</a>
</g>
</g>
<!-- Node11&#45;&gt;Node16 -->
<g id="edge17" class="edge">
<title>Node11&#45;&gt;Node16</title>
<path fill="none" stroke="#9a32cd" stroke-dasharray="5,2" d="M427.74,-302.83C447.27,-319.2 479.94,-343.52 513,-354.5 651.46,-400.47 824.69,-395.74 920.45,-388.14"/>
<polygon fill="#9a32cd" stroke="#9a32cd" points="429.83,-300.01 419.97,-296.15 425.27,-305.32 429.83,-300.01"/>
<text text-anchor="middle" x="709" y="-395.5" font-family="Helvetica,sans-Serif" font-size="10.00"> keys</text>
</g>
<!-- Node17 -->
<g id="node17" class="node">
<title>Node17</title>
<g id="a_node17"><a xlink:href="structCCFConfig_1_1NodeCertificateInfo.html" target="_top" xlink:title=" ">
<polygon fill="white" stroke="#666666" points="1077,-256 910,-256 910,-237 1077,-237 1077,-256"/>
<text text-anchor="middle" x="993.5" y="-244" font-family="Helvetica,sans-Serif" font-size="10.00">CCFConfig::NodeCertificateInfo</text>
</a>
</g>
</g>
<!-- Node11&#45;&gt;Node17 -->
<g id="edge20" class="edge">
<title>Node11&#45;&gt;Node17</title>
<path fill="none" stroke="#9a32cd" stroke-dasharray="5,2" d="M451.3,-285.18C535.06,-282.32 729.37,-274.55 892,-259.5 902.42,-258.54 913.43,-257.32 924.19,-256.01"/>
<polygon fill="#9a32cd" stroke="#9a32cd" points="451.05,-281.69 441.17,-285.53 451.28,-288.69 451.05,-281.69"/>
<text text-anchor="middle" x="709" y="-280.5" font-family="Helvetica,sans-Serif" font-size="10.00"> subject_name</text>
</g>
<!-- Node18 -->
<g id="node18" class="node">
<title>Node18</title>
<g id="a_node18"><a xlink:title=" ">
<polygon fill="white" stroke="#666666" points="779,-250 639,-250 639,-231 779,-231 779,-250"/>
<text text-anchor="middle" x="709" y="-238" font-family="Helvetica,sans-Serif" font-size="10.00">std::vector&lt; std::string &gt;</text>
</a>
</g>
</g>
<!-- Node11&#45;&gt;Node18 -->
<g id="edge22" class="edge">
<title>Node11&#45;&gt;Node18</title>
<path fill="none" stroke="#9a32cd" stroke-dasharray="5,2" d="M451.17,-275.13C469.95,-270.34 492.47,-265.07 513,-261.5 554.43,-254.3 601.27,-249.16 638.66,-245.76"/>
<polygon fill="#9a32cd" stroke="#9a32cd" points="450.25,-271.75 441.44,-277.65 452,-278.53 450.25,-271.75"/>
<text text-anchor="middle" x="567" y="-264.5" font-family="Helvetica,sans-Serif" font-size="10.00"> elements</text>
</g>
<!-- Node24 -->
<g id="node24" class="node">
<title>Node24</title>
<g id="a_node24"><a xlink:href="structStartupConfig_1_1Start.html" target="_top" xlink:title=" ">
<polygon fill="white" stroke="#666666" points="765,-67 653,-67 653,-48 765,-48 765,-67"/>
<text text-anchor="middle" x="709" y="-55" font-family="Helvetica,sans-Serif" font-size="10.00">StartupConfig::Start</text>
</a>
</g>
</g>
<!-- Node11&#45;&gt;Node24 -->
<g id="edge35" class="edge">
<title>Node11&#45;&gt;Node24</title>
<path fill="none" stroke="#9a32cd" stroke-dasharray="5,2" d="M421.09,-268.43C438.54,-242.29 473.73,-193.55 513,-161.5 567.54,-116.98 644.08,-82.85 683.06,-67.09"/>
<polygon fill="#9a32cd" stroke="#9a32cd" points="418.05,-266.68 415.49,-276.96 423.9,-270.52 418.05,-266.68"/>
<text text-anchor="middle" x="567" y="-164.5" font-family="Helvetica,sans-Serif" font-size="10.00"> constitution</text>
</g>
<!-- Node12 -->
<g id="node12" class="node">
<title>Node12</title>
<g id="a_node12"><a xlink:title=" ">
<polygon fill="white" stroke="#666666" points="237,-301.5 133,-301.5 133,-271.5 237,-271.5 237,-301.5"/>
<text text-anchor="start" x="141" y="-289.5" font-family="Helvetica,sans-Serif" font-size="10.00">std::basic_string&lt;</text>
<text text-anchor="middle" x="185" y="-278.5" font-family="Helvetica,sans-Serif" font-size="10.00"> Char &gt;</text>
</a>
</g>
</g>
<!-- Node12&#45;&gt;Node11 -->
<g id="edge11" class="edge">
<title>Node12&#45;&gt;Node11</title>
<path fill="none" stroke="#63b8ff" d="M247.15,-286.5C288.86,-286.5 342.4,-286.5 375.83,-286.5"/>
<polygon fill="#63b8ff" stroke="#63b8ff" points="247.09,-283 237.09,-286.5 247.09,-290 247.09,-283"/>
</g>
<!-- Node13 -->
<g id="node13" class="node">
<title>Node13</title>
<g id="a_node13"><a xlink:href="structccf_1_1NodeInfoNetwork.html" target="_top" xlink:title=" ">
<polygon fill="white" stroke="#666666" points="1648,-372 1526,-372 1526,-353 1648,-353 1648,-372"/>
<text text-anchor="middle" x="1587" y="-360" font-family="Helvetica,sans-Serif" font-size="10.00">ccf::NodeInfoNetwork</text>
</a>
</g>
</g>
<!-- Node13&#45;&gt;Node7 -->
<g id="edge12" class="edge">
<title>Node13&#45;&gt;Node7</title>
<path fill="none" stroke="#9a32cd" stroke-dasharray="5,2" d="M1658.45,-352.23C1695.01,-344.75 1739.35,-332.19 1775,-311.5 1810.47,-290.91 1841.67,-252.27 1855.06,-234.23"/>
<polygon fill="#9a32cd" stroke="#9a32cd" points="1657.5,-348.85 1648.36,-354.21 1658.84,-355.72 1657.5,-348.85"/>
<text text-anchor="middle" x="1729.5" y="-349.5" font-family="Helvetica,sans-Serif" font-size="10.00"> network</text>
</g>
<!-- Node14 -->
<g id="node14" class="node">
<title>Node14</title>
<g id="a_node14"><a xlink:href="structccf_1_1NodeInfoNetwork__v2.html" target="_top" xlink:title="Node network information.">
<polygon fill="white" stroke="#666666" points="1330,-390 1191,-390 1191,-371 1330,-371 1330,-390"/>
<text text-anchor="middle" x="1260.5" y="-378" font-family="Helvetica,sans-Serif" font-size="10.00">ccf::NodeInfoNetwork_v2</text>
</a>
</g>
</g>
<!-- Node14&#45;&gt;Node13 -->
<g id="edge13" class="edge">
<title>Node14&#45;&gt;Node13</title>
<path fill="none" stroke="#63b8ff" d="M1340.39,-376.12C1397.48,-372.96 1473.48,-368.74 1525.74,-365.84"/>
<polygon fill="#63b8ff" stroke="#63b8ff" points="1340.11,-372.63 1330.32,-376.68 1340.5,-379.62 1340.11,-372.63"/>
</g>
<!-- Node15&#45;&gt;Node14 -->
<g id="edge14" class="edge">
<title>Node15&#45;&gt;Node14</title>
<path fill="none" stroke="#9a32cd" stroke-dasharray="5,2" d="M780.43,-330.28C854.49,-330.77 974.3,-333.62 1077,-345.5 1126.35,-351.21 1182.37,-362.72 1219.18,-370.98"/>
<polygon fill="#9a32cd" stroke="#9a32cd" points="780.31,-326.78 770.29,-330.22 780.27,-333.78 780.31,-326.78"/>
<text text-anchor="middle" x="993.5" y="-348.5" font-family="Helvetica,sans-Serif" font-size="10.00"> node_to_node_interface</text>
</g>
<!-- Node15&#45;&gt;Node16 -->
<g id="edge18" class="edge">
<title>Node15&#45;&gt;Node16</title>
<path fill="none" stroke="#9a32cd" stroke-dasharray="5,2" d="M780.57,-341.58C814.34,-347.02 855.31,-353.83 892,-360.5 901.19,-362.17 910.84,-364 920.37,-365.85"/>
<polygon fill="#9a32cd" stroke="#9a32cd" points="780.77,-338.06 770.34,-339.93 779.66,-344.97 780.77,-338.06"/>
<text text-anchor="middle" x="844.5" y="-363.5" font-family="Helvetica,sans-Serif" font-size="10.00"> elements</text>
</g>
<!-- Node16&#45;&gt;Node14 -->
<g id="edge16" class="edge">
<title>Node16&#45;&gt;Node14</title>
<path fill="none" stroke="#9a32cd" stroke-dasharray="5,2" d="M1076.7,-380.5C1113.25,-380.5 1155.8,-380.5 1190.65,-380.5"/>
<polygon fill="#9a32cd" stroke="#9a32cd" points="1076.56,-377 1066.56,-380.5 1076.56,-384 1076.56,-377"/>
<text text-anchor="middle" x="1131.5" y="-383.5" font-family="Helvetica,sans-Serif" font-size="10.00"> rpc_interfaces</text>
</g>
<!-- Node17&#45;&gt;Node7 -->
<g id="edge19" class="edge">
<title>Node17&#45;&gt;Node7</title>
<path fill="none" stroke="#9a32cd" stroke-dasharray="5,2" d="M1087.49,-246.58C1217.11,-246.54 1459.44,-245.96 1666,-242.5 1714.46,-241.69 1726.78,-244.3 1775,-239.5 1793,-237.71 1812.89,-234.38 1829.1,-231.32"/>
<polygon fill="#9a32cd" stroke="#9a32cd" points="1087.21,-243.08 1077.21,-246.58 1087.21,-250.08 1087.21,-243.08"/>
<text text-anchor="middle" x="1421.5" y="-249.5" font-family="Helvetica,sans-Serif" font-size="10.00"> node_certificate</text>
</g>
<!-- Node18&#45;&gt;Node17 -->
<g id="edge21" class="edge">
<title>Node18&#45;&gt;Node17</title>
<path fill="none" stroke="#9a32cd" stroke-dasharray="5,2" d="M789.49,-242.19C827.04,-242.99 871.83,-243.94 909.78,-244.74"/>
<polygon fill="#9a32cd" stroke="#9a32cd" points="789.18,-238.68 779.11,-241.97 789.03,-245.68 789.18,-238.68"/>
<text text-anchor="middle" x="844.5" y="-247.5" font-family="Helvetica,sans-Serif" font-size="10.00"> subject_alt_names</text>
</g>
<!-- Node19&#45;&gt;Node7 -->
<g id="edge23" class="edge">
<title>Node19&#45;&gt;Node7</title>
<path fill="none" stroke="#9a32cd" stroke-dasharray="5,2" d="M1676.54,-161.19C1708.06,-166.28 1743.53,-173.5 1775,-183.5 1800.46,-191.59 1828.08,-205.58 1845.21,-214.94"/>
<polygon fill="#9a32cd" stroke="#9a32cd" points="1676.87,-157.7 1666.45,-159.61 1675.79,-164.61 1676.87,-157.7"/>
<text text-anchor="middle" x="1729.5" y="-186.5" font-family="Helvetica,sans-Serif" font-size="10.00"> ledger_signatures</text>
</g>
<!-- Node20&#45;&gt;Node7 -->
<g id="edge25" class="edge">
<title>Node20&#45;&gt;Node7</title>
<path fill="none" stroke="#9a32cd" stroke-dasharray="5,2" d="M1643.31,-224.5C1699.05,-224.5 1783.21,-224.5 1829.17,-224.5"/>
<polygon fill="#9a32cd" stroke="#9a32cd" points="1643.25,-221 1633.25,-224.5 1643.25,-228 1643.25,-221"/>
<text text-anchor="middle" x="1729.5" y="-227.5" font-family="Helvetica,sans-Serif" font-size="10.00"> jwt</text>
</g>
<!-- Node21 -->
<g id="node21" class="node">
<title>Node21</title>
<g id="a_node21"><a xlink:href="structCCFConfig_1_1Attestation.html" target="_top" xlink:title=" ">
<polygon fill="white" stroke="#666666" points="1650.5,-310 1523.5,-310 1523.5,-291 1650.5,-291 1650.5,-310"/>
<text text-anchor="middle" x="1587" y="-298" font-family="Helvetica,sans-Serif" font-size="10.00">CCFConfig::Attestation</text>
</a>
</g>
</g>
<!-- Node21&#45;&gt;Node7 -->
<g id="edge27" class="edge">
<title>Node21&#45;&gt;Node7</title>
<path fill="none" stroke="#9a32cd" stroke-dasharray="5,2" d="M1660.74,-298.1C1696.02,-295.2 1738.54,-289.12 1775,-276.5 1803.93,-266.49 1833.73,-246.06 1849.85,-234.01"/>
<polygon fill="#9a32cd" stroke="#9a32cd" points="1660.22,-294.63 1650.51,-298.87 1660.75,-301.61 1660.22,-294.63"/>
<text text-anchor="middle" x="1729.5" y="-299.5" font-family="Helvetica,sans-Serif" font-size="10.00"> attestation</text>
</g>
<!-- Node22 -->
<g id="node22" class="node">
<title>Node22</title>
<g id="a_node22"><a xlink:title=" ">
<polygon fill="white" stroke="#666666" points="1335,-304.5 1186,-304.5 1186,-274.5 1335,-274.5 1335,-304.5"/>
<text text-anchor="start" x="1194" y="-292.5" font-family="Helvetica,sans-Serif" font-size="10.00">std::vector&lt; Endorsements</text>
<text text-anchor="middle" x="1260.5" y="-281.5" font-family="Helvetica,sans-Serif" font-size="10.00">Server &gt;</text>
</a>
</g>
</g>
<!-- Node22&#45;&gt;Node21 -->
<g id="edge28" class="edge">
<title>Node22&#45;&gt;Node21</title>
<path fill="none" stroke="#9a32cd" stroke-dasharray="5,2" d="M1345.32,-292.34C1400.9,-294.23 1472.66,-296.66 1523.31,-298.37"/>
<polygon fill="#9a32cd" stroke="#9a32cd" points="1345.25,-288.84 1335.13,-292 1345.01,-295.83 1345.25,-288.84"/>
<text text-anchor="middle" x="1421.5" y="-300.5" font-family="Helvetica,sans-Serif" font-size="10.00"> snp_endorsements_servers</text>
</g>
<!-- Node23 -->
<g id="node23" class="node">
<title>Node23</title>
<g id="a_node23"><a xlink:href="structCCFConfig_1_1Attestation_1_1Environment.html" target="_top" xlink:title=" ">
<polygon fill="white" stroke="#666666" points="1324,-352.5 1197,-352.5 1197,-322.5 1324,-322.5 1324,-352.5"/>
<text text-anchor="start" x="1205" y="-340.5" font-family="Helvetica,sans-Serif" font-size="10.00">CCFConfig::Attestation</text>
<text text-anchor="middle" x="1260.5" y="-329.5" font-family="Helvetica,sans-Serif" font-size="10.00">::Environment</text>
</a>
</g>
</g>
<!-- Node23&#45;&gt;Node21 -->
<g id="edge29" class="edge">
<title>Node23&#45;&gt;Node21</title>
<path fill="none" stroke="#9a32cd" stroke-dasharray="5,2" d="M1334.03,-329.85C1378.97,-325.04 1437.86,-318.61 1490,-312.5 1500.76,-311.24 1512.19,-309.85 1523.27,-308.48"/>
<polygon fill="#9a32cd" stroke="#9a32cd" points="1333.66,-326.37 1324.08,-330.91 1334.4,-333.33 1333.66,-326.37"/>
<text text-anchor="middle" x="1421.5" y="-331.5" font-family="Helvetica,sans-Serif" font-size="10.00"> environment</text>
</g>
<!-- Node24&#45;&gt;Node6 -->
<g id="edge31" class="edge">
<title>Node24&#45;&gt;Node6</title>
<path fill="none" stroke="#9a32cd" stroke-dasharray="5,2" d="M775.19,-53.88C832.43,-51.02 917.96,-47.5 992.5,-47.5 992.5,-47.5 992.5,-47.5 1864,-47.5 1959.18,-47.5 2054.73,-127.66 2085.38,-155.84"/>
<polygon fill="#9a32cd" stroke="#9a32cd" points="775,-50.39 765.19,-54.39 775.36,-57.38 775,-50.39"/>
<text text-anchor="middle" x="1421.5" y="-50.5" font-family="Helvetica,sans-Serif" font-size="10.00"> start</text>
</g>
<!-- Node25 -->
<g id="node25" class="node">
<title>Node25</title>
<g id="a_node25"><a xlink:title=" ">
<polygon fill="white" stroke="#666666" points="495,-79 322,-79 322,-60 495,-60 495,-79"/>
<text text-anchor="middle" x="408.5" y="-67" font-family="Helvetica,sans-Serif" font-size="10.00">std::vector&lt; ccf::NewMember &gt;</text>
</a>
</g>
</g>
<!-- Node25&#45;&gt;Node24 -->
<g id="edge32" class="edge">
<title>Node25&#45;&gt;Node24</title>
<path fill="none" stroke="#9a32cd" stroke-dasharray="5,2" d="M505.28,-65.65C553.93,-63.69 611.32,-61.39 652.6,-59.73"/>
<polygon fill="#9a32cd" stroke="#9a32cd" points="504.89,-62.16 495.04,-66.06 505.17,-69.16 504.89,-62.16"/>
<text text-anchor="middle" x="567" y="-68.5" font-family="Helvetica,sans-Serif" font-size="10.00"> members</text>
</g>
<!-- Node26 -->
<g id="node26" class="node">
<title>Node26</title>
<g id="a_node26"><a xlink:href="structccf_1_1NewMember.html" target="_top" xlink:title=" ">
<polygon fill="white" stroke="#666666" points="234,-79 136,-79 136,-60 234,-60 234,-79"/>
<text text-anchor="middle" x="185" y="-67" font-family="Helvetica,sans-Serif" font-size="10.00">ccf::NewMember</text>
</a>
</g>
</g>
<!-- Node26&#45;&gt;Node25 -->
<g id="edge33" class="edge">
<title>Node26&#45;&gt;Node25</title>
<path fill="none" stroke="#9a32cd" stroke-dasharray="5,2" d="M244.26,-69.5C267.9,-69.5 295.69,-69.5 321.57,-69.5"/>
<polygon fill="#9a32cd" stroke="#9a32cd" points="244.06,-66 234.06,-69.5 244.06,-73 244.06,-66"/>
<text text-anchor="middle" x="279.5" y="-72.5" font-family="Helvetica,sans-Serif" font-size="10.00"> elements</text>
</g>
<!-- Node27 -->
<g id="node27" class="node">
<title>Node27</title>
<g id="a_node27"><a xlink:href="classcrypto_1_1Pem.html" target="_top" xlink:title=" ">
<polygon fill="white" stroke="#666666" points="75,-79 0,-79 0,-60 75,-60 75,-79"/>
<text text-anchor="middle" x="37.5" y="-67" font-family="Helvetica,sans-Serif" font-size="10.00">crypto::Pem</text>
</a>
</g>
</g>
<!-- Node27&#45;&gt;Node26 -->
<g id="edge34" class="edge">
<title>Node27&#45;&gt;Node26</title>
<path fill="none" stroke="#9a32cd" stroke-dasharray="5,2" d="M85.47,-69.5C101.55,-69.5 119.56,-69.5 135.74,-69.5"/>
<polygon fill="#9a32cd" stroke="#9a32cd" points="85.22,-66 75.22,-69.5 85.22,-73 85.22,-66"/>
<text text-anchor="middle" x="104" y="-72.5" font-family="Helvetica,sans-Serif" font-size="10.00"> cert</text>
</g>
<!-- Node28 -->
<g id="node28" class="node">
<title>Node28</title>
<g id="a_node28"><a xlink:href="structccf_1_1ServiceConfiguration.html" target="_top" xlink:title=" ">
<polygon fill="white" stroke="#666666" points="477,-42 340,-42 340,-23 477,-23 477,-42"/>
<text text-anchor="middle" x="408.5" y="-30" font-family="Helvetica,sans-Serif" font-size="10.00">ccf::ServiceConfiguration</text>
</a>
</g>
</g>
<!-- Node28&#45;&gt;Node24 -->
<g id="edge36" class="edge">
<title>Node28&#45;&gt;Node24</title>
<path fill="none" stroke="#9a32cd" stroke-dasharray="5,2" d="M487.43,-36.54C527.41,-38.9 576.86,-42.25 621,-46.5 631.31,-47.49 642.27,-48.73 652.83,-50.02"/>
<polygon fill="#9a32cd" stroke="#9a32cd" points="487.4,-33.04 477.21,-35.95 486.99,-40.02 487.4,-33.04"/>
<text text-anchor="middle" x="567" y="-49.5" font-family="Helvetica,sans-Serif" font-size="10.00"> service_configuration</text>
</g>
<!-- Node29&#45;&gt;Node6 -->
<g id="edge37" class="edge">
<title>Node29&#45;&gt;Node6</title>
<path fill="none" stroke="#9a32cd" stroke-dasharray="5,2" d="M1651.07,-119.96C1756.65,-130.78 1966.28,-152.26 2054.67,-161.32"/>
<polygon fill="#9a32cd" stroke="#9a32cd" points="1651.18,-116.46 1640.88,-118.92 1650.47,-123.42 1651.18,-116.46"/>
<text text-anchor="middle" x="1863" y="-152.5" font-family="Helvetica,sans-Serif" font-size="10.00"> join</text>
</g>
<!-- Node30 -->
<g id="node30" class="node">
<title>Node30</title>
<g id="a_node30"><a xlink:title=" ">
<polygon fill="white" stroke="#666666" points="1323,-95 1198,-95 1198,-76 1323,-76 1323,-95"/>
<text text-anchor="middle" x="1260.5" y="-83" font-family="Helvetica,sans-Serif" font-size="10.00">std::vector&lt; uint8_t &gt;</text>
</a>
</g>
</g>
<!-- Node30&#45;&gt;Node29 -->
<g id="edge39" class="edge">
<title>Node30&#45;&gt;Node29</title>
<path fill="none" stroke="#9a32cd" stroke-dasharray="5,2" d="M1333.02,-78.4C1378.29,-75.42 1437.9,-74.3 1490,-82.5 1515.78,-86.56 1544.07,-96.39 1563.22,-103.91"/>
<polygon fill="#9a32cd" stroke="#9a32cd" points="1332.73,-74.91 1323,-79.1 1333.22,-81.89 1332.73,-74.91"/>
<text text-anchor="middle" x="1421.5" y="-85.5" font-family="Helvetica,sans-Serif" font-size="10.00"> service_cert</text>
</g>
<!-- Node31 -->
<g id="node31" class="node">
<title>Node31</title>
<g id="a_node31"><a xlink:href="structStartupConfig_1_1Recover.html" target="_top" xlink:title=" ">
<polygon fill="white" stroke="#666666" points="1927,-19 1799,-19 1799,0 1927,0 1927,-19"/>
<text text-anchor="middle" x="1863" y="-7" font-family="Helvetica,sans-Serif" font-size="10.00">StartupConfig::Recover</text>
</a>
</g>
</g>
<!-- Node31&#45;&gt;Node6 -->
<g id="edge40" class="edge">
<title>Node31&#45;&gt;Node6</title>
<path fill="none" stroke="#9a32cd" stroke-dasharray="5,2" d="M1937.22,-4.91C1958.68,-6.53 1981.37,-11.37 2000,-22.5 2053.3,-54.35 2083.03,-128.85 2092.31,-155.66"/>
<polygon fill="#9a32cd" stroke="#9a32cd" points="1937.3,-1.41 1927.13,-4.38 1936.93,-8.4 1937.3,-1.41"/>
<text text-anchor="middle" x="1975.5" y="-25.5" font-family="Helvetica,sans-Serif" font-size="10.00"> recover</text>
</g>
<!-- Node32 -->
<g id="node32" class="node">
<title>Node32</title>
<g id="a_node32"><a xlink:title=" ">
<polygon fill="white" stroke="#666666" points="2174.5,-352 2018.5,-352 2018.5,-311 2174.5,-311 2174.5,-352"/>
<text text-anchor="start" x="2026.5" y="-340" font-family="Helvetica,sans-Serif" font-size="10.00">std::map&lt; NodeInfoNetwork</text>
<text text-anchor="start" x="2026.5" y="-329" font-family="Helvetica,sans-Serif" font-size="10.00">::RpcInterfaceID, std::</text>
<text text-anchor="middle" x="2096.5" y="-318" font-family="Helvetica,sans-Serif" font-size="10.00">vector&lt; std::regex &gt; &gt;</text>
</a>
</g>
</g>
<!-- Node32&#45;&gt;Node5 -->
<g id="edge41" class="edge">
<title>Node32&#45;&gt;Node5</title>
<path fill="none" stroke="#9a32cd" stroke-dasharray="5,2" d="M2184.54,-326.7C2230.68,-324.16 2286.8,-321.07 2330.99,-318.63"/>
<polygon fill="#9a32cd" stroke="#9a32cd" points="2184.34,-323.21 2174.55,-327.25 2184.73,-330.2 2184.34,-323.21"/>
<text text-anchor="middle" x="2248.5" y="-329.5" font-family="Helvetica,sans-Serif" font-size="10.00"> rpc_interface_regexes</text>
</g>
<!-- Node33 -->
<g id="node33" class="node">
<title>Node33</title>
<g id="a_node33"><a xlink:title=" ">
<polygon fill="white" stroke="#666666" points="1933,-474 1793,-474 1793,-455 1933,-455 1933,-474"/>
<text text-anchor="middle" x="1863" y="-462" font-family="Helvetica,sans-Serif" font-size="10.00">std::vector&lt; std::regex &gt;</text>
</a>
</g>
</g>
<!-- Node33&#45;&gt;Node32 -->
<g id="edge42" class="edge">
<title>Node33&#45;&gt;Node32</title>
<path fill="none" stroke="#9a32cd" stroke-dasharray="5,2" d="M1943.41,-465.52C1964.01,-462.05 1984.68,-454.73 2000,-440.5 2023.85,-418.34 1997.49,-394.78 2018,-369.5 2023.57,-362.63 2030.69,-356.91 2038.35,-352.18"/>
<polygon fill="#9a32cd" stroke="#9a32cd" points="1942.75,-462.08 1933.33,-466.92 1943.72,-469.01 1942.75,-462.08"/>
<text text-anchor="middle" x="1975.5" y="-465.5" font-family="Helvetica,sans-Serif" font-size="10.00"> elements</text>
</g>
</g>
</svg>
