<?xml version="1.0" encoding="UTF-8" standalone="no"?>
<!DOCTYPE svg PUBLIC "-//W3C//DTD SVG 1.1//EN"
 "http://www.w3.org/Graphics/SVG/1.1/DTD/svg11.dtd">
<!-- Generated by graphviz version 2.43.0 (0)
 -->
<!-- Title: ccf::NodeRpcFrontend Pages: 1 -->
<svg width="3065pt" height="742pt"
 viewBox="0.00 0.00 3065.00 742.41" xmlns="http://www.w3.org/2000/svg" xmlns:xlink="http://www.w3.org/1999/xlink">
<g id="graph0" class="graph" transform="scale(1 1) rotate(0) translate(4 738.41)">
<title>ccf::NodeRpcFrontend</title>
<!-- Node1 -->
<g id="node1" class="node">
<title>Node1</title>
<g id="a_node1"><a xlink:title=" ">
<polygon fill="#999999" stroke="#666666" points="3057,-473.91 2935,-473.91 2935,-454.91 3057,-454.91 3057,-473.91"/>
<text text-anchor="middle" x="2996" y="-461.91" font-family="Helvetica,sans-Serif" font-size="10.00">ccf::NodeRpcFrontend</text>
</a>
</g>
</g>
<!-- Node2 -->
<g id="node2" class="node">
<title>Node2</title>
<g id="a_node2"><a xlink:href="classccf_1_1RpcFrontend.html" target="_top" xlink:title=" ">
<polygon fill="white" stroke="#666666" points="2447,-493.91 2350,-493.91 2350,-474.91 2447,-474.91 2447,-493.91"/>
<text text-anchor="middle" x="2398.5" y="-481.91" font-family="Helvetica,sans-Serif" font-size="10.00">ccf::RpcFrontend</text>
</a>
</g>
</g>
<!-- Node2&#45;&gt;Node1 -->
<g id="edge1" class="edge">
<title>Node2&#45;&gt;Node1</title>
<path fill="none" stroke="#63b8ff" d="M2457.37,-483.39C2553.06,-481.57 2750.24,-477.17 2917,-469.41 2922.83,-469.14 2928.9,-468.82 2934.97,-468.47"/>
<polygon fill="#63b8ff" stroke="#63b8ff" points="2457.26,-479.9 2447.32,-483.58 2457.39,-486.89 2457.26,-479.9"/>
</g>
<!-- Node3 -->
<g id="node3" class="node">
<title>Node3</title>
<g id="a_node3"><a xlink:href="classccf_1_1RpcHandler.html" target="_top" xlink:title=" ">
<polygon fill="white" stroke="#666666" points="2187.5,-532.91 2095.5,-532.91 2095.5,-513.91 2187.5,-513.91 2187.5,-532.91"/>
<text text-anchor="middle" x="2141.5" y="-520.91" font-family="Helvetica,sans-Serif" font-size="10.00">ccf::RpcHandler</text>
</a>
</g>
</g>
<!-- Node3&#45;&gt;Node2 -->
<g id="edge2" class="edge">
<title>Node3&#45;&gt;Node2</title>
<path fill="none" stroke="#63b8ff" d="M2197.92,-515.2C2230.31,-510.37 2271.98,-504.12 2309,-498.41 2322.22,-496.37 2336.55,-494.12 2349.74,-492.04"/>
<polygon fill="#63b8ff" stroke="#63b8ff" points="2197.12,-511.78 2187.74,-516.72 2198.15,-518.71 2197.12,-511.78"/>
</g>
<!-- Node4 -->
<g id="node4" class="node">
<title>Node4</title>
<g id="a_node4"><a xlink:href="classccf_1_1ForwardedRpcHandler.html" target="_top" xlink:title=" ">
<polygon fill="white" stroke="#666666" points="2213,-495.91 2070,-495.91 2070,-476.91 2213,-476.91 2213,-495.91"/>
<text text-anchor="middle" x="2141.5" y="-483.91" font-family="Helvetica,sans-Serif" font-size="10.00">ccf::ForwardedRpcHandler</text>
</a>
</g>
</g>
<!-- Node4&#45;&gt;Node2 -->
<g id="edge3" class="edge">
<title>Node4&#45;&gt;Node2</title>
<path fill="none" stroke="#63b8ff" d="M2223.31,-485.78C2264.89,-485.45 2314.16,-485.06 2349.67,-484.79"/>
<polygon fill="#63b8ff" stroke="#63b8ff" points="2223.17,-482.28 2213.19,-485.86 2223.22,-489.28 2223.17,-482.28"/>
</g>
<!-- Node5 -->
<g id="node5" class="node">
<title>Node5</title>
<g id="a_node5"><a xlink:href="classkv_1_1Store.html" target="_top" xlink:title=" ">
<polygon fill="white" stroke="#666666" points="2171,-577.91 2112,-577.91 2112,-558.91 2171,-558.91 2171,-577.91"/>
<text text-anchor="middle" x="2141.5" y="-565.91" font-family="Helvetica,sans-Serif" font-size="10.00">kv::Store</text>
</a>
</g>
</g>
<!-- Node5&#45;&gt;Node2 -->
<g id="edge4" class="edge">
<title>Node5&#45;&gt;Node2</title>
<path fill="none" stroke="#9a32cd" stroke-dasharray="5,2" d="M2181.2,-557.27C2215.08,-547.34 2265.54,-532.15 2309,-517.41 2330.74,-510.04 2355.17,-500.86 2372.85,-494.05"/>
<polygon fill="#9a32cd" stroke="#9a32cd" points="2179.86,-554.01 2171.24,-560.17 2181.82,-560.73 2179.86,-554.01"/>
<text text-anchor="middle" x="2274" y="-541.41" font-family="Helvetica,sans-Serif" font-size="10.00"> tables</text>
</g>
<!-- Node6 -->
<g id="node6" class="node">
<title>Node6</title>
<g id="a_node6"><a xlink:href="classkv_1_1AbstractStore.html" target="_top" xlink:title=" ">
<polygon fill="white" stroke="#666666" points="1907,-540.91 1807,-540.91 1807,-521.91 1907,-521.91 1907,-540.91"/>
<text text-anchor="middle" x="1857" y="-528.91" font-family="Helvetica,sans-Serif" font-size="10.00">kv::AbstractStore</text>
</a>
</g>
</g>
<!-- Node6&#45;&gt;Node5 -->
<g id="edge5" class="edge">
<title>Node6&#45;&gt;Node5</title>
<path fill="none" stroke="#63b8ff" d="M1917.24,-539.17C1976.82,-546.97 2066.19,-558.68 2111.68,-564.64"/>
<polygon fill="#63b8ff" stroke="#63b8ff" points="1917.58,-535.68 1907.21,-537.86 1916.67,-542.62 1917.58,-535.68"/>
</g>
<!-- Node7 -->
<g id="node7" class="node">
<title>Node7</title>
<g id="a_node7"><a xlink:href="classkv_1_1StoreState.html" target="_top" xlink:title=" ">
<polygon fill="white" stroke="#666666" points="1899.5,-651.91 1814.5,-651.91 1814.5,-632.91 1899.5,-632.91 1899.5,-651.91"/>
<text text-anchor="middle" x="1857" y="-639.91" font-family="Helvetica,sans-Serif" font-size="10.00">kv::StoreState</text>
</a>
</g>
</g>
<!-- Node7&#45;&gt;Node5 -->
<g id="edge6" class="edge">
<title>Node7&#45;&gt;Node5</title>
<path fill="none" stroke="#63b8ff" d="M1909.62,-631.09C1919.69,-628.88 1930.18,-626.57 1940,-624.41 1986.23,-614.22 1998.42,-614.2 2044,-601.41 2068.38,-594.57 2095.63,-585.07 2114.94,-578.03"/>
<polygon fill="#63b8ff" stroke="#63b8ff" points="1908.74,-627.7 1899.72,-633.27 1910.24,-634.54 1908.74,-627.7"/>
</g>
<!-- Node8 -->
<g id="node8" class="node">
<title>Node8</title>
<g id="a_node8"><a xlink:title=" ">
<polygon fill="white" stroke="#666666" points="1519,-527.91 1450,-527.91 1450,-508.91 1519,-508.91 1519,-527.91"/>
<text text-anchor="middle" x="1484.5" y="-515.91" font-family="Helvetica,sans-Serif" font-size="10.00">std::mutex</text>
</a>
</g>
</g>
<!-- Node8&#45;&gt;Node7 -->
<g id="edge7" class="edge">
<title>Node8&#45;&gt;Node7</title>
<path fill="none" stroke="#9a32cd" stroke-dasharray="5,2" d="M1529.27,-512.78C1597.05,-505.1 1723.04,-495.28 1756,-523.41 1790.68,-553.01 1742.41,-591.54 1774,-624.41 1784.4,-635.23 1799.71,-640.26 1814.29,-642.41"/>
<polygon fill="#9a32cd" stroke="#9a32cd" points="1528.84,-509.31 1519.31,-513.94 1529.65,-516.26 1528.84,-509.31"/>
<text text-anchor="middle" x="1668" y="-548.41" font-family="Helvetica,sans-Serif" font-size="10.00"> commit_lock</text>
<text text-anchor="middle" x="1668" y="-537.41" font-family="Helvetica,sans-Serif" font-size="10.00">maps_lock</text>
<text text-anchor="middle" x="1668" y="-526.41" font-family="Helvetica,sans-Serif" font-size="10.00">version_lock</text>
</g>
<!-- Node17 -->
<g id="node17" class="node">
<title>Node17</title>
<g id="a_node17"><a xlink:href="classccf_1_1endpoints_1_1EndpointRegistry.html" target="_top" xlink:title=" ">
<polygon fill="white" stroke="#666666" points="2208,-283.41 2075,-283.41 2075,-253.41 2208,-253.41 2208,-283.41"/>
<text text-anchor="start" x="2083" y="-271.41" font-family="Helvetica,sans-Serif" font-size="10.00">ccf::endpoints::Endpoint</text>
<text text-anchor="middle" x="2141.5" y="-260.41" font-family="Helvetica,sans-Serif" font-size="10.00">Registry</text>
</a>
</g>
</g>
<!-- Node8&#45;&gt;Node17 -->
<g id="edge41" class="edge">
<title>Node8&#45;&gt;Node17</title>
<path fill="none" stroke="#9a32cd" stroke-dasharray="5,2" d="M1529.29,-512.73C1545.25,-510.69 1563.43,-508.41 1580,-506.41 1739.88,-487.16 1787.97,-518.51 1940,-465.41 1991.46,-447.44 2004.08,-437.53 2044,-400.41 2083.08,-364.07 2116.81,-309.92 2131.96,-283.71"/>
<polygon fill="#9a32cd" stroke="#9a32cd" points="1528.64,-509.29 1519.16,-514.03 1529.53,-516.23 1528.64,-509.29"/>
<text text-anchor="middle" x="1857" y="-500.41" font-family="Helvetica,sans-Serif" font-size="10.00"> metrics_lock</text>
</g>
<!-- Node9 -->
<g id="node9" class="node">
<title>Node9</title>
<g id="a_node9"><a xlink:title=" ">
<polygon fill="white" stroke="#666666" points="693,-629.41 550,-629.41 550,-577.41 693,-577.41 693,-629.41"/>
<text text-anchor="start" x="558" y="-617.41" font-family="Helvetica,sans-Serif" font-size="10.00">std::map&lt; std::string,</text>
<text text-anchor="start" x="558" y="-606.41" font-family="Helvetica,sans-Serif" font-size="10.00"> std::pair&lt; kv::Version,</text>
<text text-anchor="start" x="558" y="-595.41" font-family="Helvetica,sans-Serif" font-size="10.00"> std::shared_ptr&lt; untyped</text>
<text text-anchor="middle" x="621.5" y="-584.41" font-family="Helvetica,sans-Serif" font-size="10.00">::Map &gt; &gt; &gt;</text>
</a>
</g>
</g>
<!-- Node9&#45;&gt;Node7 -->
<g id="edge8" class="edge">
<title>Node9&#45;&gt;Node7</title>
<path fill="none" stroke="#9a32cd" stroke-dasharray="5,2" d="M703.08,-624C765.52,-638.16 854.43,-654.41 933.5,-654.41 933.5,-654.41 933.5,-654.41 1485.5,-654.41 1604.88,-654.41 1745.79,-648.11 1814.34,-644.64"/>
<polygon fill="#9a32cd" stroke="#9a32cd" points="703.82,-620.58 693.29,-621.75 702.25,-627.4 703.82,-620.58"/>
<text text-anchor="middle" x="1112" y="-657.41" font-family="Helvetica,sans-Serif" font-size="10.00"> maps</text>
</g>
<!-- Node10 -->
<g id="node10" class="node">
<title>Node10</title>
<g id="a_node10"><a xlink:title=" ">
<polygon fill="white" stroke="#666666" points="220.5,-300.91 155.5,-300.91 155.5,-281.91 220.5,-281.91 220.5,-300.91"/>
<text text-anchor="middle" x="188" y="-288.91" font-family="Helvetica,sans-Serif" font-size="10.00">std::string</text>
</a>
</g>
</g>
<!-- Node10&#45;&gt;Node9 -->
<g id="edge9" class="edge">
<title>Node10&#45;&gt;Node9</title>
<path fill="none" stroke="#9a32cd" stroke-dasharray="5,2" d="M189.35,-311.4C191.17,-351.2 201.18,-440.55 253,-487.41 264.77,-498.05 517.3,-542.44 532,-548.41 550.27,-555.83 569.03,-566.9 584.54,-577.17"/>
<polygon fill="#9a32cd" stroke="#9a32cd" points="192.84,-311.24 189.01,-301.36 185.85,-311.47 192.84,-311.24"/>
<text text-anchor="middle" x="298.5" y="-512.41" font-family="Helvetica,sans-Serif" font-size="10.00"> keys</text>
</g>
<!-- Node10&#45;&gt;Node17 -->
<g id="edge18" class="edge">
<title>Node10&#45;&gt;Node17</title>
<path fill="none" stroke="#9a32cd" stroke-dasharray="5,2" d="M212.27,-276.59C224.02,-269.85 238.78,-262.49 253,-258.41 281.97,-250.11 505.36,-241.71 550,-239.41 884.19,-222.22 967.87,-214.41 1302.5,-214.41 1302.5,-214.41 1302.5,-214.41 1858,-214.41 1941.39,-214.41 2036.2,-237.39 2092.04,-253.37"/>
<polygon fill="#9a32cd" stroke="#9a32cd" points="210.36,-273.65 203.56,-281.78 213.94,-279.67 210.36,-273.65"/>
<text text-anchor="middle" x="1112" y="-220.41" font-family="Helvetica,sans-Serif" font-size="10.00"> method_prefix</text>
</g>
<!-- Node19 -->
<g id="node19" class="node">
<title>Node19</title>
<g id="a_node19"><a xlink:href="structccf_1_1endpoints_1_1EndpointRegistry_1_1OpenApiInfo.html" target="_top" xlink:title=" ">
<polygon fill="white" stroke="#666666" points="688,-178.41 555,-178.41 555,-148.41 688,-148.41 688,-178.41"/>
<text text-anchor="start" x="563" y="-166.41" font-family="Helvetica,sans-Serif" font-size="10.00">ccf::endpoints::Endpoint</text>
<text text-anchor="middle" x="621.5" y="-155.41" font-family="Helvetica,sans-Serif" font-size="10.00">Registry::OpenApiInfo</text>
</a>
</g>
</g>
<!-- Node10&#45;&gt;Node19 -->
<g id="edge20" class="edge">
<title>Node10&#45;&gt;Node19</title>
<path fill="none" stroke="#9a32cd" stroke-dasharray="5,2" d="M192.01,-271.79C197.79,-241.68 213.59,-185.02 253,-160.41 301.57,-130.08 462.71,-143.76 554.67,-154.64"/>
<polygon fill="#9a32cd" stroke="#9a32cd" points="188.51,-271.45 190.25,-281.9 195.41,-272.65 188.51,-271.45"/>
<text text-anchor="middle" x="298.5" y="-185.41" font-family="Helvetica,sans-Serif" font-size="10.00"> description</text>
<text text-anchor="middle" x="298.5" y="-174.41" font-family="Helvetica,sans-Serif" font-size="10.00">document_version</text>
<text text-anchor="middle" x="298.5" y="-163.41" font-family="Helvetica,sans-Serif" font-size="10.00">title</text>
</g>
<!-- Node22 -->
<g id="node22" class="node">
<title>Node22</title>
<g id="a_node22"><a xlink:href="structccf_1_1endpoints_1_1EndpointDefinition.html" target="_top" xlink:title=" ">
<polygon fill="white" stroke="#666666" points="1178.5,-311.41 1045.5,-311.41 1045.5,-281.41 1178.5,-281.41 1178.5,-311.41"/>
<text text-anchor="start" x="1053.5" y="-299.41" font-family="Helvetica,sans-Serif" font-size="10.00">ccf::endpoints::Endpoint</text>
<text text-anchor="middle" x="1112" y="-288.41" font-family="Helvetica,sans-Serif" font-size="10.00">Definition</text>
</a>
</g>
</g>
<!-- Node10&#45;&gt;Node22 -->
<g id="edge27" class="edge">
<title>Node10&#45;&gt;Node22</title>
<path fill="none" stroke="#9a32cd" stroke-dasharray="5,2" d="M231.1,-291.64C377.79,-292.43 867.17,-295.09 1045.38,-296.05"/>
<polygon fill="#9a32cd" stroke="#9a32cd" points="230.76,-288.14 220.74,-291.58 230.72,-295.14 230.76,-288.14"/>
<text text-anchor="middle" x="621.5" y="-297.41" font-family="Helvetica,sans-Serif" font-size="10.00"> full_uri_path</text>
</g>
<!-- Node23 -->
<g id="node23" class="node">
<title>Node23</title>
<g id="a_node23"><a xlink:href="structccf_1_1endpoints_1_1EndpointKey.html" target="_top" xlink:title=" ">
<polygon fill="white" stroke="#666666" points="522.5,-434.91 371.5,-434.91 371.5,-415.91 522.5,-415.91 522.5,-434.91"/>
<text text-anchor="middle" x="447" y="-422.91" font-family="Helvetica,sans-Serif" font-size="10.00">ccf::endpoints::EndpointKey</text>
</a>
</g>
</g>
<!-- Node10&#45;&gt;Node23 -->
<g id="edge25" class="edge">
<title>Node10&#45;&gt;Node23</title>
<path fill="none" stroke="#9a32cd" stroke-dasharray="5,2" d="M196.08,-310.64C205.46,-333.28 224.25,-370.23 253,-389.41 287.59,-412.49 333.05,-421.75 371.15,-425.12"/>
<polygon fill="#9a32cd" stroke="#9a32cd" points="199.24,-309.12 192.32,-301.09 192.72,-311.67 199.24,-309.12"/>
<text text-anchor="middle" x="298.5" y="-424.41" font-family="Helvetica,sans-Serif" font-size="10.00"> uri_path</text>
</g>
<!-- Node25 -->
<g id="node25" class="node">
<title>Node25</title>
<g id="a_node25"><a xlink:href="structccf_1_1endpoints_1_1EndpointProperties.html" target="_top" xlink:title=" ">
<polygon fill="white" stroke="#666666" points="844.5,-350.41 711.5,-350.41 711.5,-320.41 844.5,-320.41 844.5,-350.41"/>
<text text-anchor="start" x="719.5" y="-338.41" font-family="Helvetica,sans-Serif" font-size="10.00">ccf::endpoints::Endpoint</text>
<text text-anchor="middle" x="778" y="-327.41" font-family="Helvetica,sans-Serif" font-size="10.00">Properties</text>
</a>
</g>
</g>
<!-- Node10&#45;&gt;Node25 -->
<g id="edge31" class="edge">
<title>Node10&#45;&gt;Node25</title>
<path fill="none" stroke="#9a32cd" stroke-dasharray="5,2" d="M208.37,-307.49C220.46,-316.62 236.75,-327.4 253,-333.41 298.81,-350.35 313.27,-344.03 362,-347.41 508.76,-357.58 546.39,-361.54 693,-349.41 698.89,-348.92 705,-348.25 711.1,-347.45"/>
<polygon fill="#9a32cd" stroke="#9a32cd" points="210.41,-304.64 200.38,-301.22 206.09,-310.15 210.41,-304.64"/>
<text text-anchor="middle" x="447" y="-371.41" font-family="Helvetica,sans-Serif" font-size="10.00"> js_function</text>
<text text-anchor="middle" x="447" y="-360.41" font-family="Helvetica,sans-Serif" font-size="10.00">js_module</text>
</g>
<!-- Node26 -->
<g id="node26" class="node">
<title>Node26</title>
<g id="a_node26"><a xlink:title=" ">
<polygon fill="white" stroke="#666666" points="517,-338.91 377,-338.91 377,-319.91 517,-319.91 517,-338.91"/>
<text text-anchor="middle" x="447" y="-326.91" font-family="Helvetica,sans-Serif" font-size="10.00">std::vector&lt; std::string &gt;</text>
</a>
</g>
</g>
<!-- Node10&#45;&gt;Node26 -->
<g id="edge30" class="edge">
<title>Node10&#45;&gt;Node26</title>
<path fill="none" stroke="#9a32cd" stroke-dasharray="5,2" d="M230.68,-301.11C238.09,-302.66 245.76,-304.17 253,-305.41 293.94,-312.42 340.09,-318.23 377,-322.38"/>
<polygon fill="#9a32cd" stroke="#9a32cd" points="231.3,-297.66 220.79,-298.97 229.82,-304.5 231.3,-297.66"/>
<text text-anchor="middle" x="298.5" y="-321.41" font-family="Helvetica,sans-Serif" font-size="10.00"> elements</text>
</g>
<!-- Node31 -->
<g id="node31" class="node">
<title>Node31</title>
<g id="a_node31"><a xlink:title=" ">
<polygon fill="white" stroke="#666666" points="1006,-127.91 863,-127.91 863,-86.91 1006,-86.91 1006,-127.91"/>
<text text-anchor="start" x="871" y="-115.91" font-family="Helvetica,sans-Serif" font-size="10.00">std::map&lt; std::string,</text>
<text text-anchor="start" x="871" y="-104.91" font-family="Helvetica,sans-Serif" font-size="10.00"> std::map&lt; ccf::RESTVerb,</text>
<text text-anchor="middle" x="934.5" y="-93.91" font-family="Helvetica,sans-Serif" font-size="10.00"> EndpointPtr &gt; &gt;</text>
</a>
</g>
</g>
<!-- Node10&#45;&gt;Node31 -->
<g id="edge38" class="edge">
<title>Node10&#45;&gt;Node31</title>
<path fill="none" stroke="#9a32cd" stroke-dasharray="5,2" d="M191.09,-271.19C195.72,-237.74 210.09,-171.42 253,-139.41 347.62,-68.82 708.46,-88.86 862.8,-101.11"/>
<polygon fill="#9a32cd" stroke="#9a32cd" points="187.57,-271.19 189.83,-281.54 194.51,-272.04 187.57,-271.19"/>
<text text-anchor="middle" x="447" y="-106.41" font-family="Helvetica,sans-Serif" font-size="10.00"> keys</text>
</g>
<!-- Node32 -->
<g id="node32" class="node">
<title>Node32</title>
<g id="a_node32"><a xlink:title=" ">
<polygon fill="white" stroke="#666666" points="1389,-83.41 1218,-83.41 1218,-31.41 1389,-31.41 1389,-83.41"/>
<text text-anchor="start" x="1226" y="-71.41" font-family="Helvetica,sans-Serif" font-size="10.00">std::map&lt; std::string,</text>
<text text-anchor="start" x="1226" y="-60.41" font-family="Helvetica,sans-Serif" font-size="10.00"> std::map&lt; ccf::RESTVerb,</text>
<text text-anchor="start" x="1226" y="-49.41" font-family="Helvetica,sans-Serif" font-size="10.00"> std::shared_ptr&lt; ccf::endpoints</text>
<text text-anchor="middle" x="1303.5" y="-38.41" font-family="Helvetica,sans-Serif" font-size="10.00">::PathTemplatedEndpoint &gt; &gt; &gt;</text>
</a>
</g>
</g>
<!-- Node10&#45;&gt;Node32 -->
<g id="edge40" class="edge">
<title>Node10&#45;&gt;Node32</title>
<path fill="none" stroke="#9a32cd" stroke-dasharray="5,2" d="M189.63,-271.37C191.98,-232.59 202.9,-147.18 253,-102.41 318.46,-43.92 358.21,-60.41 446,-60.41 446,-60.41 446,-60.41 935.5,-60.41 1032.35,-60.41 1143.57,-59.35 1217.96,-58.49"/>
<polygon fill="#9a32cd" stroke="#9a32cd" points="186.11,-271.65 189.14,-281.81 193.1,-271.98 186.11,-271.65"/>
<text text-anchor="middle" x="621.5" y="-63.41" font-family="Helvetica,sans-Serif" font-size="10.00"> keys</text>
</g>
<!-- Node33 -->
<g id="node33" class="node">
<title>Node33</title>
<g id="a_node33"><a xlink:title=" ">
<polygon fill="white" stroke="#666666" points="1756,-284.41 1580,-284.41 1580,-232.41 1756,-232.41 1756,-284.41"/>
<text text-anchor="start" x="1588" y="-272.41" font-family="Helvetica,sans-Serif" font-size="10.00">std::map&lt; std::string,</text>
<text text-anchor="start" x="1588" y="-261.41" font-family="Helvetica,sans-Serif" font-size="10.00"> std::map&lt; std::string,</text>
<text text-anchor="start" x="1588" y="-250.41" font-family="Helvetica,sans-Serif" font-size="10.00"> ccf::endpoints::EndpointRegistry</text>
<text text-anchor="middle" x="1668" y="-239.41" font-family="Helvetica,sans-Serif" font-size="10.00">::Metrics &gt; &gt;</text>
</a>
</g>
</g>
<!-- Node10&#45;&gt;Node33 -->
<g id="edge43" class="edge">
<title>Node10&#45;&gt;Node33</title>
<path fill="none" stroke="#9a32cd" stroke-dasharray="5,2" d="M230.74,-281.39C281.36,-270.13 369.41,-253.41 446,-253.41 446,-253.41 446,-253.41 1304.5,-253.41 1398.6,-253.41 1506.42,-255.12 1579.84,-256.53"/>
<polygon fill="#9a32cd" stroke="#9a32cd" points="229.81,-278.01 220.83,-283.63 231.35,-284.84 229.81,-278.01"/>
<text text-anchor="middle" x="778" y="-256.41" font-family="Helvetica,sans-Serif" font-size="10.00"> keys</text>
</g>
<!-- Node38 -->
<g id="node38" class="node">
<title>Node38</title>
<g id="a_node38"><a xlink:title=" ">
<polygon fill="white" stroke="#666666" points="1940,-455.91 1774,-455.91 1774,-414.91 1940,-414.91 1940,-455.91"/>
<text text-anchor="start" x="1782" y="-443.91" font-family="Helvetica,sans-Serif" font-size="10.00">std::map&lt; std::string,</text>
<text text-anchor="start" x="1782" y="-432.91" font-family="Helvetica,sans-Serif" font-size="10.00"> std::shared_ptr&lt; ccf</text>
<text text-anchor="middle" x="1857" y="-421.91" font-family="Helvetica,sans-Serif" font-size="10.00">::AbstractNodeSubSystem &gt; &gt;</text>
</a>
</g>
</g>
<!-- Node10&#45;&gt;Node38 -->
<g id="edge49" class="edge">
<title>Node10&#45;&gt;Node38</title>
<path fill="none" stroke="#9a32cd" stroke-dasharray="5,2" d="M191.82,-311.24C197.44,-342.94 213.12,-404.67 253,-436.41 321.34,-490.8 358.66,-473.41 446,-473.41 446,-473.41 446,-473.41 1304.5,-473.41 1505.47,-473.41 1555.88,-466.93 1756,-448.41 1761.84,-447.87 1767.86,-447.25 1773.92,-446.58"/>
<polygon fill="#9a32cd" stroke="#9a32cd" points="195.23,-310.35 190.18,-301.03 188.31,-311.46 195.23,-310.35"/>
<text text-anchor="middle" x="934.5" y="-476.41" font-family="Helvetica,sans-Serif" font-size="10.00"> keys</text>
</g>
<!-- Node11 -->
<g id="node11" class="node">
<title>Node11</title>
<g id="a_node11"><a xlink:title=" ">
<polygon fill="white" stroke="#666666" points="104,-306.41 0,-306.41 0,-276.41 104,-276.41 104,-306.41"/>
<text text-anchor="start" x="8" y="-294.41" font-family="Helvetica,sans-Serif" font-size="10.00">std::basic_string&lt;</text>
<text text-anchor="middle" x="52" y="-283.41" font-family="Helvetica,sans-Serif" font-size="10.00"> Char &gt;</text>
</a>
</g>
</g>
<!-- Node11&#45;&gt;Node10 -->
<g id="edge10" class="edge">
<title>Node11&#45;&gt;Node10</title>
<path fill="none" stroke="#63b8ff" d="M114.32,-291.41C128.57,-291.41 143.16,-291.41 155.49,-291.41"/>
<polygon fill="#63b8ff" stroke="#63b8ff" points="114.04,-287.91 104.04,-291.41 114.04,-294.91 114.04,-287.91"/>
</g>
<!-- Node12 -->
<g id="node12" class="node">
<title>Node12</title>
<g id="a_node12"><a xlink:title=" ">
<polygon fill="white" stroke="#666666" points="1549.5,-625.91 1419.5,-625.91 1419.5,-606.91 1549.5,-606.91 1549.5,-625.91"/>
<text text-anchor="middle" x="1484.5" y="-613.91" font-family="Helvetica,sans-Serif" font-size="10.00">std::atomic&lt; Version &gt;</text>
</a>
</g>
</g>
<!-- Node12&#45;&gt;Node7 -->
<g id="edge11" class="edge">
<title>Node12&#45;&gt;Node7</title>
<path fill="none" stroke="#9a32cd" stroke-dasharray="5,2" d="M1559.95,-610.73C1614.59,-608.06 1690.39,-607.51 1756,-618.41 1764.32,-619.79 1765.87,-622.17 1774,-624.41 1787.07,-628.01 1801.46,-631.37 1814.5,-634.19"/>
<polygon fill="#9a32cd" stroke="#9a32cd" points="1559.46,-607.25 1549.66,-611.27 1559.83,-614.24 1559.46,-607.25"/>
<text text-anchor="middle" x="1668" y="-632.41" font-family="Helvetica,sans-Serif" font-size="10.00"> compacted</text>
<text text-anchor="middle" x="1668" y="-621.41" font-family="Helvetica,sans-Serif" font-size="10.00">version</text>
</g>
<!-- Node13 -->
<g id="node13" class="node">
<title>Node13</title>
<g id="a_node13"><a xlink:title=" ">
<polygon fill="white" stroke="#666666" points="1543.5,-588.91 1425.5,-588.91 1425.5,-569.91 1543.5,-569.91 1543.5,-588.91"/>
<text text-anchor="middle" x="1484.5" y="-576.91" font-family="Helvetica,sans-Serif" font-size="10.00">std::atomic&lt; Term &gt;</text>
</a>
</g>
</g>
<!-- Node13&#45;&gt;Node7 -->
<g id="edge12" class="edge">
<title>Node13&#45;&gt;Node7</title>
<path fill="none" stroke="#9a32cd" stroke-dasharray="5,2" d="M1538.54,-568.15C1596.45,-558.85 1689.74,-552.95 1756,-593.41 1769.6,-601.71 1761.13,-615.02 1774,-624.41 1785.66,-632.92 1800.56,-637.54 1814.46,-640"/>
<polygon fill="#9a32cd" stroke="#9a32cd" points="1537.79,-564.72 1528.51,-569.85 1538.96,-571.63 1537.79,-564.72"/>
<text text-anchor="middle" x="1668" y="-596.41" font-family="Helvetica,sans-Serif" font-size="10.00"> term_of_next_version</text>
</g>
<!-- Node14 -->
<g id="node14" class="node">
<title>Node14</title>
<g id="a_node14"><a xlink:title=" ">
<polygon fill="white" stroke="#666666" points="1551.5,-734.41 1417.5,-734.41 1417.5,-682.41 1551.5,-682.41 1551.5,-734.41"/>
<text text-anchor="start" x="1425.5" y="-722.41" font-family="Helvetica,sans-Serif" font-size="10.00">std::unordered_map</text>
<text text-anchor="start" x="1425.5" y="-711.41" font-family="Helvetica,sans-Serif" font-size="10.00">&lt; Version, std::tuple</text>
<text text-anchor="start" x="1425.5" y="-700.41" font-family="Helvetica,sans-Serif" font-size="10.00">&lt; std::unique_ptr&lt; kv</text>
<text text-anchor="middle" x="1484.5" y="-689.41" font-family="Helvetica,sans-Serif" font-size="10.00">::PendingTx &gt;, bool &gt; &gt;</text>
</a>
</g>
</g>
<!-- Node14&#45;&gt;Node7 -->
<g id="edge13" class="edge">
<title>Node14&#45;&gt;Node7</title>
<path fill="none" stroke="#9a32cd" stroke-dasharray="5,2" d="M1561.97,-699.33C1616.35,-692.34 1690.99,-681.63 1756,-668.41 1778.5,-663.84 1803.5,-657.34 1822.88,-651.98"/>
<polygon fill="#9a32cd" stroke="#9a32cd" points="1561.19,-695.9 1551.71,-700.64 1562.08,-702.85 1561.19,-695.9"/>
<text text-anchor="middle" x="1668" y="-699.41" font-family="Helvetica,sans-Serif" font-size="10.00"> pending_txs</text>
</g>
<!-- Node15 -->
<g id="node15" class="node">
<title>Node15</title>
<g id="a_node15"><a xlink:href="classkv_1_1ExecutionWrapperStore.html" target="_top" xlink:title=" ">
<polygon fill="white" stroke="#666666" points="1931,-614.91 1783,-614.91 1783,-595.91 1931,-595.91 1931,-614.91"/>
<text text-anchor="middle" x="1857" y="-602.91" font-family="Helvetica,sans-Serif" font-size="10.00">kv::ExecutionWrapperStore</text>
</a>
</g>
</g>
<!-- Node15&#45;&gt;Node5 -->
<g id="edge14" class="edge">
<title>Node15&#45;&gt;Node5</title>
<path fill="none" stroke="#63b8ff" d="M1941.59,-595.45C1973.64,-591.54 2010.54,-586.91 2044,-582.41 2066.82,-579.35 2092.63,-575.59 2111.81,-572.73"/>
<polygon fill="#63b8ff" stroke="#63b8ff" points="1940.87,-592.02 1931.37,-596.7 1941.72,-598.96 1940.87,-592.02"/>
</g>
<!-- Node16 -->
<g id="node16" class="node">
<title>Node16</title>
<g id="a_node16"><a xlink:href="classkv_1_1ReadOnlyStore.html" target="_top" xlink:title=" ">
<polygon fill="white" stroke="#666666" points="1910.5,-577.91 1803.5,-577.91 1803.5,-558.91 1910.5,-558.91 1910.5,-577.91"/>
<text text-anchor="middle" x="1857" y="-565.91" font-family="Helvetica,sans-Serif" font-size="10.00">kv::ReadOnlyStore</text>
</a>
</g>
</g>
<!-- Node16&#45;&gt;Node5 -->
<g id="edge15" class="edge">
<title>Node16&#45;&gt;Node5</title>
<path fill="none" stroke="#63b8ff" d="M1920.85,-568.41C1980.39,-568.41 2067.13,-568.41 2111.7,-568.41"/>
<polygon fill="#63b8ff" stroke="#63b8ff" points="1920.8,-564.91 1910.8,-568.41 1920.8,-571.91 1920.8,-564.91"/>
</g>
<!-- Node17&#45;&gt;Node2 -->
<g id="edge16" class="edge">
<title>Node17&#45;&gt;Node2</title>
<path fill="none" stroke="#9a32cd" stroke-dasharray="5,2" d="M2166.89,-290.14C2186.26,-307.27 2214.12,-331.65 2239,-352.41 2269.59,-377.94 2284.12,-377.29 2309,-408.41 2320.42,-422.69 2314.41,-432.14 2327,-445.41 2339.42,-458.5 2357.22,-468.3 2371.83,-474.8"/>
<polygon fill="#9a32cd" stroke="#9a32cd" points="2169.2,-287.51 2159.4,-283.5 2164.56,-292.75 2169.2,-287.51"/>
<text text-anchor="middle" x="2274" y="-411.41" font-family="Helvetica,sans-Serif" font-size="10.00"> endpoints</text>
</g>
<!-- Node43 -->
<g id="node43" class="node">
<title>Node43</title>
<g id="a_node43"><a xlink:href="classccf_1_1BaseEndpointRegistry.html" target="_top" xlink:title=" ">
<polygon fill="white" stroke="#666666" points="2470,-435.91 2327,-435.91 2327,-416.91 2470,-416.91 2470,-435.91"/>
<text text-anchor="middle" x="2398.5" y="-423.91" font-family="Helvetica,sans-Serif" font-size="10.00">ccf::BaseEndpointRegistry</text>
</a>
</g>
</g>
<!-- Node17&#45;&gt;Node43 -->
<g id="edge55" class="edge">
<title>Node17&#45;&gt;Node43</title>
<path fill="none" stroke="#63b8ff" d="M2183.68,-287.95C2218.07,-304.85 2267.93,-330.71 2309,-357.41 2338.4,-376.53 2370.21,-402.87 2386.5,-416.83"/>
<polygon fill="#63b8ff" stroke="#63b8ff" points="2184.93,-284.67 2174.41,-283.43 2181.86,-290.96 2184.93,-284.67"/>
</g>
<!-- Node18 -->
<g id="node18" class="node">
<title>Node18</title>
<g id="a_node18"><a xlink:href="structccf_1_1endpoints_1_1Endpoint_1_1Installer.html" target="_top" xlink:title=" ">
<polygon fill="white" stroke="#666666" points="1178.5,-397.41 1045.5,-397.41 1045.5,-367.41 1178.5,-367.41 1178.5,-397.41"/>
<text text-anchor="start" x="1053.5" y="-385.41" font-family="Helvetica,sans-Serif" font-size="10.00">ccf::endpoints::Endpoint</text>
<text text-anchor="middle" x="1112" y="-374.41" font-family="Helvetica,sans-Serif" font-size="10.00">::Installer</text>
</a>
</g>
</g>
<!-- Node18&#45;&gt;Node17 -->
<g id="edge17" class="edge">
<title>Node18&#45;&gt;Node17</title>
<path fill="none" stroke="#63b8ff" d="M1188.73,-378.32C1378.95,-367.95 1866.87,-340.73 1940,-330.41 1986.87,-323.79 1998.79,-321.44 2044,-307.41 2065.4,-300.77 2088.71,-291.41 2107.06,-283.53"/>
<polygon fill="#63b8ff" stroke="#63b8ff" points="1188.33,-374.84 1178.54,-378.88 1188.71,-381.83 1188.33,-374.84"/>
</g>
<!-- Node21 -->
<g id="node21" class="node">
<title>Node21</title>
<g id="a_node21"><a xlink:href="structccf_1_1endpoints_1_1Endpoint.html" target="_top" xlink:title=" ">
<polygon fill="white" stroke="#666666" points="1551,-318.91 1418,-318.91 1418,-299.91 1551,-299.91 1551,-318.91"/>
<text text-anchor="middle" x="1484.5" y="-306.91" font-family="Helvetica,sans-Serif" font-size="10.00">ccf::endpoints::Endpoint</text>
</a>
</g>
</g>
<!-- Node18&#45;&gt;Node21 -->
<g id="edge35" class="edge">
<title>Node18&#45;&gt;Node21</title>
<path fill="none" stroke="#9a32cd" stroke-dasharray="5,2" d="M1176.8,-364.41C1184.63,-362.1 1192.51,-359.74 1200,-357.41 1208.05,-354.91 1209.78,-353.31 1218,-351.41 1292.7,-334.1 1313.37,-341.09 1389,-328.41 1405.34,-325.67 1423.17,-322.21 1438.9,-318.99"/>
<polygon fill="#9a32cd" stroke="#9a32cd" points="1175.56,-361.13 1166.94,-367.29 1177.52,-367.85 1175.56,-361.13"/>
<text text-anchor="middle" x="1303.5" y="-354.41" font-family="Helvetica,sans-Serif" font-size="10.00"> installer</text>
</g>
<!-- Node19&#45;&gt;Node17 -->
<g id="edge19" class="edge">
<title>Node19&#45;&gt;Node17</title>
<path fill="none" stroke="#9a32cd" stroke-dasharray="5,2" d="M698.53,-159.64C955.75,-147.76 1791.33,-116.7 2044,-200.41 2076.49,-211.18 2107.66,-236.83 2125.4,-253.37"/>
<polygon fill="#9a32cd" stroke="#9a32cd" points="698,-156.16 688.17,-160.12 698.32,-163.15 698,-156.16"/>
<text text-anchor="middle" x="1303.5" y="-148.41" font-family="Helvetica,sans-Serif" font-size="10.00"> openapi_info</text>
</g>
<!-- Node20 -->
<g id="node20" class="node">
<title>Node20</title>
<g id="a_node20"><a xlink:title=" ">
<polygon fill="white" stroke="#666666" points="1920.5,-321.41 1793.5,-321.41 1793.5,-291.41 1920.5,-291.41 1920.5,-321.41"/>
<text text-anchor="start" x="1801.5" y="-309.41" font-family="Helvetica,sans-Serif" font-size="10.00">std::shared_ptr&lt; const</text>
<text text-anchor="middle" x="1857" y="-298.41" font-family="Helvetica,sans-Serif" font-size="10.00"> Endpoint &gt;</text>
</a>
</g>
</g>
<!-- Node20&#45;&gt;Node17 -->
<g id="edge21" class="edge">
<title>Node20&#45;&gt;Node17</title>
<path fill="none" stroke="#9a32cd" stroke-dasharray="5,2" d="M1930.84,-296.61C1975.22,-290.64 2031.47,-283.08 2074.54,-277.28"/>
<polygon fill="#9a32cd" stroke="#9a32cd" points="1930.14,-293.18 1920.7,-297.98 1931.07,-300.11 1930.14,-293.18"/>
<text text-anchor="middle" x="2001" y="-295.41" font-family="Helvetica,sans-Serif" font-size="10.00"> default_endpoint</text>
</g>
<!-- Node21&#45;&gt;Node20 -->
<g id="edge22" class="edge">
<title>Node21&#45;&gt;Node20</title>
<path fill="none" stroke="#9a32cd" stroke-dasharray="5,2" d="M1561.59,-308.79C1630.01,-308.24 1729.31,-307.44 1793.27,-306.92"/>
<polygon fill="#9a32cd" stroke="#9a32cd" points="1561.28,-305.3 1551.31,-308.88 1561.34,-312.3 1561.28,-305.3"/>
<text text-anchor="middle" x="1668" y="-312.41" font-family="Helvetica,sans-Serif" font-size="10.00"> ptr</text>
</g>
<!-- Node22&#45;&gt;Node21 -->
<g id="edge23" class="edge">
<title>Node22&#45;&gt;Node21</title>
<path fill="none" stroke="#63b8ff" d="M1188.71,-294.19C1244.21,-293.17 1321.37,-293.01 1389,-297.41 1398.32,-298.02 1408.14,-298.94 1417.77,-300.01"/>
<polygon fill="#63b8ff" stroke="#63b8ff" points="1188.53,-290.69 1178.6,-294.39 1188.67,-297.69 1188.53,-290.69"/>
</g>
<!-- Node23&#45;&gt;Node22 -->
<g id="edge24" class="edge">
<title>Node23&#45;&gt;Node22</title>
<path fill="none" stroke="#9a32cd" stroke-dasharray="5,2" d="M532.95,-415.66C678.79,-398.46 965.12,-362.45 1006,-340.41 1016.53,-334.73 1013.83,-326.7 1024,-320.41 1030.53,-316.37 1037.75,-313 1045.15,-310.19"/>
<polygon fill="#9a32cd" stroke="#9a32cd" points="532.22,-412.23 522.7,-416.87 533.04,-419.18 532.22,-412.23"/>
<text text-anchor="middle" x="778" y="-395.41" font-family="Helvetica,sans-Serif" font-size="10.00"> dispatch</text>
</g>
<!-- Node24 -->
<g id="node24" class="node">
<title>Node24</title>
<g id="a_node24"><a xlink:href="classccf_1_1RESTVerb.html" target="_top" xlink:title=" ">
<polygon fill="white" stroke="#666666" points="229.5,-554.91 146.5,-554.91 146.5,-535.91 229.5,-535.91 229.5,-554.91"/>
<text text-anchor="middle" x="188" y="-542.91" font-family="Helvetica,sans-Serif" font-size="10.00">ccf::RESTVerb</text>
</a>
</g>
</g>
<!-- Node24&#45;&gt;Node23 -->
<g id="edge26" class="edge">
<title>Node24&#45;&gt;Node23</title>
<path fill="none" stroke="#9a32cd" stroke-dasharray="5,2" d="M239.8,-546C271.23,-544.52 311.62,-539.18 344,-523.41 387.71,-502.12 424.83,-455.14 439.4,-434.94"/>
<polygon fill="#9a32cd" stroke="#9a32cd" points="239.37,-542.51 229.5,-546.36 239.62,-549.51 239.37,-542.51"/>
<text text-anchor="middle" x="298.5" y="-547.41" font-family="Helvetica,sans-Serif" font-size="10.00"> verb</text>
</g>
<!-- Node25&#45;&gt;Node22 -->
<g id="edge28" class="edge">
<title>Node25&#45;&gt;Node22</title>
<path fill="none" stroke="#9a32cd" stroke-dasharray="5,2" d="M854.71,-326.52C912.18,-319.77 990.4,-310.58 1045.26,-304.13"/>
<polygon fill="#9a32cd" stroke="#9a32cd" points="854.12,-323.06 844.59,-327.71 854.93,-330.01 854.12,-323.06"/>
<text text-anchor="middle" x="934.5" y="-328.41" font-family="Helvetica,sans-Serif" font-size="10.00"> properties</text>
</g>
<!-- Node26&#45;&gt;Node25 -->
<g id="edge29" class="edge">
<title>Node26&#45;&gt;Node25</title>
<path fill="none" stroke="#9a32cd" stroke-dasharray="5,2" d="M527.66,-330.86C583.95,-331.89 658.49,-333.25 711.37,-334.21"/>
<polygon fill="#9a32cd" stroke="#9a32cd" points="527.43,-327.36 517.37,-330.68 527.3,-334.36 527.43,-327.36"/>
<text text-anchor="middle" x="621.5" y="-337.41" font-family="Helvetica,sans-Serif" font-size="10.00"> authn_policies</text>
</g>
<!-- Node27 -->
<g id="node27" class="node">
<title>Node27</title>
<g id="a_node27"><a xlink:title=" ">
<polygon fill="white" stroke="#666666" points="845,-445.41 711,-445.41 711,-415.41 845,-415.41 845,-445.41"/>
<text text-anchor="start" x="719" y="-433.41" font-family="Helvetica,sans-Serif" font-size="10.00">std::vector&lt; std::shared</text>
<text text-anchor="middle" x="778" y="-422.41" font-family="Helvetica,sans-Serif" font-size="10.00">_ptr&lt; AuthnPolicy &gt; &gt;</text>
</a>
</g>
</g>
<!-- Node27&#45;&gt;Node22 -->
<g id="edge32" class="edge">
<title>Node27&#45;&gt;Node22</title>
<path fill="none" stroke="#9a32cd" stroke-dasharray="5,2" d="M855.22,-429.47C912.4,-427.13 984.37,-420.18 1006,-400.41 1032.9,-375.82 998.85,-346.79 1024,-320.41 1029.95,-314.17 1037.35,-309.51 1045.32,-306.03"/>
<polygon fill="#9a32cd" stroke="#9a32cd" points="854.96,-425.97 845.09,-429.84 855.22,-432.97 854.96,-425.97"/>
<text text-anchor="middle" x="934.5" y="-431.41" font-family="Helvetica,sans-Serif" font-size="10.00"> authn_policies</text>
</g>
<!-- Node28 -->
<g id="node28" class="node">
<title>Node28</title>
<g id="a_node28"><a xlink:title=" ">
<polygon fill="white" stroke="#666666" points="532,-575.91 362,-575.91 362,-556.91 532,-556.91 532,-575.91"/>
<text text-anchor="middle" x="447" y="-563.91" font-family="Helvetica,sans-Serif" font-size="10.00">std::shared_ptr&lt; AuthnPolicy &gt;</text>
</a>
</g>
</g>
<!-- Node28&#45;&gt;Node27 -->
<g id="edge33" class="edge">
<title>Node28&#45;&gt;Node27</title>
<path fill="none" stroke="#9a32cd" stroke-dasharray="5,2" d="M480.39,-553.02C542.04,-527.54 675.85,-472.22 740.54,-445.48"/>
<polygon fill="#9a32cd" stroke="#9a32cd" points="479.04,-549.79 471.13,-556.85 481.71,-556.26 479.04,-549.79"/>
<text text-anchor="middle" x="621.5" y="-525.41" font-family="Helvetica,sans-Serif" font-size="10.00"> elements</text>
</g>
<!-- Node29 -->
<g id="node29" class="node">
<title>Node29</title>
<g id="a_node29"><a xlink:href="classccf_1_1AuthnPolicy.html" target="_top" xlink:title=" ">
<polygon fill="white" stroke="#666666" points="235,-591.91 141,-591.91 141,-572.91 235,-572.91 235,-591.91"/>
<text text-anchor="middle" x="188" y="-579.91" font-family="Helvetica,sans-Serif" font-size="10.00">ccf::AuthnPolicy</text>
</a>
</g>
</g>
<!-- Node29&#45;&gt;Node28 -->
<g id="edge34" class="edge">
<title>Node29&#45;&gt;Node28</title>
<path fill="none" stroke="#9a32cd" stroke-dasharray="5,2" d="M245.5,-578.89C279.63,-576.77 323.77,-574.02 361.94,-571.64"/>
<polygon fill="#9a32cd" stroke="#9a32cd" points="245.01,-575.42 235.24,-579.53 245.44,-582.4 245.01,-575.42"/>
<text text-anchor="middle" x="298.5" y="-580.41" font-family="Helvetica,sans-Serif" font-size="10.00"> ptr</text>
</g>
<!-- Node30 -->
<g id="node30" class="node">
<title>Node30</title>
<g id="a_node30"><a xlink:title=" ">
<polygon fill="white" stroke="#666666" points="1200,-348.91 1024,-348.91 1024,-329.91 1200,-329.91 1200,-348.91"/>
<text text-anchor="middle" x="1112" y="-336.91" font-family="Helvetica,sans-Serif" font-size="10.00">std::vector&lt; SchemaBuilderFn &gt;</text>
</a>
</g>
</g>
<!-- Node30&#45;&gt;Node21 -->
<g id="edge36" class="edge">
<title>Node30&#45;&gt;Node21</title>
<path fill="none" stroke="#9a32cd" stroke-dasharray="5,2" d="M1166.56,-327.76C1189.59,-322.83 1212.52,-318.06 1218,-317.41 1285.77,-309.35 1363.92,-307.94 1417.8,-308.18"/>
<polygon fill="#9a32cd" stroke="#9a32cd" points="1165.77,-324.35 1156.73,-329.87 1167.24,-331.19 1165.77,-324.35"/>
<text text-anchor="middle" x="1303.5" y="-320.41" font-family="Helvetica,sans-Serif" font-size="10.00"> schema_builders</text>
</g>
<!-- Node31&#45;&gt;Node17 -->
<g id="edge37" class="edge">
<title>Node31&#45;&gt;Node17</title>
<path fill="none" stroke="#9a32cd" stroke-dasharray="5,2" d="M1016.42,-104.98C1090.78,-102.96 1204.05,-100.41 1302.5,-100.41 1302.5,-100.41 1302.5,-100.41 1858,-100.41 1941.53,-100.41 1973.11,-83.22 2044,-127.41 2092.84,-157.85 2123.07,-223.13 2134.85,-252.96"/>
<polygon fill="#9a32cd" stroke="#9a32cd" points="1016.09,-101.49 1006.19,-105.26 1016.28,-108.49 1016.09,-101.49"/>
<text text-anchor="middle" x="1484.5" y="-103.41" font-family="Helvetica,sans-Serif" font-size="10.00"> fully_qualified_endpoints</text>
</g>
<!-- Node32&#45;&gt;Node17 -->
<g id="edge39" class="edge">
<title>Node32&#45;&gt;Node17</title>
<path fill="none" stroke="#9a32cd" stroke-dasharray="5,2" d="M1399.24,-33.22C1548.93,-0.72 1843.7,39.51 2044,-86.41 2105.46,-125.05 2130.13,-216.85 2137.71,-253.21"/>
<polygon fill="#9a32cd" stroke="#9a32cd" points="1398.16,-29.87 1389.15,-35.45 1399.67,-36.71 1398.16,-29.87"/>
<text text-anchor="middle" x="1668" y="-8.41" font-family="Helvetica,sans-Serif" font-size="10.00"> templated_endpoints</text>
</g>
<!-- Node33&#45;&gt;Node17 -->
<g id="edge42" class="edge">
<title>Node33&#45;&gt;Node17</title>
<path fill="none" stroke="#9a32cd" stroke-dasharray="5,2" d="M1766.22,-260.47C1858.52,-262.43 1994.73,-265.32 2074.86,-267.02"/>
<polygon fill="#9a32cd" stroke="#9a32cd" points="1766.1,-256.97 1756.03,-260.26 1765.95,-263.97 1766.1,-256.97"/>
<text text-anchor="middle" x="1857" y="-267.41" font-family="Helvetica,sans-Serif" font-size="10.00"> metrics</text>
</g>
<!-- Node34 -->
<g id="node34" class="node">
<title>Node34</title>
<g id="a_node34"><a xlink:href="classkv_1_1Consensus.html" target="_top" xlink:title=" ">
<polygon fill="white" stroke="#666666" points="1900,-396.91 1814,-396.91 1814,-377.91 1900,-377.91 1900,-396.91"/>
<text text-anchor="middle" x="1857" y="-384.91" font-family="Helvetica,sans-Serif" font-size="10.00">kv::Consensus</text>
</a>
</g>
</g>
<!-- Node34&#45;&gt;Node17 -->
<g id="edge44" class="edge">
<title>Node34&#45;&gt;Node17</title>
<path fill="none" stroke="#9a32cd" stroke-dasharray="5,2" d="M1910.09,-389.42C1948.85,-388.9 2002.08,-383.81 2044,-363.41 2082.05,-344.89 2114.3,-305.45 2130.1,-283.66"/>
<polygon fill="#9a32cd" stroke="#9a32cd" points="1910.05,-385.92 1900.06,-389.46 1910.08,-392.92 1910.05,-385.92"/>
<text text-anchor="middle" x="2001" y="-388.41" font-family="Helvetica,sans-Serif" font-size="10.00"> consensus</text>
</g>
<!-- Node35 -->
<g id="node35" class="node">
<title>Node35</title>
<g id="a_node35"><a xlink:href="classkv_1_1ConfigurableConsensus.html" target="_top" xlink:title=" ">
<polygon fill="white" stroke="#666666" points="1558.5,-396.91 1410.5,-396.91 1410.5,-377.91 1558.5,-377.91 1558.5,-396.91"/>
<text text-anchor="middle" x="1484.5" y="-384.91" font-family="Helvetica,sans-Serif" font-size="10.00">kv::ConfigurableConsensus</text>
</a>
</g>
</g>
<!-- Node35&#45;&gt;Node34 -->
<g id="edge45" class="edge">
<title>Node35&#45;&gt;Node34</title>
<path fill="none" stroke="#63b8ff" d="M1568.74,-387.41C1644.87,-387.41 1754.39,-387.41 1813.8,-387.41"/>
<polygon fill="#63b8ff" stroke="#63b8ff" points="1568.7,-383.91 1558.7,-387.41 1568.7,-390.91 1568.7,-383.91"/>
</g>
<!-- Node36 -->
<g id="node36" class="node">
<title>Node36</title>
<g id="a_node36"><a xlink:href="classkv_1_1TxHistory.html" target="_top" xlink:title=" ">
<polygon fill="white" stroke="#666666" points="1897.5,-147.91 1816.5,-147.91 1816.5,-128.91 1897.5,-128.91 1897.5,-147.91"/>
<text text-anchor="middle" x="1857" y="-135.91" font-family="Helvetica,sans-Serif" font-size="10.00">kv::TxHistory</text>
</a>
</g>
</g>
<!-- Node36&#45;&gt;Node17 -->
<g id="edge46" class="edge">
<title>Node36&#45;&gt;Node17</title>
<path fill="none" stroke="#9a32cd" stroke-dasharray="5,2" d="M1907.9,-131.59C1947.08,-128.58 2001.86,-129.72 2044,-151.41 2088.24,-174.19 2119.76,-227.11 2133.22,-253.24"/>
<polygon fill="#9a32cd" stroke="#9a32cd" points="1907.45,-128.12 1897.79,-132.49 1908.06,-135.09 1907.45,-128.12"/>
<text text-anchor="middle" x="2001" y="-154.41" font-family="Helvetica,sans-Serif" font-size="10.00"> history</text>
</g>
<!-- Node37 -->
<g id="node37" class="node">
<title>Node37</title>
<g id="a_node37"><a xlink:href="structccfapp_1_1AbstractNodeContext.html" target="_top" xlink:title=" ">
<polygon fill="white" stroke="#666666" points="2221,-458.91 2062,-458.91 2062,-439.91 2221,-439.91 2221,-458.91"/>
<text text-anchor="middle" x="2141.5" y="-446.91" font-family="Helvetica,sans-Serif" font-size="10.00">ccfapp::AbstractNodeContext</text>
</a>
</g>
</g>
<!-- Node37&#45;&gt;Node2 -->
<g id="edge47" class="edge">
<title>Node37&#45;&gt;Node2</title>
<path fill="none" stroke="#9a32cd" stroke-dasharray="5,2" d="M2231.6,-459.31C2256.67,-462.31 2283.93,-465.78 2309,-469.41 2322.26,-471.33 2336.6,-473.65 2349.8,-475.89"/>
<polygon fill="#9a32cd" stroke="#9a32cd" points="2231.71,-455.8 2221.37,-458.09 2230.89,-462.75 2231.71,-455.8"/>
<text text-anchor="middle" x="2274" y="-472.41" font-family="Helvetica,sans-Serif" font-size="10.00"> node_context</text>
</g>
<!-- Node37&#45;&gt;Node43 -->
<g id="edge56" class="edge">
<title>Node37&#45;&gt;Node43</title>
<path fill="none" stroke="#9a32cd" stroke-dasharray="5,2" d="M2186.02,-437.37C2202.48,-433.38 2221.47,-429.44 2239,-427.41 2267.57,-424.1 2299.22,-423.33 2326.68,-423.57"/>
<polygon fill="#9a32cd" stroke="#9a32cd" points="2184.98,-434.02 2176.13,-439.85 2186.68,-440.82 2184.98,-434.02"/>
<text text-anchor="middle" x="2274" y="-430.41" font-family="Helvetica,sans-Serif" font-size="10.00"> context</text>
</g>
<!-- Node38&#45;&gt;Node37 -->
<g id="edge48" class="edge">
<title>Node38&#45;&gt;Node37</title>
<path fill="none" stroke="#9a32cd" stroke-dasharray="5,2" d="M1950.11,-439.98C1986.11,-441.76 2026.99,-443.79 2061.61,-445.5"/>
<polygon fill="#9a32cd" stroke="#9a32cd" points="1950.25,-436.48 1940.09,-439.48 1949.9,-443.47 1950.25,-436.48"/>
<text text-anchor="middle" x="2001" y="-447.41" font-family="Helvetica,sans-Serif" font-size="10.00"> subsystems</text>
</g>
<!-- Node39 -->
<g id="node39" class="node">
<title>Node39</title>
<g id="a_node39"><a xlink:title=" ">
<polygon fill="white" stroke="#666666" points="1562,-445.41 1407,-445.41 1407,-415.41 1562,-415.41 1562,-445.41"/>
<text text-anchor="start" x="1415" y="-433.41" font-family="Helvetica,sans-Serif" font-size="10.00">std::shared_ptr&lt; ccf</text>
<text text-anchor="middle" x="1484.5" y="-422.41" font-family="Helvetica,sans-Serif" font-size="10.00">::AbstractNodeSubSystem &gt;</text>
</a>
</g>
</g>
<!-- Node39&#45;&gt;Node38 -->
<g id="edge50" class="edge">
<title>Node39&#45;&gt;Node38</title>
<path fill="none" stroke="#9a32cd" stroke-dasharray="5,2" d="M1572.62,-431.59C1633.46,-432.41 1714.15,-433.5 1773.87,-434.3"/>
<polygon fill="#9a32cd" stroke="#9a32cd" points="1572.31,-428.08 1562.27,-431.45 1572.22,-435.08 1572.31,-428.08"/>
<text text-anchor="middle" x="1668" y="-436.41" font-family="Helvetica,sans-Serif" font-size="10.00"> elements</text>
</g>
<!-- Node40 -->
<g id="node40" class="node">
<title>Node40</title>
<g id="a_node40"><a xlink:href="classccf_1_1AbstractNodeSubSystem.html" target="_top" xlink:title=" ">
<polygon fill="white" stroke="#666666" points="1190.5,-439.91 1033.5,-439.91 1033.5,-420.91 1190.5,-420.91 1190.5,-439.91"/>
<text text-anchor="middle" x="1112" y="-427.91" font-family="Helvetica,sans-Serif" font-size="10.00">ccf::AbstractNodeSubSystem</text>
</a>
</g>
</g>
<!-- Node40&#45;&gt;Node39 -->
<g id="edge51" class="edge">
<title>Node40&#45;&gt;Node39</title>
<path fill="none" stroke="#9a32cd" stroke-dasharray="5,2" d="M1200.93,-430.41C1263.58,-430.41 1346.96,-430.41 1406.89,-430.41"/>
<polygon fill="#9a32cd" stroke="#9a32cd" points="1200.67,-426.91 1190.67,-430.41 1200.67,-433.91 1200.67,-426.91"/>
<text text-anchor="middle" x="1303.5" y="-433.41" font-family="Helvetica,sans-Serif" font-size="10.00"> ptr</text>
</g>
<!-- Node41 -->
<g id="node41" class="node">
<title>Node41</title>
<g id="a_node41"><a xlink:href="classccf_1_1NodeEndpoints.html" target="_top" xlink:title=" ">
<polygon fill="white" stroke="#666666" points="2818,-454.91 2708,-454.91 2708,-435.91 2818,-435.91 2818,-454.91"/>
<text text-anchor="middle" x="2763" y="-442.91" font-family="Helvetica,sans-Serif" font-size="10.00">ccf::NodeEndpoints</text>
</a>
</g>
</g>
<!-- Node41&#45;&gt;Node1 -->
<g id="edge52" class="edge">
<title>Node41&#45;&gt;Node1</title>
<path fill="none" stroke="#9a32cd" stroke-dasharray="5,2" d="M2828.25,-450.7C2861.54,-453.43 2901.97,-456.76 2934.68,-459.45"/>
<polygon fill="#9a32cd" stroke="#9a32cd" points="2828.41,-447.2 2818.16,-449.87 2827.84,-454.17 2828.41,-447.2"/>
<text text-anchor="middle" x="2876.5" y="-460.41" font-family="Helvetica,sans-Serif" font-size="10.00"> node_endpoints</text>
</g>
<!-- Node42 -->
<g id="node42" class="node">
<title>Node42</title>
<g id="a_node42"><a xlink:href="classccf_1_1CommonEndpointRegistry.html" target="_top" xlink:title=" ">
<polygon fill="white" stroke="#666666" points="2671,-451.91 2507,-451.91 2507,-432.91 2671,-432.91 2671,-451.91"/>
<text text-anchor="middle" x="2589" y="-439.91" font-family="Helvetica,sans-Serif" font-size="10.00">ccf::CommonEndpointRegistry</text>
</a>
</g>
</g>
<!-- Node42&#45;&gt;Node41 -->
<g id="edge53" class="edge">
<title>Node42&#45;&gt;Node41</title>
<path fill="none" stroke="#63b8ff" d="M2681.36,-444C2690.33,-444.16 2699.22,-444.32 2707.64,-444.46"/>
<polygon fill="#63b8ff" stroke="#63b8ff" points="2681.27,-440.5 2671.22,-443.83 2681.15,-447.5 2681.27,-440.5"/>
</g>
<!-- Node43&#45;&gt;Node42 -->
<g id="edge54" class="edge">
<title>Node43&#45;&gt;Node42</title>
<path fill="none" stroke="#63b8ff" d="M2480.38,-433.28C2489.11,-434.02 2498,-434.77 2506.73,-435.51"/>
<polygon fill="#63b8ff" stroke="#63b8ff" points="2480.49,-429.77 2470.23,-432.41 2479.89,-436.75 2480.49,-429.77"/>
</g>
</g>
</svg>
