<?xml version="1.0" encoding="UTF-8" standalone="no"?>
<!DOCTYPE svg PUBLIC "-//W3C//DTD SVG 1.1//EN"
 "http://www.w3.org/Graphics/SVG/1.1/DTD/svg11.dtd">
<!-- Generated by graphviz version 2.43.0 (0)
 -->
<!-- Title: kv::untyped::Map Pages: 1 -->
<svg width="270pt" height="283pt"
 viewBox="0.00 0.00 270.00 283.00" xmlns="http://www.w3.org/2000/svg" xmlns:xlink="http://www.w3.org/1999/xlink">
<g id="graph0" class="graph" transform="scale(1 1) rotate(0) translate(4 279)">
<title>kv::untyped::Map</title>
<!-- Node1 -->
<g id="node1" class="node">
<title>Node1</title>
<g id="a_node1"><a xlink:title=" ">
<polygon fill="#999999" stroke="#666666" points="165.5,-19 64.5,-19 64.5,0 165.5,0 165.5,-19"/>
<text text-anchor="middle" x="115" y="-7" font-family="Helvetica,sans-Serif" font-size="10.00">kv::untyped::Map</text>
</a>
</g>
</g>
<!-- Node2 -->
<g id="node2" class="node">
<title>Node2</title>
<g id="a_node2"><a xlink:href="classkv_1_1AbstractMap.html" target="_top" xlink:title=" ">
<polygon fill="white" stroke="#666666" points="162.5,-75 67.5,-75 67.5,-56 162.5,-56 162.5,-75"/>
<text text-anchor="middle" x="115" y="-63" font-family="Helvetica,sans-Serif" font-size="10.00">kv::AbstractMap</text>
</a>
</g>
</g>
<!-- Node2&#45;&gt;Node1 -->
<g id="edge1" class="edge">
<title>Node2&#45;&gt;Node1</title>
<path fill="none" stroke="#63b8ff" d="M115,-45.3C115,-36.41 115,-26.28 115,-19.25"/>
<polygon fill="#63b8ff" stroke="#63b8ff" points="111.5,-45.58 115,-55.58 118.5,-45.58 111.5,-45.58"/>
</g>
<!-- Node3 -->
<g id="node3" class="node">
<title>Node3</title>
<g id="a_node3"><a xlink:title=" ">
<polygon fill="white" stroke="#666666" points="152,-142 0,-142 0,-112 152,-112 152,-142"/>
<text text-anchor="start" x="8" y="-130" font-family="Helvetica,sans-Serif" font-size="10.00">std::enable_shared</text>
<text text-anchor="middle" x="76" y="-119" font-family="Helvetica,sans-Serif" font-size="10.00">_from_this&lt; AbstractMap &gt;</text>
</a>
</g>
</g>
<!-- Node3&#45;&gt;Node2 -->
<g id="edge2" class="edge">
<title>Node3&#45;&gt;Node2</title>
<path fill="none" stroke="#63b8ff" d="M90.88,-103.3C97.33,-93.46 104.49,-82.53 109.33,-75.16"/>
<polygon fill="#63b8ff" stroke="#63b8ff" points="87.8,-101.62 85.24,-111.9 93.65,-105.45 87.8,-101.62"/>
</g>
<!-- Node4 -->
<g id="node4" class="node">
<title>Node4</title>
<g id="a_node4"><a xlink:href="structkv_1_1GetName.html" target="_top" xlink:title=" ">
<polygon fill="white" stroke="#666666" points="250,-136.5 170,-136.5 170,-117.5 250,-117.5 250,-136.5"/>
<text text-anchor="middle" x="210" y="-124.5" font-family="Helvetica,sans-Serif" font-size="10.00">kv::GetName</text>
</a>
</g>
</g>
<!-- Node4&#45;&gt;Node2 -->
<g id="edge3" class="edge">
<title>Node4&#45;&gt;Node2</title>
<path fill="none" stroke="#63b8ff" d="M187.79,-112.09C169.45,-100.6 144.02,-84.68 128.59,-75.01"/>
<polygon fill="#63b8ff" stroke="#63b8ff" points="186.06,-115.13 196.39,-117.48 189.77,-109.2 186.06,-115.13"/>
</g>
<!-- Node5 -->
<g id="node5" class="node">
<title>Node5</title>
<g id="a_node5"><a xlink:title=" ">
<polygon fill="white" stroke="#666666" points="242.5,-208 177.5,-208 177.5,-189 242.5,-189 242.5,-208"/>
<text text-anchor="middle" x="210" y="-196" font-family="Helvetica,sans-Serif" font-size="10.00">std::string</text>
</a>
</g>
</g>
<!-- Node5&#45;&gt;Node4 -->
<g id="edge4" class="edge">
<title>Node5&#45;&gt;Node4</title>
<path fill="none" stroke="#9a32cd" stroke-dasharray="5,2" d="M210,-178.71C210,-165 210,-147.05 210,-136.59"/>
<polygon fill="#9a32cd" stroke="#9a32cd" points="206.5,-178.98 210,-188.98 213.5,-178.98 206.5,-178.98"/>
<text text-anchor="middle" x="225.5" y="-163" font-family="Helvetica,sans-Serif" font-size="10.00"> name</text>
</g>
<!-- Node6 -->
<g id="node6" class="node">
<title>Node6</title>
<g id="a_node6"><a xlink:title=" ">
<polygon fill="white" stroke="#666666" points="262,-275 158,-275 158,-245 262,-245 262,-275"/>
<text text-anchor="start" x="166" y="-263" font-family="Helvetica,sans-Serif" font-size="10.00">std::basic_string&lt;</text>
<text text-anchor="middle" x="210" y="-252" font-family="Helvetica,sans-Serif" font-size="10.00"> Char &gt;</text>
</a>
</g>
</g>
<!-- Node6&#45;&gt;Node5 -->
<g id="edge5" class="edge">
<title>Node6&#45;&gt;Node5</title>
<path fill="none" stroke="#63b8ff" d="M210,-234.79C210,-225.36 210,-215.15 210,-208.16"/>
<polygon fill="#63b8ff" stroke="#63b8ff" points="206.5,-234.9 210,-244.9 213.5,-234.9 206.5,-234.9"/>
</g>
</g>
</svg>
