<?xml version="1.0" encoding="UTF-8" standalone="no"?>
<!DOCTYPE svg PUBLIC "-//W3C//DTD SVG 1.1//EN"
 "http://www.w3.org/Graphics/SVG/1.1/DTD/svg11.dtd">
<!-- Generated by graphviz version 2.43.0 (0)
 -->
<!-- Title: kv::ValueHandle&lt; V, VSerialiser, Unit &gt; Pages: 1 -->
<svg width="1126pt" height="231pt"
 viewBox="0.00 0.00 1126.00 230.50" xmlns="http://www.w3.org/2000/svg" xmlns:xlink="http://www.w3.org/1999/xlink">
<g id="graph0" class="graph" transform="scale(1 1) rotate(0) translate(4 226.5)">
<title>kv::ValueHandle&lt; V, VSerialiser, Unit &gt;</title>
<!-- Node1 -->
<g id="node1" class="node">
<title>Node1</title>
<g id="a_node1"><a xlink:title=" ">
<polygon fill="#999999" stroke="#666666" points="1118,-146 1002,-146 1002,-116 1118,-116 1118,-146"/>
<text text-anchor="start" x="1010" y="-134" font-family="Helvetica,sans-Serif" font-size="10.00">kv::ValueHandle&lt; V,</text>
<text text-anchor="middle" x="1060" y="-123" font-family="Helvetica,sans-Serif" font-size="10.00"> VSerialiser, Unit &gt;</text>
</a>
</g>
</g>
<!-- Node2 -->
<g id="node2" class="node">
<title>Node2</title>
<g id="a_node2"><a xlink:href="classkv_1_1AbstractHandle.html" target="_top" xlink:title=" ">
<polygon fill="white" stroke="#666666" points="477.5,-185.5 368.5,-185.5 368.5,-166.5 477.5,-166.5 477.5,-185.5"/>
<text text-anchor="middle" x="423" y="-173.5" font-family="Helvetica,sans-Serif" font-size="10.00">kv::AbstractHandle</text>
</a>
</g>
</g>
<!-- Node2&#45;&gt;Node1 -->
<g id="edge1" class="edge">
<title>Node2&#45;&gt;Node1</title>
<path fill="none" stroke="#63b8ff" d="M487.83,-173.89C591.93,-170.05 804.68,-160.56 984,-142 989.76,-141.4 995.76,-140.69 1001.73,-139.91"/>
<polygon fill="#63b8ff" stroke="#63b8ff" points="487.66,-170.39 477.79,-174.26 487.91,-177.39 487.66,-170.39"/>
</g>
<!-- Node4 -->
<g id="node4" class="node">
<title>Node4</title>
<g id="a_node4"><a xlink:href="classkv_1_1untyped_1_1MapHandle.html" target="_top" xlink:title=" ">
<polygon fill="white" stroke="#666666" points="719,-110.5 584,-110.5 584,-91.5 719,-91.5 719,-110.5"/>
<text text-anchor="middle" x="651.5" y="-98.5" font-family="Helvetica,sans-Serif" font-size="10.00">kv::untyped::MapHandle</text>
</a>
</g>
</g>
<!-- Node2&#45;&gt;Node4 -->
<g id="edge4" class="edge">
<title>Node2&#45;&gt;Node4</title>
<path fill="none" stroke="#63b8ff" d="M470.68,-163.8C498.57,-156.2 534.56,-145.83 566,-135 587.53,-127.58 611.57,-117.75 628.49,-110.57"/>
<polygon fill="#63b8ff" stroke="#63b8ff" points="469.54,-160.49 460.8,-166.48 471.37,-167.25 469.54,-160.49"/>
</g>
<!-- Node3 -->
<g id="node3" class="node">
<title>Node3</title>
<g id="a_node3"><a xlink:href="classkv_1_1ReadableValueHandle.html" target="_top" xlink:title=" ">
<polygon fill="white" stroke="#666666" points="964,-108 823,-108 823,-78 964,-78 964,-108"/>
<text text-anchor="start" x="831" y="-96" font-family="Helvetica,sans-Serif" font-size="10.00">kv::ReadableValueHandle</text>
<text text-anchor="middle" x="893.5" y="-85" font-family="Helvetica,sans-Serif" font-size="10.00">&lt; V, VSerialiser, Unit &gt;</text>
</a>
</g>
</g>
<!-- Node3&#45;&gt;Node1 -->
<g id="edge2" class="edge">
<title>Node3&#45;&gt;Node1</title>
<path fill="none" stroke="#63b8ff" d="M969.46,-110.32C980.36,-112.83 991.44,-115.39 1001.91,-117.81"/>
<polygon fill="#63b8ff" stroke="#63b8ff" points="970.05,-106.86 959.51,-108.02 968.47,-113.68 970.05,-106.86"/>
</g>
<!-- Node4&#45;&gt;Node1 -->
<g id="edge15" class="edge">
<title>Node4&#45;&gt;Node1</title>
<path fill="none" stroke="#9a32cd" stroke-dasharray="5,2" d="M729.36,-111.23C731.93,-111.5 734.49,-111.76 737,-112 829.54,-120.83 937.46,-126.2 1001.9,-128.88"/>
<polygon fill="#9a32cd" stroke="#9a32cd" points="729.66,-107.74 719.33,-110.13 728.89,-114.7 729.66,-107.74"/>
<text text-anchor="middle" x="893.5" y="-130" font-family="Helvetica,sans-Serif" font-size="10.00"> untyped_handle</text>
</g>
<!-- Node4&#45;&gt;Node3 -->
<g id="edge3" class="edge">
<title>Node4&#45;&gt;Node3</title>
<path fill="none" stroke="#9a32cd" stroke-dasharray="5,2" d="M729.07,-98.45C759.18,-97.44 793.51,-96.3 822.9,-95.32"/>
<polygon fill="#9a32cd" stroke="#9a32cd" points="728.91,-94.95 719.03,-98.78 729.15,-101.95 728.91,-94.95"/>
<text text-anchor="middle" x="770.5" y="-100" font-family="Helvetica,sans-Serif" font-size="10.00"> read_handle</text>
</g>
<!-- Node13 -->
<g id="node13" class="node">
<title>Node13</title>
<g id="a_node13"><a xlink:href="classkv_1_1WriteableValueHandle.html" target="_top" xlink:title=" ">
<polygon fill="white" stroke="#666666" points="965,-60 822,-60 822,-30 965,-30 965,-60"/>
<text text-anchor="start" x="830" y="-48" font-family="Helvetica,sans-Serif" font-size="10.00">kv::WriteableValueHandle</text>
<text text-anchor="middle" x="893.5" y="-37" font-family="Helvetica,sans-Serif" font-size="10.00">&lt; V, VSerialiser, Unit &gt;</text>
</a>
</g>
</g>
<!-- Node4&#45;&gt;Node13 -->
<g id="edge14" class="edge">
<title>Node4&#45;&gt;Node13</title>
<path fill="none" stroke="#9a32cd" stroke-dasharray="5,2" d="M702.28,-89.18C713.69,-86.48 725.76,-83.63 737,-81 766.54,-74.08 799.26,-66.5 827.04,-60.08"/>
<polygon fill="#9a32cd" stroke="#9a32cd" points="701.39,-85.79 692.47,-91.5 703,-92.6 701.39,-85.79"/>
<text text-anchor="middle" x="770.5" y="-84" font-family="Helvetica,sans-Serif" font-size="10.00"> write_handle</text>
</g>
<!-- Node5 -->
<g id="node5" class="node">
<title>Node5</title>
<g id="a_node5"><a xlink:href="structkv_1_1untyped_1_1ChangeSet.html" target="_top" xlink:title=" ">
<polygon fill="white" stroke="#666666" points="489,-142.5 357,-142.5 357,-123.5 489,-123.5 489,-142.5"/>
<text text-anchor="middle" x="423" y="-130.5" font-family="Helvetica,sans-Serif" font-size="10.00">kv::untyped::ChangeSet</text>
</a>
</g>
</g>
<!-- Node5&#45;&gt;Node4 -->
<g id="edge5" class="edge">
<title>Node5&#45;&gt;Node4</title>
<path fill="none" stroke="#9a32cd" stroke-dasharray="5,2" d="M499.12,-122.39C526.48,-118.52 557.21,-114.18 583.79,-110.43"/>
<polygon fill="#9a32cd" stroke="#9a32cd" points="498.62,-118.92 489.21,-123.79 499.6,-125.85 498.62,-118.92"/>
<text text-anchor="middle" x="536.5" y="-123" font-family="Helvetica,sans-Serif" font-size="10.00"> tx_changes</text>
</g>
<!-- Node6 -->
<g id="node6" class="node">
<title>Node6</title>
<g id="a_node6"><a xlink:href="classkv_1_1AbstractChangeSet.html" target="_top" xlink:title=" ">
<polygon fill="white" stroke="#666666" points="241,-222.5 114,-222.5 114,-203.5 241,-203.5 241,-222.5"/>
<text text-anchor="middle" x="177.5" y="-210.5" font-family="Helvetica,sans-Serif" font-size="10.00">kv::AbstractChangeSet</text>
</a>
</g>
</g>
<!-- Node6&#45;&gt;Node5 -->
<g id="edge6" class="edge">
<title>Node6&#45;&gt;Node5</title>
<path fill="none" stroke="#63b8ff" d="M251.3,-210.99C280.41,-207.35 313.1,-199.45 339,-183 350.56,-175.66 346.16,-166.36 357,-158 365.62,-151.35 376.21,-146.29 386.32,-142.52"/>
<polygon fill="#63b8ff" stroke="#63b8ff" points="250.73,-207.54 241.17,-212.11 251.49,-214.49 250.73,-207.54"/>
</g>
<!-- Node7 -->
<g id="node7" class="node">
<title>Node7</title>
<g id="a_node7"><a xlink:href="classchamp_1_1Map.html" target="_top" xlink:title=" ">
<polygon fill="white" stroke="#666666" points="243.5,-185.5 111.5,-185.5 111.5,-166.5 243.5,-166.5 243.5,-185.5"/>
<text text-anchor="middle" x="177.5" y="-173.5" font-family="Helvetica,sans-Serif" font-size="10.00">champ::Map&lt; K, V, H &gt;</text>
</a>
</g>
</g>
<!-- Node7&#45;&gt;Node5 -->
<g id="edge7" class="edge">
<title>Node7&#45;&gt;Node5</title>
<path fill="none" stroke="#9a32cd" stroke-dasharray="5,2" d="M243.56,-164.74C272.75,-159.67 307.61,-153.57 339,-148 348.8,-146.26 359.26,-144.38 369.32,-142.57"/>
<polygon fill="#9a32cd" stroke="#9a32cd" points="242.74,-161.33 233.48,-166.49 243.94,-168.23 242.74,-161.33"/>
<text text-anchor="middle" x="310.5" y="-171" font-family="Helvetica,sans-Serif" font-size="10.00"> committed</text>
<text text-anchor="middle" x="310.5" y="-160" font-family="Helvetica,sans-Serif" font-size="10.00">state</text>
</g>
<!-- Node8 -->
<g id="node8" class="node">
<title>Node8</title>
<g id="a_node8"><a xlink:title=" ">
<polygon fill="white" stroke="#666666" points="264,-148 91,-148 91,-118 264,-118 264,-148"/>
<text text-anchor="start" x="99" y="-136" font-family="Helvetica,sans-Serif" font-size="10.00">std::map&lt; K, std::tuple</text>
<text text-anchor="middle" x="177.5" y="-125" font-family="Helvetica,sans-Serif" font-size="10.00">&lt; Version, LastReadVersion &gt; &gt;</text>
</a>
</g>
</g>
<!-- Node8&#45;&gt;Node5 -->
<g id="edge8" class="edge">
<title>Node8&#45;&gt;Node5</title>
<path fill="none" stroke="#9a32cd" stroke-dasharray="5,2" d="M274.1,-133C301.75,-133 331.29,-133 356.64,-133"/>
<polygon fill="#9a32cd" stroke="#9a32cd" points="274.01,-129.5 264.01,-133 274.01,-136.5 274.01,-129.5"/>
<text text-anchor="middle" x="310.5" y="-136" font-family="Helvetica,sans-Serif" font-size="10.00"> reads</text>
</g>
<!-- Node9 -->
<g id="node9" class="node">
<title>Node9</title>
<g id="a_node9"><a xlink:title=" ">
<polygon fill="white" stroke="#666666" points="29,-142.5 0,-142.5 0,-123.5 29,-123.5 29,-142.5"/>
<text text-anchor="middle" x="14.5" y="-130.5" font-family="Helvetica,sans-Serif" font-size="10.00">K</text>
</a>
</g>
</g>
<!-- Node9&#45;&gt;Node8 -->
<g id="edge9" class="edge">
<title>Node9&#45;&gt;Node8</title>
<path fill="none" stroke="#9a32cd" stroke-dasharray="5,2" d="M39.32,-133C53.23,-133 71.72,-133 90.62,-133"/>
<polygon fill="#9a32cd" stroke="#9a32cd" points="39.23,-129.5 29.23,-133 39.23,-136.5 39.23,-129.5"/>
<text text-anchor="middle" x="60" y="-136" font-family="Helvetica,sans-Serif" font-size="10.00"> keys</text>
</g>
<!-- Node10 -->
<g id="node10" class="node">
<title>Node10</title>
<g id="a_node10"><a xlink:title=" ">
<polygon fill="white" stroke="#666666" points="248,-100 107,-100 107,-48 248,-48 248,-100"/>
<text text-anchor="start" x="115" y="-88" font-family="Helvetica,sans-Serif" font-size="10.00">std::map&lt; kv::serialisers</text>
<text text-anchor="start" x="115" y="-77" font-family="Helvetica,sans-Serif" font-size="10.00">::SerialisedEntry, std</text>
<text text-anchor="start" x="115" y="-66" font-family="Helvetica,sans-Serif" font-size="10.00">::optional&lt; kv::serialisers</text>
<text text-anchor="middle" x="177.5" y="-55" font-family="Helvetica,sans-Serif" font-size="10.00">::SerialisedEntry &gt; &gt;</text>
</a>
</g>
</g>
<!-- Node10&#45;&gt;Node5 -->
<g id="edge10" class="edge">
<title>Node10&#45;&gt;Node5</title>
<path fill="none" stroke="#9a32cd" stroke-dasharray="5,2" d="M258.15,-93.3C299.83,-103.4 349.03,-115.32 382.56,-123.44"/>
<polygon fill="#9a32cd" stroke="#9a32cd" points="258.82,-89.86 248.28,-90.91 257.17,-96.66 258.82,-89.86"/>
<text text-anchor="middle" x="310.5" y="-115" font-family="Helvetica,sans-Serif" font-size="10.00"> writes</text>
</g>
<!-- Node11 -->
<g id="node11" class="node">
<title>Node11</title>
<g id="a_node11"><a xlink:title=" ">
<polygon fill="white" stroke="#666666" points="455.5,-92.5 390.5,-92.5 390.5,-73.5 455.5,-73.5 455.5,-92.5"/>
<text text-anchor="middle" x="423" y="-80.5" font-family="Helvetica,sans-Serif" font-size="10.00">std::string</text>
</a>
</g>
</g>
<!-- Node11&#45;&gt;Node4 -->
<g id="edge11" class="edge">
<title>Node11&#45;&gt;Node4</title>
<path fill="none" stroke="#9a32cd" stroke-dasharray="5,2" d="M466.01,-82.19C494.33,-82.06 532.49,-82.69 566,-86 578.46,-87.23 591.83,-89.27 604.19,-91.45"/>
<polygon fill="#9a32cd" stroke="#9a32cd" points="465.64,-78.69 455.67,-82.27 465.69,-85.69 465.64,-78.69"/>
<text text-anchor="middle" x="536.5" y="-89" font-family="Helvetica,sans-Serif" font-size="10.00"> map_name</text>
</g>
<!-- Node12 -->
<g id="node12" class="node">
<title>Node12</title>
<g id="a_node12"><a xlink:title=" ">
<polygon fill="white" stroke="#666666" points="229.5,-30 125.5,-30 125.5,0 229.5,0 229.5,-30"/>
<text text-anchor="start" x="133.5" y="-18" font-family="Helvetica,sans-Serif" font-size="10.00">std::basic_string&lt;</text>
<text text-anchor="middle" x="177.5" y="-7" font-family="Helvetica,sans-Serif" font-size="10.00"> Char &gt;</text>
</a>
</g>
</g>
<!-- Node12&#45;&gt;Node11 -->
<g id="edge12" class="edge">
<title>Node12&#45;&gt;Node11</title>
<path fill="none" stroke="#63b8ff" d="M239.2,-31.95C287.16,-45.35 352.17,-63.5 390.35,-74.16"/>
<polygon fill="#63b8ff" stroke="#63b8ff" points="240.12,-28.57 229.55,-29.26 238.24,-35.32 240.12,-28.57"/>
</g>
<!-- Node13&#45;&gt;Node1 -->
<g id="edge13" class="edge">
<title>Node13&#45;&gt;Node1</title>
<path fill="none" stroke="#63b8ff" d="M953.41,-63.78C957.38,-65.43 961.28,-67.18 965,-69 992.21,-82.33 1020.93,-102.25 1039.36,-115.89"/>
<polygon fill="#63b8ff" stroke="#63b8ff" points="954.66,-60.51 944.07,-60.08 952.08,-67.02 954.66,-60.51"/>
</g>
</g>
</svg>
