<?xml version="1.0" encoding="UTF-8" standalone="no"?>
<!DOCTYPE svg PUBLIC "-//W3C//DTD SVG 1.1//EN"
 "http://www.w3.org/Graphics/SVG/1.1/DTD/svg11.dtd">
<!-- Generated by graphviz version 2.43.0 (0)
 -->
<!-- Title: http::Response Pages: 1 -->
<svg width="151pt" height="304pt"
 viewBox="0.00 0.00 151.00 304.00" xmlns="http://www.w3.org/2000/svg" xmlns:xlink="http://www.w3.org/1999/xlink">
<g id="graph0" class="graph" transform="scale(1 1) rotate(0) translate(4 300)">
<title>http::Response</title>
<!-- Node1 -->
<g id="node1" class="node">
<title>Node1</title>
<g id="a_node1"><a xlink:title=" ">
<polygon fill="#999999" stroke="#666666" points="116,-19 27,-19 27,0 116,0 116,-19"/>
<text text-anchor="middle" x="71.5" y="-7" font-family="Helvetica,sans-Serif" font-size="10.00">http::Response</text>
</a>
</g>
</g>
<!-- Node2 -->
<g id="node2" class="node">
<title>Node2</title>
<g id="a_node2"><a xlink:href="classhttp_1_1Message.html" target="_top" xlink:title=" ">
<polygon fill="white" stroke="#666666" points="114.5,-75 28.5,-75 28.5,-56 114.5,-56 114.5,-75"/>
<text text-anchor="middle" x="71.5" y="-63" font-family="Helvetica,sans-Serif" font-size="10.00">http::Message</text>
</a>
</g>
</g>
<!-- Node2&#45;&gt;Node1 -->
<g id="edge1" class="edge">
<title>Node2&#45;&gt;Node1</title>
<path fill="none" stroke="#63b8ff" d="M71.5,-45.3C71.5,-36.41 71.5,-26.28 71.5,-19.25"/>
<polygon fill="#63b8ff" stroke="#63b8ff" points="68,-45.58 71.5,-55.58 75,-45.58 68,-45.58"/>
</g>
<!-- Node3 -->
<g id="node3" class="node">
<title>Node3</title>
<g id="a_node3"><a xlink:title=" ">
<polygon fill="white" stroke="#666666" points="143,-152 0,-152 0,-122 143,-122 143,-152"/>
<text text-anchor="start" x="8" y="-140" font-family="Helvetica,sans-Serif" font-size="10.00">std::map&lt; std::string,</text>
<text text-anchor="middle" x="71.5" y="-129" font-family="Helvetica,sans-Serif" font-size="10.00"> std::string, std::less&lt;&gt; &gt;</text>
</a>
</g>
</g>
<!-- Node3&#45;&gt;Node2 -->
<g id="edge2" class="edge">
<title>Node3&#45;&gt;Node2</title>
<path fill="none" stroke="#9a32cd" stroke-dasharray="5,2" d="M71.5,-111.56C71.5,-98.95 71.5,-84.35 71.5,-75.27"/>
<polygon fill="#9a32cd" stroke="#9a32cd" points="68,-111.94 71.5,-121.94 75,-111.94 68,-111.94"/>
<text text-anchor="middle" x="93" y="-96" font-family="Helvetica,sans-Serif" font-size="10.00"> headers</text>
</g>
<!-- Node4 -->
<g id="node4" class="node">
<title>Node4</title>
<g id="a_node4"><a xlink:title=" ">
<polygon fill="white" stroke="#666666" points="104,-229 39,-229 39,-210 104,-210 104,-229"/>
<text text-anchor="middle" x="71.5" y="-217" font-family="Helvetica,sans-Serif" font-size="10.00">std::string</text>
</a>
</g>
</g>
<!-- Node4&#45;&gt;Node3 -->
<g id="edge3" class="edge">
<title>Node4&#45;&gt;Node3</title>
<path fill="none" stroke="#9a32cd" stroke-dasharray="5,2" d="M71.5,-199.6C71.5,-185.1 71.5,-165.4 71.5,-152.22"/>
<polygon fill="#9a32cd" stroke="#9a32cd" points="68,-199.89 71.5,-209.89 75,-199.89 68,-199.89"/>
<text text-anchor="middle" x="96" y="-184" font-family="Helvetica,sans-Serif" font-size="10.00"> elements</text>
<text text-anchor="middle" x="96" y="-173" font-family="Helvetica,sans-Serif" font-size="10.00">keys</text>
</g>
<!-- Node5 -->
<g id="node5" class="node">
<title>Node5</title>
<g id="a_node5"><a xlink:title=" ">
<polygon fill="white" stroke="#666666" points="123.5,-296 19.5,-296 19.5,-266 123.5,-266 123.5,-296"/>
<text text-anchor="start" x="27.5" y="-284" font-family="Helvetica,sans-Serif" font-size="10.00">std::basic_string&lt;</text>
<text text-anchor="middle" x="71.5" y="-273" font-family="Helvetica,sans-Serif" font-size="10.00"> Char &gt;</text>
</a>
</g>
</g>
<!-- Node5&#45;&gt;Node4 -->
<g id="edge4" class="edge">
<title>Node5&#45;&gt;Node4</title>
<path fill="none" stroke="#63b8ff" d="M71.5,-255.79C71.5,-246.36 71.5,-236.15 71.5,-229.16"/>
<polygon fill="#63b8ff" stroke="#63b8ff" points="68,-255.9 71.5,-265.9 75,-255.9 68,-255.9"/>
</g>
</g>
</svg>
