<?xml version="1.0" encoding="UTF-8" standalone="no"?>
<!DOCTYPE svg PUBLIC "-//W3C//DTD SVG 1.1//EN"
 "http://www.w3.org/Graphics/SVG/1.1/DTD/svg11.dtd">
<!-- Generated by graphviz version 2.43.0 (0)
 -->
<!-- Title: src/endpoints/authentication Pages: 1 -->
<svg width="295pt" height="117pt"
 viewBox="0.00 0.00 294.50 117.00" xmlns="http://www.w3.org/2000/svg" xmlns:xlink="http://www.w3.org/1999/xlink">
<g id="graph0" class="graph" transform="scale(1 1) rotate(0) translate(4 113)">
<title>src/endpoints/authentication</title>
<g id="clust1" class="cluster">
<title>clusterdir_a2b23ad3d4048fef2ffce6bed40d1385</title>
<g id="a_clust1"><a xlink:href="dir_a2b23ad3d4048fef2ffce6bed40d1385.html" target="_top" xlink:title="endpoints">
<polygon fill="#edf0f7" stroke="#7f7f7f" stroke-dasharray="5,2" points="72.5,-47 72.5,-101 176.5,-101 176.5,-47 72.5,-47"/>
<text text-anchor="middle" x="124.5" y="-89" font-family="Helvetica,sans-Serif" font-size="10.00">endpoints</text>
</a>
</g>
</g>
<!-- dir_100cae52b844ec0b520b7e5b8ea8fe4b -->
<g id="node1" class="node">
<title>dir_100cae52b844ec0b520b7e5b8ea8fe4b</title>
<g id="a_node1"><a xlink:href="dir_100cae52b844ec0b520b7e5b8ea8fe4b.html" target="_top" xlink:title="authentication">
<polygon fill="#edf0f7" stroke="#404040" stroke-width="2" points="168,-74 81,-74 81,-55 168,-55 168,-74"/>
<text text-anchor="middle" x="124.5" y="-62" font-family="Helvetica,sans-Serif" font-size="10.00">authentication</text>
</a>
</g>
</g>
<!-- dir_122f4add68bb94b3fee614989bbbd8f9 -->
<g id="node2" class="node">
<title>dir_122f4add68bb94b3fee614989bbbd8f9</title>
<g id="a_node2"><a xlink:href="dir_122f4add68bb94b3fee614989bbbd8f9.html" target="_top" xlink:title="ds">
<polygon fill="#edf0f7" stroke="#7f7f7f" points="29,-19 0,-19 0,0 29,0 29,-19"/>
<text text-anchor="middle" x="14.5" y="-7" font-family="Helvetica,sans-Serif" font-size="10.00">ds</text>
</a>
</g>
</g>
<!-- dir_100cae52b844ec0b520b7e5b8ea8fe4b&#45;&gt;dir_122f4add68bb94b3fee614989bbbd8f9 -->
<g id="edge1" class="edge">
<title>dir_100cae52b844ec0b520b7e5b8ea8fe4b&#45;&gt;dir_122f4add68bb94b3fee614989bbbd8f9</title>
<path fill="none" stroke="#63b8ff" d="M106.83,-54.98C88.27,-46.04 58.97,-31.93 38.37,-22"/>
<polygon fill="#63b8ff" stroke="#63b8ff" points="39.84,-18.82 29.31,-17.63 36.8,-25.13 39.84,-18.82"/>
<g id="a_edge1&#45;headlabel"><a xlink:href="dir_000005_000014.html" target="_top" xlink:title="2">
<text text-anchor="middle" x="44.31" y="-15.32" font-family="Helvetica,sans-Serif" font-size="10.00" fill="#63b8ff">2</text>
</a>
</g>
</g>
<!-- dir_18ae7af74d885898b85cbb543ae51b63 -->
<g id="node3" class="node">
<title>dir_18ae7af74d885898b85cbb543ae51b63</title>
<g id="a_node3"><a xlink:href="dir_18ae7af74d885898b85cbb543ae51b63.html" target="_top" xlink:title="node">
<polygon fill="#edf0f7" stroke="red" stroke-dasharray="5,2" points="88,-19 47,-19 47,0 88,0 88,-19"/>
<text text-anchor="middle" x="67.5" y="-7" font-family="Helvetica,sans-Serif" font-size="10.00">node</text>
</a>
</g>
</g>
<!-- dir_100cae52b844ec0b520b7e5b8ea8fe4b&#45;&gt;dir_18ae7af74d885898b85cbb543ae51b63 -->
<g id="edge2" class="edge">
<title>dir_100cae52b844ec0b520b7e5b8ea8fe4b&#45;&gt;dir_18ae7af74d885898b85cbb543ae51b63</title>
<path fill="none" stroke="#63b8ff" d="M115.34,-54.98C107,-47.23 94.47,-35.58 84.32,-26.14"/>
<polygon fill="#63b8ff" stroke="#63b8ff" points="86.53,-23.42 76.82,-19.17 81.76,-28.54 86.53,-23.42"/>
<g id="a_edge2&#45;headlabel"><a xlink:href="dir_000005_000033.html" target="_top" xlink:title="1">
<text text-anchor="middle" x="91.1" y="-21.28" font-family="Helvetica,sans-Serif" font-size="10.00" fill="#63b8ff">1</text>
</a>
</g>
</g>
<!-- dir_2d29d7dff7c7baf1180920f6796c23ae -->
<g id="node4" class="node">
<title>dir_2d29d7dff7c7baf1180920f6796c23ae</title>
<g id="a_node4"><a xlink:href="dir_2d29d7dff7c7baf1180920f6796c23ae.html" target="_top" xlink:title="http">
<polygon fill="#edf0f7" stroke="#7f7f7f" points="142.5,-19 106.5,-19 106.5,0 142.5,0 142.5,-19"/>
<text text-anchor="middle" x="124.5" y="-7" font-family="Helvetica,sans-Serif" font-size="10.00">http</text>
</a>
</g>
</g>
<!-- dir_100cae52b844ec0b520b7e5b8ea8fe4b&#45;&gt;dir_2d29d7dff7c7baf1180920f6796c23ae -->
<g id="edge3" class="edge">
<title>dir_100cae52b844ec0b520b7e5b8ea8fe4b&#45;&gt;dir_2d29d7dff7c7baf1180920f6796c23ae</title>
<path fill="none" stroke="#63b8ff" d="M124.5,-54.75C124.5,-47.8 124.5,-37.85 124.5,-29.13"/>
<polygon fill="#63b8ff" stroke="#63b8ff" points="128,-29.09 124.5,-19.09 121,-29.09 128,-29.09"/>
<g id="a_edge3&#45;headlabel"><a xlink:href="dir_000005_000021.html" target="_top" xlink:title="1">
<text text-anchor="middle" x="130.84" y="-30.18" font-family="Helvetica,sans-Serif" font-size="10.00" fill="#63b8ff">1</text>
</a>
</g>
</g>
<!-- dir_5427940bb9029915fc0c11c1284afde6 -->
<g id="node5" class="node">
<title>dir_5427940bb9029915fc0c11c1284afde6</title>
<g id="a_node5"><a xlink:href="dir_5427940bb9029915fc0c11c1284afde6.html" target="_top" xlink:title="enclave">
<polygon fill="#edf0f7" stroke="#7f7f7f" points="216,-19 161,-19 161,0 216,0 216,-19"/>
<text text-anchor="middle" x="188.5" y="-7" font-family="Helvetica,sans-Serif" font-size="10.00">enclave</text>
</a>
</g>
</g>
<!-- dir_100cae52b844ec0b520b7e5b8ea8fe4b&#45;&gt;dir_5427940bb9029915fc0c11c1284afde6 -->
<g id="edge4" class="edge">
<title>dir_100cae52b844ec0b520b7e5b8ea8fe4b&#45;&gt;dir_5427940bb9029915fc0c11c1284afde6</title>
<path fill="none" stroke="#63b8ff" d="M134.78,-54.98C144.34,-47.07 158.78,-35.11 170.28,-25.58"/>
<polygon fill="#63b8ff" stroke="#63b8ff" points="172.56,-28.24 178.03,-19.17 168.1,-22.85 172.56,-28.24"/>
<g id="a_edge4&#45;headlabel"><a xlink:href="dir_000005_000015.html" target="_top" xlink:title="2">
<text text-anchor="middle" x="171.6" y="-30.22" font-family="Helvetica,sans-Serif" font-size="10.00" fill="#63b8ff">2</text>
</a>
</g>
</g>
<!-- dir_d44c64559bbebec7f509842c48db8b23 -->
<g id="node6" class="node">
<title>dir_d44c64559bbebec7f509842c48db8b23</title>
<g id="a_node6"><a xlink:href="dir_d44c64559bbebec7f509842c48db8b23.html" target="_top" xlink:title="include">
<polygon fill="#edf0f7" stroke="red" points="286.5,-19 234.5,-19 234.5,0 286.5,0 286.5,-19"/>
<text text-anchor="middle" x="260.5" y="-7" font-family="Helvetica,sans-Serif" font-size="10.00">include</text>
</a>
</g>
</g>
<!-- dir_100cae52b844ec0b520b7e5b8ea8fe4b&#45;&gt;dir_d44c64559bbebec7f509842c48db8b23 -->
<g id="edge5" class="edge">
<title>dir_100cae52b844ec0b520b7e5b8ea8fe4b&#45;&gt;dir_d44c64559bbebec7f509842c48db8b23</title>
<path fill="none" stroke="#63b8ff" d="M146.35,-54.98C168.62,-46.3 203.4,-32.75 228.72,-22.88"/>
<polygon fill="#63b8ff" stroke="#63b8ff" points="230.21,-26.06 238.25,-19.17 227.66,-19.54 230.21,-26.06"/>
<g id="a_edge5&#45;headlabel"><a xlink:href="dir_000005_000023.html" target="_top" xlink:title="16">
<text text-anchor="middle" x="227.89" y="-27.51" font-family="Helvetica,sans-Serif" font-size="10.00" fill="#63b8ff">16</text>
</a>
</g>
</g>
</g>
</svg>
