<?xml version="1.0" encoding="UTF-8" standalone="no"?>
<!DOCTYPE svg PUBLIC "-//W3C//DTD SVG 1.1//EN"
 "http://www.w3.org/Graphics/SVG/1.1/DTD/svg11.dtd">
<!-- Generated by graphviz version 2.43.0 (0)
 -->
<!-- Title: src/consensus/aft/impl Pages: 1 -->
<svg width="108pt" height="117pt"
 viewBox="0.00 0.00 107.50 117.00" xmlns="http://www.w3.org/2000/svg" xmlns:xlink="http://www.w3.org/1999/xlink">
<g id="graph0" class="graph" transform="scale(1 1) rotate(0) translate(4 113)">
<title>src/consensus/aft/impl</title>
<g id="clust1" class="cluster">
<title>clusterdir_d359f39a8b9d4f0c7d64ae34c651e6dc</title>
<g id="a_clust1"><a xlink:href="dir_d359f39a8b9d4f0c7d64ae34c651e6dc.html" target="_top" xlink:title="aft">
<polygon fill="#edf0f7" stroke="#7f7f7f" stroke-dasharray="5,2" points="16.5,-47 16.5,-101 70.5,-101 70.5,-47 16.5,-47"/>
<text text-anchor="middle" x="43.5" y="-89" font-family="Helvetica,sans-Serif" font-size="10.00">aft</text>
</a>
</g>
</g>
<!-- dir_ea328006d871e8e8b978c6dd0c43f774 -->
<g id="node1" class="node">
<title>dir_ea328006d871e8e8b978c6dd0c43f774</title>
<g id="a_node1"><a xlink:href="dir_ea328006d871e8e8b978c6dd0c43f774.html" target="_top" xlink:title="impl">
<polygon fill="#edf0f7" stroke="#404040" stroke-width="2" points="62.5,-74 24.5,-74 24.5,-55 62.5,-55 62.5,-74"/>
<text text-anchor="middle" x="43.5" y="-62" font-family="Helvetica,sans-Serif" font-size="10.00">impl</text>
</a>
</g>
</g>
<!-- dir_4c8befd6991d7a2e9d66c427274b8c22 -->
<g id="node2" class="node">
<title>dir_4c8befd6991d7a2e9d66c427274b8c22</title>
<g id="a_node2"><a xlink:href="dir_4c8befd6991d7a2e9d66c427274b8c22.html" target="_top" xlink:title="kv">
<polygon fill="#edf0f7" stroke="#7f7f7f" points="29,-19 0,-19 0,0 29,0 29,-19"/>
<text text-anchor="middle" x="14.5" y="-7" font-family="Helvetica,sans-Serif" font-size="10.00">kv</text>
</a>
</g>
</g>
<!-- dir_ea328006d871e8e8b978c6dd0c43f774&#45;&gt;dir_4c8befd6991d7a2e9d66c427274b8c22 -->
<g id="edge1" class="edge">
<title>dir_ea328006d871e8e8b978c6dd0c43f774&#45;&gt;dir_4c8befd6991d7a2e9d66c427274b8c22</title>
<path fill="none" stroke="#63b8ff" d="M38.71,-54.75C34.74,-47.49 28.97,-36.95 24.07,-27.98"/>
<polygon fill="#63b8ff" stroke="#63b8ff" points="27.07,-26.18 19.2,-19.09 20.93,-29.54 27.07,-26.18"/>
<g id="a_edge1&#45;headlabel"><a xlink:href="dir_000022_000029.html" target="_top" xlink:title="1">
<text text-anchor="middle" x="31.29" y="-25.47" font-family="Helvetica,sans-Serif" font-size="10.00" fill="#63b8ff">1</text>
</a>
</g>
</g>
<!-- dir_d44c64559bbebec7f509842c48db8b23 -->
<g id="node3" class="node">
<title>dir_d44c64559bbebec7f509842c48db8b23</title>
<g id="a_node3"><a xlink:href="dir_d44c64559bbebec7f509842c48db8b23.html" target="_top" xlink:title="include">
<polygon fill="#edf0f7" stroke="red" points="99.5,-19 47.5,-19 47.5,0 99.5,0 99.5,-19"/>
<text text-anchor="middle" x="73.5" y="-7" font-family="Helvetica,sans-Serif" font-size="10.00">include</text>
</a>
</g>
</g>
<!-- dir_ea328006d871e8e8b978c6dd0c43f774&#45;&gt;dir_d44c64559bbebec7f509842c48db8b23 -->
<g id="edge2" class="edge">
<title>dir_ea328006d871e8e8b978c6dd0c43f774&#45;&gt;dir_d44c64559bbebec7f509842c48db8b23</title>
<path fill="none" stroke="#63b8ff" d="M48.45,-54.75C52.56,-47.49 58.53,-36.95 63.6,-27.98"/>
<polygon fill="#63b8ff" stroke="#63b8ff" points="66.76,-29.52 68.64,-19.09 60.67,-26.07 66.76,-29.52"/>
<g id="a_edge2&#45;headlabel"><a xlink:href="dir_000022_000023.html" target="_top" xlink:title="5">
<text text-anchor="middle" x="67.46" y="-31.54" font-family="Helvetica,sans-Serif" font-size="10.00" fill="#63b8ff">5</text>
</a>
</g>
</g>
</g>
</svg>
