<?xml version="1.0" encoding="UTF-8" standalone="no"?>
<!DOCTYPE svg PUBLIC "-//W3C//DTD SVG 1.1//EN"
 "http://www.w3.org/Graphics/SVG/1.1/DTD/svg11.dtd">
<!-- Generated by graphviz version 2.43.0 (0)
 -->
<!-- Title: src/consensus/aft Pages: 1 -->
<svg width="341pt" height="180pt"
 viewBox="0.00 0.00 341.10 180.00" xmlns="http://www.w3.org/2000/svg" xmlns:xlink="http://www.w3.org/1999/xlink">
<g id="graph0" class="graph" transform="scale(1 1) rotate(0) translate(4 176)">
<title>src/consensus/aft</title>
<g id="clust1" class="cluster">
<title>clusterdir_dee301ab18d354d094fb7852349ef839</title>
<g id="a_clust1"><a xlink:href="dir_dee301ab18d354d094fb7852349ef839.html" target="_top" xlink:title="consensus">
<polygon fill="#edf0f7" stroke="#7f7f7f" stroke-dasharray="5,2" points="112.87,-39 112.87,-164 182.87,-164 182.87,-39 112.87,-39"/>
<text text-anchor="middle" x="147.87" y="-152" font-family="Helvetica,sans-Serif" font-size="10.00">consensus</text>
</a>
</g>
</g>
<g id="clust2" class="cluster">
<title>clusterdir_d359f39a8b9d4f0c7d64ae34c651e6dc</title>
<g id="a_clust2"><a xlink:href="dir_d359f39a8b9d4f0c7d64ae34c651e6dc.html" target="_top">
<polygon fill="#edf0f7" stroke="#404040" stroke-width="2" points="120.87,-47 120.87,-137 174.87,-137 174.87,-47 120.87,-47"/>
</a>
</g>
</g>
<!-- dir_d359f39a8b9d4f0c7d64ae34c651e6dc -->
<g id="node1" class="node">
<title>dir_d359f39a8b9d4f0c7d64ae34c651e6dc</title>
<text text-anchor="middle" x="147.87" y="-117" font-family="Helvetica,sans-Serif" font-size="10.00">aft</text>
</g>
<!-- dir_ea328006d871e8e8b978c6dd0c43f774 -->
<g id="node2" class="node">
<title>dir_ea328006d871e8e8b978c6dd0c43f774</title>
<g id="a_node2"><a xlink:href="dir_ea328006d871e8e8b978c6dd0c43f774.html" target="_top" xlink:title="impl">
<polygon fill="#a2b4d6" stroke="#404040" points="166.87,-74 128.87,-74 128.87,-55 166.87,-55 166.87,-74"/>
<text text-anchor="middle" x="147.87" y="-62" font-family="Helvetica,sans-Serif" font-size="10.00">impl</text>
</a>
</g>
</g>
<!-- dir_d359f39a8b9d4f0c7d64ae34c651e6dc&#45;&gt;dir_ea328006d871e8e8b978c6dd0c43f774 -->
<g id="edge7" class="edge">
<title>dir_d359f39a8b9d4f0c7d64ae34c651e6dc&#45;&gt;dir_ea328006d871e8e8b978c6dd0c43f774</title>
<path fill="none" stroke="#63b8ff" d="M147.87,-109.75C147.87,-102.8 147.87,-92.85 147.87,-84.13"/>
<polygon fill="#63b8ff" stroke="#63b8ff" points="151.37,-84.09 147.87,-74.09 144.37,-84.09 151.37,-84.09"/>
<g id="a_edge7&#45;headlabel"><a xlink:href="dir_000000_000022.html" target="_top" xlink:title="1">
<text text-anchor="middle" x="154.21" y="-85.18" font-family="Helvetica,sans-Serif" font-size="10.00" fill="#63b8ff">1</text>
</a>
</g>
</g>
<!-- dir_122f4add68bb94b3fee614989bbbd8f9 -->
<g id="node3" class="node">
<title>dir_122f4add68bb94b3fee614989bbbd8f9</title>
<g id="a_node3"><a xlink:href="dir_122f4add68bb94b3fee614989bbbd8f9.html" target="_top" xlink:title="ds">
<polygon fill="#edf0f7" stroke="#7f7f7f" points="45.37,-74 16.37,-74 16.37,-55 45.37,-55 45.37,-74"/>
<text text-anchor="middle" x="30.87" y="-62" font-family="Helvetica,sans-Serif" font-size="10.00">ds</text>
</a>
</g>
</g>
<!-- dir_d359f39a8b9d4f0c7d64ae34c651e6dc&#45;&gt;dir_122f4add68bb94b3fee614989bbbd8f9 -->
<g id="edge1" class="edge">
<title>dir_d359f39a8b9d4f0c7d64ae34c651e6dc&#45;&gt;dir_122f4add68bb94b3fee614989bbbd8f9</title>
<path fill="none" stroke="#63b8ff" d="M133.05,-111.79C113.36,-102.87 78.32,-87 54.84,-76.36"/>
<polygon fill="#63b8ff" stroke="#63b8ff" points="56.12,-73.1 45.57,-72.16 53.23,-79.47 56.12,-73.1"/>
<g id="a_edge1&#45;headlabel"><a xlink:href="dir_000000_000014.html" target="_top" xlink:title="3">
<text text-anchor="middle" x="60.57" y="-69.49" font-family="Helvetica,sans-Serif" font-size="10.00" fill="#63b8ff">3</text>
</a>
</g>
</g>
<!-- dir_18ae7af74d885898b85cbb543ae51b63 -->
<g id="node4" class="node">
<title>dir_18ae7af74d885898b85cbb543ae51b63</title>
<g id="a_node4"><a xlink:href="dir_18ae7af74d885898b85cbb543ae51b63.html" target="_top" xlink:title="node">
<polygon fill="#edf0f7" stroke="red" stroke-dasharray="5,2" points="104.37,-74 63.37,-74 63.37,-55 104.37,-55 104.37,-74"/>
<text text-anchor="middle" x="83.87" y="-62" font-family="Helvetica,sans-Serif" font-size="10.00">node</text>
</a>
</g>
</g>
<!-- dir_d359f39a8b9d4f0c7d64ae34c651e6dc&#45;&gt;dir_18ae7af74d885898b85cbb543ae51b63 -->
<g id="edge2" class="edge">
<title>dir_d359f39a8b9d4f0c7d64ae34c651e6dc&#45;&gt;dir_18ae7af74d885898b85cbb543ae51b63</title>
<path fill="none" stroke="#63b8ff" d="M137.59,-109.98C128.03,-102.07 113.59,-90.11 102.08,-80.58"/>
<polygon fill="#63b8ff" stroke="#63b8ff" points="104.27,-77.85 94.34,-74.17 99.81,-83.24 104.27,-77.85"/>
<g id="a_edge2&#45;headlabel"><a xlink:href="dir_000000_000033.html" target="_top" xlink:title="4">
<text text-anchor="middle" x="108.85" y="-75.46" font-family="Helvetica,sans-Serif" font-size="10.00" fill="#63b8ff">4</text>
</a>
</g>
</g>
<!-- dir_4c8befd6991d7a2e9d66c427274b8c22 -->
<g id="node5" class="node">
<title>dir_4c8befd6991d7a2e9d66c427274b8c22</title>
<g id="a_node5"><a xlink:href="dir_4c8befd6991d7a2e9d66c427274b8c22.html" target="_top" xlink:title="kv">
<polygon fill="#edf0f7" stroke="#7f7f7f" points="107.37,-19 78.37,-19 78.37,0 107.37,0 107.37,-19"/>
<text text-anchor="middle" x="92.87" y="-7" font-family="Helvetica,sans-Serif" font-size="10.00">kv</text>
</a>
</g>
</g>
<!-- dir_d359f39a8b9d4f0c7d64ae34c651e6dc&#45;&gt;dir_4c8befd6991d7a2e9d66c427274b8c22 -->
<g id="edge3" class="edge">
<title>dir_d359f39a8b9d4f0c7d64ae34c651e6dc&#45;&gt;dir_4c8befd6991d7a2e9d66c427274b8c22</title>
<path fill="none" stroke="#63b8ff" d="M133.17,-119C103.46,-119.11 36.61,-114.58 6.87,-74 -2.33,-61.45 -2.24,-51.61 6.87,-39 20.76,-19.76 48.15,-13.3 68.3,-11.24"/>
<polygon fill="#63b8ff" stroke="#63b8ff" points="68.63,-14.72 78.35,-10.5 68.12,-7.74 68.63,-14.72"/>
<g id="a_edge3&#45;headlabel"><a xlink:href="dir_000000_000029.html" target="_top" xlink:title="5">
<text text-anchor="middle" x="65.25" y="-15.32" font-family="Helvetica,sans-Serif" font-size="10.00" fill="#63b8ff">5</text>
</a>
</g>
</g>
<!-- dir_4f691f982165d1317925cee58b4b4f56 -->
<g id="node6" class="node">
<title>dir_4f691f982165d1317925cee58b4b4f56</title>
<g id="a_node6"><a xlink:href="dir_4f691f982165d1317925cee58b4b4f56.html" target="_top" xlink:title="service">
<polygon fill="#edf0f7" stroke="red" stroke-dasharray="5,2" points="242.87,-74 190.87,-74 190.87,-55 242.87,-55 242.87,-74"/>
<text text-anchor="middle" x="216.87" y="-62" font-family="Helvetica,sans-Serif" font-size="10.00">service</text>
</a>
</g>
</g>
<!-- dir_d359f39a8b9d4f0c7d64ae34c651e6dc&#45;&gt;dir_4f691f982165d1317925cee58b4b4f56 -->
<g id="edge4" class="edge">
<title>dir_d359f39a8b9d4f0c7d64ae34c651e6dc&#45;&gt;dir_4f691f982165d1317925cee58b4b4f56</title>
<path fill="none" stroke="#63b8ff" d="M158.96,-109.98C169.36,-102 185.13,-89.88 197.59,-80.31"/>
<polygon fill="#63b8ff" stroke="#63b8ff" points="199.78,-83.04 205.58,-74.17 195.52,-77.49 199.78,-83.04"/>
<g id="a_edge4&#45;headlabel"><a xlink:href="dir_000000_000042.html" target="_top" xlink:title="1">
<text text-anchor="middle" x="198.66" y="-84.98" font-family="Helvetica,sans-Serif" font-size="10.00" fill="#63b8ff">1</text>
</a>
</g>
</g>
<!-- dir_5427940bb9029915fc0c11c1284afde6 -->
<g id="node7" class="node">
<title>dir_5427940bb9029915fc0c11c1284afde6</title>
<g id="a_node7"><a xlink:href="dir_5427940bb9029915fc0c11c1284afde6.html" target="_top" xlink:title="enclave">
<polygon fill="#edf0f7" stroke="#7f7f7f" points="316.37,-74 261.37,-74 261.37,-55 316.37,-55 316.37,-74"/>
<text text-anchor="middle" x="288.87" y="-62" font-family="Helvetica,sans-Serif" font-size="10.00">enclave</text>
</a>
</g>
</g>
<!-- dir_d359f39a8b9d4f0c7d64ae34c651e6dc&#45;&gt;dir_5427940bb9029915fc0c11c1284afde6 -->
<g id="edge5" class="edge">
<title>dir_d359f39a8b9d4f0c7d64ae34c651e6dc&#45;&gt;dir_5427940bb9029915fc0c11c1284afde6</title>
<path fill="none" stroke="#63b8ff" d="M162.43,-113.03C184.49,-104.73 226.95,-88.77 256.55,-77.65"/>
<polygon fill="#63b8ff" stroke="#63b8ff" points="257.92,-80.87 266.05,-74.08 255.46,-74.32 257.92,-80.87"/>
<g id="a_edge5&#45;headlabel"><a xlink:href="dir_000000_000015.html" target="_top" xlink:title="2">
<text text-anchor="middle" x="255.55" y="-82.29" font-family="Helvetica,sans-Serif" font-size="10.00" fill="#63b8ff">2</text>
</a>
</g>
</g>
<!-- dir_d44c64559bbebec7f509842c48db8b23 -->
<g id="node8" class="node">
<title>dir_d44c64559bbebec7f509842c48db8b23</title>
<g id="a_node8"><a xlink:href="dir_d44c64559bbebec7f509842c48db8b23.html" target="_top" xlink:title="include">
<polygon fill="#edf0f7" stroke="red" points="227.87,-19 175.87,-19 175.87,0 227.87,0 227.87,-19"/>
<text text-anchor="middle" x="201.87" y="-7" font-family="Helvetica,sans-Serif" font-size="10.00">include</text>
</a>
</g>
</g>
<!-- dir_d359f39a8b9d4f0c7d64ae34c651e6dc&#45;&gt;dir_d44c64559bbebec7f509842c48db8b23 -->
<g id="edge6" class="edge">
<title>dir_d359f39a8b9d4f0c7d64ae34c651e6dc&#45;&gt;dir_d44c64559bbebec7f509842c48db8b23</title>
<path fill="none" stroke="#63b8ff" d="M162.43,-117.12C201.22,-113.11 305.53,-100.05 325.87,-74 335.44,-61.74 335.56,-51.17 325.87,-39 315.04,-25.4 270.62,-17.74 238.03,-13.87"/>
<polygon fill="#63b8ff" stroke="#63b8ff" points="238.25,-10.37 227.92,-12.74 237.47,-17.33 238.25,-10.37"/>
<g id="a_edge6&#45;headlabel"><a xlink:href="dir_000000_000023.html" target="_top" xlink:title="18">
<text text-anchor="middle" x="242.13" y="-5.45" font-family="Helvetica,sans-Serif" font-size="10.00" fill="#63b8ff">18</text>
</a>
</g>
</g>
<!-- dir_ea328006d871e8e8b978c6dd0c43f774&#45;&gt;dir_4c8befd6991d7a2e9d66c427274b8c22 -->
<g id="edge8" class="edge">
<title>dir_ea328006d871e8e8b978c6dd0c43f774&#45;&gt;dir_4c8befd6991d7a2e9d66c427274b8c22</title>
<path fill="none" stroke="#63b8ff" d="M138.79,-54.75C130.78,-47.03 118.91,-35.6 109.25,-26.28"/>
<polygon fill="#63b8ff" stroke="#63b8ff" points="111.41,-23.51 101.78,-19.09 106.55,-28.55 111.41,-23.51"/>
<g id="a_edge8&#45;headlabel"><a xlink:href="dir_000022_000029.html" target="_top" xlink:title="1">
<text text-anchor="middle" x="115.97" y="-21.46" font-family="Helvetica,sans-Serif" font-size="10.00" fill="#63b8ff">1</text>
</a>
</g>
</g>
<!-- dir_ea328006d871e8e8b978c6dd0c43f774&#45;&gt;dir_d44c64559bbebec7f509842c48db8b23 -->
<g id="edge9" class="edge">
<title>dir_ea328006d871e8e8b978c6dd0c43f774&#45;&gt;dir_d44c64559bbebec7f509842c48db8b23</title>
<path fill="none" stroke="#63b8ff" d="M156.79,-54.75C164.65,-47.03 176.3,-35.6 185.79,-26.28"/>
<polygon fill="#63b8ff" stroke="#63b8ff" points="188.43,-28.59 193.12,-19.09 183.53,-23.6 188.43,-28.59"/>
<g id="a_edge9&#45;headlabel"><a xlink:href="dir_000022_000023.html" target="_top" xlink:title="5">
<text text-anchor="middle" x="187.86" y="-30.64" font-family="Helvetica,sans-Serif" font-size="10.00" fill="#63b8ff">5</text>
</a>
</g>
</g>
</g>
</svg>
