<?xml version="1.0" encoding="UTF-8" standalone="no"?>
<!DOCTYPE svg PUBLIC "-//W3C//DTD SVG 1.1//EN"
 "http://www.w3.org/Graphics/SVG/1.1/DTD/svg11.dtd">
<!-- Generated by graphviz version 2.43.0 (0)
 -->
<!-- Title: include/ccf Pages: 1 -->
<svg width="326pt" height="424pt"
 viewBox="0.00 0.00 326.00 424.00" xmlns="http://www.w3.org/2000/svg" xmlns:xlink="http://www.w3.org/1999/xlink">
<g id="graph0" class="graph" transform="scale(1 1) rotate(0) translate(4 420)">
<title>include/ccf</title>
<g id="clust1" class="cluster">
<title>clusterdir_d44c64559bbebec7f509842c48db8b23</title>
<g id="a_clust1"><a xlink:href="dir_d44c64559bbebec7f509842c48db8b23.html" target="_top" xlink:title="include">
<polygon fill="#edf0f7" stroke="#404040" stroke-dasharray="5,2" points="8,-8 8,-408 310,-408 310,-8 8,-8"/>
<text text-anchor="middle" x="159" y="-396" font-family="Helvetica,sans-Serif" font-size="10.00">include</text>
</a>
</g>
</g>
<g id="clust2" class="cluster">
<title>clusterdir_c3d33925c9fc81f340cd5350e8f8562d</title>
<g id="a_clust2"><a xlink:href="dir_c3d33925c9fc81f340cd5350e8f8562d.html" target="_top">
<polygon fill="#edf0f7" stroke="#404040" stroke-width="2" points="16,-16 16,-381 302,-381 302,-16 16,-16"/>
</a>
</g>
</g>
<!-- dir_c3d33925c9fc81f340cd5350e8f8562d -->
<g id="node1" class="node">
<title>dir_c3d33925c9fc81f340cd5350e8f8562d</title>
<text text-anchor="middle" x="197" y="-361" font-family="Helvetica,sans-Serif" font-size="10.00">ccf</text>
</g>
<!-- dir_718cb05e94fb01aeb88649f9185845a8 -->
<g id="node2" class="node">
<title>dir_718cb05e94fb01aeb88649f9185845a8</title>
<g id="a_node2"><a xlink:href="dir_718cb05e94fb01aeb88649f9185845a8.html" target="_top" xlink:title="crypto">
<polygon fill="#a2b4d6" stroke="#404040" points="163.5,-263 116.5,-263 116.5,-244 163.5,-244 163.5,-263"/>
<text text-anchor="middle" x="140" y="-251" font-family="Helvetica,sans-Serif" font-size="10.00">crypto</text>
</a>
</g>
</g>
<!-- dir_c3d33925c9fc81f340cd5350e8f8562d&#45;&gt;dir_718cb05e94fb01aeb88649f9185845a8 -->
<g id="edge3" class="edge">
<title>dir_c3d33925c9fc81f340cd5350e8f8562d&#45;&gt;dir_718cb05e94fb01aeb88649f9185845a8</title>
<path fill="none" stroke="#63b8ff" d="M186.32,-353.71C176.97,-345.44 163.69,-332.23 156,-318 148.47,-304.08 144.4,-286.52 142.25,-273.39"/>
<polygon fill="#63b8ff" stroke="#63b8ff" points="145.68,-272.62 140.82,-263.21 138.75,-273.6 145.68,-272.62"/>
<g id="a_edge3&#45;headlabel"><a xlink:href="dir_000006_000011.html" target="_top" xlink:title="26">
<text text-anchor="middle" x="148.99" y="-273.29" font-family="Helvetica,sans-Serif" font-size="10.00" fill="#63b8ff">26</text>
</a>
</g>
</g>
<!-- dir_cabae42bbc2bbaf21b45af6b92ef62e9 -->
<g id="node3" class="node">
<title>dir_cabae42bbc2bbaf21b45af6b92ef62e9</title>
<g id="a_node3"><a xlink:href="dir_cabae42bbc2bbaf21b45af6b92ef62e9.html" target="_top" xlink:title="ds">
<polygon fill="#a2b4d6" stroke="#404040" points="99.5,-43 70.5,-43 70.5,-24 99.5,-24 99.5,-43"/>
<text text-anchor="middle" x="85" y="-31" font-family="Helvetica,sans-Serif" font-size="10.00">ds</text>
</a>
</g>
</g>
<!-- dir_c3d33925c9fc81f340cd5350e8f8562d&#45;&gt;dir_cabae42bbc2bbaf21b45af6b92ef62e9 -->
<g id="edge7" class="edge">
<title>dir_c3d33925c9fc81f340cd5350e8f8562d&#45;&gt;dir_cabae42bbc2bbaf21b45af6b92ef62e9</title>
<path fill="none" stroke="#63b8ff" d="M181.12,-360.93C153.96,-357.51 98.05,-347.2 62,-318 36.62,-297.44 25,-287.16 25,-254.5 25,-254.5 25,-254.5 25,-142.5 25,-106.09 51.38,-70.48 69.16,-50.62"/>
<polygon fill="#63b8ff" stroke="#63b8ff" points="71.89,-52.82 76.15,-43.11 66.77,-48.05 71.89,-52.82"/>
<g id="a_edge7&#45;headlabel"><a xlink:href="dir_000006_000013.html" target="_top" xlink:title="53">
<text text-anchor="middle" x="71.52" y="-54.88" font-family="Helvetica,sans-Serif" font-size="10.00" fill="#63b8ff">53</text>
</a>
</g>
</g>
<!-- dir_4a0fc6681dca2b862f3992ee55641a58 -->
<g id="node4" class="node">
<title>dir_4a0fc6681dca2b862f3992ee55641a58</title>
<g id="a_node4"><a xlink:href="dir_4a0fc6681dca2b862f3992ee55641a58.html" target="_top" xlink:title="endpoints">
<polygon fill="#a2b4d6" stroke="#404040" points="229.5,-318 164.5,-318 164.5,-299 229.5,-299 229.5,-318"/>
<text text-anchor="middle" x="197" y="-306" font-family="Helvetica,sans-Serif" font-size="10.00">endpoints</text>
</a>
</g>
</g>
<!-- dir_c3d33925c9fc81f340cd5350e8f8562d&#45;&gt;dir_4a0fc6681dca2b862f3992ee55641a58 -->
<g id="edge2" class="edge">
<title>dir_c3d33925c9fc81f340cd5350e8f8562d&#45;&gt;dir_4a0fc6681dca2b862f3992ee55641a58</title>
<path fill="none" stroke="#63b8ff" d="M197,-353.75C197,-346.8 197,-336.85 197,-328.13"/>
<polygon fill="#63b8ff" stroke="#63b8ff" points="200.5,-328.09 197,-318.09 193.5,-328.09 200.5,-328.09"/>
<g id="a_edge2&#45;headlabel"><a xlink:href="dir_000006_000016.html" target="_top" xlink:title="5">
<text text-anchor="middle" x="203.34" y="-329.18" font-family="Helvetica,sans-Serif" font-size="10.00" fill="#63b8ff">5</text>
</a>
</g>
</g>
<!-- dir_819655030cf20c915c390b67ba1c0d03 -->
<g id="node5" class="node">
<title>dir_819655030cf20c915c390b67ba1c0d03</title>
<g id="a_node5"><a xlink:href="dir_819655030cf20c915c390b67ba1c0d03.html" target="_top" xlink:title="indexing">
<polygon fill="#a2b4d6" stroke="#404040" points="273.5,-208 214.5,-208 214.5,-189 273.5,-189 273.5,-208"/>
<text text-anchor="middle" x="244" y="-196" font-family="Helvetica,sans-Serif" font-size="10.00">indexing</text>
</a>
</g>
</g>
<!-- dir_c3d33925c9fc81f340cd5350e8f8562d&#45;&gt;dir_819655030cf20c915c390b67ba1c0d03 -->
<g id="edge4" class="edge">
<title>dir_c3d33925c9fc81f340cd5350e8f8562d&#45;&gt;dir_819655030cf20c915c390b67ba1c0d03</title>
<path fill="none" stroke="#63b8ff" d="M211.37,-353.96C222.87,-346.21 238.18,-333.62 245,-318 259.35,-285.12 253.69,-242.05 248.62,-217.93"/>
<polygon fill="#63b8ff" stroke="#63b8ff" points="251.99,-216.97 246.33,-208.01 245.17,-218.54 251.99,-216.97"/>
<g id="a_edge4&#45;headlabel"><a xlink:href="dir_000006_000024.html" target="_top" xlink:title="1">
<text text-anchor="middle" x="255.56" y="-217.34" font-family="Helvetica,sans-Serif" font-size="10.00" fill="#63b8ff">1</text>
</a>
</g>
</g>
<!-- dir_9101985d24c2f692df501a09f2c284d0 -->
<g id="node6" class="node">
<title>dir_9101985d24c2f692df501a09f2c284d0</title>
<g id="a_node6"><a xlink:href="dir_9101985d24c2f692df501a09f2c284d0.html" target="_top" xlink:title="kv">
<polygon fill="#a2b4d6" stroke="#404040" points="208.5,-98 179.5,-98 179.5,-79 208.5,-79 208.5,-98"/>
<text text-anchor="middle" x="194" y="-86" font-family="Helvetica,sans-Serif" font-size="10.00">kv</text>
</a>
</g>
</g>
<!-- dir_c3d33925c9fc81f340cd5350e8f8562d&#45;&gt;dir_9101985d24c2f692df501a09f2c284d0 -->
<g id="edge5" class="edge">
<title>dir_c3d33925c9fc81f340cd5350e8f8562d&#45;&gt;dir_9101985d24c2f692df501a09f2c284d0</title>
<path fill="none" stroke="#63b8ff" d="M212.85,-354.17C240.12,-338.57 293,-302.16 293,-254.5 293,-254.5 293,-254.5 293,-197.5 293,-152.97 246.71,-118.84 217.43,-101.71"/>
<polygon fill="#63b8ff" stroke="#63b8ff" points="219.04,-98.6 208.61,-96.75 215.61,-104.7 219.04,-98.6"/>
<g id="a_edge5&#45;headlabel"><a xlink:href="dir_000006_000028.html" target="_top" xlink:title="21">
<text text-anchor="middle" x="223.57" y="-95.38" font-family="Helvetica,sans-Serif" font-size="10.00" fill="#63b8ff">21</text>
</a>
</g>
</g>
<!-- dir_36f22bdf0117f38e86252516d12afdac -->
<g id="node8" class="node">
<title>dir_36f22bdf0117f38e86252516d12afdac</title>
<g id="a_node8"><a xlink:href="dir_36f22bdf0117f38e86252516d12afdac.html" target="_top" xlink:title="pal">
<polygon fill="#a2b4d6" stroke="#404040" points="141,-153 109,-153 109,-134 141,-134 141,-153"/>
<text text-anchor="middle" x="125" y="-141" font-family="Helvetica,sans-Serif" font-size="10.00">pal</text>
</a>
</g>
</g>
<!-- dir_c3d33925c9fc81f340cd5350e8f8562d&#45;&gt;dir_36f22bdf0117f38e86252516d12afdac -->
<g id="edge1" class="edge">
<title>dir_c3d33925c9fc81f340cd5350e8f8562d&#45;&gt;dir_36f22bdf0117f38e86252516d12afdac</title>
<path fill="none" stroke="#63b8ff" d="M181.45,-362.08C154.62,-360.41 100.21,-352.69 76,-318 41.29,-268.26 87.21,-194.41 111.57,-161.45"/>
<polygon fill="#63b8ff" stroke="#63b8ff" points="114.51,-163.37 117.79,-153.29 108.95,-159.12 114.51,-163.37"/>
<g id="a_edge1&#45;headlabel"><a xlink:href="dir_000006_000035.html" target="_top" xlink:title="9">
<text text-anchor="middle" x="114.59" y="-165.45" font-family="Helvetica,sans-Serif" font-size="10.00" fill="#63b8ff">9</text>
</a>
</g>
</g>
<!-- dir_a0bd5b61e2f393f7cb26e530f5604320 -->
<g id="node9" class="node">
<title>dir_a0bd5b61e2f393f7cb26e530f5604320</title>
<g id="a_node9"><a xlink:href="dir_a0bd5b61e2f393f7cb26e530f5604320.html" target="_top" xlink:title="service">
<polygon fill="#a2b4d6" stroke="#404040" points="196,-208 144,-208 144,-189 196,-189 196,-208"/>
<text text-anchor="middle" x="170" y="-196" font-family="Helvetica,sans-Serif" font-size="10.00">service</text>
</a>
</g>
</g>
<!-- dir_c3d33925c9fc81f340cd5350e8f8562d&#45;&gt;dir_a0bd5b61e2f393f7cb26e530f5604320 -->
<g id="edge6" class="edge">
<title>dir_c3d33925c9fc81f340cd5350e8f8562d&#45;&gt;dir_a0bd5b61e2f393f7cb26e530f5604320</title>
<path fill="none" stroke="#63b8ff" d="M209.21,-353.86C219.35,-345.88 233.04,-333.01 239,-318 242.12,-310.15 241.52,-307.06 239,-299 228.61,-265.77 202.78,-233.89 185.84,-215.52"/>
<polygon fill="#63b8ff" stroke="#63b8ff" points="188.19,-212.92 178.77,-208.08 183.12,-217.74 188.19,-212.92"/>
<g id="a_edge6&#45;headlabel"><a xlink:href="dir_000006_000041.html" target="_top" xlink:title="13">
<text text-anchor="middle" x="192.73" y="-211.07" font-family="Helvetica,sans-Serif" font-size="10.00" fill="#63b8ff">13</text>
</a>
</g>
</g>
<!-- dir_718cb05e94fb01aeb88649f9185845a8&#45;&gt;dir_cabae42bbc2bbaf21b45af6b92ef62e9 -->
<g id="edge10" class="edge">
<title>dir_718cb05e94fb01aeb88649f9185845a8&#45;&gt;dir_cabae42bbc2bbaf21b45af6b92ef62e9</title>
<path fill="none" stroke="#63b8ff" d="M130.61,-243.97C118.37,-227.07 100.08,-187.96 91,-153 82.04,-118.5 78.35,-76.91 79.62,-53.3"/>
<polygon fill="#63b8ff" stroke="#63b8ff" points="83.11,-53.57 80.63,-43.27 76.14,-52.86 83.11,-53.57"/>
<g id="a_edge10&#45;headlabel"><a xlink:href="dir_000011_000013.html" target="_top" xlink:title="9">
<text text-anchor="middle" x="85.57" y="-54.93" font-family="Helvetica,sans-Serif" font-size="10.00" fill="#63b8ff">9</text>
</a>
</g>
</g>
<!-- dir_718cb05e94fb01aeb88649f9185845a8&#45;&gt;dir_36f22bdf0117f38e86252516d12afdac -->
<g id="edge8" class="edge">
<title>dir_718cb05e94fb01aeb88649f9185845a8&#45;&gt;dir_36f22bdf0117f38e86252516d12afdac</title>
<path fill="none" stroke="#63b8ff" d="M134.86,-243.66C129.17,-226.17 123.25,-186.8 122.34,-163.27"/>
<polygon fill="#63b8ff" stroke="#63b8ff" points="125.84,-163.15 122.32,-153.16 118.84,-163.17 125.84,-163.15"/>
<g id="a_edge8&#45;headlabel"><a xlink:href="dir_000011_000035.html" target="_top" xlink:title="1">
<text text-anchor="middle" x="128.69" y="-164.24" font-family="Helvetica,sans-Serif" font-size="10.00" fill="#63b8ff">1</text>
</a>
</g>
</g>
<!-- dir_718cb05e94fb01aeb88649f9185845a8&#45;&gt;dir_a0bd5b61e2f393f7cb26e530f5604320 -->
<g id="edge9" class="edge">
<title>dir_718cb05e94fb01aeb88649f9185845a8&#45;&gt;dir_a0bd5b61e2f393f7cb26e530f5604320</title>
<path fill="none" stroke="#63b8ff" d="M139.79,-243.75C142.39,-236.34 148.13,-225.5 154.09,-216.41"/>
<polygon fill="#63b8ff" stroke="#63b8ff" points="157.06,-218.27 160.01,-208.09 151.36,-214.21 157.06,-218.27"/>
<g id="a_edge9&#45;headlabel"><a xlink:href="dir_000011_000041.html" target="_top" xlink:title="1">
<text text-anchor="middle" x="157.29" y="-220.34" font-family="Helvetica,sans-Serif" font-size="10.00" fill="#63b8ff">1</text>
</a>
</g>
</g>
<!-- dir_cabae42bbc2bbaf21b45af6b92ef62e9&#45;&gt;dir_718cb05e94fb01aeb88649f9185845a8 -->
<g id="edge11" class="edge">
<title>dir_cabae42bbc2bbaf21b45af6b92ef62e9&#45;&gt;dir_718cb05e94fb01aeb88649f9185845a8</title>
<path fill="none" stroke="#63b8ff" d="M90.05,-43.27C95.28,-63.11 98.58,-112.86 109,-153 116.62,-182.36 130.75,-214.65 137.69,-234.25"/>
<polygon fill="#63b8ff" stroke="#63b8ff" points="134.41,-235.5 140.78,-243.97 141.08,-233.38 134.41,-235.5"/>
<g id="a_edge11&#45;headlabel"><a xlink:href="dir_000013_000011.html" target="_top" xlink:title="1">
<text text-anchor="middle" x="130.62" y="-230.44" font-family="Helvetica,sans-Serif" font-size="10.00" fill="#63b8ff">1</text>
</a>
</g>
</g>
<!-- dir_4a0fc6681dca2b862f3992ee55641a58&#45;&gt;dir_718cb05e94fb01aeb88649f9185845a8 -->
<g id="edge12" class="edge">
<title>dir_4a0fc6681dca2b862f3992ee55641a58&#45;&gt;dir_718cb05e94fb01aeb88649f9185845a8</title>
<path fill="none" stroke="#63b8ff" d="M187.84,-298.98C179.5,-291.23 166.97,-279.58 156.82,-270.14"/>
<polygon fill="#63b8ff" stroke="#63b8ff" points="159.03,-267.42 149.32,-263.17 154.26,-272.54 159.03,-267.42"/>
<g id="a_edge12&#45;headlabel"><a xlink:href="dir_000016_000011.html" target="_top" xlink:title="1">
<text text-anchor="middle" x="163.6" y="-265.28" font-family="Helvetica,sans-Serif" font-size="10.00" fill="#63b8ff">1</text>
</a>
</g>
</g>
<!-- dir_4a0fc6681dca2b862f3992ee55641a58&#45;&gt;dir_a0bd5b61e2f393f7cb26e530f5604320 -->
<g id="edge13" class="edge">
<title>dir_4a0fc6681dca2b862f3992ee55641a58&#45;&gt;dir_a0bd5b61e2f393f7cb26e530f5604320</title>
<path fill="none" stroke="#63b8ff" d="M196.44,-298.74C195.49,-286.36 193.14,-263.14 188,-244 185.59,-235.05 181.88,-225.47 178.45,-217.5"/>
<polygon fill="#63b8ff" stroke="#63b8ff" points="181.53,-215.83 174.24,-208.15 175.15,-218.7 181.53,-215.83"/>
<g id="a_edge13&#45;headlabel"><a xlink:href="dir_000016_000041.html" target="_top" xlink:title="1">
<text text-anchor="middle" x="185.6" y="-215.44" font-family="Helvetica,sans-Serif" font-size="10.00" fill="#63b8ff">1</text>
</a>
</g>
</g>
<!-- dir_819655030cf20c915c390b67ba1c0d03&#45;&gt;dir_9101985d24c2f692df501a09f2c284d0 -->
<g id="edge14" class="edge">
<title>dir_819655030cf20c915c390b67ba1c0d03&#45;&gt;dir_9101985d24c2f692df501a09f2c284d0</title>
<path fill="none" stroke="#63b8ff" d="M239.91,-188.66C231.7,-170.93 213.09,-130.73 202.25,-107.32"/>
<polygon fill="#63b8ff" stroke="#63b8ff" points="205.39,-105.76 198.01,-98.16 199.03,-108.7 205.39,-105.76"/>
<g id="a_edge14&#45;headlabel"><a xlink:href="dir_000024_000028.html" target="_top" xlink:title="1">
<text text-anchor="middle" x="209.47" y="-105.33" font-family="Helvetica,sans-Serif" font-size="10.00" fill="#63b8ff">1</text>
</a>
</g>
</g>
<!-- dir_819655030cf20c915c390b67ba1c0d03&#45;&gt;dir_36f22bdf0117f38e86252516d12afdac -->
<g id="edge15" class="edge">
<title>dir_819655030cf20c915c390b67ba1c0d03&#45;&gt;dir_36f22bdf0117f38e86252516d12afdac</title>
<path fill="none" stroke="#63b8ff" d="M224.88,-188.98C204.62,-179.96 172.53,-165.67 150.22,-155.73"/>
<polygon fill="#63b8ff" stroke="#63b8ff" points="151.58,-152.51 141.02,-151.63 148.73,-158.9 151.58,-152.51"/>
<g id="a_edge15&#45;headlabel"><a xlink:href="dir_000024_000035.html" target="_top" xlink:title="2">
<text text-anchor="middle" x="156.02" y="-148.87" font-family="Helvetica,sans-Serif" font-size="10.00" fill="#63b8ff">2</text>
</a>
</g>
</g>
<!-- dir_9101985d24c2f692df501a09f2c284d0&#45;&gt;dir_cabae42bbc2bbaf21b45af6b92ef62e9 -->
<g id="edge16" class="edge">
<title>dir_9101985d24c2f692df501a09f2c284d0&#45;&gt;dir_cabae42bbc2bbaf21b45af6b92ef62e9</title>
<path fill="none" stroke="#63b8ff" d="M179.3,-80.35C161.26,-71.58 130.43,-56.59 108.95,-46.14"/>
<polygon fill="#63b8ff" stroke="#63b8ff" points="110.34,-42.93 99.82,-41.7 107.28,-49.22 110.34,-42.93"/>
<g id="a_edge16&#45;headlabel"><a xlink:href="dir_000028_000013.html" target="_top" xlink:title="1">
<text text-anchor="middle" x="114.81" y="-39.45" font-family="Helvetica,sans-Serif" font-size="10.00" fill="#63b8ff">1</text>
</a>
</g>
</g>
<!-- dir_e4d7f7a88037af12eae8bd997a8823fc -->
<g id="node7" class="node">
<title>dir_e4d7f7a88037af12eae8bd997a8823fc</title>
<g id="a_node7"><a xlink:href="dir_e4d7f7a88037af12eae8bd997a8823fc.html" target="_top" xlink:title="node">
<polygon fill="#a2b4d6" stroke="#404040" points="125.5,-318 84.5,-318 84.5,-299 125.5,-299 125.5,-318"/>
<text text-anchor="middle" x="105" y="-306" font-family="Helvetica,sans-Serif" font-size="10.00">node</text>
</a>
</g>
</g>
<!-- dir_e4d7f7a88037af12eae8bd997a8823fc&#45;&gt;dir_718cb05e94fb01aeb88649f9185845a8 -->
<g id="edge18" class="edge">
<title>dir_e4d7f7a88037af12eae8bd997a8823fc&#45;&gt;dir_718cb05e94fb01aeb88649f9185845a8</title>
<path fill="none" stroke="#63b8ff" d="M110.78,-298.75C115.62,-291.42 122.68,-280.73 128.64,-271.7"/>
<polygon fill="#63b8ff" stroke="#63b8ff" points="131.74,-273.36 134.33,-263.09 125.9,-269.5 131.74,-273.36"/>
<g id="a_edge18&#45;headlabel"><a xlink:href="dir_000032_000011.html" target="_top" xlink:title="2">
<text text-anchor="middle" x="132.13" y="-275.43" font-family="Helvetica,sans-Serif" font-size="10.00" fill="#63b8ff">2</text>
</a>
</g>
</g>
<!-- dir_e4d7f7a88037af12eae8bd997a8823fc&#45;&gt;dir_cabae42bbc2bbaf21b45af6b92ef62e9 -->
<g id="edge20" class="edge">
<title>dir_e4d7f7a88037af12eae8bd997a8823fc&#45;&gt;dir_cabae42bbc2bbaf21b45af6b92ef62e9</title>
<path fill="none" stroke="#63b8ff" d="M96.15,-298.89C79.46,-281.68 45,-241.11 45,-199.5 45,-199.5 45,-199.5 45,-142.5 45,-108.67 62.47,-72.38 74.32,-51.66"/>
<polygon fill="#63b8ff" stroke="#63b8ff" points="77.34,-53.44 79.44,-43.06 71.32,-49.86 77.34,-53.44"/>
<g id="a_edge20&#45;headlabel"><a xlink:href="dir_000032_000013.html" target="_top" xlink:title="2">
<text text-anchor="middle" x="77.94" y="-55.48" font-family="Helvetica,sans-Serif" font-size="10.00" fill="#63b8ff">2</text>
</a>
</g>
</g>
<!-- dir_e4d7f7a88037af12eae8bd997a8823fc&#45;&gt;dir_36f22bdf0117f38e86252516d12afdac -->
<g id="edge17" class="edge">
<title>dir_e4d7f7a88037af12eae8bd997a8823fc&#45;&gt;dir_36f22bdf0117f38e86252516d12afdac</title>
<path fill="none" stroke="#63b8ff" d="M105.07,-298.85C105.26,-286.6 105.88,-263.53 108,-244 111.08,-215.61 117.13,-183.06 121.12,-163.14"/>
<polygon fill="#63b8ff" stroke="#63b8ff" points="124.57,-163.73 123.14,-153.23 117.71,-162.33 124.57,-163.73"/>
<g id="a_edge17&#45;headlabel"><a xlink:href="dir_000032_000035.html" target="_top" xlink:title="2">
<text text-anchor="middle" x="126.63" y="-165.32" font-family="Helvetica,sans-Serif" font-size="10.00" fill="#63b8ff">2</text>
</a>
</g>
</g>
<!-- dir_e4d7f7a88037af12eae8bd997a8823fc&#45;&gt;dir_a0bd5b61e2f393f7cb26e530f5604320 -->
<g id="edge19" class="edge">
<title>dir_e4d7f7a88037af12eae8bd997a8823fc&#45;&gt;dir_a0bd5b61e2f393f7cb26e530f5604320</title>
<path fill="none" stroke="#63b8ff" d="M125.79,-300.23C141.89,-293.37 163.07,-281.37 173,-263 180.38,-249.35 178.75,-231.53 175.78,-218.25"/>
<polygon fill="#63b8ff" stroke="#63b8ff" points="179.09,-217.11 173.13,-208.35 172.33,-218.91 179.09,-217.11"/>
<g id="a_edge19&#45;headlabel"><a xlink:href="dir_000032_000041.html" target="_top" xlink:title="9">
<text text-anchor="middle" x="182.76" y="-217.35" font-family="Helvetica,sans-Serif" font-size="10.00" fill="#63b8ff">9</text>
</a>
</g>
</g>
<!-- dir_36f22bdf0117f38e86252516d12afdac&#45;&gt;dir_718cb05e94fb01aeb88649f9185845a8 -->
<g id="edge21" class="edge">
<title>dir_36f22bdf0117f38e86252516d12afdac&#45;&gt;dir_718cb05e94fb01aeb88649f9185845a8</title>
<path fill="none" stroke="#63b8ff" d="M130.08,-153.16C135.77,-170.5 141.7,-209.84 142.65,-233.48"/>
<polygon fill="#63b8ff" stroke="#63b8ff" points="139.15,-233.68 142.68,-243.66 146.15,-233.65 139.15,-233.68"/>
<g id="a_edge21&#45;headlabel"><a xlink:href="dir_000035_000011.html" target="_top" xlink:title="4">
<text text-anchor="middle" x="136.29" y="-227.59" font-family="Helvetica,sans-Serif" font-size="10.00" fill="#63b8ff">4</text>
</a>
</g>
</g>
<!-- dir_36f22bdf0117f38e86252516d12afdac&#45;&gt;dir_cabae42bbc2bbaf21b45af6b92ef62e9 -->
<g id="edge23" class="edge">
<title>dir_36f22bdf0117f38e86252516d12afdac&#45;&gt;dir_cabae42bbc2bbaf21b45af6b92ef62e9</title>
<path fill="none" stroke="#63b8ff" d="M121.73,-133.66C115.19,-116.01 100.4,-76.09 91.72,-52.64"/>
<polygon fill="#63b8ff" stroke="#63b8ff" points="94.96,-51.32 88.21,-43.16 88.4,-53.75 94.96,-51.32"/>
<g id="a_edge23&#45;headlabel"><a xlink:href="dir_000035_000013.html" target="_top" xlink:title="7">
<text text-anchor="middle" x="98.87" y="-51.2" font-family="Helvetica,sans-Serif" font-size="10.00" fill="#63b8ff">7</text>
</a>
</g>
</g>
<!-- dir_36f22bdf0117f38e86252516d12afdac&#45;&gt;dir_9101985d24c2f692df501a09f2c284d0 -->
<g id="edge22" class="edge">
<title>dir_36f22bdf0117f38e86252516d12afdac&#45;&gt;dir_9101985d24c2f692df501a09f2c284d0</title>
<path fill="none" stroke="#63b8ff" d="M136.09,-133.98C146.49,-126 162.26,-113.88 174.72,-104.31"/>
<polygon fill="#63b8ff" stroke="#63b8ff" points="176.91,-107.04 182.71,-98.17 172.65,-101.49 176.91,-107.04"/>
<g id="a_edge22&#45;headlabel"><a xlink:href="dir_000035_000028.html" target="_top" xlink:title="1">
<text text-anchor="middle" x="175.79" y="-108.98" font-family="Helvetica,sans-Serif" font-size="10.00" fill="#63b8ff">1</text>
</a>
</g>
</g>
<!-- dir_a0bd5b61e2f393f7cb26e530f5604320&#45;&gt;dir_718cb05e94fb01aeb88649f9185845a8 -->
<g id="edge25" class="edge">
<title>dir_a0bd5b61e2f393f7cb26e530f5604320&#45;&gt;dir_718cb05e94fb01aeb88649f9185845a8</title>
<path fill="none" stroke="#63b8ff" d="M170.27,-208.09C167.71,-215.45 162,-226.27 156.04,-235.39"/>
<polygon fill="#63b8ff" stroke="#63b8ff" points="153.05,-233.57 150.12,-243.75 158.76,-237.61 153.05,-233.57"/>
<g id="a_edge25&#45;headlabel"><a xlink:href="dir_000041_000011.html" target="_top" xlink:title="13">
<text text-anchor="middle" x="152.81" y="-226.49" font-family="Helvetica,sans-Serif" font-size="10.00" fill="#63b8ff">13</text>
</a>
</g>
</g>
<!-- dir_a0bd5b61e2f393f7cb26e530f5604320&#45;&gt;dir_cabae42bbc2bbaf21b45af6b92ef62e9 -->
<g id="edge27" class="edge">
<title>dir_a0bd5b61e2f393f7cb26e530f5604320&#45;&gt;dir_cabae42bbc2bbaf21b45af6b92ef62e9</title>
<path fill="none" stroke="#63b8ff" d="M168.01,-188.59C165.03,-176.03 158.8,-152.6 150,-134 135.3,-102.92 112.2,-70.15 97.86,-51.05"/>
<polygon fill="#63b8ff" stroke="#63b8ff" points="100.62,-48.9 91.78,-43.07 95.06,-53.15 100.62,-48.9"/>
<g id="a_edge27&#45;headlabel"><a xlink:href="dir_000041_000013.html" target="_top" xlink:title="14">
<text text-anchor="middle" x="105.06" y="-47.54" font-family="Helvetica,sans-Serif" font-size="10.00" fill="#63b8ff">14</text>
</a>
</g>
</g>
<!-- dir_a0bd5b61e2f393f7cb26e530f5604320&#45;&gt;dir_9101985d24c2f692df501a09f2c284d0 -->
<g id="edge26" class="edge">
<title>dir_a0bd5b61e2f393f7cb26e530f5604320&#45;&gt;dir_9101985d24c2f692df501a09f2c284d0</title>
<path fill="none" stroke="#63b8ff" d="M171.96,-188.66C175.87,-171.09 184.68,-131.45 189.9,-107.95"/>
<polygon fill="#63b8ff" stroke="#63b8ff" points="193.32,-108.68 192.08,-98.16 186.49,-107.16 193.32,-108.68"/>
<g id="a_edge26&#45;headlabel"><a xlink:href="dir_000041_000028.html" target="_top" xlink:title="7">
<text text-anchor="middle" x="195.32" y="-110.3" font-family="Helvetica,sans-Serif" font-size="10.00" fill="#63b8ff">7</text>
</a>
</g>
</g>
<!-- dir_a0bd5b61e2f393f7cb26e530f5604320&#45;&gt;dir_36f22bdf0117f38e86252516d12afdac -->
<g id="edge24" class="edge">
<title>dir_a0bd5b61e2f393f7cb26e530f5604320&#45;&gt;dir_36f22bdf0117f38e86252516d12afdac</title>
<path fill="none" stroke="#63b8ff" d="M162.57,-188.75C156.15,-181.18 146.69,-170.05 138.88,-160.84"/>
<polygon fill="#63b8ff" stroke="#63b8ff" points="141.43,-158.45 132.29,-153.09 136.1,-162.98 141.43,-158.45"/>
<g id="a_edge24&#45;headlabel"><a xlink:href="dir_000041_000035.html" target="_top" xlink:title="3">
<text text-anchor="middle" x="145.92" y="-156.85" font-family="Helvetica,sans-Serif" font-size="10.00" fill="#63b8ff">3</text>
</a>
</g>
</g>
</g>
</svg>
