<?xml version="1.0" encoding="UTF-8" standalone="no"?>
<!DOCTYPE svg PUBLIC "-//W3C//DTD SVG 1.1//EN"
 "http://www.w3.org/Graphics/SVG/1.1/DTD/svg11.dtd">
<!-- Generated by graphviz version 2.43.0 (0)
 -->
<!-- Title: src/apps Pages: 1 -->
<!--zoomable 141 -->
<svg id="main" version="1.1" xmlns="http://www.w3.org/2000/svg" xmlns:xlink="http://www.w3.org/1999/xlink" xml:space="preserve" onload="init(evt)">
<style type="text/css"><![CDATA[
.edge:hover path { stroke: red; }
.edge:hover polygon { stroke: red; fill: red; }
]]></style>
<script type="text/javascript"><![CDATA[
var edges = document.getElementsByTagName('g');
if (edges && edges.length) {
  for (var i=0;i<edges.length;i++) {
    if (edges[i].id.substr(0,4)=='edge') {
      edges[i].setAttribute('class','edge');
    }
  }
}
]]></script>
        <defs>
                <circle id="rim" cx="0" cy="0" r="7"/>
                <circle id="rim2" cx="0" cy="0" r="3.5"/>
                <g id="zoomPlus">
                        <use xlink:href="#rim" fill="#404040">
                                <set attributeName="fill" to="#808080" begin="zoomplus.mouseover" end="zoomplus.mouseout"/>
                        </use>
                        <path d="M-4,0h8M0,-4v8" fill="none" stroke="white" stroke-width="1.5" pointer-events="none"/>
                </g>
                <g id="zoomMin">
                        <use xlink:href="#rim" fill="#404040">
                                <set attributeName="fill" to="#808080" begin="zoomminus.mouseover" end="zoomminus.mouseout"/>
                        </use>
                        <path d="M-4,0h8" fill="none" stroke="white" stroke-width="1.5" pointer-events="none"/>
                </g>
                <g id="dirArrow">
                        <path fill="none" stroke="white" stroke-width="1.5" d="M0,-3.0v7 M-2.5,-0.5L0,-3.0L2.5,-0.5"/>
                </g>
               <g id="resetDef">
                       <use xlink:href="#rim2" fill="#404040">
                               <set attributeName="fill" to="#808080" begin="reset.mouseover" end="reset.mouseout"/>
                       </use>
               </g>
        </defs>

<script type="text/javascript">
var viewWidth = 703;
var viewHeight = 141;
var sectionId = 'dynsection-0';
</script>
<script xlink:href="svgpan.js"/>
<svg id="graph" class="graph">
<g id="viewport">
<title>src/apps</title>
<g id="clust1" class="cluster">
<title>clusterdir_68267d1309a1af8e8297ef4c3efbcdba</title>
<g id="a_clust1"><a xlink:href="dir_68267d1309a1af8e8297ef4c3efbcdba.html" target="_top" xlink:title="src">
<polygon fill="#edf0f7" stroke="#404040" stroke-dasharray="5,2" points="8,-8 8,-125 633,-125 633,-8 8,-8"/>
<text text-anchor="middle" x="320.5" y="-113" font-family="Helvetica,sans-Serif" font-size="10.00">src</text>
</a>
</g>
</g>
<g id="clust2" class="cluster">
<title>clusterdir_53adf0b982dc8545998aae3f283a5a58</title>
<g id="a_clust2"><a xlink:href="dir_53adf0b982dc8545998aae3f283a5a58.html" target="_top">
<polygon fill="#edf0f7" stroke="#404040" stroke-width="2" points="246,-63 246,-98 564,-98 564,-63 246,-63"/>
</a>
</g>
</g>
<!-- dir_122f4add68bb94b3fee614989bbbd8f9 -->
<g id="node1" class="node">
<title>dir_122f4add68bb94b3fee614989bbbd8f9</title>
<g id="a_node1"><a xlink:href="dir_122f4add68bb94b3fee614989bbbd8f9.html" target="_top" xlink:title="ds">
<polygon fill="#a2b4d6" stroke="#404040" points="557.5,-35 528.5,-35 528.5,-16 557.5,-16 557.5,-35"/>
<text text-anchor="middle" x="543" y="-23" font-family="Helvetica,sans-Serif" font-size="10.00">ds</text>
</a>
</g>
</g>
<!-- dir_44454380e89751d088dd05c94905df2f -->
<g id="node2" class="node">
<title>dir_44454380e89751d088dd05c94905df2f</title>
<g id="a_node2"><a xlink:href="dir_44454380e89751d088dd05c94905df2f.html" target="_top" xlink:title="clients">
<polygon fill="#a2b4d6" stroke="red" points="624.5,-35 575.5,-35 575.5,-16 624.5,-16 624.5,-35"/>
<text text-anchor="middle" x="600" y="-23" font-family="Helvetica,sans-Serif" font-size="10.00">clients</text>
</a>
</g>
</g>
<!-- dir_a2b23ad3d4048fef2ffce6bed40d1385 -->
<g id="node3" class="node">
<title>dir_a2b23ad3d4048fef2ffce6bed40d1385</title>
<g id="a_node3"><a xlink:href="dir_a2b23ad3d4048fef2ffce6bed40d1385.html" target="_top" xlink:title="endpoints">
<polygon fill="#a2b4d6" stroke="red" points="81.5,-35 16.5,-35 16.5,-16 81.5,-16 81.5,-35"/>
<text text-anchor="middle" x="49" y="-23" font-family="Helvetica,sans-Serif" font-size="10.00">endpoints</text>
</a>
</g>
</g>
<!-- dir_2d29d7dff7c7baf1180920f6796c23ae -->
<g id="node4" class="node">
<title>dir_2d29d7dff7c7baf1180920f6796c23ae</title>
<g id="a_node4"><a xlink:href="dir_2d29d7dff7c7baf1180920f6796c23ae.html" target="_top" xlink:title="http">
<polygon fill="#a2b4d6" stroke="#404040" points="213,-35 177,-35 177,-16 213,-16 213,-35"/>
<text text-anchor="middle" x="195" y="-23" font-family="Helvetica,sans-Serif" font-size="10.00">http</text>
</a>
</g>
</g>
<!-- dir_18ae7af74d885898b85cbb543ae51b63 -->
<g id="node5" class="node">
<title>dir_18ae7af74d885898b85cbb543ae51b63</title>
<g id="a_node5"><a xlink:href="dir_18ae7af74d885898b85cbb543ae51b63.html" target="_top" xlink:title="node">
<polygon fill="#a2b4d6" stroke="red" points="272.5,-35 231.5,-35 231.5,-16 272.5,-16 272.5,-35"/>
<text text-anchor="middle" x="252" y="-23" font-family="Helvetica,sans-Serif" font-size="10.00">node</text>
</a>
</g>
</g>
<!-- dir_1af0ddd77af1c20f0c9558f89bd86ab0 -->
<g id="node6" class="node">
<title>dir_1af0ddd77af1c20f0c9558f89bd86ab0</title>
<g id="a_node6"><a xlink:href="dir_1af0ddd77af1c20f0c9558f89bd86ab0.html" target="_top" xlink:title="indexing">
<polygon fill="#a2b4d6" stroke="red" points="158.5,-35 99.5,-35 99.5,-16 158.5,-16 158.5,-35"/>
<text text-anchor="middle" x="129" y="-23" font-family="Helvetica,sans-Serif" font-size="10.00">indexing</text>
</a>
</g>
</g>
<!-- dir_4c8befd6991d7a2e9d66c427274b8c22 -->
<g id="node7" class="node">
<title>dir_4c8befd6991d7a2e9d66c427274b8c22</title>
<g id="a_node7"><a xlink:href="dir_4c8befd6991d7a2e9d66c427274b8c22.html" target="_top" xlink:title="kv">
<polygon fill="#a2b4d6" stroke="#404040" points="319.5,-35 290.5,-35 290.5,-16 319.5,-16 319.5,-35"/>
<text text-anchor="middle" x="305" y="-23" font-family="Helvetica,sans-Serif" font-size="10.00">kv</text>
</a>
</g>
</g>
<!-- dir_5427940bb9029915fc0c11c1284afde6 -->
<g id="node8" class="node">
<title>dir_5427940bb9029915fc0c11c1284afde6</title>
<g id="a_node8"><a xlink:href="dir_5427940bb9029915fc0c11c1284afde6.html" target="_top" xlink:title="enclave">
<polygon fill="#a2b4d6" stroke="#404040" points="510.5,-35 455.5,-35 455.5,-16 510.5,-16 510.5,-35"/>
<text text-anchor="middle" x="483" y="-23" font-family="Helvetica,sans-Serif" font-size="10.00">enclave</text>
</a>
</g>
</g>
<!-- dir_3dcea8250b5ce8d5bc595fbbad3e8f21 -->
<g id="node9" class="node">
<title>dir_3dcea8250b5ce8d5bc595fbbad3e8f21</title>
<g id="a_node9"><a xlink:href="dir_3dcea8250b5ce8d5bc595fbbad3e8f21.html" target="_top" xlink:title="js">
<polygon fill="#a2b4d6" stroke="#404040" points="366.5,-35 337.5,-35 337.5,-16 366.5,-16 366.5,-35"/>
<text text-anchor="middle" x="352" y="-23" font-family="Helvetica,sans-Serif" font-size="10.00">js</text>
</a>
</g>
</g>
<!-- dir_4f691f982165d1317925cee58b4b4f56 -->
<g id="node10" class="node">
<title>dir_4f691f982165d1317925cee58b4b4f56</title>
<g id="a_node10"><a xlink:href="dir_4f691f982165d1317925cee58b4b4f56.html" target="_top" xlink:title="service">
<polygon fill="#a2b4d6" stroke="red" points="437,-35 385,-35 385,-16 437,-16 437,-35"/>
<text text-anchor="middle" x="411" y="-23" font-family="Helvetica,sans-Serif" font-size="10.00">service</text>
</a>
</g>
</g>
<!-- dir_53adf0b982dc8545998aae3f283a5a58 -->
<g id="node11" class="node">
<title>dir_53adf0b982dc8545998aae3f283a5a58</title>
<text text-anchor="middle" x="536" y="-78" font-family="Helvetica,sans-Serif" font-size="10.00">apps</text>
</g>
<!-- dir_88d5bc67d447a911ad6eaf93832c9ab4 -->
<g id="node12" class="node">
<title>dir_88d5bc67d447a911ad6eaf93832c9ab4</title>
<g id="a_node12"><a xlink:href="dir_88d5bc67d447a911ad6eaf93832c9ab4.html" target="_top" xlink:title="external_executor">
<polygon fill="#a2b4d6" stroke="#404040" points="358,-90 254,-90 254,-71 358,-71 358,-90"/>
<text text-anchor="middle" x="306" y="-78" font-family="Helvetica,sans-Serif" font-size="10.00">external_executor</text>
</a>
</g>
</g>
<!-- dir_88d5bc67d447a911ad6eaf93832c9ab4&#45;&gt;dir_122f4add68bb94b3fee614989bbbd8f9 -->
<g id="edge1" class="edge">
<title>dir_88d5bc67d447a911ad6eaf93832c9ab4&#45;&gt;dir_122f4add68bb94b3fee614989bbbd8f9</title>
<path fill="none" stroke="#63b8ff" d="M335.66,-70.95C345.58,-68.23 356.73,-65.32 367,-63 431.4,-48.42 451.53,-52.82 518.29,-35.11"/>
<polygon fill="#63b8ff" stroke="#63b8ff" points="519.3,-38.46 528.03,-32.46 517.46,-31.71 519.3,-38.46"/>
<g id="a_edge1&#45;headlabel"><a xlink:href="dir_000018_000014.html" target="_top" xlink:title="1">
<text text-anchor="middle" x="516.57" y="-39.64" font-family="Helvetica,sans-Serif" font-size="10.00" fill="#63b8ff">1</text>
</a>
</g>
</g>
<!-- dir_88d5bc67d447a911ad6eaf93832c9ab4&#45;&gt;dir_a2b23ad3d4048fef2ffce6bed40d1385 -->
<g id="edge6" class="edge">
<title>dir_88d5bc67d447a911ad6eaf93832c9ab4&#45;&gt;dir_a2b23ad3d4048fef2ffce6bed40d1385</title>
<path fill="none" stroke="#63b8ff" d="M264.59,-70.98C223.23,-62.48 157.55,-48.95 91.8,-35.37"/>
<polygon fill="#63b8ff" stroke="#63b8ff" points="92.17,-31.87 81.67,-33.28 90.76,-38.73 92.17,-31.87"/>
<g id="a_edge6&#45;headlabel"><a xlink:href="dir_000018_000017.html" target="_top" xlink:title="2">
<text text-anchor="middle" x="96.27" y="-27.32" font-family="Helvetica,sans-Serif" font-size="10.00" fill="#63b8ff">2</text>
</a>
</g>
</g>
<!-- dir_88d5bc67d447a911ad6eaf93832c9ab4&#45;&gt;dir_2d29d7dff7c7baf1180920f6796c23ae -->
<g id="edge4" class="edge">
<title>dir_88d5bc67d447a911ad6eaf93832c9ab4&#45;&gt;dir_2d29d7dff7c7baf1180920f6796c23ae</title>
<path fill="none" stroke="#63b8ff" d="M288.17,-70.98C270.39,-62.5 242.85,-49.35 222.32,-39.54"/>
<polygon fill="#63b8ff" stroke="#63b8ff" points="223.69,-36.32 213.16,-35.17 220.67,-42.64 223.69,-36.32"/>
<g id="a_edge4&#45;headlabel"><a xlink:href="dir_000018_000021.html" target="_top" xlink:title="1">
<text text-anchor="middle" x="228.16" y="-32.81" font-family="Helvetica,sans-Serif" font-size="10.00" fill="#63b8ff">1</text>
</a>
</g>
</g>
<!-- dir_88d5bc67d447a911ad6eaf93832c9ab4&#45;&gt;dir_18ae7af74d885898b85cbb543ae51b63 -->
<g id="edge2" class="edge">
<title>dir_88d5bc67d447a911ad6eaf93832c9ab4&#45;&gt;dir_18ae7af74d885898b85cbb543ae51b63</title>
<path fill="none" stroke="#63b8ff" d="M297.08,-70.75C289.22,-63.03 277.57,-51.6 268.08,-42.28"/>
<polygon fill="#63b8ff" stroke="#63b8ff" points="270.34,-39.6 260.75,-35.09 265.44,-44.59 270.34,-39.6"/>
<g id="a_edge2&#45;headlabel"><a xlink:href="dir_000018_000033.html" target="_top" xlink:title="4">
<text text-anchor="middle" x="274.89" y="-37.59" font-family="Helvetica,sans-Serif" font-size="10.00" fill="#63b8ff">4</text>
</a>
</g>
</g>
<!-- dir_88d5bc67d447a911ad6eaf93832c9ab4&#45;&gt;dir_1af0ddd77af1c20f0c9558f89bd86ab0 -->
<g id="edge3" class="edge">
<title>dir_88d5bc67d447a911ad6eaf93832c9ab4&#45;&gt;dir_1af0ddd77af1c20f0c9558f89bd86ab0</title>
<path fill="none" stroke="#63b8ff" d="M277.56,-70.98C247.72,-62.05 200.62,-47.94 167.47,-38.02"/>
<polygon fill="#63b8ff" stroke="#63b8ff" points="168.24,-34.6 157.66,-35.08 166.24,-41.3 168.24,-34.6"/>
<g id="a_edge3&#45;headlabel"><a xlink:href="dir_000018_000025.html" target="_top" xlink:title="1">
<text text-anchor="middle" x="172.5" y="-30.41" font-family="Helvetica,sans-Serif" font-size="10.00" fill="#63b8ff">1</text>
</a>
</g>
</g>
<!-- dir_88d5bc67d447a911ad6eaf93832c9ab4&#45;&gt;dir_4c8befd6991d7a2e9d66c427274b8c22 -->
<g id="edge5" class="edge">
<title>dir_88d5bc67d447a911ad6eaf93832c9ab4&#45;&gt;dir_4c8befd6991d7a2e9d66c427274b8c22</title>
<path fill="none" stroke="#63b8ff" d="M305.83,-70.75C305.7,-63.8 305.52,-53.85 305.35,-45.13"/>
<polygon fill="#63b8ff" stroke="#63b8ff" points="308.85,-45.02 305.16,-35.09 301.85,-45.15 308.85,-45.02"/>
<g id="a_edge5&#45;headlabel"><a xlink:href="dir_000018_000029.html" target="_top" xlink:title="1">
<text text-anchor="middle" x="311.76" y="-46.06" font-family="Helvetica,sans-Serif" font-size="10.00" fill="#63b8ff">1</text>
</a>
</g>
</g>
<!-- dir_d44c64559bbebec7f509842c48db8b23 -->
<g id="node15" class="node">
<title>dir_d44c64559bbebec7f509842c48db8b23</title>
<g id="a_node15"><a xlink:href="dir_d44c64559bbebec7f509842c48db8b23.html" target="_top" xlink:title="include">
<polygon fill="#edf0f7" stroke="red" points="695,-35 643,-35 643,-16 695,-16 695,-35"/>
<text text-anchor="middle" x="669" y="-23" font-family="Helvetica,sans-Serif" font-size="10.00">include</text>
</a>
</g>
</g>
<!-- dir_88d5bc67d447a911ad6eaf93832c9ab4&#45;&gt;dir_d44c64559bbebec7f509842c48db8b23 -->
<g id="edge7" class="edge">
<title>dir_88d5bc67d447a911ad6eaf93832c9ab4&#45;&gt;dir_d44c64559bbebec7f509842c48db8b23</title>
<path fill="none" stroke="#63b8ff" d="M333.72,-70.99C344.08,-68.08 356,-65.04 367,-63 482.37,-41.56 516.48,-55.94 632.87,-35.59"/>
<polygon fill="#63b8ff" stroke="#63b8ff" points="633.66,-39.01 642.88,-33.79 632.42,-32.12 633.66,-39.01"/>
<g id="a_edge7&#45;headlabel"><a xlink:href="dir_000018_000023.html" target="_top" xlink:title="23">
<text text-anchor="middle" x="630.62" y="-39.94" font-family="Helvetica,sans-Serif" font-size="10.00" fill="#63b8ff">23</text>
</a>
</g>
</g>
<!-- dir_17be9e3e5392a98208079abc1cb5a0b0 -->
<g id="node13" class="node">
<title>dir_17be9e3e5392a98208079abc1cb5a0b0</title>
<g id="a_node13"><a xlink:href="dir_17be9e3e5392a98208079abc1cb5a0b0.html" target="_top" xlink:title="js_generic">
<polygon fill="#a2b4d6" stroke="#404040" points="442,-90 376,-90 376,-71 442,-71 442,-90"/>
<text text-anchor="middle" x="409" y="-78" font-family="Helvetica,sans-Serif" font-size="10.00">js_generic</text>
</a>
</g>
</g>
<!-- dir_17be9e3e5392a98208079abc1cb5a0b0&#45;&gt;dir_18ae7af74d885898b85cbb543ae51b63 -->
<g id="edge8" class="edge">
<title>dir_17be9e3e5392a98208079abc1cb5a0b0&#45;&gt;dir_18ae7af74d885898b85cbb543ae51b63</title>
<path fill="none" stroke="#63b8ff" d="M388.17,-71C381.45,-68.34 373.94,-65.46 367,-63 338.62,-52.94 305.86,-42.67 282.58,-35.6"/>
<polygon fill="#63b8ff" stroke="#63b8ff" points="283.5,-32.22 272.91,-32.68 281.48,-38.92 283.5,-32.22"/>
<g id="a_edge8&#45;headlabel"><a xlink:href="dir_000027_000033.html" target="_top" xlink:title="1">
<text text-anchor="middle" x="287.76" y="-28.04" font-family="Helvetica,sans-Serif" font-size="10.00" fill="#63b8ff">1</text>
</a>
</g>
</g>
<!-- dir_17be9e3e5392a98208079abc1cb5a0b0&#45;&gt;dir_4c8befd6991d7a2e9d66c427274b8c22 -->
<g id="edge10" class="edge">
<title>dir_17be9e3e5392a98208079abc1cb5a0b0&#45;&gt;dir_4c8befd6991d7a2e9d66c427274b8c22</title>
<path fill="none" stroke="#63b8ff" d="M392.29,-70.98C375.1,-62.22 348.16,-48.5 328.76,-38.61"/>
<polygon fill="#63b8ff" stroke="#63b8ff" points="330.15,-35.39 319.65,-33.97 326.97,-41.63 330.15,-35.39"/>
<g id="a_edge10&#45;headlabel"><a xlink:href="dir_000027_000029.html" target="_top" xlink:title="1">
<text text-anchor="middle" x="334.64" y="-31.99" font-family="Helvetica,sans-Serif" font-size="10.00" fill="#63b8ff">1</text>
</a>
</g>
</g>
<!-- dir_17be9e3e5392a98208079abc1cb5a0b0&#45;&gt;dir_5427940bb9029915fc0c11c1284afde6 -->
<g id="edge12" class="edge">
<title>dir_17be9e3e5392a98208079abc1cb5a0b0&#45;&gt;dir_5427940bb9029915fc0c11c1284afde6</title>
<path fill="none" stroke="#63b8ff" d="M420.89,-70.98C432.15,-62.92 449.29,-50.65 462.71,-41.03"/>
<polygon fill="#63b8ff" stroke="#63b8ff" points="464.8,-43.84 470.89,-35.17 460.73,-38.15 464.8,-43.84"/>
<g id="a_edge12&#45;headlabel"><a xlink:href="dir_000027_000015.html" target="_top" xlink:title="1">
<text text-anchor="middle" x="463.53" y="-45.74" font-family="Helvetica,sans-Serif" font-size="10.00" fill="#63b8ff">1</text>
</a>
</g>
</g>
<!-- dir_17be9e3e5392a98208079abc1cb5a0b0&#45;&gt;dir_3dcea8250b5ce8d5bc595fbbad3e8f21 -->
<g id="edge9" class="edge">
<title>dir_17be9e3e5392a98208079abc1cb5a0b0&#45;&gt;dir_3dcea8250b5ce8d5bc595fbbad3e8f21</title>
<path fill="none" stroke="#63b8ff" d="M399.84,-70.98C391.5,-63.23 378.97,-51.58 368.82,-42.14"/>
<polygon fill="#63b8ff" stroke="#63b8ff" points="371.03,-39.42 361.32,-35.17 366.26,-44.54 371.03,-39.42"/>
<g id="a_edge9&#45;headlabel"><a xlink:href="dir_000027_000026.html" target="_top" xlink:title="1">
<text text-anchor="middle" x="375.6" y="-37.28" font-family="Helvetica,sans-Serif" font-size="10.00" fill="#63b8ff">1</text>
</a>
</g>
</g>
<!-- dir_17be9e3e5392a98208079abc1cb5a0b0&#45;&gt;dir_4f691f982165d1317925cee58b4b4f56 -->
<g id="edge11" class="edge">
<title>dir_17be9e3e5392a98208079abc1cb5a0b0&#45;&gt;dir_4f691f982165d1317925cee58b4b4f56</title>
<path fill="none" stroke="#63b8ff" d="M409.33,-70.75C409.59,-63.8 409.97,-53.85 410.3,-45.13"/>
<polygon fill="#63b8ff" stroke="#63b8ff" points="413.8,-45.21 410.68,-35.09 406.8,-44.95 413.8,-45.21"/>
<g id="a_edge11&#45;headlabel"><a xlink:href="dir_000027_000042.html" target="_top" xlink:title="1">
<text text-anchor="middle" x="416.5" y="-46.41" font-family="Helvetica,sans-Serif" font-size="10.00" fill="#63b8ff">1</text>
</a>
</g>
</g>
<!-- dir_17be9e3e5392a98208079abc1cb5a0b0&#45;&gt;dir_d44c64559bbebec7f509842c48db8b23 -->
<g id="edge13" class="edge">
<title>dir_17be9e3e5392a98208079abc1cb5a0b0&#45;&gt;dir_d44c64559bbebec7f509842c48db8b23</title>
<path fill="none" stroke="#63b8ff" d="M428.83,-70.86C436.02,-68.01 444.27,-65.04 452,-63 529.26,-42.59 553.68,-51.18 632.92,-35.7"/>
<polygon fill="#63b8ff" stroke="#63b8ff" points="633.75,-39.1 642.86,-33.69 632.37,-32.24 633.75,-39.1"/>
<g id="a_edge13&#45;headlabel"><a xlink:href="dir_000027_000023.html" target="_top" xlink:title="10">
<text text-anchor="middle" x="630.79" y="-40.1" font-family="Helvetica,sans-Serif" font-size="10.00" fill="#63b8ff">10</text>
</a>
</g>
</g>
<!-- dir_42c804dea09c572d6c8990717f45801b -->
<g id="node14" class="node">
<title>dir_42c804dea09c572d6c8990717f45801b</title>
<g id="a_node14"><a xlink:href="dir_42c804dea09c572d6c8990717f45801b.html" target="_top" xlink:title="tpcc">
<polygon fill="#a2b4d6" stroke="#404040" points="497.5,-90 460.5,-90 460.5,-71 497.5,-71 497.5,-90"/>
<text text-anchor="middle" x="479" y="-78" font-family="Helvetica,sans-Serif" font-size="10.00">tpcc</text>
</a>
</g>
</g>
<!-- dir_42c804dea09c572d6c8990717f45801b&#45;&gt;dir_122f4add68bb94b3fee614989bbbd8f9 -->
<g id="edge14" class="edge">
<title>dir_42c804dea09c572d6c8990717f45801b&#45;&gt;dir_122f4add68bb94b3fee614989bbbd8f9</title>
<path fill="none" stroke="#63b8ff" d="M489.28,-70.98C498.84,-63.07 513.28,-51.11 524.78,-41.58"/>
<polygon fill="#63b8ff" stroke="#63b8ff" points="527.06,-44.24 532.53,-35.17 522.6,-38.85 527.06,-44.24"/>
<g id="a_edge14&#45;headlabel"><a xlink:href="dir_000049_000014.html" target="_top" xlink:title="2">
<text text-anchor="middle" x="526.1" y="-46.22" font-family="Helvetica,sans-Serif" font-size="10.00" fill="#63b8ff">2</text>
</a>
</g>
</g>
<!-- dir_42c804dea09c572d6c8990717f45801b&#45;&gt;dir_44454380e89751d088dd05c94905df2f -->
<g id="edge15" class="edge">
<title>dir_42c804dea09c572d6c8990717f45801b&#45;&gt;dir_44454380e89751d088dd05c94905df2f</title>
<path fill="none" stroke="#63b8ff" d="M492.72,-70.83C497.19,-68.16 502.23,-65.32 507,-63 526.08,-53.71 548.16,-44.96 566.02,-38.36"/>
<polygon fill="#63b8ff" stroke="#63b8ff" points="567.26,-41.63 575.46,-34.92 564.87,-35.06 567.26,-41.63"/>
<g id="a_edge15&#45;headlabel"><a xlink:href="dir_000049_000008.html" target="_top" xlink:title="1">
<text text-anchor="middle" x="564.85" y="-43.03" font-family="Helvetica,sans-Serif" font-size="10.00" fill="#63b8ff">1</text>
</a>
</g>
</g>
<!-- dir_42c804dea09c572d6c8990717f45801b&#45;&gt;dir_d44c64559bbebec7f509842c48db8b23 -->
<g id="edge16" class="edge">
<title>dir_42c804dea09c572d6c8990717f45801b&#45;&gt;dir_d44c64559bbebec7f509842c48db8b23</title>
<path fill="none" stroke="#63b8ff" d="M491.67,-70.87C496.32,-68.02 501.74,-65.05 507,-63 559.04,-42.68 577.51,-48.1 632.84,-35.87"/>
<polygon fill="#63b8ff" stroke="#63b8ff" points="633.88,-39.22 642.83,-33.56 632.3,-32.4 633.88,-39.22"/>
<g id="a_edge16&#45;headlabel"><a xlink:href="dir_000049_000023.html" target="_top" xlink:title="6">
<text text-anchor="middle" x="631.01" y="-40.3" font-family="Helvetica,sans-Serif" font-size="10.00" fill="#63b8ff">6</text>
</a>
</g>
</g>
</g>
</svg>
        <g id="navigator" transform="translate(0 0)" fill="#404254">
                <rect fill="#f2f5e9" fill-opacity="0.5" stroke="#606060" stroke-width=".5" x="0" y="0" width="60" height="60"/>
                <use id="zoomplus" xlink:href="#zoomPlus" x="17" y="9" onmousedown="handleZoom(evt,'in')"/>
                <use id="zoomminus" xlink:href="#zoomMin" x="42" y="9" onmousedown="handleZoom(evt,'out')"/>
                <use id="reset" xlink:href="#resetDef" x="30" y="36" onmousedown="handleReset()"/>
                <g id="arrowUp" xlink:href="#dirArrow" transform="translate(30 24)" onmousedown="handlePan(0,-1)">
                  <use xlink:href="#rim" fill="#404040">
                        <set attributeName="fill" to="#808080" begin="arrowUp.mouseover" end="arrowUp.mouseout"/>
                  </use>
                  <path fill="none" stroke="white" stroke-width="1.5" d="M0,-3.0v7 M-2.5,-0.5L0,-3.0L2.5,-0.5"/>
                </g>
                <g id="arrowRight" xlink:href="#dirArrow" transform="rotate(90) translate(36 -43)" onmousedown="handlePan(1,0)">
                  <use xlink:href="#rim" fill="#404040">
                        <set attributeName="fill" to="#808080" begin="arrowRight.mouseover" end="arrowRight.mouseout"/>
                  </use>
                  <path fill="none" stroke="white" stroke-width="1.5" d="M0,-3.0v7 M-2.5,-0.5L0,-3.0L2.5,-0.5"/>
                </g>
                <g id="arrowDown" xlink:href="#dirArrow" transform="rotate(180) translate(-30 -48)" onmousedown="handlePan(0,1)">
                  <use xlink:href="#rim" fill="#404040">
                        <set attributeName="fill" to="#808080" begin="arrowDown.mouseover" end="arrowDown.mouseout"/>
                  </use>
                  <path fill="none" stroke="white" stroke-width="1.5" d="M0,-3.0v7 M-2.5,-0.5L0,-3.0L2.5,-0.5"/>
                </g>
                <g id="arrowLeft" xlink:href="#dirArrow" transform="rotate(270) translate(-36 17)" onmousedown="handlePan(-1,0)">
                  <use xlink:href="#rim" fill="#404040">
                        <set attributeName="fill" to="#808080" begin="arrowLeft.mouseover" end="arrowLeft.mouseout"/>
                  </use>
                  <path fill="none" stroke="white" stroke-width="1.5" d="M0,-3.0v7 M-2.5,-0.5L0,-3.0L2.5,-0.5"/>
                </g>
        </g>
        <svg viewBox="0 0 15 15" width="100%" height="30px" preserveAspectRatio="xMaxYMin meet">
         <g id="arrow_out" transform="scale(0.3 0.3)">
          <a xlink:href="dir_53adf0b982dc8545998aae3f283a5a58_dep_org.svg" target="_base">
           <rect id="button" ry="5" rx="5" y="6" x="6" height="38" width="38"
                fill="#f2f5e9" fill-opacity="0.5" stroke="#606060" stroke-width="1.0"/>
           <path id="arrow"
             d="M 11.500037,31.436501 C 11.940474,20.09759 22.043105,11.32322 32.158766,21.979434 L 37.068811,17.246167 C 37.068811,17.246167 37.088388,32 37.088388,32 L 22.160133,31.978069 C 22.160133,31.978069 26.997745,27.140456 26.997745,27.140456 C 18.528582,18.264221 13.291696,25.230495 11.500037,31.436501 z"
             style="fill:#404040;"/>
          </a>
         </g>
        </svg>
</svg>
