<?xml version="1.0" encoding="UTF-8" standalone="no"?>
<!DOCTYPE svg PUBLIC "-//W3C//DTD SVG 1.1//EN"
 "http://www.w3.org/Graphics/SVG/1.1/DTD/svg11.dtd">
<!-- Generated by graphviz version 2.43.0 (0)
 -->
<!-- Title: src/kv Pages: 1 -->
<svg width="413pt" height="133pt"
 viewBox="0.00 0.00 413.00 133.00" xmlns="http://www.w3.org/2000/svg" xmlns:xlink="http://www.w3.org/1999/xlink">
<g id="graph0" class="graph" transform="scale(1 1) rotate(0) translate(4 129)">
<title>src/kv</title>
<g id="clust1" class="cluster">
<title>clusterdir_68267d1309a1af8e8297ef4c3efbcdba</title>
<g id="a_clust1"><a xlink:href="dir_68267d1309a1af8e8297ef4c3efbcdba.html" target="_top" xlink:title="src">
<polygon fill="#edf0f7" stroke="#404040" stroke-dasharray="5,2" points="8,-8 8,-117 343,-117 343,-8 8,-8"/>
<text text-anchor="middle" x="175.5" y="-105" font-family="Helvetica,sans-Serif" font-size="10.00">src</text>
</a>
</g>
</g>
<!-- dir_122f4add68bb94b3fee614989bbbd8f9 -->
<g id="node1" class="node">
<title>dir_122f4add68bb94b3fee614989bbbd8f9</title>
<g id="a_node1"><a xlink:href="dir_122f4add68bb94b3fee614989bbbd8f9.html" target="_top" xlink:title="ds">
<polygon fill="#a2b4d6" stroke="#404040" points="45.5,-35 16.5,-35 16.5,-16 45.5,-16 45.5,-35"/>
<text text-anchor="middle" x="31" y="-23" font-family="Helvetica,sans-Serif" font-size="10.00">ds</text>
</a>
</g>
</g>
<!-- dir_18ae7af74d885898b85cbb543ae51b63 -->
<g id="node2" class="node">
<title>dir_18ae7af74d885898b85cbb543ae51b63</title>
<g id="a_node2"><a xlink:href="dir_18ae7af74d885898b85cbb543ae51b63.html" target="_top" xlink:title="node">
<polygon fill="#a2b4d6" stroke="red" points="104.5,-35 63.5,-35 63.5,-16 104.5,-16 104.5,-35"/>
<text text-anchor="middle" x="84" y="-23" font-family="Helvetica,sans-Serif" font-size="10.00">node</text>
</a>
</g>
</g>
<!-- dir_4f691f982165d1317925cee58b4b4f56 -->
<g id="node3" class="node">
<title>dir_4f691f982165d1317925cee58b4b4f56</title>
<g id="a_node3"><a xlink:href="dir_4f691f982165d1317925cee58b4b4f56.html" target="_top" xlink:title="service">
<polygon fill="#a2b4d6" stroke="red" points="175,-35 123,-35 123,-16 175,-16 175,-35"/>
<text text-anchor="middle" x="149" y="-23" font-family="Helvetica,sans-Serif" font-size="10.00">service</text>
</a>
</g>
</g>
<!-- dir_5427940bb9029915fc0c11c1284afde6 -->
<g id="node4" class="node">
<title>dir_5427940bb9029915fc0c11c1284afde6</title>
<g id="a_node4"><a xlink:href="dir_5427940bb9029915fc0c11c1284afde6.html" target="_top" xlink:title="enclave">
<polygon fill="#a2b4d6" stroke="#404040" points="248.5,-35 193.5,-35 193.5,-16 248.5,-16 248.5,-35"/>
<text text-anchor="middle" x="221" y="-23" font-family="Helvetica,sans-Serif" font-size="10.00">enclave</text>
</a>
</g>
</g>
<!-- dir_dee301ab18d354d094fb7852349ef839 -->
<g id="node5" class="node">
<title>dir_dee301ab18d354d094fb7852349ef839</title>
<g id="a_node5"><a xlink:href="dir_dee301ab18d354d094fb7852349ef839.html" target="_top" xlink:title="consensus">
<polygon fill="#a2b4d6" stroke="red" points="335,-35 267,-35 267,-16 335,-16 335,-35"/>
<text text-anchor="middle" x="301" y="-23" font-family="Helvetica,sans-Serif" font-size="10.00">consensus</text>
</a>
</g>
</g>
<!-- dir_4c8befd6991d7a2e9d66c427274b8c22 -->
<g id="node6" class="node">
<title>dir_4c8befd6991d7a2e9d66c427274b8c22</title>
<g id="a_node6"><a xlink:href="dir_4c8befd6991d7a2e9d66c427274b8c22.html" target="_top" xlink:title="kv">
<polygon fill="#edf0f7" stroke="#404040" stroke-width="2" points="199.5,-90 170.5,-90 170.5,-71 199.5,-71 199.5,-90"/>
<text text-anchor="middle" x="185" y="-78" font-family="Helvetica,sans-Serif" font-size="10.00">kv</text>
</a>
</g>
</g>
<!-- dir_4c8befd6991d7a2e9d66c427274b8c22&#45;&gt;dir_122f4add68bb94b3fee614989bbbd8f9 -->
<g id="edge1" class="edge">
<title>dir_4c8befd6991d7a2e9d66c427274b8c22&#45;&gt;dir_122f4add68bb94b3fee614989bbbd8f9</title>
<path fill="none" stroke="#63b8ff" d="M170.17,-74.48C147.52,-66.8 102.75,-51.58 55.25,-35.06"/>
<polygon fill="#63b8ff" stroke="#63b8ff" points="56.31,-31.72 45.71,-31.74 54.01,-38.33 56.31,-31.72"/>
<g id="a_edge1&#45;headlabel"><a xlink:href="dir_000029_000014.html" target="_top" xlink:title="3">
<text text-anchor="middle" x="60.64" y="-27.72" font-family="Helvetica,sans-Serif" font-size="10.00" fill="#63b8ff">3</text>
</a>
</g>
</g>
<!-- dir_4c8befd6991d7a2e9d66c427274b8c22&#45;&gt;dir_18ae7af74d885898b85cbb543ae51b63 -->
<g id="edge2" class="edge">
<title>dir_4c8befd6991d7a2e9d66c427274b8c22&#45;&gt;dir_18ae7af74d885898b85cbb543ae51b63</title>
<path fill="none" stroke="#63b8ff" d="M170.1,-71.68C154.14,-63.3 128.52,-49.86 109.38,-39.82"/>
<polygon fill="#63b8ff" stroke="#63b8ff" points="110.79,-36.6 100.3,-35.06 107.53,-42.8 110.79,-36.6"/>
<g id="a_edge2&#45;headlabel"><a xlink:href="dir_000029_000033.html" target="_top" xlink:title="3">
<text text-anchor="middle" x="115.29" y="-33.26" font-family="Helvetica,sans-Serif" font-size="10.00" fill="#63b8ff">3</text>
</a>
</g>
</g>
<!-- dir_4c8befd6991d7a2e9d66c427274b8c22&#45;&gt;dir_4f691f982165d1317925cee58b4b4f56 -->
<g id="edge3" class="edge">
<title>dir_4c8befd6991d7a2e9d66c427274b8c22&#45;&gt;dir_4f691f982165d1317925cee58b4b4f56</title>
<path fill="none" stroke="#63b8ff" d="M179.06,-70.75C174.02,-63.34 166.66,-52.5 160.49,-43.41"/>
<polygon fill="#63b8ff" stroke="#63b8ff" points="163.35,-41.39 154.83,-35.09 157.56,-45.33 163.35,-41.39"/>
<g id="a_edge3&#45;headlabel"><a xlink:href="dir_000029_000042.html" target="_top" xlink:title="3">
<text text-anchor="middle" x="167.72" y="-40.27" font-family="Helvetica,sans-Serif" font-size="10.00" fill="#63b8ff">3</text>
</a>
</g>
</g>
<!-- dir_4c8befd6991d7a2e9d66c427274b8c22&#45;&gt;dir_5427940bb9029915fc0c11c1284afde6 -->
<g id="edge4" class="edge">
<title>dir_4c8befd6991d7a2e9d66c427274b8c22&#45;&gt;dir_5427940bb9029915fc0c11c1284afde6</title>
<path fill="none" stroke="#63b8ff" d="M190.94,-70.75C195.98,-63.34 203.34,-52.5 209.51,-43.41"/>
<polygon fill="#63b8ff" stroke="#63b8ff" points="212.44,-45.33 215.17,-35.09 206.65,-41.39 212.44,-45.33"/>
<g id="a_edge4&#45;headlabel"><a xlink:href="dir_000029_000015.html" target="_top" xlink:title="2">
<text text-anchor="middle" x="212.77" y="-47.4" font-family="Helvetica,sans-Serif" font-size="10.00" fill="#63b8ff">2</text>
</a>
</g>
</g>
<!-- dir_4c8befd6991d7a2e9d66c427274b8c22&#45;&gt;dir_dee301ab18d354d094fb7852349ef839 -->
<g id="edge6" class="edge">
<title>dir_4c8befd6991d7a2e9d66c427274b8c22&#45;&gt;dir_dee301ab18d354d094fb7852349ef839</title>
<path fill="none" stroke="#63b8ff" d="M199.69,-72.79C218.04,-64.4 249.83,-49.88 272.91,-39.33"/>
<polygon fill="#63b8ff" stroke="#63b8ff" points="274.57,-42.42 282.21,-35.09 271.66,-36.06 274.57,-42.42"/>
<g id="a_edge6&#45;headlabel"><a xlink:href="dir_000029_000010.html" target="_top" xlink:title="2">
<text text-anchor="middle" x="272.48" y="-44" font-family="Helvetica,sans-Serif" font-size="10.00" fill="#63b8ff">2</text>
</a>
</g>
</g>
<!-- dir_d44c64559bbebec7f509842c48db8b23 -->
<g id="node7" class="node">
<title>dir_d44c64559bbebec7f509842c48db8b23</title>
<g id="a_node7"><a xlink:href="dir_d44c64559bbebec7f509842c48db8b23.html" target="_top" xlink:title="include">
<polygon fill="#edf0f7" stroke="red" points="405,-35 353,-35 353,-16 405,-16 405,-35"/>
<text text-anchor="middle" x="379" y="-23" font-family="Helvetica,sans-Serif" font-size="10.00">include</text>
</a>
</g>
</g>
<!-- dir_4c8befd6991d7a2e9d66c427274b8c22&#45;&gt;dir_d44c64559bbebec7f509842c48db8b23 -->
<g id="edge5" class="edge">
<title>dir_4c8befd6991d7a2e9d66c427274b8c22&#45;&gt;dir_d44c64559bbebec7f509842c48db8b23</title>
<path fill="none" stroke="#63b8ff" d="M199.58,-75.52C229.77,-67.27 299.87,-48.12 342.97,-36.34"/>
<polygon fill="#63b8ff" stroke="#63b8ff" points="344.05,-39.68 352.78,-33.66 342.21,-32.92 344.05,-39.68"/>
<g id="a_edge5&#45;headlabel"><a xlink:href="dir_000029_000023.html" target="_top" xlink:title="30">
<text text-anchor="middle" x="341.33" y="-40.86" font-family="Helvetica,sans-Serif" font-size="10.00" fill="#63b8ff">30</text>
</a>
</g>
</g>
</g>
</svg>
