<?xml version="1.0" encoding="UTF-8" standalone="no"?>
<!DOCTYPE svg PUBLIC "-//W3C//DTD SVG 1.1//EN"
 "http://www.w3.org/Graphics/SVG/1.1/DTD/svg11.dtd">
<!-- Generated by graphviz version 2.43.0 (0)
 -->
<!-- Title: src/http/error_reporter.h Pages: 1 -->
<svg width="400pt" height="423pt"
 viewBox="0.00 0.00 399.93 423.00" xmlns="http://www.w3.org/2000/svg" xmlns:xlink="http://www.w3.org/1999/xlink">
<g id="graph0" class="graph" transform="scale(1 1) rotate(0) translate(4 419)">
<title>src/http/error_reporter.h</title>
<!-- Node1 -->
<g id="node1" class="node">
<title>Node1</title>
<g id="a_node1"><a xlink:title=" ">
<polygon fill="#999999" stroke="#666666" points="214.93,-415 82.93,-415 82.93,-396 214.93,-396 214.93,-415"/>
<text text-anchor="middle" x="148.93" y="-403" font-family="Helvetica,sans-Serif" font-size="10.00">src/http/error_reporter.h</text>
</a>
</g>
</g>
<!-- Node2 -->
<g id="node2" class="node">
<title>Node2</title>
<g id="a_node2"><a xlink:href="http2__session_8h.html" target="_top" xlink:title=" ">
<polygon fill="white" stroke="#666666" points="141.43,-360 8.43,-360 8.43,-341 141.43,-341 141.43,-360"/>
<text text-anchor="middle" x="74.93" y="-348" font-family="Helvetica,sans-Serif" font-size="10.00">src/http/http2_session.h</text>
</a>
</g>
</g>
<!-- Node1&#45;&gt;Node2 -->
<g id="edge1" class="edge">
<title>Node1&#45;&gt;Node2</title>
<path fill="none" stroke="#63b8ff" d="M128.89,-390.15C115.52,-380.57 98.37,-368.29 87.03,-360.17"/>
<polygon fill="#63b8ff" stroke="#63b8ff" points="126.87,-393.01 137.04,-395.98 130.95,-387.32 126.87,-393.01"/>
</g>
<!-- Node10 -->
<g id="node10" class="node">
<title>Node10</title>
<g id="a_node10"><a xlink:href="http__session_8h.html" target="_top" xlink:title=" ">
<polygon fill="white" stroke="#666666" points="286.43,-360 159.43,-360 159.43,-341 286.43,-341 286.43,-360"/>
<text text-anchor="middle" x="222.93" y="-348" font-family="Helvetica,sans-Serif" font-size="10.00">src/http/http_session.h</text>
</a>
</g>
</g>
<!-- Node1&#45;&gt;Node10 -->
<g id="edge13" class="edge">
<title>Node1&#45;&gt;Node10</title>
<path fill="none" stroke="#63b8ff" d="M168.96,-390.15C182.34,-380.57 199.49,-368.29 210.82,-360.17"/>
<polygon fill="#63b8ff" stroke="#63b8ff" points="166.91,-387.32 160.82,-395.98 170.98,-393.01 166.91,-387.32"/>
</g>
<!-- Node3 -->
<g id="node3" class="node">
<title>Node3</title>
<g id="a_node3"><a xlink:href="rpc__sessions_8h.html" target="_top" xlink:title=" ">
<polygon fill="white" stroke="#666666" points="221.93,-305 75.93,-305 75.93,-286 221.93,-286 221.93,-305"/>
<text text-anchor="middle" x="148.93" y="-293" font-family="Helvetica,sans-Serif" font-size="10.00">src/enclave/rpc_sessions.h</text>
</a>
</g>
</g>
<!-- Node2&#45;&gt;Node3 -->
<g id="edge2" class="edge">
<title>Node2&#45;&gt;Node3</title>
<path fill="none" stroke="#63b8ff" d="M94.96,-335.15C108.34,-325.57 125.49,-313.29 136.82,-305.17"/>
<polygon fill="#63b8ff" stroke="#63b8ff" points="92.91,-332.32 86.82,-340.98 96.98,-338.01 92.91,-332.32"/>
</g>
<!-- Node4 -->
<g id="node4" class="node">
<title>Node4</title>
<g id="a_node4"><a xlink:href="src_2enclave_2enclave_8h.html" target="_top" xlink:title=" ">
<polygon fill="white" stroke="#666666" points="127.93,-74 5.93,-74 5.93,-55 127.93,-55 127.93,-74"/>
<text text-anchor="middle" x="66.93" y="-62" font-family="Helvetica,sans-Serif" font-size="10.00">src/enclave/enclave.h</text>
</a>
</g>
</g>
<!-- Node3&#45;&gt;Node4 -->
<g id="edge3" class="edge">
<title>Node3&#45;&gt;Node4</title>
<path fill="none" stroke="#63b8ff" d="M66.08,-284.52C45.83,-277.94 26.41,-267.26 13.93,-250 -27.87,-192.21 37.25,-102.11 59.74,-74.1"/>
<polygon fill="#63b8ff" stroke="#63b8ff" points="65.16,-287.89 75.74,-287.34 67.13,-281.18 65.16,-287.89"/>
</g>
<!-- Node6 -->
<g id="node6" class="node">
<title>Node6</title>
<g id="a_node6"><a xlink:href="ccf__acme__client_8h.html" target="_top" xlink:title=" ">
<polygon fill="white" stroke="#666666" points="172.43,-244.5 23.43,-244.5 23.43,-225.5 172.43,-225.5 172.43,-244.5"/>
<text text-anchor="middle" x="97.93" y="-232.5" font-family="Helvetica,sans-Serif" font-size="10.00">src/node/ccf_acme_client.h</text>
</a>
</g>
</g>
<!-- Node3&#45;&gt;Node6 -->
<g id="edge5" class="edge">
<title>Node3&#45;&gt;Node6</title>
<path fill="none" stroke="#63b8ff" d="M134.78,-278.27C125.3,-267.39 113.18,-253.49 105.48,-244.67"/>
<polygon fill="#63b8ff" stroke="#63b8ff" points="132.19,-280.63 141.4,-285.87 137.47,-276.03 132.19,-280.63"/>
</g>
<!-- Node7 -->
<g id="node7" class="node">
<title>Node7</title>
<g id="a_node7"><a xlink:href="node__state_8h.html" target="_top" xlink:title=" ">
<polygon fill="white" stroke="#666666" points="228.93,-184 104.93,-184 104.93,-165 228.93,-165 228.93,-184"/>
<text text-anchor="middle" x="166.93" y="-172" font-family="Helvetica,sans-Serif" font-size="10.00">src/node/node_state.h</text>
</a>
</g>
</g>
<!-- Node3&#45;&gt;Node7 -->
<g id="edge10" class="edge">
<title>Node3&#45;&gt;Node7</title>
<path fill="none" stroke="#63b8ff" d="M164.38,-278.26C170.82,-270.38 177.58,-260.38 180.93,-250 188.35,-226.95 177.87,-198.55 171.39,-184.39"/>
<polygon fill="#63b8ff" stroke="#63b8ff" points="161.64,-276.08 157.68,-285.9 166.9,-280.69 161.64,-276.08"/>
</g>
<!-- Node9 -->
<g id="node9" class="node">
<title>Node9</title>
<g id="a_node9"><a xlink:href="quote__endorsements__client_8h.html" target="_top" xlink:title=" ">
<polygon fill="white" stroke="#666666" points="391.93,-250 227.93,-250 227.93,-220 391.93,-220 391.93,-250"/>
<text text-anchor="start" x="235.93" y="-238" font-family="Helvetica,sans-Serif" font-size="10.00">src/node/quote_endorsements</text>
<text text-anchor="middle" x="309.93" y="-227" font-family="Helvetica,sans-Serif" font-size="10.00">_client.h</text>
</a>
</g>
</g>
<!-- Node3&#45;&gt;Node9 -->
<g id="edge11" class="edge">
<title>Node3&#45;&gt;Node9</title>
<path fill="none" stroke="#63b8ff" d="M182.07,-282.46C207.96,-273.05 244,-259.95 271.22,-250.06"/>
<polygon fill="#63b8ff" stroke="#63b8ff" points="180.54,-279.29 172.34,-285.99 182.93,-285.87 180.54,-279.29"/>
</g>
<!-- Node5 -->
<g id="node5" class="node">
<title>Node5</title>
<g id="a_node5"><a xlink:href="enclave_2main_8cpp.html" target="_top" xlink:title=" ">
<polygon fill="white" stroke="#666666" points="126.93,-19 6.93,-19 6.93,0 126.93,0 126.93,-19"/>
<text text-anchor="middle" x="66.93" y="-7" font-family="Helvetica,sans-Serif" font-size="10.00">src/enclave/main.cpp</text>
</a>
</g>
</g>
<!-- Node4&#45;&gt;Node5 -->
<g id="edge4" class="edge">
<title>Node4&#45;&gt;Node5</title>
<path fill="none" stroke="#63b8ff" d="M66.93,-44.66C66.93,-35.93 66.93,-25.99 66.93,-19.09"/>
<polygon fill="#63b8ff" stroke="#63b8ff" points="63.43,-44.75 66.93,-54.75 70.43,-44.75 63.43,-44.75"/>
</g>
<!-- Node6&#45;&gt;Node7 -->
<g id="edge6" class="edge">
<title>Node6&#45;&gt;Node7</title>
<path fill="none" stroke="#63b8ff" d="M115.95,-218.72C128.93,-207.71 145.99,-193.25 156.7,-184.17"/>
<polygon fill="#63b8ff" stroke="#63b8ff" points="113.47,-216.23 108.11,-225.37 118,-221.57 113.47,-216.23"/>
</g>
<!-- Node7&#45;&gt;Node4 -->
<g id="edge7" class="edge">
<title>Node7&#45;&gt;Node4</title>
<path fill="none" stroke="#63b8ff" d="M130.88,-160.95C115.08,-153.81 97.53,-143.37 85.93,-129 72.77,-112.71 68.71,-87.49 67.47,-74.27"/>
<polygon fill="#63b8ff" stroke="#63b8ff" points="129.84,-164.32 140.42,-164.98 132.57,-157.87 129.84,-164.32"/>
</g>
<!-- Node8 -->
<g id="node8" class="node">
<title>Node8</title>
<g id="a_node8"><a xlink:href="gov__effects_8h.html" target="_top" xlink:title=" ">
<polygon fill="white" stroke="#666666" points="238.93,-129 94.93,-129 94.93,-110 238.93,-110 238.93,-129"/>
<text text-anchor="middle" x="166.93" y="-117" font-family="Helvetica,sans-Serif" font-size="10.00">src/node/rpc/gov_effects.h</text>
</a>
</g>
</g>
<!-- Node7&#45;&gt;Node8 -->
<g id="edge8" class="edge">
<title>Node7&#45;&gt;Node8</title>
<path fill="none" stroke="#63b8ff" d="M166.93,-154.66C166.93,-145.93 166.93,-135.99 166.93,-129.09"/>
<polygon fill="#63b8ff" stroke="#63b8ff" points="163.43,-154.75 166.93,-164.75 170.43,-154.75 163.43,-154.75"/>
</g>
<!-- Node8&#45;&gt;Node4 -->
<g id="edge9" class="edge">
<title>Node8&#45;&gt;Node4</title>
<path fill="none" stroke="#63b8ff" d="M141.9,-105.23C123.56,-95.51 99.19,-82.6 83.29,-74.17"/>
<polygon fill="#63b8ff" stroke="#63b8ff" points="140.39,-108.39 150.86,-109.98 143.66,-102.21 140.39,-108.39"/>
</g>
<!-- Node9&#45;&gt;Node7 -->
<g id="edge12" class="edge">
<title>Node9&#45;&gt;Node7</title>
<path fill="none" stroke="#63b8ff" d="M266.4,-216.19C240.42,-205.57 208.59,-192.54 188.05,-184.14"/>
<polygon fill="#63b8ff" stroke="#63b8ff" points="265.09,-219.44 275.68,-219.99 267.74,-212.96 265.09,-219.44"/>
</g>
<!-- Node10&#45;&gt;Node3 -->
<g id="edge14" class="edge">
<title>Node10&#45;&gt;Node3</title>
<path fill="none" stroke="#63b8ff" d="M202.89,-335.15C189.52,-325.57 172.37,-313.29 161.03,-305.17"/>
<polygon fill="#63b8ff" stroke="#63b8ff" points="200.87,-338.01 211.04,-340.98 204.95,-332.32 200.87,-338.01"/>
</g>
</g>
</svg>
