<?xml version="1.0" encoding="UTF-8" standalone="no"?>
<!DOCTYPE svg PUBLIC "-//W3C//DTD SVG 1.1//EN"
 "http://www.w3.org/Graphics/SVG/1.1/DTD/svg11.dtd">
<!-- Generated by graphviz version 2.43.0 (0)
 -->
<!-- Title: src/http/http_rpc_context.h Pages: 1 -->
<!--zoomable 500 -->
<svg id="main" version="1.1" xmlns="http://www.w3.org/2000/svg" xmlns:xlink="http://www.w3.org/1999/xlink" xml:space="preserve" onload="init(evt)">
<style type="text/css"><![CDATA[
.edge:hover path { stroke: red; }
.edge:hover polygon { stroke: red; fill: red; }
]]></style>
<script type="text/javascript"><![CDATA[
var edges = document.getElementsByTagName('g');
if (edges && edges.length) {
  for (var i=0;i<edges.length;i++) {
    if (edges[i].id.substr(0,4)=='edge') {
      edges[i].setAttribute('class','edge');
    }
  }
}
]]></script>
        <defs>
                <circle id="rim" cx="0" cy="0" r="7"/>
                <circle id="rim2" cx="0" cy="0" r="3.5"/>
                <g id="zoomPlus">
                        <use xlink:href="#rim" fill="#404040">
                                <set attributeName="fill" to="#808080" begin="zoomplus.mouseover" end="zoomplus.mouseout"/>
                        </use>
                        <path d="M-4,0h8M0,-4v8" fill="none" stroke="white" stroke-width="1.5" pointer-events="none"/>
                </g>
                <g id="zoomMin">
                        <use xlink:href="#rim" fill="#404040">
                                <set attributeName="fill" to="#808080" begin="zoomminus.mouseover" end="zoomminus.mouseout"/>
                        </use>
                        <path d="M-4,0h8" fill="none" stroke="white" stroke-width="1.5" pointer-events="none"/>
                </g>
                <g id="dirArrow">
                        <path fill="none" stroke="white" stroke-width="1.5" d="M0,-3.0v7 M-2.5,-0.5L0,-3.0L2.5,-0.5"/>
                </g>
               <g id="resetDef">
                       <use xlink:href="#rim2" fill="#404040">
                               <set attributeName="fill" to="#808080" begin="reset.mouseover" end="reset.mouseout"/>
                       </use>
               </g>
        </defs>

<script type="text/javascript">
var viewWidth = 921;
var viewHeight = 500;
var sectionId = 'dynsection-1';
</script>
<script xlink:href="svgpan.js"/>
<svg id="graph" class="graph">
<g id="viewport">
<title>src/http/http_rpc_context.h</title>
<!-- Node1 -->
<g id="node1" class="node">
<title>Node1</title>
<g id="a_node1"><a xlink:title=" ">
<polygon fill="#999999" stroke="#666666" points="381.16,-492 234.16,-492 234.16,-473 381.16,-473 381.16,-492"/>
<text text-anchor="middle" x="307.66" y="-480" font-family="Helvetica,sans-Serif" font-size="10.00">src/http/http_rpc_context.h</text>
</a>
</g>
</g>
<!-- Node2 -->
<g id="node2" class="node">
<title>Node2</title>
<g id="a_node2"><a xlink:href="http2__parser_8h.html" target="_top" xlink:title=" ">
<polygon fill="white" stroke="#666666" points="279.66,-437 153.66,-437 153.66,-418 279.66,-418 279.66,-437"/>
<text text-anchor="middle" x="216.66" y="-425" font-family="Helvetica,sans-Serif" font-size="10.00">src/http/http2_parser.h</text>
</a>
</g>
</g>
<!-- Node1&#45;&gt;Node2 -->
<g id="edge1" class="edge">
<title>Node1&#45;&gt;Node2</title>
<path fill="none" stroke="#63b8ff" d="M283.96,-467.7C267.39,-458.04 245.76,-445.44 231.55,-437.17"/>
<polygon fill="#63b8ff" stroke="#63b8ff" points="282.64,-470.98 293.04,-472.98 286.16,-464.93 282.64,-470.98"/>
</g>
<!-- Node3 -->
<g id="node3" class="node">
<title>Node3</title>
<g id="a_node3"><a xlink:href="http2__session_8h.html" target="_top" xlink:title=" ">
<polygon fill="white" stroke="#666666" points="317.16,-382 184.16,-382 184.16,-363 317.16,-363 317.16,-382"/>
<text text-anchor="middle" x="250.66" y="-370" font-family="Helvetica,sans-Serif" font-size="10.00">src/http/http2_session.h</text>
</a>
</g>
</g>
<!-- Node1&#45;&gt;Node3 -->
<g id="edge14" class="edge">
<title>Node1&#45;&gt;Node3</title>
<path fill="none" stroke="#63b8ff" d="M304.19,-462.7C301.27,-449.62 296.33,-432.07 288.66,-418 281.08,-404.08 268.63,-390.6 260.06,-382.19"/>
<polygon fill="#63b8ff" stroke="#63b8ff" points="300.83,-463.74 306.25,-472.84 307.69,-462.35 300.83,-463.74"/>
</g>
<!-- Node11 -->
<g id="node11" class="node">
<title>Node11</title>
<g id="a_node11"><a xlink:href="http__session_8h.html" target="_top" xlink:title=" ">
<polygon fill="white" stroke="#666666" points="166.16,-382 39.16,-382 39.16,-363 166.16,-363 166.16,-382"/>
<text text-anchor="middle" x="102.66" y="-370" font-family="Helvetica,sans-Serif" font-size="10.00">src/http/http_session.h</text>
</a>
</g>
</g>
<!-- Node1&#45;&gt;Node11 -->
<g id="edge15" class="edge">
<title>Node1&#45;&gt;Node11</title>
<path fill="none" stroke="#63b8ff" d="M224.25,-470.74C197.01,-464.22 167.84,-453.77 144.66,-437 124.96,-422.74 111.88,-396.18 106.09,-382.36"/>
<polygon fill="#63b8ff" stroke="#63b8ff" points="223.66,-474.19 234.18,-472.96 225.19,-467.36 223.66,-474.19"/>
</g>
<!-- Node12 -->
<g id="node12" class="node">
<title>Node12</title>
<g id="a_node12"><a xlink:href="jwt__key__auto__refresh_8h.html" target="_top" xlink:title=" ">
<polygon fill="white" stroke="#666666" points="537.16,-261 412.16,-261 412.16,-231 537.16,-231 537.16,-261"/>
<text text-anchor="start" x="420.16" y="-249" font-family="Helvetica,sans-Serif" font-size="10.00">src/node/jwt_key_auto</text>
<text text-anchor="middle" x="474.66" y="-238" font-family="Helvetica,sans-Serif" font-size="10.00">_refresh.h</text>
</a>
</g>
</g>
<!-- Node1&#45;&gt;Node12 -->
<g id="edge17" class="edge">
<title>Node1&#45;&gt;Node12</title>
<path fill="none" stroke="#63b8ff" d="M313.75,-463.03C326.08,-427.69 356.81,-349.32 402.66,-297 415.5,-282.35 433.5,-269.85 448.29,-261.01"/>
<polygon fill="#63b8ff" stroke="#63b8ff" points="310.29,-462.32 310.39,-472.91 316.92,-464.57 310.29,-462.32"/>
</g>
<!-- Node13 -->
<g id="node13" class="node">
<title>Node13</title>
<g id="a_node13"><a xlink:href="forwarder_8h.html" target="_top" xlink:title=" ">
<polygon fill="white" stroke="#666666" points="724.66,-437 590.66,-437 590.66,-418 724.66,-418 724.66,-437"/>
<text text-anchor="middle" x="657.66" y="-425" font-family="Helvetica,sans-Serif" font-size="10.00">src/node/rpc/forwarder.h</text>
</a>
</g>
</g>
<!-- Node1&#45;&gt;Node13 -->
<g id="edge19" class="edge">
<title>Node1&#45;&gt;Node13</title>
<path fill="none" stroke="#63b8ff" d="M374.14,-471.43C439.86,-461.48 539.31,-446.42 601.28,-437.04"/>
<polygon fill="#63b8ff" stroke="#63b8ff" points="373.26,-468.03 363.9,-472.98 374.31,-474.95 373.26,-468.03"/>
</g>
<!-- Node2&#45;&gt;Node3 -->
<g id="edge2" class="edge">
<title>Node2&#45;&gt;Node3</title>
<path fill="none" stroke="#63b8ff" d="M227.82,-409.1C233.64,-400.04 240.48,-389.37 245.15,-382.09"/>
<polygon fill="#63b8ff" stroke="#63b8ff" points="224.73,-407.44 222.28,-417.75 230.62,-411.22 224.73,-407.44"/>
</g>
<!-- Node4 -->
<g id="node4" class="node">
<title>Node4</title>
<g id="a_node4"><a xlink:href="rpc__sessions_8h.html" target="_top" xlink:title=" ">
<polygon fill="white" stroke="#666666" points="177.66,-321.5 31.66,-321.5 31.66,-302.5 177.66,-302.5 177.66,-321.5"/>
<text text-anchor="middle" x="104.66" y="-309.5" font-family="Helvetica,sans-Serif" font-size="10.00">src/enclave/rpc_sessions.h</text>
</a>
</g>
</g>
<!-- Node3&#45;&gt;Node4 -->
<g id="edge3" class="edge">
<title>Node3&#45;&gt;Node4</title>
<path fill="none" stroke="#63b8ff" d="M220.04,-359.23C191.83,-347.92 150.69,-331.44 125.92,-321.52"/>
<polygon fill="#63b8ff" stroke="#63b8ff" points="218.85,-362.52 229.43,-362.99 221.45,-356.03 218.85,-362.52"/>
</g>
<!-- Node5 -->
<g id="node5" class="node">
<title>Node5</title>
<g id="a_node5"><a xlink:href="src_2enclave_2enclave_8h.html" target="_top" xlink:title=" ">
<polygon fill="white" stroke="#666666" points="654.66,-74 532.66,-74 532.66,-55 654.66,-55 654.66,-74"/>
<text text-anchor="middle" x="593.66" y="-62" font-family="Helvetica,sans-Serif" font-size="10.00">src/enclave/enclave.h</text>
</a>
</g>
</g>
<!-- Node4&#45;&gt;Node5 -->
<g id="edge4" class="edge">
<title>Node4&#45;&gt;Node5</title>
<path fill="none" stroke="#63b8ff" d="M57.4,-299.06C37.85,-291.54 17.11,-279.6 5.66,-261 -1.32,-249.64 -2.17,-241.79 5.66,-231 68.3,-144.76 395.06,-91.92 532.58,-73.19"/>
<polygon fill="#63b8ff" stroke="#63b8ff" points="56.26,-302.37 66.86,-302.41 58.6,-295.77 56.26,-302.37"/>
</g>
<!-- Node7 -->
<g id="node7" class="node">
<title>Node7</title>
<g id="a_node7"><a xlink:href="ccf__acme__client_8h.html" target="_top" xlink:title=" ">
<polygon fill="white" stroke="#666666" points="356.16,-255.5 207.16,-255.5 207.16,-236.5 356.16,-236.5 356.16,-255.5"/>
<text text-anchor="middle" x="281.66" y="-243.5" font-family="Helvetica,sans-Serif" font-size="10.00">src/node/ccf_acme_client.h</text>
</a>
</g>
</g>
<!-- Node4&#45;&gt;Node7 -->
<g id="edge6" class="edge">
<title>Node4&#45;&gt;Node7</title>
<path fill="none" stroke="#63b8ff" d="M138.3,-298.84C173.27,-286.2 227.11,-266.73 257.89,-255.6"/>
<polygon fill="#63b8ff" stroke="#63b8ff" points="136.75,-295.68 128.54,-302.37 139.13,-302.26 136.75,-295.68"/>
</g>
<!-- Node8 -->
<g id="node8" class="node">
<title>Node8</title>
<g id="a_node8"><a xlink:href="node__state_8h.html" target="_top" xlink:title=" ">
<polygon fill="white" stroke="#666666" points="436.66,-189.5 312.66,-189.5 312.66,-170.5 436.66,-170.5 436.66,-189.5"/>
<text text-anchor="middle" x="374.66" y="-177.5" font-family="Helvetica,sans-Serif" font-size="10.00">src/node/node_state.h</text>
</a>
</g>
</g>
<!-- Node4&#45;&gt;Node8 -->
<g id="edge11" class="edge">
<title>Node4&#45;&gt;Node8</title>
<path fill="none" stroke="#63b8ff" d="M72.34,-298.52C38.34,-283.61 -7.28,-257.36 15.66,-231 53.42,-187.63 220.22,-180.7 312.58,-180.29"/>
<polygon fill="#63b8ff" stroke="#63b8ff" points="70.97,-301.75 81.55,-302.42 73.7,-295.3 70.97,-301.75"/>
</g>
<!-- Node10 -->
<g id="node10" class="node">
<title>Node10</title>
<g id="a_node10"><a xlink:href="quote__endorsements__client_8h.html" target="_top" xlink:title=" ">
<polygon fill="white" stroke="#666666" points="188.66,-261 24.66,-261 24.66,-231 188.66,-231 188.66,-261"/>
<text text-anchor="start" x="32.66" y="-249" font-family="Helvetica,sans-Serif" font-size="10.00">src/node/quote_endorsements</text>
<text text-anchor="middle" x="106.66" y="-238" font-family="Helvetica,sans-Serif" font-size="10.00">_client.h</text>
</a>
</g>
</g>
<!-- Node4&#45;&gt;Node10 -->
<g id="edge12" class="edge">
<title>Node4&#45;&gt;Node10</title>
<path fill="none" stroke="#63b8ff" d="M105.25,-292.35C105.56,-282.47 105.93,-270.51 106.22,-261.36"/>
<polygon fill="#63b8ff" stroke="#63b8ff" points="101.75,-292.26 104.93,-302.37 108.74,-292.48 101.75,-292.26"/>
</g>
<!-- Node6 -->
<g id="node6" class="node">
<title>Node6</title>
<g id="a_node6"><a xlink:href="enclave_2main_8cpp.html" target="_top" xlink:title=" ">
<polygon fill="white" stroke="#666666" points="653.66,-19 533.66,-19 533.66,0 653.66,0 653.66,-19"/>
<text text-anchor="middle" x="593.66" y="-7" font-family="Helvetica,sans-Serif" font-size="10.00">src/enclave/main.cpp</text>
</a>
</g>
</g>
<!-- Node5&#45;&gt;Node6 -->
<g id="edge5" class="edge">
<title>Node5&#45;&gt;Node6</title>
<path fill="none" stroke="#63b8ff" d="M593.66,-44.66C593.66,-35.93 593.66,-25.99 593.66,-19.09"/>
<polygon fill="#63b8ff" stroke="#63b8ff" points="590.16,-44.75 593.66,-54.75 597.16,-44.75 590.16,-44.75"/>
</g>
<!-- Node7&#45;&gt;Node8 -->
<g id="edge7" class="edge">
<title>Node7&#45;&gt;Node8</title>
<path fill="none" stroke="#63b8ff" d="M302.48,-230.68C320.74,-218.11 346.72,-200.23 362.02,-189.7"/>
<polygon fill="#63b8ff" stroke="#63b8ff" points="300.46,-227.82 294.21,-236.37 304.43,-233.58 300.46,-227.82"/>
</g>
<!-- Node8&#45;&gt;Node5 -->
<g id="edge8" class="edge">
<title>Node8&#45;&gt;Node5</title>
<path fill="none" stroke="#63b8ff" d="M374.77,-160.31C375.89,-144.7 380.05,-122.96 393.66,-110 413.44,-91.18 481.41,-78.93 532.66,-72.14"/>
<polygon fill="#63b8ff" stroke="#63b8ff" points="371.26,-160.27 374.39,-170.39 378.26,-160.53 371.26,-160.27"/>
</g>
<!-- Node9 -->
<g id="node9" class="node">
<title>Node9</title>
<g id="a_node9"><a xlink:href="gov__effects_8h.html" target="_top" xlink:title=" ">
<polygon fill="white" stroke="#666666" points="546.66,-129 402.66,-129 402.66,-110 546.66,-110 546.66,-129"/>
<text text-anchor="middle" x="474.66" y="-117" font-family="Helvetica,sans-Serif" font-size="10.00">src/node/rpc/gov_effects.h</text>
</a>
</g>
</g>
<!-- Node8&#45;&gt;Node9 -->
<g id="edge9" class="edge">
<title>Node8&#45;&gt;Node9</title>
<path fill="none" stroke="#63b8ff" d="M398.13,-165.27C417.22,-154.1 443.58,-138.69 459.85,-129.17"/>
<polygon fill="#63b8ff" stroke="#63b8ff" points="396.28,-162.3 389.42,-170.37 399.82,-168.34 396.28,-162.3"/>
</g>
<!-- Node9&#45;&gt;Node5 -->
<g id="edge10" class="edge">
<title>Node9&#45;&gt;Node5</title>
<path fill="none" stroke="#63b8ff" d="M502.96,-105.9C524.94,-96.11 554.84,-82.79 574.2,-74.17"/>
<polygon fill="#63b8ff" stroke="#63b8ff" points="501.49,-102.72 493.78,-109.98 504.34,-109.11 501.49,-102.72"/>
</g>
<!-- Node10&#45;&gt;Node8 -->
<g id="edge13" class="edge">
<title>Node10&#45;&gt;Node8</title>
<path fill="none" stroke="#63b8ff" d="M175.35,-228.6C227.59,-216.12 297.37,-199.46 339,-189.52"/>
<polygon fill="#63b8ff" stroke="#63b8ff" points="174.39,-225.23 165.48,-230.95 176.02,-232.04 174.39,-225.23"/>
</g>
<!-- Node11&#45;&gt;Node4 -->
<g id="edge16" class="edge">
<title>Node11&#45;&gt;Node4</title>
<path fill="none" stroke="#63b8ff" d="M103.31,-352.66C103.66,-342.24 104.09,-329.8 104.37,-321.67"/>
<polygon fill="#63b8ff" stroke="#63b8ff" points="99.8,-352.75 102.96,-362.87 106.8,-352.99 99.8,-352.75"/>
</g>
<!-- Node12&#45;&gt;Node8 -->
<g id="edge18" class="edge">
<title>Node12&#45;&gt;Node8</title>
<path fill="none" stroke="#63b8ff" d="M443.98,-225.36C425.32,-213.42 402.43,-198.77 388.19,-189.66"/>
<polygon fill="#63b8ff" stroke="#63b8ff" points="442.16,-228.35 452.47,-230.8 445.94,-222.46 442.16,-228.35"/>
</g>
<!-- Node13&#45;&gt;Node5 -->
<g id="edge20" class="edge">
<title>Node13&#45;&gt;Node5</title>
<path fill="none" stroke="#63b8ff" d="M735.39,-423.6C810.39,-416.14 912.66,-391.56 912.66,-313 912.66,-313 912.66,-313 912.66,-179 912.66,-129.3 869.89,-130.61 824.66,-110 770.41,-85.27 702.9,-74.27 654.91,-69.39"/>
<polygon fill="#63b8ff" stroke="#63b8ff" points="734.64,-420.15 725,-424.54 735.27,-427.12 734.64,-420.15"/>
</g>
<!-- Node14 -->
<g id="node14" class="node">
<title>Node14</title>
<g id="a_node14"><a xlink:href="frontend_8h.html" target="_top" xlink:title=" ">
<polygon fill="white" stroke="#666666" points="722.16,-382 593.16,-382 593.16,-363 722.16,-363 722.16,-382"/>
<text text-anchor="middle" x="657.66" y="-370" font-family="Helvetica,sans-Serif" font-size="10.00">src/node/rpc/frontend.h</text>
</a>
</g>
</g>
<!-- Node13&#45;&gt;Node14 -->
<g id="edge21" class="edge">
<title>Node13&#45;&gt;Node14</title>
<path fill="none" stroke="#63b8ff" d="M657.66,-407.66C657.66,-398.93 657.66,-388.99 657.66,-382.09"/>
<polygon fill="#63b8ff" stroke="#63b8ff" points="654.16,-407.75 657.66,-417.75 661.16,-407.75 654.16,-407.75"/>
</g>
<!-- Node14&#45;&gt;Node8 -->
<g id="edge25" class="edge">
<title>Node14&#45;&gt;Node8</title>
<path fill="none" stroke="#63b8ff" d="M582.66,-367.68C516.78,-362.71 427.64,-351.56 402.66,-327 364.02,-289 369.94,-215.1 373.31,-189.77"/>
<polygon fill="#63b8ff" stroke="#63b8ff" points="582.79,-371.2 593.02,-368.42 583.3,-364.21 582.79,-371.2"/>
</g>
<!-- Node15 -->
<g id="node15" class="node">
<title>Node15</title>
<g id="a_node15"><a xlink:href="acme__challenge__frontend_8h.html" target="_top" xlink:title=" ">
<polygon fill="white" stroke="#666666" points="727.66,-327 587.66,-327 587.66,-297 727.66,-297 727.66,-327"/>
<text text-anchor="start" x="595.66" y="-315" font-family="Helvetica,sans-Serif" font-size="10.00">src/node/acme_challenge</text>
<text text-anchor="middle" x="657.66" y="-304" font-family="Helvetica,sans-Serif" font-size="10.00">_frontend.h</text>
</a>
</g>
</g>
<!-- Node14&#45;&gt;Node15 -->
<g id="edge22" class="edge">
<title>Node14&#45;&gt;Node15</title>
<path fill="none" stroke="#63b8ff" d="M657.66,-352.65C657.66,-344.36 657.66,-334.78 657.66,-327.11"/>
<polygon fill="#63b8ff" stroke="#63b8ff" points="654.16,-352.87 657.66,-362.87 661.16,-352.87 654.16,-352.87"/>
</g>
<!-- Node16 -->
<g id="node16" class="node">
<title>Node16</title>
<g id="a_node16"><a xlink:href="member__frontend_8h.html" target="_top" xlink:title=" ">
<polygon fill="white" stroke="#666666" points="884.66,-195 764.66,-195 764.66,-165 884.66,-165 884.66,-195"/>
<text text-anchor="start" x="772.66" y="-183" font-family="Helvetica,sans-Serif" font-size="10.00">src/node/rpc/member</text>
<text text-anchor="middle" x="824.66" y="-172" font-family="Helvetica,sans-Serif" font-size="10.00">_frontend.h</text>
</a>
</g>
</g>
<!-- Node14&#45;&gt;Node16 -->
<g id="edge26" class="edge">
<title>Node14&#45;&gt;Node16</title>
<path fill="none" stroke="#63b8ff" d="M711.63,-359.97C732.02,-353.28 754.04,-342.91 769.66,-327 806.87,-289.13 819.34,-223.66 823.15,-195.06"/>
<polygon fill="#63b8ff" stroke="#63b8ff" points="710.33,-356.71 701.79,-362.97 712.37,-363.41 710.33,-356.71"/>
</g>
<!-- Node17 -->
<g id="node17" class="node">
<title>Node17</title>
<g id="a_node17"><a xlink:href="node__frontend_8h.html" target="_top" xlink:title=" ">
<polygon fill="white" stroke="#666666" points="569.66,-321.5 411.66,-321.5 411.66,-302.5 569.66,-302.5 569.66,-321.5"/>
<text text-anchor="middle" x="490.66" y="-309.5" font-family="Helvetica,sans-Serif" font-size="10.00">src/node/rpc/node_frontend.h</text>
</a>
</g>
</g>
<!-- Node14&#45;&gt;Node17 -->
<g id="edge28" class="edge">
<title>Node14&#45;&gt;Node17</title>
<path fill="none" stroke="#63b8ff" d="M623.9,-359.67C591.6,-348.36 543.68,-331.57 514.98,-321.52"/>
<polygon fill="#63b8ff" stroke="#63b8ff" points="622.79,-362.99 633.38,-362.99 625.1,-356.38 622.79,-362.99"/>
</g>
<!-- Node18 -->
<g id="node18" class="node">
<title>Node18</title>
<g id="a_node18"><a xlink:href="user__frontend_8h.html" target="_top" xlink:title=" ">
<polygon fill="white" stroke="#666666" points="796.16,-129 641.16,-129 641.16,-110 796.16,-110 796.16,-129"/>
<text text-anchor="middle" x="718.66" y="-117" font-family="Helvetica,sans-Serif" font-size="10.00">src/node/rpc/user_frontend.h</text>
</a>
</g>
</g>
<!-- Node14&#45;&gt;Node18 -->
<g id="edge31" class="edge">
<title>Node14&#45;&gt;Node18</title>
<path fill="none" stroke="#63b8ff" d="M697.2,-359.05C712.31,-352.14 727.98,-341.86 736.66,-327 775.89,-259.89 736.11,-159.02 722.72,-129.13"/>
<polygon fill="#63b8ff" stroke="#63b8ff" points="695.81,-355.83 687.93,-362.92 698.51,-362.29 695.81,-355.83"/>
</g>
<!-- Node15&#45;&gt;Node5 -->
<g id="edge23" class="edge">
<title>Node15&#45;&gt;Node5</title>
<path fill="none" stroke="#63b8ff" d="M651.36,-286.82C637.49,-233.62 604.85,-108.42 595.95,-74.25"/>
<polygon fill="#63b8ff" stroke="#63b8ff" points="648.04,-287.95 653.95,-296.74 654.81,-286.18 648.04,-287.95"/>
</g>
<!-- Node15&#45;&gt;Node7 -->
<g id="edge24" class="edge">
<title>Node15&#45;&gt;Node7</title>
<path fill="none" stroke="#63b8ff" d="M577.44,-296.8C485.63,-280.96 390.36,-265.04 333.2,-255.54"/>
<polygon fill="#63b8ff" stroke="#63b8ff" points="577.01,-300.27 587.46,-298.53 578.2,-293.38 577.01,-300.27"/>
</g>
<!-- Node16&#45;&gt;Node5 -->
<g id="edge27" class="edge">
<title>Node16&#45;&gt;Node5</title>
<path fill="none" stroke="#63b8ff" d="M824.11,-154.82C822.46,-139.88 817.83,-121.44 805.66,-110 784.19,-89.81 709.53,-77.66 654.87,-71.28"/>
<polygon fill="#63b8ff" stroke="#63b8ff" points="820.63,-155.22 824.85,-164.93 827.61,-154.7 820.63,-155.22"/>
</g>
<!-- Node17&#45;&gt;Node5 -->
<g id="edge29" class="edge">
<title>Node17&#45;&gt;Node5</title>
<path fill="none" stroke="#63b8ff" d="M512.48,-296.56C524.29,-287.65 538.16,-275.22 546.66,-261 585,-196.89 592.09,-103.35 593.38,-74.38"/>
<polygon fill="#63b8ff" stroke="#63b8ff" points="510.43,-293.72 504.35,-302.4 514.52,-299.41 510.43,-293.72"/>
</g>
<!-- Node17&#45;&gt;Node12 -->
<g id="edge30" class="edge">
<title>Node17&#45;&gt;Node12</title>
<path fill="none" stroke="#63b8ff" d="M486,-292.35C483.53,-282.47 480.54,-270.51 478.25,-261.36"/>
<polygon fill="#63b8ff" stroke="#63b8ff" points="482.69,-293.52 488.51,-302.37 489.48,-291.82 482.69,-293.52"/>
</g>
<!-- Node18&#45;&gt;Node5 -->
<g id="edge32" class="edge">
<title>Node18&#45;&gt;Node5</title>
<path fill="none" stroke="#63b8ff" d="M689.25,-106.03C666.14,-96.23 634.54,-82.83 614.11,-74.17"/>
<polygon fill="#63b8ff" stroke="#63b8ff" points="688.01,-109.3 698.58,-109.98 690.74,-102.86 688.01,-109.3"/>
</g>
</g>
</svg>
        <g id="navigator" transform="translate(0 0)" fill="#404254">
                <rect fill="#f2f5e9" fill-opacity="0.5" stroke="#606060" stroke-width=".5" x="0" y="0" width="60" height="60"/>
                <use id="zoomplus" xlink:href="#zoomPlus" x="17" y="9" onmousedown="handleZoom(evt,'in')"/>
                <use id="zoomminus" xlink:href="#zoomMin" x="42" y="9" onmousedown="handleZoom(evt,'out')"/>
                <use id="reset" xlink:href="#resetDef" x="30" y="36" onmousedown="handleReset()"/>
                <g id="arrowUp" xlink:href="#dirArrow" transform="translate(30 24)" onmousedown="handlePan(0,-1)">
                  <use xlink:href="#rim" fill="#404040">
                        <set attributeName="fill" to="#808080" begin="arrowUp.mouseover" end="arrowUp.mouseout"/>
                  </use>
                  <path fill="none" stroke="white" stroke-width="1.5" d="M0,-3.0v7 M-2.5,-0.5L0,-3.0L2.5,-0.5"/>
                </g>
                <g id="arrowRight" xlink:href="#dirArrow" transform="rotate(90) translate(36 -43)" onmousedown="handlePan(1,0)">
                  <use xlink:href="#rim" fill="#404040">
                        <set attributeName="fill" to="#808080" begin="arrowRight.mouseover" end="arrowRight.mouseout"/>
                  </use>
                  <path fill="none" stroke="white" stroke-width="1.5" d="M0,-3.0v7 M-2.5,-0.5L0,-3.0L2.5,-0.5"/>
                </g>
                <g id="arrowDown" xlink:href="#dirArrow" transform="rotate(180) translate(-30 -48)" onmousedown="handlePan(0,1)">
                  <use xlink:href="#rim" fill="#404040">
                        <set attributeName="fill" to="#808080" begin="arrowDown.mouseover" end="arrowDown.mouseout"/>
                  </use>
                  <path fill="none" stroke="white" stroke-width="1.5" d="M0,-3.0v7 M-2.5,-0.5L0,-3.0L2.5,-0.5"/>
                </g>
                <g id="arrowLeft" xlink:href="#dirArrow" transform="rotate(270) translate(-36 17)" onmousedown="handlePan(-1,0)">
                  <use xlink:href="#rim" fill="#404040">
                        <set attributeName="fill" to="#808080" begin="arrowLeft.mouseover" end="arrowLeft.mouseout"/>
                  </use>
                  <path fill="none" stroke="white" stroke-width="1.5" d="M0,-3.0v7 M-2.5,-0.5L0,-3.0L2.5,-0.5"/>
                </g>
        </g>
        <svg viewBox="0 0 15 15" width="100%" height="30px" preserveAspectRatio="xMaxYMin meet">
         <g id="arrow_out" transform="scale(0.3 0.3)">
          <a xlink:href="http__rpc__context_8h__dep__incl_org.svg" target="_base">
           <rect id="button" ry="5" rx="5" y="6" x="6" height="38" width="38"
                fill="#f2f5e9" fill-opacity="0.5" stroke="#606060" stroke-width="1.0"/>
           <path id="arrow"
             d="M 11.500037,31.436501 C 11.940474,20.09759 22.043105,11.32322 32.158766,21.979434 L 37.068811,17.246167 C 37.068811,17.246167 37.088388,32 37.088388,32 L 22.160133,31.978069 C 22.160133,31.978069 26.997745,27.140456 26.997745,27.140456 C 18.528582,18.264221 13.291696,25.230495 11.500037,31.436501 z"
             style="fill:#404040;"/>
          </a>
         </g>
        </svg>
</svg>
