<?xml version="1.0" encoding="UTF-8" standalone="no"?>
<!DOCTYPE svg PUBLIC "-//W3C//DTD SVG 1.1//EN"
 "http://www.w3.org/Graphics/SVG/1.1/DTD/svg11.dtd">
<!-- Generated by graphviz version 2.43.0 (0)
 -->
<!-- Title: src/http/http_accept.h Pages: 1 -->
<svg width="798pt" height="357pt"
 viewBox="0.00 0.00 798.00 357.00" xmlns="http://www.w3.org/2000/svg" xmlns:xlink="http://www.w3.org/1999/xlink">
<g id="graph0" class="graph" transform="scale(1 1) rotate(0) translate(4 353)">
<title>src/http/http_accept.h</title>
<!-- Node1 -->
<g id="node1" class="node">
<title>Node1</title>
<g id="a_node1"><a xlink:title=" ">
<polygon fill="#999999" stroke="#666666" points="483.5,-349 361.5,-349 361.5,-330 483.5,-330 483.5,-349"/>
<text text-anchor="middle" x="422.5" y="-337" font-family="Helvetica,sans-Serif" font-size="10.00">src/http/http_accept.h</text>
</a>
</g>
</g>
<!-- Node2 -->
<g id="node2" class="node">
<title>Node2</title>
<g id="a_node2"><a xlink:href="nonstd_8h.html" target="_top" xlink:title=" ">
<polygon fill="white" stroke="#666666" points="189.5,-74 99.5,-74 99.5,-55 189.5,-55 189.5,-74"/>
<text text-anchor="middle" x="144.5" y="-62" font-family="Helvetica,sans-Serif" font-size="10.00">ccf/ds/nonstd.h</text>
</a>
</g>
</g>
<!-- Node1&#45;&gt;Node2 -->
<g id="edge1" class="edge">
<title>Node1&#45;&gt;Node2</title>
<path fill="none" stroke="#63b8ff" d="M403.91,-329.8C373.99,-314.37 318.5,-279.18 318.5,-230.5 318.5,-230.5 318.5,-230.5 318.5,-173.5 318.5,-116.67 250.66,-88.7 199.7,-75.71"/>
<polygon fill="#63b8ff" stroke="#63b8ff" points="200.3,-72.26 189.76,-73.31 198.66,-79.06 200.3,-72.26"/>
</g>
<!-- Node7 -->
<g id="node7" class="node">
<title>Node7</title>
<g id="a_node7"><a xlink:title=" ">
<polygon fill="#e0e0e0" stroke="#999999" points="73,-19 0,-19 0,0 73,0 73,-19"/>
<text text-anchor="middle" x="36.5" y="-7" font-family="Helvetica,sans-Serif" font-size="10.00">string_view</text>
</a>
</g>
</g>
<!-- Node1&#45;&gt;Node7 -->
<g id="edge28" class="edge">
<title>Node1&#45;&gt;Node7</title>
<path fill="none" stroke="#63b8ff" d="M361.19,-332.41C260.34,-320.67 70.5,-290.59 70.5,-230.5 70.5,-230.5 70.5,-230.5 70.5,-118.5 70.5,-85.39 55.78,-49.1 45.71,-28.14"/>
<polygon fill="#63b8ff" stroke="#63b8ff" points="48.83,-26.55 41.23,-19.17 42.57,-29.68 48.83,-26.55"/>
</g>
<!-- Node10 -->
<g id="node10" class="node">
<title>Node10</title>
<g id="a_node10"><a xlink:href="http__status_8h.html" target="_top" xlink:title=" ">
<polygon fill="white" stroke="#666666" points="471.5,-184 373.5,-184 373.5,-165 471.5,-165 471.5,-184"/>
<text text-anchor="middle" x="422.5" y="-172" font-family="Helvetica,sans-Serif" font-size="10.00">ccf/http_status.h</text>
</a>
</g>
</g>
<!-- Node1&#45;&gt;Node10 -->
<g id="edge9" class="edge">
<title>Node1&#45;&gt;Node10</title>
<path fill="none" stroke="#63b8ff" d="M422.5,-329.74C422.5,-304.31 422.5,-230.08 422.5,-194.69"/>
<polygon fill="#63b8ff" stroke="#63b8ff" points="426,-194.31 422.5,-184.31 419,-194.31 426,-194.31"/>
</g>
<!-- Node11 -->
<g id="node11" class="node">
<title>Node11</title>
<g id="a_node11"><a xlink:href="odata__error_8h.html" target="_top" xlink:title=" ">
<polygon fill="white" stroke="#666666" points="563.5,-239 465.5,-239 465.5,-220 563.5,-220 563.5,-239"/>
<text text-anchor="middle" x="514.5" y="-227" font-family="Helvetica,sans-Serif" font-size="10.00">ccf/odata_error.h</text>
</a>
</g>
</g>
<!-- Node1&#45;&gt;Node11 -->
<g id="edge10" class="edge">
<title>Node1&#45;&gt;Node11</title>
<path fill="none" stroke="#63b8ff" d="M430.03,-329.66C445.4,-311.61 480.62,-270.28 500.38,-247.08"/>
<polygon fill="#63b8ff" stroke="#63b8ff" points="503.3,-249.04 507.12,-239.16 497.98,-244.5 503.3,-249.04"/>
</g>
<!-- Node20 -->
<g id="node20" class="node">
<title>Node20</title>
<g id="a_node20"><a xlink:href="rpc__exception_8h.html" target="_top" xlink:title=" ">
<polygon fill="white" stroke="#666666" points="726,-294 587,-294 587,-275 726,-275 726,-294"/>
<text text-anchor="middle" x="656.5" y="-282" font-family="Helvetica,sans-Serif" font-size="10.00">node/rpc/rpc_exception.h</text>
</a>
</g>
</g>
<!-- Node1&#45;&gt;Node20 -->
<g id="edge24" class="edge">
<title>Node1&#45;&gt;Node20</title>
<path fill="none" stroke="#63b8ff" d="M460.1,-329.98C500.49,-320.84 564.78,-306.27 608.73,-296.32"/>
<polygon fill="#63b8ff" stroke="#63b8ff" points="609.63,-299.7 618.61,-294.08 608.08,-292.88 609.63,-299.7"/>
</g>
<!-- Node3 -->
<g id="node3" class="node">
<title>Node3</title>
<g id="a_node3"><a xlink:title=" ">
<polygon fill="#e0e0e0" stroke="#999999" points="370.5,-19 306.5,-19 306.5,0 370.5,0 370.5,-19"/>
<text text-anchor="middle" x="338.5" y="-7" font-family="Helvetica,sans-Serif" font-size="10.00">algorithm</text>
</a>
</g>
</g>
<!-- Node2&#45;&gt;Node3 -->
<g id="edge2" class="edge">
<title>Node2&#45;&gt;Node3</title>
<path fill="none" stroke="#63b8ff" d="M175.67,-54.98C208.66,-45.97 260.9,-31.7 297.27,-21.76"/>
<polygon fill="#63b8ff" stroke="#63b8ff" points="298.36,-25.09 307.09,-19.08 296.52,-18.34 298.36,-25.09"/>
</g>
<!-- Node4 -->
<g id="node4" class="node">
<title>Node4</title>
<g id="a_node4"><a xlink:title=" ">
<polygon fill="#e0e0e0" stroke="#999999" points="133.5,-19 91.5,-19 91.5,0 133.5,0 133.5,-19"/>
<text text-anchor="middle" x="112.5" y="-7" font-family="Helvetica,sans-Serif" font-size="10.00">array</text>
</a>
</g>
</g>
<!-- Node2&#45;&gt;Node4 -->
<g id="edge3" class="edge">
<title>Node2&#45;&gt;Node4</title>
<path fill="none" stroke="#63b8ff" d="M139.22,-54.75C134.79,-47.42 128.34,-36.73 122.88,-27.7"/>
<polygon fill="#63b8ff" stroke="#63b8ff" points="125.85,-25.84 117.69,-19.09 119.86,-29.46 125.85,-25.84"/>
</g>
<!-- Node5 -->
<g id="node5" class="node">
<title>Node5</title>
<g id="a_node5"><a xlink:title=" ">
<polygon fill="#e0e0e0" stroke="#999999" points="201,-19 152,-19 152,0 201,0 201,-19"/>
<text text-anchor="middle" x="176.5" y="-7" font-family="Helvetica,sans-Serif" font-size="10.00">cctype</text>
</a>
</g>
</g>
<!-- Node2&#45;&gt;Node5 -->
<g id="edge4" class="edge">
<title>Node2&#45;&gt;Node5</title>
<path fill="none" stroke="#63b8ff" d="M149.78,-54.75C154.21,-47.42 160.66,-36.73 166.12,-27.7"/>
<polygon fill="#63b8ff" stroke="#63b8ff" points="169.14,-29.46 171.31,-19.09 163.15,-25.84 169.14,-29.46"/>
</g>
<!-- Node6 -->
<g id="node6" class="node">
<title>Node6</title>
<g id="a_node6"><a xlink:title=" ">
<polygon fill="#e0e0e0" stroke="#999999" points="634.5,-19 590.5,-19 590.5,0 634.5,0 634.5,-19"/>
<text text-anchor="middle" x="612.5" y="-7" font-family="Helvetica,sans-Serif" font-size="10.00">string</text>
</a>
</g>
</g>
<!-- Node2&#45;&gt;Node6 -->
<g id="edge5" class="edge">
<title>Node2&#45;&gt;Node6</title>
<path fill="none" stroke="#63b8ff" d="M189.56,-56.24C192.58,-55.8 195.58,-55.39 198.5,-55 236.07,-50.03 489.87,-23.34 580.46,-13.85"/>
<polygon fill="#63b8ff" stroke="#63b8ff" points="580.84,-17.33 590.42,-12.81 580.11,-10.37 580.84,-17.33"/>
</g>
<!-- Node2&#45;&gt;Node7 -->
<g id="edge6" class="edge">
<title>Node2&#45;&gt;Node7</title>
<path fill="none" stroke="#63b8ff" d="M127.15,-54.98C109.93,-46.54 83.3,-33.47 63.35,-23.68"/>
<polygon fill="#63b8ff" stroke="#63b8ff" points="64.69,-20.43 54.17,-19.17 61.6,-26.72 64.69,-20.43"/>
</g>
<!-- Node8 -->
<g id="node8" class="node">
<title>Node8</title>
<g id="a_node8"><a xlink:title=" ">
<polygon fill="#e0e0e0" stroke="#999999" points="288,-19 219,-19 219,0 288,0 288,-19"/>
<text text-anchor="middle" x="253.5" y="-7" font-family="Helvetica,sans-Serif" font-size="10.00">type_traits</text>
</a>
</g>
</g>
<!-- Node2&#45;&gt;Node8 -->
<g id="edge7" class="edge">
<title>Node2&#45;&gt;Node8</title>
<path fill="none" stroke="#63b8ff" d="M162.01,-54.98C179.47,-46.5 206.51,-33.35 226.67,-23.54"/>
<polygon fill="#63b8ff" stroke="#63b8ff" points="228.21,-26.69 235.67,-19.17 225.14,-20.4 228.21,-26.69"/>
</g>
<!-- Node9 -->
<g id="node9" class="node">
<title>Node9</title>
<g id="a_node9"><a xlink:title=" ">
<polygon fill="#e0e0e0" stroke="#999999" points="520,-19 473,-19 473,0 520,0 520,-19"/>
<text text-anchor="middle" x="496.5" y="-7" font-family="Helvetica,sans-Serif" font-size="10.00">vector</text>
</a>
</g>
</g>
<!-- Node2&#45;&gt;Node9 -->
<g id="edge8" class="edge">
<title>Node2&#45;&gt;Node9</title>
<path fill="none" stroke="#63b8ff" d="M189.58,-56.38C192.6,-55.91 195.59,-55.45 198.5,-55 294.43,-40.29 407.85,-23.53 463.01,-15.41"/>
<polygon fill="#63b8ff" stroke="#63b8ff" points="463.54,-18.87 472.93,-13.96 462.52,-11.95 463.54,-18.87"/>
</g>
<!-- Node11&#45;&gt;Node10 -->
<g id="edge23" class="edge">
<title>Node11&#45;&gt;Node10</title>
<path fill="none" stroke="#63b8ff" d="M499.72,-219.98C485.32,-211.69 463.19,-198.94 446.31,-189.22"/>
<polygon fill="#63b8ff" stroke="#63b8ff" points="447.96,-186.13 437.55,-184.17 444.47,-192.19 447.96,-186.13"/>
</g>
<!-- Node12 -->
<g id="node12" class="node">
<title>Node12</title>
<g id="a_node12"><a xlink:href="json_8h.html" target="_top" xlink:title=" ">
<polygon fill="white" stroke="#666666" points="567,-184 490,-184 490,-165 567,-165 567,-184"/>
<text text-anchor="middle" x="528.5" y="-172" font-family="Helvetica,sans-Serif" font-size="10.00">ccf/ds/json.h</text>
</a>
</g>
</g>
<!-- Node11&#45;&gt;Node12 -->
<g id="edge11" class="edge">
<title>Node11&#45;&gt;Node12</title>
<path fill="none" stroke="#63b8ff" d="M516.81,-219.75C518.67,-212.72 521.34,-202.62 523.65,-193.84"/>
<polygon fill="#63b8ff" stroke="#63b8ff" points="527.06,-194.65 526.23,-184.09 520.29,-192.86 527.06,-194.65"/>
</g>
<!-- Node13 -->
<g id="node13" class="node">
<title>Node13</title>
<g id="a_node13"><a xlink:href="include_2ccf_2crypto_2base64_8h.html" target="_top" xlink:title=" ">
<polygon fill="white" stroke="#666666" points="668.5,-74 556.5,-74 556.5,-55 668.5,-55 668.5,-74"/>
<text text-anchor="middle" x="612.5" y="-62" font-family="Helvetica,sans-Serif" font-size="10.00">ccf/crypto/base64.h</text>
</a>
</g>
</g>
<!-- Node12&#45;&gt;Node13 -->
<g id="edge12" class="edge">
<title>Node12&#45;&gt;Node13</title>
<path fill="none" stroke="#63b8ff" d="M547.02,-164.88C561.36,-157.32 580.71,-145.03 592.5,-129 602.24,-115.76 607.33,-97.64 609.93,-84.14"/>
<polygon fill="#63b8ff" stroke="#63b8ff" points="613.41,-84.54 611.58,-74.1 606.5,-83.4 613.41,-84.54"/>
</g>
<!-- Node14 -->
<g id="node14" class="node">
<title>Node14</title>
<g id="a_node14"><a xlink:href="include_2ccf_2ds_2json__schema_8h.html" target="_top" xlink:title=" ">
<polygon fill="white" stroke="#666666" points="469,-129 348,-129 348,-110 469,-110 469,-129"/>
<text text-anchor="middle" x="408.5" y="-117" font-family="Helvetica,sans-Serif" font-size="10.00">ccf/ds/json_schema.h</text>
</a>
</g>
</g>
<!-- Node12&#45;&gt;Node14 -->
<g id="edge15" class="edge">
<title>Node12&#45;&gt;Node14</title>
<path fill="none" stroke="#63b8ff" d="M509.22,-164.98C489.83,-156.42 459.69,-143.11 437.43,-133.28"/>
<polygon fill="#63b8ff" stroke="#63b8ff" points="438.69,-130.01 428.13,-129.17 435.86,-136.41 438.69,-130.01"/>
</g>
<!-- Node16 -->
<g id="node16" class="node">
<title>Node16</title>
<g id="a_node16"><a xlink:title=" ">
<polygon fill="#e0e0e0" stroke="#999999" points="539,-74 460,-74 460,-55 539,-55 539,-74"/>
<text text-anchor="middle" x="499.5" y="-62" font-family="Helvetica,sans-Serif" font-size="10.00">fmt/format.h</text>
</a>
</g>
</g>
<!-- Node12&#45;&gt;Node16 -->
<g id="edge21" class="edge">
<title>Node12&#45;&gt;Node16</title>
<path fill="none" stroke="#63b8ff" d="M526.13,-164.66C521.41,-147.09 510.76,-107.45 504.46,-83.95"/>
<polygon fill="#63b8ff" stroke="#63b8ff" points="507.8,-82.91 501.82,-74.16 501.04,-84.72 507.8,-82.91"/>
</g>
<!-- Node19 -->
<g id="node19" class="node">
<title>Node19</title>
<g id="a_node19"><a xlink:title=" ">
<polygon fill="#e0e0e0" stroke="#999999" points="583.5,-129 527.5,-129 527.5,-110 583.5,-110 583.5,-129"/>
<text text-anchor="middle" x="555.5" y="-117" font-family="Helvetica,sans-Serif" font-size="10.00">sstream</text>
</a>
</g>
</g>
<!-- Node12&#45;&gt;Node19 -->
<g id="edge22" class="edge">
<title>Node12&#45;&gt;Node19</title>
<path fill="none" stroke="#63b8ff" d="M532.96,-164.75C536.62,-157.57 541.91,-147.18 546.45,-138.27"/>
<polygon fill="#63b8ff" stroke="#63b8ff" points="549.7,-139.59 551.12,-129.09 543.47,-136.41 549.7,-139.59"/>
</g>
<!-- Node13&#45;&gt;Node6 -->
<g id="edge13" class="edge">
<title>Node13&#45;&gt;Node6</title>
<path fill="none" stroke="#63b8ff" d="M612.5,-54.75C612.5,-47.8 612.5,-37.85 612.5,-29.13"/>
<polygon fill="#63b8ff" stroke="#63b8ff" points="616,-29.09 612.5,-19.09 609,-29.09 616,-29.09"/>
</g>
<!-- Node13&#45;&gt;Node9 -->
<g id="edge14" class="edge">
<title>Node13&#45;&gt;Node9</title>
<path fill="none" stroke="#63b8ff" d="M593.86,-54.98C575.2,-46.46 546.25,-33.23 524.76,-23.41"/>
<polygon fill="#63b8ff" stroke="#63b8ff" points="526.03,-20.14 515.48,-19.17 523.12,-26.51 526.03,-20.14"/>
</g>
<!-- Node14&#45;&gt;Node2 -->
<g id="edge16" class="edge">
<title>Node14&#45;&gt;Node2</title>
<path fill="none" stroke="#63b8ff" d="M366.08,-109.98C320.13,-100.76 246.75,-86.03 197.15,-76.07"/>
<polygon fill="#63b8ff" stroke="#63b8ff" points="197.74,-72.62 187.25,-74.08 196.36,-79.48 197.74,-72.62"/>
</g>
<!-- Node15 -->
<g id="node15" class="node">
<title>Node15</title>
<g id="a_node15"><a xlink:title=" ">
<polygon fill="#e0e0e0" stroke="#999999" points="441.5,-74 385.5,-74 385.5,-55 441.5,-55 441.5,-74"/>
<text text-anchor="middle" x="413.5" y="-62" font-family="Helvetica,sans-Serif" font-size="10.00">optional</text>
</a>
</g>
</g>
<!-- Node14&#45;&gt;Node15 -->
<g id="edge17" class="edge">
<title>Node14&#45;&gt;Node15</title>
<path fill="none" stroke="#63b8ff" d="M409.33,-109.75C409.98,-102.8 410.92,-92.85 411.74,-84.13"/>
<polygon fill="#63b8ff" stroke="#63b8ff" points="415.23,-84.37 412.69,-74.09 408.27,-83.72 415.23,-84.37"/>
</g>
<!-- Node14&#45;&gt;Node16 -->
<g id="edge18" class="edge">
<title>Node14&#45;&gt;Node16</title>
<path fill="none" stroke="#63b8ff" d="M423.12,-109.98C437.36,-101.69 459.25,-88.94 475.95,-79.22"/>
<polygon fill="#63b8ff" stroke="#63b8ff" points="477.73,-82.23 484.61,-74.17 474.21,-76.18 477.73,-82.23"/>
</g>
<!-- Node17 -->
<g id="node17" class="node">
<title>Node17</title>
<g id="a_node17"><a xlink:title=" ">
<polygon fill="#e0e0e0" stroke="#999999" points="317.5,-74 207.5,-74 207.5,-55 317.5,-55 317.5,-74"/>
<text text-anchor="middle" x="262.5" y="-62" font-family="Helvetica,sans-Serif" font-size="10.00">nlohmann/json.hpp</text>
</a>
</g>
</g>
<!-- Node14&#45;&gt;Node17 -->
<g id="edge19" class="edge">
<title>Node14&#45;&gt;Node17</title>
<path fill="none" stroke="#63b8ff" d="M385.04,-109.98C360.92,-101.23 323.13,-87.51 295.9,-77.62"/>
<polygon fill="#63b8ff" stroke="#63b8ff" points="296.98,-74.29 286.38,-74.17 294.59,-80.87 296.98,-74.29"/>
</g>
<!-- Node18 -->
<g id="node18" class="node">
<title>Node18</title>
<g id="a_node18"><a xlink:title=" ">
<polygon fill="#e0e0e0" stroke="#999999" points="367.5,-74 335.5,-74 335.5,-55 367.5,-55 367.5,-74"/>
<text text-anchor="middle" x="351.5" y="-62" font-family="Helvetica,sans-Serif" font-size="10.00">set</text>
</a>
</g>
</g>
<!-- Node14&#45;&gt;Node18 -->
<g id="edge20" class="edge">
<title>Node14&#45;&gt;Node18</title>
<path fill="none" stroke="#63b8ff" d="M399.34,-109.98C391,-102.23 378.47,-90.58 368.32,-81.14"/>
<polygon fill="#63b8ff" stroke="#63b8ff" points="370.53,-78.42 360.82,-74.17 365.76,-83.54 370.53,-78.42"/>
</g>
<!-- Node20&#45;&gt;Node6 -->
<g id="edge27" class="edge">
<title>Node20&#45;&gt;Node6</title>
<path fill="none" stroke="#63b8ff" d="M662.06,-274.94C673.05,-257.18 696.5,-214.69 696.5,-175.5 696.5,-175.5 696.5,-175.5 696.5,-118.5 696.5,-89.04 694.87,-78.79 677.5,-55 667.96,-41.93 653.36,-31.44 640.41,-23.93"/>
<polygon fill="#63b8ff" stroke="#63b8ff" points="641.82,-20.72 631.37,-19 638.47,-26.86 641.82,-20.72"/>
</g>
<!-- Node20&#45;&gt;Node11 -->
<g id="edge25" class="edge">
<title>Node20&#45;&gt;Node11</title>
<path fill="none" stroke="#63b8ff" d="M633.69,-274.98C610.33,-266.27 573.8,-252.63 547.33,-242.75"/>
<polygon fill="#63b8ff" stroke="#63b8ff" points="548.32,-239.39 537.73,-239.17 545.87,-245.95 548.32,-239.39"/>
</g>
<!-- Node21 -->
<g id="node21" class="node">
<title>Node21</title>
<g id="a_node21"><a xlink:title=" ">
<polygon fill="#e0e0e0" stroke="#999999" points="790,-239 725,-239 725,-220 790,-220 790,-239"/>
<text text-anchor="middle" x="757.5" y="-227" font-family="Helvetica,sans-Serif" font-size="10.00">exception</text>
</a>
</g>
</g>
<!-- Node20&#45;&gt;Node21 -->
<g id="edge26" class="edge">
<title>Node20&#45;&gt;Node21</title>
<path fill="none" stroke="#63b8ff" d="M672.73,-274.98C688.68,-266.61 713.28,-253.7 731.88,-243.95"/>
<polygon fill="#63b8ff" stroke="#63b8ff" points="733.75,-246.92 740.98,-239.17 730.5,-240.72 733.75,-246.92"/>
</g>
</g>
</svg>
