<?xml version="1.0" encoding="UTF-8" standalone="no"?>
<!DOCTYPE svg PUBLIC "-//W3C//DTD SVG 1.1//EN"
 "http://www.w3.org/Graphics/SVG/1.1/DTD/svg11.dtd">
<!-- Generated by graphviz version 2.43.0 (0)
 -->
<!-- Title: include/ccf/crypto/rsa_public_key.h Pages: 1 -->
<svg width="1749pt" height="423pt"
 viewBox="0.00 0.00 1749.00 423.00" xmlns="http://www.w3.org/2000/svg" xmlns:xlink="http://www.w3.org/1999/xlink">
<g id="graph0" class="graph" transform="scale(1 1) rotate(0) translate(4 419)">
<title>include/ccf/crypto/rsa_public_key.h</title>
<!-- Node1 -->
<g id="node1" class="node">
<title>Node1</title>
<g id="a_node1"><a xlink:title=" ">
<polygon fill="#999999" stroke="#666666" points="1634.5,-415 1531.5,-415 1531.5,-385 1634.5,-385 1634.5,-415"/>
<text text-anchor="start" x="1539.5" y="-403" font-family="Helvetica,sans-Serif" font-size="10.00">include/ccf/crypto</text>
<text text-anchor="middle" x="1583" y="-392" font-family="Helvetica,sans-Serif" font-size="10.00">/rsa_public_key.h</text>
</a>
</g>
</g>
<!-- Node2 -->
<g id="node2" class="node">
<title>Node2</title>
<g id="a_node2"><a xlink:href="jwk_8h.html" target="_top" xlink:title=" ">
<polygon fill="white" stroke="#666666" points="1196,-349 1102,-349 1102,-330 1196,-330 1196,-349"/>
<text text-anchor="middle" x="1149" y="-337" font-family="Helvetica,sans-Serif" font-size="10.00">ccf/crypto/jwk.h</text>
</a>
</g>
</g>
<!-- Node1&#45;&gt;Node2 -->
<g id="edge1" class="edge">
<title>Node1&#45;&gt;Node2</title>
<path fill="none" stroke="#63b8ff" d="M1531.08,-392C1449.25,-380.97 1290.87,-359.62 1205.99,-348.18"/>
<polygon fill="#63b8ff" stroke="#63b8ff" points="1206.39,-344.7 1196.01,-346.84 1205.46,-351.64 1206.39,-344.7"/>
</g>
<!-- Node7 -->
<g id="node7" class="node">
<title>Node7</title>
<g id="a_node7"><a xlink:title=" ">
<polygon fill="#e0e0e0" stroke="#999999" points="1247,-19 1203,-19 1203,0 1247,0 1247,-19"/>
<text text-anchor="middle" x="1225" y="-7" font-family="Helvetica,sans-Serif" font-size="10.00">string</text>
</a>
</g>
</g>
<!-- Node1&#45;&gt;Node7 -->
<g id="edge57" class="edge">
<title>Node1&#45;&gt;Node7</title>
<path fill="none" stroke="#63b8ff" d="M1591.91,-384.93C1604.24,-364.07 1625,-323.32 1625,-285.5 1625,-285.5 1625,-285.5 1625,-228.5 1625,-61.34 1352.35,-21.6 1257.25,-12.83"/>
<polygon fill="#63b8ff" stroke="#63b8ff" points="1257.34,-9.32 1247.08,-11.94 1256.74,-16.29 1257.34,-9.32"/>
</g>
<!-- Node8 -->
<g id="node8" class="node">
<title>Node8</title>
<g id="a_node8"><a xlink:title=" ">
<polygon fill="#e0e0e0" stroke="#999999" points="1408.5,-19 1361.5,-19 1361.5,0 1408.5,0 1408.5,-19"/>
<text text-anchor="middle" x="1385" y="-7" font-family="Helvetica,sans-Serif" font-size="10.00">vector</text>
</a>
</g>
</g>
<!-- Node1&#45;&gt;Node8 -->
<g id="edge58" class="edge">
<title>Node1&#45;&gt;Node8</title>
<path fill="none" stroke="#63b8ff" d="M1603.1,-384.95C1614.9,-375.84 1629.34,-363.08 1639,-349 1656.08,-324.13 1663,-315.67 1663,-285.5 1663,-285.5 1663,-285.5 1663,-118.5 1663,-66.68 1493.06,-29.87 1418.91,-16.28"/>
<polygon fill="#63b8ff" stroke="#63b8ff" points="1419.16,-12.77 1408.7,-14.44 1417.92,-19.66 1419.16,-12.77"/>
</g>
<!-- Node16 -->
<g id="node16" class="node">
<title>Node16</title>
<g id="a_node16"><a xlink:title=" ">
<polygon fill="#e0e0e0" stroke="#999999" points="1121,-74 1065,-74 1065,-55 1121,-55 1121,-74"/>
<text text-anchor="middle" x="1093" y="-62" font-family="Helvetica,sans-Serif" font-size="10.00">optional</text>
</a>
</g>
</g>
<!-- Node1&#45;&gt;Node16 -->
<g id="edge56" class="edge">
<title>Node1&#45;&gt;Node16</title>
<path fill="none" stroke="#63b8ff" d="M1560.47,-384.79C1506.91,-350.91 1368.06,-262.33 1255,-184 1202.6,-147.7 1142.36,-102.76 1112.25,-80.07"/>
<polygon fill="#63b8ff" stroke="#63b8ff" points="1114.34,-77.27 1104.25,-74.04 1110.12,-82.85 1114.34,-77.27"/>
</g>
<!-- Node32 -->
<g id="node32" class="node">
<title>Node32</title>
<g id="a_node32"><a xlink:href="pem_8h.html" target="_top" xlink:title=" ">
<polygon fill="white" stroke="#666666" points="1481,-239 1383,-239 1383,-220 1481,-220 1481,-239"/>
<text text-anchor="middle" x="1432" y="-227" font-family="Helvetica,sans-Serif" font-size="10.00">ccf/crypto/pem.h</text>
</a>
</g>
</g>
<!-- Node1&#45;&gt;Node32 -->
<g id="edge47" class="edge">
<title>Node1&#45;&gt;Node32</title>
<path fill="none" stroke="#63b8ff" d="M1570.39,-384.92C1542.67,-353.99 1476.56,-280.23 1446.88,-247.1"/>
<polygon fill="#63b8ff" stroke="#63b8ff" points="1449.13,-244.37 1439.85,-239.25 1443.91,-249.04 1449.13,-244.37"/>
</g>
<!-- Node37 -->
<g id="node37" class="node">
<title>Node37</title>
<g id="a_node37"><a xlink:title=" ">
<polygon fill="#e0e0e0" stroke="#999999" points="1741,-349 1691,-349 1691,-330 1741,-330 1741,-349"/>
<text text-anchor="middle" x="1716" y="-337" font-family="Helvetica,sans-Serif" font-size="10.00">cstdint</text>
</a>
</g>
</g>
<!-- Node1&#45;&gt;Node37 -->
<g id="edge55" class="edge">
<title>Node1&#45;&gt;Node37</title>
<path fill="none" stroke="#63b8ff" d="M1614.86,-384.99C1636.85,-375.31 1665.85,-362.56 1687.16,-353.18"/>
<polygon fill="#63b8ff" stroke="#63b8ff" points="1688.61,-356.37 1696.36,-349.14 1685.8,-349.96 1688.61,-356.37"/>
</g>
<!-- Node3 -->
<g id="node3" class="node">
<title>Node3</title>
<g id="a_node3"><a xlink:href="curve_8h.html" target="_top" xlink:title=" ">
<polygon fill="white" stroke="#666666" points="1035,-294 931,-294 931,-275 1035,-275 1035,-294"/>
<text text-anchor="middle" x="983" y="-282" font-family="Helvetica,sans-Serif" font-size="10.00">ccf/crypto/curve.h</text>
</a>
</g>
</g>
<!-- Node2&#45;&gt;Node3 -->
<g id="edge2" class="edge">
<title>Node2&#45;&gt;Node3</title>
<path fill="none" stroke="#63b8ff" d="M1122.33,-329.98C1094.46,-321.09 1050.55,-307.07 1019.48,-297.15"/>
<polygon fill="#63b8ff" stroke="#63b8ff" points="1020.47,-293.79 1009.88,-294.08 1018.34,-300.46 1020.47,-293.79"/>
</g>
<!-- Node5 -->
<g id="node5" class="node">
<title>Node5</title>
<g id="a_node5"><a xlink:href="json_8h.html" target="_top" xlink:title=" ">
<polygon fill="white" stroke="#666666" points="1080.5,-184 1003.5,-184 1003.5,-165 1080.5,-165 1080.5,-184"/>
<text text-anchor="middle" x="1042" y="-172" font-family="Helvetica,sans-Serif" font-size="10.00">ccf/ds/json.h</text>
</a>
</g>
</g>
<!-- Node2&#45;&gt;Node5 -->
<g id="edge29" class="edge">
<title>Node2&#45;&gt;Node5</title>
<path fill="none" stroke="#63b8ff" d="M1143.25,-329.74C1126.27,-303.87 1076.12,-227.48 1053.41,-192.88"/>
<polygon fill="#63b8ff" stroke="#63b8ff" points="1056.19,-190.75 1047.78,-184.31 1050.34,-194.59 1056.19,-190.75"/>
</g>
<!-- Node2&#45;&gt;Node7 -->
<g id="edge46" class="edge">
<title>Node2&#45;&gt;Node7</title>
<path fill="none" stroke="#63b8ff" d="M1156.29,-329.97C1175.31,-306.82 1225,-240.13 1225,-175.5 1225,-175.5 1225,-175.5 1225,-118.5 1225,-87.19 1225,-50.77 1225,-29.23"/>
<polygon fill="#63b8ff" stroke="#63b8ff" points="1228.5,-29.18 1225,-19.18 1221.5,-29.18 1228.5,-29.18"/>
</g>
<!-- Node23 -->
<g id="node23" class="node">
<title>Node23</title>
<g id="a_node23"><a xlink:href="logger_8h.html" target="_top" xlink:title=" ">
<polygon fill="white" stroke="#666666" points="682.5,-184 595.5,-184 595.5,-165 682.5,-165 682.5,-184"/>
<text text-anchor="middle" x="639" y="-172" font-family="Helvetica,sans-Serif" font-size="10.00">ccf/ds/logger.h</text>
</a>
</g>
</g>
<!-- Node2&#45;&gt;Node23 -->
<g id="edge30" class="edge">
<title>Node2&#45;&gt;Node23</title>
<path fill="none" stroke="#63b8ff" d="M1101.6,-331.22C1055.36,-323.64 983.25,-310.57 922,-294 850.23,-274.58 832.41,-268.13 764,-239 728.02,-223.68 687.96,-202.58 663.12,-188.98"/>
<polygon fill="#63b8ff" stroke="#63b8ff" points="664.53,-185.76 654.08,-184 661.15,-191.89 664.53,-185.76"/>
</g>
<!-- Node4 -->
<g id="node4" class="node">
<title>Node4</title>
<g id="a_node4"><a xlink:href="md__type_8h.html" target="_top" xlink:title=" ">
<polygon fill="white" stroke="#666666" points="1042.5,-239 923.5,-239 923.5,-220 1042.5,-220 1042.5,-239"/>
<text text-anchor="middle" x="983" y="-227" font-family="Helvetica,sans-Serif" font-size="10.00">ccf/crypto/md_type.h</text>
</a>
</g>
</g>
<!-- Node3&#45;&gt;Node4 -->
<g id="edge3" class="edge">
<title>Node3&#45;&gt;Node4</title>
<path fill="none" stroke="#63b8ff" d="M983,-274.75C983,-267.8 983,-257.85 983,-249.13"/>
<polygon fill="#63b8ff" stroke="#63b8ff" points="986.5,-249.09 983,-239.09 979.5,-249.09 986.5,-249.09"/>
</g>
<!-- Node3&#45;&gt;Node5 -->
<g id="edge25" class="edge">
<title>Node3&#45;&gt;Node5</title>
<path fill="none" stroke="#63b8ff" d="M1007.47,-274.86C1023.27,-267.85 1042.59,-256.27 1052,-239 1059.59,-225.08 1055.68,-207.06 1050.69,-193.77"/>
<polygon fill="#63b8ff" stroke="#63b8ff" points="1053.8,-192.14 1046.66,-184.3 1047.36,-194.88 1053.8,-192.14"/>
</g>
<!-- Node3&#45;&gt;Node7 -->
<g id="edge28" class="edge">
<title>Node3&#45;&gt;Node7</title>
<path fill="none" stroke="#63b8ff" d="M1006.52,-274.85C1024.72,-267.34 1049.81,-255.14 1068,-239 1140.7,-174.52 1196.38,-69.63 1216.67,-28.17"/>
<polygon fill="#63b8ff" stroke="#63b8ff" points="1219.87,-29.59 1221.05,-19.06 1213.56,-26.55 1219.87,-29.59"/>
</g>
<!-- Node17 -->
<g id="node17" class="node">
<title>Node17</title>
<g id="a_node17"><a xlink:title=" ">
<polygon fill="#e0e0e0" stroke="#999999" points="735.5,-74 656.5,-74 656.5,-55 735.5,-55 735.5,-74"/>
<text text-anchor="middle" x="696" y="-62" font-family="Helvetica,sans-Serif" font-size="10.00">fmt/format.h</text>
</a>
</g>
</g>
<!-- Node3&#45;&gt;Node17 -->
<g id="edge26" class="edge">
<title>Node3&#45;&gt;Node17</title>
<path fill="none" stroke="#63b8ff" d="M962.32,-274.99C946.87,-267.63 926.38,-255.55 914,-239 878.2,-191.14 919.18,-151.32 876,-110 857.47,-92.27 792.3,-79.38 745.71,-72.16"/>
<polygon fill="#63b8ff" stroke="#63b8ff" points="746.19,-68.7 735.78,-70.67 745.14,-75.62 746.19,-68.7"/>
</g>
<!-- Node21 -->
<g id="node21" class="node">
<title>Node21</title>
<g id="a_node21"><a xlink:href="enum__formatter_8h.html" target="_top" xlink:title=" ">
<polygon fill="white" stroke="#666666" points="755,-129 619,-129 619,-110 755,-110 755,-129"/>
<text text-anchor="middle" x="687" y="-117" font-family="Helvetica,sans-Serif" font-size="10.00">ccf/ds/enum_formatter.h</text>
</a>
</g>
</g>
<!-- Node3&#45;&gt;Node21 -->
<g id="edge23" class="edge">
<title>Node3&#45;&gt;Node21</title>
<path fill="none" stroke="#63b8ff" d="M930.75,-279.96C890.44,-275.26 834.56,-264.36 792,-239 749.08,-213.43 714.17,-164.42 697.54,-138.16"/>
<polygon fill="#63b8ff" stroke="#63b8ff" points="700.3,-135.98 692.08,-129.3 694.34,-139.65 700.3,-135.98"/>
</g>
<!-- Node22 -->
<g id="node22" class="node">
<title>Node22</title>
<g id="a_node22"><a xlink:title=" ">
<polygon fill="#e0e0e0" stroke="#999999" points="866.5,-239 801.5,-239 801.5,-220 866.5,-220 866.5,-239"/>
<text text-anchor="middle" x="834" y="-227" font-family="Helvetica,sans-Serif" font-size="10.00">stdexcept</text>
</a>
</g>
</g>
<!-- Node3&#45;&gt;Node22 -->
<g id="edge27" class="edge">
<title>Node3&#45;&gt;Node22</title>
<path fill="none" stroke="#63b8ff" d="M959.06,-274.98C934.44,-266.23 895.88,-252.51 868.08,-242.62"/>
<polygon fill="#63b8ff" stroke="#63b8ff" points="868.97,-239.22 858.38,-239.17 866.62,-245.82 868.97,-239.22"/>
</g>
<!-- Node4&#45;&gt;Node5 -->
<g id="edge4" class="edge">
<title>Node4&#45;&gt;Node5</title>
<path fill="none" stroke="#63b8ff" d="M992.48,-219.98C1001.2,-212.15 1014.34,-200.34 1024.9,-190.86"/>
<polygon fill="#63b8ff" stroke="#63b8ff" points="1027.25,-193.46 1032.35,-184.17 1022.57,-188.25 1027.25,-193.46"/>
</g>
<!-- Node6 -->
<g id="node6" class="node">
<title>Node6</title>
<g id="a_node6"><a xlink:href="include_2ccf_2crypto_2base64_8h.html" target="_top" xlink:title=" ">
<polygon fill="white" stroke="#666666" points="1365,-74 1253,-74 1253,-55 1365,-55 1365,-74"/>
<text text-anchor="middle" x="1309" y="-62" font-family="Helvetica,sans-Serif" font-size="10.00">ccf/crypto/base64.h</text>
</a>
</g>
</g>
<!-- Node5&#45;&gt;Node6 -->
<g id="edge5" class="edge">
<title>Node5&#45;&gt;Node6</title>
<path fill="none" stroke="#63b8ff" d="M1063.4,-164.84C1110.58,-145.76 1223.69,-100.01 1278.37,-77.89"/>
<polygon fill="#63b8ff" stroke="#63b8ff" points="1279.91,-81.04 1287.87,-74.05 1277.29,-74.55 1279.91,-81.04"/>
</g>
<!-- Node9 -->
<g id="node9" class="node">
<title>Node9</title>
<g id="a_node9"><a xlink:href="include_2ccf_2ds_2json__schema_8h.html" target="_top" xlink:title=" ">
<polygon fill="white" stroke="#666666" points="1082.5,-129 961.5,-129 961.5,-110 1082.5,-110 1082.5,-129"/>
<text text-anchor="middle" x="1022" y="-117" font-family="Helvetica,sans-Serif" font-size="10.00">ccf/ds/json_schema.h</text>
</a>
</g>
</g>
<!-- Node5&#45;&gt;Node9 -->
<g id="edge8" class="edge">
<title>Node5&#45;&gt;Node9</title>
<path fill="none" stroke="#63b8ff" d="M1038.7,-164.75C1036.02,-157.65 1032.15,-147.4 1028.81,-138.56"/>
<polygon fill="#63b8ff" stroke="#63b8ff" points="1032.05,-137.21 1025.24,-129.09 1025.5,-139.68 1032.05,-137.21"/>
</g>
<!-- Node5&#45;&gt;Node17 -->
<g id="edge21" class="edge">
<title>Node5&#45;&gt;Node17</title>
<path fill="none" stroke="#63b8ff" d="M1024.7,-164.96C991.44,-148.57 920.79,-113.98 909,-110 854.49,-91.59 789.46,-79.34 745.71,-72.43"/>
<polygon fill="#63b8ff" stroke="#63b8ff" points="746.03,-68.94 735.62,-70.87 744.97,-75.86 746.03,-68.94"/>
</g>
<!-- Node20 -->
<g id="node20" class="node">
<title>Node20</title>
<g id="a_node20"><a xlink:title=" ">
<polygon fill="#e0e0e0" stroke="#999999" points="867,-129 811,-129 811,-110 867,-110 867,-129"/>
<text text-anchor="middle" x="839" y="-117" font-family="Helvetica,sans-Serif" font-size="10.00">sstream</text>
</a>
</g>
</g>
<!-- Node5&#45;&gt;Node20 -->
<g id="edge22" class="edge">
<title>Node5&#45;&gt;Node20</title>
<path fill="none" stroke="#63b8ff" d="M1009.38,-164.98C973.27,-155.56 915.13,-140.38 876.99,-130.42"/>
<polygon fill="#63b8ff" stroke="#63b8ff" points="877.84,-127.02 867.28,-127.88 876.07,-133.8 877.84,-127.02"/>
</g>
<!-- Node6&#45;&gt;Node7 -->
<g id="edge6" class="edge">
<title>Node6&#45;&gt;Node7</title>
<path fill="none" stroke="#63b8ff" d="M1295.5,-54.98C1282.6,-46.84 1262.9,-34.41 1247.6,-24.76"/>
<polygon fill="#63b8ff" stroke="#63b8ff" points="1249.07,-21.55 1238.74,-19.17 1245.33,-27.47 1249.07,-21.55"/>
</g>
<!-- Node6&#45;&gt;Node8 -->
<g id="edge7" class="edge">
<title>Node6&#45;&gt;Node8</title>
<path fill="none" stroke="#63b8ff" d="M1321.21,-54.98C1332.78,-46.92 1350.38,-34.65 1364.16,-25.03"/>
<polygon fill="#63b8ff" stroke="#63b8ff" points="1366.37,-27.76 1372.57,-19.17 1362.36,-22.02 1366.37,-27.76"/>
</g>
<!-- Node10 -->
<g id="node10" class="node">
<title>Node10</title>
<g id="a_node10"><a xlink:href="nonstd_8h.html" target="_top" xlink:title=" ">
<polygon fill="white" stroke="#666666" points="997,-74 907,-74 907,-55 997,-55 997,-74"/>
<text text-anchor="middle" x="952" y="-62" font-family="Helvetica,sans-Serif" font-size="10.00">ccf/ds/nonstd.h</text>
</a>
</g>
</g>
<!-- Node9&#45;&gt;Node10 -->
<g id="edge9" class="edge">
<title>Node9&#45;&gt;Node10</title>
<path fill="none" stroke="#63b8ff" d="M1010.75,-109.98C1000.2,-102 984.2,-89.88 971.56,-80.31"/>
<polygon fill="#63b8ff" stroke="#63b8ff" points="973.54,-77.42 963.45,-74.17 969.31,-83 973.54,-77.42"/>
</g>
<!-- Node9&#45;&gt;Node16 -->
<g id="edge17" class="edge">
<title>Node9&#45;&gt;Node16</title>
<path fill="none" stroke="#63b8ff" d="M1033.41,-109.98C1044.11,-102 1060.34,-89.88 1073.16,-80.31"/>
<polygon fill="#63b8ff" stroke="#63b8ff" points="1075.47,-82.96 1081.39,-74.17 1071.28,-77.35 1075.47,-82.96"/>
</g>
<!-- Node9&#45;&gt;Node17 -->
<g id="edge18" class="edge">
<title>Node9&#45;&gt;Node17</title>
<path fill="none" stroke="#63b8ff" d="M969.62,-109.98C908.03,-99.97 806.54,-83.47 746,-73.63"/>
<polygon fill="#63b8ff" stroke="#63b8ff" points="746.35,-70.14 735.92,-71.99 745.23,-77.05 746.35,-70.14"/>
</g>
<!-- Node18 -->
<g id="node18" class="node">
<title>Node18</title>
<g id="a_node18"><a xlink:title=" ">
<polygon fill="#e0e0e0" stroke="#999999" points="881,-74 771,-74 771,-55 881,-55 881,-74"/>
<text text-anchor="middle" x="826" y="-62" font-family="Helvetica,sans-Serif" font-size="10.00">nlohmann/json.hpp</text>
</a>
</g>
</g>
<!-- Node9&#45;&gt;Node18 -->
<g id="edge19" class="edge">
<title>Node9&#45;&gt;Node18</title>
<path fill="none" stroke="#63b8ff" d="M990.51,-109.98C957.18,-100.97 904.4,-86.7 867.65,-76.76"/>
<polygon fill="#63b8ff" stroke="#63b8ff" points="868.3,-73.31 857.74,-74.08 866.48,-80.07 868.3,-73.31"/>
</g>
<!-- Node19 -->
<g id="node19" class="node">
<title>Node19</title>
<g id="a_node19"><a xlink:title=" ">
<polygon fill="#e0e0e0" stroke="#999999" points="1047,-74 1015,-74 1015,-55 1047,-55 1047,-74"/>
<text text-anchor="middle" x="1031" y="-62" font-family="Helvetica,sans-Serif" font-size="10.00">set</text>
</a>
</g>
</g>
<!-- Node9&#45;&gt;Node19 -->
<g id="edge20" class="edge">
<title>Node9&#45;&gt;Node19</title>
<path fill="none" stroke="#63b8ff" d="M1023.49,-109.75C1024.67,-102.8 1026.36,-92.85 1027.84,-84.13"/>
<polygon fill="#63b8ff" stroke="#63b8ff" points="1031.32,-84.53 1029.54,-74.09 1024.42,-83.36 1031.32,-84.53"/>
</g>
<!-- Node10&#45;&gt;Node7 -->
<g id="edge13" class="edge">
<title>Node10&#45;&gt;Node7</title>
<path fill="none" stroke="#63b8ff" d="M995.86,-54.98C1050.91,-44.3 1144.01,-26.22 1192.87,-16.74"/>
<polygon fill="#63b8ff" stroke="#63b8ff" points="1193.73,-20.14 1202.88,-14.8 1192.39,-13.27 1193.73,-20.14"/>
</g>
<!-- Node10&#45;&gt;Node8 -->
<g id="edge16" class="edge">
<title>Node10&#45;&gt;Node8</title>
<path fill="none" stroke="#63b8ff" d="M997.06,-56.27C1000.08,-55.83 1003.09,-55.4 1006,-55 1133.14,-37.54 1284.88,-21.02 1351.19,-14.02"/>
<polygon fill="#63b8ff" stroke="#63b8ff" points="1351.87,-17.47 1361.45,-12.94 1351.14,-10.51 1351.87,-17.47"/>
</g>
<!-- Node11 -->
<g id="node11" class="node">
<title>Node11</title>
<g id="a_node11"><a xlink:title=" ">
<polygon fill="#e0e0e0" stroke="#999999" points="913,-19 849,-19 849,0 913,0 913,-19"/>
<text text-anchor="middle" x="881" y="-7" font-family="Helvetica,sans-Serif" font-size="10.00">algorithm</text>
</a>
</g>
</g>
<!-- Node10&#45;&gt;Node11 -->
<g id="edge10" class="edge">
<title>Node10&#45;&gt;Node11</title>
<path fill="none" stroke="#63b8ff" d="M940.59,-54.98C929.89,-47 913.66,-34.88 900.84,-25.31"/>
<polygon fill="#63b8ff" stroke="#63b8ff" points="902.72,-22.35 892.61,-19.17 898.53,-27.96 902.72,-22.35"/>
</g>
<!-- Node12 -->
<g id="node12" class="node">
<title>Node12</title>
<g id="a_node12"><a xlink:title=" ">
<polygon fill="#e0e0e0" stroke="#999999" points="973,-19 931,-19 931,0 973,0 973,-19"/>
<text text-anchor="middle" x="952" y="-7" font-family="Helvetica,sans-Serif" font-size="10.00">array</text>
</a>
</g>
</g>
<!-- Node10&#45;&gt;Node12 -->
<g id="edge11" class="edge">
<title>Node10&#45;&gt;Node12</title>
<path fill="none" stroke="#63b8ff" d="M952,-54.75C952,-47.8 952,-37.85 952,-29.13"/>
<polygon fill="#63b8ff" stroke="#63b8ff" points="955.5,-29.09 952,-19.09 948.5,-29.09 955.5,-29.09"/>
</g>
<!-- Node13 -->
<g id="node13" class="node">
<title>Node13</title>
<g id="a_node13"><a xlink:title=" ">
<polygon fill="#e0e0e0" stroke="#999999" points="1040.5,-19 991.5,-19 991.5,0 1040.5,0 1040.5,-19"/>
<text text-anchor="middle" x="1016" y="-7" font-family="Helvetica,sans-Serif" font-size="10.00">cctype</text>
</a>
</g>
</g>
<!-- Node10&#45;&gt;Node13 -->
<g id="edge12" class="edge">
<title>Node10&#45;&gt;Node13</title>
<path fill="none" stroke="#63b8ff" d="M962.28,-54.98C971.84,-47.07 986.28,-35.11 997.78,-25.58"/>
<polygon fill="#63b8ff" stroke="#63b8ff" points="1000.06,-28.24 1005.53,-19.17 995.6,-22.85 1000.06,-28.24"/>
</g>
<!-- Node14 -->
<g id="node14" class="node">
<title>Node14</title>
<g id="a_node14"><a xlink:title=" ">
<polygon fill="#e0e0e0" stroke="#999999" points="1158.5,-19 1085.5,-19 1085.5,0 1158.5,0 1158.5,-19"/>
<text text-anchor="middle" x="1122" y="-7" font-family="Helvetica,sans-Serif" font-size="10.00">string_view</text>
</a>
</g>
</g>
<!-- Node10&#45;&gt;Node14 -->
<g id="edge14" class="edge">
<title>Node10&#45;&gt;Node14</title>
<path fill="none" stroke="#63b8ff" d="M979.31,-54.98C1007.85,-46.09 1052.83,-32.07 1084.64,-22.15"/>
<polygon fill="#63b8ff" stroke="#63b8ff" points="1085.97,-25.4 1094.47,-19.08 1083.88,-18.72 1085.97,-25.4"/>
</g>
<!-- Node15 -->
<g id="node15" class="node">
<title>Node15</title>
<g id="a_node15"><a xlink:title=" ">
<polygon fill="#e0e0e0" stroke="#999999" points="621.5,-19 552.5,-19 552.5,0 621.5,0 621.5,-19"/>
<text text-anchor="middle" x="587" y="-7" font-family="Helvetica,sans-Serif" font-size="10.00">type_traits</text>
</a>
</g>
</g>
<!-- Node10&#45;&gt;Node15 -->
<g id="edge15" class="edge">
<title>Node10&#45;&gt;Node15</title>
<path fill="none" stroke="#63b8ff" d="M906.88,-56.95C836.67,-46.75 702.07,-27.21 631.96,-17.03"/>
<polygon fill="#63b8ff" stroke="#63b8ff" points="632.09,-13.51 621.69,-15.54 631.08,-20.44 632.09,-13.51"/>
</g>
<!-- Node21&#45;&gt;Node17 -->
<g id="edge24" class="edge">
<title>Node21&#45;&gt;Node17</title>
<path fill="none" stroke="#63b8ff" d="M688.49,-109.75C689.67,-102.8 691.36,-92.85 692.84,-84.13"/>
<polygon fill="#63b8ff" stroke="#63b8ff" points="696.32,-84.53 694.54,-74.09 689.42,-83.36 696.32,-84.53"/>
</g>
<!-- Node23&#45;&gt;Node15 -->
<g id="edge45" class="edge">
<title>Node23&#45;&gt;Node15</title>
<path fill="none" stroke="#63b8ff" d="M595.49,-171.94C532.78,-168.68 421.78,-158.75 397,-129 350.58,-73.27 472.74,-35.83 542.42,-19.62"/>
<polygon fill="#63b8ff" stroke="#63b8ff" points="543.31,-23.01 552.29,-17.38 541.76,-16.18 543.31,-23.01"/>
</g>
<!-- Node23&#45;&gt;Node16 -->
<g id="edge43" class="edge">
<title>Node23&#45;&gt;Node16</title>
<path fill="none" stroke="#63b8ff" d="M682.51,-172.45C790.58,-169.41 1064.56,-158.79 1092,-129 1102.84,-117.23 1101.71,-98.38 1098.7,-84.27"/>
<polygon fill="#63b8ff" stroke="#63b8ff" points="1101.98,-83 1096.07,-74.2 1095.21,-84.76 1101.98,-83"/>
</g>
<!-- Node23&#45;&gt;Node17 -->
<g id="edge40" class="edge">
<title>Node23&#45;&gt;Node17</title>
<path fill="none" stroke="#63b8ff" d="M629.85,-164.96C617.6,-152.46 598.66,-128.64 610,-110 619.19,-94.9 635.34,-84.69 651.19,-77.91"/>
<polygon fill="#63b8ff" stroke="#63b8ff" points="652.9,-81 660.95,-74.12 650.36,-74.48 652.9,-81"/>
</g>
<!-- Node23&#45;&gt;Node18 -->
<g id="edge42" class="edge">
<title>Node23&#45;&gt;Node18</title>
<path fill="none" stroke="#63b8ff" d="M676.57,-164.93C702.5,-157.91 737.04,-146.27 764,-129 783.77,-116.34 801.97,-96.25 813.47,-82.07"/>
<polygon fill="#63b8ff" stroke="#63b8ff" points="816.29,-84.14 819.71,-74.11 810.78,-79.82 816.29,-84.14"/>
</g>
<!-- Node23&#45;&gt;Node20 -->
<g id="edge44" class="edge">
<title>Node23&#45;&gt;Node20</title>
<path fill="none" stroke="#63b8ff" d="M671.13,-164.98C706.46,-155.62 763.18,-140.59 800.77,-130.63"/>
<polygon fill="#63b8ff" stroke="#63b8ff" points="802.06,-133.91 810.83,-127.97 800.26,-127.14 802.06,-133.91"/>
</g>
<!-- Node23&#45;&gt;Node21 -->
<g id="edge31" class="edge">
<title>Node23&#45;&gt;Node21</title>
<path fill="none" stroke="#63b8ff" d="M646.93,-164.75C653.85,-157.11 664.07,-145.82 672.45,-136.56"/>
<polygon fill="#63b8ff" stroke="#63b8ff" points="675.1,-138.85 679.22,-129.09 669.91,-134.15 675.1,-138.85"/>
</g>
<!-- Node24 -->
<g id="node24" class="node">
<title>Node24</title>
<g id="a_node24"><a xlink:href="thread__ids_8h.html" target="_top" xlink:title=" ">
<polygon fill="white" stroke="#666666" points="311,-129 203,-129 203,-110 311,-110 311,-129"/>
<text text-anchor="middle" x="257" y="-117" font-family="Helvetica,sans-Serif" font-size="10.00">ccf/ds/thread_ids.h</text>
</a>
</g>
</g>
<!-- Node23&#45;&gt;Node24 -->
<g id="edge32" class="edge">
<title>Node23&#45;&gt;Node24</title>
<path fill="none" stroke="#63b8ff" d="M595.18,-167.42C527.94,-158.09 398.96,-140.2 321.18,-129.4"/>
<polygon fill="#63b8ff" stroke="#63b8ff" points="321.41,-125.9 311.02,-127.99 320.44,-132.84 321.41,-125.9"/>
</g>
<!-- Node30 -->
<g id="node30" class="node">
<title>Node30</title>
<g id="a_node30"><a xlink:title=" ">
<polygon fill="#e0e0e0" stroke="#999999" points="485.5,-129 406.5,-129 406.5,-110 485.5,-110 485.5,-129"/>
<text text-anchor="middle" x="446" y="-117" font-family="Helvetica,sans-Serif" font-size="10.00">fmt/chrono.h</text>
</a>
</g>
</g>
<!-- Node23&#45;&gt;Node30 -->
<g id="edge39" class="edge">
<title>Node23&#45;&gt;Node30</title>
<path fill="none" stroke="#63b8ff" d="M607.99,-164.98C575.17,-155.97 523.2,-141.7 487.01,-131.76"/>
<polygon fill="#63b8ff" stroke="#63b8ff" points="487.82,-128.36 477.25,-129.08 485.97,-135.11 487.82,-128.36"/>
</g>
<!-- Node31 -->
<g id="node31" class="node">
<title>Node31</title>
<g id="a_node31"><a xlink:title=" ">
<polygon fill="#e0e0e0" stroke="#999999" points="563,-129 503,-129 503,-110 563,-110 563,-129"/>
<text text-anchor="middle" x="533" y="-117" font-family="Helvetica,sans-Serif" font-size="10.00">iostream</text>
</a>
</g>
</g>
<!-- Node23&#45;&gt;Node31 -->
<g id="edge41" class="edge">
<title>Node23&#45;&gt;Node31</title>
<path fill="none" stroke="#63b8ff" d="M621.97,-164.98C605.07,-156.54 578.94,-143.47 559.36,-133.68"/>
<polygon fill="#63b8ff" stroke="#63b8ff" points="560.85,-130.51 550.34,-129.17 557.72,-136.77 560.85,-130.51"/>
</g>
<!-- Node24&#45;&gt;Node17 -->
<g id="edge33" class="edge">
<title>Node24&#45;&gt;Node17</title>
<path fill="none" stroke="#63b8ff" d="M311.27,-111.95C397.27,-101.57 563.57,-81.49 646.49,-71.48"/>
<polygon fill="#63b8ff" stroke="#63b8ff" points="646.91,-74.95 656.42,-70.28 646.07,-68 646.91,-74.95"/>
</g>
<!-- Node25 -->
<g id="node25" class="node">
<title>Node25</title>
<g id="a_node25"><a xlink:title=" ">
<polygon fill="#e0e0e0" stroke="#999999" points="208,-74 122,-74 122,-55 208,-55 208,-74"/>
<text text-anchor="middle" x="165" y="-62" font-family="Helvetica,sans-Serif" font-size="10.00">fmt/ostream.h</text>
</a>
</g>
</g>
<!-- Node24&#45;&gt;Node25 -->
<g id="edge34" class="edge">
<title>Node24&#45;&gt;Node25</title>
<path fill="none" stroke="#63b8ff" d="M242.22,-109.98C227.82,-101.69 205.69,-88.94 188.81,-79.22"/>
<polygon fill="#63b8ff" stroke="#63b8ff" points="190.46,-76.13 180.05,-74.17 186.97,-82.19 190.46,-76.13"/>
</g>
<!-- Node26 -->
<g id="node26" class="node">
<title>Node26</title>
<g id="a_node26"><a xlink:title=" ">
<polygon fill="#e0e0e0" stroke="#999999" points="287.5,-74 226.5,-74 226.5,-55 287.5,-55 287.5,-74"/>
<text text-anchor="middle" x="257" y="-62" font-family="Helvetica,sans-Serif" font-size="10.00">fmt/std.h</text>
</a>
</g>
</g>
<!-- Node24&#45;&gt;Node26 -->
<g id="edge35" class="edge">
<title>Node24&#45;&gt;Node26</title>
<path fill="none" stroke="#63b8ff" d="M257,-109.75C257,-102.8 257,-92.85 257,-84.13"/>
<polygon fill="#63b8ff" stroke="#63b8ff" points="260.5,-84.09 257,-74.09 253.5,-84.09 260.5,-84.09"/>
</g>
<!-- Node27 -->
<g id="node27" class="node">
<title>Node27</title>
<g id="a_node27"><a xlink:title=" ">
<polygon fill="#e0e0e0" stroke="#999999" points="350,-74 306,-74 306,-55 350,-55 350,-74"/>
<text text-anchor="middle" x="328" y="-62" font-family="Helvetica,sans-Serif" font-size="10.00">limits</text>
</a>
</g>
</g>
<!-- Node24&#45;&gt;Node27 -->
<g id="edge36" class="edge">
<title>Node24&#45;&gt;Node27</title>
<path fill="none" stroke="#63b8ff" d="M268.41,-109.98C279.11,-102 295.34,-89.88 308.16,-80.31"/>
<polygon fill="#63b8ff" stroke="#63b8ff" points="310.47,-82.96 316.39,-74.17 306.28,-77.35 310.47,-82.96"/>
</g>
<!-- Node28 -->
<g id="node28" class="node">
<title>Node28</title>
<g id="a_node28"><a xlink:title=" ">
<polygon fill="#e0e0e0" stroke="#999999" points="38,-74 0,-74 0,-55 38,-55 38,-74"/>
<text text-anchor="middle" x="19" y="-62" font-family="Helvetica,sans-Serif" font-size="10.00">map</text>
</a>
</g>
</g>
<!-- Node24&#45;&gt;Node28 -->
<g id="edge37" class="edge">
<title>Node24&#45;&gt;Node28</title>
<path fill="none" stroke="#63b8ff" d="M211.27,-109.99C170.72,-102.17 109.71,-89.78 48.11,-74.11"/>
<polygon fill="#63b8ff" stroke="#63b8ff" points="48.77,-70.67 38.22,-71.57 47.03,-77.45 48.77,-70.67"/>
</g>
<!-- Node29 -->
<g id="node29" class="node">
<title>Node29</title>
<g id="a_node29"><a xlink:title=" ">
<polygon fill="#e0e0e0" stroke="#999999" points="104,-74 56,-74 56,-55 104,-55 104,-74"/>
<text text-anchor="middle" x="80" y="-62" font-family="Helvetica,sans-Serif" font-size="10.00">thread</text>
</a>
</g>
</g>
<!-- Node24&#45;&gt;Node29 -->
<g id="edge38" class="edge">
<title>Node24&#45;&gt;Node29</title>
<path fill="none" stroke="#63b8ff" d="M228.56,-109.98C197.3,-100.62 147.11,-85.59 113.84,-75.63"/>
<polygon fill="#63b8ff" stroke="#63b8ff" points="114.69,-72.23 104.1,-72.72 112.68,-78.94 114.69,-72.23"/>
</g>
<!-- Node32&#45;&gt;Node5 -->
<g id="edge48" class="edge">
<title>Node32&#45;&gt;Node5</title>
<path fill="none" stroke="#63b8ff" d="M1382.61,-221.79C1307.53,-211.59 1165.56,-192.29 1090.83,-182.14"/>
<polygon fill="#63b8ff" stroke="#63b8ff" points="1091.12,-178.64 1080.74,-180.76 1090.18,-185.58 1091.12,-178.64"/>
</g>
<!-- Node32&#45;&gt;Node8 -->
<g id="edge54" class="edge">
<title>Node32&#45;&gt;Node8</title>
<path fill="none" stroke="#63b8ff" d="M1435.19,-219.85C1439.29,-207.62 1445.49,-184.56 1442,-165 1432.78,-113.36 1407.5,-56.39 1393.91,-28.24"/>
<polygon fill="#63b8ff" stroke="#63b8ff" points="1397.04,-26.67 1389.49,-19.24 1390.76,-29.76 1397.04,-26.67"/>
</g>
<!-- Node32&#45;&gt;Node14 -->
<g id="edge53" class="edge">
<title>Node32&#45;&gt;Node14</title>
<path fill="none" stroke="#63b8ff" d="M1382.98,-220.69C1352.51,-214.24 1313.49,-202.97 1283,-184 1247.64,-162 1167.36,-66.09 1135.45,-27.09"/>
<polygon fill="#63b8ff" stroke="#63b8ff" points="1138.11,-24.81 1129.08,-19.27 1132.68,-29.23 1138.11,-24.81"/>
</g>
<!-- Node33 -->
<g id="node33" class="node">
<title>Node33</title>
<g id="a_node33"><a xlink:title=" ">
<polygon fill="#e0e0e0" stroke="#999999" points="1597,-184 1547,-184 1547,-165 1597,-165 1597,-184"/>
<text text-anchor="middle" x="1572" y="-172" font-family="Helvetica,sans-Serif" font-size="10.00">cstring</text>
</a>
</g>
</g>
<!-- Node32&#45;&gt;Node33 -->
<g id="edge49" class="edge">
<title>Node32&#45;&gt;Node33</title>
<path fill="none" stroke="#63b8ff" d="M1454.49,-219.98C1477.52,-211.27 1513.54,-197.63 1539.63,-187.75"/>
<polygon fill="#63b8ff" stroke="#63b8ff" points="1540.98,-190.98 1549.1,-184.17 1538.51,-184.44 1540.98,-190.98"/>
</g>
<!-- Node34 -->
<g id="node34" class="node">
<title>Node34</title>
<g id="a_node34"><a xlink:title=" ">
<polygon fill="#e0e0e0" stroke="#999999" points="1356.5,-184 1291.5,-184 1291.5,-165 1356.5,-165 1356.5,-184"/>
<text text-anchor="middle" x="1324" y="-172" font-family="Helvetica,sans-Serif" font-size="10.00">exception</text>
</a>
</g>
</g>
<!-- Node32&#45;&gt;Node34 -->
<g id="edge50" class="edge">
<title>Node32&#45;&gt;Node34</title>
<path fill="none" stroke="#63b8ff" d="M1414.65,-219.98C1397.43,-211.54 1370.8,-198.47 1350.85,-188.68"/>
<polygon fill="#63b8ff" stroke="#63b8ff" points="1352.19,-185.43 1341.67,-184.17 1349.1,-191.72 1352.19,-185.43"/>
</g>
<!-- Node35 -->
<g id="node35" class="node">
<title>Node35</title>
<g id="a_node35"><a xlink:title=" ">
<polygon fill="#e0e0e0" stroke="#999999" points="1433,-184 1375,-184 1375,-165 1433,-165 1433,-184"/>
<text text-anchor="middle" x="1404" y="-172" font-family="Helvetica,sans-Serif" font-size="10.00">memory</text>
</a>
</g>
</g>
<!-- Node32&#45;&gt;Node35 -->
<g id="edge51" class="edge">
<title>Node32&#45;&gt;Node35</title>
<path fill="none" stroke="#63b8ff" d="M1427.38,-219.75C1423.54,-212.49 1417.98,-201.95 1413.24,-192.98"/>
<polygon fill="#63b8ff" stroke="#63b8ff" points="1416.3,-191.3 1408.54,-184.09 1410.11,-194.57 1416.3,-191.3"/>
</g>
<!-- Node36 -->
<g id="node36" class="node">
<title>Node36</title>
<g id="a_node36"><a xlink:title=" ">
<polygon fill="#e0e0e0" stroke="#999999" points="1529,-184 1489,-184 1489,-165 1529,-165 1529,-184"/>
<text text-anchor="middle" x="1509" y="-172" font-family="Helvetica,sans-Serif" font-size="10.00">span</text>
</a>
</g>
</g>
<!-- Node32&#45;&gt;Node36 -->
<g id="edge52" class="edge">
<title>Node32&#45;&gt;Node36</title>
<path fill="none" stroke="#63b8ff" d="M1444.37,-219.98C1456.09,-211.92 1473.92,-199.65 1487.89,-190.03"/>
<polygon fill="#63b8ff" stroke="#63b8ff" points="1490.15,-192.72 1496.4,-184.17 1486.18,-186.96 1490.15,-192.72"/>
</g>
</g>
</svg>
