<?xml version="1.0" encoding="UTF-8" standalone="no"?>
<!DOCTYPE svg PUBLIC "-//W3C//DTD SVG 1.1//EN"
 "http://www.w3.org/Graphics/SVG/1.1/DTD/svg11.dtd">
<!-- Generated by graphviz version 2.43.0 (0)
 -->
<!-- Title: Graphical Class Hierarchy Pages: 1 -->
<svg width="304pt" height="310pt"
 viewBox="0.00 0.00 304.00 310.00" xmlns="http://www.w3.org/2000/svg" xmlns:xlink="http://www.w3.org/1999/xlink">
<g id="graph0" class="graph" transform="scale(1 1) rotate(0) translate(4 306)">
<title>Graphical Class Hierarchy</title>
<!-- Node0 -->
<g id="node1" class="node">
<title>Node0</title>
<g id="a_node1"><a xlink:href="classccf_1_1AuthnPolicy.html" target="_top" xlink:title=" ">
<polygon fill="white" stroke="#666666" points="94,-160 0,-160 0,-141 94,-141 94,-160"/>
<text text-anchor="middle" x="47" y="-148" font-family="Helvetica,sans-Serif" font-size="10.00">ccf::AuthnPolicy</text>
</a>
</g>
</g>
<!-- Node1 -->
<g id="node2" class="node">
<title>Node1</title>
<g id="a_node2"><a xlink:href="classccf_1_1EmptyAuthnPolicy.html" target="_top" xlink:title=" ">
<polygon fill="white" stroke="#666666" points="275.5,-302 150.5,-302 150.5,-283 275.5,-283 275.5,-302"/>
<text text-anchor="middle" x="213" y="-290" font-family="Helvetica,sans-Serif" font-size="10.00">ccf::EmptyAuthnPolicy</text>
</a>
</g>
</g>
<!-- Node0&#45;&gt;Node1 -->
<g id="edge1" class="edge">
<title>Node0&#45;&gt;Node1</title>
<path fill="none" stroke="#63b8ff" d="M55.09,-169.44C66.47,-197.09 91.5,-248.09 130,-274.5 136.13,-278.71 143.07,-281.95 150.26,-284.45"/>
<polygon fill="#63b8ff" stroke="#63b8ff" points="58.33,-168.1 51.4,-160.08 51.82,-170.67 58.33,-168.1"/>
</g>
<!-- Node2 -->
<g id="node3" class="node">
<title>Node2</title>
<g id="a_node3"><a xlink:href="classccf_1_1JwtAuthnPolicy.html" target="_top" xlink:title=" ">
<polygon fill="white" stroke="#666666" points="267.5,-265 158.5,-265 158.5,-246 267.5,-246 267.5,-265"/>
<text text-anchor="middle" x="213" y="-253" font-family="Helvetica,sans-Serif" font-size="10.00">ccf::JwtAuthnPolicy</text>
</a>
</g>
</g>
<!-- Node0&#45;&gt;Node2 -->
<g id="edge2" class="edge">
<title>Node0&#45;&gt;Node2</title>
<path fill="none" stroke="#63b8ff" d="M60.12,-168.44C74.45,-188.22 100.17,-219.48 130,-236.5 138.63,-241.42 148.46,-245.07 158.25,-247.78"/>
<polygon fill="#63b8ff" stroke="#63b8ff" points="62.98,-166.42 54.36,-160.26 57.25,-170.45 62.98,-166.42"/>
</g>
<!-- Node3 -->
<g id="node4" class="node">
<title>Node3</title>
<g id="a_node4"><a xlink:href="classccf_1_1MemberCOSESign1AuthnPolicy.html" target="_top" xlink:title=" ">
<polygon fill="white" stroke="#666666" points="292,-227.5 134,-227.5 134,-197.5 292,-197.5 292,-227.5"/>
<text text-anchor="start" x="142" y="-215.5" font-family="Helvetica,sans-Serif" font-size="10.00">ccf::MemberCOSESign1Authn</text>
<text text-anchor="middle" x="213" y="-204.5" font-family="Helvetica,sans-Serif" font-size="10.00">Policy</text>
</a>
</g>
</g>
<!-- Node0&#45;&gt;Node3 -->
<g id="edge3" class="edge">
<title>Node0&#45;&gt;Node3</title>
<path fill="none" stroke="#63b8ff" d="M75.69,-164.59C91.38,-172.25 111.51,-181.55 130,-188.5 138.47,-191.68 147.56,-194.71 156.49,-197.48"/>
<polygon fill="#63b8ff" stroke="#63b8ff" points="77.06,-161.36 66.55,-160.07 73.96,-167.64 77.06,-161.36"/>
</g>
<!-- Node4 -->
<g id="node5" class="node">
<title>Node4</title>
<g id="a_node5"><a xlink:href="classccf_1_1MemberCertAuthnPolicy.html" target="_top" xlink:title=" ">
<polygon fill="white" stroke="#666666" points="290.5,-179 135.5,-179 135.5,-160 290.5,-160 290.5,-179"/>
<text text-anchor="middle" x="213" y="-167" font-family="Helvetica,sans-Serif" font-size="10.00">ccf::MemberCertAuthnPolicy</text>
</a>
</g>
</g>
<!-- Node0&#45;&gt;Node4 -->
<g id="edge4" class="edge">
<title>Node0&#45;&gt;Node4</title>
<path fill="none" stroke="#63b8ff" d="M104.35,-157.03C114.39,-158.19 125.01,-159.42 135.5,-160.64"/>
<polygon fill="#63b8ff" stroke="#63b8ff" points="104.46,-153.52 94.12,-155.84 103.65,-160.47 104.46,-153.52"/>
</g>
<!-- Node5 -->
<g id="node6" class="node">
<title>Node5</title>
<g id="a_node6"><a xlink:href="classccf_1_1NodeCertAuthnPolicy.html" target="_top" xlink:title=" ">
<polygon fill="white" stroke="#666666" points="283,-142 143,-142 143,-123 283,-123 283,-142"/>
<text text-anchor="middle" x="213" y="-130" font-family="Helvetica,sans-Serif" font-size="10.00">ccf::NodeCertAuthnPolicy</text>
</a>
</g>
</g>
<!-- Node0&#45;&gt;Node5 -->
<g id="edge5" class="edge">
<title>Node0&#45;&gt;Node5</title>
<path fill="none" stroke="#63b8ff" d="M104.33,-144.32C116.77,-142.95 130.08,-141.49 142.95,-140.08"/>
<polygon fill="#63b8ff" stroke="#63b8ff" points="103.68,-140.87 94.12,-145.44 104.44,-147.83 103.68,-140.87"/>
</g>
<!-- Node6 -->
<g id="node7" class="node">
<title>Node6</title>
<g id="a_node7"><a xlink:href="classccf_1_1UserCertAuthnPolicy.html" target="_top" xlink:title=" ">
<polygon fill="white" stroke="#666666" points="281.5,-105 144.5,-105 144.5,-86 281.5,-86 281.5,-105"/>
<text text-anchor="middle" x="213" y="-93" font-family="Helvetica,sans-Serif" font-size="10.00">ccf::UserCertAuthnPolicy</text>
</a>
</g>
</g>
<!-- Node0&#45;&gt;Node6 -->
<g id="edge6" class="edge">
<title>Node0&#45;&gt;Node6</title>
<path fill="none" stroke="#63b8ff" d="M76.25,-136.54C91.82,-129.24 111.67,-120.59 130,-114.5 140.82,-110.91 152.66,-107.74 163.89,-105.07"/>
<polygon fill="#63b8ff" stroke="#63b8ff" points="74.67,-133.41 67.15,-140.88 77.68,-139.73 74.67,-133.41"/>
</g>
<!-- Node7 -->
<g id="node8" class="node">
<title>Node7</title>
<g id="a_node8"><a xlink:href="classexternalexecutor_1_1ExecutorAuthPolicy.html" target="_top" xlink:title=" ">
<polygon fill="white" stroke="#666666" points="286.5,-67.5 139.5,-67.5 139.5,-37.5 286.5,-37.5 286.5,-67.5"/>
<text text-anchor="start" x="147.5" y="-55.5" font-family="Helvetica,sans-Serif" font-size="10.00">externalexecutor::Executor</text>
<text text-anchor="middle" x="213" y="-44.5" font-family="Helvetica,sans-Serif" font-size="10.00">AuthPolicy</text>
</a>
</g>
</g>
<!-- Node0&#45;&gt;Node7 -->
<g id="edge7" class="edge">
<title>Node0&#45;&gt;Node7</title>
<path fill="none" stroke="#63b8ff" d="M63.69,-132.67C79.08,-116.19 103.96,-92.12 130,-77.5 136.75,-73.71 144.14,-70.43 151.63,-67.61"/>
<polygon fill="#63b8ff" stroke="#63b8ff" points="60.7,-130.75 56.55,-140.5 65.88,-135.47 60.7,-130.75"/>
</g>
<!-- Node8 -->
<g id="node9" class="node">
<title>Node8</title>
<g id="a_node9"><a xlink:href="classloggingapp_1_1CustomAuthPolicy.html" target="_top" xlink:title=" ">
<polygon fill="white" stroke="#666666" points="296,-19 130,-19 130,0 296,0 296,-19"/>
<text text-anchor="middle" x="213" y="-7" font-family="Helvetica,sans-Serif" font-size="10.00">loggingapp::CustomAuthPolicy</text>
</a>
</g>
</g>
<!-- Node0&#45;&gt;Node8 -->
<g id="edge8" class="edge">
<title>Node0&#45;&gt;Node8</title>
<path fill="none" stroke="#63b8ff" d="M55.54,-131.16C67.22,-103.86 92.34,-54.45 130,-28.5 135.66,-24.6 142,-21.5 148.59,-19.02"/>
<polygon fill="#63b8ff" stroke="#63b8ff" points="52.16,-130.18 51.6,-140.76 58.64,-132.84 52.16,-130.18"/>
</g>
</g>
</svg>
