<?xml version="1.0" encoding="UTF-8" standalone="no"?>
<!DOCTYPE svg PUBLIC "-//W3C//DTD SVG 1.1//EN"
 "http://www.w3.org/Graphics/SVG/1.1/DTD/svg11.dtd">
<!-- Generated by graphviz version 2.43.0 (0)
 -->
<!-- Title: Graphical Class Hierarchy Pages: 1 -->
<svg width="613pt" height="113pt"
 viewBox="0.00 0.00 613.00 112.50" xmlns="http://www.w3.org/2000/svg" xmlns:xlink="http://www.w3.org/1999/xlink">
<g id="graph0" class="graph" transform="scale(1 1) rotate(0) translate(4 108.5)">
<title>Graphical Class Hierarchy</title>
<!-- Node0 -->
<g id="node1" class="node">
<title>Node0</title>
<g id="a_node1"><a xlink:href="classcrypto_1_1KeyPair.html" target="_top" xlink:title=" ">
<polygon fill="white" stroke="#666666" points="256,-104.5 167,-104.5 167,-85.5 256,-85.5 256,-104.5"/>
<text text-anchor="middle" x="211.5" y="-92.5" font-family="Helvetica,sans-Serif" font-size="10.00">crypto::KeyPair</text>
</a>
</g>
</g>
<!-- Node1 -->
<g id="node2" class="node">
<title>Node1</title>
<g id="a_node2"><a xlink:href="classcrypto_1_1KeyPair__OpenSSL.html" target="_top" xlink:title=" ">
<polygon fill="white" stroke="#666666" points="459,-104.5 322,-104.5 322,-85.5 459,-85.5 459,-104.5"/>
<text text-anchor="middle" x="390.5" y="-92.5" font-family="Helvetica,sans-Serif" font-size="10.00">crypto::KeyPair_OpenSSL</text>
</a>
</g>
</g>
<!-- Node0&#45;&gt;Node1 -->
<g id="edge1" class="edge">
<title>Node0&#45;&gt;Node1</title>
<path fill="none" stroke="#63b8ff" d="M266.28,-95C283.77,-95 303.41,-95 321.79,-95"/>
<polygon fill="#63b8ff" stroke="#63b8ff" points="266.25,-91.5 256.25,-95 266.25,-98.5 266.25,-91.5"/>
</g>
<!-- Node7 -->
<g id="node3" class="node">
<title>Node7</title>
<g id="a_node3"><a xlink:href="classcrypto_1_1PublicKey.html" target="_top" xlink:title=" ">
<polygon fill="white" stroke="#666666" points="101,-64.5 0,-64.5 0,-45.5 101,-45.5 101,-64.5"/>
<text text-anchor="middle" x="50.5" y="-52.5" font-family="Helvetica,sans-Serif" font-size="10.00">crypto::PublicKey</text>
</a>
</g>
</g>
<!-- Node2 -->
<g id="node4" class="node">
<title>Node2</title>
<g id="a_node4"><a xlink:href="classcrypto_1_1PublicKey__OpenSSL.html" target="_top" xlink:title=" ">
<polygon fill="white" stroke="#666666" points="286,-64.5 137,-64.5 137,-45.5 286,-45.5 286,-64.5"/>
<text text-anchor="middle" x="211.5" y="-52.5" font-family="Helvetica,sans-Serif" font-size="10.00">crypto::PublicKey_OpenSSL</text>
</a>
</g>
</g>
<!-- Node7&#45;&gt;Node2 -->
<g id="edge2" class="edge">
<title>Node7&#45;&gt;Node2</title>
<path fill="none" stroke="#63b8ff" d="M111.65,-55C119.91,-55 128.46,-55 136.93,-55"/>
<polygon fill="#63b8ff" stroke="#63b8ff" points="111.37,-51.5 101.37,-55 111.37,-58.5 111.37,-51.5"/>
</g>
<!-- Node2&#45;&gt;Node1 -->
<g id="edge3" class="edge">
<title>Node2&#45;&gt;Node1</title>
<path fill="none" stroke="#63b8ff" d="M264.72,-66.8C291.1,-72.76 322.66,-79.9 347.45,-85.5"/>
<polygon fill="#63b8ff" stroke="#63b8ff" points="265.42,-63.37 254.9,-64.58 263.88,-70.2 265.42,-63.37"/>
</g>
<!-- Node3 -->
<g id="node5" class="node">
<title>Node3</title>
<g id="a_node5"><a xlink:href="classcrypto_1_1RSAPublicKey__OpenSSL.html" target="_top" xlink:title=" ">
<polygon fill="white" stroke="#666666" points="451,-30 330,-30 330,0 451,0 451,-30"/>
<text text-anchor="start" x="338" y="-18" font-family="Helvetica,sans-Serif" font-size="10.00">crypto::RSAPublicKey</text>
<text text-anchor="middle" x="390.5" y="-7" font-family="Helvetica,sans-Serif" font-size="10.00">_OpenSSL</text>
</a>
</g>
</g>
<!-- Node2&#45;&gt;Node3 -->
<g id="edge4" class="edge">
<title>Node2&#45;&gt;Node3</title>
<path fill="none" stroke="#63b8ff" d="M264.92,-43.15C285.28,-38.55 308.71,-33.26 329.71,-28.51"/>
<polygon fill="#63b8ff" stroke="#63b8ff" points="263.88,-39.8 254.9,-45.42 265.42,-46.63 263.88,-39.8"/>
</g>
<!-- Node4 -->
<g id="node6" class="node">
<title>Node4</title>
<g id="a_node6"><a xlink:href="classcrypto_1_1RSAKeyPair__OpenSSL.html" target="_top" xlink:title=" ">
<polygon fill="white" stroke="#666666" points="605,-51 495,-51 495,-21 605,-21 605,-51"/>
<text text-anchor="start" x="503" y="-39" font-family="Helvetica,sans-Serif" font-size="10.00">crypto::RSAKeyPair</text>
<text text-anchor="middle" x="550" y="-28" font-family="Helvetica,sans-Serif" font-size="10.00">_OpenSSL</text>
</a>
</g>
</g>
<!-- Node3&#45;&gt;Node4 -->
<g id="edge5" class="edge">
<title>Node3&#45;&gt;Node4</title>
<path fill="none" stroke="#63b8ff" d="M461.27,-24.3C472.52,-25.8 484.01,-27.33 494.81,-28.78"/>
<polygon fill="#63b8ff" stroke="#63b8ff" points="461.42,-20.79 451.04,-22.94 460.49,-27.73 461.42,-20.79"/>
</g>
<!-- Node5 -->
<g id="node7" class="node">
<title>Node5</title>
<g id="a_node7"><a xlink:href="classcrypto_1_1RSAKeyPair.html" target="_top" xlink:title=" ">
<polygon fill="white" stroke="#666666" points="445.5,-67.5 335.5,-67.5 335.5,-48.5 445.5,-48.5 445.5,-67.5"/>
<text text-anchor="middle" x="390.5" y="-55.5" font-family="Helvetica,sans-Serif" font-size="10.00">crypto::RSAKeyPair</text>
</a>
</g>
</g>
<!-- Node5&#45;&gt;Node4 -->
<g id="edge6" class="edge">
<title>Node5&#45;&gt;Node4</title>
<path fill="none" stroke="#63b8ff" d="M455.95,-49C468.91,-47.19 482.4,-45.3 494.96,-43.55"/>
<polygon fill="#63b8ff" stroke="#63b8ff" points="455.12,-45.58 445.7,-50.43 456.09,-52.51 455.12,-45.58"/>
</g>
<!-- Node6 -->
<g id="node8" class="node">
<title>Node6</title>
<g id="a_node8"><a xlink:href="classcrypto_1_1RSAPublicKey.html" target="_top" xlink:title=" ">
<polygon fill="white" stroke="#666666" points="272,-24.5 151,-24.5 151,-5.5 272,-5.5 272,-24.5"/>
<text text-anchor="middle" x="211.5" y="-12.5" font-family="Helvetica,sans-Serif" font-size="10.00">crypto::RSAPublicKey</text>
</a>
</g>
</g>
<!-- Node6&#45;&gt;Node3 -->
<g id="edge7" class="edge">
<title>Node6&#45;&gt;Node3</title>
<path fill="none" stroke="#63b8ff" d="M282.59,-15C298.26,-15 314.74,-15 329.94,-15"/>
<polygon fill="#63b8ff" stroke="#63b8ff" points="282.42,-11.5 272.42,-15 282.42,-18.5 282.42,-11.5"/>
</g>
</g>
</svg>
