<?xml version="1.0" encoding="UTF-8" standalone="no"?>
<!DOCTYPE svg PUBLIC "-//W3C//DTD SVG 1.1//EN"
 "http://www.w3.org/Graphics/SVG/1.1/DTD/svg11.dtd">
<!-- Generated by graphviz version 2.43.0 (0)
 -->
<!-- Title: Graphical Class Hierarchy Pages: 1 -->
<svg width="351pt" height="76pt"
 viewBox="0.00 0.00 351.00 75.50" xmlns="http://www.w3.org/2000/svg" xmlns:xlink="http://www.w3.org/1999/xlink">
<g id="graph0" class="graph" transform="scale(1 1) rotate(0) translate(4 71.5)">
<title>Graphical Class Hierarchy</title>
<!-- Node0 -->
<g id="node1" class="node">
<title>Node0</title>
<g id="a_node1"><a xlink:href="classexternalexecutor_1_1ImplIndex.html" target="_top" xlink:title=" ">
<polygon fill="white" stroke="#666666" points="154,-45.5 0,-45.5 0,-26.5 154,-26.5 154,-45.5"/>
<text text-anchor="middle" x="77" y="-33.5" font-family="Helvetica,sans-Serif" font-size="10.00">externalexecutor::ImplIndex</text>
</a>
</g>
</g>
<!-- Node1 -->
<g id="node2" class="node">
<title>Node1</title>
<g id="a_node2"><a xlink:href="classexternalexecutor_1_1MapIndex.html" target="_top" xlink:title=" ">
<polygon fill="white" stroke="#666666" points="343,-67.5 190,-67.5 190,-48.5 343,-48.5 343,-67.5"/>
<text text-anchor="middle" x="266.5" y="-55.5" font-family="Helvetica,sans-Serif" font-size="10.00">externalexecutor::MapIndex</text>
</a>
</g>
</g>
<!-- Node0&#45;&gt;Node1 -->
<g id="edge1" class="edge">
<title>Node0&#45;&gt;Node1</title>
<path fill="none" stroke="#63b8ff" d="M164.26,-46.12C172.82,-47.13 181.47,-48.14 189.91,-49.13"/>
<polygon fill="#63b8ff" stroke="#63b8ff" points="164.6,-42.64 154.26,-44.95 163.79,-49.59 164.6,-42.64"/>
</g>
<!-- Node2 -->
<g id="node3" class="node">
<title>Node2</title>
<g id="a_node3"><a xlink:href="classexternalexecutor_1_1PrefixTreeIndex.html" target="_top" xlink:title=" ">
<polygon fill="white" stroke="#666666" points="333,-30 200,-30 200,0 333,0 333,-30"/>
<text text-anchor="start" x="208" y="-18" font-family="Helvetica,sans-Serif" font-size="10.00">externalexecutor::Prefix</text>
<text text-anchor="middle" x="266.5" y="-7" font-family="Helvetica,sans-Serif" font-size="10.00">TreeIndex</text>
</a>
</g>
</g>
<!-- Node0&#45;&gt;Node2 -->
<g id="edge2" class="edge">
<title>Node0&#45;&gt;Node2</title>
<path fill="none" stroke="#63b8ff" d="M164.25,-26.34C176.21,-25 188.32,-23.64 199.82,-22.36"/>
<polygon fill="#63b8ff" stroke="#63b8ff" points="163.81,-22.87 154.26,-27.46 164.59,-29.82 163.81,-22.87"/>
</g>
</g>
</svg>
