<?xml version="1.0" encoding="UTF-8" standalone="no"?>
<!DOCTYPE svg PUBLIC "-//W3C//DTD SVG 1.1//EN"
 "http://www.w3.org/Graphics/SVG/1.1/DTD/svg11.dtd">
<!-- Generated by graphviz version 2.43.0 (0)
 -->
<!-- Title: Graphical Class Hierarchy Pages: 1 -->
<svg width="457pt" height="138pt"
 viewBox="0.00 0.00 457.00 138.00" xmlns="http://www.w3.org/2000/svg" xmlns:xlink="http://www.w3.org/1999/xlink">
<g id="graph0" class="graph" transform="scale(1 1) rotate(0) translate(4 134)">
<title>Graphical Class Hierarchy</title>
<!-- Node0 -->
<g id="node1" class="node">
<title>Node0</title>
<g id="a_node1"><a xlink:href="classccf_1_1ForwardedRpcHandler.html" target="_top" xlink:title=" ">
<polygon fill="white" stroke="#666666" points="143,-93 0,-93 0,-74 143,-74 143,-93"/>
<text text-anchor="middle" x="71.5" y="-81" font-family="Helvetica,sans-Serif" font-size="10.00">ccf::ForwardedRpcHandler</text>
</a>
</g>
</g>
<!-- Node1 -->
<g id="node2" class="node">
<title>Node1</title>
<g id="a_node2"><a xlink:href="classccf_1_1RpcFrontend.html" target="_top" xlink:title=" ">
<polygon fill="white" stroke="#666666" points="276,-74 179,-74 179,-55 276,-55 276,-74"/>
<text text-anchor="middle" x="227.5" y="-62" font-family="Helvetica,sans-Serif" font-size="10.00">ccf::RpcFrontend</text>
</a>
</g>
</g>
<!-- Node0&#45;&gt;Node1 -->
<g id="edge1" class="edge">
<title>Node0&#45;&gt;Node1</title>
<path fill="none" stroke="#63b8ff" d="M153.35,-73.52C162.01,-72.46 170.6,-71.4 178.68,-70.4"/>
<polygon fill="#63b8ff" stroke="#63b8ff" points="152.69,-70.08 143.19,-74.78 153.54,-77.03 152.69,-70.08"/>
</g>
<!-- Node2 -->
<g id="node3" class="node">
<title>Node2</title>
<g id="a_node3"><a xlink:href="classccf_1_1ACMERpcFrontend.html" target="_top" xlink:title=" ">
<polygon fill="white" stroke="#666666" points="443,-130 318,-130 318,-111 443,-111 443,-130"/>
<text text-anchor="middle" x="380.5" y="-118" font-family="Helvetica,sans-Serif" font-size="10.00">ccf::ACMERpcFrontend</text>
</a>
</g>
</g>
<!-- Node1&#45;&gt;Node2 -->
<g id="edge2" class="edge">
<title>Node1&#45;&gt;Node2</title>
<path fill="none" stroke="#63b8ff" d="M256.35,-78.58C272.35,-86.32 293,-95.7 312,-102.5 320.68,-105.61 330.15,-108.46 339.19,-110.93"/>
<polygon fill="#63b8ff" stroke="#63b8ff" points="257.55,-75.28 247.03,-74.01 254.47,-81.56 257.55,-75.28"/>
</g>
<!-- Node3 -->
<g id="node4" class="node">
<title>Node3</title>
<g id="a_node4"><a xlink:href="classccf_1_1MemberRpcFrontend.html" target="_top" xlink:title=" ">
<polygon fill="white" stroke="#666666" points="449,-93 312,-93 312,-74 449,-74 449,-93"/>
<text text-anchor="middle" x="380.5" y="-81" font-family="Helvetica,sans-Serif" font-size="10.00">ccf::MemberRpcFrontend</text>
</a>
</g>
</g>
<!-- Node1&#45;&gt;Node3 -->
<g id="edge3" class="edge">
<title>Node1&#45;&gt;Node3</title>
<path fill="none" stroke="#63b8ff" d="M286.31,-71.77C294.68,-72.83 303.35,-73.92 311.89,-74.99"/>
<polygon fill="#63b8ff" stroke="#63b8ff" points="286.64,-68.29 276.28,-70.51 285.76,-75.23 286.64,-68.29"/>
</g>
<!-- Node4 -->
<g id="node5" class="node">
<title>Node4</title>
<g id="a_node5"><a xlink:href="classccf_1_1NodeRpcFrontend.html" target="_top" xlink:title=" ">
<polygon fill="white" stroke="#666666" points="441.5,-56 319.5,-56 319.5,-37 441.5,-37 441.5,-56"/>
<text text-anchor="middle" x="380.5" y="-44" font-family="Helvetica,sans-Serif" font-size="10.00">ccf::NodeRpcFrontend</text>
</a>
</g>
</g>
<!-- Node1&#45;&gt;Node4 -->
<g id="edge4" class="edge">
<title>Node1&#45;&gt;Node4</title>
<path fill="none" stroke="#63b8ff" d="M286.41,-57.6C297.18,-56.31 308.45,-54.97 319.28,-53.68"/>
<polygon fill="#63b8ff" stroke="#63b8ff" points="285.79,-54.15 276.28,-58.8 286.62,-61.1 285.79,-54.15"/>
</g>
<!-- Node5 -->
<g id="node6" class="node">
<title>Node5</title>
<g id="a_node6"><a xlink:href="classccf_1_1UserRpcFrontend.html" target="_top" xlink:title=" ">
<polygon fill="white" stroke="#666666" points="440,-19 321,-19 321,0 440,0 440,-19"/>
<text text-anchor="middle" x="380.5" y="-7" font-family="Helvetica,sans-Serif" font-size="10.00">ccf::UserRpcFrontend</text>
</a>
</g>
</g>
<!-- Node1&#45;&gt;Node5 -->
<g id="edge5" class="edge">
<title>Node1&#45;&gt;Node5</title>
<path fill="none" stroke="#63b8ff" d="M257.02,-50.53C272.95,-43.07 293.3,-34.09 312,-27.5 320.81,-24.4 330.42,-21.53 339.56,-19.04"/>
<polygon fill="#63b8ff" stroke="#63b8ff" points="255.25,-47.5 247.72,-54.95 258.26,-53.82 255.25,-47.5"/>
</g>
<!-- Node6 -->
<g id="node7" class="node">
<title>Node6</title>
<g id="a_node7"><a xlink:href="classccf_1_1RpcHandler.html" target="_top" xlink:title=" ">
<polygon fill="white" stroke="#666666" points="117.5,-56 25.5,-56 25.5,-37 117.5,-37 117.5,-56"/>
<text text-anchor="middle" x="71.5" y="-44" font-family="Helvetica,sans-Serif" font-size="10.00">ccf::RpcHandler</text>
</a>
</g>
</g>
<!-- Node6&#45;&gt;Node1 -->
<g id="edge6" class="edge">
<title>Node6&#45;&gt;Node1</title>
<path fill="none" stroke="#63b8ff" d="M128,-52.99C144.63,-54.93 162.7,-57.04 178.78,-58.92"/>
<polygon fill="#63b8ff" stroke="#63b8ff" points="128.21,-49.49 117.87,-51.8 127.4,-56.44 128.21,-49.49"/>
</g>
</g>
</svg>
