<?xml version="1.0" encoding="UTF-8" standalone="no"?>
<!DOCTYPE svg PUBLIC "-//W3C//DTD SVG 1.1//EN"
 "http://www.w3.org/Graphics/SVG/1.1/DTD/svg11.dtd">
<!-- Generated by graphviz version 2.43.0 (0)
 -->
<!-- Title: src/enclave/interface.h Pages: 1 -->
<!--zoomable 566 -->
<svg id="main" version="1.1" xmlns="http://www.w3.org/2000/svg" xmlns:xlink="http://www.w3.org/1999/xlink" xml:space="preserve" onload="init(evt)">
<style type="text/css"><![CDATA[
.edge:hover path { stroke: red; }
.edge:hover polygon { stroke: red; fill: red; }
]]></style>
<script type="text/javascript"><![CDATA[
var edges = document.getElementsByTagName('g');
if (edges && edges.length) {
  for (var i=0;i<edges.length;i++) {
    if (edges[i].id.substr(0,4)=='edge') {
      edges[i].setAttribute('class','edge');
    }
  }
}
]]></script>
        <defs>
                <circle id="rim" cx="0" cy="0" r="7"/>
                <circle id="rim2" cx="0" cy="0" r="3.5"/>
                <g id="zoomPlus">
                        <use xlink:href="#rim" fill="#404040">
                                <set attributeName="fill" to="#808080" begin="zoomplus.mouseover" end="zoomplus.mouseout"/>
                        </use>
                        <path d="M-4,0h8M0,-4v8" fill="none" stroke="white" stroke-width="1.5" pointer-events="none"/>
                </g>
                <g id="zoomMin">
                        <use xlink:href="#rim" fill="#404040">
                                <set attributeName="fill" to="#808080" begin="zoomminus.mouseover" end="zoomminus.mouseout"/>
                        </use>
                        <path d="M-4,0h8" fill="none" stroke="white" stroke-width="1.5" pointer-events="none"/>
                </g>
                <g id="dirArrow">
                        <path fill="none" stroke="white" stroke-width="1.5" d="M0,-3.0v7 M-2.5,-0.5L0,-3.0L2.5,-0.5"/>
                </g>
               <g id="resetDef">
                       <use xlink:href="#rim2" fill="#404040">
                               <set attributeName="fill" to="#808080" begin="reset.mouseover" end="reset.mouseout"/>
                       </use>
               </g>
        </defs>

<script type="text/javascript">
var viewWidth = 707;
var viewHeight = 566;
var sectionId = 'dynsection-1';
</script>
<script xlink:href="svgpan.js"/>
<svg id="graph" class="graph">
<g id="viewport">
<title>src/enclave/interface.h</title>
<!-- Node1 -->
<g id="node1" class="node">
<title>Node1</title>
<g id="a_node1"><a xlink:title=" ">
<polygon fill="#999999" stroke="#666666" points="345,-558 217,-558 217,-539 345,-539 345,-558"/>
<text text-anchor="middle" x="281" y="-546" font-family="Helvetica,sans-Serif" font-size="10.00">src/enclave/interface.h</text>
</a>
</g>
</g>
<!-- Node2 -->
<g id="node2" class="node">
<title>Node2</title>
<g id="a_node2"><a xlink:href="src_2enclave_2enclave_8h.html" target="_top" xlink:title=" ">
<polygon fill="white" stroke="#666666" points="283,-74 161,-74 161,-55 283,-55 283,-74"/>
<text text-anchor="middle" x="222" y="-62" font-family="Helvetica,sans-Serif" font-size="10.00">src/enclave/enclave.h</text>
</a>
</g>
</g>
<!-- Node1&#45;&gt;Node2 -->
<g id="edge1" class="edge">
<title>Node1&#45;&gt;Node2</title>
<path fill="none" stroke="#63b8ff" d="M206.69,-545.46C123.44,-538.75 0,-513.54 0,-423 0,-423 0,-423 0,-173.5 0,-101.71 95.04,-77.63 160.75,-69.56"/>
<polygon fill="#63b8ff" stroke="#63b8ff" points="206.66,-548.97 216.89,-546.21 207.17,-541.99 206.66,-548.97"/>
</g>
<!-- Node4 -->
<g id="node4" class="node">
<title>Node4</title>
<g id="a_node4"><a xlink:href="src_2host_2enclave_8h.html" target="_top" xlink:title=" ">
<polygon fill="white" stroke="#666666" points="656.5,-497.5 551.5,-497.5 551.5,-478.5 656.5,-478.5 656.5,-497.5"/>
<text text-anchor="middle" x="604" y="-485.5" font-family="Helvetica,sans-Serif" font-size="10.00">src/host/enclave.h</text>
</a>
</g>
</g>
<!-- Node1&#45;&gt;Node4 -->
<g id="edge3" class="edge">
<title>Node1&#45;&gt;Node4</title>
<path fill="none" stroke="#63b8ff" d="M338.02,-537.17C400.31,-525.89 498.94,-508.03 556.98,-497.52"/>
<polygon fill="#63b8ff" stroke="#63b8ff" points="337.18,-533.77 327.97,-538.99 338.43,-540.66 337.18,-533.77"/>
</g>
<!-- Node8 -->
<g id="node8" class="node">
<title>Node8</title>
<g id="a_node8"><a xlink:href="handle__ring__buffer_8h.html" target="_top" xlink:title=" ">
<polygon fill="white" stroke="#666666" points="405.5,-437 290.5,-437 290.5,-407 405.5,-407 405.5,-437"/>
<text text-anchor="start" x="298.5" y="-425" font-family="Helvetica,sans-Serif" font-size="10.00">src/host/handle_ring</text>
<text text-anchor="middle" x="348" y="-414" font-family="Helvetica,sans-Serif" font-size="10.00">_buffer.h</text>
</a>
</g>
</g>
<!-- Node1&#45;&gt;Node8 -->
<g id="edge9" class="edge">
<title>Node1&#45;&gt;Node8</title>
<path fill="none" stroke="#63b8ff" d="M290.46,-529.91C303.86,-505.03 328.07,-460.03 340.38,-437.16"/>
<polygon fill="#63b8ff" stroke="#63b8ff" points="287.26,-528.48 285.61,-538.94 293.43,-531.8 287.26,-528.48"/>
</g>
<!-- Node9 -->
<g id="node9" class="node">
<title>Node9</title>
<g id="a_node9"><a xlink:href="process__launcher_8h.html" target="_top" xlink:title=" ">
<polygon fill="white" stroke="#666666" points="501.5,-497.5 350.5,-497.5 350.5,-478.5 501.5,-478.5 501.5,-497.5"/>
<text text-anchor="middle" x="426" y="-485.5" font-family="Helvetica,sans-Serif" font-size="10.00">src/host/process_launcher.h</text>
</a>
</g>
</g>
<!-- Node1&#45;&gt;Node9 -->
<g id="edge11" class="edge">
<title>Node1&#45;&gt;Node9</title>
<path fill="none" stroke="#63b8ff" d="M311.41,-535.23C339.43,-523.92 380.29,-507.44 404.89,-497.52"/>
<polygon fill="#63b8ff" stroke="#63b8ff" points="310.05,-532.01 302.08,-538.99 312.67,-538.5 310.05,-532.01"/>
</g>
<!-- Node10 -->
<g id="node10" class="node">
<title>Node10</title>
<g id="a_node10"><a xlink:href="node__call__types_8h.html" target="_top" xlink:title=" ">
<polygon fill="white" stroke="#666666" points="230.5,-503 105.5,-503 105.5,-473 230.5,-473 230.5,-503"/>
<text text-anchor="start" x="113.5" y="-491" font-family="Helvetica,sans-Serif" font-size="10.00">src/node/rpc/node_call</text>
<text text-anchor="middle" x="168" y="-480" font-family="Helvetica,sans-Serif" font-size="10.00">_types.h</text>
</a>
</g>
</g>
<!-- Node1&#45;&gt;Node10 -->
<g id="edge13" class="edge">
<title>Node1&#45;&gt;Node10</title>
<path fill="none" stroke="#63b8ff" d="M255.06,-534.07C237.17,-524.81 213.43,-512.52 195.26,-503.11"/>
<polygon fill="#63b8ff" stroke="#63b8ff" points="253.84,-537.38 264.33,-538.87 257.06,-531.16 253.84,-537.38"/>
</g>
<!-- Node15 -->
<g id="node15" class="node">
<title>Node15</title>
<g id="a_node15"><a xlink:href="serialization_8h.html" target="_top" xlink:title=" ">
<polygon fill="white" stroke="#666666" points="360,-371 212,-371 212,-352 360,-352 360,-371"/>
<text text-anchor="middle" x="286" y="-359" font-family="Helvetica,sans-Serif" font-size="10.00">src/node/rpc/serialization.h</text>
</a>
</g>
</g>
<!-- Node1&#45;&gt;Node15 -->
<g id="edge30" class="edge">
<title>Node1&#45;&gt;Node15</title>
<path fill="none" stroke="#63b8ff" d="M280.33,-528.65C279.53,-501.67 278.56,-450.49 281,-407 281.7,-394.43 283.52,-379.95 284.76,-371.01"/>
<polygon fill="#63b8ff" stroke="#63b8ff" points="276.84,-529.06 280.67,-538.94 283.84,-528.83 276.84,-529.06"/>
</g>
<!-- Node3 -->
<g id="node3" class="node">
<title>Node3</title>
<g id="a_node3"><a xlink:href="enclave_2main_8cpp.html" target="_top" xlink:title=" ">
<polygon fill="white" stroke="#666666" points="282,-19 162,-19 162,0 282,0 282,-19"/>
<text text-anchor="middle" x="222" y="-7" font-family="Helvetica,sans-Serif" font-size="10.00">src/enclave/main.cpp</text>
</a>
</g>
</g>
<!-- Node2&#45;&gt;Node3 -->
<g id="edge2" class="edge">
<title>Node2&#45;&gt;Node3</title>
<path fill="none" stroke="#63b8ff" d="M222,-44.66C222,-35.93 222,-25.99 222,-19.09"/>
<polygon fill="#63b8ff" stroke="#63b8ff" points="218.5,-44.75 222,-54.75 225.5,-44.75 218.5,-44.75"/>
</g>
<!-- Node5 -->
<g id="node5" class="node">
<title>Node5</title>
<g id="a_node5"><a xlink:href="host_2main_8cpp.html" target="_top" xlink:title=" ">
<polygon fill="white" stroke="#666666" points="568.5,-371 465.5,-371 465.5,-352 568.5,-352 568.5,-371"/>
<text text-anchor="middle" x="517" y="-359" font-family="Helvetica,sans-Serif" font-size="10.00">src/host/main.cpp</text>
</a>
</g>
</g>
<!-- Node4&#45;&gt;Node5 -->
<g id="edge4" class="edge">
<title>Node4&#45;&gt;Node5</title>
<path fill="none" stroke="#63b8ff" d="M637.06,-474.41C670.42,-459.8 714.2,-434.23 693,-407 677.8,-387.48 615.05,-375.16 568.79,-368.56"/>
<polygon fill="#63b8ff" stroke="#63b8ff" points="635.42,-471.3 627.56,-478.4 638.13,-477.75 635.42,-471.3"/>
</g>
<!-- Node6 -->
<g id="node6" class="node">
<title>Node6</title>
<g id="a_node6"><a xlink:href="sig__term_8h.html" target="_top" xlink:title=" ">
<polygon fill="white" stroke="#666666" points="572,-431.5 462,-431.5 462,-412.5 572,-412.5 572,-431.5"/>
<text text-anchor="middle" x="517" y="-419.5" font-family="Helvetica,sans-Serif" font-size="10.00">src/host/sig_term.h</text>
</a>
</g>
</g>
<!-- Node4&#45;&gt;Node6 -->
<g id="edge5" class="edge">
<title>Node4&#45;&gt;Node6</title>
<path fill="none" stroke="#63b8ff" d="M584.06,-472.33C567,-459.78 543.01,-442.13 528.83,-431.7"/>
<polygon fill="#63b8ff" stroke="#63b8ff" points="582.14,-475.26 592.27,-478.37 586.29,-469.62 582.14,-475.26"/>
</g>
<!-- Node7 -->
<g id="node7" class="node">
<title>Node7</title>
<g id="a_node7"><a xlink:href="ticker_8h.html" target="_top" xlink:title=" ">
<polygon fill="white" stroke="#666666" points="683.5,-431.5 590.5,-431.5 590.5,-412.5 683.5,-412.5 683.5,-431.5"/>
<text text-anchor="middle" x="637" y="-419.5" font-family="Helvetica,sans-Serif" font-size="10.00">src/host/ticker.h</text>
</a>
</g>
</g>
<!-- Node4&#45;&gt;Node7 -->
<g id="edge7" class="edge">
<title>Node4&#45;&gt;Node7</title>
<path fill="none" stroke="#63b8ff" d="M613.19,-469.18C619.44,-457.05 627.46,-441.51 632.41,-431.91"/>
<polygon fill="#63b8ff" stroke="#63b8ff" points="609.92,-467.88 608.45,-478.37 616.14,-471.08 609.92,-467.88"/>
</g>
<!-- Node6&#45;&gt;Node5 -->
<g id="edge6" class="edge">
<title>Node6&#45;&gt;Node5</title>
<path fill="none" stroke="#63b8ff" d="M517,-402.16C517,-391.74 517,-379.3 517,-371.17"/>
<polygon fill="#63b8ff" stroke="#63b8ff" points="513.5,-402.37 517,-412.37 520.5,-402.37 513.5,-402.37"/>
</g>
<!-- Node7&#45;&gt;Node5 -->
<g id="edge8" class="edge">
<title>Node7&#45;&gt;Node5</title>
<path fill="none" stroke="#63b8ff" d="M610.3,-407.98C587.17,-396.71 554.39,-380.73 534.47,-371.02"/>
<polygon fill="#63b8ff" stroke="#63b8ff" points="609.03,-411.26 619.55,-412.49 612.1,-404.97 609.03,-411.26"/>
</g>
<!-- Node8&#45;&gt;Node5 -->
<g id="edge10" class="edge">
<title>Node8&#45;&gt;Node5</title>
<path fill="none" stroke="#63b8ff" d="M398.23,-403.61C429.15,-392.91 467.44,-379.65 492.04,-371.14"/>
<polygon fill="#63b8ff" stroke="#63b8ff" points="396.78,-400.41 388.48,-406.99 399.07,-407.02 396.78,-400.41"/>
</g>
<!-- Node9&#45;&gt;Node5 -->
<g id="edge12" class="edge">
<title>Node9&#45;&gt;Node5</title>
<path fill="none" stroke="#63b8ff" d="M428.81,-468.51C432.18,-451.21 439.2,-425.36 453,-407 465.03,-390.99 484.54,-378.62 498.86,-371.03"/>
<polygon fill="#63b8ff" stroke="#63b8ff" points="425.34,-468.03 427.09,-478.48 432.24,-469.22 425.34,-468.03"/>
</g>
<!-- Node11 -->
<g id="node11" class="node">
<title>Node11</title>
<g id="a_node11"><a xlink:href="call__types_8h.html" target="_top" xlink:title=" ">
<polygon fill="white" stroke="#666666" points="233.5,-431.5 96.5,-431.5 96.5,-412.5 233.5,-412.5 233.5,-431.5"/>
<text text-anchor="middle" x="165" y="-419.5" font-family="Helvetica,sans-Serif" font-size="10.00">src/node/rpc/call_types.h</text>
</a>
</g>
</g>
<!-- Node10&#45;&gt;Node11 -->
<g id="edge14" class="edge">
<title>Node10&#45;&gt;Node11</title>
<path fill="none" stroke="#63b8ff" d="M166.86,-462.6C166.35,-451.8 165.79,-439.78 165.41,-431.84"/>
<polygon fill="#63b8ff" stroke="#63b8ff" points="163.37,-462.97 167.33,-472.8 170.36,-462.64 163.37,-462.97"/>
</g>
<!-- Node12 -->
<g id="node12" class="node">
<title>Node12</title>
<g id="a_node12"><a xlink:href="common__endpoint__registry_8cpp.html" target="_top" xlink:title=" ">
<polygon fill="white" stroke="#666666" points="294,-316 166,-316 166,-286 294,-286 294,-316"/>
<text text-anchor="start" x="174" y="-304" font-family="Helvetica,sans-Serif" font-size="10.00">src/endpoints/common</text>
<text text-anchor="middle" x="230" y="-293" font-family="Helvetica,sans-Serif" font-size="10.00">_endpoint_registry.cpp</text>
</a>
</g>
</g>
<!-- Node11&#45;&gt;Node12 -->
<g id="edge15" class="edge">
<title>Node11&#45;&gt;Node12</title>
<path fill="none" stroke="#63b8ff" d="M174.55,-403.52C187.48,-379.84 210.31,-338.04 222.24,-316.2"/>
<polygon fill="#63b8ff" stroke="#63b8ff" points="171.4,-401.99 169.67,-412.44 177.54,-405.34 171.4,-401.99"/>
</g>
<!-- Node13 -->
<g id="node13" class="node">
<title>Node13</title>
<g id="a_node13"><a xlink:href="wrap_8cpp.html" target="_top" xlink:title=" ">
<polygon fill="white" stroke="#666666" points="117.5,-371 28.5,-371 28.5,-352 117.5,-352 117.5,-371"/>
<text text-anchor="middle" x="73" y="-359" font-family="Helvetica,sans-Serif" font-size="10.00">src/js/wrap.cpp</text>
</a>
</g>
</g>
<!-- Node11&#45;&gt;Node13 -->
<g id="edge16" class="edge">
<title>Node11&#45;&gt;Node13</title>
<path fill="none" stroke="#63b8ff" d="M142.93,-406.97C125.41,-395.82 101.47,-380.6 86.63,-371.17"/>
<polygon fill="#63b8ff" stroke="#63b8ff" points="141.11,-409.96 151.43,-412.37 144.86,-404.05 141.11,-409.96"/>
</g>
<!-- Node14 -->
<g id="node14" class="node">
<title>Node14</title>
<g id="a_node14"><a xlink:href="member__frontend_8h.html" target="_top" xlink:title=" ">
<polygon fill="white" stroke="#666666" points="148,-316 28,-316 28,-286 148,-286 148,-316"/>
<text text-anchor="start" x="36" y="-304" font-family="Helvetica,sans-Serif" font-size="10.00">src/node/rpc/member</text>
<text text-anchor="middle" x="88" y="-293" font-family="Helvetica,sans-Serif" font-size="10.00">_frontend.h</text>
</a>
</g>
</g>
<!-- Node11&#45;&gt;Node14 -->
<g id="edge17" class="edge">
<title>Node11&#45;&gt;Node14</title>
<path fill="none" stroke="#63b8ff" d="M155.77,-403.16C148.25,-388.99 137.08,-368.83 126,-352 117.73,-339.43 107.33,-325.88 99.5,-316.07"/>
<polygon fill="#63b8ff" stroke="#63b8ff" points="152.82,-405.05 160.56,-412.28 159.01,-401.8 152.82,-405.05"/>
</g>
<!-- Node11&#45;&gt;Node15 -->
<g id="edge19" class="edge">
<title>Node11&#45;&gt;Node15</title>
<path fill="none" stroke="#63b8ff" d="M191.61,-408.13C214.95,-396.85 248.21,-380.77 268.38,-371.02"/>
<polygon fill="#63b8ff" stroke="#63b8ff" points="190.07,-404.99 182.59,-412.49 193.12,-411.29 190.07,-404.99"/>
</g>
<!-- Node14&#45;&gt;Node2 -->
<g id="edge18" class="edge">
<title>Node14&#45;&gt;Node2</title>
<path fill="none" stroke="#63b8ff" d="M88.88,-275.82C91.48,-236.9 101.61,-159.69 141,-110 154.75,-92.65 177.22,-81.07 195,-74.09"/>
<polygon fill="#63b8ff" stroke="#63b8ff" points="85.38,-275.77 88.32,-285.95 92.37,-276.15 85.38,-275.77"/>
</g>
<!-- Node15&#45;&gt;Node12 -->
<g id="edge20" class="edge">
<title>Node15&#45;&gt;Node12</title>
<path fill="none" stroke="#63b8ff" d="M270.61,-344.43C262.12,-335.56 251.68,-324.65 243.51,-316.11"/>
<polygon fill="#63b8ff" stroke="#63b8ff" points="268.29,-347.06 277.74,-351.87 273.35,-342.22 268.29,-347.06"/>
</g>
<!-- Node15&#45;&gt;Node14 -->
<g id="edge25" class="edge">
<title>Node15&#45;&gt;Node14</title>
<path fill="none" stroke="#63b8ff" d="M247.34,-349.08C215.36,-339.63 169.82,-326.17 135.6,-316.06"/>
<polygon fill="#63b8ff" stroke="#63b8ff" points="246.63,-352.52 257.21,-351.99 248.61,-345.8 246.63,-352.52"/>
</g>
<!-- Node16 -->
<g id="node16" class="node">
<title>Node16</title>
<g id="a_node16"><a xlink:href="node__state_8h.html" target="_top" xlink:title=" ">
<polygon fill="white" stroke="#666666" points="384,-184 260,-184 260,-165 384,-165 384,-184"/>
<text text-anchor="middle" x="322" y="-172" font-family="Helvetica,sans-Serif" font-size="10.00">src/node/node_state.h</text>
</a>
</g>
</g>
<!-- Node15&#45;&gt;Node16 -->
<g id="edge21" class="edge">
<title>Node15&#45;&gt;Node16</title>
<path fill="none" stroke="#63b8ff" d="M293.98,-342.46C297.22,-334.49 300.73,-324.92 303,-316 315.47,-267.1 320.15,-206.42 321.52,-184.19"/>
<polygon fill="#63b8ff" stroke="#63b8ff" points="290.69,-341.26 290,-351.83 297.13,-343.99 290.69,-341.26"/>
</g>
<!-- Node18 -->
<g id="node18" class="node">
<title>Node18</title>
<g id="a_node18"><a xlink:href="node__frontend_8h.html" target="_top" xlink:title=" ">
<polygon fill="white" stroke="#666666" points="508,-310.5 350,-310.5 350,-291.5 508,-291.5 508,-310.5"/>
<text text-anchor="middle" x="429" y="-298.5" font-family="Helvetica,sans-Serif" font-size="10.00">src/node/rpc/node_frontend.h</text>
</a>
</g>
</g>
<!-- Node15&#45;&gt;Node18 -->
<g id="edge26" class="edge">
<title>Node15&#45;&gt;Node18</title>
<path fill="none" stroke="#63b8ff" d="M316.36,-348.08C343.98,-336.78 384.02,-320.4 408.18,-310.52"/>
<polygon fill="#63b8ff" stroke="#63b8ff" points="314.72,-344.97 306.79,-351.99 317.37,-351.45 314.72,-344.97"/>
</g>
<!-- Node16&#45;&gt;Node2 -->
<g id="edge22" class="edge">
<title>Node16&#45;&gt;Node2</title>
<path fill="none" stroke="#63b8ff" d="M320.17,-154.55C318,-140.91 313.28,-122.73 303,-110 288.98,-92.65 266.31,-81.02 248.51,-74.02"/>
<polygon fill="#63b8ff" stroke="#63b8ff" points="316.73,-155.25 321.45,-164.73 323.68,-154.37 316.73,-155.25"/>
</g>
<!-- Node17 -->
<g id="node17" class="node">
<title>Node17</title>
<g id="a_node17"><a xlink:href="gov__effects_8h.html" target="_top" xlink:title=" ">
<polygon fill="white" stroke="#666666" points="294,-129 150,-129 150,-110 294,-110 294,-129"/>
<text text-anchor="middle" x="222" y="-117" font-family="Helvetica,sans-Serif" font-size="10.00">src/node/rpc/gov_effects.h</text>
</a>
</g>
</g>
<!-- Node16&#45;&gt;Node17 -->
<g id="edge23" class="edge">
<title>Node16&#45;&gt;Node17</title>
<path fill="none" stroke="#63b8ff" d="M296.97,-160.23C278.63,-150.51 254.26,-137.6 238.36,-129.17"/>
<polygon fill="#63b8ff" stroke="#63b8ff" points="295.46,-163.39 305.93,-164.98 298.74,-157.21 295.46,-163.39"/>
</g>
<!-- Node17&#45;&gt;Node2 -->
<g id="edge24" class="edge">
<title>Node17&#45;&gt;Node2</title>
<path fill="none" stroke="#63b8ff" d="M222,-99.66C222,-90.93 222,-80.99 222,-74.09"/>
<polygon fill="#63b8ff" stroke="#63b8ff" points="218.5,-99.75 222,-109.75 225.5,-99.75 218.5,-99.75"/>
</g>
<!-- Node18&#45;&gt;Node2 -->
<g id="edge27" class="edge">
<title>Node18&#45;&gt;Node2</title>
<path fill="none" stroke="#63b8ff" d="M452.19,-285.82C464.1,-277.12 477.45,-264.81 484,-250 489.39,-237.81 490.22,-231.79 484,-220 437.9,-132.67 319.35,-90.49 258.79,-74.09"/>
<polygon fill="#63b8ff" stroke="#63b8ff" points="450.17,-282.96 443.89,-291.5 454.12,-288.74 450.17,-282.96"/>
</g>
<!-- Node19 -->
<g id="node19" class="node">
<title>Node19</title>
<g id="a_node19"><a xlink:href="jwt__key__auto__refresh_8h.html" target="_top" xlink:title=" ">
<polygon fill="white" stroke="#666666" points="475.5,-250 350.5,-250 350.5,-220 475.5,-220 475.5,-250"/>
<text text-anchor="start" x="358.5" y="-238" font-family="Helvetica,sans-Serif" font-size="10.00">src/node/jwt_key_auto</text>
<text text-anchor="middle" x="413" y="-227" font-family="Helvetica,sans-Serif" font-size="10.00">_refresh.h</text>
</a>
</g>
</g>
<!-- Node18&#45;&gt;Node19 -->
<g id="edge28" class="edge">
<title>Node18&#45;&gt;Node19</title>
<path fill="none" stroke="#63b8ff" d="M424.34,-281.35C421.87,-271.47 418.88,-259.51 416.59,-250.36"/>
<polygon fill="#63b8ff" stroke="#63b8ff" points="421.02,-282.52 426.84,-291.37 427.81,-280.82 421.02,-282.52"/>
</g>
<!-- Node19&#45;&gt;Node16 -->
<g id="edge29" class="edge">
<title>Node19&#45;&gt;Node16</title>
<path fill="none" stroke="#63b8ff" d="M382.43,-214.35C366.45,-204.07 347.7,-192.02 335.37,-184.09"/>
<polygon fill="#63b8ff" stroke="#63b8ff" points="380.67,-217.38 390.97,-219.84 384.45,-211.49 380.67,-217.38"/>
</g>
</g>
</svg>
        <g id="navigator" transform="translate(0 0)" fill="#404254">
                <rect fill="#f2f5e9" fill-opacity="0.5" stroke="#606060" stroke-width=".5" x="0" y="0" width="60" height="60"/>
                <use id="zoomplus" xlink:href="#zoomPlus" x="17" y="9" onmousedown="handleZoom(evt,'in')"/>
                <use id="zoomminus" xlink:href="#zoomMin" x="42" y="9" onmousedown="handleZoom(evt,'out')"/>
                <use id="reset" xlink:href="#resetDef" x="30" y="36" onmousedown="handleReset()"/>
                <g id="arrowUp" xlink:href="#dirArrow" transform="translate(30 24)" onmousedown="handlePan(0,-1)">
                  <use xlink:href="#rim" fill="#404040">
                        <set attributeName="fill" to="#808080" begin="arrowUp.mouseover" end="arrowUp.mouseout"/>
                  </use>
                  <path fill="none" stroke="white" stroke-width="1.5" d="M0,-3.0v7 M-2.5,-0.5L0,-3.0L2.5,-0.5"/>
                </g>
                <g id="arrowRight" xlink:href="#dirArrow" transform="rotate(90) translate(36 -43)" onmousedown="handlePan(1,0)">
                  <use xlink:href="#rim" fill="#404040">
                        <set attributeName="fill" to="#808080" begin="arrowRight.mouseover" end="arrowRight.mouseout"/>
                  </use>
                  <path fill="none" stroke="white" stroke-width="1.5" d="M0,-3.0v7 M-2.5,-0.5L0,-3.0L2.5,-0.5"/>
                </g>
                <g id="arrowDown" xlink:href="#dirArrow" transform="rotate(180) translate(-30 -48)" onmousedown="handlePan(0,1)">
                  <use xlink:href="#rim" fill="#404040">
                        <set attributeName="fill" to="#808080" begin="arrowDown.mouseover" end="arrowDown.mouseout"/>
                  </use>
                  <path fill="none" stroke="white" stroke-width="1.5" d="M0,-3.0v7 M-2.5,-0.5L0,-3.0L2.5,-0.5"/>
                </g>
                <g id="arrowLeft" xlink:href="#dirArrow" transform="rotate(270) translate(-36 17)" onmousedown="handlePan(-1,0)">
                  <use xlink:href="#rim" fill="#404040">
                        <set attributeName="fill" to="#808080" begin="arrowLeft.mouseover" end="arrowLeft.mouseout"/>
                  </use>
                  <path fill="none" stroke="white" stroke-width="1.5" d="M0,-3.0v7 M-2.5,-0.5L0,-3.0L2.5,-0.5"/>
                </g>
        </g>
        <svg viewBox="0 0 15 15" width="100%" height="30px" preserveAspectRatio="xMaxYMin meet">
         <g id="arrow_out" transform="scale(0.3 0.3)">
          <a xlink:href="interface_8h__dep__incl_org.svg" target="_base">
           <rect id="button" ry="5" rx="5" y="6" x="6" height="38" width="38"
                fill="#f2f5e9" fill-opacity="0.5" stroke="#606060" stroke-width="1.0"/>
           <path id="arrow"
             d="M 11.500037,31.436501 C 11.940474,20.09759 22.043105,11.32322 32.158766,21.979434 L 37.068811,17.246167 C 37.068811,17.246167 37.088388,32 37.088388,32 L 22.160133,31.978069 C 22.160133,31.978069 26.997745,27.140456 26.997745,27.140456 C 18.528582,18.264221 13.291696,25.230495 11.500037,31.436501 z"
             style="fill:#404040;"/>
          </a>
         </g>
        </svg>
</svg>
