<?xml version="1.0" encoding="UTF-8" standalone="no"?>
<!DOCTYPE svg PUBLIC "-//W3C//DTD SVG 1.1//EN"
 "http://www.w3.org/Graphics/SVG/1.1/DTD/svg11.dtd">
<!-- Generated by graphviz version 2.43.0 (0)
 -->
<!-- Title: include/ccf/js_plugin.h Pages: 1 -->
<svg width="2383pt" height="467pt"
 viewBox="0.00 0.00 2382.87 467.00" xmlns="http://www.w3.org/2000/svg" xmlns:xlink="http://www.w3.org/1999/xlink">
<g id="graph0" class="graph" transform="scale(1 1) rotate(0) translate(4 463)">
<title>include/ccf/js_plugin.h</title>
<!-- Node1 -->
<g id="node1" class="node">
<title>Node1</title>
<g id="a_node1"><a xlink:title=" ">
<polygon fill="#999999" stroke="#666666" points="1347,-459 1222,-459 1222,-440 1347,-440 1347,-459"/>
<text text-anchor="middle" x="1284.5" y="-447" font-family="Helvetica,sans-Serif" font-size="10.00">include/ccf/js_plugin.h</text>
</a>
</g>
</g>
<!-- Node2 -->
<g id="node2" class="node">
<title>Node2</title>
<g id="a_node2"><a xlink:href="app__interface_8h.html" target="_top" xlink:title=" ">
<polygon fill="white" stroke="#666666" points="795.5,-398.5 647.5,-398.5 647.5,-379.5 795.5,-379.5 795.5,-398.5"/>
<text text-anchor="middle" x="721.5" y="-386.5" font-family="Helvetica,sans-Serif" font-size="10.00">include/ccf/app_interface.h</text>
</a>
</g>
</g>
<!-- Node1&#45;&gt;Node2 -->
<g id="edge1" class="edge">
<title>Node1&#45;&gt;Node2</title>
<path fill="none" stroke="#63b8ff" d="M1211.72,-440.94C1104.2,-429.77 903.99,-408.96 795.68,-397.71"/>
<polygon fill="#63b8ff" stroke="#63b8ff" points="1211.52,-444.44 1221.83,-441.99 1212.24,-437.47 1211.52,-444.44"/>
</g>
<!-- Node15 -->
<g id="node15" class="node">
<title>Node15</title>
<g id="a_node15"><a xlink:href="no__plugins_8cpp.html" target="_top" xlink:title=" ">
<polygon fill="white" stroke="#666666" points="1216.5,-332.5 1098.5,-332.5 1098.5,-313.5 1216.5,-313.5 1216.5,-332.5"/>
<text text-anchor="middle" x="1157.5" y="-320.5" font-family="Helvetica,sans-Serif" font-size="10.00">src/js/no_plugins.cpp</text>
</a>
</g>
</g>
<!-- Node1&#45;&gt;Node15 -->
<g id="edge24" class="edge">
<title>Node1&#45;&gt;Node15</title>
<path fill="none" stroke="#63b8ff" d="M1284.08,-429.57C1282.78,-413.17 1278.53,-389.68 1265.5,-374 1247.67,-352.55 1218.61,-339.82 1195.13,-332.57"/>
<polygon fill="#63b8ff" stroke="#63b8ff" points="1280.59,-429.8 1284.59,-439.61 1287.58,-429.44 1280.59,-429.8"/>
</g>
<!-- Node18 -->
<g id="node18" class="node">
<title>Node18</title>
<g id="a_node18"><a xlink:href="js__openenclave__plugin_8h.html" target="_top" xlink:title=" ">
<polygon fill="white" stroke="#666666" points="1256.5,-404 1108.5,-404 1108.5,-374 1256.5,-374 1256.5,-404"/>
<text text-anchor="start" x="1116.5" y="-392" font-family="Helvetica,sans-Serif" font-size="10.00">include/ccf/js_openenclave</text>
<text text-anchor="middle" x="1182.5" y="-381" font-family="Helvetica,sans-Serif" font-size="10.00">_plugin.h</text>
</a>
</g>
</g>
<!-- Node1&#45;&gt;Node18 -->
<g id="edge21" class="edge">
<title>Node1&#45;&gt;Node18</title>
<path fill="none" stroke="#63b8ff" d="M1260.64,-434.81C1244.54,-425.58 1223.36,-413.43 1207.11,-404.11"/>
<polygon fill="#63b8ff" stroke="#63b8ff" points="1259.03,-437.93 1269.45,-439.87 1262.52,-431.86 1259.03,-437.93"/>
</g>
<!-- Node19 -->
<g id="node19" class="node">
<title>Node19</title>
<g id="a_node19"><a xlink:href="openenclave_8cpp.html" target="_top" xlink:title=" ">
<polygon fill="white" stroke="#666666" points="1498.5,-332.5 1370.5,-332.5 1370.5,-313.5 1498.5,-313.5 1498.5,-332.5"/>
<text text-anchor="middle" x="1434.5" y="-320.5" font-family="Helvetica,sans-Serif" font-size="10.00">src/js/openenclave.cpp</text>
</a>
</g>
</g>
<!-- Node1&#45;&gt;Node19 -->
<g id="edge25" class="edge">
<title>Node1&#45;&gt;Node19</title>
<path fill="none" stroke="#63b8ff" d="M1302.86,-433.26C1334.66,-406.87 1398.99,-353.47 1424.12,-332.62"/>
<polygon fill="#63b8ff" stroke="#63b8ff" points="1300.27,-430.86 1294.81,-439.94 1304.74,-436.25 1300.27,-430.86"/>
</g>
<!-- Node20 -->
<g id="node20" class="node">
<title>Node20</title>
<g id="a_node20"><a xlink:href="wrap_8h.html" target="_top" xlink:title=" ">
<polygon fill="white" stroke="#666666" points="1826.5,-398.5 1748.5,-398.5 1748.5,-379.5 1826.5,-379.5 1826.5,-398.5"/>
<text text-anchor="middle" x="1787.5" y="-386.5" font-family="Helvetica,sans-Serif" font-size="10.00">src/js/wrap.h</text>
</a>
</g>
</g>
<!-- Node1&#45;&gt;Node20 -->
<g id="edge26" class="edge">
<title>Node1&#45;&gt;Node20</title>
<path fill="none" stroke="#63b8ff" d="M1357.35,-440.03C1465.35,-427.47 1664.21,-404.34 1748.31,-394.56"/>
<polygon fill="#63b8ff" stroke="#63b8ff" points="1356.72,-436.58 1347.19,-441.21 1357.53,-443.53 1356.72,-436.58"/>
</g>
<!-- Node3 -->
<g id="node3" class="node">
<title>Node3</title>
<g id="a_node3"><a xlink:href="logging_8cpp.html" target="_top" xlink:title=" ">
<polygon fill="white" stroke="#666666" points="123,-338 0,-338 0,-308 123,-308 123,-338"/>
<text text-anchor="start" x="8" y="-326" font-family="Helvetica,sans-Serif" font-size="10.00">samples/apps/logging</text>
<text text-anchor="middle" x="61.5" y="-315" font-family="Helvetica,sans-Serif" font-size="10.00">/logging.cpp</text>
</a>
</g>
</g>
<!-- Node2&#45;&gt;Node3 -->
<g id="edge2" class="edge">
<title>Node2&#45;&gt;Node3</title>
<path fill="none" stroke="#63b8ff" d="M637.02,-383.84C522.18,-377.51 310.57,-363.41 131.5,-338 128.8,-337.62 126.05,-337.2 123.27,-336.75"/>
<polygon fill="#63b8ff" stroke="#63b8ff" points="636.98,-387.35 647.15,-384.4 637.36,-380.36 636.98,-387.35"/>
</g>
<!-- Node4 -->
<g id="node4" class="node">
<title>Node4</title>
<g id="a_node4"><a xlink:href="nobuiltins_8cpp.html" target="_top" xlink:title=" ">
<polygon fill="white" stroke="#666666" points="276,-338 141,-338 141,-308 276,-308 276,-338"/>
<text text-anchor="start" x="149" y="-326" font-family="Helvetica,sans-Serif" font-size="10.00">samples/apps/nobuiltins</text>
<text text-anchor="middle" x="208.5" y="-315" font-family="Helvetica,sans-Serif" font-size="10.00">/nobuiltins.cpp</text>
</a>
</g>
</g>
<!-- Node2&#45;&gt;Node4 -->
<g id="edge3" class="edge">
<title>Node2&#45;&gt;Node4</title>
<path fill="none" stroke="#63b8ff" d="M637.28,-379.58C550.28,-370.56 410.64,-355.21 290.5,-338 285.78,-337.32 280.92,-336.59 276.02,-335.82"/>
<polygon fill="#63b8ff" stroke="#63b8ff" points="637.06,-383.08 647.37,-380.62 637.78,-376.11 637.06,-383.08"/>
</g>
<!-- Node5 -->
<g id="node5" class="node">
<title>Node5</title>
<g id="a_node5"><a xlink:href="executor__auth__policy_8h.html" target="_top" xlink:title=" ">
<polygon fill="white" stroke="#666666" points="674.5,-338 526.5,-338 526.5,-308 674.5,-308 674.5,-338"/>
<text text-anchor="start" x="534.5" y="-326" font-family="Helvetica,sans-Serif" font-size="10.00">src/apps/external_executor</text>
<text text-anchor="middle" x="600.5" y="-315" font-family="Helvetica,sans-Serif" font-size="10.00">/executor_auth_policy.h</text>
</a>
</g>
</g>
<!-- Node2&#45;&gt;Node5 -->
<g id="edge4" class="edge">
<title>Node2&#45;&gt;Node5</title>
<path fill="none" stroke="#63b8ff" d="M696.25,-374.64C676.04,-363.95 647.77,-349 627.19,-338.12"/>
<polygon fill="#63b8ff" stroke="#63b8ff" points="694.71,-377.79 705.18,-379.37 697.98,-371.6 694.71,-377.79"/>
</g>
<!-- Node6 -->
<g id="node6" class="node">
<title>Node6</title>
<g id="a_node6"><a xlink:href="external__executor_8cpp.html" target="_top" xlink:title=" ">
<polygon fill="white" stroke="#666666" points="674.5,-206 526.5,-206 526.5,-176 674.5,-176 674.5,-206"/>
<text text-anchor="start" x="534.5" y="-194" font-family="Helvetica,sans-Serif" font-size="10.00">src/apps/external_executor</text>
<text text-anchor="middle" x="600.5" y="-183" font-family="Helvetica,sans-Serif" font-size="10.00">/external_executor.cpp</text>
</a>
</g>
</g>
<!-- Node2&#45;&gt;Node6 -->
<g id="edge9" class="edge">
<title>Node2&#45;&gt;Node6</title>
<path fill="none" stroke="#63b8ff" d="M637.47,-377.94C588.17,-370.11 532.63,-357.29 517.5,-338 482.77,-293.73 547.58,-233.23 581.58,-206.13"/>
<polygon fill="#63b8ff" stroke="#63b8ff" points="637.15,-381.43 647.56,-379.48 638.21,-374.51 637.15,-381.43"/>
</g>
<!-- Node9 -->
<g id="node9" class="node">
<title>Node9</title>
<g id="a_node9"><a xlink:href="js__generic_8cpp.html" target="_top" xlink:title=" ">
<polygon fill="white" stroke="#666666" points="1042.5,-272 932.5,-272 932.5,-242 1042.5,-242 1042.5,-272"/>
<text text-anchor="start" x="940.5" y="-260" font-family="Helvetica,sans-Serif" font-size="10.00">src/apps/js_generic</text>
<text text-anchor="middle" x="987.5" y="-249" font-family="Helvetica,sans-Serif" font-size="10.00">/js_generic.cpp</text>
</a>
</g>
</g>
<!-- Node2&#45;&gt;Node9 -->
<g id="edge10" class="edge">
<title>Node2&#45;&gt;Node9</title>
<path fill="none" stroke="#63b8ff" d="M725.27,-369.63C730.04,-351.22 740.07,-323.44 759.5,-308 785.79,-287.1 873.62,-272.31 932.27,-264.47"/>
<polygon fill="#63b8ff" stroke="#63b8ff" points="721.84,-368.93 723,-379.46 728.66,-370.51 721.84,-368.93"/>
</g>
<!-- Node10 -->
<g id="node10" class="node">
<title>Node10</title>
<g id="a_node10"><a xlink:href="js__generic__base_8cpp.html" target="_top" xlink:title=" ">
<polygon fill="white" stroke="#666666" points="1352.5,-338 1234.5,-338 1234.5,-308 1352.5,-308 1352.5,-338"/>
<text text-anchor="start" x="1242.5" y="-326" font-family="Helvetica,sans-Serif" font-size="10.00">src/apps/js_generic</text>
<text text-anchor="middle" x="1293.5" y="-315" font-family="Helvetica,sans-Serif" font-size="10.00">/js_generic_base.cpp</text>
</a>
</g>
</g>
<!-- Node2&#45;&gt;Node10 -->
<g id="edge11" class="edge">
<title>Node2&#45;&gt;Node10</title>
<path fill="none" stroke="#63b8ff" d="M805.75,-382.34C906.11,-374.97 1078.63,-360.34 1225.5,-338 1228.36,-337.56 1231.28,-337.09 1234.23,-336.58"/>
<polygon fill="#63b8ff" stroke="#63b8ff" points="805.39,-378.85 795.67,-383.07 805.9,-385.84 805.39,-378.85"/>
</g>
<!-- Node11 -->
<g id="node11" class="node">
<title>Node11</title>
<g id="a_node11"><a xlink:href="js__generic__base_8h.html" target="_top" xlink:title=" ">
<polygon fill="white" stroke="#666666" points="1042.5,-338 932.5,-338 932.5,-308 1042.5,-308 1042.5,-338"/>
<text text-anchor="start" x="940.5" y="-326" font-family="Helvetica,sans-Serif" font-size="10.00">src/apps/js_generic</text>
<text text-anchor="middle" x="987.5" y="-315" font-family="Helvetica,sans-Serif" font-size="10.00">/js_generic_base.h</text>
</a>
</g>
</g>
<!-- Node2&#45;&gt;Node11 -->
<g id="edge12" class="edge">
<title>Node2&#45;&gt;Node11</title>
<path fill="none" stroke="#63b8ff" d="M767.03,-377.05C812.77,-366.04 883.3,-349.07 932.22,-337.3"/>
<polygon fill="#63b8ff" stroke="#63b8ff" points="766,-373.69 757.1,-379.44 767.64,-380.5 766,-373.69"/>
</g>
<!-- Node12 -->
<g id="node12" class="node">
<title>Node12</title>
<g id="a_node12"><a xlink:href="tpcc_8cpp.html" target="_top" xlink:title=" ">
<polygon fill="white" stroke="#666666" points="914,-332.5 769,-332.5 769,-313.5 914,-313.5 914,-332.5"/>
<text text-anchor="middle" x="841.5" y="-320.5" font-family="Helvetica,sans-Serif" font-size="10.00">src/apps/tpcc/app/tpcc.cpp</text>
</a>
</g>
</g>
<!-- Node2&#45;&gt;Node12 -->
<g id="edge14" class="edge">
<title>Node2&#45;&gt;Node12</title>
<path fill="none" stroke="#63b8ff" d="M746.76,-374.53C770.4,-361.92 805,-343.47 825.19,-332.7"/>
<polygon fill="#63b8ff" stroke="#63b8ff" points="744.86,-371.57 737.68,-379.37 748.15,-377.75 744.86,-371.57"/>
</g>
<!-- Node13 -->
<g id="node13" class="node">
<title>Node13</title>
<g id="a_node13"><a xlink:href="src_2enclave_2enclave_8h.html" target="_top" xlink:title=" ">
<polygon fill="white" stroke="#666666" points="2151.5,-74 2029.5,-74 2029.5,-55 2151.5,-55 2151.5,-74"/>
<text text-anchor="middle" x="2090.5" y="-62" font-family="Helvetica,sans-Serif" font-size="10.00">src/enclave/enclave.h</text>
</a>
</g>
</g>
<!-- Node2&#45;&gt;Node13 -->
<g id="edge15" class="edge">
<title>Node2&#45;&gt;Node13</title>
<path fill="none" stroke="#63b8ff" d="M637.37,-379.02C515.57,-363.65 304.5,-327.06 304.5,-258 304.5,-258 304.5,-258 304.5,-190 304.5,-101.59 1715.75,-71.98 2029.28,-66.49"/>
<polygon fill="#63b8ff" stroke="#63b8ff" points="637.07,-382.51 647.43,-380.27 637.94,-375.57 637.07,-382.51"/>
</g>
<!-- Node2&#45;&gt;Node15 -->
<g id="edge17" class="edge">
<title>Node2&#45;&gt;Node15</title>
<path fill="none" stroke="#63b8ff" d="M789.95,-377.95C875.21,-365.44 1019.41,-344.27 1099.5,-332.51"/>
<polygon fill="#63b8ff" stroke="#63b8ff" points="789.23,-374.52 779.85,-379.44 790.25,-381.45 789.23,-374.52"/>
</g>
<!-- Node17 -->
<g id="node17" class="node">
<title>Node17</title>
<g id="a_node17"><a xlink:href="user__frontend_8h.html" target="_top" xlink:title=" ">
<polygon fill="white" stroke="#666666" points="1374,-134.5 1219,-134.5 1219,-115.5 1374,-115.5 1374,-134.5"/>
<text text-anchor="middle" x="1296.5" y="-122.5" font-family="Helvetica,sans-Serif" font-size="10.00">src/node/rpc/user_frontend.h</text>
</a>
</g>
</g>
<!-- Node2&#45;&gt;Node17 -->
<g id="edge19" class="edge">
<title>Node2&#45;&gt;Node17</title>
<path fill="none" stroke="#63b8ff" d="M719.48,-369.38C718.6,-351.6 720.19,-325.06 734.5,-308 856.43,-162.64 1095.63,-132.32 1218.93,-126.69"/>
<polygon fill="#63b8ff" stroke="#63b8ff" points="715.99,-369.69 720.28,-379.38 722.97,-369.13 715.99,-369.69"/>
</g>
<!-- Node5&#45;&gt;Node6 -->
<g id="edge5" class="edge">
<title>Node5&#45;&gt;Node6</title>
<path fill="none" stroke="#63b8ff" d="M600.5,-297.68C600.5,-270.7 600.5,-228.11 600.5,-206.14"/>
<polygon fill="#63b8ff" stroke="#63b8ff" points="597,-297.84 600.5,-307.84 604,-297.84 597,-297.84"/>
</g>
<!-- Node7 -->
<g id="node7" class="node">
<title>Node7</title>
<g id="a_node7"><a xlink:href="external__executor__indexing_8h.html" target="_top" xlink:title=" ">
<polygon fill="white" stroke="#666666" points="499.5,-272 335.5,-272 335.5,-242 499.5,-242 499.5,-272"/>
<text text-anchor="start" x="343.5" y="-260" font-family="Helvetica,sans-Serif" font-size="10.00">src/apps/external_executor</text>
<text text-anchor="middle" x="417.5" y="-249" font-family="Helvetica,sans-Serif" font-size="10.00">/external_executor_indexing.h</text>
</a>
</g>
</g>
<!-- Node5&#45;&gt;Node7 -->
<g id="edge6" class="edge">
<title>Node5&#45;&gt;Node7</title>
<path fill="none" stroke="#63b8ff" d="M550.72,-304.59C521.46,-294.36 484.96,-281.59 457.57,-272.01"/>
<polygon fill="#63b8ff" stroke="#63b8ff" points="549.75,-307.96 560.34,-307.95 552.06,-301.35 549.75,-307.96"/>
</g>
<!-- Node7&#45;&gt;Node6 -->
<g id="edge7" class="edge">
<title>Node7&#45;&gt;Node6</title>
<path fill="none" stroke="#63b8ff" d="M467.28,-238.59C496.54,-228.36 533.04,-215.59 560.43,-206.01"/>
<polygon fill="#63b8ff" stroke="#63b8ff" points="465.94,-235.35 457.66,-241.95 468.25,-241.96 465.94,-235.35"/>
</g>
<!-- Node8 -->
<g id="node8" class="node">
<title>Node8</title>
<g id="a_node8"><a xlink:href="external__executor__indexing_8cpp.html" target="_top" xlink:title=" ">
<polygon fill="white" stroke="#666666" points="508,-206 333,-206 333,-176 508,-176 508,-206"/>
<text text-anchor="start" x="341" y="-194" font-family="Helvetica,sans-Serif" font-size="10.00">src/apps/external_executor</text>
<text text-anchor="middle" x="420.5" y="-183" font-family="Helvetica,sans-Serif" font-size="10.00">/external_executor_indexing.cpp</text>
</a>
</g>
</g>
<!-- Node7&#45;&gt;Node8 -->
<g id="edge8" class="edge">
<title>Node7&#45;&gt;Node8</title>
<path fill="none" stroke="#63b8ff" d="M418.65,-231.54C419.05,-222.96 419.49,-213.61 419.84,-206.16"/>
<polygon fill="#63b8ff" stroke="#63b8ff" points="415.14,-231.64 418.17,-241.8 422.13,-231.97 415.14,-231.64"/>
</g>
<!-- Node11&#45;&gt;Node9 -->
<g id="edge13" class="edge">
<title>Node11&#45;&gt;Node9</title>
<path fill="none" stroke="#63b8ff" d="M987.5,-297.54C987.5,-288.96 987.5,-279.61 987.5,-272.16"/>
<polygon fill="#63b8ff" stroke="#63b8ff" points="984,-297.8 987.5,-307.8 991,-297.8 984,-297.8"/>
</g>
<!-- Node14 -->
<g id="node14" class="node">
<title>Node14</title>
<g id="a_node14"><a xlink:href="enclave_2main_8cpp.html" target="_top" xlink:title=" ">
<polygon fill="white" stroke="#666666" points="2150.5,-19 2030.5,-19 2030.5,0 2150.5,0 2150.5,-19"/>
<text text-anchor="middle" x="2090.5" y="-7" font-family="Helvetica,sans-Serif" font-size="10.00">src/enclave/main.cpp</text>
</a>
</g>
</g>
<!-- Node13&#45;&gt;Node14 -->
<g id="edge16" class="edge">
<title>Node13&#45;&gt;Node14</title>
<path fill="none" stroke="#63b8ff" d="M2090.5,-44.66C2090.5,-35.93 2090.5,-25.99 2090.5,-19.09"/>
<polygon fill="#63b8ff" stroke="#63b8ff" points="2087,-44.75 2090.5,-54.75 2094,-44.75 2087,-44.75"/>
</g>
<!-- Node16 -->
<g id="node16" class="node">
<title>Node16</title>
<g id="a_node16"><a xlink:href="wrap_8cpp.html" target="_top" xlink:title=" ">
<polygon fill="white" stroke="#666666" points="1717,-266.5 1628,-266.5 1628,-247.5 1717,-247.5 1717,-266.5"/>
<text text-anchor="middle" x="1672.5" y="-254.5" font-family="Helvetica,sans-Serif" font-size="10.00">src/js/wrap.cpp</text>
</a>
</g>
</g>
<!-- Node15&#45;&gt;Node16 -->
<g id="edge18" class="edge">
<title>Node15&#45;&gt;Node16</title>
<path fill="none" stroke="#63b8ff" d="M1206,-311.45C1212.54,-310.19 1219.17,-309 1225.5,-308 1372.04,-284.77 1547.28,-268.48 1627.91,-261.62"/>
<polygon fill="#63b8ff" stroke="#63b8ff" points="1204.99,-308.08 1195.87,-313.46 1206.36,-314.95 1204.99,-308.08"/>
</g>
<!-- Node17&#45;&gt;Node13 -->
<g id="edge20" class="edge">
<title>Node17&#45;&gt;Node13</title>
<path fill="none" stroke="#63b8ff" d="M1384.51,-117.52C1546.88,-105.55 1889.71,-80.29 2029.36,-70"/>
<polygon fill="#63b8ff" stroke="#63b8ff" points="1383.79,-114.06 1374.08,-118.28 1384.31,-121.04 1383.79,-114.06"/>
</g>
<!-- Node18&#45;&gt;Node9 -->
<g id="edge22" class="edge">
<title>Node18&#45;&gt;Node9</title>
<path fill="none" stroke="#63b8ff" d="M1144.1,-369.28C1126.99,-360.45 1106.83,-349.37 1089.5,-338 1071.51,-326.19 1068.42,-321.29 1051.5,-308 1036.09,-295.89 1018.54,-282.19 1005.73,-272.2"/>
<polygon fill="#63b8ff" stroke="#63b8ff" points="1142.76,-372.52 1153.26,-373.94 1145.93,-366.28 1142.76,-372.52"/>
</g>
<!-- Node18&#45;&gt;Node19 -->
<g id="edge23" class="edge">
<title>Node18&#45;&gt;Node19</title>
<path fill="none" stroke="#63b8ff" d="M1247.7,-371.44C1296.76,-358.98 1361.99,-342.42 1400.96,-332.52"/>
<polygon fill="#63b8ff" stroke="#63b8ff" points="1246.63,-368.1 1237.8,-373.95 1248.36,-374.89 1246.63,-368.1"/>
</g>
<!-- Node20&#45;&gt;Node10 -->
<g id="edge27" class="edge">
<title>Node20&#45;&gt;Node10</title>
<path fill="none" stroke="#63b8ff" d="M1738.07,-383.59C1658.48,-376.19 1497.11,-359.88 1361.5,-338 1358.64,-337.54 1355.73,-337.04 1352.78,-336.52"/>
<polygon fill="#63b8ff" stroke="#63b8ff" points="1738.01,-387.1 1748.29,-384.54 1738.65,-380.13 1738.01,-387.1"/>
</g>
<!-- Node20&#45;&gt;Node13 -->
<g id="edge28" class="edge">
<title>Node20&#45;&gt;Node13</title>
<path fill="none" stroke="#63b8ff" d="M1837.06,-384.85C1900.19,-379.69 2003.97,-366.93 2027.5,-338 2091.45,-259.35 1972.99,-199.01 2021.5,-110 2030.91,-92.73 2050.23,-81.15 2066.03,-74.14"/>
<polygon fill="#63b8ff" stroke="#63b8ff" points="1836.61,-381.37 1826.91,-385.64 1837.15,-388.35 1836.61,-381.37"/>
</g>
<!-- Node20&#45;&gt;Node16 -->
<g id="edge38" class="edge">
<title>Node20&#45;&gt;Node16</title>
<path fill="none" stroke="#63b8ff" d="M1738.05,-384.95C1674.45,-379.89 1569.3,-367.22 1545.5,-338 1516.87,-302.84 1585.83,-278.52 1632.94,-266.54"/>
<polygon fill="#63b8ff" stroke="#63b8ff" points="1738.03,-388.46 1748.27,-385.73 1738.56,-381.48 1738.03,-388.46"/>
</g>
<!-- Node20&#45;&gt;Node19 -->
<g id="edge37" class="edge">
<title>Node20&#45;&gt;Node19</title>
<path fill="none" stroke="#63b8ff" d="M1738.35,-379.09C1670.38,-366.77 1548.52,-344.67 1481.64,-332.55"/>
<polygon fill="#63b8ff" stroke="#63b8ff" points="1737.91,-382.57 1748.37,-380.91 1739.16,-375.68 1737.91,-382.57"/>
</g>
<!-- Node21 -->
<g id="node21" class="node">
<title>Node21</title>
<g id="a_node21"><a xlink:href="consensus_8cpp.html" target="_top" xlink:title=" ">
<polygon fill="white" stroke="#666666" points="1670.5,-332.5 1554.5,-332.5 1554.5,-313.5 1670.5,-313.5 1670.5,-332.5"/>
<text text-anchor="middle" x="1612.5" y="-320.5" font-family="Helvetica,sans-Serif" font-size="10.00">src/js/consensus.cpp</text>
</a>
</g>
</g>
<!-- Node20&#45;&gt;Node21 -->
<g id="edge29" class="edge">
<title>Node20&#45;&gt;Node21</title>
<path fill="none" stroke="#63b8ff" d="M1754.25,-375.84C1719.67,-363.2 1666.44,-343.73 1636.01,-332.6"/>
<polygon fill="#63b8ff" stroke="#63b8ff" points="1753.3,-379.22 1763.9,-379.37 1755.71,-372.65 1753.3,-379.22"/>
</g>
<!-- Node22 -->
<g id="node22" class="node">
<title>Node22</title>
<g id="a_node22"><a xlink:href="conv_8cpp.html" target="_top" xlink:title=" ">
<polygon fill="white" stroke="#666666" points="1776.5,-332.5 1688.5,-332.5 1688.5,-313.5 1776.5,-313.5 1776.5,-332.5"/>
<text text-anchor="middle" x="1732.5" y="-320.5" font-family="Helvetica,sans-Serif" font-size="10.00">src/js/conv.cpp</text>
</a>
</g>
</g>
<!-- Node20&#45;&gt;Node22 -->
<g id="edge31" class="edge">
<title>Node20&#45;&gt;Node22</title>
<path fill="none" stroke="#63b8ff" d="M1773.43,-371.62C1762.84,-359.31 1748.74,-342.89 1740.15,-332.91"/>
<polygon fill="#63b8ff" stroke="#63b8ff" points="1770.91,-374.07 1780.08,-379.37 1776.22,-369.5 1770.91,-374.07"/>
</g>
<!-- Node23 -->
<g id="node23" class="node">
<title>Node23</title>
<g id="a_node23"><a xlink:href="crypto_8cpp.html" target="_top" xlink:title=" ">
<polygon fill="white" stroke="#666666" points="1890.5,-332.5 1794.5,-332.5 1794.5,-313.5 1890.5,-313.5 1890.5,-332.5"/>
<text text-anchor="middle" x="1842.5" y="-320.5" font-family="Helvetica,sans-Serif" font-size="10.00">src/js/crypto.cpp</text>
</a>
</g>
</g>
<!-- Node20&#45;&gt;Node23 -->
<g id="edge33" class="edge">
<title>Node20&#45;&gt;Node23</title>
<path fill="none" stroke="#63b8ff" d="M1801.57,-371.62C1812.16,-359.31 1826.26,-342.89 1834.85,-332.91"/>
<polygon fill="#63b8ff" stroke="#63b8ff" points="1798.78,-369.5 1794.92,-379.37 1804.09,-374.07 1798.78,-369.5"/>
</g>
<!-- Node24 -->
<g id="node24" class="node">
<title>Node24</title>
<g id="a_node24"><a xlink:href="historical_8cpp.html" target="_top" xlink:title=" ">
<polygon fill="white" stroke="#666666" points="2018.5,-332.5 1908.5,-332.5 1908.5,-313.5 2018.5,-313.5 2018.5,-332.5"/>
<text text-anchor="middle" x="1963.5" y="-320.5" font-family="Helvetica,sans-Serif" font-size="10.00">src/js/historical.cpp</text>
</a>
</g>
</g>
<!-- Node20&#45;&gt;Node24 -->
<g id="edge35" class="edge">
<title>Node20&#45;&gt;Node24</title>
<path fill="none" stroke="#63b8ff" d="M1820.94,-375.84C1855.71,-363.2 1909.25,-343.73 1939.86,-332.6"/>
<polygon fill="#63b8ff" stroke="#63b8ff" points="1819.44,-372.66 1811.24,-379.37 1821.83,-379.24 1819.44,-372.66"/>
</g>
<!-- Node25 -->
<g id="node25" class="node">
<title>Node25</title>
<g id="a_node25"><a xlink:href="node__state_8h.html" target="_top" xlink:title=" ">
<polygon fill="white" stroke="#666666" points="2260.5,-200.5 2136.5,-200.5 2136.5,-181.5 2260.5,-181.5 2260.5,-200.5"/>
<text text-anchor="middle" x="2198.5" y="-188.5" font-family="Helvetica,sans-Serif" font-size="10.00">src/node/node_state.h</text>
</a>
</g>
</g>
<!-- Node20&#45;&gt;Node25 -->
<g id="edge39" class="edge">
<title>Node20&#45;&gt;Node25</title>
<path fill="none" stroke="#63b8ff" d="M1837.01,-385.31C1913.87,-380.28 2057.33,-367.2 2098.5,-338 2138.08,-309.93 2121.88,-281.19 2150.5,-242 2162.14,-226.06 2178.56,-210.02 2188.87,-200.56"/>
<polygon fill="#63b8ff" stroke="#63b8ff" points="1836.39,-381.85 1826.63,-385.97 1836.83,-388.83 1836.39,-381.85"/>
</g>
<!-- Node27 -->
<g id="node27" class="node">
<title>Node27</title>
<g id="a_node27"><a xlink:href="member__frontend_8h.html" target="_top" xlink:title=" ">
<polygon fill="white" stroke="#666666" points="2150.5,-140 2030.5,-140 2030.5,-110 2150.5,-110 2150.5,-140"/>
<text text-anchor="start" x="2038.5" y="-128" font-family="Helvetica,sans-Serif" font-size="10.00">src/node/rpc/member</text>
<text text-anchor="middle" x="2090.5" y="-117" font-family="Helvetica,sans-Serif" font-size="10.00">_frontend.h</text>
</a>
</g>
</g>
<!-- Node20&#45;&gt;Node27 -->
<g id="edge43" class="edge">
<title>Node20&#45;&gt;Node27</title>
<path fill="none" stroke="#63b8ff" d="M1836.89,-385.7C1907.04,-381.36 2030.38,-369.36 2060.5,-338 2113.79,-282.5 2100.52,-178.14 2093.48,-140.23"/>
<polygon fill="#63b8ff" stroke="#63b8ff" points="1836.3,-382.23 1826.53,-386.31 1836.71,-389.22 1836.3,-382.23"/>
</g>
<!-- Node28 -->
<g id="node28" class="node">
<title>Node28</title>
<g id="a_node28"><a xlink:href="node__frontend_8h.html" target="_top" xlink:title=" ">
<polygon fill="white" stroke="#666666" points="2308.5,-332.5 2150.5,-332.5 2150.5,-313.5 2308.5,-313.5 2308.5,-332.5"/>
<text text-anchor="middle" x="2229.5" y="-320.5" font-family="Helvetica,sans-Serif" font-size="10.00">src/node/rpc/node_frontend.h</text>
</a>
</g>
</g>
<!-- Node20&#45;&gt;Node28 -->
<g id="edge45" class="edge">
<title>Node20&#45;&gt;Node28</title>
<path fill="none" stroke="#63b8ff" d="M1836.44,-381.1C1903.96,-371.56 2029.5,-353.72 2136.5,-338 2148.45,-336.24 2161.27,-334.33 2173.45,-332.5"/>
<polygon fill="#63b8ff" stroke="#63b8ff" points="1835.92,-377.64 1826.51,-382.5 1836.9,-384.57 1835.92,-377.64"/>
</g>
<!-- Node21&#45;&gt;Node16 -->
<g id="edge30" class="edge">
<title>Node21&#45;&gt;Node16</title>
<path fill="none" stroke="#63b8ff" d="M1627.52,-305.98C1639.1,-293.62 1654.7,-276.99 1664.15,-266.91"/>
<polygon fill="#63b8ff" stroke="#63b8ff" points="1624.88,-303.68 1620.59,-313.37 1629.98,-308.47 1624.88,-303.68"/>
</g>
<!-- Node22&#45;&gt;Node16 -->
<g id="edge32" class="edge">
<title>Node22&#45;&gt;Node16</title>
<path fill="none" stroke="#63b8ff" d="M1717.48,-305.98C1705.9,-293.62 1690.3,-276.99 1680.85,-266.91"/>
<polygon fill="#63b8ff" stroke="#63b8ff" points="1715.02,-308.47 1724.41,-313.37 1720.12,-303.68 1715.02,-308.47"/>
</g>
<!-- Node23&#45;&gt;Node16 -->
<g id="edge34" class="edge">
<title>Node23&#45;&gt;Node16</title>
<path fill="none" stroke="#63b8ff" d="M1810.2,-309.84C1776.61,-297.2 1724.9,-277.73 1695.33,-266.6"/>
<polygon fill="#63b8ff" stroke="#63b8ff" points="1808.98,-313.12 1819.57,-313.37 1811.45,-306.57 1808.98,-313.12"/>
</g>
<!-- Node24&#45;&gt;Node16 -->
<g id="edge36" class="edge">
<title>Node24&#45;&gt;Node16</title>
<path fill="none" stroke="#63b8ff" d="M1914.65,-311.26C1857.4,-298.67 1763.69,-278.06 1711.21,-266.51"/>
<polygon fill="#63b8ff" stroke="#63b8ff" points="1914.04,-314.71 1924.56,-313.44 1915.54,-307.87 1914.04,-314.71"/>
</g>
<!-- Node25&#45;&gt;Node13 -->
<g id="edge40" class="edge">
<title>Node25&#45;&gt;Node13</title>
<path fill="none" stroke="#63b8ff" d="M2192.87,-171.89C2186.79,-154.51 2175.72,-128.28 2159.5,-110 2145.5,-94.22 2124.62,-81.81 2109.5,-74.15"/>
<polygon fill="#63b8ff" stroke="#63b8ff" points="2189.56,-173.02 2196.02,-181.42 2196.21,-170.82 2189.56,-173.02"/>
</g>
<!-- Node26 -->
<g id="node26" class="node">
<title>Node26</title>
<g id="a_node26"><a xlink:href="gov__effects_8h.html" target="_top" xlink:title=" ">
<polygon fill="white" stroke="#666666" points="2350.5,-134.5 2206.5,-134.5 2206.5,-115.5 2350.5,-115.5 2350.5,-134.5"/>
<text text-anchor="middle" x="2278.5" y="-122.5" font-family="Helvetica,sans-Serif" font-size="10.00">src/node/rpc/gov_effects.h</text>
</a>
</g>
</g>
<!-- Node25&#45;&gt;Node26 -->
<g id="edge41" class="edge">
<title>Node25&#45;&gt;Node26</title>
<path fill="none" stroke="#63b8ff" d="M2217.27,-174.99C2232.93,-162.46 2254.7,-145.04 2267.63,-134.7"/>
<polygon fill="#63b8ff" stroke="#63b8ff" points="2214.91,-172.39 2209.29,-181.37 2219.28,-177.85 2214.91,-172.39"/>
</g>
<!-- Node26&#45;&gt;Node13 -->
<g id="edge42" class="edge">
<title>Node26&#45;&gt;Node13</title>
<path fill="none" stroke="#63b8ff" d="M2241.42,-112.46C2205.06,-101.15 2150.47,-84.16 2117.87,-74.02"/>
<polygon fill="#63b8ff" stroke="#63b8ff" points="2240.57,-115.86 2251.16,-115.49 2242.65,-109.18 2240.57,-115.86"/>
</g>
<!-- Node27&#45;&gt;Node13 -->
<g id="edge44" class="edge">
<title>Node27&#45;&gt;Node13</title>
<path fill="none" stroke="#63b8ff" d="M2090.5,-99.75C2090.5,-90.72 2090.5,-81.03 2090.5,-74.27"/>
<polygon fill="#63b8ff" stroke="#63b8ff" points="2087,-99.84 2090.5,-109.84 2094,-99.84 2087,-99.84"/>
</g>
<!-- Node28&#45;&gt;Node13 -->
<g id="edge46" class="edge">
<title>Node28&#45;&gt;Node13</title>
<path fill="none" stroke="#63b8ff" d="M2250.64,-307.5C2300.36,-271.69 2416.41,-177.09 2359.5,-110 2333.4,-79.22 2222.74,-69.7 2151.74,-66.78"/>
<polygon fill="#63b8ff" stroke="#63b8ff" points="2248.59,-304.66 2242.45,-313.3 2252.63,-310.38 2248.59,-304.66"/>
</g>
<!-- Node29 -->
<g id="node29" class="node">
<title>Node29</title>
<g id="a_node29"><a xlink:href="jwt__key__auto__refresh_8h.html" target="_top" xlink:title=" ">
<polygon fill="white" stroke="#666666" points="2284,-272 2159,-272 2159,-242 2284,-242 2284,-272"/>
<text text-anchor="start" x="2167" y="-260" font-family="Helvetica,sans-Serif" font-size="10.00">src/node/jwt_key_auto</text>
<text text-anchor="middle" x="2221.5" y="-249" font-family="Helvetica,sans-Serif" font-size="10.00">_refresh.h</text>
</a>
</g>
</g>
<!-- Node28&#45;&gt;Node29 -->
<g id="edge47" class="edge">
<title>Node28&#45;&gt;Node29</title>
<path fill="none" stroke="#63b8ff" d="M2227.17,-303.35C2225.93,-293.47 2224.44,-281.51 2223.3,-272.36"/>
<polygon fill="#63b8ff" stroke="#63b8ff" points="2223.71,-303.88 2228.42,-313.37 2230.65,-303.01 2223.71,-303.88"/>
</g>
<!-- Node29&#45;&gt;Node25 -->
<g id="edge48" class="edge">
<title>Node29&#45;&gt;Node25</title>
<path fill="none" stroke="#63b8ff" d="M2212.97,-232.28C2209.03,-221.31 2204.59,-208.94 2201.68,-200.84"/>
<polygon fill="#63b8ff" stroke="#63b8ff" points="2209.72,-233.57 2216.4,-241.8 2216.31,-231.2 2209.72,-233.57"/>
</g>
</g>
</svg>
