<?xml version="1.0" encoding="UTF-8" standalone="no"?>
<!DOCTYPE svg PUBLIC "-//W3C//DTD SVG 1.1//EN"
 "http://www.w3.org/Graphics/SVG/1.1/DTD/svg11.dtd">
<!-- Generated by graphviz version 2.43.0 (0)
 -->
<!-- Title: src/host/lfs_file_handler.h Pages: 1 -->
<!--zoomable 379 -->
<svg id="main" version="1.1" xmlns="http://www.w3.org/2000/svg" xmlns:xlink="http://www.w3.org/1999/xlink" xml:space="preserve" onload="init(evt)">
<style type="text/css"><![CDATA[
.edge:hover path { stroke: red; }
.edge:hover polygon { stroke: red; fill: red; }
]]></style>
<script type="text/javascript"><![CDATA[
var edges = document.getElementsByTagName('g');
if (edges && edges.length) {
  for (var i=0;i<edges.length;i++) {
    if (edges[i].id.substr(0,4)=='edge') {
      edges[i].setAttribute('class','edge');
    }
  }
}
]]></script>
        <defs>
                <circle id="rim" cx="0" cy="0" r="7"/>
                <circle id="rim2" cx="0" cy="0" r="3.5"/>
                <g id="zoomPlus">
                        <use xlink:href="#rim" fill="#404040">
                                <set attributeName="fill" to="#808080" begin="zoomplus.mouseover" end="zoomplus.mouseout"/>
                        </use>
                        <path d="M-4,0h8M0,-4v8" fill="none" stroke="white" stroke-width="1.5" pointer-events="none"/>
                </g>
                <g id="zoomMin">
                        <use xlink:href="#rim" fill="#404040">
                                <set attributeName="fill" to="#808080" begin="zoomminus.mouseover" end="zoomminus.mouseout"/>
                        </use>
                        <path d="M-4,0h8" fill="none" stroke="white" stroke-width="1.5" pointer-events="none"/>
                </g>
                <g id="dirArrow">
                        <path fill="none" stroke="white" stroke-width="1.5" d="M0,-3.0v7 M-2.5,-0.5L0,-3.0L2.5,-0.5"/>
                </g>
               <g id="resetDef">
                       <use xlink:href="#rim2" fill="#404040">
                               <set attributeName="fill" to="#808080" begin="reset.mouseover" end="reset.mouseout"/>
                       </use>
               </g>
        </defs>

<script type="text/javascript">
var viewWidth = 1612;
var viewHeight = 379;
var sectionId = 'dynsection-0';
</script>
<script xlink:href="svgpan.js"/>
<svg id="graph" class="graph">
<g id="viewport">
<title>src/host/lfs_file_handler.h</title>
<!-- Node1 -->
<g id="node1" class="node">
<title>Node1</title>
<g id="a_node1"><a xlink:title=" ">
<polygon fill="#999999" stroke="#666666" points="1092.16,-371 952.16,-371 952.16,-352 1092.16,-352 1092.16,-371"/>
<text text-anchor="middle" x="1022.16" y="-359" font-family="Helvetica,sans-Serif" font-size="10.00">src/host/lfs_file_handler.h</text>
</a>
</g>
</g>
<!-- Node2 -->
<g id="node2" class="node">
<title>Node2</title>
<g id="a_node2"><a xlink:href="messaging_8h.html" target="_top" xlink:title=" ">
<polygon fill="white" stroke="#666666" points="1019.66,-316 926.66,-316 926.66,-297 1019.66,-297 1019.66,-316"/>
<text text-anchor="middle" x="973.16" y="-304" font-family="Helvetica,sans-Serif" font-size="10.00">ds/messaging.h</text>
</a>
</g>
</g>
<!-- Node1&#45;&gt;Node2 -->
<g id="edge1" class="edge">
<title>Node1&#45;&gt;Node2</title>
<path fill="none" stroke="#63b8ff" d="M1014.06,-351.75C1007,-344.11 996.57,-332.82 988.01,-323.56"/>
<polygon fill="#63b8ff" stroke="#63b8ff" points="990.46,-321.06 981.1,-316.09 985.32,-325.81 990.46,-321.06"/>
</g>
<!-- Node44 -->
<g id="node44" class="node">
<title>Node44</title>
<g id="a_node44"><a xlink:href="lfs__ringbuffer__types_8h.html" target="_top" xlink:title=" ">
<polygon fill="white" stroke="#666666" points="901.16,-261 775.16,-261 775.16,-231 901.16,-231 901.16,-261"/>
<text text-anchor="start" x="783.16" y="-249" font-family="Helvetica,sans-Serif" font-size="10.00">indexing/lfs_ringbuffer</text>
<text text-anchor="middle" x="838.16" y="-238" font-family="Helvetica,sans-Serif" font-size="10.00">_types.h</text>
</a>
</g>
</g>
<!-- Node1&#45;&gt;Node44 -->
<g id="edge68" class="edge">
<title>Node1&#45;&gt;Node44</title>
<path fill="none" stroke="#63b8ff" d="M996.28,-351.95C974.56,-344.2 943.15,-331.6 918.16,-316 896.43,-302.44 874.6,-283.14 859.24,-268.4"/>
<polygon fill="#63b8ff" stroke="#63b8ff" points="861.44,-265.65 851.84,-261.16 856.54,-270.65 861.44,-265.65"/>
</g>
<!-- Node47 -->
<g id="node47" class="node">
<title>Node47</title>
<g id="a_node47"><a xlink:title=" ">
<polygon fill="#e0e0e0" stroke="#999999" points="1106.16,-316 1038.16,-316 1038.16,-297 1106.16,-297 1106.16,-316"/>
<text text-anchor="middle" x="1072.16" y="-304" font-family="Helvetica,sans-Serif" font-size="10.00">filesystem</text>
</a>
</g>
</g>
<!-- Node1&#45;&gt;Node47 -->
<g id="edge75" class="edge">
<title>Node1&#45;&gt;Node47</title>
<path fill="none" stroke="#63b8ff" d="M1030.41,-351.75C1037.62,-344.11 1048.27,-332.82 1057,-323.56"/>
<polygon fill="#63b8ff" stroke="#63b8ff" points="1059.74,-325.76 1064.05,-316.09 1054.65,-320.96 1059.74,-325.76"/>
</g>
<!-- Node48 -->
<g id="node48" class="node">
<title>Node48</title>
<g id="a_node48"><a xlink:title=" ">
<polygon fill="#e0e0e0" stroke="#999999" points="1179.66,-316 1124.66,-316 1124.66,-297 1179.66,-297 1179.66,-316"/>
<text text-anchor="middle" x="1152.16" y="-304" font-family="Helvetica,sans-Serif" font-size="10.00">fstream</text>
</a>
</g>
</g>
<!-- Node1&#45;&gt;Node48 -->
<g id="edge76" class="edge">
<title>Node1&#45;&gt;Node48</title>
<path fill="none" stroke="#63b8ff" d="M1043.04,-351.98C1064.24,-343.34 1097.28,-329.87 1121.46,-320.02"/>
<polygon fill="#63b8ff" stroke="#63b8ff" points="1122.95,-323.19 1130.89,-316.17 1120.31,-316.7 1122.95,-323.19"/>
</g>
<!-- Node3 -->
<g id="node3" class="node">
<title>Node3</title>
<g id="a_node3"><a xlink:href="logger_8h.html" target="_top" xlink:title=" ">
<polygon fill="white" stroke="#666666" points="513.66,-255.5 426.66,-255.5 426.66,-236.5 513.66,-236.5 513.66,-255.5"/>
<text text-anchor="middle" x="470.16" y="-243.5" font-family="Helvetica,sans-Serif" font-size="10.00">ccf/ds/logger.h</text>
</a>
</g>
</g>
<!-- Node2&#45;&gt;Node3 -->
<g id="edge2" class="edge">
<title>Node2&#45;&gt;Node3</title>
<path fill="none" stroke="#63b8ff" d="M926.29,-300.05C832.66,-289.16 622.98,-264.77 523.93,-253.25"/>
<polygon fill="#63b8ff" stroke="#63b8ff" points="524.18,-249.76 513.84,-252.08 523.37,-256.71 524.18,-249.76"/>
</g>
<!-- Node10 -->
<g id="node10" class="node">
<title>Node10</title>
<g id="a_node10"><a xlink:title=" ">
<polygon fill="#e0e0e0" stroke="#999999" points="55.16,-140 17.16,-140 17.16,-121 55.16,-121 55.16,-140"/>
<text text-anchor="middle" x="36.16" y="-128" font-family="Helvetica,sans-Serif" font-size="10.00">map</text>
</a>
</g>
</g>
<!-- Node2&#45;&gt;Node10 -->
<g id="edge66" class="edge">
<title>Node2&#45;&gt;Node10</title>
<path fill="none" stroke="#63b8ff" d="M926.49,-302.84C749.48,-292.36 126.04,-251.66 59.16,-195 46.17,-184 40.51,-165.05 38.05,-150.71"/>
<polygon fill="#63b8ff" stroke="#63b8ff" points="41.47,-149.88 36.68,-140.43 34.53,-150.81 41.47,-149.88"/>
</g>
<!-- Node18 -->
<g id="node18" class="node">
<title>Node18</title>
<g id="a_node18"><a xlink:href="ring__buffer_8h.html" target="_top" xlink:title=" ">
<polygon fill="white" stroke="#666666" points="1176.66,-255.5 1099.66,-255.5 1099.66,-236.5 1176.66,-236.5 1176.66,-255.5"/>
<text text-anchor="middle" x="1138.16" y="-243.5" font-family="Helvetica,sans-Serif" font-size="10.00">ring_buffer.h</text>
</a>
</g>
</g>
<!-- Node2&#45;&gt;Node18 -->
<g id="edge19" class="edge">
<title>Node2&#45;&gt;Node18</title>
<path fill="none" stroke="#63b8ff" d="M997.15,-296.99C1025.38,-286.99 1072.43,-270.3 1104.35,-258.99"/>
<polygon fill="#63b8ff" stroke="#63b8ff" points="1105.88,-262.16 1114.13,-255.52 1103.54,-255.56 1105.88,-262.16"/>
</g>
<!-- Node37 -->
<g id="node37" class="node">
<title>Node37</title>
<g id="a_node37"><a xlink:title=" ">
<polygon fill="#e0e0e0" stroke="#999999" points="1603.66,-19 1538.66,-19 1538.66,0 1603.66,0 1603.66,-19"/>
<text text-anchor="middle" x="1571.16" y="-7" font-family="Helvetica,sans-Serif" font-size="10.00">stdexcept</text>
</a>
</g>
</g>
<!-- Node2&#45;&gt;Node37 -->
<g id="edge67" class="edge">
<title>Node2&#45;&gt;Node37</title>
<path fill="none" stroke="#63b8ff" d="M1020.08,-297.41C1161.05,-272.93 1571.16,-200.53 1571.16,-186.5 1571.16,-186.5 1571.16,-186.5 1571.16,-129.5 1571.16,-94.15 1571.16,-52.9 1571.16,-29.42"/>
<polygon fill="#63b8ff" stroke="#63b8ff" points="1574.66,-29.16 1571.16,-19.16 1567.66,-29.16 1574.66,-29.16"/>
</g>
<!-- Node40 -->
<g id="node40" class="node">
<title>Node40</title>
<g id="a_node40"><a xlink:title=" ">
<polygon fill="#e0e0e0" stroke="#999999" points="1118.16,-140 1068.16,-140 1068.16,-121 1118.16,-121 1118.16,-140"/>
<text text-anchor="middle" x="1093.16" y="-128" font-family="Helvetica,sans-Serif" font-size="10.00">atomic</text>
</a>
</g>
</g>
<!-- Node2&#45;&gt;Node40 -->
<g id="edge64" class="edge">
<title>Node2&#45;&gt;Node40</title>
<path fill="none" stroke="#63b8ff" d="M990.08,-296.93C1004,-289.16 1023.44,-276.55 1036.16,-261 1064.04,-226.88 1080.83,-177 1088.39,-150.19"/>
<polygon fill="#63b8ff" stroke="#63b8ff" points="1091.85,-150.79 1091.07,-140.23 1085.09,-148.98 1091.85,-150.79"/>
</g>
<!-- Node43 -->
<g id="node43" class="node">
<title>Node43</title>
<g id="a_node43"><a xlink:title=" ">
<polygon fill="#e0e0e0" stroke="#999999" points="1026.66,-255.5 919.66,-255.5 919.66,-236.5 1026.66,-236.5 1026.66,-255.5"/>
<text text-anchor="middle" x="973.16" y="-243.5" font-family="Helvetica,sans-Serif" font-size="10.00">condition_variable</text>
</a>
</g>
</g>
<!-- Node2&#45;&gt;Node43 -->
<g id="edge65" class="edge">
<title>Node2&#45;&gt;Node43</title>
<path fill="none" stroke="#63b8ff" d="M973.16,-296.87C973.16,-288.75 973.16,-276.31 973.16,-265.89"/>
<polygon fill="#63b8ff" stroke="#63b8ff" points="976.66,-265.67 973.16,-255.67 969.66,-265.67 976.66,-265.67"/>
</g>
<!-- Node4 -->
<g id="node4" class="node">
<title>Node4</title>
<g id="a_node4"><a xlink:href="enum__formatter_8h.html" target="_top" xlink:title=" ">
<polygon fill="white" stroke="#666666" points="330.16,-195 194.16,-195 194.16,-176 330.16,-176 330.16,-195"/>
<text text-anchor="middle" x="262.16" y="-183" font-family="Helvetica,sans-Serif" font-size="10.00">ccf/ds/enum_formatter.h</text>
</a>
</g>
</g>
<!-- Node3&#45;&gt;Node4 -->
<g id="edge3" class="edge">
<title>Node3&#45;&gt;Node4</title>
<path fill="none" stroke="#63b8ff" d="M439.91,-236.49C403.56,-226.27 342.43,-209.08 302.19,-197.76"/>
<polygon fill="#63b8ff" stroke="#63b8ff" points="303.01,-194.35 292.44,-195.02 301.12,-201.09 303.01,-194.35"/>
</g>
<!-- Node5 -->
<g id="node5" class="node">
<title>Node5</title>
<g id="a_node5"><a xlink:title=" ">
<polygon fill="#e0e0e0" stroke="#999999" points="402.66,-140 323.66,-140 323.66,-121 402.66,-121 402.66,-140"/>
<text text-anchor="middle" x="363.16" y="-128" font-family="Helvetica,sans-Serif" font-size="10.00">fmt/format.h</text>
</a>
</g>
</g>
<!-- Node3&#45;&gt;Node5 -->
<g id="edge13" class="edge">
<title>Node3&#45;&gt;Node5</title>
<path fill="none" stroke="#63b8ff" d="M440.59,-236.44C419.75,-228.88 392.85,-215.77 377.16,-195 367.48,-182.19 364.23,-164.02 363.26,-150.4"/>
<polygon fill="#63b8ff" stroke="#63b8ff" points="366.75,-150.11 362.88,-140.24 359.75,-150.36 366.75,-150.11"/>
</g>
<!-- Node6 -->
<g id="node6" class="node">
<title>Node6</title>
<g id="a_node6"><a xlink:href="thread__ids_8h.html" target="_top" xlink:title=" ">
<polygon fill="white" stroke="#666666" points="176.16,-195 68.16,-195 68.16,-176 176.16,-176 176.16,-195"/>
<text text-anchor="middle" x="122.16" y="-183" font-family="Helvetica,sans-Serif" font-size="10.00">ccf/ds/thread_ids.h</text>
</a>
</g>
</g>
<!-- Node3&#45;&gt;Node6 -->
<g id="edge5" class="edge">
<title>Node3&#45;&gt;Node6</title>
<path fill="none" stroke="#63b8ff" d="M426.43,-237.65C364.84,-227.3 252.29,-208.38 182.69,-196.68"/>
<polygon fill="#63b8ff" stroke="#63b8ff" points="183.18,-193.21 172.74,-195 182.02,-200.11 183.18,-193.21"/>
</g>
<!-- Node12 -->
<g id="node12" class="node">
<title>Node12</title>
<g id="a_node12"><a xlink:title=" ">
<polygon fill="#e0e0e0" stroke="#999999" points="465.66,-195 386.66,-195 386.66,-176 465.66,-176 465.66,-195"/>
<text text-anchor="middle" x="426.16" y="-183" font-family="Helvetica,sans-Serif" font-size="10.00">fmt/chrono.h</text>
</a>
</g>
</g>
<!-- Node3&#45;&gt;Node12 -->
<g id="edge12" class="edge">
<title>Node3&#45;&gt;Node12</title>
<path fill="none" stroke="#63b8ff" d="M463.66,-236.37C457.16,-227.73 446.99,-214.2 438.88,-203.42"/>
<polygon fill="#63b8ff" stroke="#63b8ff" points="441.48,-201.06 432.68,-195.17 435.89,-205.26 441.48,-201.06"/>
</g>
<!-- Node13 -->
<g id="node13" class="node">
<title>Node13</title>
<g id="a_node13"><a xlink:title=" ">
<polygon fill="#e0e0e0" stroke="#999999" points="543.16,-195 483.16,-195 483.16,-176 543.16,-176 543.16,-195"/>
<text text-anchor="middle" x="513.16" y="-183" font-family="Helvetica,sans-Serif" font-size="10.00">iostream</text>
</a>
</g>
</g>
<!-- Node3&#45;&gt;Node13 -->
<g id="edge14" class="edge">
<title>Node3&#45;&gt;Node13</title>
<path fill="none" stroke="#63b8ff" d="M476.5,-236.37C482.85,-227.73 492.79,-214.2 500.72,-203.42"/>
<polygon fill="#63b8ff" stroke="#63b8ff" points="503.68,-205.3 506.79,-195.17 498.04,-201.15 503.68,-205.3"/>
</g>
<!-- Node14 -->
<g id="node14" class="node">
<title>Node14</title>
<g id="a_node14"><a xlink:title=" ">
<polygon fill="#e0e0e0" stroke="#999999" points="671.16,-195 561.16,-195 561.16,-176 671.16,-176 671.16,-195"/>
<text text-anchor="middle" x="616.16" y="-183" font-family="Helvetica,sans-Serif" font-size="10.00">nlohmann/json.hpp</text>
</a>
</g>
</g>
<!-- Node3&#45;&gt;Node14 -->
<g id="edge15" class="edge">
<title>Node3&#45;&gt;Node14</title>
<path fill="none" stroke="#63b8ff" d="M491.39,-236.49C516.15,-226.57 557.28,-210.09 585.5,-198.78"/>
<polygon fill="#63b8ff" stroke="#63b8ff" points="586.92,-201.99 594.9,-195.02 584.32,-195.49 586.92,-201.99"/>
</g>
<!-- Node15 -->
<g id="node15" class="node">
<title>Node15</title>
<g id="a_node15"><a xlink:title=" ">
<polygon fill="#e0e0e0" stroke="#999999" points="626.16,-140 570.16,-140 570.16,-121 626.16,-121 626.16,-140"/>
<text text-anchor="middle" x="598.16" y="-128" font-family="Helvetica,sans-Serif" font-size="10.00">optional</text>
</a>
</g>
</g>
<!-- Node3&#45;&gt;Node15 -->
<g id="edge16" class="edge">
<title>Node3&#45;&gt;Node15</title>
<path fill="none" stroke="#63b8ff" d="M513.79,-243.9C585.66,-241.06 723.98,-230.95 754.16,-195 759.58,-188.53 759.24,-182.74 754.16,-176 746.92,-166.41 679.97,-149.82 636.16,-139.83"/>
<polygon fill="#63b8ff" stroke="#63b8ff" points="636.91,-136.41 626.38,-137.63 635.37,-143.24 636.91,-136.41"/>
</g>
<!-- Node16 -->
<g id="node16" class="node">
<title>Node16</title>
<g id="a_node16"><a xlink:title=" ">
<polygon fill="#e0e0e0" stroke="#999999" points="745.16,-195 689.16,-195 689.16,-176 745.16,-176 745.16,-195"/>
<text text-anchor="middle" x="717.16" y="-183" font-family="Helvetica,sans-Serif" font-size="10.00">sstream</text>
</a>
</g>
</g>
<!-- Node3&#45;&gt;Node16 -->
<g id="edge17" class="edge">
<title>Node3&#45;&gt;Node16</title>
<path fill="none" stroke="#63b8ff" d="M506.07,-236.49C552.19,-225.57 631.89,-206.69 679.05,-195.53"/>
<polygon fill="#63b8ff" stroke="#63b8ff" points="679.95,-198.91 688.88,-193.2 678.34,-192.1 679.95,-198.91"/>
</g>
<!-- Node17 -->
<g id="node17" class="node">
<title>Node17</title>
<g id="a_node17"><a xlink:title=" ">
<polygon fill="#e0e0e0" stroke="#999999" points="619.66,-19 550.66,-19 550.66,0 619.66,0 619.66,-19"/>
<text text-anchor="middle" x="585.16" y="-7" font-family="Helvetica,sans-Serif" font-size="10.00">type_traits</text>
</a>
</g>
</g>
<!-- Node3&#45;&gt;Node17 -->
<g id="edge18" class="edge">
<title>Node3&#45;&gt;Node17</title>
<path fill="none" stroke="#63b8ff" d="M426.53,-243.46C334.27,-239.6 122.61,-227.4 59.16,-195 23.58,-176.84 -17.25,-151.82 8.16,-121 75.83,-38.88 416.54,-17.22 540.22,-12.01"/>
<polygon fill="#63b8ff" stroke="#63b8ff" points="540.62,-15.5 550.47,-11.6 540.33,-8.51 540.62,-15.5"/>
</g>
<!-- Node4&#45;&gt;Node5 -->
<g id="edge4" class="edge">
<title>Node4&#45;&gt;Node5</title>
<path fill="none" stroke="#63b8ff" d="M278.38,-175.98C294.34,-167.61 318.94,-154.7 337.53,-144.95"/>
<polygon fill="#63b8ff" stroke="#63b8ff" points="339.4,-147.92 346.63,-140.17 336.15,-141.72 339.4,-147.92"/>
</g>
<!-- Node6&#45;&gt;Node5 -->
<g id="edge6" class="edge">
<title>Node6&#45;&gt;Node5</title>
<path fill="none" stroke="#63b8ff" d="M160.88,-175.98C202.56,-166.82 268.98,-152.21 314.24,-142.26"/>
<polygon fill="#63b8ff" stroke="#63b8ff" points="315.12,-145.65 324.13,-140.08 313.61,-138.81 315.12,-145.65"/>
</g>
<!-- Node7 -->
<g id="node7" class="node">
<title>Node7</title>
<g id="a_node7"><a xlink:title=" ">
<polygon fill="#e0e0e0" stroke="#999999" points="159.16,-140 73.16,-140 73.16,-121 159.16,-121 159.16,-140"/>
<text text-anchor="middle" x="116.16" y="-128" font-family="Helvetica,sans-Serif" font-size="10.00">fmt/ostream.h</text>
</a>
</g>
</g>
<!-- Node6&#45;&gt;Node7 -->
<g id="edge7" class="edge">
<title>Node6&#45;&gt;Node7</title>
<path fill="none" stroke="#63b8ff" d="M121.17,-175.75C120.38,-168.8 119.25,-158.85 118.27,-150.13"/>
<polygon fill="#63b8ff" stroke="#63b8ff" points="121.73,-149.63 117.13,-140.09 114.78,-150.42 121.73,-149.63"/>
</g>
<!-- Node8 -->
<g id="node8" class="node">
<title>Node8</title>
<g id="a_node8"><a xlink:title=" ">
<polygon fill="#e0e0e0" stroke="#999999" points="238.66,-140 177.66,-140 177.66,-121 238.66,-121 238.66,-140"/>
<text text-anchor="middle" x="208.16" y="-128" font-family="Helvetica,sans-Serif" font-size="10.00">fmt/std.h</text>
</a>
</g>
</g>
<!-- Node6&#45;&gt;Node8 -->
<g id="edge8" class="edge">
<title>Node6&#45;&gt;Node8</title>
<path fill="none" stroke="#63b8ff" d="M135.97,-175.98C149.31,-167.77 169.74,-155.18 185.46,-145.49"/>
<polygon fill="#63b8ff" stroke="#63b8ff" points="187.41,-148.4 194.09,-140.17 183.74,-142.44 187.41,-148.4"/>
</g>
<!-- Node9 -->
<g id="node9" class="node">
<title>Node9</title>
<g id="a_node9"><a xlink:title=" ">
<polygon fill="#e0e0e0" stroke="#999999" points="822.16,-140 778.16,-140 778.16,-121 822.16,-121 822.16,-140"/>
<text text-anchor="middle" x="800.16" y="-128" font-family="Helvetica,sans-Serif" font-size="10.00">limits</text>
</a>
</g>
</g>
<!-- Node6&#45;&gt;Node9 -->
<g id="edge9" class="edge">
<title>Node6&#45;&gt;Node9</title>
<path fill="none" stroke="#63b8ff" d="M176.42,-176.92C179.37,-176.59 182.3,-176.28 185.16,-176 440.68,-150.92 510.85,-181.81 767.92,-139.84"/>
<polygon fill="#63b8ff" stroke="#63b8ff" points="768.63,-143.27 777.93,-138.18 767.49,-136.36 768.63,-143.27"/>
</g>
<!-- Node6&#45;&gt;Node10 -->
<g id="edge10" class="edge">
<title>Node6&#45;&gt;Node10</title>
<path fill="none" stroke="#63b8ff" d="M108.34,-175.98C95,-167.77 74.58,-155.18 58.85,-145.49"/>
<polygon fill="#63b8ff" stroke="#63b8ff" points="60.57,-142.44 50.22,-140.17 56.9,-148.4 60.57,-142.44"/>
</g>
<!-- Node11 -->
<g id="node11" class="node">
<title>Node11</title>
<g id="a_node11"><a xlink:title=" ">
<polygon fill="#e0e0e0" stroke="#999999" points="305.16,-140 257.16,-140 257.16,-121 305.16,-121 305.16,-140"/>
<text text-anchor="middle" x="281.16" y="-128" font-family="Helvetica,sans-Serif" font-size="10.00">thread</text>
</a>
</g>
</g>
<!-- Node6&#45;&gt;Node11 -->
<g id="edge11" class="edge">
<title>Node6&#45;&gt;Node11</title>
<path fill="none" stroke="#63b8ff" d="M147.7,-175.98C174.75,-166.97 217.59,-152.69 247.4,-142.75"/>
<polygon fill="#63b8ff" stroke="#63b8ff" points="248.6,-146.04 256.98,-139.56 246.38,-139.4 248.6,-146.04"/>
</g>
<!-- Node19 -->
<g id="node19" class="node">
<title>Node19</title>
<g id="a_node19"><a xlink:href="mem_8h.html" target="_top" xlink:title=" ">
<polygon fill="white" stroke="#666666" points="1291.16,-195 1205.16,-195 1205.16,-176 1291.16,-176 1291.16,-195"/>
<text text-anchor="middle" x="1248.16" y="-183" font-family="Helvetica,sans-Serif" font-size="10.00">ccf/pal/mem.h</text>
</a>
</g>
</g>
<!-- Node18&#45;&gt;Node19 -->
<g id="edge20" class="edge">
<title>Node18&#45;&gt;Node19</title>
<path fill="none" stroke="#63b8ff" d="M1154.39,-236.37C1172.42,-226.78 1201.77,-211.17 1222.84,-199.97"/>
<polygon fill="#63b8ff" stroke="#63b8ff" points="1224.67,-202.95 1231.86,-195.17 1221.39,-196.77 1224.67,-202.95"/>
</g>
<!-- Node21 -->
<g id="node21" class="node">
<title>Node21</title>
<g id="a_node21"><a xlink:title=" ">
<polygon fill="#e0e0e0" stroke="#999999" points="1520.16,-19 1470.16,-19 1470.16,0 1520.16,0 1520.16,-19"/>
<text text-anchor="middle" x="1495.16" y="-7" font-family="Helvetica,sans-Serif" font-size="10.00">cstring</text>
</a>
</g>
</g>
<!-- Node18&#45;&gt;Node21 -->
<g id="edge62" class="edge">
<title>Node18&#45;&gt;Node21</title>
<path fill="none" stroke="#63b8ff" d="M1176.72,-236.74C1235.32,-223.02 1348.86,-191.8 1433.16,-140 1465.11,-120.36 1481.51,-119.08 1497.16,-85 1505.24,-67.4 1503.19,-44.91 1500.09,-29.27"/>
<polygon fill="#63b8ff" stroke="#63b8ff" points="1503.43,-28.22 1497.78,-19.26 1496.61,-29.79 1503.43,-28.22"/>
</g>
<!-- Node22 -->
<g id="node22" class="node">
<title>Node22</title>
<g id="a_node22"><a xlink:href="ring__buffer__types_8h.html" target="_top" xlink:title=" ">
<polygon fill="white" stroke="#666666" points="949.16,-195 839.16,-195 839.16,-176 949.16,-176 949.16,-195"/>
<text text-anchor="middle" x="894.16" y="-183" font-family="Helvetica,sans-Serif" font-size="10.00">ring_buffer_types.h</text>
</a>
</g>
</g>
<!-- Node18&#45;&gt;Node22 -->
<g id="edge24" class="edge">
<title>Node18&#45;&gt;Node22</title>
<path fill="none" stroke="#63b8ff" d="M1102.68,-236.49C1059.58,-226.16 986.8,-208.71 939.63,-197.4"/>
<polygon fill="#63b8ff" stroke="#63b8ff" points="940.22,-193.94 929.68,-195.02 938.59,-200.75 940.22,-193.94"/>
</g>
<!-- Node18&#45;&gt;Node40 -->
<g id="edge61" class="edge">
<title>Node18&#45;&gt;Node40</title>
<path fill="none" stroke="#63b8ff" d="M1133.3,-236.34C1127.92,-226.52 1119.2,-209.93 1113.16,-195 1107.19,-180.25 1101.86,-163 1098.2,-150.2"/>
<polygon fill="#63b8ff" stroke="#63b8ff" points="1101.49,-148.98 1095.45,-140.28 1094.75,-150.85 1101.49,-148.98"/>
</g>
<!-- Node42 -->
<g id="node42" class="node">
<title>Node42</title>
<g id="a_node42"><a xlink:title=" ">
<polygon fill="#e0e0e0" stroke="#999999" points="1186.66,-195 1121.66,-195 1121.66,-176 1186.66,-176 1186.66,-195"/>
<text text-anchor="middle" x="1154.16" y="-183" font-family="Helvetica,sans-Serif" font-size="10.00">functional</text>
</a>
</g>
</g>
<!-- Node18&#45;&gt;Node42 -->
<g id="edge63" class="edge">
<title>Node18&#45;&gt;Node42</title>
<path fill="none" stroke="#63b8ff" d="M1140.52,-236.37C1142.76,-228.16 1146.21,-215.54 1149.08,-205.05"/>
<polygon fill="#63b8ff" stroke="#63b8ff" points="1152.52,-205.74 1151.79,-195.17 1145.77,-203.89 1152.52,-205.74"/>
</g>
<!-- Node19&#45;&gt;Node9 -->
<g id="edge23" class="edge">
<title>Node19&#45;&gt;Node9</title>
<path fill="none" stroke="#63b8ff" d="M1205.06,-177.24C1202.05,-176.8 1199.06,-176.38 1196.16,-176 1037.84,-155.27 993.26,-169.07 832.65,-139.97"/>
<polygon fill="#63b8ff" stroke="#63b8ff" points="832.87,-136.45 822.4,-138.08 831.6,-143.34 832.87,-136.45"/>
</g>
<!-- Node20 -->
<g id="node20" class="node">
<title>Node20</title>
<g id="a_node20"><a xlink:title=" ">
<polygon fill="#e0e0e0" stroke="#999999" points="1274.66,-140 1221.66,-140 1221.66,-121 1274.66,-121 1274.66,-140"/>
<text text-anchor="middle" x="1248.16" y="-128" font-family="Helvetica,sans-Serif" font-size="10.00">stdlib.h</text>
</a>
</g>
</g>
<!-- Node19&#45;&gt;Node20 -->
<g id="edge21" class="edge">
<title>Node19&#45;&gt;Node20</title>
<path fill="none" stroke="#63b8ff" d="M1248.16,-175.75C1248.16,-168.8 1248.16,-158.85 1248.16,-150.13"/>
<polygon fill="#63b8ff" stroke="#63b8ff" points="1251.66,-150.09 1248.16,-140.09 1244.66,-150.09 1251.66,-150.09"/>
</g>
<!-- Node19&#45;&gt;Node21 -->
<g id="edge22" class="edge">
<title>Node19&#45;&gt;Node21</title>
<path fill="none" stroke="#63b8ff" d="M1291.36,-177.64C1343.31,-167.08 1429.46,-141.74 1477.16,-85 1490.23,-69.44 1494.11,-45.93 1495.12,-29.49"/>
<polygon fill="#63b8ff" stroke="#63b8ff" points="1498.62,-29.53 1495.43,-19.42 1491.62,-29.31 1498.62,-29.53"/>
</g>
<!-- Node22&#45;&gt;Node5 -->
<g id="edge56" class="edge">
<title>Node22&#45;&gt;Node5</title>
<path fill="none" stroke="#63b8ff" d="M838.94,-180.92C750.88,-174.87 573.04,-161.32 412.71,-140.11"/>
<polygon fill="#63b8ff" stroke="#63b8ff" points="413.04,-136.62 402.67,-138.77 412.12,-143.56 413.04,-136.62"/>
</g>
<!-- Node22&#45;&gt;Node15 -->
<g id="edge57" class="edge">
<title>Node22&#45;&gt;Node15</title>
<path fill="none" stroke="#63b8ff" d="M843,-175.94C791.66,-167.26 710.32,-153.24 640.16,-140 639.06,-139.79 637.95,-139.58 636.82,-139.37"/>
<polygon fill="#63b8ff" stroke="#63b8ff" points="637.09,-135.85 626.6,-137.36 635.74,-142.72 637.09,-135.85"/>
</g>
<!-- Node23 -->
<g id="node23" class="node">
<title>Node23</title>
<g id="a_node23"><a xlink:href="include_2ccf_2ds_2hash_8h.html" target="_top" xlink:title=" ">
<polygon fill="white" stroke="#666666" points="1050.16,-140 970.16,-140 970.16,-121 1050.16,-121 1050.16,-140"/>
<text text-anchor="middle" x="1010.16" y="-128" font-family="Helvetica,sans-Serif" font-size="10.00">ccf/ds/hash.h</text>
</a>
</g>
</g>
<!-- Node22&#45;&gt;Node23 -->
<g id="edge25" class="edge">
<title>Node22&#45;&gt;Node23</title>
<path fill="none" stroke="#63b8ff" d="M912.79,-175.98C931.45,-167.46 960.41,-154.23 981.9,-144.41"/>
<polygon fill="#63b8ff" stroke="#63b8ff" points="983.54,-147.51 991.18,-140.17 980.63,-141.14 983.54,-147.51"/>
</g>
<!-- Node27 -->
<g id="node27" class="node">
<title>Node27</title>
<g id="a_node27"><a xlink:title=" ">
<polygon fill="#e0e0e0" stroke="#999999" points="957.66,-19 910.66,-19 910.66,0 957.66,0 957.66,-19"/>
<text text-anchor="middle" x="934.16" y="-7" font-family="Helvetica,sans-Serif" font-size="10.00">vector</text>
</a>
</g>
</g>
<!-- Node22&#45;&gt;Node27 -->
<g id="edge60" class="edge">
<title>Node22&#45;&gt;Node27</title>
<path fill="none" stroke="#63b8ff" d="M900.44,-175.78C906.33,-167.15 914.84,-153.32 919.16,-140 931.45,-102.1 933.93,-55.09 934.28,-29.42"/>
<polygon fill="#63b8ff" stroke="#63b8ff" points="937.78,-29.25 934.32,-19.23 930.78,-29.22 937.78,-29.25"/>
</g>
<!-- Node31 -->
<g id="node31" class="node">
<title>Node31</title>
<g id="a_node31"><a xlink:href="nonstd_8h.html" target="_top" xlink:title=" ">
<polygon fill="white" stroke="#666666" points="808.16,-79.5 718.16,-79.5 718.16,-60.5 808.16,-60.5 808.16,-79.5"/>
<text text-anchor="middle" x="763.16" y="-67.5" font-family="Helvetica,sans-Serif" font-size="10.00">ccf/ds/nonstd.h</text>
</a>
</g>
</g>
<!-- Node22&#45;&gt;Node31 -->
<g id="edge35" class="edge">
<title>Node22&#45;&gt;Node31</title>
<path fill="none" stroke="#63b8ff" d="M846.24,-176C794.9,-166.4 719.59,-150.73 711.16,-140 696.46,-121.3 719.91,-99.3 739.89,-85.26"/>
<polygon fill="#63b8ff" stroke="#63b8ff" points="742.03,-88.04 748.4,-79.58 738.14,-82.22 742.03,-88.04"/>
</g>
<!-- Node34 -->
<g id="node34" class="node">
<title>Node34</title>
<g id="a_node34"><a xlink:title=" ">
<polygon fill="#e0e0e0" stroke="#999999" points="682.16,-19 638.16,-19 638.16,0 682.16,0 682.16,-19"/>
<text text-anchor="middle" x="660.16" y="-7" font-family="Helvetica,sans-Serif" font-size="10.00">string</text>
</a>
</g>
</g>
<!-- Node22&#45;&gt;Node34 -->
<g id="edge59" class="edge">
<title>Node22&#45;&gt;Node34</title>
<path fill="none" stroke="#63b8ff" d="M845.28,-175.98C767.54,-161.25 621.74,-128.38 595.16,-85 588.19,-73.63 588.94,-66.79 595.16,-55 602.39,-41.27 615.98,-30.97 628.87,-23.76"/>
<polygon fill="#63b8ff" stroke="#63b8ff" points="630.74,-26.73 638.04,-19.05 627.54,-20.51 630.74,-26.73"/>
</g>
<!-- Node35 -->
<g id="node35" class="node">
<title>Node35</title>
<g id="a_node35"><a xlink:href="serializer_8h.html" target="_top" xlink:title=" ">
<polygon fill="white" stroke="#666666" points="910.16,-140 840.16,-140 840.16,-121 910.16,-121 910.16,-140"/>
<text text-anchor="middle" x="875.16" y="-128" font-family="Helvetica,sans-Serif" font-size="10.00">serializer.h</text>
</a>
</g>
</g>
<!-- Node22&#45;&gt;Node35 -->
<g id="edge43" class="edge">
<title>Node22&#45;&gt;Node35</title>
<path fill="none" stroke="#63b8ff" d="M891.02,-175.75C888.47,-168.65 884.8,-158.4 881.63,-149.56"/>
<polygon fill="#63b8ff" stroke="#63b8ff" points="884.9,-148.32 878.24,-140.09 878.32,-150.68 884.9,-148.32"/>
</g>
<!-- Node22&#45;&gt;Node40 -->
<g id="edge55" class="edge">
<title>Node22&#45;&gt;Node40</title>
<path fill="none" stroke="#63b8ff" d="M926.13,-175.98C962.18,-166.38 1020.63,-150.82 1057.96,-140.87"/>
<polygon fill="#63b8ff" stroke="#63b8ff" points="1059.13,-144.18 1067.89,-138.23 1057.33,-137.42 1059.13,-144.18"/>
</g>
<!-- Node41 -->
<g id="node41" class="node">
<title>Node41</title>
<g id="a_node41"><a xlink:title=" ">
<polygon fill="#e0e0e0" stroke="#999999" points="760.16,-140 720.16,-140 720.16,-121 760.16,-121 760.16,-140"/>
<text text-anchor="middle" x="740.16" y="-128" font-family="Helvetica,sans-Serif" font-size="10.00">span</text>
</a>
</g>
</g>
<!-- Node22&#45;&gt;Node41 -->
<g id="edge58" class="edge">
<title>Node22&#45;&gt;Node41</title>
<path fill="none" stroke="#63b8ff" d="M869.41,-175.98C842.34,-166.67 798.94,-151.73 770,-141.77"/>
<polygon fill="#63b8ff" stroke="#63b8ff" points="771.01,-138.42 760.41,-138.47 768.73,-145.04 771.01,-138.42"/>
</g>
<!-- Node24 -->
<g id="node24" class="node">
<title>Node24</title>
<g id="a_node24"><a xlink:href="siphash_8h.html" target="_top" xlink:title=" ">
<polygon fill="white" stroke="#666666" points="1133.66,-79.5 1038.66,-79.5 1038.66,-60.5 1133.66,-60.5 1133.66,-79.5"/>
<text text-anchor="middle" x="1086.16" y="-67.5" font-family="Helvetica,sans-Serif" font-size="10.00">ccf/ds/siphash.h</text>
</a>
</g>
</g>
<!-- Node23&#45;&gt;Node24 -->
<g id="edge26" class="edge">
<title>Node23&#45;&gt;Node24</title>
<path fill="none" stroke="#63b8ff" d="M1021.37,-120.87C1033.27,-111.71 1052.3,-97.06 1066.66,-86.01"/>
<polygon fill="#63b8ff" stroke="#63b8ff" points="1069.11,-88.54 1074.9,-79.67 1064.84,-82.99 1069.11,-88.54"/>
</g>
<!-- Node26 -->
<g id="node26" class="node">
<title>Node26</title>
<g id="a_node26"><a xlink:title=" ">
<polygon fill="#e0e0e0" stroke="#999999" points="1213.16,-19 1163.16,-19 1163.16,0 1213.16,0 1213.16,-19"/>
<text text-anchor="middle" x="1188.16" y="-7" font-family="Helvetica,sans-Serif" font-size="10.00">cstdint</text>
</a>
</g>
</g>
<!-- Node23&#45;&gt;Node26 -->
<g id="edge31" class="edge">
<title>Node23&#45;&gt;Node26</title>
<path fill="none" stroke="#63b8ff" d="M1050.17,-122.44C1118.26,-110.39 1249.54,-86.94 1251.16,-85 1259.69,-74.75 1257.29,-66.84 1251.16,-55 1244.12,-41.41 1230.81,-31.09 1218.24,-23.82"/>
<polygon fill="#63b8ff" stroke="#63b8ff" points="1219.78,-20.68 1209.31,-19.07 1216.49,-26.86 1219.78,-20.68"/>
</g>
<!-- Node23&#45;&gt;Node27 -->
<g id="edge34" class="edge">
<title>Node23&#45;&gt;Node27</title>
<path fill="none" stroke="#63b8ff" d="M1008.9,-120.55C1006.48,-105.83 1000.16,-76.04 986.16,-55 978.34,-43.25 966.58,-32.83 956.23,-25.03"/>
<polygon fill="#63b8ff" stroke="#63b8ff" points="958.14,-22.1 947.97,-19.12 954.07,-27.79 958.14,-22.1"/>
</g>
<!-- Node28 -->
<g id="node28" class="node">
<title>Node28</title>
<g id="a_node28"><a xlink:title=" ">
<polygon fill="#e0e0e0" stroke="#999999" points="892.16,-19 850.16,-19 850.16,0 892.16,0 892.16,-19"/>
<text text-anchor="middle" x="871.16" y="-7" font-family="Helvetica,sans-Serif" font-size="10.00">array</text>
</a>
</g>
</g>
<!-- Node23&#45;&gt;Node28 -->
<g id="edge30" class="edge">
<title>Node23&#45;&gt;Node28</title>
<path fill="none" stroke="#63b8ff" d="M1000.16,-120.94C976.93,-101.06 919.03,-51.49 889.34,-26.07"/>
<polygon fill="#63b8ff" stroke="#63b8ff" points="891.31,-23.15 881.44,-19.3 886.76,-28.46 891.31,-23.15"/>
</g>
<!-- Node29 -->
<g id="node29" class="node">
<title>Node29</title>
<g id="a_node29"><a xlink:title=" ">
<polygon fill="#e0e0e0" stroke="#999999" points="1467.66,-79.5 1318.66,-79.5 1318.66,-60.5 1467.66,-60.5 1467.66,-79.5"/>
<text text-anchor="middle" x="1393.16" y="-67.5" font-family="Helvetica,sans-Serif" font-size="10.00">small_vector/SmallVector.h</text>
</a>
</g>
</g>
<!-- Node23&#45;&gt;Node29 -->
<g id="edge32" class="edge">
<title>Node23&#45;&gt;Node29</title>
<path fill="none" stroke="#63b8ff" d="M1050.25,-122.46C1053.26,-121.95 1056.26,-121.46 1059.16,-121 1168.27,-103.56 1195.92,-101.68 1305.16,-85 1313.2,-83.77 1321.66,-82.46 1330.01,-81.14"/>
<polygon fill="#63b8ff" stroke="#63b8ff" points="1330.79,-84.56 1340.12,-79.55 1329.7,-77.65 1330.79,-84.56"/>
</g>
<!-- Node30 -->
<g id="node30" class="node">
<title>Node30</title>
<g id="a_node30"><a xlink:title=" ">
<polygon fill="#e0e0e0" stroke="#999999" points="1048.66,-19 975.66,-19 975.66,0 1048.66,0 1048.66,-19"/>
<text text-anchor="middle" x="1012.16" y="-7" font-family="Helvetica,sans-Serif" font-size="10.00">string_view</text>
</a>
</g>
</g>
<!-- Node23&#45;&gt;Node30 -->
<g id="edge33" class="edge">
<title>Node23&#45;&gt;Node30</title>
<path fill="none" stroke="#63b8ff" d="M1050.33,-122.18C1113.99,-110.5 1231.23,-88.57 1234.16,-85 1242.62,-74.69 1242.61,-65.31 1234.16,-55 1232.76,-53.29 1123.72,-32.01 1059,-19.51"/>
<polygon fill="#63b8ff" stroke="#63b8ff" points="1059.5,-16.04 1049.02,-17.58 1058.17,-22.92 1059.5,-16.04"/>
</g>
<!-- Node25 -->
<g id="node25" class="node">
<title>Node25</title>
<g id="a_node25"><a xlink:title=" ">
<polygon fill="#e0e0e0" stroke="#999999" points="1119.66,-19 1066.66,-19 1066.66,0 1119.66,0 1119.66,-19"/>
<text text-anchor="middle" x="1093.16" y="-7" font-family="Helvetica,sans-Serif" font-size="10.00">cstddef</text>
</a>
</g>
</g>
<!-- Node24&#45;&gt;Node25 -->
<g id="edge27" class="edge">
<title>Node24&#45;&gt;Node25</title>
<path fill="none" stroke="#63b8ff" d="M1087.19,-60.37C1088.16,-52.25 1089.65,-39.81 1090.9,-29.39"/>
<polygon fill="#63b8ff" stroke="#63b8ff" points="1094.41,-29.51 1092.12,-19.17 1087.46,-28.68 1094.41,-29.51"/>
</g>
<!-- Node24&#45;&gt;Node26 -->
<g id="edge28" class="edge">
<title>Node24&#45;&gt;Node26</title>
<path fill="none" stroke="#63b8ff" d="M1101.21,-60.37C1117.78,-50.86 1144.66,-35.45 1164.15,-24.27"/>
<polygon fill="#63b8ff" stroke="#63b8ff" points="1166.11,-27.18 1173.04,-19.17 1162.63,-21.11 1166.11,-27.18"/>
</g>
<!-- Node24&#45;&gt;Node27 -->
<g id="edge29" class="edge">
<title>Node24&#45;&gt;Node27</title>
<path fill="none" stroke="#63b8ff" d="M1064.05,-60.49C1038.16,-50.53 995.08,-33.95 965.68,-22.63"/>
<polygon fill="#63b8ff" stroke="#63b8ff" points="966.87,-19.34 956.28,-19.02 964.36,-25.88 966.87,-19.34"/>
</g>
<!-- Node31&#45;&gt;Node17 -->
<g id="edge41" class="edge">
<title>Node31&#45;&gt;Node17</title>
<path fill="none" stroke="#63b8ff" d="M737.27,-60.49C706.56,-50.4 655.18,-33.51 620.74,-22.19"/>
<polygon fill="#63b8ff" stroke="#63b8ff" points="621.66,-18.81 611.07,-19.02 619.48,-25.46 621.66,-18.81"/>
</g>
<!-- Node31&#45;&gt;Node27 -->
<g id="edge42" class="edge">
<title>Node31&#45;&gt;Node27</title>
<path fill="none" stroke="#63b8ff" d="M788.02,-60.49C817.82,-50.3 867.87,-33.18 900.95,-21.86"/>
<polygon fill="#63b8ff" stroke="#63b8ff" points="902.31,-25.09 910.64,-18.55 900.04,-18.47 902.31,-25.09"/>
</g>
<!-- Node31&#45;&gt;Node28 -->
<g id="edge37" class="edge">
<title>Node31&#45;&gt;Node28</title>
<path fill="none" stroke="#63b8ff" d="M779.09,-60.37C796.8,-50.78 825.62,-35.17 846.3,-23.97"/>
<polygon fill="#63b8ff" stroke="#63b8ff" points="848.03,-27.01 855.15,-19.17 844.7,-20.85 848.03,-27.01"/>
</g>
<!-- Node31&#45;&gt;Node30 -->
<g id="edge40" class="edge">
<title>Node31&#45;&gt;Node30</title>
<path fill="none" stroke="#63b8ff" d="M795.38,-60.48C802.54,-58.63 810.1,-56.72 817.16,-55 867.74,-42.67 925.97,-29.52 965.53,-20.74"/>
<polygon fill="#63b8ff" stroke="#63b8ff" points="966.42,-24.13 975.42,-18.55 964.9,-17.29 966.42,-24.13"/>
</g>
<!-- Node32 -->
<g id="node32" class="node">
<title>Node32</title>
<g id="a_node32"><a xlink:title=" ">
<polygon fill="#e0e0e0" stroke="#999999" points="832.16,-19 768.16,-19 768.16,0 832.16,0 832.16,-19"/>
<text text-anchor="middle" x="800.16" y="-7" font-family="Helvetica,sans-Serif" font-size="10.00">algorithm</text>
</a>
</g>
</g>
<!-- Node31&#45;&gt;Node32 -->
<g id="edge36" class="edge">
<title>Node31&#45;&gt;Node32</title>
<path fill="none" stroke="#63b8ff" d="M768.62,-60.37C774.03,-51.81 782.46,-38.47 789.25,-27.74"/>
<polygon fill="#63b8ff" stroke="#63b8ff" points="792.29,-29.49 794.67,-19.17 786.37,-25.75 792.29,-29.49"/>
</g>
<!-- Node33 -->
<g id="node33" class="node">
<title>Node33</title>
<g id="a_node33"><a xlink:title=" ">
<polygon fill="#e0e0e0" stroke="#999999" points="749.66,-19 700.66,-19 700.66,0 749.66,0 749.66,-19"/>
<text text-anchor="middle" x="725.16" y="-7" font-family="Helvetica,sans-Serif" font-size="10.00">cctype</text>
</a>
</g>
</g>
<!-- Node31&#45;&gt;Node33 -->
<g id="edge38" class="edge">
<title>Node31&#45;&gt;Node33</title>
<path fill="none" stroke="#63b8ff" d="M757.55,-60.37C751.99,-51.81 743.33,-38.47 736.35,-27.74"/>
<polygon fill="#63b8ff" stroke="#63b8ff" points="739.17,-25.65 730.79,-19.17 733.3,-29.46 739.17,-25.65"/>
</g>
<!-- Node31&#45;&gt;Node34 -->
<g id="edge39" class="edge">
<title>Node31&#45;&gt;Node34</title>
<path fill="none" stroke="#63b8ff" d="M747.96,-60.37C731.15,-50.82 703.83,-35.31 684.13,-24.12"/>
<polygon fill="#63b8ff" stroke="#63b8ff" points="685.84,-21.06 675.42,-19.17 682.38,-27.15 685.84,-21.06"/>
</g>
<!-- Node35&#45;&gt;Node17 -->
<g id="edge53" class="edge">
<title>Node35&#45;&gt;Node17</title>
<path fill="none" stroke="#63b8ff" d="M839.95,-121.82C798.36,-112.45 731.96,-96.44 709.16,-85 689.92,-75.35 689.24,-66.66 671.16,-55 652.73,-43.12 630.76,-31.79 613.64,-23.54"/>
<polygon fill="#63b8ff" stroke="#63b8ff" points="614.72,-20.18 604.18,-19.06 611.72,-26.5 614.72,-20.18"/>
</g>
<!-- Node35&#45;&gt;Node27 -->
<g id="edge54" class="edge">
<title>Node35&#45;&gt;Node27</title>
<path fill="none" stroke="#63b8ff" d="M879.4,-120.94C888.96,-101.65 912.37,-54.44 925.27,-28.43"/>
<polygon fill="#63b8ff" stroke="#63b8ff" points="928.49,-29.82 929.79,-19.3 922.21,-26.71 928.49,-29.82"/>
</g>
<!-- Node35&#45;&gt;Node31 -->
<g id="edge44" class="edge">
<title>Node35&#45;&gt;Node31</title>
<path fill="none" stroke="#63b8ff" d="M858.63,-120.87C840.18,-111.23 810.11,-95.53 788.65,-84.31"/>
<polygon fill="#63b8ff" stroke="#63b8ff" points="790.23,-81.19 779.75,-79.67 786.99,-87.4 790.23,-81.19"/>
</g>
<!-- Node36 -->
<g id="node36" class="node">
<title>Node36</title>
<g id="a_node36"><a xlink:href="serialized_8h.html" target="_top" xlink:title=" ">
<polygon fill="white" stroke="#666666" points="1224.66,-79.5 1151.66,-79.5 1151.66,-60.5 1224.66,-60.5 1224.66,-79.5"/>
<text text-anchor="middle" x="1188.16" y="-67.5" font-family="Helvetica,sans-Serif" font-size="10.00">serialized.h</text>
</a>
</g>
</g>
<!-- Node35&#45;&gt;Node36 -->
<g id="edge45" class="edge">
<title>Node35&#45;&gt;Node36</title>
<path fill="none" stroke="#63b8ff" d="M910.58,-125.19C962.17,-118.57 1060.78,-104.55 1143.16,-85 1146.34,-84.24 1149.63,-83.38 1152.91,-82.47"/>
<polygon fill="#63b8ff" stroke="#63b8ff" points="1154.02,-85.79 1162.62,-79.61 1152.04,-79.07 1154.02,-85.79"/>
</g>
<!-- Node38 -->
<g id="node38" class="node">
<title>Node38</title>
<g id="a_node38"><a xlink:title=" ">
<polygon fill="#e0e0e0" stroke="#999999" points="662.16,-79.5 604.16,-79.5 604.16,-60.5 662.16,-60.5 662.16,-79.5"/>
<text text-anchor="middle" x="633.16" y="-67.5" font-family="Helvetica,sans-Serif" font-size="10.00">memory</text>
</a>
</g>
</g>
<!-- Node35&#45;&gt;Node38 -->
<g id="edge51" class="edge">
<title>Node35&#45;&gt;Node38</title>
<path fill="none" stroke="#63b8ff" d="M840.04,-122.7C800.09,-114.71 733.01,-100.57 676.16,-85 673.39,-84.24 670.53,-83.41 667.67,-82.55"/>
<polygon fill="#63b8ff" stroke="#63b8ff" points="668.64,-79.19 658.05,-79.55 666.55,-85.87 668.64,-79.19"/>
</g>
<!-- Node39 -->
<g id="node39" class="node">
<title>Node39</title>
<g id="a_node39"><a xlink:title=" ">
<polygon fill="#e0e0e0" stroke="#999999" points="867.66,-79.5 826.66,-79.5 826.66,-60.5 867.66,-60.5 867.66,-79.5"/>
<text text-anchor="middle" x="847.16" y="-67.5" font-family="Helvetica,sans-Serif" font-size="10.00">tuple</text>
</a>
</g>
</g>
<!-- Node35&#45;&gt;Node39 -->
<g id="edge52" class="edge">
<title>Node35&#45;&gt;Node39</title>
<path fill="none" stroke="#63b8ff" d="M871.02,-120.87C867.01,-112.49 860.8,-99.51 855.72,-88.89"/>
<polygon fill="#63b8ff" stroke="#63b8ff" points="858.78,-87.18 851.3,-79.67 852.46,-90.2 858.78,-87.18"/>
</g>
<!-- Node36&#45;&gt;Node21 -->
<g id="edge47" class="edge">
<title>Node36&#45;&gt;Node21</title>
<path fill="none" stroke="#63b8ff" d="M1224.88,-62C1284.49,-50.64 1401.5,-28.35 1460.05,-17.19"/>
<polygon fill="#63b8ff" stroke="#63b8ff" points="1460.77,-20.62 1469.94,-15.31 1459.46,-13.74 1460.77,-20.62"/>
</g>
<!-- Node36&#45;&gt;Node26 -->
<g id="edge46" class="edge">
<title>Node36&#45;&gt;Node26</title>
<path fill="none" stroke="#63b8ff" d="M1188.16,-60.37C1188.16,-52.25 1188.16,-39.81 1188.16,-29.39"/>
<polygon fill="#63b8ff" stroke="#63b8ff" points="1191.66,-29.17 1188.16,-19.17 1184.66,-29.17 1191.66,-29.17"/>
</g>
<!-- Node36&#45;&gt;Node27 -->
<g id="edge50" class="edge">
<title>Node36&#45;&gt;Node27</title>
<path fill="none" stroke="#63b8ff" d="M1162.11,-60.41C1155.93,-58.51 1149.34,-56.59 1143.16,-55 1068.85,-35.89 1046.67,-36.85 967.82,-19.04"/>
<polygon fill="#63b8ff" stroke="#63b8ff" points="968.44,-15.59 957.91,-16.77 966.88,-22.42 968.44,-15.59"/>
</g>
<!-- Node36&#45;&gt;Node34 -->
<g id="edge49" class="edge">
<title>Node36&#45;&gt;Node34</title>
<path fill="none" stroke="#63b8ff" d="M1164.12,-60.44C1157.41,-58.35 1150.07,-56.33 1143.16,-55 948.47,-17.45 891.48,-52.63 692.3,-18.85"/>
<polygon fill="#63b8ff" stroke="#63b8ff" points="692.84,-15.39 682.39,-17.14 691.65,-22.29 692.84,-15.39"/>
</g>
<!-- Node36&#45;&gt;Node37 -->
<g id="edge48" class="edge">
<title>Node36&#45;&gt;Node37</title>
<path fill="none" stroke="#63b8ff" d="M1224.85,-64.28C1285.72,-56.31 1411.65,-39.21 1528.77,-18.98"/>
<polygon fill="#63b8ff" stroke="#63b8ff" points="1529.38,-22.43 1538.63,-17.26 1528.18,-15.53 1529.38,-22.43"/>
</g>
<!-- Node44&#45;&gt;Node22 -->
<g id="edge69" class="edge">
<title>Node44&#45;&gt;Node22</title>
<path fill="none" stroke="#63b8ff" d="M851.71,-230.84C859.84,-222.35 870.21,-211.52 878.66,-202.69"/>
<polygon fill="#63b8ff" stroke="#63b8ff" points="881.38,-204.91 885.76,-195.27 876.32,-200.07 881.38,-204.91"/>
</g>
<!-- Node45 -->
<g id="node45" class="node">
<title>Node45</title>
<g id="a_node45"><a xlink:href="lfs__interface_8h.html" target="_top" xlink:title=" ">
<polygon fill="white" stroke="#666666" points="551.66,-140 420.66,-140 420.66,-121 551.66,-121 551.66,-140"/>
<text text-anchor="middle" x="486.16" y="-128" font-family="Helvetica,sans-Serif" font-size="10.00">indexing/lfs_interface.h</text>
</a>
</g>
</g>
<!-- Node44&#45;&gt;Node45 -->
<g id="edge70" class="edge">
<title>Node44&#45;&gt;Node45</title>
<path fill="none" stroke="#63b8ff" d="M825.44,-230.79C810.18,-214.73 783.03,-189.1 754.16,-176 736.52,-167.99 631.16,-151.94 557.93,-141.46"/>
<polygon fill="#63b8ff" stroke="#63b8ff" points="558.21,-137.97 547.82,-140.02 557.23,-144.9 558.21,-137.97"/>
</g>
<!-- Node45&#45;&gt;Node27 -->
<g id="edge74" class="edge">
<title>Node45&#45;&gt;Node27</title>
<path fill="none" stroke="#63b8ff" d="M495.46,-120.75C513.24,-104.62 553.94,-70.43 595.16,-55 720.39,-8.1 764.48,-42.44 900.49,-18.82"/>
<polygon fill="#63b8ff" stroke="#63b8ff" points="901.23,-22.24 910.45,-17.01 899.99,-15.35 901.23,-22.24"/>
</g>
<!-- Node45&#45;&gt;Node34 -->
<g id="edge73" class="edge">
<title>Node45&#45;&gt;Node34</title>
<path fill="none" stroke="#63b8ff" d="M488.25,-120.77C492.42,-105.28 503.19,-72.93 524.16,-55 532.24,-48.08 590.46,-30.48 628.06,-19.6"/>
<polygon fill="#63b8ff" stroke="#63b8ff" points="629.41,-22.85 638.06,-16.73 627.48,-16.13 629.41,-22.85"/>
</g>
<!-- Node45&#45;&gt;Node38 -->
<g id="edge72" class="edge">
<title>Node45&#45;&gt;Node38</title>
<path fill="none" stroke="#63b8ff" d="M507.53,-120.99C532.46,-111.07 573.88,-94.59 602.29,-83.28"/>
<polygon fill="#63b8ff" stroke="#63b8ff" points="603.76,-86.47 611.76,-79.52 601.17,-79.96 603.76,-86.47"/>
</g>
<!-- Node46 -->
<g id="node46" class="node">
<title>Node46</title>
<g id="a_node46"><a xlink:href="node__subsystem__interface_8h.html" target="_top" xlink:title=" ">
<polygon fill="white" stroke="#666666" points="472.16,-85 356.16,-85 356.16,-55 472.16,-55 472.16,-85"/>
<text text-anchor="start" x="364.16" y="-73" font-family="Helvetica,sans-Serif" font-size="10.00">ccf/node_subsystem</text>
<text text-anchor="middle" x="414.16" y="-62" font-family="Helvetica,sans-Serif" font-size="10.00">_interface.h</text>
</a>
</g>
</g>
<!-- Node45&#45;&gt;Node46 -->
<g id="edge71" class="edge">
<title>Node45&#45;&gt;Node46</title>
<path fill="none" stroke="#63b8ff" d="M475.53,-120.87C466.03,-113.15 451.74,-101.54 439.34,-91.46"/>
<polygon fill="#63b8ff" stroke="#63b8ff" points="441.5,-88.7 431.53,-85.11 437.08,-94.14 441.5,-88.7"/>
</g>
</g>
</svg>
        <g id="navigator" transform="translate(0 0)" fill="#404254">
                <rect fill="#f2f5e9" fill-opacity="0.5" stroke="#606060" stroke-width=".5" x="0" y="0" width="60" height="60"/>
                <use id="zoomplus" xlink:href="#zoomPlus" x="17" y="9" onmousedown="handleZoom(evt,'in')"/>
                <use id="zoomminus" xlink:href="#zoomMin" x="42" y="9" onmousedown="handleZoom(evt,'out')"/>
                <use id="reset" xlink:href="#resetDef" x="30" y="36" onmousedown="handleReset()"/>
                <g id="arrowUp" xlink:href="#dirArrow" transform="translate(30 24)" onmousedown="handlePan(0,-1)">
                  <use xlink:href="#rim" fill="#404040">
                        <set attributeName="fill" to="#808080" begin="arrowUp.mouseover" end="arrowUp.mouseout"/>
                  </use>
                  <path fill="none" stroke="white" stroke-width="1.5" d="M0,-3.0v7 M-2.5,-0.5L0,-3.0L2.5,-0.5"/>
                </g>
                <g id="arrowRight" xlink:href="#dirArrow" transform="rotate(90) translate(36 -43)" onmousedown="handlePan(1,0)">
                  <use xlink:href="#rim" fill="#404040">
                        <set attributeName="fill" to="#808080" begin="arrowRight.mouseover" end="arrowRight.mouseout"/>
                  </use>
                  <path fill="none" stroke="white" stroke-width="1.5" d="M0,-3.0v7 M-2.5,-0.5L0,-3.0L2.5,-0.5"/>
                </g>
                <g id="arrowDown" xlink:href="#dirArrow" transform="rotate(180) translate(-30 -48)" onmousedown="handlePan(0,1)">
                  <use xlink:href="#rim" fill="#404040">
                        <set attributeName="fill" to="#808080" begin="arrowDown.mouseover" end="arrowDown.mouseout"/>
                  </use>
                  <path fill="none" stroke="white" stroke-width="1.5" d="M0,-3.0v7 M-2.5,-0.5L0,-3.0L2.5,-0.5"/>
                </g>
                <g id="arrowLeft" xlink:href="#dirArrow" transform="rotate(270) translate(-36 17)" onmousedown="handlePan(-1,0)">
                  <use xlink:href="#rim" fill="#404040">
                        <set attributeName="fill" to="#808080" begin="arrowLeft.mouseover" end="arrowLeft.mouseout"/>
                  </use>
                  <path fill="none" stroke="white" stroke-width="1.5" d="M0,-3.0v7 M-2.5,-0.5L0,-3.0L2.5,-0.5"/>
                </g>
        </g>
        <svg viewBox="0 0 15 15" width="100%" height="30px" preserveAspectRatio="xMaxYMin meet">
         <g id="arrow_out" transform="scale(0.3 0.3)">
          <a xlink:href="lfs__file__handler_8h__incl_org.svg" target="_base">
           <rect id="button" ry="5" rx="5" y="6" x="6" height="38" width="38"
                fill="#f2f5e9" fill-opacity="0.5" stroke="#606060" stroke-width="1.0"/>
           <path id="arrow"
             d="M 11.500037,31.436501 C 11.940474,20.09759 22.043105,11.32322 32.158766,21.979434 L 37.068811,17.246167 C 37.068811,17.246167 37.088388,32 37.088388,32 L 22.160133,31.978069 C 22.160133,31.978069 26.997745,27.140456 26.997745,27.140456 C 18.528582,18.264221 13.291696,25.230495 11.500037,31.436501 z"
             style="fill:#404040;"/>
          </a>
         </g>
        </svg>
</svg>
