<?xml version="1.0" encoding="UTF-8" standalone="no"?>
<!DOCTYPE svg PUBLIC "-//W3C//DTD SVG 1.1//EN"
 "http://www.w3.org/Graphics/SVG/1.1/DTD/svg11.dtd">
<!-- Generated by graphviz version 2.43.0 (0)
 -->
<!-- Title: src/node/network_state.h Pages: 1 -->
<svg width="1814pt" height="434pt"
 viewBox="0.00 0.00 1813.50 434.00" xmlns="http://www.w3.org/2000/svg" xmlns:xlink="http://www.w3.org/1999/xlink">
<g id="graph0" class="graph" transform="scale(1 1) rotate(0) translate(4 430)">
<title>src/node/network_state.h</title>
<!-- Node1 -->
<g id="node1" class="node">
<title>Node1</title>
<g id="a_node1"><a xlink:title=" ">
<polygon fill="#999999" stroke="#666666" points="1325,-426 1185,-426 1185,-407 1325,-407 1325,-426"/>
<text text-anchor="middle" x="1255" y="-414" font-family="Helvetica,sans-Serif" font-size="10.00">src/node/network_state.h</text>
</a>
</g>
</g>
<!-- Node2 -->
<g id="node2" class="node">
<title>Node2</title>
<g id="a_node2"><a xlink:href="src_2enclave_2enclave_8h.html" target="_top" xlink:title=" ">
<polygon fill="white" stroke="#666666" points="1073,-74 951,-74 951,-55 1073,-55 1073,-74"/>
<text text-anchor="middle" x="1012" y="-62" font-family="Helvetica,sans-Serif" font-size="10.00">src/enclave/enclave.h</text>
</a>
</g>
</g>
<!-- Node1&#45;&gt;Node2 -->
<g id="edge1" class="edge">
<title>Node1&#45;&gt;Node2</title>
<path fill="none" stroke="#63b8ff" d="M1174.46,-412.45C897.32,-401.43 0,-361.2 0,-302 0,-302 0,-302 0,-173.5 0,-113.94 60.63,-125.98 118,-110 275.09,-66.23 775.48,-64.32 950.69,-65.05"/>
<polygon fill="#63b8ff" stroke="#63b8ff" points="1174.71,-415.96 1184.84,-412.86 1174.98,-408.97 1174.71,-415.96"/>
</g>
<!-- Node4 -->
<g id="node4" class="node">
<title>Node4</title>
<g id="a_node4"><a xlink:href="wrap_8h.html" target="_top" xlink:title=" ">
<polygon fill="white" stroke="#666666" points="690,-371 612,-371 612,-352 690,-352 690,-371"/>
<text text-anchor="middle" x="651" y="-359" font-family="Helvetica,sans-Serif" font-size="10.00">src/js/wrap.h</text>
</a>
</g>
</g>
<!-- Node1&#45;&gt;Node4 -->
<g id="edge3" class="edge">
<title>Node1&#45;&gt;Node4</title>
<path fill="none" stroke="#63b8ff" d="M1174.83,-408.47C1043.63,-396.95 787.89,-374.51 690.21,-365.94"/>
<polygon fill="#63b8ff" stroke="#63b8ff" points="1174.56,-411.95 1184.83,-409.34 1175.17,-404.98 1174.56,-411.95"/>
</g>
<!-- Node12 -->
<g id="node12" class="node">
<title>Node12</title>
<g id="a_node12"><a xlink:href="node__state_8h.html" target="_top" xlink:title=" ">
<polygon fill="white" stroke="#666666" points="1232,-184 1108,-184 1108,-165 1232,-165 1232,-184"/>
<text text-anchor="middle" x="1170" y="-172" font-family="Helvetica,sans-Serif" font-size="10.00">src/node/node_state.h</text>
</a>
</g>
</g>
<!-- Node1&#45;&gt;Node12 -->
<g id="edge30" class="edge">
<title>Node1&#45;&gt;Node12</title>
<path fill="none" stroke="#63b8ff" d="M1325.48,-405.06C1364.42,-397.69 1407.24,-386.38 1419,-371 1424.13,-364.29 1420.18,-360.36 1419,-352 1410.47,-291.55 1425.7,-261.58 1381,-220 1359.69,-200.18 1286.41,-188.02 1232.17,-181.52"/>
<polygon fill="#63b8ff" stroke="#63b8ff" points="1324.37,-401.7 1315.16,-406.94 1325.63,-408.59 1324.37,-401.7"/>
</g>
<!-- Node15 -->
<g id="node15" class="node">
<title>Node15</title>
<g id="a_node15"><a xlink:href="node__frontend_8h.html" target="_top" xlink:title=" ">
<polygon fill="white" stroke="#666666" points="1064,-310.5 906,-310.5 906,-291.5 1064,-291.5 1064,-310.5"/>
<text text-anchor="middle" x="985" y="-298.5" font-family="Helvetica,sans-Serif" font-size="10.00">src/node/rpc/node_frontend.h</text>
</a>
</g>
</g>
<!-- Node1&#45;&gt;Node15 -->
<g id="edge31" class="edge">
<title>Node1&#45;&gt;Node15</title>
<path fill="none" stroke="#63b8ff" d="M1181.29,-405.08C1146.88,-398.36 1106.09,-387.66 1072,-371 1039.44,-355.09 1007.78,-325.33 993.26,-310.65"/>
<polygon fill="#63b8ff" stroke="#63b8ff" points="1180.8,-408.55 1191.28,-406.95 1182.09,-401.67 1180.8,-408.55"/>
</g>
<!-- Node17 -->
<g id="node17" class="node">
<title>Node17</title>
<g id="a_node17"><a xlink:href="acme__challenge__frontend_8h.html" target="_top" xlink:title=" ">
<polygon fill="white" stroke="#666666" points="1590,-316 1450,-316 1450,-286 1590,-286 1590,-316"/>
<text text-anchor="start" x="1458" y="-304" font-family="Helvetica,sans-Serif" font-size="10.00">src/node/acme_challenge</text>
<text text-anchor="middle" x="1520" y="-293" font-family="Helvetica,sans-Serif" font-size="10.00">_frontend.h</text>
</a>
</g>
</g>
<!-- Node1&#45;&gt;Node17 -->
<g id="edge26" class="edge">
<title>Node1&#45;&gt;Node17</title>
<path fill="none" stroke="#63b8ff" d="M1335.33,-408.14C1372.9,-402.09 1417.16,-391.07 1453,-371 1477.33,-357.37 1498.43,-332.16 1510.16,-316.28"/>
<polygon fill="#63b8ff" stroke="#63b8ff" points="1334.78,-404.68 1325.42,-409.65 1335.83,-411.6 1334.78,-404.68"/>
</g>
<!-- Node19 -->
<g id="node19" class="node">
<title>Node19</title>
<g id="a_node19"><a xlink:href="user__frontend_8h.html" target="_top" xlink:title=" ">
<polygon fill="white" stroke="#666666" points="1805.5,-184 1650.5,-184 1650.5,-165 1805.5,-165 1805.5,-184"/>
<text text-anchor="middle" x="1728" y="-172" font-family="Helvetica,sans-Serif" font-size="10.00">src/node/rpc/user_frontend.h</text>
</a>
</g>
</g>
<!-- Node1&#45;&gt;Node19 -->
<g id="edge32" class="edge">
<title>Node1&#45;&gt;Node19</title>
<path fill="none" stroke="#63b8ff" d="M1335.38,-408.02C1409.84,-397.67 1520.58,-373.23 1599,-316 1654.64,-275.39 1705.02,-208.02 1721.96,-184.18"/>
<polygon fill="#63b8ff" stroke="#63b8ff" points="1334.57,-404.6 1325.12,-409.39 1335.5,-411.53 1334.57,-404.6"/>
</g>
<!-- Node20 -->
<g id="node20" class="node">
<title>Node20</title>
<g id="a_node20"><a xlink:href="secret__broadcast_8h.html" target="_top" xlink:title=" ">
<polygon fill="white" stroke="#666666" points="1351.5,-244.5 1198.5,-244.5 1198.5,-225.5 1351.5,-225.5 1351.5,-244.5"/>
<text text-anchor="middle" x="1275" y="-232.5" font-family="Helvetica,sans-Serif" font-size="10.00">src/node/secret_broadcast.h</text>
</a>
</g>
</g>
<!-- Node1&#45;&gt;Node20 -->
<g id="edge34" class="edge">
<title>Node1&#45;&gt;Node20</title>
<path fill="none" stroke="#63b8ff" d="M1257.11,-396.53C1261.4,-358.02 1270.99,-271.99 1274.05,-244.57"/>
<polygon fill="#63b8ff" stroke="#63b8ff" points="1253.59,-396.52 1255.96,-406.84 1260.55,-397.29 1253.59,-396.52"/>
</g>
<!-- Node21 -->
<g id="node21" class="node">
<title>Node21</title>
<g id="a_node21"><a xlink:href="share__manager_8h.html" target="_top" xlink:title=" ">
<polygon fill="white" stroke="#666666" points="1226.5,-371 1081.5,-371 1081.5,-352 1226.5,-352 1226.5,-371"/>
<text text-anchor="middle" x="1154" y="-359" font-family="Helvetica,sans-Serif" font-size="10.00">src/node/share_manager.h</text>
</a>
</g>
</g>
<!-- Node1&#45;&gt;Node21 -->
<g id="edge36" class="edge">
<title>Node1&#45;&gt;Node21</title>
<path fill="none" stroke="#63b8ff" d="M1229.72,-402.23C1211.2,-392.51 1186.58,-379.6 1170.52,-371.17"/>
<polygon fill="#63b8ff" stroke="#63b8ff" points="1228.29,-405.44 1238.77,-406.98 1231.54,-399.24 1228.29,-405.44"/>
</g>
<!-- Node22 -->
<g id="node22" class="node">
<title>Node22</title>
<g id="a_node22"><a xlink:href="snapshotter_8h.html" target="_top" xlink:title=" ">
<polygon fill="white" stroke="#666666" points="1410.5,-371 1283.5,-371 1283.5,-352 1410.5,-352 1410.5,-371"/>
<text text-anchor="middle" x="1347" y="-359" font-family="Helvetica,sans-Serif" font-size="10.00">src/node/snapshotter.h</text>
</a>
</g>
</g>
<!-- Node1&#45;&gt;Node22 -->
<g id="edge39" class="edge">
<title>Node1&#45;&gt;Node22</title>
<path fill="none" stroke="#63b8ff" d="M1278.49,-401.97C1295.31,-392.28 1317.45,-379.52 1331.95,-371.17"/>
<polygon fill="#63b8ff" stroke="#63b8ff" points="1276.7,-398.96 1269.78,-406.98 1280.19,-405.03 1276.7,-398.96"/>
</g>
<!-- Node3 -->
<g id="node3" class="node">
<title>Node3</title>
<g id="a_node3"><a xlink:href="enclave_2main_8cpp.html" target="_top" xlink:title=" ">
<polygon fill="white" stroke="#666666" points="1072,-19 952,-19 952,0 1072,0 1072,-19"/>
<text text-anchor="middle" x="1012" y="-7" font-family="Helvetica,sans-Serif" font-size="10.00">src/enclave/main.cpp</text>
</a>
</g>
</g>
<!-- Node2&#45;&gt;Node3 -->
<g id="edge2" class="edge">
<title>Node2&#45;&gt;Node3</title>
<path fill="none" stroke="#63b8ff" d="M1012,-44.66C1012,-35.93 1012,-25.99 1012,-19.09"/>
<polygon fill="#63b8ff" stroke="#63b8ff" points="1008.5,-44.75 1012,-54.75 1015.5,-44.75 1008.5,-44.75"/>
</g>
<!-- Node4&#45;&gt;Node2 -->
<g id="edge5" class="edge">
<title>Node4&#45;&gt;Node2</title>
<path fill="none" stroke="#63b8ff" d="M601.6,-360.09C466.47,-358.5 98.03,-350.99 57,-316 29.2,-292.28 38,-272.54 38,-236 38,-236 38,-236 38,-173.5 38,-81.26 737.03,-67.79 950.7,-65.83"/>
<polygon fill="#63b8ff" stroke="#63b8ff" points="601.64,-363.59 611.68,-360.2 601.72,-356.59 601.64,-363.59"/>
</g>
<!-- Node5 -->
<g id="node5" class="node">
<title>Node5</title>
<g id="a_node5"><a xlink:href="js__generic__base_8cpp.html" target="_top" xlink:title=" ">
<polygon fill="white" stroke="#666666" points="184,-316 66,-316 66,-286 184,-286 184,-316"/>
<text text-anchor="start" x="74" y="-304" font-family="Helvetica,sans-Serif" font-size="10.00">src/apps/js_generic</text>
<text text-anchor="middle" x="125" y="-293" font-family="Helvetica,sans-Serif" font-size="10.00">/js_generic_base.cpp</text>
</a>
</g>
</g>
<!-- Node4&#45;&gt;Node5 -->
<g id="edge4" class="edge">
<title>Node4&#45;&gt;Node5</title>
<path fill="none" stroke="#63b8ff" d="M601.9,-357.45C517.82,-351.84 341.06,-338.37 193,-316 190.14,-315.57 187.22,-315.09 184.27,-314.59"/>
<polygon fill="#63b8ff" stroke="#63b8ff" points="601.71,-360.94 611.92,-358.11 602.17,-353.96 601.71,-360.94"/>
</g>
<!-- Node6 -->
<g id="node6" class="node">
<title>Node6</title>
<g id="a_node6"><a xlink:href="consensus_8cpp.html" target="_top" xlink:title=" ">
<polygon fill="white" stroke="#666666" points="666,-310.5 550,-310.5 550,-291.5 666,-291.5 666,-310.5"/>
<text text-anchor="middle" x="608" y="-298.5" font-family="Helvetica,sans-Serif" font-size="10.00">src/js/consensus.cpp</text>
</a>
</g>
</g>
<!-- Node4&#45;&gt;Node6 -->
<g id="edge6" class="edge">
<title>Node4&#45;&gt;Node6</title>
<path fill="none" stroke="#63b8ff" d="M638.6,-343.63C630.68,-332.85 620.73,-319.32 614.37,-310.67"/>
<polygon fill="#63b8ff" stroke="#63b8ff" points="635.91,-345.88 644.66,-351.87 641.55,-341.74 635.91,-345.88"/>
</g>
<!-- Node7 -->
<g id="node7" class="node">
<title>Node7</title>
<g id="a_node7"><a xlink:href="wrap_8cpp.html" target="_top" xlink:title=" ">
<polygon fill="white" stroke="#666666" points="521.5,-244.5 432.5,-244.5 432.5,-225.5 521.5,-225.5 521.5,-244.5"/>
<text text-anchor="middle" x="477" y="-232.5" font-family="Helvetica,sans-Serif" font-size="10.00">src/js/wrap.cpp</text>
</a>
</g>
</g>
<!-- Node4&#45;&gt;Node7 -->
<g id="edge15" class="edge">
<title>Node4&#45;&gt;Node7</title>
<path fill="none" stroke="#63b8ff" d="M664.52,-343.74C675.86,-327.54 688.24,-303.01 675,-286 656.37,-262.08 574.29,-247.81 521.83,-240.97"/>
<polygon fill="#63b8ff" stroke="#63b8ff" points="661.69,-341.69 658.5,-351.79 667.3,-345.88 661.69,-341.69"/>
</g>
<!-- Node8 -->
<g id="node8" class="node">
<title>Node8</title>
<g id="a_node8"><a xlink:href="conv_8cpp.html" target="_top" xlink:title=" ">
<polygon fill="white" stroke="#666666" points="290,-310.5 202,-310.5 202,-291.5 290,-291.5 290,-310.5"/>
<text text-anchor="middle" x="246" y="-298.5" font-family="Helvetica,sans-Serif" font-size="10.00">src/js/conv.cpp</text>
</a>
</g>
</g>
<!-- Node4&#45;&gt;Node8 -->
<g id="edge8" class="edge">
<title>Node4&#45;&gt;Node8</title>
<path fill="none" stroke="#63b8ff" d="M601.88,-356.36C533.55,-350.14 406.12,-336.82 299,-316 291.34,-314.51 283.15,-312.54 275.55,-310.55"/>
<polygon fill="#63b8ff" stroke="#63b8ff" points="601.65,-359.86 611.93,-357.27 602.28,-352.88 601.65,-359.86"/>
</g>
<!-- Node9 -->
<g id="node9" class="node">
<title>Node9</title>
<g id="a_node9"><a xlink:href="crypto_8cpp.html" target="_top" xlink:title=" ">
<polygon fill="white" stroke="#666666" points="404,-310.5 308,-310.5 308,-291.5 404,-291.5 404,-310.5"/>
<text text-anchor="middle" x="356" y="-298.5" font-family="Helvetica,sans-Serif" font-size="10.00">src/js/crypto.cpp</text>
</a>
</g>
</g>
<!-- Node4&#45;&gt;Node9 -->
<g id="edge10" class="edge">
<title>Node4&#45;&gt;Node9</title>
<path fill="none" stroke="#63b8ff" d="M601.83,-352.14C553.59,-343.73 478.02,-330.05 413,-316 405.33,-314.34 397.12,-312.42 389.38,-310.53"/>
<polygon fill="#63b8ff" stroke="#63b8ff" points="601.25,-355.59 611.7,-353.85 602.44,-348.69 601.25,-355.59"/>
</g>
<!-- Node10 -->
<g id="node10" class="node">
<title>Node10</title>
<g id="a_node10"><a xlink:href="historical_8cpp.html" target="_top" xlink:title=" ">
<polygon fill="white" stroke="#666666" points="532,-310.5 422,-310.5 422,-291.5 532,-291.5 532,-310.5"/>
<text text-anchor="middle" x="477" y="-298.5" font-family="Helvetica,sans-Serif" font-size="10.00">src/js/historical.cpp</text>
</a>
</g>
</g>
<!-- Node4&#45;&gt;Node10 -->
<g id="edge12" class="edge">
<title>Node4&#45;&gt;Node10</title>
<path fill="none" stroke="#63b8ff" d="M615.82,-348.67C582.17,-337.36 532.24,-320.57 502.33,-310.52"/>
<polygon fill="#63b8ff" stroke="#63b8ff" points="615.1,-352.12 625.7,-351.99 617.34,-345.49 615.1,-352.12"/>
</g>
<!-- Node11 -->
<g id="node11" class="node">
<title>Node11</title>
<g id="a_node11"><a xlink:href="openenclave_8cpp.html" target="_top" xlink:title=" ">
<polygon fill="white" stroke="#666666" points="850,-310.5 722,-310.5 722,-291.5 850,-291.5 850,-310.5"/>
<text text-anchor="middle" x="786" y="-298.5" font-family="Helvetica,sans-Serif" font-size="10.00">src/js/openenclave.cpp</text>
</a>
</g>
</g>
<!-- Node4&#45;&gt;Node11 -->
<g id="edge14" class="edge">
<title>Node4&#45;&gt;Node11</title>
<path fill="none" stroke="#63b8ff" d="M680,-347.93C706.07,-336.64 743.64,-320.36 766.35,-310.52"/>
<polygon fill="#63b8ff" stroke="#63b8ff" points="678.41,-344.81 670.63,-351.99 681.2,-351.23 678.41,-344.81"/>
</g>
<!-- Node4&#45;&gt;Node12 -->
<g id="edge16" class="edge">
<title>Node4&#45;&gt;Node12</title>
<path fill="none" stroke="#63b8ff" d="M700.3,-356.34C743.77,-351.2 807.95,-340 859,-316 878.47,-306.84 879.29,-298.23 897,-286 943.91,-253.6 954.56,-242.38 1007,-220 1045.98,-203.36 1092.89,-191.33 1126.36,-184"/>
<polygon fill="#63b8ff" stroke="#63b8ff" points="699.81,-352.87 690.26,-357.46 700.59,-359.83 699.81,-352.87"/>
</g>
<!-- Node14 -->
<g id="node14" class="node">
<title>Node14</title>
<g id="a_node14"><a xlink:href="member__frontend_8h.html" target="_top" xlink:title=" ">
<polygon fill="white" stroke="#666666" points="1202,-316 1082,-316 1082,-286 1202,-286 1202,-316"/>
<text text-anchor="start" x="1090" y="-304" font-family="Helvetica,sans-Serif" font-size="10.00">src/node/rpc/member</text>
<text text-anchor="middle" x="1142" y="-293" font-family="Helvetica,sans-Serif" font-size="10.00">_frontend.h</text>
</a>
</g>
</g>
<!-- Node4&#45;&gt;Node14 -->
<g id="edge20" class="edge">
<title>Node4&#45;&gt;Node14</title>
<path fill="none" stroke="#63b8ff" d="M700.28,-356.83C779.24,-350.62 938.86,-336.63 1073,-316 1075.9,-315.55 1078.86,-315.07 1081.85,-314.56"/>
<polygon fill="#63b8ff" stroke="#63b8ff" points="699.84,-353.36 690.14,-357.62 700.38,-360.34 699.84,-353.36"/>
</g>
<!-- Node4&#45;&gt;Node15 -->
<g id="edge22" class="edge">
<title>Node4&#45;&gt;Node15</title>
<path fill="none" stroke="#63b8ff" d="M700.45,-351.84C763.93,-340.72 873.36,-321.55 936.41,-310.51"/>
<polygon fill="#63b8ff" stroke="#63b8ff" points="699.54,-348.44 690.3,-353.62 700.75,-355.34 699.54,-348.44"/>
</g>
<!-- Node6&#45;&gt;Node7 -->
<g id="edge7" class="edge">
<title>Node6&#45;&gt;Node7</title>
<path fill="none" stroke="#63b8ff" d="M581.11,-286.86C555.3,-274.25 517.04,-255.56 494.81,-244.7"/>
<polygon fill="#63b8ff" stroke="#63b8ff" points="579.81,-290.12 590.33,-291.37 582.88,-283.83 579.81,-290.12"/>
</g>
<!-- Node8&#45;&gt;Node7 -->
<g id="edge9" class="edge">
<title>Node8&#45;&gt;Node7</title>
<path fill="none" stroke="#63b8ff" d="M286.99,-288.64C332.5,-276.03 404.93,-255.97 445.97,-244.6"/>
<polygon fill="#63b8ff" stroke="#63b8ff" points="285.86,-285.33 277.15,-291.37 287.73,-292.07 285.86,-285.33"/>
</g>
<!-- Node9&#45;&gt;Node7 -->
<g id="edge11" class="edge">
<title>Node9&#45;&gt;Node7</title>
<path fill="none" stroke="#63b8ff" d="M381.47,-286.53C405.3,-273.92 440.2,-255.47 460.55,-244.7"/>
<polygon fill="#63b8ff" stroke="#63b8ff" points="379.52,-283.6 372.32,-291.37 382.79,-289.79 379.52,-283.6"/>
</g>
<!-- Node10&#45;&gt;Node7 -->
<g id="edge13" class="edge">
<title>Node10&#45;&gt;Node7</title>
<path fill="none" stroke="#63b8ff" d="M477,-281.08C477,-269.13 477,-254.22 477,-244.91"/>
<polygon fill="#63b8ff" stroke="#63b8ff" points="473.5,-281.37 477,-291.37 480.5,-281.37 473.5,-281.37"/>
</g>
<!-- Node12&#45;&gt;Node2 -->
<g id="edge17" class="edge">
<title>Node12&#45;&gt;Node2</title>
<path fill="none" stroke="#63b8ff" d="M1131.5,-161.55C1111.16,-154.12 1086.44,-143.25 1067,-129 1045.59,-113.31 1026.82,-87.83 1017.76,-74.42"/>
<polygon fill="#63b8ff" stroke="#63b8ff" points="1130.5,-164.91 1141.1,-164.92 1132.82,-158.3 1130.5,-164.91"/>
</g>
<!-- Node13 -->
<g id="node13" class="node">
<title>Node13</title>
<g id="a_node13"><a xlink:href="gov__effects_8h.html" target="_top" xlink:title=" ">
<polygon fill="white" stroke="#666666" points="1220,-129 1076,-129 1076,-110 1220,-110 1220,-129"/>
<text text-anchor="middle" x="1148" y="-117" font-family="Helvetica,sans-Serif" font-size="10.00">src/node/rpc/gov_effects.h</text>
</a>
</g>
</g>
<!-- Node12&#45;&gt;Node13 -->
<g id="edge18" class="edge">
<title>Node12&#45;&gt;Node13</title>
<path fill="none" stroke="#63b8ff" d="M1162.42,-155.24C1158.74,-146.37 1154.49,-136.14 1151.57,-129.09"/>
<polygon fill="#63b8ff" stroke="#63b8ff" points="1159.3,-156.85 1166.37,-164.75 1165.77,-154.17 1159.3,-156.85"/>
</g>
<!-- Node13&#45;&gt;Node2 -->
<g id="edge19" class="edge">
<title>Node13&#45;&gt;Node2</title>
<path fill="none" stroke="#63b8ff" d="M1116.67,-106.29C1091.46,-96.47 1056.67,-82.91 1034.25,-74.17"/>
<polygon fill="#63b8ff" stroke="#63b8ff" points="1115.56,-109.61 1126.15,-109.98 1118.1,-103.09 1115.56,-109.61"/>
</g>
<!-- Node14&#45;&gt;Node2 -->
<g id="edge21" class="edge">
<title>Node14&#45;&gt;Node2</title>
<path fill="none" stroke="#63b8ff" d="M1075.06,-282.97C1045.51,-273.96 1015.53,-262.26 1007,-250 967.83,-193.72 997.64,-102.61 1008.48,-74.22"/>
<polygon fill="#63b8ff" stroke="#63b8ff" points="1074.45,-286.44 1085.03,-285.91 1076.43,-279.72 1074.45,-286.44"/>
</g>
<!-- Node15&#45;&gt;Node2 -->
<g id="edge23" class="edge">
<title>Node15&#45;&gt;Node2</title>
<path fill="none" stroke="#63b8ff" d="M979.2,-281.58C969.25,-246.79 952.02,-169.58 974,-110 979.41,-95.32 992.07,-82.2 1001.29,-74.07"/>
<polygon fill="#63b8ff" stroke="#63b8ff" points="975.89,-282.73 982.11,-291.31 982.59,-280.72 975.89,-282.73"/>
</g>
<!-- Node16 -->
<g id="node16" class="node">
<title>Node16</title>
<g id="a_node16"><a xlink:href="jwt__key__auto__refresh_8h.html" target="_top" xlink:title=" ">
<polygon fill="white" stroke="#666666" points="1141.5,-250 1016.5,-250 1016.5,-220 1141.5,-220 1141.5,-250"/>
<text text-anchor="start" x="1024.5" y="-238" font-family="Helvetica,sans-Serif" font-size="10.00">src/node/jwt_key_auto</text>
<text text-anchor="middle" x="1079" y="-227" font-family="Helvetica,sans-Serif" font-size="10.00">_refresh.h</text>
</a>
</g>
</g>
<!-- Node15&#45;&gt;Node16 -->
<g id="edge24" class="edge">
<title>Node15&#45;&gt;Node16</title>
<path fill="none" stroke="#63b8ff" d="M1006.13,-285.62C1021.7,-275.01 1042.79,-260.66 1058.27,-250.12"/>
<polygon fill="#63b8ff" stroke="#63b8ff" points="1003.97,-282.85 997.68,-291.37 1007.91,-288.63 1003.97,-282.85"/>
</g>
<!-- Node16&#45;&gt;Node12 -->
<g id="edge25" class="edge">
<title>Node16&#45;&gt;Node12</title>
<path fill="none" stroke="#63b8ff" d="M1109.57,-214.35C1125.55,-204.07 1144.3,-192.02 1156.63,-184.09"/>
<polygon fill="#63b8ff" stroke="#63b8ff" points="1107.55,-211.49 1101.03,-219.84 1111.33,-217.38 1107.55,-211.49"/>
</g>
<!-- Node17&#45;&gt;Node2 -->
<g id="edge27" class="edge">
<title>Node17&#45;&gt;Node2</title>
<path fill="none" stroke="#63b8ff" d="M1569.61,-281.07C1582.8,-273.5 1595.47,-263.33 1603,-250 1609.56,-238.39 1610.99,-230.68 1603,-220 1539.11,-134.61 1210.82,-88.03 1073.02,-71.98"/>
<polygon fill="#63b8ff" stroke="#63b8ff" points="1567.65,-278.15 1560.44,-285.91 1570.92,-284.34 1567.65,-278.15"/>
</g>
<!-- Node18 -->
<g id="node18" class="node">
<title>Node18</title>
<g id="a_node18"><a xlink:href="ccf__acme__client_8h.html" target="_top" xlink:title=" ">
<polygon fill="white" stroke="#666666" points="1594.5,-244.5 1445.5,-244.5 1445.5,-225.5 1594.5,-225.5 1594.5,-244.5"/>
<text text-anchor="middle" x="1520" y="-232.5" font-family="Helvetica,sans-Serif" font-size="10.00">src/node/ccf_acme_client.h</text>
</a>
</g>
</g>
<!-- Node17&#45;&gt;Node18 -->
<g id="edge28" class="edge">
<title>Node17&#45;&gt;Node18</title>
<path fill="none" stroke="#63b8ff" d="M1520,-275.6C1520,-264.8 1520,-252.78 1520,-244.84"/>
<polygon fill="#63b8ff" stroke="#63b8ff" points="1516.5,-275.8 1520,-285.8 1523.5,-275.8 1516.5,-275.8"/>
</g>
<!-- Node18&#45;&gt;Node12 -->
<g id="edge29" class="edge">
<title>Node18&#45;&gt;Node12</title>
<path fill="none" stroke="#63b8ff" d="M1459.05,-223.81C1391.6,-212.54 1284.1,-194.57 1220.95,-184.02"/>
<polygon fill="#63b8ff" stroke="#63b8ff" points="1458.67,-227.3 1469.11,-225.49 1459.82,-220.39 1458.67,-227.3"/>
</g>
<!-- Node19&#45;&gt;Node2 -->
<g id="edge33" class="edge">
<title>Node19&#45;&gt;Node2</title>
<path fill="none" stroke="#63b8ff" d="M1711.76,-158.19C1694.47,-142.96 1665.58,-120.39 1636,-110 1533.33,-73.95 1209.09,-67.07 1073.04,-65.78"/>
<polygon fill="#63b8ff" stroke="#63b8ff" points="1709.5,-160.87 1719.26,-165 1714.2,-155.69 1709.5,-160.87"/>
</g>
<!-- Node20&#45;&gt;Node12 -->
<g id="edge35" class="edge">
<title>Node20&#45;&gt;Node12</title>
<path fill="none" stroke="#63b8ff" d="M1250.63,-220.42C1230.57,-209.24 1202.72,-193.73 1185.56,-184.17"/>
<polygon fill="#63b8ff" stroke="#63b8ff" points="1249.07,-223.56 1259.51,-225.37 1252.47,-217.44 1249.07,-223.56"/>
</g>
<!-- Node21&#45;&gt;Node12 -->
<g id="edge37" class="edge">
<title>Node21&#45;&gt;Node12</title>
<path fill="none" stroke="#63b8ff" d="M1181.24,-346.57C1192.65,-339.17 1204.7,-328.91 1211,-316 1216.85,-304.02 1214.61,-298.83 1211,-286 1205.92,-267.95 1196.29,-267.28 1189,-250 1179.35,-227.12 1173.69,-198.16 1171.32,-184.03"/>
<polygon fill="#63b8ff" stroke="#63b8ff" points="1179.14,-343.75 1172.35,-351.88 1182.73,-349.75 1179.14,-343.75"/>
</g>
<!-- Node21&#45;&gt;Node14 -->
<g id="edge38" class="edge">
<title>Node21&#45;&gt;Node14</title>
<path fill="none" stroke="#63b8ff" d="M1150.19,-341.93C1148.48,-333.58 1146.49,-323.87 1144.9,-316.11"/>
<polygon fill="#63b8ff" stroke="#63b8ff" points="1146.79,-342.78 1152.23,-351.87 1153.65,-341.37 1146.79,-342.78"/>
</g>
<!-- Node22&#45;&gt;Node12 -->
<g id="edge40" class="edge">
<title>Node22&#45;&gt;Node12</title>
<path fill="none" stroke="#63b8ff" d="M1355.89,-342.39C1368.78,-313.23 1388.19,-255.56 1360,-220 1344.16,-200.02 1281.28,-188.15 1232.14,-181.77"/>
<polygon fill="#63b8ff" stroke="#63b8ff" points="1352.58,-341.2 1351.54,-351.74 1358.93,-344.15 1352.58,-341.2"/>
</g>
</g>
</svg>
