<?xml version="1.0" encoding="UTF-8" standalone="no"?>
<!DOCTYPE svg PUBLIC "-//W3C//DTD SVG 1.1//EN"
 "http://www.w3.org/Graphics/SVG/1.1/DTD/svg11.dtd">
<!-- Generated by graphviz version 2.43.0 (0)
 -->
<!-- Title: src/node/rpc/node_interface.h Pages: 1 -->
<!--zoomable 533 -->
<svg id="main" version="1.1" xmlns="http://www.w3.org/2000/svg" xmlns:xlink="http://www.w3.org/1999/xlink" xml:space="preserve" onload="init(evt)">
<style type="text/css"><![CDATA[
.edge:hover path { stroke: red; }
.edge:hover polygon { stroke: red; fill: red; }
]]></style>
<script type="text/javascript"><![CDATA[
var edges = document.getElementsByTagName('g');
if (edges && edges.length) {
  for (var i=0;i<edges.length;i++) {
    if (edges[i].id.substr(0,4)=='edge') {
      edges[i].setAttribute('class','edge');
    }
  }
}
]]></script>
        <defs>
                <circle id="rim" cx="0" cy="0" r="7"/>
                <circle id="rim2" cx="0" cy="0" r="3.5"/>
                <g id="zoomPlus">
                        <use xlink:href="#rim" fill="#404040">
                                <set attributeName="fill" to="#808080" begin="zoomplus.mouseover" end="zoomplus.mouseout"/>
                        </use>
                        <path d="M-4,0h8M0,-4v8" fill="none" stroke="white" stroke-width="1.5" pointer-events="none"/>
                </g>
                <g id="zoomMin">
                        <use xlink:href="#rim" fill="#404040">
                                <set attributeName="fill" to="#808080" begin="zoomminus.mouseover" end="zoomminus.mouseout"/>
                        </use>
                        <path d="M-4,0h8" fill="none" stroke="white" stroke-width="1.5" pointer-events="none"/>
                </g>
                <g id="dirArrow">
                        <path fill="none" stroke="white" stroke-width="1.5" d="M0,-3.0v7 M-2.5,-0.5L0,-3.0L2.5,-0.5"/>
                </g>
               <g id="resetDef">
                       <use xlink:href="#rim2" fill="#404040">
                               <set attributeName="fill" to="#808080" begin="reset.mouseover" end="reset.mouseout"/>
                       </use>
               </g>
        </defs>

<script type="text/javascript">
var viewWidth = 2084;
var viewHeight = 533;
var sectionId = 'dynsection-1';
</script>
<script xlink:href="svgpan.js"/>
<svg id="graph" class="graph">
<g id="viewport">
<title>src/node/rpc/node_interface.h</title>
<!-- Node1 -->
<g id="node1" class="node">
<title>Node1</title>
<g id="a_node1"><a xlink:title=" ">
<polygon fill="#999999" stroke="#666666" points="1297.99,-525 1136.99,-525 1136.99,-506 1297.99,-506 1297.99,-525"/>
<text text-anchor="middle" x="1217.49" y="-513" font-family="Helvetica,sans-Serif" font-size="10.00">src/node/rpc/node_interface.h</text>
</a>
</g>
</g>
<!-- Node2 -->
<g id="node2" class="node">
<title>Node2</title>
<g id="a_node2"><a xlink:href="wrap_8cpp.html" target="_top" xlink:title=" ">
<polygon fill="white" stroke="#666666" points="337.99,-266.5 248.99,-266.5 248.99,-247.5 337.99,-247.5 337.99,-266.5"/>
<text text-anchor="middle" x="293.49" y="-254.5" font-family="Helvetica,sans-Serif" font-size="10.00">src/js/wrap.cpp</text>
</a>
</g>
</g>
<!-- Node1&#45;&gt;Node2 -->
<g id="edge1" class="edge">
<title>Node1&#45;&gt;Node2</title>
<path fill="none" stroke="#63b8ff" d="M1126.71,-508.06C857.81,-488.05 79.61,-423.22 6.49,-338 -2.2,-327.88 -2.09,-318.21 6.49,-308 36.92,-271.81 176.03,-261.81 248.81,-259.05"/>
<polygon fill="#63b8ff" stroke="#63b8ff" points="1126.59,-511.56 1136.83,-508.81 1127.11,-504.58 1126.59,-511.56"/>
</g>
<!-- Node3 -->
<g id="node3" class="node">
<title>Node3</title>
<g id="a_node3"><a xlink:href="wrap_8h.html" target="_top" xlink:title=" ">
<polygon fill="white" stroke="#666666" points="677.49,-398.5 599.49,-398.5 599.49,-379.5 677.49,-379.5 677.49,-398.5"/>
<text text-anchor="middle" x="638.49" y="-386.5" font-family="Helvetica,sans-Serif" font-size="10.00">src/js/wrap.h</text>
</a>
</g>
</g>
<!-- Node1&#45;&gt;Node3 -->
<g id="edge2" class="edge">
<title>Node1&#45;&gt;Node3</title>
<path fill="none" stroke="#63b8ff" d="M1164.49,-503.94C1120.31,-495.07 1055.74,-481.97 999.49,-470 881.29,-444.84 741.72,-413.42 676.12,-398.56"/>
<polygon fill="#63b8ff" stroke="#63b8ff" points="1163.93,-507.4 1174.42,-505.93 1165.31,-500.53 1163.93,-507.4"/>
</g>
<!-- Node14 -->
<g id="node14" class="node">
<title>Node14</title>
<g id="a_node14"><a xlink:href="member__frontend_8h.html" target="_top" xlink:title=" ">
<polygon fill="white" stroke="#666666" points="1013.49,-338 893.49,-338 893.49,-308 1013.49,-308 1013.49,-338"/>
<text text-anchor="start" x="901.49" y="-326" font-family="Helvetica,sans-Serif" font-size="10.00">src/node/rpc/member</text>
<text text-anchor="middle" x="953.49" y="-315" font-family="Helvetica,sans-Serif" font-size="10.00">_frontend.h</text>
</a>
</g>
</g>
<!-- Node1&#45;&gt;Node14 -->
<g id="edge43" class="edge">
<title>Node1&#45;&gt;Node14</title>
<path fill="none" stroke="#63b8ff" d="M1180.85,-502.49C1159.95,-494.8 1133.76,-483.69 1112.49,-470 1051.03,-430.45 990.95,-366.44 965.8,-338.18"/>
<polygon fill="#63b8ff" stroke="#63b8ff" points="1179.75,-505.82 1190.35,-505.89 1182.11,-499.23 1179.75,-505.82"/>
</g>
<!-- Node15 -->
<g id="node15" class="node">
<title>Node15</title>
<g id="a_node15"><a xlink:href="node__frontend_8h.html" target="_top" xlink:title=" ">
<polygon fill="white" stroke="#666666" points="1189.49,-332.5 1031.49,-332.5 1031.49,-313.5 1189.49,-313.5 1189.49,-332.5"/>
<text text-anchor="middle" x="1110.49" y="-320.5" font-family="Helvetica,sans-Serif" font-size="10.00">src/node/rpc/node_frontend.h</text>
</a>
</g>
</g>
<!-- Node1&#45;&gt;Node15 -->
<g id="edge51" class="edge">
<title>Node1&#45;&gt;Node15</title>
<path fill="none" stroke="#63b8ff" d="M1175.71,-502.2C1159.43,-495.31 1142.15,-485 1131.49,-470 1100.47,-426.38 1106.1,-356.67 1109.21,-332.55"/>
<polygon fill="#63b8ff" stroke="#63b8ff" points="1174.54,-505.5 1185.13,-505.87 1177.08,-498.98 1174.54,-505.5"/>
</g>
<!-- Node17 -->
<g id="node17" class="node">
<title>Node17</title>
<g id="a_node17"><a xlink:href="historical__queries_8h.html" target="_top" xlink:title=" ">
<polygon fill="white" stroke="#666666" points="1514.49,-206 1408.49,-206 1408.49,-176 1514.49,-176 1514.49,-206"/>
<text text-anchor="start" x="1416.49" y="-194" font-family="Helvetica,sans-Serif" font-size="10.00">src/node/historical</text>
<text text-anchor="middle" x="1461.49" y="-183" font-family="Helvetica,sans-Serif" font-size="10.00">_queries.h</text>
</a>
</g>
</g>
<!-- Node1&#45;&gt;Node17 -->
<g id="edge26" class="edge">
<title>Node1&#45;&gt;Node17</title>
<path fill="none" stroke="#63b8ff" d="M1285.7,-504.25C1386.77,-487.11 1564.49,-448.63 1564.49,-390 1564.49,-390 1564.49,-390 1564.49,-322 1564.49,-285.46 1567.12,-271.45 1545.49,-242 1533.73,-226 1515.18,-214.18 1498.49,-206.06"/>
<polygon fill="#63b8ff" stroke="#63b8ff" points="1284.85,-500.84 1275.57,-505.94 1286.01,-507.74 1284.85,-500.84"/>
</g>
<!-- Node19 -->
<g id="node19" class="node">
<title>Node19</title>
<g id="a_node19"><a xlink:href="node__configuration__subsystem_8h.html" target="_top" xlink:title=" ">
<polygon fill="white" stroke="#666666" points="1294.49,-470 1140.49,-470 1140.49,-440 1294.49,-440 1294.49,-470"/>
<text text-anchor="start" x="1148.49" y="-458" font-family="Helvetica,sans-Serif" font-size="10.00">src/node/node_configuration</text>
<text text-anchor="middle" x="1217.49" y="-447" font-family="Helvetica,sans-Serif" font-size="10.00">_subsystem.h</text>
</a>
</g>
</g>
<!-- Node1&#45;&gt;Node19 -->
<g id="edge30" class="edge">
<title>Node1&#45;&gt;Node19</title>
<path fill="none" stroke="#63b8ff" d="M1217.49,-495.65C1217.49,-487.36 1217.49,-477.78 1217.49,-470.11"/>
<polygon fill="#63b8ff" stroke="#63b8ff" points="1213.99,-495.87 1217.49,-505.87 1220.99,-495.87 1213.99,-495.87"/>
</g>
<!-- Node24 -->
<g id="node24" class="node">
<title>Node24</title>
<g id="a_node24"><a xlink:href="acme__subsystem_8h.html" target="_top" xlink:title=" ">
<polygon fill="white" stroke="#666666" points="1705.99,-200.5 1532.99,-200.5 1532.99,-181.5 1705.99,-181.5 1705.99,-200.5"/>
<text text-anchor="middle" x="1619.49" y="-188.5" font-family="Helvetica,sans-Serif" font-size="10.00">src/node/rpc/acme_subsystem.h</text>
</a>
</g>
</g>
<!-- Node1&#45;&gt;Node24 -->
<g id="edge41" class="edge">
<title>Node1&#45;&gt;Node24</title>
<path fill="none" stroke="#63b8ff" d="M1308.06,-509.34C1362.68,-503.92 1432.81,-492.8 1491.49,-470 1551.92,-446.51 1613.49,-454.84 1613.49,-390 1613.49,-390 1613.49,-390 1613.49,-322 1613.49,-276.14 1617.26,-221.27 1618.82,-200.51"/>
<polygon fill="#63b8ff" stroke="#63b8ff" points="1307.67,-505.86 1298.05,-510.29 1308.33,-512.83 1307.67,-505.86"/>
</g>
<!-- Node25 -->
<g id="node25" class="node">
<title>Node25</title>
<g id="a_node25"><a xlink:href="network__identity__subsystem_8h.html" target="_top" xlink:title=" ">
<polygon fill="white" stroke="#666666" points="1849.99,-470 1722.99,-470 1722.99,-440 1849.99,-440 1849.99,-470"/>
<text text-anchor="start" x="1730.99" y="-458" font-family="Helvetica,sans-Serif" font-size="10.00">src/node/rpc/network</text>
<text text-anchor="middle" x="1786.49" y="-447" font-family="Helvetica,sans-Serif" font-size="10.00">_identity_subsystem.h</text>
</a>
</g>
</g>
<!-- Node1&#45;&gt;Node25 -->
<g id="edge44" class="edge">
<title>Node1&#45;&gt;Node25</title>
<path fill="none" stroke="#63b8ff" d="M1308.37,-505.16C1424.32,-493.24 1621.89,-472.92 1722.91,-462.54"/>
<polygon fill="#63b8ff" stroke="#63b8ff" points="1307.69,-501.71 1298.1,-506.21 1308.41,-508.67 1307.69,-501.71"/>
</g>
<!-- Node29 -->
<g id="node29" class="node">
<title>Node29</title>
<g id="a_node29"><a xlink:href="node__operation_8h.html" target="_top" xlink:title=" ">
<polygon fill="white" stroke="#666666" points="2042.49,-134.5 1878.49,-134.5 1878.49,-115.5 2042.49,-115.5 2042.49,-134.5"/>
<text text-anchor="middle" x="1960.49" y="-122.5" font-family="Helvetica,sans-Serif" font-size="10.00">src/node/rpc/node_operation.h</text>
</a>
</g>
</g>
<!-- Node1&#45;&gt;Node29 -->
<g id="edge52" class="edge">
<title>Node1&#45;&gt;Node29</title>
<path fill="none" stroke="#63b8ff" d="M1308.33,-511.38C1459.69,-505.65 1756.97,-491.98 1859.49,-470 1959.99,-448.45 2076.49,-492.79 2076.49,-390 2076.49,-390 2076.49,-390 2076.49,-256 2076.49,-197.02 2009.18,-152.46 1977.11,-134.58"/>
<polygon fill="#63b8ff" stroke="#63b8ff" points="1308,-507.89 1298.14,-511.76 1308.26,-514.89 1308,-507.89"/>
</g>
<!-- Node3&#45;&gt;Node2 -->
<g id="edge15" class="edge">
<title>Node3&#45;&gt;Node2</title>
<path fill="none" stroke="#63b8ff" d="M589.2,-382.85C544.04,-376.71 476.24,-363.83 422.49,-338 403.09,-328.68 402.42,-319.89 384.49,-308 360,-291.77 329.8,-275.93 311.09,-266.57"/>
<polygon fill="#63b8ff" stroke="#63b8ff" points="588.96,-386.35 599.33,-384.17 589.86,-379.41 588.96,-386.35"/>
</g>
<!-- Node4 -->
<g id="node4" class="node">
<title>Node4</title>
<g id="a_node4"><a xlink:href="js__generic__base_8cpp.html" target="_top" xlink:title=" ">
<polygon fill="white" stroke="#666666" points="375.49,-338 257.49,-338 257.49,-308 375.49,-308 375.49,-338"/>
<text text-anchor="start" x="265.49" y="-326" font-family="Helvetica,sans-Serif" font-size="10.00">src/apps/js_generic</text>
<text text-anchor="middle" x="316.49" y="-315" font-family="Helvetica,sans-Serif" font-size="10.00">/js_generic_base.cpp</text>
</a>
</g>
</g>
<!-- Node3&#45;&gt;Node4 -->
<g id="edge3" class="edge">
<title>Node3&#45;&gt;Node4</title>
<path fill="none" stroke="#63b8ff" d="M589.4,-378.24C531.98,-366.83 436.97,-347.95 375.56,-335.74"/>
<polygon fill="#63b8ff" stroke="#63b8ff" points="588.83,-381.7 599.32,-380.22 590.2,-374.83 588.83,-381.7"/>
</g>
<!-- Node5 -->
<g id="node5" class="node">
<title>Node5</title>
<g id="a_node5"><a xlink:href="src_2enclave_2enclave_8h.html" target="_top" xlink:title=" ">
<polygon fill="white" stroke="#666666" points="1422.49,-74 1300.49,-74 1300.49,-55 1422.49,-55 1422.49,-74"/>
<text text-anchor="middle" x="1361.49" y="-62" font-family="Helvetica,sans-Serif" font-size="10.00">src/enclave/enclave.h</text>
</a>
</g>
</g>
<!-- Node3&#45;&gt;Node5 -->
<g id="edge4" class="edge">
<title>Node3&#45;&gt;Node5</title>
<path fill="none" stroke="#63b8ff" d="M648.3,-370.42C660.99,-345.98 681.49,-300.02 681.49,-258 681.49,-258 681.49,-258 681.49,-190 681.49,-127.4 1133.09,-84.15 1300.24,-70.28"/>
<polygon fill="#63b8ff" stroke="#63b8ff" points="645.07,-369.03 643.42,-379.5 651.24,-372.35 645.07,-369.03"/>
</g>
<!-- Node7 -->
<g id="node7" class="node">
<title>Node7</title>
<g id="a_node7"><a xlink:href="consensus_8cpp.html" target="_top" xlink:title=" ">
<polygon fill="white" stroke="#666666" points="653.49,-332.5 537.49,-332.5 537.49,-313.5 653.49,-313.5 653.49,-332.5"/>
<text text-anchor="middle" x="595.49" y="-320.5" font-family="Helvetica,sans-Serif" font-size="10.00">src/js/consensus.cpp</text>
</a>
</g>
</g>
<!-- Node3&#45;&gt;Node7 -->
<g id="edge6" class="edge">
<title>Node3&#45;&gt;Node7</title>
<path fill="none" stroke="#63b8ff" d="M627,-370.91C618.78,-358.68 608.05,-342.7 601.47,-332.91"/>
<polygon fill="#63b8ff" stroke="#63b8ff" points="624.21,-373.02 632.69,-379.37 630.02,-369.12 624.21,-373.02"/>
</g>
<!-- Node8 -->
<g id="node8" class="node">
<title>Node8</title>
<g id="a_node8"><a xlink:href="conv_8cpp.html" target="_top" xlink:title=" ">
<polygon fill="white" stroke="#666666" points="519.49,-332.5 431.49,-332.5 431.49,-313.5 519.49,-313.5 519.49,-332.5"/>
<text text-anchor="middle" x="475.49" y="-320.5" font-family="Helvetica,sans-Serif" font-size="10.00">src/js/conv.cpp</text>
</a>
</g>
</g>
<!-- Node3&#45;&gt;Node8 -->
<g id="edge8" class="edge">
<title>Node3&#45;&gt;Node8</title>
<path fill="none" stroke="#63b8ff" d="M607.1,-375.68C574.89,-363.03 525.61,-343.68 497.38,-332.6"/>
<polygon fill="#63b8ff" stroke="#63b8ff" points="605.92,-378.97 616.5,-379.37 608.47,-372.46 605.92,-378.97"/>
</g>
<!-- Node9 -->
<g id="node9" class="node">
<title>Node9</title>
<g id="a_node9"><a xlink:href="crypto_8cpp.html" target="_top" xlink:title=" ">
<polygon fill="white" stroke="#666666" points="111.49,-332.5 15.49,-332.5 15.49,-313.5 111.49,-313.5 111.49,-332.5"/>
<text text-anchor="middle" x="63.49" y="-320.5" font-family="Helvetica,sans-Serif" font-size="10.00">src/js/crypto.cpp</text>
</a>
</g>
</g>
<!-- Node3&#45;&gt;Node9 -->
<g id="edge10" class="edge">
<title>Node3&#45;&gt;Node9</title>
<path fill="none" stroke="#63b8ff" d="M589.06,-385.61C496.54,-380.62 291.16,-367.04 120.49,-338 112.05,-336.56 103.01,-334.56 94.68,-332.52"/>
<polygon fill="#63b8ff" stroke="#63b8ff" points="589.07,-389.12 599.24,-386.15 589.44,-382.13 589.07,-389.12"/>
</g>
<!-- Node10 -->
<g id="node10" class="node">
<title>Node10</title>
<g id="a_node10"><a xlink:href="historical_8cpp.html" target="_top" xlink:title=" ">
<polygon fill="white" stroke="#666666" points="239.49,-332.5 129.49,-332.5 129.49,-313.5 239.49,-313.5 239.49,-332.5"/>
<text text-anchor="middle" x="184.49" y="-320.5" font-family="Helvetica,sans-Serif" font-size="10.00">src/js/historical.cpp</text>
</a>
</g>
</g>
<!-- Node3&#45;&gt;Node10 -->
<g id="edge12" class="edge">
<title>Node3&#45;&gt;Node10</title>
<path fill="none" stroke="#63b8ff" d="M589.3,-383.1C515.14,-375.39 370.38,-359.1 248.49,-338 239.52,-336.45 229.91,-334.5 220.93,-332.55"/>
<polygon fill="#63b8ff" stroke="#63b8ff" points="588.98,-386.58 599.29,-384.13 589.7,-379.62 588.98,-386.58"/>
</g>
<!-- Node11 -->
<g id="node11" class="node">
<title>Node11</title>
<g id="a_node11"><a xlink:href="openenclave_8cpp.html" target="_top" xlink:title=" ">
<polygon fill="white" stroke="#666666" points="837.49,-332.5 709.49,-332.5 709.49,-313.5 837.49,-313.5 837.49,-332.5"/>
<text text-anchor="middle" x="773.49" y="-320.5" font-family="Helvetica,sans-Serif" font-size="10.00">src/js/openenclave.cpp</text>
</a>
</g>
</g>
<!-- Node3&#45;&gt;Node11 -->
<g id="edge14" class="edge">
<title>Node3&#45;&gt;Node11</title>
<path fill="none" stroke="#63b8ff" d="M665.85,-375.03C692.45,-362.42 732.12,-343.61 755.14,-332.7"/>
<polygon fill="#63b8ff" stroke="#63b8ff" points="664.23,-371.92 656.69,-379.37 667.23,-378.25 664.23,-371.92"/>
</g>
<!-- Node12 -->
<g id="node12" class="node">
<title>Node12</title>
<g id="a_node12"><a xlink:href="node__state_8h.html" target="_top" xlink:title=" ">
<polygon fill="white" stroke="#666666" points="1207.49,-200.5 1083.49,-200.5 1083.49,-181.5 1207.49,-181.5 1207.49,-200.5"/>
<text text-anchor="middle" x="1145.49" y="-188.5" font-family="Helvetica,sans-Serif" font-size="10.00">src/node/node_state.h</text>
</a>
</g>
</g>
<!-- Node3&#45;&gt;Node12 -->
<g id="edge16" class="edge">
<title>Node3&#45;&gt;Node12</title>
<path fill="none" stroke="#63b8ff" d="M687.79,-382.26C731.27,-375.79 795.45,-362.78 846.49,-338 865.84,-328.6 866.99,-320.53 884.49,-308 928.39,-276.57 937.62,-264.97 986.49,-242 1026.68,-223.1 1075.84,-208.89 1108.76,-200.54"/>
<polygon fill="#63b8ff" stroke="#63b8ff" points="687.16,-378.81 677.75,-383.69 688.15,-385.74 687.16,-378.81"/>
</g>
<!-- Node3&#45;&gt;Node14 -->
<g id="edge20" class="edge">
<title>Node3&#45;&gt;Node14</title>
<path fill="none" stroke="#63b8ff" d="M687.69,-378C743.2,-366.72 833.51,-348.38 893.21,-336.25"/>
<polygon fill="#63b8ff" stroke="#63b8ff" points="686.85,-374.6 677.74,-380.02 688.24,-381.46 686.85,-374.6"/>
</g>
<!-- Node3&#45;&gt;Node15 -->
<g id="edge22" class="edge">
<title>Node3&#45;&gt;Node15</title>
<path fill="none" stroke="#63b8ff" d="M687.79,-382.03C760.94,-373.08 902.47,-355.36 1022.49,-338 1034.12,-336.32 1046.61,-334.4 1058.41,-332.54"/>
<polygon fill="#63b8ff" stroke="#63b8ff" points="687.01,-378.6 677.51,-383.29 687.86,-385.55 687.01,-378.6"/>
</g>
<!-- Node6 -->
<g id="node6" class="node">
<title>Node6</title>
<g id="a_node6"><a xlink:href="enclave_2main_8cpp.html" target="_top" xlink:title=" ">
<polygon fill="white" stroke="#666666" points="1421.49,-19 1301.49,-19 1301.49,0 1421.49,0 1421.49,-19"/>
<text text-anchor="middle" x="1361.49" y="-7" font-family="Helvetica,sans-Serif" font-size="10.00">src/enclave/main.cpp</text>
</a>
</g>
</g>
<!-- Node5&#45;&gt;Node6 -->
<g id="edge5" class="edge">
<title>Node5&#45;&gt;Node6</title>
<path fill="none" stroke="#63b8ff" d="M1361.49,-44.66C1361.49,-35.93 1361.49,-25.99 1361.49,-19.09"/>
<polygon fill="#63b8ff" stroke="#63b8ff" points="1357.99,-44.75 1361.49,-54.75 1364.99,-44.75 1357.99,-44.75"/>
</g>
<!-- Node7&#45;&gt;Node2 -->
<g id="edge7" class="edge">
<title>Node7&#45;&gt;Node2</title>
<path fill="none" stroke="#63b8ff" d="M545.16,-311.34C485.78,-298.75 388.24,-278.08 333.66,-266.51"/>
<polygon fill="#63b8ff" stroke="#63b8ff" points="544.56,-314.79 555.07,-313.44 546.01,-307.94 544.56,-314.79"/>
</g>
<!-- Node8&#45;&gt;Node2 -->
<g id="edge9" class="edge">
<title>Node8&#45;&gt;Node2</title>
<path fill="none" stroke="#63b8ff" d="M441.36,-310C405.42,-297.36 349.72,-277.78 317.93,-266.6"/>
<polygon fill="#63b8ff" stroke="#63b8ff" points="440.35,-313.35 450.94,-313.37 442.67,-306.75 440.35,-313.35"/>
</g>
<!-- Node9&#45;&gt;Node2 -->
<g id="edge11" class="edge">
<title>Node9&#45;&gt;Node2</title>
<path fill="none" stroke="#63b8ff" d="M104.3,-310.64C149.61,-298.03 221.73,-277.97 262.59,-266.6"/>
<polygon fill="#63b8ff" stroke="#63b8ff" points="103.2,-307.32 94.51,-313.37 105.08,-314.06 103.2,-307.32"/>
</g>
<!-- Node10&#45;&gt;Node2 -->
<g id="edge13" class="edge">
<title>Node10&#45;&gt;Node2</title>
<path fill="none" stroke="#63b8ff" d="M208.01,-308.19C229.46,-295.59 260.49,-277.37 278.67,-266.7"/>
<polygon fill="#63b8ff" stroke="#63b8ff" points="206.04,-305.29 199.19,-313.37 209.58,-311.32 206.04,-305.29"/>
</g>
<!-- Node12&#45;&gt;Node5 -->
<g id="edge17" class="edge">
<title>Node12&#45;&gt;Node5</title>
<path fill="none" stroke="#63b8ff" d="M1143.85,-170.92C1143.4,-152.8 1145.81,-126.02 1161.49,-110 1180.61,-90.46 1248.91,-78.34 1300.41,-71.77"/>
<polygon fill="#63b8ff" stroke="#63b8ff" points="1140.36,-171.36 1144.42,-181.14 1147.35,-170.96 1140.36,-171.36"/>
</g>
<!-- Node13 -->
<g id="node13" class="node">
<title>Node13</title>
<g id="a_node13"><a xlink:href="gov__effects_8h.html" target="_top" xlink:title=" ">
<polygon fill="white" stroke="#666666" points="1314.49,-134.5 1170.49,-134.5 1170.49,-115.5 1314.49,-115.5 1314.49,-134.5"/>
<text text-anchor="middle" x="1242.49" y="-122.5" font-family="Helvetica,sans-Serif" font-size="10.00">src/node/rpc/gov_effects.h</text>
</a>
</g>
</g>
<!-- Node12&#45;&gt;Node13 -->
<g id="edge18" class="edge">
<title>Node12&#45;&gt;Node13</title>
<path fill="none" stroke="#63b8ff" d="M1166.93,-175.85C1186,-163.27 1213.27,-145.28 1229.3,-134.7"/>
<polygon fill="#63b8ff" stroke="#63b8ff" points="1164.99,-172.94 1158.57,-181.37 1168.84,-178.78 1164.99,-172.94"/>
</g>
<!-- Node13&#45;&gt;Node5 -->
<g id="edge19" class="edge">
<title>Node13&#45;&gt;Node5</title>
<path fill="none" stroke="#63b8ff" d="M1268.97,-110.98C1291.9,-99.71 1324.41,-83.73 1344.16,-74.02"/>
<polygon fill="#63b8ff" stroke="#63b8ff" points="1267.22,-107.94 1259.79,-115.49 1270.31,-114.22 1267.22,-107.94"/>
</g>
<!-- Node14&#45;&gt;Node5 -->
<g id="edge21" class="edge">
<title>Node14&#45;&gt;Node5</title>
<path fill="none" stroke="#63b8ff" d="M960.17,-298.12C964.76,-282.14 971.15,-260.7 977.49,-242 987.56,-212.29 984.63,-201.79 1002.49,-176 1027.76,-139.49 1037.29,-128.85 1077.49,-110 1149.1,-76.41 1240.91,-67.36 1300.45,-65.33"/>
<polygon fill="#63b8ff" stroke="#63b8ff" points="956.8,-297.17 957.43,-307.74 963.54,-299.08 956.8,-297.17"/>
</g>
<!-- Node15&#45;&gt;Node5 -->
<g id="edge23" class="edge">
<title>Node15&#45;&gt;Node5</title>
<path fill="none" stroke="#63b8ff" d="M1043.33,-310.49C1021.5,-303.22 999.55,-291.36 986.49,-272 979.03,-260.95 980.88,-254.1 986.49,-242 1024.7,-159.61 1060.76,-149.62 1142.49,-110 1192.41,-85.8 1254.89,-74.75 1300.33,-69.71"/>
<polygon fill="#63b8ff" stroke="#63b8ff" points="1042.4,-313.87 1052.99,-313.43 1044.44,-307.17 1042.4,-313.87"/>
</g>
<!-- Node16 -->
<g id="node16" class="node">
<title>Node16</title>
<g id="a_node16"><a xlink:href="jwt__key__auto__refresh_8h.html" target="_top" xlink:title=" ">
<polygon fill="white" stroke="#666666" points="1119.99,-272 994.99,-272 994.99,-242 1119.99,-242 1119.99,-272"/>
<text text-anchor="start" x="1002.99" y="-260" font-family="Helvetica,sans-Serif" font-size="10.00">src/node/jwt_key_auto</text>
<text text-anchor="middle" x="1057.49" y="-249" font-family="Helvetica,sans-Serif" font-size="10.00">_refresh.h</text>
</a>
</g>
</g>
<!-- Node15&#45;&gt;Node16 -->
<g id="edge24" class="edge">
<title>Node15&#45;&gt;Node16</title>
<path fill="none" stroke="#63b8ff" d="M1096.86,-305.54C1088.36,-295.28 1077.53,-282.2 1069.38,-272.36"/>
<polygon fill="#63b8ff" stroke="#63b8ff" points="1094.26,-307.9 1103.34,-313.37 1099.66,-303.43 1094.26,-307.9"/>
</g>
<!-- Node16&#45;&gt;Node12 -->
<g id="edge25" class="edge">
<title>Node16&#45;&gt;Node12</title>
<path fill="none" stroke="#63b8ff" d="M1085.16,-235.87C1101.45,-224.03 1121.22,-209.65 1133.58,-200.66"/>
<polygon fill="#63b8ff" stroke="#63b8ff" points="1083.05,-233.08 1077.02,-241.8 1087.16,-238.75 1083.05,-233.08"/>
</g>
<!-- Node17&#45;&gt;Node5 -->
<g id="edge27" class="edge">
<title>Node17&#45;&gt;Node5</title>
<path fill="none" stroke="#63b8ff" d="M1443.57,-167.69C1421.11,-139.73 1383.71,-93.17 1368.37,-74.07"/>
<polygon fill="#63b8ff" stroke="#63b8ff" points="1441.02,-170.11 1450.02,-175.72 1446.48,-165.73 1441.02,-170.11"/>
</g>
<!-- Node18 -->
<g id="node18" class="node">
<title>Node18</title>
<g id="a_node18"><a xlink:href="historical__transaction__fetcher_8h.html" target="_top" xlink:title=" ">
<polygon fill="white" stroke="#666666" points="1571.99,-140 1446.99,-140 1446.99,-110 1571.99,-110 1571.99,-140"/>
<text text-anchor="start" x="1454.99" y="-128" font-family="Helvetica,sans-Serif" font-size="10.00">src/indexing/historical</text>
<text text-anchor="middle" x="1509.49" y="-117" font-family="Helvetica,sans-Serif" font-size="10.00">_transaction_fetcher.h</text>
</a>
</g>
</g>
<!-- Node17&#45;&gt;Node18 -->
<g id="edge28" class="edge">
<title>Node17&#45;&gt;Node18</title>
<path fill="none" stroke="#63b8ff" d="M1478.34,-167.53C1485.17,-158.43 1492.84,-148.19 1498.86,-140.16"/>
<polygon fill="#63b8ff" stroke="#63b8ff" points="1475.34,-165.7 1472.14,-175.8 1480.94,-169.9 1475.34,-165.7"/>
</g>
<!-- Node18&#45;&gt;Node5 -->
<g id="edge29" class="edge">
<title>Node18&#45;&gt;Node5</title>
<path fill="none" stroke="#63b8ff" d="M1464.44,-106.19C1437.55,-95.57 1404.61,-82.54 1383.34,-74.14"/>
<polygon fill="#63b8ff" stroke="#63b8ff" points="1463.45,-109.57 1474.04,-109.99 1466.02,-103.06 1463.45,-109.57"/>
</g>
<!-- Node20 -->
<g id="node20" class="node">
<title>Node20</title>
<g id="a_node20"><a xlink:href="frontend_8h.html" target="_top" xlink:title=" ">
<polygon fill="white" stroke="#666666" points="1281.99,-398.5 1152.99,-398.5 1152.99,-379.5 1281.99,-379.5 1281.99,-398.5"/>
<text text-anchor="middle" x="1217.49" y="-386.5" font-family="Helvetica,sans-Serif" font-size="10.00">src/node/rpc/frontend.h</text>
</a>
</g>
</g>
<!-- Node19&#45;&gt;Node20 -->
<g id="edge31" class="edge">
<title>Node19&#45;&gt;Node20</title>
<path fill="none" stroke="#63b8ff" d="M1217.49,-429.6C1217.49,-418.8 1217.49,-406.78 1217.49,-398.84"/>
<polygon fill="#63b8ff" stroke="#63b8ff" points="1213.99,-429.8 1217.49,-439.8 1220.99,-429.8 1213.99,-429.8"/>
</g>
<!-- Node20&#45;&gt;Node12 -->
<g id="edge36" class="edge">
<title>Node20&#45;&gt;Node12</title>
<path fill="none" stroke="#63b8ff" d="M1215.55,-368.93C1213.25,-352.15 1208.4,-327.42 1198.49,-308 1188.89,-289.19 1177.42,-290.63 1167.49,-272 1154.75,-248.1 1148.86,-216.16 1146.62,-200.88"/>
<polygon fill="#63b8ff" stroke="#63b8ff" points="1212.1,-369.61 1216.76,-379.12 1219.05,-368.78 1212.1,-369.61"/>
</g>
<!-- Node20&#45;&gt;Node14 -->
<g id="edge37" class="edge">
<title>Node20&#45;&gt;Node14</title>
<path fill="none" stroke="#63b8ff" d="M1172.21,-377.02C1127.74,-366.24 1059.71,-349.75 1011.34,-338.02"/>
<polygon fill="#63b8ff" stroke="#63b8ff" points="1171.61,-380.48 1182.16,-379.44 1173.26,-373.68 1171.61,-380.48"/>
</g>
<!-- Node20&#45;&gt;Node15 -->
<g id="edge38" class="edge">
<title>Node20&#45;&gt;Node15</title>
<path fill="none" stroke="#63b8ff" d="M1194.4,-374.19C1173.34,-361.59 1142.87,-343.37 1125.03,-332.7"/>
<polygon fill="#63b8ff" stroke="#63b8ff" points="1192.68,-377.24 1203.06,-379.37 1196.27,-371.23 1192.68,-377.24"/>
</g>
<!-- Node21 -->
<g id="node21" class="node">
<title>Node21</title>
<g id="a_node21"><a xlink:href="acme__challenge__frontend_8h.html" target="_top" xlink:title=" ">
<polygon fill="white" stroke="#666666" points="1385.49,-338 1245.49,-338 1245.49,-308 1385.49,-308 1385.49,-338"/>
<text text-anchor="start" x="1253.49" y="-326" font-family="Helvetica,sans-Serif" font-size="10.00">src/node/acme_challenge</text>
<text text-anchor="middle" x="1315.49" y="-315" font-family="Helvetica,sans-Serif" font-size="10.00">_frontend.h</text>
</a>
</g>
</g>
<!-- Node20&#45;&gt;Node21 -->
<g id="edge32" class="edge">
<title>Node20&#45;&gt;Node21</title>
<path fill="none" stroke="#63b8ff" d="M1239.51,-373.62C1255.75,-363.01 1277.73,-348.66 1293.87,-338.12"/>
<polygon fill="#63b8ff" stroke="#63b8ff" points="1237.16,-370.97 1230.7,-379.37 1240.99,-376.83 1237.16,-370.97"/>
</g>
<!-- Node23 -->
<g id="node23" class="node">
<title>Node23</title>
<g id="a_node23"><a xlink:href="user__frontend_8h.html" target="_top" xlink:title=" ">
<polygon fill="white" stroke="#666666" points="1535.99,-266.5 1380.99,-266.5 1380.99,-247.5 1535.99,-247.5 1535.99,-266.5"/>
<text text-anchor="middle" x="1458.49" y="-254.5" font-family="Helvetica,sans-Serif" font-size="10.00">src/node/rpc/user_frontend.h</text>
</a>
</g>
</g>
<!-- Node20&#45;&gt;Node23 -->
<g id="edge39" class="edge">
<title>Node20&#45;&gt;Node23</title>
<path fill="none" stroke="#63b8ff" d="M1292.28,-377.52C1325.61,-370.28 1364.1,-358.16 1394.49,-338 1422.94,-319.12 1444.72,-283.56 1453.82,-266.96"/>
<polygon fill="#63b8ff" stroke="#63b8ff" points="1291.21,-374.17 1282.12,-379.62 1292.62,-381.03 1291.21,-374.17"/>
</g>
<!-- Node21&#45;&gt;Node5 -->
<g id="edge33" class="edge">
<title>Node21&#45;&gt;Node5</title>
<path fill="none" stroke="#63b8ff" d="M1325.72,-298.48C1328.95,-290.24 1332.26,-280.84 1334.49,-272 1353.37,-196.97 1359.55,-103.08 1361.07,-74.29"/>
<polygon fill="#63b8ff" stroke="#63b8ff" points="1322.43,-297.26 1321.88,-307.84 1328.91,-299.92 1322.43,-297.26"/>
</g>
<!-- Node22 -->
<g id="node22" class="node">
<title>Node22</title>
<g id="a_node22"><a xlink:href="ccf__acme__client_8h.html" target="_top" xlink:title=" ">
<polygon fill="white" stroke="#666666" points="1324.99,-266.5 1175.99,-266.5 1175.99,-247.5 1324.99,-247.5 1324.99,-266.5"/>
<text text-anchor="middle" x="1250.49" y="-254.5" font-family="Helvetica,sans-Serif" font-size="10.00">src/node/ccf_acme_client.h</text>
</a>
</g>
</g>
<!-- Node21&#45;&gt;Node22 -->
<g id="edge34" class="edge">
<title>Node21&#45;&gt;Node22</title>
<path fill="none" stroke="#63b8ff" d="M1293.76,-300.6C1282.07,-289.1 1268.28,-275.52 1259.47,-266.84"/>
<polygon fill="#63b8ff" stroke="#63b8ff" points="1291.48,-303.27 1301.06,-307.8 1296.39,-298.29 1291.48,-303.27"/>
</g>
<!-- Node22&#45;&gt;Node12 -->
<g id="edge35" class="edge">
<title>Node22&#45;&gt;Node12</title>
<path fill="none" stroke="#63b8ff" d="M1227.55,-242.02C1206.9,-229.43 1177.19,-211.32 1159.76,-200.7"/>
<polygon fill="#63b8ff" stroke="#63b8ff" points="1225.97,-245.15 1236.33,-247.37 1229.61,-239.18 1225.97,-245.15"/>
</g>
<!-- Node23&#45;&gt;Node5 -->
<g id="edge40" class="edge">
<title>Node23&#45;&gt;Node5</title>
<path fill="none" stroke="#63b8ff" d="M1435.41,-241.53C1423.07,-232.68 1408.58,-220.32 1399.49,-206 1371.44,-161.85 1363.9,-97.24 1362.05,-74.12"/>
<polygon fill="#63b8ff" stroke="#63b8ff" points="1433.68,-244.59 1443.91,-247.33 1437.63,-238.81 1433.68,-244.59"/>
</g>
<!-- Node24&#45;&gt;Node5 -->
<g id="edge42" class="edge">
<title>Node24&#45;&gt;Node5</title>
<path fill="none" stroke="#63b8ff" d="M1615.77,-171.57C1611.04,-153.1 1601.04,-125.28 1581.49,-110 1557.19,-91.01 1478.87,-78.49 1422.59,-71.7"/>
<polygon fill="#63b8ff" stroke="#63b8ff" points="1612.38,-172.46 1618.01,-181.43 1619.2,-170.9 1612.38,-172.46"/>
</g>
<!-- Node25&#45;&gt;Node5 -->
<g id="edge46" class="edge">
<title>Node25&#45;&gt;Node5</title>
<path fill="none" stroke="#63b8ff" d="M1771.18,-431.16C1755.84,-406.03 1734.49,-363.88 1734.49,-324 1734.49,-324 1734.49,-324 1734.49,-190 1734.49,-125.06 1528.48,-87.88 1422.66,-73.07"/>
<polygon fill="#63b8ff" stroke="#63b8ff" points="1768.41,-433.34 1776.71,-439.93 1774.33,-429.6 1768.41,-433.34"/>
</g>
<!-- Node26 -->
<g id="node26" class="node">
<title>Node26</title>
<g id="a_node26"><a xlink:href="external__executor_8cpp.html" target="_top" xlink:title=" ">
<polygon fill="white" stroke="#666666" points="1910.49,-338 1762.49,-338 1762.49,-308 1910.49,-308 1910.49,-338"/>
<text text-anchor="start" x="1770.49" y="-326" font-family="Helvetica,sans-Serif" font-size="10.00">src/apps/external_executor</text>
<text text-anchor="middle" x="1836.49" y="-315" font-family="Helvetica,sans-Serif" font-size="10.00">/external_executor.cpp</text>
</a>
</g>
</g>
<!-- Node25&#45;&gt;Node26 -->
<g id="edge45" class="edge">
<title>Node25&#45;&gt;Node26</title>
<path fill="none" stroke="#63b8ff" d="M1790.15,-429.74C1793.1,-413.54 1798,-391.99 1805.49,-374 1810.82,-361.17 1819.24,-347.86 1825.95,-338.2"/>
<polygon fill="#63b8ff" stroke="#63b8ff" points="1786.63,-429.55 1788.41,-439.99 1793.54,-430.71 1786.63,-429.55"/>
</g>
<!-- Node27 -->
<g id="node27" class="node">
<title>Node27</title>
<g id="a_node27"><a xlink:href="historical__queries__adapter_8cpp.html" target="_top" xlink:title=" ">
<polygon fill="white" stroke="#666666" points="2048.49,-338 1928.49,-338 1928.49,-308 2048.49,-308 2048.49,-338"/>
<text text-anchor="start" x="1936.49" y="-326" font-family="Helvetica,sans-Serif" font-size="10.00">src/node/historical</text>
<text text-anchor="middle" x="1988.49" y="-315" font-family="Helvetica,sans-Serif" font-size="10.00">_queries_adapter.cpp</text>
</a>
</g>
</g>
<!-- Node25&#45;&gt;Node27 -->
<g id="edge47" class="edge">
<title>Node25&#45;&gt;Node27</title>
<path fill="none" stroke="#63b8ff" d="M1859.94,-437.55C1883.63,-429.93 1909.03,-419.1 1929.49,-404 1953.51,-386.27 1972.01,-355.97 1981.48,-338.18"/>
<polygon fill="#63b8ff" stroke="#63b8ff" points="1858.79,-434.24 1850.26,-440.53 1860.84,-440.93 1858.79,-434.24"/>
</g>
<!-- Node28 -->
<g id="node28" class="node">
<title>Node28</title>
<g id="a_node28"><a xlink:href="historical__queries__utils_8h.html" target="_top" xlink:title=" ">
<polygon fill="white" stroke="#666666" points="1920.49,-404 1814.49,-404 1814.49,-374 1920.49,-374 1920.49,-404"/>
<text text-anchor="start" x="1822.49" y="-392" font-family="Helvetica,sans-Serif" font-size="10.00">src/node/historical</text>
<text text-anchor="middle" x="1867.49" y="-381" font-family="Helvetica,sans-Serif" font-size="10.00">_queries_utils.h</text>
</a>
</g>
</g>
<!-- Node25&#45;&gt;Node28 -->
<g id="edge48" class="edge">
<title>Node25&#45;&gt;Node28</title>
<path fill="none" stroke="#63b8ff" d="M1812.46,-433.48C1824.56,-423.91 1838.66,-412.77 1849.56,-404.16"/>
<polygon fill="#63b8ff" stroke="#63b8ff" points="1810.14,-430.85 1804.46,-439.8 1814.48,-436.34 1810.14,-430.85"/>
</g>
<!-- Node28&#45;&gt;Node26 -->
<g id="edge49" class="edge">
<title>Node28&#45;&gt;Node26</title>
<path fill="none" stroke="#63b8ff" d="M1856.19,-364.68C1851.89,-355.79 1847.12,-345.95 1843.35,-338.16"/>
<polygon fill="#63b8ff" stroke="#63b8ff" points="1853.1,-366.32 1860.61,-373.8 1859.4,-363.27 1853.1,-366.32"/>
</g>
<!-- Node28&#45;&gt;Node27 -->
<g id="edge50" class="edge">
<title>Node28&#45;&gt;Node27</title>
<path fill="none" stroke="#63b8ff" d="M1902.95,-369.24C1921.84,-359.25 1944.67,-347.18 1961.99,-338.01"/>
<polygon fill="#63b8ff" stroke="#63b8ff" points="1901.24,-366.19 1894.04,-373.95 1904.52,-372.37 1901.24,-366.19"/>
</g>
<!-- Node29&#45;&gt;Node5 -->
<g id="edge53" class="edge">
<title>Node29&#45;&gt;Node5</title>
<path fill="none" stroke="#63b8ff" d="M1868.24,-114.99C1744.44,-102.9 1527.94,-81.76 1422.57,-71.47"/>
<polygon fill="#63b8ff" stroke="#63b8ff" points="1868.16,-118.5 1878.45,-115.99 1868.84,-111.53 1868.16,-118.5"/>
</g>
</g>
</svg>
        <g id="navigator" transform="translate(0 0)" fill="#404254">
                <rect fill="#f2f5e9" fill-opacity="0.5" stroke="#606060" stroke-width=".5" x="0" y="0" width="60" height="60"/>
                <use id="zoomplus" xlink:href="#zoomPlus" x="17" y="9" onmousedown="handleZoom(evt,'in')"/>
                <use id="zoomminus" xlink:href="#zoomMin" x="42" y="9" onmousedown="handleZoom(evt,'out')"/>
                <use id="reset" xlink:href="#resetDef" x="30" y="36" onmousedown="handleReset()"/>
                <g id="arrowUp" xlink:href="#dirArrow" transform="translate(30 24)" onmousedown="handlePan(0,-1)">
                  <use xlink:href="#rim" fill="#404040">
                        <set attributeName="fill" to="#808080" begin="arrowUp.mouseover" end="arrowUp.mouseout"/>
                  </use>
                  <path fill="none" stroke="white" stroke-width="1.5" d="M0,-3.0v7 M-2.5,-0.5L0,-3.0L2.5,-0.5"/>
                </g>
                <g id="arrowRight" xlink:href="#dirArrow" transform="rotate(90) translate(36 -43)" onmousedown="handlePan(1,0)">
                  <use xlink:href="#rim" fill="#404040">
                        <set attributeName="fill" to="#808080" begin="arrowRight.mouseover" end="arrowRight.mouseout"/>
                  </use>
                  <path fill="none" stroke="white" stroke-width="1.5" d="M0,-3.0v7 M-2.5,-0.5L0,-3.0L2.5,-0.5"/>
                </g>
                <g id="arrowDown" xlink:href="#dirArrow" transform="rotate(180) translate(-30 -48)" onmousedown="handlePan(0,1)">
                  <use xlink:href="#rim" fill="#404040">
                        <set attributeName="fill" to="#808080" begin="arrowDown.mouseover" end="arrowDown.mouseout"/>
                  </use>
                  <path fill="none" stroke="white" stroke-width="1.5" d="M0,-3.0v7 M-2.5,-0.5L0,-3.0L2.5,-0.5"/>
                </g>
                <g id="arrowLeft" xlink:href="#dirArrow" transform="rotate(270) translate(-36 17)" onmousedown="handlePan(-1,0)">
                  <use xlink:href="#rim" fill="#404040">
                        <set attributeName="fill" to="#808080" begin="arrowLeft.mouseover" end="arrowLeft.mouseout"/>
                  </use>
                  <path fill="none" stroke="white" stroke-width="1.5" d="M0,-3.0v7 M-2.5,-0.5L0,-3.0L2.5,-0.5"/>
                </g>
        </g>
        <svg viewBox="0 0 15 15" width="100%" height="30px" preserveAspectRatio="xMaxYMin meet">
         <g id="arrow_out" transform="scale(0.3 0.3)">
          <a xlink:href="node__interface_8h__dep__incl_org.svg" target="_base">
           <rect id="button" ry="5" rx="5" y="6" x="6" height="38" width="38"
                fill="#f2f5e9" fill-opacity="0.5" stroke="#606060" stroke-width="1.0"/>
           <path id="arrow"
             d="M 11.500037,31.436501 C 11.940474,20.09759 22.043105,11.32322 32.158766,21.979434 L 37.068811,17.246167 C 37.068811,17.246167 37.088388,32 37.088388,32 L 22.160133,31.978069 C 22.160133,31.978069 26.997745,27.140456 26.997745,27.140456 C 18.528582,18.264221 13.291696,25.230495 11.500037,31.436501 z"
             style="fill:#404040;"/>
          </a>
         </g>
        </svg>
</svg>
