<?xml version="1.0" encoding="UTF-8" standalone="no"?>
<!DOCTYPE svg PUBLIC "-//W3C//DTD SVG 1.1//EN"
 "http://www.w3.org/Graphics/SVG/1.1/DTD/svg11.dtd">
<!-- Generated by graphviz version 2.43.0 (0)
 -->
<!-- Title: src/node/rpc/node_call_types.h Pages: 1 -->
<svg width="488pt" height="500pt"
 viewBox="0.00 0.00 488.00 500.00" xmlns="http://www.w3.org/2000/svg" xmlns:xlink="http://www.w3.org/1999/xlink">
<g id="graph0" class="graph" transform="scale(1 1) rotate(0) translate(4 496)">
<title>src/node/rpc/node_call_types.h</title>
<!-- Node1 -->
<g id="node1" class="node">
<title>Node1</title>
<g id="a_node1"><a xlink:title=" ">
<polygon fill="#999999" stroke="#666666" points="261.5,-492 136.5,-492 136.5,-462 261.5,-462 261.5,-492"/>
<text text-anchor="start" x="144.5" y="-480" font-family="Helvetica,sans-Serif" font-size="10.00">src/node/rpc/node_call</text>
<text text-anchor="middle" x="199" y="-469" font-family="Helvetica,sans-Serif" font-size="10.00">_types.h</text>
</a>
</g>
</g>
<!-- Node2 -->
<g id="node2" class="node">
<title>Node2</title>
<g id="a_node2"><a xlink:href="call__types_8h.html" target="_top" xlink:title=" ">
<polygon fill="white" stroke="#666666" points="267.5,-426 130.5,-426 130.5,-407 267.5,-407 267.5,-426"/>
<text text-anchor="middle" x="199" y="-414" font-family="Helvetica,sans-Serif" font-size="10.00">src/node/rpc/call_types.h</text>
</a>
</g>
</g>
<!-- Node1&#45;&gt;Node2 -->
<g id="edge1" class="edge">
<title>Node1&#45;&gt;Node2</title>
<path fill="none" stroke="#63b8ff" d="M199,-451.75C199,-442.72 199,-433.03 199,-426.27"/>
<polygon fill="#63b8ff" stroke="#63b8ff" points="195.5,-451.84 199,-461.84 202.5,-451.84 195.5,-451.84"/>
</g>
<!-- Node3 -->
<g id="node3" class="node">
<title>Node3</title>
<g id="a_node3"><a xlink:href="common__endpoint__registry_8cpp.html" target="_top" xlink:title=" ">
<polygon fill="white" stroke="#666666" points="128,-316 0,-316 0,-286 128,-286 128,-316"/>
<text text-anchor="start" x="8" y="-304" font-family="Helvetica,sans-Serif" font-size="10.00">src/endpoints/common</text>
<text text-anchor="middle" x="64" y="-293" font-family="Helvetica,sans-Serif" font-size="10.00">_endpoint_registry.cpp</text>
</a>
</g>
</g>
<!-- Node2&#45;&gt;Node3 -->
<g id="edge2" class="edge">
<title>Node2&#45;&gt;Node3</title>
<path fill="none" stroke="#63b8ff" d="M181.2,-400.53C155.02,-378.53 106.5,-337.73 80.87,-316.18"/>
<polygon fill="#63b8ff" stroke="#63b8ff" points="178.95,-403.21 188.85,-406.97 183.45,-397.85 178.95,-403.21"/>
</g>
<!-- Node4 -->
<g id="node4" class="node">
<title>Node4</title>
<g id="a_node4"><a xlink:href="wrap_8cpp.html" target="_top" xlink:title=" ">
<polygon fill="white" stroke="#666666" points="431.5,-371 342.5,-371 342.5,-352 431.5,-352 431.5,-371"/>
<text text-anchor="middle" x="387" y="-359" font-family="Helvetica,sans-Serif" font-size="10.00">src/js/wrap.cpp</text>
</a>
</g>
</g>
<!-- Node2&#45;&gt;Node4 -->
<g id="edge3" class="edge">
<title>Node2&#45;&gt;Node4</title>
<path fill="none" stroke="#63b8ff" d="M239.14,-404.18C274.3,-394.27 324.63,-380.08 356.56,-371.08"/>
<polygon fill="#63b8ff" stroke="#63b8ff" points="237.88,-400.9 229.21,-406.98 239.78,-407.64 237.88,-400.9"/>
</g>
<!-- Node5 -->
<g id="node5" class="node">
<title>Node5</title>
<g id="a_node5"><a xlink:href="member__frontend_8h.html" target="_top" xlink:title=" ">
<polygon fill="white" stroke="#666666" points="266,-316 146,-316 146,-286 266,-286 266,-316"/>
<text text-anchor="start" x="154" y="-304" font-family="Helvetica,sans-Serif" font-size="10.00">src/node/rpc/member</text>
<text text-anchor="middle" x="206" y="-293" font-family="Helvetica,sans-Serif" font-size="10.00">_frontend.h</text>
</a>
</g>
</g>
<!-- Node2&#45;&gt;Node5 -->
<g id="edge4" class="edge">
<title>Node2&#45;&gt;Node5</title>
<path fill="none" stroke="#63b8ff" d="M182.75,-399.42C172.12,-386.89 161.2,-368.85 167,-352 171.73,-338.26 181.95,-325.39 190.74,-316.16"/>
<polygon fill="#63b8ff" stroke="#63b8ff" points="180.17,-401.79 189.51,-406.79 185.33,-397.06 180.17,-401.79"/>
</g>
<!-- Node8 -->
<g id="node8" class="node">
<title>Node8</title>
<g id="a_node8"><a xlink:href="serialization_8h.html" target="_top" xlink:title=" ">
<polygon fill="white" stroke="#666666" points="324,-371 176,-371 176,-352 324,-352 324,-371"/>
<text text-anchor="middle" x="250" y="-359" font-family="Helvetica,sans-Serif" font-size="10.00">src/node/rpc/serialization.h</text>
</a>
</g>
</g>
<!-- Node2&#45;&gt;Node8 -->
<g id="edge7" class="edge">
<title>Node2&#45;&gt;Node8</title>
<path fill="none" stroke="#63b8ff" d="M214.38,-399.52C223.37,-390.18 234.36,-378.75 241.74,-371.09"/>
<polygon fill="#63b8ff" stroke="#63b8ff" points="211.83,-397.12 207.42,-406.75 216.88,-401.97 211.83,-397.12"/>
</g>
<!-- Node6 -->
<g id="node6" class="node">
<title>Node6</title>
<g id="a_node6"><a xlink:href="src_2enclave_2enclave_8h.html" target="_top" xlink:title=" ">
<polygon fill="white" stroke="#666666" points="379,-74 257,-74 257,-55 379,-55 379,-74"/>
<text text-anchor="middle" x="318" y="-62" font-family="Helvetica,sans-Serif" font-size="10.00">src/enclave/enclave.h</text>
</a>
</g>
</g>
<!-- Node5&#45;&gt;Node6 -->
<g id="edge5" class="edge">
<title>Node5&#45;&gt;Node6</title>
<path fill="none" stroke="#63b8ff" d="M212.52,-275.99C223.23,-238.75 246.76,-165.58 280,-110 288.24,-96.22 300.78,-82.5 309.18,-74.01"/>
<polygon fill="#63b8ff" stroke="#63b8ff" points="209.06,-275.34 209.72,-285.91 215.8,-277.24 209.06,-275.34"/>
</g>
<!-- Node7 -->
<g id="node7" class="node">
<title>Node7</title>
<g id="a_node7"><a xlink:href="enclave_2main_8cpp.html" target="_top" xlink:title=" ">
<polygon fill="white" stroke="#666666" points="378,-19 258,-19 258,0 378,0 378,-19"/>
<text text-anchor="middle" x="318" y="-7" font-family="Helvetica,sans-Serif" font-size="10.00">src/enclave/main.cpp</text>
</a>
</g>
</g>
<!-- Node6&#45;&gt;Node7 -->
<g id="edge6" class="edge">
<title>Node6&#45;&gt;Node7</title>
<path fill="none" stroke="#63b8ff" d="M318,-44.66C318,-35.93 318,-25.99 318,-19.09"/>
<polygon fill="#63b8ff" stroke="#63b8ff" points="314.5,-44.75 318,-54.75 321.5,-44.75 314.5,-44.75"/>
</g>
<!-- Node8&#45;&gt;Node3 -->
<g id="edge8" class="edge">
<title>Node8&#45;&gt;Node3</title>
<path fill="none" stroke="#63b8ff" d="M213.29,-348.95C183.27,-339.51 140.72,-326.13 108.72,-316.06"/>
<polygon fill="#63b8ff" stroke="#63b8ff" points="212.36,-352.33 222.95,-351.99 214.46,-345.65 212.36,-352.33"/>
</g>
<!-- Node8&#45;&gt;Node5 -->
<g id="edge13" class="edge">
<title>Node8&#45;&gt;Node5</title>
<path fill="none" stroke="#63b8ff" d="M237.29,-343.61C230.74,-334.89 222.84,-324.39 216.62,-316.11"/>
<polygon fill="#63b8ff" stroke="#63b8ff" points="234.7,-345.98 243.51,-351.87 240.29,-341.77 234.7,-345.98"/>
</g>
<!-- Node9 -->
<g id="node9" class="node">
<title>Node9</title>
<g id="a_node9"><a xlink:href="node__state_8h.html" target="_top" xlink:title=" ">
<polygon fill="white" stroke="#666666" points="406,-184 282,-184 282,-165 406,-165 406,-184"/>
<text text-anchor="middle" x="344" y="-172" font-family="Helvetica,sans-Serif" font-size="10.00">src/node/node_state.h</text>
</a>
</g>
</g>
<!-- Node8&#45;&gt;Node9 -->
<g id="edge9" class="edge">
<title>Node8&#45;&gt;Node9</title>
<path fill="none" stroke="#63b8ff" d="M260.53,-342.96C265.2,-334.88 270.63,-325.08 275,-316 294.98,-274.51 292.35,-260.64 314,-220 321.01,-206.84 330.98,-192.75 337.47,-184.03"/>
<polygon fill="#63b8ff" stroke="#63b8ff" points="257.38,-341.42 255.31,-351.81 263.41,-344.97 257.38,-341.42"/>
</g>
<!-- Node11 -->
<g id="node11" class="node">
<title>Node11</title>
<g id="a_node11"><a xlink:href="node__frontend_8h.html" target="_top" xlink:title=" ">
<polygon fill="white" stroke="#666666" points="480,-310.5 322,-310.5 322,-291.5 480,-291.5 480,-310.5"/>
<text text-anchor="middle" x="401" y="-298.5" font-family="Helvetica,sans-Serif" font-size="10.00">src/node/rpc/node_frontend.h</text>
</a>
</g>
</g>
<!-- Node8&#45;&gt;Node11 -->
<g id="edge14" class="edge">
<title>Node8&#45;&gt;Node11</title>
<path fill="none" stroke="#63b8ff" d="M281.29,-348.38C310.48,-337.07 353.28,-320.49 379.02,-310.52"/>
<polygon fill="#63b8ff" stroke="#63b8ff" points="280.02,-345.12 271.96,-351.99 282.55,-351.64 280.02,-345.12"/>
</g>
<!-- Node9&#45;&gt;Node6 -->
<g id="edge10" class="edge">
<title>Node9&#45;&gt;Node6</title>
<path fill="none" stroke="#63b8ff" d="M316.76,-159.57C305.35,-152.17 293.3,-141.91 287,-129 277.42,-109.37 296.15,-86.34 308.45,-74.13"/>
<polygon fill="#63b8ff" stroke="#63b8ff" points="315.27,-162.75 325.65,-164.88 318.86,-156.75 315.27,-162.75"/>
</g>
<!-- Node10 -->
<g id="node10" class="node">
<title>Node10</title>
<g id="a_node10"><a xlink:href="gov__effects_8h.html" target="_top" xlink:title=" ">
<polygon fill="white" stroke="#666666" points="440,-129 296,-129 296,-110 440,-110 440,-129"/>
<text text-anchor="middle" x="368" y="-117" font-family="Helvetica,sans-Serif" font-size="10.00">src/node/rpc/gov_effects.h</text>
</a>
</g>
</g>
<!-- Node9&#45;&gt;Node10 -->
<g id="edge11" class="edge">
<title>Node9&#45;&gt;Node10</title>
<path fill="none" stroke="#63b8ff" d="M352.14,-155.53C356.18,-146.6 360.88,-136.22 364.11,-129.09"/>
<polygon fill="#63b8ff" stroke="#63b8ff" points="348.9,-154.19 347.96,-164.75 355.28,-157.08 348.9,-154.19"/>
</g>
<!-- Node10&#45;&gt;Node6 -->
<g id="edge12" class="edge">
<title>Node10&#45;&gt;Node6</title>
<path fill="none" stroke="#63b8ff" d="M352.66,-102.24C343.9,-92.95 333.26,-81.68 326.1,-74.09"/>
<polygon fill="#63b8ff" stroke="#63b8ff" points="350.34,-104.88 359.74,-109.75 355.43,-100.07 350.34,-104.88"/>
</g>
<!-- Node11&#45;&gt;Node6 -->
<g id="edge15" class="edge">
<title>Node11&#45;&gt;Node6</title>
<path fill="none" stroke="#63b8ff" d="M424.83,-285.75C436.89,-277.09 450.36,-264.84 457,-250 471.06,-218.59 489.06,-161.84 449,-110 432.33,-88.43 404.69,-77.24 379.09,-71.46"/>
<polygon fill="#63b8ff" stroke="#63b8ff" points="422.76,-282.92 416.42,-291.4 426.67,-288.73 422.76,-282.92"/>
</g>
<!-- Node12 -->
<g id="node12" class="node">
<title>Node12</title>
<g id="a_node12"><a xlink:href="jwt__key__auto__refresh_8h.html" target="_top" xlink:title=" ">
<polygon fill="white" stroke="#666666" points="447.5,-250 322.5,-250 322.5,-220 447.5,-220 447.5,-250"/>
<text text-anchor="start" x="330.5" y="-238" font-family="Helvetica,sans-Serif" font-size="10.00">src/node/jwt_key_auto</text>
<text text-anchor="middle" x="385" y="-227" font-family="Helvetica,sans-Serif" font-size="10.00">_refresh.h</text>
</a>
</g>
</g>
<!-- Node11&#45;&gt;Node12 -->
<g id="edge16" class="edge">
<title>Node11&#45;&gt;Node12</title>
<path fill="none" stroke="#63b8ff" d="M396.34,-281.35C393.87,-271.47 390.88,-259.51 388.59,-250.36"/>
<polygon fill="#63b8ff" stroke="#63b8ff" points="393.02,-282.52 398.84,-291.37 399.81,-280.82 393.02,-282.52"/>
</g>
<!-- Node12&#45;&gt;Node9 -->
<g id="edge17" class="edge">
<title>Node12&#45;&gt;Node9</title>
<path fill="none" stroke="#63b8ff" d="M369.24,-211.51C362.57,-201.99 355.19,-191.47 350.14,-184.27"/>
<polygon fill="#63b8ff" stroke="#63b8ff" points="366.47,-213.66 375.08,-219.84 372.2,-209.64 366.47,-213.66"/>
</g>
</g>
</svg>
