<?xml version="1.0" encoding="UTF-8" standalone="no"?>
<!DOCTYPE svg PUBLIC "-//W3C//DTD SVG 1.1//EN"
 "http://www.w3.org/Graphics/SVG/1.1/DTD/svg11.dtd">
<!-- Generated by graphviz version 2.43.0 (0)
 -->
<!-- Title: src/node/rpc/node_operation_interface.h Pages: 1 -->
<svg width="1999pt" height="599pt"
 viewBox="0.00 0.00 1999.49 599.00" xmlns="http://www.w3.org/2000/svg" xmlns:xlink="http://www.w3.org/1999/xlink">
<g id="graph0" class="graph" transform="scale(1 1) rotate(0) translate(4 595)">
<title>src/node/rpc/node_operation_interface.h</title>
<!-- Node1 -->
<g id="node1" class="node">
<title>Node1</title>
<g id="a_node1"><a xlink:title=" ">
<polygon fill="#999999" stroke="#666666" points="1298.99,-591 1143.99,-591 1143.99,-561 1298.99,-561 1298.99,-591"/>
<text text-anchor="start" x="1151.99" y="-579" font-family="Helvetica,sans-Serif" font-size="10.00">src/node/rpc/node_operation</text>
<text text-anchor="middle" x="1221.49" y="-568" font-family="Helvetica,sans-Serif" font-size="10.00">_interface.h</text>
</a>
</g>
</g>
<!-- Node2 -->
<g id="node2" class="node">
<title>Node2</title>
<g id="a_node2"><a xlink:href="member__frontend_8h.html" target="_top" xlink:title=" ">
<polygon fill="white" stroke="#666666" points="1017.49,-338 897.49,-338 897.49,-308 1017.49,-308 1017.49,-338"/>
<text text-anchor="start" x="905.49" y="-326" font-family="Helvetica,sans-Serif" font-size="10.00">src/node/rpc/member</text>
<text text-anchor="middle" x="957.49" y="-315" font-family="Helvetica,sans-Serif" font-size="10.00">_frontend.h</text>
</a>
</g>
</g>
<!-- Node1&#45;&gt;Node2 -->
<g id="edge1" class="edge">
<title>Node1&#45;&gt;Node2</title>
<path fill="none" stroke="#63b8ff" d="M1183.64,-556.14C1167.39,-547.43 1148.5,-536.49 1132.49,-525 1122.83,-518.06 1000.15,-404.86 999.49,-404 983.32,-382.99 970.19,-354.86 963.14,-338.16"/>
<polygon fill="#63b8ff" stroke="#63b8ff" points="1182.38,-559.43 1192.86,-560.99 1185.64,-553.23 1182.38,-559.43"/>
</g>
<!-- Node5 -->
<g id="node5" class="node">
<title>Node5</title>
<g id="a_node5"><a xlink:href="node__interface_8h.html" target="_top" xlink:title=" ">
<polygon fill="white" stroke="#666666" points="1301.99,-525 1140.99,-525 1140.99,-506 1301.99,-506 1301.99,-525"/>
<text text-anchor="middle" x="1221.49" y="-513" font-family="Helvetica,sans-Serif" font-size="10.00">src/node/rpc/node_interface.h</text>
</a>
</g>
</g>
<!-- Node1&#45;&gt;Node5 -->
<g id="edge4" class="edge">
<title>Node1&#45;&gt;Node5</title>
<path fill="none" stroke="#63b8ff" d="M1221.49,-550.75C1221.49,-541.72 1221.49,-532.03 1221.49,-525.27"/>
<polygon fill="#63b8ff" stroke="#63b8ff" points="1217.99,-550.84 1221.49,-560.84 1224.99,-550.84 1217.99,-550.84"/>
</g>
<!-- Node30 -->
<g id="node30" class="node">
<title>Node30</title>
<g id="a_node30"><a xlink:href="node__operation_8h.html" target="_top" xlink:title=" ">
<polygon fill="white" stroke="#666666" points="1991.49,-464.5 1827.49,-464.5 1827.49,-445.5 1991.49,-445.5 1991.49,-464.5"/>
<text text-anchor="middle" x="1909.49" y="-452.5" font-family="Helvetica,sans-Serif" font-size="10.00">src/node/rpc/node_operation.h</text>
</a>
</g>
</g>
<!-- Node1&#45;&gt;Node30 -->
<g id="edge56" class="edge">
<title>Node1&#45;&gt;Node30</title>
<path fill="none" stroke="#63b8ff" d="M1309.36,-559.8C1455.73,-534.49 1744.75,-484.49 1860.18,-464.53"/>
<polygon fill="#63b8ff" stroke="#63b8ff" points="1308.33,-556.43 1299.08,-561.58 1309.53,-563.32 1308.33,-556.43"/>
</g>
<!-- Node3 -->
<g id="node3" class="node">
<title>Node3</title>
<g id="a_node3"><a xlink:href="src_2enclave_2enclave_8h.html" target="_top" xlink:title=" ">
<polygon fill="white" stroke="#666666" points="1346.49,-74 1224.49,-74 1224.49,-55 1346.49,-55 1346.49,-74"/>
<text text-anchor="middle" x="1285.49" y="-62" font-family="Helvetica,sans-Serif" font-size="10.00">src/enclave/enclave.h</text>
</a>
</g>
</g>
<!-- Node2&#45;&gt;Node3 -->
<g id="edge2" class="edge">
<title>Node2&#45;&gt;Node3</title>
<path fill="none" stroke="#63b8ff" d="M952.79,-297.71C945.78,-253.43 938.38,-159.57 989.49,-110 1022.04,-78.43 1147.75,-69.23 1224.49,-66.56"/>
<polygon fill="#63b8ff" stroke="#63b8ff" points="949.39,-298.58 954.53,-307.85 956.29,-297.4 949.39,-298.58"/>
</g>
<!-- Node4 -->
<g id="node4" class="node">
<title>Node4</title>
<g id="a_node4"><a xlink:href="enclave_2main_8cpp.html" target="_top" xlink:title=" ">
<polygon fill="white" stroke="#666666" points="1345.49,-19 1225.49,-19 1225.49,0 1345.49,0 1345.49,-19"/>
<text text-anchor="middle" x="1285.49" y="-7" font-family="Helvetica,sans-Serif" font-size="10.00">src/enclave/main.cpp</text>
</a>
</g>
</g>
<!-- Node3&#45;&gt;Node4 -->
<g id="edge3" class="edge">
<title>Node3&#45;&gt;Node4</title>
<path fill="none" stroke="#63b8ff" d="M1285.49,-44.66C1285.49,-35.93 1285.49,-25.99 1285.49,-19.09"/>
<polygon fill="#63b8ff" stroke="#63b8ff" points="1281.99,-44.75 1285.49,-54.75 1288.99,-44.75 1281.99,-44.75"/>
</g>
<!-- Node5&#45;&gt;Node2 -->
<g id="edge45" class="edge">
<title>Node5&#45;&gt;Node2</title>
<path fill="none" stroke="#63b8ff" d="M1184.86,-502.49C1163.96,-494.8 1137.76,-483.69 1116.49,-470 1055.04,-430.45 994.95,-366.44 969.8,-338.18"/>
<polygon fill="#63b8ff" stroke="#63b8ff" points="1183.76,-505.82 1194.35,-505.89 1186.11,-499.23 1183.76,-505.82"/>
</g>
<!-- Node6 -->
<g id="node6" class="node">
<title>Node6</title>
<g id="a_node6"><a xlink:href="wrap_8cpp.html" target="_top" xlink:title=" ">
<polygon fill="white" stroke="#666666" points="273.99,-266.5 184.99,-266.5 184.99,-247.5 273.99,-247.5 273.99,-266.5"/>
<text text-anchor="middle" x="229.49" y="-254.5" font-family="Helvetica,sans-Serif" font-size="10.00">src/js/wrap.cpp</text>
</a>
</g>
</g>
<!-- Node5&#45;&gt;Node6 -->
<g id="edge5" class="edge">
<title>Node5&#45;&gt;Node6</title>
<path fill="none" stroke="#63b8ff" d="M1130.71,-508.06C861.82,-488.05 83.61,-423.22 10.49,-338 -39.92,-279.25 107.22,-263.63 184.87,-259.49"/>
<polygon fill="#63b8ff" stroke="#63b8ff" points="1130.6,-511.56 1140.83,-508.81 1131.12,-504.58 1130.6,-511.56"/>
</g>
<!-- Node7 -->
<g id="node7" class="node">
<title>Node7</title>
<g id="a_node7"><a xlink:href="wrap_8h.html" target="_top" xlink:title=" ">
<polygon fill="white" stroke="#666666" points="678.49,-398.5 600.49,-398.5 600.49,-379.5 678.49,-379.5 678.49,-398.5"/>
<text text-anchor="middle" x="639.49" y="-386.5" font-family="Helvetica,sans-Serif" font-size="10.00">src/js/wrap.h</text>
</a>
</g>
</g>
<!-- Node5&#45;&gt;Node7 -->
<g id="edge6" class="edge">
<title>Node5&#45;&gt;Node7</title>
<path fill="none" stroke="#63b8ff" d="M1169.15,-503.97C1125.18,-495.08 1060.68,-481.92 1004.49,-470 885.03,-444.66 743.89,-413.33 677.55,-398.52"/>
<polygon fill="#63b8ff" stroke="#63b8ff" points="1168.55,-507.42 1179.04,-505.97 1169.93,-500.56 1168.55,-507.42"/>
</g>
<!-- Node16 -->
<g id="node16" class="node">
<title>Node16</title>
<g id="a_node16"><a xlink:href="node__frontend_8h.html" target="_top" xlink:title=" ">
<polygon fill="white" stroke="#666666" points="1193.49,-332.5 1035.49,-332.5 1035.49,-313.5 1193.49,-313.5 1193.49,-332.5"/>
<text text-anchor="middle" x="1114.49" y="-320.5" font-family="Helvetica,sans-Serif" font-size="10.00">src/node/rpc/node_frontend.h</text>
</a>
</g>
</g>
<!-- Node5&#45;&gt;Node16 -->
<g id="edge53" class="edge">
<title>Node5&#45;&gt;Node16</title>
<path fill="none" stroke="#63b8ff" d="M1179.72,-502.2C1163.44,-495.31 1146.16,-485 1135.49,-470 1104.48,-426.38 1110.11,-356.67 1113.22,-332.55"/>
<polygon fill="#63b8ff" stroke="#63b8ff" points="1178.54,-505.5 1189.13,-505.87 1181.08,-498.98 1178.54,-505.5"/>
</g>
<!-- Node18 -->
<g id="node18" class="node">
<title>Node18</title>
<g id="a_node18"><a xlink:href="historical__queries_8h.html" target="_top" xlink:title=" ">
<polygon fill="white" stroke="#666666" points="1551.49,-206 1445.49,-206 1445.49,-176 1551.49,-176 1551.49,-206"/>
<text text-anchor="start" x="1453.49" y="-194" font-family="Helvetica,sans-Serif" font-size="10.00">src/node/historical</text>
<text text-anchor="middle" x="1498.49" y="-183" font-family="Helvetica,sans-Serif" font-size="10.00">_queries.h</text>
</a>
</g>
</g>
<!-- Node5&#45;&gt;Node18 -->
<g id="edge28" class="edge">
<title>Node5&#45;&gt;Node18</title>
<path fill="none" stroke="#63b8ff" d="M1306.67,-504.04C1373.57,-490.51 1455.49,-459.7 1455.49,-390 1455.49,-390 1455.49,-390 1455.49,-322 1455.49,-278.02 1477.95,-229.72 1490.4,-206.3"/>
<polygon fill="#63b8ff" stroke="#63b8ff" points="1305.66,-500.67 1296.5,-505.99 1306.98,-507.55 1305.66,-500.67"/>
</g>
<!-- Node20 -->
<g id="node20" class="node">
<title>Node20</title>
<g id="a_node20"><a xlink:href="node__configuration__subsystem_8h.html" target="_top" xlink:title=" ">
<polygon fill="white" stroke="#666666" points="1298.49,-470 1144.49,-470 1144.49,-440 1298.49,-440 1298.49,-470"/>
<text text-anchor="start" x="1152.49" y="-458" font-family="Helvetica,sans-Serif" font-size="10.00">src/node/node_configuration</text>
<text text-anchor="middle" x="1221.49" y="-447" font-family="Helvetica,sans-Serif" font-size="10.00">_subsystem.h</text>
</a>
</g>
</g>
<!-- Node5&#45;&gt;Node20 -->
<g id="edge32" class="edge">
<title>Node5&#45;&gt;Node20</title>
<path fill="none" stroke="#63b8ff" d="M1221.49,-495.65C1221.49,-487.36 1221.49,-477.78 1221.49,-470.11"/>
<polygon fill="#63b8ff" stroke="#63b8ff" points="1217.99,-495.87 1221.49,-505.87 1224.99,-495.87 1217.99,-495.87"/>
</g>
<!-- Node25 -->
<g id="node25" class="node">
<title>Node25</title>
<g id="a_node25"><a xlink:href="acme__subsystem_8h.html" target="_top" xlink:title=" ">
<polygon fill="white" stroke="#666666" points="1832.99,-200.5 1659.99,-200.5 1659.99,-181.5 1832.99,-181.5 1832.99,-200.5"/>
<text text-anchor="middle" x="1746.49" y="-188.5" font-family="Helvetica,sans-Serif" font-size="10.00">src/node/rpc/acme_subsystem.h</text>
</a>
</g>
</g>
<!-- Node5&#45;&gt;Node25 -->
<g id="edge43" class="edge">
<title>Node5&#45;&gt;Node25</title>
<path fill="none" stroke="#63b8ff" d="M1312.47,-509.72C1413.85,-503.49 1570.85,-490.84 1626.49,-470 1722.78,-433.94 1768.84,-429.12 1816.49,-338 1843.32,-286.69 1781.65,-223.42 1756.53,-200.66"/>
<polygon fill="#63b8ff" stroke="#63b8ff" points="1312,-506.25 1302.23,-510.34 1312.42,-513.23 1312,-506.25"/>
</g>
<!-- Node26 -->
<g id="node26" class="node">
<title>Node26</title>
<g id="a_node26"><a xlink:href="network__identity__subsystem_8h.html" target="_top" xlink:title=" ">
<polygon fill="white" stroke="#666666" points="1616.99,-470 1489.99,-470 1489.99,-440 1616.99,-440 1616.99,-470"/>
<text text-anchor="start" x="1497.99" y="-458" font-family="Helvetica,sans-Serif" font-size="10.00">src/node/rpc/network</text>
<text text-anchor="middle" x="1553.49" y="-447" font-family="Helvetica,sans-Serif" font-size="10.00">_identity_subsystem.h</text>
</a>
</g>
</g>
<!-- Node5&#45;&gt;Node26 -->
<g id="edge46" class="edge">
<title>Node5&#45;&gt;Node26</title>
<path fill="none" stroke="#63b8ff" d="M1279.64,-504.25C1338.44,-493.89 1429.08,-477.92 1489.8,-467.22"/>
<polygon fill="#63b8ff" stroke="#63b8ff" points="1279.01,-500.81 1269.77,-505.99 1280.22,-507.71 1279.01,-500.81"/>
</g>
<!-- Node5&#45;&gt;Node30 -->
<g id="edge54" class="edge">
<title>Node5&#45;&gt;Node30</title>
<path fill="none" stroke="#63b8ff" d="M1312.37,-509.64C1428.73,-502.97 1636.48,-489.54 1813.49,-470 1827.22,-468.48 1842,-466.5 1855.76,-464.51"/>
<polygon fill="#63b8ff" stroke="#63b8ff" points="1311.87,-506.17 1302.09,-510.23 1312.27,-513.15 1311.87,-506.17"/>
</g>
<!-- Node7&#45;&gt;Node2 -->
<g id="edge23" class="edge">
<title>Node7&#45;&gt;Node2</title>
<path fill="none" stroke="#63b8ff" d="M679.96,-376.99C684.18,-375.94 688.42,-374.92 692.49,-374 776.75,-354.96 798.61,-354.03 883.49,-338 887.99,-337.15 892.64,-336.27 897.32,-335.39"/>
<polygon fill="#63b8ff" stroke="#63b8ff" points="679.05,-373.61 670.23,-379.48 680.78,-380.39 679.05,-373.61"/>
</g>
<!-- Node7&#45;&gt;Node3 -->
<g id="edge8" class="edge">
<title>Node7&#45;&gt;Node3</title>
<path fill="none" stroke="#63b8ff" d="M688.64,-386.72C727.56,-383.01 780.52,-371.55 812.49,-338 837.7,-311.54 831.49,-294.54 831.49,-258 831.49,-258 831.49,-258 831.49,-190 831.49,-109.5 1100.34,-79.17 1224.26,-69.46"/>
<polygon fill="#63b8ff" stroke="#63b8ff" points="688.25,-383.24 678.57,-387.53 688.82,-390.21 688.25,-383.24"/>
</g>
<!-- Node7&#45;&gt;Node6 -->
<g id="edge18" class="edge">
<title>Node7&#45;&gt;Node6</title>
<path fill="none" stroke="#63b8ff" d="M590.37,-385.53C506.6,-380.56 340.34,-367.26 290.49,-338 261.12,-320.76 241.1,-283.37 233.23,-266.53"/>
<polygon fill="#63b8ff" stroke="#63b8ff" points="590.22,-389.02 600.4,-386.1 590.62,-382.03 590.22,-389.02"/>
</g>
<!-- Node8 -->
<g id="node8" class="node">
<title>Node8</title>
<g id="a_node8"><a xlink:href="js__generic__base_8cpp.html" target="_top" xlink:title=" ">
<polygon fill="white" stroke="#666666" points="417.49,-338 299.49,-338 299.49,-308 417.49,-308 417.49,-338"/>
<text text-anchor="start" x="307.49" y="-326" font-family="Helvetica,sans-Serif" font-size="10.00">src/apps/js_generic</text>
<text text-anchor="middle" x="358.49" y="-315" font-family="Helvetica,sans-Serif" font-size="10.00">/js_generic_base.cpp</text>
</a>
</g>
</g>
<!-- Node7&#45;&gt;Node8 -->
<g id="edge7" class="edge">
<title>Node7&#45;&gt;Node8</title>
<path fill="none" stroke="#63b8ff" d="M592.05,-377.19C544,-366.25 469.56,-349.3 417.67,-337.48"/>
<polygon fill="#63b8ff" stroke="#63b8ff" points="591.36,-380.63 601.89,-379.44 592.91,-373.8 591.36,-380.63"/>
</g>
<!-- Node9 -->
<g id="node9" class="node">
<title>Node9</title>
<g id="a_node9"><a xlink:href="consensus_8cpp.html" target="_top" xlink:title=" ">
<polygon fill="white" stroke="#666666" points="697.49,-332.5 581.49,-332.5 581.49,-313.5 697.49,-313.5 697.49,-332.5"/>
<text text-anchor="middle" x="639.49" y="-320.5" font-family="Helvetica,sans-Serif" font-size="10.00">src/js/consensus.cpp</text>
</a>
</g>
</g>
<!-- Node7&#45;&gt;Node9 -->
<g id="edge9" class="edge">
<title>Node7&#45;&gt;Node9</title>
<path fill="none" stroke="#63b8ff" d="M639.49,-369.08C639.49,-357.13 639.49,-342.22 639.49,-332.91"/>
<polygon fill="#63b8ff" stroke="#63b8ff" points="635.99,-369.37 639.49,-379.37 642.99,-369.37 635.99,-369.37"/>
</g>
<!-- Node10 -->
<g id="node10" class="node">
<title>Node10</title>
<g id="a_node10"><a xlink:href="conv_8cpp.html" target="_top" xlink:title=" ">
<polygon fill="white" stroke="#666666" points="803.49,-332.5 715.49,-332.5 715.49,-313.5 803.49,-313.5 803.49,-332.5"/>
<text text-anchor="middle" x="759.49" y="-320.5" font-family="Helvetica,sans-Serif" font-size="10.00">src/js/conv.cpp</text>
</a>
</g>
</g>
<!-- Node7&#45;&gt;Node10 -->
<g id="edge11" class="edge">
<title>Node7&#45;&gt;Node10</title>
<path fill="none" stroke="#63b8ff" d="M664.75,-374.53C688.39,-361.92 722.99,-343.47 743.18,-332.7"/>
<polygon fill="#63b8ff" stroke="#63b8ff" points="662.85,-371.57 655.67,-379.37 666.15,-377.75 662.85,-371.57"/>
</g>
<!-- Node11 -->
<g id="node11" class="node">
<title>Node11</title>
<g id="a_node11"><a xlink:href="crypto_8cpp.html" target="_top" xlink:title=" ">
<polygon fill="white" stroke="#666666" points="115.49,-332.5 19.49,-332.5 19.49,-313.5 115.49,-313.5 115.49,-332.5"/>
<text text-anchor="middle" x="67.49" y="-320.5" font-family="Helvetica,sans-Serif" font-size="10.00">src/js/crypto.cpp</text>
</a>
</g>
</g>
<!-- Node7&#45;&gt;Node11 -->
<g id="edge13" class="edge">
<title>Node7&#45;&gt;Node11</title>
<path fill="none" stroke="#63b8ff" d="M590.35,-385.59C498.37,-380.56 294.17,-366.92 124.49,-338 116.05,-336.56 107.02,-334.56 98.68,-332.52"/>
<polygon fill="#63b8ff" stroke="#63b8ff" points="590.3,-389.09 600.47,-386.13 590.68,-382.1 590.3,-389.09"/>
</g>
<!-- Node12 -->
<g id="node12" class="node">
<title>Node12</title>
<g id="a_node12"><a xlink:href="historical_8cpp.html" target="_top" xlink:title=" ">
<polygon fill="white" stroke="#666666" points="243.49,-332.5 133.49,-332.5 133.49,-313.5 243.49,-313.5 243.49,-332.5"/>
<text text-anchor="middle" x="188.49" y="-320.5" font-family="Helvetica,sans-Serif" font-size="10.00">src/js/historical.cpp</text>
</a>
</g>
</g>
<!-- Node7&#45;&gt;Node12 -->
<g id="edge15" class="edge">
<title>Node7&#45;&gt;Node12</title>
<path fill="none" stroke="#63b8ff" d="M590.05,-382.65C517.08,-374.5 376.34,-357.81 257.49,-338 247.97,-336.41 237.75,-334.47 228.17,-332.55"/>
<polygon fill="#63b8ff" stroke="#63b8ff" points="589.99,-386.16 600.31,-383.79 590.76,-379.21 589.99,-386.16"/>
</g>
<!-- Node13 -->
<g id="node13" class="node">
<title>Node13</title>
<g id="a_node13"><a xlink:href="openenclave_8cpp.html" target="_top" xlink:title=" ">
<polygon fill="white" stroke="#666666" points="563.49,-332.5 435.49,-332.5 435.49,-313.5 563.49,-313.5 563.49,-332.5"/>
<text text-anchor="middle" x="499.49" y="-320.5" font-family="Helvetica,sans-Serif" font-size="10.00">src/js/openenclave.cpp</text>
</a>
</g>
</g>
<!-- Node7&#45;&gt;Node13 -->
<g id="edge17" class="edge">
<title>Node7&#45;&gt;Node13</title>
<path fill="none" stroke="#63b8ff" d="M611.48,-375.19C583.89,-362.58 542.49,-343.66 518.52,-332.7"/>
<polygon fill="#63b8ff" stroke="#63b8ff" points="610.06,-378.39 620.61,-379.37 612.97,-372.03 610.06,-378.39"/>
</g>
<!-- Node14 -->
<g id="node14" class="node">
<title>Node14</title>
<g id="a_node14"><a xlink:href="node__state_8h.html" target="_top" xlink:title=" ">
<polygon fill="white" stroke="#666666" points="1208.49,-200.5 1084.49,-200.5 1084.49,-181.5 1208.49,-181.5 1208.49,-200.5"/>
<text text-anchor="middle" x="1146.49" y="-188.5" font-family="Helvetica,sans-Serif" font-size="10.00">src/node/node_state.h</text>
</a>
</g>
</g>
<!-- Node7&#45;&gt;Node14 -->
<g id="edge19" class="edge">
<title>Node7&#45;&gt;Node14</title>
<path fill="none" stroke="#63b8ff" d="M680.83,-376.96C684.77,-375.95 688.7,-374.95 692.49,-374 760.27,-357.08 781.71,-366.49 845.49,-338 866.77,-328.5 868.59,-320.13 888.49,-308 942.13,-275.3 956.2,-267.77 1013.49,-242 1049.94,-225.61 1093.52,-209.94 1120.6,-200.64"/>
<polygon fill="#63b8ff" stroke="#63b8ff" points="679.92,-373.58 671.12,-379.49 681.68,-380.36 679.92,-373.58"/>
</g>
<!-- Node7&#45;&gt;Node16 -->
<g id="edge24" class="edge">
<title>Node7&#45;&gt;Node16</title>
<path fill="none" stroke="#63b8ff" d="M688.89,-382.09C762.52,-373.17 905.38,-355.45 1026.49,-338 1038.13,-336.32 1050.61,-334.41 1062.41,-332.54"/>
<polygon fill="#63b8ff" stroke="#63b8ff" points="688.05,-378.66 678.54,-383.34 688.89,-385.61 688.05,-378.66"/>
</g>
<!-- Node9&#45;&gt;Node6 -->
<g id="edge10" class="edge">
<title>Node9&#45;&gt;Node6</title>
<path fill="none" stroke="#63b8ff" d="M590.51,-311.41C584.45,-310.2 578.34,-309.04 572.49,-308 465.83,-289.1 339.59,-272.06 274.03,-263.61"/>
<polygon fill="#63b8ff" stroke="#63b8ff" points="590.1,-314.89 600.6,-313.45 591.49,-308.03 590.1,-314.89"/>
</g>
<!-- Node10&#45;&gt;Node6 -->
<g id="edge12" class="edge">
<title>Node10&#45;&gt;Node6</title>
<path fill="none" stroke="#63b8ff" d="M720.44,-310.96C715.77,-309.85 711.04,-308.83 706.49,-308 549.04,-279.13 359.06,-265.42 274.21,-260.39"/>
<polygon fill="#63b8ff" stroke="#63b8ff" points="719.96,-314.45 730.51,-313.49 721.66,-307.66 719.96,-314.45"/>
</g>
<!-- Node11&#45;&gt;Node6 -->
<g id="edge14" class="edge">
<title>Node11&#45;&gt;Node6</title>
<path fill="none" stroke="#63b8ff" d="M98.69,-309.68C130.7,-297.03 179.68,-277.68 207.73,-266.6"/>
<polygon fill="#63b8ff" stroke="#63b8ff" points="97.35,-306.44 89.34,-313.37 99.93,-312.95 97.35,-306.44"/>
</g>
<!-- Node12&#45;&gt;Node6 -->
<g id="edge16" class="edge">
<title>Node12&#45;&gt;Node6</title>
<path fill="none" stroke="#63b8ff" d="M199.44,-304.91C207.28,-292.68 217.51,-276.7 223.79,-266.91"/>
<polygon fill="#63b8ff" stroke="#63b8ff" points="196.47,-303.06 194.02,-313.37 202.36,-306.84 196.47,-303.06"/>
</g>
<!-- Node14&#45;&gt;Node3 -->
<g id="edge20" class="edge">
<title>Node14&#45;&gt;Node3</title>
<path fill="none" stroke="#63b8ff" d="M1159.27,-173.5C1172.89,-156.5 1195.61,-129.76 1218.49,-110 1234.98,-95.77 1256.25,-82.35 1270.36,-74.05"/>
<polygon fill="#63b8ff" stroke="#63b8ff" points="1156.47,-171.4 1153.02,-181.42 1161.96,-175.73 1156.47,-171.4"/>
</g>
<!-- Node15 -->
<g id="node15" class="node">
<title>Node15</title>
<g id="a_node15"><a xlink:href="gov__effects_8h.html" target="_top" xlink:title=" ">
<polygon fill="white" stroke="#666666" points="1166.49,-134.5 1022.49,-134.5 1022.49,-115.5 1166.49,-115.5 1166.49,-134.5"/>
<text text-anchor="middle" x="1094.49" y="-122.5" font-family="Helvetica,sans-Serif" font-size="10.00">src/node/rpc/gov_effects.h</text>
</a>
</g>
</g>
<!-- Node14&#45;&gt;Node15 -->
<g id="edge21" class="edge">
<title>Node14&#45;&gt;Node15</title>
<path fill="none" stroke="#63b8ff" d="M1132.9,-173.27C1122.92,-160.99 1109.76,-144.8 1101.73,-134.91"/>
<polygon fill="#63b8ff" stroke="#63b8ff" points="1130.46,-175.81 1139.48,-181.37 1135.89,-171.4 1130.46,-175.81"/>
</g>
<!-- Node15&#45;&gt;Node3 -->
<g id="edge22" class="edge">
<title>Node15&#45;&gt;Node3</title>
<path fill="none" stroke="#63b8ff" d="M1132.16,-112.46C1169.1,-101.15 1224.57,-84.16 1257.68,-74.02"/>
<polygon fill="#63b8ff" stroke="#63b8ff" points="1130.8,-109.22 1122.26,-115.49 1132.85,-115.91 1130.8,-109.22"/>
</g>
<!-- Node16&#45;&gt;Node3 -->
<g id="edge25" class="edge">
<title>Node16&#45;&gt;Node3</title>
<path fill="none" stroke="#63b8ff" d="M1065.85,-310.13C1046.04,-302.64 1025.11,-290.71 1013.49,-272 975.52,-210.83 966.87,-164.87 1013.49,-110 1039.98,-78.82 1152.44,-69.44 1224.21,-66.65"/>
<polygon fill="#63b8ff" stroke="#63b8ff" points="1064.84,-313.48 1075.43,-313.45 1067.14,-306.87 1064.84,-313.48"/>
</g>
<!-- Node17 -->
<g id="node17" class="node">
<title>Node17</title>
<g id="a_node17"><a xlink:href="jwt__key__auto__refresh_8h.html" target="_top" xlink:title=" ">
<polygon fill="white" stroke="#666666" points="1146.99,-272 1021.99,-272 1021.99,-242 1146.99,-242 1146.99,-272"/>
<text text-anchor="start" x="1029.99" y="-260" font-family="Helvetica,sans-Serif" font-size="10.00">src/node/jwt_key_auto</text>
<text text-anchor="middle" x="1084.49" y="-249" font-family="Helvetica,sans-Serif" font-size="10.00">_refresh.h</text>
</a>
</g>
</g>
<!-- Node16&#45;&gt;Node17 -->
<g id="edge26" class="edge">
<title>Node16&#45;&gt;Node17</title>
<path fill="none" stroke="#63b8ff" d="M1106.19,-304.3C1101.48,-294.24 1095.65,-281.81 1091.22,-272.36"/>
<polygon fill="#63b8ff" stroke="#63b8ff" points="1103.03,-305.8 1110.44,-313.37 1109.37,-302.83 1103.03,-305.8"/>
</g>
<!-- Node17&#45;&gt;Node14 -->
<g id="edge27" class="edge">
<title>Node17&#45;&gt;Node14</title>
<path fill="none" stroke="#63b8ff" d="M1105.22,-234.6C1116.37,-223.1 1129.51,-209.52 1137.92,-200.84"/>
<polygon fill="#63b8ff" stroke="#63b8ff" points="1102.69,-232.18 1098.25,-241.8 1107.72,-237.05 1102.69,-232.18"/>
</g>
<!-- Node18&#45;&gt;Node3 -->
<g id="edge29" class="edge">
<title>Node18&#45;&gt;Node3</title>
<path fill="none" stroke="#63b8ff" d="M1534.58,-170.54C1559.9,-154.41 1586.3,-130.83 1568.49,-110 1540.53,-77.3 1421.12,-68.48 1346.63,-66.19"/>
<polygon fill="#63b8ff" stroke="#63b8ff" points="1532.47,-167.73 1525.74,-175.92 1536.11,-173.71 1532.47,-167.73"/>
</g>
<!-- Node19 -->
<g id="node19" class="node">
<title>Node19</title>
<g id="a_node19"><a xlink:href="historical__transaction__fetcher_8h.html" target="_top" xlink:title=" ">
<polygon fill="white" stroke="#666666" points="1558.99,-140 1433.99,-140 1433.99,-110 1558.99,-110 1558.99,-140"/>
<text text-anchor="start" x="1441.99" y="-128" font-family="Helvetica,sans-Serif" font-size="10.00">src/indexing/historical</text>
<text text-anchor="middle" x="1496.49" y="-117" font-family="Helvetica,sans-Serif" font-size="10.00">_transaction_fetcher.h</text>
</a>
</g>
</g>
<!-- Node18&#45;&gt;Node19 -->
<g id="edge30" class="edge">
<title>Node18&#45;&gt;Node19</title>
<path fill="none" stroke="#63b8ff" d="M1497.73,-165.54C1497.46,-156.96 1497.17,-147.61 1496.93,-140.16"/>
<polygon fill="#63b8ff" stroke="#63b8ff" points="1494.24,-165.91 1498.05,-175.8 1501.23,-165.69 1494.24,-165.91"/>
</g>
<!-- Node19&#45;&gt;Node3 -->
<g id="edge31" class="edge">
<title>Node19&#45;&gt;Node3</title>
<path fill="none" stroke="#63b8ff" d="M1436.24,-107.29C1397.09,-96.44 1347.7,-82.75 1316.34,-74.05"/>
<polygon fill="#63b8ff" stroke="#63b8ff" points="1435.38,-110.69 1445.95,-109.99 1437.25,-103.94 1435.38,-110.69"/>
</g>
<!-- Node21 -->
<g id="node21" class="node">
<title>Node21</title>
<g id="a_node21"><a xlink:href="frontend_8h.html" target="_top" xlink:title=" ">
<polygon fill="white" stroke="#666666" points="1285.99,-398.5 1156.99,-398.5 1156.99,-379.5 1285.99,-379.5 1285.99,-398.5"/>
<text text-anchor="middle" x="1221.49" y="-386.5" font-family="Helvetica,sans-Serif" font-size="10.00">src/node/rpc/frontend.h</text>
</a>
</g>
</g>
<!-- Node20&#45;&gt;Node21 -->
<g id="edge33" class="edge">
<title>Node20&#45;&gt;Node21</title>
<path fill="none" stroke="#63b8ff" d="M1221.49,-429.6C1221.49,-418.8 1221.49,-406.78 1221.49,-398.84"/>
<polygon fill="#63b8ff" stroke="#63b8ff" points="1217.99,-429.8 1221.49,-439.8 1224.99,-429.8 1217.99,-429.8"/>
</g>
<!-- Node21&#45;&gt;Node2 -->
<g id="edge39" class="edge">
<title>Node21&#45;&gt;Node2</title>
<path fill="none" stroke="#63b8ff" d="M1176.22,-377.02C1131.75,-366.24 1063.71,-349.75 1015.34,-338.02"/>
<polygon fill="#63b8ff" stroke="#63b8ff" points="1175.62,-380.48 1186.16,-379.44 1177.27,-373.68 1175.62,-380.48"/>
</g>
<!-- Node21&#45;&gt;Node14 -->
<g id="edge38" class="edge">
<title>Node21&#45;&gt;Node14</title>
<path fill="none" stroke="#63b8ff" d="M1218.28,-369.48C1215.15,-353.06 1209.79,-328.55 1202.49,-308 1187.66,-266.28 1162.27,-219.7 1151.53,-200.74"/>
<polygon fill="#63b8ff" stroke="#63b8ff" points="1214.85,-370.21 1220.08,-379.42 1221.74,-368.95 1214.85,-370.21"/>
</g>
<!-- Node21&#45;&gt;Node16 -->
<g id="edge40" class="edge">
<title>Node21&#45;&gt;Node16</title>
<path fill="none" stroke="#63b8ff" d="M1198.4,-374.19C1177.34,-361.59 1146.88,-343.37 1129.03,-332.7"/>
<polygon fill="#63b8ff" stroke="#63b8ff" points="1196.68,-377.24 1207.06,-379.37 1200.27,-371.23 1196.68,-377.24"/>
</g>
<!-- Node22 -->
<g id="node22" class="node">
<title>Node22</title>
<g id="a_node22"><a xlink:href="acme__challenge__frontend_8h.html" target="_top" xlink:title=" ">
<polygon fill="white" stroke="#666666" points="1389.49,-338 1249.49,-338 1249.49,-308 1389.49,-308 1389.49,-338"/>
<text text-anchor="start" x="1257.49" y="-326" font-family="Helvetica,sans-Serif" font-size="10.00">src/node/acme_challenge</text>
<text text-anchor="middle" x="1319.49" y="-315" font-family="Helvetica,sans-Serif" font-size="10.00">_frontend.h</text>
</a>
</g>
</g>
<!-- Node21&#45;&gt;Node22 -->
<g id="edge34" class="edge">
<title>Node21&#45;&gt;Node22</title>
<path fill="none" stroke="#63b8ff" d="M1243.52,-373.62C1259.76,-363.01 1281.74,-348.66 1297.88,-338.12"/>
<polygon fill="#63b8ff" stroke="#63b8ff" points="1241.17,-370.97 1234.71,-379.37 1244.99,-376.83 1241.17,-370.97"/>
</g>
<!-- Node24 -->
<g id="node24" class="node">
<title>Node24</title>
<g id="a_node24"><a xlink:href="user__frontend_8h.html" target="_top" xlink:title=" ">
<polygon fill="white" stroke="#666666" points="1415.99,-134.5 1260.99,-134.5 1260.99,-115.5 1415.99,-115.5 1415.99,-134.5"/>
<text text-anchor="middle" x="1338.49" y="-122.5" font-family="Helvetica,sans-Serif" font-size="10.00">src/node/rpc/user_frontend.h</text>
</a>
</g>
</g>
<!-- Node21&#45;&gt;Node24 -->
<g id="edge41" class="edge">
<title>Node21&#45;&gt;Node24</title>
<path fill="none" stroke="#63b8ff" d="M1288.47,-377.64C1332.71,-369.27 1384.92,-355.93 1398.49,-338 1448.58,-271.81 1370.64,-165.51 1345.73,-134.65"/>
<polygon fill="#63b8ff" stroke="#63b8ff" points="1287.8,-374.2 1278.6,-379.45 1289.06,-381.09 1287.8,-374.2"/>
</g>
<!-- Node22&#45;&gt;Node3 -->
<g id="edge35" class="edge">
<title>Node22&#45;&gt;Node3</title>
<path fill="none" stroke="#63b8ff" d="M1343.5,-300.18C1350.71,-292.11 1357.71,-282.39 1361.49,-272 1366.05,-259.47 1366.8,-254.23 1361.49,-242 1335.09,-181.13 1278.89,-200.87 1252.49,-140 1247.18,-127.77 1248.31,-122.66 1252.49,-110 1257.2,-95.75 1268.42,-82.34 1276.47,-74.04"/>
<polygon fill="#63b8ff" stroke="#63b8ff" points="1340.73,-298.01 1336.33,-307.65 1345.78,-302.86 1340.73,-298.01"/>
</g>
<!-- Node23 -->
<g id="node23" class="node">
<title>Node23</title>
<g id="a_node23"><a xlink:href="ccf__acme__client_8h.html" target="_top" xlink:title=" ">
<polygon fill="white" stroke="#666666" points="1351.99,-266.5 1202.99,-266.5 1202.99,-247.5 1351.99,-247.5 1351.99,-266.5"/>
<text text-anchor="middle" x="1277.49" y="-254.5" font-family="Helvetica,sans-Serif" font-size="10.00">src/node/ccf_acme_client.h</text>
</a>
</g>
</g>
<!-- Node22&#45;&gt;Node23 -->
<g id="edge36" class="edge">
<title>Node22&#45;&gt;Node23</title>
<path fill="none" stroke="#63b8ff" d="M1304.58,-299.28C1297.22,-288.07 1288.77,-275.19 1283.29,-266.84"/>
<polygon fill="#63b8ff" stroke="#63b8ff" points="1301.76,-301.36 1310.17,-307.8 1307.61,-297.52 1301.76,-301.36"/>
</g>
<!-- Node23&#45;&gt;Node14 -->
<g id="edge37" class="edge">
<title>Node23&#45;&gt;Node14</title>
<path fill="none" stroke="#63b8ff" d="M1250.6,-242.86C1224.79,-230.25 1186.53,-211.56 1164.3,-200.7"/>
<polygon fill="#63b8ff" stroke="#63b8ff" points="1249.3,-246.12 1259.82,-247.37 1252.37,-239.83 1249.3,-246.12"/>
</g>
<!-- Node24&#45;&gt;Node3 -->
<g id="edge42" class="edge">
<title>Node24&#45;&gt;Node3</title>
<path fill="none" stroke="#63b8ff" d="M1323.79,-107.77C1313.93,-96.89 1301.34,-82.99 1293.34,-74.17"/>
<polygon fill="#63b8ff" stroke="#63b8ff" points="1321.36,-110.31 1330.67,-115.37 1326.55,-105.61 1321.36,-110.31"/>
</g>
<!-- Node25&#45;&gt;Node3 -->
<g id="edge44" class="edge">
<title>Node25&#45;&gt;Node3</title>
<path fill="none" stroke="#63b8ff" d="M1730.97,-174.18C1711.5,-155.42 1676.19,-124.81 1639.49,-110 1587.72,-89.11 1433.36,-75.58 1346.53,-69.4"/>
<polygon fill="#63b8ff" stroke="#63b8ff" points="1728.73,-176.89 1738.3,-181.42 1733.65,-171.9 1728.73,-176.89"/>
</g>
<!-- Node26&#45;&gt;Node3 -->
<g id="edge48" class="edge">
<title>Node26&#45;&gt;Node3</title>
<path fill="none" stroke="#63b8ff" d="M1539.6,-430.78C1524.19,-402.14 1502.69,-351.86 1512.49,-308 1532.92,-216.62 1645.64,-180.92 1584.49,-110 1554.42,-75.12 1425.06,-67.15 1346.67,-65.59"/>
<polygon fill="#63b8ff" stroke="#63b8ff" points="1536.61,-432.6 1544.54,-439.63 1542.72,-429.19 1536.61,-432.6"/>
</g>
<!-- Node27 -->
<g id="node27" class="node">
<title>Node27</title>
<g id="a_node27"><a xlink:href="external__executor_8cpp.html" target="_top" xlink:title=" ">
<polygon fill="white" stroke="#666666" points="1807.49,-338 1659.49,-338 1659.49,-308 1807.49,-308 1807.49,-338"/>
<text text-anchor="start" x="1667.49" y="-326" font-family="Helvetica,sans-Serif" font-size="10.00">src/apps/external_executor</text>
<text text-anchor="middle" x="1733.49" y="-315" font-family="Helvetica,sans-Serif" font-size="10.00">/external_executor.cpp</text>
</a>
</g>
</g>
<!-- Node26&#45;&gt;Node27 -->
<g id="edge47" class="edge">
<title>Node26&#45;&gt;Node27</title>
<path fill="none" stroke="#63b8ff" d="M1626.89,-440.46C1651.29,-433.01 1677.15,-421.55 1696.49,-404 1716.09,-386.21 1726.1,-355.93 1730.53,-338.16"/>
<polygon fill="#63b8ff" stroke="#63b8ff" points="1625.91,-437.1 1617.26,-443.23 1627.84,-443.83 1625.91,-437.1"/>
</g>
<!-- Node28 -->
<g id="node28" class="node">
<title>Node28</title>
<g id="a_node28"><a xlink:href="historical__queries__adapter_8cpp.html" target="_top" xlink:title=" ">
<polygon fill="white" stroke="#666666" points="1641.49,-338 1521.49,-338 1521.49,-308 1641.49,-308 1641.49,-338"/>
<text text-anchor="start" x="1529.49" y="-326" font-family="Helvetica,sans-Serif" font-size="10.00">src/node/historical</text>
<text text-anchor="middle" x="1581.49" y="-315" font-family="Helvetica,sans-Serif" font-size="10.00">_queries_adapter.cpp</text>
</a>
</g>
</g>
<!-- Node26&#45;&gt;Node28 -->
<g id="edge49" class="edge">
<title>Node26&#45;&gt;Node28</title>
<path fill="none" stroke="#63b8ff" d="M1558.65,-430.04C1564.46,-403.08 1573.69,-360.21 1578.44,-338.14"/>
<polygon fill="#63b8ff" stroke="#63b8ff" points="1555.22,-429.33 1556.54,-439.84 1562.07,-430.8 1555.22,-429.33"/>
</g>
<!-- Node29 -->
<g id="node29" class="node">
<title>Node29</title>
<g id="a_node29"><a xlink:href="historical__queries__utils_8h.html" target="_top" xlink:title=" ">
<polygon fill="white" stroke="#666666" points="1687.49,-404 1581.49,-404 1581.49,-374 1687.49,-374 1687.49,-404"/>
<text text-anchor="start" x="1589.49" y="-392" font-family="Helvetica,sans-Serif" font-size="10.00">src/node/historical</text>
<text text-anchor="middle" x="1634.49" y="-381" font-family="Helvetica,sans-Serif" font-size="10.00">_queries_utils.h</text>
</a>
</g>
</g>
<!-- Node26&#45;&gt;Node29 -->
<g id="edge50" class="edge">
<title>Node26&#45;&gt;Node29</title>
<path fill="none" stroke="#63b8ff" d="M1579.46,-433.48C1591.57,-423.91 1605.67,-412.77 1616.56,-404.16"/>
<polygon fill="#63b8ff" stroke="#63b8ff" points="1577.14,-430.85 1571.47,-439.8 1581.48,-436.34 1577.14,-430.85"/>
</g>
<!-- Node29&#45;&gt;Node27 -->
<g id="edge51" class="edge">
<title>Node29&#45;&gt;Node27</title>
<path fill="none" stroke="#63b8ff" d="M1664.96,-368.3C1680.03,-358.56 1697.88,-347.02 1711.58,-338.16"/>
<polygon fill="#63b8ff" stroke="#63b8ff" points="1662.96,-365.43 1656.46,-373.8 1666.76,-371.31 1662.96,-365.43"/>
</g>
<!-- Node29&#45;&gt;Node28 -->
<g id="edge52" class="edge">
<title>Node29&#45;&gt;Node28</title>
<path fill="none" stroke="#63b8ff" d="M1616.34,-366.09C1608.69,-356.85 1600.01,-346.36 1593.22,-338.16"/>
<polygon fill="#63b8ff" stroke="#63b8ff" points="1613.65,-368.33 1622.73,-373.8 1619.05,-363.86 1613.65,-368.33"/>
</g>
<!-- Node30&#45;&gt;Node3 -->
<g id="edge55" class="edge">
<title>Node30&#45;&gt;Node3</title>
<path fill="none" stroke="#63b8ff" d="M1904.77,-435.27C1898.86,-410.13 1889.49,-364 1889.49,-324 1889.49,-324 1889.49,-324 1889.49,-190 1889.49,-79.99 1500.28,-66.37 1346.73,-65.28"/>
<polygon fill="#63b8ff" stroke="#63b8ff" points="1901.43,-436.36 1907.2,-445.24 1908.23,-434.7 1901.43,-436.36"/>
</g>
</g>
</svg>
