<?xml version="1.0" encoding="UTF-8" standalone="no"?>
<!DOCTYPE svg PUBLIC "-//W3C//DTD SVG 1.1//EN"
 "http://www.w3.org/Graphics/SVG/1.1/DTD/svg11.dtd">
<!-- Generated by graphviz version 2.43.0 (0)
 -->
<!-- Title: src/ds/non_blocking.h Pages: 1 -->
<svg width="1066pt" height="302pt"
 viewBox="0.00 0.00 1066.00 302.00" xmlns="http://www.w3.org/2000/svg" xmlns:xlink="http://www.w3.org/1999/xlink">
<g id="graph0" class="graph" transform="scale(1 1) rotate(0) translate(4 298)">
<title>src/ds/non_blocking.h</title>
<!-- Node1 -->
<g id="node1" class="node">
<title>Node1</title>
<g id="a_node1"><a xlink:title=" ">
<polygon fill="#999999" stroke="#666666" points="842.5,-294 720.5,-294 720.5,-275 842.5,-275 842.5,-294"/>
<text text-anchor="middle" x="781.5" y="-282" font-family="Helvetica,sans-Serif" font-size="10.00">src/ds/non_blocking.h</text>
</a>
</g>
</g>
<!-- Node2 -->
<g id="node2" class="node">
<title>Node2</title>
<g id="a_node2"><a xlink:href="ring__buffer_8h.html" target="_top" xlink:title=" ">
<polygon fill="white" stroke="#666666" points="749,-239 672,-239 672,-220 749,-220 749,-239"/>
<text text-anchor="middle" x="710.5" y="-227" font-family="Helvetica,sans-Serif" font-size="10.00">ring_buffer.h</text>
</a>
</g>
</g>
<!-- Node1&#45;&gt;Node2 -->
<g id="edge1" class="edge">
<title>Node1&#45;&gt;Node2</title>
<path fill="none" stroke="#63b8ff" d="M770.09,-274.98C759.39,-267 743.16,-254.88 730.34,-245.31"/>
<polygon fill="#63b8ff" stroke="#63b8ff" points="732.22,-242.35 722.11,-239.17 728.03,-247.96 732.22,-242.35"/>
</g>
<!-- Node12 -->
<g id="node12" class="node">
<title>Node12</title>
<g id="a_node12"><a xlink:title=" ">
<polygon fill="#e0e0e0" stroke="#999999" points="513,-19 466,-19 466,0 513,0 513,-19"/>
<text text-anchor="middle" x="489.5" y="-7" font-family="Helvetica,sans-Serif" font-size="10.00">vector</text>
</a>
</g>
</g>
<!-- Node1&#45;&gt;Node12 -->
<g id="edge49" class="edge">
<title>Node1&#45;&gt;Node12</title>
<path fill="none" stroke="#63b8ff" d="M720.24,-283.86C579.98,-283.05 247.5,-271.03 247.5,-175.5 247.5,-175.5 247.5,-175.5 247.5,-118.5 247.5,-82.85 266.49,-74.24 296.5,-55 322.66,-38.23 408.08,-22.96 456.05,-15.43"/>
<polygon fill="#63b8ff" stroke="#63b8ff" points="456.61,-18.88 465.96,-13.9 455.55,-11.96 456.61,-18.88"/>
</g>
<!-- Node24 -->
<g id="node24" class="node">
<title>Node24</title>
<g id="a_node24"><a xlink:title=" ">
<polygon fill="#e0e0e0" stroke="#999999" points="954.5,-74 896.5,-74 896.5,-55 954.5,-55 954.5,-74"/>
<text text-anchor="middle" x="925.5" y="-62" font-family="Helvetica,sans-Serif" font-size="10.00">memory</text>
</a>
</g>
</g>
<!-- Node1&#45;&gt;Node24 -->
<g id="edge48" class="edge">
<title>Node1&#45;&gt;Node24</title>
<path fill="none" stroke="#63b8ff" d="M801.88,-274.99C843.67,-256.14 937.34,-206.35 963.5,-129 966.21,-121 966.42,-117.92 963.5,-110 959.44,-98.99 951.31,-88.86 943.6,-81.05"/>
<polygon fill="#63b8ff" stroke="#63b8ff" points="945.89,-78.39 936.21,-74.07 941.08,-83.48 945.89,-78.39"/>
</g>
<!-- Node27 -->
<g id="node27" class="node">
<title>Node27</title>
<g id="a_node27"><a xlink:title=" ">
<polygon fill="#e0e0e0" stroke="#999999" points="821,-129 742,-129 742,-110 821,-110 821,-129"/>
<text text-anchor="middle" x="781.5" y="-117" font-family="Helvetica,sans-Serif" font-size="10.00">fmt/format.h</text>
</a>
</g>
</g>
<!-- Node1&#45;&gt;Node27 -->
<g id="edge47" class="edge">
<title>Node1&#45;&gt;Node27</title>
<path fill="none" stroke="#63b8ff" d="M781.5,-274.74C781.5,-249.31 781.5,-175.08 781.5,-139.69"/>
<polygon fill="#63b8ff" stroke="#63b8ff" points="785,-139.31 781.5,-129.31 778,-139.31 785,-139.31"/>
</g>
<!-- Node31 -->
<g id="node31" class="node">
<title>Node31</title>
<g id="a_node31"><a xlink:title=" ">
<polygon fill="#e0e0e0" stroke="#999999" points="1058,-239 1011,-239 1011,-220 1058,-220 1058,-239"/>
<text text-anchor="middle" x="1034.5" y="-227" font-family="Helvetica,sans-Serif" font-size="10.00">deque</text>
</a>
</g>
</g>
<!-- Node1&#45;&gt;Node31 -->
<g id="edge46" class="edge">
<title>Node1&#45;&gt;Node31</title>
<path fill="none" stroke="#63b8ff" d="M823.97,-274.92C867.37,-266.1 936.69,-251.88 996.5,-239 997.95,-238.69 999.42,-238.37 1000.91,-238.04"/>
<polygon fill="#63b8ff" stroke="#63b8ff" points="1001.78,-241.44 1010.8,-235.86 1000.28,-234.6 1001.78,-241.44"/>
</g>
<!-- Node3 -->
<g id="node3" class="node">
<title>Node3</title>
<g id="a_node3"><a xlink:href="mem_8h.html" target="_top" xlink:title=" ">
<polygon fill="white" stroke="#666666" points="912.5,-184 826.5,-184 826.5,-165 912.5,-165 912.5,-184"/>
<text text-anchor="middle" x="869.5" y="-172" font-family="Helvetica,sans-Serif" font-size="10.00">ccf/pal/mem.h</text>
</a>
</g>
</g>
<!-- Node2&#45;&gt;Node3 -->
<g id="edge2" class="edge">
<title>Node2&#45;&gt;Node3</title>
<path fill="none" stroke="#63b8ff" d="M736.05,-219.98C762.62,-211.13 804.44,-197.19 834.17,-187.28"/>
<polygon fill="#63b8ff" stroke="#63b8ff" points="835.37,-190.56 843.75,-184.08 833.16,-183.92 835.37,-190.56"/>
</g>
<!-- Node5 -->
<g id="node5" class="node">
<title>Node5</title>
<g id="a_node5"><a xlink:title=" ">
<polygon fill="#e0e0e0" stroke="#999999" points="1045.5,-19 995.5,-19 995.5,0 1045.5,0 1045.5,-19"/>
<text text-anchor="middle" x="1020.5" y="-7" font-family="Helvetica,sans-Serif" font-size="10.00">cstring</text>
</a>
</g>
</g>
<!-- Node2&#45;&gt;Node5 -->
<g id="edge44" class="edge">
<title>Node2&#45;&gt;Node5</title>
<path fill="none" stroke="#63b8ff" d="M749.34,-226.11C793.17,-222.13 865.61,-211.61 921.5,-184 979.94,-155.13 1000.11,-136.54 1018.5,-74 1022.78,-59.43 1023.04,-42.17 1022.36,-29.32"/>
<polygon fill="#63b8ff" stroke="#63b8ff" points="1025.85,-29.05 1021.6,-19.35 1018.87,-29.58 1025.85,-29.05"/>
</g>
<!-- Node7 -->
<g id="node7" class="node">
<title>Node7</title>
<g id="a_node7"><a xlink:href="ring__buffer__types_8h.html" target="_top" xlink:title=" ">
<polygon fill="white" stroke="#666666" points="635.5,-184 525.5,-184 525.5,-165 635.5,-165 635.5,-184"/>
<text text-anchor="middle" x="580.5" y="-172" font-family="Helvetica,sans-Serif" font-size="10.00">ring_buffer_types.h</text>
</a>
</g>
</g>
<!-- Node2&#45;&gt;Node7 -->
<g id="edge6" class="edge">
<title>Node2&#45;&gt;Node7</title>
<path fill="none" stroke="#63b8ff" d="M689.61,-219.98C668.42,-211.34 635.37,-197.87 611.2,-188.02"/>
<polygon fill="#63b8ff" stroke="#63b8ff" points="612.35,-184.7 601.77,-184.17 609.71,-191.19 612.35,-184.7"/>
</g>
<!-- Node26 -->
<g id="node26" class="node">
<title>Node26</title>
<g id="a_node26"><a xlink:title=" ">
<polygon fill="#e0e0e0" stroke="#999999" points="723.5,-129 673.5,-129 673.5,-110 723.5,-110 723.5,-129"/>
<text text-anchor="middle" x="698.5" y="-117" font-family="Helvetica,sans-Serif" font-size="10.00">atomic</text>
</a>
</g>
</g>
<!-- Node2&#45;&gt;Node26 -->
<g id="edge43" class="edge">
<title>Node2&#45;&gt;Node26</title>
<path fill="none" stroke="#63b8ff" d="M709.52,-219.66C707.57,-202.17 703.2,-162.8 700.59,-139.27"/>
<polygon fill="#63b8ff" stroke="#63b8ff" points="704.05,-138.71 699.46,-129.16 697.09,-139.48 704.05,-138.71"/>
</g>
<!-- Node30 -->
<g id="node30" class="node">
<title>Node30</title>
<g id="a_node30"><a xlink:title=" ">
<polygon fill="#e0e0e0" stroke="#999999" points="507,-184 442,-184 442,-165 507,-165 507,-184"/>
<text text-anchor="middle" x="474.5" y="-172" font-family="Helvetica,sans-Serif" font-size="10.00">functional</text>
</a>
</g>
</g>
<!-- Node2&#45;&gt;Node30 -->
<g id="edge45" class="edge">
<title>Node2&#45;&gt;Node30</title>
<path fill="none" stroke="#63b8ff" d="M672.58,-219.98C630.03,-210.43 561.18,-194.97 516.88,-185.02"/>
<polygon fill="#63b8ff" stroke="#63b8ff" points="517.53,-181.58 507.01,-182.8 516,-188.41 517.53,-181.58"/>
</g>
<!-- Node4 -->
<g id="node4" class="node">
<title>Node4</title>
<g id="a_node4"><a xlink:title=" ">
<polygon fill="#e0e0e0" stroke="#999999" points="892,-129 839,-129 839,-110 892,-110 892,-129"/>
<text text-anchor="middle" x="865.5" y="-117" font-family="Helvetica,sans-Serif" font-size="10.00">stdlib.h</text>
</a>
</g>
</g>
<!-- Node3&#45;&gt;Node4 -->
<g id="edge3" class="edge">
<title>Node3&#45;&gt;Node4</title>
<path fill="none" stroke="#63b8ff" d="M868.84,-164.75C868.32,-157.8 867.56,-147.85 866.91,-139.13"/>
<polygon fill="#63b8ff" stroke="#63b8ff" points="870.39,-138.8 866.15,-129.09 863.41,-139.32 870.39,-138.8"/>
</g>
<!-- Node3&#45;&gt;Node5 -->
<g id="edge4" class="edge">
<title>Node3&#45;&gt;Node5</title>
<path fill="none" stroke="#63b8ff" d="M897.94,-164.98C918.04,-157.86 944.64,-146.1 963.5,-129 993.56,-101.76 1009.35,-55.24 1016.2,-29.33"/>
<polygon fill="#63b8ff" stroke="#63b8ff" points="1019.68,-29.86 1018.67,-19.31 1012.88,-28.18 1019.68,-29.86"/>
</g>
<!-- Node6 -->
<g id="node6" class="node">
<title>Node6</title>
<g id="a_node6"><a xlink:title=" ">
<polygon fill="#e0e0e0" stroke="#999999" points="954.5,-129 910.5,-129 910.5,-110 954.5,-110 954.5,-129"/>
<text text-anchor="middle" x="932.5" y="-117" font-family="Helvetica,sans-Serif" font-size="10.00">limits</text>
</a>
</g>
</g>
<!-- Node3&#45;&gt;Node6 -->
<g id="edge5" class="edge">
<title>Node3&#45;&gt;Node6</title>
<path fill="none" stroke="#63b8ff" d="M879.62,-164.98C888.94,-157.15 902.97,-145.34 914.24,-135.86"/>
<polygon fill="#63b8ff" stroke="#63b8ff" points="916.79,-138.29 922.19,-129.17 912.29,-132.93 916.79,-138.29"/>
</g>
<!-- Node8 -->
<g id="node8" class="node">
<title>Node8</title>
<g id="a_node8"><a xlink:href="include_2ccf_2ds_2hash_8h.html" target="_top" xlink:title=" ">
<polygon fill="white" stroke="#666666" points="487.5,-129 407.5,-129 407.5,-110 487.5,-110 487.5,-129"/>
<text text-anchor="middle" x="447.5" y="-117" font-family="Helvetica,sans-Serif" font-size="10.00">ccf/ds/hash.h</text>
</a>
</g>
</g>
<!-- Node7&#45;&gt;Node8 -->
<g id="edge7" class="edge">
<title>Node7&#45;&gt;Node8</title>
<path fill="none" stroke="#63b8ff" d="M559.13,-164.98C537.35,-156.3 503.34,-142.75 478.58,-132.88"/>
<polygon fill="#63b8ff" stroke="#63b8ff" points="479.84,-129.62 469.26,-129.17 477.25,-136.12 479.84,-129.62"/>
</g>
<!-- Node7&#45;&gt;Node12 -->
<g id="edge42" class="edge">
<title>Node7&#45;&gt;Node12</title>
<path fill="none" stroke="#63b8ff" d="M569.85,-164.93C560.08,-156.61 545.77,-143.19 536.5,-129 515.3,-96.54 501.1,-53.02 494.26,-28.77"/>
<polygon fill="#63b8ff" stroke="#63b8ff" points="497.63,-27.83 491.63,-19.1 490.87,-29.67 497.63,-27.83"/>
</g>
<!-- Node16 -->
<g id="node16" class="node">
<title>Node16</title>
<g id="a_node16"><a xlink:href="nonstd_8h.html" target="_top" xlink:title=" ">
<polygon fill="white" stroke="#666666" points="219.5,-74 129.5,-74 129.5,-55 219.5,-55 219.5,-74"/>
<text text-anchor="middle" x="174.5" y="-62" font-family="Helvetica,sans-Serif" font-size="10.00">ccf/ds/nonstd.h</text>
</a>
</g>
</g>
<!-- Node7&#45;&gt;Node16 -->
<g id="edge17" class="edge">
<title>Node7&#45;&gt;Node16</title>
<path fill="none" stroke="#63b8ff" d="M525.31,-166.01C436.84,-153.95 272.49,-131.34 266.5,-129 237.61,-117.71 208.93,-95.76 191.46,-80.87"/>
<polygon fill="#63b8ff" stroke="#63b8ff" points="193.66,-78.15 183.83,-74.2 189.06,-83.42 193.66,-78.15"/>
</g>
<!-- Node19 -->
<g id="node19" class="node">
<title>Node19</title>
<g id="a_node19"><a xlink:title=" ">
<polygon fill="#e0e0e0" stroke="#999999" points="804.5,-19 760.5,-19 760.5,0 804.5,0 804.5,-19"/>
<text text-anchor="middle" x="782.5" y="-7" font-family="Helvetica,sans-Serif" font-size="10.00">string</text>
</a>
</g>
</g>
<!-- Node7&#45;&gt;Node19 -->
<g id="edge41" class="edge">
<title>Node7&#45;&gt;Node19</title>
<path fill="none" stroke="#63b8ff" d="M588.83,-164.71C602.91,-150.48 632.97,-122.72 664.5,-110 726.56,-84.96 919.1,-124.07 963.5,-74 1031.39,2.55 1155.33,-105.43 814.5,-19 814.4,-18.97 814.3,-18.95 814.2,-18.92"/>
<polygon fill="#63b8ff" stroke="#63b8ff" points="815.07,-15.54 804.52,-16.42 813.32,-22.31 815.07,-15.54"/>
</g>
<!-- Node21 -->
<g id="node21" class="node">
<title>Node21</title>
<g id="a_node21"><a xlink:href="serializer_8h.html" target="_top" xlink:title=" ">
<polygon fill="white" stroke="#666666" points="615.5,-129 545.5,-129 545.5,-110 615.5,-110 615.5,-129"/>
<text text-anchor="middle" x="580.5" y="-117" font-family="Helvetica,sans-Serif" font-size="10.00">serializer.h</text>
</a>
</g>
</g>
<!-- Node7&#45;&gt;Node21 -->
<g id="edge25" class="edge">
<title>Node7&#45;&gt;Node21</title>
<path fill="none" stroke="#63b8ff" d="M580.5,-164.75C580.5,-157.8 580.5,-147.85 580.5,-139.13"/>
<polygon fill="#63b8ff" stroke="#63b8ff" points="584,-139.09 580.5,-129.09 577,-139.09 584,-139.09"/>
</g>
<!-- Node7&#45;&gt;Node26 -->
<g id="edge37" class="edge">
<title>Node7&#45;&gt;Node26</title>
<path fill="none" stroke="#63b8ff" d="M599.46,-164.98C618.53,-156.42 648.16,-143.11 670.05,-133.28"/>
<polygon fill="#63b8ff" stroke="#63b8ff" points="671.51,-136.46 679.2,-129.17 668.64,-130.07 671.51,-136.46"/>
</g>
<!-- Node7&#45;&gt;Node27 -->
<g id="edge38" class="edge">
<title>Node7&#45;&gt;Node27</title>
<path fill="none" stroke="#63b8ff" d="M612.79,-164.98C647.12,-155.93 701.56,-141.58 739.27,-131.64"/>
<polygon fill="#63b8ff" stroke="#63b8ff" points="740.18,-135.02 748.95,-129.08 738.39,-128.25 740.18,-135.02"/>
</g>
<!-- Node28 -->
<g id="node28" class="node">
<title>Node28</title>
<g id="a_node28"><a xlink:title=" ">
<polygon fill="#e0e0e0" stroke="#999999" points="331.5,-129 275.5,-129 275.5,-110 331.5,-110 331.5,-129"/>
<text text-anchor="middle" x="303.5" y="-117" font-family="Helvetica,sans-Serif" font-size="10.00">optional</text>
</a>
</g>
</g>
<!-- Node7&#45;&gt;Node28 -->
<g id="edge39" class="edge">
<title>Node7&#45;&gt;Node28</title>
<path fill="none" stroke="#63b8ff" d="M531.2,-164.99C484.78,-156.84 413.07,-143.87 341.8,-129.2"/>
<polygon fill="#63b8ff" stroke="#63b8ff" points="342.26,-125.72 331.75,-127.12 340.84,-132.58 342.26,-125.72"/>
</g>
<!-- Node29 -->
<g id="node29" class="node">
<title>Node29</title>
<g id="a_node29"><a xlink:title=" ">
<polygon fill="#e0e0e0" stroke="#999999" points="389.5,-129 349.5,-129 349.5,-110 389.5,-110 389.5,-129"/>
<text text-anchor="middle" x="369.5" y="-117" font-family="Helvetica,sans-Serif" font-size="10.00">span</text>
</a>
</g>
</g>
<!-- Node7&#45;&gt;Node29 -->
<g id="edge40" class="edge">
<title>Node7&#45;&gt;Node29</title>
<path fill="none" stroke="#63b8ff" d="M543.43,-164.95C508.65,-156.82 454.96,-143.98 399.71,-129.24"/>
<polygon fill="#63b8ff" stroke="#63b8ff" points="400.31,-125.77 389.75,-126.56 398.5,-132.54 400.31,-125.77"/>
</g>
<!-- Node9 -->
<g id="node9" class="node">
<title>Node9</title>
<g id="a_node9"><a xlink:href="siphash_8h.html" target="_top" xlink:title=" ">
<polygon fill="white" stroke="#666666" points="689,-74 594,-74 594,-55 689,-55 689,-74"/>
<text text-anchor="middle" x="641.5" y="-62" font-family="Helvetica,sans-Serif" font-size="10.00">ccf/ds/siphash.h</text>
</a>
</g>
</g>
<!-- Node8&#45;&gt;Node9 -->
<g id="edge8" class="edge">
<title>Node8&#45;&gt;Node9</title>
<path fill="none" stroke="#63b8ff" d="M478.67,-109.98C511.66,-100.97 563.9,-86.7 600.27,-76.76"/>
<polygon fill="#63b8ff" stroke="#63b8ff" points="601.36,-80.09 610.09,-74.08 599.52,-73.34 601.36,-80.09"/>
</g>
<!-- Node11 -->
<g id="node11" class="node">
<title>Node11</title>
<g id="a_node11"><a xlink:title=" ">
<polygon fill="#e0e0e0" stroke="#999999" points="742.5,-19 692.5,-19 692.5,0 742.5,0 742.5,-19"/>
<text text-anchor="middle" x="717.5" y="-7" font-family="Helvetica,sans-Serif" font-size="10.00">cstdint</text>
</a>
</g>
</g>
<!-- Node8&#45;&gt;Node11 -->
<g id="edge13" class="edge">
<title>Node8&#45;&gt;Node11</title>
<path fill="none" stroke="#63b8ff" d="M487.67,-113.71C554.54,-105.4 682.95,-87.85 698.5,-74 710.97,-62.89 715.41,-43.95 716.91,-29.65"/>
<polygon fill="#63b8ff" stroke="#63b8ff" points="720.42,-29.61 717.59,-19.4 713.44,-29.15 720.42,-29.61"/>
</g>
<!-- Node8&#45;&gt;Node12 -->
<g id="edge16" class="edge">
<title>Node8&#45;&gt;Node12</title>
<path fill="none" stroke="#63b8ff" d="M407.46,-111.49C369.61,-103.95 316.83,-90.75 304.5,-74 299.49,-67.2 299.27,-61.63 304.5,-55 313.9,-43.08 405.2,-25.33 455.93,-16.27"/>
<polygon fill="#63b8ff" stroke="#63b8ff" points="456.55,-19.72 465.79,-14.53 455.34,-12.82 456.55,-19.72"/>
</g>
<!-- Node13 -->
<g id="node13" class="node">
<title>Node13</title>
<g id="a_node13"><a xlink:title=" ">
<polygon fill="#e0e0e0" stroke="#999999" points="133.5,-19 91.5,-19 91.5,0 133.5,0 133.5,-19"/>
<text text-anchor="middle" x="112.5" y="-7" font-family="Helvetica,sans-Serif" font-size="10.00">array</text>
</a>
</g>
</g>
<!-- Node8&#45;&gt;Node13 -->
<g id="edge12" class="edge">
<title>Node8&#45;&gt;Node13</title>
<path fill="none" stroke="#63b8ff" d="M407.41,-111.4C404.4,-110.91 401.4,-110.44 398.5,-110 336.91,-100.67 164.47,-118.12 120.5,-74 109.11,-62.57 108.07,-43.68 109.3,-29.47"/>
<polygon fill="#63b8ff" stroke="#63b8ff" points="112.8,-29.67 110.62,-19.31 105.86,-28.77 112.8,-29.67"/>
</g>
<!-- Node14 -->
<g id="node14" class="node">
<title>Node14</title>
<g id="a_node14"><a xlink:title=" ">
<polygon fill="#e0e0e0" stroke="#999999" points="462,-74 313,-74 313,-55 462,-55 462,-74"/>
<text text-anchor="middle" x="387.5" y="-62" font-family="Helvetica,sans-Serif" font-size="10.00">small_vector/SmallVector.h</text>
</a>
</g>
</g>
<!-- Node8&#45;&gt;Node14 -->
<g id="edge14" class="edge">
<title>Node8&#45;&gt;Node14</title>
<path fill="none" stroke="#63b8ff" d="M437.86,-109.98C428.99,-102.15 415.63,-90.34 404.89,-80.86"/>
<polygon fill="#63b8ff" stroke="#63b8ff" points="407.13,-78.17 397.32,-74.17 402.49,-83.41 407.13,-78.17"/>
</g>
<!-- Node15 -->
<g id="node15" class="node">
<title>Node15</title>
<g id="a_node15"><a xlink:title=" ">
<polygon fill="#e0e0e0" stroke="#999999" points="73,-19 0,-19 0,0 73,0 73,-19"/>
<text text-anchor="middle" x="36.5" y="-7" font-family="Helvetica,sans-Serif" font-size="10.00">string_view</text>
</a>
</g>
</g>
<!-- Node8&#45;&gt;Node15 -->
<g id="edge15" class="edge">
<title>Node8&#45;&gt;Node15</title>
<path fill="none" stroke="#63b8ff" d="M407.41,-111.38C404.4,-110.9 401.4,-110.43 398.5,-110 269.59,-90.86 226.15,-127.9 107.5,-74 84.09,-63.37 62.93,-42.22 49.91,-27.26"/>
<polygon fill="#63b8ff" stroke="#63b8ff" points="52.34,-24.71 43.24,-19.29 46.98,-29.21 52.34,-24.71"/>
</g>
<!-- Node10 -->
<g id="node10" class="node">
<title>Node10</title>
<g id="a_node10"><a xlink:title=" ">
<polygon fill="#e0e0e0" stroke="#999999" points="668,-19 615,-19 615,0 668,0 668,-19"/>
<text text-anchor="middle" x="641.5" y="-7" font-family="Helvetica,sans-Serif" font-size="10.00">cstddef</text>
</a>
</g>
</g>
<!-- Node9&#45;&gt;Node10 -->
<g id="edge9" class="edge">
<title>Node9&#45;&gt;Node10</title>
<path fill="none" stroke="#63b8ff" d="M641.5,-54.75C641.5,-47.8 641.5,-37.85 641.5,-29.13"/>
<polygon fill="#63b8ff" stroke="#63b8ff" points="645,-29.09 641.5,-19.09 638,-29.09 645,-29.09"/>
</g>
<!-- Node9&#45;&gt;Node11 -->
<g id="edge10" class="edge">
<title>Node9&#45;&gt;Node11</title>
<path fill="none" stroke="#63b8ff" d="M653.71,-54.98C665.28,-46.92 682.88,-34.65 696.66,-25.03"/>
<polygon fill="#63b8ff" stroke="#63b8ff" points="698.87,-27.76 705.07,-19.17 694.86,-22.02 698.87,-27.76"/>
</g>
<!-- Node9&#45;&gt;Node12 -->
<g id="edge11" class="edge">
<title>Node9&#45;&gt;Node12</title>
<path fill="none" stroke="#63b8ff" d="M617.08,-54.98C591.56,-46.09 551.34,-32.06 522.89,-22.14"/>
<polygon fill="#63b8ff" stroke="#63b8ff" points="523.95,-18.81 513.36,-18.82 521.65,-25.42 523.95,-18.81"/>
</g>
<!-- Node16&#45;&gt;Node12 -->
<g id="edge24" class="edge">
<title>Node16&#45;&gt;Node12</title>
<path fill="none" stroke="#63b8ff" d="M219.63,-55.91C283.53,-45.15 398.92,-25.74 455.86,-16.16"/>
<polygon fill="#63b8ff" stroke="#63b8ff" points="456.5,-19.6 465.79,-14.49 455.34,-12.7 456.5,-19.6"/>
</g>
<!-- Node16&#45;&gt;Node13 -->
<g id="edge19" class="edge">
<title>Node16&#45;&gt;Node13</title>
<path fill="none" stroke="#63b8ff" d="M164.54,-54.98C155.37,-47.15 141.56,-35.34 130.47,-25.86"/>
<polygon fill="#63b8ff" stroke="#63b8ff" points="132.52,-23.01 122.64,-19.17 127.97,-28.33 132.52,-23.01"/>
</g>
<!-- Node16&#45;&gt;Node15 -->
<g id="edge22" class="edge">
<title>Node16&#45;&gt;Node15</title>
<path fill="none" stroke="#63b8ff" d="M152.33,-54.98C129.73,-46.3 94.44,-32.75 68.75,-22.88"/>
<polygon fill="#63b8ff" stroke="#63b8ff" points="69.67,-19.49 59.08,-19.17 67.16,-26.02 69.67,-19.49"/>
</g>
<!-- Node17 -->
<g id="node17" class="node">
<title>Node17</title>
<g id="a_node17"><a xlink:title=" ">
<polygon fill="#e0e0e0" stroke="#999999" points="215.5,-19 151.5,-19 151.5,0 215.5,0 215.5,-19"/>
<text text-anchor="middle" x="183.5" y="-7" font-family="Helvetica,sans-Serif" font-size="10.00">algorithm</text>
</a>
</g>
</g>
<!-- Node16&#45;&gt;Node17 -->
<g id="edge18" class="edge">
<title>Node16&#45;&gt;Node17</title>
<path fill="none" stroke="#63b8ff" d="M175.99,-54.75C177.17,-47.8 178.86,-37.85 180.34,-29.13"/>
<polygon fill="#63b8ff" stroke="#63b8ff" points="183.82,-29.53 182.04,-19.09 176.92,-28.36 183.82,-29.53"/>
</g>
<!-- Node18 -->
<g id="node18" class="node">
<title>Node18</title>
<g id="a_node18"><a xlink:title=" ">
<polygon fill="#e0e0e0" stroke="#999999" points="283,-19 234,-19 234,0 283,0 283,-19"/>
<text text-anchor="middle" x="258.5" y="-7" font-family="Helvetica,sans-Serif" font-size="10.00">cctype</text>
</a>
</g>
</g>
<!-- Node16&#45;&gt;Node18 -->
<g id="edge20" class="edge">
<title>Node16&#45;&gt;Node18</title>
<path fill="none" stroke="#63b8ff" d="M188,-54.98C200.9,-46.84 220.6,-34.41 235.9,-24.76"/>
<polygon fill="#63b8ff" stroke="#63b8ff" points="238.17,-27.47 244.76,-19.17 234.43,-21.55 238.17,-27.47"/>
</g>
<!-- Node16&#45;&gt;Node19 -->
<g id="edge21" class="edge">
<title>Node16&#45;&gt;Node19</title>
<path fill="none" stroke="#63b8ff" d="M219.56,-60.52C340.55,-52.46 668.36,-30.15 750.37,-18.69"/>
<polygon fill="#63b8ff" stroke="#63b8ff" points="750.92,-22.14 760.26,-17.14 749.84,-15.23 750.92,-22.14"/>
</g>
<!-- Node20 -->
<g id="node20" class="node">
<title>Node20</title>
<g id="a_node20"><a xlink:title=" ">
<polygon fill="#e0e0e0" stroke="#999999" points="409,-19 340,-19 340,0 409,0 409,-19"/>
<text text-anchor="middle" x="374.5" y="-7" font-family="Helvetica,sans-Serif" font-size="10.00">type_traits</text>
</a>
</g>
</g>
<!-- Node16&#45;&gt;Node20 -->
<g id="edge23" class="edge">
<title>Node16&#45;&gt;Node20</title>
<path fill="none" stroke="#63b8ff" d="M206.63,-54.98C240.65,-45.97 294.5,-31.7 332,-21.76"/>
<polygon fill="#63b8ff" stroke="#63b8ff" points="333.34,-25.03 342.11,-19.08 331.55,-18.26 333.34,-25.03"/>
</g>
<!-- Node21&#45;&gt;Node12 -->
<g id="edge36" class="edge">
<title>Node21&#45;&gt;Node12</title>
<path fill="none" stroke="#63b8ff" d="M576.23,-109.72C569.76,-96.91 556.62,-72.71 541.5,-55 532.09,-43.99 519.86,-33.38 509.62,-25.28"/>
<polygon fill="#63b8ff" stroke="#63b8ff" points="511.66,-22.43 501.59,-19.11 507.39,-27.98 511.66,-22.43"/>
</g>
<!-- Node21&#45;&gt;Node16 -->
<g id="edge26" class="edge">
<title>Node21&#45;&gt;Node16</title>
<path fill="none" stroke="#63b8ff" d="M545.18,-113.89C474.36,-104.64 314.55,-83.78 229.76,-72.71"/>
<polygon fill="#63b8ff" stroke="#63b8ff" points="230.17,-69.24 219.8,-71.41 229.27,-76.18 230.17,-69.24"/>
</g>
<!-- Node21&#45;&gt;Node20 -->
<g id="edge35" class="edge">
<title>Node21&#45;&gt;Node20</title>
<path fill="none" stroke="#63b8ff" d="M566.63,-109.84C546.16,-97.18 506.49,-73.16 471.5,-55 449.27,-43.46 423.48,-31.7 404.08,-23.17"/>
<polygon fill="#63b8ff" stroke="#63b8ff" points="405.4,-19.93 394.84,-19.14 402.6,-26.35 405.4,-19.93"/>
</g>
<!-- Node22 -->
<g id="node22" class="node">
<title>Node22</title>
<g id="a_node22"><a xlink:href="serialized_8h.html" target="_top" xlink:title=" ">
<polygon fill="white" stroke="#666666" points="819,-74 746,-74 746,-55 819,-55 819,-74"/>
<text text-anchor="middle" x="782.5" y="-62" font-family="Helvetica,sans-Serif" font-size="10.00">serialized.h</text>
</a>
</g>
</g>
<!-- Node21&#45;&gt;Node22 -->
<g id="edge27" class="edge">
<title>Node21&#45;&gt;Node22</title>
<path fill="none" stroke="#63b8ff" d="M612.95,-109.98C647.46,-100.93 702.16,-86.58 740.06,-76.64"/>
<polygon fill="#63b8ff" stroke="#63b8ff" points="741.01,-80.01 749.79,-74.08 739.23,-73.23 741.01,-80.01"/>
</g>
<!-- Node21&#45;&gt;Node24 -->
<g id="edge33" class="edge">
<title>Node21&#45;&gt;Node24</title>
<path fill="none" stroke="#63b8ff" d="M615.6,-112.53C620.92,-111.66 626.35,-110.79 631.5,-110 741.85,-93.05 772.72,-94.46 885.97,-74.16"/>
<polygon fill="#63b8ff" stroke="#63b8ff" points="886.87,-77.55 896.09,-72.32 885.63,-70.66 886.87,-77.55"/>
</g>
<!-- Node25 -->
<g id="node25" class="node">
<title>Node25</title>
<g id="a_node25"><a xlink:title=" ">
<polygon fill="#e0e0e0" stroke="#999999" points="878,-74 837,-74 837,-55 878,-55 878,-74"/>
<text text-anchor="middle" x="857.5" y="-62" font-family="Helvetica,sans-Serif" font-size="10.00">tuple</text>
</a>
</g>
</g>
<!-- Node21&#45;&gt;Node25 -->
<g id="edge34" class="edge">
<title>Node21&#45;&gt;Node25</title>
<path fill="none" stroke="#63b8ff" d="M615.91,-112.36C673.87,-102.29 786,-82.67 827.17,-74"/>
<polygon fill="#63b8ff" stroke="#63b8ff" points="827.98,-77.4 836.98,-71.81 826.46,-70.57 827.98,-77.4"/>
</g>
<!-- Node22&#45;&gt;Node5 -->
<g id="edge29" class="edge">
<title>Node22&#45;&gt;Node5</title>
<path fill="none" stroke="#63b8ff" d="M819.17,-55.33C864.53,-45.23 941.2,-28.16 985.69,-18.25"/>
<polygon fill="#63b8ff" stroke="#63b8ff" points="986.47,-21.66 995.47,-16.07 984.95,-14.83 986.47,-21.66"/>
</g>
<!-- Node22&#45;&gt;Node11 -->
<g id="edge28" class="edge">
<title>Node22&#45;&gt;Node11</title>
<path fill="none" stroke="#63b8ff" d="M772.06,-54.98C762.35,-47.07 747.68,-35.11 736,-25.58"/>
<polygon fill="#63b8ff" stroke="#63b8ff" points="738.1,-22.78 728.13,-19.17 733.67,-28.2 738.1,-22.78"/>
</g>
<!-- Node22&#45;&gt;Node12 -->
<g id="edge32" class="edge">
<title>Node22&#45;&gt;Node12</title>
<path fill="none" stroke="#63b8ff" d="M745.98,-56.89C688.77,-46.55 578.81,-26.66 523.31,-16.62"/>
<polygon fill="#63b8ff" stroke="#63b8ff" points="523.75,-13.14 513.29,-14.8 522.51,-20.03 523.75,-13.14"/>
</g>
<!-- Node22&#45;&gt;Node19 -->
<g id="edge31" class="edge">
<title>Node22&#45;&gt;Node19</title>
<path fill="none" stroke="#63b8ff" d="M782.5,-54.75C782.5,-47.8 782.5,-37.85 782.5,-29.13"/>
<polygon fill="#63b8ff" stroke="#63b8ff" points="786,-29.09 782.5,-19.09 779,-29.09 786,-29.09"/>
</g>
<!-- Node23 -->
<g id="node23" class="node">
<title>Node23</title>
<g id="a_node23"><a xlink:title=" ">
<polygon fill="#e0e0e0" stroke="#999999" points="888,-19 823,-19 823,0 888,0 888,-19"/>
<text text-anchor="middle" x="855.5" y="-7" font-family="Helvetica,sans-Serif" font-size="10.00">stdexcept</text>
</a>
</g>
</g>
<!-- Node22&#45;&gt;Node23 -->
<g id="edge30" class="edge">
<title>Node22&#45;&gt;Node23</title>
<path fill="none" stroke="#63b8ff" d="M794.23,-54.98C805.23,-47 821.92,-34.88 835.1,-25.31"/>
<polygon fill="#63b8ff" stroke="#63b8ff" points="837.52,-27.88 843.56,-19.17 833.41,-22.21 837.52,-27.88"/>
</g>
</g>
</svg>
