<?xml version="1.0" encoding="UTF-8" standalone="no"?>
<!DOCTYPE svg PUBLIC "-//W3C//DTD SVG 1.1//EN"
 "http://www.w3.org/Graphics/SVG/1.1/DTD/svg11.dtd">
<!-- Generated by graphviz version 2.43.0 (0)
 -->
<!-- Title: include/ccf/pal/platform.h Pages: 1 -->
<svg width="314pt" height="247pt"
 viewBox="0.00 0.00 313.50 247.00" xmlns="http://www.w3.org/2000/svg" xmlns:xlink="http://www.w3.org/1999/xlink">
<g id="graph0" class="graph" transform="scale(1 1) rotate(0) translate(4 243)">
<title>include/ccf/pal/platform.h</title>
<!-- Node1 -->
<g id="node1" class="node">
<title>Node1</title>
<g id="a_node1"><a xlink:title=" ">
<polygon fill="#999999" stroke="#666666" points="188,-239 47,-239 47,-220 188,-220 188,-239"/>
<text text-anchor="middle" x="117.5" y="-227" font-family="Helvetica,sans-Serif" font-size="10.00">include/ccf/pal/platform.h</text>
</a>
</g>
</g>
<!-- Node2 -->
<g id="node2" class="node">
<title>Node2</title>
<g id="a_node2"><a xlink:href="host_2main_8cpp.html" target="_top" xlink:title=" ">
<polygon fill="white" stroke="#666666" points="103,-184 0,-184 0,-165 103,-165 103,-184"/>
<text text-anchor="middle" x="51.5" y="-172" font-family="Helvetica,sans-Serif" font-size="10.00">src/host/main.cpp</text>
</a>
</g>
</g>
<!-- Node1&#45;&gt;Node2 -->
<g id="edge1" class="edge">
<title>Node1&#45;&gt;Node2</title>
<path fill="none" stroke="#63b8ff" d="M98.95,-213.6C87.12,-204.11 72.21,-192.13 62.3,-184.17"/>
<polygon fill="#63b8ff" stroke="#63b8ff" points="96.91,-216.45 106.9,-219.98 101.29,-210.99 96.91,-216.45"/>
</g>
<!-- Node3 -->
<g id="node3" class="node">
<title>Node3</title>
<g id="a_node3"><a xlink:href="node__state_8h.html" target="_top" xlink:title=" ">
<polygon fill="white" stroke="#666666" points="245.5,-184 121.5,-184 121.5,-165 245.5,-165 245.5,-184"/>
<text text-anchor="middle" x="183.5" y="-172" font-family="Helvetica,sans-Serif" font-size="10.00">src/node/node_state.h</text>
</a>
</g>
</g>
<!-- Node1&#45;&gt;Node3 -->
<g id="edge2" class="edge">
<title>Node1&#45;&gt;Node3</title>
<path fill="none" stroke="#63b8ff" d="M136.05,-213.6C147.88,-204.11 162.79,-192.13 172.7,-184.17"/>
<polygon fill="#63b8ff" stroke="#63b8ff" points="133.71,-210.99 128.1,-219.98 138.09,-216.45 133.71,-210.99"/>
</g>
<!-- Node4 -->
<g id="node4" class="node">
<title>Node4</title>
<g id="a_node4"><a xlink:href="src_2enclave_2enclave_8h.html" target="_top" xlink:title=" ">
<polygon fill="white" stroke="#666666" points="244.5,-74 122.5,-74 122.5,-55 244.5,-55 244.5,-74"/>
<text text-anchor="middle" x="183.5" y="-62" font-family="Helvetica,sans-Serif" font-size="10.00">src/enclave/enclave.h</text>
</a>
</g>
</g>
<!-- Node3&#45;&gt;Node4 -->
<g id="edge3" class="edge">
<title>Node3&#45;&gt;Node4</title>
<path fill="none" stroke="#63b8ff" d="M168.53,-157.18C162.28,-149.28 155.73,-139.29 152.5,-129 146.03,-108.4 163.11,-86.11 174.42,-74.19"/>
<polygon fill="#63b8ff" stroke="#63b8ff" points="165.89,-159.48 175.02,-164.85 171.23,-154.96 165.89,-159.48"/>
</g>
<!-- Node6 -->
<g id="node6" class="node">
<title>Node6</title>
<g id="a_node6"><a xlink:href="gov__effects_8h.html" target="_top" xlink:title=" ">
<polygon fill="white" stroke="#666666" points="305.5,-129 161.5,-129 161.5,-110 305.5,-110 305.5,-129"/>
<text text-anchor="middle" x="233.5" y="-117" font-family="Helvetica,sans-Serif" font-size="10.00">src/node/rpc/gov_effects.h</text>
</a>
</g>
</g>
<!-- Node3&#45;&gt;Node6 -->
<g id="edge5" class="edge">
<title>Node3&#45;&gt;Node6</title>
<path fill="none" stroke="#63b8ff" d="M198.84,-157.24C207.6,-147.95 218.24,-136.68 225.4,-129.09"/>
<polygon fill="#63b8ff" stroke="#63b8ff" points="196.07,-155.07 191.76,-164.75 201.16,-159.88 196.07,-155.07"/>
</g>
<!-- Node5 -->
<g id="node5" class="node">
<title>Node5</title>
<g id="a_node5"><a xlink:href="enclave_2main_8cpp.html" target="_top" xlink:title=" ">
<polygon fill="white" stroke="#666666" points="243.5,-19 123.5,-19 123.5,0 243.5,0 243.5,-19"/>
<text text-anchor="middle" x="183.5" y="-7" font-family="Helvetica,sans-Serif" font-size="10.00">src/enclave/main.cpp</text>
</a>
</g>
</g>
<!-- Node4&#45;&gt;Node5 -->
<g id="edge4" class="edge">
<title>Node4&#45;&gt;Node5</title>
<path fill="none" stroke="#63b8ff" d="M183.5,-44.66C183.5,-35.93 183.5,-25.99 183.5,-19.09"/>
<polygon fill="#63b8ff" stroke="#63b8ff" points="180,-44.75 183.5,-54.75 187,-44.75 180,-44.75"/>
</g>
<!-- Node6&#45;&gt;Node4 -->
<g id="edge6" class="edge">
<title>Node6&#45;&gt;Node4</title>
<path fill="none" stroke="#63b8ff" d="M218.16,-102.24C209.4,-92.95 198.76,-81.68 191.6,-74.09"/>
<polygon fill="#63b8ff" stroke="#63b8ff" points="215.84,-104.88 225.24,-109.75 220.93,-100.07 215.84,-104.88"/>
</g>
</g>
</svg>
