<?xml version="1.0" encoding="UTF-8" standalone="no"?>
<!DOCTYPE svg PUBLIC "-//W3C//DTD SVG 1.1//EN"
 "http://www.w3.org/Graphics/SVG/1.1/DTD/svg11.dtd">
<!-- Generated by graphviz version 2.43.0 (0)
 -->
<!-- Title: src/service/tables/previous_service_identity.h Pages: 1 -->
<svg width="1651pt" height="588pt"
 viewBox="0.00 0.00 1651.31 588.00" xmlns="http://www.w3.org/2000/svg" xmlns:xlink="http://www.w3.org/1999/xlink">
<g id="graph0" class="graph" transform="scale(1 1) rotate(0) translate(4 584)">
<title>src/service/tables/previous_service_identity.h</title>
<!-- Node1 -->
<g id="node1" class="node">
<title>Node1</title>
<g id="a_node1"><a xlink:title=" ">
<polygon fill="#999999" stroke="#666666" points="268.81,-580 116.81,-580 116.81,-550 268.81,-550 268.81,-580"/>
<text text-anchor="start" x="124.81" y="-568" font-family="Helvetica,sans-Serif" font-size="10.00">src/service/tables</text>
<text text-anchor="middle" x="192.81" y="-557" font-family="Helvetica,sans-Serif" font-size="10.00">/previous_service_identity.h</text>
</a>
</g>
</g>
<!-- Node2 -->
<g id="node2" class="node">
<title>Node2</title>
<g id="a_node2"><a xlink:href="node__frontend_8h.html" target="_top" xlink:title=" ">
<polygon fill="white" stroke="#666666" points="176.81,-310.5 18.81,-310.5 18.81,-291.5 176.81,-291.5 176.81,-310.5"/>
<text text-anchor="middle" x="97.81" y="-298.5" font-family="Helvetica,sans-Serif" font-size="10.00">src/node/rpc/node_frontend.h</text>
</a>
</g>
</g>
<!-- Node1&#45;&gt;Node2 -->
<g id="edge1" class="edge">
<title>Node1&#45;&gt;Node2</title>
<path fill="none" stroke="#63b8ff" d="M173.42,-541.85C146.45,-509.42 98.9,-445.9 80.81,-382 73.62,-356.59 85.85,-325.87 93.08,-310.97"/>
<polygon fill="#63b8ff" stroke="#63b8ff" points="170.99,-544.4 180.12,-549.78 176.34,-539.88 170.99,-544.4"/>
</g>
<!-- Node8 -->
<g id="node8" class="node">
<title>Node8</title>
<g id="a_node8"><a xlink:href="genesis__gen_8h.html" target="_top" xlink:title=" ">
<polygon fill="white" stroke="#666666" points="247.81,-448 137.81,-448 137.81,-418 247.81,-418 247.81,-448"/>
<text text-anchor="start" x="145.81" y="-436" font-family="Helvetica,sans-Serif" font-size="10.00">src/service/genesis</text>
<text text-anchor="middle" x="192.81" y="-425" font-family="Helvetica,sans-Serif" font-size="10.00">_gen.h</text>
</a>
</g>
</g>
<!-- Node1&#45;&gt;Node8 -->
<g id="edge9" class="edge">
<title>Node1&#45;&gt;Node8</title>
<path fill="none" stroke="#63b8ff" d="M192.81,-539.68C192.81,-512.7 192.81,-470.11 192.81,-448.14"/>
<polygon fill="#63b8ff" stroke="#63b8ff" points="189.31,-539.84 192.81,-549.84 196.31,-539.84 189.31,-539.84"/>
</g>
<!-- Node12 -->
<g id="node12" class="node">
<title>Node12</title>
<g id="a_node12"><a xlink:href="network__tables_8h.html" target="_top" xlink:title=" ">
<polygon fill="white" stroke="#666666" points="476.81,-514 364.81,-514 364.81,-484 476.81,-484 476.81,-514"/>
<text text-anchor="start" x="372.81" y="-502" font-family="Helvetica,sans-Serif" font-size="10.00">src/service/network</text>
<text text-anchor="middle" x="420.81" y="-491" font-family="Helvetica,sans-Serif" font-size="10.00">_tables.h</text>
</a>
</g>
</g>
<!-- Node1&#45;&gt;Node12 -->
<g id="edge19" class="edge">
<title>Node1&#45;&gt;Node12</title>
<path fill="none" stroke="#63b8ff" d="M252.94,-547.12C289.71,-536.8 336.17,-523.76 370.89,-514.01"/>
<polygon fill="#63b8ff" stroke="#63b8ff" points="251.53,-543.88 242.85,-549.95 253.42,-550.62 251.53,-543.88"/>
</g>
<!-- Node3 -->
<g id="node3" class="node">
<title>Node3</title>
<g id="a_node3"><a xlink:href="src_2enclave_2enclave_8h.html" target="_top" xlink:title=" ">
<polygon fill="white" stroke="#666666" points="1326.81,-74 1204.81,-74 1204.81,-55 1326.81,-55 1326.81,-74"/>
<text text-anchor="middle" x="1265.81" y="-62" font-family="Helvetica,sans-Serif" font-size="10.00">src/enclave/enclave.h</text>
</a>
</g>
</g>
<!-- Node2&#45;&gt;Node3 -->
<g id="edge2" class="edge">
<title>Node2&#45;&gt;Node3</title>
<path fill="none" stroke="#63b8ff" d="M110.26,-283.59C134.29,-253.41 190.43,-189.9 254.81,-165 430,-97.25 1013.56,-73.36 1204.65,-67.24"/>
<polygon fill="#63b8ff" stroke="#63b8ff" points="107.49,-281.45 104.1,-291.49 113.01,-285.75 107.49,-281.45"/>
</g>
<!-- Node5 -->
<g id="node5" class="node">
<title>Node5</title>
<g id="a_node5"><a xlink:href="jwt__key__auto__refresh_8h.html" target="_top" xlink:title=" ">
<polygon fill="white" stroke="#666666" points="314.31,-250 189.31,-250 189.31,-220 314.31,-220 314.31,-250"/>
<text text-anchor="start" x="197.31" y="-238" font-family="Helvetica,sans-Serif" font-size="10.00">src/node/jwt_key_auto</text>
<text text-anchor="middle" x="251.81" y="-227" font-family="Helvetica,sans-Serif" font-size="10.00">_refresh.h</text>
</a>
</g>
</g>
<!-- Node2&#45;&gt;Node5 -->
<g id="edge4" class="edge">
<title>Node2&#45;&gt;Node5</title>
<path fill="none" stroke="#63b8ff" d="M127.88,-287.5C153.71,-276.77 190.94,-261.3 217.85,-250.12"/>
<polygon fill="#63b8ff" stroke="#63b8ff" points="126.47,-284.3 118.58,-291.37 129.16,-290.76 126.47,-284.3"/>
</g>
<!-- Node4 -->
<g id="node4" class="node">
<title>Node4</title>
<g id="a_node4"><a xlink:href="enclave_2main_8cpp.html" target="_top" xlink:title=" ">
<polygon fill="white" stroke="#666666" points="1325.81,-19 1205.81,-19 1205.81,0 1325.81,0 1325.81,-19"/>
<text text-anchor="middle" x="1265.81" y="-7" font-family="Helvetica,sans-Serif" font-size="10.00">src/enclave/main.cpp</text>
</a>
</g>
</g>
<!-- Node3&#45;&gt;Node4 -->
<g id="edge3" class="edge">
<title>Node3&#45;&gt;Node4</title>
<path fill="none" stroke="#63b8ff" d="M1265.81,-44.66C1265.81,-35.93 1265.81,-25.99 1265.81,-19.09"/>
<polygon fill="#63b8ff" stroke="#63b8ff" points="1262.31,-44.75 1265.81,-54.75 1269.31,-44.75 1262.31,-44.75"/>
</g>
<!-- Node6 -->
<g id="node6" class="node">
<title>Node6</title>
<g id="a_node6"><a xlink:href="node__state_8h.html" target="_top" xlink:title=" ">
<polygon fill="white" stroke="#666666" points="526.81,-184 402.81,-184 402.81,-165 526.81,-165 526.81,-184"/>
<text text-anchor="middle" x="464.81" y="-172" font-family="Helvetica,sans-Serif" font-size="10.00">src/node/node_state.h</text>
</a>
</g>
</g>
<!-- Node5&#45;&gt;Node6 -->
<g id="edge5" class="edge">
<title>Node5&#45;&gt;Node6</title>
<path fill="none" stroke="#63b8ff" d="M312.64,-217.29C352.15,-206.44 402.02,-192.75 433.67,-184.05"/>
<polygon fill="#63b8ff" stroke="#63b8ff" points="311.55,-213.96 302.83,-219.99 313.4,-220.71 311.55,-213.96"/>
</g>
<!-- Node6&#45;&gt;Node3 -->
<g id="edge6" class="edge">
<title>Node6&#45;&gt;Node3</title>
<path fill="none" stroke="#63b8ff" d="M536.97,-163.77C692.98,-142.74 1059.34,-93.34 1204.76,-73.73"/>
<polygon fill="#63b8ff" stroke="#63b8ff" points="536.44,-160.31 527,-165.12 537.38,-167.25 536.44,-160.31"/>
</g>
<!-- Node7 -->
<g id="node7" class="node">
<title>Node7</title>
<g id="a_node7"><a xlink:href="gov__effects_8h.html" target="_top" xlink:title=" ">
<polygon fill="white" stroke="#666666" points="1108.81,-129 964.81,-129 964.81,-110 1108.81,-110 1108.81,-129"/>
<text text-anchor="middle" x="1036.81" y="-117" font-family="Helvetica,sans-Serif" font-size="10.00">src/node/rpc/gov_effects.h</text>
</a>
</g>
</g>
<!-- Node6&#45;&gt;Node7 -->
<g id="edge7" class="edge">
<title>Node6&#45;&gt;Node7</title>
<path fill="none" stroke="#63b8ff" d="M536.84,-166.83C646.65,-156.65 854.77,-137.37 964.67,-127.18"/>
<polygon fill="#63b8ff" stroke="#63b8ff" points="536.48,-163.34 526.84,-167.75 537.12,-170.31 536.48,-163.34"/>
</g>
<!-- Node7&#45;&gt;Node3 -->
<g id="edge8" class="edge">
<title>Node7&#45;&gt;Node3</title>
<path fill="none" stroke="#63b8ff" d="M1083.52,-107.69C1126.42,-97.76 1189.17,-83.24 1228.73,-74.08"/>
<polygon fill="#63b8ff" stroke="#63b8ff" points="1082.56,-104.32 1073.61,-109.98 1084.14,-111.14 1082.56,-104.32"/>
</g>
<!-- Node8&#45;&gt;Node2 -->
<g id="edge13" class="edge">
<title>Node8&#45;&gt;Node2</title>
<path fill="none" stroke="#63b8ff" d="M128.45,-413.67C113.59,-406.29 99.58,-396.07 90.81,-382 76.8,-359.52 87.44,-326.34 93.86,-310.73"/>
<polygon fill="#63b8ff" stroke="#63b8ff" points="127.22,-416.96 137.77,-417.91 130.12,-410.58 127.22,-416.96"/>
</g>
<!-- Node8&#45;&gt;Node6 -->
<g id="edge10" class="edge">
<title>Node8&#45;&gt;Node6</title>
<path fill="none" stroke="#63b8ff" d="M136.14,-414.59C68.67,-390.78 -30.18,-344.3 9.81,-286 54.01,-221.56 288.43,-191.59 402.44,-180.66"/>
<polygon fill="#63b8ff" stroke="#63b8ff" points="135.25,-417.98 145.84,-417.93 137.53,-411.36 135.25,-417.98"/>
</g>
<!-- Node9 -->
<g id="node9" class="node">
<title>Node9</title>
<g id="a_node9"><a xlink:href="member__frontend_8h.html" target="_top" xlink:title=" ">
<polygon fill="white" stroke="#666666" points="314.81,-316 194.81,-316 194.81,-286 314.81,-286 314.81,-316"/>
<text text-anchor="start" x="202.81" y="-304" font-family="Helvetica,sans-Serif" font-size="10.00">src/node/rpc/member</text>
<text text-anchor="middle" x="254.81" y="-293" font-family="Helvetica,sans-Serif" font-size="10.00">_frontend.h</text>
</a>
</g>
</g>
<!-- Node8&#45;&gt;Node9 -->
<g id="edge11" class="edge">
<title>Node8&#45;&gt;Node9</title>
<path fill="none" stroke="#63b8ff" d="M173.65,-409.71C161.85,-393.12 150.88,-370.29 161.81,-352 171.78,-335.32 189.44,-323.88 206.71,-316.2"/>
<polygon fill="#63b8ff" stroke="#63b8ff" points="170.94,-411.93 179.79,-417.75 176.51,-407.68 170.94,-411.93"/>
</g>
<!-- Node10 -->
<g id="node10" class="node">
<title>Node10</title>
<g id="a_node10"><a xlink:href="secret__broadcast_8h.html" target="_top" xlink:title=" ">
<polygon fill="white" stroke="#666666" points="487.31,-376.5 334.31,-376.5 334.31,-357.5 487.31,-357.5 487.31,-376.5"/>
<text text-anchor="middle" x="410.81" y="-364.5" font-family="Helvetica,sans-Serif" font-size="10.00">src/node/secret_broadcast.h</text>
</a>
</g>
</g>
<!-- Node8&#45;&gt;Node10 -->
<g id="edge14" class="edge">
<title>Node8&#45;&gt;Node10</title>
<path fill="none" stroke="#63b8ff" d="M250.28,-415.13C292.59,-402.71 348.37,-386.33 381.8,-376.52"/>
<polygon fill="#63b8ff" stroke="#63b8ff" points="249.26,-411.78 240.65,-417.95 251.24,-418.5 249.26,-411.78"/>
</g>
<!-- Node11 -->
<g id="node11" class="node">
<title>Node11</title>
<g id="a_node11"><a xlink:href="share__manager_8h.html" target="_top" xlink:title=" ">
<polygon fill="white" stroke="#666666" points="316.31,-376.5 171.31,-376.5 171.31,-357.5 316.31,-357.5 316.31,-376.5"/>
<text text-anchor="middle" x="243.81" y="-364.5" font-family="Helvetica,sans-Serif" font-size="10.00">src/node/share_manager.h</text>
</a>
</g>
</g>
<!-- Node8&#45;&gt;Node11 -->
<g id="edge16" class="edge">
<title>Node8&#45;&gt;Node11</title>
<path fill="none" stroke="#63b8ff" d="M210.39,-409.94C219.45,-398.58 229.98,-385.36 236.77,-376.84"/>
<polygon fill="#63b8ff" stroke="#63b8ff" points="207.63,-407.79 204.13,-417.8 213.1,-412.16 207.63,-407.79"/>
</g>
<!-- Node9&#45;&gt;Node3 -->
<g id="edge12" class="edge">
<title>Node9&#45;&gt;Node3</title>
<path fill="none" stroke="#63b8ff" d="M216.91,-280.91C190.84,-265.21 163.74,-242.04 180.81,-220 232.84,-152.83 673.46,-125.99 812.81,-110 952.76,-93.95 1117.44,-78.67 1204.57,-70.88"/>
<polygon fill="#63b8ff" stroke="#63b8ff" points="215.24,-283.98 225.65,-285.93 218.73,-277.91 215.24,-283.98"/>
</g>
<!-- Node10&#45;&gt;Node6 -->
<g id="edge15" class="edge">
<title>Node10&#45;&gt;Node6</title>
<path fill="none" stroke="#63b8ff" d="M404.74,-347.95C396.17,-319.15 383.78,-261.79 404.81,-220 413.21,-203.32 431.14,-191.32 445.23,-184.02"/>
<polygon fill="#63b8ff" stroke="#63b8ff" points="401.4,-349.02 407.76,-357.5 408.08,-346.91 401.4,-349.02"/>
</g>
<!-- Node11&#45;&gt;Node6 -->
<g id="edge17" class="edge">
<title>Node11&#45;&gt;Node6</title>
<path fill="none" stroke="#63b8ff" d="M270.88,-352.67C287.34,-343.74 308.13,-330.9 323.81,-316 361.53,-280.15 352.79,-255.52 390.81,-220 407.35,-204.55 430.13,-191.84 446.03,-184.02"/>
<polygon fill="#63b8ff" stroke="#63b8ff" points="268.98,-349.71 261.76,-357.47 272.24,-355.91 268.98,-349.71"/>
</g>
<!-- Node11&#45;&gt;Node9 -->
<g id="edge18" class="edge">
<title>Node11&#45;&gt;Node9</title>
<path fill="none" stroke="#63b8ff" d="M247.02,-347.35C248.72,-337.47 250.77,-325.51 252.35,-316.36"/>
<polygon fill="#63b8ff" stroke="#63b8ff" points="243.54,-346.92 245.3,-357.37 250.44,-348.11 243.54,-346.92"/>
</g>
<!-- Node12&#45;&gt;Node8 -->
<g id="edge51" class="edge">
<title>Node12&#45;&gt;Node8</title>
<path fill="none" stroke="#63b8ff" d="M360.68,-481.12C323.92,-470.8 277.45,-457.76 242.73,-448.01"/>
<polygon fill="#63b8ff" stroke="#63b8ff" points="360.2,-484.62 370.78,-483.95 362.1,-477.88 360.2,-484.62"/>
</g>
<!-- Node13 -->
<g id="node13" class="node">
<title>Node13</title>
<g id="a_node13"><a xlink:href="ccf__acme__client_8h.html" target="_top" xlink:title=" ">
<polygon fill="white" stroke="#666666" points="1587.31,-310.5 1438.31,-310.5 1438.31,-291.5 1587.31,-291.5 1587.31,-310.5"/>
<text text-anchor="middle" x="1512.81" y="-298.5" font-family="Helvetica,sans-Serif" font-size="10.00">src/node/ccf_acme_client.h</text>
</a>
</g>
</g>
<!-- Node12&#45;&gt;Node13 -->
<g id="edge20" class="edge">
<title>Node12&#45;&gt;Node13</title>
<path fill="none" stroke="#63b8ff" d="M487.02,-496.07C714.25,-488.77 1452.28,-459.25 1521.81,-382 1539.77,-362.06 1525.73,-327.03 1517.59,-310.76"/>
<polygon fill="#63b8ff" stroke="#63b8ff" points="486.79,-492.57 476.91,-496.39 487.01,-499.57 486.79,-492.57"/>
</g>
<!-- Node14 -->
<g id="node14" class="node">
<title>Node14</title>
<g id="a_node14"><a xlink:href="network__state_8h.html" target="_top" xlink:title=" ">
<polygon fill="white" stroke="#666666" points="604.81,-442.5 464.81,-442.5 464.81,-423.5 604.81,-423.5 604.81,-442.5"/>
<text text-anchor="middle" x="534.81" y="-430.5" font-family="Helvetica,sans-Serif" font-size="10.00">src/node/network_state.h</text>
</a>
</g>
</g>
<!-- Node12&#45;&gt;Node14 -->
<g id="edge22" class="edge">
<title>Node12&#45;&gt;Node14</title>
<path fill="none" stroke="#63b8ff" d="M454.7,-478.97C476.27,-466.87 503.15,-451.78 519.64,-442.52"/>
<polygon fill="#63b8ff" stroke="#63b8ff" points="452.84,-476.01 445.83,-483.95 456.26,-482.11 452.84,-476.01"/>
</g>
<!-- Node13&#45;&gt;Node6 -->
<g id="edge21" class="edge">
<title>Node13&#45;&gt;Node6</title>
<path fill="none" stroke="#63b8ff" d="M1431.22,-290.31C1228.81,-266.26 707.02,-204.27 526.98,-182.89"/>
<polygon fill="#63b8ff" stroke="#63b8ff" points="1430.85,-293.79 1441.19,-291.49 1431.68,-286.84 1430.85,-293.79"/>
</g>
<!-- Node14&#45;&gt;Node2 -->
<g id="edge44" class="edge">
<title>Node14&#45;&gt;Node2</title>
<path fill="none" stroke="#63b8ff" d="M454.47,-428.2C360.14,-422.54 210.38,-409.46 161.81,-382 131.62,-364.93 110.29,-327.45 101.84,-310.55"/>
<polygon fill="#63b8ff" stroke="#63b8ff" points="454.37,-431.7 464.55,-428.79 454.77,-424.71 454.37,-431.7"/>
</g>
<!-- Node14&#45;&gt;Node3 -->
<g id="edge23" class="edge">
<title>Node14&#45;&gt;Node3</title>
<path fill="none" stroke="#63b8ff" d="M615.05,-430.2C795.55,-424.63 1226.59,-402.4 1338.81,-316 1369.43,-292.43 1372.81,-274.63 1372.81,-236 1372.81,-236 1372.81,-236 1372.81,-173.5 1372.81,-124.14 1315.72,-89.27 1284.94,-74.05"/>
<polygon fill="#63b8ff" stroke="#63b8ff" points="614.72,-426.71 604.83,-430.5 614.93,-433.7 614.72,-426.71"/>
</g>
<!-- Node14&#45;&gt;Node6 -->
<g id="edge43" class="edge">
<title>Node14&#45;&gt;Node6</title>
<path fill="none" stroke="#63b8ff" d="M527.12,-413.9C519.9,-397.44 508.51,-372.63 496.81,-352 471.09,-306.63 451.1,-300.68 438.81,-250 435.67,-237.04 435.33,-232.87 438.81,-220 442.51,-206.35 451.55,-192.6 457.92,-184.07"/>
<polygon fill="#63b8ff" stroke="#63b8ff" points="524.03,-415.59 531.21,-423.39 530.46,-412.82 524.03,-415.59"/>
</g>
<!-- Node14&#45;&gt;Node10 -->
<g id="edge47" class="edge">
<title>Node14&#45;&gt;Node10</title>
<path fill="none" stroke="#63b8ff" d="M509.04,-418.69C484.61,-406.09 448.62,-387.51 427.67,-376.7"/>
<polygon fill="#63b8ff" stroke="#63b8ff" points="507.6,-421.89 518.09,-423.37 510.81,-415.67 507.6,-421.89"/>
</g>
<!-- Node14&#45;&gt;Node11 -->
<g id="edge48" class="edge">
<title>Node14&#45;&gt;Node11</title>
<path fill="none" stroke="#63b8ff" d="M485.97,-421.26C428.71,-408.67 335,-388.06 282.53,-376.51"/>
<polygon fill="#63b8ff" stroke="#63b8ff" points="485.35,-424.71 495.87,-423.44 486.86,-417.87 485.35,-424.71"/>
</g>
<!-- Node15 -->
<g id="node15" class="node">
<title>Node15</title>
<g id="a_node15"><a xlink:href="wrap_8h.html" target="_top" xlink:title=" ">
<polygon fill="white" stroke="#666666" points="706.81,-376.5 628.81,-376.5 628.81,-357.5 706.81,-357.5 706.81,-376.5"/>
<text text-anchor="middle" x="667.81" y="-364.5" font-family="Helvetica,sans-Serif" font-size="10.00">src/js/wrap.h</text>
</a>
</g>
</g>
<!-- Node14&#45;&gt;Node15 -->
<g id="edge24" class="edge">
<title>Node14&#45;&gt;Node15</title>
<path fill="none" stroke="#63b8ff" d="M561.77,-419.03C587.98,-406.42 627.06,-387.61 649.74,-376.7"/>
<polygon fill="#63b8ff" stroke="#63b8ff" points="560.24,-415.88 552.75,-423.37 563.28,-422.19 560.24,-415.88"/>
</g>
<!-- Node23 -->
<g id="node23" class="node">
<title>Node23</title>
<g id="a_node23"><a xlink:href="acme__challenge__frontend_8h.html" target="_top" xlink:title=" ">
<polygon fill="white" stroke="#666666" points="1512.81,-382 1372.81,-382 1372.81,-352 1512.81,-352 1512.81,-382"/>
<text text-anchor="start" x="1380.81" y="-370" font-family="Helvetica,sans-Serif" font-size="10.00">src/node/acme_challenge</text>
<text text-anchor="middle" x="1442.81" y="-359" font-family="Helvetica,sans-Serif" font-size="10.00">_frontend.h</text>
</a>
</g>
</g>
<!-- Node14&#45;&gt;Node23 -->
<g id="edge40" class="edge">
<title>Node14&#45;&gt;Node23</title>
<path fill="none" stroke="#63b8ff" d="M615.35,-429.91C763.11,-425.45 1087.28,-412.78 1358.81,-382 1363.37,-381.48 1368.05,-380.89 1372.76,-380.24"/>
<polygon fill="#63b8ff" stroke="#63b8ff" points="614.92,-426.42 605.02,-430.21 615.12,-433.42 614.92,-426.42"/>
</g>
<!-- Node24 -->
<g id="node24" class="node">
<title>Node24</title>
<g id="a_node24"><a xlink:href="user__frontend_8h.html" target="_top" xlink:title=" ">
<polygon fill="white" stroke="#666666" points="1643.31,-184 1488.31,-184 1488.31,-165 1643.31,-165 1643.31,-184"/>
<text text-anchor="middle" x="1565.81" y="-172" font-family="Helvetica,sans-Serif" font-size="10.00">src/node/rpc/user_frontend.h</text>
</a>
</g>
</g>
<!-- Node14&#45;&gt;Node24 -->
<g id="edge45" class="edge">
<title>Node14&#45;&gt;Node24</title>
<path fill="none" stroke="#63b8ff" d="M615.38,-430.96C835.99,-427.67 1438.94,-415.69 1521.81,-382 1562.95,-365.28 1578.52,-356.46 1596.81,-316 1618.01,-269.11 1585.02,-206.71 1571.32,-184.12"/>
<polygon fill="#63b8ff" stroke="#63b8ff" points="615.12,-427.46 605.17,-431.11 615.22,-434.46 615.12,-427.46"/>
</g>
<!-- Node25 -->
<g id="node25" class="node">
<title>Node25</title>
<g id="a_node25"><a xlink:href="snapshotter_8h.html" target="_top" xlink:title=" ">
<polygon fill="white" stroke="#666666" points="574.31,-244.5 447.31,-244.5 447.31,-225.5 574.31,-225.5 574.31,-244.5"/>
<text text-anchor="middle" x="510.81" y="-232.5" font-family="Helvetica,sans-Serif" font-size="10.00">src/node/snapshotter.h</text>
</a>
</g>
</g>
<!-- Node14&#45;&gt;Node25 -->
<g id="edge49" class="edge">
<title>Node14&#45;&gt;Node25</title>
<path fill="none" stroke="#63b8ff" d="M537.94,-413.1C539.81,-396.06 540.11,-370.86 529.81,-352 516.86,-328.28 493.02,-340.11 480.81,-316 468.22,-291.12 490.3,-259.64 502.92,-244.67"/>
<polygon fill="#63b8ff" stroke="#63b8ff" points="534.42,-413.03 536.51,-423.42 541.35,-413.99 534.42,-413.03"/>
</g>
<!-- Node15&#45;&gt;Node2 -->
<g id="edge39" class="edge">
<title>Node15&#45;&gt;Node2</title>
<path fill="none" stroke="#63b8ff" d="M618.53,-361.78C531.18,-354.1 343.52,-336.71 185.81,-316 173.7,-314.41 160.68,-312.47 148.47,-310.54"/>
<polygon fill="#63b8ff" stroke="#63b8ff" points="618.41,-365.28 628.68,-362.67 619.02,-358.31 618.41,-365.28"/>
</g>
<!-- Node15&#45;&gt;Node3 -->
<g id="edge26" class="edge">
<title>Node15&#45;&gt;Node3</title>
<path fill="none" stroke="#63b8ff" d="M717.21,-365.49C860.76,-363.54 1270.63,-354.63 1315.81,-316 1343.59,-292.25 1334.81,-272.54 1334.81,-236 1334.81,-236 1334.81,-236 1334.81,-173.5 1334.81,-130.56 1295.6,-90.98 1276.29,-74.1"/>
<polygon fill="#63b8ff" stroke="#63b8ff" points="716.89,-361.99 706.94,-365.62 716.98,-368.99 716.89,-361.99"/>
</g>
<!-- Node15&#45;&gt;Node6 -->
<g id="edge37" class="edge">
<title>Node15&#45;&gt;Node6</title>
<path fill="none" stroke="#63b8ff" d="M618.8,-359.98C591.24,-353.82 559,-341.32 541.81,-316 534.32,-304.97 536.24,-298.11 541.81,-286 552.09,-263.66 573.54,-272.34 583.81,-250 589.38,-237.89 591.41,-230.96 583.81,-220 570.74,-201.15 548.65,-190.27 527.02,-184"/>
<polygon fill="#63b8ff" stroke="#63b8ff" points="618.21,-363.44 628.71,-361.98 619.6,-356.57 618.21,-363.44"/>
</g>
<!-- Node15&#45;&gt;Node9 -->
<g id="edge38" class="edge">
<title>Node15&#45;&gt;Node9</title>
<path fill="none" stroke="#63b8ff" d="M618.33,-358.33C542.28,-346.55 396.9,-324.02 314.92,-311.31"/>
<polygon fill="#63b8ff" stroke="#63b8ff" points="618.17,-361.85 628.59,-359.92 619.24,-354.93 618.17,-361.85"/>
</g>
<!-- Node16 -->
<g id="node16" class="node">
<title>Node16</title>
<g id="a_node16"><a xlink:href="js__generic__base_8cpp.html" target="_top" xlink:title=" ">
<polygon fill="white" stroke="#666666" points="1306.81,-316 1188.81,-316 1188.81,-286 1306.81,-286 1306.81,-316"/>
<text text-anchor="start" x="1196.81" y="-304" font-family="Helvetica,sans-Serif" font-size="10.00">src/apps/js_generic</text>
<text text-anchor="middle" x="1247.81" y="-293" font-family="Helvetica,sans-Serif" font-size="10.00">/js_generic_base.cpp</text>
</a>
</g>
</g>
<!-- Node15&#45;&gt;Node16 -->
<g id="edge25" class="edge">
<title>Node15&#45;&gt;Node16</title>
<path fill="none" stroke="#63b8ff" d="M716.92,-362.94C808.36,-356.85 1010.82,-341.58 1179.81,-316 1182.67,-315.57 1185.6,-315.09 1188.54,-314.59"/>
<polygon fill="#63b8ff" stroke="#63b8ff" points="716.59,-359.45 706.85,-363.6 717.05,-366.44 716.59,-359.45"/>
</g>
<!-- Node17 -->
<g id="node17" class="node">
<title>Node17</title>
<g id="a_node17"><a xlink:href="consensus_8cpp.html" target="_top" xlink:title=" ">
<polygon fill="white" stroke="#666666" points="1024.81,-310.5 908.81,-310.5 908.81,-291.5 1024.81,-291.5 1024.81,-310.5"/>
<text text-anchor="middle" x="966.81" y="-298.5" font-family="Helvetica,sans-Serif" font-size="10.00">src/js/consensus.cpp</text>
</a>
</g>
</g>
<!-- Node15&#45;&gt;Node17 -->
<g id="edge27" class="edge">
<title>Node15&#45;&gt;Node17</title>
<path fill="none" stroke="#63b8ff" d="M717.03,-355.46C775.67,-342.91 872.49,-322.19 926.76,-310.57"/>
<polygon fill="#63b8ff" stroke="#63b8ff" points="715.95,-352.12 706.9,-357.63 717.41,-358.96 715.95,-352.12"/>
</g>
<!-- Node18 -->
<g id="node18" class="node">
<title>Node18</title>
<g id="a_node18"><a xlink:href="wrap_8cpp.html" target="_top" xlink:title=" ">
<polygon fill="white" stroke="#666666" points="759.31,-244.5 670.31,-244.5 670.31,-225.5 759.31,-225.5 759.31,-244.5"/>
<text text-anchor="middle" x="714.81" y="-232.5" font-family="Helvetica,sans-Serif" font-size="10.00">src/js/wrap.cpp</text>
</a>
</g>
</g>
<!-- Node15&#45;&gt;Node18 -->
<g id="edge36" class="edge">
<title>Node15&#45;&gt;Node18</title>
<path fill="none" stroke="#63b8ff" d="M623.22,-354.57C581.27,-341.58 528.19,-317.96 551.81,-286 565.98,-266.84 626.8,-252 669.98,-243.63"/>
<polygon fill="#63b8ff" stroke="#63b8ff" points="622.46,-357.99 633.05,-357.49 624.46,-351.28 622.46,-357.99"/>
</g>
<!-- Node19 -->
<g id="node19" class="node">
<title>Node19</title>
<g id="a_node19"><a xlink:href="conv_8cpp.html" target="_top" xlink:title=" ">
<polygon fill="white" stroke="#666666" points="648.81,-310.5 560.81,-310.5 560.81,-291.5 648.81,-291.5 648.81,-310.5"/>
<text text-anchor="middle" x="604.81" y="-298.5" font-family="Helvetica,sans-Serif" font-size="10.00">src/js/conv.cpp</text>
</a>
</g>
</g>
<!-- Node15&#45;&gt;Node19 -->
<g id="edge29" class="edge">
<title>Node15&#45;&gt;Node19</title>
<path fill="none" stroke="#63b8ff" d="M652.04,-349.98C639.88,-337.62 623.51,-320.99 613.58,-310.91"/>
<polygon fill="#63b8ff" stroke="#63b8ff" points="649.81,-352.7 659.32,-357.37 654.8,-347.79 649.81,-352.7"/>
</g>
<!-- Node20 -->
<g id="node20" class="node">
<title>Node20</title>
<g id="a_node20"><a xlink:href="crypto_8cpp.html" target="_top" xlink:title=" ">
<polygon fill="white" stroke="#666666" points="762.81,-310.5 666.81,-310.5 666.81,-291.5 762.81,-291.5 762.81,-310.5"/>
<text text-anchor="middle" x="714.81" y="-298.5" font-family="Helvetica,sans-Serif" font-size="10.00">src/js/crypto.cpp</text>
</a>
</g>
</g>
<!-- Node15&#45;&gt;Node20 -->
<g id="edge31" class="edge">
<title>Node15&#45;&gt;Node20</title>
<path fill="none" stroke="#63b8ff" d="M680.1,-349.27C689.12,-336.99 701.01,-320.8 708.27,-310.91"/>
<polygon fill="#63b8ff" stroke="#63b8ff" points="677.25,-347.24 674.15,-357.37 682.89,-351.38 677.25,-347.24"/>
</g>
<!-- Node21 -->
<g id="node21" class="node">
<title>Node21</title>
<g id="a_node21"><a xlink:href="historical_8cpp.html" target="_top" xlink:title=" ">
<polygon fill="white" stroke="#666666" points="890.81,-310.5 780.81,-310.5 780.81,-291.5 890.81,-291.5 890.81,-310.5"/>
<text text-anchor="middle" x="835.81" y="-298.5" font-family="Helvetica,sans-Serif" font-size="10.00">src/js/historical.cpp</text>
</a>
</g>
</g>
<!-- Node15&#45;&gt;Node21 -->
<g id="edge33" class="edge">
<title>Node15&#45;&gt;Node21</title>
<path fill="none" stroke="#63b8ff" d="M700.17,-353.68C733.36,-341.03 784.15,-321.68 813.25,-310.6"/>
<polygon fill="#63b8ff" stroke="#63b8ff" points="698.57,-350.54 690.47,-357.37 701.06,-357.08 698.57,-350.54"/>
</g>
<!-- Node22 -->
<g id="node22" class="node">
<title>Node22</title>
<g id="a_node22"><a xlink:href="openenclave_8cpp.html" target="_top" xlink:title=" ">
<polygon fill="white" stroke="#666666" points="1170.81,-310.5 1042.81,-310.5 1042.81,-291.5 1170.81,-291.5 1170.81,-310.5"/>
<text text-anchor="middle" x="1106.81" y="-298.5" font-family="Helvetica,sans-Serif" font-size="10.00">src/js/openenclave.cpp</text>
</a>
</g>
</g>
<!-- Node15&#45;&gt;Node22 -->
<g id="edge35" class="edge">
<title>Node15&#45;&gt;Node22</title>
<path fill="none" stroke="#63b8ff" d="M717.26,-360.1C787.71,-351.5 920.95,-334.52 1033.81,-316 1043.75,-314.37 1054.4,-312.43 1064.42,-310.53"/>
<polygon fill="#63b8ff" stroke="#63b8ff" points="716.42,-356.68 706.92,-361.36 717.27,-363.63 716.42,-356.68"/>
</g>
<!-- Node17&#45;&gt;Node18 -->
<g id="edge28" class="edge">
<title>Node17&#45;&gt;Node18</title>
<path fill="none" stroke="#63b8ff" d="M923.28,-288.94C873.59,-276.32 793.4,-255.96 748.34,-244.51"/>
<polygon fill="#63b8ff" stroke="#63b8ff" points="922.54,-292.37 933.09,-291.44 924.26,-285.58 922.54,-292.37"/>
</g>
<!-- Node19&#45;&gt;Node18 -->
<g id="edge30" class="edge">
<title>Node19&#45;&gt;Node18</title>
<path fill="none" stroke="#63b8ff" d="M628.55,-286.19C650.2,-273.59 681.52,-255.37 699.86,-244.7"/>
<polygon fill="#63b8ff" stroke="#63b8ff" points="626.53,-283.31 619.65,-291.37 630.05,-289.36 626.53,-283.31"/>
</g>
<!-- Node20&#45;&gt;Node18 -->
<g id="edge32" class="edge">
<title>Node20&#45;&gt;Node18</title>
<path fill="none" stroke="#63b8ff" d="M714.81,-281.08C714.81,-269.13 714.81,-254.22 714.81,-244.91"/>
<polygon fill="#63b8ff" stroke="#63b8ff" points="711.31,-281.37 714.81,-291.37 718.31,-281.37 711.31,-281.37"/>
</g>
<!-- Node21&#45;&gt;Node18 -->
<g id="edge34" class="edge">
<title>Node21&#45;&gt;Node18</title>
<path fill="none" stroke="#63b8ff" d="M810.34,-286.53C786.51,-273.92 751.62,-255.47 731.26,-244.7"/>
<polygon fill="#63b8ff" stroke="#63b8ff" points="809.02,-289.79 819.49,-291.37 812.29,-283.6 809.02,-289.79"/>
</g>
<!-- Node23&#45;&gt;Node3 -->
<g id="edge41" class="edge">
<title>Node23&#45;&gt;Node3</title>
<path fill="none" stroke="#63b8ff" d="M1433.3,-342.22C1423.86,-316.48 1410.81,-274 1410.81,-236 1410.81,-236 1410.81,-236 1410.81,-173.5 1410.81,-143.33 1408.24,-131.24 1386.81,-110 1367.98,-91.33 1340.65,-80.41 1316.73,-74.06"/>
<polygon fill="#63b8ff" stroke="#63b8ff" points="1430.13,-343.74 1436.94,-351.85 1436.67,-341.26 1430.13,-343.74"/>
</g>
<!-- Node23&#45;&gt;Node13 -->
<g id="edge42" class="edge">
<title>Node23&#45;&gt;Node13</title>
<path fill="none" stroke="#63b8ff" d="M1465.86,-344.93C1478.52,-333.35 1493.56,-319.61 1503.14,-310.84"/>
<polygon fill="#63b8ff" stroke="#63b8ff" points="1463.37,-342.47 1458.35,-351.8 1468.09,-347.63 1463.37,-342.47"/>
</g>
<!-- Node24&#45;&gt;Node3 -->
<g id="edge46" class="edge">
<title>Node24&#45;&gt;Node3</title>
<path fill="none" stroke="#63b8ff" d="M1539.7,-160.31C1511.76,-146.53 1465.9,-124.91 1424.81,-110 1383.59,-95.04 1334.84,-82.07 1302.3,-74.05"/>
<polygon fill="#63b8ff" stroke="#63b8ff" points="1538.28,-163.51 1548.79,-164.83 1541.4,-157.24 1538.28,-163.51"/>
</g>
<!-- Node25&#45;&gt;Node6 -->
<g id="edge50" class="edge">
<title>Node25&#45;&gt;Node6</title>
<path fill="none" stroke="#63b8ff" d="M497.8,-217.45C489.28,-206.62 478.5,-192.91 471.63,-184.17"/>
<polygon fill="#63b8ff" stroke="#63b8ff" points="495.09,-219.67 504.03,-225.37 500.6,-215.34 495.09,-219.67"/>
</g>
</g>
</svg>
