<?xml version="1.0" encoding="UTF-8" standalone="no"?>
<!DOCTYPE svg PUBLIC "-//W3C//DTD SVG 1.1//EN"
 "http://www.w3.org/Graphics/SVG/1.1/DTD/svg11.dtd">
<!-- Generated by graphviz version 2.43.0 (0)
 -->
<!-- Title: src/node/rpc/rpc_exception.h Pages: 1 -->
<svg width="926pt" height="456pt"
 viewBox="0.00 0.00 926.32 456.00" xmlns="http://www.w3.org/2000/svg" xmlns:xlink="http://www.w3.org/1999/xlink">
<g id="graph0" class="graph" transform="scale(1 1) rotate(0) translate(4 452)">
<title>src/node/rpc/rpc_exception.h</title>
<!-- Node1 -->
<g id="node1" class="node">
<title>Node1</title>
<g id="a_node1"><a xlink:title=" ">
<polygon fill="#999999" stroke="#666666" points="452.5,-448 296.5,-448 296.5,-429 452.5,-429 452.5,-448"/>
<text text-anchor="middle" x="374.5" y="-436" font-family="Helvetica,sans-Serif" font-size="10.00">src/node/rpc/rpc_exception.h</text>
</a>
</g>
</g>
<!-- Node2 -->
<g id="node2" class="node">
<title>Node2</title>
<g id="a_node2"><a xlink:href="grpc_8h.html" target="_top" xlink:title=" ">
<polygon fill="white" stroke="#666666" points="286.5,-393 180.5,-393 180.5,-363 286.5,-363 286.5,-393"/>
<text text-anchor="start" x="188.5" y="-381" font-family="Helvetica,sans-Serif" font-size="10.00">src/endpoints/grpc</text>
<text text-anchor="middle" x="233.5" y="-370" font-family="Helvetica,sans-Serif" font-size="10.00">/grpc.h</text>
</a>
</g>
</g>
<!-- Node1&#45;&gt;Node2 -->
<g id="edge1" class="edge">
<title>Node1&#45;&gt;Node2</title>
<path fill="none" stroke="#63b8ff" d="M344.57,-425.08C321.96,-415.7 290.92,-402.82 267.4,-393.06"/>
<polygon fill="#63b8ff" stroke="#63b8ff" points="343.42,-428.39 354,-428.99 346.1,-421.93 343.42,-428.39"/>
</g>
<!-- Node6 -->
<g id="node6" class="node">
<title>Node6</title>
<g id="a_node6"><a xlink:href="json__handler_8cpp.html" target="_top" xlink:title=" ">
<polygon fill="white" stroke="#666666" points="407,-327 302,-327 302,-297 407,-297 407,-327"/>
<text text-anchor="start" x="310" y="-315" font-family="Helvetica,sans-Serif" font-size="10.00">src/endpoints/json</text>
<text text-anchor="middle" x="354.5" y="-304" font-family="Helvetica,sans-Serif" font-size="10.00">_handler.cpp</text>
</a>
</g>
</g>
<!-- Node1&#45;&gt;Node6 -->
<g id="edge5" class="edge">
<title>Node1&#45;&gt;Node6</title>
<path fill="none" stroke="#63b8ff" d="M362.26,-420.54C357.25,-412.59 352.05,-402.74 349.5,-393 343.62,-370.52 347.54,-343.32 350.97,-327.13"/>
<polygon fill="#63b8ff" stroke="#63b8ff" points="359.39,-422.54 367.87,-428.88 365.19,-418.63 359.39,-422.54"/>
</g>
<!-- Node7 -->
<g id="node7" class="node">
<title>Node7</title>
<g id="a_node7"><a xlink:href="http__accept_8h.html" target="_top" xlink:title=" ">
<polygon fill="white" stroke="#666666" points="480.5,-387.5 358.5,-387.5 358.5,-368.5 480.5,-368.5 480.5,-387.5"/>
<text text-anchor="middle" x="419.5" y="-375.5" font-family="Helvetica,sans-Serif" font-size="10.00">src/http/http_accept.h</text>
</a>
</g>
</g>
<!-- Node1&#45;&gt;Node7 -->
<g id="edge6" class="edge">
<title>Node1&#45;&gt;Node7</title>
<path fill="none" stroke="#63b8ff" d="M387.48,-420.63C395.77,-409.85 406.18,-396.32 412.83,-387.67"/>
<polygon fill="#63b8ff" stroke="#63b8ff" points="384.46,-418.81 381.14,-428.87 390.01,-423.08 384.46,-418.81"/>
</g>
<!-- Node8 -->
<g id="node8" class="node">
<title>Node8</title>
<g id="a_node8"><a xlink:href="frontend_8h.html" target="_top" xlink:title=" ">
<polygon fill="white" stroke="#666666" points="636,-387.5 507,-387.5 507,-368.5 636,-368.5 636,-387.5"/>
<text text-anchor="middle" x="571.5" y="-375.5" font-family="Helvetica,sans-Serif" font-size="10.00">src/node/rpc/frontend.h</text>
</a>
</g>
</g>
<!-- Node1&#45;&gt;Node8 -->
<g id="edge8" class="edge">
<title>Node1&#45;&gt;Node8</title>
<path fill="none" stroke="#63b8ff" d="M412.86,-426.11C450.97,-414.79 508.52,-397.7 542.82,-387.52"/>
<polygon fill="#63b8ff" stroke="#63b8ff" points="411.74,-422.79 403.15,-428.99 413.73,-429.5 411.74,-422.79"/>
</g>
<!-- Node3 -->
<g id="node3" class="node">
<title>Node3</title>
<g id="a_node3"><a xlink:href="external__executor__indexing_8h.html" target="_top" xlink:title=" ">
<polygon fill="white" stroke="#666666" points="283.5,-327 119.5,-327 119.5,-297 283.5,-297 283.5,-327"/>
<text text-anchor="start" x="127.5" y="-315" font-family="Helvetica,sans-Serif" font-size="10.00">src/apps/external_executor</text>
<text text-anchor="middle" x="201.5" y="-304" font-family="Helvetica,sans-Serif" font-size="10.00">/external_executor_indexing.h</text>
</a>
</g>
</g>
<!-- Node2&#45;&gt;Node3 -->
<g id="edge2" class="edge">
<title>Node2&#45;&gt;Node3</title>
<path fill="none" stroke="#63b8ff" d="M221.84,-353.68C217.4,-344.79 212.47,-334.95 208.58,-327.16"/>
<polygon fill="#63b8ff" stroke="#63b8ff" points="218.8,-355.42 226.4,-362.8 225.06,-352.29 218.8,-355.42"/>
</g>
<!-- Node4 -->
<g id="node4" class="node">
<title>Node4</title>
<g id="a_node4"><a xlink:href="external__executor_8cpp.html" target="_top" xlink:title=" ">
<polygon fill="white" stroke="#666666" points="341.5,-261 193.5,-261 193.5,-231 341.5,-231 341.5,-261"/>
<text text-anchor="start" x="201.5" y="-249" font-family="Helvetica,sans-Serif" font-size="10.00">src/apps/external_executor</text>
<text text-anchor="middle" x="267.5" y="-238" font-family="Helvetica,sans-Serif" font-size="10.00">/external_executor.cpp</text>
</a>
</g>
</g>
<!-- Node3&#45;&gt;Node4 -->
<g id="edge3" class="edge">
<title>Node3&#45;&gt;Node4</title>
<path fill="none" stroke="#63b8ff" d="M223.52,-289.65C233.19,-280.27 244.27,-269.53 252.89,-261.16"/>
<polygon fill="#63b8ff" stroke="#63b8ff" points="220.89,-287.32 216.15,-296.8 225.76,-292.35 220.89,-287.32"/>
</g>
<!-- Node5 -->
<g id="node5" class="node">
<title>Node5</title>
<g id="a_node5"><a xlink:href="external__executor__indexing_8cpp.html" target="_top" xlink:title=" ">
<polygon fill="white" stroke="#666666" points="175,-261 0,-261 0,-231 175,-231 175,-261"/>
<text text-anchor="start" x="8" y="-249" font-family="Helvetica,sans-Serif" font-size="10.00">src/apps/external_executor</text>
<text text-anchor="middle" x="87.5" y="-238" font-family="Helvetica,sans-Serif" font-size="10.00">/external_executor_indexing.cpp</text>
</a>
</g>
</g>
<!-- Node3&#45;&gt;Node5 -->
<g id="edge4" class="edge">
<title>Node3&#45;&gt;Node5</title>
<path fill="none" stroke="#63b8ff" d="M167.6,-291.97C149.9,-282.03 128.63,-270.09 112.46,-261.01"/>
<polygon fill="#63b8ff" stroke="#63b8ff" points="166.05,-295.11 176.48,-296.95 169.48,-289.01 166.05,-295.11"/>
</g>
<!-- Node7&#45;&gt;Node6 -->
<g id="edge7" class="edge">
<title>Node7&#45;&gt;Node6</title>
<path fill="none" stroke="#63b8ff" d="M403.41,-361.16C392.9,-350.81 379.28,-337.4 369.08,-327.36"/>
<polygon fill="#63b8ff" stroke="#63b8ff" points="401.15,-363.85 410.73,-368.37 406.06,-358.86 401.15,-363.85"/>
</g>
<!-- Node9 -->
<g id="node9" class="node">
<title>Node9</title>
<g id="a_node9"><a xlink:href="acme__challenge__frontend_8h.html" target="_top" xlink:title=" ">
<polygon fill="white" stroke="#666666" points="899.5,-327 759.5,-327 759.5,-297 899.5,-297 899.5,-327"/>
<text text-anchor="start" x="767.5" y="-315" font-family="Helvetica,sans-Serif" font-size="10.00">src/node/acme_challenge</text>
<text text-anchor="middle" x="829.5" y="-304" font-family="Helvetica,sans-Serif" font-size="10.00">_frontend.h</text>
</a>
</g>
</g>
<!-- Node8&#45;&gt;Node9 -->
<g id="edge9" class="edge">
<title>Node8&#45;&gt;Node9</title>
<path fill="none" stroke="#63b8ff" d="M615.74,-366.02C659.21,-355.24 725.69,-338.75 772.96,-327.02"/>
<polygon fill="#63b8ff" stroke="#63b8ff" points="614.89,-362.63 606.03,-368.44 616.58,-369.42 614.89,-362.63"/>
</g>
<!-- Node13 -->
<g id="node13" class="node">
<title>Node13</title>
<g id="a_node13"><a xlink:href="node__state_8h.html" target="_top" xlink:title=" ">
<polygon fill="white" stroke="#666666" points="789.5,-189.5 665.5,-189.5 665.5,-170.5 789.5,-170.5 789.5,-189.5"/>
<text text-anchor="middle" x="727.5" y="-177.5" font-family="Helvetica,sans-Serif" font-size="10.00">src/node/node_state.h</text>
</a>
</g>
</g>
<!-- Node8&#45;&gt;Node13 -->
<g id="edge17" class="edge">
<title>Node8&#45;&gt;Node13</title>
<path fill="none" stroke="#63b8ff" d="M606.28,-364.59C626.18,-356.22 650.65,-343.66 668.5,-327 710.47,-287.83 723.28,-214.68 726.54,-189.65"/>
<polygon fill="#63b8ff" stroke="#63b8ff" points="604.9,-361.37 596.93,-368.36 607.52,-367.86 604.9,-361.37"/>
</g>
<!-- Node15 -->
<g id="node15" class="node">
<title>Node15</title>
<g id="a_node15"><a xlink:href="member__frontend_8h.html" target="_top" xlink:title=" ">
<polygon fill="white" stroke="#666666" points="436.5,-195 316.5,-195 316.5,-165 436.5,-165 436.5,-195"/>
<text text-anchor="start" x="324.5" y="-183" font-family="Helvetica,sans-Serif" font-size="10.00">src/node/rpc/member</text>
<text text-anchor="middle" x="376.5" y="-172" font-family="Helvetica,sans-Serif" font-size="10.00">_frontend.h</text>
</a>
</g>
</g>
<!-- Node8&#45;&gt;Node15 -->
<g id="edge18" class="edge">
<title>Node8&#45;&gt;Node15</title>
<path fill="none" stroke="#63b8ff" d="M529.25,-365.26C506.57,-357.31 479.28,-344.95 459.5,-327 417.39,-288.79 391.28,-224.08 381.22,-195.41"/>
<polygon fill="#63b8ff" stroke="#63b8ff" points="528.39,-368.66 538.99,-368.49 530.6,-362.02 528.39,-368.66"/>
</g>
<!-- Node16 -->
<g id="node16" class="node">
<title>Node16</title>
<g id="a_node16"><a xlink:href="node__frontend_8h.html" target="_top" xlink:title=" ">
<polygon fill="white" stroke="#666666" points="659.5,-321.5 501.5,-321.5 501.5,-302.5 659.5,-302.5 659.5,-321.5"/>
<text text-anchor="middle" x="580.5" y="-309.5" font-family="Helvetica,sans-Serif" font-size="10.00">src/node/rpc/node_frontend.h</text>
</a>
</g>
</g>
<!-- Node8&#45;&gt;Node16 -->
<g id="edge20" class="edge">
<title>Node8&#45;&gt;Node16</title>
<path fill="none" stroke="#63b8ff" d="M574.11,-358.45C575.8,-346.43 577.92,-331.32 579.25,-321.91"/>
<polygon fill="#63b8ff" stroke="#63b8ff" points="570.64,-357.98 572.71,-368.37 577.57,-358.95 570.64,-357.98"/>
</g>
<!-- Node18 -->
<g id="node18" class="node">
<title>Node18</title>
<g id="a_node18"><a xlink:href="user__frontend_8h.html" target="_top" xlink:title=" ">
<polygon fill="white" stroke="#666666" points="517,-129 362,-129 362,-110 517,-110 517,-129"/>
<text text-anchor="middle" x="439.5" y="-117" font-family="Helvetica,sans-Serif" font-size="10.00">src/node/rpc/user_frontend.h</text>
</a>
</g>
</g>
<!-- Node8&#45;&gt;Node18 -->
<g id="edge24" class="edge">
<title>Node8&#45;&gt;Node18</title>
<path fill="none" stroke="#63b8ff" d="M539.81,-363.92C523.41,-355.63 504.39,-343.35 492.5,-327 468.44,-293.93 446.42,-164.06 440.85,-129.17"/>
<polygon fill="#63b8ff" stroke="#63b8ff" points="538.56,-367.2 549.09,-368.35 541.57,-360.88 538.56,-367.2"/>
</g>
<!-- Node10 -->
<g id="node10" class="node">
<title>Node10</title>
<g id="a_node10"><a xlink:href="src_2enclave_2enclave_8h.html" target="_top" xlink:title=" ">
<polygon fill="white" stroke="#666666" points="656.5,-74 534.5,-74 534.5,-55 656.5,-55 656.5,-74"/>
<text text-anchor="middle" x="595.5" y="-62" font-family="Helvetica,sans-Serif" font-size="10.00">src/enclave/enclave.h</text>
</a>
</g>
</g>
<!-- Node9&#45;&gt;Node10 -->
<g id="edge10" class="edge">
<title>Node9&#45;&gt;Node10</title>
<path fill="none" stroke="#63b8ff" d="M880.05,-291.99C893.28,-284.44 905.94,-274.31 913.5,-261 920.09,-249.41 919.61,-242.85 913.5,-231 861.87,-130.88 724.28,-89.6 648.1,-74.01"/>
<polygon fill="#63b8ff" stroke="#63b8ff" points="878.09,-289.07 870.86,-296.81 881.34,-295.27 878.09,-289.07"/>
</g>
<!-- Node12 -->
<g id="node12" class="node">
<title>Node12</title>
<g id="a_node12"><a xlink:href="ccf__acme__client_8h.html" target="_top" xlink:title=" ">
<polygon fill="white" stroke="#666666" points="904,-255.5 755,-255.5 755,-236.5 904,-236.5 904,-255.5"/>
<text text-anchor="middle" x="829.5" y="-243.5" font-family="Helvetica,sans-Serif" font-size="10.00">src/node/ccf_acme_client.h</text>
</a>
</g>
</g>
<!-- Node9&#45;&gt;Node12 -->
<g id="edge12" class="edge">
<title>Node9&#45;&gt;Node12</title>
<path fill="none" stroke="#63b8ff" d="M829.5,-286.6C829.5,-275.8 829.5,-263.78 829.5,-255.84"/>
<polygon fill="#63b8ff" stroke="#63b8ff" points="826,-286.8 829.5,-296.8 833,-286.8 826,-286.8"/>
</g>
<!-- Node11 -->
<g id="node11" class="node">
<title>Node11</title>
<g id="a_node11"><a xlink:href="enclave_2main_8cpp.html" target="_top" xlink:title=" ">
<polygon fill="white" stroke="#666666" points="655.5,-19 535.5,-19 535.5,0 655.5,0 655.5,-19"/>
<text text-anchor="middle" x="595.5" y="-7" font-family="Helvetica,sans-Serif" font-size="10.00">src/enclave/main.cpp</text>
</a>
</g>
</g>
<!-- Node10&#45;&gt;Node11 -->
<g id="edge11" class="edge">
<title>Node10&#45;&gt;Node11</title>
<path fill="none" stroke="#63b8ff" d="M595.5,-44.66C595.5,-35.93 595.5,-25.99 595.5,-19.09"/>
<polygon fill="#63b8ff" stroke="#63b8ff" points="592,-44.75 595.5,-54.75 599,-44.75 592,-44.75"/>
</g>
<!-- Node12&#45;&gt;Node13 -->
<g id="edge13" class="edge">
<title>Node12&#45;&gt;Node13</title>
<path fill="none" stroke="#63b8ff" d="M807.22,-231.02C787.16,-218.43 758.3,-200.32 741.36,-189.7"/>
<polygon fill="#63b8ff" stroke="#63b8ff" points="805.41,-234.02 815.74,-236.37 809.13,-228.09 805.41,-234.02"/>
</g>
<!-- Node13&#45;&gt;Node10 -->
<g id="edge14" class="edge">
<title>Node13&#45;&gt;Node10</title>
<path fill="none" stroke="#63b8ff" d="M732.67,-160.24C735.63,-145.22 736.95,-124.36 726.5,-110 710.39,-87.86 682.65,-76.61 656.84,-70.95"/>
<polygon fill="#63b8ff" stroke="#63b8ff" points="729.17,-159.85 730.26,-170.39 735.98,-161.47 729.17,-159.85"/>
</g>
<!-- Node14 -->
<g id="node14" class="node">
<title>Node14</title>
<g id="a_node14"><a xlink:href="gov__effects_8h.html" target="_top" xlink:title=" ">
<polygon fill="white" stroke="#666666" points="717.5,-129 573.5,-129 573.5,-110 717.5,-110 717.5,-129"/>
<text text-anchor="middle" x="645.5" y="-117" font-family="Helvetica,sans-Serif" font-size="10.00">src/node/rpc/gov_effects.h</text>
</a>
</g>
</g>
<!-- Node13&#45;&gt;Node14 -->
<g id="edge15" class="edge">
<title>Node13&#45;&gt;Node14</title>
<path fill="none" stroke="#63b8ff" d="M706.96,-164.35C691.43,-153.27 670.63,-138.43 657.65,-129.17"/>
<polygon fill="#63b8ff" stroke="#63b8ff" points="705.23,-167.41 715.4,-170.37 709.29,-161.71 705.23,-167.41"/>
</g>
<!-- Node14&#45;&gt;Node10 -->
<g id="edge16" class="edge">
<title>Node14&#45;&gt;Node10</title>
<path fill="none" stroke="#63b8ff" d="M630.16,-102.24C621.4,-92.95 610.76,-81.68 603.6,-74.09"/>
<polygon fill="#63b8ff" stroke="#63b8ff" points="627.84,-104.88 637.24,-109.75 632.93,-100.07 627.84,-104.88"/>
</g>
<!-- Node15&#45;&gt;Node10 -->
<g id="edge19" class="edge">
<title>Node15&#45;&gt;Node10</title>
<path fill="none" stroke="#63b8ff" d="M358.3,-156.4C348.9,-141.84 341.47,-123.23 352.5,-110 375.22,-82.74 470.13,-72.13 534.39,-68.03"/>
<polygon fill="#63b8ff" stroke="#63b8ff" points="355.65,-158.71 364.27,-164.86 361.37,-154.67 355.65,-158.71"/>
</g>
<!-- Node16&#45;&gt;Node10 -->
<g id="edge21" class="edge">
<title>Node16&#45;&gt;Node10</title>
<path fill="none" stroke="#63b8ff" d="M573.62,-292.6C570.48,-283.28 567.11,-271.69 565.5,-261 555.5,-194.64 544.4,-174.03 564.5,-110 568.9,-95.99 579.45,-82.53 587.02,-74.15"/>
<polygon fill="#63b8ff" stroke="#63b8ff" points="570.42,-294.07 577.07,-302.32 577.02,-291.73 570.42,-294.07"/>
</g>
<!-- Node17 -->
<g id="node17" class="node">
<title>Node17</title>
<g id="a_node17"><a xlink:href="jwt__key__auto__refresh_8h.html" target="_top" xlink:title=" ">
<polygon fill="white" stroke="#666666" points="699,-261 574,-261 574,-231 699,-231 699,-261"/>
<text text-anchor="start" x="582" y="-249" font-family="Helvetica,sans-Serif" font-size="10.00">src/node/jwt_key_auto</text>
<text text-anchor="middle" x="636.5" y="-238" font-family="Helvetica,sans-Serif" font-size="10.00">_refresh.h</text>
</a>
</g>
</g>
<!-- Node16&#45;&gt;Node17 -->
<g id="edge22" class="edge">
<title>Node16&#45;&gt;Node17</title>
<path fill="none" stroke="#63b8ff" d="M594.9,-294.54C603.88,-284.28 615.32,-271.2 623.93,-261.36"/>
<polygon fill="#63b8ff" stroke="#63b8ff" points="592,-292.54 588.05,-302.37 597.27,-297.15 592,-292.54"/>
</g>
<!-- Node17&#45;&gt;Node13 -->
<g id="edge23" class="edge">
<title>Node17&#45;&gt;Node13</title>
<path fill="none" stroke="#63b8ff" d="M665.12,-224.87C681.96,-213.03 702.41,-198.65 715.19,-189.66"/>
<polygon fill="#63b8ff" stroke="#63b8ff" points="662.86,-222.18 656.7,-230.8 666.89,-227.91 662.86,-222.18"/>
</g>
<!-- Node18&#45;&gt;Node10 -->
<g id="edge25" class="edge">
<title>Node18&#45;&gt;Node10</title>
<path fill="none" stroke="#63b8ff" d="M474.32,-106.67C503.41,-96.79 544.2,-82.93 570.24,-74.08"/>
<polygon fill="#63b8ff" stroke="#63b8ff" points="472.91,-103.45 464.56,-109.98 475.16,-110.08 472.91,-103.45"/>
</g>
</g>
</svg>
