<?xml version="1.0" encoding="UTF-8" standalone="no"?>
<!DOCTYPE svg PUBLIC "-//W3C//DTD SVG 1.1//EN"
 "http://www.w3.org/Graphics/SVG/1.1/DTD/svg11.dtd">
<!-- Generated by graphviz version 2.43.0 (0)
 -->
<!-- Title: include/ccf/serdes.h Pages: 1 -->
<svg width="809pt" height="247pt"
 viewBox="0.00 0.00 809.00 247.00" xmlns="http://www.w3.org/2000/svg" xmlns:xlink="http://www.w3.org/1999/xlink">
<g id="graph0" class="graph" transform="scale(1 1) rotate(0) translate(4 243)">
<title>include/ccf/serdes.h</title>
<!-- Node1 -->
<g id="node1" class="node">
<title>Node1</title>
<g id="a_node1"><a xlink:title=" ">
<polygon fill="#999999" stroke="#666666" points="801,-239 688,-239 688,-220 801,-220 801,-239"/>
<text text-anchor="middle" x="744.5" y="-227" font-family="Helvetica,sans-Serif" font-size="10.00">include/ccf/serdes.h</text>
</a>
</g>
</g>
<!-- Node2 -->
<g id="node2" class="node">
<title>Node2</title>
<g id="a_node2"><a xlink:href="json_8h.html" target="_top" xlink:title=" ">
<polygon fill="white" stroke="#666666" points="624,-184 547,-184 547,-165 624,-165 624,-184"/>
<text text-anchor="middle" x="585.5" y="-172" font-family="Helvetica,sans-Serif" font-size="10.00">ccf/ds/json.h</text>
</a>
</g>
</g>
<!-- Node1&#45;&gt;Node2 -->
<g id="edge1" class="edge">
<title>Node1&#45;&gt;Node2</title>
<path fill="none" stroke="#63b8ff" d="M718.95,-219.98C692.38,-211.13 650.56,-197.19 620.83,-187.28"/>
<polygon fill="#63b8ff" stroke="#63b8ff" points="621.84,-183.92 611.25,-184.08 619.63,-190.56 621.84,-183.92"/>
</g>
<!-- Node4 -->
<g id="node4" class="node">
<title>Node4</title>
<g id="a_node4"><a xlink:title=" ">
<polygon fill="#e0e0e0" stroke="#999999" points="650.5,-19 606.5,-19 606.5,0 650.5,0 650.5,-19"/>
<text text-anchor="middle" x="628.5" y="-7" font-family="Helvetica,sans-Serif" font-size="10.00">string</text>
</a>
</g>
</g>
<!-- Node1&#45;&gt;Node4 -->
<g id="edge20" class="edge">
<title>Node1&#45;&gt;Node4</title>
<path fill="none" stroke="#63b8ff" d="M746.27,-219.89C751.34,-192.69 763.26,-107.35 725.5,-55 717.37,-43.72 685.43,-30.38 660.4,-21.26"/>
<polygon fill="#63b8ff" stroke="#63b8ff" points="661.46,-17.92 650.87,-17.87 659.11,-24.52 661.46,-17.92"/>
</g>
<!-- Node5 -->
<g id="node5" class="node">
<title>Node5</title>
<g id="a_node5"><a xlink:title=" ">
<polygon fill="#e0e0e0" stroke="#999999" points="716,-19 669,-19 669,0 716,0 716,-19"/>
<text text-anchor="middle" x="692.5" y="-7" font-family="Helvetica,sans-Serif" font-size="10.00">vector</text>
</a>
</g>
</g>
<!-- Node1&#45;&gt;Node5 -->
<g id="edge21" class="edge">
<title>Node1&#45;&gt;Node5</title>
<path fill="none" stroke="#63b8ff" d="M748.26,-219.9C759.24,-193.43 788.58,-111.56 758.5,-55 751.19,-41.25 737.53,-30.99 724.53,-23.8"/>
<polygon fill="#63b8ff" stroke="#63b8ff" points="725.78,-20.51 715.28,-19.11 722.61,-26.75 725.78,-20.51"/>
</g>
<!-- Node3 -->
<g id="node3" class="node">
<title>Node3</title>
<g id="a_node3"><a xlink:href="include_2ccf_2crypto_2base64_8h.html" target="_top" xlink:title=" ">
<polygon fill="white" stroke="#666666" points="716.5,-74 604.5,-74 604.5,-55 716.5,-55 716.5,-74"/>
<text text-anchor="middle" x="660.5" y="-62" font-family="Helvetica,sans-Serif" font-size="10.00">ccf/crypto/base64.h</text>
</a>
</g>
</g>
<!-- Node2&#45;&gt;Node3 -->
<g id="edge2" class="edge">
<title>Node2&#45;&gt;Node3</title>
<path fill="none" stroke="#63b8ff" d="M591.64,-164.66C604.12,-146.69 632.62,-105.64 648.78,-82.38"/>
<polygon fill="#63b8ff" stroke="#63b8ff" points="651.66,-84.37 654.49,-74.16 645.91,-80.38 651.66,-84.37"/>
</g>
<!-- Node6 -->
<g id="node6" class="node">
<title>Node6</title>
<g id="a_node6"><a xlink:href="include_2ccf_2ds_2json__schema_8h.html" target="_top" xlink:title=" ">
<polygon fill="white" stroke="#666666" points="468,-129 347,-129 347,-110 468,-110 468,-129"/>
<text text-anchor="middle" x="407.5" y="-117" font-family="Helvetica,sans-Serif" font-size="10.00">ccf/ds/json_schema.h</text>
</a>
</g>
</g>
<!-- Node2&#45;&gt;Node6 -->
<g id="edge5" class="edge">
<title>Node2&#45;&gt;Node6</title>
<path fill="none" stroke="#63b8ff" d="M556.9,-164.98C526.89,-156.05 479.52,-141.94 446.18,-132.02"/>
<polygon fill="#63b8ff" stroke="#63b8ff" points="446.91,-128.58 436.32,-129.08 444.91,-135.29 446.91,-128.58"/>
</g>
<!-- Node14 -->
<g id="node14" class="node">
<title>Node14</title>
<g id="a_node14"><a xlink:title=" ">
<polygon fill="#e0e0e0" stroke="#999999" points="587,-74 508,-74 508,-55 587,-55 587,-74"/>
<text text-anchor="middle" x="547.5" y="-62" font-family="Helvetica,sans-Serif" font-size="10.00">fmt/format.h</text>
</a>
</g>
</g>
<!-- Node2&#45;&gt;Node14 -->
<g id="edge18" class="edge">
<title>Node2&#45;&gt;Node14</title>
<path fill="none" stroke="#63b8ff" d="M583.22,-164.77C579.93,-152.44 573.47,-129.26 566.5,-110 563.28,-101.11 559.23,-91.44 555.69,-83.39"/>
<polygon fill="#63b8ff" stroke="#63b8ff" points="558.87,-81.94 551.58,-74.25 552.48,-84.8 558.87,-81.94"/>
</g>
<!-- Node17 -->
<g id="node17" class="node">
<title>Node17</title>
<g id="a_node17"><a xlink:title=" ">
<polygon fill="#e0e0e0" stroke="#999999" points="557.5,-129 501.5,-129 501.5,-110 557.5,-110 557.5,-129"/>
<text text-anchor="middle" x="529.5" y="-117" font-family="Helvetica,sans-Serif" font-size="10.00">sstream</text>
</a>
</g>
</g>
<!-- Node2&#45;&gt;Node17 -->
<g id="edge19" class="edge">
<title>Node2&#45;&gt;Node17</title>
<path fill="none" stroke="#63b8ff" d="M576.5,-164.98C568.31,-157.23 555.99,-145.58 546.03,-136.14"/>
<polygon fill="#63b8ff" stroke="#63b8ff" points="548.33,-133.5 538.66,-129.17 543.52,-138.59 548.33,-133.5"/>
</g>
<!-- Node3&#45;&gt;Node4 -->
<g id="edge3" class="edge">
<title>Node3&#45;&gt;Node4</title>
<path fill="none" stroke="#63b8ff" d="M655.22,-54.75C650.79,-47.42 644.34,-36.73 638.88,-27.7"/>
<polygon fill="#63b8ff" stroke="#63b8ff" points="641.85,-25.84 633.69,-19.09 635.86,-29.46 641.85,-25.84"/>
</g>
<!-- Node3&#45;&gt;Node5 -->
<g id="edge4" class="edge">
<title>Node3&#45;&gt;Node5</title>
<path fill="none" stroke="#63b8ff" d="M665.78,-54.75C670.21,-47.42 676.66,-36.73 682.12,-27.7"/>
<polygon fill="#63b8ff" stroke="#63b8ff" points="685.14,-29.46 687.31,-19.09 679.15,-25.84 685.14,-29.46"/>
</g>
<!-- Node7 -->
<g id="node7" class="node">
<title>Node7</title>
<g id="a_node7"><a xlink:href="nonstd_8h.html" target="_top" xlink:title=" ">
<polygon fill="white" stroke="#666666" points="237.5,-74 147.5,-74 147.5,-55 237.5,-55 237.5,-74"/>
<text text-anchor="middle" x="192.5" y="-62" font-family="Helvetica,sans-Serif" font-size="10.00">ccf/ds/nonstd.h</text>
</a>
</g>
</g>
<!-- Node6&#45;&gt;Node7 -->
<g id="edge6" class="edge">
<title>Node6&#45;&gt;Node7</title>
<path fill="none" stroke="#63b8ff" d="M372.96,-109.98C336.08,-100.89 277.51,-86.46 237.16,-76.51"/>
<polygon fill="#63b8ff" stroke="#63b8ff" points="237.86,-73.08 227.31,-74.08 236.19,-79.87 237.86,-73.08"/>
</g>
<!-- Node13 -->
<g id="node13" class="node">
<title>Node13</title>
<g id="a_node13"><a xlink:title=" ">
<polygon fill="#e0e0e0" stroke="#999999" points="489.5,-74 433.5,-74 433.5,-55 489.5,-55 489.5,-74"/>
<text text-anchor="middle" x="461.5" y="-62" font-family="Helvetica,sans-Serif" font-size="10.00">optional</text>
</a>
</g>
</g>
<!-- Node6&#45;&gt;Node13 -->
<g id="edge14" class="edge">
<title>Node6&#45;&gt;Node13</title>
<path fill="none" stroke="#63b8ff" d="M416.42,-109.75C424.28,-102.03 435.93,-90.6 445.42,-81.28"/>
<polygon fill="#63b8ff" stroke="#63b8ff" points="448.06,-83.59 452.75,-74.09 443.16,-78.6 448.06,-83.59"/>
</g>
<!-- Node6&#45;&gt;Node14 -->
<g id="edge15" class="edge">
<title>Node6&#45;&gt;Node14</title>
<path fill="none" stroke="#63b8ff" d="M429.99,-109.98C453.02,-101.27 489.04,-87.63 515.13,-77.75"/>
<polygon fill="#63b8ff" stroke="#63b8ff" points="516.48,-80.98 524.6,-74.17 514.01,-74.44 516.48,-80.98"/>
</g>
<!-- Node15 -->
<g id="node15" class="node">
<title>Node15</title>
<g id="a_node15"><a xlink:title=" ">
<polygon fill="#e0e0e0" stroke="#999999" points="365.5,-74 255.5,-74 255.5,-55 365.5,-55 365.5,-74"/>
<text text-anchor="middle" x="310.5" y="-62" font-family="Helvetica,sans-Serif" font-size="10.00">nlohmann/json.hpp</text>
</a>
</g>
</g>
<!-- Node6&#45;&gt;Node15 -->
<g id="edge16" class="edge">
<title>Node6&#45;&gt;Node15</title>
<path fill="none" stroke="#63b8ff" d="M391.92,-109.98C376.73,-101.69 353.4,-88.94 335.6,-79.22"/>
<polygon fill="#63b8ff" stroke="#63b8ff" points="336.82,-75.89 326.37,-74.17 333.47,-82.04 336.82,-75.89"/>
</g>
<!-- Node16 -->
<g id="node16" class="node">
<title>Node16</title>
<g id="a_node16"><a xlink:title=" ">
<polygon fill="#e0e0e0" stroke="#999999" points="415.5,-74 383.5,-74 383.5,-55 415.5,-55 415.5,-74"/>
<text text-anchor="middle" x="399.5" y="-62" font-family="Helvetica,sans-Serif" font-size="10.00">set</text>
</a>
</g>
</g>
<!-- Node6&#45;&gt;Node16 -->
<g id="edge17" class="edge">
<title>Node6&#45;&gt;Node16</title>
<path fill="none" stroke="#63b8ff" d="M406.18,-109.75C405.13,-102.8 403.63,-92.85 402.31,-84.13"/>
<polygon fill="#63b8ff" stroke="#63b8ff" points="405.75,-83.45 400.8,-74.09 398.83,-84.5 405.75,-83.45"/>
</g>
<!-- Node7&#45;&gt;Node4 -->
<g id="edge10" class="edge">
<title>Node7&#45;&gt;Node4</title>
<path fill="none" stroke="#63b8ff" d="M237.56,-56.27C240.58,-55.83 243.59,-55.4 246.5,-55 375.9,-37.29 530.58,-20.66 596.36,-13.8"/>
<polygon fill="#63b8ff" stroke="#63b8ff" points="596.91,-17.26 606.5,-12.75 596.19,-10.3 596.91,-17.26"/>
</g>
<!-- Node7&#45;&gt;Node5 -->
<g id="edge13" class="edge">
<title>Node7&#45;&gt;Node5</title>
<path fill="none" stroke="#63b8ff" d="M237.55,-56.17C240.57,-55.75 243.58,-55.36 246.5,-55 426.18,-33.05 476.14,-49.48 658.87,-18.79"/>
<polygon fill="#63b8ff" stroke="#63b8ff" points="659.54,-22.23 668.81,-17.1 658.36,-15.33 659.54,-22.23"/>
</g>
<!-- Node8 -->
<g id="node8" class="node">
<title>Node8</title>
<g id="a_node8"><a xlink:title=" ">
<polygon fill="#e0e0e0" stroke="#999999" points="309.5,-19 245.5,-19 245.5,0 309.5,0 309.5,-19"/>
<text text-anchor="middle" x="277.5" y="-7" font-family="Helvetica,sans-Serif" font-size="10.00">algorithm</text>
</a>
</g>
</g>
<!-- Node7&#45;&gt;Node8 -->
<g id="edge7" class="edge">
<title>Node7&#45;&gt;Node8</title>
<path fill="none" stroke="#63b8ff" d="M206.16,-54.98C219.34,-46.77 239.53,-34.18 255.07,-24.49"/>
<polygon fill="#63b8ff" stroke="#63b8ff" points="256.96,-27.43 263.59,-19.17 253.26,-21.49 256.96,-27.43"/>
</g>
<!-- Node9 -->
<g id="node9" class="node">
<title>Node9</title>
<g id="a_node9"><a xlink:title=" ">
<polygon fill="#e0e0e0" stroke="#999999" points="369.5,-19 327.5,-19 327.5,0 369.5,0 369.5,-19"/>
<text text-anchor="middle" x="348.5" y="-7" font-family="Helvetica,sans-Serif" font-size="10.00">array</text>
</a>
</g>
</g>
<!-- Node7&#45;&gt;Node9 -->
<g id="edge8" class="edge">
<title>Node7&#45;&gt;Node9</title>
<path fill="none" stroke="#63b8ff" d="M217.56,-54.98C244.84,-45.72 288.46,-30.9 317.78,-20.94"/>
<polygon fill="#63b8ff" stroke="#63b8ff" points="319.16,-24.17 327.5,-17.63 316.9,-17.54 319.16,-24.17"/>
</g>
<!-- Node10 -->
<g id="node10" class="node">
<title>Node10</title>
<g id="a_node10"><a xlink:title=" ">
<polygon fill="#e0e0e0" stroke="#999999" points="49,-19 0,-19 0,0 49,0 49,-19"/>
<text text-anchor="middle" x="24.5" y="-7" font-family="Helvetica,sans-Serif" font-size="10.00">cctype</text>
</a>
</g>
</g>
<!-- Node7&#45;&gt;Node10 -->
<g id="edge9" class="edge">
<title>Node7&#45;&gt;Node10</title>
<path fill="none" stroke="#63b8ff" d="M165.51,-54.98C136.55,-45.85 90.48,-31.31 58.93,-21.36"/>
<polygon fill="#63b8ff" stroke="#63b8ff" points="59.83,-17.97 49.24,-18.3 57.72,-24.65 59.83,-17.97"/>
</g>
<!-- Node11 -->
<g id="node11" class="node">
<title>Node11</title>
<g id="a_node11"><a xlink:title=" ">
<polygon fill="#e0e0e0" stroke="#999999" points="140,-19 67,-19 67,0 140,0 140,-19"/>
<text text-anchor="middle" x="103.5" y="-7" font-family="Helvetica,sans-Serif" font-size="10.00">string_view</text>
</a>
</g>
</g>
<!-- Node7&#45;&gt;Node11 -->
<g id="edge11" class="edge">
<title>Node7&#45;&gt;Node11</title>
<path fill="none" stroke="#63b8ff" d="M178.2,-54.98C164.4,-46.77 143.26,-34.18 126.99,-24.49"/>
<polygon fill="#63b8ff" stroke="#63b8ff" points="128.44,-21.28 118.06,-19.17 124.86,-27.29 128.44,-21.28"/>
</g>
<!-- Node12 -->
<g id="node12" class="node">
<title>Node12</title>
<g id="a_node12"><a xlink:title=" ">
<polygon fill="#e0e0e0" stroke="#999999" points="227,-19 158,-19 158,0 227,0 227,-19"/>
<text text-anchor="middle" x="192.5" y="-7" font-family="Helvetica,sans-Serif" font-size="10.00">type_traits</text>
</a>
</g>
</g>
<!-- Node7&#45;&gt;Node12 -->
<g id="edge12" class="edge">
<title>Node7&#45;&gt;Node12</title>
<path fill="none" stroke="#63b8ff" d="M192.5,-54.75C192.5,-47.8 192.5,-37.85 192.5,-29.13"/>
<polygon fill="#63b8ff" stroke="#63b8ff" points="196,-29.09 192.5,-19.09 189,-29.09 196,-29.09"/>
</g>
</g>
</svg>
