<?xml version="1.0" encoding="UTF-8" standalone="no"?>
<!DOCTYPE svg PUBLIC "-//W3C//DTD SVG 1.1//EN"
 "http://www.w3.org/Graphics/SVG/1.1/DTD/svg11.dtd">
<!-- Generated by graphviz version 2.43.0 (0)
 -->
<!-- Title: src/node/session_metrics.h Pages: 1 -->
<svg width="2226pt" height="654pt"
 viewBox="0.00 0.00 2225.50 654.00" xmlns="http://www.w3.org/2000/svg" xmlns:xlink="http://www.w3.org/1999/xlink">
<g id="graph0" class="graph" transform="scale(1 1) rotate(0) translate(4 650)">
<title>src/node/session_metrics.h</title>
<!-- Node1 -->
<g id="node1" class="node">
<title>Node1</title>
<g id="a_node1"><a xlink:title=" ">
<polygon fill="#999999" stroke="#666666" points="1316,-646 1167,-646 1167,-627 1316,-627 1316,-646"/>
<text text-anchor="middle" x="1241.5" y="-634" font-family="Helvetica,sans-Serif" font-size="10.00">src/node/session_metrics.h</text>
</a>
</g>
</g>
<!-- Node2 -->
<g id="node2" class="node">
<title>Node2</title>
<g id="a_node2"><a xlink:href="rpc__sessions_8h.html" target="_top" xlink:title=" ">
<polygon fill="white" stroke="#666666" points="375.5,-332.5 229.5,-332.5 229.5,-313.5 375.5,-313.5 375.5,-332.5"/>
<text text-anchor="middle" x="302.5" y="-320.5" font-family="Helvetica,sans-Serif" font-size="10.00">src/enclave/rpc_sessions.h</text>
</a>
</g>
</g>
<!-- Node1&#45;&gt;Node2 -->
<g id="edge1" class="edge">
<title>Node1&#45;&gt;Node2</title>
<path fill="none" stroke="#63b8ff" d="M1156.65,-634.65C908.51,-631.06 201.5,-612.4 201.5,-516.5 201.5,-516.5 201.5,-516.5 201.5,-454 201.5,-397.7 261.31,-351.06 288.88,-332.56"/>
<polygon fill="#63b8ff" stroke="#63b8ff" points="1156.66,-638.15 1166.71,-634.79 1156.76,-631.15 1156.66,-638.15"/>
</g>
<!-- Node9 -->
<g id="node9" class="node">
<title>Node9</title>
<g id="a_node9"><a xlink:href="node__frontend_8h.html" target="_top" xlink:title=" ">
<polygon fill="white" stroke="#666666" points="1429.5,-332.5 1271.5,-332.5 1271.5,-313.5 1429.5,-313.5 1429.5,-332.5"/>
<text text-anchor="middle" x="1350.5" y="-320.5" font-family="Helvetica,sans-Serif" font-size="10.00">src/node/rpc/node_frontend.h</text>
</a>
</g>
</g>
<!-- Node1&#45;&gt;Node9 -->
<g id="edge12" class="edge">
<title>Node1&#45;&gt;Node9</title>
<path fill="none" stroke="#63b8ff" d="M1156.64,-631.49C1079.78,-622.75 978.5,-596.12 978.5,-516.5 978.5,-516.5 978.5,-516.5 978.5,-454 978.5,-418.6 1221.72,-355.45 1314.83,-332.57"/>
<polygon fill="#63b8ff" stroke="#63b8ff" points="1156.53,-635 1166.84,-632.56 1157.26,-628.04 1156.53,-635"/>
</g>
<!-- Node11 -->
<g id="node11" class="node">
<title>Node11</title>
<g id="a_node11"><a xlink:href="node__interface_8h.html" target="_top" xlink:title=" ">
<polygon fill="white" stroke="#666666" points="1691,-525 1530,-525 1530,-506 1691,-506 1691,-525"/>
<text text-anchor="middle" x="1610.5" y="-513" font-family="Helvetica,sans-Serif" font-size="10.00">src/node/rpc/node_interface.h</text>
</a>
</g>
</g>
<!-- Node1&#45;&gt;Node11 -->
<g id="edge16" class="edge">
<title>Node1&#45;&gt;Node11</title>
<path fill="none" stroke="#63b8ff" d="M1277.85,-623.78C1351.86,-599.91 1518.57,-546.15 1583.71,-525.14"/>
<polygon fill="#63b8ff" stroke="#63b8ff" points="1276.48,-620.54 1268.04,-626.94 1278.63,-627.2 1276.48,-620.54"/>
</g>
<!-- Node33 -->
<g id="node33" class="node">
<title>Node33</title>
<g id="a_node33"><a xlink:href="node__operation__interface_8h.html" target="_top" xlink:title=" ">
<polygon fill="white" stroke="#666666" points="1778,-591 1623,-591 1623,-561 1778,-561 1778,-591"/>
<text text-anchor="start" x="1631" y="-579" font-family="Helvetica,sans-Serif" font-size="10.00">src/node/rpc/node_operation</text>
<text text-anchor="middle" x="1700.5" y="-568" font-family="Helvetica,sans-Serif" font-size="10.00">_interface.h</text>
</a>
</g>
</g>
<!-- Node1&#45;&gt;Node33 -->
<g id="edge62" class="edge">
<title>Node1&#45;&gt;Node33</title>
<path fill="none" stroke="#63b8ff" d="M1318.3,-625.71C1402.86,-614.93 1538.06,-597.7 1622.93,-586.89"/>
<polygon fill="#63b8ff" stroke="#63b8ff" points="1317.72,-622.26 1308.24,-626.99 1318.6,-629.2 1317.72,-622.26"/>
</g>
<!-- Node3 -->
<g id="node3" class="node">
<title>Node3</title>
<g id="a_node3"><a xlink:href="src_2enclave_2enclave_8h.html" target="_top" xlink:title=" ">
<polygon fill="white" stroke="#666666" points="1582.5,-74 1460.5,-74 1460.5,-55 1582.5,-55 1582.5,-74"/>
<text text-anchor="middle" x="1521.5" y="-62" font-family="Helvetica,sans-Serif" font-size="10.00">src/enclave/enclave.h</text>
</a>
</g>
</g>
<!-- Node2&#45;&gt;Node3 -->
<g id="edge2" class="edge">
<title>Node2&#45;&gt;Node3</title>
<path fill="none" stroke="#63b8ff" d="M311.32,-304.53C321.78,-285.77 341.04,-256.71 366.5,-242 556.42,-132.29 1249.64,-81.99 1460.34,-69.01"/>
<polygon fill="#63b8ff" stroke="#63b8ff" points="308.16,-303.02 306.55,-313.49 314.34,-306.31 308.16,-303.02"/>
</g>
<!-- Node5 -->
<g id="node5" class="node">
<title>Node5</title>
<g id="a_node5"><a xlink:href="ccf__acme__client_8h.html" target="_top" xlink:title=" ">
<polygon fill="white" stroke="#666666" points="1418,-266.5 1269,-266.5 1269,-247.5 1418,-247.5 1418,-266.5"/>
<text text-anchor="middle" x="1343.5" y="-254.5" font-family="Helvetica,sans-Serif" font-size="10.00">src/node/ccf_acme_client.h</text>
</a>
</g>
</g>
<!-- Node2&#45;&gt;Node5 -->
<g id="edge4" class="edge">
<title>Node2&#45;&gt;Node5</title>
<path fill="none" stroke="#63b8ff" d="M378.17,-312.32C392.86,-310.68 408.15,-309.14 422.5,-308 794.11,-278.38 889.77,-311.08 1260.5,-272 1273.14,-270.67 1286.78,-268.62 1299.27,-266.51"/>
<polygon fill="#63b8ff" stroke="#63b8ff" points="377.66,-308.85 368.12,-313.46 378.45,-315.81 377.66,-308.85"/>
</g>
<!-- Node6 -->
<g id="node6" class="node">
<title>Node6</title>
<g id="a_node6"><a xlink:href="node__state_8h.html" target="_top" xlink:title=" ">
<polygon fill="white" stroke="#666666" points="1262.5,-200.5 1138.5,-200.5 1138.5,-181.5 1262.5,-181.5 1262.5,-200.5"/>
<text text-anchor="middle" x="1200.5" y="-188.5" font-family="Helvetica,sans-Serif" font-size="10.00">src/node/node_state.h</text>
</a>
</g>
</g>
<!-- Node2&#45;&gt;Node6 -->
<g id="edge9" class="edge">
<title>Node2&#45;&gt;Node6</title>
<path fill="none" stroke="#63b8ff" d="M364.9,-311.8C426.37,-301.31 515.69,-284.74 548.5,-272 572.66,-262.62 573.83,-249.95 598.5,-242 697.64,-210.06 1005.33,-197.59 1138.28,-193.6"/>
<polygon fill="#63b8ff" stroke="#63b8ff" points="364.18,-308.37 354.9,-313.49 365.35,-315.27 364.18,-308.37"/>
</g>
<!-- Node8 -->
<g id="node8" class="node">
<title>Node8</title>
<g id="a_node8"><a xlink:href="quote__endorsements__client_8h.html" target="_top" xlink:title=" ">
<polygon fill="white" stroke="#666666" points="539.5,-272 375.5,-272 375.5,-242 539.5,-242 539.5,-272"/>
<text text-anchor="start" x="383.5" y="-260" font-family="Helvetica,sans-Serif" font-size="10.00">src/node/quote_endorsements</text>
<text text-anchor="middle" x="457.5" y="-249" font-family="Helvetica,sans-Serif" font-size="10.00">_client.h</text>
</a>
</g>
</g>
<!-- Node2&#45;&gt;Node8 -->
<g id="edge10" class="edge">
<title>Node2&#45;&gt;Node8</title>
<path fill="none" stroke="#63b8ff" d="M332.76,-309.5C358.76,-298.77 396.23,-283.3 423.31,-272.12"/>
<polygon fill="#63b8ff" stroke="#63b8ff" points="331.31,-306.32 323.4,-313.37 333.98,-312.79 331.31,-306.32"/>
</g>
<!-- Node4 -->
<g id="node4" class="node">
<title>Node4</title>
<g id="a_node4"><a xlink:href="enclave_2main_8cpp.html" target="_top" xlink:title=" ">
<polygon fill="white" stroke="#666666" points="1581.5,-19 1461.5,-19 1461.5,0 1581.5,0 1581.5,-19"/>
<text text-anchor="middle" x="1521.5" y="-7" font-family="Helvetica,sans-Serif" font-size="10.00">src/enclave/main.cpp</text>
</a>
</g>
</g>
<!-- Node3&#45;&gt;Node4 -->
<g id="edge3" class="edge">
<title>Node3&#45;&gt;Node4</title>
<path fill="none" stroke="#63b8ff" d="M1521.5,-44.66C1521.5,-35.93 1521.5,-25.99 1521.5,-19.09"/>
<polygon fill="#63b8ff" stroke="#63b8ff" points="1518,-44.75 1521.5,-54.75 1525,-44.75 1518,-44.75"/>
</g>
<!-- Node5&#45;&gt;Node6 -->
<g id="edge5" class="edge">
<title>Node5&#45;&gt;Node6</title>
<path fill="none" stroke="#63b8ff" d="M1314.89,-243.19C1286.7,-230.58 1244.42,-211.66 1219.94,-200.7"/>
<polygon fill="#63b8ff" stroke="#63b8ff" points="1313.66,-246.48 1324.21,-247.37 1316.52,-240.09 1313.66,-246.48"/>
</g>
<!-- Node6&#45;&gt;Node3 -->
<g id="edge6" class="edge">
<title>Node6&#45;&gt;Node3</title>
<path fill="none" stroke="#63b8ff" d="M1212.12,-172.89C1225.73,-154.27 1250.09,-125.14 1278.5,-110 1335.37,-79.7 1409.19,-69.63 1460.47,-66.49"/>
<polygon fill="#63b8ff" stroke="#63b8ff" points="1209.08,-171.12 1206.17,-181.31 1214.8,-175.16 1209.08,-171.12"/>
</g>
<!-- Node7 -->
<g id="node7" class="node">
<title>Node7</title>
<g id="a_node7"><a xlink:href="gov__effects_8h.html" target="_top" xlink:title=" ">
<polygon fill="white" stroke="#666666" points="1431.5,-134.5 1287.5,-134.5 1287.5,-115.5 1431.5,-115.5 1431.5,-134.5"/>
<text text-anchor="middle" x="1359.5" y="-122.5" font-family="Helvetica,sans-Serif" font-size="10.00">src/node/rpc/gov_effects.h</text>
</a>
</g>
</g>
<!-- Node6&#45;&gt;Node7 -->
<g id="edge7" class="edge">
<title>Node6&#45;&gt;Node7</title>
<path fill="none" stroke="#63b8ff" d="M1231.53,-177.51C1262.95,-164.86 1310.73,-145.63 1338.14,-134.6"/>
<polygon fill="#63b8ff" stroke="#63b8ff" points="1229.91,-174.39 1221.94,-181.37 1232.53,-180.88 1229.91,-174.39"/>
</g>
<!-- Node7&#45;&gt;Node3 -->
<g id="edge8" class="edge">
<title>Node7&#45;&gt;Node3</title>
<path fill="none" stroke="#63b8ff" d="M1392.66,-112.02C1423.99,-100.71 1470.19,-84.03 1497.92,-74.02"/>
<polygon fill="#63b8ff" stroke="#63b8ff" points="1391.27,-108.81 1383.06,-115.49 1393.65,-115.39 1391.27,-108.81"/>
</g>
<!-- Node8&#45;&gt;Node6 -->
<g id="edge11" class="edge">
<title>Node8&#45;&gt;Node6</title>
<path fill="none" stroke="#63b8ff" d="M549.79,-243.2C553.4,-242.78 556.98,-242.38 560.5,-242 771.89,-219.4 1023.58,-202.72 1138.16,-195.68"/>
<polygon fill="#63b8ff" stroke="#63b8ff" points="549.05,-239.76 539.53,-244.42 549.88,-246.71 549.05,-239.76"/>
</g>
<!-- Node9&#45;&gt;Node3 -->
<g id="edge13" class="edge">
<title>Node9&#45;&gt;Node3</title>
<path fill="none" stroke="#63b8ff" d="M1378.74,-308.74C1394.71,-300.1 1414.11,-287.55 1427.5,-272 1483.03,-207.53 1511.77,-104.84 1519.4,-74.33"/>
<polygon fill="#63b8ff" stroke="#63b8ff" points="1377.07,-305.66 1369.8,-313.37 1380.29,-311.88 1377.07,-305.66"/>
</g>
<!-- Node10 -->
<g id="node10" class="node">
<title>Node10</title>
<g id="a_node10"><a xlink:href="jwt__key__auto__refresh_8h.html" target="_top" xlink:title=" ">
<polygon fill="white" stroke="#666666" points="1251,-272 1126,-272 1126,-242 1251,-242 1251,-272"/>
<text text-anchor="start" x="1134" y="-260" font-family="Helvetica,sans-Serif" font-size="10.00">src/node/jwt_key_auto</text>
<text text-anchor="middle" x="1188.5" y="-249" font-family="Helvetica,sans-Serif" font-size="10.00">_refresh.h</text>
</a>
</g>
</g>
<!-- Node9&#45;&gt;Node10 -->
<g id="edge14" class="edge">
<title>Node9&#45;&gt;Node10</title>
<path fill="none" stroke="#63b8ff" d="M1319.23,-309.65C1292.04,-298.9 1252.66,-283.35 1224.23,-272.12"/>
<polygon fill="#63b8ff" stroke="#63b8ff" points="1318.07,-312.95 1328.65,-313.37 1320.64,-306.44 1318.07,-312.95"/>
</g>
<!-- Node10&#45;&gt;Node6 -->
<g id="edge15" class="edge">
<title>Node10&#45;&gt;Node6</title>
<path fill="none" stroke="#63b8ff" d="M1193.01,-231.94C1195.05,-221.06 1197.34,-208.86 1198.84,-200.84"/>
<polygon fill="#63b8ff" stroke="#63b8ff" points="1189.57,-231.32 1191.16,-241.8 1196.45,-232.61 1189.57,-231.32"/>
</g>
<!-- Node11&#45;&gt;Node9 -->
<g id="edge59" class="edge">
<title>Node11&#45;&gt;Node9</title>
<path fill="none" stroke="#63b8ff" d="M1581.55,-501.5C1564.43,-493.33 1542.63,-482.08 1524.5,-470 1456.24,-424.52 1384.04,-356.56 1359.36,-332.68"/>
<polygon fill="#63b8ff" stroke="#63b8ff" points="1580.49,-504.86 1591.03,-505.93 1583.46,-498.52 1580.49,-504.86"/>
</g>
<!-- Node12 -->
<g id="node12" class="node">
<title>Node12</title>
<g id="a_node12"><a xlink:href="wrap_8cpp.html" target="_top" xlink:title=" ">
<polygon fill="white" stroke="#666666" points="696,-266.5 607,-266.5 607,-247.5 696,-247.5 696,-266.5"/>
<text text-anchor="middle" x="651.5" y="-254.5" font-family="Helvetica,sans-Serif" font-size="10.00">src/js/wrap.cpp</text>
</a>
</g>
</g>
<!-- Node11&#45;&gt;Node12 -->
<g id="edge17" class="edge">
<title>Node11&#45;&gt;Node12</title>
<path fill="none" stroke="#63b8ff" d="M1519.99,-507.86C1254.74,-487.49 493.42,-422.1 422.5,-338 340.55,-240.83 359.22,-321.87 587.5,-272 595.61,-270.23 604.3,-268.33 612.58,-266.52"/>
<polygon fill="#63b8ff" stroke="#63b8ff" points="1519.74,-511.35 1529.97,-508.62 1520.27,-504.37 1519.74,-511.35"/>
</g>
<!-- Node13 -->
<g id="node13" class="node">
<title>Node13</title>
<g id="a_node13"><a xlink:href="wrap_8h.html" target="_top" xlink:title=" ">
<polygon fill="white" stroke="#666666" points="950.5,-398.5 872.5,-398.5 872.5,-379.5 950.5,-379.5 950.5,-398.5"/>
<text text-anchor="middle" x="911.5" y="-386.5" font-family="Helvetica,sans-Serif" font-size="10.00">src/js/wrap.h</text>
</a>
</g>
</g>
<!-- Node11&#45;&gt;Node13 -->
<g id="edge18" class="edge">
<title>Node11&#45;&gt;Node13</title>
<path fill="none" stroke="#63b8ff" d="M1552.75,-504.21C1414.53,-479.6 1067.48,-417.78 950.61,-396.97"/>
<polygon fill="#63b8ff" stroke="#63b8ff" points="1552.27,-507.68 1562.73,-505.99 1553.5,-500.79 1552.27,-507.68"/>
</g>
<!-- Node20 -->
<g id="node20" class="node">
<title>Node20</title>
<g id="a_node20"><a xlink:href="member__frontend_8h.html" target="_top" xlink:title=" ">
<polygon fill="white" stroke="#666666" points="1801.5,-338 1681.5,-338 1681.5,-308 1801.5,-308 1801.5,-338"/>
<text text-anchor="start" x="1689.5" y="-326" font-family="Helvetica,sans-Serif" font-size="10.00">src/node/rpc/member</text>
<text text-anchor="middle" x="1741.5" y="-315" font-family="Helvetica,sans-Serif" font-size="10.00">_frontend.h</text>
</a>
</g>
</g>
<!-- Node11&#45;&gt;Node20 -->
<g id="edge51" class="edge">
<title>Node11&#45;&gt;Node20</title>
<path fill="none" stroke="#63b8ff" d="M1649.32,-502.13C1665.91,-495.08 1684.24,-484.67 1696.5,-470 1729.67,-430.31 1738.42,-366.38 1740.7,-338.16"/>
<polygon fill="#63b8ff" stroke="#63b8ff" points="1647.82,-498.96 1639.81,-505.9 1650.4,-505.47 1647.82,-498.96"/>
</g>
<!-- Node21 -->
<g id="node21" class="node">
<title>Node21</title>
<g id="a_node21"><a xlink:href="historical__queries_8h.html" target="_top" xlink:title=" ">
<polygon fill="white" stroke="#666666" points="1882.5,-206 1776.5,-206 1776.5,-176 1882.5,-176 1882.5,-206"/>
<text text-anchor="start" x="1784.5" y="-194" font-family="Helvetica,sans-Serif" font-size="10.00">src/node/historical</text>
<text text-anchor="middle" x="1829.5" y="-183" font-family="Helvetica,sans-Serif" font-size="10.00">_queries.h</text>
</a>
</g>
</g>
<!-- Node11&#45;&gt;Node21 -->
<g id="edge35" class="edge">
<title>Node11&#45;&gt;Node21</title>
<path fill="none" stroke="#63b8ff" d="M1654.85,-502.88C1675.97,-495.8 1700.66,-485.15 1719.5,-470 1775.02,-425.34 1784.97,-404.52 1810.5,-338 1828.09,-292.18 1829.98,-232.97 1829.83,-206.22"/>
<polygon fill="#63b8ff" stroke="#63b8ff" points="1653.59,-499.6 1645.12,-505.97 1655.71,-506.27 1653.59,-499.6"/>
</g>
<!-- Node23 -->
<g id="node23" class="node">
<title>Node23</title>
<g id="a_node23"><a xlink:href="node__configuration__subsystem_8h.html" target="_top" xlink:title=" ">
<polygon fill="white" stroke="#666666" points="1687.5,-470 1533.5,-470 1533.5,-440 1687.5,-440 1687.5,-470"/>
<text text-anchor="start" x="1541.5" y="-458" font-family="Helvetica,sans-Serif" font-size="10.00">src/node/node_configuration</text>
<text text-anchor="middle" x="1610.5" y="-447" font-family="Helvetica,sans-Serif" font-size="10.00">_subsystem.h</text>
</a>
</g>
</g>
<!-- Node11&#45;&gt;Node23 -->
<g id="edge39" class="edge">
<title>Node11&#45;&gt;Node23</title>
<path fill="none" stroke="#63b8ff" d="M1610.5,-495.65C1610.5,-487.36 1610.5,-477.78 1610.5,-470.11"/>
<polygon fill="#63b8ff" stroke="#63b8ff" points="1607,-495.87 1610.5,-505.87 1614,-495.87 1607,-495.87"/>
</g>
<!-- Node27 -->
<g id="node27" class="node">
<title>Node27</title>
<g id="a_node27"><a xlink:href="acme__subsystem_8h.html" target="_top" xlink:title=" ">
<polygon fill="white" stroke="#666666" points="173,-200.5 0,-200.5 0,-181.5 173,-181.5 173,-200.5"/>
<text text-anchor="middle" x="86.5" y="-188.5" font-family="Helvetica,sans-Serif" font-size="10.00">src/node/rpc/acme_subsystem.h</text>
</a>
</g>
</g>
<!-- Node11&#45;&gt;Node27 -->
<g id="edge49" class="edge">
<title>Node11&#45;&gt;Node27</title>
<path fill="none" stroke="#63b8ff" d="M1519.52,-512.7C1377.2,-509.08 1093.45,-498.65 854.5,-470 691.69,-450.48 652.2,-436.63 491.5,-404 360.26,-377.35 310.19,-410.36 197.5,-338 140.97,-301.7 102.22,-226.06 90.34,-200.58"/>
<polygon fill="#63b8ff" stroke="#63b8ff" points="1519.85,-516.21 1529.93,-512.96 1520.02,-509.21 1519.85,-516.21"/>
</g>
<!-- Node28 -->
<g id="node28" class="node">
<title>Node28</title>
<g id="a_node28"><a xlink:href="network__identity__subsystem_8h.html" target="_top" xlink:title=" ">
<polygon fill="white" stroke="#666666" points="1962,-470 1835,-470 1835,-440 1962,-440 1962,-470"/>
<text text-anchor="start" x="1843" y="-458" font-family="Helvetica,sans-Serif" font-size="10.00">src/node/rpc/network</text>
<text text-anchor="middle" x="1898.5" y="-447" font-family="Helvetica,sans-Serif" font-size="10.00">_identity_subsystem.h</text>
</a>
</g>
</g>
<!-- Node11&#45;&gt;Node28 -->
<g id="edge52" class="edge">
<title>Node11&#45;&gt;Node28</title>
<path fill="none" stroke="#63b8ff" d="M1662.31,-503.98C1710.65,-494.16 1782.91,-479.48 1834.76,-468.95"/>
<polygon fill="#63b8ff" stroke="#63b8ff" points="1661.48,-500.57 1652.38,-505.99 1662.87,-507.43 1661.48,-500.57"/>
</g>
<!-- Node32 -->
<g id="node32" class="node">
<title>Node32</title>
<g id="a_node32"><a xlink:href="node__operation_8h.html" target="_top" xlink:title=" ">
<polygon fill="white" stroke="#666666" points="2144.5,-464.5 1980.5,-464.5 1980.5,-445.5 2144.5,-445.5 2144.5,-464.5"/>
<text text-anchor="middle" x="2062.5" y="-452.5" font-family="Helvetica,sans-Serif" font-size="10.00">src/node/rpc/node_operation.h</text>
</a>
</g>
</g>
<!-- Node11&#45;&gt;Node32 -->
<g id="edge60" class="edge">
<title>Node11&#45;&gt;Node32</title>
<path fill="none" stroke="#63b8ff" d="M1695,-504.81C1768.22,-496.24 1876.96,-483.1 1971.5,-470 1983.53,-468.33 1996.44,-466.42 2008.65,-464.56"/>
<polygon fill="#63b8ff" stroke="#63b8ff" points="1694.44,-501.35 1684.91,-505.99 1695.25,-508.3 1694.44,-501.35"/>
</g>
<!-- Node13&#45;&gt;Node3 -->
<g id="edge20" class="edge">
<title>Node13&#45;&gt;Node3</title>
<path fill="none" stroke="#63b8ff" d="M861.92,-387.74C711.73,-386.5 269.09,-379.34 220.5,-338 192.67,-314.32 201.5,-294.54 201.5,-258 201.5,-258 201.5,-258 201.5,-190 201.5,-125.91 1200.88,-79.09 1460.48,-68.01"/>
<polygon fill="#63b8ff" stroke="#63b8ff" points="862.19,-391.24 872.22,-387.82 862.24,-384.24 862.19,-391.24"/>
</g>
<!-- Node13&#45;&gt;Node6 -->
<g id="edge31" class="edge">
<title>Node13&#45;&gt;Node6</title>
<path fill="none" stroke="#63b8ff" d="M952.27,-376.75C1000.14,-363.39 1073.69,-342.37 1078.5,-338 1112.57,-307.02 1087.58,-277.01 1117.5,-242 1134,-222.69 1159.92,-208.76 1178.39,-200.59"/>
<polygon fill="#63b8ff" stroke="#63b8ff" points="951.17,-373.42 942.48,-379.47 953.05,-380.16 951.17,-373.42"/>
</g>
<!-- Node13&#45;&gt;Node9 -->
<g id="edge34" class="edge">
<title>Node13&#45;&gt;Node9</title>
<path fill="none" stroke="#63b8ff" d="M950.73,-376.99C955.35,-375.89 960.01,-374.86 964.5,-374 1095.53,-348.9 1130.38,-356.48 1262.5,-338 1274.3,-336.35 1286.96,-334.43 1298.9,-332.54"/>
<polygon fill="#63b8ff" stroke="#63b8ff" points="949.61,-373.66 940.77,-379.5 951.32,-380.45 949.61,-373.66"/>
</g>
<!-- Node13&#45;&gt;Node12 -->
<g id="edge30" class="edge">
<title>Node13&#45;&gt;Node12</title>
<path fill="none" stroke="#63b8ff" d="M862.22,-387.86C780.67,-386.46 623.16,-378.44 588.5,-338 566.87,-312.77 610.99,-281.45 635.95,-266.59"/>
<polygon fill="#63b8ff" stroke="#63b8ff" points="862.2,-391.36 872.25,-388 862.31,-384.36 862.2,-391.36"/>
</g>
<!-- Node14 -->
<g id="node14" class="node">
<title>Node14</title>
<g id="a_node14"><a xlink:href="js__generic__base_8cpp.html" target="_top" xlink:title=" ">
<polygon fill="white" stroke="#666666" points="849.5,-338 731.5,-338 731.5,-308 849.5,-308 849.5,-338"/>
<text text-anchor="start" x="739.5" y="-326" font-family="Helvetica,sans-Serif" font-size="10.00">src/apps/js_generic</text>
<text text-anchor="middle" x="790.5" y="-315" font-family="Helvetica,sans-Serif" font-size="10.00">/js_generic_base.cpp</text>
</a>
</g>
</g>
<!-- Node13&#45;&gt;Node14 -->
<g id="edge19" class="edge">
<title>Node13&#45;&gt;Node14</title>
<path fill="none" stroke="#63b8ff" d="M886.25,-374.64C866.04,-363.95 837.77,-349 817.19,-338.12"/>
<polygon fill="#63b8ff" stroke="#63b8ff" points="884.71,-377.79 895.18,-379.37 887.98,-371.6 884.71,-377.79"/>
</g>
<!-- Node15 -->
<g id="node15" class="node">
<title>Node15</title>
<g id="a_node15"><a xlink:href="consensus_8cpp.html" target="_top" xlink:title=" ">
<polygon fill="white" stroke="#666666" points="713.5,-332.5 597.5,-332.5 597.5,-313.5 713.5,-313.5 713.5,-332.5"/>
<text text-anchor="middle" x="655.5" y="-320.5" font-family="Helvetica,sans-Serif" font-size="10.00">src/js/consensus.cpp</text>
</a>
</g>
</g>
<!-- Node13&#45;&gt;Node15 -->
<g id="edge21" class="edge">
<title>Node13&#45;&gt;Node15</title>
<path fill="none" stroke="#63b8ff" d="M867.27,-376.94C816.8,-364.32 735.34,-343.96 689.56,-332.51"/>
<polygon fill="#63b8ff" stroke="#63b8ff" points="866.69,-380.41 877.24,-379.44 868.39,-373.61 866.69,-380.41"/>
</g>
<!-- Node16 -->
<g id="node16" class="node">
<title>Node16</title>
<g id="a_node16"><a xlink:href="conv_8cpp.html" target="_top" xlink:title=" ">
<polygon fill="white" stroke="#666666" points="955.5,-332.5 867.5,-332.5 867.5,-313.5 955.5,-313.5 955.5,-332.5"/>
<text text-anchor="middle" x="911.5" y="-320.5" font-family="Helvetica,sans-Serif" font-size="10.00">src/js/conv.cpp</text>
</a>
</g>
</g>
<!-- Node13&#45;&gt;Node16 -->
<g id="edge23" class="edge">
<title>Node13&#45;&gt;Node16</title>
<path fill="none" stroke="#63b8ff" d="M911.5,-369.08C911.5,-357.13 911.5,-342.22 911.5,-332.91"/>
<polygon fill="#63b8ff" stroke="#63b8ff" points="908,-369.37 911.5,-379.37 915,-369.37 908,-369.37"/>
</g>
<!-- Node17 -->
<g id="node17" class="node">
<title>Node17</title>
<g id="a_node17"><a xlink:href="crypto_8cpp.html" target="_top" xlink:title=" ">
<polygon fill="white" stroke="#666666" points="1069.5,-332.5 973.5,-332.5 973.5,-313.5 1069.5,-313.5 1069.5,-332.5"/>
<text text-anchor="middle" x="1021.5" y="-320.5" font-family="Helvetica,sans-Serif" font-size="10.00">src/js/crypto.cpp</text>
</a>
</g>
</g>
<!-- Node13&#45;&gt;Node17 -->
<g id="edge25" class="edge">
<title>Node13&#45;&gt;Node17</title>
<path fill="none" stroke="#63b8ff" d="M935.24,-374.19C956.88,-361.59 988.21,-343.37 1006.55,-332.7"/>
<polygon fill="#63b8ff" stroke="#63b8ff" points="933.22,-371.31 926.34,-379.37 936.74,-377.36 933.22,-371.31"/>
</g>
<!-- Node18 -->
<g id="node18" class="node">
<title>Node18</title>
<g id="a_node18"><a xlink:href="historical_8cpp.html" target="_top" xlink:title=" ">
<polygon fill="white" stroke="#666666" points="541.5,-332.5 431.5,-332.5 431.5,-313.5 541.5,-313.5 541.5,-332.5"/>
<text text-anchor="middle" x="486.5" y="-320.5" font-family="Helvetica,sans-Serif" font-size="10.00">src/js/historical.cpp</text>
</a>
</g>
</g>
<!-- Node13&#45;&gt;Node18 -->
<g id="edge27" class="edge">
<title>Node13&#45;&gt;Node18</title>
<path fill="none" stroke="#63b8ff" d="M862.28,-382.05C793.45,-373.5 664.62,-356.72 555.5,-338 546.1,-336.39 536.03,-334.46 526.56,-332.56"/>
<polygon fill="#63b8ff" stroke="#63b8ff" points="862.04,-385.54 872.4,-383.3 862.9,-378.6 862.04,-385.54"/>
</g>
<!-- Node19 -->
<g id="node19" class="node">
<title>Node19</title>
<g id="a_node19"><a xlink:href="openenclave_8cpp.html" target="_top" xlink:title=" ">
<polygon fill="white" stroke="#666666" points="1253.5,-332.5 1125.5,-332.5 1125.5,-313.5 1253.5,-313.5 1253.5,-332.5"/>
<text text-anchor="middle" x="1189.5" y="-320.5" font-family="Helvetica,sans-Serif" font-size="10.00">src/js/openenclave.cpp</text>
</a>
</g>
</g>
<!-- Node13&#45;&gt;Node19 -->
<g id="edge29" class="edge">
<title>Node13&#45;&gt;Node19</title>
<path fill="none" stroke="#63b8ff" d="M952.83,-376.91C956.77,-375.91 960.71,-374.92 964.5,-374 1028.66,-358.4 1103.58,-342.14 1148.74,-332.55"/>
<polygon fill="#63b8ff" stroke="#63b8ff" points="951.92,-373.53 943.12,-379.43 953.68,-380.31 951.92,-373.53"/>
</g>
<!-- Node13&#45;&gt;Node20 -->
<g id="edge32" class="edge">
<title>Node13&#45;&gt;Node20</title>
<path fill="none" stroke="#63b8ff" d="M960.55,-384.81C1073.05,-377.42 1358.29,-358.19 1596.5,-338 1624.35,-335.64 1655.17,-332.71 1681.21,-330.14"/>
<polygon fill="#63b8ff" stroke="#63b8ff" points="960.28,-381.33 950.53,-385.47 960.74,-388.31 960.28,-381.33"/>
</g>
<!-- Node15&#45;&gt;Node12 -->
<g id="edge22" class="edge">
<title>Node15&#45;&gt;Node12</title>
<path fill="none" stroke="#63b8ff" d="M654.32,-303.08C653.57,-291.13 652.64,-276.22 652.06,-266.91"/>
<polygon fill="#63b8ff" stroke="#63b8ff" points="650.84,-303.61 654.96,-313.37 657.83,-303.17 650.84,-303.61"/>
</g>
<!-- Node16&#45;&gt;Node12 -->
<g id="edge24" class="edge">
<title>Node16&#45;&gt;Node12</title>
<path fill="none" stroke="#63b8ff" d="M869.66,-310.86C865.89,-309.88 862.13,-308.92 858.5,-308 798.82,-292.91 729.21,-276.3 687.83,-266.53"/>
<polygon fill="#63b8ff" stroke="#63b8ff" points="869.02,-314.31 879.58,-313.45 870.79,-307.54 869.02,-314.31"/>
</g>
<!-- Node17&#45;&gt;Node12 -->
<g id="edge26" class="edge">
<title>Node17&#45;&gt;Node12</title>
<path fill="none" stroke="#63b8ff" d="M978.92,-311.13C974.07,-310.02 969.18,-308.95 964.5,-308 869.44,-288.77 756.91,-272.32 696.02,-263.93"/>
<polygon fill="#63b8ff" stroke="#63b8ff" points="978.21,-314.56 988.75,-313.47 979.83,-307.75 978.21,-314.56"/>
</g>
<!-- Node18&#45;&gt;Node12 -->
<g id="edge28" class="edge">
<title>Node18&#45;&gt;Node12</title>
<path fill="none" stroke="#63b8ff" d="M518.27,-309.68C550.88,-297.03 600.76,-277.68 629.34,-266.6"/>
<polygon fill="#63b8ff" stroke="#63b8ff" points="516.81,-306.49 508.75,-313.37 519.34,-313.02 516.81,-306.49"/>
</g>
<!-- Node20&#45;&gt;Node3 -->
<g id="edge33" class="edge">
<title>Node20&#45;&gt;Node3</title>
<path fill="none" stroke="#63b8ff" d="M1746.38,-297.98C1753.69,-254.53 1762,-162.5 1714.5,-110 1697.02,-90.68 1632.64,-78.65 1582.99,-72.04"/>
<polygon fill="#63b8ff" stroke="#63b8ff" points="1742.91,-297.47 1744.57,-307.93 1749.8,-298.72 1742.91,-297.47"/>
</g>
<!-- Node21&#45;&gt;Node3 -->
<g id="edge36" class="edge">
<title>Node21&#45;&gt;Node3</title>
<path fill="none" stroke="#63b8ff" d="M1864.03,-170.46C1888.66,-154.09 1914.47,-130.23 1896.5,-110 1876.06,-86.99 1683.9,-73.8 1582.89,-68.4"/>
<polygon fill="#63b8ff" stroke="#63b8ff" points="1862.01,-167.6 1855.45,-175.92 1865.77,-173.51 1862.01,-167.6"/>
</g>
<!-- Node22 -->
<g id="node22" class="node">
<title>Node22</title>
<g id="a_node22"><a xlink:href="historical__transaction__fetcher_8h.html" target="_top" xlink:title=" ">
<polygon fill="white" stroke="#666666" points="1887,-140 1762,-140 1762,-110 1887,-110 1887,-140"/>
<text text-anchor="start" x="1770" y="-128" font-family="Helvetica,sans-Serif" font-size="10.00">src/indexing/historical</text>
<text text-anchor="middle" x="1824.5" y="-117" font-family="Helvetica,sans-Serif" font-size="10.00">_transaction_fetcher.h</text>
</a>
</g>
</g>
<!-- Node21&#45;&gt;Node22 -->
<g id="edge37" class="edge">
<title>Node21&#45;&gt;Node22</title>
<path fill="none" stroke="#63b8ff" d="M1827.61,-165.83C1826.94,-157.17 1826.2,-147.7 1825.61,-140.16"/>
<polygon fill="#63b8ff" stroke="#63b8ff" points="1824.12,-166.1 1828.39,-175.8 1831.1,-165.55 1824.12,-166.1"/>
</g>
<!-- Node22&#45;&gt;Node3 -->
<g id="edge38" class="edge">
<title>Node22&#45;&gt;Node3</title>
<path fill="none" stroke="#63b8ff" d="M1751.87,-109.98C1693.83,-98.77 1614.38,-83.43 1565.57,-74.01"/>
<polygon fill="#63b8ff" stroke="#63b8ff" points="1751.24,-113.42 1761.72,-111.88 1752.56,-106.55 1751.24,-113.42"/>
</g>
<!-- Node24 -->
<g id="node24" class="node">
<title>Node24</title>
<g id="a_node24"><a xlink:href="frontend_8h.html" target="_top" xlink:title=" ">
<polygon fill="white" stroke="#666666" points="1678,-398.5 1549,-398.5 1549,-379.5 1678,-379.5 1678,-398.5"/>
<text text-anchor="middle" x="1613.5" y="-386.5" font-family="Helvetica,sans-Serif" font-size="10.00">src/node/rpc/frontend.h</text>
</a>
</g>
</g>
<!-- Node23&#45;&gt;Node24 -->
<g id="edge40" class="edge">
<title>Node23&#45;&gt;Node24</title>
<path fill="none" stroke="#63b8ff" d="M1611.64,-429.6C1612.15,-418.8 1612.71,-406.78 1613.09,-398.84"/>
<polygon fill="#63b8ff" stroke="#63b8ff" points="1608.14,-429.64 1611.17,-439.8 1615.13,-429.97 1608.14,-429.64"/>
</g>
<!-- Node24&#45;&gt;Node6 -->
<g id="edge44" class="edge">
<title>Node24&#45;&gt;Node6</title>
<path fill="none" stroke="#63b8ff" d="M1614.31,-369.15C1614.07,-351.4 1610.97,-325.05 1596.5,-308 1552.22,-255.85 1353.58,-216.94 1255.56,-200.55"/>
<polygon fill="#63b8ff" stroke="#63b8ff" points="1610.81,-369.34 1614.15,-379.4 1617.81,-369.45 1610.81,-369.34"/>
</g>
<!-- Node24&#45;&gt;Node9 -->
<g id="edge46" class="edge">
<title>Node24&#45;&gt;Node9</title>
<path fill="none" stroke="#63b8ff" d="M1568.39,-377.02C1516.56,-364.41 1432.62,-343.98 1385.49,-332.51"/>
<polygon fill="#63b8ff" stroke="#63b8ff" points="1567.76,-380.47 1578.3,-379.44 1569.41,-373.67 1567.76,-380.47"/>
</g>
<!-- Node24&#45;&gt;Node20 -->
<g id="edge45" class="edge">
<title>Node24&#45;&gt;Node20</title>
<path fill="none" stroke="#63b8ff" d="M1639.92,-374.79C1661.32,-364.09 1691.4,-349.05 1713.27,-338.12"/>
<polygon fill="#63b8ff" stroke="#63b8ff" points="1638.14,-371.77 1630.76,-379.37 1641.27,-378.03 1638.14,-371.77"/>
</g>
<!-- Node25 -->
<g id="node25" class="node">
<title>Node25</title>
<g id="a_node25"><a xlink:href="acme__challenge__frontend_8h.html" target="_top" xlink:title=" ">
<polygon fill="white" stroke="#666666" points="1587.5,-338 1447.5,-338 1447.5,-308 1587.5,-308 1587.5,-338"/>
<text text-anchor="start" x="1455.5" y="-326" font-family="Helvetica,sans-Serif" font-size="10.00">src/node/acme_challenge</text>
<text text-anchor="middle" x="1517.5" y="-315" font-family="Helvetica,sans-Serif" font-size="10.00">_frontend.h</text>
</a>
</g>
</g>
<!-- Node24&#45;&gt;Node25 -->
<g id="edge41" class="edge">
<title>Node24&#45;&gt;Node25</title>
<path fill="none" stroke="#63b8ff" d="M1591.92,-373.62C1576.02,-363.01 1554.48,-348.66 1538.67,-338.12"/>
<polygon fill="#63b8ff" stroke="#63b8ff" points="1590.29,-376.73 1600.55,-379.37 1594.17,-370.91 1590.29,-376.73"/>
</g>
<!-- Node26 -->
<g id="node26" class="node">
<title>Node26</title>
<g id="a_node26"><a xlink:href="user__frontend_8h.html" target="_top" xlink:title=" ">
<polygon fill="white" stroke="#666666" points="1705,-134.5 1550,-134.5 1550,-115.5 1705,-115.5 1705,-134.5"/>
<text text-anchor="middle" x="1627.5" y="-122.5" font-family="Helvetica,sans-Serif" font-size="10.00">src/node/rpc/user_frontend.h</text>
</a>
</g>
</g>
<!-- Node24&#45;&gt;Node26 -->
<g id="edge47" class="edge">
<title>Node24&#45;&gt;Node26</title>
<path fill="none" stroke="#63b8ff" d="M1615.17,-369.02C1615.95,-359.68 1616.85,-348.26 1617.5,-338 1622.5,-259.31 1626.13,-164.04 1627.18,-134.89"/>
<polygon fill="#63b8ff" stroke="#63b8ff" points="1611.66,-368.89 1614.3,-379.15 1618.64,-369.49 1611.66,-368.89"/>
</g>
<!-- Node25&#45;&gt;Node3 -->
<g id="edge42" class="edge">
<title>Node25&#45;&gt;Node3</title>
<path fill="none" stroke="#63b8ff" d="M1517.88,-297.57C1518.74,-242.24 1520.81,-109.45 1521.36,-74.21"/>
<polygon fill="#63b8ff" stroke="#63b8ff" points="1514.38,-297.79 1517.72,-307.84 1521.38,-297.9 1514.38,-297.79"/>
</g>
<!-- Node25&#45;&gt;Node5 -->
<g id="edge43" class="edge">
<title>Node25&#45;&gt;Node5</title>
<path fill="none" stroke="#63b8ff" d="M1469.7,-304.42C1436.18,-292.09 1392.84,-276.15 1366.66,-266.52"/>
<polygon fill="#63b8ff" stroke="#63b8ff" points="1468.72,-307.79 1479.31,-307.95 1471.14,-301.22 1468.72,-307.79"/>
</g>
<!-- Node26&#45;&gt;Node3 -->
<g id="edge48" class="edge">
<title>Node26&#45;&gt;Node3</title>
<path fill="none" stroke="#63b8ff" d="M1602.9,-110.42C1582.64,-99.24 1554.53,-83.73 1537.2,-74.17"/>
<polygon fill="#63b8ff" stroke="#63b8ff" points="1601.41,-113.6 1611.86,-115.37 1604.8,-107.47 1601.41,-113.6"/>
</g>
<!-- Node27&#45;&gt;Node3 -->
<g id="edge50" class="edge">
<title>Node27&#45;&gt;Node3</title>
<path fill="none" stroke="#63b8ff" d="M100.48,-173.92C118.4,-154.63 151.48,-123.21 187.5,-110 307.7,-65.9 1214.54,-64.78 1460.25,-65.3"/>
<polygon fill="#63b8ff" stroke="#63b8ff" points="97.86,-171.6 93.76,-181.36 103.06,-176.29 97.86,-171.6"/>
</g>
<!-- Node28&#45;&gt;Node3 -->
<g id="edge54" class="edge">
<title>Node28&#45;&gt;Node3</title>
<path fill="none" stroke="#63b8ff" d="M1897.41,-429.62C1896.43,-406.15 1895.05,-369.66 1894.5,-338 1894.27,-324.67 1893.79,-321.31 1894.5,-308 1898.51,-233.01 1908.49,-214.99 1912.5,-140 1913.21,-126.69 1921.38,-119.95 1912.5,-110 1890.95,-85.85 1687.05,-73.07 1582.58,-68.06"/>
<polygon fill="#63b8ff" stroke="#63b8ff" points="1893.92,-429.88 1897.85,-439.72 1900.92,-429.58 1893.92,-429.88"/>
</g>
<!-- Node29 -->
<g id="node29" class="node">
<title>Node29</title>
<g id="a_node29"><a xlink:href="external__executor_8cpp.html" target="_top" xlink:title=" ">
<polygon fill="white" stroke="#666666" points="2189.5,-338 2041.5,-338 2041.5,-308 2189.5,-308 2189.5,-338"/>
<text text-anchor="start" x="2049.5" y="-326" font-family="Helvetica,sans-Serif" font-size="10.00">src/apps/external_executor</text>
<text text-anchor="middle" x="2115.5" y="-315" font-family="Helvetica,sans-Serif" font-size="10.00">/external_executor.cpp</text>
</a>
</g>
</g>
<!-- Node28&#45;&gt;Node29 -->
<g id="edge53" class="edge">
<title>Node28&#45;&gt;Node29</title>
<path fill="none" stroke="#63b8ff" d="M1965.53,-437.24C2001.48,-427.39 2041.42,-414.79 2056.5,-404 2080.78,-386.63 2099.19,-356.2 2108.57,-338.3"/>
<polygon fill="#63b8ff" stroke="#63b8ff" points="1964.26,-433.95 1955.52,-439.94 1966.09,-440.71 1964.26,-433.95"/>
</g>
<!-- Node30 -->
<g id="node30" class="node">
<title>Node30</title>
<g id="a_node30"><a xlink:href="historical__queries__adapter_8cpp.html" target="_top" xlink:title=" ">
<polygon fill="white" stroke="#666666" points="2023.5,-338 1903.5,-338 1903.5,-308 2023.5,-308 2023.5,-338"/>
<text text-anchor="start" x="1911.5" y="-326" font-family="Helvetica,sans-Serif" font-size="10.00">src/node/historical</text>
<text text-anchor="middle" x="1963.5" y="-315" font-family="Helvetica,sans-Serif" font-size="10.00">_queries_adapter.cpp</text>
</a>
</g>
</g>
<!-- Node28&#45;&gt;Node30 -->
<g id="edge55" class="edge">
<title>Node28&#45;&gt;Node30</title>
<path fill="none" stroke="#63b8ff" d="M1907.54,-430.11C1913.91,-413.97 1922.98,-392.35 1932.5,-374 1938.99,-361.49 1947.49,-347.94 1953.95,-338.1"/>
<polygon fill="#63b8ff" stroke="#63b8ff" points="1904.12,-429.24 1903.76,-439.83 1910.65,-431.77 1904.12,-429.24"/>
</g>
<!-- Node31 -->
<g id="node31" class="node">
<title>Node31</title>
<g id="a_node31"><a xlink:href="historical__queries__utils_8h.html" target="_top" xlink:title=" ">
<polygon fill="white" stroke="#666666" points="2047.5,-404 1941.5,-404 1941.5,-374 2047.5,-374 2047.5,-404"/>
<text text-anchor="start" x="1949.5" y="-392" font-family="Helvetica,sans-Serif" font-size="10.00">src/node/historical</text>
<text text-anchor="middle" x="1994.5" y="-381" font-family="Helvetica,sans-Serif" font-size="10.00">_queries_utils.h</text>
</a>
</g>
</g>
<!-- Node28&#45;&gt;Node31 -->
<g id="edge56" class="edge">
<title>Node28&#45;&gt;Node31</title>
<path fill="none" stroke="#63b8ff" d="M1928.46,-434.03C1942.99,-424.34 1960.09,-412.94 1973.25,-404.16"/>
<polygon fill="#63b8ff" stroke="#63b8ff" points="1926.18,-431.34 1919.81,-439.8 1930.07,-437.16 1926.18,-431.34"/>
</g>
<!-- Node31&#45;&gt;Node29 -->
<g id="edge57" class="edge">
<title>Node31&#45;&gt;Node29</title>
<path fill="none" stroke="#63b8ff" d="M2029.97,-369.24C2048.85,-359.25 2071.68,-347.18 2089.01,-338.01"/>
<polygon fill="#63b8ff" stroke="#63b8ff" points="2028.26,-366.19 2021.05,-373.95 2031.53,-372.37 2028.26,-366.19"/>
</g>
<!-- Node31&#45;&gt;Node30 -->
<g id="edge58" class="edge">
<title>Node31&#45;&gt;Node30</title>
<path fill="none" stroke="#63b8ff" d="M1983.2,-364.68C1978.9,-355.79 1974.13,-345.95 1970.36,-338.16"/>
<polygon fill="#63b8ff" stroke="#63b8ff" points="1980.11,-366.32 1987.62,-373.8 1986.41,-363.27 1980.11,-366.32"/>
</g>
<!-- Node32&#45;&gt;Node3 -->
<g id="edge61" class="edge">
<title>Node32&#45;&gt;Node3</title>
<path fill="none" stroke="#63b8ff" d="M2098.75,-441.84C2144.56,-423.91 2217.5,-385.68 2217.5,-324 2217.5,-324 2217.5,-324 2217.5,-190 2217.5,-125.79 1752.49,-83.37 1582.66,-70.01"/>
<polygon fill="#63b8ff" stroke="#63b8ff" points="2097.27,-438.66 2089.15,-445.46 2099.74,-445.21 2097.27,-438.66"/>
</g>
<!-- Node33&#45;&gt;Node11 -->
<g id="edge64" class="edge">
<title>Node33&#45;&gt;Node11</title>
<path fill="none" stroke="#63b8ff" d="M1670.27,-555.35C1654.46,-545.07 1635.91,-533.02 1623.72,-525.09"/>
<polygon fill="#63b8ff" stroke="#63b8ff" points="1668.42,-558.32 1678.71,-560.84 1672.24,-552.45 1668.42,-558.32"/>
</g>
<!-- Node33&#45;&gt;Node20 -->
<g id="edge63" class="edge">
<title>Node33&#45;&gt;Node20</title>
<path fill="none" stroke="#63b8ff" d="M1709.1,-551.03C1720.34,-518.32 1739.41,-457.63 1746.5,-404 1748.25,-390.78 1747.16,-387.32 1746.5,-374 1745.9,-361.98 1744.49,-348.39 1743.33,-338.41"/>
<polygon fill="#63b8ff" stroke="#63b8ff" points="1705.74,-550.03 1705.75,-560.62 1712.35,-552.33 1705.74,-550.03"/>
</g>
<!-- Node33&#45;&gt;Node32 -->
<g id="edge65" class="edge">
<title>Node33&#45;&gt;Node32</title>
<path fill="none" stroke="#63b8ff" d="M1752.8,-557.81C1831.41,-531.97 1977.12,-484.07 2036.4,-464.58"/>
<polygon fill="#63b8ff" stroke="#63b8ff" points="1751.5,-554.55 1743.09,-561 1753.68,-561.2 1751.5,-554.55"/>
</g>
</g>
</svg>
