<?xml version="1.0" encoding="UTF-8" standalone="no"?>
<!DOCTYPE svg PUBLIC "-//W3C//DTD SVG 1.1//EN"
 "http://www.w3.org/Graphics/SVG/1.1/DTD/svg11.dtd">
<!-- Generated by graphviz version 2.43.0 (0)
 -->
<!-- Title: src/kv/snapshot.h Pages: 1 -->
<!--zoomable 643 -->
<svg id="main" version="1.1" xmlns="http://www.w3.org/2000/svg" xmlns:xlink="http://www.w3.org/1999/xlink" xml:space="preserve" onload="init(evt)">
<style type="text/css"><![CDATA[
.edge:hover path { stroke: red; }
.edge:hover polygon { stroke: red; fill: red; }
]]></style>
<script type="text/javascript"><![CDATA[
var edges = document.getElementsByTagName('g');
if (edges && edges.length) {
  for (var i=0;i<edges.length;i++) {
    if (edges[i].id.substr(0,4)=='edge') {
      edges[i].setAttribute('class','edge');
    }
  }
}
]]></script>
        <defs>
                <circle id="rim" cx="0" cy="0" r="7"/>
                <circle id="rim2" cx="0" cy="0" r="3.5"/>
                <g id="zoomPlus">
                        <use xlink:href="#rim" fill="#404040">
                                <set attributeName="fill" to="#808080" begin="zoomplus.mouseover" end="zoomplus.mouseout"/>
                        </use>
                        <path d="M-4,0h8M0,-4v8" fill="none" stroke="white" stroke-width="1.5" pointer-events="none"/>
                </g>
                <g id="zoomMin">
                        <use xlink:href="#rim" fill="#404040">
                                <set attributeName="fill" to="#808080" begin="zoomminus.mouseover" end="zoomminus.mouseout"/>
                        </use>
                        <path d="M-4,0h8" fill="none" stroke="white" stroke-width="1.5" pointer-events="none"/>
                </g>
                <g id="dirArrow">
                        <path fill="none" stroke="white" stroke-width="1.5" d="M0,-3.0v7 M-2.5,-0.5L0,-3.0L2.5,-0.5"/>
                </g>
               <g id="resetDef">
                       <use xlink:href="#rim2" fill="#404040">
                               <set attributeName="fill" to="#808080" begin="reset.mouseover" end="reset.mouseout"/>
                       </use>
               </g>
        </defs>

<script type="text/javascript">
var viewWidth = 2355;
var viewHeight = 643;
var sectionId = 'dynsection-1';
</script>
<script xlink:href="svgpan.js"/>
<svg id="graph" class="graph">
<g id="viewport">
<title>src/kv/snapshot.h</title>
<!-- Node1 -->
<g id="node1" class="node">
<title>Node1</title>
<g id="a_node1"><a xlink:title=" ">
<polygon fill="#999999" stroke="#666666" points="686,-635 584,-635 584,-616 686,-616 686,-635"/>
<text text-anchor="middle" x="635" y="-623" font-family="Helvetica,sans-Serif" font-size="10.00">src/kv/snapshot.h</text>
</a>
</g>
</g>
<!-- Node2 -->
<g id="node2" class="node">
<title>Node2</title>
<g id="a_node2"><a xlink:href="store_8h.html" target="_top" xlink:title=" ">
<polygon fill="white" stroke="#666666" points="676.5,-580 593.5,-580 593.5,-561 676.5,-561 676.5,-580"/>
<text text-anchor="middle" x="635" y="-568" font-family="Helvetica,sans-Serif" font-size="10.00">src/kv/store.h</text>
</a>
</g>
</g>
<!-- Node1&#45;&gt;Node2 -->
<g id="edge1" class="edge">
<title>Node1&#45;&gt;Node2</title>
<path fill="none" stroke="#63b8ff" d="M635,-605.66C635,-596.93 635,-586.99 635,-580.09"/>
<polygon fill="#63b8ff" stroke="#63b8ff" points="631.5,-605.75 635,-615.75 638.5,-605.75 631.5,-605.75"/>
</g>
<!-- Node3 -->
<g id="node3" class="node">
<title>Node3</title>
<g id="a_node3"><a xlink:href="indexer_8h.html" target="_top" xlink:title=" ">
<polygon fill="white" stroke="#666666" points="606.5,-453.5 483.5,-453.5 483.5,-434.5 606.5,-434.5 606.5,-453.5"/>
<text text-anchor="middle" x="545" y="-441.5" font-family="Helvetica,sans-Serif" font-size="10.00">src/indexing/indexer.h</text>
</a>
</g>
</g>
<!-- Node2&#45;&gt;Node3 -->
<g id="edge2" class="edge">
<title>Node2&#45;&gt;Node3</title>
<path fill="none" stroke="#63b8ff" d="M622.74,-552.54C603.27,-525.6 565.98,-474.02 551.23,-453.62"/>
<polygon fill="#63b8ff" stroke="#63b8ff" points="620.12,-554.89 628.81,-560.94 625.79,-550.79 620.12,-554.89"/>
</g>
<!-- Node8 -->
<g id="node8" class="node">
<title>Node8</title>
<g id="a_node8"><a xlink:href="visit__each__entry__in__map_8cpp.html" target="_top" xlink:title=" ">
<polygon fill="white" stroke="#666666" points="1010.5,-525 849.5,-525 849.5,-495 1010.5,-495 1010.5,-525"/>
<text text-anchor="start" x="857.5" y="-513" font-family="Helvetica,sans-Serif" font-size="10.00">src/indexing/strategies</text>
<text text-anchor="middle" x="930" y="-502" font-family="Helvetica,sans-Serif" font-size="10.00">/visit_each_entry_in_map.cpp</text>
</a>
</g>
</g>
<!-- Node2&#45;&gt;Node8 -->
<g id="edge8" class="edge">
<title>Node2&#45;&gt;Node8</title>
<path fill="none" stroke="#63b8ff" d="M686.48,-559.29C734.35,-549.8 806.08,-535.57 859.31,-525.02"/>
<polygon fill="#63b8ff" stroke="#63b8ff" points="685.77,-555.86 676.64,-561.24 687.13,-562.73 685.77,-555.86"/>
</g>
<!-- Node9 -->
<g id="node9" class="node">
<title>Node9</title>
<g id="a_node9"><a xlink:href="historical__queries_8h.html" target="_top" xlink:title=" ">
<polygon fill="white" stroke="#666666" points="144,-393 38,-393 38,-363 144,-363 144,-393"/>
<text text-anchor="start" x="46" y="-381" font-family="Helvetica,sans-Serif" font-size="10.00">src/node/historical</text>
<text text-anchor="middle" x="91" y="-370" font-family="Helvetica,sans-Serif" font-size="10.00">_queries.h</text>
</a>
</g>
</g>
<!-- Node2&#45;&gt;Node9 -->
<g id="edge9" class="edge">
<title>Node2&#45;&gt;Node9</title>
<path fill="none" stroke="#63b8ff" d="M582.88,-568.39C512.2,-565.68 382.63,-556.43 277,-525 212.99,-505.95 191.81,-503.49 142,-459 120.87,-440.13 105.11,-410.5 97.04,-393.09"/>
<polygon fill="#63b8ff" stroke="#63b8ff" points="583.17,-571.9 593.29,-568.75 583.42,-564.9 583.17,-571.9"/>
</g>
<!-- Node11 -->
<g id="node11" class="node">
<title>Node11</title>
<g id="a_node11"><a xlink:href="history_8h.html" target="_top" xlink:title=" ">
<polygon fill="white" stroke="#666666" points="388,-519.5 286,-519.5 286,-500.5 388,-500.5 388,-519.5"/>
<text text-anchor="middle" x="337" y="-507.5" font-family="Helvetica,sans-Serif" font-size="10.00">src/node/history.h</text>
</a>
</g>
</g>
<!-- Node2&#45;&gt;Node11 -->
<g id="edge13" class="edge">
<title>Node2&#45;&gt;Node11</title>
<path fill="none" stroke="#63b8ff" d="M583.3,-559.35C525.88,-548.08 434.23,-530.09 380.4,-519.52"/>
<polygon fill="#63b8ff" stroke="#63b8ff" points="582.76,-562.81 593.25,-561.3 584.11,-555.94 582.76,-562.81"/>
</g>
<!-- Node13 -->
<g id="node13" class="node">
<title>Node13</title>
<g id="a_node13"><a xlink:href="snapshotter_8h.html" target="_top" xlink:title=" ">
<polygon fill="white" stroke="#666666" points="573.5,-321.5 446.5,-321.5 446.5,-302.5 573.5,-302.5 573.5,-321.5"/>
<text text-anchor="middle" x="510" y="-309.5" font-family="Helvetica,sans-Serif" font-size="10.00">src/node/snapshotter.h</text>
</a>
</g>
</g>
<!-- Node2&#45;&gt;Node13 -->
<g id="edge40" class="edge">
<title>Node2&#45;&gt;Node13</title>
<path fill="none" stroke="#63b8ff" d="M635.78,-550.5C636.21,-522.59 634.23,-469.45 616,-429 594.26,-380.75 544.59,-339.01 521.81,-321.63"/>
<polygon fill="#63b8ff" stroke="#63b8ff" points="632.27,-550.71 635.49,-560.81 639.27,-550.91 632.27,-550.71"/>
</g>
<!-- Node18 -->
<g id="node18" class="node">
<title>Node18</title>
<g id="a_node18"><a xlink:href="frontend_8h.html" target="_top" xlink:title=" ">
<polygon fill="white" stroke="#666666" points="1018.5,-387.5 889.5,-387.5 889.5,-368.5 1018.5,-368.5 1018.5,-387.5"/>
<text text-anchor="middle" x="954" y="-375.5" font-family="Helvetica,sans-Serif" font-size="10.00">src/node/rpc/frontend.h</text>
</a>
</g>
</g>
<!-- Node2&#45;&gt;Node18 -->
<g id="edge26" class="edge">
<title>Node2&#45;&gt;Node18</title>
<path fill="none" stroke="#63b8ff" d="M648.57,-553.08C662.66,-536.8 685.97,-511.9 710,-495 783.47,-443.33 883.56,-404.05 929.33,-387.54"/>
<polygon fill="#63b8ff" stroke="#63b8ff" points="645.89,-550.83 642.09,-560.72 651.23,-555.36 645.89,-550.83"/>
</g>
<!-- Node25 -->
<g id="node25" class="node">
<title>Node25</title>
<g id="a_node25"><a xlink:href="network__tables_8h.html" target="_top" xlink:title=" ">
<polygon fill="white" stroke="#666666" points="831,-525 719,-525 719,-495 831,-495 831,-525"/>
<text text-anchor="start" x="727" y="-513" font-family="Helvetica,sans-Serif" font-size="10.00">src/service/network</text>
<text text-anchor="middle" x="775" y="-502" font-family="Helvetica,sans-Serif" font-size="10.00">_tables.h</text>
</a>
</g>
</g>
<!-- Node2&#45;&gt;Node25 -->
<g id="edge41" class="edge">
<title>Node2&#45;&gt;Node25</title>
<path fill="none" stroke="#63b8ff" d="M664.72,-557.08C687.17,-547.7 717.99,-534.82 741.34,-525.06"/>
<polygon fill="#63b8ff" stroke="#63b8ff" points="663.23,-553.91 655.36,-560.99 665.93,-560.37 663.23,-553.91"/>
</g>
<!-- Node4 -->
<g id="node4" class="node">
<title>Node4</title>
<g id="a_node4"><a xlink:href="node__state_8h.html" target="_top" xlink:title=" ">
<polygon fill="white" stroke="#666666" points="1071,-189.5 947,-189.5 947,-170.5 1071,-170.5 1071,-189.5"/>
<text text-anchor="middle" x="1009" y="-177.5" font-family="Helvetica,sans-Serif" font-size="10.00">src/node/node_state.h</text>
</a>
</g>
</g>
<!-- Node3&#45;&gt;Node4 -->
<g id="edge3" class="edge">
<title>Node3&#45;&gt;Node4</title>
<path fill="none" stroke="#63b8ff" d="M545.22,-424.17C544.44,-406.43 540.62,-380.08 526,-363 498.52,-330.89 461.55,-362.08 438,-327 430.57,-315.93 429.76,-307.48 438,-297 500.37,-217.68 812.3,-191.54 946.95,-183.87"/>
<polygon fill="#63b8ff" stroke="#63b8ff" points="541.72,-424.46 545.37,-434.4 548.72,-424.35 541.72,-424.46"/>
</g>
<!-- Node5 -->
<g id="node5" class="node">
<title>Node5</title>
<g id="a_node5"><a xlink:href="src_2enclave_2enclave_8h.html" target="_top" xlink:title=" ">
<polygon fill="white" stroke="#666666" points="918,-74 796,-74 796,-55 918,-55 918,-74"/>
<text text-anchor="middle" x="857" y="-62" font-family="Helvetica,sans-Serif" font-size="10.00">src/enclave/enclave.h</text>
</a>
</g>
</g>
<!-- Node4&#45;&gt;Node5 -->
<g id="edge4" class="edge">
<title>Node4&#45;&gt;Node5</title>
<path fill="none" stroke="#63b8ff" d="M979.14,-166.33C959.84,-157.39 934.74,-144.31 915,-129 893.53,-112.34 873.27,-87.28 863.35,-74.18"/>
<polygon fill="#63b8ff" stroke="#63b8ff" points="977.81,-169.57 988.37,-170.5 980.69,-163.19 977.81,-169.57"/>
</g>
<!-- Node7 -->
<g id="node7" class="node">
<title>Node7</title>
<g id="a_node7"><a xlink:href="gov__effects_8h.html" target="_top" xlink:title=" ">
<polygon fill="white" stroke="#666666" points="1068,-129 924,-129 924,-110 1068,-110 1068,-129"/>
<text text-anchor="middle" x="996" y="-117" font-family="Helvetica,sans-Serif" font-size="10.00">src/node/rpc/gov_effects.h</text>
</a>
</g>
</g>
<!-- Node4&#45;&gt;Node7 -->
<g id="edge6" class="edge">
<title>Node4&#45;&gt;Node7</title>
<path fill="none" stroke="#63b8ff" d="M1004.89,-160.49C1002.56,-150.01 999.75,-137.39 997.93,-129.17"/>
<polygon fill="#63b8ff" stroke="#63b8ff" points="1001.5,-161.37 1007.08,-170.37 1008.33,-159.85 1001.5,-161.37"/>
</g>
<!-- Node6 -->
<g id="node6" class="node">
<title>Node6</title>
<g id="a_node6"><a xlink:href="enclave_2main_8cpp.html" target="_top" xlink:title=" ">
<polygon fill="white" stroke="#666666" points="917,-19 797,-19 797,0 917,0 917,-19"/>
<text text-anchor="middle" x="857" y="-7" font-family="Helvetica,sans-Serif" font-size="10.00">src/enclave/main.cpp</text>
</a>
</g>
</g>
<!-- Node5&#45;&gt;Node6 -->
<g id="edge5" class="edge">
<title>Node5&#45;&gt;Node6</title>
<path fill="none" stroke="#63b8ff" d="M857,-44.66C857,-35.93 857,-25.99 857,-19.09"/>
<polygon fill="#63b8ff" stroke="#63b8ff" points="853.5,-44.75 857,-54.75 860.5,-44.75 853.5,-44.75"/>
</g>
<!-- Node7&#45;&gt;Node5 -->
<g id="edge7" class="edge">
<title>Node7&#45;&gt;Node5</title>
<path fill="none" stroke="#63b8ff" d="M964.32,-106.42C938.53,-96.59 902.76,-82.95 879.74,-74.17"/>
<polygon fill="#63b8ff" stroke="#63b8ff" points="963.08,-109.69 973.67,-109.98 965.57,-103.15 963.08,-109.69"/>
</g>
<!-- Node9&#45;&gt;Node5 -->
<g id="edge10" class="edge">
<title>Node9&#45;&gt;Node5</title>
<path fill="none" stroke="#63b8ff" d="M64.2,-356.22C37.36,-332.84 0,-292.19 0,-247 0,-247 0,-247 0,-179 0,-98.66 599.56,-73.31 795.71,-67.17"/>
<polygon fill="#63b8ff" stroke="#63b8ff" points="62.24,-359.14 72.14,-362.9 66.75,-353.79 62.24,-359.14"/>
</g>
<!-- Node10 -->
<g id="node10" class="node">
<title>Node10</title>
<g id="a_node10"><a xlink:href="historical__transaction__fetcher_8h.html" target="_top" xlink:title=" ">
<polygon fill="white" stroke="#666666" points="233.5,-195 108.5,-195 108.5,-165 233.5,-165 233.5,-195"/>
<text text-anchor="start" x="116.5" y="-183" font-family="Helvetica,sans-Serif" font-size="10.00">src/indexing/historical</text>
<text text-anchor="middle" x="171" y="-172" font-family="Helvetica,sans-Serif" font-size="10.00">_transaction_fetcher.h</text>
</a>
</g>
</g>
<!-- Node9&#45;&gt;Node10 -->
<g id="edge11" class="edge">
<title>Node9&#45;&gt;Node10</title>
<path fill="none" stroke="#63b8ff" d="M71.47,-354.67C59.93,-338.67 49,-316.56 57,-297 75.6,-251.53 121.58,-214.28 149.13,-195.08"/>
<polygon fill="#63b8ff" stroke="#63b8ff" points="68.94,-357.12 77.83,-362.89 74.47,-352.84 68.94,-357.12"/>
</g>
<!-- Node10&#45;&gt;Node5 -->
<g id="edge12" class="edge">
<title>Node10&#45;&gt;Node5</title>
<path fill="none" stroke="#63b8ff" d="M204.98,-160.12C236.02,-143.86 283.68,-121.27 328,-110 414.98,-87.88 675.77,-73.66 795.58,-68.13"/>
<polygon fill="#63b8ff" stroke="#63b8ff" points="203.1,-157.16 195.91,-164.95 206.38,-163.35 203.1,-157.16"/>
</g>
<!-- Node11&#45;&gt;Node4 -->
<g id="edge15" class="edge">
<title>Node11&#45;&gt;Node4</title>
<path fill="none" stroke="#63b8ff" d="M335.75,-489.92C334.66,-460.95 335.7,-404.84 356,-363 391.8,-289.2 410.99,-266.39 485,-231 565.18,-192.66 826,-183.72 946.69,-181.63"/>
<polygon fill="#63b8ff" stroke="#63b8ff" points="332.28,-490.43 336.28,-500.23 339.27,-490.07 332.28,-490.43"/>
</g>
<!-- Node11&#45;&gt;Node9 -->
<g id="edge14" class="edge">
<title>Node11&#45;&gt;Node9</title>
<path fill="none" stroke="#63b8ff" d="M290.73,-497.78C260.87,-489.47 221.82,-476.54 190,-459 156.71,-440.65 123.47,-410.85 105.23,-393.26"/>
<polygon fill="#63b8ff" stroke="#63b8ff" points="289.91,-501.18 300.48,-500.42 291.74,-494.43 289.91,-501.18"/>
</g>
<!-- Node12 -->
<g id="node12" class="node">
<title>Node12</title>
<g id="a_node12"><a xlink:href="snapshot__serdes_8h.html" target="_top" xlink:title=" ">
<polygon fill="white" stroke="#666666" points="517,-387.5 365,-387.5 365,-368.5 517,-368.5 517,-387.5"/>
<text text-anchor="middle" x="441" y="-375.5" font-family="Helvetica,sans-Serif" font-size="10.00">src/node/snapshot_serdes.h</text>
</a>
</g>
</g>
<!-- Node11&#45;&gt;Node12 -->
<g id="edge16" class="edge">
<title>Node11&#45;&gt;Node12</title>
<path fill="none" stroke="#63b8ff" d="M350.23,-492.46C372.54,-464.58 416.88,-409.15 434.01,-387.73"/>
<polygon fill="#63b8ff" stroke="#63b8ff" points="347.34,-490.48 343.82,-500.47 352.8,-494.85 347.34,-490.48"/>
</g>
<!-- Node14 -->
<g id="node14" class="node">
<title>Node14</title>
<g id="a_node14"><a xlink:href="tx__receipt__impl_8h.html" target="_top" xlink:title=" ">
<polygon fill="white" stroke="#666666" points="309,-459 199,-459 199,-429 309,-429 309,-459"/>
<text text-anchor="start" x="207" y="-447" font-family="Helvetica,sans-Serif" font-size="10.00">src/node/tx_receipt</text>
<text text-anchor="middle" x="254" y="-436" font-family="Helvetica,sans-Serif" font-size="10.00">_impl.h</text>
</a>
</g>
</g>
<!-- Node11&#45;&gt;Node14 -->
<g id="edge19" class="edge">
<title>Node11&#45;&gt;Node14</title>
<path fill="none" stroke="#63b8ff" d="M317.57,-494.02C303.9,-483.48 285.72,-469.46 272.31,-459.12"/>
<polygon fill="#63b8ff" stroke="#63b8ff" points="315.75,-497.03 325.81,-500.37 320.02,-491.49 315.75,-497.03"/>
</g>
<!-- Node12&#45;&gt;Node13 -->
<g id="edge17" class="edge">
<title>Node12&#45;&gt;Node13</title>
<path fill="none" stroke="#63b8ff" d="M457.89,-361.33C471.25,-348.94 489.42,-332.09 500.4,-321.91"/>
<polygon fill="#63b8ff" stroke="#63b8ff" points="455.26,-359 450.31,-368.37 460.02,-364.13 455.26,-359"/>
</g>
<!-- Node13&#45;&gt;Node4 -->
<g id="edge18" class="edge">
<title>Node13&#45;&gt;Node4</title>
<path fill="none" stroke="#63b8ff" d="M552.57,-299.91C650.22,-274.47 888.67,-212.35 976.14,-189.56"/>
<polygon fill="#63b8ff" stroke="#63b8ff" points="551.54,-296.56 542.74,-302.47 553.3,-303.34 551.54,-296.56"/>
</g>
<!-- Node14&#45;&gt;Node9 -->
<g id="edge20" class="edge">
<title>Node14&#45;&gt;Node9</title>
<path fill="none" stroke="#63b8ff" d="M208.64,-425.19C182.75,-415.02 150.77,-402.47 126.69,-393.01"/>
<polygon fill="#63b8ff" stroke="#63b8ff" points="207.64,-428.56 218.23,-428.95 210.2,-422.04 207.64,-428.56"/>
</g>
<!-- Node14&#45;&gt;Node12 -->
<g id="edge25" class="edge">
<title>Node14&#45;&gt;Node12</title>
<path fill="none" stroke="#63b8ff" d="M304.91,-425.58C341,-413.23 387.86,-397.19 416.11,-387.52"/>
<polygon fill="#63b8ff" stroke="#63b8ff" points="303.37,-422.41 295.04,-428.95 305.63,-429.03 303.37,-422.41"/>
</g>
<!-- Node15 -->
<g id="node15" class="node">
<title>Node15</title>
<g id="a_node15"><a xlink:href="historical__queries__adapter_8cpp.html" target="_top" xlink:title=" ">
<polygon fill="white" stroke="#666666" points="352,-327 232,-327 232,-297 352,-297 352,-327"/>
<text text-anchor="start" x="240" y="-315" font-family="Helvetica,sans-Serif" font-size="10.00">src/node/historical</text>
<text text-anchor="middle" x="292" y="-304" font-family="Helvetica,sans-Serif" font-size="10.00">_queries_adapter.cpp</text>
</a>
</g>
</g>
<!-- Node14&#45;&gt;Node15 -->
<g id="edge21" class="edge">
<title>Node14&#45;&gt;Node15</title>
<path fill="none" stroke="#63b8ff" d="M266.08,-419.87C270.02,-411.57 274.12,-402.03 277,-393 284.16,-370.51 288.36,-343.32 290.42,-327.13"/>
<polygon fill="#63b8ff" stroke="#63b8ff" points="262.89,-418.42 261.61,-428.93 269.17,-421.51 262.89,-418.42"/>
</g>
<!-- Node16 -->
<g id="node16" class="node">
<title>Node16</title>
<g id="a_node16"><a xlink:href="historical__queries__utils_8h.html" target="_top" xlink:title=" ">
<polygon fill="white" stroke="#666666" points="268,-393 162,-393 162,-363 268,-363 268,-393"/>
<text text-anchor="start" x="170" y="-381" font-family="Helvetica,sans-Serif" font-size="10.00">src/node/historical</text>
<text text-anchor="middle" x="215" y="-370" font-family="Helvetica,sans-Serif" font-size="10.00">_queries_utils.h</text>
</a>
</g>
</g>
<!-- Node14&#45;&gt;Node16 -->
<g id="edge22" class="edge">
<title>Node14&#45;&gt;Node16</title>
<path fill="none" stroke="#63b8ff" d="M240.13,-420.24C234.63,-411.21 228.47,-401.11 223.63,-393.16"/>
<polygon fill="#63b8ff" stroke="#63b8ff" points="237.15,-422.08 245.34,-428.8 243.13,-418.44 237.15,-422.08"/>
</g>
<!-- Node16&#45;&gt;Node15 -->
<g id="edge24" class="edge">
<title>Node16&#45;&gt;Node15</title>
<path fill="none" stroke="#63b8ff" d="M240.02,-356.2C251.45,-346.7 264.7,-335.69 274.96,-327.16"/>
<polygon fill="#63b8ff" stroke="#63b8ff" points="237.54,-353.71 232.09,-362.8 242.02,-359.1 237.54,-353.71"/>
</g>
<!-- Node17 -->
<g id="node17" class="node">
<title>Node17</title>
<g id="a_node17"><a xlink:href="external__executor_8cpp.html" target="_top" xlink:title=" ">
<polygon fill="white" stroke="#666666" points="214,-327 66,-327 66,-297 214,-297 214,-327"/>
<text text-anchor="start" x="74" y="-315" font-family="Helvetica,sans-Serif" font-size="10.00">src/apps/external_executor</text>
<text text-anchor="middle" x="140" y="-304" font-family="Helvetica,sans-Serif" font-size="10.00">/external_executor.cpp</text>
</a>
</g>
</g>
<!-- Node16&#45;&gt;Node17 -->
<g id="edge23" class="edge">
<title>Node16&#45;&gt;Node17</title>
<path fill="none" stroke="#63b8ff" d="M190.63,-356.2C179.49,-346.7 166.59,-335.69 156.6,-327.16"/>
<polygon fill="#63b8ff" stroke="#63b8ff" points="188.48,-358.97 198.36,-362.8 193.02,-353.64 188.48,-358.97"/>
</g>
<!-- Node18&#45;&gt;Node4 -->
<g id="edge31" class="edge">
<title>Node18&#45;&gt;Node4</title>
<path fill="none" stroke="#63b8ff" d="M969.18,-360.39C976.69,-351.21 985.17,-339.21 990,-327 1009.46,-277.8 1009.87,-212.71 1009.32,-189.59"/>
<polygon fill="#63b8ff" stroke="#63b8ff" points="966.29,-358.38 962.42,-368.24 971.59,-362.95 966.29,-358.38"/>
</g>
<!-- Node19 -->
<g id="node19" class="node">
<title>Node19</title>
<g id="a_node19"><a xlink:href="acme__challenge__frontend_8h.html" target="_top" xlink:title=" ">
<polygon fill="white" stroke="#666666" points="981,-327 841,-327 841,-297 981,-297 981,-327"/>
<text text-anchor="start" x="849" y="-315" font-family="Helvetica,sans-Serif" font-size="10.00">src/node/acme_challenge</text>
<text text-anchor="middle" x="911" y="-304" font-family="Helvetica,sans-Serif" font-size="10.00">_frontend.h</text>
</a>
</g>
</g>
<!-- Node18&#45;&gt;Node19 -->
<g id="edge27" class="edge">
<title>Node18&#45;&gt;Node19</title>
<path fill="none" stroke="#63b8ff" d="M942.53,-359.92C935.7,-349.76 927.13,-337.01 920.65,-327.36"/>
<polygon fill="#63b8ff" stroke="#63b8ff" points="939.72,-362.02 948.2,-368.37 945.53,-358.12 939.72,-362.02"/>
</g>
<!-- Node21 -->
<g id="node21" class="node">
<title>Node21</title>
<g id="a_node21"><a xlink:href="member__frontend_8h.html" target="_top" xlink:title=" ">
<polygon fill="white" stroke="#666666" points="2325,-327 2205,-327 2205,-297 2325,-297 2325,-327"/>
<text text-anchor="start" x="2213" y="-315" font-family="Helvetica,sans-Serif" font-size="10.00">src/node/rpc/member</text>
<text text-anchor="middle" x="2265" y="-304" font-family="Helvetica,sans-Serif" font-size="10.00">_frontend.h</text>
</a>
</g>
</g>
<!-- Node18&#45;&gt;Node21 -->
<g id="edge32" class="edge">
<title>Node18&#45;&gt;Node21</title>
<path fill="none" stroke="#63b8ff" d="M1028.78,-374.51C1209.7,-368.32 1685.4,-350.95 2082,-327 2123.03,-324.52 2169.18,-320.99 2204.87,-318.09"/>
<polygon fill="#63b8ff" stroke="#63b8ff" points="1028.45,-371.02 1018.58,-374.86 1028.69,-378.02 1028.45,-371.02"/>
</g>
<!-- Node22 -->
<g id="node22" class="node">
<title>Node22</title>
<g id="a_node22"><a xlink:href="node__frontend_8h.html" target="_top" xlink:title=" ">
<polygon fill="white" stroke="#666666" points="1233,-321.5 1075,-321.5 1075,-302.5 1233,-302.5 1233,-321.5"/>
<text text-anchor="middle" x="1154" y="-309.5" font-family="Helvetica,sans-Serif" font-size="10.00">src/node/rpc/node_frontend.h</text>
</a>
</g>
</g>
<!-- Node18&#45;&gt;Node22 -->
<g id="edge34" class="edge">
<title>Node18&#45;&gt;Node22</title>
<path fill="none" stroke="#63b8ff" d="M990.74,-365.24C1030.21,-352.61 1091.98,-332.85 1127.14,-321.6"/>
<polygon fill="#63b8ff" stroke="#63b8ff" points="989.43,-361.99 980.97,-368.37 991.56,-368.65 989.43,-361.99"/>
</g>
<!-- Node24 -->
<g id="node24" class="node">
<title>Node24</title>
<g id="a_node24"><a xlink:href="user__frontend_8h.html" target="_top" xlink:title=" ">
<polygon fill="white" stroke="#666666" points="746.5,-321.5 591.5,-321.5 591.5,-302.5 746.5,-302.5 746.5,-321.5"/>
<text text-anchor="middle" x="669" y="-309.5" font-family="Helvetica,sans-Serif" font-size="10.00">src/node/rpc/user_frontend.h</text>
</a>
</g>
</g>
<!-- Node18&#45;&gt;Node24 -->
<g id="edge38" class="edge">
<title>Node18&#45;&gt;Node24</title>
<path fill="none" stroke="#63b8ff" d="M905.81,-366.18C849.71,-353.58 758.2,-333.03 706.91,-321.51"/>
<polygon fill="#63b8ff" stroke="#63b8ff" points="905.34,-369.66 915.86,-368.44 906.87,-362.83 905.34,-369.66"/>
</g>
<!-- Node19&#45;&gt;Node5 -->
<g id="edge28" class="edge">
<title>Node19&#45;&gt;Node5</title>
<path fill="none" stroke="#63b8ff" d="M858.71,-292.37C845.01,-284.83 831.87,-274.61 824,-261 786.93,-196.95 835.4,-102.59 851.88,-74.01"/>
<polygon fill="#63b8ff" stroke="#63b8ff" points="857.25,-295.55 867.75,-296.95 860.41,-289.31 857.25,-295.55"/>
</g>
<!-- Node20 -->
<g id="node20" class="node">
<title>Node20</title>
<g id="a_node20"><a xlink:href="ccf__acme__client_8h.html" target="_top" xlink:title=" ">
<polygon fill="white" stroke="#666666" points="981.5,-255.5 832.5,-255.5 832.5,-236.5 981.5,-236.5 981.5,-255.5"/>
<text text-anchor="middle" x="907" y="-243.5" font-family="Helvetica,sans-Serif" font-size="10.00">src/node/ccf_acme_client.h</text>
</a>
</g>
</g>
<!-- Node19&#45;&gt;Node20 -->
<g id="edge29" class="edge">
<title>Node19&#45;&gt;Node20</title>
<path fill="none" stroke="#63b8ff" d="M909.48,-286.6C908.8,-275.8 908.05,-263.78 907.55,-255.84"/>
<polygon fill="#63b8ff" stroke="#63b8ff" points="906,-287.03 910.11,-296.8 912.98,-286.6 906,-287.03"/>
</g>
<!-- Node20&#45;&gt;Node4 -->
<g id="edge30" class="edge">
<title>Node20&#45;&gt;Node4</title>
<path fill="none" stroke="#63b8ff" d="M929.28,-231.02C949.34,-218.43 978.2,-200.32 995.14,-189.7"/>
<polygon fill="#63b8ff" stroke="#63b8ff" points="927.37,-228.09 920.76,-236.37 931.09,-234.02 927.37,-228.09"/>
</g>
<!-- Node21&#45;&gt;Node5 -->
<g id="edge33" class="edge">
<title>Node21&#45;&gt;Node5</title>
<path fill="none" stroke="#63b8ff" d="M2274.46,-287.51C2289.61,-245.56 2313.21,-157.7 2267,-110 2243.19,-85.43 1186.24,-69.84 918.25,-66.28"/>
<polygon fill="#63b8ff" stroke="#63b8ff" points="2271.17,-286.31 2270.92,-296.9 2277.72,-288.77 2271.17,-286.31"/>
</g>
<!-- Node22&#45;&gt;Node5 -->
<g id="edge35" class="edge">
<title>Node22&#45;&gt;Node5</title>
<path fill="none" stroke="#63b8ff" d="M1181.16,-297.5C1194.91,-289.07 1210.29,-276.8 1218,-261 1223.85,-249.02 1223.57,-243.12 1218,-231 1183.52,-155.97 1151.2,-146.25 1077,-110 1026.76,-85.46 963.71,-74.45 918.01,-69.51"/>
<polygon fill="#63b8ff" stroke="#63b8ff" points="1179.39,-294.48 1172.45,-302.49 1182.87,-300.55 1179.39,-294.48"/>
</g>
<!-- Node23 -->
<g id="node23" class="node">
<title>Node23</title>
<g id="a_node23"><a xlink:href="jwt__key__auto__refresh_8h.html" target="_top" xlink:title=" ">
<polygon fill="white" stroke="#666666" points="1208.5,-261 1083.5,-261 1083.5,-231 1208.5,-231 1208.5,-261"/>
<text text-anchor="start" x="1091.5" y="-249" font-family="Helvetica,sans-Serif" font-size="10.00">src/node/jwt_key_auto</text>
<text text-anchor="middle" x="1146" y="-238" font-family="Helvetica,sans-Serif" font-size="10.00">_refresh.h</text>
</a>
</g>
</g>
<!-- Node22&#45;&gt;Node23 -->
<g id="edge36" class="edge">
<title>Node22&#45;&gt;Node23</title>
<path fill="none" stroke="#63b8ff" d="M1151.67,-292.35C1150.43,-282.47 1148.94,-270.51 1147.8,-261.36"/>
<polygon fill="#63b8ff" stroke="#63b8ff" points="1148.21,-292.88 1152.92,-302.37 1155.15,-292.01 1148.21,-292.88"/>
</g>
<!-- Node23&#45;&gt;Node4 -->
<g id="edge37" class="edge">
<title>Node23&#45;&gt;Node4</title>
<path fill="none" stroke="#63b8ff" d="M1106.66,-226.62C1080.51,-214.41 1047.4,-198.94 1027.23,-189.52"/>
<polygon fill="#63b8ff" stroke="#63b8ff" points="1105.39,-229.89 1115.93,-230.95 1108.36,-223.55 1105.39,-229.89"/>
</g>
<!-- Node24&#45;&gt;Node5 -->
<g id="edge39" class="edge">
<title>Node24&#45;&gt;Node5</title>
<path fill="none" stroke="#63b8ff" d="M671.91,-292.62C678.97,-253.88 700.41,-163.04 753,-110 770.98,-91.87 797.51,-80.68 819.28,-74.05"/>
<polygon fill="#63b8ff" stroke="#63b8ff" points="668.46,-292.04 670.23,-302.48 675.36,-293.22 668.46,-292.04"/>
</g>
<!-- Node25&#45;&gt;Node20 -->
<g id="edge42" class="edge">
<title>Node25&#45;&gt;Node20</title>
<path fill="none" stroke="#63b8ff" d="M776.05,-484.82C778.98,-442.85 790.07,-355.4 832,-297 845.78,-277.81 869.4,-263.86 886.45,-255.65"/>
<polygon fill="#63b8ff" stroke="#63b8ff" points="772.55,-484.74 775.45,-494.93 779.54,-485.16 772.55,-484.74"/>
</g>
<!-- Node26 -->
<g id="node26" class="node">
<title>Node26</title>
<g id="a_node26"><a xlink:href="network__state_8h.html" target="_top" xlink:title=" ">
<polygon fill="white" stroke="#666666" points="1030,-453.5 890,-453.5 890,-434.5 1030,-434.5 1030,-453.5"/>
<text text-anchor="middle" x="960" y="-441.5" font-family="Helvetica,sans-Serif" font-size="10.00">src/node/network_state.h</text>
</a>
</g>
</g>
<!-- Node25&#45;&gt;Node26 -->
<g id="edge43" class="edge">
<title>Node25&#45;&gt;Node26</title>
<path fill="none" stroke="#63b8ff" d="M825.36,-491.58C861.07,-479.23 907.42,-463.19 935.38,-453.52"/>
<polygon fill="#63b8ff" stroke="#63b8ff" points="823.91,-488.38 815.6,-494.95 826.19,-494.99 823.91,-488.38"/>
</g>
<!-- Node37 -->
<g id="node37" class="node">
<title>Node37</title>
<g id="a_node37"><a xlink:href="genesis__gen_8h.html" target="_top" xlink:title=" ">
<polygon fill="white" stroke="#666666" points="2135,-459 2025,-459 2025,-429 2135,-429 2135,-459"/>
<text text-anchor="start" x="2033" y="-447" font-family="Helvetica,sans-Serif" font-size="10.00">src/service/genesis</text>
<text text-anchor="middle" x="2080" y="-436" font-family="Helvetica,sans-Serif" font-size="10.00">_gen.h</text>
</a>
</g>
</g>
<!-- Node25&#45;&gt;Node37 -->
<g id="edge71" class="edge">
<title>Node25&#45;&gt;Node37</title>
<path fill="none" stroke="#63b8ff" d="M840.69,-495.04C840.8,-495.03 840.9,-495.01 841,-495 1075.03,-465.67 1816.19,-449.92 2024.85,-445.99"/>
<polygon fill="#63b8ff" stroke="#63b8ff" points="840.45,-491.54 831.06,-496.44 841.46,-498.46 840.45,-491.54"/>
</g>
<!-- Node26&#45;&gt;Node4 -->
<g id="edge62" class="edge">
<title>Node26&#45;&gt;Node4</title>
<path fill="none" stroke="#63b8ff" d="M989.39,-429.57C1003.84,-421.26 1019.86,-409.09 1028,-393 1064.03,-321.78 1025.73,-219.82 1012.89,-189.69"/>
<polygon fill="#63b8ff" stroke="#63b8ff" points="987.39,-426.67 980.22,-434.47 990.69,-432.84 987.39,-426.67"/>
</g>
<!-- Node26&#45;&gt;Node5 -->
<g id="edge44" class="edge">
<title>Node26&#45;&gt;Node5</title>
<path fill="none" stroke="#63b8ff" d="M928.91,-430.15C910.79,-421.56 888.37,-408.92 872,-393 825.25,-347.55 820.28,-325.03 808,-261 795.3,-194.81 791.19,-169.94 822,-110 829.01,-96.36 840.47,-82.82 848.36,-74.32"/>
<polygon fill="#63b8ff" stroke="#63b8ff" points="927.91,-433.54 938.46,-434.5 930.81,-427.17 927.91,-433.54"/>
</g>
<!-- Node26&#45;&gt;Node13 -->
<g id="edge70" class="edge">
<title>Node26&#45;&gt;Node13</title>
<path fill="none" stroke="#63b8ff" d="M905.75,-432.52C860.74,-423.4 795.25,-409.13 739,-393 698.82,-381.48 583.27,-339.73 533.39,-321.55"/>
<polygon fill="#63b8ff" stroke="#63b8ff" points="905.1,-435.96 915.6,-434.5 906.48,-429.1 905.1,-435.96"/>
</g>
<!-- Node26&#45;&gt;Node19 -->
<g id="edge61" class="edge">
<title>Node26&#45;&gt;Node19</title>
<path fill="none" stroke="#63b8ff" d="M924.91,-430.18C908.45,-422.19 890.42,-410.12 881,-393 868.98,-371.17 885.66,-343.54 898.54,-327.12"/>
<polygon fill="#63b8ff" stroke="#63b8ff" points="923.78,-433.51 934.34,-434.42 926.65,-427.13 923.78,-433.51"/>
</g>
<!-- Node26&#45;&gt;Node22 -->
<g id="edge63" class="edge">
<title>Node26&#45;&gt;Node22</title>
<path fill="none" stroke="#63b8ff" d="M990.19,-430.45C1010.85,-421.3 1038.47,-407.92 1061,-393 1094.91,-370.54 1129.99,-337.06 1145.62,-321.51"/>
<polygon fill="#63b8ff" stroke="#63b8ff" points="988.72,-427.27 980.95,-434.47 991.51,-433.69 988.72,-427.27"/>
</g>
<!-- Node26&#45;&gt;Node24 -->
<g id="edge64" class="edge">
<title>Node26&#45;&gt;Node24</title>
<path fill="none" stroke="#63b8ff" d="M913.78,-431.95C880.97,-423.31 836.31,-409.95 799,-393 752.67,-371.96 702.71,-337.48 680.63,-321.55"/>
<polygon fill="#63b8ff" stroke="#63b8ff" points="913,-435.36 923.56,-434.47 914.75,-428.58 913,-435.36"/>
</g>
<!-- Node27 -->
<g id="node27" class="node">
<title>Node27</title>
<g id="a_node27"><a xlink:href="wrap_8h.html" target="_top" xlink:title=" ">
<polygon fill="white" stroke="#666666" points="1701,-387.5 1623,-387.5 1623,-368.5 1701,-368.5 1701,-387.5"/>
<text text-anchor="middle" x="1662" y="-375.5" font-family="Helvetica,sans-Serif" font-size="10.00">src/js/wrap.h</text>
</a>
</g>
</g>
<!-- Node26&#45;&gt;Node27 -->
<g id="edge45" class="edge">
<title>Node26&#45;&gt;Node27</title>
<path fill="none" stroke="#63b8ff" d="M1040.32,-435.68C1191.04,-421.94 1511.11,-392.76 1622.67,-382.59"/>
<polygon fill="#63b8ff" stroke="#63b8ff" points="1039.84,-432.21 1030.2,-436.6 1040.48,-439.18 1039.84,-432.21"/>
</g>
<!-- Node35 -->
<g id="node35" class="node">
<title>Node35</title>
<g id="a_node35"><a xlink:href="secret__broadcast_8h.html" target="_top" xlink:title=" ">
<polygon fill="white" stroke="#666666" points="2073.5,-387.5 1920.5,-387.5 1920.5,-368.5 2073.5,-368.5 2073.5,-387.5"/>
<text text-anchor="middle" x="1997" y="-375.5" font-family="Helvetica,sans-Serif" font-size="10.00">src/node/secret_broadcast.h</text>
</a>
</g>
</g>
<!-- Node26&#45;&gt;Node35 -->
<g id="edge65" class="edge">
<title>Node26&#45;&gt;Node35</title>
<path fill="none" stroke="#63b8ff" d="M1040.21,-438.05C1234.75,-426.04 1729.71,-395.5 1920.44,-383.73"/>
<polygon fill="#63b8ff" stroke="#63b8ff" points="1039.82,-434.57 1030.06,-438.68 1040.25,-441.55 1039.82,-434.57"/>
</g>
<!-- Node36 -->
<g id="node36" class="node">
<title>Node36</title>
<g id="a_node36"><a xlink:href="share__manager_8h.html" target="_top" xlink:title=" ">
<polygon fill="white" stroke="#666666" points="2236.5,-387.5 2091.5,-387.5 2091.5,-368.5 2236.5,-368.5 2236.5,-387.5"/>
<text text-anchor="middle" x="2164" y="-375.5" font-family="Helvetica,sans-Serif" font-size="10.00">src/node/share_manager.h</text>
</a>
</g>
</g>
<!-- Node26&#45;&gt;Node36 -->
<g id="edge67" class="edge">
<title>Node26&#45;&gt;Node36</title>
<path fill="none" stroke="#63b8ff" d="M1040.38,-442.91C1225.08,-441.93 1693.82,-435.13 2083,-393 2095.34,-391.66 2108.65,-389.62 2120.84,-387.5"/>
<polygon fill="#63b8ff" stroke="#63b8ff" points="1040.19,-439.41 1030.21,-442.96 1040.23,-446.41 1040.19,-439.41"/>
</g>
<!-- Node27&#45;&gt;Node4 -->
<g id="edge58" class="edge">
<title>Node27&#45;&gt;Node4</title>
<path fill="none" stroke="#63b8ff" d="M1612.69,-371.09C1511.03,-358.83 1286.99,-331.42 1280,-327 1237.07,-299.86 1259.45,-260.35 1218,-231 1174.91,-200.49 1115.61,-188.44 1071.17,-183.75"/>
<polygon fill="#63b8ff" stroke="#63b8ff" points="1612.37,-374.58 1622.72,-372.3 1613.21,-367.63 1612.37,-374.58"/>
</g>
<!-- Node27&#45;&gt;Node5 -->
<g id="edge47" class="edge">
<title>Node27&#45;&gt;Node5</title>
<path fill="none" stroke="#63b8ff" d="M1711.4,-374.74C1817.12,-369.4 2057.73,-354.33 2082,-327 2090.85,-317.03 2089.85,-307.78 2082,-297 1942.52,-105.56 1146.08,-72.25 918.02,-66.62"/>
<polygon fill="#63b8ff" stroke="#63b8ff" points="1711.11,-371.25 1701.3,-375.24 1711.46,-378.24 1711.11,-371.25"/>
</g>
<!-- Node27&#45;&gt;Node21 -->
<g id="edge59" class="edge">
<title>Node27&#45;&gt;Node21</title>
<path fill="none" stroke="#63b8ff" d="M1711.23,-371.77C1821.01,-360.12 2085.57,-332.04 2204.87,-319.38"/>
<polygon fill="#63b8ff" stroke="#63b8ff" points="1710.67,-368.31 1701.1,-372.85 1711.41,-375.28 1710.67,-368.31"/>
</g>
<!-- Node27&#45;&gt;Node22 -->
<g id="edge60" class="edge">
<title>Node27&#45;&gt;Node22</title>
<path fill="none" stroke="#63b8ff" d="M1612.76,-371.54C1534.99,-362.82 1378.97,-344.88 1247,-327 1234.7,-325.33 1221.51,-323.42 1209.04,-321.56"/>
<polygon fill="#63b8ff" stroke="#63b8ff" points="1612.43,-375.03 1622.76,-372.66 1613.21,-368.07 1612.43,-375.03"/>
</g>
<!-- Node28 -->
<g id="node28" class="node">
<title>Node28</title>
<g id="a_node28"><a xlink:href="js__generic__base_8cpp.html" target="_top" xlink:title=" ">
<polygon fill="white" stroke="#666666" points="1407,-327 1289,-327 1289,-297 1407,-297 1407,-327"/>
<text text-anchor="start" x="1297" y="-315" font-family="Helvetica,sans-Serif" font-size="10.00">src/apps/js_generic</text>
<text text-anchor="middle" x="1348" y="-304" font-family="Helvetica,sans-Serif" font-size="10.00">/js_generic_base.cpp</text>
</a>
</g>
</g>
<!-- Node27&#45;&gt;Node28 -->
<g id="edge46" class="edge">
<title>Node27&#45;&gt;Node28</title>
<path fill="none" stroke="#63b8ff" d="M1612.96,-367.07C1563.31,-357.01 1484.31,-340.97 1416,-327 1413.17,-326.42 1410.27,-325.83 1407.34,-325.23"/>
<polygon fill="#63b8ff" stroke="#63b8ff" points="1612.3,-370.51 1622.8,-369.06 1613.69,-363.65 1612.3,-370.51"/>
</g>
<!-- Node29 -->
<g id="node29" class="node">
<title>Node29</title>
<g id="a_node29"><a xlink:href="consensus_8cpp.html" target="_top" xlink:title=" ">
<polygon fill="white" stroke="#666666" points="1967,-321.5 1851,-321.5 1851,-302.5 1967,-302.5 1967,-321.5"/>
<text text-anchor="middle" x="1909" y="-309.5" font-family="Helvetica,sans-Serif" font-size="10.00">src/js/consensus.cpp</text>
</a>
</g>
</g>
<!-- Node27&#45;&gt;Node29 -->
<g id="edge48" class="edge">
<title>Node27&#45;&gt;Node29</title>
<path fill="none" stroke="#63b8ff" d="M1704.98,-365.86C1753.7,-353.24 1832.06,-332.94 1876.14,-321.51"/>
<polygon fill="#63b8ff" stroke="#63b8ff" points="1703.86,-362.54 1695.06,-368.44 1705.61,-369.31 1703.86,-362.54"/>
</g>
<!-- Node30 -->
<g id="node30" class="node">
<title>Node30</title>
<g id="a_node30"><a xlink:href="wrap_8cpp.html" target="_top" xlink:title=" ">
<polygon fill="white" stroke="#666666" points="1867.5,-255.5 1778.5,-255.5 1778.5,-236.5 1867.5,-236.5 1867.5,-255.5"/>
<text text-anchor="middle" x="1823" y="-243.5" font-family="Helvetica,sans-Serif" font-size="10.00">src/js/wrap.cpp</text>
</a>
</g>
</g>
<!-- Node27&#45;&gt;Node30 -->
<g id="edge57" class="edge">
<title>Node27&#45;&gt;Node30</title>
<path fill="none" stroke="#63b8ff" d="M1711.22,-371.66C1742.08,-365.74 1780.36,-353.27 1804,-327 1822.33,-306.63 1823.85,-271.81 1823.47,-255.68"/>
<polygon fill="#63b8ff" stroke="#63b8ff" points="1710.32,-368.26 1701.07,-373.42 1711.52,-375.16 1710.32,-368.26"/>
</g>
<!-- Node31 -->
<g id="node31" class="node">
<title>Node31</title>
<g id="a_node31"><a xlink:href="conv_8cpp.html" target="_top" xlink:title=" ">
<polygon fill="white" stroke="#666666" points="2073,-321.5 1985,-321.5 1985,-302.5 2073,-302.5 2073,-321.5"/>
<text text-anchor="middle" x="2029" y="-309.5" font-family="Helvetica,sans-Serif" font-size="10.00">src/js/conv.cpp</text>
</a>
</g>
</g>
<!-- Node27&#45;&gt;Node31 -->
<g id="edge50" class="edge">
<title>Node27&#45;&gt;Node31</title>
<path fill="none" stroke="#63b8ff" d="M1711.69,-370.66C1773.84,-362.36 1883.33,-346.57 1976,-327 1983.45,-325.43 1991.42,-323.47 1998.86,-321.52"/>
<polygon fill="#63b8ff" stroke="#63b8ff" points="1710.85,-367.24 1701.39,-372.02 1711.77,-374.18 1710.85,-367.24"/>
</g>
<!-- Node32 -->
<g id="node32" class="node">
<title>Node32</title>
<g id="a_node32"><a xlink:href="crypto_8cpp.html" target="_top" xlink:title=" ">
<polygon fill="white" stroke="#666666" points="1521,-321.5 1425,-321.5 1425,-302.5 1521,-302.5 1521,-321.5"/>
<text text-anchor="middle" x="1473" y="-309.5" font-family="Helvetica,sans-Serif" font-size="10.00">src/js/crypto.cpp</text>
</a>
</g>
</g>
<!-- Node27&#45;&gt;Node32 -->
<g id="edge52" class="edge">
<title>Node27&#45;&gt;Node32</title>
<path fill="none" stroke="#63b8ff" d="M1626.57,-365C1589.24,-352.36 1531.4,-332.78 1498.39,-321.6"/>
<polygon fill="#63b8ff" stroke="#63b8ff" points="1625.92,-368.48 1636.51,-368.37 1628.16,-361.85 1625.92,-368.48"/>
</g>
<!-- Node33 -->
<g id="node33" class="node">
<title>Node33</title>
<g id="a_node33"><a xlink:href="historical_8cpp.html" target="_top" xlink:title=" ">
<polygon fill="white" stroke="#666666" points="1649,-321.5 1539,-321.5 1539,-302.5 1649,-302.5 1649,-321.5"/>
<text text-anchor="middle" x="1594" y="-309.5" font-family="Helvetica,sans-Serif" font-size="10.00">src/js/historical.cpp</text>
</a>
</g>
</g>
<!-- Node27&#45;&gt;Node33 -->
<g id="edge54" class="edge">
<title>Node27&#45;&gt;Node33</title>
<path fill="none" stroke="#63b8ff" d="M1645.35,-361.33C1632.19,-348.94 1614.28,-332.09 1603.46,-321.91"/>
<polygon fill="#63b8ff" stroke="#63b8ff" points="1643.15,-364.06 1652.83,-368.37 1647.95,-358.97 1643.15,-364.06"/>
</g>
<!-- Node34 -->
<g id="node34" class="node">
<title>Node34</title>
<g id="a_node34"><a xlink:href="openenclave_8cpp.html" target="_top" xlink:title=" ">
<polygon fill="white" stroke="#666666" points="1795,-321.5 1667,-321.5 1667,-302.5 1795,-302.5 1795,-321.5"/>
<text text-anchor="middle" x="1731" y="-309.5" font-family="Helvetica,sans-Serif" font-size="10.00">src/js/openenclave.cpp</text>
</a>
</g>
</g>
<!-- Node27&#45;&gt;Node34 -->
<g id="edge56" class="edge">
<title>Node27&#45;&gt;Node34</title>
<path fill="none" stroke="#63b8ff" d="M1678.89,-361.33C1692.25,-348.94 1710.42,-332.09 1721.4,-321.91"/>
<polygon fill="#63b8ff" stroke="#63b8ff" points="1676.26,-359 1671.31,-368.37 1681.02,-364.13 1676.26,-359"/>
</g>
<!-- Node29&#45;&gt;Node30 -->
<g id="edge49" class="edge">
<title>Node29&#45;&gt;Node30</title>
<path fill="none" stroke="#63b8ff" d="M1889.29,-296.33C1872.43,-283.78 1848.71,-266.13 1834.69,-255.7"/>
<polygon fill="#63b8ff" stroke="#63b8ff" points="1887.29,-299.21 1897.4,-302.37 1891.47,-293.59 1887.29,-299.21"/>
</g>
<!-- Node31&#45;&gt;Node30 -->
<g id="edge51" class="edge">
<title>Node31&#45;&gt;Node30</title>
<path fill="none" stroke="#63b8ff" d="M1991.42,-299.32C1950.78,-286.7 1886.96,-266.87 1850.67,-255.6"/>
<polygon fill="#63b8ff" stroke="#63b8ff" points="1990.63,-302.74 2001.22,-302.37 1992.71,-296.06 1990.63,-302.74"/>
</g>
<!-- Node32&#45;&gt;Node30 -->
<g id="edge53" class="edge">
<title>Node32&#45;&gt;Node30</title>
<path fill="none" stroke="#63b8ff" d="M1516.16,-300.05C1520.82,-298.98 1525.5,-297.94 1530,-297 1617.41,-278.83 1720.48,-262.39 1778.14,-253.63"/>
<polygon fill="#63b8ff" stroke="#63b8ff" points="1514.98,-296.74 1506.06,-302.45 1516.6,-303.55 1514.98,-296.74"/>
</g>
<!-- Node33&#45;&gt;Node30 -->
<g id="edge55" class="edge">
<title>Node33&#45;&gt;Node30</title>
<path fill="none" stroke="#63b8ff" d="M1634.64,-299.64C1679.75,-287.03 1751.56,-266.97 1792.24,-255.6"/>
<polygon fill="#63b8ff" stroke="#63b8ff" points="1633.57,-296.31 1624.88,-302.37 1635.46,-303.05 1633.57,-296.31"/>
</g>
<!-- Node35&#45;&gt;Node4 -->
<g id="edge66" class="edge">
<title>Node35&#45;&gt;Node4</title>
<path fill="none" stroke="#63b8ff" d="M2035.3,-364.56C2052.82,-356.73 2071.89,-344.68 2082,-327 2088.62,-315.43 2089.85,-307.78 2082,-297 2025.64,-219.64 1971.09,-248.56 1877,-231 1722.22,-202.11 1243.25,-187.1 1071.27,-182.54"/>
<polygon fill="#63b8ff" stroke="#63b8ff" points="2033.7,-361.43 2025.79,-368.48 2036.37,-367.9 2033.7,-361.43"/>
</g>
<!-- Node36&#45;&gt;Node4 -->
<g id="edge68" class="edge">
<title>Node36&#45;&gt;Node4</title>
<path fill="none" stroke="#63b8ff" d="M2152.78,-359.77C2140.78,-342.34 2120.44,-315.4 2098,-297 2050.02,-257.67 2034.76,-247.67 1975,-231 1804.05,-183.3 1256.83,-180.28 1071.24,-180.68"/>
<polygon fill="#63b8ff" stroke="#63b8ff" points="2150.06,-362.01 2158.54,-368.36 2155.88,-358.11 2150.06,-362.01"/>
</g>
<!-- Node36&#45;&gt;Node21 -->
<g id="edge69" class="edge">
<title>Node36&#45;&gt;Node21</title>
<path fill="none" stroke="#63b8ff" d="M2186.23,-362.91C2203.01,-352.28 2225.93,-337.75 2242.72,-327.12"/>
<polygon fill="#63b8ff" stroke="#63b8ff" points="2184.19,-360.06 2177.62,-368.37 2187.94,-365.97 2184.19,-360.06"/>
</g>
<!-- Node37&#45;&gt;Node4 -->
<g id="edge72" class="edge">
<title>Node37&#45;&gt;Node4</title>
<path fill="none" stroke="#63b8ff" d="M2145.07,-431.69C2238.26,-412.7 2392.39,-369.23 2334,-297 2253.7,-197.67 1322.5,-183.39 1071.18,-181.34"/>
<polygon fill="#63b8ff" stroke="#63b8ff" points="2144.27,-428.28 2135.14,-433.67 2145.63,-435.14 2144.27,-428.28"/>
</g>
<!-- Node37&#45;&gt;Node21 -->
<g id="edge73" class="edge">
<title>Node37&#45;&gt;Node21</title>
<path fill="none" stroke="#63b8ff" d="M2145.15,-438.71C2179.63,-433.06 2220.07,-420.51 2246,-393 2262.94,-375.03 2265.66,-344.81 2265.64,-327.11"/>
<polygon fill="#63b8ff" stroke="#63b8ff" points="2144.52,-435.27 2135.14,-440.19 2145.54,-442.19 2144.52,-435.27"/>
</g>
<!-- Node37&#45;&gt;Node22 -->
<g id="edge74" class="edge">
<title>Node37&#45;&gt;Node22</title>
<path fill="none" stroke="#63b8ff" d="M2014.9,-437.37C1924.66,-429.25 1756.56,-413.02 1614,-393 1460.08,-371.38 1278.66,-337.27 1197.29,-321.5"/>
<polygon fill="#63b8ff" stroke="#63b8ff" points="2014.71,-440.86 2024.98,-438.27 2015.33,-433.89 2014.71,-440.86"/>
</g>
<!-- Node37&#45;&gt;Node35 -->
<g id="edge75" class="edge">
<title>Node37&#45;&gt;Node35</title>
<path fill="none" stroke="#63b8ff" d="M2053.52,-422.58C2038.34,-410.87 2020.05,-396.77 2008.47,-387.84"/>
<polygon fill="#63b8ff" stroke="#63b8ff" points="2051.52,-425.46 2061.58,-428.8 2055.8,-419.92 2051.52,-425.46"/>
</g>
<!-- Node37&#45;&gt;Node36 -->
<g id="edge76" class="edge">
<title>Node37&#45;&gt;Node36</title>
<path fill="none" stroke="#63b8ff" d="M2106.79,-422.58C2122.16,-410.87 2140.67,-396.77 2152.39,-387.84"/>
<polygon fill="#63b8ff" stroke="#63b8ff" points="2104.48,-419.95 2098.64,-428.8 2108.72,-425.52 2104.48,-419.95"/>
</g>
</g>
</svg>
        <g id="navigator" transform="translate(0 0)" fill="#404254">
                <rect fill="#f2f5e9" fill-opacity="0.5" stroke="#606060" stroke-width=".5" x="0" y="0" width="60" height="60"/>
                <use id="zoomplus" xlink:href="#zoomPlus" x="17" y="9" onmousedown="handleZoom(evt,'in')"/>
                <use id="zoomminus" xlink:href="#zoomMin" x="42" y="9" onmousedown="handleZoom(evt,'out')"/>
                <use id="reset" xlink:href="#resetDef" x="30" y="36" onmousedown="handleReset()"/>
                <g id="arrowUp" xlink:href="#dirArrow" transform="translate(30 24)" onmousedown="handlePan(0,-1)">
                  <use xlink:href="#rim" fill="#404040">
                        <set attributeName="fill" to="#808080" begin="arrowUp.mouseover" end="arrowUp.mouseout"/>
                  </use>
                  <path fill="none" stroke="white" stroke-width="1.5" d="M0,-3.0v7 M-2.5,-0.5L0,-3.0L2.5,-0.5"/>
                </g>
                <g id="arrowRight" xlink:href="#dirArrow" transform="rotate(90) translate(36 -43)" onmousedown="handlePan(1,0)">
                  <use xlink:href="#rim" fill="#404040">
                        <set attributeName="fill" to="#808080" begin="arrowRight.mouseover" end="arrowRight.mouseout"/>
                  </use>
                  <path fill="none" stroke="white" stroke-width="1.5" d="M0,-3.0v7 M-2.5,-0.5L0,-3.0L2.5,-0.5"/>
                </g>
                <g id="arrowDown" xlink:href="#dirArrow" transform="rotate(180) translate(-30 -48)" onmousedown="handlePan(0,1)">
                  <use xlink:href="#rim" fill="#404040">
                        <set attributeName="fill" to="#808080" begin="arrowDown.mouseover" end="arrowDown.mouseout"/>
                  </use>
                  <path fill="none" stroke="white" stroke-width="1.5" d="M0,-3.0v7 M-2.5,-0.5L0,-3.0L2.5,-0.5"/>
                </g>
                <g id="arrowLeft" xlink:href="#dirArrow" transform="rotate(270) translate(-36 17)" onmousedown="handlePan(-1,0)">
                  <use xlink:href="#rim" fill="#404040">
                        <set attributeName="fill" to="#808080" begin="arrowLeft.mouseover" end="arrowLeft.mouseout"/>
                  </use>
                  <path fill="none" stroke="white" stroke-width="1.5" d="M0,-3.0v7 M-2.5,-0.5L0,-3.0L2.5,-0.5"/>
                </g>
        </g>
        <svg viewBox="0 0 15 15" width="100%" height="30px" preserveAspectRatio="xMaxYMin meet">
         <g id="arrow_out" transform="scale(0.3 0.3)">
          <a xlink:href="snapshot_8h__dep__incl_org.svg" target="_base">
           <rect id="button" ry="5" rx="5" y="6" x="6" height="38" width="38"
                fill="#f2f5e9" fill-opacity="0.5" stroke="#606060" stroke-width="1.0"/>
           <path id="arrow"
             d="M 11.500037,31.436501 C 11.940474,20.09759 22.043105,11.32322 32.158766,21.979434 L 37.068811,17.246167 C 37.068811,17.246167 37.088388,32 37.088388,32 L 22.160133,31.978069 C 22.160133,31.978069 26.997745,27.140456 26.997745,27.140456 C 18.528582,18.264221 13.291696,25.230495 11.500037,31.436501 z"
             style="fill:#404040;"/>
          </a>
         </g>
        </svg>
</svg>
