<?xml version="1.0" encoding="UTF-8" standalone="no"?>
<!DOCTYPE svg PUBLIC "-//W3C//DTD SVG 1.1//EN"
 "http://www.w3.org/Graphics/SVG/1.1/DTD/svg11.dtd">
<!-- Generated by graphviz version 2.43.0 (0)
 -->
<!-- Title: src/host/json_schema.h Pages: 1 -->
<svg width="1020pt" height="93pt"
 viewBox="0.00 0.00 1020.00 93.00" xmlns="http://www.w3.org/2000/svg" xmlns:xlink="http://www.w3.org/1999/xlink">
<g id="graph0" class="graph" transform="scale(1 1) rotate(0) translate(4 89)">
<title>src/host/json_schema.h</title>
<!-- Node1 -->
<g id="node1" class="node">
<title>Node1</title>
<g id="a_node1"><a xlink:title=" ">
<polygon fill="#999999" stroke="#666666" points="481.5,-85 350.5,-85 350.5,-66 481.5,-66 481.5,-85"/>
<text text-anchor="middle" x="416" y="-73" font-family="Helvetica,sans-Serif" font-size="10.00">src/host/json_schema.h</text>
</a>
</g>
</g>
<!-- Node2 -->
<g id="node2" class="node">
<title>Node2</title>
<g id="a_node2"><a xlink:title=" ">
<polygon fill="#e0e0e0" stroke="#999999" points="110,-24.5 0,-24.5 0,-5.5 110,-5.5 110,-24.5"/>
<text text-anchor="middle" x="55" y="-12.5" font-family="Helvetica,sans-Serif" font-size="10.00">nlohmann/json.hpp</text>
</a>
</g>
</g>
<!-- Node1&#45;&gt;Node2 -->
<g id="edge1" class="edge">
<title>Node1&#45;&gt;Node2</title>
<path fill="none" stroke="#63b8ff" d="M350.61,-65.98C290.29,-57.81 198.35,-44.61 119,-30 113.55,-29 107.85,-27.87 102.2,-26.7"/>
<polygon fill="#63b8ff" stroke="#63b8ff" points="102.65,-23.21 92.14,-24.56 101.2,-30.06 102.65,-23.21"/>
</g>
<!-- Node3 -->
<g id="node3" class="node">
<title>Node3</title>
<g id="a_node3"><a xlink:title=" ">
<polygon fill="#e0e0e0" stroke="#999999" points="184,-24.5 128,-24.5 128,-5.5 184,-5.5 184,-24.5"/>
<text text-anchor="middle" x="156" y="-12.5" font-family="Helvetica,sans-Serif" font-size="10.00">optional</text>
</a>
</g>
</g>
<!-- Node1&#45;&gt;Node3 -->
<g id="edge2" class="edge">
<title>Node1&#45;&gt;Node3</title>
<path fill="none" stroke="#63b8ff" d="M359.95,-65.95C314.48,-58.38 248.97,-46.06 193,-30 190.85,-29.38 188.66,-28.7 186.46,-27.97"/>
<polygon fill="#63b8ff" stroke="#63b8ff" points="187.52,-24.64 176.93,-24.6 185.19,-31.24 187.52,-24.64"/>
</g>
<!-- Node4 -->
<g id="node4" class="node">
<title>Node4</title>
<g id="a_node4"><a xlink:title=" ">
<polygon fill="#e0e0e0" stroke="#999999" points="246,-24.5 202,-24.5 202,-5.5 246,-5.5 246,-24.5"/>
<text text-anchor="middle" x="224" y="-12.5" font-family="Helvetica,sans-Serif" font-size="10.00">string</text>
</a>
</g>
</g>
<!-- Node1&#45;&gt;Node4 -->
<g id="edge3" class="edge">
<title>Node1&#45;&gt;Node4</title>
<path fill="none" stroke="#63b8ff" d="M378.72,-65.93C345.76,-57.95 296.59,-45.04 255,-30 253.78,-29.56 252.54,-29.09 251.3,-28.6"/>
<polygon fill="#63b8ff" stroke="#63b8ff" points="252.41,-25.27 241.84,-24.62 249.7,-31.73 252.41,-25.27"/>
</g>
<!-- Node5 -->
<g id="node5" class="node">
<title>Node5</title>
<g id="a_node5"><a xlink:title=" ">
<polygon fill="#e0e0e0" stroke="#999999" points="416,-30 264,-30 264,0 416,0 416,-30"/>
<text text-anchor="start" x="272" y="-18" font-family="Helvetica,sans-Serif" font-size="10.00">valijson/adapters/nlohmann</text>
<text text-anchor="middle" x="340" y="-7" font-family="Helvetica,sans-Serif" font-size="10.00">_json_adapter.hpp</text>
</a>
</g>
</g>
<!-- Node1&#45;&gt;Node5 -->
<g id="edge4" class="edge">
<title>Node1&#45;&gt;Node5</title>
<path fill="none" stroke="#63b8ff" d="M404.79,-65.87C394.76,-58.15 379.67,-46.54 366.58,-36.46"/>
<polygon fill="#63b8ff" stroke="#63b8ff" points="368.4,-33.44 358.34,-30.11 364.13,-38.99 368.4,-33.44"/>
</g>
<!-- Node6 -->
<g id="node6" class="node">
<title>Node6</title>
<g id="a_node6"><a xlink:title=" ">
<polygon fill="#e0e0e0" stroke="#999999" points="551.5,-24.5 434.5,-24.5 434.5,-5.5 551.5,-5.5 551.5,-24.5"/>
<text text-anchor="middle" x="493" y="-12.5" font-family="Helvetica,sans-Serif" font-size="10.00">valijson/schema.hpp</text>
</a>
</g>
</g>
<!-- Node1&#45;&gt;Node6 -->
<g id="edge5" class="edge">
<title>Node1&#45;&gt;Node6</title>
<path fill="none" stroke="#63b8ff" d="M427.36,-65.87C439.42,-56.71 458.7,-42.06 473.25,-31.01"/>
<polygon fill="#63b8ff" stroke="#63b8ff" points="475.75,-33.5 481.59,-24.67 471.51,-27.93 475.75,-33.5"/>
</g>
<!-- Node7 -->
<g id="node7" class="node">
<title>Node7</title>
<g id="a_node7"><a xlink:title=" ">
<polygon fill="#e0e0e0" stroke="#999999" points="722,-24.5 570,-24.5 570,-5.5 722,-5.5 722,-24.5"/>
<text text-anchor="middle" x="646" y="-12.5" font-family="Helvetica,sans-Serif" font-size="10.00">valijson/schema_parser.hpp</text>
</a>
</g>
</g>
<!-- Node1&#45;&gt;Node7 -->
<g id="edge6" class="edge">
<title>Node1&#45;&gt;Node7</title>
<path fill="none" stroke="#63b8ff" d="M449.44,-65.99C489.9,-55.7 558.1,-38.36 602.58,-27.04"/>
<polygon fill="#63b8ff" stroke="#63b8ff" points="603.69,-30.37 612.52,-24.52 601.96,-23.59 603.69,-30.37"/>
</g>
<!-- Node8 -->
<g id="node8" class="node">
<title>Node8</title>
<g id="a_node8"><a xlink:title=" ">
<polygon fill="#e0e0e0" stroke="#999999" points="871.5,-30 740.5,-30 740.5,0 871.5,0 871.5,-30"/>
<text text-anchor="start" x="748.5" y="-18" font-family="Helvetica,sans-Serif" font-size="10.00">valijson/utils/nlohmann</text>
<text text-anchor="middle" x="806" y="-7" font-family="Helvetica,sans-Serif" font-size="10.00">_json_utils.hpp</text>
</a>
</g>
</g>
<!-- Node1&#45;&gt;Node8 -->
<g id="edge7" class="edge">
<title>Node1&#45;&gt;Node8</title>
<path fill="none" stroke="#63b8ff" d="M481.59,-66.09C543.15,-58.01 638.06,-45.04 730.13,-30.1"/>
<polygon fill="#63b8ff" stroke="#63b8ff" points="730.87,-33.52 740.18,-28.46 729.75,-26.61 730.87,-33.52"/>
</g>
<!-- Node9 -->
<g id="node9" class="node">
<title>Node9</title>
<g id="a_node9"><a xlink:title=" ">
<polygon fill="#e0e0e0" stroke="#999999" points="1012,-24.5 890,-24.5 890,-5.5 1012,-5.5 1012,-24.5"/>
<text text-anchor="middle" x="951" y="-12.5" font-family="Helvetica,sans-Serif" font-size="10.00">valijson/validator.hpp</text>
</a>
</g>
</g>
<!-- Node1&#45;&gt;Node9 -->
<g id="edge8" class="edge">
<title>Node1&#45;&gt;Node9</title>
<path fill="none" stroke="#63b8ff" d="M481.71,-70.33C572.01,-64.12 739.39,-50.88 881,-30 887.75,-29 894.84,-27.79 901.81,-26.49"/>
<polygon fill="#63b8ff" stroke="#63b8ff" points="902.72,-29.88 911.88,-24.56 901.4,-23.01 902.72,-29.88"/>
</g>
</g>
</svg>
