<?xml version="1.0" encoding="UTF-8" standalone="no"?>
<!DOCTYPE svg PUBLIC "-//W3C//DTD SVG 1.1//EN"
 "http://www.w3.org/Graphics/SVG/1.1/DTD/svg11.dtd">
<!-- Generated by graphviz version 2.43.0 (0)
 -->
<!-- Title: src/endpoints/grpc/status.h Pages: 1 -->
<svg width="494pt" height="203pt"
 viewBox="0.00 0.00 493.50 203.00" xmlns="http://www.w3.org/2000/svg" xmlns:xlink="http://www.w3.org/1999/xlink">
<g id="graph0" class="graph" transform="scale(1 1) rotate(0) translate(4 199)">
<title>src/endpoints/grpc/status.h</title>
<!-- Node1 -->
<g id="node1" class="node">
<title>Node1</title>
<g id="a_node1"><a xlink:title=" ">
<polygon fill="#999999" stroke="#666666" points="396.5,-195 290.5,-195 290.5,-165 396.5,-165 396.5,-195"/>
<text text-anchor="start" x="298.5" y="-183" font-family="Helvetica,sans-Serif" font-size="10.00">src/endpoints/grpc</text>
<text text-anchor="middle" x="343.5" y="-172" font-family="Helvetica,sans-Serif" font-size="10.00">/status.h</text>
</a>
</g>
</g>
<!-- Node2 -->
<g id="node2" class="node">
<title>Node2</title>
<g id="a_node2"><a xlink:href="grpc__status_8h.html" target="_top" xlink:title=" ">
<polygon fill="white" stroke="#666666" points="253.5,-129 171.5,-129 171.5,-110 253.5,-110 253.5,-129"/>
<text text-anchor="middle" x="212.5" y="-117" font-family="Helvetica,sans-Serif" font-size="10.00">grpc_status.h</text>
</a>
</g>
</g>
<!-- Node1&#45;&gt;Node2 -->
<g id="edge1" class="edge">
<title>Node1&#45;&gt;Node2</title>
<path fill="none" stroke="#63b8ff" d="M312.12,-164.99C290.56,-155.36 262.15,-142.67 241.19,-133.31"/>
<polygon fill="#63b8ff" stroke="#63b8ff" points="242.4,-130.02 231.85,-129.14 239.55,-136.41 242.4,-130.02"/>
</g>
<!-- Node6 -->
<g id="node6" class="node">
<title>Node6</title>
<g id="a_node6"><a xlink:title=" ">
<polygon fill="#e0e0e0" stroke="#999999" points="295.5,-19 251.5,-19 251.5,0 295.5,0 295.5,-19"/>
<text text-anchor="middle" x="273.5" y="-7" font-family="Helvetica,sans-Serif" font-size="10.00">string</text>
</a>
</g>
</g>
<!-- Node1&#45;&gt;Node6 -->
<g id="edge9" class="edge">
<title>Node1&#45;&gt;Node6</title>
<path fill="none" stroke="#63b8ff" d="M337.65,-164.92C325.02,-134.52 295.2,-62.73 281.11,-28.83"/>
<polygon fill="#63b8ff" stroke="#63b8ff" points="284.21,-27.15 277.14,-19.25 277.74,-29.83 284.21,-27.15"/>
</g>
<!-- Node7 -->
<g id="node7" class="node">
<title>Node7</title>
<g id="a_node7"><a xlink:title=" ">
<polygon fill="#e0e0e0" stroke="#999999" points="411,-129 340,-129 340,-110 411,-110 411,-129"/>
<text text-anchor="middle" x="375.5" y="-117" font-family="Helvetica,sans-Serif" font-size="10.00">status.pb.h</text>
</a>
</g>
</g>
<!-- Node1&#45;&gt;Node7 -->
<g id="edge7" class="edge">
<title>Node1&#45;&gt;Node7</title>
<path fill="none" stroke="#63b8ff" d="M351.25,-164.84C355.65,-156.78 361.21,-146.62 365.9,-138.06"/>
<polygon fill="#63b8ff" stroke="#63b8ff" points="368.98,-139.72 370.7,-129.27 362.84,-136.36 368.98,-139.72"/>
</g>
<!-- Node8 -->
<g id="node8" class="node">
<title>Node8</title>
<g id="a_node8"><a xlink:title=" ">
<polygon fill="#e0e0e0" stroke="#999999" points="485.5,-129 429.5,-129 429.5,-110 485.5,-110 485.5,-129"/>
<text text-anchor="middle" x="457.5" y="-117" font-family="Helvetica,sans-Serif" font-size="10.00">optional</text>
</a>
</g>
</g>
<!-- Node1&#45;&gt;Node8 -->
<g id="edge8" class="edge">
<title>Node1&#45;&gt;Node8</title>
<path fill="none" stroke="#63b8ff" d="M370.81,-164.99C389.15,-155.58 413.18,-143.24 431.29,-133.95"/>
<polygon fill="#63b8ff" stroke="#63b8ff" points="433.37,-136.82 440.66,-129.14 430.17,-130.59 433.37,-136.82"/>
</g>
<!-- Node3 -->
<g id="node3" class="node">
<title>Node3</title>
<g id="a_node3"><a xlink:href="http__consts_8h.html" target="_top" xlink:title=" ">
<polygon fill="white" stroke="#666666" points="99,-74 0,-74 0,-55 99,-55 99,-74"/>
<text text-anchor="middle" x="49.5" y="-62" font-family="Helvetica,sans-Serif" font-size="10.00">ccf/http_consts.h</text>
</a>
</g>
</g>
<!-- Node2&#45;&gt;Node3 -->
<g id="edge2" class="edge">
<title>Node2&#45;&gt;Node3</title>
<path fill="none" stroke="#63b8ff" d="M186.31,-109.98C159.06,-101.13 116.2,-87.19 85.72,-77.28"/>
<polygon fill="#63b8ff" stroke="#63b8ff" points="86.49,-73.85 75.89,-74.08 84.32,-80.5 86.49,-73.85"/>
</g>
<!-- Node4 -->
<g id="node4" class="node">
<title>Node4</title>
<g id="a_node4"><a xlink:href="http__header__map_8h.html" target="_top" xlink:title=" ">
<polygon fill="white" stroke="#666666" points="245.5,-74 117.5,-74 117.5,-55 245.5,-55 245.5,-74"/>
<text text-anchor="middle" x="181.5" y="-62" font-family="Helvetica,sans-Serif" font-size="10.00">ccf/http_header_map.h</text>
</a>
</g>
</g>
<!-- Node2&#45;&gt;Node4 -->
<g id="edge3" class="edge">
<title>Node2&#45;&gt;Node4</title>
<path fill="none" stroke="#63b8ff" d="M207.38,-109.75C203.14,-102.49 196.97,-91.95 191.72,-82.98"/>
<polygon fill="#63b8ff" stroke="#63b8ff" points="194.59,-80.95 186.52,-74.09 188.55,-84.49 194.59,-80.95"/>
</g>
<!-- Node2&#45;&gt;Node6 -->
<g id="edge6" class="edge">
<title>Node2&#45;&gt;Node6</title>
<path fill="none" stroke="#63b8ff" d="M223.29,-109.68C232.78,-101.39 246.32,-88.17 254.5,-74 262.51,-60.13 267.43,-42.56 270.25,-29.43"/>
<polygon fill="#63b8ff" stroke="#63b8ff" points="273.76,-29.71 272.21,-19.22 266.88,-28.38 273.76,-29.71"/>
</g>
<!-- Node5 -->
<g id="node5" class="node">
<title>Node5</title>
<g id="a_node5"><a xlink:title=" ">
<polygon fill="#e0e0e0" stroke="#999999" points="200.5,-19 162.5,-19 162.5,0 200.5,0 200.5,-19"/>
<text text-anchor="middle" x="181.5" y="-7" font-family="Helvetica,sans-Serif" font-size="10.00">map</text>
</a>
</g>
</g>
<!-- Node4&#45;&gt;Node5 -->
<g id="edge4" class="edge">
<title>Node4&#45;&gt;Node5</title>
<path fill="none" stroke="#63b8ff" d="M181.5,-54.75C181.5,-47.8 181.5,-37.85 181.5,-29.13"/>
<polygon fill="#63b8ff" stroke="#63b8ff" points="185,-29.09 181.5,-19.09 178,-29.09 185,-29.09"/>
</g>
<!-- Node4&#45;&gt;Node6 -->
<g id="edge5" class="edge">
<title>Node4&#45;&gt;Node6</title>
<path fill="none" stroke="#63b8ff" d="M196.28,-54.98C210.68,-46.69 232.81,-33.94 249.69,-24.22"/>
<polygon fill="#63b8ff" stroke="#63b8ff" points="251.53,-27.19 258.45,-19.17 248.04,-21.13 251.53,-27.19"/>
</g>
</g>
</svg>
