<?xml version="1.0" encoding="UTF-8" standalone="no"?>
<!DOCTYPE svg PUBLIC "-//W3C//DTD SVG 1.1//EN"
 "http://www.w3.org/Graphics/SVG/1.1/DTD/svg11.dtd">
<!-- Generated by graphviz version 2.43.0 (0)
 -->
<!-- Title: ccf::js::HistoricalStateContext Pages: 1 -->
<!--zoomable 405 -->
<svg id="main" version="1.1" xmlns="http://www.w3.org/2000/svg" xmlns:xlink="http://www.w3.org/1999/xlink" xml:space="preserve" onload="init(evt)">
<style type="text/css"><![CDATA[
.edge:hover path { stroke: red; }
.edge:hover polygon { stroke: red; fill: red; }
]]></style>
<script type="text/javascript"><![CDATA[
var edges = document.getElementsByTagName('g');
if (edges && edges.length) {
  for (var i=0;i<edges.length;i++) {
    if (edges[i].id.substr(0,4)=='edge') {
      edges[i].setAttribute('class','edge');
    }
  }
}
]]></script>
        <defs>
                <circle id="rim" cx="0" cy="0" r="7"/>
                <circle id="rim2" cx="0" cy="0" r="3.5"/>
                <g id="zoomPlus">
                        <use xlink:href="#rim" fill="#404040">
                                <set attributeName="fill" to="#808080" begin="zoomplus.mouseover" end="zoomplus.mouseout"/>
                        </use>
                        <path d="M-4,0h8M0,-4v8" fill="none" stroke="white" stroke-width="1.5" pointer-events="none"/>
                </g>
                <g id="zoomMin">
                        <use xlink:href="#rim" fill="#404040">
                                <set attributeName="fill" to="#808080" begin="zoomminus.mouseover" end="zoomminus.mouseout"/>
                        </use>
                        <path d="M-4,0h8" fill="none" stroke="white" stroke-width="1.5" pointer-events="none"/>
                </g>
                <g id="dirArrow">
                        <path fill="none" stroke="white" stroke-width="1.5" d="M0,-3.0v7 M-2.5,-0.5L0,-3.0L2.5,-0.5"/>
                </g>
               <g id="resetDef">
                       <use xlink:href="#rim2" fill="#404040">
                               <set attributeName="fill" to="#808080" begin="reset.mouseover" end="reset.mouseout"/>
                       </use>
               </g>
        </defs>

<script type="text/javascript">
var viewWidth = 2249;
var viewHeight = 405;
var sectionId = 'dynsection-0';
</script>
<script xlink:href="svgpan.js"/>
<svg id="graph" class="graph">
<g id="viewport">
<title>ccf::js::HistoricalStateContext</title>
<!-- Node1 -->
<g id="node1" class="node">
<title>Node1</title>
<g id="a_node1"><a xlink:title=" ">
<polygon fill="#999999" stroke="#666666" points="2241,-181.5 2119,-181.5 2119,-151.5 2241,-151.5 2241,-181.5"/>
<text text-anchor="start" x="2127" y="-169.5" font-family="Helvetica,sans-Serif" font-size="10.00">ccf::js::HistoricalState</text>
<text text-anchor="middle" x="2180" y="-158.5" font-family="Helvetica,sans-Serif" font-size="10.00">Context</text>
</a>
</g>
</g>
<!-- Node2 -->
<g id="node2" class="node">
<title>Node2</title>
<g id="a_node2"><a xlink:title=" ">
<polygon fill="white" stroke="#666666" points="2043.5,-215 1906.5,-215 1906.5,-196 2043.5,-196 2043.5,-215"/>
<text text-anchor="middle" x="1975" y="-203" font-family="Helvetica,sans-Serif" font-size="10.00">std::shared_ptr&lt; State &gt;</text>
</a>
</g>
</g>
<!-- Node2&#45;&gt;Node1 -->
<g id="edge1" class="edge">
<title>Node2&#45;&gt;Node1</title>
<path fill="none" stroke="#9a32cd" stroke-dasharray="5,2" d="M2035.8,-194.01C2061.9,-189 2092.46,-183.13 2118.63,-178.1"/>
<polygon fill="#9a32cd" stroke="#9a32cd" points="2034.82,-190.64 2025.66,-195.96 2036.14,-197.51 2034.82,-190.64"/>
<text text-anchor="middle" x="2084" y="-189.5" font-family="Helvetica,sans-Serif" font-size="10.00"> state</text>
</g>
<!-- Node3 -->
<g id="node3" class="node">
<title>Node3</title>
<g id="a_node3"><a xlink:href="classkv_1_1ReadOnlyTx.html" target="_top" xlink:title=" ">
<polygon fill="white" stroke="#666666" points="1852,-163 1759,-163 1759,-144 1852,-144 1852,-163"/>
<text text-anchor="middle" x="1805.5" y="-151" font-family="Helvetica,sans-Serif" font-size="10.00">kv::ReadOnlyTx</text>
</a>
</g>
</g>
<!-- Node3&#45;&gt;Node1 -->
<g id="edge2" class="edge">
<title>Node3&#45;&gt;Node1</title>
<path fill="none" stroke="#9a32cd" stroke-dasharray="5,2" d="M1862.4,-155.45C1931.3,-157.86 2047.93,-161.93 2118.76,-164.4"/>
<polygon fill="#9a32cd" stroke="#9a32cd" points="1862.29,-151.95 1852.18,-155.09 1862.05,-158.94 1862.29,-151.95"/>
<text text-anchor="middle" x="1975" y="-164.5" font-family="Helvetica,sans-Serif" font-size="10.00"> tx</text>
</g>
<!-- Node27 -->
<g id="node27" class="node">
<title>Node27</title>
<g id="a_node27"><a xlink:href="structccf_1_1js_1_1ReadOnlyTxContext.html" target="_top" xlink:title=" ">
<polygon fill="white" stroke="#666666" points="2049,-130 1901,-130 1901,-111 2049,-111 2049,-130"/>
<text text-anchor="middle" x="1975" y="-118" font-family="Helvetica,sans-Serif" font-size="10.00">ccf::js::ReadOnlyTxContext</text>
</a>
</g>
</g>
<!-- Node3&#45;&gt;Node27 -->
<g id="edge31" class="edge">
<title>Node3&#45;&gt;Node27</title>
<path fill="none" stroke="#9a32cd" stroke-dasharray="5,2" d="M1862.13,-142.54C1882.68,-138.49 1905.79,-133.94 1925.65,-130.03"/>
<polygon fill="#9a32cd" stroke="#9a32cd" points="1861.4,-139.12 1852.27,-144.48 1862.76,-145.98 1861.4,-139.12"/>
<text text-anchor="middle" x="1876.5" y="-143.5" font-family="Helvetica,sans-Serif" font-size="10.00"> tx</text>
</g>
<!-- Node4 -->
<g id="node4" class="node">
<title>Node4</title>
<g id="a_node4"><a xlink:href="classkv_1_1BaseTx.html" target="_top" xlink:title=" ">
<polygon fill="white" stroke="#666666" points="1722,-163 1652,-163 1652,-144 1722,-144 1722,-163"/>
<text text-anchor="middle" x="1687" y="-151" font-family="Helvetica,sans-Serif" font-size="10.00">kv::BaseTx</text>
</a>
</g>
</g>
<!-- Node4&#45;&gt;Node3 -->
<g id="edge3" class="edge">
<title>Node4&#45;&gt;Node3</title>
<path fill="none" stroke="#63b8ff" d="M1732.07,-153.5C1740.87,-153.5 1750.12,-153.5 1758.97,-153.5"/>
<polygon fill="#63b8ff" stroke="#63b8ff" points="1732.01,-150 1722.01,-153.5 1732.01,-157 1732.01,-150"/>
</g>
<!-- Node5 -->
<g id="node5" class="node">
<title>Node5</title>
<g id="a_node5"><a xlink:title=" ">
<polygon fill="white" stroke="#666666" points="1585,-131.5 1453,-131.5 1453,-101.5 1585,-101.5 1585,-131.5"/>
<text text-anchor="start" x="1461" y="-119.5" font-family="Helvetica,sans-Serif" font-size="10.00">std::unique_ptr&lt; kv</text>
<text text-anchor="middle" x="1519" y="-108.5" font-family="Helvetica,sans-Serif" font-size="10.00">::BaseTx::PrivateImpl &gt;</text>
</a>
</g>
</g>
<!-- Node5&#45;&gt;Node4 -->
<g id="edge4" class="edge">
<title>Node5&#45;&gt;Node4</title>
<path fill="none" stroke="#9a32cd" stroke-dasharray="5,2" d="M1595.07,-133.23C1614.83,-137.64 1635.2,-142.18 1651.63,-145.84"/>
<polygon fill="#9a32cd" stroke="#9a32cd" points="1595.65,-129.78 1585.13,-131.02 1594.13,-136.61 1595.65,-129.78"/>
<text text-anchor="middle" x="1618.5" y="-144.5" font-family="Helvetica,sans-Serif" font-size="10.00"> pimpl</text>
</g>
<!-- Node6 -->
<g id="node6" class="node">
<title>Node6</title>
<g id="a_node6"><a xlink:href="structkv_1_1BaseTx_1_1PrivateImpl.html" target="_top" xlink:title=" ">
<polygon fill="white" stroke="#666666" points="1400,-88 1268,-88 1268,-69 1400,-69 1400,-88"/>
<text text-anchor="middle" x="1334" y="-76" font-family="Helvetica,sans-Serif" font-size="10.00">kv::BaseTx::PrivateImpl</text>
</a>
</g>
</g>
<!-- Node6&#45;&gt;Node5 -->
<g id="edge5" class="edge">
<title>Node6&#45;&gt;Node5</title>
<path fill="none" stroke="#9a32cd" stroke-dasharray="5,2" d="M1391.12,-90.15C1410.62,-94.2 1432.66,-98.78 1452.83,-102.97"/>
<polygon fill="#9a32cd" stroke="#9a32cd" points="1391.68,-86.7 1381.18,-88.09 1390.26,-93.55 1391.68,-86.7"/>
<text text-anchor="middle" x="1426.5" y="-101.5" font-family="Helvetica,sans-Serif" font-size="10.00"> ptr</text>
</g>
<!-- Node7 -->
<g id="node7" class="node">
<title>Node7</title>
<g id="a_node7"><a xlink:href="classkv_1_1AbstractStore.html" target="_top" xlink:title=" ">
<polygon fill="white" stroke="#666666" points="1148,-85 1048,-85 1048,-66 1148,-66 1148,-85"/>
<text text-anchor="middle" x="1098" y="-73" font-family="Helvetica,sans-Serif" font-size="10.00">kv::AbstractStore</text>
</a>
</g>
</g>
<!-- Node7&#45;&gt;Node6 -->
<g id="edge6" class="edge">
<title>Node7&#45;&gt;Node6</title>
<path fill="none" stroke="#9a32cd" stroke-dasharray="5,2" d="M1158.12,-76.26C1191.48,-76.69 1233.24,-77.22 1267.58,-77.66"/>
<polygon fill="#9a32cd" stroke="#9a32cd" points="1158.1,-72.76 1148.05,-76.13 1158.01,-79.76 1158.1,-72.76"/>
<text text-anchor="middle" x="1213.5" y="-79.5" font-family="Helvetica,sans-Serif" font-size="10.00"> store</text>
</g>
<!-- Node8 -->
<g id="node8" class="node">
<title>Node8</title>
<g id="a_node8"><a xlink:title=" ">
<polygon fill="white" stroke="#666666" points="502.5,-38.5 380.5,-38.5 380.5,-8.5 502.5,-8.5 502.5,-38.5"/>
<text text-anchor="start" x="388.5" y="-26.5" font-family="Helvetica,sans-Serif" font-size="10.00">std::map&lt; std::string,</text>
<text text-anchor="middle" x="441.5" y="-15.5" font-family="Helvetica,sans-Serif" font-size="10.00"> PossibleHandles &gt;</text>
</a>
</g>
</g>
<!-- Node8&#45;&gt;Node6 -->
<g id="edge7" class="edge">
<title>Node8&#45;&gt;Node6</title>
<path fill="none" stroke="#9a32cd" stroke-dasharray="5,2" d="M512.65,-23.5C561.3,-23.5 627.59,-23.5 686,-23.5 686,-23.5 686,-23.5 1099,-23.5 1177.46,-23.5 1266.88,-53.16 1308.85,-68.92"/>
<polygon fill="#9a32cd" stroke="#9a32cd" points="512.54,-20 502.54,-23.5 512.54,-27 512.54,-20"/>
<text text-anchor="middle" x="881" y="-26.5" font-family="Helvetica,sans-Serif" font-size="10.00"> all_handles</text>
</g>
<!-- Node9 -->
<g id="node9" class="node">
<title>Node9</title>
<g id="a_node9"><a xlink:title=" ">
<polygon fill="white" stroke="#666666" points="262,-98 197,-98 197,-79 262,-79 262,-98"/>
<text text-anchor="middle" x="229.5" y="-86" font-family="Helvetica,sans-Serif" font-size="10.00">std::string</text>
</a>
</g>
</g>
<!-- Node9&#45;&gt;Node8 -->
<g id="edge8" class="edge">
<title>Node9&#45;&gt;Node8</title>
<path fill="none" stroke="#9a32cd" stroke-dasharray="5,2" d="M247.05,-72.09C257.81,-62.43 272.65,-50.9 288,-44.5 316.98,-32.42 351.49,-27 380.34,-24.68"/>
<polygon fill="#9a32cd" stroke="#9a32cd" points="244.59,-69.6 239.68,-78.99 249.38,-74.71 244.59,-69.6"/>
<text text-anchor="middle" x="312.5" y="-47.5" font-family="Helvetica,sans-Serif" font-size="10.00"> keys</text>
</g>
<!-- Node13 -->
<g id="node13" class="node">
<title>Node13</title>
<g id="a_node13"><a xlink:title=" ">
<polygon fill="white" stroke="#666666" points="1159,-144 1037,-144 1037,-103 1159,-103 1159,-144"/>
<text text-anchor="start" x="1045" y="-132" font-family="Helvetica,sans-Serif" font-size="10.00">std::map&lt; std::string,</text>
<text text-anchor="start" x="1045" y="-121" font-family="Helvetica,sans-Serif" font-size="10.00"> std::shared_ptr&lt; kv</text>
<text text-anchor="middle" x="1098" y="-110" font-family="Helvetica,sans-Serif" font-size="10.00">::AbstractMap &gt; &gt;</text>
</a>
</g>
</g>
<!-- Node9&#45;&gt;Node13 -->
<g id="edge13" class="edge">
<title>Node9&#45;&gt;Node13</title>
<path fill="none" stroke="#9a32cd" stroke-dasharray="5,2" d="M272.01,-82.52C314.3,-76.95 381.82,-69.5 440.5,-69.5 440.5,-69.5 440.5,-69.5 882,-69.5 939.15,-69.5 1002.34,-87.67 1045.34,-102.93"/>
<polygon fill="#9a32cd" stroke="#9a32cd" points="271.53,-79.05 262.08,-83.85 272.46,-85.99 271.53,-79.05"/>
<text text-anchor="middle" x="687" y="-72.5" font-family="Helvetica,sans-Serif" font-size="10.00"> keys</text>
</g>
<!-- Node17 -->
<g id="node17" class="node">
<title>Node17</title>
<g id="a_node17"><a xlink:href="structkv_1_1GetName.html" target="_top" xlink:title=" ">
<polygon fill="white" stroke="#666666" points="481.5,-117 401.5,-117 401.5,-98 481.5,-98 481.5,-117"/>
<text text-anchor="middle" x="441.5" y="-105" font-family="Helvetica,sans-Serif" font-size="10.00">kv::GetName</text>
</a>
</g>
</g>
<!-- Node9&#45;&gt;Node17 -->
<g id="edge18" class="edge">
<title>Node9&#45;&gt;Node17</title>
<path fill="none" stroke="#9a32cd" stroke-dasharray="5,2" d="M272.49,-92.3C309.97,-95.69 364.47,-100.62 401.13,-103.94"/>
<polygon fill="#9a32cd" stroke="#9a32cd" points="272.67,-88.8 262.39,-91.39 272.04,-95.77 272.67,-88.8"/>
<text text-anchor="middle" x="312.5" y="-100.5" font-family="Helvetica,sans-Serif" font-size="10.00"> name</text>
</g>
<!-- Node18 -->
<g id="node18" class="node">
<title>Node18</title>
<g id="a_node18"><a xlink:title=" ">
<polygon fill="white" stroke="#666666" points="1395,-199.5 1273,-199.5 1273,-169.5 1395,-169.5 1395,-199.5"/>
<text text-anchor="start" x="1281" y="-187.5" font-family="Helvetica,sans-Serif" font-size="10.00">std::map&lt; std::string,</text>
<text text-anchor="middle" x="1334" y="-176.5" font-family="Helvetica,sans-Serif" font-size="10.00"> MapChanges &gt;</text>
</a>
</g>
</g>
<!-- Node9&#45;&gt;Node18 -->
<g id="edge20" class="edge">
<title>Node9&#45;&gt;Node18</title>
<path fill="none" stroke="#9a32cd" stroke-dasharray="5,2" d="M235.16,-108.28C246.88,-153.39 281.98,-264.27 355,-319.5 386.05,-342.98 401.57,-338.5 440.5,-338.5 440.5,-338.5 440.5,-338.5 1099,-338.5 1199.43,-338.5 1290.09,-238.3 1321.4,-199.55"/>
<polygon fill="#9a32cd" stroke="#9a32cd" points="238.49,-107.16 232.68,-98.3 231.7,-108.85 238.49,-107.16"/>
<text text-anchor="middle" x="784" y="-341.5" font-family="Helvetica,sans-Serif" font-size="10.00"> keys</text>
</g>
<!-- Node10 -->
<g id="node10" class="node">
<title>Node10</title>
<g id="a_node10"><a xlink:title=" ">
<polygon fill="white" stroke="#666666" points="104,-103.5 0,-103.5 0,-73.5 104,-73.5 104,-103.5"/>
<text text-anchor="start" x="8" y="-91.5" font-family="Helvetica,sans-Serif" font-size="10.00">std::basic_string&lt;</text>
<text text-anchor="middle" x="52" y="-80.5" font-family="Helvetica,sans-Serif" font-size="10.00"> Char &gt;</text>
</a>
</g>
</g>
<!-- Node10&#45;&gt;Node9 -->
<g id="edge9" class="edge">
<title>Node10&#45;&gt;Node9</title>
<path fill="none" stroke="#63b8ff" d="M114.28,-88.5C142.11,-88.5 173.85,-88.5 196.8,-88.5"/>
<polygon fill="#63b8ff" stroke="#63b8ff" points="114.23,-85 104.23,-88.5 114.23,-92 114.23,-85"/>
</g>
<!-- Node11 -->
<g id="node11" class="node">
<title>Node11</title>
<g id="a_node11"><a xlink:title=" ">
<polygon fill="white" stroke="#666666" points="270,-19 189,-19 189,0 270,0 270,-19"/>
<text text-anchor="middle" x="229.5" y="-7" font-family="Helvetica,sans-Serif" font-size="10.00">std::list&lt; T &gt;</text>
</a>
</g>
</g>
<!-- Node11&#45;&gt;Node8 -->
<g id="edge10" class="edge">
<title>Node11&#45;&gt;Node8</title>
<path fill="none" stroke="#9a32cd" stroke-dasharray="5,2" d="M280.45,-8.78C298.31,-8.84 318.57,-9.26 337,-10.5 351.09,-11.45 366.21,-13.03 380.41,-14.76"/>
<polygon fill="#9a32cd" stroke="#9a32cd" points="280.24,-5.28 270.24,-8.78 280.24,-12.28 280.24,-5.28"/>
<text text-anchor="middle" x="312.5" y="-13.5" font-family="Helvetica,sans-Serif" font-size="10.00"> elements</text>
</g>
<!-- Node12 -->
<g id="node12" class="node">
<title>Node12</title>
<g id="a_node12"><a xlink:title=" ">
<polygon fill="white" stroke="#666666" points="66.5,-19 37.5,-19 37.5,0 66.5,0 66.5,-19"/>
<text text-anchor="middle" x="52" y="-7" font-family="Helvetica,sans-Serif" font-size="10.00">T</text>
</a>
</g>
</g>
<!-- Node12&#45;&gt;Node11 -->
<g id="edge11" class="edge">
<title>Node12&#45;&gt;Node11</title>
<path fill="none" stroke="#9a32cd" stroke-dasharray="5,2" d="M77.13,-9.5C105.96,-9.5 154.61,-9.5 188.96,-9.5"/>
<polygon fill="#9a32cd" stroke="#9a32cd" points="76.77,-6 66.77,-9.5 76.77,-13 76.77,-6"/>
<text text-anchor="middle" x="146.5" y="-12.5" font-family="Helvetica,sans-Serif" font-size="10.00"> elements</text>
</g>
<!-- Node13&#45;&gt;Node6 -->
<g id="edge12" class="edge">
<title>Node13&#45;&gt;Node6</title>
<path fill="none" stroke="#9a32cd" stroke-dasharray="5,2" d="M1169.44,-109.95C1206.26,-102.87 1250.43,-94.38 1283.59,-88"/>
<polygon fill="#9a32cd" stroke="#9a32cd" points="1168.42,-106.59 1159.26,-111.91 1169.74,-113.46 1168.42,-106.59"/>
<text text-anchor="middle" x="1213.5" y="-110.5" font-family="Helvetica,sans-Serif" font-size="10.00"> created_maps</text>
</g>
<!-- Node14 -->
<g id="node14" class="node">
<title>Node14</title>
<g id="a_node14"><a xlink:title=" ">
<polygon fill="white" stroke="#666666" points="937.5,-160.5 824.5,-160.5 824.5,-130.5 937.5,-130.5 937.5,-160.5"/>
<text text-anchor="start" x="832.5" y="-148.5" font-family="Helvetica,sans-Serif" font-size="10.00">std::shared_ptr&lt; kv</text>
<text text-anchor="middle" x="881" y="-137.5" font-family="Helvetica,sans-Serif" font-size="10.00">::AbstractMap &gt;</text>
</a>
</g>
</g>
<!-- Node14&#45;&gt;Node13 -->
<g id="edge14" class="edge">
<title>Node14&#45;&gt;Node13</title>
<path fill="none" stroke="#9a32cd" stroke-dasharray="5,2" d="M947.85,-138.76C976.16,-135.87 1009.02,-132.5 1036.68,-129.67"/>
<polygon fill="#9a32cd" stroke="#9a32cd" points="947.24,-135.31 937.65,-139.81 947.95,-142.27 947.24,-135.31"/>
<text text-anchor="middle" x="992" y="-138.5" font-family="Helvetica,sans-Serif" font-size="10.00"> elements</text>
</g>
<!-- Node19 -->
<g id="node19" class="node">
<title>Node19</title>
<g id="a_node19"><a xlink:href="structkv_1_1MapChanges.html" target="_top" xlink:title=" ">
<polygon fill="white" stroke="#666666" points="1146.5,-194 1049.5,-194 1049.5,-175 1146.5,-175 1146.5,-194"/>
<text text-anchor="middle" x="1098" y="-182" font-family="Helvetica,sans-Serif" font-size="10.00">kv::MapChanges</text>
</a>
</g>
</g>
<!-- Node14&#45;&gt;Node19 -->
<g id="edge22" class="edge">
<title>Node14&#45;&gt;Node19</title>
<path fill="none" stroke="#9a32cd" stroke-dasharray="5,2" d="M947.61,-157.4C980.39,-163.35 1019.34,-170.41 1049.24,-175.84"/>
<polygon fill="#9a32cd" stroke="#9a32cd" points="948.11,-153.94 937.65,-155.59 946.86,-160.82 948.11,-153.94"/>
<text text-anchor="middle" x="992" y="-172.5" font-family="Helvetica,sans-Serif" font-size="10.00"> map</text>
</g>
<!-- Node15 -->
<g id="node15" class="node">
<title>Node15</title>
<g id="a_node15"><a xlink:href="classkv_1_1AbstractMap.html" target="_top" xlink:title=" ">
<polygon fill="white" stroke="#666666" points="734.5,-155 639.5,-155 639.5,-136 734.5,-136 734.5,-155"/>
<text text-anchor="middle" x="687" y="-143" font-family="Helvetica,sans-Serif" font-size="10.00">kv::AbstractMap</text>
</a>
</g>
</g>
<!-- Node15&#45;&gt;Node14 -->
<g id="edge15" class="edge">
<title>Node15&#45;&gt;Node14</title>
<path fill="none" stroke="#9a32cd" stroke-dasharray="5,2" d="M745.06,-145.5C770.11,-145.5 799.41,-145.5 824.31,-145.5"/>
<polygon fill="#9a32cd" stroke="#9a32cd" points="744.97,-142 734.97,-145.5 744.97,-149 744.97,-142"/>
<text text-anchor="middle" x="784" y="-148.5" font-family="Helvetica,sans-Serif" font-size="10.00"> ptr</text>
</g>
<!-- Node16 -->
<g id="node16" class="node">
<title>Node16</title>
<g id="a_node16"><a xlink:title=" ">
<polygon fill="white" stroke="#666666" points="517.5,-165.5 365.5,-165.5 365.5,-135.5 517.5,-135.5 517.5,-165.5"/>
<text text-anchor="start" x="373.5" y="-153.5" font-family="Helvetica,sans-Serif" font-size="10.00">std::enable_shared</text>
<text text-anchor="middle" x="441.5" y="-142.5" font-family="Helvetica,sans-Serif" font-size="10.00">_from_this&lt; AbstractMap &gt;</text>
</a>
</g>
</g>
<!-- Node16&#45;&gt;Node15 -->
<g id="edge16" class="edge">
<title>Node16&#45;&gt;Node15</title>
<path fill="none" stroke="#63b8ff" d="M527.94,-148.75C565.3,-147.98 607.68,-147.11 639.15,-146.46"/>
<polygon fill="#63b8ff" stroke="#63b8ff" points="527.47,-145.25 517.54,-148.96 527.61,-152.25 527.47,-145.25"/>
</g>
<!-- Node17&#45;&gt;Node15 -->
<g id="edge17" class="edge">
<title>Node17&#45;&gt;Node15</title>
<path fill="none" stroke="#63b8ff" d="M491.61,-115.16C534.77,-121.9 597.12,-131.63 639.48,-138.24"/>
<polygon fill="#63b8ff" stroke="#63b8ff" points="492.04,-111.69 481.62,-113.61 490.96,-118.61 492.04,-111.69"/>
</g>
<!-- Node18&#45;&gt;Node4 -->
<g id="edge19" class="edge">
<title>Node18&#45;&gt;Node4</title>
<path fill="none" stroke="#9a32cd" stroke-dasharray="5,2" d="M1405.61,-178.26C1480.36,-171.66 1595.22,-161.52 1651.92,-156.51"/>
<polygon fill="#9a32cd" stroke="#9a32cd" points="1404.99,-174.8 1395.34,-179.17 1405.61,-181.78 1404.99,-174.8"/>
<text text-anchor="middle" x="1519" y="-176.5" font-family="Helvetica,sans-Serif" font-size="10.00"> all_changes</text>
</g>
<!-- Node19&#45;&gt;Node18 -->
<g id="edge21" class="edge">
<title>Node19&#45;&gt;Node18</title>
<path fill="none" stroke="#9a32cd" stroke-dasharray="5,2" d="M1156.79,-184.5C1192.11,-184.5 1237.2,-184.5 1272.93,-184.5"/>
<polygon fill="#9a32cd" stroke="#9a32cd" points="1156.64,-181 1146.64,-184.5 1156.64,-188 1156.64,-181"/>
<text text-anchor="middle" x="1213.5" y="-187.5" font-family="Helvetica,sans-Serif" font-size="10.00"> elements</text>
</g>
<!-- Node20 -->
<g id="node20" class="node">
<title>Node20</title>
<g id="a_node20"><a xlink:title=" ">
<polygon fill="white" stroke="#666666" points="947,-232.5 815,-232.5 815,-202.5 947,-202.5 947,-232.5"/>
<text text-anchor="start" x="823" y="-220.5" font-family="Helvetica,sans-Serif" font-size="10.00">std::unique_ptr&lt; kv</text>
<text text-anchor="middle" x="881" y="-209.5" font-family="Helvetica,sans-Serif" font-size="10.00">::untyped::ChangeSet &gt;</text>
</a>
</g>
</g>
<!-- Node20&#45;&gt;Node19 -->
<g id="edge23" class="edge">
<title>Node20&#45;&gt;Node19</title>
<path fill="none" stroke="#9a32cd" stroke-dasharray="5,2" d="M957.29,-205.94C987.83,-201.26 1022.2,-195.98 1049.2,-191.84"/>
<polygon fill="#9a32cd" stroke="#9a32cd" points="956.44,-202.53 947.09,-207.51 957.51,-209.45 956.44,-202.53"/>
<text text-anchor="middle" x="992" y="-206.5" font-family="Helvetica,sans-Serif" font-size="10.00"> changeset</text>
</g>
<!-- Node21 -->
<g id="node21" class="node">
<title>Node21</title>
<g id="a_node21"><a xlink:href="structkv_1_1untyped_1_1ChangeSet.html" target="_top" xlink:title=" ">
<polygon fill="white" stroke="#666666" points="753,-240 621,-240 621,-221 753,-221 753,-240"/>
<text text-anchor="middle" x="687" y="-228" font-family="Helvetica,sans-Serif" font-size="10.00">kv::untyped::ChangeSet</text>
</a>
</g>
</g>
<!-- Node21&#45;&gt;Node20 -->
<g id="edge24" class="edge">
<title>Node21&#45;&gt;Node20</title>
<path fill="none" stroke="#9a32cd" stroke-dasharray="5,2" d="M763.42,-225.39C780.38,-224.25 798.24,-223.04 814.74,-221.92"/>
<polygon fill="#9a32cd" stroke="#9a32cd" points="762.74,-221.93 753,-226.1 763.22,-228.92 762.74,-221.93"/>
<text text-anchor="middle" x="784" y="-227.5" font-family="Helvetica,sans-Serif" font-size="10.00"> ptr</text>
</g>
<!-- Node22 -->
<g id="node22" class="node">
<title>Node22</title>
<g id="a_node22"><a xlink:href="classkv_1_1AbstractChangeSet.html" target="_top" xlink:title=" ">
<polygon fill="white" stroke="#666666" points="505,-240 378,-240 378,-221 505,-221 505,-240"/>
<text text-anchor="middle" x="441.5" y="-228" font-family="Helvetica,sans-Serif" font-size="10.00">kv::AbstractChangeSet</text>
</a>
</g>
</g>
<!-- Node22&#45;&gt;Node21 -->
<g id="edge25" class="edge">
<title>Node22&#45;&gt;Node21</title>
<path fill="none" stroke="#63b8ff" d="M515.41,-230.5C548.96,-230.5 588.43,-230.5 620.96,-230.5"/>
<polygon fill="#63b8ff" stroke="#63b8ff" points="515.21,-227 505.21,-230.5 515.21,-234 515.21,-227"/>
</g>
<!-- Node23 -->
<g id="node23" class="node">
<title>Node23</title>
<g id="a_node23"><a xlink:href="classchamp_1_1Map.html" target="_top" xlink:title=" ">
<polygon fill="white" stroke="#666666" points="507.5,-203 375.5,-203 375.5,-184 507.5,-184 507.5,-203"/>
<text text-anchor="middle" x="441.5" y="-191" font-family="Helvetica,sans-Serif" font-size="10.00">champ::Map&lt; K, V, H &gt;</text>
</a>
</g>
</g>
<!-- Node23&#45;&gt;Node21 -->
<g id="edge26" class="edge">
<title>Node23&#45;&gt;Node21</title>
<path fill="none" stroke="#9a32cd" stroke-dasharray="5,2" d="M517.92,-195.01C544.94,-196.52 575.5,-199.32 603,-204.5 622.89,-208.24 644.69,-215.19 660.96,-220.96"/>
<polygon fill="#9a32cd" stroke="#9a32cd" points="517.92,-191.51 507.76,-194.5 517.57,-198.5 517.92,-191.51"/>
<text text-anchor="middle" x="574.5" y="-218.5" font-family="Helvetica,sans-Serif" font-size="10.00"> committed</text>
<text text-anchor="middle" x="574.5" y="-207.5" font-family="Helvetica,sans-Serif" font-size="10.00">state</text>
</g>
<!-- Node24 -->
<g id="node24" class="node">
<title>Node24</title>
<g id="a_node24"><a xlink:title=" ">
<polygon fill="white" stroke="#666666" points="528,-396.5 355,-396.5 355,-366.5 528,-366.5 528,-396.5"/>
<text text-anchor="start" x="363" y="-384.5" font-family="Helvetica,sans-Serif" font-size="10.00">std::map&lt; K, std::tuple</text>
<text text-anchor="middle" x="441.5" y="-373.5" font-family="Helvetica,sans-Serif" font-size="10.00">&lt; Version, LastReadVersion &gt; &gt;</text>
</a>
</g>
</g>
<!-- Node24&#45;&gt;Node21 -->
<g id="edge27" class="edge">
<title>Node24&#45;&gt;Node21</title>
<path fill="none" stroke="#9a32cd" stroke-dasharray="5,2" d="M475.45,-361.07C528.64,-328.08 631.42,-264.35 670.45,-240.14"/>
<polygon fill="#9a32cd" stroke="#9a32cd" points="473.39,-358.22 466.74,-366.47 477.08,-364.17 473.39,-358.22"/>
<text text-anchor="middle" x="574.5" y="-317.5" font-family="Helvetica,sans-Serif" font-size="10.00"> reads</text>
</g>
<!-- Node25 -->
<g id="node25" class="node">
<title>Node25</title>
<g id="a_node25"><a xlink:title=" ">
<polygon fill="white" stroke="#666666" points="244,-391 215,-391 215,-372 244,-372 244,-391"/>
<text text-anchor="middle" x="229.5" y="-379" font-family="Helvetica,sans-Serif" font-size="10.00">K</text>
</a>
</g>
</g>
<!-- Node25&#45;&gt;Node24 -->
<g id="edge28" class="edge">
<title>Node25&#45;&gt;Node24</title>
<path fill="none" stroke="#9a32cd" stroke-dasharray="5,2" d="M254.41,-381.5C278.92,-381.5 318.47,-381.5 354.82,-381.5"/>
<polygon fill="#9a32cd" stroke="#9a32cd" points="254.28,-378 244.28,-381.5 254.28,-385 254.28,-378"/>
<text text-anchor="middle" x="312.5" y="-384.5" font-family="Helvetica,sans-Serif" font-size="10.00"> keys</text>
</g>
<!-- Node26 -->
<g id="node26" class="node">
<title>Node26</title>
<g id="a_node26"><a xlink:title=" ">
<polygon fill="white" stroke="#666666" points="512,-310.5 371,-310.5 371,-258.5 512,-258.5 512,-310.5"/>
<text text-anchor="start" x="379" y="-298.5" font-family="Helvetica,sans-Serif" font-size="10.00">std::map&lt; kv::serialisers</text>
<text text-anchor="start" x="379" y="-287.5" font-family="Helvetica,sans-Serif" font-size="10.00">::SerialisedEntry, std</text>
<text text-anchor="start" x="379" y="-276.5" font-family="Helvetica,sans-Serif" font-size="10.00">::optional&lt; kv::serialisers</text>
<text text-anchor="middle" x="441.5" y="-265.5" font-family="Helvetica,sans-Serif" font-size="10.00">::SerialisedEntry &gt; &gt;</text>
</a>
</g>
</g>
<!-- Node26&#45;&gt;Node21 -->
<g id="edge29" class="edge">
<title>Node26&#45;&gt;Node21</title>
<path fill="none" stroke="#9a32cd" stroke-dasharray="5,2" d="M522.08,-266.85C562.33,-257.93 609.59,-247.45 643,-240.04"/>
<polygon fill="#9a32cd" stroke="#9a32cd" points="521.28,-263.44 512.28,-269.03 522.8,-270.28 521.28,-263.44"/>
<text text-anchor="middle" x="574.5" y="-263.5" font-family="Helvetica,sans-Serif" font-size="10.00"> writes</text>
</g>
<!-- Node27&#45;&gt;Node1 -->
<g id="edge30" class="edge">
<title>Node27&#45;&gt;Node1</title>
<path fill="none" stroke="#9a32cd" stroke-dasharray="5,2" d="M2053.73,-131.78C2069.46,-134.56 2085.83,-137.81 2101,-141.5 2112.47,-144.29 2124.7,-147.89 2135.99,-151.5"/>
<polygon fill="#9a32cd" stroke="#9a32cd" points="2053.95,-128.26 2043.5,-130.02 2052.77,-135.16 2053.95,-128.26"/>
<text text-anchor="middle" x="2084" y="-144.5" font-family="Helvetica,sans-Serif" font-size="10.00"> tx_ctx</text>
</g>
</g>
</svg>
        <g id="navigator" transform="translate(0 0)" fill="#404254">
                <rect fill="#f2f5e9" fill-opacity="0.5" stroke="#606060" stroke-width=".5" x="0" y="0" width="60" height="60"/>
                <use id="zoomplus" xlink:href="#zoomPlus" x="17" y="9" onmousedown="handleZoom(evt,'in')"/>
                <use id="zoomminus" xlink:href="#zoomMin" x="42" y="9" onmousedown="handleZoom(evt,'out')"/>
                <use id="reset" xlink:href="#resetDef" x="30" y="36" onmousedown="handleReset()"/>
                <g id="arrowUp" xlink:href="#dirArrow" transform="translate(30 24)" onmousedown="handlePan(0,-1)">
                  <use xlink:href="#rim" fill="#404040">
                        <set attributeName="fill" to="#808080" begin="arrowUp.mouseover" end="arrowUp.mouseout"/>
                  </use>
                  <path fill="none" stroke="white" stroke-width="1.5" d="M0,-3.0v7 M-2.5,-0.5L0,-3.0L2.5,-0.5"/>
                </g>
                <g id="arrowRight" xlink:href="#dirArrow" transform="rotate(90) translate(36 -43)" onmousedown="handlePan(1,0)">
                  <use xlink:href="#rim" fill="#404040">
                        <set attributeName="fill" to="#808080" begin="arrowRight.mouseover" end="arrowRight.mouseout"/>
                  </use>
                  <path fill="none" stroke="white" stroke-width="1.5" d="M0,-3.0v7 M-2.5,-0.5L0,-3.0L2.5,-0.5"/>
                </g>
                <g id="arrowDown" xlink:href="#dirArrow" transform="rotate(180) translate(-30 -48)" onmousedown="handlePan(0,1)">
                  <use xlink:href="#rim" fill="#404040">
                        <set attributeName="fill" to="#808080" begin="arrowDown.mouseover" end="arrowDown.mouseout"/>
                  </use>
                  <path fill="none" stroke="white" stroke-width="1.5" d="M0,-3.0v7 M-2.5,-0.5L0,-3.0L2.5,-0.5"/>
                </g>
                <g id="arrowLeft" xlink:href="#dirArrow" transform="rotate(270) translate(-36 17)" onmousedown="handlePan(-1,0)">
                  <use xlink:href="#rim" fill="#404040">
                        <set attributeName="fill" to="#808080" begin="arrowLeft.mouseover" end="arrowLeft.mouseout"/>
                  </use>
                  <path fill="none" stroke="white" stroke-width="1.5" d="M0,-3.0v7 M-2.5,-0.5L0,-3.0L2.5,-0.5"/>
                </g>
        </g>
        <svg viewBox="0 0 15 15" width="100%" height="30px" preserveAspectRatio="xMaxYMin meet">
         <g id="arrow_out" transform="scale(0.3 0.3)">
          <a xlink:href="structccf_1_1js_1_1HistoricalStateContext__coll__graph_org.svg" target="_base">
           <rect id="button" ry="5" rx="5" y="6" x="6" height="38" width="38"
                fill="#f2f5e9" fill-opacity="0.5" stroke="#606060" stroke-width="1.0"/>
           <path id="arrow"
             d="M 11.500037,31.436501 C 11.940474,20.09759 22.043105,11.32322 32.158766,21.979434 L 37.068811,17.246167 C 37.068811,17.246167 37.088388,32 37.088388,32 L 22.160133,31.978069 C 22.160133,31.978069 26.997745,27.140456 26.997745,27.140456 C 18.528582,18.264221 13.291696,25.230495 11.500037,31.436501 z"
             style="fill:#404040;"/>
          </a>
         </g>
        </svg>
</svg>
