<?xml version="1.0" encoding="UTF-8" standalone="no"?>
<!DOCTYPE svg PUBLIC "-//W3C//DTD SVG 1.1//EN"
 "http://www.w3.org/Graphics/SVG/1.1/DTD/svg11.dtd">
<!-- Generated by graphviz version 2.43.0 (0)
 -->
<!-- Title: threading::ThreadMsg Pages: 1 -->
<svg width="137pt" height="104pt"
 viewBox="0.00 0.00 137.00 104.00" xmlns="http://www.w3.org/2000/svg" xmlns:xlink="http://www.w3.org/1999/xlink">
<g id="graph0" class="graph" transform="scale(1 1) rotate(0) translate(4 100)">
<title>threading::ThreadMsg</title>
<!-- Node1 -->
<g id="node1" class="node">
<title>Node1</title>
<g id="a_node1"><a xlink:title=" ">
<polygon fill="#999999" stroke="#666666" points="126,-96 3,-96 3,-77 126,-77 126,-96"/>
<text text-anchor="middle" x="64.5" y="-84" font-family="Helvetica,sans-Serif" font-size="10.00">threading::ThreadMsg</text>
</a>
</g>
</g>
<!-- Node2 -->
<g id="node2" class="node">
<title>Node2</title>
<g id="a_node2"><a xlink:title=" ">
<polygon fill="white" stroke="#666666" points="129,-30 0,-30 0,0 129,0 129,-30"/>
<text text-anchor="start" x="8" y="-18" font-family="Helvetica,sans-Serif" font-size="10.00">std::atomic&lt; threading</text>
<text text-anchor="middle" x="64.5" y="-7" font-family="Helvetica,sans-Serif" font-size="10.00">::ThreadMsg * &gt;</text>
</a>
</g>
</g>
<!-- Node1&#45;&gt;Node2 -->
<g id="edge2" class="edge">
<title>Node1&#45;&gt;Node2</title>
<path fill="none" stroke="#9a32cd" stroke-dasharray="5,2" d="M48.65,-68.81C46.54,-65.75 44.69,-62.43 43.5,-59 41.89,-54.38 42.1,-52.68 43.5,-48 45.4,-41.63 49.02,-35.36 52.73,-30.07"/>
<polygon fill="#9a32cd" stroke="#9a32cd" points="45.97,-71.07 54.98,-76.64 51.41,-66.67 45.97,-71.07"/>
<text text-anchor="middle" x="52" y="-51" font-family="Helvetica,sans-Serif" font-size="10.00"> ptr</text>
</g>
<!-- Node2&#45;&gt;Node1 -->
<g id="edge1" class="edge">
<title>Node2&#45;&gt;Node1</title>
<path fill="none" stroke="#9a32cd" stroke-dasharray="5,2" d="M64.5,-40.2C64.5,-52.98 64.5,-67.86 64.5,-76.98"/>
<polygon fill="#9a32cd" stroke="#9a32cd" points="68,-40.14 64.5,-30.14 61,-40.14 68,-40.14"/>
<text text-anchor="middle" x="77" y="-51" font-family="Helvetica,sans-Serif" font-size="10.00"> next</text>
</g>
</g>
</svg>
