<?xml version="1.0" encoding="UTF-8" standalone="no"?>
<!DOCTYPE svg PUBLIC "-//W3C//DTD SVG 1.1//EN"
 "http://www.w3.org/Graphics/SVG/1.1/DTD/svg11.dtd">
<!-- Generated by graphviz version 2.43.0 (0)
 -->
<!-- Title: crypto::OpenSSL::Unique_RSA Pages: 1 -->
<svg width="170pt" height="182pt"
 viewBox="0.00 0.00 170.00 182.00" xmlns="http://www.w3.org/2000/svg" xmlns:xlink="http://www.w3.org/1999/xlink">
<g id="graph0" class="graph" transform="scale(1 1) rotate(0) translate(4 178)">
<title>crypto::OpenSSL::Unique_RSA</title>
<!-- Node1 -->
<g id="node1" class="node">
<title>Node1</title>
<g id="a_node1"><a xlink:title=" ">
<polygon fill="#999999" stroke="#666666" points="162,-19 0,-19 0,0 162,0 162,-19"/>
<text text-anchor="middle" x="81" y="-7" font-family="Helvetica,sans-Serif" font-size="10.00">crypto::OpenSSL::Unique_RSA</text>
</a>
</g>
</g>
<!-- Node2 -->
<g id="node2" class="node">
<title>Node2</title>
<g id="a_node2"><a xlink:href="classcrypto_1_1OpenSSL_1_1Unique__SSL__OBJECT.html" target="_top" xlink:title=" ">
<polygon fill="white" stroke="#666666" points="150,-97 12,-97 12,-56 150,-56 150,-97"/>
<text text-anchor="start" x="20" y="-85" font-family="Helvetica,sans-Serif" font-size="10.00">crypto::OpenSSL::Unique</text>
<text text-anchor="start" x="20" y="-74" font-family="Helvetica,sans-Serif" font-size="10.00">_SSL_OBJECT&lt; RSA, RSA</text>
<text text-anchor="middle" x="81" y="-63" font-family="Helvetica,sans-Serif" font-size="10.00">_new, RSA_free &gt;</text>
</a>
</g>
</g>
<!-- Node2&#45;&gt;Node1 -->
<g id="edge1" class="edge">
<title>Node2&#45;&gt;Node1</title>
<path fill="none" stroke="#63b8ff" d="M81,-45.76C81,-36.06 81,-26.02 81,-19.15"/>
<polygon fill="#63b8ff" stroke="#63b8ff" points="77.5,-46 81,-56 84.5,-46 77.5,-46"/>
</g>
<!-- Node3 -->
<g id="node3" class="node">
<title>Node3</title>
<g id="a_node3"><a xlink:title=" ">
<polygon fill="white" stroke="#666666" points="143,-174 19,-174 19,-144 143,-144 143,-174"/>
<text text-anchor="start" x="27" y="-162" font-family="Helvetica,sans-Serif" font-size="10.00">std::unique_ptr&lt; RSA,</text>
<text text-anchor="middle" x="81" y="-151" font-family="Helvetica,sans-Serif" font-size="10.00"> void(*)(RSA *)&gt;</text>
</a>
</g>
</g>
<!-- Node3&#45;&gt;Node2 -->
<g id="edge2" class="edge">
<title>Node3&#45;&gt;Node2</title>
<path fill="none" stroke="#9a32cd" stroke-dasharray="5,2" d="M81,-133.94C81,-122.17 81,-108.19 81,-97.09"/>
<polygon fill="#9a32cd" stroke="#9a32cd" points="77.5,-133.98 81,-143.98 84.5,-133.98 77.5,-133.98"/>
<text text-anchor="middle" x="86" y="-118" font-family="Helvetica,sans-Serif" font-size="10.00"> p</text>
</g>
</g>
</svg>
