<?xml version="1.0" encoding="UTF-8" standalone="no"?>
<!DOCTYPE svg PUBLIC "-//W3C//DTD SVG 1.1//EN"
 "http://www.w3.org/Graphics/SVG/1.1/DTD/svg11.dtd">
<!-- Generated by graphviz version 2.43.0 (0)
 -->
<!-- Title: ccf::EndpointContextImpl Pages: 1 -->
<svg width="2762pt" height="405pt"
 viewBox="0.00 0.00 2762.00 404.50" xmlns="http://www.w3.org/2000/svg" xmlns:xlink="http://www.w3.org/1999/xlink">
<g id="graph0" class="graph" transform="scale(1 1) rotate(0) translate(4 400.5)">
<title>ccf::EndpointContextImpl</title>
<!-- Node1 -->
<g id="node1" class="node">
<title>Node1</title>
<g id="a_node1"><a xlink:title=" ">
<polygon fill="#999999" stroke="#666666" points="2754,-178 2615,-178 2615,-159 2754,-159 2754,-178"/>
<text text-anchor="middle" x="2684.5" y="-166" font-family="Helvetica,sans-Serif" font-size="10.00">ccf::EndpointContextImpl</text>
</a>
</g>
</g>
<!-- Node2 -->
<g id="node2" class="node">
<title>Node2</title>
<g id="a_node2"><a xlink:href="structccf_1_1endpoints_1_1EndpointContext.html" target="_top" xlink:title=" ">
<polygon fill="white" stroke="#666666" points="2362,-204.5 2229,-204.5 2229,-174.5 2362,-174.5 2362,-204.5"/>
<text text-anchor="start" x="2237" y="-192.5" font-family="Helvetica,sans-Serif" font-size="10.00">ccf::endpoints::Endpoint</text>
<text text-anchor="middle" x="2295.5" y="-181.5" font-family="Helvetica,sans-Serif" font-size="10.00">Context</text>
</a>
</g>
</g>
<!-- Node2&#45;&gt;Node1 -->
<g id="edge1" class="edge">
<title>Node2&#45;&gt;Node1</title>
<path fill="none" stroke="#63b8ff" d="M2372.43,-185.55C2433.19,-182.37 2520.57,-177.74 2597,-173.5 2602.71,-173.18 2608.63,-172.85 2614.57,-172.51"/>
<polygon fill="#63b8ff" stroke="#63b8ff" points="2371.96,-182.07 2362.16,-186.09 2372.33,-189.06 2371.96,-182.07"/>
</g>
<!-- Node3 -->
<g id="node3" class="node">
<title>Node3</title>
<g id="a_node3"><a xlink:href="structccf_1_1endpoints_1_1CommandEndpointContext.html" target="_top" xlink:title=" ">
<polygon fill="white" stroke="#666666" points="2180,-225.5 1997,-225.5 1997,-195.5 2180,-195.5 2180,-225.5"/>
<text text-anchor="start" x="2005" y="-213.5" font-family="Helvetica,sans-Serif" font-size="10.00">ccf::endpoints::CommandEndpoint</text>
<text text-anchor="middle" x="2088.5" y="-202.5" font-family="Helvetica,sans-Serif" font-size="10.00">Context</text>
</a>
</g>
</g>
<!-- Node3&#45;&gt;Node2 -->
<g id="edge2" class="edge">
<title>Node3&#45;&gt;Node2</title>
<path fill="none" stroke="#63b8ff" d="M2190.05,-200.2C2203.21,-198.85 2216.4,-197.5 2228.78,-196.23"/>
<polygon fill="#63b8ff" stroke="#63b8ff" points="2189.6,-196.73 2180.01,-201.23 2190.32,-203.69 2189.6,-196.73"/>
</g>
<!-- Node4 -->
<g id="node4" class="node">
<title>Node4</title>
<g id="a_node4"><a xlink:title=" ">
<polygon fill="white" stroke="#666666" points="1922,-224.5 1807,-224.5 1807,-194.5 1922,-194.5 1922,-224.5"/>
<text text-anchor="start" x="1815" y="-212.5" font-family="Helvetica,sans-Serif" font-size="10.00">std::shared_ptr&lt; ccf</text>
<text text-anchor="middle" x="1864.5" y="-201.5" font-family="Helvetica,sans-Serif" font-size="10.00">::RpcContext &gt;</text>
</a>
</g>
</g>
<!-- Node4&#45;&gt;Node3 -->
<g id="edge3" class="edge">
<title>Node4&#45;&gt;Node3</title>
<path fill="none" stroke="#9a32cd" stroke-dasharray="5,2" d="M1932.19,-209.8C1952.54,-209.89 1975.28,-209.99 1996.93,-210.09"/>
<polygon fill="#9a32cd" stroke="#9a32cd" points="1932.11,-206.3 1922.09,-209.75 1932.08,-213.3 1932.11,-206.3"/>
<text text-anchor="middle" x="1959.5" y="-212.5" font-family="Helvetica,sans-Serif" font-size="10.00"> rpc_ctx</text>
</g>
<!-- Node5 -->
<g id="node5" class="node">
<title>Node5</title>
<g id="a_node5"><a xlink:href="classccf_1_1RpcContext.html" target="_top" xlink:title="Describes the currently executing RPC.">
<polygon fill="white" stroke="#666666" points="1749,-219 1657,-219 1657,-200 1749,-200 1749,-219"/>
<text text-anchor="middle" x="1703" y="-207" font-family="Helvetica,sans-Serif" font-size="10.00">ccf::RpcContext</text>
</a>
</g>
</g>
<!-- Node5&#45;&gt;Node4 -->
<g id="edge4" class="edge">
<title>Node5&#45;&gt;Node4</title>
<path fill="none" stroke="#9a32cd" stroke-dasharray="5,2" d="M1759.6,-209.5C1774.85,-209.5 1791.41,-209.5 1806.73,-209.5"/>
<polygon fill="#9a32cd" stroke="#9a32cd" points="1759.28,-206 1749.28,-209.5 1759.28,-213 1759.28,-206"/>
<text text-anchor="middle" x="1780.5" y="-212.5" font-family="Helvetica,sans-Serif" font-size="10.00"> ptr</text>
</g>
<!-- Node6 -->
<g id="node6" class="node">
<title>Node6</title>
<g id="a_node6"><a xlink:title=" ">
<polygon fill="white" stroke="#666666" points="1922,-272.5 1807,-272.5 1807,-242.5 1922,-242.5 1922,-272.5"/>
<text text-anchor="start" x="1815" y="-260.5" font-family="Helvetica,sans-Serif" font-size="10.00">std::unique_ptr&lt; ccf</text>
<text text-anchor="middle" x="1864.5" y="-249.5" font-family="Helvetica,sans-Serif" font-size="10.00">::AuthnIdentity &gt;</text>
</a>
</g>
</g>
<!-- Node6&#45;&gt;Node3 -->
<g id="edge5" class="edge">
<title>Node6&#45;&gt;Node3</title>
<path fill="none" stroke="#9a32cd" stroke-dasharray="5,2" d="M1932.06,-243.41C1958.63,-237.78 1989.26,-231.3 2016.28,-225.58"/>
<polygon fill="#9a32cd" stroke="#9a32cd" points="1931.15,-240.02 1922.09,-245.52 1932.6,-246.87 1931.15,-240.02"/>
<text text-anchor="middle" x="1959.5" y="-243.5" font-family="Helvetica,sans-Serif" font-size="10.00"> caller</text>
</g>
<!-- Node7 -->
<g id="node7" class="node">
<title>Node7</title>
<g id="a_node7"><a xlink:href="structccf_1_1AuthnIdentity.html" target="_top" xlink:title=" ">
<polygon fill="white" stroke="#666666" points="1754,-267 1652,-267 1652,-248 1754,-248 1754,-267"/>
<text text-anchor="middle" x="1703" y="-255" font-family="Helvetica,sans-Serif" font-size="10.00">ccf::AuthnIdentity</text>
</a>
</g>
</g>
<!-- Node7&#45;&gt;Node6 -->
<g id="edge6" class="edge">
<title>Node7&#45;&gt;Node6</title>
<path fill="none" stroke="#9a32cd" stroke-dasharray="5,2" d="M1764.09,-257.5C1778.15,-257.5 1793.08,-257.5 1806.98,-257.5"/>
<polygon fill="#9a32cd" stroke="#9a32cd" points="1764.03,-254 1754.03,-257.5 1764.03,-261 1764.03,-254"/>
<text text-anchor="middle" x="1780.5" y="-260.5" font-family="Helvetica,sans-Serif" font-size="10.00"> ptr</text>
</g>
<!-- Node8 -->
<g id="node8" class="node">
<title>Node8</title>
<g id="a_node8"><a xlink:href="classkv_1_1Tx.html" target="_top" xlink:title=" ">
<polygon fill="white" stroke="#666666" points="2111.5,-174 2065.5,-174 2065.5,-155 2111.5,-155 2111.5,-174"/>
<text text-anchor="middle" x="2088.5" y="-162" font-family="Helvetica,sans-Serif" font-size="10.00">kv::Tx</text>
</a>
</g>
</g>
<!-- Node8&#45;&gt;Node2 -->
<g id="edge7" class="edge">
<title>Node8&#45;&gt;Node2</title>
<path fill="none" stroke="#9a32cd" stroke-dasharray="5,2" d="M2122.08,-168.47C2150.73,-171.97 2193.31,-177.16 2228.98,-181.51"/>
<polygon fill="#9a32cd" stroke="#9a32cd" points="2122.18,-164.96 2111.83,-167.22 2121.33,-171.91 2122.18,-164.96"/>
<text text-anchor="middle" x="2204.5" y="-181.5" font-family="Helvetica,sans-Serif" font-size="10.00"> tx</text>
</g>
<!-- Node34 -->
<g id="node34" class="node">
<title>Node34</title>
<g id="a_node34"><a xlink:href="classkv_1_1CommittableTx.html" target="_top" xlink:title=" ">
<polygon fill="white" stroke="#666666" points="2350.5,-156 2240.5,-156 2240.5,-137 2350.5,-137 2350.5,-156"/>
<text text-anchor="middle" x="2295.5" y="-144" font-family="Helvetica,sans-Serif" font-size="10.00">kv::CommittableTx</text>
</a>
</g>
</g>
<!-- Node8&#45;&gt;Node34 -->
<g id="edge38" class="edge">
<title>Node8&#45;&gt;Node34</title>
<path fill="none" stroke="#63b8ff" d="M2121.9,-161.66C2153.67,-158.87 2202.68,-154.56 2240.37,-151.25"/>
<polygon fill="#63b8ff" stroke="#63b8ff" points="2121.48,-158.18 2111.83,-162.54 2122.1,-165.15 2121.48,-158.18"/>
</g>
<!-- Node9 -->
<g id="node9" class="node">
<title>Node9</title>
<g id="a_node9"><a xlink:href="classkv_1_1ReadOnlyTx.html" target="_top" xlink:title=" ">
<polygon fill="white" stroke="#666666" points="1911,-174 1818,-174 1818,-155 1911,-155 1911,-174"/>
<text text-anchor="middle" x="1864.5" y="-162" font-family="Helvetica,sans-Serif" font-size="10.00">kv::ReadOnlyTx</text>
</a>
</g>
</g>
<!-- Node9&#45;&gt;Node8 -->
<g id="edge8" class="edge">
<title>Node9&#45;&gt;Node8</title>
<path fill="none" stroke="#63b8ff" d="M1921.5,-164.5C1968.18,-164.5 2032.23,-164.5 2065.47,-164.5"/>
<polygon fill="#63b8ff" stroke="#63b8ff" points="1921.23,-161 1911.23,-164.5 1921.23,-168 1921.23,-161"/>
</g>
<!-- Node10 -->
<g id="node10" class="node">
<title>Node10</title>
<g id="a_node10"><a xlink:href="classkv_1_1BaseTx.html" target="_top" xlink:title=" ">
<polygon fill="white" stroke="#666666" points="1738,-174 1668,-174 1668,-155 1738,-155 1738,-174"/>
<text text-anchor="middle" x="1703" y="-162" font-family="Helvetica,sans-Serif" font-size="10.00">kv::BaseTx</text>
</a>
</g>
</g>
<!-- Node10&#45;&gt;Node9 -->
<g id="edge9" class="edge">
<title>Node10&#45;&gt;Node9</title>
<path fill="none" stroke="#63b8ff" d="M1748.45,-164.5C1770.08,-164.5 1796.05,-164.5 1817.84,-164.5"/>
<polygon fill="#63b8ff" stroke="#63b8ff" points="1748.22,-161 1738.22,-164.5 1748.22,-168 1748.22,-161"/>
</g>
<!-- Node11 -->
<g id="node11" class="node">
<title>Node11</title>
<g id="a_node11"><a xlink:title=" ">
<polygon fill="white" stroke="#666666" points="1585,-142.5 1453,-142.5 1453,-112.5 1585,-112.5 1585,-142.5"/>
<text text-anchor="start" x="1461" y="-130.5" font-family="Helvetica,sans-Serif" font-size="10.00">std::unique_ptr&lt; kv</text>
<text text-anchor="middle" x="1519" y="-119.5" font-family="Helvetica,sans-Serif" font-size="10.00">::BaseTx::PrivateImpl &gt;</text>
</a>
</g>
</g>
<!-- Node11&#45;&gt;Node10 -->
<g id="edge10" class="edge">
<title>Node11&#45;&gt;Node10</title>
<path fill="none" stroke="#9a32cd" stroke-dasharray="5,2" d="M1595.14,-142.78C1620.41,-147.91 1647.35,-153.39 1667.86,-157.56"/>
<polygon fill="#9a32cd" stroke="#9a32cd" points="1595.69,-139.32 1585.19,-140.75 1594.29,-146.18 1595.69,-139.32"/>
<text text-anchor="middle" x="1618.5" y="-152.5" font-family="Helvetica,sans-Serif" font-size="10.00"> pimpl</text>
</g>
<!-- Node12 -->
<g id="node12" class="node">
<title>Node12</title>
<g id="a_node12"><a xlink:href="structkv_1_1BaseTx_1_1PrivateImpl.html" target="_top" xlink:title=" ">
<polygon fill="white" stroke="#666666" points="1400,-77 1268,-77 1268,-58 1400,-58 1400,-77"/>
<text text-anchor="middle" x="1334" y="-65" font-family="Helvetica,sans-Serif" font-size="10.00">kv::BaseTx::PrivateImpl</text>
</a>
</g>
</g>
<!-- Node12&#45;&gt;Node11 -->
<g id="edge11" class="edge">
<title>Node12&#45;&gt;Node11</title>
<path fill="none" stroke="#9a32cd" stroke-dasharray="5,2" d="M1373.69,-80.18C1402.41,-89.6 1441.7,-102.48 1472.03,-112.43"/>
<polygon fill="#9a32cd" stroke="#9a32cd" points="1374.59,-76.8 1364,-77.01 1372.41,-83.45 1374.59,-76.8"/>
<text text-anchor="middle" x="1426.5" y="-101.5" font-family="Helvetica,sans-Serif" font-size="10.00"> ptr</text>
</g>
<!-- Node13 -->
<g id="node13" class="node">
<title>Node13</title>
<g id="a_node13"><a xlink:href="classkv_1_1AbstractStore.html" target="_top" xlink:title=" ">
<polygon fill="white" stroke="#666666" points="1148,-74 1048,-74 1048,-55 1148,-55 1148,-74"/>
<text text-anchor="middle" x="1098" y="-62" font-family="Helvetica,sans-Serif" font-size="10.00">kv::AbstractStore</text>
</a>
</g>
</g>
<!-- Node13&#45;&gt;Node12 -->
<g id="edge12" class="edge">
<title>Node13&#45;&gt;Node12</title>
<path fill="none" stroke="#9a32cd" stroke-dasharray="5,2" d="M1158.12,-65.26C1191.48,-65.69 1233.24,-66.22 1267.58,-66.66"/>
<polygon fill="#9a32cd" stroke="#9a32cd" points="1158.1,-61.76 1148.05,-65.13 1158.01,-68.76 1158.1,-61.76"/>
<text text-anchor="middle" x="1213.5" y="-68.5" font-family="Helvetica,sans-Serif" font-size="10.00"> store</text>
</g>
<!-- Node14 -->
<g id="node14" class="node">
<title>Node14</title>
<g id="a_node14"><a xlink:title=" ">
<polygon fill="white" stroke="#666666" points="502.5,-38.5 380.5,-38.5 380.5,-8.5 502.5,-8.5 502.5,-38.5"/>
<text text-anchor="start" x="388.5" y="-26.5" font-family="Helvetica,sans-Serif" font-size="10.00">std::map&lt; std::string,</text>
<text text-anchor="middle" x="441.5" y="-15.5" font-family="Helvetica,sans-Serif" font-size="10.00"> PossibleHandles &gt;</text>
</a>
</g>
</g>
<!-- Node14&#45;&gt;Node12 -->
<g id="edge13" class="edge">
<title>Node14&#45;&gt;Node12</title>
<path fill="none" stroke="#9a32cd" stroke-dasharray="5,2" d="M512.65,-23.5C561.3,-23.5 627.59,-23.5 686,-23.5 686,-23.5 686,-23.5 1099,-23.5 1172.99,-23.5 1257.92,-45.01 1302.31,-57.95"/>
<polygon fill="#9a32cd" stroke="#9a32cd" points="512.54,-20 502.54,-23.5 512.54,-27 512.54,-20"/>
<text text-anchor="middle" x="881" y="-26.5" font-family="Helvetica,sans-Serif" font-size="10.00"> all_handles</text>
</g>
<!-- Node15 -->
<g id="node15" class="node">
<title>Node15</title>
<g id="a_node15"><a xlink:title=" ">
<polygon fill="white" stroke="#666666" points="262,-96 197,-96 197,-77 262,-77 262,-96"/>
<text text-anchor="middle" x="229.5" y="-84" font-family="Helvetica,sans-Serif" font-size="10.00">std::string</text>
</a>
</g>
</g>
<!-- Node15&#45;&gt;Node14 -->
<g id="edge14" class="edge">
<title>Node15&#45;&gt;Node14</title>
<path fill="none" stroke="#9a32cd" stroke-dasharray="5,2" d="M248.29,-69.91C258.99,-60.9 273.35,-50.42 288,-44.5 317.12,-32.74 351.63,-27.35 380.46,-24.96"/>
<polygon fill="#9a32cd" stroke="#9a32cd" points="245.76,-67.47 240.55,-76.7 250.38,-72.73 245.76,-67.47"/>
<text text-anchor="middle" x="312.5" y="-47.5" font-family="Helvetica,sans-Serif" font-size="10.00"> keys</text>
</g>
<!-- Node19 -->
<g id="node19" class="node">
<title>Node19</title>
<g id="a_node19"><a xlink:title=" ">
<polygon fill="white" stroke="#666666" points="1159,-133 1037,-133 1037,-92 1159,-92 1159,-133"/>
<text text-anchor="start" x="1045" y="-121" font-family="Helvetica,sans-Serif" font-size="10.00">std::map&lt; std::string,</text>
<text text-anchor="start" x="1045" y="-110" font-family="Helvetica,sans-Serif" font-size="10.00"> std::shared_ptr&lt; kv</text>
<text text-anchor="middle" x="1098" y="-99" font-family="Helvetica,sans-Serif" font-size="10.00">::AbstractMap &gt; &gt;</text>
</a>
</g>
</g>
<!-- Node15&#45;&gt;Node19 -->
<g id="edge19" class="edge">
<title>Node15&#45;&gt;Node19</title>
<path fill="none" stroke="#9a32cd" stroke-dasharray="5,2" d="M272.03,-81.15C314.34,-76.16 381.87,-69.5 440.5,-69.5 440.5,-69.5 440.5,-69.5 882,-69.5 935.1,-69.5 994.17,-82.27 1036.94,-93.89"/>
<polygon fill="#9a32cd" stroke="#9a32cd" points="271.61,-77.67 262.1,-82.34 272.45,-84.62 271.61,-77.67"/>
<text text-anchor="middle" x="687" y="-72.5" font-family="Helvetica,sans-Serif" font-size="10.00"> keys</text>
</g>
<!-- Node23 -->
<g id="node23" class="node">
<title>Node23</title>
<g id="a_node23"><a xlink:href="structkv_1_1GetName.html" target="_top" xlink:title=" ">
<polygon fill="white" stroke="#666666" points="481.5,-117 401.5,-117 401.5,-98 481.5,-98 481.5,-117"/>
<text text-anchor="middle" x="441.5" y="-105" font-family="Helvetica,sans-Serif" font-size="10.00">kv::GetName</text>
</a>
</g>
</g>
<!-- Node15&#45;&gt;Node23 -->
<g id="edge24" class="edge">
<title>Node15&#45;&gt;Node23</title>
<path fill="none" stroke="#9a32cd" stroke-dasharray="5,2" d="M272.49,-90.7C309.97,-94.45 364.47,-99.9 401.13,-103.56"/>
<polygon fill="#9a32cd" stroke="#9a32cd" points="272.69,-87.2 262.39,-89.69 272,-94.17 272.69,-87.2"/>
<text text-anchor="middle" x="312.5" y="-99.5" font-family="Helvetica,sans-Serif" font-size="10.00"> name</text>
</g>
<!-- Node24 -->
<g id="node24" class="node">
<title>Node24</title>
<g id="a_node24"><a xlink:title=" ">
<polygon fill="white" stroke="#666666" points="1395,-210.5 1273,-210.5 1273,-180.5 1395,-180.5 1395,-210.5"/>
<text text-anchor="start" x="1281" y="-198.5" font-family="Helvetica,sans-Serif" font-size="10.00">std::map&lt; std::string,</text>
<text text-anchor="middle" x="1334" y="-187.5" font-family="Helvetica,sans-Serif" font-size="10.00"> MapChanges &gt;</text>
</a>
</g>
</g>
<!-- Node15&#45;&gt;Node24 -->
<g id="edge26" class="edge">
<title>Node15&#45;&gt;Node24</title>
<path fill="none" stroke="#9a32cd" stroke-dasharray="5,2" d="M235.04,-106.16C246.56,-151.47 281.43,-263.65 355,-319.5 386,-343.04 401.57,-338.5 440.5,-338.5 440.5,-338.5 440.5,-338.5 1099,-338.5 1196.36,-338.5 1287.49,-247.25 1320.22,-210.53"/>
<polygon fill="#9a32cd" stroke="#9a32cd" points="238.42,-105.27 232.65,-96.38 231.62,-106.93 238.42,-105.27"/>
<text text-anchor="middle" x="784" y="-341.5" font-family="Helvetica,sans-Serif" font-size="10.00"> keys</text>
</g>
<!-- Node16 -->
<g id="node16" class="node">
<title>Node16</title>
<g id="a_node16"><a xlink:title=" ">
<polygon fill="white" stroke="#666666" points="104,-101.5 0,-101.5 0,-71.5 104,-71.5 104,-101.5"/>
<text text-anchor="start" x="8" y="-89.5" font-family="Helvetica,sans-Serif" font-size="10.00">std::basic_string&lt;</text>
<text text-anchor="middle" x="52" y="-78.5" font-family="Helvetica,sans-Serif" font-size="10.00"> Char &gt;</text>
</a>
</g>
</g>
<!-- Node16&#45;&gt;Node15 -->
<g id="edge15" class="edge">
<title>Node16&#45;&gt;Node15</title>
<path fill="none" stroke="#63b8ff" d="M114.28,-86.5C142.11,-86.5 173.85,-86.5 196.8,-86.5"/>
<polygon fill="#63b8ff" stroke="#63b8ff" points="114.23,-83 104.23,-86.5 114.23,-90 114.23,-83"/>
</g>
<!-- Node17 -->
<g id="node17" class="node">
<title>Node17</title>
<g id="a_node17"><a xlink:title=" ">
<polygon fill="white" stroke="#666666" points="270,-19 189,-19 189,0 270,0 270,-19"/>
<text text-anchor="middle" x="229.5" y="-7" font-family="Helvetica,sans-Serif" font-size="10.00">std::list&lt; T &gt;</text>
</a>
</g>
</g>
<!-- Node17&#45;&gt;Node14 -->
<g id="edge16" class="edge">
<title>Node17&#45;&gt;Node14</title>
<path fill="none" stroke="#9a32cd" stroke-dasharray="5,2" d="M280.45,-8.78C298.31,-8.84 318.57,-9.26 337,-10.5 351.09,-11.45 366.21,-13.03 380.41,-14.76"/>
<polygon fill="#9a32cd" stroke="#9a32cd" points="280.24,-5.28 270.24,-8.78 280.24,-12.28 280.24,-5.28"/>
<text text-anchor="middle" x="312.5" y="-13.5" font-family="Helvetica,sans-Serif" font-size="10.00"> elements</text>
</g>
<!-- Node18 -->
<g id="node18" class="node">
<title>Node18</title>
<g id="a_node18"><a xlink:title=" ">
<polygon fill="white" stroke="#666666" points="66.5,-19 37.5,-19 37.5,0 66.5,0 66.5,-19"/>
<text text-anchor="middle" x="52" y="-7" font-family="Helvetica,sans-Serif" font-size="10.00">T</text>
</a>
</g>
</g>
<!-- Node18&#45;&gt;Node17 -->
<g id="edge17" class="edge">
<title>Node18&#45;&gt;Node17</title>
<path fill="none" stroke="#9a32cd" stroke-dasharray="5,2" d="M77.13,-9.5C105.96,-9.5 154.61,-9.5 188.96,-9.5"/>
<polygon fill="#9a32cd" stroke="#9a32cd" points="76.77,-6 66.77,-9.5 76.77,-13 76.77,-6"/>
<text text-anchor="middle" x="146.5" y="-12.5" font-family="Helvetica,sans-Serif" font-size="10.00"> elements</text>
</g>
<!-- Node19&#45;&gt;Node12 -->
<g id="edge18" class="edge">
<title>Node19&#45;&gt;Node12</title>
<path fill="none" stroke="#9a32cd" stroke-dasharray="5,2" d="M1169.44,-98.95C1206.26,-91.87 1250.43,-83.38 1283.59,-77"/>
<polygon fill="#9a32cd" stroke="#9a32cd" points="1168.42,-95.59 1159.26,-100.91 1169.74,-102.46 1168.42,-95.59"/>
<text text-anchor="middle" x="1213.5" y="-99.5" font-family="Helvetica,sans-Serif" font-size="10.00"> created_maps</text>
</g>
<!-- Node20 -->
<g id="node20" class="node">
<title>Node20</title>
<g id="a_node20"><a xlink:title=" ">
<polygon fill="white" stroke="#666666" points="937.5,-160.5 824.5,-160.5 824.5,-130.5 937.5,-130.5 937.5,-160.5"/>
<text text-anchor="start" x="832.5" y="-148.5" font-family="Helvetica,sans-Serif" font-size="10.00">std::shared_ptr&lt; kv</text>
<text text-anchor="middle" x="881" y="-137.5" font-family="Helvetica,sans-Serif" font-size="10.00">::AbstractMap &gt;</text>
</a>
</g>
</g>
<!-- Node20&#45;&gt;Node19 -->
<g id="edge20" class="edge">
<title>Node20&#45;&gt;Node19</title>
<path fill="none" stroke="#9a32cd" stroke-dasharray="5,2" d="M934.8,-127.61C944.74,-124.81 955.11,-122.26 965,-120.5 988.28,-116.35 1014.19,-114.24 1036.86,-113.21"/>
<polygon fill="#9a32cd" stroke="#9a32cd" points="933.66,-124.29 925.05,-130.47 935.63,-131.01 933.66,-124.29"/>
<text text-anchor="middle" x="992" y="-123.5" font-family="Helvetica,sans-Serif" font-size="10.00"> elements</text>
</g>
<!-- Node25 -->
<g id="node25" class="node">
<title>Node25</title>
<g id="a_node25"><a xlink:href="structkv_1_1MapChanges.html" target="_top" xlink:title=" ">
<polygon fill="white" stroke="#666666" points="1146.5,-205 1049.5,-205 1049.5,-186 1146.5,-186 1146.5,-205"/>
<text text-anchor="middle" x="1098" y="-193" font-family="Helvetica,sans-Serif" font-size="10.00">kv::MapChanges</text>
</a>
</g>
</g>
<!-- Node20&#45;&gt;Node25 -->
<g id="edge28" class="edge">
<title>Node20&#45;&gt;Node25</title>
<path fill="none" stroke="#9a32cd" stroke-dasharray="5,2" d="M947.4,-160.71C982.69,-168.92 1025.19,-178.8 1055.85,-185.93"/>
<polygon fill="#9a32cd" stroke="#9a32cd" points="948.18,-157.3 937.65,-158.44 946.59,-164.12 948.18,-157.3"/>
<text text-anchor="middle" x="992" y="-178.5" font-family="Helvetica,sans-Serif" font-size="10.00"> map</text>
</g>
<!-- Node21 -->
<g id="node21" class="node">
<title>Node21</title>
<g id="a_node21"><a xlink:href="classkv_1_1AbstractMap.html" target="_top" xlink:title=" ">
<polygon fill="white" stroke="#666666" points="734.5,-155 639.5,-155 639.5,-136 734.5,-136 734.5,-155"/>
<text text-anchor="middle" x="687" y="-143" font-family="Helvetica,sans-Serif" font-size="10.00">kv::AbstractMap</text>
</a>
</g>
</g>
<!-- Node21&#45;&gt;Node20 -->
<g id="edge21" class="edge">
<title>Node21&#45;&gt;Node20</title>
<path fill="none" stroke="#9a32cd" stroke-dasharray="5,2" d="M745.06,-145.5C770.11,-145.5 799.41,-145.5 824.31,-145.5"/>
<polygon fill="#9a32cd" stroke="#9a32cd" points="744.97,-142 734.97,-145.5 744.97,-149 744.97,-142"/>
<text text-anchor="middle" x="784" y="-148.5" font-family="Helvetica,sans-Serif" font-size="10.00"> ptr</text>
</g>
<!-- Node22 -->
<g id="node22" class="node">
<title>Node22</title>
<g id="a_node22"><a xlink:title=" ">
<polygon fill="white" stroke="#666666" points="517.5,-165.5 365.5,-165.5 365.5,-135.5 517.5,-135.5 517.5,-165.5"/>
<text text-anchor="start" x="373.5" y="-153.5" font-family="Helvetica,sans-Serif" font-size="10.00">std::enable_shared</text>
<text text-anchor="middle" x="441.5" y="-142.5" font-family="Helvetica,sans-Serif" font-size="10.00">_from_this&lt; AbstractMap &gt;</text>
</a>
</g>
</g>
<!-- Node22&#45;&gt;Node21 -->
<g id="edge22" class="edge">
<title>Node22&#45;&gt;Node21</title>
<path fill="none" stroke="#63b8ff" d="M527.94,-148.75C565.3,-147.98 607.68,-147.11 639.15,-146.46"/>
<polygon fill="#63b8ff" stroke="#63b8ff" points="527.47,-145.25 517.54,-148.96 527.61,-152.25 527.47,-145.25"/>
</g>
<!-- Node23&#45;&gt;Node21 -->
<g id="edge23" class="edge">
<title>Node23&#45;&gt;Node21</title>
<path fill="none" stroke="#63b8ff" d="M491.61,-115.16C534.77,-121.9 597.12,-131.63 639.48,-138.24"/>
<polygon fill="#63b8ff" stroke="#63b8ff" points="492.04,-111.69 481.62,-113.61 490.96,-118.61 492.04,-111.69"/>
</g>
<!-- Node24&#45;&gt;Node10 -->
<g id="edge25" class="edge">
<title>Node24&#45;&gt;Node10</title>
<path fill="none" stroke="#9a32cd" stroke-dasharray="5,2" d="M1405.5,-189.55C1484.13,-182.9 1608.1,-172.43 1667.73,-167.39"/>
<polygon fill="#9a32cd" stroke="#9a32cd" points="1404.86,-186.09 1395.19,-190.42 1405.45,-193.06 1404.86,-186.09"/>
<text text-anchor="middle" x="1519" y="-187.5" font-family="Helvetica,sans-Serif" font-size="10.00"> all_changes</text>
</g>
<!-- Node25&#45;&gt;Node24 -->
<g id="edge27" class="edge">
<title>Node25&#45;&gt;Node24</title>
<path fill="none" stroke="#9a32cd" stroke-dasharray="5,2" d="M1156.79,-195.5C1192.11,-195.5 1237.2,-195.5 1272.93,-195.5"/>
<polygon fill="#9a32cd" stroke="#9a32cd" points="1156.64,-192 1146.64,-195.5 1156.64,-199 1156.64,-192"/>
<text text-anchor="middle" x="1213.5" y="-198.5" font-family="Helvetica,sans-Serif" font-size="10.00"> elements</text>
</g>
<!-- Node26 -->
<g id="node26" class="node">
<title>Node26</title>
<g id="a_node26"><a xlink:title=" ">
<polygon fill="white" stroke="#666666" points="947,-232.5 815,-232.5 815,-202.5 947,-202.5 947,-232.5"/>
<text text-anchor="start" x="823" y="-220.5" font-family="Helvetica,sans-Serif" font-size="10.00">std::unique_ptr&lt; kv</text>
<text text-anchor="middle" x="881" y="-209.5" font-family="Helvetica,sans-Serif" font-size="10.00">::untyped::ChangeSet &gt;</text>
</a>
</g>
</g>
<!-- Node26&#45;&gt;Node25 -->
<g id="edge29" class="edge">
<title>Node26&#45;&gt;Node25</title>
<path fill="none" stroke="#9a32cd" stroke-dasharray="5,2" d="M957.29,-209.8C987.83,-206.67 1022.2,-203.15 1049.2,-200.39"/>
<polygon fill="#9a32cd" stroke="#9a32cd" points="956.68,-206.34 947.09,-210.84 957.39,-213.3 956.68,-206.34"/>
<text text-anchor="middle" x="992" y="-210.5" font-family="Helvetica,sans-Serif" font-size="10.00"> changeset</text>
</g>
<!-- Node27 -->
<g id="node27" class="node">
<title>Node27</title>
<g id="a_node27"><a xlink:href="structkv_1_1untyped_1_1ChangeSet.html" target="_top" xlink:title=" ">
<polygon fill="white" stroke="#666666" points="753,-240 621,-240 621,-221 753,-221 753,-240"/>
<text text-anchor="middle" x="687" y="-228" font-family="Helvetica,sans-Serif" font-size="10.00">kv::untyped::ChangeSet</text>
</a>
</g>
</g>
<!-- Node27&#45;&gt;Node26 -->
<g id="edge30" class="edge">
<title>Node27&#45;&gt;Node26</title>
<path fill="none" stroke="#9a32cd" stroke-dasharray="5,2" d="M763.42,-225.39C780.38,-224.25 798.24,-223.04 814.74,-221.92"/>
<polygon fill="#9a32cd" stroke="#9a32cd" points="762.74,-221.93 753,-226.1 763.22,-228.92 762.74,-221.93"/>
<text text-anchor="middle" x="784" y="-227.5" font-family="Helvetica,sans-Serif" font-size="10.00"> ptr</text>
</g>
<!-- Node28 -->
<g id="node28" class="node">
<title>Node28</title>
<g id="a_node28"><a xlink:href="classkv_1_1AbstractChangeSet.html" target="_top" xlink:title=" ">
<polygon fill="white" stroke="#666666" points="505,-240 378,-240 378,-221 505,-221 505,-240"/>
<text text-anchor="middle" x="441.5" y="-228" font-family="Helvetica,sans-Serif" font-size="10.00">kv::AbstractChangeSet</text>
</a>
</g>
</g>
<!-- Node28&#45;&gt;Node27 -->
<g id="edge31" class="edge">
<title>Node28&#45;&gt;Node27</title>
<path fill="none" stroke="#63b8ff" d="M515.41,-230.5C548.96,-230.5 588.43,-230.5 620.96,-230.5"/>
<polygon fill="#63b8ff" stroke="#63b8ff" points="515.21,-227 505.21,-230.5 515.21,-234 515.21,-227"/>
</g>
<!-- Node29 -->
<g id="node29" class="node">
<title>Node29</title>
<g id="a_node29"><a xlink:href="classchamp_1_1Map.html" target="_top" xlink:title=" ">
<polygon fill="white" stroke="#666666" points="507.5,-203 375.5,-203 375.5,-184 507.5,-184 507.5,-203"/>
<text text-anchor="middle" x="441.5" y="-191" font-family="Helvetica,sans-Serif" font-size="10.00">champ::Map&lt; K, V, H &gt;</text>
</a>
</g>
</g>
<!-- Node29&#45;&gt;Node27 -->
<g id="edge32" class="edge">
<title>Node29&#45;&gt;Node27</title>
<path fill="none" stroke="#9a32cd" stroke-dasharray="5,2" d="M517.92,-195.01C544.94,-196.52 575.5,-199.32 603,-204.5 622.89,-208.24 644.69,-215.19 660.96,-220.96"/>
<polygon fill="#9a32cd" stroke="#9a32cd" points="517.92,-191.51 507.76,-194.5 517.57,-198.5 517.92,-191.51"/>
<text text-anchor="middle" x="574.5" y="-218.5" font-family="Helvetica,sans-Serif" font-size="10.00"> committed</text>
<text text-anchor="middle" x="574.5" y="-207.5" font-family="Helvetica,sans-Serif" font-size="10.00">state</text>
</g>
<!-- Node30 -->
<g id="node30" class="node">
<title>Node30</title>
<g id="a_node30"><a xlink:title=" ">
<polygon fill="white" stroke="#666666" points="528,-396.5 355,-396.5 355,-366.5 528,-366.5 528,-396.5"/>
<text text-anchor="start" x="363" y="-384.5" font-family="Helvetica,sans-Serif" font-size="10.00">std::map&lt; K, std::tuple</text>
<text text-anchor="middle" x="441.5" y="-373.5" font-family="Helvetica,sans-Serif" font-size="10.00">&lt; Version, LastReadVersion &gt; &gt;</text>
</a>
</g>
</g>
<!-- Node30&#45;&gt;Node27 -->
<g id="edge33" class="edge">
<title>Node30&#45;&gt;Node27</title>
<path fill="none" stroke="#9a32cd" stroke-dasharray="5,2" d="M475.45,-361.07C528.64,-328.08 631.42,-264.35 670.45,-240.14"/>
<polygon fill="#9a32cd" stroke="#9a32cd" points="473.39,-358.22 466.74,-366.47 477.08,-364.17 473.39,-358.22"/>
<text text-anchor="middle" x="574.5" y="-317.5" font-family="Helvetica,sans-Serif" font-size="10.00"> reads</text>
</g>
<!-- Node31 -->
<g id="node31" class="node">
<title>Node31</title>
<g id="a_node31"><a xlink:title=" ">
<polygon fill="white" stroke="#666666" points="244,-391 215,-391 215,-372 244,-372 244,-391"/>
<text text-anchor="middle" x="229.5" y="-379" font-family="Helvetica,sans-Serif" font-size="10.00">K</text>
</a>
</g>
</g>
<!-- Node31&#45;&gt;Node30 -->
<g id="edge34" class="edge">
<title>Node31&#45;&gt;Node30</title>
<path fill="none" stroke="#9a32cd" stroke-dasharray="5,2" d="M254.41,-381.5C278.92,-381.5 318.47,-381.5 354.82,-381.5"/>
<polygon fill="#9a32cd" stroke="#9a32cd" points="254.28,-378 244.28,-381.5 254.28,-385 254.28,-378"/>
<text text-anchor="middle" x="312.5" y="-384.5" font-family="Helvetica,sans-Serif" font-size="10.00"> keys</text>
</g>
<!-- Node32 -->
<g id="node32" class="node">
<title>Node32</title>
<g id="a_node32"><a xlink:title=" ">
<polygon fill="white" stroke="#666666" points="512,-310.5 371,-310.5 371,-258.5 512,-258.5 512,-310.5"/>
<text text-anchor="start" x="379" y="-298.5" font-family="Helvetica,sans-Serif" font-size="10.00">std::map&lt; kv::serialisers</text>
<text text-anchor="start" x="379" y="-287.5" font-family="Helvetica,sans-Serif" font-size="10.00">::SerialisedEntry, std</text>
<text text-anchor="start" x="379" y="-276.5" font-family="Helvetica,sans-Serif" font-size="10.00">::optional&lt; kv::serialisers</text>
<text text-anchor="middle" x="441.5" y="-265.5" font-family="Helvetica,sans-Serif" font-size="10.00">::SerialisedEntry &gt; &gt;</text>
</a>
</g>
</g>
<!-- Node32&#45;&gt;Node27 -->
<g id="edge35" class="edge">
<title>Node32&#45;&gt;Node27</title>
<path fill="none" stroke="#9a32cd" stroke-dasharray="5,2" d="M522.08,-266.85C562.33,-257.93 609.59,-247.45 643,-240.04"/>
<polygon fill="#9a32cd" stroke="#9a32cd" points="521.28,-263.44 512.28,-269.03 522.8,-270.28 521.28,-263.44"/>
<text text-anchor="middle" x="574.5" y="-263.5" font-family="Helvetica,sans-Serif" font-size="10.00"> writes</text>
</g>
<!-- Node33 -->
<g id="node33" class="node">
<title>Node33</title>
<g id="a_node33"><a xlink:title=" ">
<polygon fill="white" stroke="#666666" points="2528,-161.5 2415,-161.5 2415,-131.5 2528,-131.5 2528,-161.5"/>
<text text-anchor="start" x="2423" y="-149.5" font-family="Helvetica,sans-Serif" font-size="10.00">std::unique_ptr&lt; kv</text>
<text text-anchor="middle" x="2471.5" y="-138.5" font-family="Helvetica,sans-Serif" font-size="10.00">::CommittableTx &gt;</text>
</a>
</g>
</g>
<!-- Node33&#45;&gt;Node1 -->
<g id="edge36" class="edge">
<title>Node33&#45;&gt;Node1</title>
<path fill="none" stroke="#9a32cd" stroke-dasharray="5,2" d="M2538.39,-153.37C2562.63,-155.9 2590.14,-158.77 2614.64,-161.32"/>
<polygon fill="#9a32cd" stroke="#9a32cd" points="2538.52,-149.87 2528.21,-152.31 2537.8,-156.83 2538.52,-149.87"/>
<text text-anchor="middle" x="2571.5" y="-161.5" font-family="Helvetica,sans-Serif" font-size="10.00"> owned_tx</text>
</g>
<!-- Node34&#45;&gt;Node33 -->
<g id="edge37" class="edge">
<title>Node34&#45;&gt;Node33</title>
<path fill="none" stroke="#9a32cd" stroke-dasharray="5,2" d="M2360.87,-146.5C2378.62,-146.5 2397.72,-146.5 2414.93,-146.5"/>
<polygon fill="#9a32cd" stroke="#9a32cd" points="2360.6,-143 2350.6,-146.5 2360.6,-150 2360.6,-143"/>
<text text-anchor="middle" x="2388.5" y="-149.5" font-family="Helvetica,sans-Serif" font-size="10.00"> ptr</text>
</g>
<!-- Node35 -->
<g id="node35" class="node">
<title>Node35</title>
<g id="a_node35"><a xlink:href="structkv_1_1AbstractChangeContainer.html" target="_top" xlink:title=" ">
<polygon fill="white" stroke="#666666" points="2167.5,-136 2009.5,-136 2009.5,-117 2167.5,-117 2167.5,-136"/>
<text text-anchor="middle" x="2088.5" y="-124" font-family="Helvetica,sans-Serif" font-size="10.00">kv::AbstractChangeContainer</text>
</a>
</g>
</g>
<!-- Node35&#45;&gt;Node34 -->
<g id="edge39" class="edge">
<title>Node35&#45;&gt;Node34</title>
<path fill="none" stroke="#63b8ff" d="M2177.66,-135.1C2199.02,-137.19 2221.24,-139.35 2240.49,-141.23"/>
<polygon fill="#63b8ff" stroke="#63b8ff" points="2177.88,-131.61 2167.59,-134.12 2177.2,-138.57 2177.88,-131.61"/>
</g>
</g>
</svg>
