<?xml version="1.0" encoding="UTF-8" standalone="no"?>
<!DOCTYPE svg PUBLIC "-//W3C//DTD SVG 1.1//EN"
 "http://www.w3.org/Graphics/SVG/1.1/DTD/svg11.dtd">
<!-- Generated by graphviz version 2.43.0 (0)
 -->
<!-- Title: ccf::MemberCOSESign1AuthnIdentity Pages: 1 -->
<svg width="746pt" height="150pt"
 viewBox="0.00 0.00 746.00 149.50" xmlns="http://www.w3.org/2000/svg" xmlns:xlink="http://www.w3.org/1999/xlink">
<g id="graph0" class="graph" transform="scale(1 1) rotate(0) translate(4 145.5)">
<title>ccf::MemberCOSESign1AuthnIdentity</title>
<!-- Node1 -->
<g id="node1" class="node">
<title>Node1</title>
<g id="a_node1"><a xlink:title=" ">
<polygon fill="#999999" stroke="#666666" points="738,-91 580,-91 580,-61 738,-61 738,-91"/>
<text text-anchor="start" x="588" y="-79" font-family="Helvetica,sans-Serif" font-size="10.00">ccf::MemberCOSESign1Authn</text>
<text text-anchor="middle" x="659" y="-68" font-family="Helvetica,sans-Serif" font-size="10.00">Identity</text>
</a>
</g>
</g>
<!-- Node2 -->
<g id="node2" class="node">
<title>Node2</title>
<g id="a_node2"><a xlink:href="structccf_1_1AuthnIdentity.html" target="_top" xlink:title=" ">
<polygon fill="white" stroke="#666666" points="409,-141.5 307,-141.5 307,-122.5 409,-122.5 409,-141.5"/>
<text text-anchor="middle" x="358" y="-129.5" font-family="Helvetica,sans-Serif" font-size="10.00">ccf::AuthnIdentity</text>
</a>
</g>
</g>
<!-- Node2&#45;&gt;Node1 -->
<g id="edge1" class="edge">
<title>Node2&#45;&gt;Node1</title>
<path fill="none" stroke="#63b8ff" d="M419.34,-124.97C459.89,-119.79 514.42,-111.92 562,-102 576.71,-98.93 592.5,-94.95 606.95,-91.02"/>
<polygon fill="#63b8ff" stroke="#63b8ff" points="418.83,-121.51 409.35,-126.23 419.7,-128.46 418.83,-121.51"/>
</g>
<!-- Node3 -->
<g id="node3" class="node">
<title>Node3</title>
<g id="a_node3"><a xlink:href="structccf_1_1EntityId.html" target="_top" xlink:title=" ">
<polygon fill="white" stroke="#666666" points="455,-104.5 261,-104.5 261,-85.5 455,-85.5 455,-104.5"/>
<text text-anchor="middle" x="358" y="-92.5" font-family="Helvetica,sans-Serif" font-size="10.00">ccf::EntityId&lt; MemberIdFormatter &gt;</text>
</a>
</g>
</g>
<!-- Node3&#45;&gt;Node1 -->
<g id="edge2" class="edge">
<title>Node3&#45;&gt;Node1</title>
<path fill="none" stroke="#9a32cd" stroke-dasharray="5,2" d="M465.28,-88.25C503.07,-85.85 544.89,-83.19 579.89,-80.96"/>
<polygon fill="#9a32cd" stroke="#9a32cd" points="465.01,-84.76 455.25,-88.88 465.45,-91.74 465.01,-84.76"/>
<text text-anchor="middle" x="517.5" y="-90" font-family="Helvetica,sans-Serif" font-size="10.00"> member_id</text>
</g>
<!-- Node4 -->
<g id="node4" class="node">
<title>Node4</title>
<g id="a_node4"><a xlink:href="classcrypto_1_1Pem.html" target="_top" xlink:title=" ">
<polygon fill="white" stroke="#666666" points="395.5,-67.5 320.5,-67.5 320.5,-48.5 395.5,-48.5 395.5,-67.5"/>
<text text-anchor="middle" x="358" y="-55.5" font-family="Helvetica,sans-Serif" font-size="10.00">crypto::Pem</text>
</a>
</g>
</g>
<!-- Node4&#45;&gt;Node1 -->
<g id="edge3" class="edge">
<title>Node4&#45;&gt;Node1</title>
<path fill="none" stroke="#9a32cd" stroke-dasharray="5,2" d="M405.76,-57.26C446.96,-57.01 508.56,-57.59 562,-62 567.79,-62.48 573.76,-63.08 579.77,-63.77"/>
<polygon fill="#9a32cd" stroke="#9a32cd" points="405.71,-53.77 395.74,-57.35 405.77,-60.76 405.71,-53.77"/>
<text text-anchor="middle" x="517.5" y="-65" font-family="Helvetica,sans-Serif" font-size="10.00"> member_cert</text>
</g>
<!-- Node5 -->
<g id="node5" class="node">
<title>Node5</title>
<g id="a_node5"><a xlink:href="structccf_1_1GovernanceProtectedHeader.html" target="_top" xlink:title=" ">
<polygon fill="white" stroke="#666666" points="428.5,-30 287.5,-30 287.5,0 428.5,0 428.5,-30"/>
<text text-anchor="start" x="295.5" y="-18" font-family="Helvetica,sans-Serif" font-size="10.00">ccf::GovernanceProtected</text>
<text text-anchor="middle" x="358" y="-7" font-family="Helvetica,sans-Serif" font-size="10.00">Header</text>
</a>
</g>
</g>
<!-- Node5&#45;&gt;Node1 -->
<g id="edge4" class="edge">
<title>Node5&#45;&gt;Node1</title>
<path fill="none" stroke="#9a32cd" stroke-dasharray="5,2" d="M439.12,-21.77C476.76,-25.94 522.03,-32.38 562,-42 581.94,-46.8 603.52,-54.23 621.16,-60.92"/>
<polygon fill="#9a32cd" stroke="#9a32cd" points="439.03,-18.24 428.72,-20.65 438.29,-25.2 439.03,-18.24"/>
<text text-anchor="middle" x="517.5" y="-45" font-family="Helvetica,sans-Serif" font-size="10.00"> protected_header</text>
</g>
<!-- Node6 -->
<g id="node6" class="node">
<title>Node6</title>
<g id="a_node6"><a xlink:title=" ">
<polygon fill="white" stroke="#666666" points="206,-24.5 141,-24.5 141,-5.5 206,-5.5 206,-24.5"/>
<text text-anchor="middle" x="173.5" y="-12.5" font-family="Helvetica,sans-Serif" font-size="10.00">std::string</text>
</a>
</g>
</g>
<!-- Node6&#45;&gt;Node5 -->
<g id="edge5" class="edge">
<title>Node6&#45;&gt;Node5</title>
<path fill="none" stroke="#9a32cd" stroke-dasharray="5,2" d="M216.48,-15C237.5,-15 263.5,-15 287.39,-15"/>
<polygon fill="#9a32cd" stroke="#9a32cd" points="216.29,-11.5 206.29,-15 216.29,-18.5 216.29,-11.5"/>
<text text-anchor="middle" x="233.5" y="-18" font-family="Helvetica,sans-Serif" font-size="10.00"> kid</text>
</g>
<!-- Node7 -->
<g id="node7" class="node">
<title>Node7</title>
<g id="a_node7"><a xlink:title=" ">
<polygon fill="white" stroke="#666666" points="104,-30 0,-30 0,0 104,0 104,-30"/>
<text text-anchor="start" x="8" y="-18" font-family="Helvetica,sans-Serif" font-size="10.00">std::basic_string&lt;</text>
<text text-anchor="middle" x="52" y="-7" font-family="Helvetica,sans-Serif" font-size="10.00"> Char &gt;</text>
</a>
</g>
</g>
<!-- Node7&#45;&gt;Node6 -->
<g id="edge6" class="edge">
<title>Node7&#45;&gt;Node6</title>
<path fill="none" stroke="#63b8ff" d="M114.1,-15C123.41,-15 132.68,-15 141,-15"/>
<polygon fill="#63b8ff" stroke="#63b8ff" points="114.03,-11.5 104.03,-15 114.03,-18.5 114.03,-11.5"/>
</g>
</g>
</svg>
