<?xml version="1.0" encoding="UTF-8" standalone="no"?>
<!DOCTYPE svg PUBLIC "-//W3C//DTD SVG 1.1//EN"
 "http://www.w3.org/Graphics/SVG/1.1/DTD/svg11.dtd">
<!-- Generated by graphviz version 2.43.0 (0)
 -->
<!-- Title: crypto::JsonWebKeyRSAPrivate Pages: 1 -->
<svg width="253pt" height="274pt"
 viewBox="0.00 0.00 253.00 274.00" xmlns="http://www.w3.org/2000/svg" xmlns:xlink="http://www.w3.org/1999/xlink">
<g id="graph0" class="graph" transform="scale(1 1) rotate(0) translate(4 270)">
<title>crypto::JsonWebKeyRSAPrivate</title>
<!-- Node1 -->
<g id="node1" class="node">
<title>Node1</title>
<g id="a_node1"><a xlink:title=" ">
<polygon fill="#999999" stroke="#666666" points="222.5,-19 55.5,-19 55.5,0 222.5,0 222.5,-19"/>
<text text-anchor="middle" x="139" y="-7" font-family="Helvetica,sans-Serif" font-size="10.00">crypto::JsonWebKeyRSAPrivate</text>
</a>
</g>
</g>
<!-- Node2 -->
<g id="node2" class="node">
<title>Node2</title>
<g id="a_node2"><a xlink:href="structcrypto_1_1JsonWebKeyRSAPublic.html" target="_top" xlink:title=" ">
<polygon fill="white" stroke="#666666" points="162,-98.5 0,-98.5 0,-79.5 162,-79.5 162,-98.5"/>
<text text-anchor="middle" x="81" y="-86.5" font-family="Helvetica,sans-Serif" font-size="10.00">crypto::JsonWebKeyRSAPublic</text>
</a>
</g>
</g>
<!-- Node2&#45;&gt;Node1 -->
<g id="edge1" class="edge">
<title>Node2&#45;&gt;Node1</title>
<path fill="none" stroke="#63b8ff" d="M93.72,-71.01C105.63,-55.09 122.98,-31.91 132.36,-19.37"/>
<polygon fill="#63b8ff" stroke="#63b8ff" points="90.62,-69.31 87.43,-79.41 96.22,-73.5 90.62,-69.31"/>
</g>
<!-- Node3 -->
<g id="node3" class="node">
<title>Node3</title>
<g id="a_node3"><a xlink:href="structcrypto_1_1JsonWebKey.html" target="_top" xlink:title=" ">
<polygon fill="white" stroke="#666666" points="137.5,-199 24.5,-199 24.5,-180 137.5,-180 137.5,-199"/>
<text text-anchor="middle" x="81" y="-187" font-family="Helvetica,sans-Serif" font-size="10.00">crypto::JsonWebKey</text>
</a>
</g>
</g>
<!-- Node3&#45;&gt;Node2 -->
<g id="edge2" class="edge">
<title>Node3&#45;&gt;Node2</title>
<path fill="none" stroke="#63b8ff" d="M81,-169.62C81,-148.25 81,-114.34 81,-98.58"/>
<polygon fill="#63b8ff" stroke="#63b8ff" points="77.5,-169.76 81,-179.76 84.5,-169.76 77.5,-169.76"/>
</g>
<!-- Node4 -->
<g id="node4" class="node">
<title>Node4</title>
<g id="a_node4"><a xlink:title=" ">
<polygon fill="white" stroke="#666666" points="225.5,-199 160.5,-199 160.5,-180 225.5,-180 225.5,-199"/>
<text text-anchor="middle" x="193" y="-187" font-family="Helvetica,sans-Serif" font-size="10.00">std::string</text>
</a>
</g>
</g>
<!-- Node4&#45;&gt;Node1 -->
<g id="edge5" class="edge">
<title>Node4&#45;&gt;Node1</title>
<path fill="none" stroke="#9a32cd" stroke-dasharray="5,2" d="M192.49,-169.66C191.21,-143.3 186.71,-94.35 171,-56 165.22,-41.88 154.38,-27.86 146.94,-19.19"/>
<polygon fill="#9a32cd" stroke="#9a32cd" points="189,-169.91 192.88,-179.77 195.99,-169.64 189,-169.91"/>
<text text-anchor="middle" x="193.5" y="-114" font-family="Helvetica,sans-Serif" font-size="10.00"> d</text>
<text text-anchor="middle" x="193.5" y="-103" font-family="Helvetica,sans-Serif" font-size="10.00">dp</text>
<text text-anchor="middle" x="193.5" y="-92" font-family="Helvetica,sans-Serif" font-size="10.00">dq</text>
<text text-anchor="middle" x="193.5" y="-81" font-family="Helvetica,sans-Serif" font-size="10.00">p</text>
<text text-anchor="middle" x="193.5" y="-70" font-family="Helvetica,sans-Serif" font-size="10.00">q</text>
<text text-anchor="middle" x="193.5" y="-59" font-family="Helvetica,sans-Serif" font-size="10.00">qi</text>
</g>
<!-- Node4&#45;&gt;Node2 -->
<g id="edge3" class="edge">
<title>Node4&#45;&gt;Node2</title>
<path fill="none" stroke="#9a32cd" stroke-dasharray="5,2" d="M175.43,-173.05C151.56,-152.05 109.67,-115.21 90.76,-98.58"/>
<polygon fill="#9a32cd" stroke="#9a32cd" points="173.24,-175.78 183.06,-179.76 177.86,-170.53 173.24,-175.78"/>
<text text-anchor="middle" x="164" y="-154" font-family="Helvetica,sans-Serif" font-size="10.00"> e</text>
<text text-anchor="middle" x="164" y="-143" font-family="Helvetica,sans-Serif" font-size="10.00">n</text>
</g>
<!-- Node5 -->
<g id="node5" class="node">
<title>Node5</title>
<g id="a_node5"><a xlink:title=" ">
<polygon fill="white" stroke="#666666" points="245,-266 141,-266 141,-236 245,-236 245,-266"/>
<text text-anchor="start" x="149" y="-254" font-family="Helvetica,sans-Serif" font-size="10.00">std::basic_string&lt;</text>
<text text-anchor="middle" x="193" y="-243" font-family="Helvetica,sans-Serif" font-size="10.00"> Char &gt;</text>
</a>
</g>
</g>
<!-- Node5&#45;&gt;Node4 -->
<g id="edge4" class="edge">
<title>Node5&#45;&gt;Node4</title>
<path fill="none" stroke="#63b8ff" d="M193,-225.79C193,-216.36 193,-206.15 193,-199.16"/>
<polygon fill="#63b8ff" stroke="#63b8ff" points="189.5,-225.9 193,-235.9 196.5,-225.9 189.5,-225.9"/>
</g>
</g>
</svg>
