<?xml version="1.0" encoding="UTF-8" standalone="no"?>
<!DOCTYPE svg PUBLIC "-//W3C//DTD SVG 1.1//EN"
 "http://www.w3.org/Graphics/SVG/1.1/DTD/svg11.dtd">
<!-- Generated by graphviz version 2.43.0 (0)
 -->
<!-- Title: ccf::endpoints::Endpoint Pages: 1 -->
<svg width="1283pt" height="214pt"
 viewBox="0.00 0.00 1283.00 213.50" xmlns="http://www.w3.org/2000/svg" xmlns:xlink="http://www.w3.org/1999/xlink">
<g id="graph0" class="graph" transform="scale(1 1) rotate(0) translate(4 209.5)">
<title>ccf::endpoints::Endpoint</title>
<!-- Node1 -->
<g id="node1" class="node">
<title>Node1</title>
<g id="a_node1"><a xlink:title=" ">
<polygon fill="#999999" stroke="#666666" points="1275,-62 1142,-62 1142,-43 1275,-43 1275,-62"/>
<text text-anchor="middle" x="1208.5" y="-50" font-family="Helvetica,sans-Serif" font-size="10.00">ccf::endpoints::Endpoint</text>
</a>
</g>
</g>
<!-- Node2 -->
<g id="node2" class="node">
<title>Node2</title>
<g id="a_node2"><a xlink:href="structccf_1_1endpoints_1_1EndpointDefinition.html" target="_top" xlink:title=" ">
<polygon fill="white" stroke="#666666" points="998.5,-115.5 865.5,-115.5 865.5,-85.5 998.5,-85.5 998.5,-115.5"/>
<text text-anchor="start" x="873.5" y="-103.5" font-family="Helvetica,sans-Serif" font-size="10.00">ccf::endpoints::Endpoint</text>
<text text-anchor="middle" x="932" y="-92.5" font-family="Helvetica,sans-Serif" font-size="10.00">Definition</text>
</a>
</g>
</g>
<!-- Node2&#45;&gt;Node1 -->
<g id="edge1" class="edge">
<title>Node2&#45;&gt;Node1</title>
<path fill="none" stroke="#63b8ff" d="M1009.03,-87.48C1044.05,-81.46 1086.15,-74.17 1124,-67.5 1133.86,-65.76 1144.38,-63.89 1154.5,-62.08"/>
<polygon fill="#63b8ff" stroke="#63b8ff" points="1008.14,-84.09 998.87,-89.23 1009.32,-90.98 1008.14,-84.09"/>
</g>
<!-- Node3 -->
<g id="node3" class="node">
<title>Node3</title>
<g id="a_node3"><a xlink:href="structccf_1_1endpoints_1_1EndpointKey.html" target="_top" xlink:title=" ">
<polygon fill="white" stroke="#666666" points="480.5,-90 329.5,-90 329.5,-71 480.5,-71 480.5,-90"/>
<text text-anchor="middle" x="405" y="-78" font-family="Helvetica,sans-Serif" font-size="10.00">ccf::endpoints::EndpointKey</text>
</a>
</g>
</g>
<!-- Node3&#45;&gt;Node2 -->
<g id="edge2" class="edge">
<title>Node3&#45;&gt;Node2</title>
<path fill="none" stroke="#9a32cd" stroke-dasharray="5,2" d="M490.86,-83.73C595.32,-87.71 770.5,-94.39 865.29,-98"/>
<polygon fill="#9a32cd" stroke="#9a32cd" points="490.79,-80.23 480.66,-83.34 490.52,-87.22 490.79,-80.23"/>
<text text-anchor="middle" x="667" y="-95.5" font-family="Helvetica,sans-Serif" font-size="10.00"> dispatch</text>
</g>
<!-- Node4 -->
<g id="node4" class="node">
<title>Node4</title>
<g id="a_node4"><a xlink:title=" ">
<polygon fill="white" stroke="#666666" points="220.5,-148 155.5,-148 155.5,-129 220.5,-129 220.5,-148"/>
<text text-anchor="middle" x="188" y="-136" font-family="Helvetica,sans-Serif" font-size="10.00">std::string</text>
</a>
</g>
</g>
<!-- Node4&#45;&gt;Node2 -->
<g id="edge6" class="edge">
<title>Node4&#45;&gt;Node2</title>
<path fill="none" stroke="#9a32cd" stroke-dasharray="5,2" d="M231.05,-136.35C354.42,-130.03 716.05,-111.51 865.36,-103.86"/>
<polygon fill="#9a32cd" stroke="#9a32cd" points="230.69,-132.86 220.88,-136.87 231.05,-139.85 230.69,-132.86"/>
<text text-anchor="middle" x="545" y="-124.5" font-family="Helvetica,sans-Serif" font-size="10.00"> full_uri_path</text>
</g>
<!-- Node4&#45;&gt;Node3 -->
<g id="edge3" class="edge">
<title>Node4&#45;&gt;Node3</title>
<path fill="none" stroke="#9a32cd" stroke-dasharray="5,2" d="M207.29,-122.14C219.38,-112.34 236.06,-100.63 253,-94.5 277.01,-85.81 304.51,-81.69 329.4,-79.93"/>
<polygon fill="#9a32cd" stroke="#9a32cd" points="204.75,-119.71 199.37,-128.83 209.26,-125.06 204.75,-119.71"/>
<text text-anchor="middle" x="277.5" y="-97.5" font-family="Helvetica,sans-Serif" font-size="10.00"> uri_path</text>
</g>
<!-- Node7 -->
<g id="node7" class="node">
<title>Node7</title>
<g id="a_node7"><a xlink:href="structccf_1_1endpoints_1_1EndpointProperties.html" target="_top" xlink:title=" ">
<polygon fill="white" stroke="#666666" points="733.5,-177.5 600.5,-177.5 600.5,-147.5 733.5,-147.5 733.5,-177.5"/>
<text text-anchor="start" x="608.5" y="-165.5" font-family="Helvetica,sans-Serif" font-size="10.00">ccf::endpoints::Endpoint</text>
<text text-anchor="middle" x="667" y="-154.5" font-family="Helvetica,sans-Serif" font-size="10.00">Properties</text>
</a>
</g>
</g>
<!-- Node4&#45;&gt;Node7 -->
<g id="edge10" class="edge">
<title>Node4&#45;&gt;Node7</title>
<path fill="none" stroke="#9a32cd" stroke-dasharray="5,2" d="M221.4,-151.75C231.42,-155.55 242.57,-159.47 253,-162.5 282.22,-170.98 289.74,-173.37 320,-176.5 435.83,-188.47 465.95,-185.06 582,-175.5 587.88,-175.02 593.98,-174.36 600.08,-173.61"/>
<polygon fill="#9a32cd" stroke="#9a32cd" points="222.41,-148.38 211.82,-148.03 219.88,-154.91 222.41,-148.38"/>
<text text-anchor="middle" x="405" y="-197.5" font-family="Helvetica,sans-Serif" font-size="10.00"> js_function</text>
<text text-anchor="middle" x="405" y="-186.5" font-family="Helvetica,sans-Serif" font-size="10.00">js_module</text>
</g>
<!-- Node8 -->
<g id="node8" class="node">
<title>Node8</title>
<g id="a_node8"><a xlink:title=" ">
<polygon fill="white" stroke="#666666" points="475,-167 335,-167 335,-148 475,-148 475,-167"/>
<text text-anchor="middle" x="405" y="-155" font-family="Helvetica,sans-Serif" font-size="10.00">std::vector&lt; std::string &gt;</text>
</a>
</g>
</g>
<!-- Node4&#45;&gt;Node8 -->
<g id="edge9" class="edge">
<title>Node4&#45;&gt;Node8</title>
<path fill="none" stroke="#9a32cd" stroke-dasharray="5,2" d="M230.69,-142.18C260.21,-144.79 300.49,-148.35 334.79,-151.38"/>
<polygon fill="#9a32cd" stroke="#9a32cd" points="230.99,-138.7 220.72,-141.3 230.38,-145.67 230.99,-138.7"/>
<text text-anchor="middle" x="277.5" y="-150.5" font-family="Helvetica,sans-Serif" font-size="10.00"> elements</text>
</g>
<!-- Node5 -->
<g id="node5" class="node">
<title>Node5</title>
<g id="a_node5"><a xlink:title=" ">
<polygon fill="white" stroke="#666666" points="104,-153.5 0,-153.5 0,-123.5 104,-123.5 104,-153.5"/>
<text text-anchor="start" x="8" y="-141.5" font-family="Helvetica,sans-Serif" font-size="10.00">std::basic_string&lt;</text>
<text text-anchor="middle" x="52" y="-130.5" font-family="Helvetica,sans-Serif" font-size="10.00"> Char &gt;</text>
</a>
</g>
</g>
<!-- Node5&#45;&gt;Node4 -->
<g id="edge4" class="edge">
<title>Node5&#45;&gt;Node4</title>
<path fill="none" stroke="#63b8ff" d="M114.32,-138.5C128.57,-138.5 143.16,-138.5 155.49,-138.5"/>
<polygon fill="#63b8ff" stroke="#63b8ff" points="114.04,-135 104.04,-138.5 114.04,-142 114.04,-135"/>
</g>
<!-- Node6 -->
<g id="node6" class="node">
<title>Node6</title>
<g id="a_node6"><a xlink:href="classccf_1_1RESTVerb.html" target="_top" xlink:title=" ">
<polygon fill="white" stroke="#666666" points="229.5,-69 146.5,-69 146.5,-50 229.5,-50 229.5,-69"/>
<text text-anchor="middle" x="188" y="-57" font-family="Helvetica,sans-Serif" font-size="10.00">ccf::RESTVerb</text>
</a>
</g>
</g>
<!-- Node6&#45;&gt;Node3 -->
<g id="edge5" class="edge">
<title>Node6&#45;&gt;Node3</title>
<path fill="none" stroke="#9a32cd" stroke-dasharray="5,2" d="M239.83,-57.96C259.32,-57.89 281.73,-58.44 302,-60.5 322.83,-62.62 345.72,-66.92 364.53,-71"/>
<polygon fill="#9a32cd" stroke="#9a32cd" points="239.6,-54.46 229.63,-58.05 239.66,-61.46 239.6,-54.46"/>
<text text-anchor="middle" x="277.5" y="-63.5" font-family="Helvetica,sans-Serif" font-size="10.00"> verb</text>
</g>
<!-- Node7&#45;&gt;Node2 -->
<g id="edge7" class="edge">
<title>Node7&#45;&gt;Node2</title>
<path fill="none" stroke="#9a32cd" stroke-dasharray="5,2" d="M743.61,-150.57C769.85,-145.92 799.36,-140.11 826,-133.5 846.4,-128.44 868.66,-121.64 887.41,-115.52"/>
<polygon fill="#9a32cd" stroke="#9a32cd" points="742.98,-147.13 733.73,-152.3 744.18,-154.02 742.98,-147.13"/>
<text text-anchor="middle" x="789" y="-151.5" font-family="Helvetica,sans-Serif" font-size="10.00"> properties</text>
</g>
<!-- Node8&#45;&gt;Node7 -->
<g id="edge8" class="edge">
<title>Node8&#45;&gt;Node7</title>
<path fill="none" stroke="#9a32cd" stroke-dasharray="5,2" d="M485.53,-159.03C522.34,-159.74 565.54,-160.57 600.44,-161.24"/>
<polygon fill="#9a32cd" stroke="#9a32cd" points="485.4,-155.53 475.33,-158.83 485.26,-162.53 485.4,-155.53"/>
<text text-anchor="middle" x="545" y="-163.5" font-family="Helvetica,sans-Serif" font-size="10.00"> authn_policies</text>
</g>
<!-- Node9 -->
<g id="node9" class="node">
<title>Node9</title>
<g id="a_node9"><a xlink:title=" ">
<polygon fill="white" stroke="#666666" points="734,-43.5 600,-43.5 600,-13.5 734,-13.5 734,-43.5"/>
<text text-anchor="start" x="608" y="-31.5" font-family="Helvetica,sans-Serif" font-size="10.00">std::vector&lt; std::shared</text>
<text text-anchor="middle" x="667" y="-20.5" font-family="Helvetica,sans-Serif" font-size="10.00">_ptr&lt; AuthnPolicy &gt; &gt;</text>
</a>
</g>
</g>
<!-- Node9&#45;&gt;Node2 -->
<g id="edge11" class="edge">
<title>Node9&#45;&gt;Node2</title>
<path fill="none" stroke="#9a32cd" stroke-dasharray="5,2" d="M744.31,-30.91C771.49,-34.44 801.42,-41.57 826,-55.5 836.69,-61.56 833.62,-69.91 844,-76.5 850.48,-80.61 857.67,-84.03 865.06,-86.87"/>
<polygon fill="#9a32cd" stroke="#9a32cd" points="744.38,-27.39 734.05,-29.73 743.58,-34.35 744.38,-27.39"/>
<text text-anchor="middle" x="789" y="-58.5" font-family="Helvetica,sans-Serif" font-size="10.00"> authn_policies</text>
</g>
<!-- Node10 -->
<g id="node10" class="node">
<title>Node10</title>
<g id="a_node10"><a xlink:title=" ">
<polygon fill="white" stroke="#666666" points="490,-33 320,-33 320,-14 490,-14 490,-33"/>
<text text-anchor="middle" x="405" y="-21" font-family="Helvetica,sans-Serif" font-size="10.00">std::shared_ptr&lt; AuthnPolicy &gt;</text>
</a>
</g>
</g>
<!-- Node10&#45;&gt;Node9 -->
<g id="edge12" class="edge">
<title>Node10&#45;&gt;Node9</title>
<path fill="none" stroke="#9a32cd" stroke-dasharray="5,2" d="M500.2,-25.31C533.26,-25.95 569.68,-26.65 599.94,-27.23"/>
<polygon fill="#9a32cd" stroke="#9a32cd" points="500.12,-21.81 490.06,-25.12 499.99,-28.81 500.12,-21.81"/>
<text text-anchor="middle" x="545" y="-30.5" font-family="Helvetica,sans-Serif" font-size="10.00"> elements</text>
</g>
<!-- Node11 -->
<g id="node11" class="node">
<title>Node11</title>
<g id="a_node11"><a xlink:href="classccf_1_1AuthnPolicy.html" target="_top" xlink:title=" ">
<polygon fill="white" stroke="#666666" points="235,-32 141,-32 141,-13 235,-13 235,-32"/>
<text text-anchor="middle" x="188" y="-20" font-family="Helvetica,sans-Serif" font-size="10.00">ccf::AuthnPolicy</text>
</a>
</g>
</g>
<!-- Node11&#45;&gt;Node10 -->
<g id="edge13" class="edge">
<title>Node11&#45;&gt;Node10</title>
<path fill="none" stroke="#9a32cd" stroke-dasharray="5,2" d="M245.28,-22.76C268.04,-22.87 294.79,-22.99 319.79,-23.11"/>
<polygon fill="#9a32cd" stroke="#9a32cd" points="245.14,-19.26 235.12,-22.71 245.11,-26.26 245.14,-19.26"/>
<text text-anchor="middle" x="277.5" y="-26.5" font-family="Helvetica,sans-Serif" font-size="10.00"> ptr</text>
</g>
<!-- Node12 -->
<g id="node12" class="node">
<title>Node12</title>
<g id="a_node12"><a xlink:href="structccf_1_1endpoints_1_1Endpoint_1_1Installer.html" target="_top" xlink:title=" ">
<polygon fill="white" stroke="#666666" points="998.5,-67.5 865.5,-67.5 865.5,-37.5 998.5,-37.5 998.5,-67.5"/>
<text text-anchor="start" x="873.5" y="-55.5" font-family="Helvetica,sans-Serif" font-size="10.00">ccf::endpoints::Endpoint</text>
<text text-anchor="middle" x="932" y="-44.5" font-family="Helvetica,sans-Serif" font-size="10.00">::Installer</text>
</a>
</g>
</g>
<!-- Node12&#45;&gt;Node1 -->
<g id="edge14" class="edge">
<title>Node12&#45;&gt;Node1</title>
<path fill="none" stroke="#9a32cd" stroke-dasharray="5,2" d="M1008.86,-52.5C1050.58,-52.5 1101.82,-52.5 1141.81,-52.5"/>
<polygon fill="#9a32cd" stroke="#9a32cd" points="1008.75,-49 998.75,-52.5 1008.75,-56 1008.75,-49"/>
<text text-anchor="middle" x="1081" y="-55.5" font-family="Helvetica,sans-Serif" font-size="10.00"> installer</text>
</g>
<!-- Node13 -->
<g id="node13" class="node">
<title>Node13</title>
<g id="a_node13"><a xlink:title=" ">
<polygon fill="white" stroke="#666666" points="1020,-19 844,-19 844,0 1020,0 1020,-19"/>
<text text-anchor="middle" x="932" y="-7" font-family="Helvetica,sans-Serif" font-size="10.00">std::vector&lt; SchemaBuilderFn &gt;</text>
</a>
</g>
</g>
<!-- Node13&#45;&gt;Node1 -->
<g id="edge15" class="edge">
<title>Node13&#45;&gt;Node1</title>
<path fill="none" stroke="#9a32cd" stroke-dasharray="5,2" d="M1011.62,-20.44C1046.14,-25.4 1087.12,-31.49 1124,-37.5 1134.32,-39.18 1145.34,-41.09 1155.88,-42.96"/>
<polygon fill="#9a32cd" stroke="#9a32cd" points="1011.99,-16.96 1001.59,-19.01 1011,-23.89 1011.99,-16.96"/>
<text text-anchor="middle" x="1081" y="-40.5" font-family="Helvetica,sans-Serif" font-size="10.00"> schema_builders</text>
</g>
</g>
</svg>
