<?xml version="1.0" encoding="UTF-8" standalone="no"?>
<!DOCTYPE svg PUBLIC "-//W3C//DTD SVG 1.1//EN"
 "http://www.w3.org/Graphics/SVG/1.1/DTD/svg11.dtd">
<!-- Generated by graphviz version 2.43.0 (0)
 -->
<!-- Title: ccf::ValidityPeriodsCache Pages: 1 -->
<svg width="262pt" height="104pt"
 viewBox="0.00 0.00 261.50 104.00" xmlns="http://www.w3.org/2000/svg" xmlns:xlink="http://www.w3.org/1999/xlink">
<g id="graph0" class="graph" transform="scale(1 1) rotate(0) translate(4 100)">
<title>ccf::ValidityPeriodsCache</title>
<!-- Node1 -->
<g id="node1" class="node">
<title>Node1</title>
<g id="a_node1"><a xlink:title=" ">
<polygon fill="#999999" stroke="#666666" points="172,-19 33,-19 33,0 172,0 172,-19"/>
<text text-anchor="middle" x="102.5" y="-7" font-family="Helvetica,sans-Serif" font-size="10.00">ccf::ValidityPeriodsCache</text>
</a>
</g>
</g>
<!-- Node2 -->
<g id="node2" class="node">
<title>Node2</title>
<g id="a_node2"><a xlink:title=" ">
<polygon fill="white" stroke="#666666" points="69,-90.5 0,-90.5 0,-71.5 69,-71.5 69,-90.5"/>
<text text-anchor="middle" x="34.5" y="-78.5" font-family="Helvetica,sans-Serif" font-size="10.00">std::mutex</text>
</a>
</g>
</g>
<!-- Node2&#45;&gt;Node1 -->
<g id="edge1" class="edge">
<title>Node2&#45;&gt;Node1</title>
<path fill="none" stroke="#9a32cd" stroke-dasharray="5,2" d="M50.13,-64.03C63.81,-50.05 83.15,-30.28 94.09,-19.09"/>
<polygon fill="#9a32cd" stroke="#9a32cd" points="47.33,-61.88 42.84,-71.48 52.33,-66.78 47.33,-61.88"/>
<text text-anchor="middle" x="108" y="-40" font-family="Helvetica,sans-Serif" font-size="10.00"> periods_lock</text>
</g>
<!-- Node3 -->
<g id="node3" class="node">
<title>Node3</title>
<g id="a_node3"><a xlink:href="classLRU.html" target="_top" xlink:title=" ">
<polygon fill="white" stroke="#666666" points="253.5,-96 87.5,-96 87.5,-66 253.5,-66 253.5,-96"/>
<text text-anchor="start" x="95.5" y="-84" font-family="Helvetica,sans-Serif" font-size="10.00">LRU&lt; DER, ccf::ValidityPeriods</text>
<text text-anchor="middle" x="170.5" y="-73" font-family="Helvetica,sans-Serif" font-size="10.00">Cache::ValidityPeriod &gt;</text>
</a>
</g>
</g>
<!-- Node3&#45;&gt;Node1 -->
<g id="edge2" class="edge">
<title>Node3&#45;&gt;Node1</title>
<path fill="none" stroke="#9a32cd" stroke-dasharray="5,2" d="M159.1,-56.75C155.07,-49.91 150.13,-42.74 144.5,-37 137.5,-29.86 128.22,-23.75 120.16,-19.2"/>
<polygon fill="#9a32cd" stroke="#9a32cd" points="156.12,-58.6 163.99,-65.7 162.26,-55.24 156.12,-58.6"/>
<text text-anchor="middle" x="172.5" y="-40" font-family="Helvetica,sans-Serif" font-size="10.00"> periods</text>
</g>
</g>
</svg>
