<?xml version="1.0" encoding="UTF-8" standalone="no"?>
<!DOCTYPE svg PUBLIC "-//W3C//DTD SVG 1.1//EN"
 "http://www.w3.org/Graphics/SVG/1.1/DTD/svg11.dtd">
<!-- Generated by graphviz version 2.43.0 (0)
 -->
<!-- Title: ccf::GetCode::Out Pages: 1 -->
<svg width="149pt" height="303pt"
 viewBox="0.00 0.00 149.00 303.00" xmlns="http://www.w3.org/2000/svg" xmlns:xlink="http://www.w3.org/1999/xlink">
<g id="graph0" class="graph" transform="scale(1 1) rotate(0) translate(4 299)">
<title>ccf::GetCode::Out</title>
<!-- Node1 -->
<g id="node1" class="node">
<title>Node1</title>
<g id="a_node1"><a xlink:title=" ">
<polygon fill="#999999" stroke="#666666" points="121,-19 20,-19 20,0 121,0 121,-19"/>
<text text-anchor="middle" x="70.5" y="-7" font-family="Helvetica,sans-Serif" font-size="10.00">ccf::GetCode::Out</text>
</a>
</g>
</g>
<!-- Node2 -->
<g id="node2" class="node">
<title>Node2</title>
<g id="a_node2"><a xlink:title=" ">
<polygon fill="white" stroke="#666666" points="141,-96 0,-96 0,-66 141,-66 141,-96"/>
<text text-anchor="start" x="8" y="-84" font-family="Helvetica,sans-Serif" font-size="10.00">std::vector&lt; ccf::GetCode</text>
<text text-anchor="middle" x="70.5" y="-73" font-family="Helvetica,sans-Serif" font-size="10.00">::Version &gt;</text>
</a>
</g>
</g>
<!-- Node2&#45;&gt;Node1 -->
<g id="edge1" class="edge">
<title>Node2&#45;&gt;Node1</title>
<path fill="none" stroke="#9a32cd" stroke-dasharray="5,2" d="M70.5,-55.56C70.5,-42.95 70.5,-28.35 70.5,-19.27"/>
<polygon fill="#9a32cd" stroke="#9a32cd" points="67,-55.94 70.5,-65.94 74,-55.94 67,-55.94"/>
<text text-anchor="middle" x="93" y="-40" font-family="Helvetica,sans-Serif" font-size="10.00"> versions</text>
</g>
<!-- Node3 -->
<g id="node3" class="node">
<title>Node3</title>
<g id="a_node3"><a xlink:href="structccf_1_1GetCode_1_1Version.html" target="_top" xlink:title=" ">
<polygon fill="white" stroke="#666666" points="130.5,-162 10.5,-162 10.5,-143 130.5,-143 130.5,-162"/>
<text text-anchor="middle" x="70.5" y="-150" font-family="Helvetica,sans-Serif" font-size="10.00">ccf::GetCode::Version</text>
</a>
</g>
</g>
<!-- Node3&#45;&gt;Node2 -->
<g id="edge2" class="edge">
<title>Node3&#45;&gt;Node2</title>
<path fill="none" stroke="#9a32cd" stroke-dasharray="5,2" d="M70.5,-132.71C70.5,-121.19 70.5,-106.68 70.5,-96.14"/>
<polygon fill="#9a32cd" stroke="#9a32cd" points="67,-132.98 70.5,-142.98 74,-132.98 67,-132.98"/>
<text text-anchor="middle" x="95" y="-117" font-family="Helvetica,sans-Serif" font-size="10.00"> elements</text>
</g>
<!-- Node4 -->
<g id="node4" class="node">
<title>Node4</title>
<g id="a_node4"><a xlink:title=" ">
<polygon fill="white" stroke="#666666" points="103,-228 38,-228 38,-209 103,-209 103,-228"/>
<text text-anchor="middle" x="70.5" y="-216" font-family="Helvetica,sans-Serif" font-size="10.00">std::string</text>
</a>
</g>
</g>
<!-- Node4&#45;&gt;Node3 -->
<g id="edge3" class="edge">
<title>Node4&#45;&gt;Node3</title>
<path fill="none" stroke="#9a32cd" stroke-dasharray="5,2" d="M70.5,-198.58C70.5,-186.63 70.5,-171.72 70.5,-162.41"/>
<polygon fill="#9a32cd" stroke="#9a32cd" points="67,-198.87 70.5,-208.87 74,-198.87 67,-198.87"/>
<text text-anchor="middle" x="87.5" y="-183" font-family="Helvetica,sans-Serif" font-size="10.00"> digest</text>
</g>
<!-- Node5 -->
<g id="node5" class="node">
<title>Node5</title>
<g id="a_node5"><a xlink:title=" ">
<polygon fill="white" stroke="#666666" points="122.5,-295 18.5,-295 18.5,-265 122.5,-265 122.5,-295"/>
<text text-anchor="start" x="26.5" y="-283" font-family="Helvetica,sans-Serif" font-size="10.00">std::basic_string&lt;</text>
<text text-anchor="middle" x="70.5" y="-272" font-family="Helvetica,sans-Serif" font-size="10.00"> Char &gt;</text>
</a>
</g>
</g>
<!-- Node5&#45;&gt;Node4 -->
<g id="edge4" class="edge">
<title>Node5&#45;&gt;Node4</title>
<path fill="none" stroke="#63b8ff" d="M70.5,-254.79C70.5,-245.36 70.5,-235.15 70.5,-228.16"/>
<polygon fill="#63b8ff" stroke="#63b8ff" points="67,-254.9 70.5,-264.9 74,-254.9 67,-254.9"/>
</g>
</g>
</svg>
