<?xml version="1.0" encoding="UTF-8" standalone="no"?>
<!DOCTYPE svg PUBLIC "-//W3C//DTD SVG 1.1//EN"
 "http://www.w3.org/Graphics/SVG/1.1/DTD/svg11.dtd">
<!-- Generated by graphviz version 2.43.0 (0)
 -->
<!-- Title: ACME::Client::Challenge Pages: 1 -->
<svg width="161pt" height="182pt"
 viewBox="0.00 0.00 161.00 182.00" xmlns="http://www.w3.org/2000/svg" xmlns:xlink="http://www.w3.org/1999/xlink">
<g id="graph0" class="graph" transform="scale(1 1) rotate(0) translate(4 178)">
<title>ACME::Client::Challenge</title>
<!-- Node1 -->
<g id="node1" class="node">
<title>Node1</title>
<g id="a_node1"><a xlink:title=" ">
<polygon fill="#999999" stroke="#666666" points="134,-19 0,-19 0,0 134,0 134,-19"/>
<text text-anchor="middle" x="67" y="-7" font-family="Helvetica,sans-Serif" font-size="10.00">ACME::Client::Challenge</text>
</a>
</g>
</g>
<!-- Node2 -->
<g id="node2" class="node">
<title>Node2</title>
<g id="a_node2"><a xlink:title=" ">
<polygon fill="white" stroke="#666666" points="99.5,-107 34.5,-107 34.5,-88 99.5,-88 99.5,-107"/>
<text text-anchor="middle" x="67" y="-95" font-family="Helvetica,sans-Serif" font-size="10.00">std::string</text>
</a>
</g>
</g>
<!-- Node2&#45;&gt;Node1 -->
<g id="edge1" class="edge">
<title>Node2&#45;&gt;Node1</title>
<path fill="none" stroke="#9a32cd" stroke-dasharray="5,2" d="M67,-77.91C67,-59.67 67,-32.65 67,-19.03"/>
<polygon fill="#9a32cd" stroke="#9a32cd" points="63.5,-77.94 67,-87.94 70.5,-77.94 63.5,-77.94"/>
<text text-anchor="middle" x="110" y="-62" font-family="Helvetica,sans-Serif" font-size="10.00"> authorization_url</text>
<text text-anchor="middle" x="110" y="-51" font-family="Helvetica,sans-Serif" font-size="10.00">challenge_url</text>
<text text-anchor="middle" x="110" y="-40" font-family="Helvetica,sans-Serif" font-size="10.00">token</text>
</g>
<!-- Node3 -->
<g id="node3" class="node">
<title>Node3</title>
<g id="a_node3"><a xlink:title=" ">
<polygon fill="white" stroke="#666666" points="119,-174 15,-174 15,-144 119,-144 119,-174"/>
<text text-anchor="start" x="23" y="-162" font-family="Helvetica,sans-Serif" font-size="10.00">std::basic_string&lt;</text>
<text text-anchor="middle" x="67" y="-151" font-family="Helvetica,sans-Serif" font-size="10.00"> Char &gt;</text>
</a>
</g>
</g>
<!-- Node3&#45;&gt;Node2 -->
<g id="edge2" class="edge">
<title>Node3&#45;&gt;Node2</title>
<path fill="none" stroke="#63b8ff" d="M67,-133.79C67,-124.36 67,-114.15 67,-107.16"/>
<polygon fill="#63b8ff" stroke="#63b8ff" points="63.5,-133.9 67,-143.9 70.5,-133.9 63.5,-133.9"/>
</g>
</g>
</svg>
