<?xml version="1.0" encoding="UTF-8" standalone="no"?>
<!DOCTYPE svg PUBLIC "-//W3C//DTD SVG 1.1//EN"
 "http://www.w3.org/Graphics/SVG/1.1/DTD/svg11.dtd">
<!-- Generated by graphviz version 2.43.0 (0)
 -->
<!-- Title: ccf::TxReceiptImpl Pages: 1 -->
<svg width="401pt" height="150pt"
 viewBox="0.00 0.00 401.00 150.00" xmlns="http://www.w3.org/2000/svg" xmlns:xlink="http://www.w3.org/1999/xlink">
<g id="graph0" class="graph" transform="scale(1 1) rotate(0) translate(4 146)">
<title>ccf::TxReceiptImpl</title>
<!-- Node1 -->
<g id="node1" class="node">
<title>Node1</title>
<g id="a_node1"><a xlink:title=" ">
<polygon fill="#999999" stroke="#666666" points="393,-77 286,-77 286,-58 393,-58 393,-77"/>
<text text-anchor="middle" x="339.5" y="-65" font-family="Helvetica,sans-Serif" font-size="10.00">ccf::TxReceiptImpl</text>
</a>
</g>
</g>
<!-- Node2 -->
<g id="node2" class="node">
<title>Node2</title>
<g id="a_node2"><a xlink:title=" ">
<polygon fill="white" stroke="#666666" points="152,-142 27,-142 27,-123 152,-123 152,-142"/>
<text text-anchor="middle" x="89.5" y="-130" font-family="Helvetica,sans-Serif" font-size="10.00">std::vector&lt; uint8_t &gt;</text>
</a>
</g>
</g>
<!-- Node2&#45;&gt;Node1 -->
<g id="edge1" class="edge">
<title>Node2&#45;&gt;Node1</title>
<path fill="none" stroke="#9a32cd" stroke-dasharray="5,2" d="M156.04,-120.99C189.8,-114.42 231.45,-105.34 268,-94.5 284.46,-89.62 302.54,-82.66 316.26,-77.03"/>
<polygon fill="#9a32cd" stroke="#9a32cd" points="154.99,-117.62 145.83,-122.94 156.31,-124.5 154.99,-117.62"/>
<text text-anchor="middle" x="232.5" y="-114.5" font-family="Helvetica,sans-Serif" font-size="10.00"> signature</text>
</g>
<!-- Node3 -->
<g id="node3" class="node">
<title>Node3</title>
<g id="a_node3"><a xlink:title=" ">
<polygon fill="white" stroke="#666666" points="147.5,-104.5 31.5,-104.5 31.5,-74.5 147.5,-74.5 147.5,-104.5"/>
<text text-anchor="start" x="39.5" y="-92.5" font-family="Helvetica,sans-Serif" font-size="10.00">std::shared_ptr&lt; ccf</text>
<text text-anchor="middle" x="89.5" y="-81.5" font-family="Helvetica,sans-Serif" font-size="10.00">::HistoryTree::Path &gt;</text>
</a>
</g>
</g>
<!-- Node3&#45;&gt;Node1 -->
<g id="edge2" class="edge">
<title>Node3&#45;&gt;Node1</title>
<path fill="none" stroke="#9a32cd" stroke-dasharray="5,2" d="M157.71,-83.54C197.98,-79.97 248.44,-75.49 285.81,-72.17"/>
<polygon fill="#9a32cd" stroke="#9a32cd" points="157.36,-80.06 147.71,-84.43 157.98,-87.03 157.36,-80.06"/>
<text text-anchor="middle" x="232.5" y="-82.5" font-family="Helvetica,sans-Serif" font-size="10.00"> path</text>
</g>
<!-- Node4 -->
<g id="node4" class="node">
<title>Node4</title>
<g id="a_node4"><a xlink:href="structccf_1_1EntityId.html" target="_top" xlink:title=" ">
<polygon fill="white" stroke="#666666" points="179,-56 0,-56 0,-37 179,-37 179,-56"/>
<text text-anchor="middle" x="89.5" y="-44" font-family="Helvetica,sans-Serif" font-size="10.00">ccf::EntityId&lt; NodeIdFormatter &gt;</text>
</a>
</g>
</g>
<!-- Node4&#45;&gt;Node1 -->
<g id="edge3" class="edge">
<title>Node4&#45;&gt;Node1</title>
<path fill="none" stroke="#9a32cd" stroke-dasharray="5,2" d="M189.24,-50.33C214.92,-51.8 242.53,-53.8 268,-56.5 273.79,-57.11 279.83,-57.87 285.83,-58.7"/>
<polygon fill="#9a32cd" stroke="#9a32cd" points="189.3,-46.83 179.12,-49.77 188.91,-53.82 189.3,-46.83"/>
<text text-anchor="middle" x="232.5" y="-59.5" font-family="Helvetica,sans-Serif" font-size="10.00"> node_id</text>
</g>
<!-- Node5 -->
<g id="node5" class="node">
<title>Node5</title>
<g id="a_node5"><a xlink:href="classccf_1_1ClaimsDigest.html" target="_top" xlink:title=" ">
<polygon fill="white" stroke="#666666" points="140,-19 39,-19 39,0 140,0 140,-19"/>
<text text-anchor="middle" x="89.5" y="-7" font-family="Helvetica,sans-Serif" font-size="10.00">ccf::ClaimsDigest</text>
</a>
</g>
</g>
<!-- Node5&#45;&gt;Node1 -->
<g id="edge4" class="edge">
<title>Node5&#45;&gt;Node1</title>
<path fill="none" stroke="#9a32cd" stroke-dasharray="5,2" d="M150.29,-14.04C185.15,-17.73 229.65,-24.23 268,-35.5 286.83,-41.03 307.11,-50.66 321.07,-57.92"/>
<polygon fill="#9a32cd" stroke="#9a32cd" points="150.57,-10.55 140.27,-13.03 149.87,-17.52 150.57,-10.55"/>
<text text-anchor="middle" x="232.5" y="-38.5" font-family="Helvetica,sans-Serif" font-size="10.00"> claims_digest</text>
</g>
</g>
</svg>
