<?xml version="1.0" encoding="UTF-8" standalone="no"?>
<!DOCTYPE svg PUBLIC "-//W3C//DTD SVG 1.1//EN"
 "http://www.w3.org/Graphics/SVG/1.1/DTD/svg11.dtd">
<!-- Generated by graphviz version 2.43.0 (0)
 -->
<!-- Title: http::SimpleResponseProcessor Pages: 1 -->
<svg width="391pt" height="402pt"
 viewBox="0.00 0.00 390.50 402.00" xmlns="http://www.w3.org/2000/svg" xmlns:xlink="http://www.w3.org/1999/xlink">
<g id="graph0" class="graph" transform="scale(1 1) rotate(0) translate(4 398)">
<title>http::SimpleResponseProcessor</title>
<!-- Node1 -->
<g id="node1" class="node">
<title>Node1</title>
<g id="a_node1"><a xlink:title=" ">
<polygon fill="#999999" stroke="#666666" points="170,-19 0,-19 0,0 170,0 170,-19"/>
<text text-anchor="middle" x="85" y="-7" font-family="Helvetica,sans-Serif" font-size="10.00">http::SimpleResponseProcessor</text>
</a>
</g>
</g>
<!-- Node2 -->
<g id="node2" class="node">
<title>Node2</title>
<g id="a_node2"><a xlink:href="classhttp_1_1ResponseProcessor.html" target="_top" xlink:title=" ">
<polygon fill="white" stroke="#666666" points="137.5,-90.5 0.5,-90.5 0.5,-71.5 137.5,-71.5 137.5,-90.5"/>
<text text-anchor="middle" x="69" y="-78.5" font-family="Helvetica,sans-Serif" font-size="10.00">http::ResponseProcessor</text>
</a>
</g>
</g>
<!-- Node2&#45;&gt;Node1 -->
<g id="edge1" class="edge">
<title>Node2&#45;&gt;Node1</title>
<path fill="none" stroke="#63b8ff" d="M73.23,-61.62C76.4,-47.86 80.59,-29.65 83.02,-19.09"/>
<polygon fill="#63b8ff" stroke="#63b8ff" points="69.79,-60.95 70.96,-71.48 76.62,-62.52 69.79,-60.95"/>
</g>
<!-- Node3 -->
<g id="node3" class="node">
<title>Node3</title>
<g id="a_node3"><a xlink:title=" ">
<polygon fill="white" stroke="#666666" points="332,-96 156,-96 156,-66 332,-66 332,-96"/>
<text text-anchor="start" x="164" y="-84" font-family="Helvetica,sans-Serif" font-size="10.00">std::queue&lt; http::Simple</text>
<text text-anchor="middle" x="244" y="-73" font-family="Helvetica,sans-Serif" font-size="10.00">ResponseProcessor::Response &gt;</text>
</a>
</g>
</g>
<!-- Node3&#45;&gt;Node1 -->
<g id="edge2" class="edge">
<title>Node3&#45;&gt;Node1</title>
<path fill="none" stroke="#9a32cd" stroke-dasharray="5,2" d="M202.39,-61.81C170.83,-48.02 128.86,-29.67 104.6,-19.07"/>
<polygon fill="#9a32cd" stroke="#9a32cd" points="201.26,-65.14 211.82,-65.94 204.06,-58.72 201.26,-65.14"/>
<text text-anchor="middle" x="193" y="-40" font-family="Helvetica,sans-Serif" font-size="10.00"> received</text>
</g>
<!-- Node4 -->
<g id="node4" class="node">
<title>Node4</title>
<g id="a_node4"><a xlink:href="structhttp_1_1SimpleResponseProcessor_1_1Response.html" target="_top" xlink:title=" ">
<polygon fill="white" stroke="#666666" points="329,-173 159,-173 159,-143 329,-143 329,-173"/>
<text text-anchor="start" x="167" y="-161" font-family="Helvetica,sans-Serif" font-size="10.00">http::SimpleResponseProcessor</text>
<text text-anchor="middle" x="244" y="-150" font-family="Helvetica,sans-Serif" font-size="10.00">::Response</text>
</a>
</g>
</g>
<!-- Node4&#45;&gt;Node3 -->
<g id="edge3" class="edge">
<title>Node4&#45;&gt;Node3</title>
<path fill="none" stroke="#9a32cd" stroke-dasharray="5,2" d="M244,-132.54C244,-120.45 244,-106.29 244,-96.04"/>
<polygon fill="#9a32cd" stroke="#9a32cd" points="240.5,-132.89 244,-142.89 247.5,-132.89 240.5,-132.89"/>
<text text-anchor="middle" x="268.5" y="-117" font-family="Helvetica,sans-Serif" font-size="10.00"> elements</text>
</g>
<!-- Node5 -->
<g id="node5" class="node">
<title>Node5</title>
<g id="a_node5"><a xlink:title=" ">
<polygon fill="white" stroke="#666666" points="239.5,-250 96.5,-250 96.5,-220 239.5,-220 239.5,-250"/>
<text text-anchor="start" x="104.5" y="-238" font-family="Helvetica,sans-Serif" font-size="10.00">std::map&lt; std::string,</text>
<text text-anchor="middle" x="168" y="-227" font-family="Helvetica,sans-Serif" font-size="10.00"> std::string, std::less&lt;&gt; &gt;</text>
</a>
</g>
</g>
<!-- Node5&#45;&gt;Node4 -->
<g id="edge4" class="edge">
<title>Node5&#45;&gt;Node4</title>
<path fill="none" stroke="#9a32cd" stroke-dasharray="5,2" d="M189.47,-212.82C202.37,-200.08 218.43,-184.24 229.77,-173.04"/>
<polygon fill="#9a32cd" stroke="#9a32cd" points="186.95,-210.38 182.3,-219.89 191.87,-215.36 186.95,-210.38"/>
<text text-anchor="middle" x="232.5" y="-194" font-family="Helvetica,sans-Serif" font-size="10.00"> headers</text>
</g>
<!-- Node6 -->
<g id="node6" class="node">
<title>Node6</title>
<g id="a_node6"><a xlink:title=" ">
<polygon fill="white" stroke="#666666" points="200.5,-327 135.5,-327 135.5,-308 200.5,-308 200.5,-327"/>
<text text-anchor="middle" x="168" y="-315" font-family="Helvetica,sans-Serif" font-size="10.00">std::string</text>
</a>
</g>
</g>
<!-- Node6&#45;&gt;Node5 -->
<g id="edge5" class="edge">
<title>Node6&#45;&gt;Node5</title>
<path fill="none" stroke="#9a32cd" stroke-dasharray="5,2" d="M168,-297.6C168,-283.1 168,-263.4 168,-250.22"/>
<polygon fill="#9a32cd" stroke="#9a32cd" points="164.5,-297.89 168,-307.89 171.5,-297.89 164.5,-297.89"/>
<text text-anchor="middle" x="192.5" y="-282" font-family="Helvetica,sans-Serif" font-size="10.00"> elements</text>
<text text-anchor="middle" x="192.5" y="-271" font-family="Helvetica,sans-Serif" font-size="10.00">keys</text>
</g>
<!-- Node7 -->
<g id="node7" class="node">
<title>Node7</title>
<g id="a_node7"><a xlink:title=" ">
<polygon fill="white" stroke="#666666" points="220,-394 116,-394 116,-364 220,-364 220,-394"/>
<text text-anchor="start" x="124" y="-382" font-family="Helvetica,sans-Serif" font-size="10.00">std::basic_string&lt;</text>
<text text-anchor="middle" x="168" y="-371" font-family="Helvetica,sans-Serif" font-size="10.00"> Char &gt;</text>
</a>
</g>
</g>
<!-- Node7&#45;&gt;Node6 -->
<g id="edge6" class="edge">
<title>Node7&#45;&gt;Node6</title>
<path fill="none" stroke="#63b8ff" d="M168,-353.79C168,-344.36 168,-334.15 168,-327.16"/>
<polygon fill="#63b8ff" stroke="#63b8ff" points="164.5,-353.9 168,-363.9 171.5,-353.9 164.5,-353.9"/>
</g>
<!-- Node8 -->
<g id="node8" class="node">
<title>Node8</title>
<g id="a_node8"><a xlink:title=" ">
<polygon fill="white" stroke="#666666" points="382.5,-244.5 257.5,-244.5 257.5,-225.5 382.5,-225.5 382.5,-244.5"/>
<text text-anchor="middle" x="320" y="-232.5" font-family="Helvetica,sans-Serif" font-size="10.00">std::vector&lt; uint8_t &gt;</text>
</a>
</g>
</g>
<!-- Node8&#45;&gt;Node4 -->
<g id="edge7" class="edge">
<title>Node8&#45;&gt;Node4</title>
<path fill="none" stroke="#9a32cd" stroke-dasharray="5,2" d="M304.07,-218.28C290.55,-204.94 271.33,-185.97 258.3,-173.11"/>
<polygon fill="#9a32cd" stroke="#9a32cd" points="301.71,-220.86 311.28,-225.4 306.62,-215.88 301.71,-220.86"/>
<text text-anchor="middle" x="300" y="-194" font-family="Helvetica,sans-Serif" font-size="10.00"> body</text>
</g>
</g>
</svg>
