<?xml version="1.0" encoding="UTF-8" standalone="no"?>
<!DOCTYPE svg PUBLIC "-//W3C//DTD SVG 1.1//EN"
 "http://www.w3.org/Graphics/SVG/1.1/DTD/svg11.dtd">
<!-- Generated by graphviz version 2.43.0 (0)
 -->
<!-- Title: CCFConfig Pages: 1 -->
<!--zoomable 274 -->
<svg id="main" version="1.1" xmlns="http://www.w3.org/2000/svg" xmlns:xlink="http://www.w3.org/1999/xlink" xml:space="preserve" onload="init(evt)">
<style type="text/css"><![CDATA[
.edge:hover path { stroke: red; }
.edge:hover polygon { stroke: red; fill: red; }
]]></style>
<script type="text/javascript"><![CDATA[
var edges = document.getElementsByTagName('g');
if (edges && edges.length) {
  for (var i=0;i<edges.length;i++) {
    if (edges[i].id.substr(0,4)=='edge') {
      edges[i].setAttribute('class','edge');
    }
  }
}
]]></script>
        <defs>
                <circle id="rim" cx="0" cy="0" r="7"/>
                <circle id="rim2" cx="0" cy="0" r="3.5"/>
                <g id="zoomPlus">
                        <use xlink:href="#rim" fill="#404040">
                                <set attributeName="fill" to="#808080" begin="zoomplus.mouseover" end="zoomplus.mouseout"/>
                        </use>
                        <path d="M-4,0h8M0,-4v8" fill="none" stroke="white" stroke-width="1.5" pointer-events="none"/>
                </g>
                <g id="zoomMin">
                        <use xlink:href="#rim" fill="#404040">
                                <set attributeName="fill" to="#808080" begin="zoomminus.mouseover" end="zoomminus.mouseout"/>
                        </use>
                        <path d="M-4,0h8" fill="none" stroke="white" stroke-width="1.5" pointer-events="none"/>
                </g>
                <g id="dirArrow">
                        <path fill="none" stroke="white" stroke-width="1.5" d="M0,-3.0v7 M-2.5,-0.5L0,-3.0L2.5,-0.5"/>
                </g>
               <g id="resetDef">
                       <use xlink:href="#rim2" fill="#404040">
                               <set attributeName="fill" to="#808080" begin="reset.mouseover" end="reset.mouseout"/>
                       </use>
               </g>
        </defs>

<script type="text/javascript">
var viewWidth = 1562;
var viewHeight = 274;
var sectionId = 'dynsection-0';
</script>
<script xlink:href="svgpan.js"/>
<svg id="graph" class="graph">
<g id="viewport">
<title>CCFConfig</title>
<!-- Node1 -->
<g id="node1" class="node">
<title>Node1</title>
<g id="a_node1"><a xlink:title=" ">
<polygon fill="#999999" stroke="#666666" points="1554,-171.5 1487,-171.5 1487,-152.5 1554,-152.5 1554,-171.5"/>
<text text-anchor="middle" x="1520.5" y="-159.5" font-family="Helvetica,sans-Serif" font-size="10.00">CCFConfig</text>
</a>
</g>
</g>
<!-- Node2 -->
<g id="node2" class="node">
<title>Node2</title>
<g id="a_node2"><a xlink:href="structconsensus_1_1Configuration.html" target="_top" xlink:title=" ">
<polygon fill="white" stroke="#666666" points="1350.5,-264.5 1211.5,-264.5 1211.5,-245.5 1350.5,-245.5 1350.5,-264.5"/>
<text text-anchor="middle" x="1281" y="-252.5" font-family="Helvetica,sans-Serif" font-size="10.00">consensus::Configuration</text>
</a>
</g>
</g>
<!-- Node2&#45;&gt;Node1 -->
<g id="edge1" class="edge">
<title>Node2&#45;&gt;Node1</title>
<path fill="none" stroke="#9a32cd" stroke-dasharray="5,2" d="M1360.99,-253.72C1396.02,-250.17 1436.56,-241.76 1469,-223 1490.42,-210.61 1506.69,-185.49 1514.45,-171.66"/>
<polygon fill="#9a32cd" stroke="#9a32cd" points="1360.44,-250.25 1350.79,-254.63 1361.06,-257.22 1360.44,-250.25"/>
<text text-anchor="middle" x="1423.5" y="-254" font-family="Helvetica,sans-Serif" font-size="10.00"> consensus</text>
</g>
<!-- Node3 -->
<g id="node3" class="node">
<title>Node3</title>
<g id="a_node3"><a xlink:href="structds_1_1TimeString.html" target="_top" xlink:title=" ">
<polygon fill="white" stroke="#666666" points="998,-232.5 911,-232.5 911,-213.5 998,-213.5 998,-232.5"/>
<text text-anchor="middle" x="954.5" y="-220.5" font-family="Helvetica,sans-Serif" font-size="10.00">ds::TimeString</text>
</a>
</g>
</g>
<!-- Node3&#45;&gt;Node2 -->
<g id="edge2" class="edge">
<title>Node3&#45;&gt;Node2</title>
<path fill="none" stroke="#9a32cd" stroke-dasharray="5,2" d="M1008.54,-228.23C1063.87,-233.69 1150.82,-242.26 1211.35,-248.23"/>
<polygon fill="#9a32cd" stroke="#9a32cd" points="1008.55,-224.71 998.26,-227.22 1007.86,-231.68 1008.55,-224.71"/>
<text text-anchor="middle" x="1115.5" y="-258" font-family="Helvetica,sans-Serif" font-size="10.00"> election_timeout</text>
<text text-anchor="middle" x="1115.5" y="-247" font-family="Helvetica,sans-Serif" font-size="10.00">message_timeout</text>
</g>
<!-- Node13 -->
<g id="node13" class="node">
<title>Node13</title>
<g id="a_node13"><a xlink:href="structCCFConfig_1_1LedgerSignatures.html" target="_top" xlink:title=" ">
<polygon fill="white" stroke="#666666" points="1360,-227.5 1202,-227.5 1202,-208.5 1360,-208.5 1360,-227.5"/>
<text text-anchor="middle" x="1281" y="-215.5" font-family="Helvetica,sans-Serif" font-size="10.00">CCFConfig::LedgerSignatures</text>
</a>
</g>
</g>
<!-- Node3&#45;&gt;Node13 -->
<g id="edge18" class="edge">
<title>Node3&#45;&gt;Node13</title>
<path fill="none" stroke="#9a32cd" stroke-dasharray="5,2" d="M1008.66,-221.76C1021.23,-221.49 1034.59,-221.22 1047,-221 1098.57,-220.1 1156.57,-219.36 1201.8,-218.83"/>
<polygon fill="#9a32cd" stroke="#9a32cd" points="1008.24,-218.27 998.32,-221.98 1008.4,-225.26 1008.24,-218.27"/>
<text text-anchor="middle" x="1115.5" y="-224" font-family="Helvetica,sans-Serif" font-size="10.00"> delay</text>
</g>
<!-- Node14 -->
<g id="node14" class="node">
<title>Node14</title>
<g id="a_node14"><a xlink:href="structCCFConfig_1_1JWT.html" target="_top" xlink:title=" ">
<polygon fill="white" stroke="#666666" points="1327,-190.5 1235,-190.5 1235,-171.5 1327,-171.5 1327,-190.5"/>
<text text-anchor="middle" x="1281" y="-178.5" font-family="Helvetica,sans-Serif" font-size="10.00">CCFConfig::JWT</text>
</a>
</g>
</g>
<!-- Node3&#45;&gt;Node14 -->
<g id="edge20" class="edge">
<title>Node3&#45;&gt;Node14</title>
<path fill="none" stroke="#9a32cd" stroke-dasharray="5,2" d="M1006.59,-211.39C1019.71,-208.69 1033.84,-206.01 1047,-204 1111.89,-194.09 1187.64,-187.53 1234.72,-184.04"/>
<polygon fill="#9a32cd" stroke="#9a32cd" points="1005.85,-207.97 996.78,-213.46 1007.29,-214.82 1005.85,-207.97"/>
<text text-anchor="middle" x="1115.5" y="-207" font-family="Helvetica,sans-Serif" font-size="10.00"> key_refresh_interval</text>
</g>
<!-- Node4 -->
<g id="node4" class="node">
<title>Node4</title>
<g id="a_node4"><a xlink:href="structds_1_1UnitString.html" target="_top" xlink:title=" ">
<polygon fill="white" stroke="#666666" points="580,-234.5 497,-234.5 497,-215.5 580,-215.5 580,-234.5"/>
<text text-anchor="middle" x="538.5" y="-222.5" font-family="Helvetica,sans-Serif" font-size="10.00">ds::UnitString</text>
</a>
</g>
</g>
<!-- Node4&#45;&gt;Node3 -->
<g id="edge3" class="edge">
<title>Node4&#45;&gt;Node3</title>
<path fill="none" stroke="#63b8ff" d="M590.46,-224.75C672.91,-224.36 834.02,-223.58 910.82,-223.21"/>
<polygon fill="#63b8ff" stroke="#63b8ff" points="590.31,-221.25 580.33,-224.8 590.35,-228.25 590.31,-221.25"/>
</g>
<!-- Node5 -->
<g id="node5" class="node">
<title>Node5</title>
<g id="a_node5"><a xlink:title=" ">
<polygon fill="white" stroke="#666666" points="206,-138.5 141,-138.5 141,-119.5 206,-119.5 206,-138.5"/>
<text text-anchor="middle" x="173.5" y="-126.5" font-family="Helvetica,sans-Serif" font-size="10.00">std::string</text>
</a>
</g>
</g>
<!-- Node5&#45;&gt;Node4 -->
<g id="edge4" class="edge">
<title>Node5&#45;&gt;Node4</title>
<path fill="none" stroke="#9a32cd" stroke-dasharray="5,2" d="M183.06,-148.17C191.18,-163.91 204.99,-185.28 224,-196 311.13,-245.12 433.89,-238.84 496.82,-231.25"/>
<polygon fill="#9a32cd" stroke="#9a32cd" points="186.04,-146.3 178.54,-138.82 179.74,-149.34 186.04,-146.3"/>
<text text-anchor="middle" x="269.5" y="-229" font-family="Helvetica,sans-Serif" font-size="10.00"> str</text>
</g>
<!-- Node9 -->
<g id="node9" class="node">
<title>Node9</title>
<g id="a_node9"><a xlink:href="structccf_1_1NodeInfoNetwork__v2_1_1NetInterface.html" target="_top" xlink:title="Network interface description.">
<polygon fill="white" stroke="#666666" points="464,-188 342,-188 342,-158 464,-158 464,-188"/>
<text text-anchor="start" x="350" y="-176" font-family="Helvetica,sans-Serif" font-size="10.00">ccf::NodeInfoNetwork</text>
<text text-anchor="middle" x="403" y="-165" font-family="Helvetica,sans-Serif" font-size="10.00">_v2::NetInterface</text>
</a>
</g>
</g>
<!-- Node5&#45;&gt;Node9 -->
<g id="edge9" class="edge">
<title>Node5&#45;&gt;Node9</title>
<path fill="none" stroke="#9a32cd" stroke-dasharray="5,2" d="M215.91,-141.07C218.64,-141.75 221.35,-142.4 224,-143 262.98,-151.77 307.29,-159.25 341.94,-164.54"/>
<polygon fill="#9a32cd" stroke="#9a32cd" points="216.62,-137.64 206.06,-138.48 214.84,-144.41 216.62,-137.64"/>
<text text-anchor="middle" x="269.5" y="-184" font-family="Helvetica,sans-Serif" font-size="10.00"> bind_address</text>
<text text-anchor="middle" x="269.5" y="-173" font-family="Helvetica,sans-Serif" font-size="10.00">protocol</text>
<text text-anchor="middle" x="269.5" y="-162" font-family="Helvetica,sans-Serif" font-size="10.00">published_address</text>
</g>
<!-- Node10 -->
<g id="node10" class="node">
<title>Node10</title>
<g id="a_node10"><a xlink:title=" ">
<polygon fill="white" stroke="#666666" points="760.5,-152 614.5,-152 614.5,-122 760.5,-122 760.5,-152"/>
<text text-anchor="start" x="622.5" y="-140" font-family="Helvetica,sans-Serif" font-size="10.00">std::map&lt; RpcInterfaceID,</text>
<text text-anchor="middle" x="687.5" y="-129" font-family="Helvetica,sans-Serif" font-size="10.00"> NetInterface &gt;</text>
</a>
</g>
</g>
<!-- Node5&#45;&gt;Node10 -->
<g id="edge11" class="edge">
<title>Node5&#45;&gt;Node10</title>
<path fill="none" stroke="#9a32cd" stroke-dasharray="5,2" d="M216.18,-129.65C303.3,-131.01 505.58,-134.17 614.3,-135.87"/>
<polygon fill="#9a32cd" stroke="#9a32cd" points="216.2,-126.15 206.14,-129.49 216.09,-133.15 216.2,-126.15"/>
<text text-anchor="middle" x="403" y="-136" font-family="Helvetica,sans-Serif" font-size="10.00"> keys</text>
</g>
<!-- Node11 -->
<g id="node11" class="node">
<title>Node11</title>
<g id="a_node11"><a xlink:href="structCCFConfig_1_1NodeCertificateInfo.html" target="_top" xlink:title=" ">
<polygon fill="white" stroke="#666666" points="771,-91.5 604,-91.5 604,-72.5 771,-72.5 771,-91.5"/>
<text text-anchor="middle" x="687.5" y="-79.5" font-family="Helvetica,sans-Serif" font-size="10.00">CCFConfig::NodeCertificateInfo</text>
</a>
</g>
</g>
<!-- Node5&#45;&gt;Node11 -->
<g id="edge14" class="edge">
<title>Node5&#45;&gt;Node11</title>
<path fill="none" stroke="#9a32cd" stroke-dasharray="5,2" d="M216.12,-125.18C300.51,-117.43 493.14,-99.75 603.94,-89.58"/>
<polygon fill="#9a32cd" stroke="#9a32cd" points="215.78,-121.7 206.14,-126.1 216.42,-128.67 215.78,-121.7"/>
<text text-anchor="middle" x="403" y="-116" font-family="Helvetica,sans-Serif" font-size="10.00"> subject_name</text>
</g>
<!-- Node12 -->
<g id="node12" class="node">
<title>Node12</title>
<g id="a_node12"><a xlink:title=" ">
<polygon fill="white" stroke="#666666" points="473,-45.5 333,-45.5 333,-26.5 473,-26.5 473,-45.5"/>
<text text-anchor="middle" x="403" y="-33.5" font-family="Helvetica,sans-Serif" font-size="10.00">std::vector&lt; std::string &gt;</text>
</a>
</g>
</g>
<!-- Node5&#45;&gt;Node12 -->
<g id="edge16" class="edge">
<title>Node5&#45;&gt;Node12</title>
<path fill="none" stroke="#9a32cd" stroke-dasharray="5,2" d="M182.16,-109.85C189.99,-92.94 203.89,-69.14 224,-57 256.24,-37.55 297.77,-31.79 332.6,-31.13"/>
<polygon fill="#9a32cd" stroke="#9a32cd" points="178.82,-108.75 178.06,-119.32 185.24,-111.53 178.82,-108.75"/>
<text text-anchor="middle" x="269.5" y="-60" font-family="Helvetica,sans-Serif" font-size="10.00"> elements</text>
</g>
<!-- Node6 -->
<g id="node6" class="node">
<title>Node6</title>
<g id="a_node6"><a xlink:title=" ">
<polygon fill="white" stroke="#666666" points="104,-144 0,-144 0,-114 104,-114 104,-144"/>
<text text-anchor="start" x="8" y="-132" font-family="Helvetica,sans-Serif" font-size="10.00">std::basic_string&lt;</text>
<text text-anchor="middle" x="52" y="-121" font-family="Helvetica,sans-Serif" font-size="10.00"> Char &gt;</text>
</a>
</g>
</g>
<!-- Node6&#45;&gt;Node5 -->
<g id="edge5" class="edge">
<title>Node6&#45;&gt;Node5</title>
<path fill="none" stroke="#63b8ff" d="M114.1,-129C123.41,-129 132.68,-129 141,-129"/>
<polygon fill="#63b8ff" stroke="#63b8ff" points="114.03,-125.5 104.03,-129 114.03,-132.5 114.03,-125.5"/>
</g>
<!-- Node7 -->
<g id="node7" class="node">
<title>Node7</title>
<g id="a_node7"><a xlink:href="structccf_1_1NodeInfoNetwork.html" target="_top" xlink:title=" ">
<polygon fill="white" stroke="#666666" points="1342,-153.5 1220,-153.5 1220,-134.5 1342,-134.5 1342,-153.5"/>
<text text-anchor="middle" x="1281" y="-141.5" font-family="Helvetica,sans-Serif" font-size="10.00">ccf::NodeInfoNetwork</text>
</a>
</g>
</g>
<!-- Node7&#45;&gt;Node1 -->
<g id="edge6" class="edge">
<title>Node7&#45;&gt;Node1</title>
<path fill="none" stroke="#9a32cd" stroke-dasharray="5,2" d="M1352.33,-140.62C1387.55,-140.07 1430.74,-141.12 1469,-147 1476.68,-148.18 1484.83,-150.23 1492.29,-152.44"/>
<polygon fill="#9a32cd" stroke="#9a32cd" points="1352.07,-137.13 1342.14,-140.83 1352.21,-144.12 1352.07,-137.13"/>
<text text-anchor="middle" x="1423.5" y="-150" font-family="Helvetica,sans-Serif" font-size="10.00"> network</text>
</g>
<!-- Node8 -->
<g id="node8" class="node">
<title>Node8</title>
<g id="a_node8"><a xlink:href="structccf_1_1NodeInfoNetwork__v2.html" target="_top" xlink:title="Node network information.">
<polygon fill="white" stroke="#666666" points="1024,-153.5 885,-153.5 885,-134.5 1024,-134.5 1024,-153.5"/>
<text text-anchor="middle" x="954.5" y="-141.5" font-family="Helvetica,sans-Serif" font-size="10.00">ccf::NodeInfoNetwork_v2</text>
</a>
</g>
</g>
<!-- Node8&#45;&gt;Node7 -->
<g id="edge7" class="edge">
<title>Node8&#45;&gt;Node7</title>
<path fill="none" stroke="#63b8ff" d="M1034.39,-144C1091.48,-144 1167.48,-144 1219.74,-144"/>
<polygon fill="#63b8ff" stroke="#63b8ff" points="1034.32,-140.5 1024.32,-144 1034.32,-147.5 1034.32,-140.5"/>
</g>
<!-- Node9&#45;&gt;Node8 -->
<g id="edge8" class="edge">
<title>Node9&#45;&gt;Node8</title>
<path fill="none" stroke="#9a32cd" stroke-dasharray="5,2" d="M474.45,-173.88C480.05,-173.93 485.62,-173.97 491,-174 533.22,-174.24 543.8,-175.37 586,-174 708.86,-170 739.66,-168 862,-156 869.33,-155.28 876.99,-154.43 884.61,-153.52"/>
<polygon fill="#9a32cd" stroke="#9a32cd" points="474.41,-170.38 464.37,-173.78 474.34,-177.38 474.41,-170.38"/>
<text text-anchor="middle" x="687.5" y="-176" font-family="Helvetica,sans-Serif" font-size="10.00"> node_to_node_interface</text>
</g>
<!-- Node9&#45;&gt;Node10 -->
<g id="edge12" class="edge">
<title>Node9&#45;&gt;Node10</title>
<path fill="none" stroke="#9a32cd" stroke-dasharray="5,2" d="M474.28,-164.04C516.96,-158.61 571.31,-151.68 614.32,-146.2"/>
<polygon fill="#9a32cd" stroke="#9a32cd" points="473.73,-160.59 464.26,-165.32 474.62,-167.53 473.73,-160.59"/>
<text text-anchor="middle" x="538.5" y="-164" font-family="Helvetica,sans-Serif" font-size="10.00"> elements</text>
</g>
<!-- Node10&#45;&gt;Node8 -->
<g id="edge10" class="edge">
<title>Node10&#45;&gt;Node8</title>
<path fill="none" stroke="#9a32cd" stroke-dasharray="5,2" d="M770.7,-139.17C807.25,-140.14 849.8,-141.26 884.65,-142.18"/>
<polygon fill="#9a32cd" stroke="#9a32cd" points="770.65,-135.67 760.56,-138.9 770.47,-142.67 770.65,-135.67"/>
<text text-anchor="middle" x="825.5" y="-144" font-family="Helvetica,sans-Serif" font-size="10.00"> rpc_interfaces</text>
</g>
<!-- Node11&#45;&gt;Node1 -->
<g id="edge13" class="edge">
<title>Node11&#45;&gt;Node1</title>
<path fill="none" stroke="#9a32cd" stroke-dasharray="5,2" d="M781.54,-87.33C911.21,-94.93 1153.61,-109.77 1360,-126 1408.5,-129.81 1422.29,-122.39 1469,-136 1481.69,-139.7 1494.93,-146.65 1504.67,-152.43"/>
<polygon fill="#9a32cd" stroke="#9a32cd" points="781.44,-83.82 771.25,-86.73 781.03,-90.8 781.44,-83.82"/>
<text text-anchor="middle" x="1115.5" y="-115" font-family="Helvetica,sans-Serif" font-size="10.00"> node_certificate</text>
</g>
<!-- Node12&#45;&gt;Node11 -->
<g id="edge15" class="edge">
<title>Node12&#45;&gt;Node11</title>
<path fill="none" stroke="#9a32cd" stroke-dasharray="5,2" d="M483.23,-42.9C515.27,-46.27 552.54,-50.93 586,-57 608.47,-61.07 633.38,-67.26 652.78,-72.46"/>
<polygon fill="#9a32cd" stroke="#9a32cd" points="483.32,-39.39 473.02,-41.85 482.6,-46.35 483.32,-39.39"/>
<text text-anchor="middle" x="538.5" y="-60" font-family="Helvetica,sans-Serif" font-size="10.00"> subject_alt_names</text>
</g>
<!-- Node13&#45;&gt;Node1 -->
<g id="edge17" class="edge">
<title>Node13&#45;&gt;Node1</title>
<path fill="none" stroke="#9a32cd" stroke-dasharray="5,2" d="M1370.31,-209.67C1401.96,-205.16 1437.57,-198.32 1469,-188 1481.37,-183.94 1494.41,-177.15 1504.14,-171.53"/>
<polygon fill="#9a32cd" stroke="#9a32cd" points="1369.62,-206.23 1360.19,-211.05 1370.57,-213.16 1369.62,-206.23"/>
<text text-anchor="middle" x="1423.5" y="-211" font-family="Helvetica,sans-Serif" font-size="10.00"> ledger_signatures</text>
</g>
<!-- Node14&#45;&gt;Node1 -->
<g id="edge19" class="edge">
<title>Node14&#45;&gt;Node1</title>
<path fill="none" stroke="#9a32cd" stroke-dasharray="5,2" d="M1337.4,-176.57C1383.7,-172.86 1448.14,-167.71 1486.66,-164.63"/>
<polygon fill="#9a32cd" stroke="#9a32cd" points="1336.92,-173.1 1327.23,-177.38 1337.48,-180.07 1336.92,-173.1"/>
<text text-anchor="middle" x="1423.5" y="-176" font-family="Helvetica,sans-Serif" font-size="10.00"> jwt</text>
</g>
<!-- Node15 -->
<g id="node15" class="node">
<title>Node15</title>
<g id="a_node15"><a xlink:href="structCCFConfig_1_1Attestation.html" target="_top" xlink:title=" ">
<polygon fill="white" stroke="#666666" points="1344.5,-72.5 1217.5,-72.5 1217.5,-53.5 1344.5,-53.5 1344.5,-72.5"/>
<text text-anchor="middle" x="1281" y="-60.5" font-family="Helvetica,sans-Serif" font-size="10.00">CCFConfig::Attestation</text>
</a>
</g>
</g>
<!-- Node15&#45;&gt;Node1 -->
<g id="edge21" class="edge">
<title>Node15&#45;&gt;Node1</title>
<path fill="none" stroke="#9a32cd" stroke-dasharray="5,2" d="M1355.07,-55.4C1391.76,-55.05 1435.42,-60.2 1469,-81 1496.05,-97.76 1510.93,-134.94 1516.68,-152.49"/>
<polygon fill="#9a32cd" stroke="#9a32cd" points="1354.84,-51.9 1344.92,-55.64 1355,-58.9 1354.84,-51.9"/>
<text text-anchor="middle" x="1423.5" y="-84" font-family="Helvetica,sans-Serif" font-size="10.00"> attestation</text>
</g>
<!-- Node16 -->
<g id="node16" class="node">
<title>Node16</title>
<g id="a_node16"><a xlink:title=" ">
<polygon fill="white" stroke="#666666" points="1029,-78 880,-78 880,-48 1029,-48 1029,-78"/>
<text text-anchor="start" x="888" y="-66" font-family="Helvetica,sans-Serif" font-size="10.00">std::vector&lt; Endorsements</text>
<text text-anchor="middle" x="954.5" y="-55" font-family="Helvetica,sans-Serif" font-size="10.00">Server &gt;</text>
</a>
</g>
</g>
<!-- Node16&#45;&gt;Node15 -->
<g id="edge22" class="edge">
<title>Node16&#45;&gt;Node15</title>
<path fill="none" stroke="#9a32cd" stroke-dasharray="5,2" d="M1039.32,-63C1094.9,-63 1166.66,-63 1217.31,-63"/>
<polygon fill="#9a32cd" stroke="#9a32cd" points="1039.13,-59.5 1029.13,-63 1039.13,-66.5 1039.13,-59.5"/>
<text text-anchor="middle" x="1115.5" y="-66" font-family="Helvetica,sans-Serif" font-size="10.00"> snp_endorsements_servers</text>
</g>
<!-- Node17 -->
<g id="node17" class="node">
<title>Node17</title>
<g id="a_node17"><a xlink:href="structCCFConfig_1_1Attestation_1_1Environment.html" target="_top" xlink:title=" ">
<polygon fill="white" stroke="#666666" points="1018,-30 891,-30 891,0 1018,0 1018,-30"/>
<text text-anchor="start" x="899" y="-18" font-family="Helvetica,sans-Serif" font-size="10.00">CCFConfig::Attestation</text>
<text text-anchor="middle" x="954.5" y="-7" font-family="Helvetica,sans-Serif" font-size="10.00">::Environment</text>
</a>
</g>
</g>
<!-- Node17&#45;&gt;Node15 -->
<g id="edge23" class="edge">
<title>Node17&#45;&gt;Node15</title>
<path fill="none" stroke="#9a32cd" stroke-dasharray="5,2" d="M1028.03,-25.26C1072.97,-31.66 1131.86,-40.16 1184,-48 1195.59,-49.74 1207.97,-51.64 1219.84,-53.49"/>
<polygon fill="#9a32cd" stroke="#9a32cd" points="1028.48,-21.78 1018.08,-23.84 1027.49,-28.71 1028.48,-21.78"/>
<text text-anchor="middle" x="1115.5" y="-51" font-family="Helvetica,sans-Serif" font-size="10.00"> environment</text>
</g>
</g>
</svg>
        <g id="navigator" transform="translate(0 0)" fill="#404254">
                <rect fill="#f2f5e9" fill-opacity="0.5" stroke="#606060" stroke-width=".5" x="0" y="0" width="60" height="60"/>
                <use id="zoomplus" xlink:href="#zoomPlus" x="17" y="9" onmousedown="handleZoom(evt,'in')"/>
                <use id="zoomminus" xlink:href="#zoomMin" x="42" y="9" onmousedown="handleZoom(evt,'out')"/>
                <use id="reset" xlink:href="#resetDef" x="30" y="36" onmousedown="handleReset()"/>
                <g id="arrowUp" xlink:href="#dirArrow" transform="translate(30 24)" onmousedown="handlePan(0,-1)">
                  <use xlink:href="#rim" fill="#404040">
                        <set attributeName="fill" to="#808080" begin="arrowUp.mouseover" end="arrowUp.mouseout"/>
                  </use>
                  <path fill="none" stroke="white" stroke-width="1.5" d="M0,-3.0v7 M-2.5,-0.5L0,-3.0L2.5,-0.5"/>
                </g>
                <g id="arrowRight" xlink:href="#dirArrow" transform="rotate(90) translate(36 -43)" onmousedown="handlePan(1,0)">
                  <use xlink:href="#rim" fill="#404040">
                        <set attributeName="fill" to="#808080" begin="arrowRight.mouseover" end="arrowRight.mouseout"/>
                  </use>
                  <path fill="none" stroke="white" stroke-width="1.5" d="M0,-3.0v7 M-2.5,-0.5L0,-3.0L2.5,-0.5"/>
                </g>
                <g id="arrowDown" xlink:href="#dirArrow" transform="rotate(180) translate(-30 -48)" onmousedown="handlePan(0,1)">
                  <use xlink:href="#rim" fill="#404040">
                        <set attributeName="fill" to="#808080" begin="arrowDown.mouseover" end="arrowDown.mouseout"/>
                  </use>
                  <path fill="none" stroke="white" stroke-width="1.5" d="M0,-3.0v7 M-2.5,-0.5L0,-3.0L2.5,-0.5"/>
                </g>
                <g id="arrowLeft" xlink:href="#dirArrow" transform="rotate(270) translate(-36 17)" onmousedown="handlePan(-1,0)">
                  <use xlink:href="#rim" fill="#404040">
                        <set attributeName="fill" to="#808080" begin="arrowLeft.mouseover" end="arrowLeft.mouseout"/>
                  </use>
                  <path fill="none" stroke="white" stroke-width="1.5" d="M0,-3.0v7 M-2.5,-0.5L0,-3.0L2.5,-0.5"/>
                </g>
        </g>
        <svg viewBox="0 0 15 15" width="100%" height="30px" preserveAspectRatio="xMaxYMin meet">
         <g id="arrow_out" transform="scale(0.3 0.3)">
          <a xlink:href="structCCFConfig__coll__graph_org.svg" target="_base">
           <rect id="button" ry="5" rx="5" y="6" x="6" height="38" width="38"
                fill="#f2f5e9" fill-opacity="0.5" stroke="#606060" stroke-width="1.0"/>
           <path id="arrow"
             d="M 11.500037,31.436501 C 11.940474,20.09759 22.043105,11.32322 32.158766,21.979434 L 37.068811,17.246167 C 37.068811,17.246167 37.088388,32 37.088388,32 L 22.160133,31.978069 C 22.160133,31.978069 26.997745,27.140456 26.997745,27.140456 C 18.528582,18.264221 13.291696,25.230495 11.500037,31.436501 z"
             style="fill:#404040;"/>
          </a>
         </g>
        </svg>
</svg>
