<?xml version="1.0" encoding="UTF-8" standalone="no"?>
<!DOCTYPE svg PUBLIC "-//W3C//DTD SVG 1.1//EN"
 "http://www.w3.org/Graphics/SVG/1.1/DTD/svg11.dtd">
<!-- Generated by graphviz version 2.43.0 (0)
 -->
<!-- Title: tpcc::NewOrderOutput Pages: 1 -->
<svg width="778pt" height="182pt"
 viewBox="0.00 0.00 778.00 182.00" xmlns="http://www.w3.org/2000/svg" xmlns:xlink="http://www.w3.org/1999/xlink">
<g id="graph0" class="graph" transform="scale(1 1) rotate(0) translate(4 178)">
<title>tpcc::NewOrderOutput</title>
<!-- Node1 -->
<g id="node1" class="node">
<title>Node1</title>
<g id="a_node1"><a xlink:title=" ">
<polygon fill="#999999" stroke="#666666" points="770,-96.5 645,-96.5 645,-77.5 770,-77.5 770,-96.5"/>
<text text-anchor="middle" x="707.5" y="-84.5" font-family="Helvetica,sans-Serif" font-size="10.00">tpcc::NewOrderOutput</text>
</a>
</g>
</g>
<!-- Node2 -->
<g id="node2" class="node">
<title>Node2</title>
<g id="a_node2"><a xlink:title=" ">
<polygon fill="white" stroke="#666666" points="567,-174 410,-174 410,-144 567,-144 567,-174"/>
<text text-anchor="start" x="418" y="-162" font-family="Helvetica,sans-Serif" font-size="10.00">std::vector&lt; tpcc::</text>
<text text-anchor="middle" x="488.5" y="-151" font-family="Helvetica,sans-Serif" font-size="10.00">NewOrderOutput::ItemInfo &gt;</text>
</a>
</g>
</g>
<!-- Node2&#45;&gt;Node1 -->
<g id="edge1" class="edge">
<title>Node2&#45;&gt;Node1</title>
<path fill="none" stroke="#9a32cd" stroke-dasharray="5,2" d="M548.21,-140.86C554.56,-138.89 560.91,-136.91 567,-135 593.69,-126.64 600.52,-125.02 627,-116 645.22,-109.8 665.61,-102.35 681.18,-96.55"/>
<polygon fill="#9a32cd" stroke="#9a32cd" points="546.81,-137.63 538.3,-143.94 548.89,-144.32 546.81,-137.63"/>
<text text-anchor="middle" x="606" y="-133" font-family="Helvetica,sans-Serif" font-size="10.00"> items</text>
</g>
<!-- Node3 -->
<g id="node3" class="node">
<title>Node3</title>
<g id="a_node3"><a xlink:href="structtpcc_1_1NewOrderOutput_1_1ItemInfo.html" target="_top" xlink:title=" ">
<polygon fill="white" stroke="#666666" points="325,-174 200,-174 200,-144 325,-144 325,-174"/>
<text text-anchor="start" x="208" y="-162" font-family="Helvetica,sans-Serif" font-size="10.00">tpcc::NewOrderOutput</text>
<text text-anchor="middle" x="262.5" y="-151" font-family="Helvetica,sans-Serif" font-size="10.00">::ItemInfo</text>
</a>
</g>
</g>
<!-- Node3&#45;&gt;Node2 -->
<g id="edge2" class="edge">
<title>Node3&#45;&gt;Node2</title>
<path fill="none" stroke="#9a32cd" stroke-dasharray="5,2" d="M335.02,-159C358.82,-159 385.44,-159 409.7,-159"/>
<polygon fill="#9a32cd" stroke="#9a32cd" points="335.01,-155.5 325.01,-159 335.01,-162.5 335.01,-155.5"/>
<text text-anchor="middle" x="367.5" y="-162" font-family="Helvetica,sans-Serif" font-size="10.00"> elements</text>
</g>
<!-- Node4 -->
<g id="node4" class="node">
<title>Node4</title>
<g id="a_node4"><a xlink:title=" ">
<polygon fill="white" stroke="#666666" points="124,-174 0,-174 0,-144 124,-144 124,-174"/>
<text text-anchor="start" x="8" y="-162" font-family="Helvetica,sans-Serif" font-size="10.00">std::array&lt; char, Item</text>
<text text-anchor="middle" x="62" y="-151" font-family="Helvetica,sans-Serif" font-size="10.00">::MAX_NAME+1 &gt;</text>
</a>
</g>
</g>
<!-- Node4&#45;&gt;Node3 -->
<g id="edge3" class="edge">
<title>Node4&#45;&gt;Node3</title>
<path fill="none" stroke="#9a32cd" stroke-dasharray="5,2" d="M134.21,-159C155.68,-159 179.05,-159 199.84,-159"/>
<polygon fill="#9a32cd" stroke="#9a32cd" points="134.18,-155.5 124.18,-159 134.18,-162.5 134.18,-155.5"/>
<text text-anchor="middle" x="162" y="-162" font-family="Helvetica,sans-Serif" font-size="10.00"> i_name</text>
</g>
<!-- Node5 -->
<g id="node5" class="node">
<title>Node5</title>
<g id="a_node5"><a xlink:title=" ">
<polygon fill="white" stroke="#666666" points="563,-126 414,-126 414,-96 563,-96 563,-126"/>
<text text-anchor="start" x="422" y="-114" font-family="Helvetica,sans-Serif" font-size="10.00">std::array&lt; char, Customer</text>
<text text-anchor="middle" x="488.5" y="-103" font-family="Helvetica,sans-Serif" font-size="10.00">::MAX_LAST+1 &gt;</text>
</a>
</g>
</g>
<!-- Node5&#45;&gt;Node1 -->
<g id="edge4" class="edge">
<title>Node5&#45;&gt;Node1</title>
<path fill="none" stroke="#9a32cd" stroke-dasharray="5,2" d="M573.35,-101.73C597.15,-99.09 622.62,-96.28 644.85,-93.82"/>
<polygon fill="#9a32cd" stroke="#9a32cd" points="572.82,-98.26 563.27,-102.84 573.59,-105.22 572.82,-98.26"/>
<text text-anchor="middle" x="606" y="-104" font-family="Helvetica,sans-Serif" font-size="10.00"> c_last</text>
</g>
<!-- Node6 -->
<g id="node6" class="node">
<title>Node6</title>
<g id="a_node6"><a xlink:title=" ">
<polygon fill="white" stroke="#666666" points="563,-78 414,-78 414,-48 563,-48 563,-78"/>
<text text-anchor="start" x="422" y="-66" font-family="Helvetica,sans-Serif" font-size="10.00">std::array&lt; char, Customer</text>
<text text-anchor="middle" x="488.5" y="-55" font-family="Helvetica,sans-Serif" font-size="10.00">::CREDIT+1 &gt;</text>
</a>
</g>
</g>
<!-- Node6&#45;&gt;Node1 -->
<g id="edge5" class="edge">
<title>Node6&#45;&gt;Node1</title>
<path fill="none" stroke="#9a32cd" stroke-dasharray="5,2" d="M573.35,-72.27C597.15,-74.91 622.62,-77.72 644.85,-80.18"/>
<polygon fill="#9a32cd" stroke="#9a32cd" points="573.59,-68.78 563.27,-71.16 572.82,-75.74 573.59,-68.78"/>
<text text-anchor="middle" x="606" y="-81" font-family="Helvetica,sans-Serif" font-size="10.00"> c_credit</text>
</g>
<!-- Node7 -->
<g id="node7" class="node">
<title>Node7</title>
<g id="a_node7"><a xlink:title=" ">
<polygon fill="white" stroke="#666666" points="550.5,-30 426.5,-30 426.5,0 550.5,0 550.5,-30"/>
<text text-anchor="start" x="434.5" y="-18" font-family="Helvetica,sans-Serif" font-size="10.00">std::array&lt; char, MAX</text>
<text text-anchor="middle" x="488.5" y="-7" font-family="Helvetica,sans-Serif" font-size="10.00">_STATUS+1 &gt;</text>
</a>
</g>
</g>
<!-- Node7&#45;&gt;Node1 -->
<g id="edge6" class="edge">
<title>Node7&#45;&gt;Node1</title>
<path fill="none" stroke="#9a32cd" stroke-dasharray="5,2" d="M548.52,-33.13C554.76,-35.09 561.02,-37.08 567,-39 593.76,-47.6 600.41,-49.89 627,-59 644.58,-65.03 664.28,-71.96 679.68,-77.43"/>
<polygon fill="#9a32cd" stroke="#9a32cd" points="549.34,-29.72 538.75,-30.08 547.25,-36.4 549.34,-29.72"/>
<text text-anchor="middle" x="606" y="-62" font-family="Helvetica,sans-Serif" font-size="10.00"> status</text>
</g>
</g>
</svg>
