<?xml version="1.0" encoding="UTF-8" standalone="no"?>
<!DOCTYPE svg PUBLIC "-//W3C//DTD SVG 1.1//EN"
 "http://www.w3.org/Graphics/SVG/1.1/DTD/svg11.dtd">
<!-- Generated by graphviz version 2.43.0 (0)
 -->
<!-- Title: ccf::UvmEndorsementsProtectedHeader Pages: 1 -->
<svg width="256pt" height="214pt"
 viewBox="0.00 0.00 255.50 214.00" xmlns="http://www.w3.org/2000/svg" xmlns:xlink="http://www.w3.org/1999/xlink">
<g id="graph0" class="graph" transform="scale(1 1) rotate(0) translate(4 210)">
<title>ccf::UvmEndorsementsProtectedHeader</title>
<!-- Node1 -->
<g id="node1" class="node">
<title>Node1</title>
<g id="a_node1"><a xlink:title=" ">
<polygon fill="#999999" stroke="#666666" points="203,-30 27,-30 27,0 203,0 203,-30"/>
<text text-anchor="start" x="35" y="-18" font-family="Helvetica,sans-Serif" font-size="10.00">ccf::UvmEndorsementsProtected</text>
<text text-anchor="middle" x="115" y="-7" font-family="Helvetica,sans-Serif" font-size="10.00">Header</text>
</a>
</g>
</g>
<!-- Node2 -->
<g id="node2" class="node">
<title>Node2</title>
<g id="a_node2"><a xlink:title=" ">
<polygon fill="white" stroke="#666666" points="89.5,-123.5 24.5,-123.5 24.5,-104.5 89.5,-104.5 89.5,-123.5"/>
<text text-anchor="middle" x="57" y="-111.5" font-family="Helvetica,sans-Serif" font-size="10.00">std::string</text>
</a>
</g>
</g>
<!-- Node2&#45;&gt;Node1 -->
<g id="edge1" class="edge">
<title>Node2&#45;&gt;Node1</title>
<path fill="none" stroke="#9a32cd" stroke-dasharray="5,2" d="M61.42,-94.34C65.2,-80.73 71.56,-62.26 81,-48 85.3,-41.51 91.15,-35.39 96.79,-30.27"/>
<polygon fill="#9a32cd" stroke="#9a32cd" points="57.92,-93.87 58.83,-104.42 64.7,-95.61 57.92,-93.87"/>
<text text-anchor="middle" x="114.5" y="-73" font-family="Helvetica,sans-Serif" font-size="10.00"> content_type</text>
<text text-anchor="middle" x="114.5" y="-62" font-family="Helvetica,sans-Serif" font-size="10.00">feed</text>
<text text-anchor="middle" x="114.5" y="-51" font-family="Helvetica,sans-Serif" font-size="10.00">iss</text>
</g>
<!-- Node3 -->
<g id="node3" class="node">
<title>Node3</title>
<g id="a_node3"><a xlink:title=" ">
<polygon fill="white" stroke="#666666" points="104,-206 0,-206 0,-176 104,-176 104,-206"/>
<text text-anchor="start" x="8" y="-194" font-family="Helvetica,sans-Serif" font-size="10.00">std::basic_string&lt;</text>
<text text-anchor="middle" x="52" y="-183" font-family="Helvetica,sans-Serif" font-size="10.00"> Char &gt;</text>
</a>
</g>
</g>
<!-- Node3&#45;&gt;Node2 -->
<g id="edge2" class="edge">
<title>Node3&#45;&gt;Node2</title>
<path fill="none" stroke="#63b8ff" d="M53.62,-165.68C54.58,-151.36 55.73,-134.11 56.41,-123.87"/>
<polygon fill="#63b8ff" stroke="#63b8ff" points="50.11,-165.68 52.94,-175.89 57.1,-166.15 50.11,-165.68"/>
</g>
<!-- Node4 -->
<g id="node4" class="node">
<title>Node4</title>
<g id="a_node4"><a xlink:title=" ">
<polygon fill="white" stroke="#666666" points="246.5,-129 115.5,-129 115.5,-99 246.5,-99 246.5,-129"/>
<text text-anchor="start" x="123.5" y="-117" font-family="Helvetica,sans-Serif" font-size="10.00">std::vector&lt; std::vector</text>
<text text-anchor="middle" x="181" y="-106" font-family="Helvetica,sans-Serif" font-size="10.00">&lt; uint8_t &gt; &gt;</text>
</a>
</g>
</g>
<!-- Node4&#45;&gt;Node1 -->
<g id="edge3" class="edge">
<title>Node4&#45;&gt;Node1</title>
<path fill="none" stroke="#9a32cd" stroke-dasharray="5,2" d="M171.25,-89.26C165.43,-76.45 157.36,-60.7 148,-48 143.26,-41.58 137.19,-35.29 131.55,-30.01"/>
<polygon fill="#9a32cd" stroke="#9a32cd" points="168.2,-91.03 175.41,-98.79 174.62,-88.23 168.2,-91.03"/>
<text text-anchor="middle" x="191.5" y="-62" font-family="Helvetica,sans-Serif" font-size="10.00"> x5_chain</text>
</g>
<!-- Node5 -->
<g id="node5" class="node">
<title>Node5</title>
<g id="a_node5"><a xlink:title=" ">
<polygon fill="white" stroke="#666666" points="247.5,-200.5 122.5,-200.5 122.5,-181.5 247.5,-181.5 247.5,-200.5"/>
<text text-anchor="middle" x="185" y="-188.5" font-family="Helvetica,sans-Serif" font-size="10.00">std::vector&lt; uint8_t &gt;</text>
</a>
</g>
</g>
<!-- Node5&#45;&gt;Node4 -->
<g id="edge4" class="edge">
<title>Node5&#45;&gt;Node4</title>
<path fill="none" stroke="#9a32cd" stroke-dasharray="5,2" d="M184,-171.2C183.3,-158.14 182.39,-141.01 181.75,-129.11"/>
<polygon fill="#9a32cd" stroke="#9a32cd" points="180.51,-171.6 184.54,-181.4 187.5,-171.22 180.51,-171.6"/>
<text text-anchor="middle" x="208.5" y="-150" font-family="Helvetica,sans-Serif" font-size="10.00"> elements</text>
</g>
</g>
</svg>
