<?xml version="1.0" encoding="UTF-8" standalone="no"?>
<!DOCTYPE svg PUBLIC "-//W3C//DTD SVG 1.1//EN"
 "http://www.w3.org/Graphics/SVG/1.1/DTD/svg11.dtd">
<!-- Generated by graphviz version 2.43.0 (0)
 -->
<!-- Title: TpccClientOptions Pages: 1 -->
<svg width="129pt" height="293pt"
 viewBox="0.00 0.00 128.50 293.00" xmlns="http://www.w3.org/2000/svg" xmlns:xlink="http://www.w3.org/1999/xlink">
<g id="graph0" class="graph" transform="scale(1 1) rotate(0) translate(4 289)">
<title>TpccClientOptions</title>
<!-- Node1 -->
<g id="node1" class="node">
<title>Node1</title>
<g id="a_node1"><a xlink:title=" ">
<polygon fill="#999999" stroke="#666666" points="106,-19 1,-19 1,0 106,0 106,-19"/>
<text text-anchor="middle" x="53.5" y="-7" font-family="Helvetica,sans-Serif" font-size="10.00">TpccClientOptions</text>
</a>
</g>
</g>
<!-- Node2 -->
<g id="node2" class="node">
<title>Node2</title>
<g id="a_node2"><a xlink:href="structclient_1_1PerfOptions.html" target="_top" xlink:title=" ">
<polygon fill="white" stroke="#666666" points="107,-75 0,-75 0,-56 107,-56 107,-75"/>
<text text-anchor="middle" x="53.5" y="-63" font-family="Helvetica,sans-Serif" font-size="10.00">client::PerfOptions</text>
</a>
</g>
</g>
<!-- Node2&#45;&gt;Node1 -->
<g id="edge1" class="edge">
<title>Node2&#45;&gt;Node1</title>
<path fill="none" stroke="#63b8ff" d="M53.5,-45.3C53.5,-36.41 53.5,-26.28 53.5,-19.25"/>
<polygon fill="#63b8ff" stroke="#63b8ff" points="50,-45.58 53.5,-55.58 57,-45.58 50,-45.58"/>
</g>
<!-- Node3 -->
<g id="node3" class="node">
<title>Node3</title>
<g id="a_node3"><a xlink:title=" ">
<polygon fill="white" stroke="#666666" points="86,-218 21,-218 21,-199 86,-199 86,-218"/>
<text text-anchor="middle" x="53.5" y="-206" font-family="Helvetica,sans-Serif" font-size="10.00">std::string</text>
</a>
</g>
</g>
<!-- Node3&#45;&gt;Node2 -->
<g id="edge2" class="edge">
<title>Node3&#45;&gt;Node2</title>
<path fill="none" stroke="#9a32cd" stroke-dasharray="5,2" d="M53.5,-188.39C53.5,-157.49 53.5,-97.77 53.5,-75.32"/>
<polygon fill="#9a32cd" stroke="#9a32cd" points="50,-188.68 53.5,-198.68 57,-188.68 50,-188.68"/>
<text text-anchor="middle" x="87" y="-173" font-family="Helvetica,sans-Serif" font-size="10.00"> bearer_token</text>
<text text-anchor="middle" x="87" y="-162" font-family="Helvetica,sans-Serif" font-size="10.00">ca_file</text>
<text text-anchor="middle" x="87" y="-151" font-family="Helvetica,sans-Serif" font-size="10.00">cert_file</text>
<text text-anchor="middle" x="87" y="-140" font-family="Helvetica,sans-Serif" font-size="10.00">key_file</text>
<text text-anchor="middle" x="87" y="-129" font-family="Helvetica,sans-Serif" font-size="10.00">label</text>
<text text-anchor="middle" x="87" y="-118" font-family="Helvetica,sans-Serif" font-size="10.00">pid_file</text>
<text text-anchor="start" x="53.5" y="-107" font-family="Helvetica,sans-Serif" font-size="10.00">verification</text>
<text text-anchor="middle" x="87" y="-96" font-family="Helvetica,sans-Serif" font-size="10.00">_file</text>
</g>
<!-- Node4 -->
<g id="node4" class="node">
<title>Node4</title>
<g id="a_node4"><a xlink:title=" ">
<polygon fill="white" stroke="#666666" points="105.5,-285 1.5,-285 1.5,-255 105.5,-255 105.5,-285"/>
<text text-anchor="start" x="9.5" y="-273" font-family="Helvetica,sans-Serif" font-size="10.00">std::basic_string&lt;</text>
<text text-anchor="middle" x="53.5" y="-262" font-family="Helvetica,sans-Serif" font-size="10.00"> Char &gt;</text>
</a>
</g>
</g>
<!-- Node4&#45;&gt;Node3 -->
<g id="edge3" class="edge">
<title>Node4&#45;&gt;Node3</title>
<path fill="none" stroke="#63b8ff" d="M53.5,-244.79C53.5,-235.36 53.5,-225.15 53.5,-218.16"/>
<polygon fill="#63b8ff" stroke="#63b8ff" points="50,-244.9 53.5,-254.9 57,-244.9 50,-244.9"/>
</g>
</g>
</svg>
