<?xml version="1.0" encoding="UTF-8" standalone="no"?>
<!DOCTYPE svg PUBLIC "-//W3C//DTD SVG 1.1//EN"
 "http://www.w3.org/Graphics/SVG/1.1/DTD/svg11.dtd">
<!-- Generated by graphviz version 2.43.0 (0)
 -->
<!-- Title: ccf::endpoints::ReadOnlyEndpointContext Pages: 1 -->
<!--zoomable 405 -->
<svg id="main" version="1.1" xmlns="http://www.w3.org/2000/svg" xmlns:xlink="http://www.w3.org/1999/xlink" xml:space="preserve" onload="init(evt)">
<style type="text/css"><![CDATA[
.edge:hover path { stroke: red; }
.edge:hover polygon { stroke: red; fill: red; }
]]></style>
<script type="text/javascript"><![CDATA[
var edges = document.getElementsByTagName('g');
if (edges && edges.length) {
  for (var i=0;i<edges.length;i++) {
    if (edges[i].id.substr(0,4)=='edge') {
      edges[i].setAttribute('class','edge');
    }
  }
}
]]></script>
        <defs>
                <circle id="rim" cx="0" cy="0" r="7"/>
                <circle id="rim2" cx="0" cy="0" r="3.5"/>
                <g id="zoomPlus">
                        <use xlink:href="#rim" fill="#404040">
                                <set attributeName="fill" to="#808080" begin="zoomplus.mouseover" end="zoomplus.mouseout"/>
                        </use>
                        <path d="M-4,0h8M0,-4v8" fill="none" stroke="white" stroke-width="1.5" pointer-events="none"/>
                </g>
                <g id="zoomMin">
                        <use xlink:href="#rim" fill="#404040">
                                <set attributeName="fill" to="#808080" begin="zoomminus.mouseover" end="zoomminus.mouseout"/>
                        </use>
                        <path d="M-4,0h8" fill="none" stroke="white" stroke-width="1.5" pointer-events="none"/>
                </g>
                <g id="dirArrow">
                        <path fill="none" stroke="white" stroke-width="1.5" d="M0,-3.0v7 M-2.5,-0.5L0,-3.0L2.5,-0.5"/>
                </g>
               <g id="resetDef">
                       <use xlink:href="#rim2" fill="#404040">
                               <set attributeName="fill" to="#808080" begin="reset.mouseover" end="reset.mouseout"/>
                       </use>
               </g>
        </defs>

<script type="text/javascript">
var viewWidth = 2219;
var viewHeight = 405;
var sectionId = 'dynsection-0';
</script>
<script xlink:href="svgpan.js"/>
<svg id="graph" class="graph">
<g id="viewport">
<title>ccf::endpoints::ReadOnlyEndpointContext</title>
<!-- Node1 -->
<g id="node1" class="node">
<title>Node1</title>
<g id="a_node1"><a xlink:title=" ">
<polygon fill="#999999" stroke="#666666" points="2211,-200.5 2074,-200.5 2074,-170.5 2211,-170.5 2211,-200.5"/>
<text text-anchor="start" x="2082" y="-188.5" font-family="Helvetica,sans-Serif" font-size="10.00">ccf::endpoints::ReadOnly</text>
<text text-anchor="middle" x="2142.5" y="-177.5" font-family="Helvetica,sans-Serif" font-size="10.00">EndpointContext</text>
</a>
</g>
</g>
<!-- Node2 -->
<g id="node2" class="node">
<title>Node2</title>
<g id="a_node2"><a xlink:href="structccf_1_1endpoints_1_1CommandEndpointContext.html" target="_top" xlink:title=" ">
<polygon fill="white" stroke="#666666" points="2025,-222.5 1842,-222.5 1842,-192.5 2025,-192.5 2025,-222.5"/>
<text text-anchor="start" x="1850" y="-210.5" font-family="Helvetica,sans-Serif" font-size="10.00">ccf::endpoints::CommandEndpoint</text>
<text text-anchor="middle" x="1933.5" y="-199.5" font-family="Helvetica,sans-Serif" font-size="10.00">Context</text>
</a>
</g>
</g>
<!-- Node2&#45;&gt;Node1 -->
<g id="edge1" class="edge">
<title>Node2&#45;&gt;Node1</title>
<path fill="none" stroke="#63b8ff" d="M2035.26,-196.79C2048.33,-195.4 2061.46,-194.01 2073.81,-192.69"/>
<polygon fill="#63b8ff" stroke="#63b8ff" points="2034.87,-193.31 2025.29,-197.85 2035.61,-200.27 2034.87,-193.31"/>
</g>
<!-- Node3 -->
<g id="node3" class="node">
<title>Node3</title>
<g id="a_node3"><a xlink:title=" ">
<polygon fill="white" stroke="#666666" points="1767,-222.5 1652,-222.5 1652,-192.5 1767,-192.5 1767,-222.5"/>
<text text-anchor="start" x="1660" y="-210.5" font-family="Helvetica,sans-Serif" font-size="10.00">std::shared_ptr&lt; ccf</text>
<text text-anchor="middle" x="1709.5" y="-199.5" font-family="Helvetica,sans-Serif" font-size="10.00">::RpcContext &gt;</text>
</a>
</g>
</g>
<!-- Node3&#45;&gt;Node2 -->
<g id="edge2" class="edge">
<title>Node3&#45;&gt;Node2</title>
<path fill="none" stroke="#9a32cd" stroke-dasharray="5,2" d="M1777.19,-207.5C1797.54,-207.5 1820.28,-207.5 1841.93,-207.5"/>
<polygon fill="#9a32cd" stroke="#9a32cd" points="1777.09,-204 1767.09,-207.5 1777.09,-211 1777.09,-204"/>
<text text-anchor="middle" x="1804.5" y="-210.5" font-family="Helvetica,sans-Serif" font-size="10.00"> rpc_ctx</text>
</g>
<!-- Node4 -->
<g id="node4" class="node">
<title>Node4</title>
<g id="a_node4"><a xlink:href="classccf_1_1RpcContext.html" target="_top" xlink:title="Describes the currently executing RPC.">
<polygon fill="white" stroke="#666666" points="1565,-217 1473,-217 1473,-198 1565,-198 1565,-217"/>
<text text-anchor="middle" x="1519" y="-205" font-family="Helvetica,sans-Serif" font-size="10.00">ccf::RpcContext</text>
</a>
</g>
</g>
<!-- Node4&#45;&gt;Node3 -->
<g id="edge3" class="edge">
<title>Node4&#45;&gt;Node3</title>
<path fill="none" stroke="#9a32cd" stroke-dasharray="5,2" d="M1575.21,-207.5C1599.34,-207.5 1627.62,-207.5 1651.9,-207.5"/>
<polygon fill="#9a32cd" stroke="#9a32cd" points="1575.15,-204 1565.15,-207.5 1575.15,-211 1575.15,-204"/>
<text text-anchor="middle" x="1618.5" y="-210.5" font-family="Helvetica,sans-Serif" font-size="10.00"> ptr</text>
</g>
<!-- Node5 -->
<g id="node5" class="node">
<title>Node5</title>
<g id="a_node5"><a xlink:title=" ">
<polygon fill="white" stroke="#666666" points="1767,-270.5 1652,-270.5 1652,-240.5 1767,-240.5 1767,-270.5"/>
<text text-anchor="start" x="1660" y="-258.5" font-family="Helvetica,sans-Serif" font-size="10.00">std::unique_ptr&lt; ccf</text>
<text text-anchor="middle" x="1709.5" y="-247.5" font-family="Helvetica,sans-Serif" font-size="10.00">::AuthnIdentity &gt;</text>
</a>
</g>
</g>
<!-- Node5&#45;&gt;Node2 -->
<g id="edge4" class="edge">
<title>Node5&#45;&gt;Node2</title>
<path fill="none" stroke="#9a32cd" stroke-dasharray="5,2" d="M1776.89,-241.15C1804.03,-235.28 1835.45,-228.48 1862.91,-222.55"/>
<polygon fill="#9a32cd" stroke="#9a32cd" points="1776.13,-237.73 1767.09,-243.26 1777.61,-244.57 1776.13,-237.73"/>
<text text-anchor="middle" x="1804.5" y="-241.5" font-family="Helvetica,sans-Serif" font-size="10.00"> caller</text>
</g>
<!-- Node6 -->
<g id="node6" class="node">
<title>Node6</title>
<g id="a_node6"><a xlink:href="structccf_1_1AuthnIdentity.html" target="_top" xlink:title=" ">
<polygon fill="white" stroke="#666666" points="1570,-265 1468,-265 1468,-246 1570,-246 1570,-265"/>
<text text-anchor="middle" x="1519" y="-253" font-family="Helvetica,sans-Serif" font-size="10.00">ccf::AuthnIdentity</text>
</a>
</g>
</g>
<!-- Node6&#45;&gt;Node5 -->
<g id="edge5" class="edge">
<title>Node6&#45;&gt;Node5</title>
<path fill="none" stroke="#9a32cd" stroke-dasharray="5,2" d="M1580.32,-255.5C1603.27,-255.5 1629.32,-255.5 1651.92,-255.5"/>
<polygon fill="#9a32cd" stroke="#9a32cd" points="1580.02,-252 1570.02,-255.5 1580.02,-259 1580.02,-252"/>
<text text-anchor="middle" x="1618.5" y="-258.5" font-family="Helvetica,sans-Serif" font-size="10.00"> ptr</text>
</g>
<!-- Node7 -->
<g id="node7" class="node">
<title>Node7</title>
<g id="a_node7"><a xlink:href="classkv_1_1ReadOnlyTx.html" target="_top" xlink:title=" ">
<polygon fill="white" stroke="#666666" points="1980,-174 1887,-174 1887,-155 1980,-155 1980,-174"/>
<text text-anchor="middle" x="1933.5" y="-162" font-family="Helvetica,sans-Serif" font-size="10.00">kv::ReadOnlyTx</text>
</a>
</g>
</g>
<!-- Node7&#45;&gt;Node1 -->
<g id="edge6" class="edge">
<title>Node7&#45;&gt;Node1</title>
<path fill="none" stroke="#9a32cd" stroke-dasharray="5,2" d="M1990.16,-170.15C2015.95,-172.76 2046.81,-175.89 2073.92,-178.64"/>
<polygon fill="#9a32cd" stroke="#9a32cd" points="1990.49,-166.66 1980.18,-169.13 1989.78,-173.63 1990.49,-166.66"/>
<text text-anchor="middle" x="2049.5" y="-178.5" font-family="Helvetica,sans-Serif" font-size="10.00"> tx</text>
</g>
<!-- Node8 -->
<g id="node8" class="node">
<title>Node8</title>
<g id="a_node8"><a xlink:href="classkv_1_1BaseTx.html" target="_top" xlink:title=" ">
<polygon fill="white" stroke="#666666" points="1744.5,-174 1674.5,-174 1674.5,-155 1744.5,-155 1744.5,-174"/>
<text text-anchor="middle" x="1709.5" y="-162" font-family="Helvetica,sans-Serif" font-size="10.00">kv::BaseTx</text>
</a>
</g>
</g>
<!-- Node8&#45;&gt;Node7 -->
<g id="edge7" class="edge">
<title>Node8&#45;&gt;Node7</title>
<path fill="none" stroke="#63b8ff" d="M1755.01,-164.5C1793.23,-164.5 1848.11,-164.5 1886.7,-164.5"/>
<polygon fill="#63b8ff" stroke="#63b8ff" points="1754.7,-161 1744.7,-164.5 1754.7,-168 1754.7,-161"/>
</g>
<!-- Node9 -->
<g id="node9" class="node">
<title>Node9</title>
<g id="a_node9"><a xlink:title=" ">
<polygon fill="white" stroke="#666666" points="1585,-115.5 1453,-115.5 1453,-85.5 1585,-85.5 1585,-115.5"/>
<text text-anchor="start" x="1461" y="-103.5" font-family="Helvetica,sans-Serif" font-size="10.00">std::unique_ptr&lt; kv</text>
<text text-anchor="middle" x="1519" y="-92.5" font-family="Helvetica,sans-Serif" font-size="10.00">::BaseTx::PrivateImpl &gt;</text>
</a>
</g>
</g>
<!-- Node9&#45;&gt;Node8 -->
<g id="edge8" class="edge">
<title>Node9&#45;&gt;Node8</title>
<path fill="none" stroke="#9a32cd" stroke-dasharray="5,2" d="M1573.73,-118.74C1608.48,-130.54 1652.31,-145.42 1680.37,-154.95"/>
<polygon fill="#9a32cd" stroke="#9a32cd" points="1574.79,-115.41 1564.19,-115.51 1572.54,-122.03 1574.79,-115.41"/>
<text text-anchor="middle" x="1618.5" y="-140.5" font-family="Helvetica,sans-Serif" font-size="10.00"> pimpl</text>
</g>
<!-- Node10 -->
<g id="node10" class="node">
<title>Node10</title>
<g id="a_node10"><a xlink:href="structkv_1_1BaseTx_1_1PrivateImpl.html" target="_top" xlink:title=" ">
<polygon fill="white" stroke="#666666" points="1400,-77 1268,-77 1268,-58 1400,-58 1400,-77"/>
<text text-anchor="middle" x="1334" y="-65" font-family="Helvetica,sans-Serif" font-size="10.00">kv::BaseTx::PrivateImpl</text>
</a>
</g>
</g>
<!-- Node10&#45;&gt;Node9 -->
<g id="edge9" class="edge">
<title>Node10&#45;&gt;Node9</title>
<path fill="none" stroke="#9a32cd" stroke-dasharray="5,2" d="M1398.13,-78.88C1415.81,-82.07 1435.05,-85.54 1452.84,-88.75"/>
<polygon fill="#9a32cd" stroke="#9a32cd" points="1398.39,-75.38 1387.93,-77.04 1397.15,-82.26 1398.39,-75.38"/>
<text text-anchor="middle" x="1426.5" y="-87.5" font-family="Helvetica,sans-Serif" font-size="10.00"> ptr</text>
</g>
<!-- Node11 -->
<g id="node11" class="node">
<title>Node11</title>
<g id="a_node11"><a xlink:href="classkv_1_1AbstractStore.html" target="_top" xlink:title=" ">
<polygon fill="white" stroke="#666666" points="1148,-74 1048,-74 1048,-55 1148,-55 1148,-74"/>
<text text-anchor="middle" x="1098" y="-62" font-family="Helvetica,sans-Serif" font-size="10.00">kv::AbstractStore</text>
</a>
</g>
</g>
<!-- Node11&#45;&gt;Node10 -->
<g id="edge10" class="edge">
<title>Node11&#45;&gt;Node10</title>
<path fill="none" stroke="#9a32cd" stroke-dasharray="5,2" d="M1158.12,-65.26C1191.48,-65.69 1233.24,-66.22 1267.58,-66.66"/>
<polygon fill="#9a32cd" stroke="#9a32cd" points="1158.1,-61.76 1148.05,-65.13 1158.01,-68.76 1158.1,-61.76"/>
<text text-anchor="middle" x="1213.5" y="-68.5" font-family="Helvetica,sans-Serif" font-size="10.00"> store</text>
</g>
<!-- Node12 -->
<g id="node12" class="node">
<title>Node12</title>
<g id="a_node12"><a xlink:title=" ">
<polygon fill="white" stroke="#666666" points="502.5,-38.5 380.5,-38.5 380.5,-8.5 502.5,-8.5 502.5,-38.5"/>
<text text-anchor="start" x="388.5" y="-26.5" font-family="Helvetica,sans-Serif" font-size="10.00">std::map&lt; std::string,</text>
<text text-anchor="middle" x="441.5" y="-15.5" font-family="Helvetica,sans-Serif" font-size="10.00"> PossibleHandles &gt;</text>
</a>
</g>
</g>
<!-- Node12&#45;&gt;Node10 -->
<g id="edge11" class="edge">
<title>Node12&#45;&gt;Node10</title>
<path fill="none" stroke="#9a32cd" stroke-dasharray="5,2" d="M512.65,-23.5C561.3,-23.5 627.59,-23.5 686,-23.5 686,-23.5 686,-23.5 1099,-23.5 1172.99,-23.5 1257.92,-45.01 1302.31,-57.95"/>
<polygon fill="#9a32cd" stroke="#9a32cd" points="512.54,-20 502.54,-23.5 512.54,-27 512.54,-20"/>
<text text-anchor="middle" x="881" y="-26.5" font-family="Helvetica,sans-Serif" font-size="10.00"> all_handles</text>
</g>
<!-- Node13 -->
<g id="node13" class="node">
<title>Node13</title>
<g id="a_node13"><a xlink:title=" ">
<polygon fill="white" stroke="#666666" points="262,-98 197,-98 197,-79 262,-79 262,-98"/>
<text text-anchor="middle" x="229.5" y="-86" font-family="Helvetica,sans-Serif" font-size="10.00">std::string</text>
</a>
</g>
</g>
<!-- Node13&#45;&gt;Node12 -->
<g id="edge12" class="edge">
<title>Node13&#45;&gt;Node12</title>
<path fill="none" stroke="#9a32cd" stroke-dasharray="5,2" d="M247.05,-72.09C257.81,-62.43 272.65,-50.9 288,-44.5 316.98,-32.42 351.49,-27 380.34,-24.68"/>
<polygon fill="#9a32cd" stroke="#9a32cd" points="244.59,-69.6 239.68,-78.99 249.38,-74.71 244.59,-69.6"/>
<text text-anchor="middle" x="312.5" y="-47.5" font-family="Helvetica,sans-Serif" font-size="10.00"> keys</text>
</g>
<!-- Node17 -->
<g id="node17" class="node">
<title>Node17</title>
<g id="a_node17"><a xlink:title=" ">
<polygon fill="white" stroke="#666666" points="1159,-133 1037,-133 1037,-92 1159,-92 1159,-133"/>
<text text-anchor="start" x="1045" y="-121" font-family="Helvetica,sans-Serif" font-size="10.00">std::map&lt; std::string,</text>
<text text-anchor="start" x="1045" y="-110" font-family="Helvetica,sans-Serif" font-size="10.00"> std::shared_ptr&lt; kv</text>
<text text-anchor="middle" x="1098" y="-99" font-family="Helvetica,sans-Serif" font-size="10.00">::AbstractMap &gt; &gt;</text>
</a>
</g>
</g>
<!-- Node13&#45;&gt;Node17 -->
<g id="edge17" class="edge">
<title>Node13&#45;&gt;Node17</title>
<path fill="none" stroke="#9a32cd" stroke-dasharray="5,2" d="M272.01,-82.52C314.3,-76.95 381.82,-69.5 440.5,-69.5 440.5,-69.5 440.5,-69.5 882,-69.5 935.1,-69.5 994.17,-82.27 1036.94,-93.89"/>
<polygon fill="#9a32cd" stroke="#9a32cd" points="271.53,-79.05 262.08,-83.85 272.46,-85.99 271.53,-79.05"/>
<text text-anchor="middle" x="687" y="-72.5" font-family="Helvetica,sans-Serif" font-size="10.00"> keys</text>
</g>
<!-- Node21 -->
<g id="node21" class="node">
<title>Node21</title>
<g id="a_node21"><a xlink:href="structkv_1_1GetName.html" target="_top" xlink:title=" ">
<polygon fill="white" stroke="#666666" points="481.5,-117 401.5,-117 401.5,-98 481.5,-98 481.5,-117"/>
<text text-anchor="middle" x="441.5" y="-105" font-family="Helvetica,sans-Serif" font-size="10.00">kv::GetName</text>
</a>
</g>
</g>
<!-- Node13&#45;&gt;Node21 -->
<g id="edge22" class="edge">
<title>Node13&#45;&gt;Node21</title>
<path fill="none" stroke="#9a32cd" stroke-dasharray="5,2" d="M272.49,-92.3C309.97,-95.69 364.47,-100.62 401.13,-103.94"/>
<polygon fill="#9a32cd" stroke="#9a32cd" points="272.67,-88.8 262.39,-91.39 272.04,-95.77 272.67,-88.8"/>
<text text-anchor="middle" x="312.5" y="-100.5" font-family="Helvetica,sans-Serif" font-size="10.00"> name</text>
</g>
<!-- Node22 -->
<g id="node22" class="node">
<title>Node22</title>
<g id="a_node22"><a xlink:title=" ">
<polygon fill="white" stroke="#666666" points="1395,-187.5 1273,-187.5 1273,-157.5 1395,-157.5 1395,-187.5"/>
<text text-anchor="start" x="1281" y="-175.5" font-family="Helvetica,sans-Serif" font-size="10.00">std::map&lt; std::string,</text>
<text text-anchor="middle" x="1334" y="-164.5" font-family="Helvetica,sans-Serif" font-size="10.00"> MapChanges &gt;</text>
</a>
</g>
</g>
<!-- Node13&#45;&gt;Node22 -->
<g id="edge24" class="edge">
<title>Node13&#45;&gt;Node22</title>
<path fill="none" stroke="#9a32cd" stroke-dasharray="5,2" d="M235.16,-108.28C246.88,-153.39 281.98,-264.27 355,-319.5 386.05,-342.98 401.57,-338.5 440.5,-338.5 440.5,-338.5 440.5,-338.5 1099,-338.5 1202.85,-338.5 1292.76,-228.39 1322.55,-187.52"/>
<polygon fill="#9a32cd" stroke="#9a32cd" points="238.49,-107.16 232.68,-98.3 231.7,-108.85 238.49,-107.16"/>
<text text-anchor="middle" x="784" y="-341.5" font-family="Helvetica,sans-Serif" font-size="10.00"> keys</text>
</g>
<!-- Node14 -->
<g id="node14" class="node">
<title>Node14</title>
<g id="a_node14"><a xlink:title=" ">
<polygon fill="white" stroke="#666666" points="104,-103.5 0,-103.5 0,-73.5 104,-73.5 104,-103.5"/>
<text text-anchor="start" x="8" y="-91.5" font-family="Helvetica,sans-Serif" font-size="10.00">std::basic_string&lt;</text>
<text text-anchor="middle" x="52" y="-80.5" font-family="Helvetica,sans-Serif" font-size="10.00"> Char &gt;</text>
</a>
</g>
</g>
<!-- Node14&#45;&gt;Node13 -->
<g id="edge13" class="edge">
<title>Node14&#45;&gt;Node13</title>
<path fill="none" stroke="#63b8ff" d="M114.28,-88.5C142.11,-88.5 173.85,-88.5 196.8,-88.5"/>
<polygon fill="#63b8ff" stroke="#63b8ff" points="114.23,-85 104.23,-88.5 114.23,-92 114.23,-85"/>
</g>
<!-- Node15 -->
<g id="node15" class="node">
<title>Node15</title>
<g id="a_node15"><a xlink:title=" ">
<polygon fill="white" stroke="#666666" points="270,-19 189,-19 189,0 270,0 270,-19"/>
<text text-anchor="middle" x="229.5" y="-7" font-family="Helvetica,sans-Serif" font-size="10.00">std::list&lt; T &gt;</text>
</a>
</g>
</g>
<!-- Node15&#45;&gt;Node12 -->
<g id="edge14" class="edge">
<title>Node15&#45;&gt;Node12</title>
<path fill="none" stroke="#9a32cd" stroke-dasharray="5,2" d="M280.45,-8.78C298.31,-8.84 318.57,-9.26 337,-10.5 351.09,-11.45 366.21,-13.03 380.41,-14.76"/>
<polygon fill="#9a32cd" stroke="#9a32cd" points="280.24,-5.28 270.24,-8.78 280.24,-12.28 280.24,-5.28"/>
<text text-anchor="middle" x="312.5" y="-13.5" font-family="Helvetica,sans-Serif" font-size="10.00"> elements</text>
</g>
<!-- Node16 -->
<g id="node16" class="node">
<title>Node16</title>
<g id="a_node16"><a xlink:title=" ">
<polygon fill="white" stroke="#666666" points="66.5,-19 37.5,-19 37.5,0 66.5,0 66.5,-19"/>
<text text-anchor="middle" x="52" y="-7" font-family="Helvetica,sans-Serif" font-size="10.00">T</text>
</a>
</g>
</g>
<!-- Node16&#45;&gt;Node15 -->
<g id="edge15" class="edge">
<title>Node16&#45;&gt;Node15</title>
<path fill="none" stroke="#9a32cd" stroke-dasharray="5,2" d="M77.13,-9.5C105.96,-9.5 154.61,-9.5 188.96,-9.5"/>
<polygon fill="#9a32cd" stroke="#9a32cd" points="76.77,-6 66.77,-9.5 76.77,-13 76.77,-6"/>
<text text-anchor="middle" x="146.5" y="-12.5" font-family="Helvetica,sans-Serif" font-size="10.00"> elements</text>
</g>
<!-- Node17&#45;&gt;Node10 -->
<g id="edge16" class="edge">
<title>Node17&#45;&gt;Node10</title>
<path fill="none" stroke="#9a32cd" stroke-dasharray="5,2" d="M1169.44,-98.95C1206.26,-91.87 1250.43,-83.38 1283.59,-77"/>
<polygon fill="#9a32cd" stroke="#9a32cd" points="1168.42,-95.59 1159.26,-100.91 1169.74,-102.46 1168.42,-95.59"/>
<text text-anchor="middle" x="1213.5" y="-99.5" font-family="Helvetica,sans-Serif" font-size="10.00"> created_maps</text>
</g>
<!-- Node18 -->
<g id="node18" class="node">
<title>Node18</title>
<g id="a_node18"><a xlink:title=" ">
<polygon fill="white" stroke="#666666" points="937.5,-163.5 824.5,-163.5 824.5,-133.5 937.5,-133.5 937.5,-163.5"/>
<text text-anchor="start" x="832.5" y="-151.5" font-family="Helvetica,sans-Serif" font-size="10.00">std::shared_ptr&lt; kv</text>
<text text-anchor="middle" x="881" y="-140.5" font-family="Helvetica,sans-Serif" font-size="10.00">::AbstractMap &gt;</text>
</a>
</g>
</g>
<!-- Node18&#45;&gt;Node17 -->
<g id="edge18" class="edge">
<title>Node18&#45;&gt;Node17</title>
<path fill="none" stroke="#9a32cd" stroke-dasharray="5,2" d="M947.85,-137.47C976.16,-132.73 1009.02,-127.23 1036.68,-122.6"/>
<polygon fill="#9a32cd" stroke="#9a32cd" points="946.93,-134.08 937.65,-139.18 948.09,-140.98 946.93,-134.08"/>
<text text-anchor="middle" x="992" y="-136.5" font-family="Helvetica,sans-Serif" font-size="10.00"> elements</text>
</g>
<!-- Node23 -->
<g id="node23" class="node">
<title>Node23</title>
<g id="a_node23"><a xlink:href="structkv_1_1MapChanges.html" target="_top" xlink:title=" ">
<polygon fill="white" stroke="#666666" points="1146.5,-182 1049.5,-182 1049.5,-163 1146.5,-163 1146.5,-182"/>
<text text-anchor="middle" x="1098" y="-170" font-family="Helvetica,sans-Serif" font-size="10.00">kv::MapChanges</text>
</a>
</g>
</g>
<!-- Node18&#45;&gt;Node23 -->
<g id="edge26" class="edge">
<title>Node18&#45;&gt;Node23</title>
<path fill="none" stroke="#9a32cd" stroke-dasharray="5,2" d="M947.61,-155.82C980.39,-159.48 1019.34,-163.83 1049.24,-167.17"/>
<polygon fill="#9a32cd" stroke="#9a32cd" points="947.97,-152.34 937.65,-154.71 947.2,-159.3 947.97,-152.34"/>
<text text-anchor="middle" x="992" y="-165.5" font-family="Helvetica,sans-Serif" font-size="10.00"> map</text>
</g>
<!-- Node19 -->
<g id="node19" class="node">
<title>Node19</title>
<g id="a_node19"><a xlink:href="classkv_1_1AbstractMap.html" target="_top" xlink:title=" ">
<polygon fill="white" stroke="#666666" points="734.5,-158 639.5,-158 639.5,-139 734.5,-139 734.5,-158"/>
<text text-anchor="middle" x="687" y="-146" font-family="Helvetica,sans-Serif" font-size="10.00">kv::AbstractMap</text>
</a>
</g>
</g>
<!-- Node19&#45;&gt;Node18 -->
<g id="edge19" class="edge">
<title>Node19&#45;&gt;Node18</title>
<path fill="none" stroke="#9a32cd" stroke-dasharray="5,2" d="M745.06,-148.5C770.11,-148.5 799.41,-148.5 824.31,-148.5"/>
<polygon fill="#9a32cd" stroke="#9a32cd" points="744.97,-145 734.97,-148.5 744.97,-152 744.97,-145"/>
<text text-anchor="middle" x="784" y="-151.5" font-family="Helvetica,sans-Serif" font-size="10.00"> ptr</text>
</g>
<!-- Node20 -->
<g id="node20" class="node">
<title>Node20</title>
<g id="a_node20"><a xlink:title=" ">
<polygon fill="white" stroke="#666666" points="517.5,-165.5 365.5,-165.5 365.5,-135.5 517.5,-135.5 517.5,-165.5"/>
<text text-anchor="start" x="373.5" y="-153.5" font-family="Helvetica,sans-Serif" font-size="10.00">std::enable_shared</text>
<text text-anchor="middle" x="441.5" y="-142.5" font-family="Helvetica,sans-Serif" font-size="10.00">_from_this&lt; AbstractMap &gt;</text>
</a>
</g>
</g>
<!-- Node20&#45;&gt;Node19 -->
<g id="edge20" class="edge">
<title>Node20&#45;&gt;Node19</title>
<path fill="none" stroke="#63b8ff" d="M527.94,-149.8C565.3,-149.49 607.68,-149.14 639.15,-148.88"/>
<polygon fill="#63b8ff" stroke="#63b8ff" points="527.52,-146.3 517.54,-149.88 527.57,-153.3 527.52,-146.3"/>
</g>
<!-- Node21&#45;&gt;Node19 -->
<g id="edge21" class="edge">
<title>Node21&#45;&gt;Node19</title>
<path fill="none" stroke="#63b8ff" d="M491.61,-115.77C534.77,-123.04 597.12,-133.53 639.48,-140.67"/>
<polygon fill="#63b8ff" stroke="#63b8ff" points="492.06,-112.3 481.62,-114.09 490.9,-119.2 492.06,-112.3"/>
</g>
<!-- Node22&#45;&gt;Node8 -->
<g id="edge23" class="edge">
<title>Node22&#45;&gt;Node8</title>
<path fill="none" stroke="#9a32cd" stroke-dasharray="5,2" d="M1405.03,-171C1485.29,-169.28 1613.54,-166.53 1674.36,-165.23"/>
<polygon fill="#9a32cd" stroke="#9a32cd" points="1404.93,-167.5 1395.01,-171.21 1405.08,-174.5 1404.93,-167.5"/>
<text text-anchor="middle" x="1519" y="-172.5" font-family="Helvetica,sans-Serif" font-size="10.00"> all_changes</text>
</g>
<!-- Node23&#45;&gt;Node22 -->
<g id="edge25" class="edge">
<title>Node23&#45;&gt;Node22</title>
<path fill="none" stroke="#9a32cd" stroke-dasharray="5,2" d="M1156.79,-172.5C1192.11,-172.5 1237.2,-172.5 1272.93,-172.5"/>
<polygon fill="#9a32cd" stroke="#9a32cd" points="1156.64,-169 1146.64,-172.5 1156.64,-176 1156.64,-169"/>
<text text-anchor="middle" x="1213.5" y="-175.5" font-family="Helvetica,sans-Serif" font-size="10.00"> elements</text>
</g>
<!-- Node24 -->
<g id="node24" class="node">
<title>Node24</title>
<g id="a_node24"><a xlink:title=" ">
<polygon fill="white" stroke="#666666" points="947,-228.5 815,-228.5 815,-198.5 947,-198.5 947,-228.5"/>
<text text-anchor="start" x="823" y="-216.5" font-family="Helvetica,sans-Serif" font-size="10.00">std::unique_ptr&lt; kv</text>
<text text-anchor="middle" x="881" y="-205.5" font-family="Helvetica,sans-Serif" font-size="10.00">::untyped::ChangeSet &gt;</text>
</a>
</g>
</g>
<!-- Node24&#45;&gt;Node23 -->
<g id="edge27" class="edge">
<title>Node24&#45;&gt;Node23</title>
<path fill="none" stroke="#9a32cd" stroke-dasharray="5,2" d="M957.29,-199.14C987.83,-193.32 1022.2,-186.76 1049.2,-181.61"/>
<polygon fill="#9a32cd" stroke="#9a32cd" points="956.26,-195.78 947.09,-201.09 957.57,-202.65 956.26,-195.78"/>
<text text-anchor="middle" x="992" y="-199.5" font-family="Helvetica,sans-Serif" font-size="10.00"> changeset</text>
</g>
<!-- Node25 -->
<g id="node25" class="node">
<title>Node25</title>
<g id="a_node25"><a xlink:href="structkv_1_1untyped_1_1ChangeSet.html" target="_top" xlink:title=" ">
<polygon fill="white" stroke="#666666" points="753,-240 621,-240 621,-221 753,-221 753,-240"/>
<text text-anchor="middle" x="687" y="-228" font-family="Helvetica,sans-Serif" font-size="10.00">kv::untyped::ChangeSet</text>
</a>
</g>
</g>
<!-- Node25&#45;&gt;Node24 -->
<g id="edge28" class="edge">
<title>Node25&#45;&gt;Node24</title>
<path fill="none" stroke="#9a32cd" stroke-dasharray="5,2" d="M763.42,-223.82C780.38,-222.32 798.24,-220.74 814.74,-219.28"/>
<polygon fill="#9a32cd" stroke="#9a32cd" points="762.65,-220.38 753,-224.74 763.27,-227.35 762.65,-220.38"/>
<text text-anchor="middle" x="784" y="-225.5" font-family="Helvetica,sans-Serif" font-size="10.00"> ptr</text>
</g>
<!-- Node26 -->
<g id="node26" class="node">
<title>Node26</title>
<g id="a_node26"><a xlink:href="classkv_1_1AbstractChangeSet.html" target="_top" xlink:title=" ">
<polygon fill="white" stroke="#666666" points="505,-240 378,-240 378,-221 505,-221 505,-240"/>
<text text-anchor="middle" x="441.5" y="-228" font-family="Helvetica,sans-Serif" font-size="10.00">kv::AbstractChangeSet</text>
</a>
</g>
</g>
<!-- Node26&#45;&gt;Node25 -->
<g id="edge29" class="edge">
<title>Node26&#45;&gt;Node25</title>
<path fill="none" stroke="#63b8ff" d="M515.41,-230.5C548.96,-230.5 588.43,-230.5 620.96,-230.5"/>
<polygon fill="#63b8ff" stroke="#63b8ff" points="515.21,-227 505.21,-230.5 515.21,-234 515.21,-227"/>
</g>
<!-- Node27 -->
<g id="node27" class="node">
<title>Node27</title>
<g id="a_node27"><a xlink:href="classchamp_1_1Map.html" target="_top" xlink:title=" ">
<polygon fill="white" stroke="#666666" points="507.5,-203 375.5,-203 375.5,-184 507.5,-184 507.5,-203"/>
<text text-anchor="middle" x="441.5" y="-191" font-family="Helvetica,sans-Serif" font-size="10.00">champ::Map&lt; K, V, H &gt;</text>
</a>
</g>
</g>
<!-- Node27&#45;&gt;Node25 -->
<g id="edge30" class="edge">
<title>Node27&#45;&gt;Node25</title>
<path fill="none" stroke="#9a32cd" stroke-dasharray="5,2" d="M517.92,-195.01C544.94,-196.52 575.5,-199.32 603,-204.5 622.89,-208.24 644.69,-215.19 660.96,-220.96"/>
<polygon fill="#9a32cd" stroke="#9a32cd" points="517.92,-191.51 507.76,-194.5 517.57,-198.5 517.92,-191.51"/>
<text text-anchor="middle" x="574.5" y="-218.5" font-family="Helvetica,sans-Serif" font-size="10.00"> committed</text>
<text text-anchor="middle" x="574.5" y="-207.5" font-family="Helvetica,sans-Serif" font-size="10.00">state</text>
</g>
<!-- Node28 -->
<g id="node28" class="node">
<title>Node28</title>
<g id="a_node28"><a xlink:title=" ">
<polygon fill="white" stroke="#666666" points="528,-396.5 355,-396.5 355,-366.5 528,-366.5 528,-396.5"/>
<text text-anchor="start" x="363" y="-384.5" font-family="Helvetica,sans-Serif" font-size="10.00">std::map&lt; K, std::tuple</text>
<text text-anchor="middle" x="441.5" y="-373.5" font-family="Helvetica,sans-Serif" font-size="10.00">&lt; Version, LastReadVersion &gt; &gt;</text>
</a>
</g>
</g>
<!-- Node28&#45;&gt;Node25 -->
<g id="edge31" class="edge">
<title>Node28&#45;&gt;Node25</title>
<path fill="none" stroke="#9a32cd" stroke-dasharray="5,2" d="M475.45,-361.07C528.64,-328.08 631.42,-264.35 670.45,-240.14"/>
<polygon fill="#9a32cd" stroke="#9a32cd" points="473.39,-358.22 466.74,-366.47 477.08,-364.17 473.39,-358.22"/>
<text text-anchor="middle" x="574.5" y="-317.5" font-family="Helvetica,sans-Serif" font-size="10.00"> reads</text>
</g>
<!-- Node29 -->
<g id="node29" class="node">
<title>Node29</title>
<g id="a_node29"><a xlink:title=" ">
<polygon fill="white" stroke="#666666" points="244,-391 215,-391 215,-372 244,-372 244,-391"/>
<text text-anchor="middle" x="229.5" y="-379" font-family="Helvetica,sans-Serif" font-size="10.00">K</text>
</a>
</g>
</g>
<!-- Node29&#45;&gt;Node28 -->
<g id="edge32" class="edge">
<title>Node29&#45;&gt;Node28</title>
<path fill="none" stroke="#9a32cd" stroke-dasharray="5,2" d="M254.41,-381.5C278.92,-381.5 318.47,-381.5 354.82,-381.5"/>
<polygon fill="#9a32cd" stroke="#9a32cd" points="254.28,-378 244.28,-381.5 254.28,-385 254.28,-378"/>
<text text-anchor="middle" x="312.5" y="-384.5" font-family="Helvetica,sans-Serif" font-size="10.00"> keys</text>
</g>
<!-- Node30 -->
<g id="node30" class="node">
<title>Node30</title>
<g id="a_node30"><a xlink:title=" ">
<polygon fill="white" stroke="#666666" points="512,-310.5 371,-310.5 371,-258.5 512,-258.5 512,-310.5"/>
<text text-anchor="start" x="379" y="-298.5" font-family="Helvetica,sans-Serif" font-size="10.00">std::map&lt; kv::serialisers</text>
<text text-anchor="start" x="379" y="-287.5" font-family="Helvetica,sans-Serif" font-size="10.00">::SerialisedEntry, std</text>
<text text-anchor="start" x="379" y="-276.5" font-family="Helvetica,sans-Serif" font-size="10.00">::optional&lt; kv::serialisers</text>
<text text-anchor="middle" x="441.5" y="-265.5" font-family="Helvetica,sans-Serif" font-size="10.00">::SerialisedEntry &gt; &gt;</text>
</a>
</g>
</g>
<!-- Node30&#45;&gt;Node25 -->
<g id="edge33" class="edge">
<title>Node30&#45;&gt;Node25</title>
<path fill="none" stroke="#9a32cd" stroke-dasharray="5,2" d="M522.08,-266.85C562.33,-257.93 609.59,-247.45 643,-240.04"/>
<polygon fill="#9a32cd" stroke="#9a32cd" points="521.28,-263.44 512.28,-269.03 522.8,-270.28 521.28,-263.44"/>
<text text-anchor="middle" x="574.5" y="-263.5" font-family="Helvetica,sans-Serif" font-size="10.00"> writes</text>
</g>
</g>
</svg>
        <g id="navigator" transform="translate(0 0)" fill="#404254">
                <rect fill="#f2f5e9" fill-opacity="0.5" stroke="#606060" stroke-width=".5" x="0" y="0" width="60" height="60"/>
                <use id="zoomplus" xlink:href="#zoomPlus" x="17" y="9" onmousedown="handleZoom(evt,'in')"/>
                <use id="zoomminus" xlink:href="#zoomMin" x="42" y="9" onmousedown="handleZoom(evt,'out')"/>
                <use id="reset" xlink:href="#resetDef" x="30" y="36" onmousedown="handleReset()"/>
                <g id="arrowUp" xlink:href="#dirArrow" transform="translate(30 24)" onmousedown="handlePan(0,-1)">
                  <use xlink:href="#rim" fill="#404040">
                        <set attributeName="fill" to="#808080" begin="arrowUp.mouseover" end="arrowUp.mouseout"/>
                  </use>
                  <path fill="none" stroke="white" stroke-width="1.5" d="M0,-3.0v7 M-2.5,-0.5L0,-3.0L2.5,-0.5"/>
                </g>
                <g id="arrowRight" xlink:href="#dirArrow" transform="rotate(90) translate(36 -43)" onmousedown="handlePan(1,0)">
                  <use xlink:href="#rim" fill="#404040">
                        <set attributeName="fill" to="#808080" begin="arrowRight.mouseover" end="arrowRight.mouseout"/>
                  </use>
                  <path fill="none" stroke="white" stroke-width="1.5" d="M0,-3.0v7 M-2.5,-0.5L0,-3.0L2.5,-0.5"/>
                </g>
                <g id="arrowDown" xlink:href="#dirArrow" transform="rotate(180) translate(-30 -48)" onmousedown="handlePan(0,1)">
                  <use xlink:href="#rim" fill="#404040">
                        <set attributeName="fill" to="#808080" begin="arrowDown.mouseover" end="arrowDown.mouseout"/>
                  </use>
                  <path fill="none" stroke="white" stroke-width="1.5" d="M0,-3.0v7 M-2.5,-0.5L0,-3.0L2.5,-0.5"/>
                </g>
                <g id="arrowLeft" xlink:href="#dirArrow" transform="rotate(270) translate(-36 17)" onmousedown="handlePan(-1,0)">
                  <use xlink:href="#rim" fill="#404040">
                        <set attributeName="fill" to="#808080" begin="arrowLeft.mouseover" end="arrowLeft.mouseout"/>
                  </use>
                  <path fill="none" stroke="white" stroke-width="1.5" d="M0,-3.0v7 M-2.5,-0.5L0,-3.0L2.5,-0.5"/>
                </g>
        </g>
        <svg viewBox="0 0 15 15" width="100%" height="30px" preserveAspectRatio="xMaxYMin meet">
         <g id="arrow_out" transform="scale(0.3 0.3)">
          <a xlink:href="structccf_1_1endpoints_1_1ReadOnlyEndpointContext__coll__graph_org.svg" target="_base">
           <rect id="button" ry="5" rx="5" y="6" x="6" height="38" width="38"
                fill="#f2f5e9" fill-opacity="0.5" stroke="#606060" stroke-width="1.0"/>
           <path id="arrow"
             d="M 11.500037,31.436501 C 11.940474,20.09759 22.043105,11.32322 32.158766,21.979434 L 37.068811,17.246167 C 37.068811,17.246167 37.088388,32 37.088388,32 L 22.160133,31.978069 C 22.160133,31.978069 26.997745,27.140456 26.997745,27.140456 C 18.528582,18.264221 13.291696,25.230495 11.500037,31.436501 z"
             style="fill:#404040;"/>
          </a>
         </g>
        </svg>
</svg>
