<?xml version="1.0" encoding="UTF-8" standalone="no"?>
<!DOCTYPE svg PUBLIC "-//W3C//DTD SVG 1.1//EN"
 "http://www.w3.org/Graphics/SVG/1.1/DTD/svg11.dtd">
<!-- Generated by graphviz version 2.43.0 (0)
 -->
<!-- Title: include/ccf/tx_id.h Pages: 1 -->
<!--zoomable 247 -->
<svg id="main" version="1.1" xmlns="http://www.w3.org/2000/svg" xmlns:xlink="http://www.w3.org/1999/xlink" xml:space="preserve" onload="init(evt)">
<style type="text/css"><![CDATA[
.edge:hover path { stroke: red; }
.edge:hover polygon { stroke: red; fill: red; }
]]></style>
<script type="text/javascript"><![CDATA[
var edges = document.getElementsByTagName('g');
if (edges && edges.length) {
  for (var i=0;i<edges.length;i++) {
    if (edges[i].id.substr(0,4)=='edge') {
      edges[i].setAttribute('class','edge');
    }
  }
}
]]></script>
        <defs>
                <circle id="rim" cx="0" cy="0" r="7"/>
                <circle id="rim2" cx="0" cy="0" r="3.5"/>
                <g id="zoomPlus">
                        <use xlink:href="#rim" fill="#404040">
                                <set attributeName="fill" to="#808080" begin="zoomplus.mouseover" end="zoomplus.mouseout"/>
                        </use>
                        <path d="M-4,0h8M0,-4v8" fill="none" stroke="white" stroke-width="1.5" pointer-events="none"/>
                </g>
                <g id="zoomMin">
                        <use xlink:href="#rim" fill="#404040">
                                <set attributeName="fill" to="#808080" begin="zoomminus.mouseover" end="zoomminus.mouseout"/>
                        </use>
                        <path d="M-4,0h8" fill="none" stroke="white" stroke-width="1.5" pointer-events="none"/>
                </g>
                <g id="dirArrow">
                        <path fill="none" stroke="white" stroke-width="1.5" d="M0,-3.0v7 M-2.5,-0.5L0,-3.0L2.5,-0.5"/>
                </g>
               <g id="resetDef">
                       <use xlink:href="#rim2" fill="#404040">
                               <set attributeName="fill" to="#808080" begin="reset.mouseover" end="reset.mouseout"/>
                       </use>
               </g>
        </defs>

<script type="text/javascript">
var viewWidth = 833;
var viewHeight = 247;
var sectionId = 'dynsection-0';
</script>
<script xlink:href="svgpan.js"/>
<svg id="graph" class="graph">
<g id="viewport">
<title>include/ccf/tx_id.h</title>
<!-- Node1 -->
<g id="node1" class="node">
<title>Node1</title>
<g id="a_node1"><a xlink:title=" ">
<polygon fill="#999999" stroke="#666666" points="625.5,-239 520.5,-239 520.5,-220 625.5,-220 625.5,-239"/>
<text text-anchor="middle" x="573" y="-227" font-family="Helvetica,sans-Serif" font-size="10.00">include/ccf/tx_id.h</text>
</a>
</g>
</g>
<!-- Node2 -->
<g id="node2" class="node">
<title>Node2</title>
<g id="a_node2"><a xlink:href="json_8h.html" target="_top" xlink:title=" ">
<polygon fill="white" stroke="#666666" points="555.5,-184 478.5,-184 478.5,-165 555.5,-165 555.5,-184"/>
<text text-anchor="middle" x="517" y="-172" font-family="Helvetica,sans-Serif" font-size="10.00">ccf/ds/json.h</text>
</a>
</g>
</g>
<!-- Node1&#45;&gt;Node2 -->
<g id="edge1" class="edge">
<title>Node1&#45;&gt;Node2</title>
<path fill="none" stroke="#63b8ff" d="M564,-219.98C555.81,-212.23 543.49,-200.58 533.53,-191.14"/>
<polygon fill="#63b8ff" stroke="#63b8ff" points="535.83,-188.5 526.16,-184.17 531.02,-193.59 535.83,-188.5"/>
</g>
<!-- Node4 -->
<g id="node4" class="node">
<title>Node4</title>
<g id="a_node4"><a xlink:title=" ">
<polygon fill="#e0e0e0" stroke="#999999" points="44,-19 0,-19 0,0 44,0 44,-19"/>
<text text-anchor="middle" x="22" y="-7" font-family="Helvetica,sans-Serif" font-size="10.00">string</text>
</a>
</g>
</g>
<!-- Node1&#45;&gt;Node4 -->
<g id="edge25" class="edge">
<title>Node1&#45;&gt;Node4</title>
<path fill="none" stroke="#63b8ff" d="M523.51,-219.99C480.07,-212.09 415.36,-199.26 360,-184 215.42,-144.14 144.83,-182.21 41,-74 29.43,-61.94 24.87,-43.14 23.1,-29.12"/>
<polygon fill="#63b8ff" stroke="#63b8ff" points="26.58,-28.76 22.18,-19.12 19.61,-29.39 26.58,-28.76"/>
</g>
<!-- Node11 -->
<g id="node11" class="node">
<title>Node11</title>
<g id="a_node11"><a xlink:title=" ">
<polygon fill="#e0e0e0" stroke="#999999" points="497.5,-19 424.5,-19 424.5,0 497.5,0 497.5,-19"/>
<text text-anchor="middle" x="461" y="-7" font-family="Helvetica,sans-Serif" font-size="10.00">string_view</text>
</a>
</g>
</g>
<!-- Node1&#45;&gt;Node11 -->
<g id="edge26" class="edge">
<title>Node1&#45;&gt;Node11</title>
<path fill="none" stroke="#63b8ff" d="M520.41,-225.96C480.74,-221.79 426.58,-211.11 387,-184 340.7,-152.29 336.46,-128.94 325,-74 323.27,-65.73 320.04,-61.84 325,-55 335.75,-40.17 379.23,-27.66 414.18,-19.72"/>
<polygon fill="#63b8ff" stroke="#63b8ff" points="415.22,-23.07 424.23,-17.5 413.71,-16.24 415.22,-23.07"/>
</g>
<!-- Node13 -->
<g id="node13" class="node">
<title>Node13</title>
<g id="a_node13"><a xlink:title=" ">
<polygon fill="#e0e0e0" stroke="#999999" points="390,-74 334,-74 334,-55 390,-55 390,-74"/>
<text text-anchor="middle" x="362" y="-62" font-family="Helvetica,sans-Serif" font-size="10.00">optional</text>
</a>
</g>
</g>
<!-- Node1&#45;&gt;Node13 -->
<g id="edge24" class="edge">
<title>Node1&#45;&gt;Node13</title>
<path fill="none" stroke="#63b8ff" d="M520.09,-220.71C468.48,-209.96 392.81,-185.09 358,-129 349.64,-115.52 351.91,-97.18 355.53,-83.68"/>
<polygon fill="#63b8ff" stroke="#63b8ff" points="358.89,-84.66 358.53,-74.07 352.21,-82.57 358.89,-84.66"/>
</g>
<!-- Node14 -->
<g id="node14" class="node">
<title>Node14</title>
<g id="a_node14"><a xlink:title=" ">
<polygon fill="#e0e0e0" stroke="#999999" points="556.5,-74 477.5,-74 477.5,-55 556.5,-55 556.5,-74"/>
<text text-anchor="middle" x="517" y="-62" font-family="Helvetica,sans-Serif" font-size="10.00">fmt/format.h</text>
</a>
</g>
</g>
<!-- Node1&#45;&gt;Node14 -->
<g id="edge22" class="edge">
<title>Node1&#45;&gt;Node14</title>
<path fill="none" stroke="#63b8ff" d="M580.34,-219.82C596.75,-199.32 633.21,-146.83 610,-110 600.19,-94.43 583.26,-84.19 566.51,-77.51"/>
<polygon fill="#63b8ff" stroke="#63b8ff" points="567.31,-74.08 556.72,-73.97 564.94,-80.66 567.31,-74.08"/>
</g>
<!-- Node15 -->
<g id="node15" class="node">
<title>Node15</title>
<g id="a_node15"><a xlink:title=" ">
<polygon fill="#e0e0e0" stroke="#999999" points="704,-74 594,-74 594,-55 704,-55 704,-74"/>
<text text-anchor="middle" x="649" y="-62" font-family="Helvetica,sans-Serif" font-size="10.00">nlohmann/json.hpp</text>
</a>
</g>
</g>
<!-- Node1&#45;&gt;Node15 -->
<g id="edge23" class="edge">
<title>Node1&#45;&gt;Node15</title>
<path fill="none" stroke="#63b8ff" d="M586.63,-219.98C598.12,-212.07 614.07,-199.24 623,-184 641.56,-152.31 646.9,-108.81 648.42,-84.29"/>
<polygon fill="#63b8ff" stroke="#63b8ff" points="651.92,-84.34 648.89,-74.19 644.93,-84.02 651.92,-84.34"/>
</g>
<!-- Node18 -->
<g id="node18" class="node">
<title>Node18</title>
<g id="a_node18"><a xlink:title=" ">
<polygon fill="#e0e0e0" stroke="#999999" points="756.5,-184 695.5,-184 695.5,-165 756.5,-165 756.5,-184"/>
<text text-anchor="middle" x="726" y="-172" font-family="Helvetica,sans-Serif" font-size="10.00">charconv</text>
</a>
</g>
</g>
<!-- Node1&#45;&gt;Node18 -->
<g id="edge20" class="edge">
<title>Node1&#45;&gt;Node18</title>
<path fill="none" stroke="#63b8ff" d="M597.58,-219.98C623.05,-211.16 663.04,-197.31 691.63,-187.41"/>
<polygon fill="#63b8ff" stroke="#63b8ff" points="692.92,-190.66 701.23,-184.08 690.63,-184.05 692.92,-190.66"/>
</g>
<!-- Node19 -->
<g id="node19" class="node">
<title>Node19</title>
<g id="a_node19"><a xlink:title=" ">
<polygon fill="#e0e0e0" stroke="#999999" points="825,-184 775,-184 775,-165 825,-165 825,-184"/>
<text text-anchor="middle" x="800" y="-172" font-family="Helvetica,sans-Serif" font-size="10.00">cstdint</text>
</a>
</g>
</g>
<!-- Node1&#45;&gt;Node19 -->
<g id="edge21" class="edge">
<title>Node1&#45;&gt;Node19</title>
<path fill="none" stroke="#63b8ff" d="M610.55,-219.92C649.28,-211.04 711.4,-196.72 765,-184 765.1,-183.98 765.2,-183.95 765.3,-183.93"/>
<polygon fill="#63b8ff" stroke="#63b8ff" points="765.86,-187.39 774.77,-181.66 764.23,-180.59 765.86,-187.39"/>
</g>
<!-- Node3 -->
<g id="node3" class="node">
<title>Node3</title>
<g id="a_node3"><a xlink:href="include_2ccf_2crypto_2base64_8h.html" target="_top" xlink:title=" ">
<polygon fill="white" stroke="#666666" points="162,-74 50,-74 50,-55 162,-55 162,-74"/>
<text text-anchor="middle" x="106" y="-62" font-family="Helvetica,sans-Serif" font-size="10.00">ccf/crypto/base64.h</text>
</a>
</g>
</g>
<!-- Node2&#45;&gt;Node3 -->
<g id="edge2" class="edge">
<title>Node2&#45;&gt;Node3</title>
<path fill="none" stroke="#63b8ff" d="M484.41,-164.94C410.59,-145.54 230.69,-98.26 148.37,-76.63"/>
<polygon fill="#63b8ff" stroke="#63b8ff" points="149.16,-73.22 138.6,-74.07 147.38,-79.99 149.16,-73.22"/>
</g>
<!-- Node6 -->
<g id="node6" class="node">
<title>Node6</title>
<g id="a_node6"><a xlink:href="include_2ccf_2ds_2json__schema_8h.html" target="_top" xlink:title=" ">
<polygon fill="white" stroke="#666666" points="488.5,-129 367.5,-129 367.5,-110 488.5,-110 488.5,-129"/>
<text text-anchor="middle" x="428" y="-117" font-family="Helvetica,sans-Serif" font-size="10.00">ccf/ds/json_schema.h</text>
</a>
</g>
</g>
<!-- Node2&#45;&gt;Node6 -->
<g id="edge5" class="edge">
<title>Node2&#45;&gt;Node6</title>
<path fill="none" stroke="#63b8ff" d="M502.7,-164.98C488.9,-156.77 467.76,-144.18 451.49,-134.49"/>
<polygon fill="#63b8ff" stroke="#63b8ff" points="452.94,-131.28 442.56,-129.17 449.36,-137.29 452.94,-131.28"/>
</g>
<!-- Node2&#45;&gt;Node14 -->
<g id="edge18" class="edge">
<title>Node2&#45;&gt;Node14</title>
<path fill="none" stroke="#63b8ff" d="M517,-164.66C517,-147.17 517,-107.8 517,-84.27"/>
<polygon fill="#63b8ff" stroke="#63b8ff" points="520.5,-84.16 517,-74.16 513.5,-84.16 520.5,-84.16"/>
</g>
<!-- Node17 -->
<g id="node17" class="node">
<title>Node17</title>
<g id="a_node17"><a xlink:title=" ">
<polygon fill="#e0e0e0" stroke="#999999" points="601,-129 545,-129 545,-110 601,-110 601,-129"/>
<text text-anchor="middle" x="573" y="-117" font-family="Helvetica,sans-Serif" font-size="10.00">sstream</text>
</a>
</g>
</g>
<!-- Node2&#45;&gt;Node17 -->
<g id="edge19" class="edge">
<title>Node2&#45;&gt;Node17</title>
<path fill="none" stroke="#63b8ff" d="M526,-164.98C534.19,-157.23 546.51,-145.58 556.47,-136.14"/>
<polygon fill="#63b8ff" stroke="#63b8ff" points="558.98,-138.59 563.84,-129.17 554.17,-133.5 558.98,-138.59"/>
</g>
<!-- Node3&#45;&gt;Node4 -->
<g id="edge3" class="edge">
<title>Node3&#45;&gt;Node4</title>
<path fill="none" stroke="#63b8ff" d="M92.5,-54.98C79.6,-46.84 59.9,-34.41 44.6,-24.76"/>
<polygon fill="#63b8ff" stroke="#63b8ff" points="46.07,-21.55 35.74,-19.17 42.33,-27.47 46.07,-21.55"/>
</g>
<!-- Node5 -->
<g id="node5" class="node">
<title>Node5</title>
<g id="a_node5"><a xlink:title=" ">
<polygon fill="#e0e0e0" stroke="#999999" points="109.5,-19 62.5,-19 62.5,0 109.5,0 109.5,-19"/>
<text text-anchor="middle" x="86" y="-7" font-family="Helvetica,sans-Serif" font-size="10.00">vector</text>
</a>
</g>
</g>
<!-- Node3&#45;&gt;Node5 -->
<g id="edge4" class="edge">
<title>Node3&#45;&gt;Node5</title>
<path fill="none" stroke="#63b8ff" d="M102.7,-54.75C100.02,-47.65 96.15,-37.4 92.81,-28.56"/>
<polygon fill="#63b8ff" stroke="#63b8ff" points="96.05,-27.21 89.24,-19.09 89.5,-29.68 96.05,-27.21"/>
</g>
<!-- Node7 -->
<g id="node7" class="node">
<title>Node7</title>
<g id="a_node7"><a xlink:href="nonstd_8h.html" target="_top" xlink:title=" ">
<polygon fill="white" stroke="#666666" points="273,-74 183,-74 183,-55 273,-55 273,-74"/>
<text text-anchor="middle" x="228" y="-62" font-family="Helvetica,sans-Serif" font-size="10.00">ccf/ds/nonstd.h</text>
</a>
</g>
</g>
<!-- Node6&#45;&gt;Node7 -->
<g id="edge6" class="edge">
<title>Node6&#45;&gt;Node7</title>
<path fill="none" stroke="#63b8ff" d="M395.87,-109.98C361.85,-100.97 308,-86.7 270.5,-76.76"/>
<polygon fill="#63b8ff" stroke="#63b8ff" points="270.95,-73.26 260.39,-74.08 269.16,-80.03 270.95,-73.26"/>
</g>
<!-- Node6&#45;&gt;Node13 -->
<g id="edge14" class="edge">
<title>Node6&#45;&gt;Node13</title>
<path fill="none" stroke="#63b8ff" d="M417.4,-109.98C407.54,-102.07 392.65,-90.11 380.78,-80.58"/>
<polygon fill="#63b8ff" stroke="#63b8ff" points="382.79,-77.7 372.8,-74.17 378.4,-83.16 382.79,-77.7"/>
</g>
<!-- Node6&#45;&gt;Node14 -->
<g id="edge15" class="edge">
<title>Node6&#45;&gt;Node14</title>
<path fill="none" stroke="#63b8ff" d="M442.3,-109.98C456.1,-101.77 477.24,-89.18 493.51,-79.49"/>
<polygon fill="#63b8ff" stroke="#63b8ff" points="495.64,-82.29 502.44,-74.17 492.06,-76.28 495.64,-82.29"/>
</g>
<!-- Node6&#45;&gt;Node15 -->
<g id="edge16" class="edge">
<title>Node6&#45;&gt;Node15</title>
<path fill="none" stroke="#63b8ff" d="M463.51,-109.98C501.49,-100.87 561.87,-86.4 603.36,-76.45"/>
<polygon fill="#63b8ff" stroke="#63b8ff" points="604.31,-79.82 613.21,-74.08 602.67,-73.01 604.31,-79.82"/>
</g>
<!-- Node16 -->
<g id="node16" class="node">
<title>Node16</title>
<g id="a_node16"><a xlink:title=" ">
<polygon fill="#e0e0e0" stroke="#999999" points="444,-74 412,-74 412,-55 444,-55 444,-74"/>
<text text-anchor="middle" x="428" y="-62" font-family="Helvetica,sans-Serif" font-size="10.00">set</text>
</a>
</g>
</g>
<!-- Node6&#45;&gt;Node16 -->
<g id="edge17" class="edge">
<title>Node6&#45;&gt;Node16</title>
<path fill="none" stroke="#63b8ff" d="M428,-109.75C428,-102.8 428,-92.85 428,-84.13"/>
<polygon fill="#63b8ff" stroke="#63b8ff" points="431.5,-84.09 428,-74.09 424.5,-84.09 431.5,-84.09"/>
</g>
<!-- Node7&#45;&gt;Node4 -->
<g id="edge10" class="edge">
<title>Node7&#45;&gt;Node4</title>
<path fill="none" stroke="#63b8ff" d="M193.75,-54.99C160.43,-46.67 108.14,-33.49 53.81,-19.18"/>
<polygon fill="#63b8ff" stroke="#63b8ff" points="54.56,-15.76 44,-16.59 52.78,-22.52 54.56,-15.76"/>
</g>
<!-- Node7&#45;&gt;Node5 -->
<g id="edge13" class="edge">
<title>Node7&#45;&gt;Node5</title>
<path fill="none" stroke="#63b8ff" d="M205.19,-54.98C181.83,-46.27 145.3,-32.63 118.83,-22.75"/>
<polygon fill="#63b8ff" stroke="#63b8ff" points="119.82,-19.39 109.23,-19.17 117.37,-25.95 119.82,-19.39"/>
</g>
<!-- Node8 -->
<g id="node8" class="node">
<title>Node8</title>
<g id="a_node8"><a xlink:title=" ">
<polygon fill="#e0e0e0" stroke="#999999" points="192,-19 128,-19 128,0 192,0 192,-19"/>
<text text-anchor="middle" x="160" y="-7" font-family="Helvetica,sans-Serif" font-size="10.00">algorithm</text>
</a>
</g>
</g>
<!-- Node7&#45;&gt;Node8 -->
<g id="edge7" class="edge">
<title>Node7&#45;&gt;Node8</title>
<path fill="none" stroke="#63b8ff" d="M217.07,-54.98C206.92,-47.07 191.58,-35.11 179.35,-25.58"/>
<polygon fill="#63b8ff" stroke="#63b8ff" points="181.16,-22.56 171.12,-19.17 176.86,-28.08 181.16,-22.56"/>
</g>
<!-- Node9 -->
<g id="node9" class="node">
<title>Node9</title>
<g id="a_node9"><a xlink:title=" ">
<polygon fill="#e0e0e0" stroke="#999999" points="252,-19 210,-19 210,0 252,0 252,-19"/>
<text text-anchor="middle" x="231" y="-7" font-family="Helvetica,sans-Serif" font-size="10.00">array</text>
</a>
</g>
</g>
<!-- Node7&#45;&gt;Node9 -->
<g id="edge8" class="edge">
<title>Node7&#45;&gt;Node9</title>
<path fill="none" stroke="#63b8ff" d="M228.5,-54.75C228.89,-47.8 229.45,-37.85 229.95,-29.13"/>
<polygon fill="#63b8ff" stroke="#63b8ff" points="233.44,-29.27 230.51,-19.09 226.45,-28.88 233.44,-29.27"/>
</g>
<!-- Node10 -->
<g id="node10" class="node">
<title>Node10</title>
<g id="a_node10"><a xlink:title=" ">
<polygon fill="#e0e0e0" stroke="#999999" points="319.5,-19 270.5,-19 270.5,0 319.5,0 319.5,-19"/>
<text text-anchor="middle" x="295" y="-7" font-family="Helvetica,sans-Serif" font-size="10.00">cctype</text>
</a>
</g>
</g>
<!-- Node7&#45;&gt;Node10 -->
<g id="edge9" class="edge">
<title>Node7&#45;&gt;Node10</title>
<path fill="none" stroke="#63b8ff" d="M238.76,-54.98C248.77,-47.07 263.89,-35.11 275.93,-25.58"/>
<polygon fill="#63b8ff" stroke="#63b8ff" points="278.37,-28.12 284.04,-19.17 274.03,-22.63 278.37,-28.12"/>
</g>
<!-- Node7&#45;&gt;Node11 -->
<g id="edge11" class="edge">
<title>Node7&#45;&gt;Node11</title>
<path fill="none" stroke="#63b8ff" d="M265.44,-54.98C306.01,-45.75 370.82,-31.01 414.6,-21.05"/>
<polygon fill="#63b8ff" stroke="#63b8ff" points="415.45,-24.45 424.43,-18.82 413.9,-17.62 415.45,-24.45"/>
</g>
<!-- Node12 -->
<g id="node12" class="node">
<title>Node12</title>
<g id="a_node12"><a xlink:title=" ">
<polygon fill="#e0e0e0" stroke="#999999" points="406.5,-19 337.5,-19 337.5,0 406.5,0 406.5,-19"/>
<text text-anchor="middle" x="372" y="-7" font-family="Helvetica,sans-Serif" font-size="10.00">type_traits</text>
</a>
</g>
</g>
<!-- Node7&#45;&gt;Node12 -->
<g id="edge12" class="edge">
<title>Node7&#45;&gt;Node12</title>
<path fill="none" stroke="#63b8ff" d="M251.14,-54.98C274.82,-46.27 311.87,-32.63 338.71,-22.75"/>
<polygon fill="#63b8ff" stroke="#63b8ff" points="340.27,-25.91 348.44,-19.17 337.85,-19.34 340.27,-25.91"/>
</g>
</g>
</svg>
        <g id="navigator" transform="translate(0 0)" fill="#404254">
                <rect fill="#f2f5e9" fill-opacity="0.5" stroke="#606060" stroke-width=".5" x="0" y="0" width="60" height="60"/>
                <use id="zoomplus" xlink:href="#zoomPlus" x="17" y="9" onmousedown="handleZoom(evt,'in')"/>
                <use id="zoomminus" xlink:href="#zoomMin" x="42" y="9" onmousedown="handleZoom(evt,'out')"/>
                <use id="reset" xlink:href="#resetDef" x="30" y="36" onmousedown="handleReset()"/>
                <g id="arrowUp" xlink:href="#dirArrow" transform="translate(30 24)" onmousedown="handlePan(0,-1)">
                  <use xlink:href="#rim" fill="#404040">
                        <set attributeName="fill" to="#808080" begin="arrowUp.mouseover" end="arrowUp.mouseout"/>
                  </use>
                  <path fill="none" stroke="white" stroke-width="1.5" d="M0,-3.0v7 M-2.5,-0.5L0,-3.0L2.5,-0.5"/>
                </g>
                <g id="arrowRight" xlink:href="#dirArrow" transform="rotate(90) translate(36 -43)" onmousedown="handlePan(1,0)">
                  <use xlink:href="#rim" fill="#404040">
                        <set attributeName="fill" to="#808080" begin="arrowRight.mouseover" end="arrowRight.mouseout"/>
                  </use>
                  <path fill="none" stroke="white" stroke-width="1.5" d="M0,-3.0v7 M-2.5,-0.5L0,-3.0L2.5,-0.5"/>
                </g>
                <g id="arrowDown" xlink:href="#dirArrow" transform="rotate(180) translate(-30 -48)" onmousedown="handlePan(0,1)">
                  <use xlink:href="#rim" fill="#404040">
                        <set attributeName="fill" to="#808080" begin="arrowDown.mouseover" end="arrowDown.mouseout"/>
                  </use>
                  <path fill="none" stroke="white" stroke-width="1.5" d="M0,-3.0v7 M-2.5,-0.5L0,-3.0L2.5,-0.5"/>
                </g>
                <g id="arrowLeft" xlink:href="#dirArrow" transform="rotate(270) translate(-36 17)" onmousedown="handlePan(-1,0)">
                  <use xlink:href="#rim" fill="#404040">
                        <set attributeName="fill" to="#808080" begin="arrowLeft.mouseover" end="arrowLeft.mouseout"/>
                  </use>
                  <path fill="none" stroke="white" stroke-width="1.5" d="M0,-3.0v7 M-2.5,-0.5L0,-3.0L2.5,-0.5"/>
                </g>
        </g>
        <svg viewBox="0 0 15 15" width="100%" height="30px" preserveAspectRatio="xMaxYMin meet">
         <g id="arrow_out" transform="scale(0.3 0.3)">
          <a xlink:href="tx__id_8h__incl_org.svg" target="_base">
           <rect id="button" ry="5" rx="5" y="6" x="6" height="38" width="38"
                fill="#f2f5e9" fill-opacity="0.5" stroke="#606060" stroke-width="1.0"/>
           <path id="arrow"
             d="M 11.500037,31.436501 C 11.940474,20.09759 22.043105,11.32322 32.158766,21.979434 L 37.068811,17.246167 C 37.068811,17.246167 37.088388,32 37.088388,32 L 22.160133,31.978069 C 22.160133,31.978069 26.997745,27.140456 26.997745,27.140456 C 18.528582,18.264221 13.291696,25.230495 11.500037,31.436501 z"
             style="fill:#404040;"/>
          </a>
         </g>
        </svg>
</svg>
