<?xml version="1.0" encoding="UTF-8" standalone="no"?>
<!DOCTYPE svg PUBLIC "-//W3C//DTD SVG 1.1//EN"
 "http://www.w3.org/Graphics/SVG/1.1/DTD/svg11.dtd">
<!-- Generated by graphviz version 2.43.0 (0)
 -->
<!-- Title: src/endpoints/grpc/types.h Pages: 1 -->
<!--zoomable 258 -->
<svg id="main" version="1.1" xmlns="http://www.w3.org/2000/svg" xmlns:xlink="http://www.w3.org/1999/xlink" xml:space="preserve" onload="init(evt)">
<style type="text/css"><![CDATA[
.edge:hover path { stroke: red; }
.edge:hover polygon { stroke: red; fill: red; }
]]></style>
<script type="text/javascript"><![CDATA[
var edges = document.getElementsByTagName('g');
if (edges && edges.length) {
  for (var i=0;i<edges.length;i++) {
    if (edges[i].id.substr(0,4)=='edge') {
      edges[i].setAttribute('class','edge');
    }
  }
}
]]></script>
        <defs>
                <circle id="rim" cx="0" cy="0" r="7"/>
                <circle id="rim2" cx="0" cy="0" r="3.5"/>
                <g id="zoomPlus">
                        <use xlink:href="#rim" fill="#404040">
                                <set attributeName="fill" to="#808080" begin="zoomplus.mouseover" end="zoomplus.mouseout"/>
                        </use>
                        <path d="M-4,0h8M0,-4v8" fill="none" stroke="white" stroke-width="1.5" pointer-events="none"/>
                </g>
                <g id="zoomMin">
                        <use xlink:href="#rim" fill="#404040">
                                <set attributeName="fill" to="#808080" begin="zoomminus.mouseover" end="zoomminus.mouseout"/>
                        </use>
                        <path d="M-4,0h8" fill="none" stroke="white" stroke-width="1.5" pointer-events="none"/>
                </g>
                <g id="dirArrow">
                        <path fill="none" stroke="white" stroke-width="1.5" d="M0,-3.0v7 M-2.5,-0.5L0,-3.0L2.5,-0.5"/>
                </g>
               <g id="resetDef">
                       <use xlink:href="#rim2" fill="#404040">
                               <set attributeName="fill" to="#808080" begin="reset.mouseover" end="reset.mouseout"/>
                       </use>
               </g>
        </defs>

<script type="text/javascript">
var viewWidth = 681;
var viewHeight = 258;
var sectionId = 'dynsection-0';
</script>
<script xlink:href="svgpan.js"/>
<svg id="graph" class="graph">
<g id="viewport">
<title>src/endpoints/grpc/types.h</title>
<!-- Node1 -->
<g id="node1" class="node">
<title>Node1</title>
<g id="a_node1"><a xlink:title=" ">
<polygon fill="#999999" stroke="#666666" points="421,-250 315,-250 315,-220 421,-220 421,-250"/>
<text text-anchor="start" x="323" y="-238" font-family="Helvetica,sans-Serif" font-size="10.00">src/endpoints/grpc</text>
<text text-anchor="middle" x="368" y="-227" font-family="Helvetica,sans-Serif" font-size="10.00">/types.h</text>
</a>
</g>
</g>
<!-- Node2 -->
<g id="node2" class="node">
<title>Node2</title>
<g id="a_node2"><a xlink:href="http__consts_8h.html" target="_top" xlink:title=" ">
<polygon fill="white" stroke="#666666" points="245.5,-74 146.5,-74 146.5,-55 245.5,-55 245.5,-74"/>
<text text-anchor="middle" x="196" y="-62" font-family="Helvetica,sans-Serif" font-size="10.00">ccf/http_consts.h</text>
</a>
</g>
</g>
<!-- Node1&#45;&gt;Node2 -->
<g id="edge1" class="edge">
<title>Node1&#45;&gt;Node2</title>
<path fill="none" stroke="#63b8ff" d="M314.93,-230.04C252.22,-222.19 150.42,-198.79 103,-129 86.72,-105.04 120.44,-87.54 151.74,-77.05"/>
<polygon fill="#63b8ff" stroke="#63b8ff" points="152.83,-80.38 161.31,-74.02 150.72,-73.7 152.83,-80.38"/>
</g>
<!-- Node3 -->
<g id="node3" class="node">
<title>Node3</title>
<g id="a_node3"><a xlink:href="http__header__map_8h.html" target="_top" xlink:title=" ">
<polygon fill="white" stroke="#666666" points="128,-74 0,-74 0,-55 128,-55 128,-74"/>
<text text-anchor="middle" x="64" y="-62" font-family="Helvetica,sans-Serif" font-size="10.00">ccf/http_header_map.h</text>
</a>
</g>
</g>
<!-- Node1&#45;&gt;Node3 -->
<g id="edge2" class="edge">
<title>Node1&#45;&gt;Node3</title>
<path fill="none" stroke="#63b8ff" d="M314.69,-233.01C264.87,-229.79 190.24,-218.86 136,-184 99.34,-160.43 78.52,-110.93 69.47,-83.96"/>
<polygon fill="#63b8ff" stroke="#63b8ff" points="72.75,-82.71 66.39,-74.23 66.07,-84.82 72.75,-82.71"/>
</g>
<!-- Node5 -->
<g id="node5" class="node">
<title>Node5</title>
<g id="a_node5"><a xlink:title=" ">
<polygon fill="#e0e0e0" stroke="#999999" points="315,-19 271,-19 271,0 315,0 315,-19"/>
<text text-anchor="middle" x="293" y="-7" font-family="Helvetica,sans-Serif" font-size="10.00">string</text>
</a>
</g>
</g>
<!-- Node1&#45;&gt;Node5 -->
<g id="edge15" class="edge">
<title>Node1&#45;&gt;Node5</title>
<path fill="none" stroke="#63b8ff" d="M378.63,-219.81C394.83,-196.3 422.12,-148.12 405,-110 387.36,-70.74 345.72,-40.66 318.49,-24.29"/>
<polygon fill="#63b8ff" stroke="#63b8ff" points="319.92,-21.08 309.52,-19.09 316.41,-27.13 319.92,-21.08"/>
</g>
<!-- Node6 -->
<g id="node6" class="node">
<title>Node6</title>
<g id="a_node6"><a xlink:href="status_8h.html" target="_top" xlink:title=" ">
<polygon fill="white" stroke="#666666" points="340,-184 284,-184 284,-165 340,-165 340,-184"/>
<text text-anchor="middle" x="312" y="-172" font-family="Helvetica,sans-Serif" font-size="10.00">status.h</text>
</a>
</g>
</g>
<!-- Node1&#45;&gt;Node6 -->
<g id="edge5" class="edge">
<title>Node1&#45;&gt;Node6</title>
<path fill="none" stroke="#63b8ff" d="M354.44,-219.84C346.32,-211.35 335.95,-200.52 327.5,-191.69"/>
<polygon fill="#63b8ff" stroke="#63b8ff" points="329.83,-189.07 320.39,-184.27 324.78,-193.91 329.83,-189.07"/>
</g>
<!-- Node9 -->
<g id="node9" class="node">
<title>Node9</title>
<g id="a_node9"><a xlink:title=" ">
<polygon fill="#e0e0e0" stroke="#999999" points="396,-129 340,-129 340,-110 396,-110 396,-129"/>
<text text-anchor="middle" x="368" y="-117" font-family="Helvetica,sans-Serif" font-size="10.00">optional</text>
</a>
</g>
</g>
<!-- Node1&#45;&gt;Node9 -->
<g id="edge14" class="edge">
<title>Node1&#45;&gt;Node9</title>
<path fill="none" stroke="#63b8ff" d="M368,-219.63C368,-199.21 368,-161.81 368,-139.24"/>
<polygon fill="#63b8ff" stroke="#63b8ff" points="371.5,-139.23 368,-129.23 364.5,-139.23 371.5,-139.23"/>
</g>
<!-- Node10 -->
<g id="node10" class="node">
<title>Node10</title>
<g id="a_node10"><a xlink:title=" ">
<polygon fill="#e0e0e0" stroke="#999999" points="603.5,-184 452.5,-184 452.5,-165 603.5,-165 603.5,-184"/>
<text text-anchor="middle" x="528" y="-172" font-family="Helvetica,sans-Serif" font-size="10.00">google/protobuf/empty.pb.h</text>
</a>
</g>
</g>
<!-- Node1&#45;&gt;Node10 -->
<g id="edge13" class="edge">
<title>Node1&#45;&gt;Node10</title>
<path fill="none" stroke="#63b8ff" d="M406.32,-219.99C433.26,-210.14 468.93,-197.1 494.69,-187.68"/>
<polygon fill="#63b8ff" stroke="#63b8ff" points="496.18,-190.86 504.37,-184.14 493.78,-184.29 496.18,-190.86"/>
</g>
<!-- Node11 -->
<g id="node11" class="node">
<title>Node11</title>
<g id="a_node11"><a xlink:title=" ">
<polygon fill="#e0e0e0" stroke="#999999" points="672.5,-184 621.5,-184 621.5,-165 672.5,-165 672.5,-184"/>
<text text-anchor="middle" x="647" y="-172" font-family="Helvetica,sans-Serif" font-size="10.00">variant</text>
</a>
</g>
</g>
<!-- Node1&#45;&gt;Node11 -->
<g id="edge16" class="edge">
<title>Node1&#45;&gt;Node11</title>
<path fill="none" stroke="#63b8ff" d="M421.19,-223.84C468.68,-214.61 540.37,-200.3 611.39,-184.29"/>
<polygon fill="#63b8ff" stroke="#63b8ff" points="612.43,-187.65 621.41,-182.02 610.88,-180.82 612.43,-187.65"/>
</g>
<!-- Node4 -->
<g id="node4" class="node">
<title>Node4</title>
<g id="a_node4"><a xlink:title=" ">
<polygon fill="#e0e0e0" stroke="#999999" points="83,-19 45,-19 45,0 83,0 83,-19"/>
<text text-anchor="middle" x="64" y="-7" font-family="Helvetica,sans-Serif" font-size="10.00">map</text>
</a>
</g>
</g>
<!-- Node3&#45;&gt;Node4 -->
<g id="edge3" class="edge">
<title>Node3&#45;&gt;Node4</title>
<path fill="none" stroke="#63b8ff" d="M64,-54.75C64,-47.8 64,-37.85 64,-29.13"/>
<polygon fill="#63b8ff" stroke="#63b8ff" points="67.5,-29.09 64,-19.09 60.5,-29.09 67.5,-29.09"/>
</g>
<!-- Node3&#45;&gt;Node5 -->
<g id="edge4" class="edge">
<title>Node3&#45;&gt;Node5</title>
<path fill="none" stroke="#63b8ff" d="M100.79,-54.98C145.08,-44.73 218.75,-27.69 260.85,-17.94"/>
<polygon fill="#63b8ff" stroke="#63b8ff" points="261.89,-21.29 270.84,-15.63 260.31,-14.47 261.89,-21.29"/>
</g>
<!-- Node6&#45;&gt;Node5 -->
<g id="edge12" class="edge">
<title>Node6&#45;&gt;Node5</title>
<path fill="none" stroke="#63b8ff" d="M310.98,-164.74C308.01,-139.31 299.36,-65.08 295.24,-29.69"/>
<polygon fill="#63b8ff" stroke="#63b8ff" points="298.66,-28.83 294.03,-19.31 291.71,-29.64 298.66,-28.83"/>
</g>
<!-- Node7 -->
<g id="node7" class="node">
<title>Node7</title>
<g id="a_node7"><a xlink:href="grpc__status_8h.html" target="_top" xlink:title=" ">
<polygon fill="white" stroke="#666666" points="284,-129 202,-129 202,-110 284,-110 284,-129"/>
<text text-anchor="middle" x="243" y="-117" font-family="Helvetica,sans-Serif" font-size="10.00">grpc_status.h</text>
</a>
</g>
</g>
<!-- Node6&#45;&gt;Node7 -->
<g id="edge6" class="edge">
<title>Node6&#45;&gt;Node7</title>
<path fill="none" stroke="#63b8ff" d="M300.91,-164.98C290.51,-157 274.74,-144.88 262.28,-135.31"/>
<polygon fill="#63b8ff" stroke="#63b8ff" points="264.35,-132.49 254.29,-129.17 260.09,-138.04 264.35,-132.49"/>
</g>
<!-- Node8 -->
<g id="node8" class="node">
<title>Node8</title>
<g id="a_node8"><a xlink:title=" ">
<polygon fill="#e0e0e0" stroke="#999999" points="183.5,-129 112.5,-129 112.5,-110 183.5,-110 183.5,-129"/>
<text text-anchor="middle" x="148" y="-117" font-family="Helvetica,sans-Serif" font-size="10.00">status.pb.h</text>
</a>
</g>
</g>
<!-- Node6&#45;&gt;Node8 -->
<g id="edge10" class="edge">
<title>Node6&#45;&gt;Node8</title>
<path fill="none" stroke="#63b8ff" d="M285.65,-164.98C258.24,-156.13 215.11,-142.19 184.44,-132.28"/>
<polygon fill="#63b8ff" stroke="#63b8ff" points="185.15,-128.83 174.56,-129.08 183,-135.49 185.15,-128.83"/>
</g>
<!-- Node6&#45;&gt;Node9 -->
<g id="edge11" class="edge">
<title>Node6&#45;&gt;Node9</title>
<path fill="none" stroke="#63b8ff" d="M321,-164.98C329.19,-157.23 341.51,-145.58 351.47,-136.14"/>
<polygon fill="#63b8ff" stroke="#63b8ff" points="353.98,-138.59 358.84,-129.17 349.17,-133.5 353.98,-138.59"/>
</g>
<!-- Node7&#45;&gt;Node2 -->
<g id="edge7" class="edge">
<title>Node7&#45;&gt;Node2</title>
<path fill="none" stroke="#63b8ff" d="M235.24,-109.75C228.53,-102.18 218.66,-91.05 210.49,-81.84"/>
<polygon fill="#63b8ff" stroke="#63b8ff" points="212.87,-79.25 203.62,-74.09 207.63,-83.89 212.87,-79.25"/>
</g>
<!-- Node7&#45;&gt;Node3 -->
<g id="edge8" class="edge">
<title>Node7&#45;&gt;Node3</title>
<path fill="none" stroke="#63b8ff" d="M214.24,-109.98C184.06,-101.05 136.43,-86.94 102.9,-77.02"/>
<polygon fill="#63b8ff" stroke="#63b8ff" points="103.57,-73.57 92.98,-74.08 101.58,-80.28 103.57,-73.57"/>
</g>
<!-- Node7&#45;&gt;Node5 -->
<g id="edge9" class="edge">
<title>Node7&#45;&gt;Node5</title>
<path fill="none" stroke="#63b8ff" d="M247.09,-109.66C255.3,-91.93 273.91,-51.73 284.75,-28.32"/>
<polygon fill="#63b8ff" stroke="#63b8ff" points="287.97,-29.7 288.99,-19.16 281.61,-26.76 287.97,-29.7"/>
</g>
</g>
</svg>
        <g id="navigator" transform="translate(0 0)" fill="#404254">
                <rect fill="#f2f5e9" fill-opacity="0.5" stroke="#606060" stroke-width=".5" x="0" y="0" width="60" height="60"/>
                <use id="zoomplus" xlink:href="#zoomPlus" x="17" y="9" onmousedown="handleZoom(evt,'in')"/>
                <use id="zoomminus" xlink:href="#zoomMin" x="42" y="9" onmousedown="handleZoom(evt,'out')"/>
                <use id="reset" xlink:href="#resetDef" x="30" y="36" onmousedown="handleReset()"/>
                <g id="arrowUp" xlink:href="#dirArrow" transform="translate(30 24)" onmousedown="handlePan(0,-1)">
                  <use xlink:href="#rim" fill="#404040">
                        <set attributeName="fill" to="#808080" begin="arrowUp.mouseover" end="arrowUp.mouseout"/>
                  </use>
                  <path fill="none" stroke="white" stroke-width="1.5" d="M0,-3.0v7 M-2.5,-0.5L0,-3.0L2.5,-0.5"/>
                </g>
                <g id="arrowRight" xlink:href="#dirArrow" transform="rotate(90) translate(36 -43)" onmousedown="handlePan(1,0)">
                  <use xlink:href="#rim" fill="#404040">
                        <set attributeName="fill" to="#808080" begin="arrowRight.mouseover" end="arrowRight.mouseout"/>
                  </use>
                  <path fill="none" stroke="white" stroke-width="1.5" d="M0,-3.0v7 M-2.5,-0.5L0,-3.0L2.5,-0.5"/>
                </g>
                <g id="arrowDown" xlink:href="#dirArrow" transform="rotate(180) translate(-30 -48)" onmousedown="handlePan(0,1)">
                  <use xlink:href="#rim" fill="#404040">
                        <set attributeName="fill" to="#808080" begin="arrowDown.mouseover" end="arrowDown.mouseout"/>
                  </use>
                  <path fill="none" stroke="white" stroke-width="1.5" d="M0,-3.0v7 M-2.5,-0.5L0,-3.0L2.5,-0.5"/>
                </g>
                <g id="arrowLeft" xlink:href="#dirArrow" transform="rotate(270) translate(-36 17)" onmousedown="handlePan(-1,0)">
                  <use xlink:href="#rim" fill="#404040">
                        <set attributeName="fill" to="#808080" begin="arrowLeft.mouseover" end="arrowLeft.mouseout"/>
                  </use>
                  <path fill="none" stroke="white" stroke-width="1.5" d="M0,-3.0v7 M-2.5,-0.5L0,-3.0L2.5,-0.5"/>
                </g>
        </g>
        <svg viewBox="0 0 15 15" width="100%" height="30px" preserveAspectRatio="xMaxYMin meet">
         <g id="arrow_out" transform="scale(0.3 0.3)">
          <a xlink:href="types_8h__incl_org.svg" target="_base">
           <rect id="button" ry="5" rx="5" y="6" x="6" height="38" width="38"
                fill="#f2f5e9" fill-opacity="0.5" stroke="#606060" stroke-width="1.0"/>
           <path id="arrow"
             d="M 11.500037,31.436501 C 11.940474,20.09759 22.043105,11.32322 32.158766,21.979434 L 37.068811,17.246167 C 37.068811,17.246167 37.088388,32 37.088388,32 L 22.160133,31.978069 C 22.160133,31.978069 26.997745,27.140456 26.997745,27.140456 C 18.528582,18.264221 13.291696,25.230495 11.500037,31.436501 z"
             style="fill:#404040;"/>
          </a>
         </g>
        </svg>
</svg>
