<?xml version="1.0" encoding="UTF-8" standalone="no"?>
<!DOCTYPE svg PUBLIC "-//W3C//DTD SVG 1.1//EN"
 "http://www.w3.org/Graphics/SVG/1.1/DTD/svg11.dtd">
<!-- Generated by graphviz version 2.43.0 (0)
 -->
<!-- Title: src/crypto/openssl/x509_time.h Pages: 1 -->
<!--zoomable 368 -->
<svg id="main" version="1.1" xmlns="http://www.w3.org/2000/svg" xmlns:xlink="http://www.w3.org/1999/xlink" xml:space="preserve" onload="init(evt)">
<style type="text/css"><![CDATA[
.edge:hover path { stroke: red; }
.edge:hover polygon { stroke: red; fill: red; }
]]></style>
<script type="text/javascript"><![CDATA[
var edges = document.getElementsByTagName('g');
if (edges && edges.length) {
  for (var i=0;i<edges.length;i++) {
    if (edges[i].id.substr(0,4)=='edge') {
      edges[i].setAttribute('class','edge');
    }
  }
}
]]></script>
        <defs>
                <circle id="rim" cx="0" cy="0" r="7"/>
                <circle id="rim2" cx="0" cy="0" r="3.5"/>
                <g id="zoomPlus">
                        <use xlink:href="#rim" fill="#404040">
                                <set attributeName="fill" to="#808080" begin="zoomplus.mouseover" end="zoomplus.mouseout"/>
                        </use>
                        <path d="M-4,0h8M0,-4v8" fill="none" stroke="white" stroke-width="1.5" pointer-events="none"/>
                </g>
                <g id="zoomMin">
                        <use xlink:href="#rim" fill="#404040">
                                <set attributeName="fill" to="#808080" begin="zoomminus.mouseover" end="zoomminus.mouseout"/>
                        </use>
                        <path d="M-4,0h8" fill="none" stroke="white" stroke-width="1.5" pointer-events="none"/>
                </g>
                <g id="dirArrow">
                        <path fill="none" stroke="white" stroke-width="1.5" d="M0,-3.0v7 M-2.5,-0.5L0,-3.0L2.5,-0.5"/>
                </g>
               <g id="resetDef">
                       <use xlink:href="#rim2" fill="#404040">
                               <set attributeName="fill" to="#808080" begin="reset.mouseover" end="reset.mouseout"/>
                       </use>
               </g>
        </defs>

<script type="text/javascript">
var viewWidth = 1343;
var viewHeight = 368;
var sectionId = 'dynsection-0';
</script>
<script xlink:href="svgpan.js"/>
<svg id="graph" class="graph">
<g id="viewport">
<title>src/crypto/openssl/x509_time.h</title>
<!-- Node1 -->
<g id="node1" class="node">
<title>Node1</title>
<g id="a_node1"><a xlink:title=" ">
<polygon fill="#999999" stroke="#666666" points="270.5,-360 165.5,-360 165.5,-330 270.5,-330 270.5,-360"/>
<text text-anchor="start" x="173.5" y="-348" font-family="Helvetica,sans-Serif" font-size="10.00">src/crypto/openssl</text>
<text text-anchor="middle" x="218" y="-337" font-family="Helvetica,sans-Serif" font-size="10.00">/x509_time.h</text>
</a>
</g>
</g>
<!-- Node2 -->
<g id="node2" class="node">
<title>Node2</title>
<g id="a_node2"><a xlink:href="x509__time__fmt_8h.html" target="_top" xlink:title=" ">
<polygon fill="white" stroke="#666666" points="155,-239 41,-239 41,-220 155,-220 155,-239"/>
<text text-anchor="middle" x="98" y="-227" font-family="Helvetica,sans-Serif" font-size="10.00">ds/x509_time_fmt.h</text>
</a>
</g>
</g>
<!-- Node1&#45;&gt;Node2 -->
<g id="edge1" class="edge">
<title>Node1&#45;&gt;Node2</title>
<path fill="none" stroke="#63b8ff" d="M202.8,-329.63C180.24,-308.28 138.03,-268.36 114.65,-246.25"/>
<polygon fill="#63b8ff" stroke="#63b8ff" points="116.9,-243.56 107.23,-239.23 112.09,-248.64 116.9,-243.56"/>
</g>
<!-- Node10 -->
<g id="node10" class="node">
<title>Node10</title>
<g id="a_node10"><a xlink:href="openssl__wrappers_8h.html" target="_top" xlink:title=" ">
<polygon fill="white" stroke="#666666" points="778.5,-294 665.5,-294 665.5,-275 778.5,-275 778.5,-294"/>
<text text-anchor="middle" x="722" y="-282" font-family="Helvetica,sans-Serif" font-size="10.00">openssl_wrappers.h</text>
</a>
</g>
</g>
<!-- Node1&#45;&gt;Node10 -->
<g id="edge9" class="edge">
<title>Node1&#45;&gt;Node10</title>
<path fill="none" stroke="#63b8ff" d="M270.51,-337.91C362.77,-327.2 553.78,-305.03 655.25,-293.25"/>
<polygon fill="#63b8ff" stroke="#63b8ff" points="655.86,-296.7 665.39,-292.07 655.05,-289.75 655.86,-296.7"/>
</g>
<!-- Node29 -->
<g id="node29" class="node">
<title>Node29</title>
<g id="a_node29"><a xlink:title=" ">
<polygon fill="#e0e0e0" stroke="#999999" points="262.5,-239 173.5,-239 173.5,-220 262.5,-220 262.5,-239"/>
<text text-anchor="middle" x="218" y="-227" font-family="Helvetica,sans-Serif" font-size="10.00">openssl/asn1.h</text>
</a>
</g>
</g>
<!-- Node1&#45;&gt;Node29 -->
<g id="edge49" class="edge">
<title>Node1&#45;&gt;Node29</title>
<path fill="none" stroke="#63b8ff" d="M218,-329.63C218,-309.21 218,-271.81 218,-249.24"/>
<polygon fill="#63b8ff" stroke="#63b8ff" points="221.5,-249.23 218,-239.23 214.5,-249.23 221.5,-249.23"/>
</g>
<!-- Node3 -->
<g id="node3" class="node">
<title>Node3</title>
<g id="a_node3"><a xlink:title=" ">
<polygon fill="#e0e0e0" stroke="#999999" points="427,-184 377,-184 377,-165 427,-165 427,-184"/>
<text text-anchor="middle" x="402" y="-172" font-family="Helvetica,sans-Serif" font-size="10.00">chrono</text>
</a>
</g>
</g>
<!-- Node2&#45;&gt;Node3 -->
<g id="edge2" class="edge">
<title>Node2&#45;&gt;Node3</title>
<path fill="none" stroke="#63b8ff" d="M151.28,-219.95C204.28,-211.34 287.88,-197.42 360,-184 362.2,-183.59 364.46,-183.16 366.74,-182.72"/>
<polygon fill="#63b8ff" stroke="#63b8ff" points="367.57,-186.12 376.71,-180.75 366.22,-179.26 367.57,-186.12"/>
</g>
<!-- Node4 -->
<g id="node4" class="node">
<title>Node4</title>
<g id="a_node4"><a xlink:title=" ">
<polygon fill="#e0e0e0" stroke="#999999" points="219.5,-184 140.5,-184 140.5,-165 219.5,-165 219.5,-184"/>
<text text-anchor="middle" x="180" y="-172" font-family="Helvetica,sans-Serif" font-size="10.00">fmt/chrono.h</text>
</a>
</g>
</g>
<!-- Node2&#45;&gt;Node4 -->
<g id="edge3" class="edge">
<title>Node2&#45;&gt;Node4</title>
<path fill="none" stroke="#63b8ff" d="M111.17,-219.98C123.77,-211.84 143,-199.41 157.94,-189.76"/>
<polygon fill="#63b8ff" stroke="#63b8ff" points="160.09,-192.54 166.59,-184.17 156.29,-186.66 160.09,-192.54"/>
</g>
<!-- Node5 -->
<g id="node5" class="node">
<title>Node5</title>
<g id="a_node5"><a xlink:title=" ">
<polygon fill="#e0e0e0" stroke="#999999" points="770.5,-74 691.5,-74 691.5,-55 770.5,-55 770.5,-74"/>
<text text-anchor="middle" x="731" y="-62" font-family="Helvetica,sans-Serif" font-size="10.00">fmt/format.h</text>
</a>
</g>
</g>
<!-- Node2&#45;&gt;Node5 -->
<g id="edge4" class="edge">
<title>Node2&#45;&gt;Node5</title>
<path fill="none" stroke="#63b8ff" d="M151.46,-219.99C187.41,-213.1 235.31,-201.59 275,-184 329.21,-159.98 330.4,-130.58 386,-110 507.25,-65.12 548.86,-91.94 681.33,-73.97"/>
<polygon fill="#63b8ff" stroke="#63b8ff" points="682.04,-77.41 691.45,-72.54 681.05,-70.48 682.04,-77.41"/>
</g>
<!-- Node6 -->
<g id="node6" class="node">
<title>Node6</title>
<g id="a_node6"><a xlink:title=" ">
<polygon fill="#e0e0e0" stroke="#999999" points="56,-184 0,-184 0,-165 56,-165 56,-184"/>
<text text-anchor="middle" x="28" y="-172" font-family="Helvetica,sans-Serif" font-size="10.00">iomanip</text>
</a>
</g>
</g>
<!-- Node2&#45;&gt;Node6 -->
<g id="edge5" class="edge">
<title>Node2&#45;&gt;Node6</title>
<path fill="none" stroke="#63b8ff" d="M86.75,-219.98C76.2,-212 60.2,-199.88 47.56,-190.31"/>
<polygon fill="#63b8ff" stroke="#63b8ff" points="49.54,-187.42 39.45,-184.17 45.31,-193 49.54,-187.42"/>
</g>
<!-- Node7 -->
<g id="node7" class="node">
<title>Node7</title>
<g id="a_node7"><a xlink:title=" ">
<polygon fill="#e0e0e0" stroke="#999999" points="451,-129 395,-129 395,-110 451,-110 451,-129"/>
<text text-anchor="middle" x="423" y="-117" font-family="Helvetica,sans-Serif" font-size="10.00">sstream</text>
</a>
</g>
</g>
<!-- Node2&#45;&gt;Node7 -->
<g id="edge6" class="edge">
<title>Node2&#45;&gt;Node7</title>
<path fill="none" stroke="#63b8ff" d="M149.54,-219.94C203.8,-210.58 285.38,-195.38 315,-184 347.72,-171.43 382.04,-149.52 402.98,-135.01"/>
<polygon fill="#63b8ff" stroke="#63b8ff" points="405.2,-137.74 411.35,-129.11 401.16,-132.01 405.2,-137.74"/>
</g>
<!-- Node8 -->
<g id="node8" class="node">
<title>Node8</title>
<g id="a_node8"><a xlink:title=" ">
<polygon fill="#e0e0e0" stroke="#999999" points="122,-184 74,-184 74,-165 122,-165 122,-184"/>
<text text-anchor="middle" x="98" y="-172" font-family="Helvetica,sans-Serif" font-size="10.00">time.h</text>
</a>
</g>
</g>
<!-- Node2&#45;&gt;Node8 -->
<g id="edge7" class="edge">
<title>Node2&#45;&gt;Node8</title>
<path fill="none" stroke="#63b8ff" d="M98,-219.75C98,-212.8 98,-202.85 98,-194.13"/>
<polygon fill="#63b8ff" stroke="#63b8ff" points="101.5,-194.09 98,-184.09 94.5,-194.09 101.5,-194.09"/>
</g>
<!-- Node9 -->
<g id="node9" class="node">
<title>Node9</title>
<g id="a_node9"><a xlink:title=" ">
<polygon fill="#e0e0e0" stroke="#999999" points="603.5,-19 556.5,-19 556.5,0 603.5,0 603.5,-19"/>
<text text-anchor="middle" x="580" y="-7" font-family="Helvetica,sans-Serif" font-size="10.00">vector</text>
</a>
</g>
</g>
<!-- Node2&#45;&gt;Node9 -->
<g id="edge8" class="edge">
<title>Node2&#45;&gt;Node9</title>
<path fill="none" stroke="#63b8ff" d="M129.25,-219.98C156.08,-212.15 195.46,-199.44 228,-184 284.27,-157.3 291.76,-138.76 347,-110 416.24,-73.95 501.46,-40.07 547.23,-22.67"/>
<polygon fill="#63b8ff" stroke="#63b8ff" points="548.53,-25.92 556.64,-19.11 546.05,-19.37 548.53,-25.92"/>
</g>
<!-- Node10&#45;&gt;Node2 -->
<g id="edge37" class="edge">
<title>Node10&#45;&gt;Node2</title>
<path fill="none" stroke="#63b8ff" d="M665.28,-279.89C566.12,-273.38 354.53,-258.59 165.35,-239.09"/>
<polygon fill="#63b8ff" stroke="#63b8ff" points="165.53,-235.59 155.22,-238.04 164.8,-242.55 165.53,-235.59"/>
</g>
<!-- Node10&#45;&gt;Node3 -->
<g id="edge36" class="edge">
<title>Node10&#45;&gt;Node3</title>
<path fill="none" stroke="#63b8ff" d="M722.16,-274.97C721.93,-261.13 719.27,-233.91 703,-220 657.84,-181.37 496.43,-194.84 438,-184 437.67,-183.94 437.34,-183.88 437,-183.81"/>
<polygon fill="#63b8ff" stroke="#63b8ff" points="437.61,-180.37 427.11,-181.76 436.19,-187.22 437.61,-180.37"/>
</g>
<!-- Node10&#45;&gt;Node5 -->
<g id="edge38" class="edge">
<title>Node10&#45;&gt;Node5</title>
<path fill="none" stroke="#63b8ff" d="M778.64,-276.45C823.42,-269.58 880.7,-257.44 895,-239 945.16,-174.3 820.31,-106.16 760.63,-78.4"/>
<polygon fill="#63b8ff" stroke="#63b8ff" points="761.86,-75.12 751.31,-74.15 758.96,-81.49 761.86,-75.12"/>
</g>
<!-- Node11 -->
<g id="node11" class="node">
<title>Node11</title>
<g id="a_node11"><a xlink:href="pem_8h.html" target="_top" xlink:title=" ">
<polygon fill="white" stroke="#666666" points="886,-239 788,-239 788,-220 886,-220 886,-239"/>
<text text-anchor="middle" x="837" y="-227" font-family="Helvetica,sans-Serif" font-size="10.00">ccf/crypto/pem.h</text>
</a>
</g>
</g>
<!-- Node10&#45;&gt;Node11 -->
<g id="edge10" class="edge">
<title>Node10&#45;&gt;Node11</title>
<path fill="none" stroke="#63b8ff" d="M740.48,-274.98C758.98,-266.46 787.68,-253.23 808.98,-243.41"/>
<polygon fill="#63b8ff" stroke="#63b8ff" points="810.57,-246.53 818.19,-239.17 807.64,-240.18 810.57,-246.53"/>
</g>
<!-- Node27 -->
<g id="node27" class="node">
<title>Node27</title>
<g id="a_node27"><a xlink:title=" ">
<polygon fill="#e0e0e0" stroke="#999999" points="505,-184 447,-184 447,-165 505,-165 505,-184"/>
<text text-anchor="middle" x="476" y="-172" font-family="Helvetica,sans-Serif" font-size="10.00">memory</text>
</a>
</g>
</g>
<!-- Node10&#45;&gt;Node27 -->
<g id="edge39" class="edge">
<title>Node10&#45;&gt;Node27</title>
<path fill="none" stroke="#63b8ff" d="M728.16,-274.58C736.61,-261.16 749.29,-235.67 736,-220 704.39,-182.71 567.09,-192.74 519,-184 517.74,-183.77 516.45,-183.53 515.16,-183.29"/>
<polygon fill="#63b8ff" stroke="#63b8ff" points="515.6,-179.81 505.12,-181.38 514.29,-186.69 515.6,-179.81"/>
</g>
<!-- Node10&#45;&gt;Node29 -->
<g id="edge40" class="edge">
<title>Node10&#45;&gt;Node29</title>
<path fill="none" stroke="#63b8ff" d="M665.27,-279.01C581.59,-272.15 419.9,-257.96 272.63,-239.14"/>
<polygon fill="#63b8ff" stroke="#63b8ff" points="272.87,-235.64 262.5,-237.84 271.98,-242.59 272.87,-235.64"/>
</g>
<!-- Node30 -->
<g id="node30" class="node">
<title>Node30</title>
<g id="a_node30"><a xlink:title=" ">
<polygon fill="#e0e0e0" stroke="#999999" points="1019.5,-239 942.5,-239 942.5,-220 1019.5,-220 1019.5,-239"/>
<text text-anchor="middle" x="981" y="-227" font-family="Helvetica,sans-Serif" font-size="10.00">openssl/ec.h</text>
</a>
</g>
</g>
<!-- Node10&#45;&gt;Node30 -->
<g id="edge41" class="edge">
<title>Node10&#45;&gt;Node30</title>
<path fill="none" stroke="#63b8ff" d="M763.61,-274.98C809.67,-265.56 883.81,-250.39 932.47,-240.43"/>
<polygon fill="#63b8ff" stroke="#63b8ff" points="933.35,-243.82 942.45,-238.39 931.95,-236.96 933.35,-243.82"/>
</g>
<!-- Node31 -->
<g id="node31" class="node">
<title>Node31</title>
<g id="a_node31"><a xlink:title=" ">
<polygon fill="#e0e0e0" stroke="#999999" points="1136.5,-239 1037.5,-239 1037.5,-220 1136.5,-220 1136.5,-239"/>
<text text-anchor="middle" x="1087" y="-227" font-family="Helvetica,sans-Serif" font-size="10.00">openssl/engine.h</text>
</a>
</g>
</g>
<!-- Node10&#45;&gt;Node31 -->
<g id="edge42" class="edge">
<title>Node10&#45;&gt;Node31</title>
<path fill="none" stroke="#63b8ff" d="M778.59,-275.32C838.02,-266.73 934.52,-252.76 1027.21,-239.26"/>
<polygon fill="#63b8ff" stroke="#63b8ff" points="1027.94,-242.69 1037.33,-237.78 1026.93,-235.76 1027.94,-242.69"/>
</g>
<!-- Node32 -->
<g id="node32" class="node">
<title>Node32</title>
<g id="a_node32"><a xlink:title=" ">
<polygon fill="#e0e0e0" stroke="#999999" points="1233.5,-239 1154.5,-239 1154.5,-220 1233.5,-220 1233.5,-239"/>
<text text-anchor="middle" x="1194" y="-227" font-family="Helvetica,sans-Serif" font-size="10.00">openssl/err.h</text>
</a>
</g>
</g>
<!-- Node10&#45;&gt;Node32 -->
<g id="edge43" class="edge">
<title>Node10&#45;&gt;Node32</title>
<path fill="none" stroke="#63b8ff" d="M778.74,-278.83C858.23,-272 1007.48,-258.15 1144.24,-239.16"/>
<polygon fill="#63b8ff" stroke="#63b8ff" points="1145.06,-242.58 1154.48,-237.73 1144.09,-235.65 1145.06,-242.58"/>
</g>
<!-- Node33 -->
<g id="node33" class="node">
<title>Node33</title>
<g id="a_node33"><a xlink:title=" ">
<polygon fill="#e0e0e0" stroke="#999999" points="1335,-239 1251,-239 1251,-220 1335,-220 1335,-239"/>
<text text-anchor="middle" x="1293" y="-227" font-family="Helvetica,sans-Serif" font-size="10.00">openssl/evp.h</text>
</a>
</g>
</g>
<!-- Node10&#45;&gt;Node33 -->
<g id="edge44" class="edge">
<title>Node10&#45;&gt;Node33</title>
<path fill="none" stroke="#63b8ff" d="M778.83,-280.2C872.93,-274.39 1067.25,-260.96 1240.68,-239.21"/>
<polygon fill="#63b8ff" stroke="#63b8ff" points="1241.27,-242.66 1250.75,-237.94 1240.39,-235.72 1241.27,-242.66"/>
</g>
<!-- Node34 -->
<g id="node34" class="node">
<title>Node34</title>
<g id="a_node34"><a xlink:title=" ">
<polygon fill="#e0e0e0" stroke="#999999" points="368,-239 280,-239 280,-220 368,-220 368,-239"/>
<text text-anchor="middle" x="324" y="-227" font-family="Helvetica,sans-Serif" font-size="10.00">openssl/pem.h</text>
</a>
</g>
</g>
<!-- Node10&#45;&gt;Node34 -->
<g id="edge45" class="edge">
<title>Node10&#45;&gt;Node34</title>
<path fill="none" stroke="#63b8ff" d="M665.45,-276.75C599.13,-268.71 485.59,-254.56 378.26,-239.15"/>
<polygon fill="#63b8ff" stroke="#63b8ff" points="378.63,-235.66 368.23,-237.7 377.63,-242.59 378.63,-235.66"/>
</g>
<!-- Node35 -->
<g id="node35" class="node">
<title>Node35</title>
<g id="a_node35"><a xlink:title=" ">
<polygon fill="#e0e0e0" stroke="#999999" points="466,-239 386,-239 386,-220 466,-220 466,-239"/>
<text text-anchor="middle" x="426" y="-227" font-family="Helvetica,sans-Serif" font-size="10.00">openssl/ssl.h</text>
</a>
</g>
</g>
<!-- Node10&#45;&gt;Node35 -->
<g id="edge46" class="edge">
<title>Node10&#45;&gt;Node35</title>
<path fill="none" stroke="#63b8ff" d="M674.44,-274.98C620.13,-265.26 531.66,-249.42 476.25,-239.5"/>
<polygon fill="#63b8ff" stroke="#63b8ff" points="476.77,-236.03 466.31,-237.72 475.53,-242.93 476.77,-236.03"/>
</g>
<!-- Node36 -->
<g id="node36" class="node">
<title>Node36</title>
<g id="a_node36"><a xlink:title=" ">
<polygon fill="#e0e0e0" stroke="#999999" points="574,-239 484,-239 484,-220 574,-220 574,-239"/>
<text text-anchor="middle" x="529" y="-227" font-family="Helvetica,sans-Serif" font-size="10.00">openssl/x509.h</text>
</a>
</g>
</g>
<!-- Node10&#45;&gt;Node36 -->
<g id="edge47" class="edge">
<title>Node10&#45;&gt;Node36</title>
<path fill="none" stroke="#63b8ff" d="M690.99,-274.98C658.17,-265.97 606.2,-251.7 570.01,-241.76"/>
<polygon fill="#63b8ff" stroke="#63b8ff" points="570.82,-238.36 560.25,-239.08 568.97,-245.11 570.82,-238.36"/>
</g>
<!-- Node37 -->
<g id="node37" class="node">
<title>Node37</title>
<g id="a_node37"><a xlink:title=" ">
<polygon fill="#e0e0e0" stroke="#999999" points="694,-239 592,-239 592,-220 694,-220 694,-239"/>
<text text-anchor="middle" x="643" y="-227" font-family="Helvetica,sans-Serif" font-size="10.00">openssl/x509v3.h</text>
</a>
</g>
</g>
<!-- Node10&#45;&gt;Node37 -->
<g id="edge48" class="edge">
<title>Node10&#45;&gt;Node37</title>
<path fill="none" stroke="#63b8ff" d="M709.31,-274.98C697.17,-266.84 678.64,-254.41 664.25,-244.76"/>
<polygon fill="#63b8ff" stroke="#63b8ff" points="666.18,-241.84 655.92,-239.17 662.28,-247.65 666.18,-241.84"/>
</g>
<!-- Node11&#45;&gt;Node9 -->
<g id="edge35" class="edge">
<title>Node11&#45;&gt;Node9</title>
<path fill="none" stroke="#63b8ff" d="M787.71,-222.48C708.18,-212.54 559.61,-192.89 552,-184 514.72,-140.44 536.11,-110.09 552,-55 554.87,-45.06 560.68,-35.2 566.28,-27.29"/>
<polygon fill="#63b8ff" stroke="#63b8ff" points="569.08,-29.39 572.33,-19.3 563.5,-25.16 569.08,-29.39"/>
</g>
<!-- Node12 -->
<g id="node12" class="node">
<title>Node12</title>
<g id="a_node12"><a xlink:href="json_8h.html" target="_top" xlink:title=" ">
<polygon fill="white" stroke="#666666" points="789.5,-184 712.5,-184 712.5,-165 789.5,-165 789.5,-184"/>
<text text-anchor="middle" x="751" y="-172" font-family="Helvetica,sans-Serif" font-size="10.00">ccf/ds/json.h</text>
</a>
</g>
</g>
<!-- Node11&#45;&gt;Node12 -->
<g id="edge11" class="edge">
<title>Node11&#45;&gt;Node12</title>
<path fill="none" stroke="#63b8ff" d="M823.18,-219.98C809.85,-211.77 789.42,-199.18 773.69,-189.49"/>
<polygon fill="#63b8ff" stroke="#63b8ff" points="775.42,-186.44 765.07,-184.17 771.75,-192.4 775.42,-186.44"/>
</g>
<!-- Node20 -->
<g id="node20" class="node">
<title>Node20</title>
<g id="a_node20"><a xlink:title=" ">
<polygon fill="#e0e0e0" stroke="#999999" points="1233.5,-19 1160.5,-19 1160.5,0 1233.5,0 1233.5,-19"/>
<text text-anchor="middle" x="1197" y="-7" font-family="Helvetica,sans-Serif" font-size="10.00">string_view</text>
</a>
</g>
</g>
<!-- Node11&#45;&gt;Node20 -->
<g id="edge34" class="edge">
<title>Node11&#45;&gt;Node20</title>
<path fill="none" stroke="#63b8ff" d="M861.24,-219.89C915.13,-199.99 1047.44,-146.87 1140,-74 1157.38,-60.32 1173.87,-41 1184.6,-27.27"/>
<polygon fill="#63b8ff" stroke="#63b8ff" points="1187.5,-29.25 1190.78,-19.17 1181.93,-25 1187.5,-29.25"/>
</g>
<!-- Node25 -->
<g id="node25" class="node">
<title>Node25</title>
<g id="a_node25"><a xlink:title=" ">
<polygon fill="#e0e0e0" stroke="#999999" points="611,-184 561,-184 561,-165 611,-165 611,-184"/>
<text text-anchor="middle" x="586" y="-172" font-family="Helvetica,sans-Serif" font-size="10.00">cstring</text>
</a>
</g>
</g>
<!-- Node11&#45;&gt;Node25 -->
<g id="edge30" class="edge">
<title>Node11&#45;&gt;Node25</title>
<path fill="none" stroke="#63b8ff" d="M793.46,-220C749.77,-211.35 680.59,-197.37 621,-184 620.9,-183.98 620.8,-183.96 620.7,-183.93"/>
<polygon fill="#63b8ff" stroke="#63b8ff" points="621.74,-180.58 611.21,-181.73 620.16,-187.4 621.74,-180.58"/>
</g>
<!-- Node26 -->
<g id="node26" class="node">
<title>Node26</title>
<g id="a_node26"><a xlink:title=" ">
<polygon fill="#e0e0e0" stroke="#999999" points="694.5,-184 629.5,-184 629.5,-165 694.5,-165 694.5,-184"/>
<text text-anchor="middle" x="662" y="-172" font-family="Helvetica,sans-Serif" font-size="10.00">exception</text>
</a>
</g>
</g>
<!-- Node11&#45;&gt;Node26 -->
<g id="edge31" class="edge">
<title>Node11&#45;&gt;Node26</title>
<path fill="none" stroke="#63b8ff" d="M808.88,-219.98C779.38,-211.05 732.81,-196.94 700.03,-187.02"/>
<polygon fill="#63b8ff" stroke="#63b8ff" points="700.92,-183.63 690.34,-184.08 698.89,-190.33 700.92,-183.63"/>
</g>
<!-- Node11&#45;&gt;Node27 -->
<g id="edge32" class="edge">
<title>Node11&#45;&gt;Node27</title>
<path fill="none" stroke="#63b8ff" d="M787.74,-221.76C705.07,-210.43 544.9,-188.37 519,-184 517.73,-183.79 516.45,-183.56 515.15,-183.34"/>
<polygon fill="#63b8ff" stroke="#63b8ff" points="515.57,-179.85 505.1,-181.48 514.3,-186.74 515.57,-179.85"/>
</g>
<!-- Node28 -->
<g id="node28" class="node">
<title>Node28</title>
<g id="a_node28"><a xlink:title=" ">
<polygon fill="#e0e0e0" stroke="#999999" points="848,-184 808,-184 808,-165 848,-165 848,-184"/>
<text text-anchor="middle" x="828" y="-172" font-family="Helvetica,sans-Serif" font-size="10.00">span</text>
</a>
</g>
</g>
<!-- Node11&#45;&gt;Node28 -->
<g id="edge33" class="edge">
<title>Node11&#45;&gt;Node28</title>
<path fill="none" stroke="#63b8ff" d="M835.51,-219.75C834.33,-212.8 832.64,-202.85 831.16,-194.13"/>
<polygon fill="#63b8ff" stroke="#63b8ff" points="834.58,-193.36 829.46,-184.09 827.68,-194.53 834.58,-193.36"/>
</g>
<!-- Node12&#45;&gt;Node5 -->
<g id="edge28" class="edge">
<title>Node12&#45;&gt;Node5</title>
<path fill="none" stroke="#63b8ff" d="M749.36,-164.66C746.12,-147.17 738.83,-107.8 734.48,-84.27"/>
<polygon fill="#63b8ff" stroke="#63b8ff" points="737.87,-83.35 732.6,-74.16 730.98,-84.63 737.87,-83.35"/>
</g>
<!-- Node12&#45;&gt;Node7 -->
<g id="edge29" class="edge">
<title>Node12&#45;&gt;Node7</title>
<path fill="none" stroke="#63b8ff" d="M712.28,-166.43C709.48,-165.94 706.7,-165.46 704,-165 617.49,-150.33 515.72,-134.59 461.54,-126.33"/>
<polygon fill="#63b8ff" stroke="#63b8ff" points="461.76,-122.82 451.35,-124.78 460.71,-129.74 461.76,-122.82"/>
</g>
<!-- Node13 -->
<g id="node13" class="node">
<title>Node13</title>
<g id="a_node13"><a xlink:href="include_2ccf_2crypto_2base64_8h.html" target="_top" xlink:title=" ">
<polygon fill="white" stroke="#666666" points="673,-74 561,-74 561,-55 673,-55 673,-74"/>
<text text-anchor="middle" x="617" y="-62" font-family="Helvetica,sans-Serif" font-size="10.00">ccf/crypto/base64.h</text>
</a>
</g>
</g>
<!-- Node12&#45;&gt;Node13 -->
<g id="edge12" class="edge">
<title>Node12&#45;&gt;Node13</title>
<path fill="none" stroke="#63b8ff" d="M740.03,-164.66C717.15,-146.22 664.08,-103.45 635.7,-80.57"/>
<polygon fill="#63b8ff" stroke="#63b8ff" points="637.73,-77.71 627.74,-74.16 633.33,-83.16 637.73,-77.71"/>
</g>
<!-- Node15 -->
<g id="node15" class="node">
<title>Node15</title>
<g id="a_node15"><a xlink:href="include_2ccf_2ds_2json__schema_8h.html" target="_top" xlink:title=" ">
<polygon fill="white" stroke="#666666" points="1028.5,-129 907.5,-129 907.5,-110 1028.5,-110 1028.5,-129"/>
<text text-anchor="middle" x="968" y="-117" font-family="Helvetica,sans-Serif" font-size="10.00">ccf/ds/json_schema.h</text>
</a>
</g>
</g>
<!-- Node12&#45;&gt;Node15 -->
<g id="edge15" class="edge">
<title>Node12&#45;&gt;Node15</title>
<path fill="none" stroke="#63b8ff" d="M785.86,-164.98C823.09,-155.89 882.2,-141.46 922.93,-131.51"/>
<polygon fill="#63b8ff" stroke="#63b8ff" points="923.98,-134.85 932.86,-129.08 922.32,-128.05 923.98,-134.85"/>
</g>
<!-- Node13&#45;&gt;Node9 -->
<g id="edge14" class="edge">
<title>Node13&#45;&gt;Node9</title>
<path fill="none" stroke="#63b8ff" d="M610.89,-54.75C605.72,-47.34 598.15,-36.5 591.81,-27.41"/>
<polygon fill="#63b8ff" stroke="#63b8ff" points="594.59,-25.29 586,-19.09 588.85,-29.29 594.59,-25.29"/>
</g>
<!-- Node14 -->
<g id="node14" class="node">
<title>Node14</title>
<g id="a_node14"><a xlink:title=" ">
<polygon fill="#e0e0e0" stroke="#999999" points="676,-19 632,-19 632,0 676,0 676,-19"/>
<text text-anchor="middle" x="654" y="-7" font-family="Helvetica,sans-Serif" font-size="10.00">string</text>
</a>
</g>
</g>
<!-- Node13&#45;&gt;Node14 -->
<g id="edge13" class="edge">
<title>Node13&#45;&gt;Node14</title>
<path fill="none" stroke="#63b8ff" d="M623.11,-54.75C628.28,-47.34 635.85,-36.5 642.19,-27.41"/>
<polygon fill="#63b8ff" stroke="#63b8ff" points="645.15,-29.29 648,-19.09 639.41,-25.29 645.15,-29.29"/>
</g>
<!-- Node15&#45;&gt;Node5 -->
<g id="edge25" class="edge">
<title>Node15&#45;&gt;Node5</title>
<path fill="none" stroke="#63b8ff" d="M929.92,-109.98C889.01,-100.84 823.89,-86.27 779.38,-76.32"/>
<polygon fill="#63b8ff" stroke="#63b8ff" points="779.9,-72.85 769.38,-74.08 778.37,-79.68 779.9,-72.85"/>
</g>
<!-- Node16 -->
<g id="node16" class="node">
<title>Node16</title>
<g id="a_node16"><a xlink:href="nonstd_8h.html" target="_top" xlink:title=" ">
<polygon fill="white" stroke="#666666" points="1131,-74 1041,-74 1041,-55 1131,-55 1131,-74"/>
<text text-anchor="middle" x="1086" y="-62" font-family="Helvetica,sans-Serif" font-size="10.00">ccf/ds/nonstd.h</text>
</a>
</g>
</g>
<!-- Node15&#45;&gt;Node16 -->
<g id="edge16" class="edge">
<title>Node15&#45;&gt;Node16</title>
<path fill="none" stroke="#63b8ff" d="M986.96,-109.98C1006.03,-101.42 1035.66,-88.11 1057.55,-78.28"/>
<polygon fill="#63b8ff" stroke="#63b8ff" points="1059.01,-81.46 1066.7,-74.17 1056.14,-75.07 1059.01,-81.46"/>
</g>
<!-- Node22 -->
<g id="node22" class="node">
<title>Node22</title>
<g id="a_node22"><a xlink:title=" ">
<polygon fill="#e0e0e0" stroke="#999999" points="895,-74 839,-74 839,-55 895,-55 895,-74"/>
<text text-anchor="middle" x="867" y="-62" font-family="Helvetica,sans-Serif" font-size="10.00">optional</text>
</a>
</g>
</g>
<!-- Node15&#45;&gt;Node22 -->
<g id="edge24" class="edge">
<title>Node15&#45;&gt;Node22</title>
<path fill="none" stroke="#63b8ff" d="M951.77,-109.98C935.82,-101.61 911.22,-88.7 892.62,-78.95"/>
<polygon fill="#63b8ff" stroke="#63b8ff" points="894,-75.72 883.52,-74.17 890.75,-81.92 894,-75.72"/>
</g>
<!-- Node23 -->
<g id="node23" class="node">
<title>Node23</title>
<g id="a_node23"><a xlink:title=" ">
<polygon fill="#e0e0e0" stroke="#999999" points="1023,-74 913,-74 913,-55 1023,-55 1023,-74"/>
<text text-anchor="middle" x="968" y="-62" font-family="Helvetica,sans-Serif" font-size="10.00">nlohmann/json.hpp</text>
</a>
</g>
</g>
<!-- Node15&#45;&gt;Node23 -->
<g id="edge26" class="edge">
<title>Node15&#45;&gt;Node23</title>
<path fill="none" stroke="#63b8ff" d="M968,-109.75C968,-102.8 968,-92.85 968,-84.13"/>
<polygon fill="#63b8ff" stroke="#63b8ff" points="971.5,-84.09 968,-74.09 964.5,-84.09 971.5,-84.09"/>
</g>
<!-- Node24 -->
<g id="node24" class="node">
<title>Node24</title>
<g id="a_node24"><a xlink:title=" ">
<polygon fill="#e0e0e0" stroke="#999999" points="821,-74 789,-74 789,-55 821,-55 821,-74"/>
<text text-anchor="middle" x="805" y="-62" font-family="Helvetica,sans-Serif" font-size="10.00">set</text>
</a>
</g>
</g>
<!-- Node15&#45;&gt;Node24 -->
<g id="edge27" class="edge">
<title>Node15&#45;&gt;Node24</title>
<path fill="none" stroke="#63b8ff" d="M940.99,-109.93C915.04,-101.66 874.5,-88.67 830.79,-74.23"/>
<polygon fill="#63b8ff" stroke="#63b8ff" points="831.72,-70.85 821.13,-71.02 829.52,-77.49 831.72,-70.85"/>
</g>
<!-- Node16&#45;&gt;Node9 -->
<g id="edge23" class="edge">
<title>Node16&#45;&gt;Node9</title>
<path fill="none" stroke="#63b8ff" d="M1040.95,-56.17C1037.92,-55.75 1034.92,-55.36 1032,-55 850.87,-32.8 803.66,-44.73 623,-19 619.93,-18.56 616.76,-18.05 613.58,-17.5"/>
<polygon fill="#63b8ff" stroke="#63b8ff" points="614.05,-14.02 603.58,-15.63 612.77,-20.91 614.05,-14.02"/>
</g>
<!-- Node16&#45;&gt;Node14 -->
<g id="edge20" class="edge">
<title>Node16&#45;&gt;Node14</title>
<path fill="none" stroke="#63b8ff" d="M1040.94,-56.27C1037.92,-55.83 1034.91,-55.4 1032,-55 904.26,-37.43 751.63,-20.79 686.28,-13.87"/>
<polygon fill="#63b8ff" stroke="#63b8ff" points="686.51,-10.38 676.19,-12.81 685.77,-17.34 686.51,-10.38"/>
</g>
<!-- Node17 -->
<g id="node17" class="node">
<title>Node17</title>
<g id="a_node17"><a xlink:title=" ">
<polygon fill="#e0e0e0" stroke="#999999" points="1082,-19 1018,-19 1018,0 1082,0 1082,-19"/>
<text text-anchor="middle" x="1050" y="-7" font-family="Helvetica,sans-Serif" font-size="10.00">algorithm</text>
</a>
</g>
</g>
<!-- Node16&#45;&gt;Node17 -->
<g id="edge17" class="edge">
<title>Node16&#45;&gt;Node17</title>
<path fill="none" stroke="#63b8ff" d="M1080.06,-54.75C1075.02,-47.34 1067.66,-36.5 1061.49,-27.41"/>
<polygon fill="#63b8ff" stroke="#63b8ff" points="1064.35,-25.39 1055.83,-19.09 1058.56,-29.33 1064.35,-25.39"/>
</g>
<!-- Node18 -->
<g id="node18" class="node">
<title>Node18</title>
<g id="a_node18"><a xlink:title=" ">
<polygon fill="#e0e0e0" stroke="#999999" points="1142,-19 1100,-19 1100,0 1142,0 1142,-19"/>
<text text-anchor="middle" x="1121" y="-7" font-family="Helvetica,sans-Serif" font-size="10.00">array</text>
</a>
</g>
</g>
<!-- Node16&#45;&gt;Node18 -->
<g id="edge18" class="edge">
<title>Node16&#45;&gt;Node18</title>
<path fill="none" stroke="#63b8ff" d="M1091.78,-54.75C1096.62,-47.42 1103.68,-36.73 1109.64,-27.7"/>
<polygon fill="#63b8ff" stroke="#63b8ff" points="1112.74,-29.36 1115.33,-19.09 1106.9,-25.5 1112.74,-29.36"/>
</g>
<!-- Node19 -->
<g id="node19" class="node">
<title>Node19</title>
<g id="a_node19"><a xlink:title=" ">
<polygon fill="#e0e0e0" stroke="#999999" points="912.5,-19 863.5,-19 863.5,0 912.5,0 912.5,-19"/>
<text text-anchor="middle" x="888" y="-7" font-family="Helvetica,sans-Serif" font-size="10.00">cctype</text>
</a>
</g>
</g>
<!-- Node16&#45;&gt;Node19 -->
<g id="edge19" class="edge">
<title>Node16&#45;&gt;Node19</title>
<path fill="none" stroke="#63b8ff" d="M1054.19,-54.98C1018.12,-45.33 959.51,-29.64 922.4,-19.71"/>
<polygon fill="#63b8ff" stroke="#63b8ff" points="923.11,-16.27 912.54,-17.07 921.3,-23.04 923.11,-16.27"/>
</g>
<!-- Node16&#45;&gt;Node20 -->
<g id="edge21" class="edge">
<title>Node16&#45;&gt;Node20</title>
<path fill="none" stroke="#63b8ff" d="M1103.83,-54.98C1121.61,-46.5 1149.15,-33.35 1169.68,-23.54"/>
<polygon fill="#63b8ff" stroke="#63b8ff" points="1171.33,-26.64 1178.84,-19.17 1168.31,-20.32 1171.33,-26.64"/>
</g>
<!-- Node21 -->
<g id="node21" class="node">
<title>Node21</title>
<g id="a_node21"><a xlink:title=" ">
<polygon fill="#e0e0e0" stroke="#999999" points="999.5,-19 930.5,-19 930.5,0 999.5,0 999.5,-19"/>
<text text-anchor="middle" x="965" y="-7" font-family="Helvetica,sans-Serif" font-size="10.00">type_traits</text>
</a>
</g>
</g>
<!-- Node16&#45;&gt;Node21 -->
<g id="edge22" class="edge">
<title>Node16&#45;&gt;Node21</title>
<path fill="none" stroke="#63b8ff" d="M1066.56,-54.98C1047.01,-46.42 1016.62,-33.11 994.18,-23.28"/>
<polygon fill="#63b8ff" stroke="#63b8ff" points="995.36,-19.98 984.79,-19.17 992.55,-26.39 995.36,-19.98"/>
</g>
</g>
</svg>
        <g id="navigator" transform="translate(0 0)" fill="#404254">
                <rect fill="#f2f5e9" fill-opacity="0.5" stroke="#606060" stroke-width=".5" x="0" y="0" width="60" height="60"/>
                <use id="zoomplus" xlink:href="#zoomPlus" x="17" y="9" onmousedown="handleZoom(evt,'in')"/>
                <use id="zoomminus" xlink:href="#zoomMin" x="42" y="9" onmousedown="handleZoom(evt,'out')"/>
                <use id="reset" xlink:href="#resetDef" x="30" y="36" onmousedown="handleReset()"/>
                <g id="arrowUp" xlink:href="#dirArrow" transform="translate(30 24)" onmousedown="handlePan(0,-1)">
                  <use xlink:href="#rim" fill="#404040">
                        <set attributeName="fill" to="#808080" begin="arrowUp.mouseover" end="arrowUp.mouseout"/>
                  </use>
                  <path fill="none" stroke="white" stroke-width="1.5" d="M0,-3.0v7 M-2.5,-0.5L0,-3.0L2.5,-0.5"/>
                </g>
                <g id="arrowRight" xlink:href="#dirArrow" transform="rotate(90) translate(36 -43)" onmousedown="handlePan(1,0)">
                  <use xlink:href="#rim" fill="#404040">
                        <set attributeName="fill" to="#808080" begin="arrowRight.mouseover" end="arrowRight.mouseout"/>
                  </use>
                  <path fill="none" stroke="white" stroke-width="1.5" d="M0,-3.0v7 M-2.5,-0.5L0,-3.0L2.5,-0.5"/>
                </g>
                <g id="arrowDown" xlink:href="#dirArrow" transform="rotate(180) translate(-30 -48)" onmousedown="handlePan(0,1)">
                  <use xlink:href="#rim" fill="#404040">
                        <set attributeName="fill" to="#808080" begin="arrowDown.mouseover" end="arrowDown.mouseout"/>
                  </use>
                  <path fill="none" stroke="white" stroke-width="1.5" d="M0,-3.0v7 M-2.5,-0.5L0,-3.0L2.5,-0.5"/>
                </g>
                <g id="arrowLeft" xlink:href="#dirArrow" transform="rotate(270) translate(-36 17)" onmousedown="handlePan(-1,0)">
                  <use xlink:href="#rim" fill="#404040">
                        <set attributeName="fill" to="#808080" begin="arrowLeft.mouseover" end="arrowLeft.mouseout"/>
                  </use>
                  <path fill="none" stroke="white" stroke-width="1.5" d="M0,-3.0v7 M-2.5,-0.5L0,-3.0L2.5,-0.5"/>
                </g>
        </g>
        <svg viewBox="0 0 15 15" width="100%" height="30px" preserveAspectRatio="xMaxYMin meet">
         <g id="arrow_out" transform="scale(0.3 0.3)">
          <a xlink:href="x509__time_8h__incl_org.svg" target="_base">
           <rect id="button" ry="5" rx="5" y="6" x="6" height="38" width="38"
                fill="#f2f5e9" fill-opacity="0.5" stroke="#606060" stroke-width="1.0"/>
           <path id="arrow"
             d="M 11.500037,31.436501 C 11.940474,20.09759 22.043105,11.32322 32.158766,21.979434 L 37.068811,17.246167 C 37.068811,17.246167 37.088388,32 37.088388,32 L 22.160133,31.978069 C 22.160133,31.978069 26.997745,27.140456 26.997745,27.140456 C 18.528582,18.264221 13.291696,25.230495 11.500037,31.436501 z"
             style="fill:#404040;"/>
          </a>
         </g>
        </svg>
</svg>
