<?xml version="1.0" encoding="UTF-8" standalone="no"?>
<!DOCTYPE svg PUBLIC "-//W3C//DTD SVG 1.1//EN"
 "http://www.w3.org/Graphics/SVG/1.1/DTD/svg11.dtd">
<!-- Generated by graphviz version 2.43.0 (0)
 -->
<!-- Title: include/ccf/service/blit_serialiser_pem.h Pages: 1 -->
<!--zoomable 335 -->
<svg id="main" version="1.1" xmlns="http://www.w3.org/2000/svg" xmlns:xlink="http://www.w3.org/1999/xlink" xml:space="preserve" onload="init(evt)">
<style type="text/css"><![CDATA[
.edge:hover path { stroke: red; }
.edge:hover polygon { stroke: red; fill: red; }
]]></style>
<script type="text/javascript"><![CDATA[
var edges = document.getElementsByTagName('g');
if (edges && edges.length) {
  for (var i=0;i<edges.length;i++) {
    if (edges[i].id.substr(0,4)=='edge') {
      edges[i].setAttribute('class','edge');
    }
  }
}
]]></script>
        <defs>
                <circle id="rim" cx="0" cy="0" r="7"/>
                <circle id="rim2" cx="0" cy="0" r="3.5"/>
                <g id="zoomPlus">
                        <use xlink:href="#rim" fill="#404040">
                                <set attributeName="fill" to="#808080" begin="zoomplus.mouseover" end="zoomplus.mouseout"/>
                        </use>
                        <path d="M-4,0h8M0,-4v8" fill="none" stroke="white" stroke-width="1.5" pointer-events="none"/>
                </g>
                <g id="zoomMin">
                        <use xlink:href="#rim" fill="#404040">
                                <set attributeName="fill" to="#808080" begin="zoomminus.mouseover" end="zoomminus.mouseout"/>
                        </use>
                        <path d="M-4,0h8" fill="none" stroke="white" stroke-width="1.5" pointer-events="none"/>
                </g>
                <g id="dirArrow">
                        <path fill="none" stroke="white" stroke-width="1.5" d="M0,-3.0v7 M-2.5,-0.5L0,-3.0L2.5,-0.5"/>
                </g>
               <g id="resetDef">
                       <use xlink:href="#rim2" fill="#404040">
                               <set attributeName="fill" to="#808080" begin="reset.mouseover" end="reset.mouseout"/>
                       </use>
               </g>
        </defs>

<script type="text/javascript">
var viewWidth = 1010;
var viewHeight = 335;
var sectionId = 'dynsection-0';
</script>
<script xlink:href="svgpan.js"/>
<svg id="graph" class="graph">
<g id="viewport">
<title>include/ccf/service/blit_serialiser_pem.h</title>
<!-- Node1 -->
<g id="node1" class="node">
<title>Node1</title>
<g id="a_node1"><a xlink:title=" ">
<polygon fill="#999999" stroke="#666666" points="336.5,-327 214.5,-327 214.5,-297 336.5,-297 336.5,-327"/>
<text text-anchor="start" x="222.5" y="-315" font-family="Helvetica,sans-Serif" font-size="10.00">include/ccf/service</text>
<text text-anchor="middle" x="275.5" y="-304" font-family="Helvetica,sans-Serif" font-size="10.00">/blit_serialiser_pem.h</text>
</a>
</g>
</g>
<!-- Node2 -->
<g id="node2" class="node">
<title>Node2</title>
<g id="a_node2"><a xlink:href="pem_8h.html" target="_top" xlink:title=" ">
<polygon fill="white" stroke="#666666" points="266.5,-255.5 168.5,-255.5 168.5,-236.5 266.5,-236.5 266.5,-255.5"/>
<text text-anchor="middle" x="217.5" y="-243.5" font-family="Helvetica,sans-Serif" font-size="10.00">ccf/crypto/pem.h</text>
</a>
</g>
</g>
<!-- Node1&#45;&gt;Node2 -->
<g id="edge1" class="edge">
<title>Node1&#45;&gt;Node2</title>
<path fill="none" stroke="#63b8ff" d="M262.63,-296.8C253.67,-286.92 241.71,-273.72 232.36,-263.39"/>
<polygon fill="#63b8ff" stroke="#63b8ff" points="234.82,-260.9 225.52,-255.84 229.64,-265.6 234.82,-260.9"/>
</g>
<!-- Node22 -->
<g id="node22" class="node">
<title>Node22</title>
<g id="a_node22"><a xlink:href="blit__serialiser_8h.html" target="_top" xlink:title=" ">
<polygon fill="white" stroke="#666666" points="384,-261 285,-261 285,-231 384,-231 384,-261"/>
<text text-anchor="start" x="293" y="-249" font-family="Helvetica,sans-Serif" font-size="10.00">ccf/kv/serialisers</text>
<text text-anchor="middle" x="334.5" y="-238" font-family="Helvetica,sans-Serif" font-size="10.00">/blit_serialiser.h</text>
</a>
</g>
</g>
<!-- Node1&#45;&gt;Node22 -->
<g id="edge26" class="edge">
<title>Node1&#45;&gt;Node22</title>
<path fill="none" stroke="#63b8ff" d="M288.59,-296.8C296.23,-288.51 306.02,-277.89 314.6,-268.59"/>
<polygon fill="#63b8ff" stroke="#63b8ff" points="317.24,-270.89 321.44,-261.16 312.09,-266.14 317.24,-270.89"/>
</g>
<!-- Node3 -->
<g id="node3" class="node">
<title>Node3</title>
<g id="a_node3"><a xlink:href="json_8h.html" target="_top" xlink:title=" ">
<polygon fill="white" stroke="#666666" points="560,-189.5 483,-189.5 483,-170.5 560,-170.5 560,-189.5"/>
<text text-anchor="middle" x="521.5" y="-177.5" font-family="Helvetica,sans-Serif" font-size="10.00">ccf/ds/json.h</text>
</a>
</g>
</g>
<!-- Node2&#45;&gt;Node3 -->
<g id="edge2" class="edge">
<title>Node2&#45;&gt;Node3</title>
<path fill="none" stroke="#63b8ff" d="M252.71,-236.45C260.53,-234.61 268.79,-232.7 276.5,-231 344.37,-216.03 423.18,-200.22 472.7,-190.49"/>
<polygon fill="#63b8ff" stroke="#63b8ff" points="473.67,-193.86 482.81,-188.5 472.32,-186.99 473.67,-193.86"/>
</g>
<!-- Node6 -->
<g id="node6" class="node">
<title>Node6</title>
<g id="a_node6"><a xlink:title=" ">
<polygon fill="#e0e0e0" stroke="#999999" points="680,-19 633,-19 633,0 680,0 680,-19"/>
<text text-anchor="middle" x="656.5" y="-7" font-family="Helvetica,sans-Serif" font-size="10.00">vector</text>
</a>
</g>
</g>
<!-- Node2&#45;&gt;Node6 -->
<g id="edge25" class="edge">
<title>Node2&#45;&gt;Node6</title>
<path fill="none" stroke="#63b8ff" d="M250.75,-236.43C259.12,-234.46 268.11,-232.51 276.5,-231 405.64,-207.82 452.98,-255.31 569.5,-195 634.05,-161.59 653.29,-141.79 679.5,-74 685.56,-58.34 677.64,-40.32 669.48,-27.49"/>
<polygon fill="#63b8ff" stroke="#63b8ff" points="672.28,-25.39 663.7,-19.17 666.53,-29.38 672.28,-25.39"/>
</g>
<!-- Node12 -->
<g id="node12" class="node">
<title>Node12</title>
<g id="a_node12"><a xlink:title=" ">
<polygon fill="#e0e0e0" stroke="#999999" points="73,-19 0,-19 0,0 73,0 73,-19"/>
<text text-anchor="middle" x="36.5" y="-7" font-family="Helvetica,sans-Serif" font-size="10.00">string_view</text>
</a>
</g>
</g>
<!-- Node2&#45;&gt;Node12 -->
<g id="edge24" class="edge">
<title>Node2&#45;&gt;Node12</title>
<path fill="none" stroke="#63b8ff" d="M168.14,-238.85C117.75,-231.44 44.58,-217.15 27.5,-195 -10.47,-145.74 14.25,-65.23 28.47,-29.09"/>
<polygon fill="#63b8ff" stroke="#63b8ff" points="31.9,-29.96 32.47,-19.38 25.43,-27.3 31.9,-29.96"/>
</g>
<!-- Node18 -->
<g id="node18" class="node">
<title>Node18</title>
<g id="a_node18"><a xlink:title=" ">
<polygon fill="#e0e0e0" stroke="#999999" points="86.5,-189.5 36.5,-189.5 36.5,-170.5 86.5,-170.5 86.5,-189.5"/>
<text text-anchor="middle" x="61.5" y="-177.5" font-family="Helvetica,sans-Serif" font-size="10.00">cstring</text>
</a>
</g>
</g>
<!-- Node2&#45;&gt;Node18 -->
<g id="edge20" class="edge">
<title>Node2&#45;&gt;Node18</title>
<path fill="none" stroke="#63b8ff" d="M196.46,-236.37C169.52,-225.32 122.64,-206.08 91.84,-193.45"/>
<polygon fill="#63b8ff" stroke="#63b8ff" points="93.03,-190.15 82.45,-189.6 90.38,-196.63 93.03,-190.15"/>
</g>
<!-- Node19 -->
<g id="node19" class="node">
<title>Node19</title>
<g id="a_node19"><a xlink:title=" ">
<polygon fill="#e0e0e0" stroke="#999999" points="170,-189.5 105,-189.5 105,-170.5 170,-170.5 170,-189.5"/>
<text text-anchor="middle" x="137.5" y="-177.5" font-family="Helvetica,sans-Serif" font-size="10.00">exception</text>
</a>
</g>
</g>
<!-- Node2&#45;&gt;Node19 -->
<g id="edge21" class="edge">
<title>Node2&#45;&gt;Node19</title>
<path fill="none" stroke="#63b8ff" d="M206.71,-236.37C193.83,-226.06 172.06,-208.65 156.37,-196.09"/>
<polygon fill="#63b8ff" stroke="#63b8ff" points="158.37,-193.21 148.37,-189.7 154,-198.68 158.37,-193.21"/>
</g>
<!-- Node20 -->
<g id="node20" class="node">
<title>Node20</title>
<g id="a_node20"><a xlink:title=" ">
<polygon fill="#e0e0e0" stroke="#999999" points="246.5,-189.5 188.5,-189.5 188.5,-170.5 246.5,-170.5 246.5,-189.5"/>
<text text-anchor="middle" x="217.5" y="-177.5" font-family="Helvetica,sans-Serif" font-size="10.00">memory</text>
</a>
</g>
</g>
<!-- Node2&#45;&gt;Node20 -->
<g id="edge22" class="edge">
<title>Node2&#45;&gt;Node20</title>
<path fill="none" stroke="#63b8ff" d="M217.5,-236.37C217.5,-227.16 217.5,-212.29 217.5,-200.27"/>
<polygon fill="#63b8ff" stroke="#63b8ff" points="221,-199.91 217.5,-189.91 214,-199.91 221,-199.91"/>
</g>
<!-- Node21 -->
<g id="node21" class="node">
<title>Node21</title>
<g id="a_node21"><a xlink:title=" ">
<polygon fill="#e0e0e0" stroke="#999999" points="304.5,-189.5 264.5,-189.5 264.5,-170.5 304.5,-170.5 304.5,-189.5"/>
<text text-anchor="middle" x="284.5" y="-177.5" font-family="Helvetica,sans-Serif" font-size="10.00">span</text>
</a>
</g>
</g>
<!-- Node2&#45;&gt;Node21 -->
<g id="edge23" class="edge">
<title>Node2&#45;&gt;Node21</title>
<path fill="none" stroke="#63b8ff" d="M226.54,-236.37C237.07,-226.31 254.69,-209.48 267.74,-197.01"/>
<polygon fill="#63b8ff" stroke="#63b8ff" points="270.36,-199.34 275.18,-189.91 265.53,-194.28 270.36,-199.34"/>
</g>
<!-- Node4 -->
<g id="node4" class="node">
<title>Node4</title>
<g id="a_node4"><a xlink:href="include_2ccf_2crypto_2base64_8h.html" target="_top" xlink:title=" ">
<polygon fill="white" stroke="#666666" points="670.5,-74 558.5,-74 558.5,-55 670.5,-55 670.5,-74"/>
<text text-anchor="middle" x="614.5" y="-62" font-family="Helvetica,sans-Serif" font-size="10.00">ccf/crypto/base64.h</text>
</a>
</g>
</g>
<!-- Node3&#45;&gt;Node4 -->
<g id="edge3" class="edge">
<title>Node3&#45;&gt;Node4</title>
<path fill="none" stroke="#63b8ff" d="M531.76,-170.41C542.77,-160.91 560.44,-144.85 573.5,-129 585.47,-114.47 596.9,-96.29 604.63,-83.11"/>
<polygon fill="#63b8ff" stroke="#63b8ff" points="607.83,-84.56 609.78,-74.15 601.76,-81.08 607.83,-84.56"/>
</g>
<!-- Node7 -->
<g id="node7" class="node">
<title>Node7</title>
<g id="a_node7"><a xlink:href="include_2ccf_2ds_2json__schema_8h.html" target="_top" xlink:title=" ">
<polygon fill="white" stroke="#666666" points="475,-129 354,-129 354,-110 475,-110 475,-129"/>
<text text-anchor="middle" x="414.5" y="-117" font-family="Helvetica,sans-Serif" font-size="10.00">ccf/ds/json_schema.h</text>
</a>
</g>
</g>
<!-- Node3&#45;&gt;Node7 -->
<g id="edge6" class="edge">
<title>Node3&#45;&gt;Node7</title>
<path fill="none" stroke="#63b8ff" d="M505.71,-170.37C488.17,-160.78 459.62,-145.17 439.13,-133.97"/>
<polygon fill="#63b8ff" stroke="#63b8ff" points="440.81,-130.89 430.35,-129.17 437.45,-137.04 440.81,-130.89"/>
</g>
<!-- Node15 -->
<g id="node15" class="node">
<title>Node15</title>
<g id="a_node15"><a xlink:title=" ">
<polygon fill="#e0e0e0" stroke="#999999" points="541,-74 462,-74 462,-55 541,-55 541,-74"/>
<text text-anchor="middle" x="501.5" y="-62" font-family="Helvetica,sans-Serif" font-size="10.00">fmt/format.h</text>
</a>
</g>
</g>
<!-- Node3&#45;&gt;Node15 -->
<g id="edge18" class="edge">
<title>Node3&#45;&gt;Node15</title>
<path fill="none" stroke="#63b8ff" d="M532.18,-170.18C546.58,-157.17 569.23,-131.99 558.5,-110 552.2,-97.09 540.15,-86.83 528.74,-79.43"/>
<polygon fill="#63b8ff" stroke="#63b8ff" points="530.23,-76.25 519.85,-74.12 526.64,-82.25 530.23,-76.25"/>
</g>
<!-- Node17 -->
<g id="node17" class="node">
<title>Node17</title>
<g id="a_node17"><a xlink:title=" ">
<polygon fill="#e0e0e0" stroke="#999999" points="549.5,-129 493.5,-129 493.5,-110 549.5,-110 549.5,-129"/>
<text text-anchor="middle" x="521.5" y="-117" font-family="Helvetica,sans-Serif" font-size="10.00">sstream</text>
</a>
</g>
</g>
<!-- Node3&#45;&gt;Node17 -->
<g id="edge19" class="edge">
<title>Node3&#45;&gt;Node17</title>
<path fill="none" stroke="#63b8ff" d="M521.5,-170.37C521.5,-162.25 521.5,-149.81 521.5,-139.39"/>
<polygon fill="#63b8ff" stroke="#63b8ff" points="525,-139.17 521.5,-129.17 518,-139.17 525,-139.17"/>
</g>
<!-- Node5 -->
<g id="node5" class="node">
<title>Node5</title>
<g id="a_node5"><a xlink:title=" ">
<polygon fill="#e0e0e0" stroke="#999999" points="554.5,-19 510.5,-19 510.5,0 554.5,0 554.5,-19"/>
<text text-anchor="middle" x="532.5" y="-7" font-family="Helvetica,sans-Serif" font-size="10.00">string</text>
</a>
</g>
</g>
<!-- Node4&#45;&gt;Node5 -->
<g id="edge4" class="edge">
<title>Node4&#45;&gt;Node5</title>
<path fill="none" stroke="#63b8ff" d="M601.33,-54.98C588.73,-46.84 569.5,-34.41 554.56,-24.76"/>
<polygon fill="#63b8ff" stroke="#63b8ff" points="556.21,-21.66 545.91,-19.17 552.41,-27.54 556.21,-21.66"/>
</g>
<!-- Node4&#45;&gt;Node6 -->
<g id="edge5" class="edge">
<title>Node4&#45;&gt;Node6</title>
<path fill="none" stroke="#63b8ff" d="M621.44,-54.75C627.37,-47.26 636.07,-36.28 643.32,-27.13"/>
<polygon fill="#63b8ff" stroke="#63b8ff" points="646.23,-29.1 649.69,-19.09 640.74,-24.75 646.23,-29.1"/>
</g>
<!-- Node8 -->
<g id="node8" class="node">
<title>Node8</title>
<g id="a_node8"><a xlink:href="nonstd_8h.html" target="_top" xlink:title=" ">
<polygon fill="white" stroke="#666666" points="241.5,-74 151.5,-74 151.5,-55 241.5,-55 241.5,-74"/>
<text text-anchor="middle" x="196.5" y="-62" font-family="Helvetica,sans-Serif" font-size="10.00">ccf/ds/nonstd.h</text>
</a>
</g>
</g>
<!-- Node7&#45;&gt;Node8 -->
<g id="edge7" class="edge">
<title>Node7&#45;&gt;Node8</title>
<path fill="none" stroke="#63b8ff" d="M379.47,-109.98C342,-100.87 282.45,-86.4 241.52,-76.45"/>
<polygon fill="#63b8ff" stroke="#63b8ff" points="242.34,-73.04 231.8,-74.08 240.69,-79.85 242.34,-73.04"/>
</g>
<!-- Node14 -->
<g id="node14" class="node">
<title>Node14</title>
<g id="a_node14"><a xlink:title=" ">
<polygon fill="#e0e0e0" stroke="#999999" points="443.5,-74 387.5,-74 387.5,-55 443.5,-55 443.5,-74"/>
<text text-anchor="middle" x="415.5" y="-62" font-family="Helvetica,sans-Serif" font-size="10.00">optional</text>
</a>
</g>
</g>
<!-- Node7&#45;&gt;Node14 -->
<g id="edge15" class="edge">
<title>Node7&#45;&gt;Node14</title>
<path fill="none" stroke="#63b8ff" d="M414.67,-109.75C414.8,-102.8 414.98,-92.85 415.15,-84.13"/>
<polygon fill="#63b8ff" stroke="#63b8ff" points="418.65,-84.15 415.34,-74.09 411.65,-84.02 418.65,-84.15"/>
</g>
<!-- Node7&#45;&gt;Node15 -->
<g id="edge16" class="edge">
<title>Node7&#45;&gt;Node15</title>
<path fill="none" stroke="#63b8ff" d="M428.48,-109.98C441.97,-101.77 462.63,-89.18 478.54,-79.49"/>
<polygon fill="#63b8ff" stroke="#63b8ff" points="480.55,-82.36 487.27,-74.17 476.91,-76.38 480.55,-82.36"/>
</g>
<!-- Node16 -->
<g id="node16" class="node">
<title>Node16</title>
<g id="a_node16"><a xlink:title=" ">
<polygon fill="#e0e0e0" stroke="#999999" points="369.5,-74 259.5,-74 259.5,-55 369.5,-55 369.5,-74"/>
<text text-anchor="middle" x="314.5" y="-62" font-family="Helvetica,sans-Serif" font-size="10.00">nlohmann/json.hpp</text>
</a>
</g>
</g>
<!-- Node7&#45;&gt;Node16 -->
<g id="edge17" class="edge">
<title>Node7&#45;&gt;Node16</title>
<path fill="none" stroke="#63b8ff" d="M398.43,-109.98C382.64,-101.61 358.28,-88.7 339.87,-78.95"/>
<polygon fill="#63b8ff" stroke="#63b8ff" points="341.33,-75.76 330.86,-74.17 338.06,-81.95 341.33,-75.76"/>
</g>
<!-- Node8&#45;&gt;Node5 -->
<g id="edge11" class="edge">
<title>Node8&#45;&gt;Node5</title>
<path fill="none" stroke="#63b8ff" d="M241.81,-56.35C310.76,-45.48 440.32,-25.04 500.4,-15.56"/>
<polygon fill="#63b8ff" stroke="#63b8ff" points="501.11,-19 510.44,-13.98 500.01,-12.08 501.11,-19"/>
</g>
<!-- Node8&#45;&gt;Node6 -->
<g id="edge14" class="edge">
<title>Node8&#45;&gt;Node6</title>
<path fill="none" stroke="#63b8ff" d="M241.56,-56.25C244.58,-55.81 247.58,-55.39 250.5,-55 388.22,-36.62 552.97,-20.31 622.69,-13.66"/>
<polygon fill="#63b8ff" stroke="#63b8ff" points="623.03,-17.15 632.66,-12.72 622.37,-10.18 623.03,-17.15"/>
</g>
<!-- Node9 -->
<g id="node9" class="node">
<title>Node9</title>
<g id="a_node9"><a xlink:title=" ">
<polygon fill="#e0e0e0" stroke="#999999" points="384.5,-19 320.5,-19 320.5,0 384.5,0 384.5,-19"/>
<text text-anchor="middle" x="352.5" y="-7" font-family="Helvetica,sans-Serif" font-size="10.00">algorithm</text>
</a>
</g>
</g>
<!-- Node8&#45;&gt;Node9 -->
<g id="edge8" class="edge">
<title>Node8&#45;&gt;Node9</title>
<path fill="none" stroke="#63b8ff" d="M221.56,-54.98C247.53,-46.16 288.31,-32.31 317.46,-22.41"/>
<polygon fill="#63b8ff" stroke="#63b8ff" points="318.9,-25.61 327.24,-19.08 316.65,-18.99 318.9,-25.61"/>
</g>
<!-- Node10 -->
<g id="node10" class="node">
<title>Node10</title>
<g id="a_node10"><a xlink:title=" ">
<polygon fill="#e0e0e0" stroke="#999999" points="147.5,-19 105.5,-19 105.5,0 147.5,0 147.5,-19"/>
<text text-anchor="middle" x="126.5" y="-7" font-family="Helvetica,sans-Serif" font-size="10.00">array</text>
</a>
</g>
</g>
<!-- Node8&#45;&gt;Node10 -->
<g id="edge9" class="edge">
<title>Node8&#45;&gt;Node10</title>
<path fill="none" stroke="#63b8ff" d="M185.25,-54.98C174.7,-47 158.7,-34.88 146.06,-25.31"/>
<polygon fill="#63b8ff" stroke="#63b8ff" points="148.04,-22.42 137.95,-19.17 143.81,-28 148.04,-22.42"/>
</g>
<!-- Node11 -->
<g id="node11" class="node">
<title>Node11</title>
<g id="a_node11"><a xlink:title=" ">
<polygon fill="#e0e0e0" stroke="#999999" points="215,-19 166,-19 166,0 215,0 215,-19"/>
<text text-anchor="middle" x="190.5" y="-7" font-family="Helvetica,sans-Serif" font-size="10.00">cctype</text>
</a>
</g>
</g>
<!-- Node8&#45;&gt;Node11 -->
<g id="edge10" class="edge">
<title>Node8&#45;&gt;Node11</title>
<path fill="none" stroke="#63b8ff" d="M195.51,-54.75C194.72,-47.8 193.6,-37.85 192.61,-29.13"/>
<polygon fill="#63b8ff" stroke="#63b8ff" points="196.08,-28.63 191.47,-19.09 189.12,-29.42 196.08,-28.63"/>
</g>
<!-- Node8&#45;&gt;Node12 -->
<g id="edge12" class="edge">
<title>Node8&#45;&gt;Node12</title>
<path fill="none" stroke="#63b8ff" d="M170.79,-54.98C144.05,-46.13 101.97,-32.19 72.05,-22.28"/>
<polygon fill="#63b8ff" stroke="#63b8ff" points="73,-18.9 62.41,-19.08 70.8,-25.55 73,-18.9"/>
</g>
<!-- Node13 -->
<g id="node13" class="node">
<title>Node13</title>
<g id="a_node13"><a xlink:title=" ">
<polygon fill="#e0e0e0" stroke="#999999" points="302,-19 233,-19 233,0 302,0 302,-19"/>
<text text-anchor="middle" x="267.5" y="-7" font-family="Helvetica,sans-Serif" font-size="10.00">type_traits</text>
</a>
</g>
</g>
<!-- Node8&#45;&gt;Node13 -->
<g id="edge13" class="edge">
<title>Node8&#45;&gt;Node13</title>
<path fill="none" stroke="#63b8ff" d="M207.91,-54.98C218.61,-47 234.84,-34.88 247.66,-25.31"/>
<polygon fill="#63b8ff" stroke="#63b8ff" points="249.97,-27.96 255.89,-19.17 245.78,-22.35 249.97,-27.96"/>
</g>
<!-- Node22&#45;&gt;Node8 -->
<g id="edge27" class="edge">
<title>Node22&#45;&gt;Node8</title>
<path fill="none" stroke="#63b8ff" d="M333.38,-230.98C331.49,-214.16 326.5,-185.66 313.5,-165 289.75,-127.24 247.09,-96.34 220.36,-79.46"/>
<polygon fill="#63b8ff" stroke="#63b8ff" points="221.98,-76.35 211.63,-74.09 218.31,-82.31 221.98,-76.35"/>
</g>
<!-- Node23 -->
<g id="node23" class="node">
<title>Node23</title>
<g id="a_node23"><a xlink:href="serialised__entry_8h.html" target="_top" xlink:title=" ">
<polygon fill="white" stroke="#666666" points="842,-195 737,-195 737,-165 842,-165 842,-195"/>
<text text-anchor="start" x="745" y="-183" font-family="Helvetica,sans-Serif" font-size="10.00">ccf/kv/serialisers</text>
<text text-anchor="middle" x="789.5" y="-172" font-family="Helvetica,sans-Serif" font-size="10.00">/serialised_entry.h</text>
</a>
</g>
</g>
<!-- Node22&#45;&gt;Node23 -->
<g id="edge28" class="edge">
<title>Node22&#45;&gt;Node23</title>
<path fill="none" stroke="#63b8ff" d="M384.14,-239.21C456.5,-230.59 595.11,-213.42 712.5,-195 717.2,-194.26 722.06,-193.46 726.94,-192.64"/>
<polygon fill="#63b8ff" stroke="#63b8ff" points="727.7,-196.06 736.95,-190.9 726.5,-189.16 727.7,-196.06"/>
</g>
<!-- Node24 -->
<g id="node24" class="node">
<title>Node24</title>
<g id="a_node24"><a xlink:href="byte__vector_8h.html" target="_top" xlink:title=" ">
<polygon fill="white" stroke="#666666" points="844.5,-129 744.5,-129 744.5,-110 844.5,-110 844.5,-129"/>
<text text-anchor="middle" x="794.5" y="-117" font-family="Helvetica,sans-Serif" font-size="10.00">ccf/byte_vector.h</text>
</a>
</g>
</g>
<!-- Node23&#45;&gt;Node24 -->
<g id="edge29" class="edge">
<title>Node23&#45;&gt;Node24</title>
<path fill="none" stroke="#63b8ff" d="M790.71,-164.84C791.36,-157.21 792.17,-147.7 792.88,-139.45"/>
<polygon fill="#63b8ff" stroke="#63b8ff" points="796.39,-139.53 793.75,-129.27 789.41,-138.93 796.39,-139.53"/>
</g>
<!-- Node24&#45;&gt;Node15 -->
<g id="edge34" class="edge">
<title>Node24&#45;&gt;Node15</title>
<path fill="none" stroke="#63b8ff" d="M747.42,-109.98C693.67,-100.26 606.09,-84.42 551.24,-74.5"/>
<polygon fill="#63b8ff" stroke="#63b8ff" points="551.86,-71.05 541.4,-72.72 550.62,-77.94 551.86,-71.05"/>
</g>
<!-- Node25 -->
<g id="node25" class="node">
<title>Node25</title>
<g id="a_node25"><a xlink:href="siphash_8h.html" target="_top" xlink:title=" ">
<polygon fill="white" stroke="#666666" points="988,-74 893,-74 893,-55 988,-55 988,-74"/>
<text text-anchor="middle" x="940.5" y="-62" font-family="Helvetica,sans-Serif" font-size="10.00">ccf/ds/siphash.h</text>
</a>
</g>
</g>
<!-- Node24&#45;&gt;Node25 -->
<g id="edge30" class="edge">
<title>Node24&#45;&gt;Node25</title>
<path fill="none" stroke="#63b8ff" d="M817.96,-109.98C842.08,-101.23 879.87,-87.51 907.1,-77.62"/>
<polygon fill="#63b8ff" stroke="#63b8ff" points="908.41,-80.87 916.62,-74.17 906.02,-74.29 908.41,-80.87"/>
</g>
<!-- Node28 -->
<g id="node28" class="node">
<title>Node28</title>
<g id="a_node28"><a xlink:title=" ">
<polygon fill="#e0e0e0" stroke="#999999" points="875,-74 726,-74 726,-55 875,-55 875,-74"/>
<text text-anchor="middle" x="800.5" y="-62" font-family="Helvetica,sans-Serif" font-size="10.00">small_vector/SmallVector.h</text>
</a>
</g>
</g>
<!-- Node24&#45;&gt;Node28 -->
<g id="edge35" class="edge">
<title>Node24&#45;&gt;Node28</title>
<path fill="none" stroke="#63b8ff" d="M795.49,-109.75C796.28,-102.8 797.4,-92.85 798.39,-84.13"/>
<polygon fill="#63b8ff" stroke="#63b8ff" points="801.88,-84.42 799.53,-74.09 794.92,-83.63 801.88,-84.42"/>
</g>
<!-- Node25&#45;&gt;Node6 -->
<g id="edge33" class="edge">
<title>Node25&#45;&gt;Node6</title>
<path fill="none" stroke="#63b8ff" d="M894.87,-54.98C837.66,-44.31 740.94,-26.26 690.07,-16.76"/>
<polygon fill="#63b8ff" stroke="#63b8ff" points="690.71,-13.32 680.24,-14.93 689.42,-20.2 690.71,-13.32"/>
</g>
<!-- Node26 -->
<g id="node26" class="node">
<title>Node26</title>
<g id="a_node26"><a xlink:title=" ">
<polygon fill="#e0e0e0" stroke="#999999" points="1002,-19 949,-19 949,0 1002,0 1002,-19"/>
<text text-anchor="middle" x="975.5" y="-7" font-family="Helvetica,sans-Serif" font-size="10.00">cstddef</text>
</a>
</g>
</g>
<!-- Node25&#45;&gt;Node26 -->
<g id="edge31" class="edge">
<title>Node25&#45;&gt;Node26</title>
<path fill="none" stroke="#63b8ff" d="M946.28,-54.75C951.12,-47.42 958.18,-36.73 964.14,-27.7"/>
<polygon fill="#63b8ff" stroke="#63b8ff" points="967.24,-29.36 969.83,-19.09 961.4,-25.5 967.24,-29.36"/>
</g>
<!-- Node27 -->
<g id="node27" class="node">
<title>Node27</title>
<g id="a_node27"><a xlink:title=" ">
<polygon fill="#e0e0e0" stroke="#999999" points="930.5,-19 880.5,-19 880.5,0 930.5,0 930.5,-19"/>
<text text-anchor="middle" x="905.5" y="-7" font-family="Helvetica,sans-Serif" font-size="10.00">cstdint</text>
</a>
</g>
</g>
<!-- Node25&#45;&gt;Node27 -->
<g id="edge32" class="edge">
<title>Node25&#45;&gt;Node27</title>
<path fill="none" stroke="#63b8ff" d="M934.72,-54.75C929.88,-47.42 922.82,-36.73 916.86,-27.7"/>
<polygon fill="#63b8ff" stroke="#63b8ff" points="919.6,-25.5 911.17,-19.09 913.76,-29.36 919.6,-25.5"/>
</g>
</g>
</svg>
        <g id="navigator" transform="translate(0 0)" fill="#404254">
                <rect fill="#f2f5e9" fill-opacity="0.5" stroke="#606060" stroke-width=".5" x="0" y="0" width="60" height="60"/>
                <use id="zoomplus" xlink:href="#zoomPlus" x="17" y="9" onmousedown="handleZoom(evt,'in')"/>
                <use id="zoomminus" xlink:href="#zoomMin" x="42" y="9" onmousedown="handleZoom(evt,'out')"/>
                <use id="reset" xlink:href="#resetDef" x="30" y="36" onmousedown="handleReset()"/>
                <g id="arrowUp" xlink:href="#dirArrow" transform="translate(30 24)" onmousedown="handlePan(0,-1)">
                  <use xlink:href="#rim" fill="#404040">
                        <set attributeName="fill" to="#808080" begin="arrowUp.mouseover" end="arrowUp.mouseout"/>
                  </use>
                  <path fill="none" stroke="white" stroke-width="1.5" d="M0,-3.0v7 M-2.5,-0.5L0,-3.0L2.5,-0.5"/>
                </g>
                <g id="arrowRight" xlink:href="#dirArrow" transform="rotate(90) translate(36 -43)" onmousedown="handlePan(1,0)">
                  <use xlink:href="#rim" fill="#404040">
                        <set attributeName="fill" to="#808080" begin="arrowRight.mouseover" end="arrowRight.mouseout"/>
                  </use>
                  <path fill="none" stroke="white" stroke-width="1.5" d="M0,-3.0v7 M-2.5,-0.5L0,-3.0L2.5,-0.5"/>
                </g>
                <g id="arrowDown" xlink:href="#dirArrow" transform="rotate(180) translate(-30 -48)" onmousedown="handlePan(0,1)">
                  <use xlink:href="#rim" fill="#404040">
                        <set attributeName="fill" to="#808080" begin="arrowDown.mouseover" end="arrowDown.mouseout"/>
                  </use>
                  <path fill="none" stroke="white" stroke-width="1.5" d="M0,-3.0v7 M-2.5,-0.5L0,-3.0L2.5,-0.5"/>
                </g>
                <g id="arrowLeft" xlink:href="#dirArrow" transform="rotate(270) translate(-36 17)" onmousedown="handlePan(-1,0)">
                  <use xlink:href="#rim" fill="#404040">
                        <set attributeName="fill" to="#808080" begin="arrowLeft.mouseover" end="arrowLeft.mouseout"/>
                  </use>
                  <path fill="none" stroke="white" stroke-width="1.5" d="M0,-3.0v7 M-2.5,-0.5L0,-3.0L2.5,-0.5"/>
                </g>
        </g>
        <svg viewBox="0 0 15 15" width="100%" height="30px" preserveAspectRatio="xMaxYMin meet">
         <g id="arrow_out" transform="scale(0.3 0.3)">
          <a xlink:href="blit__serialiser__pem_8h__incl_org.svg" target="_base">
           <rect id="button" ry="5" rx="5" y="6" x="6" height="38" width="38"
                fill="#f2f5e9" fill-opacity="0.5" stroke="#606060" stroke-width="1.0"/>
           <path id="arrow"
             d="M 11.500037,31.436501 C 11.940474,20.09759 22.043105,11.32322 32.158766,21.979434 L 37.068811,17.246167 C 37.068811,17.246167 37.088388,32 37.088388,32 L 22.160133,31.978069 C 22.160133,31.978069 26.997745,27.140456 26.997745,27.140456 C 18.528582,18.264221 13.291696,25.230495 11.500037,31.436501 z"
             style="fill:#404040;"/>
          </a>
         </g>
        </svg>
</svg>
