<?xml version="1.0" encoding="UTF-8" standalone="no"?>
<!DOCTYPE svg PUBLIC "-//W3C//DTD SVG 1.1//EN"
 "http://www.w3.org/Graphics/SVG/1.1/DTD/svg11.dtd">
<!-- Generated by graphviz version 2.43.0 (0)
 -->
<!-- Title: include/ccf/byte_vector.h Pages: 1 -->
<svg width="416pt" height="137pt"
 viewBox="0.00 0.00 416.00 137.00" xmlns="http://www.w3.org/2000/svg" xmlns:xlink="http://www.w3.org/1999/xlink">
<g id="graph0" class="graph" transform="scale(1 1) rotate(0) translate(4 133)">
<title>include/ccf/byte_vector.h</title>
<!-- Node1 -->
<g id="node1" class="node">
<title>Node1</title>
<g id="a_node1"><a xlink:title=" ">
<polygon fill="#999999" stroke="#666666" points="270.5,-129 132.5,-129 132.5,-110 270.5,-110 270.5,-129"/>
<text text-anchor="middle" x="201.5" y="-117" font-family="Helvetica,sans-Serif" font-size="10.00">include/ccf/byte_vector.h</text>
</a>
</g>
</g>
<!-- Node2 -->
<g id="node2" class="node">
<title>Node2</title>
<g id="a_node2"><a xlink:href="siphash_8h.html" target="_top" xlink:title=" ">
<polygon fill="white" stroke="#666666" points="144,-74 49,-74 49,-55 144,-55 144,-74"/>
<text text-anchor="middle" x="96.5" y="-62" font-family="Helvetica,sans-Serif" font-size="10.00">ccf/ds/siphash.h</text>
</a>
</g>
</g>
<!-- Node1&#45;&gt;Node2 -->
<g id="edge1" class="edge">
<title>Node1&#45;&gt;Node2</title>
<path fill="none" stroke="#63b8ff" d="M184.63,-109.98C167.89,-101.54 142,-88.47 122.61,-78.68"/>
<polygon fill="#63b8ff" stroke="#63b8ff" points="124.18,-75.55 113.68,-74.17 121.03,-81.8 124.18,-75.55"/>
</g>
<!-- Node6 -->
<g id="node6" class="node">
<title>Node6</title>
<g id="a_node6"><a xlink:title=" ">
<polygon fill="#e0e0e0" stroke="#999999" points="241,-74 162,-74 162,-55 241,-55 241,-74"/>
<text text-anchor="middle" x="201.5" y="-62" font-family="Helvetica,sans-Serif" font-size="10.00">fmt/format.h</text>
</a>
</g>
</g>
<!-- Node1&#45;&gt;Node6 -->
<g id="edge5" class="edge">
<title>Node1&#45;&gt;Node6</title>
<path fill="none" stroke="#63b8ff" d="M201.5,-109.75C201.5,-102.8 201.5,-92.85 201.5,-84.13"/>
<polygon fill="#63b8ff" stroke="#63b8ff" points="205,-84.09 201.5,-74.09 198,-84.09 205,-84.09"/>
</g>
<!-- Node7 -->
<g id="node7" class="node">
<title>Node7</title>
<g id="a_node7"><a xlink:title=" ">
<polygon fill="#e0e0e0" stroke="#999999" points="408,-74 259,-74 259,-55 408,-55 408,-74"/>
<text text-anchor="middle" x="333.5" y="-62" font-family="Helvetica,sans-Serif" font-size="10.00">small_vector/SmallVector.h</text>
</a>
</g>
</g>
<!-- Node1&#45;&gt;Node7 -->
<g id="edge6" class="edge">
<title>Node1&#45;&gt;Node7</title>
<path fill="none" stroke="#63b8ff" d="M222.71,-109.98C244.23,-101.34 277.78,-87.87 302.33,-78.02"/>
<polygon fill="#63b8ff" stroke="#63b8ff" points="303.93,-81.14 311.91,-74.17 301.32,-74.65 303.93,-81.14"/>
</g>
<!-- Node3 -->
<g id="node3" class="node">
<title>Node3</title>
<g id="a_node3"><a xlink:title=" ">
<polygon fill="#e0e0e0" stroke="#999999" points="53,-19 0,-19 0,0 53,0 53,-19"/>
<text text-anchor="middle" x="26.5" y="-7" font-family="Helvetica,sans-Serif" font-size="10.00">cstddef</text>
</a>
</g>
</g>
<!-- Node2&#45;&gt;Node3 -->
<g id="edge2" class="edge">
<title>Node2&#45;&gt;Node3</title>
<path fill="none" stroke="#63b8ff" d="M85.25,-54.98C74.7,-47 58.7,-34.88 46.06,-25.31"/>
<polygon fill="#63b8ff" stroke="#63b8ff" points="48.04,-22.42 37.95,-19.17 43.81,-28 48.04,-22.42"/>
</g>
<!-- Node4 -->
<g id="node4" class="node">
<title>Node4</title>
<g id="a_node4"><a xlink:title=" ">
<polygon fill="#e0e0e0" stroke="#999999" points="121.5,-19 71.5,-19 71.5,0 121.5,0 121.5,-19"/>
<text text-anchor="middle" x="96.5" y="-7" font-family="Helvetica,sans-Serif" font-size="10.00">cstdint</text>
</a>
</g>
</g>
<!-- Node2&#45;&gt;Node4 -->
<g id="edge3" class="edge">
<title>Node2&#45;&gt;Node4</title>
<path fill="none" stroke="#63b8ff" d="M96.5,-54.75C96.5,-47.8 96.5,-37.85 96.5,-29.13"/>
<polygon fill="#63b8ff" stroke="#63b8ff" points="100,-29.09 96.5,-19.09 93,-29.09 100,-29.09"/>
</g>
<!-- Node5 -->
<g id="node5" class="node">
<title>Node5</title>
<g id="a_node5"><a xlink:title=" ">
<polygon fill="#e0e0e0" stroke="#999999" points="187,-19 140,-19 140,0 187,0 187,-19"/>
<text text-anchor="middle" x="163.5" y="-7" font-family="Helvetica,sans-Serif" font-size="10.00">vector</text>
</a>
</g>
</g>
<!-- Node2&#45;&gt;Node5 -->
<g id="edge4" class="edge">
<title>Node2&#45;&gt;Node5</title>
<path fill="none" stroke="#63b8ff" d="M107.26,-54.98C117.27,-47.07 132.39,-35.11 144.43,-25.58"/>
<polygon fill="#63b8ff" stroke="#63b8ff" points="146.87,-28.12 152.54,-19.17 142.53,-22.63 146.87,-28.12"/>
</g>
</g>
</svg>
