<?xml version="1.0" encoding="UTF-8" standalone="no"?>
<!DOCTYPE svg PUBLIC "-//W3C//DTD SVG 1.1//EN"
 "http://www.w3.org/Graphics/SVG/1.1/DTD/svg11.dtd">
<!-- Generated by graphviz version 2.43.0 (0)
 -->
<!-- Title: include/ccf/claims_digest.h Pages: 1 -->
<svg width="1421pt" height="566pt"
 viewBox="0.00 0.00 1421.20 566.00" xmlns="http://www.w3.org/2000/svg" xmlns:xlink="http://www.w3.org/1999/xlink">
<g id="graph0" class="graph" transform="scale(1 1) rotate(0) translate(4 562)">
<title>include/ccf/claims_digest.h</title>
<!-- Node1 -->
<g id="node1" class="node">
<title>Node1</title>
<g id="a_node1"><a xlink:title=" ">
<polygon fill="#999999" stroke="#666666" points="1283.2,-558 1179.2,-558 1179.2,-528 1283.2,-528 1283.2,-558"/>
<text text-anchor="start" x="1187.2" y="-546" font-family="Helvetica,sans-Serif" font-size="10.00">include/ccf/claims</text>
<text text-anchor="middle" x="1231.2" y="-535" font-family="Helvetica,sans-Serif" font-size="10.00">_digest.h</text>
</a>
</g>
</g>
<!-- Node2 -->
<g id="node2" class="node">
<title>Node2</title>
<g id="a_node2"><a xlink:href="sha256__hash_8h.html" target="_top" xlink:title=" ">
<polygon fill="white" stroke="#666666" points="1301.2,-492 1161.2,-492 1161.2,-473 1301.2,-473 1301.2,-492"/>
<text text-anchor="middle" x="1231.2" y="-480" font-family="Helvetica,sans-Serif" font-size="10.00">ccf/crypto/sha256_hash.h</text>
</a>
</g>
</g>
<!-- Node1&#45;&gt;Node2 -->
<g id="edge1" class="edge">
<title>Node1&#45;&gt;Node2</title>
<path fill="none" stroke="#63b8ff" d="M1231.2,-527.84C1231.2,-520.21 1231.2,-510.7 1231.2,-502.45"/>
<polygon fill="#63b8ff" stroke="#63b8ff" points="1234.7,-502.27 1231.2,-492.27 1227.7,-502.27 1234.7,-502.27"/>
</g>
<!-- Node3 -->
<g id="node3" class="node">
<title>Node3</title>
<g id="a_node3"><a xlink:href="json_8h.html" target="_top" xlink:title=" ">
<polygon fill="white" stroke="#666666" points="1202.7,-382 1125.7,-382 1125.7,-363 1202.7,-363 1202.7,-382"/>
<text text-anchor="middle" x="1164.2" y="-370" font-family="Helvetica,sans-Serif" font-size="10.00">ccf/ds/json.h</text>
</a>
</g>
</g>
<!-- Node2&#45;&gt;Node3 -->
<g id="edge2" class="edge">
<title>Node2&#45;&gt;Node3</title>
<path fill="none" stroke="#63b8ff" d="M1225.71,-472.66C1214.62,-454.77 1189.32,-414 1174.86,-390.69"/>
<polygon fill="#63b8ff" stroke="#63b8ff" points="1177.81,-388.81 1169.57,-382.16 1171.86,-392.5 1177.81,-388.81"/>
</g>
<!-- Node10 -->
<g id="node10" class="node">
<title>Node10</title>
<g id="a_node10"><a xlink:title=" ">
<polygon fill="#e0e0e0" stroke="#999999" points="1241.2,-189.5 1199.2,-189.5 1199.2,-170.5 1241.2,-170.5 1241.2,-189.5"/>
<text text-anchor="middle" x="1220.2" y="-177.5" font-family="Helvetica,sans-Serif" font-size="10.00">array</text>
</a>
</g>
</g>
<!-- Node2&#45;&gt;Node10 -->
<g id="edge73" class="edge">
<title>Node2&#45;&gt;Node10</title>
<path fill="none" stroke="#63b8ff" d="M1231.2,-472.82C1231.2,-454.48 1231.2,-410.44 1231.2,-373.5 1231.2,-373.5 1231.2,-373.5 1231.2,-311 1231.2,-271.32 1226.05,-225.08 1222.79,-199.83"/>
<polygon fill="#63b8ff" stroke="#63b8ff" points="1226.25,-199.26 1221.46,-189.81 1219.31,-200.18 1226.25,-199.26"/>
</g>
<!-- Node15 -->
<g id="node15" class="node">
<title>Node15</title>
<g id="a_node15"><a xlink:title=" ">
<polygon fill="#e0e0e0" stroke="#999999" points="1327.7,-74 1248.7,-74 1248.7,-55 1327.7,-55 1327.7,-74"/>
<text text-anchor="middle" x="1288.2" y="-62" font-family="Helvetica,sans-Serif" font-size="10.00">fmt/format.h</text>
</a>
</g>
</g>
<!-- Node2&#45;&gt;Node15 -->
<g id="edge75" class="edge">
<title>Node2&#45;&gt;Node15</title>
<path fill="none" stroke="#63b8ff" d="M1252.37,-472.95C1285.34,-458.06 1345.2,-424.07 1345.2,-373.5 1345.2,-373.5 1345.2,-373.5 1345.2,-179 1345.2,-141.18 1319.61,-103.1 1302.73,-82.07"/>
<polygon fill="#63b8ff" stroke="#63b8ff" points="1305.22,-79.59 1296.12,-74.16 1299.84,-84.08 1305.22,-79.59"/>
</g>
<!-- Node18 -->
<g id="node18" class="node">
<title>Node18</title>
<g id="a_node18"><a xlink:href="service_2map_8h.html" target="_top" xlink:title=" ">
<polygon fill="white" stroke="#666666" points="622.7,-437 519.7,-437 519.7,-418 622.7,-418 622.7,-437"/>
<text text-anchor="middle" x="571.2" y="-425" font-family="Helvetica,sans-Serif" font-size="10.00">ccf/service/map.h</text>
</a>
</g>
</g>
<!-- Node2&#45;&gt;Node18 -->
<g id="edge20" class="edge">
<title>Node2&#45;&gt;Node18</title>
<path fill="none" stroke="#63b8ff" d="M1161.19,-475.88C1031.47,-465.46 755.79,-443.32 632.73,-433.44"/>
<polygon fill="#63b8ff" stroke="#63b8ff" points="632.97,-429.95 622.72,-432.64 632.41,-436.93 632.97,-429.95"/>
</g>
<!-- Node43 -->
<g id="node43" class="node">
<title>Node43</title>
<g id="a_node43"><a xlink:title=" ">
<polygon fill="#e0e0e0" stroke="#999999" points="1413.2,-437 1373.2,-437 1373.2,-418 1413.2,-418 1413.2,-437"/>
<text text-anchor="middle" x="1393.2" y="-425" font-family="Helvetica,sans-Serif" font-size="10.00">span</text>
</a>
</g>
</g>
<!-- Node2&#45;&gt;Node43 -->
<g id="edge74" class="edge">
<title>Node2&#45;&gt;Node43</title>
<path fill="none" stroke="#63b8ff" d="M1257.22,-472.98C1286.15,-463.52 1332.79,-448.26 1363.22,-438.31"/>
<polygon fill="#63b8ff" stroke="#63b8ff" points="1364.46,-441.58 1372.87,-435.15 1362.28,-434.93 1364.46,-441.58"/>
</g>
<!-- Node4 -->
<g id="node4" class="node">
<title>Node4</title>
<g id="a_node4"><a xlink:href="include_2ccf_2crypto_2base64_8h.html" target="_top" xlink:title=" ">
<polygon fill="white" stroke="#666666" points="901.2,-255.5 789.2,-255.5 789.2,-236.5 901.2,-236.5 901.2,-255.5"/>
<text text-anchor="middle" x="845.2" y="-243.5" font-family="Helvetica,sans-Serif" font-size="10.00">ccf/crypto/base64.h</text>
</a>
</g>
</g>
<!-- Node3&#45;&gt;Node4 -->
<g id="edge3" class="edge">
<title>Node3&#45;&gt;Node4</title>
<path fill="none" stroke="#63b8ff" d="M1168.9,-362.94C1176.56,-347.72 1189.33,-315.78 1173.2,-297 1164.72,-287.13 1004.84,-266.29 911.49,-254.88"/>
<polygon fill="#63b8ff" stroke="#63b8ff" points="911.91,-251.4 901.56,-253.67 911.06,-258.35 911.91,-251.4"/>
</g>
<!-- Node7 -->
<g id="node7" class="node">
<title>Node7</title>
<g id="a_node7"><a xlink:href="include_2ccf_2ds_2json__schema_8h.html" target="_top" xlink:title=" ">
<polygon fill="white" stroke="#666666" points="1164.7,-321.5 1043.7,-321.5 1043.7,-302.5 1164.7,-302.5 1164.7,-321.5"/>
<text text-anchor="middle" x="1104.2" y="-309.5" font-family="Helvetica,sans-Serif" font-size="10.00">ccf/ds/json_schema.h</text>
</a>
</g>
</g>
<!-- Node3&#45;&gt;Node7 -->
<g id="edge6" class="edge">
<title>Node3&#45;&gt;Node7</title>
<path fill="none" stroke="#63b8ff" d="M1155.34,-362.87C1146.21,-353.97 1131.77,-339.89 1120.56,-328.95"/>
<polygon fill="#63b8ff" stroke="#63b8ff" points="1122.69,-326.14 1113.09,-321.67 1117.8,-331.15 1122.69,-326.14"/>
</g>
<!-- Node3&#45;&gt;Node15 -->
<g id="edge18" class="edge">
<title>Node3&#45;&gt;Node15</title>
<path fill="none" stroke="#63b8ff" d="M1189.1,-362.91C1230.07,-347.02 1307.2,-308.88 1307.2,-247 1307.2,-247 1307.2,-247 1307.2,-179 1307.2,-145.16 1298.88,-106.41 1293.25,-84.07"/>
<polygon fill="#63b8ff" stroke="#63b8ff" points="1296.6,-83.03 1290.68,-74.25 1289.83,-84.81 1296.6,-83.03"/>
</g>
<!-- Node17 -->
<g id="node17" class="node">
<title>Node17</title>
<g id="a_node17"><a xlink:title=" ">
<polygon fill="#e0e0e0" stroke="#999999" points="1025.2,-321.5 969.2,-321.5 969.2,-302.5 1025.2,-302.5 1025.2,-321.5"/>
<text text-anchor="middle" x="997.2" y="-309.5" font-family="Helvetica,sans-Serif" font-size="10.00">sstream</text>
</a>
</g>
</g>
<!-- Node3&#45;&gt;Node17 -->
<g id="edge19" class="edge">
<title>Node3&#45;&gt;Node17</title>
<path fill="none" stroke="#63b8ff" d="M1138.21,-362.88C1111.91,-354.08 1070.1,-339.94 1034.2,-327 1032.55,-326.41 1030.87,-325.8 1029.17,-325.17"/>
<polygon fill="#63b8ff" stroke="#63b8ff" points="1030.05,-321.76 1019.46,-321.56 1027.61,-328.32 1030.05,-321.76"/>
</g>
<!-- Node5 -->
<g id="node5" class="node">
<title>Node5</title>
<g id="a_node5"><a xlink:title=" ">
<polygon fill="#e0e0e0" stroke="#999999" points="776.2,-189.5 732.2,-189.5 732.2,-170.5 776.2,-170.5 776.2,-189.5"/>
<text text-anchor="middle" x="754.2" y="-177.5" font-family="Helvetica,sans-Serif" font-size="10.00">string</text>
</a>
</g>
</g>
<!-- Node4&#45;&gt;Node5 -->
<g id="edge4" class="edge">
<title>Node4&#45;&gt;Node5</title>
<path fill="none" stroke="#63b8ff" d="M832.92,-236.37C818.13,-225.97 793.04,-208.32 775.16,-195.75"/>
<polygon fill="#63b8ff" stroke="#63b8ff" points="776.76,-192.59 766.56,-189.7 772.73,-198.31 776.76,-192.59"/>
</g>
<!-- Node6 -->
<g id="node6" class="node">
<title>Node6</title>
<g id="a_node6"><a xlink:title=" ">
<polygon fill="#e0e0e0" stroke="#999999" points="827.7,-19 780.7,-19 780.7,0 827.7,0 827.7,-19"/>
<text text-anchor="middle" x="804.2" y="-7" font-family="Helvetica,sans-Serif" font-size="10.00">vector</text>
</a>
</g>
</g>
<!-- Node4&#45;&gt;Node6 -->
<g id="edge5" class="edge">
<title>Node4&#45;&gt;Node6</title>
<path fill="none" stroke="#63b8ff" d="M840.44,-236.45C835.28,-226.72 827.22,-210.22 823.2,-195 807.58,-135.96 804.67,-63.15 804.22,-29.36"/>
<polygon fill="#63b8ff" stroke="#63b8ff" points="807.71,-29.1 804.14,-19.13 800.71,-29.15 807.71,-29.1"/>
</g>
<!-- Node8 -->
<g id="node8" class="node">
<title>Node8</title>
<g id="a_node8"><a xlink:href="nonstd_8h.html" target="_top" xlink:title=" ">
<polygon fill="white" stroke="#666666" points="1088.2,-255.5 998.2,-255.5 998.2,-236.5 1088.2,-236.5 1088.2,-255.5"/>
<text text-anchor="middle" x="1043.2" y="-243.5" font-family="Helvetica,sans-Serif" font-size="10.00">ccf/ds/nonstd.h</text>
</a>
</g>
</g>
<!-- Node7&#45;&gt;Node8 -->
<g id="edge7" class="edge">
<title>Node7&#45;&gt;Node8</title>
<path fill="none" stroke="#63b8ff" d="M1095.97,-302.37C1086.47,-292.4 1070.64,-275.79 1058.79,-263.36"/>
<polygon fill="#63b8ff" stroke="#63b8ff" points="1061.12,-260.73 1051.68,-255.91 1056.05,-265.56 1061.12,-260.73"/>
</g>
<!-- Node14 -->
<g id="node14" class="node">
<title>Node14</title>
<g id="a_node14"><a xlink:title=" ">
<polygon fill="#e0e0e0" stroke="#999999" points="628.2,-189.5 572.2,-189.5 572.2,-170.5 628.2,-170.5 628.2,-189.5"/>
<text text-anchor="middle" x="600.2" y="-177.5" font-family="Helvetica,sans-Serif" font-size="10.00">optional</text>
</a>
</g>
</g>
<!-- Node7&#45;&gt;Node14 -->
<g id="edge15" class="edge">
<title>Node7&#45;&gt;Node14</title>
<path fill="none" stroke="#63b8ff" d="M1063.55,-302.47C1053.95,-300.56 1043.72,-298.63 1034.2,-297 921.8,-277.81 889.79,-292.46 780.2,-261 749.78,-252.27 669.26,-214.35 626.98,-194.01"/>
<polygon fill="#63b8ff" stroke="#63b8ff" points="628.36,-190.79 617.84,-189.6 625.32,-197.09 628.36,-190.79"/>
</g>
<!-- Node7&#45;&gt;Node15 -->
<g id="edge16" class="edge">
<title>Node7&#45;&gt;Node15</title>
<path fill="none" stroke="#63b8ff" d="M1120.98,-302.28C1151.39,-285.62 1215.67,-246.3 1250.2,-195 1273.56,-160.29 1282.82,-110.99 1286.28,-84.35"/>
<polygon fill="#63b8ff" stroke="#63b8ff" points="1289.79,-84.46 1287.47,-74.13 1282.84,-83.66 1289.79,-84.46"/>
</g>
<!-- Node16 -->
<g id="node16" class="node">
<title>Node16</title>
<g id="a_node16"><a xlink:title=" ">
<polygon fill="#e0e0e0" stroke="#999999" points="695.2,-255.5 585.2,-255.5 585.2,-236.5 695.2,-236.5 695.2,-255.5"/>
<text text-anchor="middle" x="640.2" y="-243.5" font-family="Helvetica,sans-Serif" font-size="10.00">nlohmann/json.hpp</text>
</a>
</g>
</g>
<!-- Node7&#45;&gt;Node16 -->
<g id="edge17" class="edge">
<title>Node7&#45;&gt;Node16</title>
<path fill="none" stroke="#63b8ff" d="M1064.69,-302.47C1054.77,-300.5 1044.12,-298.54 1034.2,-297 890.58,-274.73 852.78,-283.47 709.2,-261 702.78,-260 696.05,-258.8 689.42,-257.55"/>
<polygon fill="#63b8ff" stroke="#63b8ff" points="689.62,-254.02 679.13,-255.54 688.27,-260.89 689.62,-254.02"/>
</g>
<!-- Node8&#45;&gt;Node5 -->
<g id="edge11" class="edge">
<title>Node8&#45;&gt;Node5</title>
<path fill="none" stroke="#63b8ff" d="M1004.52,-236.44C946.99,-223.69 839.91,-199.98 786.38,-188.13"/>
<polygon fill="#63b8ff" stroke="#63b8ff" points="786.95,-184.67 776.43,-185.92 785.43,-191.5 786.95,-184.67"/>
</g>
<!-- Node8&#45;&gt;Node6 -->
<g id="edge14" class="edge">
<title>Node8&#45;&gt;Node6</title>
<path fill="none" stroke="#63b8ff" d="M1087.34,-236.47C1110.59,-229.49 1137.12,-217.02 1151.2,-195 1158.38,-183.76 1158.46,-176.18 1151.2,-165 1079.82,-55.09 910.16,-22.72 837.81,-13.74"/>
<polygon fill="#63b8ff" stroke="#63b8ff" points="838.21,-10.26 827.87,-12.57 837.39,-17.21 838.21,-10.26"/>
</g>
<!-- Node9 -->
<g id="node9" class="node">
<title>Node9</title>
<g id="a_node9"><a xlink:title=" ">
<polygon fill="#e0e0e0" stroke="#999999" points="1075.2,-189.5 1011.2,-189.5 1011.2,-170.5 1075.2,-170.5 1075.2,-189.5"/>
<text text-anchor="middle" x="1043.2" y="-177.5" font-family="Helvetica,sans-Serif" font-size="10.00">algorithm</text>
</a>
</g>
</g>
<!-- Node8&#45;&gt;Node9 -->
<g id="edge8" class="edge">
<title>Node8&#45;&gt;Node9</title>
<path fill="none" stroke="#63b8ff" d="M1043.2,-236.37C1043.2,-227.16 1043.2,-212.29 1043.2,-200.27"/>
<polygon fill="#63b8ff" stroke="#63b8ff" points="1046.7,-199.91 1043.2,-189.91 1039.7,-199.91 1046.7,-199.91"/>
</g>
<!-- Node8&#45;&gt;Node10 -->
<g id="edge9" class="edge">
<title>Node8&#45;&gt;Node10</title>
<path fill="none" stroke="#63b8ff" d="M1068.45,-236.47C1096.93,-226.76 1144.58,-210.26 1185.2,-195 1186.61,-194.47 1188.06,-193.92 1189.52,-193.36"/>
<polygon fill="#63b8ff" stroke="#63b8ff" points="1191.12,-196.49 1199.15,-189.58 1188.56,-189.97 1191.12,-196.49"/>
</g>
<!-- Node11 -->
<g id="node11" class="node">
<title>Node11</title>
<g id="a_node11"><a xlink:title=" ">
<polygon fill="#e0e0e0" stroke="#999999" points="1142.7,-189.5 1093.7,-189.5 1093.7,-170.5 1142.7,-170.5 1142.7,-189.5"/>
<text text-anchor="middle" x="1118.2" y="-177.5" font-family="Helvetica,sans-Serif" font-size="10.00">cctype</text>
</a>
</g>
</g>
<!-- Node8&#45;&gt;Node11 -->
<g id="edge10" class="edge">
<title>Node8&#45;&gt;Node11</title>
<path fill="none" stroke="#63b8ff" d="M1053.31,-236.37C1065.21,-226.21 1085.2,-209.16 1099.85,-196.65"/>
<polygon fill="#63b8ff" stroke="#63b8ff" points="1102.42,-199.06 1107.76,-189.91 1097.88,-193.73 1102.42,-199.06"/>
</g>
<!-- Node12 -->
<g id="node12" class="node">
<title>Node12</title>
<g id="a_node12"><a xlink:title=" ">
<polygon fill="#e0e0e0" stroke="#999999" points="905.7,-189.5 832.7,-189.5 832.7,-170.5 905.7,-170.5 905.7,-189.5"/>
<text text-anchor="middle" x="869.2" y="-177.5" font-family="Helvetica,sans-Serif" font-size="10.00">string_view</text>
</a>
</g>
</g>
<!-- Node8&#45;&gt;Node12 -->
<g id="edge12" class="edge">
<title>Node8&#45;&gt;Node12</title>
<path fill="none" stroke="#63b8ff" d="M1019.73,-236.37C989.42,-225.22 936.49,-205.75 902.15,-193.12"/>
<polygon fill="#63b8ff" stroke="#63b8ff" points="903.16,-189.76 892.57,-189.6 900.74,-196.33 903.16,-189.76"/>
</g>
<!-- Node13 -->
<g id="node13" class="node">
<title>Node13</title>
<g id="a_node13"><a xlink:title=" ">
<polygon fill="#e0e0e0" stroke="#999999" points="992.7,-189.5 923.7,-189.5 923.7,-170.5 992.7,-170.5 992.7,-189.5"/>
<text text-anchor="middle" x="958.2" y="-177.5" font-family="Helvetica,sans-Serif" font-size="10.00">type_traits</text>
</a>
</g>
</g>
<!-- Node8&#45;&gt;Node13 -->
<g id="edge13" class="edge">
<title>Node8&#45;&gt;Node13</title>
<path fill="none" stroke="#63b8ff" d="M1031.73,-236.37C1017.92,-225.97 994.48,-208.32 977.78,-195.75"/>
<polygon fill="#63b8ff" stroke="#63b8ff" points="979.84,-192.92 969.75,-189.7 975.63,-198.51 979.84,-192.92"/>
</g>
<!-- Node19 -->
<g id="node19" class="node">
<title>Node19</title>
<g id="a_node19"><a xlink:href="kv_2map_8h.html" target="_top" xlink:title=" ">
<polygon fill="white" stroke="#666666" points="658.2,-382 578.2,-382 578.2,-363 658.2,-363 658.2,-382"/>
<text text-anchor="middle" x="618.2" y="-370" font-family="Helvetica,sans-Serif" font-size="10.00">ccf/kv/map.h</text>
</a>
</g>
</g>
<!-- Node18&#45;&gt;Node19 -->
<g id="edge21" class="edge">
<title>Node18&#45;&gt;Node19</title>
<path fill="none" stroke="#63b8ff" d="M578.96,-417.75C585.66,-410.18 595.54,-399.05 603.7,-389.84"/>
<polygon fill="#63b8ff" stroke="#63b8ff" points="606.56,-391.89 610.58,-382.09 601.33,-387.25 606.56,-391.89"/>
</g>
<!-- Node38 -->
<g id="node38" class="node">
<title>Node38</title>
<g id="a_node38"><a xlink:href="set_8h.html" target="_top" xlink:title=" ">
<polygon fill="white" stroke="#666666" points="559.7,-382 486.7,-382 486.7,-363 559.7,-363 559.7,-382"/>
<text text-anchor="middle" x="523.2" y="-370" font-family="Helvetica,sans-Serif" font-size="10.00">ccf/kv/set.h</text>
</a>
</g>
</g>
<!-- Node18&#45;&gt;Node38 -->
<g id="edge54" class="edge">
<title>Node18&#45;&gt;Node38</title>
<path fill="none" stroke="#63b8ff" d="M563.27,-417.75C556.35,-410.11 546.13,-398.82 537.74,-389.56"/>
<polygon fill="#63b8ff" stroke="#63b8ff" points="540.28,-387.15 530.97,-382.09 535.09,-391.85 540.28,-387.15"/>
</g>
<!-- Node41 -->
<g id="node41" class="node">
<title>Node41</title>
<g id="a_node41"><a xlink:href="value_8h.html" target="_top" xlink:title=" ">
<polygon fill="white" stroke="#666666" points="468.7,-382 383.7,-382 383.7,-363 468.7,-363 468.7,-382"/>
<text text-anchor="middle" x="426.2" y="-370" font-family="Helvetica,sans-Serif" font-size="10.00">ccf/kv/value.h</text>
</a>
</g>
</g>
<!-- Node18&#45;&gt;Node41 -->
<g id="edge64" class="edge">
<title>Node18&#45;&gt;Node41</title>
<path fill="none" stroke="#63b8ff" d="M547.9,-417.98C523.94,-409.23 486.41,-395.51 459.36,-385.62"/>
<polygon fill="#63b8ff" stroke="#63b8ff" points="460.51,-382.32 449.92,-382.17 458.11,-388.89 460.51,-382.32"/>
</g>
<!-- Node20 -->
<g id="node20" class="node">
<title>Node20</title>
<g id="a_node20"><a xlink:href="get__name_8h.html" target="_top" xlink:title=" ">
<polygon fill="white" stroke="#666666" points="814.7,-321.5 707.7,-321.5 707.7,-302.5 814.7,-302.5 814.7,-321.5"/>
<text text-anchor="middle" x="761.2" y="-309.5" font-family="Helvetica,sans-Serif" font-size="10.00">ccf/kv/get_name.h</text>
</a>
</g>
</g>
<!-- Node19&#45;&gt;Node20 -->
<g id="edge22" class="edge">
<title>Node19&#45;&gt;Node20</title>
<path fill="none" stroke="#63b8ff" d="M638.99,-362.99C663.14,-353.12 703.18,-336.73 730.81,-325.43"/>
<polygon fill="#63b8ff" stroke="#63b8ff" points="732.45,-328.54 740.38,-321.52 729.8,-322.06 732.45,-328.54"/>
</g>
<!-- Node21 -->
<g id="node21" class="node">
<title>Node21</title>
<g id="a_node21"><a xlink:href="include_2ccf_2kv_2hooks_8h.html" target="_top" xlink:title=" ">
<polygon fill="white" stroke="#666666" points="101.7,-255.5 14.7,-255.5 14.7,-236.5 101.7,-236.5 101.7,-255.5"/>
<text text-anchor="middle" x="58.2" y="-243.5" font-family="Helvetica,sans-Serif" font-size="10.00">ccf/kv/hooks.h</text>
</a>
</g>
</g>
<!-- Node19&#45;&gt;Node21 -->
<g id="edge24" class="edge">
<title>Node19&#45;&gt;Node21</title>
<path fill="none" stroke="#63b8ff" d="M578.13,-364.34C574.77,-363.85 571.43,-363.39 568.2,-363 513.89,-356.41 118.84,-362.47 77.2,-327 59.73,-312.13 56.71,-284.42 56.87,-265.84"/>
<polygon fill="#63b8ff" stroke="#63b8ff" points="60.38,-265.78 57.29,-255.64 53.38,-265.49 60.38,-265.78"/>
</g>
<!-- Node25 -->
<g id="node25" class="node">
<title>Node25</title>
<g id="a_node25"><a xlink:href="map__handle_8h.html" target="_top" xlink:title=" ">
<polygon fill="white" stroke="#666666" points="951.2,-321.5 833.2,-321.5 833.2,-302.5 951.2,-302.5 951.2,-321.5"/>
<text text-anchor="middle" x="892.2" y="-309.5" font-family="Helvetica,sans-Serif" font-size="10.00">ccf/kv/map_handle.h</text>
</a>
</g>
</g>
<!-- Node19&#45;&gt;Node25 -->
<g id="edge28" class="edge">
<title>Node19&#45;&gt;Node25</title>
<path fill="none" stroke="#63b8ff" d="M658.04,-362.99C706.84,-352.57 789.53,-334.92 842.46,-323.62"/>
<polygon fill="#63b8ff" stroke="#63b8ff" points="843.26,-327.03 852.31,-321.52 841.8,-320.18 843.26,-327.03"/>
</g>
<!-- Node34 -->
<g id="node34" class="node">
<title>Node34</title>
<g id="a_node34"><a xlink:href="blit__serialiser_8h.html" target="_top" xlink:title=" ">
<polygon fill="white" stroke="#666666" points="689.7,-327 590.7,-327 590.7,-297 689.7,-297 689.7,-327"/>
<text text-anchor="start" x="598.7" y="-315" font-family="Helvetica,sans-Serif" font-size="10.00">ccf/kv/serialisers</text>
<text text-anchor="middle" x="640.2" y="-304" font-family="Helvetica,sans-Serif" font-size="10.00">/blit_serialiser.h</text>
</a>
</g>
</g>
<!-- Node19&#45;&gt;Node34 -->
<g id="edge43" class="edge">
<title>Node19&#45;&gt;Node34</title>
<path fill="none" stroke="#63b8ff" d="M621.44,-362.87C624.04,-355.96 627.81,-345.93 631.29,-336.67"/>
<polygon fill="#63b8ff" stroke="#63b8ff" points="634.64,-337.71 634.89,-327.11 628.09,-335.24 634.64,-337.71"/>
</g>
<!-- Node35 -->
<g id="node35" class="node">
<title>Node35</title>
<g id="a_node35"><a xlink:href="json__serialiser_8h.html" target="_top" xlink:title=" ">
<polygon fill="white" stroke="#666666" points="572.7,-327 473.7,-327 473.7,-297 572.7,-297 572.7,-327"/>
<text text-anchor="start" x="481.7" y="-315" font-family="Helvetica,sans-Serif" font-size="10.00">ccf/kv/serialisers</text>
<text text-anchor="middle" x="523.2" y="-304" font-family="Helvetica,sans-Serif" font-size="10.00">/json_serialiser.h</text>
</a>
</g>
</g>
<!-- Node19&#45;&gt;Node35 -->
<g id="edge46" class="edge">
<title>Node19&#45;&gt;Node35</title>
<path fill="none" stroke="#63b8ff" d="M604.18,-362.87C591.29,-354.93 571.7,-342.87 555.02,-332.6"/>
<polygon fill="#63b8ff" stroke="#63b8ff" points="556.47,-329.38 546.12,-327.11 552.8,-335.34 556.47,-329.38"/>
</g>
<!-- Node36 -->
<g id="node36" class="node">
<title>Node36</title>
<g id="a_node36"><a xlink:href="untyped_8h.html" target="_top" xlink:title=" ">
<polygon fill="white" stroke="#666666" points="326.2,-321.5 228.2,-321.5 228.2,-302.5 326.2,-302.5 326.2,-321.5"/>
<text text-anchor="middle" x="277.2" y="-309.5" font-family="Helvetica,sans-Serif" font-size="10.00">ccf/kv/untyped.h</text>
</a>
</g>
</g>
<!-- Node19&#45;&gt;Node36 -->
<g id="edge49" class="edge">
<title>Node19&#45;&gt;Node36</title>
<path fill="none" stroke="#63b8ff" d="M578.09,-364.63C574.74,-364.07 571.41,-363.52 568.2,-363 464.76,-346.22 437.99,-347.31 335.2,-327 330.43,-326.06 325.46,-324.99 320.53,-323.88"/>
<polygon fill="#63b8ff" stroke="#63b8ff" points="321.05,-320.41 310.52,-321.55 319.47,-327.22 321.05,-320.41"/>
</g>
<!-- Node20&#45;&gt;Node5 -->
<g id="edge23" class="edge">
<title>Node20&#45;&gt;Node5</title>
<path fill="none" stroke="#63b8ff" d="M760.74,-302.47C759.62,-281.82 756.77,-228.72 755.22,-200.04"/>
<polygon fill="#63b8ff" stroke="#63b8ff" points="758.7,-199.53 754.67,-189.73 751.71,-199.91 758.7,-199.53"/>
</g>
<!-- Node22 -->
<g id="node22" class="node">
<title>Node22</title>
<g id="a_node22"><a xlink:href="version_8h.html" target="_top" xlink:title=" ">
<polygon fill="white" stroke="#666666" points="193.2,-189.5 99.2,-189.5 99.2,-170.5 193.2,-170.5 193.2,-189.5"/>
<text text-anchor="middle" x="146.2" y="-177.5" font-family="Helvetica,sans-Serif" font-size="10.00">ccf/kv/version.h</text>
</a>
</g>
</g>
<!-- Node21&#45;&gt;Node22 -->
<g id="edge25" class="edge">
<title>Node21&#45;&gt;Node22</title>
<path fill="none" stroke="#63b8ff" d="M70.06,-236.37C84.37,-225.97 108.63,-208.32 125.92,-195.75"/>
<polygon fill="#63b8ff" stroke="#63b8ff" points="128.21,-198.41 134.23,-189.7 124.09,-192.75 128.21,-198.41"/>
</g>
<!-- Node23 -->
<g id="node23" class="node">
<title>Node23</title>
<g id="a_node23"><a xlink:title=" ">
<polygon fill="#e0e0e0" stroke="#999999" points="276.7,-189.5 211.7,-189.5 211.7,-170.5 276.7,-170.5 276.7,-189.5"/>
<text text-anchor="middle" x="244.2" y="-177.5" font-family="Helvetica,sans-Serif" font-size="10.00">functional</text>
</a>
</g>
</g>
<!-- Node21&#45;&gt;Node23 -->
<g id="edge26" class="edge">
<title>Node21&#45;&gt;Node23</title>
<path fill="none" stroke="#63b8ff" d="M83.28,-236.37C115.82,-225.17 172.75,-205.58 209.44,-192.96"/>
<polygon fill="#63b8ff" stroke="#63b8ff" points="210.89,-196.16 219.21,-189.6 208.62,-189.54 210.89,-196.16"/>
</g>
<!-- Node24 -->
<g id="node24" class="node">
<title>Node24</title>
<g id="a_node24"><a xlink:title=" ">
<polygon fill="#e0e0e0" stroke="#999999" points="81.2,-189.5 23.2,-189.5 23.2,-170.5 81.2,-170.5 81.2,-189.5"/>
<text text-anchor="middle" x="52.2" y="-177.5" font-family="Helvetica,sans-Serif" font-size="10.00">memory</text>
</a>
</g>
</g>
<!-- Node21&#45;&gt;Node24 -->
<g id="edge27" class="edge">
<title>Node21&#45;&gt;Node24</title>
<path fill="none" stroke="#63b8ff" d="M57.39,-236.37C56.51,-227.07 55.1,-211.98 53.97,-199.9"/>
<polygon fill="#63b8ff" stroke="#63b8ff" points="57.45,-199.53 53.03,-189.91 50.48,-200.19 57.45,-199.53"/>
</g>
<!-- Node26 -->
<g id="node26" class="node">
<title>Node26</title>
<g id="a_node26"><a xlink:href="untyped__map__handle_8h.html" target="_top" xlink:title=" ">
<polygon fill="white" stroke="#666666" points="529.2,-261 413.2,-261 413.2,-231 529.2,-231 529.2,-261"/>
<text text-anchor="start" x="421.2" y="-249" font-family="Helvetica,sans-Serif" font-size="10.00">ccf/kv/untyped_map</text>
<text text-anchor="middle" x="471.2" y="-238" font-family="Helvetica,sans-Serif" font-size="10.00">_handle.h</text>
</a>
</g>
</g>
<!-- Node25&#45;&gt;Node26 -->
<g id="edge29" class="edge">
<title>Node25&#45;&gt;Node26</title>
<path fill="none" stroke="#63b8ff" d="M852.14,-302.46C842.67,-300.55 832.59,-298.62 823.2,-297 770.1,-287.85 625.71,-267.93 539.24,-256.18"/>
<polygon fill="#63b8ff" stroke="#63b8ff" points="539.63,-252.7 529.25,-254.82 538.69,-259.64 539.63,-252.7"/>
</g>
<!-- Node26&#45;&gt;Node5 -->
<g id="edge42" class="edge">
<title>Node26&#45;&gt;Node5</title>
<path fill="none" stroke="#63b8ff" d="M529.49,-231.82C587.86,-218.62 675.52,-198.79 722.22,-188.23"/>
<polygon fill="#63b8ff" stroke="#63b8ff" points="723.11,-191.62 732.09,-186 721.56,-184.79 723.11,-191.62"/>
</g>
<!-- Node26&#45;&gt;Node14 -->
<g id="edge41" class="edge">
<title>Node26&#45;&gt;Node14</title>
<path fill="none" stroke="#63b8ff" d="M499.51,-230.95C521.63,-219.98 552.15,-204.83 573.78,-194.11"/>
<polygon fill="#63b8ff" stroke="#63b8ff" points="575.63,-197.1 583.03,-189.52 572.51,-190.83 575.63,-197.1"/>
</g>
<!-- Node26&#45;&gt;Node22 -->
<g id="edge39" class="edge">
<title>Node26&#45;&gt;Node22</title>
<path fill="none" stroke="#63b8ff" d="M413.01,-235.24C358.38,-225.83 274.49,-210.74 202.2,-195 197.84,-194.05 193.3,-193.01 188.78,-191.93"/>
<polygon fill="#63b8ff" stroke="#63b8ff" points="189.53,-188.51 178.99,-189.55 187.88,-195.32 189.53,-188.51"/>
</g>
<!-- Node26&#45;&gt;Node23 -->
<g id="edge40" class="edge">
<title>Node26&#45;&gt;Node23</title>
<path fill="none" stroke="#63b8ff" d="M415.17,-230.97C378.11,-221.44 328.54,-208.21 285.2,-195 282.89,-194.3 280.52,-193.55 278.13,-192.78"/>
<polygon fill="#63b8ff" stroke="#63b8ff" points="278.98,-189.38 268.39,-189.56 276.78,-196.02 278.98,-189.38"/>
</g>
<!-- Node27 -->
<g id="node27" class="node">
<title>Node27</title>
<g id="a_node27"><a xlink:href="abstract__handle_8h.html" target="_top" xlink:title=" ">
<polygon fill="white" stroke="#666666" points="554.2,-189.5 418.2,-189.5 418.2,-170.5 554.2,-170.5 554.2,-189.5"/>
<text text-anchor="middle" x="486.2" y="-177.5" font-family="Helvetica,sans-Serif" font-size="10.00">ccf/kv/abstract_handle.h</text>
</a>
</g>
</g>
<!-- Node26&#45;&gt;Node27 -->
<g id="edge30" class="edge">
<title>Node26&#45;&gt;Node27</title>
<path fill="none" stroke="#63b8ff" d="M474.52,-230.8C476.66,-221.7 479.45,-209.79 481.77,-199.9"/>
<polygon fill="#63b8ff" stroke="#63b8ff" points="485.25,-200.38 484.12,-189.84 478.43,-198.78 485.25,-200.38"/>
</g>
<!-- Node28 -->
<g id="node28" class="node">
<title>Node28</title>
<g id="a_node28"><a xlink:href="serialised__entry_8h.html" target="_top" xlink:title=" ">
<polygon fill="white" stroke="#666666" points="399.7,-195 294.7,-195 294.7,-165 399.7,-165 399.7,-195"/>
<text text-anchor="start" x="302.7" y="-183" font-family="Helvetica,sans-Serif" font-size="10.00">ccf/kv/serialisers</text>
<text text-anchor="middle" x="347.2" y="-172" font-family="Helvetica,sans-Serif" font-size="10.00">/serialised_entry.h</text>
</a>
</g>
</g>
<!-- Node26&#45;&gt;Node28 -->
<g id="edge31" class="edge">
<title>Node26&#45;&gt;Node28</title>
<path fill="none" stroke="#63b8ff" d="M443.98,-230.95C426.22,-221.78 402.81,-209.71 383.47,-199.72"/>
<polygon fill="#63b8ff" stroke="#63b8ff" points="384.84,-196.49 374.34,-195.01 381.63,-202.71 384.84,-196.49"/>
</g>
<!-- Node29 -->
<g id="node29" class="node">
<title>Node29</title>
<g id="a_node29"><a xlink:href="byte__vector_8h.html" target="_top" xlink:title=" ">
<polygon fill="white" stroke="#666666" points="707.2,-129 607.2,-129 607.2,-110 707.2,-110 707.2,-129"/>
<text text-anchor="middle" x="657.2" y="-117" font-family="Helvetica,sans-Serif" font-size="10.00">ccf/byte_vector.h</text>
</a>
</g>
</g>
<!-- Node28&#45;&gt;Node29 -->
<g id="edge32" class="edge">
<title>Node28&#45;&gt;Node29</title>
<path fill="none" stroke="#63b8ff" d="M399.93,-166.93C403.06,-166.26 406.17,-165.61 409.2,-165 473.17,-152.04 546.83,-139.07 597.14,-130.51"/>
<polygon fill="#63b8ff" stroke="#63b8ff" points="597.92,-133.92 607.2,-128.8 596.75,-127.02 597.92,-133.92"/>
</g>
<!-- Node29&#45;&gt;Node15 -->
<g id="edge37" class="edge">
<title>Node29&#45;&gt;Node15</title>
<path fill="none" stroke="#63b8ff" d="M707.24,-114.3C825.37,-104.37 1120.48,-79.59 1238.38,-69.68"/>
<polygon fill="#63b8ff" stroke="#63b8ff" points="1238.89,-73.15 1248.57,-68.83 1238.31,-66.18 1238.89,-73.15"/>
</g>
<!-- Node30 -->
<g id="node30" class="node">
<title>Node30</title>
<g id="a_node30"><a xlink:href="siphash_8h.html" target="_top" xlink:title=" ">
<polygon fill="white" stroke="#666666" points="775.7,-74 680.7,-74 680.7,-55 775.7,-55 775.7,-74"/>
<text text-anchor="middle" x="728.2" y="-62" font-family="Helvetica,sans-Serif" font-size="10.00">ccf/ds/siphash.h</text>
</a>
</g>
</g>
<!-- Node29&#45;&gt;Node30 -->
<g id="edge33" class="edge">
<title>Node29&#45;&gt;Node30</title>
<path fill="none" stroke="#63b8ff" d="M668.6,-109.98C679.3,-102 695.54,-89.88 708.36,-80.31"/>
<polygon fill="#63b8ff" stroke="#63b8ff" points="710.66,-82.96 716.58,-74.17 706.47,-77.35 710.66,-82.96"/>
</g>
<!-- Node33 -->
<g id="node33" class="node">
<title>Node33</title>
<g id="a_node33"><a xlink:title=" ">
<polygon fill="#e0e0e0" stroke="#999999" points="662.7,-74 513.7,-74 513.7,-55 662.7,-55 662.7,-74"/>
<text text-anchor="middle" x="588.2" y="-62" font-family="Helvetica,sans-Serif" font-size="10.00">small_vector/SmallVector.h</text>
</a>
</g>
</g>
<!-- Node29&#45;&gt;Node33 -->
<g id="edge38" class="edge">
<title>Node29&#45;&gt;Node33</title>
<path fill="none" stroke="#63b8ff" d="M646.11,-109.98C635.71,-102 619.93,-89.88 607.47,-80.31"/>
<polygon fill="#63b8ff" stroke="#63b8ff" points="609.55,-77.49 599.48,-74.17 605.28,-83.04 609.55,-77.49"/>
</g>
<!-- Node30&#45;&gt;Node6 -->
<g id="edge36" class="edge">
<title>Node30&#45;&gt;Node6</title>
<path fill="none" stroke="#63b8ff" d="M740.41,-54.98C751.97,-46.92 769.57,-34.65 783.36,-25.03"/>
<polygon fill="#63b8ff" stroke="#63b8ff" points="785.56,-27.76 791.76,-19.17 781.56,-22.02 785.56,-27.76"/>
</g>
<!-- Node31 -->
<g id="node31" class="node">
<title>Node31</title>
<g id="a_node31"><a xlink:title=" ">
<polygon fill="#e0e0e0" stroke="#999999" points="688.7,-19 635.7,-19 635.7,0 688.7,0 688.7,-19"/>
<text text-anchor="middle" x="662.2" y="-7" font-family="Helvetica,sans-Serif" font-size="10.00">cstddef</text>
</a>
</g>
</g>
<!-- Node30&#45;&gt;Node31 -->
<g id="edge34" class="edge">
<title>Node30&#45;&gt;Node31</title>
<path fill="none" stroke="#63b8ff" d="M717.59,-54.98C707.74,-47.07 692.84,-35.11 680.98,-25.58"/>
<polygon fill="#63b8ff" stroke="#63b8ff" points="682.98,-22.7 672.99,-19.17 678.6,-28.16 682.98,-22.7"/>
</g>
<!-- Node32 -->
<g id="node32" class="node">
<title>Node32</title>
<g id="a_node32"><a xlink:title=" ">
<polygon fill="#e0e0e0" stroke="#999999" points="757.2,-19 707.2,-19 707.2,0 757.2,0 757.2,-19"/>
<text text-anchor="middle" x="732.2" y="-7" font-family="Helvetica,sans-Serif" font-size="10.00">cstdint</text>
</a>
</g>
</g>
<!-- Node30&#45;&gt;Node32 -->
<g id="edge35" class="edge">
<title>Node30&#45;&gt;Node32</title>
<path fill="none" stroke="#63b8ff" d="M728.86,-54.75C729.38,-47.8 730.13,-37.85 730.79,-29.13"/>
<polygon fill="#63b8ff" stroke="#63b8ff" points="734.28,-29.32 731.55,-19.09 727.3,-28.8 734.28,-29.32"/>
</g>
<!-- Node34&#45;&gt;Node8 -->
<g id="edge44" class="edge">
<title>Node34&#45;&gt;Node8</title>
<path fill="none" stroke="#63b8ff" d="M689.8,-298.7C692.64,-298.1 695.45,-297.53 698.2,-297 799.8,-277.42 919.57,-261.69 987.93,-253.4"/>
<polygon fill="#63b8ff" stroke="#63b8ff" points="988.53,-256.86 998.04,-252.19 987.69,-249.91 988.53,-256.86"/>
</g>
<!-- Node34&#45;&gt;Node28 -->
<g id="edge45" class="edge">
<title>Node34&#45;&gt;Node28</title>
<path fill="none" stroke="#63b8ff" d="M590.65,-299.12C587.45,-298.39 584.28,-297.68 581.2,-297 502.8,-279.73 471.51,-304.74 404.2,-261 382.98,-247.22 367.21,-222.55 357.7,-204.23"/>
<polygon fill="#63b8ff" stroke="#63b8ff" points="360.75,-202.5 353.19,-195.08 354.47,-205.59 360.75,-202.5"/>
</g>
<!-- Node35&#45;&gt;Node16 -->
<g id="edge48" class="edge">
<title>Node35&#45;&gt;Node16</title>
<path fill="none" stroke="#63b8ff" d="M548.87,-296.95C568.76,-286.08 596.13,-271.11 615.71,-260.4"/>
<polygon fill="#63b8ff" stroke="#63b8ff" points="617.53,-263.39 624.62,-255.52 614.17,-257.25 617.53,-263.39"/>
</g>
<!-- Node35&#45;&gt;Node28 -->
<g id="edge47" class="edge">
<title>Node35&#45;&gt;Node28</title>
<path fill="none" stroke="#63b8ff" d="M473.59,-297.16C432.15,-285.2 378.66,-268.66 371.2,-261 356.7,-246.12 350.91,-222.84 348.63,-205.22"/>
<polygon fill="#63b8ff" stroke="#63b8ff" points="352.09,-204.71 347.61,-195.11 345.13,-205.41 352.09,-204.71"/>
</g>
<!-- Node36&#45;&gt;Node14 -->
<g id="edge53" class="edge">
<title>Node36&#45;&gt;Node14</title>
<path fill="none" stroke="#63b8ff" d="M311.16,-302.43C319.03,-300.55 327.39,-298.63 335.2,-297 424.88,-278.24 459.77,-308.39 538.2,-261 562.93,-246.06 581.47,-217.3 591.57,-198.64"/>
<polygon fill="#63b8ff" stroke="#63b8ff" points="594.71,-200.19 596.18,-189.7 588.49,-196.98 594.71,-200.19"/>
</g>
<!-- Node36&#45;&gt;Node21 -->
<g id="edge50" class="edge">
<title>Node36&#45;&gt;Node21</title>
<path fill="none" stroke="#63b8ff" d="M247.66,-302.37C208.86,-291.03 140.6,-271.08 97.47,-258.48"/>
<polygon fill="#63b8ff" stroke="#63b8ff" points="98.19,-255.04 87.61,-255.6 96.23,-261.76 98.19,-255.04"/>
</g>
<!-- Node36&#45;&gt;Node28 -->
<g id="edge51" class="edge">
<title>Node36&#45;&gt;Node28</title>
<path fill="none" stroke="#63b8ff" d="M273.88,-302.44C268.52,-287.09 259.72,-254.31 272.2,-231 279.09,-218.12 290.93,-207.99 303.19,-200.31"/>
<polygon fill="#63b8ff" stroke="#63b8ff" points="305.21,-203.18 312.12,-195.15 301.71,-197.12 305.21,-203.18"/>
</g>
<!-- Node37 -->
<g id="node37" class="node">
<title>Node37</title>
<g id="a_node37"><a xlink:title=" ">
<polygon fill="#e0e0e0" stroke="#999999" points="319.2,-255.5 281.2,-255.5 281.2,-236.5 319.2,-236.5 319.2,-255.5"/>
<text text-anchor="middle" x="300.2" y="-243.5" font-family="Helvetica,sans-Serif" font-size="10.00">map</text>
</a>
</g>
</g>
<!-- Node36&#45;&gt;Node37 -->
<g id="edge52" class="edge">
<title>Node36&#45;&gt;Node37</title>
<path fill="none" stroke="#63b8ff" d="M280.3,-302.37C283.67,-292.97 289.17,-277.67 293.54,-265.53"/>
<polygon fill="#63b8ff" stroke="#63b8ff" points="296.91,-266.5 297,-255.91 290.32,-264.13 296.91,-266.5"/>
</g>
<!-- Node38&#45;&gt;Node20 -->
<g id="edge55" class="edge">
<title>Node38&#45;&gt;Node20</title>
<path fill="none" stroke="#63b8ff" d="M557.8,-362.99C599.75,-352.68 670.53,-335.28 716.55,-323.97"/>
<polygon fill="#63b8ff" stroke="#63b8ff" points="717.67,-327.3 726.55,-321.52 716,-320.5 717.67,-327.3"/>
</g>
<!-- Node38&#45;&gt;Node21 -->
<g id="edge56" class="edge">
<title>Node38&#45;&gt;Node21</title>
<path fill="none" stroke="#63b8ff" d="M486.59,-364.4C483.42,-363.88 480.25,-363.41 477.2,-363 429.34,-356.61 76.89,-362.52 44.2,-327 28.73,-310.19 38.44,-282.62 47.66,-264.64"/>
<polygon fill="#63b8ff" stroke="#63b8ff" points="50.79,-266.21 52.57,-255.77 44.67,-262.82 50.79,-266.21"/>
</g>
<!-- Node38&#45;&gt;Node34 -->
<g id="edge57" class="edge">
<title>Node38&#45;&gt;Node34</title>
<path fill="none" stroke="#63b8ff" d="M540.21,-362.99C556.55,-354.82 581.79,-342.2 602.82,-331.69"/>
<polygon fill="#63b8ff" stroke="#63b8ff" points="604.46,-334.78 611.84,-327.18 601.33,-328.52 604.46,-334.78"/>
</g>
<!-- Node38&#45;&gt;Node35 -->
<g id="edge58" class="edge">
<title>Node38&#45;&gt;Node35</title>
<path fill="none" stroke="#63b8ff" d="M523.2,-362.87C523.2,-356.11 523.2,-346.35 523.2,-337.26"/>
<polygon fill="#63b8ff" stroke="#63b8ff" points="526.7,-337.11 523.2,-327.11 519.7,-337.11 526.7,-337.11"/>
</g>
<!-- Node38&#45;&gt;Node36 -->
<g id="edge63" class="edge">
<title>Node38&#45;&gt;Node36</title>
<path fill="none" stroke="#63b8ff" d="M486.79,-362.93C448.91,-354.01 387.88,-339.59 335.2,-327 331.06,-326.01 326.76,-324.98 322.45,-323.94"/>
<polygon fill="#63b8ff" stroke="#63b8ff" points="323,-320.48 312.46,-321.54 321.36,-327.28 323,-320.48"/>
</g>
<!-- Node39 -->
<g id="node39" class="node">
<title>Node39</title>
<g id="a_node39"><a xlink:href="set__handle_8h.html" target="_top" xlink:title=" ">
<polygon fill="white" stroke="#666666" points="455.7,-321.5 344.7,-321.5 344.7,-302.5 455.7,-302.5 455.7,-321.5"/>
<text text-anchor="middle" x="400.2" y="-309.5" font-family="Helvetica,sans-Serif" font-size="10.00">ccf/kv/set_handle.h</text>
</a>
</g>
</g>
<!-- Node38&#45;&gt;Node39 -->
<g id="edge59" class="edge">
<title>Node38&#45;&gt;Node39</title>
<path fill="none" stroke="#63b8ff" d="M505.31,-362.99C484.81,-353.25 451,-337.16 427.27,-325.88"/>
<polygon fill="#63b8ff" stroke="#63b8ff" points="428.64,-322.65 418.1,-321.52 425.63,-328.97 428.64,-322.65"/>
</g>
<!-- Node39&#45;&gt;Node26 -->
<g id="edge62" class="edge">
<title>Node39&#45;&gt;Node26</title>
<path fill="none" stroke="#63b8ff" d="M409.77,-302.37C419.49,-293.61 434.9,-279.71 447.86,-268.04"/>
<polygon fill="#63b8ff" stroke="#63b8ff" points="450.45,-270.41 455.54,-261.12 445.76,-265.21 450.45,-270.41"/>
</g>
<!-- Node40 -->
<g id="node40" class="node">
<title>Node40</title>
<g id="a_node40"><a xlink:href="unit_8h.html" target="_top" xlink:title=" ">
<polygon fill="white" stroke="#666666" points="224.7,-255.5 147.7,-255.5 147.7,-236.5 224.7,-236.5 224.7,-255.5"/>
<text text-anchor="middle" x="186.2" y="-243.5" font-family="Helvetica,sans-Serif" font-size="10.00">ccf/kv/unit.h</text>
</a>
</g>
</g>
<!-- Node39&#45;&gt;Node40 -->
<g id="edge60" class="edge">
<title>Node39&#45;&gt;Node40</title>
<path fill="none" stroke="#63b8ff" d="M371.33,-302.37C333.42,-291.03 266.71,-271.08 224.57,-258.48"/>
<polygon fill="#63b8ff" stroke="#63b8ff" points="225.52,-255.11 214.94,-255.6 223.52,-261.82 225.52,-255.11"/>
</g>
<!-- Node40&#45;&gt;Node28 -->
<g id="edge61" class="edge">
<title>Node40&#45;&gt;Node28</title>
<path fill="none" stroke="#63b8ff" d="M207.91,-236.37C231.92,-226.82 271.27,-211.18 302.03,-198.95"/>
<polygon fill="#63b8ff" stroke="#63b8ff" points="303.69,-202.06 311.69,-195.12 301.1,-195.56 303.69,-202.06"/>
</g>
<!-- Node41&#45;&gt;Node20 -->
<g id="edge65" class="edge">
<title>Node41&#45;&gt;Node20</title>
<path fill="none" stroke="#63b8ff" d="M468.77,-364.39C471.62,-363.92 474.45,-363.45 477.2,-363 575.39,-346.82 600.47,-345.8 698.2,-327 703.49,-325.98 709.02,-324.85 714.51,-323.69"/>
<polygon fill="#63b8ff" stroke="#63b8ff" points="715.26,-327.11 724.29,-321.57 713.78,-320.26 715.26,-327.11"/>
</g>
<!-- Node41&#45;&gt;Node21 -->
<g id="edge66" class="edge">
<title>Node41&#45;&gt;Node21</title>
<path fill="none" stroke="#63b8ff" d="M383.6,-370.15C281.83,-366.49 31.15,-354.73 6.2,-327 -12.39,-306.34 15.7,-278.41 37.29,-261.61"/>
<polygon fill="#63b8ff" stroke="#63b8ff" points="39.49,-264.33 45.41,-255.54 35.3,-258.72 39.49,-264.33"/>
</g>
<!-- Node41&#45;&gt;Node34 -->
<g id="edge67" class="edge">
<title>Node41&#45;&gt;Node34</title>
<path fill="none" stroke="#63b8ff" d="M457.31,-362.99C489.55,-354.18 540.71,-340.19 580.74,-329.25"/>
<polygon fill="#63b8ff" stroke="#63b8ff" points="581.67,-332.63 590.39,-326.61 579.83,-325.87 581.67,-332.63"/>
</g>
<!-- Node41&#45;&gt;Node35 -->
<g id="edge68" class="edge">
<title>Node41&#45;&gt;Node35</title>
<path fill="none" stroke="#63b8ff" d="M440.51,-362.87C453.79,-354.86 474.04,-342.65 491.17,-332.31"/>
<polygon fill="#63b8ff" stroke="#63b8ff" points="493.04,-335.28 499.79,-327.11 489.42,-329.28 493.04,-335.28"/>
</g>
<!-- Node41&#45;&gt;Node36 -->
<g id="edge69" class="edge">
<title>Node41&#45;&gt;Node36</title>
<path fill="none" stroke="#63b8ff" d="M404.53,-362.99C379.26,-353.07 337.28,-336.59 308.48,-325.28"/>
<polygon fill="#63b8ff" stroke="#63b8ff" points="309.48,-321.91 298.89,-321.52 306.92,-328.43 309.48,-321.91"/>
</g>
<!-- Node42 -->
<g id="node42" class="node">
<title>Node42</title>
<g id="a_node42"><a xlink:href="value__handle_8h.html" target="_top" xlink:title=" ">
<polygon fill="white" stroke="#666666" points="209.7,-321.5 86.7,-321.5 86.7,-302.5 209.7,-302.5 209.7,-321.5"/>
<text text-anchor="middle" x="148.2" y="-309.5" font-family="Helvetica,sans-Serif" font-size="10.00">ccf/kv/value_handle.h</text>
</a>
</g>
</g>
<!-- Node41&#45;&gt;Node42 -->
<g id="edge70" class="edge">
<title>Node41&#45;&gt;Node42</title>
<path fill="none" stroke="#63b8ff" d="M385.77,-362.99C336.26,-352.57 252.36,-334.92 198.66,-323.62"/>
<polygon fill="#63b8ff" stroke="#63b8ff" points="199.17,-320.15 188.67,-321.52 197.73,-327 199.17,-320.15"/>
</g>
<!-- Node42&#45;&gt;Node26 -->
<g id="edge72" class="edge">
<title>Node42&#45;&gt;Node26</title>
<path fill="none" stroke="#63b8ff" d="M191.42,-302.44C245.6,-291.7 339.07,-273.18 402.95,-260.52"/>
<polygon fill="#63b8ff" stroke="#63b8ff" points="403.8,-263.92 412.93,-258.54 402.44,-257.05 403.8,-263.92"/>
</g>
<!-- Node42&#45;&gt;Node40 -->
<g id="edge71" class="edge">
<title>Node42&#45;&gt;Node40</title>
<path fill="none" stroke="#63b8ff" d="M153.32,-302.37C159.01,-292.78 168.35,-277.05 175.63,-264.8"/>
<polygon fill="#63b8ff" stroke="#63b8ff" points="178.81,-266.29 180.91,-255.91 172.79,-262.72 178.81,-266.29"/>
</g>
</g>
</svg>
