<?xml version="1.0" encoding="UTF-8" standalone="no"?>
<!DOCTYPE svg PUBLIC "-//W3C//DTD SVG 1.1//EN"
 "http://www.w3.org/Graphics/SVG/1.1/DTD/svg11.dtd">
<!-- Generated by graphviz version 2.43.0 (0)
 -->
<!-- Title: crypto::RSAPublicKey_OpenSSL Pages: 1 -->
<svg width="296pt" height="148pt"
 viewBox="0.00 0.00 296.00 148.00" xmlns="http://www.w3.org/2000/svg" xmlns:xlink="http://www.w3.org/1999/xlink">
<g id="graph0" class="graph" transform="scale(1 1) rotate(0) translate(4 144)">
<title>crypto::RSAPublicKey_OpenSSL</title>
<!-- Node1 -->
<g id="node1" class="node">
<title>Node1</title>
<g id="a_node1"><a xlink:title=" ">
<polygon fill="#999999" stroke="#666666" points="211,-30 90,-30 90,0 211,0 211,-30"/>
<text text-anchor="start" x="98" y="-18" font-family="Helvetica,sans-Serif" font-size="10.00">crypto::RSAPublicKey</text>
<text text-anchor="middle" x="150.5" y="-7" font-family="Helvetica,sans-Serif" font-size="10.00">_OpenSSL</text>
</a>
</g>
</g>
<!-- Node2 -->
<g id="node2" class="node">
<title>Node2</title>
<g id="a_node2"><a xlink:href="classcrypto_1_1PublicKey__OpenSSL.html" target="_top" xlink:title=" ">
<polygon fill="white" stroke="#666666" points="149,-85 0,-85 0,-66 149,-66 149,-85"/>
<text text-anchor="middle" x="74.5" y="-73" font-family="Helvetica,sans-Serif" font-size="10.00">crypto::PublicKey_OpenSSL</text>
</a>
</g>
</g>
<!-- Node2&#45;&gt;Node1 -->
<g id="edge1" class="edge">
<title>Node2&#45;&gt;Node1</title>
<path fill="none" stroke="#63b8ff" d="M93.64,-59.77C105.45,-50.68 120.51,-39.09 132.16,-30.11"/>
<polygon fill="#63b8ff" stroke="#63b8ff" points="91.5,-56.99 85.71,-65.87 95.77,-62.54 91.5,-56.99"/>
</g>
<!-- Node3 -->
<g id="node3" class="node">
<title>Node3</title>
<g id="a_node3"><a xlink:href="classcrypto_1_1PublicKey.html" target="_top" xlink:title=" ">
<polygon fill="white" stroke="#666666" points="125,-140 24,-140 24,-121 125,-121 125,-140"/>
<text text-anchor="middle" x="74.5" y="-128" font-family="Helvetica,sans-Serif" font-size="10.00">crypto::PublicKey</text>
</a>
</g>
</g>
<!-- Node3&#45;&gt;Node2 -->
<g id="edge2" class="edge">
<title>Node3&#45;&gt;Node2</title>
<path fill="none" stroke="#63b8ff" d="M74.5,-110.66C74.5,-101.93 74.5,-91.99 74.5,-85.09"/>
<polygon fill="#63b8ff" stroke="#63b8ff" points="71,-110.75 74.5,-120.75 78,-110.75 71,-110.75"/>
</g>
<!-- Node4 -->
<g id="node4" class="node">
<title>Node4</title>
<g id="a_node4"><a xlink:href="classcrypto_1_1RSAPublicKey.html" target="_top" xlink:title=" ">
<polygon fill="white" stroke="#666666" points="288,-85 167,-85 167,-66 288,-66 288,-85"/>
<text text-anchor="middle" x="227.5" y="-73" font-family="Helvetica,sans-Serif" font-size="10.00">crypto::RSAPublicKey</text>
</a>
</g>
</g>
<!-- Node4&#45;&gt;Node1 -->
<g id="edge3" class="edge">
<title>Node4&#45;&gt;Node1</title>
<path fill="none" stroke="#63b8ff" d="M208.11,-59.77C196.15,-50.68 180.89,-39.09 169.08,-30.11"/>
<polygon fill="#63b8ff" stroke="#63b8ff" points="206.06,-62.61 216.14,-65.87 210.29,-57.03 206.06,-62.61"/>
</g>
</g>
</svg>
