<?xml version="1.0" encoding="UTF-8" standalone="no"?>
<!DOCTYPE svg PUBLIC "-//W3C//DTD SVG 1.1//EN"
 "http://www.w3.org/Graphics/SVG/1.1/DTD/svg11.dtd">
<!-- Generated by graphviz version 2.43.0 (0)
 -->
<!-- Title: crypto::OpenSSL::Unique_SSL_OBJECT&lt; T, CTOR, DTOR &gt; Pages: 1 -->
<svg width="145pt" height="192pt"
 viewBox="0.00 0.00 145.00 192.00" xmlns="http://www.w3.org/2000/svg" xmlns:xlink="http://www.w3.org/1999/xlink">
<g id="graph0" class="graph" transform="scale(1 1) rotate(0) translate(4 188)">
<title>crypto::OpenSSL::Unique_SSL_OBJECT&lt; T, CTOR, DTOR &gt;</title>
<!-- Node1 -->
<g id="node1" class="node">
<title>Node1</title>
<g id="a_node1"><a xlink:title=" ">
<polygon fill="#999999" stroke="#666666" points="137,-41 0,-41 0,0 137,0 137,-41"/>
<text text-anchor="start" x="8" y="-29" font-family="Helvetica,sans-Serif" font-size="10.00">crypto::OpenSSL::Unique</text>
<text text-anchor="start" x="8" y="-18" font-family="Helvetica,sans-Serif" font-size="10.00">_SSL_OBJECT&lt; T, CTOR,</text>
<text text-anchor="middle" x="68.5" y="-7" font-family="Helvetica,sans-Serif" font-size="10.00"> DTOR &gt;</text>
</a>
</g>
</g>
<!-- Node2 -->
<g id="node2" class="node">
<title>Node2</title>
<g id="a_node2"><a xlink:title=" ">
<polygon fill="white" stroke="#666666" points="123.5,-118 13.5,-118 13.5,-88 123.5,-88 123.5,-118"/>
<text text-anchor="start" x="21.5" y="-106" font-family="Helvetica,sans-Serif" font-size="10.00">std::unique_ptr&lt; T,</text>
<text text-anchor="middle" x="68.5" y="-95" font-family="Helvetica,sans-Serif" font-size="10.00"> void(*)(T *)&gt;</text>
</a>
</g>
</g>
<!-- Node2&#45;&gt;Node1 -->
<g id="edge1" class="edge">
<title>Node2&#45;&gt;Node1</title>
<path fill="none" stroke="#9a32cd" stroke-dasharray="5,2" d="M68.5,-77.94C68.5,-66.17 68.5,-52.19 68.5,-41.09"/>
<polygon fill="#9a32cd" stroke="#9a32cd" points="65,-77.98 68.5,-87.98 72,-77.98 65,-77.98"/>
<text text-anchor="middle" x="73.5" y="-62" font-family="Helvetica,sans-Serif" font-size="10.00"> p</text>
</g>
<!-- Node3 -->
<g id="node3" class="node">
<title>Node3</title>
<g id="a_node3"><a xlink:title=" ">
<polygon fill="white" stroke="#666666" points="83,-184 54,-184 54,-165 83,-165 83,-184"/>
<text text-anchor="middle" x="68.5" y="-172" font-family="Helvetica,sans-Serif" font-size="10.00">T</text>
</a>
</g>
</g>
<!-- Node3&#45;&gt;Node2 -->
<g id="edge2" class="edge">
<title>Node3&#45;&gt;Node2</title>
<path fill="none" stroke="#9a32cd" stroke-dasharray="5,2" d="M68.5,-154.71C68.5,-143.19 68.5,-128.68 68.5,-118.14"/>
<polygon fill="#9a32cd" stroke="#9a32cd" points="65,-154.98 68.5,-164.98 72,-154.98 65,-154.98"/>
<text text-anchor="middle" x="77" y="-139" font-family="Helvetica,sans-Serif" font-size="10.00"> ptr</text>
</g>
</g>
</svg>
