<?xml version="1.0" encoding="UTF-8" standalone="no"?>
<!DOCTYPE svg PUBLIC "-//W3C//DTD SVG 1.1//EN"
 "http://www.w3.org/Graphics/SVG/1.1/DTD/svg11.dtd">
<!-- Generated by graphviz version 2.43.0 (0)
 -->
<!-- Title: ccf::RPCSessions Pages: 1 -->
<svg width="932pt" height="189pt"
 viewBox="0.00 0.00 932.00 188.50" xmlns="http://www.w3.org/2000/svg" xmlns:xlink="http://www.w3.org/1999/xlink">
<g id="graph0" class="graph" transform="scale(1 1) rotate(0) translate(4 184.5)">
<title>ccf::RPCSessions</title>
<!-- Node1 -->
<g id="node1" class="node">
<title>Node1</title>
<g id="a_node1"><a xlink:title=" ">
<polygon fill="#999999" stroke="#666666" points="924,-113 826,-113 826,-94 924,-94 924,-113"/>
<text text-anchor="middle" x="875" y="-101" font-family="Helvetica,sans-Serif" font-size="10.00">ccf::RPCSessions</text>
</a>
</g>
</g>
<!-- Node2 -->
<g id="node2" class="node">
<title>Node2</title>
<g id="a_node2"><a xlink:title=" ">
<polygon fill="white" stroke="#666666" points="789,-180.5 636,-180.5 636,-150.5 789,-150.5 789,-180.5"/>
<text text-anchor="start" x="644" y="-168.5" font-family="Helvetica,sans-Serif" font-size="10.00">std::enable_shared</text>
<text text-anchor="middle" x="712.5" y="-157.5" font-family="Helvetica,sans-Serif" font-size="10.00">_from_this&lt; RPCSessions &gt;</text>
</a>
</g>
</g>
<!-- Node2&#45;&gt;Node1 -->
<g id="edge1" class="edge">
<title>Node2&#45;&gt;Node1</title>
<path fill="none" stroke="#63b8ff" d="M773.32,-147.17C778.65,-145.33 783.94,-143.43 789,-141.5 811.81,-132.81 837.28,-121.15 854.34,-113.05"/>
<polygon fill="#63b8ff" stroke="#63b8ff" points="772.08,-143.89 763.73,-150.41 774.32,-150.53 772.08,-143.89"/>
</g>
<!-- Node3 -->
<g id="node3" class="node">
<title>Node3</title>
<g id="a_node3"><a xlink:href="classccf_1_1AbstractRPCResponder.html" target="_top" xlink:title=" ">
<polygon fill="white" stroke="#666666" points="786.5,-132 638.5,-132 638.5,-113 786.5,-113 786.5,-132"/>
<text text-anchor="middle" x="712.5" y="-120" font-family="Helvetica,sans-Serif" font-size="10.00">ccf::AbstractRPCResponder</text>
</a>
</g>
</g>
<!-- Node3&#45;&gt;Node1 -->
<g id="edge2" class="edge">
<title>Node3&#45;&gt;Node1</title>
<path fill="none" stroke="#63b8ff" d="M796.65,-112.66C806.6,-111.48 816.49,-110.31 825.71,-109.22"/>
<polygon fill="#63b8ff" stroke="#63b8ff" points="796.22,-109.18 786.7,-113.83 797.05,-116.13 796.22,-109.18"/>
</g>
<!-- Node4 -->
<g id="node4" class="node">
<title>Node4</title>
<g id="a_node4"><a xlink:href="classhttp_1_1ErrorReporter.html" target="_top" xlink:title=" ">
<polygon fill="white" stroke="#666666" points="766,-95 659,-95 659,-76 766,-76 766,-95"/>
<text text-anchor="middle" x="712.5" y="-83" font-family="Helvetica,sans-Serif" font-size="10.00">http::ErrorReporter</text>
</a>
</g>
</g>
<!-- Node4&#45;&gt;Node1 -->
<g id="edge3" class="edge">
<title>Node4&#45;&gt;Node1</title>
<path fill="none" stroke="#63b8ff" d="M776.19,-92.53C792.73,-94.39 810.31,-96.36 825.94,-98.11"/>
<polygon fill="#63b8ff" stroke="#63b8ff" points="776.38,-89.03 766.05,-91.39 775.6,-95.99 776.38,-89.03"/>
</g>
<!-- Node5 -->
<g id="node5" class="node">
<title>Node5</title>
<g id="a_node5"><a xlink:href="classhttp_1_1ResponderLookup.html" target="_top" xlink:title=" ">
<polygon fill="white" stroke="#666666" points="776.5,-58 648.5,-58 648.5,-39 776.5,-39 776.5,-58"/>
<text text-anchor="middle" x="712.5" y="-46" font-family="Helvetica,sans-Serif" font-size="10.00">http::ResponderLookup</text>
</a>
</g>
</g>
<!-- Node5&#45;&gt;Node1 -->
<g id="edge4" class="edge">
<title>Node5&#45;&gt;Node1</title>
<path fill="none" stroke="#63b8ff" d="M765.93,-60.58C773.72,-62.7 781.61,-65.02 789,-67.5 811.64,-75.09 836.72,-86.04 853.73,-93.87"/>
<polygon fill="#63b8ff" stroke="#63b8ff" points="766.72,-57.17 756.16,-58.02 764.94,-63.94 766.72,-57.17"/>
</g>
<!-- Node6 -->
<g id="node6" class="node">
<title>Node6</title>
<g id="a_node6"><a xlink:href="classhttp_1_1AbstractResponderLookup.html" target="_top" xlink:title=" ">
<polygon fill="white" stroke="#666666" points="525,-80 356,-80 356,-61 525,-61 525,-80"/>
<text text-anchor="middle" x="440.5" y="-68" font-family="Helvetica,sans-Serif" font-size="10.00">http::AbstractResponderLookup</text>
</a>
</g>
</g>
<!-- Node6&#45;&gt;Node5 -->
<g id="edge5" class="edge">
<title>Node6&#45;&gt;Node5</title>
<path fill="none" stroke="#63b8ff" d="M535.49,-62.84C572.86,-59.8 614.86,-56.37 648.46,-53.64"/>
<polygon fill="#63b8ff" stroke="#63b8ff" points="534.76,-59.39 525.08,-63.69 535.33,-66.37 534.76,-59.39"/>
</g>
<!-- Node7 -->
<g id="node7" class="node">
<title>Node7</title>
<g id="a_node7"><a xlink:href="classccf_1_1AbstractNodeSubSystem.html" target="_top" xlink:title=" ">
<polygon fill="white" stroke="#666666" points="271,-80 114,-80 114,-61 271,-61 271,-80"/>
<text text-anchor="middle" x="192.5" y="-68" font-family="Helvetica,sans-Serif" font-size="10.00">ccf::AbstractNodeSubSystem</text>
</a>
</g>
</g>
<!-- Node7&#45;&gt;Node6 -->
<g id="edge6" class="edge">
<title>Node7&#45;&gt;Node6</title>
<path fill="none" stroke="#63b8ff" d="M281.56,-70.5C305.73,-70.5 331.87,-70.5 355.79,-70.5"/>
<polygon fill="#63b8ff" stroke="#63b8ff" points="281.34,-67 271.34,-70.5 281.34,-74 281.34,-67"/>
</g>
<!-- Node8 -->
<g id="node8" class="node">
<title>Node8</title>
<g id="a_node8"><a xlink:title=" ">
<polygon fill="white" stroke="#666666" points="513.5,-42.5 367.5,-42.5 367.5,-12.5 513.5,-12.5 513.5,-42.5"/>
<text text-anchor="start" x="375.5" y="-30.5" font-family="Helvetica,sans-Serif" font-size="10.00">std::unordered_map</text>
<text text-anchor="middle" x="440.5" y="-19.5" font-family="Helvetica,sans-Serif" font-size="10.00">&lt; tls::ConnID, ByStream &gt;</text>
</a>
</g>
</g>
<!-- Node8&#45;&gt;Node5 -->
<g id="edge7" class="edge">
<title>Node8&#45;&gt;Node5</title>
<path fill="none" stroke="#9a32cd" stroke-dasharray="5,2" d="M523.96,-33.37C553.61,-35.54 587.31,-38.06 618,-40.5 627.83,-41.28 638.23,-42.14 648.39,-43"/>
<polygon fill="#9a32cd" stroke="#9a32cd" points="523.88,-29.86 513.65,-32.62 523.37,-36.84 523.88,-29.86"/>
<text text-anchor="middle" x="580.5" y="-43.5" font-family="Helvetica,sans-Serif" font-size="10.00"> all_responders</text>
</g>
<!-- Node9 -->
<g id="node9" class="node">
<title>Node9</title>
<g id="a_node9"><a xlink:title=" ">
<polygon fill="white" stroke="#666666" points="249.5,-42.5 135.5,-42.5 135.5,-12.5 249.5,-12.5 249.5,-42.5"/>
<text text-anchor="start" x="143.5" y="-30.5" font-family="Helvetica,sans-Serif" font-size="10.00">std::unordered_map</text>
<text text-anchor="middle" x="192.5" y="-19.5" font-family="Helvetica,sans-Serif" font-size="10.00">&lt; K, T &gt;</text>
</a>
</g>
</g>
<!-- Node9&#45;&gt;Node8 -->
<g id="edge8" class="edge">
<title>Node9&#45;&gt;Node8</title>
<path fill="none" stroke="#9a32cd" stroke-dasharray="5,2" d="M259.7,-27.5C292.92,-27.5 333.23,-27.5 367.25,-27.5"/>
<polygon fill="#9a32cd" stroke="#9a32cd" points="259.63,-24 249.63,-27.5 259.63,-31 259.63,-24"/>
<text text-anchor="middle" x="313.5" y="-30.5" font-family="Helvetica,sans-Serif" font-size="10.00"> elements</text>
</g>
<!-- Node10 -->
<g id="node10" class="node">
<title>Node10</title>
<g id="a_node10"><a xlink:title=" ">
<polygon fill="white" stroke="#666666" points="29,-56 0,-56 0,-37 29,-37 29,-56"/>
<text text-anchor="middle" x="14.5" y="-44" font-family="Helvetica,sans-Serif" font-size="10.00">K</text>
</a>
</g>
</g>
<!-- Node10&#45;&gt;Node9 -->
<g id="edge9" class="edge">
<title>Node10&#45;&gt;Node9</title>
<path fill="none" stroke="#9a32cd" stroke-dasharray="5,2" d="M39.15,-43.95C63.6,-41.31 102.68,-37.09 135.13,-33.59"/>
<polygon fill="#9a32cd" stroke="#9a32cd" points="38.58,-40.49 29.02,-45.04 39.34,-47.45 38.58,-40.49"/>
<text text-anchor="middle" x="71.5" y="-45.5" font-family="Helvetica,sans-Serif" font-size="10.00"> keys</text>
</g>
<!-- Node11 -->
<g id="node11" class="node">
<title>Node11</title>
<g id="a_node11"><a xlink:title=" ">
<polygon fill="white" stroke="#666666" points="29,-19 0,-19 0,0 29,0 29,-19"/>
<text text-anchor="middle" x="14.5" y="-7" font-family="Helvetica,sans-Serif" font-size="10.00">T</text>
</a>
</g>
</g>
<!-- Node11&#45;&gt;Node9 -->
<g id="edge10" class="edge">
<title>Node11&#45;&gt;Node9</title>
<path fill="none" stroke="#9a32cd" stroke-dasharray="5,2" d="M39.32,-10.08C55.37,-10.63 76.99,-11.64 96,-13.5 108.76,-14.75 122.42,-16.5 135.3,-18.35"/>
<polygon fill="#9a32cd" stroke="#9a32cd" points="39.3,-6.58 29.2,-9.78 39.09,-13.58 39.3,-6.58"/>
<text text-anchor="middle" x="71.5" y="-16.5" font-family="Helvetica,sans-Serif" font-size="10.00"> elements</text>
</g>
</g>
</svg>
