<?xml version="1.0" encoding="UTF-8" standalone="no"?>
<!DOCTYPE svg PUBLIC "-//W3C//DTD SVG 1.1//EN"
 "http://www.w3.org/Graphics/SVG/1.1/DTD/svg11.dtd">
<!-- Generated by graphviz version 2.43.0 (0)
 -->
<!-- Title: crypto::EdDSAKeyPair_OpenSSL Pages: 1 -->
<svg width="282pt" height="159pt"
 viewBox="0.00 0.00 282.00 159.00" xmlns="http://www.w3.org/2000/svg" xmlns:xlink="http://www.w3.org/1999/xlink">
<g id="graph0" class="graph" transform="scale(1 1) rotate(0) translate(4 155)">
<title>crypto::EdDSAKeyPair_OpenSSL</title>
<!-- Node1 -->
<g id="node1" class="node">
<title>Node1</title>
<g id="a_node1"><a xlink:title=" ">
<polygon fill="#999999" stroke="#666666" points="201,-30 79,-30 79,0 201,0 201,-30"/>
<text text-anchor="start" x="87" y="-18" font-family="Helvetica,sans-Serif" font-size="10.00">crypto::EdDSAKeyPair</text>
<text text-anchor="middle" x="140" y="-7" font-family="Helvetica,sans-Serif" font-size="10.00">_OpenSSL</text>
</a>
</g>
</g>
<!-- Node2 -->
<g id="node2" class="node">
<title>Node2</title>
<g id="a_node2"><a xlink:href="classcrypto_1_1EdDSAPublicKey__OpenSSL.html" target="_top" xlink:title=" ">
<polygon fill="white" stroke="#666666" points="134,-96 0,-96 0,-66 134,-66 134,-96"/>
<text text-anchor="start" x="8" y="-84" font-family="Helvetica,sans-Serif" font-size="10.00">crypto::EdDSAPublicKey</text>
<text text-anchor="middle" x="67" y="-73" font-family="Helvetica,sans-Serif" font-size="10.00">_OpenSSL</text>
</a>
</g>
</g>
<!-- Node2&#45;&gt;Node1 -->
<g id="edge1" class="edge">
<title>Node2&#45;&gt;Node1</title>
<path fill="none" stroke="#63b8ff" d="M90.72,-59.2C101.56,-49.7 114.12,-38.69 123.84,-30.16"/>
<polygon fill="#63b8ff" stroke="#63b8ff" points="88.41,-56.57 83.2,-65.8 93.03,-61.84 88.41,-56.57"/>
</g>
<!-- Node3 -->
<g id="node3" class="node">
<title>Node3</title>
<g id="a_node3"><a xlink:href="classcrypto_1_1EdDSAPublicKey.html" target="_top" xlink:title=" ">
<polygon fill="white" stroke="#666666" points="134,-151 0,-151 0,-132 134,-132 134,-151"/>
<text text-anchor="middle" x="67" y="-139" font-family="Helvetica,sans-Serif" font-size="10.00">crypto::EdDSAPublicKey</text>
</a>
</g>
</g>
<!-- Node3&#45;&gt;Node2 -->
<g id="edge2" class="edge">
<title>Node3&#45;&gt;Node2</title>
<path fill="none" stroke="#63b8ff" d="M67,-121.65C67,-113.36 67,-103.78 67,-96.11"/>
<polygon fill="#63b8ff" stroke="#63b8ff" points="63.5,-121.87 67,-131.87 70.5,-121.87 63.5,-121.87"/>
</g>
<!-- Node4 -->
<g id="node4" class="node">
<title>Node4</title>
<g id="a_node4"><a xlink:href="classcrypto_1_1EdDSAKeyPair.html" target="_top" xlink:title=" ">
<polygon fill="white" stroke="#666666" points="274,-90.5 152,-90.5 152,-71.5 274,-71.5 274,-90.5"/>
<text text-anchor="middle" x="213" y="-78.5" font-family="Helvetica,sans-Serif" font-size="10.00">crypto::EdDSAKeyPair</text>
</a>
</g>
</g>
<!-- Node4&#45;&gt;Node1 -->
<g id="edge3" class="edge">
<title>Node4&#45;&gt;Node1</title>
<path fill="none" stroke="#63b8ff" d="M195.56,-64.71C183.58,-54.21 167.79,-40.36 156.1,-30.12"/>
<polygon fill="#63b8ff" stroke="#63b8ff" points="193.33,-67.41 203.15,-71.37 197.94,-62.14 193.33,-67.41"/>
</g>
</g>
</svg>
