<?xml version="1.0" encoding="UTF-8" standalone="no"?>
<!DOCTYPE svg PUBLIC "-//W3C//DTD SVG 1.1//EN"
 "http://www.w3.org/Graphics/SVG/1.1/DTD/svg11.dtd">
<!-- Generated by graphviz version 2.43.0 (0)
 -->
<!-- Title: ccf::UserRpcFrontend Pages: 1 -->
<!--zoomable 714 -->
<svg id="main" version="1.1" xmlns="http://www.w3.org/2000/svg" xmlns:xlink="http://www.w3.org/1999/xlink" xml:space="preserve" onload="init(evt)">
<style type="text/css"><![CDATA[
.edge:hover path { stroke: red; }
.edge:hover polygon { stroke: red; fill: red; }
]]></style>
<script type="text/javascript"><![CDATA[
var edges = document.getElementsByTagName('g');
if (edges && edges.length) {
  for (var i=0;i<edges.length;i++) {
    if (edges[i].id.substr(0,4)=='edge') {
      edges[i].setAttribute('class','edge');
    }
  }
}
]]></script>
        <defs>
                <circle id="rim" cx="0" cy="0" r="7"/>
                <circle id="rim2" cx="0" cy="0" r="3.5"/>
                <g id="zoomPlus">
                        <use xlink:href="#rim" fill="#404040">
                                <set attributeName="fill" to="#808080" begin="zoomplus.mouseover" end="zoomplus.mouseout"/>
                        </use>
                        <path d="M-4,0h8M0,-4v8" fill="none" stroke="white" stroke-width="1.5" pointer-events="none"/>
                </g>
                <g id="zoomMin">
                        <use xlink:href="#rim" fill="#404040">
                                <set attributeName="fill" to="#808080" begin="zoomminus.mouseover" end="zoomminus.mouseout"/>
                        </use>
                        <path d="M-4,0h8" fill="none" stroke="white" stroke-width="1.5" pointer-events="none"/>
                </g>
                <g id="dirArrow">
                        <path fill="none" stroke="white" stroke-width="1.5" d="M0,-3.0v7 M-2.5,-0.5L0,-3.0L2.5,-0.5"/>
                </g>
               <g id="resetDef">
                       <use xlink:href="#rim2" fill="#404040">
                               <set attributeName="fill" to="#808080" begin="reset.mouseover" end="reset.mouseout"/>
                       </use>
               </g>
        </defs>

<script type="text/javascript">
var viewWidth = 2857;
var viewHeight = 714;
var sectionId = 'dynsection-0';
</script>
<script xlink:href="svgpan.js"/>
<svg id="graph" class="graph">
<g id="viewport">
<title>ccf::UserRpcFrontend</title>
<!-- Node1 -->
<g id="node1" class="node">
<title>Node1</title>
<g id="a_node1"><a xlink:title=" ">
<polygon fill="#999999" stroke="#666666" points="2849,-568 2730,-568 2730,-549 2849,-549 2849,-568"/>
<text text-anchor="middle" x="2789.5" y="-556" font-family="Helvetica,sans-Serif" font-size="10.00">ccf::UserRpcFrontend</text>
</a>
</g>
</g>
<!-- Node2 -->
<g id="node2" class="node">
<title>Node2</title>
<g id="a_node2"><a xlink:href="classccf_1_1RpcFrontend.html" target="_top" xlink:title=" ">
<polygon fill="white" stroke="#666666" points="2605,-602 2508,-602 2508,-583 2605,-583 2605,-602"/>
<text text-anchor="middle" x="2556.5" y="-590" font-family="Helvetica,sans-Serif" font-size="10.00">ccf::RpcFrontend</text>
</a>
</g>
</g>
<!-- Node2&#45;&gt;Node1 -->
<g id="edge1" class="edge">
<title>Node2&#45;&gt;Node1</title>
<path fill="none" stroke="#63b8ff" d="M2615.15,-584.01C2650.16,-578.86 2694.73,-572.3 2729.91,-567.12"/>
<polygon fill="#63b8ff" stroke="#63b8ff" points="2614.47,-580.58 2605.08,-585.5 2615.49,-587.5 2614.47,-580.58"/>
</g>
<!-- Node3 -->
<g id="node3" class="node">
<title>Node3</title>
<g id="a_node3"><a xlink:href="classccf_1_1RpcHandler.html" target="_top" xlink:title=" ">
<polygon fill="white" stroke="#666666" points="2357.5,-655 2265.5,-655 2265.5,-636 2357.5,-636 2357.5,-655"/>
<text text-anchor="middle" x="2311.5" y="-643" font-family="Helvetica,sans-Serif" font-size="10.00">ccf::RpcHandler</text>
</a>
</g>
</g>
<!-- Node3&#45;&gt;Node2 -->
<g id="edge2" class="edge">
<title>Node3&#45;&gt;Node2</title>
<path fill="none" stroke="#63b8ff" d="M2366.11,-633.81C2409.85,-624.27 2470.88,-610.96 2511.72,-602.05"/>
<polygon fill="#63b8ff" stroke="#63b8ff" points="2365.25,-630.41 2356.22,-635.96 2366.74,-637.25 2365.25,-630.41"/>
</g>
<!-- Node4 -->
<g id="node4" class="node">
<title>Node4</title>
<g id="a_node4"><a xlink:href="classccf_1_1ForwardedRpcHandler.html" target="_top" xlink:title=" ">
<polygon fill="white" stroke="#666666" points="2383,-618 2240,-618 2240,-599 2383,-599 2383,-618"/>
<text text-anchor="middle" x="2311.5" y="-606" font-family="Helvetica,sans-Serif" font-size="10.00">ccf::ForwardedRpcHandler</text>
</a>
</g>
</g>
<!-- Node4&#45;&gt;Node2 -->
<g id="edge3" class="edge">
<title>Node4&#45;&gt;Node2</title>
<path fill="none" stroke="#63b8ff" d="M2393.14,-603.19C2431.15,-600.69 2475.2,-597.79 2507.81,-595.64"/>
<polygon fill="#63b8ff" stroke="#63b8ff" points="2392.86,-599.7 2383.11,-603.85 2393.32,-606.69 2392.86,-599.7"/>
</g>
<!-- Node5 -->
<g id="node5" class="node">
<title>Node5</title>
<g id="a_node5"><a xlink:href="classkv_1_1Store.html" target="_top" xlink:title=" ">
<polygon fill="white" stroke="#666666" points="2341,-581 2282,-581 2282,-562 2341,-562 2341,-581"/>
<text text-anchor="middle" x="2311.5" y="-569" font-family="Helvetica,sans-Serif" font-size="10.00">kv::Store</text>
</a>
</g>
</g>
<!-- Node5&#45;&gt;Node2 -->
<g id="edge4" class="edge">
<title>Node5&#45;&gt;Node2</title>
<path fill="none" stroke="#9a32cd" stroke-dasharray="5,2" d="M2351.3,-574.85C2393.86,-578.53 2462.17,-584.43 2507.92,-588.39"/>
<polygon fill="#9a32cd" stroke="#9a32cd" points="2351.59,-571.37 2341.33,-573.99 2350.99,-578.34 2351.59,-571.37"/>
<text text-anchor="middle" x="2427" y="-585.5" font-family="Helvetica,sans-Serif" font-size="10.00"> tables</text>
</g>
<!-- Node6 -->
<g id="node6" class="node">
<title>Node6</title>
<g id="a_node6"><a xlink:href="classkv_1_1AbstractStore.html" target="_top" xlink:title=" ">
<polygon fill="white" stroke="#666666" points="2021,-588 1921,-588 1921,-569 2021,-569 2021,-588"/>
<text text-anchor="middle" x="1971" y="-576" font-family="Helvetica,sans-Serif" font-size="10.00">kv::AbstractStore</text>
</a>
</g>
</g>
<!-- Node6&#45;&gt;Node5 -->
<g id="edge5" class="edge">
<title>Node6&#45;&gt;Node5</title>
<path fill="none" stroke="#63b8ff" d="M2031.23,-577.28C2104.53,-575.76 2226.41,-573.24 2281.68,-572.1"/>
<polygon fill="#63b8ff" stroke="#63b8ff" points="2031.15,-573.78 2021.22,-577.48 2031.29,-580.77 2031.15,-573.78"/>
</g>
<!-- Node7 -->
<g id="node7" class="node">
<title>Node7</title>
<g id="a_node7"><a xlink:href="classkv_1_1StoreState.html" target="_top" xlink:title=" ">
<polygon fill="white" stroke="#666666" points="2013.5,-625 1928.5,-625 1928.5,-606 2013.5,-606 2013.5,-625"/>
<text text-anchor="middle" x="1971" y="-613" font-family="Helvetica,sans-Serif" font-size="10.00">kv::StoreState</text>
</a>
</g>
</g>
<!-- Node7&#45;&gt;Node5 -->
<g id="edge6" class="edge">
<title>Node7&#45;&gt;Node5</title>
<path fill="none" stroke="#63b8ff" d="M2023.77,-611.16C2074.44,-606.62 2153.74,-598.72 2222,-588.5 2242.11,-585.49 2264.62,-581.15 2281.91,-577.61"/>
<polygon fill="#63b8ff" stroke="#63b8ff" points="2023.37,-607.68 2013.71,-612.05 2023.98,-614.65 2023.37,-607.68"/>
</g>
<!-- Node8 -->
<g id="node8" class="node">
<title>Node8</title>
<g id="a_node8"><a xlink:title=" ">
<polygon fill="white" stroke="#666666" points="1645.5,-528 1576.5,-528 1576.5,-509 1645.5,-509 1645.5,-528"/>
<text text-anchor="middle" x="1611" y="-516" font-family="Helvetica,sans-Serif" font-size="10.00">std::mutex</text>
</a>
</g>
</g>
<!-- Node8&#45;&gt;Node7 -->
<g id="edge7" class="edge">
<title>Node8&#45;&gt;Node7</title>
<path fill="none" stroke="#9a32cd" stroke-dasharray="5,2" d="M1655.92,-515.61C1722.74,-512.16 1845.71,-509.82 1879,-536.5 1901.06,-554.18 1876.57,-577.97 1897,-597.5 1905.49,-605.62 1917.04,-610.25 1928.44,-612.85"/>
<polygon fill="#9a32cd" stroke="#9a32cd" points="1655.49,-512.13 1645.7,-516.17 1655.88,-519.12 1655.49,-512.13"/>
<text text-anchor="middle" x="1791" y="-561.5" font-family="Helvetica,sans-Serif" font-size="10.00"> commit_lock</text>
<text text-anchor="middle" x="1791" y="-550.5" font-family="Helvetica,sans-Serif" font-size="10.00">maps_lock</text>
<text text-anchor="middle" x="1791" y="-539.5" font-family="Helvetica,sans-Serif" font-size="10.00">version_lock</text>
</g>
<!-- Node15 -->
<g id="node15" class="node">
<title>Node15</title>
<g id="a_node15"><a xlink:href="classccf_1_1endpoints_1_1EndpointRegistry.html" target="_top" xlink:title=" ">
<polygon fill="white" stroke="#666666" points="2378,-375.5 2245,-375.5 2245,-345.5 2378,-345.5 2378,-375.5"/>
<text text-anchor="start" x="2253" y="-363.5" font-family="Helvetica,sans-Serif" font-size="10.00">ccf::endpoints::Endpoint</text>
<text text-anchor="middle" x="2311.5" y="-352.5" font-family="Helvetica,sans-Serif" font-size="10.00">Registry</text>
</a>
</g>
</g>
<!-- Node8&#45;&gt;Node15 -->
<g id="edge39" class="edge">
<title>Node8&#45;&gt;Node15</title>
<path fill="none" stroke="#9a32cd" stroke-dasharray="5,2" d="M1655.89,-517.05C1787.41,-512.42 2172.27,-496.76 2222,-470.5 2262.53,-449.09 2291.07,-400.27 2303.51,-375.5"/>
<polygon fill="#9a32cd" stroke="#9a32cd" points="1655.65,-513.55 1645.77,-517.4 1655.89,-520.55 1655.65,-513.55"/>
<text text-anchor="middle" x="1971" y="-508.5" font-family="Helvetica,sans-Serif" font-size="10.00"> metrics_lock</text>
</g>
<!-- Node9 -->
<g id="node9" class="node">
<title>Node9</title>
<g id="a_node9"><a xlink:title=" ">
<polygon fill="white" stroke="#666666" points="823,-585.5 680,-585.5 680,-533.5 823,-533.5 823,-585.5"/>
<text text-anchor="start" x="688" y="-573.5" font-family="Helvetica,sans-Serif" font-size="10.00">std::map&lt; std::string,</text>
<text text-anchor="start" x="688" y="-562.5" font-family="Helvetica,sans-Serif" font-size="10.00"> std::pair&lt; kv::Version,</text>
<text text-anchor="start" x="688" y="-551.5" font-family="Helvetica,sans-Serif" font-size="10.00"> std::shared_ptr&lt; untyped</text>
<text text-anchor="middle" x="751.5" y="-540.5" font-family="Helvetica,sans-Serif" font-size="10.00">::Map &gt; &gt; &gt;</text>
</a>
</g>
</g>
<!-- Node9&#45;&gt;Node7 -->
<g id="edge8" class="edge">
<title>Node9&#45;&gt;Node7</title>
<path fill="none" stroke="#9a32cd" stroke-dasharray="5,2" d="M833.31,-569.17C896.01,-575.83 985.14,-583.5 1063.5,-583.5 1063.5,-583.5 1063.5,-583.5 1612,-583.5 1726.97,-583.5 1861.89,-600.08 1928.49,-609.37"/>
<polygon fill="#9a32cd" stroke="#9a32cd" points="833.41,-565.66 823.09,-568.06 832.66,-572.62 833.41,-565.66"/>
<text text-anchor="middle" x="1242" y="-586.5" font-family="Helvetica,sans-Serif" font-size="10.00"> maps</text>
</g>
<!-- Node10 -->
<g id="node10" class="node">
<title>Node10</title>
<g id="a_node10"><a xlink:title=" ">
<polygon fill="white" stroke="#666666" points="320,-275 255,-275 255,-256 320,-256 320,-275"/>
<text text-anchor="middle" x="287.5" y="-263" font-family="Helvetica,sans-Serif" font-size="10.00">std::string</text>
</a>
</g>
</g>
<!-- Node10&#45;&gt;Node9 -->
<g id="edge9" class="edge">
<title>Node10&#45;&gt;Node9</title>
<path fill="none" stroke="#9a32cd" stroke-dasharray="5,2" d="M293.29,-285.02C303.39,-322.06 330.4,-402.73 383,-446.5 468.95,-518.01 599.75,-544.32 679.92,-553.96"/>
<polygon fill="#9a32cd" stroke="#9a32cd" points="296.59,-283.81 290.69,-275.02 289.82,-285.58 296.59,-283.81"/>
<text text-anchor="middle" x="428.5" y="-502.5" font-family="Helvetica,sans-Serif" font-size="10.00"> keys</text>
</g>
<!-- Node10&#45;&gt;Node15 -->
<g id="edge16" class="edge">
<title>Node10&#45;&gt;Node15</title>
<path fill="none" stroke="#9a32cd" stroke-dasharray="5,2" d="M329.97,-254.62C385.55,-241.02 487.49,-219.5 576,-219.5 576,-219.5 576,-219.5 1972,-219.5 2084.39,-219.5 2123.69,-203.04 2222,-257.5 2259.74,-278.41 2288.75,-322.06 2302.22,-345.25"/>
<polygon fill="#9a32cd" stroke="#9a32cd" points="329,-251.26 320.14,-257.06 330.69,-258.05 329,-251.26"/>
<text text-anchor="middle" x="1242" y="-222.5" font-family="Helvetica,sans-Serif" font-size="10.00"> method_prefix</text>
</g>
<!-- Node17 -->
<g id="node17" class="node">
<title>Node17</title>
<g id="a_node17"><a xlink:href="structccf_1_1endpoints_1_1EndpointRegistry_1_1OpenApiInfo.html" target="_top" xlink:title=" ">
<polygon fill="white" stroke="#666666" points="818,-449.5 685,-449.5 685,-419.5 818,-419.5 818,-449.5"/>
<text text-anchor="start" x="693" y="-437.5" font-family="Helvetica,sans-Serif" font-size="10.00">ccf::endpoints::Endpoint</text>
<text text-anchor="middle" x="751.5" y="-426.5" font-family="Helvetica,sans-Serif" font-size="10.00">Registry::OpenApiInfo</text>
</a>
</g>
</g>
<!-- Node10&#45;&gt;Node17 -->
<g id="edge18" class="edge">
<title>Node10&#45;&gt;Node17</title>
<path fill="none" stroke="#9a32cd" stroke-dasharray="5,2" d="M298.77,-283.87C313.78,-308.84 344.2,-352.84 383,-374.5 478.25,-427.68 607.61,-436.82 684.73,-436.87"/>
<polygon fill="#9a32cd" stroke="#9a32cd" points="301.68,-281.91 293.62,-275.03 295.63,-285.44 301.68,-281.91"/>
<text text-anchor="middle" x="428.5" y="-434.5" font-family="Helvetica,sans-Serif" font-size="10.00"> description</text>
<text text-anchor="middle" x="428.5" y="-423.5" font-family="Helvetica,sans-Serif" font-size="10.00">document_version</text>
<text text-anchor="middle" x="428.5" y="-412.5" font-family="Helvetica,sans-Serif" font-size="10.00">title</text>
</g>
<!-- Node20 -->
<g id="node20" class="node">
<title>Node20</title>
<g id="a_node20"><a xlink:href="structccf_1_1endpoints_1_1EndpointDefinition.html" target="_top" xlink:title=" ">
<polygon fill="white" stroke="#666666" points="1308.5,-95.5 1175.5,-95.5 1175.5,-65.5 1308.5,-65.5 1308.5,-95.5"/>
<text text-anchor="start" x="1183.5" y="-83.5" font-family="Helvetica,sans-Serif" font-size="10.00">ccf::endpoints::Endpoint</text>
<text text-anchor="middle" x="1242" y="-72.5" font-family="Helvetica,sans-Serif" font-size="10.00">Definition</text>
</a>
</g>
</g>
<!-- Node10&#45;&gt;Node20 -->
<g id="edge25" class="edge">
<title>Node10&#45;&gt;Node20</title>
<path fill="none" stroke="#9a32cd" stroke-dasharray="5,2" d="M307.87,-249.45C326.06,-235.32 354.65,-215.5 383,-205.5 507.85,-161.45 843.58,-154.51 975,-138.5 1046.63,-129.78 1068.92,-144.1 1136,-117.5 1145.17,-113.86 1145.1,-108.77 1154,-104.5 1161.06,-101.11 1168.69,-98.13 1176.38,-95.53"/>
<polygon fill="#9a32cd" stroke="#9a32cd" points="305.46,-246.89 299.82,-255.85 309.82,-252.36 305.46,-246.89"/>
<text text-anchor="middle" x="751.5" y="-164.5" font-family="Helvetica,sans-Serif" font-size="10.00"> full_uri_path</text>
</g>
<!-- Node21 -->
<g id="node21" class="node">
<title>Node21</title>
<g id="a_node21"><a xlink:href="structccf_1_1endpoints_1_1EndpointKey.html" target="_top" xlink:title=" ">
<polygon fill="white" stroke="#666666" points="652.5,-152 501.5,-152 501.5,-133 652.5,-133 652.5,-152"/>
<text text-anchor="middle" x="577" y="-140" font-family="Helvetica,sans-Serif" font-size="10.00">ccf::endpoints::EndpointKey</text>
</a>
</g>
</g>
<!-- Node10&#45;&gt;Node21 -->
<g id="edge23" class="edge">
<title>Node10&#45;&gt;Node21</title>
<path fill="none" stroke="#9a32cd" stroke-dasharray="5,2" d="M298.57,-246.83C313.34,-221.55 343.48,-177.32 383,-157.5 419.2,-139.35 464.08,-134.96 501.45,-135.4"/>
<polygon fill="#9a32cd" stroke="#9a32cd" points="295.38,-245.37 293.51,-255.79 301.47,-248.81 295.38,-245.37"/>
<text text-anchor="middle" x="428.5" y="-160.5" font-family="Helvetica,sans-Serif" font-size="10.00"> uri_path</text>
</g>
<!-- Node23 -->
<g id="node23" class="node">
<title>Node23</title>
<g id="a_node23"><a xlink:href="structccf_1_1endpoints_1_1EndpointProperties.html" target="_top" xlink:title=" ">
<polygon fill="white" stroke="#666666" points="974.5,-95.5 841.5,-95.5 841.5,-65.5 974.5,-65.5 974.5,-95.5"/>
<text text-anchor="start" x="849.5" y="-83.5" font-family="Helvetica,sans-Serif" font-size="10.00">ccf::endpoints::Endpoint</text>
<text text-anchor="middle" x="908" y="-72.5" font-family="Helvetica,sans-Serif" font-size="10.00">Properties</text>
</a>
</g>
</g>
<!-- Node10&#45;&gt;Node23 -->
<g id="edge29" class="edge">
<title>Node10&#45;&gt;Node23</title>
<path fill="none" stroke="#9a32cd" stroke-dasharray="5,2" d="M297.6,-246.58C321.24,-197.46 382.75,-69.67 383,-69.5 456.36,-21.05 717.57,-52.01 841.21,-70.11"/>
<polygon fill="#9a32cd" stroke="#9a32cd" points="294.35,-245.26 293.17,-255.79 300.66,-248.3 294.35,-245.26"/>
<text text-anchor="middle" x="577" y="-63.5" font-family="Helvetica,sans-Serif" font-size="10.00"> js_function</text>
<text text-anchor="middle" x="577" y="-52.5" font-family="Helvetica,sans-Serif" font-size="10.00">js_module</text>
</g>
<!-- Node24 -->
<g id="node24" class="node">
<title>Node24</title>
<g id="a_node24"><a xlink:title=" ">
<polygon fill="white" stroke="#666666" points="647,-115 507,-115 507,-96 647,-96 647,-115"/>
<text text-anchor="middle" x="577" y="-103" font-family="Helvetica,sans-Serif" font-size="10.00">std::vector&lt; std::string &gt;</text>
</a>
</g>
</g>
<!-- Node10&#45;&gt;Node24 -->
<g id="edge28" class="edge">
<title>Node10&#45;&gt;Node24</title>
<path fill="none" stroke="#9a32cd" stroke-dasharray="5,2" d="M294.77,-246.38C306.43,-214.27 334.74,-150.19 383,-121.5 403.45,-109.34 460.25,-105.74 506.98,-104.94"/>
<polygon fill="#9a32cd" stroke="#9a32cd" points="291.43,-245.36 291.45,-255.95 298.04,-247.65 291.43,-245.36"/>
<text text-anchor="middle" x="428.5" y="-124.5" font-family="Helvetica,sans-Serif" font-size="10.00"> elements</text>
</g>
<!-- Node29 -->
<g id="node29" class="node">
<title>Node29</title>
<g id="a_node29"><a xlink:title=" ">
<polygon fill="white" stroke="#666666" points="1136,-409 993,-409 993,-368 1136,-368 1136,-409"/>
<text text-anchor="start" x="1001" y="-397" font-family="Helvetica,sans-Serif" font-size="10.00">std::map&lt; std::string,</text>
<text text-anchor="start" x="1001" y="-386" font-family="Helvetica,sans-Serif" font-size="10.00"> std::map&lt; ccf::RESTVerb,</text>
<text text-anchor="middle" x="1064.5" y="-375" font-family="Helvetica,sans-Serif" font-size="10.00"> EndpointPtr &gt; &gt;</text>
</a>
</g>
</g>
<!-- Node10&#45;&gt;Node29 -->
<g id="edge36" class="edge">
<title>Node10&#45;&gt;Node29</title>
<path fill="none" stroke="#9a32cd" stroke-dasharray="5,2" d="M308.94,-281.22C327.26,-294.4 355.43,-312.47 383,-321.5 596.79,-391.53 866.95,-394.59 992.88,-391.46"/>
<polygon fill="#9a32cd" stroke="#9a32cd" points="310.9,-278.32 300.78,-275.21 306.75,-283.96 310.9,-278.32"/>
<text text-anchor="middle" x="577" y="-380.5" font-family="Helvetica,sans-Serif" font-size="10.00"> keys</text>
</g>
<!-- Node30 -->
<g id="node30" class="node">
<title>Node30</title>
<g id="a_node30"><a xlink:title=" ">
<polygon fill="white" stroke="#666666" points="1519,-335.5 1348,-335.5 1348,-283.5 1519,-283.5 1519,-335.5"/>
<text text-anchor="start" x="1356" y="-323.5" font-family="Helvetica,sans-Serif" font-size="10.00">std::map&lt; std::string,</text>
<text text-anchor="start" x="1356" y="-312.5" font-family="Helvetica,sans-Serif" font-size="10.00"> std::map&lt; ccf::RESTVerb,</text>
<text text-anchor="start" x="1356" y="-301.5" font-family="Helvetica,sans-Serif" font-size="10.00"> std::shared_ptr&lt; ccf::endpoints</text>
<text text-anchor="middle" x="1433.5" y="-290.5" font-family="Helvetica,sans-Serif" font-size="10.00">::PathTemplatedEndpoint &gt; &gt; &gt;</text>
</a>
</g>
</g>
<!-- Node10&#45;&gt;Node30 -->
<g id="edge38" class="edge">
<title>Node10&#45;&gt;Node30</title>
<path fill="none" stroke="#9a32cd" stroke-dasharray="5,2" d="M330.02,-275.43C385.67,-287.85 487.67,-307.5 576,-307.5 576,-307.5 576,-307.5 1065.5,-307.5 1162.35,-307.5 1273.57,-308.21 1347.96,-308.78"/>
<polygon fill="#9a32cd" stroke="#9a32cd" points="330.71,-272 320.19,-273.2 329.17,-278.83 330.71,-272"/>
<text text-anchor="middle" x="751.5" y="-310.5" font-family="Helvetica,sans-Serif" font-size="10.00"> keys</text>
</g>
<!-- Node31 -->
<g id="node31" class="node">
<title>Node31</title>
<g id="a_node31"><a xlink:title=" ">
<polygon fill="white" stroke="#666666" points="1879,-291.5 1703,-291.5 1703,-239.5 1879,-239.5 1879,-291.5"/>
<text text-anchor="start" x="1711" y="-279.5" font-family="Helvetica,sans-Serif" font-size="10.00">std::map&lt; std::string,</text>
<text text-anchor="start" x="1711" y="-268.5" font-family="Helvetica,sans-Serif" font-size="10.00"> std::map&lt; std::string,</text>
<text text-anchor="start" x="1711" y="-257.5" font-family="Helvetica,sans-Serif" font-size="10.00"> ccf::endpoints::EndpointRegistry</text>
<text text-anchor="middle" x="1791" y="-246.5" font-family="Helvetica,sans-Serif" font-size="10.00">::Metrics &gt; &gt;</text>
</a>
</g>
</g>
<!-- Node10&#45;&gt;Node31 -->
<g id="edge41" class="edge">
<title>Node10&#45;&gt;Node31</title>
<path fill="none" stroke="#9a32cd" stroke-dasharray="5,2" d="M330.65,-265.5C386.68,-265.5 488.78,-265.5 576,-265.5 576,-265.5 576,-265.5 1434.5,-265.5 1526,-265.5 1630.74,-265.5 1702.71,-265.5"/>
<polygon fill="#9a32cd" stroke="#9a32cd" points="330.41,-262 320.41,-265.5 330.41,-269 330.41,-262"/>
<text text-anchor="middle" x="908" y="-268.5" font-family="Helvetica,sans-Serif" font-size="10.00"> keys</text>
</g>
<!-- Node36 -->
<g id="node36" class="node">
<title>Node36</title>
<g id="a_node36"><a xlink:title=" ">
<polygon fill="white" stroke="#666666" points="660,-706 494,-706 494,-665 660,-665 660,-706"/>
<text text-anchor="start" x="502" y="-694" font-family="Helvetica,sans-Serif" font-size="10.00">std::map&lt; std::string,</text>
<text text-anchor="start" x="502" y="-683" font-family="Helvetica,sans-Serif" font-size="10.00"> std::shared_ptr&lt; ccf</text>
<text text-anchor="middle" x="577" y="-672" font-family="Helvetica,sans-Serif" font-size="10.00">::AbstractNodeSubSystem &gt; &gt;</text>
</a>
</g>
</g>
<!-- Node10&#45;&gt;Node36 -->
<g id="edge47" class="edge">
<title>Node10&#45;&gt;Node36</title>
<path fill="none" stroke="#9a32cd" stroke-dasharray="5,2" d="M290.66,-285.12C296.94,-334.44 318.99,-465.79 383,-551.5 421.93,-603.63 487.27,-642.82 531,-664.95"/>
<polygon fill="#9a32cd" stroke="#9a32cd" points="294.13,-284.66 289.47,-275.14 287.18,-285.49 294.13,-284.66"/>
<text text-anchor="middle" x="428.5" y="-634.5" font-family="Helvetica,sans-Serif" font-size="10.00"> keys</text>
</g>
<!-- Node11 -->
<g id="node11" class="node">
<title>Node11</title>
<g id="a_node11"><a xlink:title=" ">
<polygon fill="white" stroke="#666666" points="130.5,-280.5 26.5,-280.5 26.5,-250.5 130.5,-250.5 130.5,-280.5"/>
<text text-anchor="start" x="34.5" y="-268.5" font-family="Helvetica,sans-Serif" font-size="10.00">std::basic_string&lt;</text>
<text text-anchor="middle" x="78.5" y="-257.5" font-family="Helvetica,sans-Serif" font-size="10.00"> Char &gt;</text>
</a>
</g>
</g>
<!-- Node11&#45;&gt;Node10 -->
<g id="edge10" class="edge">
<title>Node11&#45;&gt;Node10</title>
<path fill="none" stroke="#63b8ff" d="M140.98,-265.5C178.43,-265.5 224.72,-265.5 254.89,-265.5"/>
<polygon fill="#63b8ff" stroke="#63b8ff" points="140.67,-262 130.67,-265.5 140.67,-269 140.67,-262"/>
</g>
<!-- Node12 -->
<g id="node12" class="node">
<title>Node12</title>
<g id="a_node12"><a xlink:title=" ">
<polygon fill="white" stroke="#666666" points="1678,-663.5 1544,-663.5 1544,-611.5 1678,-611.5 1678,-663.5"/>
<text text-anchor="start" x="1552" y="-651.5" font-family="Helvetica,sans-Serif" font-size="10.00">std::unordered_map</text>
<text text-anchor="start" x="1552" y="-640.5" font-family="Helvetica,sans-Serif" font-size="10.00">&lt; Version, std::tuple</text>
<text text-anchor="start" x="1552" y="-629.5" font-family="Helvetica,sans-Serif" font-size="10.00">&lt; std::unique_ptr&lt; kv</text>
<text text-anchor="middle" x="1611" y="-618.5" font-family="Helvetica,sans-Serif" font-size="10.00">::PendingTx &gt;, bool &gt; &gt;</text>
</a>
</g>
</g>
<!-- Node12&#45;&gt;Node7 -->
<g id="edge11" class="edge">
<title>Node12&#45;&gt;Node7</title>
<path fill="none" stroke="#9a32cd" stroke-dasharray="5,2" d="M1688.18,-632.82C1761.5,-628.31 1869.62,-621.67 1928.35,-618.06"/>
<polygon fill="#9a32cd" stroke="#9a32cd" points="1687.85,-629.33 1678.08,-633.44 1688.28,-636.32 1687.85,-629.33"/>
<text text-anchor="middle" x="1791" y="-634.5" font-family="Helvetica,sans-Serif" font-size="10.00"> pending_txs</text>
</g>
<!-- Node13 -->
<g id="node13" class="node">
<title>Node13</title>
<g id="a_node13"><a xlink:href="classkv_1_1ExecutionWrapperStore.html" target="_top" xlink:title=" ">
<polygon fill="white" stroke="#666666" points="2045,-551 1897,-551 1897,-532 2045,-532 2045,-551"/>
<text text-anchor="middle" x="1971" y="-539" font-family="Helvetica,sans-Serif" font-size="10.00">kv::ExecutionWrapperStore</text>
</a>
</g>
</g>
<!-- Node13&#45;&gt;Node5 -->
<g id="edge12" class="edge">
<title>Node13&#45;&gt;Node5</title>
<path fill="none" stroke="#63b8ff" d="M2055.23,-548.88C2128.92,-555.41 2232.26,-564.57 2281.8,-568.96"/>
<polygon fill="#63b8ff" stroke="#63b8ff" points="2055.3,-545.37 2045.03,-547.97 2054.68,-552.34 2055.3,-545.37"/>
</g>
<!-- Node14 -->
<g id="node14" class="node">
<title>Node14</title>
<g id="a_node14"><a xlink:href="classkv_1_1ReadOnlyStore.html" target="_top" xlink:title=" ">
<polygon fill="white" stroke="#666666" points="2024.5,-662 1917.5,-662 1917.5,-643 2024.5,-643 2024.5,-662"/>
<text text-anchor="middle" x="1971" y="-650" font-family="Helvetica,sans-Serif" font-size="10.00">kv::ReadOnlyStore</text>
</a>
</g>
</g>
<!-- Node14&#45;&gt;Node5 -->
<g id="edge13" class="edge">
<title>Node14&#45;&gt;Node5</title>
<path fill="none" stroke="#63b8ff" d="M2035.02,-653.88C2088.08,-652.41 2164.32,-643.94 2222,-611.5 2232.71,-605.47 2229.6,-597.06 2240,-590.5 2252.54,-582.59 2268.35,-577.94 2281.81,-575.22"/>
<polygon fill="#63b8ff" stroke="#63b8ff" points="2034.66,-650.39 2024.73,-654.09 2034.8,-657.39 2034.66,-650.39"/>
</g>
<!-- Node15&#45;&gt;Node2 -->
<g id="edge14" class="edge">
<title>Node15&#45;&gt;Node2</title>
<path fill="none" stroke="#9a32cd" stroke-dasharray="5,2" d="M2325.44,-384.67C2349.01,-426.5 2402.83,-512.58 2471,-561.5 2484.46,-571.16 2501.26,-578.13 2516.33,-582.99"/>
<polygon fill="#9a32cd" stroke="#9a32cd" points="2328.4,-382.79 2320.49,-375.74 2322.28,-386.18 2328.4,-382.79"/>
<text text-anchor="middle" x="2427" y="-546.5" font-family="Helvetica,sans-Serif" font-size="10.00"> endpoints</text>
</g>
<!-- Node39 -->
<g id="node39" class="node">
<title>Node39</title>
<g id="a_node39"><a xlink:title=" ">
<polygon fill="white" stroke="#666666" points="2642,-552.5 2471,-552.5 2471,-522.5 2642,-522.5 2642,-552.5"/>
<text text-anchor="start" x="2479" y="-540.5" font-family="Helvetica,sans-Serif" font-size="10.00">std::unique_ptr&lt; ccf</text>
<text text-anchor="middle" x="2556.5" y="-529.5" font-family="Helvetica,sans-Serif" font-size="10.00">::endpoints::EndpointRegistry &gt;</text>
</a>
</g>
</g>
<!-- Node15&#45;&gt;Node39 -->
<g id="edge51" class="edge">
<title>Node15&#45;&gt;Node39</title>
<path fill="none" stroke="#9a32cd" stroke-dasharray="5,2" d="M2341.3,-381.48C2390.95,-417.64 2491.48,-490.87 2534.83,-522.45"/>
<polygon fill="#9a32cd" stroke="#9a32cd" points="2343.36,-378.65 2333.22,-375.59 2339.24,-384.31 2343.36,-378.65"/>
<text text-anchor="middle" x="2427" y="-462.5" font-family="Helvetica,sans-Serif" font-size="10.00"> ptr</text>
</g>
<!-- Node16 -->
<g id="node16" class="node">
<title>Node16</title>
<g id="a_node16"><a xlink:href="structccf_1_1endpoints_1_1Endpoint_1_1Installer.html" target="_top" xlink:title=" ">
<polygon fill="white" stroke="#666666" points="1308.5,-182.5 1175.5,-182.5 1175.5,-152.5 1308.5,-152.5 1308.5,-182.5"/>
<text text-anchor="start" x="1183.5" y="-170.5" font-family="Helvetica,sans-Serif" font-size="10.00">ccf::endpoints::Endpoint</text>
<text text-anchor="middle" x="1242" y="-159.5" font-family="Helvetica,sans-Serif" font-size="10.00">::Installer</text>
</a>
</g>
</g>
<!-- Node16&#45;&gt;Node15 -->
<g id="edge15" class="edge">
<title>Node16&#45;&gt;Node15</title>
<path fill="none" stroke="#63b8ff" d="M1319.09,-168.45C1542.54,-171.49 2183.62,-182.21 2222,-205.5 2274.45,-237.33 2298.71,-312.64 2307.01,-345.14"/>
<polygon fill="#63b8ff" stroke="#63b8ff" points="1318.81,-164.94 1308.77,-168.31 1318.72,-171.94 1318.81,-164.94"/>
</g>
<!-- Node19 -->
<g id="node19" class="node">
<title>Node19</title>
<g id="a_node19"><a xlink:href="structccf_1_1endpoints_1_1Endpoint.html" target="_top" xlink:title=" ">
<polygon fill="white" stroke="#666666" points="1677.5,-133 1544.5,-133 1544.5,-114 1677.5,-114 1677.5,-133"/>
<text text-anchor="middle" x="1611" y="-121" font-family="Helvetica,sans-Serif" font-size="10.00">ccf::endpoints::Endpoint</text>
</a>
</g>
</g>
<!-- Node16&#45;&gt;Node19 -->
<g id="edge33" class="edge">
<title>Node16&#45;&gt;Node19</title>
<path fill="none" stroke="#9a32cd" stroke-dasharray="5,2" d="M1318.62,-158.43C1385.13,-150.46 1480.98,-138.97 1544.34,-131.37"/>
<polygon fill="#9a32cd" stroke="#9a32cd" points="1318.12,-154.97 1308.61,-159.63 1318.96,-161.92 1318.12,-154.97"/>
<text text-anchor="middle" x="1433.5" y="-157.5" font-family="Helvetica,sans-Serif" font-size="10.00"> installer</text>
</g>
<!-- Node17&#45;&gt;Node15 -->
<g id="edge17" class="edge">
<title>Node17&#45;&gt;Node15</title>
<path fill="none" stroke="#9a32cd" stroke-dasharray="5,2" d="M828.19,-436.75C1027.48,-442.18 1583.15,-453.97 2045,-432.5 2123.9,-428.83 2147.2,-441.88 2222,-416.5 2248.69,-407.44 2275.5,-388.82 2292.51,-375.54"/>
<polygon fill="#9a32cd" stroke="#9a32cd" points="828.21,-433.25 818.12,-436.48 828.02,-440.25 828.21,-433.25"/>
<text text-anchor="middle" x="1433.5" y="-447.5" font-family="Helvetica,sans-Serif" font-size="10.00"> openapi_info</text>
</g>
<!-- Node18 -->
<g id="node18" class="node">
<title>Node18</title>
<g id="a_node18"><a xlink:title=" ">
<polygon fill="white" stroke="#666666" points="2034.5,-150.5 1907.5,-150.5 1907.5,-120.5 2034.5,-120.5 2034.5,-150.5"/>
<text text-anchor="start" x="1915.5" y="-138.5" font-family="Helvetica,sans-Serif" font-size="10.00">std::shared_ptr&lt; const</text>
<text text-anchor="middle" x="1971" y="-127.5" font-family="Helvetica,sans-Serif" font-size="10.00"> Endpoint &gt;</text>
</a>
</g>
</g>
<!-- Node18&#45;&gt;Node15 -->
<g id="edge19" class="edge">
<title>Node18&#45;&gt;Node15</title>
<path fill="none" stroke="#9a32cd" stroke-dasharray="5,2" d="M2044.72,-123.01C2098.58,-117.86 2171.14,-119.99 2222,-156.5 2286.45,-202.77 2304.45,-306.21 2309.05,-345.22"/>
<polygon fill="#9a32cd" stroke="#9a32cd" points="2044.13,-119.55 2034.55,-124.09 2044.87,-126.51 2044.13,-119.55"/>
<text text-anchor="middle" x="2142.5" y="-159.5" font-family="Helvetica,sans-Serif" font-size="10.00"> default_endpoint</text>
</g>
<!-- Node19&#45;&gt;Node18 -->
<g id="edge20" class="edge">
<title>Node19&#45;&gt;Node18</title>
<path fill="none" stroke="#9a32cd" stroke-dasharray="5,2" d="M1687.9,-126.04C1753.22,-128.23 1846.34,-131.35 1907.45,-133.4"/>
<polygon fill="#9a32cd" stroke="#9a32cd" points="1687.77,-122.54 1677.66,-125.7 1687.54,-129.53 1687.77,-122.54"/>
<text text-anchor="middle" x="1791" y="-135.5" font-family="Helvetica,sans-Serif" font-size="10.00"> ptr</text>
</g>
<!-- Node20&#45;&gt;Node19 -->
<g id="edge21" class="edge">
<title>Node20&#45;&gt;Node19</title>
<path fill="none" stroke="#63b8ff" d="M1318.62,-89.36C1385.13,-97.15 1480.98,-108.38 1544.34,-115.81"/>
<polygon fill="#63b8ff" stroke="#63b8ff" points="1318.95,-85.88 1308.61,-88.19 1318.14,-92.83 1318.95,-85.88"/>
</g>
<!-- Node21&#45;&gt;Node20 -->
<g id="edge22" class="edge">
<title>Node21&#45;&gt;Node20</title>
<path fill="none" stroke="#9a32cd" stroke-dasharray="5,2" d="M662.59,-136.91C772.04,-129.32 968.56,-114.5 1136,-95.5 1148.72,-94.06 1162.27,-92.29 1175.26,-90.49"/>
<polygon fill="#9a32cd" stroke="#9a32cd" points="662.33,-133.41 652.6,-137.59 662.81,-140.4 662.33,-133.41"/>
<text text-anchor="middle" x="908" y="-126.5" font-family="Helvetica,sans-Serif" font-size="10.00"> dispatch</text>
</g>
<!-- Node22 -->
<g id="node22" class="node">
<title>Node22</title>
<g id="a_node22"><a xlink:href="classccf_1_1RESTVerb.html" target="_top" xlink:title=" ">
<polygon fill="white" stroke="#666666" points="329,-98 246,-98 246,-79 329,-79 329,-98"/>
<text text-anchor="middle" x="287.5" y="-86" font-family="Helvetica,sans-Serif" font-size="10.00">ccf::RESTVerb</text>
</a>
</g>
</g>
<!-- Node22&#45;&gt;Node21 -->
<g id="edge24" class="edge">
<title>Node22&#45;&gt;Node21</title>
<path fill="none" stroke="#9a32cd" stroke-dasharray="5,2" d="M332.04,-76.84C371.95,-68.76 431.18,-63.56 474,-89.5 488.62,-98.36 478.42,-113.11 492,-123.5 496.99,-127.32 502.6,-130.39 508.5,-132.87"/>
<polygon fill="#9a32cd" stroke="#9a32cd" points="331.11,-73.46 322.08,-79 332.6,-80.3 331.11,-73.46"/>
<text text-anchor="middle" x="428.5" y="-92.5" font-family="Helvetica,sans-Serif" font-size="10.00"> verb</text>
</g>
<!-- Node23&#45;&gt;Node20 -->
<g id="edge26" class="edge">
<title>Node23&#45;&gt;Node20</title>
<path fill="none" stroke="#9a32cd" stroke-dasharray="5,2" d="M984.71,-80.5C1042.18,-80.5 1120.4,-80.5 1175.26,-80.5"/>
<polygon fill="#9a32cd" stroke="#9a32cd" points="984.59,-77 974.59,-80.5 984.59,-84 984.59,-77"/>
<text text-anchor="middle" x="1064.5" y="-83.5" font-family="Helvetica,sans-Serif" font-size="10.00"> properties</text>
</g>
<!-- Node24&#45;&gt;Node23 -->
<g id="edge27" class="edge">
<title>Node24&#45;&gt;Node23</title>
<path fill="none" stroke="#9a32cd" stroke-dasharray="5,2" d="M657.66,-99.45C713.95,-95.17 788.49,-89.51 841.37,-85.49"/>
<polygon fill="#9a32cd" stroke="#9a32cd" points="657.08,-95.98 647.37,-100.23 657.61,-102.96 657.08,-95.98"/>
<text text-anchor="middle" x="751.5" y="-100.5" font-family="Helvetica,sans-Serif" font-size="10.00"> authn_policies</text>
</g>
<!-- Node25 -->
<g id="node25" class="node">
<title>Node25</title>
<g id="a_node25"><a xlink:title=" ">
<polygon fill="white" stroke="#666666" points="975,-36.5 841,-36.5 841,-6.5 975,-6.5 975,-36.5"/>
<text text-anchor="start" x="849" y="-24.5" font-family="Helvetica,sans-Serif" font-size="10.00">std::vector&lt; std::shared</text>
<text text-anchor="middle" x="908" y="-13.5" font-family="Helvetica,sans-Serif" font-size="10.00">_ptr&lt; AuthnPolicy &gt; &gt;</text>
</a>
</g>
</g>
<!-- Node25&#45;&gt;Node20 -->
<g id="edge30" class="edge">
<title>Node25&#45;&gt;Node20</title>
<path fill="none" stroke="#9a32cd" stroke-dasharray="5,2" d="M985.5,-35.09C1042.9,-45.3 1120.68,-59.12 1175.29,-68.82"/>
<polygon fill="#9a32cd" stroke="#9a32cd" points="985.85,-31.6 975.39,-33.3 984.62,-38.49 985.85,-31.6"/>
<text text-anchor="middle" x="1064.5" y="-64.5" font-family="Helvetica,sans-Serif" font-size="10.00"> authn_policies</text>
</g>
<!-- Node26 -->
<g id="node26" class="node">
<title>Node26</title>
<g id="a_node26"><a xlink:title=" ">
<polygon fill="white" stroke="#666666" points="662,-19 492,-19 492,0 662,0 662,-19"/>
<text text-anchor="middle" x="577" y="-7" font-family="Helvetica,sans-Serif" font-size="10.00">std::shared_ptr&lt; AuthnPolicy &gt;</text>
</a>
</g>
</g>
<!-- Node26&#45;&gt;Node25 -->
<g id="edge31" class="edge">
<title>Node26&#45;&gt;Node25</title>
<path fill="none" stroke="#9a32cd" stroke-dasharray="5,2" d="M672.55,-12.95C726.4,-14.91 792.53,-17.32 840.82,-19.09"/>
<polygon fill="#9a32cd" stroke="#9a32cd" points="672.42,-9.44 662.3,-12.57 672.16,-16.44 672.42,-9.44"/>
<text text-anchor="middle" x="751.5" y="-21.5" font-family="Helvetica,sans-Serif" font-size="10.00"> elements</text>
</g>
<!-- Node27 -->
<g id="node27" class="node">
<title>Node27</title>
<g id="a_node27"><a xlink:href="classccf_1_1AuthnPolicy.html" target="_top" xlink:title=" ">
<polygon fill="white" stroke="#666666" points="334.5,-19 240.5,-19 240.5,0 334.5,0 334.5,-19"/>
<text text-anchor="middle" x="287.5" y="-7" font-family="Helvetica,sans-Serif" font-size="10.00">ccf::AuthnPolicy</text>
</a>
</g>
</g>
<!-- Node27&#45;&gt;Node26 -->
<g id="edge32" class="edge">
<title>Node27&#45;&gt;Node26</title>
<path fill="none" stroke="#9a32cd" stroke-dasharray="5,2" d="M344.71,-9.5C386.62,-9.5 444.54,-9.5 491.94,-9.5"/>
<polygon fill="#9a32cd" stroke="#9a32cd" points="344.69,-6 334.69,-9.5 344.69,-13 344.69,-6"/>
<text text-anchor="middle" x="428.5" y="-12.5" font-family="Helvetica,sans-Serif" font-size="10.00"> ptr</text>
</g>
<!-- Node28 -->
<g id="node28" class="node">
<title>Node28</title>
<g id="a_node28"><a xlink:title=" ">
<polygon fill="white" stroke="#666666" points="1330,-133 1154,-133 1154,-114 1330,-114 1330,-133"/>
<text text-anchor="middle" x="1242" y="-121" font-family="Helvetica,sans-Serif" font-size="10.00">std::vector&lt; SchemaBuilderFn &gt;</text>
</a>
</g>
</g>
<!-- Node28&#45;&gt;Node19 -->
<g id="edge34" class="edge">
<title>Node28&#45;&gt;Node19</title>
<path fill="none" stroke="#9a32cd" stroke-dasharray="5,2" d="M1340.25,-122.54C1342.86,-122.53 1345.45,-122.51 1348,-122.5 1424,-122.14 1443,-122.08 1519,-122.5 1527.22,-122.55 1535.85,-122.61 1544.39,-122.69"/>
<polygon fill="#9a32cd" stroke="#9a32cd" points="1340.07,-119.04 1330.09,-122.61 1340.11,-126.04 1340.07,-119.04"/>
<text text-anchor="middle" x="1433.5" y="-125.5" font-family="Helvetica,sans-Serif" font-size="10.00"> schema_builders</text>
</g>
<!-- Node29&#45;&gt;Node15 -->
<g id="edge35" class="edge">
<title>Node29&#45;&gt;Node15</title>
<path fill="none" stroke="#9a32cd" stroke-dasharray="5,2" d="M1146.27,-398.91C1220.53,-407.58 1333.74,-418.5 1432.5,-418.5 1432.5,-418.5 1432.5,-418.5 1972,-418.5 2083.86,-418.5 2112.74,-413.48 2222,-389.5 2238.11,-385.96 2255.43,-380.64 2270.44,-375.52"/>
<polygon fill="#9a32cd" stroke="#9a32cd" points="1146.4,-395.4 1136.06,-397.7 1145.58,-402.35 1146.4,-395.4"/>
<text text-anchor="middle" x="1611" y="-421.5" font-family="Helvetica,sans-Serif" font-size="10.00"> fully_qualified_endpoints</text>
</g>
<!-- Node30&#45;&gt;Node15 -->
<g id="edge37" class="edge">
<title>Node30&#45;&gt;Node15</title>
<path fill="none" stroke="#9a32cd" stroke-dasharray="5,2" d="M1529.48,-315.03C1708.47,-325.45 2091.48,-347.75 2244.93,-356.68"/>
<polygon fill="#9a32cd" stroke="#9a32cd" points="1529.48,-311.52 1519.29,-314.44 1529.07,-318.51 1529.48,-311.52"/>
<text text-anchor="middle" x="1791" y="-338.5" font-family="Helvetica,sans-Serif" font-size="10.00"> templated_endpoints</text>
</g>
<!-- Node31&#45;&gt;Node15 -->
<g id="edge40" class="edge">
<title>Node31&#45;&gt;Node15</title>
<path fill="none" stroke="#9a32cd" stroke-dasharray="5,2" d="M1889.5,-256.72C1979.09,-252.32 2113.97,-255.11 2222,-297.5 2250.27,-308.59 2277.98,-330.65 2294.66,-345.49"/>
<polygon fill="#9a32cd" stroke="#9a32cd" points="1889.15,-253.24 1879.35,-257.26 1889.52,-260.23 1889.15,-253.24"/>
<text text-anchor="middle" x="1971" y="-262.5" font-family="Helvetica,sans-Serif" font-size="10.00"> metrics</text>
</g>
<!-- Node32 -->
<g id="node32" class="node">
<title>Node32</title>
<g id="a_node32"><a xlink:href="classkv_1_1Consensus.html" target="_top" xlink:title=" ">
<polygon fill="white" stroke="#666666" points="2014,-390 1928,-390 1928,-371 2014,-371 2014,-390"/>
<text text-anchor="middle" x="1971" y="-378" font-family="Helvetica,sans-Serif" font-size="10.00">kv::Consensus</text>
</a>
</g>
</g>
<!-- Node32&#45;&gt;Node15 -->
<g id="edge42" class="edge">
<title>Node32&#45;&gt;Node15</title>
<path fill="none" stroke="#9a32cd" stroke-dasharray="5,2" d="M2024.45,-377.4C2083.78,-373.9 2180.47,-368.18 2244.78,-364.38"/>
<polygon fill="#9a32cd" stroke="#9a32cd" points="2023.96,-373.92 2014.19,-378.01 2024.38,-380.91 2023.96,-373.92"/>
<text text-anchor="middle" x="2142.5" y="-377.5" font-family="Helvetica,sans-Serif" font-size="10.00"> consensus</text>
</g>
<!-- Node33 -->
<g id="node33" class="node">
<title>Node33</title>
<g id="a_node33"><a xlink:href="classkv_1_1ConfigurableConsensus.html" target="_top" xlink:title=" ">
<polygon fill="white" stroke="#666666" points="1685,-382 1537,-382 1537,-363 1685,-363 1685,-382"/>
<text text-anchor="middle" x="1611" y="-370" font-family="Helvetica,sans-Serif" font-size="10.00">kv::ConfigurableConsensus</text>
</a>
</g>
</g>
<!-- Node33&#45;&gt;Node32 -->
<g id="edge43" class="edge">
<title>Node33&#45;&gt;Node32</title>
<path fill="none" stroke="#63b8ff" d="M1695.38,-374.36C1768.21,-375.99 1870.92,-378.29 1927.85,-379.56"/>
<polygon fill="#63b8ff" stroke="#63b8ff" points="1695.39,-370.86 1685.31,-374.14 1695.23,-377.86 1695.39,-370.86"/>
</g>
<!-- Node34 -->
<g id="node34" class="node">
<title>Node34</title>
<g id="a_node34"><a xlink:href="classkv_1_1TxHistory.html" target="_top" xlink:title=" ">
<polygon fill="white" stroke="#666666" points="2011.5,-314 1930.5,-314 1930.5,-295 2011.5,-295 2011.5,-314"/>
<text text-anchor="middle" x="1971" y="-302" font-family="Helvetica,sans-Serif" font-size="10.00">kv::TxHistory</text>
</a>
</g>
</g>
<!-- Node34&#45;&gt;Node15 -->
<g id="edge44" class="edge">
<title>Node34&#45;&gt;Node15</title>
<path fill="none" stroke="#9a32cd" stroke-dasharray="5,2" d="M2021.82,-301.33C2072.91,-299.4 2154.28,-300.05 2222,-317.5 2244.99,-323.42 2269.11,-335.59 2286.35,-345.48"/>
<polygon fill="#9a32cd" stroke="#9a32cd" points="2021.55,-297.84 2011.7,-301.76 2021.84,-304.83 2021.55,-297.84"/>
<text text-anchor="middle" x="2142.5" y="-320.5" font-family="Helvetica,sans-Serif" font-size="10.00"> history</text>
</g>
<!-- Node35 -->
<g id="node35" class="node">
<title>Node35</title>
<g id="a_node35"><a xlink:href="structccfapp_1_1AbstractNodeContext.html" target="_top" xlink:title=" ">
<polygon fill="white" stroke="#666666" points="2222,-701 2063,-701 2063,-682 2222,-682 2222,-701"/>
<text text-anchor="middle" x="2142.5" y="-689" font-family="Helvetica,sans-Serif" font-size="10.00">ccfapp::AbstractNodeContext</text>
</a>
</g>
</g>
<!-- Node35&#45;&gt;Node2 -->
<g id="edge45" class="edge">
<title>Node35&#45;&gt;Node2</title>
<path fill="none" stroke="#9a32cd" stroke-dasharray="5,2" d="M2232.34,-687.49C2277.94,-683.93 2334.05,-677.2 2383,-664.5 2441.74,-649.26 2506.71,-617.87 2537.46,-602.05"/>
<polygon fill="#9a32cd" stroke="#9a32cd" points="2231.89,-684.01 2222.18,-688.24 2232.41,-690.99 2231.89,-684.01"/>
<text text-anchor="middle" x="2311.5" y="-689.5" font-family="Helvetica,sans-Serif" font-size="10.00"> node_context</text>
</g>
<!-- Node36&#45;&gt;Node35 -->
<g id="edge46" class="edge">
<title>Node36&#45;&gt;Node35</title>
<path fill="none" stroke="#9a32cd" stroke-dasharray="5,2" d="M670.49,-688.09C736.42,-689.71 827.15,-691.5 907,-691.5 907,-691.5 907,-691.5 1792,-691.5 1884.99,-691.5 1991.89,-691.5 2062.73,-691.5"/>
<polygon fill="#9a32cd" stroke="#9a32cd" points="670.21,-684.58 660.13,-687.83 670.04,-691.58 670.21,-684.58"/>
<text text-anchor="middle" x="1242" y="-694.5" font-family="Helvetica,sans-Serif" font-size="10.00"> subsystems</text>
</g>
<!-- Node37 -->
<g id="node37" class="node">
<title>Node37</title>
<g id="a_node37"><a xlink:title=" ">
<polygon fill="white" stroke="#666666" points="365,-700.5 210,-700.5 210,-670.5 365,-670.5 365,-700.5"/>
<text text-anchor="start" x="218" y="-688.5" font-family="Helvetica,sans-Serif" font-size="10.00">std::shared_ptr&lt; ccf</text>
<text text-anchor="middle" x="287.5" y="-677.5" font-family="Helvetica,sans-Serif" font-size="10.00">::AbstractNodeSubSystem &gt;</text>
</a>
</g>
</g>
<!-- Node37&#45;&gt;Node36 -->
<g id="edge48" class="edge">
<title>Node37&#45;&gt;Node36</title>
<path fill="none" stroke="#9a32cd" stroke-dasharray="5,2" d="M375.58,-685.5C413.11,-685.5 456.78,-685.5 493.75,-685.5"/>
<polygon fill="#9a32cd" stroke="#9a32cd" points="375.17,-682 365.17,-685.5 375.17,-689 375.17,-682"/>
<text text-anchor="middle" x="428.5" y="-688.5" font-family="Helvetica,sans-Serif" font-size="10.00"> elements</text>
</g>
<!-- Node38 -->
<g id="node38" class="node">
<title>Node38</title>
<g id="a_node38"><a xlink:href="classccf_1_1AbstractNodeSubSystem.html" target="_top" xlink:title=" ">
<polygon fill="white" stroke="#666666" points="157,-695 0,-695 0,-676 157,-676 157,-695"/>
<text text-anchor="middle" x="78.5" y="-683" font-family="Helvetica,sans-Serif" font-size="10.00">ccf::AbstractNodeSubSystem</text>
</a>
</g>
</g>
<!-- Node38&#45;&gt;Node37 -->
<g id="edge49" class="edge">
<title>Node38&#45;&gt;Node37</title>
<path fill="none" stroke="#9a32cd" stroke-dasharray="5,2" d="M167.35,-685.5C181.46,-685.5 195.96,-685.5 209.77,-685.5"/>
<polygon fill="#9a32cd" stroke="#9a32cd" points="167.17,-682 157.17,-685.5 167.17,-689 167.17,-682"/>
<text text-anchor="middle" x="183.5" y="-688.5" font-family="Helvetica,sans-Serif" font-size="10.00"> ptr</text>
</g>
<!-- Node39&#45;&gt;Node1 -->
<g id="edge50" class="edge">
<title>Node39&#45;&gt;Node1</title>
<path fill="none" stroke="#9a32cd" stroke-dasharray="5,2" d="M2652.34,-545.18C2672.07,-546.86 2692.72,-548.68 2712,-550.5 2717.72,-551.04 2723.67,-551.62 2729.62,-552.22"/>
<polygon fill="#9a32cd" stroke="#9a32cd" points="2652.38,-541.67 2642.12,-544.31 2651.79,-548.64 2652.38,-541.67"/>
<text text-anchor="middle" x="2686" y="-553.5" font-family="Helvetica,sans-Serif" font-size="10.00"> endpoints</text>
</g>
</g>
</svg>
        <g id="navigator" transform="translate(0 0)" fill="#404254">
                <rect fill="#f2f5e9" fill-opacity="0.5" stroke="#606060" stroke-width=".5" x="0" y="0" width="60" height="60"/>
                <use id="zoomplus" xlink:href="#zoomPlus" x="17" y="9" onmousedown="handleZoom(evt,'in')"/>
                <use id="zoomminus" xlink:href="#zoomMin" x="42" y="9" onmousedown="handleZoom(evt,'out')"/>
                <use id="reset" xlink:href="#resetDef" x="30" y="36" onmousedown="handleReset()"/>
                <g id="arrowUp" xlink:href="#dirArrow" transform="translate(30 24)" onmousedown="handlePan(0,-1)">
                  <use xlink:href="#rim" fill="#404040">
                        <set attributeName="fill" to="#808080" begin="arrowUp.mouseover" end="arrowUp.mouseout"/>
                  </use>
                  <path fill="none" stroke="white" stroke-width="1.5" d="M0,-3.0v7 M-2.5,-0.5L0,-3.0L2.5,-0.5"/>
                </g>
                <g id="arrowRight" xlink:href="#dirArrow" transform="rotate(90) translate(36 -43)" onmousedown="handlePan(1,0)">
                  <use xlink:href="#rim" fill="#404040">
                        <set attributeName="fill" to="#808080" begin="arrowRight.mouseover" end="arrowRight.mouseout"/>
                  </use>
                  <path fill="none" stroke="white" stroke-width="1.5" d="M0,-3.0v7 M-2.5,-0.5L0,-3.0L2.5,-0.5"/>
                </g>
                <g id="arrowDown" xlink:href="#dirArrow" transform="rotate(180) translate(-30 -48)" onmousedown="handlePan(0,1)">
                  <use xlink:href="#rim" fill="#404040">
                        <set attributeName="fill" to="#808080" begin="arrowDown.mouseover" end="arrowDown.mouseout"/>
                  </use>
                  <path fill="none" stroke="white" stroke-width="1.5" d="M0,-3.0v7 M-2.5,-0.5L0,-3.0L2.5,-0.5"/>
                </g>
                <g id="arrowLeft" xlink:href="#dirArrow" transform="rotate(270) translate(-36 17)" onmousedown="handlePan(-1,0)">
                  <use xlink:href="#rim" fill="#404040">
                        <set attributeName="fill" to="#808080" begin="arrowLeft.mouseover" end="arrowLeft.mouseout"/>
                  </use>
                  <path fill="none" stroke="white" stroke-width="1.5" d="M0,-3.0v7 M-2.5,-0.5L0,-3.0L2.5,-0.5"/>
                </g>
        </g>
        <svg viewBox="0 0 15 15" width="100%" height="30px" preserveAspectRatio="xMaxYMin meet">
         <g id="arrow_out" transform="scale(0.3 0.3)">
          <a xlink:href="classccf_1_1UserRpcFrontend__coll__graph_org.svg" target="_base">
           <rect id="button" ry="5" rx="5" y="6" x="6" height="38" width="38"
                fill="#f2f5e9" fill-opacity="0.5" stroke="#606060" stroke-width="1.0"/>
           <path id="arrow"
             d="M 11.500037,31.436501 C 11.940474,20.09759 22.043105,11.32322 32.158766,21.979434 L 37.068811,17.246167 C 37.068811,17.246167 37.088388,32 37.088388,32 L 22.160133,31.978069 C 22.160133,31.978069 26.997745,27.140456 26.997745,27.140456 C 18.528582,18.264221 13.291696,25.230495 11.500037,31.436501 z"
             style="fill:#404040;"/>
          </a>
         </g>
        </svg>
</svg>
