<?xml version="1.0" encoding="UTF-8" standalone="no"?>
<!DOCTYPE svg PUBLIC "-//W3C//DTD SVG 1.1//EN"
 "http://www.w3.org/Graphics/SVG/1.1/DTD/svg11.dtd">
<!-- Generated by graphviz version 2.43.0 (0)
 -->
<!-- Title: client::TlsClient Pages: 1 -->
<!--zoomable 242 -->
<svg id="main" version="1.1" xmlns="http://www.w3.org/2000/svg" xmlns:xlink="http://www.w3.org/1999/xlink" xml:space="preserve" onload="init(evt)">
<style type="text/css"><![CDATA[
.edge:hover path { stroke: red; }
.edge:hover polygon { stroke: red; fill: red; }
]]></style>
<script type="text/javascript"><![CDATA[
var edges = document.getElementsByTagName('g');
if (edges && edges.length) {
  for (var i=0;i<edges.length;i++) {
    if (edges[i].id.substr(0,4)=='edge') {
      edges[i].setAttribute('class','edge');
    }
  }
}
]]></script>
        <defs>
                <circle id="rim" cx="0" cy="0" r="7"/>
                <circle id="rim2" cx="0" cy="0" r="3.5"/>
                <g id="zoomPlus">
                        <use xlink:href="#rim" fill="#404040">
                                <set attributeName="fill" to="#808080" begin="zoomplus.mouseover" end="zoomplus.mouseout"/>
                        </use>
                        <path d="M-4,0h8M0,-4v8" fill="none" stroke="white" stroke-width="1.5" pointer-events="none"/>
                </g>
                <g id="zoomMin">
                        <use xlink:href="#rim" fill="#404040">
                                <set attributeName="fill" to="#808080" begin="zoomminus.mouseover" end="zoomminus.mouseout"/>
                        </use>
                        <path d="M-4,0h8" fill="none" stroke="white" stroke-width="1.5" pointer-events="none"/>
                </g>
                <g id="dirArrow">
                        <path fill="none" stroke="white" stroke-width="1.5" d="M0,-3.0v7 M-2.5,-0.5L0,-3.0L2.5,-0.5"/>
                </g>
               <g id="resetDef">
                       <use xlink:href="#rim2" fill="#404040">
                               <set attributeName="fill" to="#808080" begin="reset.mouseover" end="reset.mouseout"/>
                       </use>
               </g>
        </defs>

<script type="text/javascript">
var viewWidth = 734;
var viewHeight = 242;
var sectionId = 'dynsection-0';
</script>
<script xlink:href="svgpan.js"/>
<svg id="graph" class="graph">
<g id="viewport">
<title>client::TlsClient</title>
<!-- Node1 -->
<g id="node1" class="node">
<title>Node1</title>
<g id="a_node1"><a xlink:title=" ">
<polygon fill="#999999" stroke="#666666" points="726,-137 634,-137 634,-118 726,-118 726,-137"/>
<text text-anchor="middle" x="680" y="-125" font-family="Helvetica,sans-Serif" font-size="10.00">client::TlsClient</text>
</a>
</g>
</g>
<!-- Node2 -->
<g id="node2" class="node">
<title>Node2</title>
<g id="a_node2"><a xlink:title=" ">
<polygon fill="white" stroke="#666666" points="507,-228 442,-228 442,-209 507,-209 507,-228"/>
<text text-anchor="middle" x="474.5" y="-216" font-family="Helvetica,sans-Serif" font-size="10.00">std::string</text>
</a>
</g>
</g>
<!-- Node2&#45;&gt;Node1 -->
<g id="edge1" class="edge">
<title>Node2&#45;&gt;Node1</title>
<path fill="none" stroke="#9a32cd" stroke-dasharray="5,2" d="M517.18,-210.37C529.24,-207.49 542.3,-203.86 554,-199.5 597.65,-183.22 643.86,-152.59 665.86,-137.05"/>
<polygon fill="#9a32cd" stroke="#9a32cd" points="516.31,-206.97 507.34,-212.6 517.87,-213.8 516.31,-206.97"/>
<text text-anchor="middle" x="594" y="-205.5" font-family="Helvetica,sans-Serif" font-size="10.00"> host</text>
<text text-anchor="middle" x="594" y="-194.5" font-family="Helvetica,sans-Serif" font-size="10.00">port</text>
</g>
<!-- Node3 -->
<g id="node3" class="node">
<title>Node3</title>
<g id="a_node3"><a xlink:title=" ">
<polygon fill="white" stroke="#666666" points="319.5,-233.5 215.5,-233.5 215.5,-203.5 319.5,-203.5 319.5,-233.5"/>
<text text-anchor="start" x="223.5" y="-221.5" font-family="Helvetica,sans-Serif" font-size="10.00">std::basic_string&lt;</text>
<text text-anchor="middle" x="267.5" y="-210.5" font-family="Helvetica,sans-Serif" font-size="10.00"> Char &gt;</text>
</a>
</g>
</g>
<!-- Node3&#45;&gt;Node2 -->
<g id="edge2" class="edge">
<title>Node3&#45;&gt;Node2</title>
<path fill="none" stroke="#63b8ff" d="M329.84,-218.5C366.67,-218.5 411.99,-218.5 441.76,-218.5"/>
<polygon fill="#63b8ff" stroke="#63b8ff" points="329.7,-215 319.7,-218.5 329.7,-222 329.7,-215"/>
</g>
<!-- Node4 -->
<g id="node4" class="node">
<title>Node4</title>
<g id="a_node4"><a xlink:title=" ">
<polygon fill="white" stroke="#666666" points="531,-190.5 418,-190.5 418,-160.5 531,-160.5 531,-190.5"/>
<text text-anchor="start" x="426" y="-178.5" font-family="Helvetica,sans-Serif" font-size="10.00">std::shared_ptr&lt; tls</text>
<text text-anchor="middle" x="474.5" y="-167.5" font-family="Helvetica,sans-Serif" font-size="10.00">::CA &gt;</text>
</a>
</g>
</g>
<!-- Node4&#45;&gt;Node1 -->
<g id="edge3" class="edge">
<title>Node4&#45;&gt;Node1</title>
<path fill="none" stroke="#9a32cd" stroke-dasharray="5,2" d="M541.14,-160.13C564.74,-154.59 591.57,-148.28 616,-142.5 623.44,-140.74 631.37,-138.86 639.01,-137.04"/>
<polygon fill="#9a32cd" stroke="#9a32cd" points="540.17,-156.76 531.23,-162.45 541.77,-163.57 540.17,-156.76"/>
<text text-anchor="middle" x="594" y="-155.5" font-family="Helvetica,sans-Serif" font-size="10.00"> node_ca</text>
</g>
<!-- Node5 -->
<g id="node5" class="node">
<title>Node5</title>
<g id="a_node5"><a xlink:href="classtls_1_1CA.html" target="_top" xlink:title=" ">
<polygon fill="white" stroke="#666666" points="291.5,-185 243.5,-185 243.5,-166 291.5,-166 291.5,-185"/>
<text text-anchor="middle" x="267.5" y="-173" font-family="Helvetica,sans-Serif" font-size="10.00">tls::CA</text>
</a>
</g>
</g>
<!-- Node5&#45;&gt;Node4 -->
<g id="edge4" class="edge">
<title>Node5&#45;&gt;Node4</title>
<path fill="none" stroke="#9a32cd" stroke-dasharray="5,2" d="M301.98,-175.5C333.3,-175.5 380.67,-175.5 417.7,-175.5"/>
<polygon fill="#9a32cd" stroke="#9a32cd" points="301.62,-172 291.62,-175.5 301.62,-179 301.62,-172"/>
<text text-anchor="middle" x="368.5" y="-178.5" font-family="Helvetica,sans-Serif" font-size="10.00"> ptr</text>
</g>
<!-- Node6 -->
<g id="node6" class="node">
<title>Node6</title>
<g id="a_node6"><a xlink:title=" ">
<polygon fill="white" stroke="#666666" points="531,-142.5 418,-142.5 418,-112.5 531,-112.5 531,-142.5"/>
<text text-anchor="start" x="426" y="-130.5" font-family="Helvetica,sans-Serif" font-size="10.00">std::shared_ptr&lt; tls</text>
<text text-anchor="middle" x="474.5" y="-119.5" font-family="Helvetica,sans-Serif" font-size="10.00">::Cert &gt;</text>
</a>
</g>
</g>
<!-- Node6&#45;&gt;Node1 -->
<g id="edge5" class="edge">
<title>Node6&#45;&gt;Node1</title>
<path fill="none" stroke="#9a32cd" stroke-dasharray="5,2" d="M541.16,-127.5C571.39,-127.5 606.52,-127.5 633.74,-127.5"/>
<polygon fill="#9a32cd" stroke="#9a32cd" points="541.11,-124 531.11,-127.5 541.11,-131 541.11,-124"/>
<text text-anchor="middle" x="594" y="-130.5" font-family="Helvetica,sans-Serif" font-size="10.00"> cert</text>
</g>
<!-- Node7 -->
<g id="node7" class="node">
<title>Node7</title>
<g id="a_node7"><a xlink:href="classtls_1_1Cert.html" target="_top" xlink:title=" ">
<polygon fill="white" stroke="#666666" points="295,-137 240,-137 240,-118 295,-118 295,-137"/>
<text text-anchor="middle" x="267.5" y="-125" font-family="Helvetica,sans-Serif" font-size="10.00">tls::Cert</text>
</a>
</g>
</g>
<!-- Node7&#45;&gt;Node6 -->
<g id="edge6" class="edge">
<title>Node7&#45;&gt;Node6</title>
<path fill="none" stroke="#9a32cd" stroke-dasharray="5,2" d="M305.33,-127.5C336.61,-127.5 381.98,-127.5 417.72,-127.5"/>
<polygon fill="#9a32cd" stroke="#9a32cd" points="305.3,-124 295.3,-127.5 305.3,-131 305.3,-124"/>
<text text-anchor="middle" x="368.5" y="-130.5" font-family="Helvetica,sans-Serif" font-size="10.00"> ptr</text>
</g>
<!-- Node8 -->
<g id="node8" class="node">
<title>Node8</title>
<g id="a_node8"><a xlink:href="structcrypto_1_1OpenSSL_1_1Unique__SSL__CTX.html" target="_top" xlink:title=" ">
<polygon fill="white" stroke="#666666" points="543,-94.5 406,-94.5 406,-64.5 543,-64.5 543,-94.5"/>
<text text-anchor="start" x="414" y="-82.5" font-family="Helvetica,sans-Serif" font-size="10.00">crypto::OpenSSL::Unique</text>
<text text-anchor="middle" x="474.5" y="-71.5" font-family="Helvetica,sans-Serif" font-size="10.00">_SSL_CTX</text>
</a>
</g>
</g>
<!-- Node8&#45;&gt;Node1 -->
<g id="edge7" class="edge">
<title>Node8&#45;&gt;Node1</title>
<path fill="none" stroke="#9a32cd" stroke-dasharray="5,2" d="M549.84,-96.92C571.21,-101.93 594.53,-107.42 616,-112.5 623.44,-114.26 631.37,-116.14 639.01,-117.96"/>
<polygon fill="#9a32cd" stroke="#9a32cd" points="550.39,-93.45 539.86,-94.57 548.79,-100.27 550.39,-93.45"/>
<text text-anchor="middle" x="594" y="-115.5" font-family="Helvetica,sans-Serif" font-size="10.00"> ctx</text>
</g>
<!-- Node9 -->
<g id="node9" class="node">
<title>Node9</title>
<g id="a_node9"><a xlink:href="classcrypto_1_1OpenSSL_1_1Unique__SSL__OBJECT.html" target="_top" xlink:title=" ">
<polygon fill="white" stroke="#666666" points="336,-100 199,-100 199,-59 336,-59 336,-100"/>
<text text-anchor="start" x="207" y="-88" font-family="Helvetica,sans-Serif" font-size="10.00">crypto::OpenSSL::Unique</text>
<text text-anchor="start" x="207" y="-77" font-family="Helvetica,sans-Serif" font-size="10.00">_SSL_OBJECT&lt; SSL_CTX,</text>
<text text-anchor="middle" x="267.5" y="-66" font-family="Helvetica,sans-Serif" font-size="10.00"> nullptr, nullptr &gt;</text>
</a>
</g>
</g>
<!-- Node9&#45;&gt;Node8 -->
<g id="edge8" class="edge">
<title>Node9&#45;&gt;Node8</title>
<path fill="none" stroke="#63b8ff" d="M346.31,-79.5C365.92,-79.5 386.81,-79.5 405.88,-79.5"/>
<polygon fill="#63b8ff" stroke="#63b8ff" points="346.19,-76 336.19,-79.5 346.19,-83 346.19,-76"/>
</g>
<!-- Node10 -->
<g id="node10" class="node">
<title>Node10</title>
<g id="a_node10"><a xlink:title=" ">
<polygon fill="white" stroke="#666666" points="147,-94.5 0,-94.5 0,-64.5 147,-64.5 147,-94.5"/>
<text text-anchor="start" x="8" y="-82.5" font-family="Helvetica,sans-Serif" font-size="10.00">std::unique_ptr&lt; SSL</text>
<text text-anchor="middle" x="73.5" y="-71.5" font-family="Helvetica,sans-Serif" font-size="10.00">_CTX, void(*)(SSL_CTX *)&gt;</text>
</a>
</g>
</g>
<!-- Node10&#45;&gt;Node9 -->
<g id="edge9" class="edge">
<title>Node10&#45;&gt;Node9</title>
<path fill="none" stroke="#9a32cd" stroke-dasharray="5,2" d="M157.14,-79.5C171.07,-79.5 185.39,-79.5 198.88,-79.5"/>
<polygon fill="#9a32cd" stroke="#9a32cd" points="157.09,-76 147.09,-79.5 157.09,-83 157.09,-76"/>
<text text-anchor="middle" x="170" y="-82.5" font-family="Helvetica,sans-Serif" font-size="10.00"> p</text>
</g>
<!-- Node11 -->
<g id="node11" class="node">
<title>Node11</title>
<g id="a_node11"><a xlink:href="structcrypto_1_1OpenSSL_1_1Unique__BIO.html" target="_top" xlink:title=" ">
<polygon fill="white" stroke="#666666" points="554,-42 395,-42 395,-23 554,-23 554,-42"/>
<text text-anchor="middle" x="474.5" y="-30" font-family="Helvetica,sans-Serif" font-size="10.00">crypto::OpenSSL::Unique_BIO</text>
</a>
</g>
</g>
<!-- Node11&#45;&gt;Node1 -->
<g id="edge10" class="edge">
<title>Node11&#45;&gt;Node1</title>
<path fill="none" stroke="#9a32cd" stroke-dasharray="5,2" d="M522.86,-44.89C533.24,-48.02 544.08,-51.6 554,-55.5 582.67,-66.76 589.27,-71.18 616,-86.5 633.44,-96.49 652.69,-109.3 665.27,-117.92"/>
<polygon fill="#9a32cd" stroke="#9a32cd" points="523.68,-41.48 513.1,-42.04 521.71,-48.2 523.68,-41.48"/>
<text text-anchor="middle" x="594" y="-89.5" font-family="Helvetica,sans-Serif" font-size="10.00"> bio</text>
</g>
<!-- Node12 -->
<g id="node12" class="node">
<title>Node12</title>
<g id="a_node12"><a xlink:href="classcrypto_1_1OpenSSL_1_1Unique__SSL__OBJECT.html" target="_top" xlink:title=" ">
<polygon fill="white" stroke="#666666" points="342,-41 193,-41 193,0 342,0 342,-41"/>
<text text-anchor="start" x="201" y="-29" font-family="Helvetica,sans-Serif" font-size="10.00">crypto::OpenSSL::Unique</text>
<text text-anchor="start" x="201" y="-18" font-family="Helvetica,sans-Serif" font-size="10.00">_SSL_OBJECT&lt; BIO, nullptr,</text>
<text text-anchor="middle" x="267.5" y="-7" font-family="Helvetica,sans-Serif" font-size="10.00"> nullptr &gt;</text>
</a>
</g>
</g>
<!-- Node12&#45;&gt;Node11 -->
<g id="edge11" class="edge">
<title>Node12&#45;&gt;Node11</title>
<path fill="none" stroke="#63b8ff" d="M352.36,-25.41C366.42,-26.23 380.97,-27.08 394.89,-27.9"/>
<polygon fill="#63b8ff" stroke="#63b8ff" points="352.41,-21.91 342.22,-24.82 352,-28.89 352.41,-21.91"/>
</g>
<!-- Node13 -->
<g id="node13" class="node">
<title>Node13</title>
<g id="a_node13"><a xlink:title=" ">
<polygon fill="white" stroke="#666666" points="134,-35.5 13,-35.5 13,-5.5 134,-5.5 134,-35.5"/>
<text text-anchor="start" x="21" y="-23.5" font-family="Helvetica,sans-Serif" font-size="10.00">std::unique_ptr&lt; BIO,</text>
<text text-anchor="middle" x="73.5" y="-12.5" font-family="Helvetica,sans-Serif" font-size="10.00"> void(*)(BIO *)&gt;</text>
</a>
</g>
</g>
<!-- Node13&#45;&gt;Node12 -->
<g id="edge12" class="edge">
<title>Node13&#45;&gt;Node12</title>
<path fill="none" stroke="#9a32cd" stroke-dasharray="5,2" d="M144.41,-20.5C160.21,-20.5 177.03,-20.5 192.97,-20.5"/>
<polygon fill="#9a32cd" stroke="#9a32cd" points="144.2,-17 134.2,-20.5 144.2,-24 144.2,-17"/>
<text text-anchor="middle" x="170" y="-23.5" font-family="Helvetica,sans-Serif" font-size="10.00"> p</text>
</g>
</g>
</svg>
        <g id="navigator" transform="translate(0 0)" fill="#404254">
                <rect fill="#f2f5e9" fill-opacity="0.5" stroke="#606060" stroke-width=".5" x="0" y="0" width="60" height="60"/>
                <use id="zoomplus" xlink:href="#zoomPlus" x="17" y="9" onmousedown="handleZoom(evt,'in')"/>
                <use id="zoomminus" xlink:href="#zoomMin" x="42" y="9" onmousedown="handleZoom(evt,'out')"/>
                <use id="reset" xlink:href="#resetDef" x="30" y="36" onmousedown="handleReset()"/>
                <g id="arrowUp" xlink:href="#dirArrow" transform="translate(30 24)" onmousedown="handlePan(0,-1)">
                  <use xlink:href="#rim" fill="#404040">
                        <set attributeName="fill" to="#808080" begin="arrowUp.mouseover" end="arrowUp.mouseout"/>
                  </use>
                  <path fill="none" stroke="white" stroke-width="1.5" d="M0,-3.0v7 M-2.5,-0.5L0,-3.0L2.5,-0.5"/>
                </g>
                <g id="arrowRight" xlink:href="#dirArrow" transform="rotate(90) translate(36 -43)" onmousedown="handlePan(1,0)">
                  <use xlink:href="#rim" fill="#404040">
                        <set attributeName="fill" to="#808080" begin="arrowRight.mouseover" end="arrowRight.mouseout"/>
                  </use>
                  <path fill="none" stroke="white" stroke-width="1.5" d="M0,-3.0v7 M-2.5,-0.5L0,-3.0L2.5,-0.5"/>
                </g>
                <g id="arrowDown" xlink:href="#dirArrow" transform="rotate(180) translate(-30 -48)" onmousedown="handlePan(0,1)">
                  <use xlink:href="#rim" fill="#404040">
                        <set attributeName="fill" to="#808080" begin="arrowDown.mouseover" end="arrowDown.mouseout"/>
                  </use>
                  <path fill="none" stroke="white" stroke-width="1.5" d="M0,-3.0v7 M-2.5,-0.5L0,-3.0L2.5,-0.5"/>
                </g>
                <g id="arrowLeft" xlink:href="#dirArrow" transform="rotate(270) translate(-36 17)" onmousedown="handlePan(-1,0)">
                  <use xlink:href="#rim" fill="#404040">
                        <set attributeName="fill" to="#808080" begin="arrowLeft.mouseover" end="arrowLeft.mouseout"/>
                  </use>
                  <path fill="none" stroke="white" stroke-width="1.5" d="M0,-3.0v7 M-2.5,-0.5L0,-3.0L2.5,-0.5"/>
                </g>
        </g>
        <svg viewBox="0 0 15 15" width="100%" height="30px" preserveAspectRatio="xMaxYMin meet">
         <g id="arrow_out" transform="scale(0.3 0.3)">
          <a xlink:href="classclient_1_1TlsClient__coll__graph_org.svg" target="_base">
           <rect id="button" ry="5" rx="5" y="6" x="6" height="38" width="38"
                fill="#f2f5e9" fill-opacity="0.5" stroke="#606060" stroke-width="1.0"/>
           <path id="arrow"
             d="M 11.500037,31.436501 C 11.940474,20.09759 22.043105,11.32322 32.158766,21.979434 L 37.068811,17.246167 C 37.068811,17.246167 37.088388,32 37.088388,32 L 22.160133,31.978069 C 22.160133,31.978069 26.997745,27.140456 26.997745,27.140456 C 18.528582,18.264221 13.291696,25.230495 11.500037,31.436501 z"
             style="fill:#404040;"/>
          </a>
         </g>
        </svg>
</svg>
