<?xml version="1.0" encoding="UTF-8" standalone="no"?>
<!DOCTYPE svg PUBLIC "-//W3C//DTD SVG 1.1//EN"
 "http://www.w3.org/Graphics/SVG/1.1/DTD/svg11.dtd">
<!-- Generated by graphviz version 2.43.0 (0)
 -->
<!-- Title: ccf::ACMEChallengeHandler Pages: 1 -->
<svg width="169pt" height="248pt"
 viewBox="0.00 0.00 169.00 248.00" xmlns="http://www.w3.org/2000/svg" xmlns:xlink="http://www.w3.org/1999/xlink">
<g id="graph0" class="graph" transform="scale(1 1) rotate(0) translate(4 244)">
<title>ccf::ACMEChallengeHandler</title>
<!-- Node1 -->
<g id="node1" class="node">
<title>Node1</title>
<g id="a_node1"><a xlink:title=" ">
<polygon fill="#999999" stroke="#666666" points="152,-19 0,-19 0,0 152,0 152,-19"/>
<text text-anchor="middle" x="76" y="-7" font-family="Helvetica,sans-Serif" font-size="10.00">ccf::ACMEChallengeHandler</text>
</a>
</g>
</g>
<!-- Node2 -->
<g id="node2" class="node">
<title>Node2</title>
<g id="a_node2"><a xlink:title=" ">
<polygon fill="white" stroke="#666666" points="137,-96 15,-96 15,-66 137,-66 137,-96"/>
<text text-anchor="start" x="23" y="-84" font-family="Helvetica,sans-Serif" font-size="10.00">std::map&lt; std::string,</text>
<text text-anchor="middle" x="76" y="-73" font-family="Helvetica,sans-Serif" font-size="10.00"> std::string &gt;</text>
</a>
</g>
</g>
<!-- Node2&#45;&gt;Node1 -->
<g id="edge1" class="edge">
<title>Node2&#45;&gt;Node1</title>
<path fill="none" stroke="#9a32cd" stroke-dasharray="5,2" d="M76,-55.56C76,-42.95 76,-28.35 76,-19.27"/>
<polygon fill="#9a32cd" stroke="#9a32cd" points="72.5,-55.94 76,-65.94 79.5,-55.94 72.5,-55.94"/>
<text text-anchor="middle" x="118.5" y="-40" font-family="Helvetica,sans-Serif" font-size="10.00"> token_responses</text>
</g>
<!-- Node3 -->
<g id="node3" class="node">
<title>Node3</title>
<g id="a_node3"><a xlink:title=" ">
<polygon fill="white" stroke="#666666" points="108.5,-173 43.5,-173 43.5,-154 108.5,-154 108.5,-173"/>
<text text-anchor="middle" x="76" y="-161" font-family="Helvetica,sans-Serif" font-size="10.00">std::string</text>
</a>
</g>
</g>
<!-- Node3&#45;&gt;Node2 -->
<g id="edge2" class="edge">
<title>Node3&#45;&gt;Node2</title>
<path fill="none" stroke="#9a32cd" stroke-dasharray="5,2" d="M76,-143.6C76,-129.1 76,-109.4 76,-96.22"/>
<polygon fill="#9a32cd" stroke="#9a32cd" points="72.5,-143.89 76,-153.89 79.5,-143.89 72.5,-143.89"/>
<text text-anchor="middle" x="100.5" y="-128" font-family="Helvetica,sans-Serif" font-size="10.00"> elements</text>
<text text-anchor="middle" x="100.5" y="-117" font-family="Helvetica,sans-Serif" font-size="10.00">keys</text>
</g>
<!-- Node4 -->
<g id="node4" class="node">
<title>Node4</title>
<g id="a_node4"><a xlink:title=" ">
<polygon fill="white" stroke="#666666" points="128,-240 24,-240 24,-210 128,-210 128,-240"/>
<text text-anchor="start" x="32" y="-228" font-family="Helvetica,sans-Serif" font-size="10.00">std::basic_string&lt;</text>
<text text-anchor="middle" x="76" y="-217" font-family="Helvetica,sans-Serif" font-size="10.00"> Char &gt;</text>
</a>
</g>
</g>
<!-- Node4&#45;&gt;Node3 -->
<g id="edge3" class="edge">
<title>Node4&#45;&gt;Node3</title>
<path fill="none" stroke="#63b8ff" d="M76,-199.79C76,-190.36 76,-180.15 76,-173.16"/>
<polygon fill="#63b8ff" stroke="#63b8ff" points="72.5,-199.9 76,-209.9 79.5,-199.9 72.5,-199.9"/>
</g>
</g>
</svg>
