<?xml version="1.0" encoding="UTF-8" standalone="no"?>
<!DOCTYPE svg PUBLIC "-//W3C//DTD SVG 1.1//EN"
 "http://www.w3.org/Graphics/SVG/1.1/DTD/svg11.dtd">
<!-- Generated by graphviz version 2.43.0 (0)
 -->
<!-- Title: http::HTTP2ClientSession Pages: 1 -->
<svg width="586pt" height="314pt"
 viewBox="0.00 0.00 585.50 314.00" xmlns="http://www.w3.org/2000/svg" xmlns:xlink="http://www.w3.org/1999/xlink">
<g id="graph0" class="graph" transform="scale(1 1) rotate(0) translate(4 310)">
<title>http::HTTP2ClientSession</title>
<!-- Node1 -->
<g id="node1" class="node">
<title>Node1</title>
<g id="a_node1"><a xlink:title=" ">
<polygon fill="#999999" stroke="#666666" points="441,-19 301,-19 301,0 441,0 441,-19"/>
<text text-anchor="middle" x="371" y="-7" font-family="Helvetica,sans-Serif" font-size="10.00">http::HTTP2ClientSession</text>
</a>
</g>
</g>
<!-- Node2 -->
<g id="node2" class="node">
<title>Node2</title>
<g id="a_node2"><a xlink:href="classhttp_1_1HTTP2Session.html" target="_top" xlink:title=" ">
<polygon fill="white" stroke="#666666" points="301.5,-75 190.5,-75 190.5,-56 301.5,-56 301.5,-75"/>
<text text-anchor="middle" x="246" y="-63" font-family="Helvetica,sans-Serif" font-size="10.00">http::HTTP2Session</text>
</a>
</g>
</g>
<!-- Node2&#45;&gt;Node1 -->
<g id="edge1" class="edge">
<title>Node2&#45;&gt;Node1</title>
<path fill="none" stroke="#63b8ff" d="M275.24,-51.87C298.65,-41.76 330.84,-27.85 351.29,-19.02"/>
<polygon fill="#63b8ff" stroke="#63b8ff" points="273.6,-48.76 265.81,-55.94 276.37,-55.19 273.6,-48.76"/>
</g>
<!-- Node3 -->
<g id="node3" class="node">
<title>Node3</title>
<g id="a_node3"><a xlink:href="classccf_1_1ThreadedSession.html" target="_top" xlink:title=" ">
<polygon fill="white" stroke="#666666" points="238.5,-146.5 119.5,-146.5 119.5,-127.5 238.5,-127.5 238.5,-146.5"/>
<text text-anchor="middle" x="179" y="-134.5" font-family="Helvetica,sans-Serif" font-size="10.00">ccf::ThreadedSession</text>
</a>
</g>
</g>
<!-- Node3&#45;&gt;Node2 -->
<g id="edge2" class="edge">
<title>Node3&#45;&gt;Node2</title>
<path fill="none" stroke="#63b8ff" d="M194.4,-120.03C207.87,-106.05 226.93,-86.28 237.72,-75.09"/>
<polygon fill="#63b8ff" stroke="#63b8ff" points="191.64,-117.85 187.22,-127.48 196.68,-122.71 191.64,-117.85"/>
</g>
<!-- Node4 -->
<g id="node4" class="node">
<title>Node4</title>
<g id="a_node4"><a xlink:href="classccf_1_1Session.html" target="_top" xlink:title=" ">
<polygon fill="white" stroke="#666666" points="74,-223.5 0,-223.5 0,-204.5 74,-204.5 74,-223.5"/>
<text text-anchor="middle" x="37" y="-211.5" font-family="Helvetica,sans-Serif" font-size="10.00">ccf::Session</text>
</a>
</g>
</g>
<!-- Node4&#45;&gt;Node3 -->
<g id="edge3" class="edge">
<title>Node4&#45;&gt;Node3</title>
<path fill="none" stroke="#63b8ff" d="M62.43,-199.57C91.56,-184.18 138.41,-159.44 162.9,-146.5"/>
<polygon fill="#63b8ff" stroke="#63b8ff" points="60.5,-196.63 53.29,-204.4 63.77,-202.82 60.5,-196.63"/>
</g>
<!-- Node5 -->
<g id="node5" class="node">
<title>Node5</title>
<g id="a_node5"><a xlink:title=" ">
<polygon fill="white" stroke="#666666" points="266,-229 92,-229 92,-199 266,-199 266,-229"/>
<text text-anchor="start" x="100" y="-217" font-family="Helvetica,sans-Serif" font-size="10.00">std::enable_shared</text>
<text text-anchor="middle" x="179" y="-206" font-family="Helvetica,sans-Serif" font-size="10.00">_from_this&lt; ThreadedSession &gt;</text>
</a>
</g>
</g>
<!-- Node5&#45;&gt;Node3 -->
<g id="edge4" class="edge">
<title>Node5&#45;&gt;Node3</title>
<path fill="none" stroke="#63b8ff" d="M179,-188.68C179,-174.36 179,-157.11 179,-146.87"/>
<polygon fill="#63b8ff" stroke="#63b8ff" points="175.5,-188.89 179,-198.89 182.5,-188.89 175.5,-188.89"/>
</g>
<!-- Node6 -->
<g id="node6" class="node">
<title>Node6</title>
<g id="a_node6"><a xlink:title=" ">
<polygon fill="white" stroke="#666666" points="379.5,-152 264.5,-152 264.5,-122 379.5,-122 379.5,-152"/>
<text text-anchor="start" x="272.5" y="-140" font-family="Helvetica,sans-Serif" font-size="10.00">std::shared_ptr&lt; ccf</text>
<text text-anchor="middle" x="322" y="-129" font-family="Helvetica,sans-Serif" font-size="10.00">::TLSSession &gt;</text>
</a>
</g>
</g>
<!-- Node6&#45;&gt;Node2 -->
<g id="edge5" class="edge">
<title>Node6&#45;&gt;Node2</title>
<path fill="none" stroke="#9a32cd" stroke-dasharray="5,2" d="M298.97,-114.94C284.43,-101.65 266.42,-85.17 255.59,-75.27"/>
<polygon fill="#9a32cd" stroke="#9a32cd" points="296.88,-117.77 306.62,-121.94 301.6,-112.6 296.88,-117.77"/>
<text text-anchor="middle" x="302" y="-96" font-family="Helvetica,sans-Serif" font-size="10.00"> tls_io</text>
</g>
<!-- Node7 -->
<g id="node7" class="node">
<title>Node7</title>
<g id="a_node7"><a xlink:href="classccf_1_1TLSSession.html" target="_top" xlink:title=" ">
<polygon fill="white" stroke="#666666" points="375.5,-223.5 284.5,-223.5 284.5,-204.5 375.5,-204.5 375.5,-223.5"/>
<text text-anchor="middle" x="330" y="-211.5" font-family="Helvetica,sans-Serif" font-size="10.00">ccf::TLSSession</text>
</a>
</g>
</g>
<!-- Node7&#45;&gt;Node6 -->
<g id="edge6" class="edge">
<title>Node7&#45;&gt;Node6</title>
<path fill="none" stroke="#9a32cd" stroke-dasharray="5,2" d="M327.99,-194.2C326.6,-181.14 324.77,-164.01 323.51,-152.11"/>
<polygon fill="#9a32cd" stroke="#9a32cd" points="324.54,-194.82 329.08,-204.4 331.5,-194.08 324.54,-194.82"/>
<text text-anchor="middle" x="335.5" y="-173" font-family="Helvetica,sans-Serif" font-size="10.00"> ptr</text>
</g>
<!-- Node8 -->
<g id="node8" class="node">
<title>Node8</title>
<g id="a_node8"><a xlink:title=" ">
<polygon fill="white" stroke="#666666" points="322,-306 176,-306 176,-276 322,-276 322,-306"/>
<text text-anchor="start" x="184" y="-294" font-family="Helvetica,sans-Serif" font-size="10.00">std::enable_shared</text>
<text text-anchor="middle" x="249" y="-283" font-family="Helvetica,sans-Serif" font-size="10.00">_from_this&lt; TLSSession &gt;</text>
</a>
</g>
</g>
<!-- Node8&#45;&gt;Node7 -->
<g id="edge7" class="edge">
<title>Node8&#45;&gt;Node7</title>
<path fill="none" stroke="#63b8ff" d="M271.69,-268.99C287.76,-254.11 308.49,-234.91 320.42,-223.87"/>
<polygon fill="#63b8ff" stroke="#63b8ff" points="269.2,-266.53 264.24,-275.89 273.95,-271.67 269.2,-266.53"/>
</g>
<!-- Node9 -->
<g id="node9" class="node">
<title>Node9</title>
<g id="a_node9"><a xlink:title=" ">
<polygon fill="white" stroke="#666666" points="481.5,-306 340.5,-306 340.5,-276 481.5,-276 481.5,-306"/>
<text text-anchor="start" x="348.5" y="-294" font-family="Helvetica,sans-Serif" font-size="10.00">std::shared_ptr&lt; Abstract</text>
<text text-anchor="middle" x="411" y="-283" font-family="Helvetica,sans-Serif" font-size="10.00">Writer &gt;</text>
</a>
</g>
</g>
<!-- Node9&#45;&gt;Node7 -->
<g id="edge8" class="edge">
<title>Node9&#45;&gt;Node7</title>
<path fill="none" stroke="#9a32cd" stroke-dasharray="5,2" d="M388.31,-268.99C372.24,-254.11 351.51,-234.91 339.58,-223.87"/>
<polygon fill="#9a32cd" stroke="#9a32cd" points="386.05,-271.67 395.76,-275.89 390.8,-266.53 386.05,-271.67"/>
<text text-anchor="middle" x="396" y="-250" font-family="Helvetica,sans-Serif" font-size="10.00"> to_host</text>
</g>
<!-- Node10 -->
<g id="node10" class="node">
<title>Node10</title>
<g id="a_node10"><a xlink:href="classccf_1_1ClientSession.html" target="_top" xlink:title=" ">
<polygon fill="white" stroke="#666666" points="422,-75 320,-75 320,-56 422,-56 422,-75"/>
<text text-anchor="middle" x="371" y="-63" font-family="Helvetica,sans-Serif" font-size="10.00">ccf::ClientSession</text>
</a>
</g>
</g>
<!-- Node10&#45;&gt;Node1 -->
<g id="edge9" class="edge">
<title>Node10&#45;&gt;Node1</title>
<path fill="none" stroke="#63b8ff" d="M371,-45.3C371,-36.41 371,-26.28 371,-19.25"/>
<polygon fill="#63b8ff" stroke="#63b8ff" points="367.5,-45.58 371,-55.58 374.5,-45.58 367.5,-45.58"/>
</g>
<!-- Node11 -->
<g id="node11" class="node">
<title>Node11</title>
<g id="a_node11"><a xlink:href="classhttp_1_1ResponseProcessor.html" target="_top" xlink:title=" ">
<polygon fill="white" stroke="#666666" points="577.5,-75 440.5,-75 440.5,-56 577.5,-56 577.5,-75"/>
<text text-anchor="middle" x="509" y="-63" font-family="Helvetica,sans-Serif" font-size="10.00">http::ResponseProcessor</text>
</a>
</g>
</g>
<!-- Node11&#45;&gt;Node1 -->
<g id="edge10" class="edge">
<title>Node11&#45;&gt;Node1</title>
<path fill="none" stroke="#63b8ff" d="M477.75,-52.27C451.83,-42.13 415.64,-27.97 392.76,-19.02"/>
<polygon fill="#63b8ff" stroke="#63b8ff" points="476.55,-55.56 487.13,-55.94 479.1,-49.04 476.55,-55.56"/>
</g>
</g>
</svg>
