<?xml version="1.0" encoding="UTF-8" standalone="no"?>
<!DOCTYPE svg PUBLIC "-//W3C//DTD SVG 1.1//EN"
 "http://www.w3.org/Graphics/SVG/1.1/DTD/svg11.dtd">
<!-- Generated by graphviz version 2.43.0 (0)
 -->
<!-- Title: src/kv/committable_tx.h Pages: 1 -->
<!--zoomable 720 -->
<svg id="main" version="1.1" xmlns="http://www.w3.org/2000/svg" xmlns:xlink="http://www.w3.org/1999/xlink" xml:space="preserve" onload="init(evt)">
<style type="text/css"><![CDATA[
.edge:hover path { stroke: red; }
.edge:hover polygon { stroke: red; fill: red; }
]]></style>
<script type="text/javascript"><![CDATA[
var edges = document.getElementsByTagName('g');
if (edges && edges.length) {
  for (var i=0;i<edges.length;i++) {
    if (edges[i].id.substr(0,4)=='edge') {
      edges[i].setAttribute('class','edge');
    }
  }
}
]]></script>
        <defs>
                <circle id="rim" cx="0" cy="0" r="7"/>
                <circle id="rim2" cx="0" cy="0" r="3.5"/>
                <g id="zoomPlus">
                        <use xlink:href="#rim" fill="#404040">
                                <set attributeName="fill" to="#808080" begin="zoomplus.mouseover" end="zoomplus.mouseout"/>
                        </use>
                        <path d="M-4,0h8M0,-4v8" fill="none" stroke="white" stroke-width="1.5" pointer-events="none"/>
                </g>
                <g id="zoomMin">
                        <use xlink:href="#rim" fill="#404040">
                                <set attributeName="fill" to="#808080" begin="zoomminus.mouseover" end="zoomminus.mouseout"/>
                        </use>
                        <path d="M-4,0h8" fill="none" stroke="white" stroke-width="1.5" pointer-events="none"/>
                </g>
                <g id="dirArrow">
                        <path fill="none" stroke="white" stroke-width="1.5" d="M0,-3.0v7 M-2.5,-0.5L0,-3.0L2.5,-0.5"/>
                </g>
               <g id="resetDef">
                       <use xlink:href="#rim2" fill="#404040">
                               <set attributeName="fill" to="#808080" begin="reset.mouseover" end="reset.mouseout"/>
                       </use>
               </g>
        </defs>

<script type="text/javascript">
var viewWidth = 2326;
var viewHeight = 720;
var sectionId = 'dynsection-1';
</script>
<script xlink:href="svgpan.js"/>
<svg id="graph" class="graph">
<g id="viewport">
<title>src/kv/committable_tx.h</title>
<!-- Node1 -->
<g id="node1" class="node">
<title>Node1</title>
<g id="a_node1"><a xlink:title=" ">
<polygon fill="#999999" stroke="#666666" points="953.5,-712 818.5,-712 818.5,-693 953.5,-693 953.5,-712"/>
<text text-anchor="middle" x="886" y="-700" font-family="Helvetica,sans-Serif" font-size="10.00">src/kv/committable_tx.h</text>
</a>
</g>
</g>
<!-- Node2 -->
<g id="node2" class="node">
<title>Node2</title>
<g id="a_node2"><a xlink:href="deserialise_8h.html" target="_top" xlink:title=" ">
<polygon fill="white" stroke="#666666" points="941.5,-651.5 830.5,-651.5 830.5,-632.5 941.5,-632.5 941.5,-651.5"/>
<text text-anchor="middle" x="886" y="-639.5" font-family="Helvetica,sans-Serif" font-size="10.00">src/kv/deserialise.h</text>
</a>
</g>
</g>
<!-- Node1&#45;&gt;Node2 -->
<g id="edge1" class="edge">
<title>Node1&#45;&gt;Node2</title>
<path fill="none" stroke="#63b8ff" d="M886,-682.66C886,-672.24 886,-659.8 886,-651.67"/>
<polygon fill="#63b8ff" stroke="#63b8ff" points="882.5,-682.87 886,-692.87 889.5,-682.87 882.5,-682.87"/>
</g>
<!-- Node3 -->
<g id="node3" class="node">
<title>Node3</title>
<g id="a_node3"><a xlink:href="store_8h.html" target="_top" xlink:title=" ">
<polygon fill="white" stroke="#666666" points="843.5,-585.5 760.5,-585.5 760.5,-566.5 843.5,-566.5 843.5,-585.5"/>
<text text-anchor="middle" x="802" y="-573.5" font-family="Helvetica,sans-Serif" font-size="10.00">src/kv/store.h</text>
</a>
</g>
</g>
<!-- Node1&#45;&gt;Node3 -->
<g id="edge75" class="edge">
<title>Node1&#45;&gt;Node3</title>
<path fill="none" stroke="#63b8ff" d="M857.23,-687.99C844.34,-680.56 830.03,-670.15 821,-657 805.56,-634.52 802.58,-601.05 802.07,-585.51"/>
<polygon fill="#63b8ff" stroke="#63b8ff" points="855.81,-691.2 866.27,-692.88 859.13,-685.04 855.81,-691.2"/>
</g>
<!-- Node37 -->
<g id="node37" class="node">
<title>Node37</title>
<g id="a_node37"><a xlink:href="endpoint__context__impl_8h.html" target="_top" xlink:title=" ">
<polygon fill="white" stroke="#666666" points="1576,-657 1430,-657 1430,-627 1576,-627 1576,-657"/>
<text text-anchor="start" x="1438" y="-645" font-family="Helvetica,sans-Serif" font-size="10.00">src/node/endpoint_context</text>
<text text-anchor="middle" x="1503" y="-634" font-family="Helvetica,sans-Serif" font-size="10.00">_impl.h</text>
</a>
</g>
</g>
<!-- Node1&#45;&gt;Node37 -->
<g id="edge76" class="edge">
<title>Node1&#45;&gt;Node37</title>
<path fill="none" stroke="#63b8ff" d="M964.02,-694.1C1084.14,-682.71 1312.73,-661.04 1429.85,-649.94"/>
<polygon fill="#63b8ff" stroke="#63b8ff" points="963.42,-690.64 953.79,-695.07 964.08,-697.61 963.42,-690.64"/>
</g>
<!-- Node2&#45;&gt;Node3 -->
<g id="edge2" class="edge">
<title>Node2&#45;&gt;Node3</title>
<path fill="none" stroke="#63b8ff" d="M866.3,-625.99C849.85,-613.46 826.99,-596.04 813.42,-585.7"/>
<polygon fill="#63b8ff" stroke="#63b8ff" points="864.6,-629.09 874.67,-632.37 868.84,-623.52 864.6,-629.09"/>
</g>
<!-- Node4 -->
<g id="node4" class="node">
<title>Node4</title>
<g id="a_node4"><a xlink:href="indexer_8h.html" target="_top" xlink:title=" ">
<polygon fill="white" stroke="#666666" points="711.5,-453.5 588.5,-453.5 588.5,-434.5 711.5,-434.5 711.5,-453.5"/>
<text text-anchor="middle" x="650" y="-441.5" font-family="Helvetica,sans-Serif" font-size="10.00">src/indexing/indexer.h</text>
</a>
</g>
</g>
<!-- Node3&#45;&gt;Node4 -->
<g id="edge3" class="edge">
<title>Node3&#45;&gt;Node4</title>
<path fill="none" stroke="#63b8ff" d="M784.33,-559.89C752.31,-532.51 685.69,-475.52 660.21,-453.73"/>
<polygon fill="#63b8ff" stroke="#63b8ff" points="782.15,-562.63 792.03,-566.47 786.7,-557.31 782.15,-562.63"/>
</g>
<!-- Node9 -->
<g id="node9" class="node">
<title>Node9</title>
<g id="a_node9"><a xlink:href="visit__each__entry__in__map_8cpp.html" target="_top" xlink:title=" ">
<polygon fill="white" stroke="#666666" points="2046.5,-525 1885.5,-525 1885.5,-495 2046.5,-495 2046.5,-525"/>
<text text-anchor="start" x="1893.5" y="-513" font-family="Helvetica,sans-Serif" font-size="10.00">src/indexing/strategies</text>
<text text-anchor="middle" x="1966" y="-502" font-family="Helvetica,sans-Serif" font-size="10.00">/visit_each_entry_in_map.cpp</text>
</a>
</g>
</g>
<!-- Node3&#45;&gt;Node9 -->
<g id="edge9" class="edge">
<title>Node3&#45;&gt;Node9</title>
<path fill="none" stroke="#63b8ff" d="M854.06,-574.4C1009.14,-572.22 1481.43,-562.72 1871,-525 1875.73,-524.54 1880.58,-524.01 1885.47,-523.43"/>
<polygon fill="#63b8ff" stroke="#63b8ff" points="853.83,-570.9 843.88,-574.54 853.92,-577.9 853.83,-570.9"/>
</g>
<!-- Node10 -->
<g id="node10" class="node">
<title>Node10</title>
<g id="a_node10"><a xlink:href="historical__queries_8h.html" target="_top" xlink:title=" ">
<polygon fill="white" stroke="#666666" points="106,-393 0,-393 0,-363 106,-363 106,-393"/>
<text text-anchor="start" x="8" y="-381" font-family="Helvetica,sans-Serif" font-size="10.00">src/node/historical</text>
<text text-anchor="middle" x="53" y="-370" font-family="Helvetica,sans-Serif" font-size="10.00">_queries.h</text>
</a>
</g>
</g>
<!-- Node3&#45;&gt;Node10 -->
<g id="edge10" class="edge">
<title>Node3&#45;&gt;Node10</title>
<path fill="none" stroke="#63b8ff" d="M749.94,-575.28C654.73,-574.63 446.82,-567.9 278,-525 205.43,-506.56 183.62,-502.95 123,-459 97.3,-440.37 74.54,-410.66 62.36,-393.17"/>
<polygon fill="#63b8ff" stroke="#63b8ff" points="750.15,-578.78 760.16,-575.32 750.18,-571.78 750.15,-578.78"/>
</g>
<!-- Node12 -->
<g id="node12" class="node">
<title>Node12</title>
<g id="a_node12"><a xlink:href="history_8h.html" target="_top" xlink:title=" ">
<polygon fill="white" stroke="#666666" points="389,-519.5 287,-519.5 287,-500.5 389,-500.5 389,-519.5"/>
<text text-anchor="middle" x="338" y="-507.5" font-family="Helvetica,sans-Serif" font-size="10.00">src/node/history.h</text>
</a>
</g>
</g>
<!-- Node3&#45;&gt;Node12 -->
<g id="edge14" class="edge">
<title>Node3&#45;&gt;Node12</title>
<path fill="none" stroke="#63b8ff" d="M750.5,-567.9C661.09,-555.56 478.18,-530.34 389.07,-518.04"/>
<polygon fill="#63b8ff" stroke="#63b8ff" points="750.03,-571.36 760.41,-569.26 750.99,-564.43 750.03,-571.36"/>
</g>
<!-- Node14 -->
<g id="node14" class="node">
<title>Node14</title>
<g id="a_node14"><a xlink:href="snapshotter_8h.html" target="_top" xlink:title=" ">
<polygon fill="white" stroke="#666666" points="489.5,-321.5 362.5,-321.5 362.5,-302.5 489.5,-302.5 489.5,-321.5"/>
<text text-anchor="middle" x="426" y="-309.5" font-family="Helvetica,sans-Serif" font-size="10.00">src/node/snapshotter.h</text>
</a>
</g>
</g>
<!-- Node3&#45;&gt;Node14 -->
<g id="edge38" class="edge">
<title>Node3&#45;&gt;Node14</title>
<path fill="none" stroke="#63b8ff" d="M771.52,-562.45C727.09,-543.43 642.86,-504.67 579,-459 516.88,-414.58 454.7,-345.96 433.57,-321.79"/>
<polygon fill="#63b8ff" stroke="#63b8ff" points="770.32,-565.74 780.9,-566.42 773.05,-559.29 770.32,-565.74"/>
</g>
<!-- Node17 -->
<g id="node17" class="node">
<title>Node17</title>
<g id="a_node17"><a xlink:href="frontend_8h.html" target="_top" xlink:title=" ">
<polygon fill="white" stroke="#666666" points="2100.5,-387.5 1971.5,-387.5 1971.5,-368.5 2100.5,-368.5 2100.5,-387.5"/>
<text text-anchor="middle" x="2036" y="-375.5" font-family="Helvetica,sans-Serif" font-size="10.00">src/node/rpc/frontend.h</text>
</a>
</g>
</g>
<!-- Node3&#45;&gt;Node17 -->
<g id="edge24" class="edge">
<title>Node3&#45;&gt;Node17</title>
<path fill="none" stroke="#63b8ff" d="M853.9,-575.69C1010.94,-576.44 1493.49,-568.98 1873,-459 1932.04,-441.89 1995.71,-404.43 2022.7,-387.55"/>
<polygon fill="#63b8ff" stroke="#63b8ff" points="853.62,-572.18 843.6,-575.62 853.58,-579.18 853.62,-572.18"/>
</g>
<!-- Node24 -->
<g id="node24" class="node">
<title>Node24</title>
<g id="a_node24"><a xlink:href="network__tables_8h.html" target="_top" xlink:title=" ">
<polygon fill="white" stroke="#666666" points="1010,-525 898,-525 898,-495 1010,-495 1010,-525"/>
<text text-anchor="start" x="906" y="-513" font-family="Helvetica,sans-Serif" font-size="10.00">src/service/network</text>
<text text-anchor="middle" x="954" y="-502" font-family="Helvetica,sans-Serif" font-size="10.00">_tables.h</text>
</a>
</g>
</g>
<!-- Node3&#45;&gt;Node24 -->
<g id="edge39" class="edge">
<title>Node3&#45;&gt;Node24</title>
<path fill="none" stroke="#63b8ff" d="M832.01,-562.36C857.5,-551.63 894.04,-536.25 920.48,-525.12"/>
<polygon fill="#63b8ff" stroke="#63b8ff" points="830.36,-559.26 822.5,-566.37 833.07,-565.71 830.36,-559.26"/>
</g>
<!-- Node5 -->
<g id="node5" class="node">
<title>Node5</title>
<g id="a_node5"><a xlink:href="node__state_8h.html" target="_top" xlink:title=" ">
<polygon fill="white" stroke="#666666" points="732,-189.5 608,-189.5 608,-170.5 732,-170.5 732,-189.5"/>
<text text-anchor="middle" x="670" y="-177.5" font-family="Helvetica,sans-Serif" font-size="10.00">src/node/node_state.h</text>
</a>
</g>
</g>
<!-- Node4&#45;&gt;Node5 -->
<g id="edge4" class="edge">
<title>Node4&#45;&gt;Node5</title>
<path fill="none" stroke="#63b8ff" d="M596.18,-431.29C575.59,-423.9 554.15,-412.01 542,-393 503.23,-332.33 501.39,-290.46 542,-231 557.2,-208.74 583.93,-196.39 609.03,-189.54"/>
<polygon fill="#63b8ff" stroke="#63b8ff" points="595.26,-434.67 605.86,-434.47 597.45,-428.02 595.26,-434.67"/>
</g>
<!-- Node6 -->
<g id="node6" class="node">
<title>Node6</title>
<g id="a_node6"><a xlink:href="src_2enclave_2enclave_8h.html" target="_top" xlink:title=" ">
<polygon fill="white" stroke="#666666" points="1341,-74 1219,-74 1219,-55 1341,-55 1341,-74"/>
<text text-anchor="middle" x="1280" y="-62" font-family="Helvetica,sans-Serif" font-size="10.00">src/enclave/enclave.h</text>
</a>
</g>
</g>
<!-- Node5&#45;&gt;Node6 -->
<g id="edge5" class="edge">
<title>Node5&#45;&gt;Node6</title>
<path fill="none" stroke="#63b8ff" d="M703.46,-167.19C748.47,-151.74 831.29,-124.91 904,-110 1013.79,-87.48 1144.12,-75.22 1218.93,-69.54"/>
<polygon fill="#63b8ff" stroke="#63b8ff" points="702.22,-163.91 693.91,-170.48 704.51,-170.53 702.22,-163.91"/>
</g>
<!-- Node8 -->
<g id="node8" class="node">
<title>Node8</title>
<g id="a_node8"><a xlink:href="gov__effects_8h.html" target="_top" xlink:title=" ">
<polygon fill="white" stroke="#666666" points="760,-129 616,-129 616,-110 760,-110 760,-129"/>
<text text-anchor="middle" x="688" y="-117" font-family="Helvetica,sans-Serif" font-size="10.00">src/node/rpc/gov_effects.h</text>
</a>
</g>
</g>
<!-- Node5&#45;&gt;Node8 -->
<g id="edge7" class="edge">
<title>Node5&#45;&gt;Node8</title>
<path fill="none" stroke="#63b8ff" d="M675.69,-160.49C678.92,-150.01 682.8,-137.39 685.33,-129.17"/>
<polygon fill="#63b8ff" stroke="#63b8ff" points="672.25,-159.78 672.66,-170.37 678.94,-161.84 672.25,-159.78"/>
</g>
<!-- Node7 -->
<g id="node7" class="node">
<title>Node7</title>
<g id="a_node7"><a xlink:href="enclave_2main_8cpp.html" target="_top" xlink:title=" ">
<polygon fill="white" stroke="#666666" points="1340,-19 1220,-19 1220,0 1340,0 1340,-19"/>
<text text-anchor="middle" x="1280" y="-7" font-family="Helvetica,sans-Serif" font-size="10.00">src/enclave/main.cpp</text>
</a>
</g>
</g>
<!-- Node6&#45;&gt;Node7 -->
<g id="edge6" class="edge">
<title>Node6&#45;&gt;Node7</title>
<path fill="none" stroke="#63b8ff" d="M1280,-44.66C1280,-35.93 1280,-25.99 1280,-19.09"/>
<polygon fill="#63b8ff" stroke="#63b8ff" points="1276.5,-44.75 1280,-54.75 1283.5,-44.75 1276.5,-44.75"/>
</g>
<!-- Node8&#45;&gt;Node6 -->
<g id="edge8" class="edge">
<title>Node8&#45;&gt;Node6</title>
<path fill="none" stroke="#63b8ff" d="M770.56,-111.11C890.95,-100.33 1111.94,-80.55 1218.86,-70.97"/>
<polygon fill="#63b8ff" stroke="#63b8ff" points="769.94,-107.65 760.29,-112.03 770.57,-114.62 769.94,-107.65"/>
</g>
<!-- Node10&#45;&gt;Node6 -->
<g id="edge11" class="edge">
<title>Node10&#45;&gt;Node6</title>
<path fill="none" stroke="#63b8ff" d="M68.31,-354.16C83.65,-329.03 105,-286.88 105,-247 105,-247 105,-247 105,-179 105,-65.96 977.7,-63.46 1218.89,-64.93"/>
<polygon fill="#63b8ff" stroke="#63b8ff" points="65.16,-352.6 62.78,-362.93 71.08,-356.34 65.16,-352.6"/>
</g>
<!-- Node11 -->
<g id="node11" class="node">
<title>Node11</title>
<g id="a_node11"><a xlink:href="historical__transaction__fetcher_8h.html" target="_top" xlink:title=" ">
<polygon fill="white" stroke="#666666" points="500.5,-195 375.5,-195 375.5,-165 500.5,-165 500.5,-195"/>
<text text-anchor="start" x="383.5" y="-183" font-family="Helvetica,sans-Serif" font-size="10.00">src/indexing/historical</text>
<text text-anchor="middle" x="438" y="-172" font-family="Helvetica,sans-Serif" font-size="10.00">_transaction_fetcher.h</text>
</a>
</g>
</g>
<!-- Node10&#45;&gt;Node11 -->
<g id="edge12" class="edge">
<title>Node10&#45;&gt;Node11</title>
<path fill="none" stroke="#63b8ff" d="M85.59,-357.8C135.34,-328.81 233.59,-272.8 320,-231 347.14,-217.87 378.61,-204.63 402.22,-195.08"/>
<polygon fill="#63b8ff" stroke="#63b8ff" points="83.74,-354.83 76.87,-362.89 87.28,-360.87 83.74,-354.83"/>
</g>
<!-- Node11&#45;&gt;Node6 -->
<g id="edge13" class="edge">
<title>Node11&#45;&gt;Node6</title>
<path fill="none" stroke="#63b8ff" d="M473.99,-160.33C507.46,-143.93 559.22,-121.03 607,-110 722.45,-83.35 1075.95,-71.03 1218.98,-67.03"/>
<polygon fill="#63b8ff" stroke="#63b8ff" points="472.03,-157.39 464.63,-164.97 475.14,-163.66 472.03,-157.39"/>
</g>
<!-- Node12&#45;&gt;Node5 -->
<g id="edge16" class="edge">
<title>Node12&#45;&gt;Node5</title>
<path fill="none" stroke="#63b8ff" d="M354.81,-493.24C375.51,-472.55 409.58,-434.03 423,-393 427.15,-380.33 429.95,-374.38 423,-363 404.78,-333.14 371.22,-356.86 353,-327 346.05,-315.62 346.38,-308.58 353,-297 403.37,-208.85 530.75,-186.88 607.84,-181.89"/>
<polygon fill="#63b8ff" stroke="#63b8ff" points="352.32,-490.78 347.6,-500.26 357.21,-495.79 352.32,-490.78"/>
</g>
<!-- Node12&#45;&gt;Node10 -->
<g id="edge15" class="edge">
<title>Node12&#45;&gt;Node10</title>
<path fill="none" stroke="#63b8ff" d="M292.8,-497.84C260.81,-489.17 217.31,-475.8 181,-459 140.09,-440.07 96.37,-410.46 72.09,-393.07"/>
<polygon fill="#63b8ff" stroke="#63b8ff" points="292.2,-501.3 302.76,-500.49 293.99,-494.54 292.2,-501.3"/>
</g>
<!-- Node13 -->
<g id="node13" class="node">
<title>Node13</title>
<g id="a_node13"><a xlink:href="snapshot__serdes_8h.html" target="_top" xlink:title=" ">
<polygon fill="white" stroke="#666666" points="414,-387.5 262,-387.5 262,-368.5 414,-368.5 414,-387.5"/>
<text text-anchor="middle" x="338" y="-375.5" font-family="Helvetica,sans-Serif" font-size="10.00">src/node/snapshot_serdes.h</text>
</a>
</g>
</g>
<!-- Node12&#45;&gt;Node13 -->
<g id="edge17" class="edge">
<title>Node12&#45;&gt;Node13</title>
<path fill="none" stroke="#63b8ff" d="M338,-490.23C338,-461.72 338,-408.59 338,-387.73"/>
<polygon fill="#63b8ff" stroke="#63b8ff" points="334.5,-490.47 338,-500.47 341.5,-490.47 334.5,-490.47"/>
</g>
<!-- Node15 -->
<g id="node15" class="node">
<title>Node15</title>
<g id="a_node15"><a xlink:href="tx__receipt__impl_8h.html" target="_top" xlink:title=" ">
<polygon fill="white" stroke="#666666" points="300,-459 190,-459 190,-429 300,-429 300,-459"/>
<text text-anchor="start" x="198" y="-447" font-family="Helvetica,sans-Serif" font-size="10.00">src/node/tx_receipt</text>
<text text-anchor="middle" x="245" y="-436" font-family="Helvetica,sans-Serif" font-size="10.00">_impl.h</text>
</a>
</g>
</g>
<!-- Node12&#45;&gt;Node15 -->
<g id="edge20" class="edge">
<title>Node12&#45;&gt;Node15</title>
<path fill="none" stroke="#63b8ff" d="M317.1,-494.62C301.69,-484.01 280.83,-469.66 265.51,-459.12"/>
<polygon fill="#63b8ff" stroke="#63b8ff" points="315.24,-497.58 325.46,-500.37 319.2,-491.82 315.24,-497.58"/>
</g>
<!-- Node13&#45;&gt;Node14 -->
<g id="edge18" class="edge">
<title>Node13&#45;&gt;Node14</title>
<path fill="none" stroke="#63b8ff" d="M358.17,-362.33C375.43,-349.78 399.69,-332.13 414.04,-321.7"/>
<polygon fill="#63b8ff" stroke="#63b8ff" points="355.9,-359.66 349.87,-368.37 360.01,-365.32 355.9,-359.66"/>
</g>
<!-- Node14&#45;&gt;Node5 -->
<g id="edge19" class="edge">
<title>Node14&#45;&gt;Node5</title>
<path fill="none" stroke="#63b8ff" d="M438.57,-293.66C452.59,-275.52 476.88,-247.45 504,-231 539.25,-209.61 584.32,-196.8 618.59,-189.5"/>
<polygon fill="#63b8ff" stroke="#63b8ff" points="435.42,-292.02 432.22,-302.12 441.02,-296.23 435.42,-292.02"/>
</g>
<!-- Node15&#45;&gt;Node10 -->
<g id="edge21" class="edge">
<title>Node15&#45;&gt;Node10</title>
<path fill="none" stroke="#63b8ff" d="M193.17,-425.72C162.41,-415.47 123.9,-402.63 95.04,-393.01"/>
<polygon fill="#63b8ff" stroke="#63b8ff" points="192.27,-429.11 202.86,-428.95 194.48,-422.47 192.27,-429.11"/>
</g>
<!-- Node15&#45;&gt;Node13 -->
<g id="edge23" class="edge">
<title>Node15&#45;&gt;Node13</title>
<path fill="none" stroke="#63b8ff" d="M274.25,-422.87C291.46,-411.03 312.36,-396.65 325.42,-387.66"/>
<polygon fill="#63b8ff" stroke="#63b8ff" points="271.89,-420.24 265.64,-428.8 275.86,-426.01 271.89,-420.24"/>
</g>
<!-- Node16 -->
<g id="node16" class="node">
<title>Node16</title>
<g id="a_node16"><a xlink:href="historical__queries__adapter_8cpp.html" target="_top" xlink:title=" ">
<polygon fill="white" stroke="#666666" points="244,-393 124,-393 124,-363 244,-363 244,-393"/>
<text text-anchor="start" x="132" y="-381" font-family="Helvetica,sans-Serif" font-size="10.00">src/node/historical</text>
<text text-anchor="middle" x="184" y="-370" font-family="Helvetica,sans-Serif" font-size="10.00">_queries_adapter.cpp</text>
</a>
</g>
</g>
<!-- Node15&#45;&gt;Node16 -->
<g id="edge22" class="edge">
<title>Node15&#45;&gt;Node16</title>
<path fill="none" stroke="#63b8ff" d="M224.38,-421.37C215.51,-412.06 205.39,-401.44 197.5,-393.16"/>
<polygon fill="#63b8ff" stroke="#63b8ff" points="222.03,-423.97 231.46,-428.8 227.1,-419.14 222.03,-423.97"/>
</g>
<!-- Node17&#45;&gt;Node5 -->
<g id="edge29" class="edge">
<title>Node17&#45;&gt;Node5</title>
<path fill="none" stroke="#63b8ff" d="M2071.09,-364.18C2087.55,-356.19 2105.58,-344.12 2115,-327 2136.5,-287.96 2122.89,-256.02 2086,-231 2029.29,-192.53 998.06,-183.15 732.14,-181.36"/>
<polygon fill="#63b8ff" stroke="#63b8ff" points="2069.35,-361.13 2061.66,-368.42 2072.22,-367.51 2069.35,-361.13"/>
</g>
<!-- Node18 -->
<g id="node18" class="node">
<title>Node18</title>
<g id="a_node18"><a xlink:href="acme__challenge__frontend_8h.html" target="_top" xlink:title=" ">
<polygon fill="white" stroke="#666666" points="2106,-327 1966,-327 1966,-297 2106,-297 2106,-327"/>
<text text-anchor="start" x="1974" y="-315" font-family="Helvetica,sans-Serif" font-size="10.00">src/node/acme_challenge</text>
<text text-anchor="middle" x="2036" y="-304" font-family="Helvetica,sans-Serif" font-size="10.00">_frontend.h</text>
</a>
</g>
</g>
<!-- Node17&#45;&gt;Node18 -->
<g id="edge25" class="edge">
<title>Node17&#45;&gt;Node18</title>
<path fill="none" stroke="#63b8ff" d="M2036,-358.35C2036,-348.47 2036,-336.51 2036,-327.36"/>
<polygon fill="#63b8ff" stroke="#63b8ff" points="2032.5,-358.37 2036,-368.37 2039.5,-358.37 2032.5,-358.37"/>
</g>
<!-- Node20 -->
<g id="node20" class="node">
<title>Node20</title>
<g id="a_node20"><a xlink:href="member__frontend_8h.html" target="_top" xlink:title=" ">
<polygon fill="white" stroke="#666666" points="818,-327 698,-327 698,-297 818,-297 818,-327"/>
<text text-anchor="start" x="706" y="-315" font-family="Helvetica,sans-Serif" font-size="10.00">src/node/rpc/member</text>
<text text-anchor="middle" x="758" y="-304" font-family="Helvetica,sans-Serif" font-size="10.00">_frontend.h</text>
</a>
</g>
</g>
<!-- Node17&#45;&gt;Node20 -->
<g id="edge30" class="edge">
<title>Node17&#45;&gt;Node20</title>
<path fill="none" stroke="#63b8ff" d="M1961.25,-376.07C1775.49,-373.28 1278.1,-362.78 865,-327 849.79,-325.68 833.42,-323.79 818.17,-321.81"/>
<polygon fill="#63b8ff" stroke="#63b8ff" points="1961.4,-379.58 1971.45,-376.22 1961.5,-372.58 1961.4,-379.58"/>
</g>
<!-- Node21 -->
<g id="node21" class="node">
<title>Node21</title>
<g id="a_node21"><a xlink:href="node__frontend_8h.html" target="_top" xlink:title=" ">
<polygon fill="white" stroke="#666666" points="1872,-321.5 1714,-321.5 1714,-302.5 1872,-302.5 1872,-321.5"/>
<text text-anchor="middle" x="1793" y="-309.5" font-family="Helvetica,sans-Serif" font-size="10.00">src/node/rpc/node_frontend.h</text>
</a>
</g>
</g>
<!-- Node17&#45;&gt;Node21 -->
<g id="edge32" class="edge">
<title>Node17&#45;&gt;Node21</title>
<path fill="none" stroke="#63b8ff" d="M1993.72,-365.86C1945.78,-353.24 1868.69,-332.94 1825.33,-321.51"/>
<polygon fill="#63b8ff" stroke="#63b8ff" points="1992.92,-369.27 2003.48,-368.44 1994.7,-362.5 1992.92,-369.27"/>
</g>
<!-- Node23 -->
<g id="node23" class="node">
<title>Node23</title>
<g id="a_node23"><a xlink:href="user__frontend_8h.html" target="_top" xlink:title=" ">
<polygon fill="white" stroke="#666666" points="2317.5,-321.5 2162.5,-321.5 2162.5,-302.5 2317.5,-302.5 2317.5,-321.5"/>
<text text-anchor="middle" x="2240" y="-309.5" font-family="Helvetica,sans-Serif" font-size="10.00">src/node/rpc/user_frontend.h</text>
</a>
</g>
</g>
<!-- Node17&#45;&gt;Node23 -->
<g id="edge36" class="edge">
<title>Node17&#45;&gt;Node23</title>
<path fill="none" stroke="#63b8ff" d="M2073.22,-365.32C2113.46,-352.7 2176.66,-332.87 2212.6,-321.6"/>
<polygon fill="#63b8ff" stroke="#63b8ff" points="2072.01,-362.04 2063.51,-368.37 2074.1,-368.71 2072.01,-362.04"/>
</g>
<!-- Node18&#45;&gt;Node6 -->
<g id="edge26" class="edge">
<title>Node18&#45;&gt;Node6</title>
<path fill="none" stroke="#63b8ff" d="M2064.1,-290.32C2072.82,-282.25 2081.35,-272.23 2086,-261 2091.1,-248.68 2092.14,-242.83 2086,-231 2042.93,-148.05 2002.07,-141.31 1914,-110 1809.58,-72.88 1478.67,-66.61 1341.01,-65.64"/>
<polygon fill="#63b8ff" stroke="#63b8ff" points="2061.77,-287.71 2056.49,-296.89 2066.35,-293 2061.77,-287.71"/>
</g>
<!-- Node19 -->
<g id="node19" class="node">
<title>Node19</title>
<g id="a_node19"><a xlink:href="ccf__acme__client_8h.html" target="_top" xlink:title=" ">
<polygon fill="white" stroke="#666666" points="2076.5,-255.5 1927.5,-255.5 1927.5,-236.5 2076.5,-236.5 2076.5,-255.5"/>
<text text-anchor="middle" x="2002" y="-243.5" font-family="Helvetica,sans-Serif" font-size="10.00">src/node/ccf_acme_client.h</text>
</a>
</g>
</g>
<!-- Node18&#45;&gt;Node19 -->
<g id="edge27" class="edge">
<title>Node18&#45;&gt;Node19</title>
<path fill="none" stroke="#63b8ff" d="M2023.75,-287.95C2017.84,-276.81 2011.09,-264.11 2006.7,-255.84"/>
<polygon fill="#63b8ff" stroke="#63b8ff" points="2020.67,-289.61 2028.45,-296.8 2026.85,-286.32 2020.67,-289.61"/>
</g>
<!-- Node19&#45;&gt;Node5 -->
<g id="edge28" class="edge">
<title>Node19&#45;&gt;Node5</title>
<path fill="none" stroke="#63b8ff" d="M1917.11,-236.81C1893.16,-234.69 1867.07,-232.57 1843,-231 1418.66,-203.29 906.92,-187.54 732.05,-182.66"/>
<polygon fill="#63b8ff" stroke="#63b8ff" points="1916.96,-240.31 1927.23,-237.72 1917.59,-233.34 1916.96,-240.31"/>
</g>
<!-- Node20&#45;&gt;Node6 -->
<g id="edge31" class="edge">
<title>Node20&#45;&gt;Node6</title>
<path fill="none" stroke="#63b8ff" d="M797.24,-292.54C902.33,-243.12 1187.21,-109.14 1261.88,-74.02"/>
<polygon fill="#63b8ff" stroke="#63b8ff" points="795.5,-289.5 787.94,-296.92 798.48,-295.83 795.5,-289.5"/>
</g>
<!-- Node21&#45;&gt;Node6 -->
<g id="edge33" class="edge">
<title>Node21&#45;&gt;Node6</title>
<path fill="none" stroke="#63b8ff" d="M1814.76,-295.85C1825.44,-287.06 1837.22,-274.96 1843,-261 1848.1,-248.68 1848.73,-243.04 1843,-231 1806.33,-153.98 1772.75,-142.79 1694,-110 1631.77,-84.09 1440.49,-72.31 1341.21,-67.83"/>
<polygon fill="#63b8ff" stroke="#63b8ff" points="1812.35,-293.29 1806.57,-302.17 1816.63,-298.83 1812.35,-293.29"/>
</g>
<!-- Node22 -->
<g id="node22" class="node">
<title>Node22</title>
<g id="a_node22"><a xlink:href="jwt__key__auto__refresh_8h.html" target="_top" xlink:title=" ">
<polygon fill="white" stroke="#666666" points="1833.5,-261 1708.5,-261 1708.5,-231 1833.5,-231 1833.5,-261"/>
<text text-anchor="start" x="1716.5" y="-249" font-family="Helvetica,sans-Serif" font-size="10.00">src/node/jwt_key_auto</text>
<text text-anchor="middle" x="1771" y="-238" font-family="Helvetica,sans-Serif" font-size="10.00">_refresh.h</text>
</a>
</g>
</g>
<!-- Node21&#45;&gt;Node22 -->
<g id="edge34" class="edge">
<title>Node21&#45;&gt;Node22</title>
<path fill="none" stroke="#63b8ff" d="M1786.7,-292.67C1783.28,-282.72 1779.12,-270.61 1775.94,-261.36"/>
<polygon fill="#63b8ff" stroke="#63b8ff" points="1783.47,-294.05 1790.03,-302.37 1790.09,-291.77 1783.47,-294.05"/>
</g>
<!-- Node22&#45;&gt;Node5 -->
<g id="edge35" class="edge">
<title>Node22&#45;&gt;Node5</title>
<path fill="none" stroke="#63b8ff" d="M1698.32,-235.37C1684.3,-233.73 1669.71,-232.18 1656,-231 1307.42,-200.98 887.84,-187.04 732.11,-182.63"/>
<polygon fill="#63b8ff" stroke="#63b8ff" points="1698.07,-238.86 1708.41,-236.57 1698.9,-231.91 1698.07,-238.86"/>
</g>
<!-- Node23&#45;&gt;Node6 -->
<g id="edge37" class="edge">
<title>Node23&#45;&gt;Node6</title>
<path fill="none" stroke="#63b8ff" d="M2225.48,-294.89C2186.6,-253.2 2074.81,-142.76 1954,-110 1839.47,-78.95 1484.81,-69.18 1341.26,-66.45"/>
<polygon fill="#63b8ff" stroke="#63b8ff" points="2222.92,-297.28 2232.27,-302.27 2228.07,-292.54 2222.92,-297.28"/>
</g>
<!-- Node24&#45;&gt;Node19 -->
<g id="edge40" class="edge">
<title>Node24&#45;&gt;Node19</title>
<path fill="none" stroke="#63b8ff" d="M1020.39,-506.86C1206.22,-499.9 1727.73,-473.53 1876,-393 1925.06,-366.36 1920.32,-339.09 1957,-297 1969.74,-282.38 1984.88,-265.7 1993.95,-255.78"/>
<polygon fill="#63b8ff" stroke="#63b8ff" points="1020.07,-503.37 1010.21,-507.23 1020.33,-510.36 1020.07,-503.37"/>
</g>
<!-- Node25 -->
<g id="node25" class="node">
<title>Node25</title>
<g id="a_node25"><a xlink:href="network__state_8h.html" target="_top" xlink:title=" ">
<polygon fill="white" stroke="#666666" points="1115,-453.5 975,-453.5 975,-434.5 1115,-434.5 1115,-453.5"/>
<text text-anchor="middle" x="1045" y="-441.5" font-family="Helvetica,sans-Serif" font-size="10.00">src/node/network_state.h</text>
</a>
</g>
</g>
<!-- Node24&#45;&gt;Node25 -->
<g id="edge41" class="edge">
<title>Node24&#45;&gt;Node25</title>
<path fill="none" stroke="#63b8ff" d="M982.62,-488.87C999.46,-477.03 1019.91,-462.65 1032.69,-453.66"/>
<polygon fill="#63b8ff" stroke="#63b8ff" points="980.36,-486.18 974.2,-494.8 984.39,-491.91 980.36,-486.18"/>
</g>
<!-- Node36 -->
<g id="node36" class="node">
<title>Node36</title>
<g id="a_node36"><a xlink:href="genesis__gen_8h.html" target="_top" xlink:title=" ">
<polygon fill="white" stroke="#666666" points="918,-459 808,-459 808,-429 918,-429 918,-459"/>
<text text-anchor="start" x="816" y="-447" font-family="Helvetica,sans-Serif" font-size="10.00">src/service/genesis</text>
<text text-anchor="middle" x="863" y="-436" font-family="Helvetica,sans-Serif" font-size="10.00">_gen.h</text>
</a>
</g>
</g>
<!-- Node24&#45;&gt;Node36 -->
<g id="edge69" class="edge">
<title>Node24&#45;&gt;Node36</title>
<path fill="none" stroke="#63b8ff" d="M925.6,-489.03C911.83,-479.34 895.62,-467.94 883.14,-459.16"/>
<polygon fill="#63b8ff" stroke="#63b8ff" points="923.61,-491.91 933.8,-494.8 927.64,-486.18 923.61,-491.91"/>
</g>
<!-- Node25&#45;&gt;Node5 -->
<g id="edge60" class="edge">
<title>Node25&#45;&gt;Node5</title>
<path fill="none" stroke="#63b8ff" d="M1037.18,-425.14C1027.9,-406.27 1010.53,-377.3 986,-363 928.57,-329.51 736.22,-373.8 689,-327 650.88,-289.21 662.51,-215.17 667.93,-189.79"/>
<polygon fill="#63b8ff" stroke="#63b8ff" points="1034.11,-426.83 1041.5,-434.43 1040.46,-423.88 1034.11,-426.83"/>
</g>
<!-- Node25&#45;&gt;Node6 -->
<g id="edge42" class="edge">
<title>Node25&#45;&gt;Node6</title>
<path fill="none" stroke="#63b8ff" d="M1125.39,-443.24C1313.19,-442.05 1772.98,-428.6 1881,-327 1907.62,-301.96 1900,-283.54 1900,-247 1900,-247 1900,-247 1900,-179 1900,-97.46 1809.16,-129.55 1730,-110 1593.95,-76.41 1428.85,-68.03 1341.35,-66.03"/>
<polygon fill="#63b8ff" stroke="#63b8ff" points="1125.29,-439.74 1115.3,-443.29 1125.32,-446.74 1125.29,-439.74"/>
</g>
<!-- Node25&#45;&gt;Node14 -->
<g id="edge68" class="edge">
<title>Node25&#45;&gt;Node14</title>
<path fill="none" stroke="#63b8ff" d="M964.77,-433.27C854,-419.76 666.06,-396.59 651,-393 572.76,-374.36 483.89,-338.03 445.43,-321.52"/>
<polygon fill="#63b8ff" stroke="#63b8ff" points="964.56,-436.77 974.91,-434.5 965.41,-429.82 964.56,-436.77"/>
</g>
<!-- Node25&#45;&gt;Node18 -->
<g id="edge59" class="edge">
<title>Node25&#45;&gt;Node18</title>
<path fill="none" stroke="#63b8ff" d="M1125.22,-442.26C1305.12,-439.94 1735.97,-430.53 1876,-393 1929.1,-378.77 1985.26,-345.97 2014.86,-327.09"/>
<polygon fill="#63b8ff" stroke="#63b8ff" points="1124.99,-438.76 1115.03,-442.39 1125.07,-445.76 1124.99,-438.76"/>
</g>
<!-- Node25&#45;&gt;Node21 -->
<g id="edge61" class="edge">
<title>Node25&#45;&gt;Node21</title>
<path fill="none" stroke="#63b8ff" d="M1125.47,-433.87C1200.6,-424.94 1315.72,-410.19 1415,-393 1541.57,-371.09 1690.3,-337.19 1757.21,-321.5"/>
<polygon fill="#63b8ff" stroke="#63b8ff" points="1124.66,-430.44 1115.14,-435.09 1125.48,-437.4 1124.66,-430.44"/>
</g>
<!-- Node25&#45;&gt;Node23 -->
<g id="edge62" class="edge">
<title>Node25&#45;&gt;Node23</title>
<path fill="none" stroke="#63b8ff" d="M1125.16,-441.54C1356.87,-437.01 2016.92,-421.72 2110,-393 2159.63,-377.69 2209.47,-338.93 2230.1,-321.6"/>
<polygon fill="#63b8ff" stroke="#63b8ff" points="1125.05,-438.05 1115.12,-441.74 1125.18,-445.04 1125.05,-438.05"/>
</g>
<!-- Node26 -->
<g id="node26" class="node">
<title>Node26</title>
<g id="a_node26"><a xlink:href="wrap_8h.html" target="_top" xlink:title=" ">
<polygon fill="white" stroke="#666666" points="1254,-387.5 1176,-387.5 1176,-368.5 1254,-368.5 1254,-387.5"/>
<text text-anchor="middle" x="1215" y="-375.5" font-family="Helvetica,sans-Serif" font-size="10.00">src/js/wrap.h</text>
</a>
</g>
</g>
<!-- Node25&#45;&gt;Node26 -->
<g id="edge43" class="edge">
<title>Node25&#45;&gt;Node26</title>
<path fill="none" stroke="#63b8ff" d="M1077.3,-430.84C1110.89,-418.2 1162.6,-398.73 1192.17,-387.6"/>
<polygon fill="#63b8ff" stroke="#63b8ff" points="1076.05,-427.57 1067.93,-434.37 1078.52,-434.12 1076.05,-427.57"/>
</g>
<!-- Node34 -->
<g id="node34" class="node">
<title>Node34</title>
<g id="a_node34"><a xlink:href="secret__broadcast_8h.html" target="_top" xlink:title=" ">
<polygon fill="white" stroke="#666666" points="813.5,-387.5 660.5,-387.5 660.5,-368.5 813.5,-368.5 813.5,-387.5"/>
<text text-anchor="middle" x="737" y="-375.5" font-family="Helvetica,sans-Serif" font-size="10.00">src/node/secret_broadcast.h</text>
</a>
</g>
</g>
<!-- Node25&#45;&gt;Node34 -->
<g id="edge63" class="edge">
<title>Node25&#45;&gt;Node34</title>
<path fill="none" stroke="#63b8ff" d="M993.68,-432.34C933.11,-419.75 833.63,-399.08 777.97,-387.51"/>
<polygon fill="#63b8ff" stroke="#63b8ff" points="993.28,-435.83 1003.78,-434.44 994.7,-428.97 993.28,-435.83"/>
</g>
<!-- Node35 -->
<g id="node35" class="node">
<title>Node35</title>
<g id="a_node35"><a xlink:href="share__manager_8h.html" target="_top" xlink:title=" ">
<polygon fill="white" stroke="#666666" points="976.5,-387.5 831.5,-387.5 831.5,-368.5 976.5,-368.5 976.5,-387.5"/>
<text text-anchor="middle" x="904" y="-375.5" font-family="Helvetica,sans-Serif" font-size="10.00">src/node/share_manager.h</text>
</a>
</g>
</g>
<!-- Node25&#45;&gt;Node35 -->
<g id="edge65" class="edge">
<title>Node25&#45;&gt;Node35</title>
<path fill="none" stroke="#63b8ff" d="M1016.79,-430.19C989,-417.58 947.31,-398.66 923.16,-387.7"/>
<polygon fill="#63b8ff" stroke="#63b8ff" points="1015.43,-433.42 1025.98,-434.37 1018.32,-427.05 1015.43,-433.42"/>
</g>
<!-- Node26&#45;&gt;Node5 -->
<g id="edge56" class="edge">
<title>Node26&#45;&gt;Node5</title>
<path fill="none" stroke="#63b8ff" d="M1248.6,-365.51C1252.09,-364.56 1255.6,-363.7 1259,-363 1339.92,-346.38 1573.49,-388.18 1629,-327 1637.96,-317.13 1637.84,-306.98 1629,-297 1569.28,-229.62 934.91,-193.66 732.02,-183.82"/>
<polygon fill="#63b8ff" stroke="#63b8ff" points="1247.56,-362.17 1238.96,-368.37 1249.55,-368.88 1247.56,-362.17"/>
</g>
<!-- Node26&#45;&gt;Node6 -->
<g id="edge45" class="edge">
<title>Node26&#45;&gt;Node6</title>
<path fill="none" stroke="#63b8ff" d="M1248.35,-365.57C1251.92,-364.59 1255.52,-363.71 1259,-363 1343.64,-345.81 1587.82,-390.84 1646,-327 1758.96,-203.04 1424.85,-103.04 1314.24,-74.03"/>
<polygon fill="#63b8ff" stroke="#63b8ff" points="1247.09,-362.29 1238.5,-368.49 1249.08,-369 1247.09,-362.29"/>
</g>
<!-- Node26&#45;&gt;Node20 -->
<g id="edge57" class="edge">
<title>Node26&#45;&gt;Node20</title>
<path fill="none" stroke="#63b8ff" d="M1165.46,-371.45C1092.34,-363.05 951.29,-346.05 832,-327 827.48,-326.28 822.81,-325.49 818.13,-324.67"/>
<polygon fill="#63b8ff" stroke="#63b8ff" points="1165.41,-374.97 1175.75,-372.63 1166.21,-368.01 1165.41,-374.97"/>
</g>
<!-- Node26&#45;&gt;Node21 -->
<g id="edge58" class="edge">
<title>Node26&#45;&gt;Node21</title>
<path fill="none" stroke="#63b8ff" d="M1264.24,-372.69C1351.96,-364.84 1541.03,-347.15 1700,-327 1712.63,-325.4 1726.2,-323.47 1738.96,-321.57"/>
<polygon fill="#63b8ff" stroke="#63b8ff" points="1263.7,-369.22 1254.05,-373.6 1264.32,-376.2 1263.7,-369.22"/>
</g>
<!-- Node27 -->
<g id="node27" class="node">
<title>Node27</title>
<g id="a_node27"><a xlink:href="js__generic__base_8cpp.html" target="_top" xlink:title=" ">
<polygon fill="white" stroke="#666666" points="1620,-327 1502,-327 1502,-297 1620,-297 1620,-327"/>
<text text-anchor="start" x="1510" y="-315" font-family="Helvetica,sans-Serif" font-size="10.00">src/apps/js_generic</text>
<text text-anchor="middle" x="1561" y="-304" font-family="Helvetica,sans-Serif" font-size="10.00">/js_generic_base.cpp</text>
</a>
</g>
</g>
<!-- Node26&#45;&gt;Node27 -->
<g id="edge44" class="edge">
<title>Node26&#45;&gt;Node27</title>
<path fill="none" stroke="#63b8ff" d="M1264.12,-368.55C1319.73,-358.89 1412.99,-342.43 1493,-327 1495.84,-326.45 1498.75,-325.88 1501.68,-325.3"/>
<polygon fill="#63b8ff" stroke="#63b8ff" points="1263.45,-365.11 1254.19,-370.27 1264.64,-372.01 1263.45,-365.11"/>
</g>
<!-- Node28 -->
<g id="node28" class="node">
<title>Node28</title>
<g id="a_node28"><a xlink:href="consensus_8cpp.html" target="_top" xlink:title=" ">
<polygon fill="white" stroke="#666666" points="1338,-321.5 1222,-321.5 1222,-302.5 1338,-302.5 1338,-321.5"/>
<text text-anchor="middle" x="1280" y="-309.5" font-family="Helvetica,sans-Serif" font-size="10.00">src/js/consensus.cpp</text>
</a>
</g>
</g>
<!-- Node26&#45;&gt;Node28 -->
<g id="edge46" class="edge">
<title>Node26&#45;&gt;Node28</title>
<path fill="none" stroke="#63b8ff" d="M1230.92,-361.33C1243.5,-348.94 1260.62,-332.09 1270.96,-321.91"/>
<polygon fill="#63b8ff" stroke="#63b8ff" points="1228.44,-358.86 1223.77,-368.37 1233.35,-363.85 1228.44,-358.86"/>
</g>
<!-- Node29 -->
<g id="node29" class="node">
<title>Node29</title>
<g id="a_node29"><a xlink:href="wrap_8cpp.html" target="_top" xlink:title=" ">
<polygon fill="white" stroke="#666666" points="1072.5,-255.5 983.5,-255.5 983.5,-236.5 1072.5,-236.5 1072.5,-255.5"/>
<text text-anchor="middle" x="1028" y="-243.5" font-family="Helvetica,sans-Serif" font-size="10.00">src/js/wrap.cpp</text>
</a>
</g>
</g>
<!-- Node26&#45;&gt;Node29 -->
<g id="edge55" class="edge">
<title>Node26&#45;&gt;Node29</title>
<path fill="none" stroke="#63b8ff" d="M1165.8,-373.5C1074.07,-366.48 884.43,-349.41 865,-327 827.87,-284.19 923.25,-262.06 983.35,-252.67"/>
<polygon fill="#63b8ff" stroke="#63b8ff" points="1165.71,-377.01 1175.95,-374.27 1166.24,-370.03 1165.71,-377.01"/>
</g>
<!-- Node30 -->
<g id="node30" class="node">
<title>Node30</title>
<g id="a_node30"><a xlink:href="conv_8cpp.html" target="_top" xlink:title=" ">
<polygon fill="white" stroke="#666666" points="962,-321.5 874,-321.5 874,-302.5 962,-302.5 962,-321.5"/>
<text text-anchor="middle" x="918" y="-309.5" font-family="Helvetica,sans-Serif" font-size="10.00">src/js/conv.cpp</text>
</a>
</g>
</g>
<!-- Node26&#45;&gt;Node30 -->
<g id="edge48" class="edge">
<title>Node26&#45;&gt;Node30</title>
<path fill="none" stroke="#63b8ff" d="M1165.89,-367.78C1116.48,-358.3 1038.21,-342.75 971,-327 963.87,-325.33 956.23,-323.4 949.04,-321.51"/>
<polygon fill="#63b8ff" stroke="#63b8ff" points="1165.5,-371.26 1175.97,-369.7 1166.81,-364.39 1165.5,-371.26"/>
</g>
<!-- Node31 -->
<g id="node31" class="node">
<title>Node31</title>
<g id="a_node31"><a xlink:href="crypto_8cpp.html" target="_top" xlink:title=" ">
<polygon fill="white" stroke="#666666" points="1076,-321.5 980,-321.5 980,-302.5 1076,-302.5 1076,-321.5"/>
<text text-anchor="middle" x="1028" y="-309.5" font-family="Helvetica,sans-Serif" font-size="10.00">src/js/crypto.cpp</text>
</a>
</g>
</g>
<!-- Node26&#45;&gt;Node31 -->
<g id="edge50" class="edge">
<title>Node26&#45;&gt;Node31</title>
<path fill="none" stroke="#63b8ff" d="M1179.94,-365C1143.01,-352.36 1085.78,-332.78 1053.12,-321.6"/>
<polygon fill="#63b8ff" stroke="#63b8ff" points="1179.19,-368.44 1189.78,-368.37 1181.45,-361.82 1179.19,-368.44"/>
</g>
<!-- Node32 -->
<g id="node32" class="node">
<title>Node32</title>
<g id="a_node32"><a xlink:href="historical_8cpp.html" target="_top" xlink:title=" ">
<polygon fill="white" stroke="#666666" points="1204,-321.5 1094,-321.5 1094,-302.5 1204,-302.5 1204,-321.5"/>
<text text-anchor="middle" x="1149" y="-309.5" font-family="Helvetica,sans-Serif" font-size="10.00">src/js/historical.cpp</text>
</a>
</g>
</g>
<!-- Node26&#45;&gt;Node32 -->
<g id="edge52" class="edge">
<title>Node26&#45;&gt;Node32</title>
<path fill="none" stroke="#63b8ff" d="M1198.84,-361.33C1186.06,-348.94 1168.68,-332.09 1158.18,-321.91"/>
<polygon fill="#63b8ff" stroke="#63b8ff" points="1196.48,-363.92 1206.1,-368.37 1201.36,-358.89 1196.48,-363.92"/>
</g>
<!-- Node33 -->
<g id="node33" class="node">
<title>Node33</title>
<g id="a_node33"><a xlink:href="openenclave_8cpp.html" target="_top" xlink:title=" ">
<polygon fill="white" stroke="#666666" points="1484,-321.5 1356,-321.5 1356,-302.5 1484,-302.5 1484,-321.5"/>
<text text-anchor="middle" x="1420" y="-309.5" font-family="Helvetica,sans-Serif" font-size="10.00">src/js/openenclave.cpp</text>
</a>
</g>
</g>
<!-- Node26&#45;&gt;Node33 -->
<g id="edge54" class="edge">
<title>Node26&#45;&gt;Node33</title>
<path fill="none" stroke="#63b8ff" d="M1252.4,-365.32C1292.84,-352.7 1356.35,-332.87 1392.46,-321.6"/>
<polygon fill="#63b8ff" stroke="#63b8ff" points="1251.15,-362.05 1242.65,-368.37 1253.24,-368.73 1251.15,-362.05"/>
</g>
<!-- Node28&#45;&gt;Node29 -->
<g id="edge47" class="edge">
<title>Node28&#45;&gt;Node29</title>
<path fill="none" stroke="#63b8ff" d="M1236.46,-299.94C1186.78,-287.32 1106.59,-266.96 1061.52,-255.51"/>
<polygon fill="#63b8ff" stroke="#63b8ff" points="1235.72,-303.37 1246.28,-302.44 1237.44,-296.58 1235.72,-303.37"/>
</g>
<!-- Node30&#45;&gt;Node29 -->
<g id="edge49" class="edge">
<title>Node30&#45;&gt;Node29</title>
<path fill="none" stroke="#63b8ff" d="M941.74,-297.19C963.38,-284.59 994.71,-266.37 1013.05,-255.7"/>
<polygon fill="#63b8ff" stroke="#63b8ff" points="939.72,-294.31 932.84,-302.37 943.24,-300.36 939.72,-294.31"/>
</g>
<!-- Node31&#45;&gt;Node29 -->
<g id="edge51" class="edge">
<title>Node31&#45;&gt;Node29</title>
<path fill="none" stroke="#63b8ff" d="M1028,-292.08C1028,-280.13 1028,-265.22 1028,-255.91"/>
<polygon fill="#63b8ff" stroke="#63b8ff" points="1024.5,-292.37 1028,-302.37 1031.5,-292.37 1024.5,-292.37"/>
</g>
<!-- Node32&#45;&gt;Node29 -->
<g id="edge53" class="edge">
<title>Node32&#45;&gt;Node29</title>
<path fill="none" stroke="#63b8ff" d="M1123.53,-297.53C1099.7,-284.92 1064.8,-266.47 1044.45,-255.7"/>
<polygon fill="#63b8ff" stroke="#63b8ff" points="1122.21,-300.79 1132.68,-302.37 1125.48,-294.6 1122.21,-300.79"/>
</g>
<!-- Node34&#45;&gt;Node5 -->
<g id="edge64" class="edge">
<title>Node34&#45;&gt;Node5</title>
<path fill="none" stroke="#63b8ff" d="M674.1,-365.41C652.62,-358.12 630.8,-346.26 618,-327 594.39,-291.46 601.29,-270.26 618,-231 625.65,-213.02 643.29,-198.39 655.9,-189.7"/>
<polygon fill="#63b8ff" stroke="#63b8ff" points="673.33,-368.83 683.92,-368.45 675.4,-362.15 673.33,-368.83"/>
</g>
<!-- Node35&#45;&gt;Node5 -->
<g id="edge66" class="edge">
<title>Node35&#45;&gt;Node5</title>
<path fill="none" stroke="#63b8ff" d="M847.93,-366.6C775.73,-353.08 659.07,-330.75 656,-327 622.29,-285.82 652.95,-214.57 665.35,-189.79"/>
<polygon fill="#63b8ff" stroke="#63b8ff" points="847.34,-370.05 857.81,-368.45 848.62,-363.17 847.34,-370.05"/>
</g>
<!-- Node35&#45;&gt;Node20 -->
<g id="edge67" class="edge">
<title>Node35&#45;&gt;Node20</title>
<path fill="none" stroke="#63b8ff" d="M874.85,-364.22C850.38,-353.5 815.48,-338.2 790.2,-327.12"/>
<polygon fill="#63b8ff" stroke="#63b8ff" points="873.75,-367.56 884.31,-368.37 876.56,-361.15 873.75,-367.56"/>
</g>
<!-- Node36&#45;&gt;Node5 -->
<g id="edge70" class="edge">
<title>Node36&#45;&gt;Node5</title>
<path fill="none" stroke="#63b8ff" d="M797.77,-441.62C750.34,-437.66 686.71,-425.89 641,-393 580.97,-349.81 568.85,-296.6 603,-231 613.12,-211.56 634.61,-197.66 650.54,-189.52"/>
<polygon fill="#63b8ff" stroke="#63b8ff" points="797.7,-445.13 807.93,-442.38 798.22,-438.15 797.7,-445.13"/>
</g>
<!-- Node36&#45;&gt;Node20 -->
<g id="edge71" class="edge">
<title>Node36&#45;&gt;Node20</title>
<path fill="none" stroke="#63b8ff" d="M797.88,-436.44C742.49,-429.36 669.12,-415.89 651,-393 628.54,-364.63 673.19,-341.13 711.49,-327.1"/>
<polygon fill="#63b8ff" stroke="#63b8ff" points="797.64,-439.94 808,-437.69 798.5,-432.99 797.64,-439.94"/>
</g>
<!-- Node36&#45;&gt;Node21 -->
<g id="edge72" class="edge">
<title>Node36&#45;&gt;Node21</title>
<path fill="none" stroke="#63b8ff" d="M928.01,-434.02C940.61,-432.32 953.71,-430.58 966,-429 1097.88,-412.05 1131.68,-413.89 1263,-393 1331,-382.18 1347.02,-373.99 1415,-363 1541.04,-342.63 1573.53,-344.5 1700,-327 1712.29,-325.3 1725.48,-323.37 1737.95,-321.51"/>
<polygon fill="#63b8ff" stroke="#63b8ff" points="927.48,-430.56 918.04,-435.37 928.42,-437.49 927.48,-430.56"/>
</g>
<!-- Node36&#45;&gt;Node34 -->
<g id="edge73" class="edge">
<title>Node36&#45;&gt;Node34</title>
<path fill="none" stroke="#63b8ff" d="M826.18,-424.3C802.24,-412.14 772.16,-396.86 753.77,-387.52"/>
<polygon fill="#63b8ff" stroke="#63b8ff" points="824.85,-427.55 835.35,-428.95 828.02,-421.31 824.85,-427.55"/>
</g>
<!-- Node36&#45;&gt;Node35 -->
<g id="edge74" class="edge">
<title>Node36&#45;&gt;Node35</title>
<path fill="none" stroke="#63b8ff" d="M877.56,-420.28C884.74,-409.07 892.99,-396.19 898.33,-387.84"/>
<polygon fill="#63b8ff" stroke="#63b8ff" points="874.55,-418.49 872.1,-428.8 880.44,-422.26 874.55,-418.49"/>
</g>
<!-- Node37&#45;&gt;Node17 -->
<g id="edge78" class="edge">
<title>Node37&#45;&gt;Node17</title>
<path fill="none" stroke="#63b8ff" d="M1586.38,-635.99C1726.05,-625.68 1997.79,-596.69 2056,-525 2089.71,-483.49 2055.05,-412.45 2041.18,-387.76"/>
<polygon fill="#63b8ff" stroke="#63b8ff" points="1585.87,-632.52 1576.15,-636.73 1586.37,-639.5 1585.87,-632.52"/>
</g>
<!-- Node38 -->
<g id="node38" class="node">
<title>Node38</title>
<g id="a_node38"><a xlink:href="external__executor_8cpp.html" target="_top" xlink:title=" ">
<polygon fill="white" stroke="#666666" points="1577,-591 1429,-591 1429,-561 1577,-561 1577,-591"/>
<text text-anchor="start" x="1437" y="-579" font-family="Helvetica,sans-Serif" font-size="10.00">src/apps/external_executor</text>
<text text-anchor="middle" x="1503" y="-568" font-family="Helvetica,sans-Serif" font-size="10.00">/external_executor.cpp</text>
</a>
</g>
</g>
<!-- Node37&#45;&gt;Node38 -->
<g id="edge77" class="edge">
<title>Node37&#45;&gt;Node38</title>
<path fill="none" stroke="#63b8ff" d="M1503,-616.54C1503,-607.96 1503,-598.61 1503,-591.16"/>
<polygon fill="#63b8ff" stroke="#63b8ff" points="1499.5,-616.8 1503,-626.8 1506.5,-616.8 1499.5,-616.8"/>
</g>
</g>
</svg>
        <g id="navigator" transform="translate(0 0)" fill="#404254">
                <rect fill="#f2f5e9" fill-opacity="0.5" stroke="#606060" stroke-width=".5" x="0" y="0" width="60" height="60"/>
                <use id="zoomplus" xlink:href="#zoomPlus" x="17" y="9" onmousedown="handleZoom(evt,'in')"/>
                <use id="zoomminus" xlink:href="#zoomMin" x="42" y="9" onmousedown="handleZoom(evt,'out')"/>
                <use id="reset" xlink:href="#resetDef" x="30" y="36" onmousedown="handleReset()"/>
                <g id="arrowUp" xlink:href="#dirArrow" transform="translate(30 24)" onmousedown="handlePan(0,-1)">
                  <use xlink:href="#rim" fill="#404040">
                        <set attributeName="fill" to="#808080" begin="arrowUp.mouseover" end="arrowUp.mouseout"/>
                  </use>
                  <path fill="none" stroke="white" stroke-width="1.5" d="M0,-3.0v7 M-2.5,-0.5L0,-3.0L2.5,-0.5"/>
                </g>
                <g id="arrowRight" xlink:href="#dirArrow" transform="rotate(90) translate(36 -43)" onmousedown="handlePan(1,0)">
                  <use xlink:href="#rim" fill="#404040">
                        <set attributeName="fill" to="#808080" begin="arrowRight.mouseover" end="arrowRight.mouseout"/>
                  </use>
                  <path fill="none" stroke="white" stroke-width="1.5" d="M0,-3.0v7 M-2.5,-0.5L0,-3.0L2.5,-0.5"/>
                </g>
                <g id="arrowDown" xlink:href="#dirArrow" transform="rotate(180) translate(-30 -48)" onmousedown="handlePan(0,1)">
                  <use xlink:href="#rim" fill="#404040">
                        <set attributeName="fill" to="#808080" begin="arrowDown.mouseover" end="arrowDown.mouseout"/>
                  </use>
                  <path fill="none" stroke="white" stroke-width="1.5" d="M0,-3.0v7 M-2.5,-0.5L0,-3.0L2.5,-0.5"/>
                </g>
                <g id="arrowLeft" xlink:href="#dirArrow" transform="rotate(270) translate(-36 17)" onmousedown="handlePan(-1,0)">
                  <use xlink:href="#rim" fill="#404040">
                        <set attributeName="fill" to="#808080" begin="arrowLeft.mouseover" end="arrowLeft.mouseout"/>
                  </use>
                  <path fill="none" stroke="white" stroke-width="1.5" d="M0,-3.0v7 M-2.5,-0.5L0,-3.0L2.5,-0.5"/>
                </g>
        </g>
        <svg viewBox="0 0 15 15" width="100%" height="30px" preserveAspectRatio="xMaxYMin meet">
         <g id="arrow_out" transform="scale(0.3 0.3)">
          <a xlink:href="committable__tx_8h__dep__incl_org.svg" target="_base">
           <rect id="button" ry="5" rx="5" y="6" x="6" height="38" width="38"
                fill="#f2f5e9" fill-opacity="0.5" stroke="#606060" stroke-width="1.0"/>
           <path id="arrow"
             d="M 11.500037,31.436501 C 11.940474,20.09759 22.043105,11.32322 32.158766,21.979434 L 37.068811,17.246167 C 37.068811,17.246167 37.088388,32 37.088388,32 L 22.160133,31.978069 C 22.160133,31.978069 26.997745,27.140456 26.997745,27.140456 C 18.528582,18.264221 13.291696,25.230495 11.500037,31.436501 z"
             style="fill:#404040;"/>
          </a>
         </g>
        </svg>
</svg>
