<?xml version="1.0" encoding="UTF-8" standalone="no"?>
<!DOCTYPE svg PUBLIC "-//W3C//DTD SVG 1.1//EN"
 "http://www.w3.org/Graphics/SVG/1.1/DTD/svg11.dtd">
<!-- Generated by graphviz version 2.43.0 (0)
 -->
<!-- Title: src/service/tables/config.h Pages: 1 -->
<svg width="742pt" height="280pt"
 viewBox="0.00 0.00 742.00 280.00" xmlns="http://www.w3.org/2000/svg" xmlns:xlink="http://www.w3.org/1999/xlink">
<g id="graph0" class="graph" transform="scale(1 1) rotate(0) translate(4 276)">
<title>src/service/tables/config.h</title>
<!-- Node1 -->
<g id="node1" class="node">
<title>Node1</title>
<g id="a_node1"><a xlink:title=" ">
<polygon fill="#999999" stroke="#666666" points="502,-272 400,-272 400,-242 502,-242 502,-272"/>
<text text-anchor="start" x="408" y="-260" font-family="Helvetica,sans-Serif" font-size="10.00">src/service/tables</text>
<text text-anchor="middle" x="451" y="-249" font-family="Helvetica,sans-Serif" font-size="10.00">/config.h</text>
</a>
</g>
</g>
<!-- Node2 -->
<g id="node2" class="node">
<title>Node2</title>
<g id="a_node2"><a xlink:href="json_8h.html" target="_top" xlink:title=" ">
<polygon fill="white" stroke="#666666" points="210.5,-200.5 133.5,-200.5 133.5,-181.5 210.5,-181.5 210.5,-200.5"/>
<text text-anchor="middle" x="172" y="-188.5" font-family="Helvetica,sans-Serif" font-size="10.00">ccf/ds/json.h</text>
</a>
</g>
</g>
<!-- Node1&#45;&gt;Node2 -->
<g id="edge1" class="edge">
<title>Node1&#45;&gt;Node2</title>
<path fill="none" stroke="#63b8ff" d="M399.83,-244.26C348.32,-232.45 269.51,-214.37 219.39,-202.87"/>
<polygon fill="#63b8ff" stroke="#63b8ff" points="219.98,-199.42 209.46,-200.59 218.42,-206.24 219.98,-199.42"/>
</g>
<!-- Node17 -->
<g id="node17" class="node">
<title>Node17</title>
<g id="a_node17"><a xlink:href="include_2ccf_2service_2consensus__type_8h.html" target="_top" xlink:title=" ">
<polygon fill="white" stroke="#666666" points="463.5,-140 340.5,-140 340.5,-110 463.5,-110 463.5,-140"/>
<text text-anchor="start" x="348.5" y="-128" font-family="Helvetica,sans-Serif" font-size="10.00">ccf/service/consensus</text>
<text text-anchor="middle" x="402" y="-117" font-family="Helvetica,sans-Serif" font-size="10.00">_type.h</text>
</a>
</g>
</g>
<!-- Node1&#45;&gt;Node17 -->
<g id="edge19" class="edge">
<title>Node1&#45;&gt;Node17</title>
<path fill="none" stroke="#63b8ff" d="M444.7,-241.65C440.4,-231.71 434.66,-218.13 430,-206 422.81,-187.3 415.34,-165.86 409.93,-149.88"/>
<polygon fill="#63b8ff" stroke="#63b8ff" points="413.2,-148.62 406.7,-140.26 406.57,-150.85 413.2,-148.62"/>
</g>
<!-- Node18 -->
<g id="node18" class="node">
<title>Node18</title>
<g id="a_node18"><a xlink:href="include_2ccf_2service_2reconfiguration__type_8h.html" target="_top" xlink:title=" ">
<polygon fill="white" stroke="#666666" points="734,-140 588,-140 588,-110 734,-110 734,-140"/>
<text text-anchor="start" x="596" y="-128" font-family="Helvetica,sans-Serif" font-size="10.00">ccf/service/reconfiguration</text>
<text text-anchor="middle" x="661" y="-117" font-family="Helvetica,sans-Serif" font-size="10.00">_type.h</text>
</a>
</g>
</g>
<!-- Node1&#45;&gt;Node18 -->
<g id="edge20" class="edge">
<title>Node1&#45;&gt;Node18</title>
<path fill="none" stroke="#63b8ff" d="M484.67,-241.86C505.47,-232.63 532.42,-219.76 555,-206 584.55,-187.99 615.88,-163.6 636.75,-146.51"/>
<polygon fill="#63b8ff" stroke="#63b8ff" points="639.01,-149.18 644.48,-140.11 634.54,-143.79 639.01,-149.18"/>
</g>
<!-- Node19 -->
<g id="node19" class="node">
<title>Node19</title>
<g id="a_node19"><a xlink:href="service__config_8h.html" target="_top" xlink:title=" ">
<polygon fill="white" stroke="#666666" points="545.5,-206 438.5,-206 438.5,-176 545.5,-176 545.5,-206"/>
<text text-anchor="start" x="446.5" y="-194" font-family="Helvetica,sans-Serif" font-size="10.00">ccf/service/service</text>
<text text-anchor="middle" x="492" y="-183" font-family="Helvetica,sans-Serif" font-size="10.00">_config.h</text>
</a>
</g>
</g>
<!-- Node1&#45;&gt;Node19 -->
<g id="edge21" class="edge">
<title>Node1&#45;&gt;Node19</title>
<path fill="none" stroke="#63b8ff" d="M460.1,-241.8C465.2,-233.84 471.67,-223.74 477.45,-214.71"/>
<polygon fill="#63b8ff" stroke="#63b8ff" points="480.48,-216.47 482.93,-206.16 474.58,-212.7 480.48,-216.47"/>
</g>
<!-- Node3 -->
<g id="node3" class="node">
<title>Node3</title>
<g id="a_node3"><a xlink:href="include_2ccf_2crypto_2base64_8h.html" target="_top" xlink:title=" ">
<polygon fill="white" stroke="#666666" points="112,-74 0,-74 0,-55 112,-55 112,-74"/>
<text text-anchor="middle" x="56" y="-62" font-family="Helvetica,sans-Serif" font-size="10.00">ccf/crypto/base64.h</text>
</a>
</g>
</g>
<!-- Node2&#45;&gt;Node3 -->
<g id="edge2" class="edge">
<title>Node2&#45;&gt;Node3</title>
<path fill="none" stroke="#63b8ff" d="M143.8,-181.37C123.1,-173.66 95.77,-160.38 79,-140 65.86,-124.03 60.21,-100.6 57.8,-84.29"/>
<polygon fill="#63b8ff" stroke="#63b8ff" points="61.26,-83.82 56.58,-74.32 54.32,-84.67 61.26,-83.82"/>
</g>
<!-- Node6 -->
<g id="node6" class="node">
<title>Node6</title>
<g id="a_node6"><a xlink:href="include_2ccf_2ds_2json__schema_8h.html" target="_top" xlink:title=" ">
<polygon fill="white" stroke="#666666" points="322.5,-134.5 201.5,-134.5 201.5,-115.5 322.5,-115.5 322.5,-134.5"/>
<text text-anchor="middle" x="262" y="-122.5" font-family="Helvetica,sans-Serif" font-size="10.00">ccf/ds/json_schema.h</text>
</a>
</g>
</g>
<!-- Node2&#45;&gt;Node6 -->
<g id="edge5" class="edge">
<title>Node2&#45;&gt;Node6</title>
<path fill="none" stroke="#63b8ff" d="M184.14,-181.37C198.77,-170.97 223.58,-153.32 241.26,-140.75"/>
<polygon fill="#63b8ff" stroke="#63b8ff" points="243.65,-143.35 249.77,-134.7 239.59,-137.64 243.65,-143.35"/>
</g>
<!-- Node14 -->
<g id="node14" class="node">
<title>Node14</title>
<g id="a_node14"><a xlink:title=" ">
<polygon fill="#e0e0e0" stroke="#999999" points="209.5,-74 130.5,-74 130.5,-55 209.5,-55 209.5,-74"/>
<text text-anchor="middle" x="170" y="-62" font-family="Helvetica,sans-Serif" font-size="10.00">fmt/format.h</text>
</a>
</g>
</g>
<!-- Node2&#45;&gt;Node14 -->
<g id="edge17" class="edge">
<title>Node2&#45;&gt;Node14</title>
<path fill="none" stroke="#63b8ff" d="M171.86,-181.44C171.54,-161.54 170.74,-111.76 170.3,-84.35"/>
<polygon fill="#63b8ff" stroke="#63b8ff" points="173.8,-84.06 170.14,-74.12 166.8,-84.17 173.8,-84.06"/>
</g>
<!-- Node16 -->
<g id="node16" class="node">
<title>Node16</title>
<g id="a_node16"><a xlink:title=" ">
<polygon fill="#e0e0e0" stroke="#999999" points="144,-134.5 88,-134.5 88,-115.5 144,-115.5 144,-134.5"/>
<text text-anchor="middle" x="116" y="-122.5" font-family="Helvetica,sans-Serif" font-size="10.00">sstream</text>
</a>
</g>
</g>
<!-- Node2&#45;&gt;Node16 -->
<g id="edge18" class="edge">
<title>Node2&#45;&gt;Node16</title>
<path fill="none" stroke="#63b8ff" d="M164.45,-181.37C155.81,-171.5 141.47,-155.11 130.63,-142.72"/>
<polygon fill="#63b8ff" stroke="#63b8ff" points="133.01,-140.13 123.79,-134.91 127.74,-144.74 133.01,-140.13"/>
</g>
<!-- Node4 -->
<g id="node4" class="node">
<title>Node4</title>
<g id="a_node4"><a xlink:title=" ">
<polygon fill="#e0e0e0" stroke="#999999" points="200,-19 156,-19 156,0 200,0 200,-19"/>
<text text-anchor="middle" x="178" y="-7" font-family="Helvetica,sans-Serif" font-size="10.00">string</text>
</a>
</g>
</g>
<!-- Node3&#45;&gt;Node4 -->
<g id="edge3" class="edge">
<title>Node3&#45;&gt;Node4</title>
<path fill="none" stroke="#63b8ff" d="M75.6,-54.98C95.32,-46.42 125.95,-33.11 148.58,-23.28"/>
<polygon fill="#63b8ff" stroke="#63b8ff" points="150.26,-26.37 158.04,-19.17 147.48,-19.94 150.26,-26.37"/>
</g>
<!-- Node5 -->
<g id="node5" class="node">
<title>Node5</title>
<g id="a_node5"><a xlink:title=" ">
<polygon fill="#e0e0e0" stroke="#999999" points="99.5,-19 52.5,-19 52.5,0 99.5,0 99.5,-19"/>
<text text-anchor="middle" x="76" y="-7" font-family="Helvetica,sans-Serif" font-size="10.00">vector</text>
</a>
</g>
</g>
<!-- Node3&#45;&gt;Node5 -->
<g id="edge4" class="edge">
<title>Node3&#45;&gt;Node5</title>
<path fill="none" stroke="#63b8ff" d="M59.3,-54.75C61.98,-47.65 65.85,-37.4 69.19,-28.56"/>
<polygon fill="#63b8ff" stroke="#63b8ff" points="72.5,-29.68 72.76,-19.09 65.95,-27.21 72.5,-29.68"/>
</g>
<!-- Node7 -->
<g id="node7" class="node">
<title>Node7</title>
<g id="a_node7"><a xlink:href="nonstd_8h.html" target="_top" xlink:title=" ">
<polygon fill="white" stroke="#666666" points="446,-74 356,-74 356,-55 446,-55 446,-74"/>
<text text-anchor="middle" x="401" y="-62" font-family="Helvetica,sans-Serif" font-size="10.00">ccf/ds/nonstd.h</text>
</a>
</g>
</g>
<!-- Node6&#45;&gt;Node7 -->
<g id="edge6" class="edge">
<title>Node6&#45;&gt;Node7</title>
<path fill="none" stroke="#63b8ff" d="M282.21,-115.49C305.68,-105.62 344.61,-89.23 371.46,-77.93"/>
<polygon fill="#63b8ff" stroke="#63b8ff" points="372.9,-81.12 380.76,-74.02 370.19,-74.67 372.9,-81.12"/>
</g>
<!-- Node13 -->
<g id="node13" class="node">
<title>Node13</title>
<g id="a_node13"><a xlink:title=" ">
<polygon fill="#e0e0e0" stroke="#999999" points="520,-74 464,-74 464,-55 520,-55 520,-74"/>
<text text-anchor="middle" x="492" y="-62" font-family="Helvetica,sans-Serif" font-size="10.00">optional</text>
</a>
</g>
</g>
<!-- Node6&#45;&gt;Node13 -->
<g id="edge14" class="edge">
<title>Node6&#45;&gt;Node13</title>
<path fill="none" stroke="#63b8ff" d="M295.44,-115.49C337.63,-104.76 409.99,-86.36 454.16,-75.12"/>
<polygon fill="#63b8ff" stroke="#63b8ff" points="455.11,-78.49 463.94,-72.64 453.39,-71.71 455.11,-78.49"/>
</g>
<!-- Node6&#45;&gt;Node14 -->
<g id="edge15" class="edge">
<title>Node6&#45;&gt;Node14</title>
<path fill="none" stroke="#63b8ff" d="M248.43,-115.37C233.61,-105.95 209.67,-90.73 192.14,-79.58"/>
<polygon fill="#63b8ff" stroke="#63b8ff" points="193.95,-76.58 183.63,-74.17 190.19,-82.49 193.95,-76.58"/>
</g>
<!-- Node15 -->
<g id="node15" class="node">
<title>Node15</title>
<g id="a_node15"><a xlink:title=" ">
<polygon fill="#e0e0e0" stroke="#999999" points="338,-74 228,-74 228,-55 338,-55 338,-74"/>
<text text-anchor="middle" x="283" y="-62" font-family="Helvetica,sans-Serif" font-size="10.00">nlohmann/json.hpp</text>
</a>
</g>
</g>
<!-- Node6&#45;&gt;Node15 -->
<g id="edge16" class="edge">
<title>Node6&#45;&gt;Node15</title>
<path fill="none" stroke="#63b8ff" d="M265.1,-115.37C268.08,-107.07 272.67,-94.28 276.46,-83.72"/>
<polygon fill="#63b8ff" stroke="#63b8ff" points="279.8,-84.76 279.89,-74.17 273.22,-82.4 279.8,-84.76"/>
</g>
<!-- Node7&#45;&gt;Node4 -->
<g id="edge10" class="edge">
<title>Node7&#45;&gt;Node4</title>
<path fill="none" stroke="#63b8ff" d="M365.17,-54.98C322.27,-44.79 251.06,-27.86 209.96,-18.09"/>
<polygon fill="#63b8ff" stroke="#63b8ff" points="210.73,-14.68 200.19,-15.77 209.11,-21.49 210.73,-14.68"/>
</g>
<!-- Node7&#45;&gt;Node5 -->
<g id="edge13" class="edge">
<title>Node7&#45;&gt;Node5</title>
<path fill="none" stroke="#63b8ff" d="M355.81,-56.13C289.83,-45.37 168.6,-25.6 109.78,-16.01"/>
<polygon fill="#63b8ff" stroke="#63b8ff" points="110.32,-12.55 99.89,-14.4 109.2,-19.46 110.32,-12.55"/>
</g>
<!-- Node8 -->
<g id="node8" class="node">
<title>Node8</title>
<g id="a_node8"><a xlink:title=" ">
<polygon fill="#e0e0e0" stroke="#999999" points="607,-19 543,-19 543,0 607,0 607,-19"/>
<text text-anchor="middle" x="575" y="-7" font-family="Helvetica,sans-Serif" font-size="10.00">algorithm</text>
</a>
</g>
</g>
<!-- Node7&#45;&gt;Node8 -->
<g id="edge7" class="edge">
<title>Node7&#45;&gt;Node8</title>
<path fill="none" stroke="#63b8ff" d="M428.96,-54.98C458.3,-46.05 504.6,-31.94 537.19,-22.02"/>
<polygon fill="#63b8ff" stroke="#63b8ff" points="538.28,-25.34 546.82,-19.08 536.24,-18.65 538.28,-25.34"/>
</g>
<!-- Node9 -->
<g id="node9" class="node">
<title>Node9</title>
<g id="a_node9"><a xlink:title=" ">
<polygon fill="#e0e0e0" stroke="#999999" points="279,-19 237,-19 237,0 279,0 279,-19"/>
<text text-anchor="middle" x="258" y="-7" font-family="Helvetica,sans-Serif" font-size="10.00">array</text>
</a>
</g>
</g>
<!-- Node7&#45;&gt;Node9 -->
<g id="edge8" class="edge">
<title>Node7&#45;&gt;Node9</title>
<path fill="none" stroke="#63b8ff" d="M378.02,-54.98C353.8,-46.01 315.51,-31.82 288.71,-21.88"/>
<polygon fill="#63b8ff" stroke="#63b8ff" points="289.65,-18.5 279.05,-18.3 287.21,-25.06 289.65,-18.5"/>
</g>
<!-- Node10 -->
<g id="node10" class="node">
<title>Node10</title>
<g id="a_node10"><a xlink:title=" ">
<polygon fill="#e0e0e0" stroke="#999999" points="346.5,-19 297.5,-19 297.5,0 346.5,0 346.5,-19"/>
<text text-anchor="middle" x="322" y="-7" font-family="Helvetica,sans-Serif" font-size="10.00">cctype</text>
</a>
</g>
</g>
<!-- Node7&#45;&gt;Node10 -->
<g id="edge9" class="edge">
<title>Node7&#45;&gt;Node10</title>
<path fill="none" stroke="#63b8ff" d="M388.31,-54.98C376.17,-46.84 357.64,-34.41 343.25,-24.76"/>
<polygon fill="#63b8ff" stroke="#63b8ff" points="345.18,-21.84 334.92,-19.17 341.28,-27.65 345.18,-21.84"/>
</g>
<!-- Node11 -->
<g id="node11" class="node">
<title>Node11</title>
<g id="a_node11"><a xlink:title=" ">
<polygon fill="#e0e0e0" stroke="#999999" points="437.5,-19 364.5,-19 364.5,0 437.5,0 437.5,-19"/>
<text text-anchor="middle" x="401" y="-7" font-family="Helvetica,sans-Serif" font-size="10.00">string_view</text>
</a>
</g>
</g>
<!-- Node7&#45;&gt;Node11 -->
<g id="edge11" class="edge">
<title>Node7&#45;&gt;Node11</title>
<path fill="none" stroke="#63b8ff" d="M401,-54.75C401,-47.8 401,-37.85 401,-29.13"/>
<polygon fill="#63b8ff" stroke="#63b8ff" points="404.5,-29.09 401,-19.09 397.5,-29.09 404.5,-29.09"/>
</g>
<!-- Node12 -->
<g id="node12" class="node">
<title>Node12</title>
<g id="a_node12"><a xlink:title=" ">
<polygon fill="#e0e0e0" stroke="#999999" points="524.5,-19 455.5,-19 455.5,0 524.5,0 524.5,-19"/>
<text text-anchor="middle" x="490" y="-7" font-family="Helvetica,sans-Serif" font-size="10.00">type_traits</text>
</a>
</g>
</g>
<!-- Node7&#45;&gt;Node12 -->
<g id="edge12" class="edge">
<title>Node7&#45;&gt;Node12</title>
<path fill="none" stroke="#63b8ff" d="M415.3,-54.98C429.1,-46.77 450.24,-34.18 466.51,-24.49"/>
<polygon fill="#63b8ff" stroke="#63b8ff" points="468.64,-27.29 475.44,-19.17 465.06,-21.28 468.64,-27.29"/>
</g>
<!-- Node19&#45;&gt;Node13 -->
<g id="edge25" class="edge">
<title>Node19&#45;&gt;Node13</title>
<path fill="none" stroke="#63b8ff" d="M492,-175.72C492,-153.12 492,-109.12 492,-84.09"/>
<polygon fill="#63b8ff" stroke="#63b8ff" points="495.5,-84.07 492,-74.07 488.5,-84.07 495.5,-84.07"/>
</g>
<!-- Node19&#45;&gt;Node17 -->
<g id="edge22" class="edge">
<title>Node19&#45;&gt;Node17</title>
<path fill="none" stroke="#63b8ff" d="M472.03,-175.8C459.79,-167.1 443.94,-155.82 430.41,-146.2"/>
<polygon fill="#63b8ff" stroke="#63b8ff" points="432.1,-143.11 421.92,-140.16 428.04,-148.81 432.1,-143.11"/>
</g>
<!-- Node19&#45;&gt;Node18 -->
<g id="edge23" class="edge">
<title>Node19&#45;&gt;Node18</title>
<path fill="none" stroke="#63b8ff" d="M529.09,-175.95C554.18,-166.45 587.53,-153.82 614.41,-143.64"/>
<polygon fill="#63b8ff" stroke="#63b8ff" points="615.89,-146.83 624,-140.01 613.41,-140.28 615.89,-146.83"/>
</g>
<!-- Node20 -->
<g id="node20" class="node">
<title>Node20</title>
<g id="a_node20"><a xlink:title=" ">
<polygon fill="#e0e0e0" stroke="#999999" points="570,-134.5 520,-134.5 520,-115.5 570,-115.5 570,-134.5"/>
<text text-anchor="middle" x="545" y="-122.5" font-family="Helvetica,sans-Serif" font-size="10.00">cstdint</text>
</a>
</g>
</g>
<!-- Node19&#45;&gt;Node20 -->
<g id="edge24" class="edge">
<title>Node19&#45;&gt;Node20</title>
<path fill="none" stroke="#63b8ff" d="M503.76,-175.8C511.86,-166.01 522.66,-152.98 531.17,-142.7"/>
<polygon fill="#63b8ff" stroke="#63b8ff" points="533.99,-144.78 537.68,-134.84 528.6,-140.31 533.99,-144.78"/>
</g>
</g>
</svg>
