<?xml version="1.0" encoding="UTF-8" standalone="no"?>
<!DOCTYPE svg PUBLIC "-//W3C//DTD SVG 1.1//EN"
 "http://www.w3.org/Graphics/SVG/1.1/DTD/svg11.dtd">
<!-- Generated by graphviz version 2.43.0 (0)
 -->
<!-- Title: src/indexing Pages: 1 -->
<svg width="251pt" height="141pt"
 viewBox="0.00 0.00 251.00 141.00" xmlns="http://www.w3.org/2000/svg" xmlns:xlink="http://www.w3.org/1999/xlink">
<g id="graph0" class="graph" transform="scale(1 1) rotate(0) translate(4 137)">
<title>src/indexing</title>
<g id="clust1" class="cluster">
<title>clusterdir_68267d1309a1af8e8297ef4c3efbcdba</title>
<g id="a_clust1"><a xlink:href="dir_68267d1309a1af8e8297ef4c3efbcdba.html" target="_top" xlink:title="src">
<polygon fill="#edf0f7" stroke="#404040" stroke-dasharray="5,2" points="8,-8 8,-125 183,-125 183,-8 8,-8"/>
<text text-anchor="middle" x="95.5" y="-113" font-family="Helvetica,sans-Serif" font-size="10.00">src</text>
</a>
</g>
</g>
<g id="clust2" class="cluster">
<title>clusterdir_1af0ddd77af1c20f0c9558f89bd86ab0</title>
<g id="a_clust2"><a xlink:href="dir_1af0ddd77af1c20f0c9558f89bd86ab0.html" target="_top">
<polygon fill="#edf0f7" stroke="#404040" stroke-width="2" points="16,-63 16,-98 175,-98 175,-63 16,-63"/>
</a>
</g>
</g>
<!-- dir_122f4add68bb94b3fee614989bbbd8f9 -->
<g id="node1" class="node">
<title>dir_122f4add68bb94b3fee614989bbbd8f9</title>
<g id="a_node1"><a xlink:href="dir_122f4add68bb94b3fee614989bbbd8f9.html" target="_top" xlink:title="ds">
<polygon fill="#a2b4d6" stroke="#404040" points="104.5,-35 75.5,-35 75.5,-16 104.5,-16 104.5,-35"/>
<text text-anchor="middle" x="90" y="-23" font-family="Helvetica,sans-Serif" font-size="10.00">ds</text>
</a>
</g>
</g>
<!-- dir_18ae7af74d885898b85cbb543ae51b63 -->
<g id="node2" class="node">
<title>dir_18ae7af74d885898b85cbb543ae51b63</title>
<g id="a_node2"><a xlink:href="dir_18ae7af74d885898b85cbb543ae51b63.html" target="_top" xlink:title="node">
<polygon fill="#a2b4d6" stroke="red" points="57.5,-35 16.5,-35 16.5,-16 57.5,-16 57.5,-35"/>
<text text-anchor="middle" x="37" y="-23" font-family="Helvetica,sans-Serif" font-size="10.00">node</text>
</a>
</g>
</g>
<!-- dir_4c8befd6991d7a2e9d66c427274b8c22 -->
<g id="node3" class="node">
<title>dir_4c8befd6991d7a2e9d66c427274b8c22</title>
<g id="a_node3"><a xlink:href="dir_4c8befd6991d7a2e9d66c427274b8c22.html" target="_top" xlink:title="kv">
<polygon fill="#a2b4d6" stroke="#404040" points="151.5,-35 122.5,-35 122.5,-16 151.5,-16 151.5,-35"/>
<text text-anchor="middle" x="137" y="-23" font-family="Helvetica,sans-Serif" font-size="10.00">kv</text>
</a>
</g>
</g>
<!-- dir_1af0ddd77af1c20f0c9558f89bd86ab0 -->
<g id="node4" class="node">
<title>dir_1af0ddd77af1c20f0c9558f89bd86ab0</title>
<text text-anchor="middle" x="54" y="-78" font-family="Helvetica,sans-Serif" font-size="10.00">indexing</text>
</g>
<!-- dir_1af0ddd77af1c20f0c9558f89bd86ab0&#45;&gt;dir_122f4add68bb94b3fee614989bbbd8f9 -->
<g id="edge1" class="edge">
<title>dir_1af0ddd77af1c20f0c9558f89bd86ab0&#45;&gt;dir_122f4add68bb94b3fee614989bbbd8f9</title>
<path fill="none" stroke="#63b8ff" d="M59.94,-70.75C64.98,-63.34 72.34,-52.5 78.51,-43.41"/>
<polygon fill="#63b8ff" stroke="#63b8ff" points="81.44,-45.33 84.17,-35.09 75.65,-41.39 81.44,-45.33"/>
<g id="a_edge1&#45;headlabel"><a xlink:href="dir_000024_000014.html" target="_top" xlink:title="4">
<text text-anchor="middle" x="81.77" y="-47.4" font-family="Helvetica,sans-Serif" font-size="10.00" fill="#63b8ff">4</text>
</a>
</g>
</g>
<!-- dir_1af0ddd77af1c20f0c9558f89bd86ab0&#45;&gt;dir_18ae7af74d885898b85cbb543ae51b63 -->
<g id="edge2" class="edge">
<title>dir_1af0ddd77af1c20f0c9558f89bd86ab0&#45;&gt;dir_18ae7af74d885898b85cbb543ae51b63</title>
<path fill="none" stroke="#63b8ff" d="M51.19,-70.75C48.94,-63.72 45.7,-53.62 42.88,-44.84"/>
<polygon fill="#63b8ff" stroke="#63b8ff" points="46.14,-43.54 39.75,-35.09 39.48,-45.68 46.14,-43.54"/>
<g id="a_edge2&#45;headlabel"><a xlink:href="dir_000024_000032.html" target="_top" xlink:title="1">
<text text-anchor="middle" x="49.94" y="-43.6" font-family="Helvetica,sans-Serif" font-size="10.00" fill="#63b8ff">1</text>
</a>
</g>
</g>
<!-- dir_1af0ddd77af1c20f0c9558f89bd86ab0&#45;&gt;dir_4c8befd6991d7a2e9d66c427274b8c22 -->
<g id="edge3" class="edge">
<title>dir_1af0ddd77af1c20f0c9558f89bd86ab0&#45;&gt;dir_4c8befd6991d7a2e9d66c427274b8c22</title>
<path fill="none" stroke="#63b8ff" d="M67.34,-70.98C80.09,-62.84 99.55,-50.41 114.67,-40.76"/>
<polygon fill="#63b8ff" stroke="#63b8ff" points="116.88,-43.5 123.42,-35.17 113.11,-37.6 116.88,-43.5"/>
<g id="a_edge3&#45;headlabel"><a xlink:href="dir_000024_000028.html" target="_top" xlink:title="4">
<text text-anchor="middle" x="115.38" y="-45.33" font-family="Helvetica,sans-Serif" font-size="10.00" fill="#63b8ff">4</text>
</a>
</g>
</g>
<!-- dir_d44c64559bbebec7f509842c48db8b23 -->
<g id="node6" class="node">
<title>dir_d44c64559bbebec7f509842c48db8b23</title>
<g id="a_node6"><a xlink:href="dir_d44c64559bbebec7f509842c48db8b23.html" target="_top" xlink:title="include">
<polygon fill="#edf0f7" stroke="red" points="243,-35 191,-35 191,-16 243,-16 243,-35"/>
<text text-anchor="middle" x="217" y="-23" font-family="Helvetica,sans-Serif" font-size="10.00">include</text>
</a>
</g>
</g>
<!-- dir_1af0ddd77af1c20f0c9558f89bd86ab0&#45;&gt;dir_d44c64559bbebec7f509842c48db8b23 -->
<g id="edge4" class="edge">
<title>dir_1af0ddd77af1c20f0c9558f89bd86ab0&#45;&gt;dir_d44c64559bbebec7f509842c48db8b23</title>
<path fill="none" stroke="#63b8ff" d="M72.37,-70.97C78.54,-68.25 85.51,-65.35 92,-63 100.48,-59.94 146.91,-46.52 180.72,-36.84"/>
<polygon fill="#63b8ff" stroke="#63b8ff" points="182.1,-40.09 190.75,-33.97 180.17,-33.36 182.1,-40.09"/>
<g id="a_edge4&#45;headlabel"><a xlink:href="dir_000024_000022.html" target="_top" xlink:title="18">
<text text-anchor="middle" x="179.42" y="-41.31" font-family="Helvetica,sans-Serif" font-size="10.00" fill="#63b8ff">18</text>
</a>
</g>
</g>
<!-- dir_08eeef01618bf038ac02b1d61b4f2930 -->
<g id="node5" class="node">
<title>dir_08eeef01618bf038ac02b1d61b4f2930</title>
<g id="a_node5"><a xlink:href="dir_08eeef01618bf038ac02b1d61b4f2930.html" target="_top" xlink:title="strategies">
<polygon fill="#a2b4d6" stroke="#404040" points="166.5,-90 101.5,-90 101.5,-71 166.5,-71 166.5,-90"/>
<text text-anchor="middle" x="134" y="-78" font-family="Helvetica,sans-Serif" font-size="10.00">strategies</text>
</a>
</g>
</g>
<!-- dir_08eeef01618bf038ac02b1d61b4f2930&#45;&gt;dir_122f4add68bb94b3fee614989bbbd8f9 -->
<g id="edge5" class="edge">
<title>dir_08eeef01618bf038ac02b1d61b4f2930&#45;&gt;dir_122f4add68bb94b3fee614989bbbd8f9</title>
<path fill="none" stroke="#63b8ff" d="M126.73,-70.75C120.46,-63.18 111.21,-52.05 103.57,-42.84"/>
<polygon fill="#63b8ff" stroke="#63b8ff" points="106.21,-40.55 97.13,-35.09 100.83,-45.02 106.21,-40.55"/>
<g id="a_edge5&#45;headlabel"><a xlink:href="dir_000044_000014.html" target="_top" xlink:title="2">
<text text-anchor="middle" x="110.69" y="-39" font-family="Helvetica,sans-Serif" font-size="10.00" fill="#63b8ff">2</text>
</a>
</g>
</g>
<!-- dir_08eeef01618bf038ac02b1d61b4f2930&#45;&gt;dir_4c8befd6991d7a2e9d66c427274b8c22 -->
<g id="edge6" class="edge">
<title>dir_08eeef01618bf038ac02b1d61b4f2930&#45;&gt;dir_4c8befd6991d7a2e9d66c427274b8c22</title>
<path fill="none" stroke="#63b8ff" d="M134.5,-70.75C134.89,-63.8 135.45,-53.85 135.95,-45.13"/>
<polygon fill="#63b8ff" stroke="#63b8ff" points="139.44,-45.27 136.51,-35.09 132.45,-44.88 139.44,-45.27"/>
<g id="a_edge6&#45;headlabel"><a xlink:href="dir_000044_000028.html" target="_top" xlink:title="2">
<text text-anchor="middle" x="142.07" y="-46.52" font-family="Helvetica,sans-Serif" font-size="10.00" fill="#63b8ff">2</text>
</a>
</g>
</g>
<!-- dir_08eeef01618bf038ac02b1d61b4f2930&#45;&gt;dir_d44c64559bbebec7f509842c48db8b23 -->
<g id="edge7" class="edge">
<title>dir_08eeef01618bf038ac02b1d61b4f2930&#45;&gt;dir_d44c64559bbebec7f509842c48db8b23</title>
<path fill="none" stroke="#63b8ff" d="M147.34,-70.98C160.09,-62.84 179.55,-50.41 194.67,-40.76"/>
<polygon fill="#63b8ff" stroke="#63b8ff" points="196.88,-43.5 203.42,-35.17 193.11,-37.6 196.88,-43.5"/>
<g id="a_edge7&#45;headlabel"><a xlink:href="dir_000044_000022.html" target="_top" xlink:title="7">
<text text-anchor="middle" x="195.38" y="-45.33" font-family="Helvetica,sans-Serif" font-size="10.00" fill="#63b8ff">7</text>
</a>
</g>
</g>
</g>
</svg>
