<?xml version="1.0" encoding="UTF-8" standalone="no"?>
<!DOCTYPE svg PUBLIC "-//W3C//DTD SVG 1.1//EN"
 "http://www.w3.org/Graphics/SVG/1.1/DTD/svg11.dtd">
<!-- Generated by graphviz version 2.43.0 (0)
 -->
<!-- Title: src/endpoints/authentication Pages: 1 -->
<svg width="162pt" height="117pt"
 viewBox="0.00 0.00 161.50 117.00" xmlns="http://www.w3.org/2000/svg" xmlns:xlink="http://www.w3.org/1999/xlink">
<g id="graph0" class="graph" transform="scale(1 1) rotate(0) translate(4 113)">
<title>src/endpoints/authentication</title>
<g id="clust1" class="cluster">
<title>clusterdir_a2b23ad3d4048fef2ffce6bed40d1385</title>
<g id="a_clust1"><a xlink:href="dir_a2b23ad3d4048fef2ffce6bed40d1385.html" target="_top" xlink:title="endpoints">
<polygon fill="#edf0f7" stroke="#7f7f7f" stroke-dasharray="5,2" points="13.5,-47 13.5,-101 117.5,-101 117.5,-47 13.5,-47"/>
<text text-anchor="middle" x="65.5" y="-89" font-family="Helvetica,sans-Serif" font-size="10.00">endpoints</text>
</a>
</g>
</g>
<!-- dir_100cae52b844ec0b520b7e5b8ea8fe4b -->
<g id="node1" class="node">
<title>dir_100cae52b844ec0b520b7e5b8ea8fe4b</title>
<g id="a_node1"><a xlink:href="dir_100cae52b844ec0b520b7e5b8ea8fe4b.html" target="_top" xlink:title="authentication">
<polygon fill="#edf0f7" stroke="#404040" stroke-width="2" points="109,-74 22,-74 22,-55 109,-55 109,-74"/>
<text text-anchor="middle" x="65.5" y="-62" font-family="Helvetica,sans-Serif" font-size="10.00">authentication</text>
</a>
</g>
</g>
<!-- dir_122f4add68bb94b3fee614989bbbd8f9 -->
<g id="node2" class="node">
<title>dir_122f4add68bb94b3fee614989bbbd8f9</title>
<g id="a_node2"><a xlink:href="dir_122f4add68bb94b3fee614989bbbd8f9.html" target="_top" xlink:title="ds">
<polygon fill="#edf0f7" stroke="#7f7f7f" points="29,-19 0,-19 0,0 29,0 29,-19"/>
<text text-anchor="middle" x="14.5" y="-7" font-family="Helvetica,sans-Serif" font-size="10.00">ds</text>
</a>
</g>
</g>
<!-- dir_100cae52b844ec0b520b7e5b8ea8fe4b&#45;&gt;dir_122f4add68bb94b3fee614989bbbd8f9 -->
<g id="edge1" class="edge">
<title>dir_100cae52b844ec0b520b7e5b8ea8fe4b&#45;&gt;dir_122f4add68bb94b3fee614989bbbd8f9</title>
<path fill="none" stroke="#63b8ff" d="M57.08,-54.75C49.73,-47.11 38.87,-35.82 29.96,-26.56"/>
<polygon fill="#63b8ff" stroke="#63b8ff" points="32.22,-23.87 22.76,-19.09 27.18,-28.72 32.22,-23.87"/>
<g id="a_edge1&#45;headlabel"><a xlink:href="dir_000005_000014.html" target="_top" xlink:title="2">
<text text-anchor="middle" x="36.76" y="-21.99" font-family="Helvetica,sans-Serif" font-size="10.00" fill="#63b8ff">2</text>
</a>
</g>
</g>
<!-- dir_2d29d7dff7c7baf1180920f6796c23ae -->
<g id="node3" class="node">
<title>dir_2d29d7dff7c7baf1180920f6796c23ae</title>
<g id="a_node3"><a xlink:href="dir_2d29d7dff7c7baf1180920f6796c23ae.html" target="_top" xlink:title="http">
<polygon fill="#edf0f7" stroke="#7f7f7f" points="83.5,-19 47.5,-19 47.5,0 83.5,0 83.5,-19"/>
<text text-anchor="middle" x="65.5" y="-7" font-family="Helvetica,sans-Serif" font-size="10.00">http</text>
</a>
</g>
</g>
<!-- dir_100cae52b844ec0b520b7e5b8ea8fe4b&#45;&gt;dir_2d29d7dff7c7baf1180920f6796c23ae -->
<g id="edge2" class="edge">
<title>dir_100cae52b844ec0b520b7e5b8ea8fe4b&#45;&gt;dir_2d29d7dff7c7baf1180920f6796c23ae</title>
<path fill="none" stroke="#63b8ff" d="M65.5,-54.75C65.5,-47.8 65.5,-37.85 65.5,-29.13"/>
<polygon fill="#63b8ff" stroke="#63b8ff" points="69,-29.09 65.5,-19.09 62,-29.09 69,-29.09"/>
<g id="a_edge2&#45;headlabel"><a xlink:href="dir_000005_000020.html" target="_top" xlink:title="3">
<text text-anchor="middle" x="71.84" y="-30.18" font-family="Helvetica,sans-Serif" font-size="10.00" fill="#63b8ff">3</text>
</a>
</g>
</g>
<!-- dir_d44c64559bbebec7f509842c48db8b23 -->
<g id="node4" class="node">
<title>dir_d44c64559bbebec7f509842c48db8b23</title>
<g id="a_node4"><a xlink:href="dir_d44c64559bbebec7f509842c48db8b23.html" target="_top" xlink:title="include">
<polygon fill="#edf0f7" stroke="red" points="153.5,-19 101.5,-19 101.5,0 153.5,0 153.5,-19"/>
<text text-anchor="middle" x="127.5" y="-7" font-family="Helvetica,sans-Serif" font-size="10.00">include</text>
</a>
</g>
</g>
<!-- dir_100cae52b844ec0b520b7e5b8ea8fe4b&#45;&gt;dir_d44c64559bbebec7f509842c48db8b23 -->
<g id="edge3" class="edge">
<title>dir_100cae52b844ec0b520b7e5b8ea8fe4b&#45;&gt;dir_d44c64559bbebec7f509842c48db8b23</title>
<path fill="none" stroke="#63b8ff" d="M75.46,-54.98C84.63,-47.15 98.44,-35.34 109.53,-25.86"/>
<polygon fill="#63b8ff" stroke="#63b8ff" points="112.03,-28.33 117.36,-19.17 107.48,-23.01 112.03,-28.33"/>
<g id="a_edge3&#45;headlabel"><a xlink:href="dir_000005_000022.html" target="_top" xlink:title="24">
<text text-anchor="middle" x="111.14" y="-30.32" font-family="Helvetica,sans-Serif" font-size="10.00" fill="#63b8ff">24</text>
</a>
</g>
</g>
</g>
</svg>
