<?xml version="1.0" encoding="UTF-8" standalone="no"?>
<!DOCTYPE svg PUBLIC "-//W3C//DTD SVG 1.1//EN"
 "http://www.w3.org/Graphics/SVG/1.1/DTD/svg11.dtd">
<!-- Generated by graphviz version 2.43.0 (0)
 -->
<!-- Title: src/consensus/aft Pages: 1 -->
<svg width="421pt" height="180pt"
 viewBox="0.00 0.00 420.50 180.00" xmlns="http://www.w3.org/2000/svg" xmlns:xlink="http://www.w3.org/1999/xlink">
<g id="graph0" class="graph" transform="scale(1 1) rotate(0) translate(4 176)">
<title>src/consensus/aft</title>
<g id="clust1" class="cluster">
<title>clusterdir_dee301ab18d354d094fb7852349ef839</title>
<g id="a_clust1"><a xlink:href="dir_dee301ab18d354d094fb7852349ef839.html" target="_top" xlink:title="consensus">
<polygon fill="#edf0f7" stroke="#7f7f7f" stroke-dasharray="5,2" points="8,-39 8,-164 78,-164 78,-39 8,-39"/>
<text text-anchor="middle" x="43" y="-152" font-family="Helvetica,sans-Serif" font-size="10.00">consensus</text>
</a>
</g>
</g>
<g id="clust2" class="cluster">
<title>clusterdir_d359f39a8b9d4f0c7d64ae34c651e6dc</title>
<g id="a_clust2"><a xlink:href="dir_d359f39a8b9d4f0c7d64ae34c651e6dc.html" target="_top">
<polygon fill="#edf0f7" stroke="#404040" stroke-width="2" points="16,-47 16,-137 70,-137 70,-47 16,-47"/>
</a>
</g>
</g>
<!-- dir_d359f39a8b9d4f0c7d64ae34c651e6dc -->
<g id="node1" class="node">
<title>dir_d359f39a8b9d4f0c7d64ae34c651e6dc</title>
<text text-anchor="middle" x="47" y="-117" font-family="Helvetica,sans-Serif" font-size="10.00">aft</text>
</g>
<!-- dir_ea328006d871e8e8b978c6dd0c43f774 -->
<g id="node2" class="node">
<title>dir_ea328006d871e8e8b978c6dd0c43f774</title>
<g id="a_node2"><a xlink:href="dir_ea328006d871e8e8b978c6dd0c43f774.html" target="_top" xlink:title="impl">
<polygon fill="#a2b4d6" stroke="#404040" points="62,-74 24,-74 24,-55 62,-55 62,-74"/>
<text text-anchor="middle" x="43" y="-62" font-family="Helvetica,sans-Serif" font-size="10.00">impl</text>
</a>
</g>
</g>
<!-- dir_d359f39a8b9d4f0c7d64ae34c651e6dc&#45;&gt;dir_ea328006d871e8e8b978c6dd0c43f774 -->
<g id="edge8" class="edge">
<title>dir_d359f39a8b9d4f0c7d64ae34c651e6dc&#45;&gt;dir_ea328006d871e8e8b978c6dd0c43f774</title>
<path fill="none" stroke="#63b8ff" d="M46.34,-109.75C45.82,-102.8 45.06,-92.85 44.41,-84.13"/>
<polygon fill="#63b8ff" stroke="#63b8ff" points="47.89,-83.8 43.65,-74.09 40.91,-84.32 47.89,-83.8"/>
<g id="a_edge8&#45;headlabel"><a xlink:href="dir_000000_000021.html" target="_top" xlink:title="1">
<text text-anchor="middle" x="50.99" y="-84.67" font-family="Helvetica,sans-Serif" font-size="10.00" fill="#63b8ff">1</text>
</a>
</g>
</g>
<!-- dir_122f4add68bb94b3fee614989bbbd8f9 -->
<g id="node3" class="node">
<title>dir_122f4add68bb94b3fee614989bbbd8f9</title>
<g id="a_node3"><a xlink:href="dir_122f4add68bb94b3fee614989bbbd8f9.html" target="_top" xlink:title="ds">
<polygon fill="#edf0f7" stroke="#7f7f7f" points="33.5,-19 4.5,-19 4.5,0 33.5,0 33.5,-19"/>
<text text-anchor="middle" x="19" y="-7" font-family="Helvetica,sans-Serif" font-size="10.00">ds</text>
</a>
</g>
</g>
<!-- dir_d359f39a8b9d4f0c7d64ae34c651e6dc&#45;&gt;dir_122f4add68bb94b3fee614989bbbd8f9 -->
<g id="edge1" class="edge">
<title>dir_d359f39a8b9d4f0c7d64ae34c651e6dc&#45;&gt;dir_122f4add68bb94b3fee614989bbbd8f9</title>
<path fill="none" stroke="#63b8ff" d="M38.25,-109.9C30.44,-101.56 19.55,-88.13 15,-74 10.34,-59.53 11.85,-42.25 14.24,-29.38"/>
<polygon fill="#63b8ff" stroke="#63b8ff" points="17.71,-29.9 16.43,-19.38 10.87,-28.4 17.71,-29.9"/>
<g id="a_edge1&#45;headlabel"><a xlink:href="dir_000000_000014.html" target="_top" xlink:title="5">
<text text-anchor="middle" x="19.71" y="-31.52" font-family="Helvetica,sans-Serif" font-size="10.00" fill="#63b8ff">5</text>
</a>
</g>
</g>
<!-- dir_18ae7af74d885898b85cbb543ae51b63 -->
<g id="node4" class="node">
<title>dir_18ae7af74d885898b85cbb543ae51b63</title>
<g id="a_node4"><a xlink:href="dir_18ae7af74d885898b85cbb543ae51b63.html" target="_top" xlink:title="node">
<polygon fill="#edf0f7" stroke="red" stroke-dasharray="5,2" points="347.5,-74 306.5,-74 306.5,-55 347.5,-55 347.5,-74"/>
<text text-anchor="middle" x="327" y="-62" font-family="Helvetica,sans-Serif" font-size="10.00">node</text>
</a>
</g>
</g>
<!-- dir_d359f39a8b9d4f0c7d64ae34c651e6dc&#45;&gt;dir_18ae7af74d885898b85cbb543ae51b63 -->
<g id="edge2" class="edge">
<title>dir_d359f39a8b9d4f0c7d64ae34c651e6dc&#45;&gt;dir_18ae7af74d885898b85cbb543ae51b63</title>
<path fill="none" stroke="#63b8ff" d="M61.69,-116.14C99.84,-109.95 205.09,-92.43 292,-74 293.45,-73.69 294.94,-73.37 296.44,-73.03"/>
<polygon fill="#63b8ff" stroke="#63b8ff" points="297.37,-76.41 306.32,-70.74 295.78,-69.59 297.37,-76.41"/>
<g id="a_edge2&#45;headlabel"><a xlink:href="dir_000000_000032.html" target="_top" xlink:title="6">
<text text-anchor="middle" x="294.51" y="-77.49" font-family="Helvetica,sans-Serif" font-size="10.00" fill="#63b8ff">6</text>
</a>
</g>
</g>
<!-- dir_4261af1259721e3e39e0d2dd7354b511 -->
<g id="node5" class="node">
<title>dir_4261af1259721e3e39e0d2dd7354b511</title>
<g id="a_node5"><a xlink:href="dir_4261af1259721e3e39e0d2dd7354b511.html" target="_top" xlink:title="crypto">
<polygon fill="#edf0f7" stroke="red" stroke-dasharray="5,2" points="412.5,-74 365.5,-74 365.5,-55 412.5,-55 412.5,-74"/>
<text text-anchor="middle" x="389" y="-62" font-family="Helvetica,sans-Serif" font-size="10.00">crypto</text>
</a>
</g>
</g>
<!-- dir_d359f39a8b9d4f0c7d64ae34c651e6dc&#45;&gt;dir_4261af1259721e3e39e0d2dd7354b511 -->
<g id="edge3" class="edge">
<title>dir_d359f39a8b9d4f0c7d64ae34c651e6dc&#45;&gt;dir_4261af1259721e3e39e0d2dd7354b511</title>
<path fill="none" stroke="#63b8ff" d="M61.63,-117.02C105.01,-112.49 236.84,-97.8 355.35,-74.14"/>
<polygon fill="#63b8ff" stroke="#63b8ff" points="356.2,-77.54 365.31,-72.12 354.81,-70.68 356.2,-77.54"/>
<g id="a_edge3&#45;headlabel"><a xlink:href="dir_000000_000012.html" target="_top" xlink:title="1">
<text text-anchor="middle" x="353.24" y="-78.54" font-family="Helvetica,sans-Serif" font-size="10.00" fill="#63b8ff">1</text>
</a>
</g>
</g>
<!-- dir_4c8befd6991d7a2e9d66c427274b8c22 -->
<g id="node6" class="node">
<title>dir_4c8befd6991d7a2e9d66c427274b8c22</title>
<g id="a_node6"><a xlink:href="dir_4c8befd6991d7a2e9d66c427274b8c22.html" target="_top" xlink:title="kv">
<polygon fill="#edf0f7" stroke="#7f7f7f" points="156.5,-19 127.5,-19 127.5,0 156.5,0 156.5,-19"/>
<text text-anchor="middle" x="142" y="-7" font-family="Helvetica,sans-Serif" font-size="10.00">kv</text>
</a>
</g>
</g>
<!-- dir_d359f39a8b9d4f0c7d64ae34c651e6dc&#45;&gt;dir_4c8befd6991d7a2e9d66c427274b8c22 -->
<g id="edge4" class="edge">
<title>dir_d359f39a8b9d4f0c7d64ae34c651e6dc&#45;&gt;dir_4c8befd6991d7a2e9d66c427274b8c22</title>
<path fill="none" stroke="#63b8ff" d="M61.51,-117.03C99.66,-112.85 201.21,-99.49 221,-74 230.54,-61.71 229.94,-51.73 221,-39 208.81,-21.64 184.97,-14.81 166.65,-12.14"/>
<polygon fill="#63b8ff" stroke="#63b8ff" points="166.97,-8.66 156.64,-11.01 166.18,-15.61 166.97,-8.66"/>
<g id="a_edge4&#45;headlabel"><a xlink:href="dir_000000_000028.html" target="_top" xlink:title="7">
<text text-anchor="middle" x="170.86" y="-3.74" font-family="Helvetica,sans-Serif" font-size="10.00" fill="#63b8ff">7</text>
</a>
</g>
</g>
<!-- dir_4f691f982165d1317925cee58b4b4f56 -->
<g id="node7" class="node">
<title>dir_4f691f982165d1317925cee58b4b4f56</title>
<g id="a_node7"><a xlink:href="dir_4f691f982165d1317925cee58b4b4f56.html" target="_top" xlink:title="service">
<polygon fill="#edf0f7" stroke="red" stroke-dasharray="5,2" points="138,-74 86,-74 86,-55 138,-55 138,-74"/>
<text text-anchor="middle" x="112" y="-62" font-family="Helvetica,sans-Serif" font-size="10.00">service</text>
</a>
</g>
</g>
<!-- dir_d359f39a8b9d4f0c7d64ae34c651e6dc&#45;&gt;dir_4f691f982165d1317925cee58b4b4f56 -->
<g id="edge5" class="edge">
<title>dir_d359f39a8b9d4f0c7d64ae34c651e6dc&#45;&gt;dir_4f691f982165d1317925cee58b4b4f56</title>
<path fill="none" stroke="#63b8ff" d="M57.44,-109.98C67.15,-102.07 81.82,-90.11 93.5,-80.58"/>
<polygon fill="#63b8ff" stroke="#63b8ff" points="95.83,-83.2 101.37,-74.17 91.4,-77.78 95.83,-83.2"/>
<g id="a_edge5&#45;headlabel"><a xlink:href="dir_000000_000041.html" target="_top" xlink:title="1">
<text text-anchor="middle" x="94.84" y="-85.17" font-family="Helvetica,sans-Serif" font-size="10.00" fill="#63b8ff">1</text>
</a>
</g>
</g>
<!-- dir_5427940bb9029915fc0c11c1284afde6 -->
<g id="node8" class="node">
<title>dir_5427940bb9029915fc0c11c1284afde6</title>
<g id="a_node8"><a xlink:href="dir_5427940bb9029915fc0c11c1284afde6.html" target="_top" xlink:title="enclave">
<polygon fill="#edf0f7" stroke="#7f7f7f" points="211.5,-74 156.5,-74 156.5,-55 211.5,-55 211.5,-74"/>
<text text-anchor="middle" x="184" y="-62" font-family="Helvetica,sans-Serif" font-size="10.00">enclave</text>
</a>
</g>
</g>
<!-- dir_d359f39a8b9d4f0c7d64ae34c651e6dc&#45;&gt;dir_5427940bb9029915fc0c11c1284afde6 -->
<g id="edge6" class="edge">
<title>dir_d359f39a8b9d4f0c7d64ae34c651e6dc&#45;&gt;dir_5427940bb9029915fc0c11c1284afde6</title>
<path fill="none" stroke="#63b8ff" d="M61.66,-112.83C83.15,-104.52 123.73,-88.82 152.25,-77.78"/>
<polygon fill="#63b8ff" stroke="#63b8ff" points="153.72,-80.97 161.78,-74.1 151.19,-74.44 153.72,-80.97"/>
<g id="a_edge6&#45;headlabel"><a xlink:href="dir_000000_000015.html" target="_top" xlink:title="2">
<text text-anchor="middle" x="151.39" y="-82.41" font-family="Helvetica,sans-Serif" font-size="10.00" fill="#63b8ff">2</text>
</a>
</g>
</g>
<!-- dir_d44c64559bbebec7f509842c48db8b23 -->
<g id="node9" class="node">
<title>dir_d44c64559bbebec7f509842c48db8b23</title>
<g id="a_node9"><a xlink:href="dir_d44c64559bbebec7f509842c48db8b23.html" target="_top" xlink:title="include">
<polygon fill="#edf0f7" stroke="red" points="265,-19 213,-19 213,0 265,0 265,-19"/>
<text text-anchor="middle" x="239" y="-7" font-family="Helvetica,sans-Serif" font-size="10.00">include</text>
</a>
</g>
</g>
<!-- dir_d359f39a8b9d4f0c7d64ae34c651e6dc&#45;&gt;dir_d44c64559bbebec7f509842c48db8b23 -->
<g id="edge7" class="edge">
<title>dir_d359f39a8b9d4f0c7d64ae34c651e6dc&#45;&gt;dir_d44c64559bbebec7f509842c48db8b23</title>
<path fill="none" stroke="#63b8ff" d="M61.69,-117.35C102.49,-113.83 215.66,-101.69 238,-74 247.94,-61.68 247.04,-43.2 244.34,-29.35"/>
<polygon fill="#63b8ff" stroke="#63b8ff" points="247.7,-28.34 241.96,-19.44 240.89,-29.98 247.7,-28.34"/>
<g id="a_edge7&#45;headlabel"><a xlink:href="dir_000000_000022.html" target="_top" xlink:title="18">
<text text-anchor="middle" x="251.3" y="-28.67" font-family="Helvetica,sans-Serif" font-size="10.00" fill="#63b8ff">18</text>
</a>
</g>
</g>
<!-- dir_ea328006d871e8e8b978c6dd0c43f774&#45;&gt;dir_122f4add68bb94b3fee614989bbbd8f9 -->
<g id="edge9" class="edge">
<title>dir_ea328006d871e8e8b978c6dd0c43f774&#45;&gt;dir_122f4add68bb94b3fee614989bbbd8f9</title>
<path fill="none" stroke="#63b8ff" d="M39.04,-54.75C35.79,-47.57 31.08,-37.18 27.05,-28.27"/>
<polygon fill="#63b8ff" stroke="#63b8ff" points="30.2,-26.75 22.89,-19.09 23.83,-29.64 30.2,-26.75"/>
<g id="a_edge9&#45;headlabel"><a xlink:href="dir_000021_000014.html" target="_top" xlink:title="1">
<text text-anchor="middle" x="34.27" y="-26.36" font-family="Helvetica,sans-Serif" font-size="10.00" fill="#63b8ff">1</text>
</a>
</g>
</g>
<!-- dir_ea328006d871e8e8b978c6dd0c43f774&#45;&gt;dir_4c8befd6991d7a2e9d66c427274b8c22 -->
<g id="edge10" class="edge">
<title>dir_ea328006d871e8e8b978c6dd0c43f774&#45;&gt;dir_4c8befd6991d7a2e9d66c427274b8c22</title>
<path fill="none" stroke="#63b8ff" d="M53.63,-54.95C60.15,-49.93 68.79,-43.69 77,-39 90.09,-31.53 105.51,-24.69 118.04,-19.59"/>
<polygon fill="#63b8ff" stroke="#63b8ff" points="119.37,-22.82 127.38,-15.89 116.79,-16.32 119.37,-22.82"/>
<g id="a_edge10&#45;headlabel"><a xlink:href="dir_000021_000028.html" target="_top" xlink:title="2">
<text text-anchor="middle" x="117.07" y="-24.29" font-family="Helvetica,sans-Serif" font-size="10.00" fill="#63b8ff">2</text>
</a>
</g>
</g>
<!-- dir_ea328006d871e8e8b978c6dd0c43f774&#45;&gt;dir_d44c64559bbebec7f509842c48db8b23 -->
<g id="edge11" class="edge">
<title>dir_ea328006d871e8e8b978c6dd0c43f774&#45;&gt;dir_d44c64559bbebec7f509842c48db8b23</title>
<path fill="none" stroke="#63b8ff" d="M52.4,-54.93C58.86,-49.52 67.88,-42.85 77,-39 99.15,-29.66 162.22,-20.28 202.82,-14.95"/>
<polygon fill="#63b8ff" stroke="#63b8ff" points="203.4,-18.4 212.87,-13.65 202.5,-11.46 203.4,-18.4"/>
<g id="a_edge11&#45;headlabel"><a xlink:href="dir_000021_000022.html" target="_top" xlink:title="5">
<text text-anchor="middle" x="200.19" y="-19.18" font-family="Helvetica,sans-Serif" font-size="10.00" fill="#63b8ff">5</text>
</a>
</g>
</g>
</g>
</svg>
