<?xml version="1.0" encoding="UTF-8" standalone="no"?>
<!DOCTYPE svg PUBLIC "-//W3C//DTD SVG 1.1//EN"
 "http://www.w3.org/Graphics/SVG/1.1/DTD/svg11.dtd">
<!-- Generated by graphviz version 2.43.0 (0)
 -->
<!-- Title: src/tls Pages: 1 -->
<svg width="189pt" height="133pt"
 viewBox="0.00 0.00 189.00 133.00" xmlns="http://www.w3.org/2000/svg" xmlns:xlink="http://www.w3.org/1999/xlink">
<g id="graph0" class="graph" transform="scale(1 1) rotate(0) translate(4 129)">
<title>src/tls</title>
<g id="clust1" class="cluster">
<title>clusterdir_68267d1309a1af8e8297ef4c3efbcdba</title>
<g id="a_clust1"><a xlink:href="dir_68267d1309a1af8e8297ef4c3efbcdba.html" target="_top" xlink:title="src">
<polygon fill="#edf0f7" stroke="#404040" stroke-dasharray="5,2" points="8,-8 8,-117 119,-117 119,-8 8,-8"/>
<text text-anchor="middle" x="63.5" y="-105" font-family="Helvetica,sans-Serif" font-size="10.00">src</text>
</a>
</g>
</g>
<!-- dir_122f4add68bb94b3fee614989bbbd8f9 -->
<g id="node1" class="node">
<title>dir_122f4add68bb94b3fee614989bbbd8f9</title>
<g id="a_node1"><a xlink:href="dir_122f4add68bb94b3fee614989bbbd8f9.html" target="_top" xlink:title="ds">
<polygon fill="#a2b4d6" stroke="#404040" points="45.5,-35 16.5,-35 16.5,-16 45.5,-16 45.5,-35"/>
<text text-anchor="middle" x="31" y="-23" font-family="Helvetica,sans-Serif" font-size="10.00">ds</text>
</a>
</g>
</g>
<!-- dir_4261af1259721e3e39e0d2dd7354b511 -->
<g id="node2" class="node">
<title>dir_4261af1259721e3e39e0d2dd7354b511</title>
<g id="a_node2"><a xlink:href="dir_4261af1259721e3e39e0d2dd7354b511.html" target="_top" xlink:title="crypto">
<polygon fill="#a2b4d6" stroke="red" points="110.5,-35 63.5,-35 63.5,-16 110.5,-16 110.5,-35"/>
<text text-anchor="middle" x="87" y="-23" font-family="Helvetica,sans-Serif" font-size="10.00">crypto</text>
</a>
</g>
</g>
<!-- dir_654fcaaa959505712bb2ecafa3e1042f -->
<g id="node3" class="node">
<title>dir_654fcaaa959505712bb2ecafa3e1042f</title>
<g id="a_node3"><a xlink:href="dir_654fcaaa959505712bb2ecafa3e1042f.html" target="_top" xlink:title="tls">
<polygon fill="#edf0f7" stroke="#404040" stroke-width="2" points="101.5,-90 72.5,-90 72.5,-71 101.5,-71 101.5,-90"/>
<text text-anchor="middle" x="87" y="-78" font-family="Helvetica,sans-Serif" font-size="10.00">tls</text>
</a>
</g>
</g>
<!-- dir_654fcaaa959505712bb2ecafa3e1042f&#45;&gt;dir_122f4add68bb94b3fee614989bbbd8f9 -->
<g id="edge1" class="edge">
<title>dir_654fcaaa959505712bb2ecafa3e1042f&#45;&gt;dir_122f4add68bb94b3fee614989bbbd8f9</title>
<path fill="none" stroke="#63b8ff" d="M78,-70.98C69.81,-63.23 57.49,-51.58 47.53,-42.14"/>
<polygon fill="#63b8ff" stroke="#63b8ff" points="49.83,-39.5 40.16,-35.17 45.02,-44.59 49.83,-39.5"/>
<g id="a_edge1&#45;headlabel"><a xlink:href="dir_000047_000014.html" target="_top" xlink:title="1">
<text text-anchor="middle" x="54.39" y="-37.41" font-family="Helvetica,sans-Serif" font-size="10.00" fill="#63b8ff">1</text>
</a>
</g>
</g>
<!-- dir_654fcaaa959505712bb2ecafa3e1042f&#45;&gt;dir_4261af1259721e3e39e0d2dd7354b511 -->
<g id="edge2" class="edge">
<title>dir_654fcaaa959505712bb2ecafa3e1042f&#45;&gt;dir_4261af1259721e3e39e0d2dd7354b511</title>
<path fill="none" stroke="#63b8ff" d="M87,-70.75C87,-63.8 87,-53.85 87,-45.13"/>
<polygon fill="#63b8ff" stroke="#63b8ff" points="90.5,-45.09 87,-35.09 83.5,-45.09 90.5,-45.09"/>
<g id="a_edge2&#45;headlabel"><a xlink:href="dir_000047_000012.html" target="_top" xlink:title="4">
<text text-anchor="middle" x="93.34" y="-46.18" font-family="Helvetica,sans-Serif" font-size="10.00" fill="#63b8ff">4</text>
</a>
</g>
</g>
<!-- dir_d44c64559bbebec7f509842c48db8b23 -->
<g id="node4" class="node">
<title>dir_d44c64559bbebec7f509842c48db8b23</title>
<g id="a_node4"><a xlink:href="dir_d44c64559bbebec7f509842c48db8b23.html" target="_top" xlink:title="include">
<polygon fill="#edf0f7" stroke="red" points="181,-35 129,-35 129,-16 181,-16 181,-35"/>
<text text-anchor="middle" x="155" y="-23" font-family="Helvetica,sans-Serif" font-size="10.00">include</text>
</a>
</g>
</g>
<!-- dir_654fcaaa959505712bb2ecafa3e1042f&#45;&gt;dir_d44c64559bbebec7f509842c48db8b23 -->
<g id="edge3" class="edge">
<title>dir_654fcaaa959505712bb2ecafa3e1042f&#45;&gt;dir_d44c64559bbebec7f509842c48db8b23</title>
<path fill="none" stroke="#63b8ff" d="M97.93,-70.98C108.08,-63.07 123.42,-51.11 135.65,-41.58"/>
<polygon fill="#63b8ff" stroke="#63b8ff" points="138.14,-44.08 143.88,-35.17 133.84,-38.56 138.14,-44.08"/>
<g id="a_edge3&#45;headlabel"><a xlink:href="dir_000047_000022.html" target="_top" xlink:title="3">
<text text-anchor="middle" x="137.05" y="-46.03" font-family="Helvetica,sans-Serif" font-size="10.00" fill="#63b8ff">3</text>
</a>
</g>
</g>
</g>
</svg>
