<?xml version="1.0" encoding="UTF-8" standalone="no"?>
<!DOCTYPE svg PUBLIC "-//W3C//DTD SVG 1.1//EN"
 "http://www.w3.org/Graphics/SVG/1.1/DTD/svg11.dtd">
<!-- Generated by graphviz version 2.43.0 (0)
 -->
<!-- Title: include/ccf/node Pages: 1 -->
<svg width="256pt" height="133pt"
 viewBox="0.00 0.00 256.00 133.00" xmlns="http://www.w3.org/2000/svg" xmlns:xlink="http://www.w3.org/1999/xlink">
<g id="graph0" class="graph" transform="scale(1 1) rotate(0) translate(4 129)">
<title>include/ccf/node</title>
<g id="clust1" class="cluster">
<title>clusterdir_c3d33925c9fc81f340cd5350e8f8562d</title>
<g id="a_clust1"><a xlink:href="dir_c3d33925c9fc81f340cd5350e8f8562d.html" target="_top" xlink:title="ccf">
<polygon fill="#edf0f7" stroke="#7f7f7f" stroke-dasharray="5,2" points="8,-8 8,-117 240,-117 240,-8 8,-8"/>
<text text-anchor="middle" x="124" y="-105" font-family="Helvetica,sans-Serif" font-size="10.00">ccf</text>
</a>
</g>
</g>
<!-- dir_36f22bdf0117f38e86252516d12afdac -->
<g id="node1" class="node">
<title>dir_36f22bdf0117f38e86252516d12afdac</title>
<g id="a_node1"><a xlink:href="dir_36f22bdf0117f38e86252516d12afdac.html" target="_top" xlink:title="pal">
<polygon fill="#a2b4d6" stroke="#404040" points="48,-35 16,-35 16,-16 48,-16 48,-35"/>
<text text-anchor="middle" x="32" y="-23" font-family="Helvetica,sans-Serif" font-size="10.00">pal</text>
</a>
</g>
</g>
<!-- dir_718cb05e94fb01aeb88649f9185845a8 -->
<g id="node2" class="node">
<title>dir_718cb05e94fb01aeb88649f9185845a8</title>
<g id="a_node2"><a xlink:href="dir_718cb05e94fb01aeb88649f9185845a8.html" target="_top" xlink:title="crypto">
<polygon fill="#a2b4d6" stroke="#404040" points="113.5,-35 66.5,-35 66.5,-16 113.5,-16 113.5,-35"/>
<text text-anchor="middle" x="90" y="-23" font-family="Helvetica,sans-Serif" font-size="10.00">crypto</text>
</a>
</g>
</g>
<!-- dir_a0bd5b61e2f393f7cb26e530f5604320 -->
<g id="node3" class="node">
<title>dir_a0bd5b61e2f393f7cb26e530f5604320</title>
<g id="a_node3"><a xlink:href="dir_a0bd5b61e2f393f7cb26e530f5604320.html" target="_top" xlink:title="service">
<polygon fill="#a2b4d6" stroke="red" points="184,-35 132,-35 132,-16 184,-16 184,-35"/>
<text text-anchor="middle" x="158" y="-23" font-family="Helvetica,sans-Serif" font-size="10.00">service</text>
</a>
</g>
</g>
<!-- dir_cabae42bbc2bbaf21b45af6b92ef62e9 -->
<g id="node4" class="node">
<title>dir_cabae42bbc2bbaf21b45af6b92ef62e9</title>
<g id="a_node4"><a xlink:href="dir_cabae42bbc2bbaf21b45af6b92ef62e9.html" target="_top" xlink:title="ds">
<polygon fill="#a2b4d6" stroke="#404040" points="231.5,-35 202.5,-35 202.5,-16 231.5,-16 231.5,-35"/>
<text text-anchor="middle" x="217" y="-23" font-family="Helvetica,sans-Serif" font-size="10.00">ds</text>
</a>
</g>
</g>
<!-- dir_e4d7f7a88037af12eae8bd997a8823fc -->
<g id="node5" class="node">
<title>dir_e4d7f7a88037af12eae8bd997a8823fc</title>
<g id="a_node5"><a xlink:href="dir_e4d7f7a88037af12eae8bd997a8823fc.html" target="_top" xlink:title="node">
<polygon fill="#edf0f7" stroke="#404040" stroke-width="2" points="144.5,-90 103.5,-90 103.5,-71 144.5,-71 144.5,-90"/>
<text text-anchor="middle" x="124" y="-78" font-family="Helvetica,sans-Serif" font-size="10.00">node</text>
</a>
</g>
</g>
<!-- dir_e4d7f7a88037af12eae8bd997a8823fc&#45;&gt;dir_36f22bdf0117f38e86252516d12afdac -->
<g id="edge1" class="edge">
<title>dir_e4d7f7a88037af12eae8bd997a8823fc&#45;&gt;dir_36f22bdf0117f38e86252516d12afdac</title>
<path fill="none" stroke="#63b8ff" d="M109.22,-70.98C94.82,-62.69 72.69,-49.94 55.81,-40.22"/>
<polygon fill="#63b8ff" stroke="#63b8ff" points="57.46,-37.13 47.05,-35.17 53.97,-43.19 57.46,-37.13"/>
<g id="a_edge1&#45;headlabel"><a xlink:href="dir_000031_000034.html" target="_top" xlink:title="1">
<text text-anchor="middle" x="61.99" y="-33.96" font-family="Helvetica,sans-Serif" font-size="10.00" fill="#63b8ff">1</text>
</a>
</g>
</g>
<!-- dir_e4d7f7a88037af12eae8bd997a8823fc&#45;&gt;dir_718cb05e94fb01aeb88649f9185845a8 -->
<g id="edge2" class="edge">
<title>dir_e4d7f7a88037af12eae8bd997a8823fc&#45;&gt;dir_718cb05e94fb01aeb88649f9185845a8</title>
<path fill="none" stroke="#63b8ff" d="M118.39,-70.75C113.68,-63.42 106.83,-52.73 101.03,-43.7"/>
<polygon fill="#63b8ff" stroke="#63b8ff" points="103.86,-41.62 95.51,-35.09 97.96,-45.4 103.86,-41.62"/>
<g id="a_edge2&#45;headlabel"><a xlink:href="dir_000031_000011.html" target="_top" xlink:title="2">
<text text-anchor="middle" x="108.19" y="-40.61" font-family="Helvetica,sans-Serif" font-size="10.00" fill="#63b8ff">2</text>
</a>
</g>
</g>
<!-- dir_e4d7f7a88037af12eae8bd997a8823fc&#45;&gt;dir_a0bd5b61e2f393f7cb26e530f5604320 -->
<g id="edge3" class="edge">
<title>dir_e4d7f7a88037af12eae8bd997a8823fc&#45;&gt;dir_a0bd5b61e2f393f7cb26e530f5604320</title>
<path fill="none" stroke="#63b8ff" d="M129.61,-70.75C134.32,-63.42 141.17,-52.73 146.97,-43.7"/>
<polygon fill="#63b8ff" stroke="#63b8ff" points="150.04,-45.4 152.49,-35.09 144.14,-41.62 150.04,-45.4"/>
<g id="a_edge3&#45;headlabel"><a xlink:href="dir_000031_000040.html" target="_top" xlink:title="10">
<text text-anchor="middle" x="150.49" y="-47.45" font-family="Helvetica,sans-Serif" font-size="10.00" fill="#63b8ff">10</text>
</a>
</g>
</g>
<!-- dir_e4d7f7a88037af12eae8bd997a8823fc&#45;&gt;dir_cabae42bbc2bbaf21b45af6b92ef62e9 -->
<g id="edge4" class="edge">
<title>dir_e4d7f7a88037af12eae8bd997a8823fc&#45;&gt;dir_cabae42bbc2bbaf21b45af6b92ef62e9</title>
<path fill="none" stroke="#63b8ff" d="M138.94,-70.98C153.67,-62.59 176.4,-49.64 193.54,-39.87"/>
<polygon fill="#63b8ff" stroke="#63b8ff" points="195.45,-42.81 202.4,-34.82 191.98,-36.73 195.45,-42.81"/>
<g id="a_edge4&#45;headlabel"><a xlink:href="dir_000031_000013.html" target="_top" xlink:title="2">
<text text-anchor="middle" x="193.73" y="-44.56" font-family="Helvetica,sans-Serif" font-size="10.00" fill="#63b8ff">2</text>
</a>
</g>
</g>
</g>
</svg>
