<?xml version="1.0" encoding="UTF-8" standalone="no"?>
<!DOCTYPE svg PUBLIC "-//W3C//DTD SVG 1.1//EN"
 "http://www.w3.org/Graphics/SVG/1.1/DTD/svg11.dtd">
<!-- Generated by graphviz version 2.43.0 (0)
 -->
<!-- Title: src/host/dns.h Pages: 1 -->
<svg width="328pt" height="192pt"
 viewBox="0.00 0.00 327.50 192.00" xmlns="http://www.w3.org/2000/svg" xmlns:xlink="http://www.w3.org/1999/xlink">
<g id="graph0" class="graph" transform="scale(1 1) rotate(0) translate(4 188)">
<title>src/host/dns.h</title>
<!-- Node1 -->
<g id="node1" class="node">
<title>Node1</title>
<g id="a_node1"><a xlink:title=" ">
<polygon fill="#999999" stroke="#666666" points="237.5,-184 153.5,-184 153.5,-165 237.5,-165 237.5,-184"/>
<text text-anchor="middle" x="195.5" y="-172" font-family="Helvetica,sans-Serif" font-size="10.00">src/host/dns.h</text>
</a>
</g>
</g>
<!-- Node2 -->
<g id="node2" class="node">
<title>Node2</title>
<g id="a_node2"><a xlink:href="tcp_8h.html" target="_top" xlink:title=" ">
<polygon fill="white" stroke="#666666" points="185.5,-129 103.5,-129 103.5,-110 185.5,-110 185.5,-129"/>
<text text-anchor="middle" x="144.5" y="-117" font-family="Helvetica,sans-Serif" font-size="10.00">src/host/tcp.h</text>
</a>
</g>
</g>
<!-- Node1&#45;&gt;Node2 -->
<g id="edge1" class="edge">
<title>Node1&#45;&gt;Node2</title>
<path fill="none" stroke="#63b8ff" d="M180.12,-157.52C171.13,-148.18 160.14,-136.75 152.76,-129.09"/>
<polygon fill="#63b8ff" stroke="#63b8ff" points="177.62,-159.97 187.08,-164.75 182.67,-155.12 177.62,-159.97"/>
</g>
<!-- Node6 -->
<g id="node6" class="node">
<title>Node6</title>
<g id="a_node6"><a xlink:href="udp_8h.html" target="_top" xlink:title=" ">
<polygon fill="white" stroke="#666666" points="289,-129 204,-129 204,-110 289,-110 289,-129"/>
<text text-anchor="middle" x="246.5" y="-117" font-family="Helvetica,sans-Serif" font-size="10.00">src/host/udp.h</text>
</a>
</g>
</g>
<!-- Node1&#45;&gt;Node6 -->
<g id="edge6" class="edge">
<title>Node1&#45;&gt;Node6</title>
<path fill="none" stroke="#63b8ff" d="M210.88,-157.52C219.87,-148.18 230.86,-136.75 238.24,-129.09"/>
<polygon fill="#63b8ff" stroke="#63b8ff" points="208.33,-155.12 203.92,-164.75 213.38,-159.97 208.33,-155.12"/>
</g>
<!-- Node3 -->
<g id="node3" class="node">
<title>Node3</title>
<g id="a_node3"><a xlink:href="node__connections_8h.html" target="_top" xlink:title=" ">
<polygon fill="white" stroke="#666666" points="155,-74 0,-74 0,-55 155,-55 155,-74"/>
<text text-anchor="middle" x="77.5" y="-62" font-family="Helvetica,sans-Serif" font-size="10.00">src/host/node_connections.h</text>
</a>
</g>
</g>
<!-- Node2&#45;&gt;Node3 -->
<g id="edge2" class="edge">
<title>Node2&#45;&gt;Node3</title>
<path fill="none" stroke="#63b8ff" d="M125.67,-103.6C113.66,-94.11 98.53,-82.13 88.46,-74.17"/>
<polygon fill="#63b8ff" stroke="#63b8ff" points="123.72,-106.53 133.74,-109.98 128.06,-101.04 123.72,-106.53"/>
</g>
<!-- Node5 -->
<g id="node5" class="node">
<title>Node5</title>
<g id="a_node5"><a xlink:href="rpc__connections_8h.html" target="_top" xlink:title=" ">
<polygon fill="white" stroke="#666666" points="319.5,-74 173.5,-74 173.5,-55 319.5,-55 319.5,-74"/>
<text text-anchor="middle" x="246.5" y="-62" font-family="Helvetica,sans-Serif" font-size="10.00">src/host/rpc_connections.h</text>
</a>
</g>
</g>
<!-- Node2&#45;&gt;Node5 -->
<g id="edge4" class="edge">
<title>Node2&#45;&gt;Node5</title>
<path fill="none" stroke="#63b8ff" d="M169.77,-105.37C188.51,-95.63 213.52,-82.64 229.81,-74.17"/>
<polygon fill="#63b8ff" stroke="#63b8ff" points="168.15,-102.27 160.89,-109.98 171.38,-108.48 168.15,-102.27"/>
</g>
<!-- Node4 -->
<g id="node4" class="node">
<title>Node4</title>
<g id="a_node4"><a xlink:href="host_2main_8cpp.html" target="_top" xlink:title=" ">
<polygon fill="white" stroke="#666666" points="213,-19 110,-19 110,0 213,0 213,-19"/>
<text text-anchor="middle" x="161.5" y="-7" font-family="Helvetica,sans-Serif" font-size="10.00">src/host/main.cpp</text>
</a>
</g>
</g>
<!-- Node3&#45;&gt;Node4 -->
<g id="edge3" class="edge">
<title>Node3&#45;&gt;Node4</title>
<path fill="none" stroke="#63b8ff" d="M99.81,-49.42C115.05,-39.81 134.77,-27.37 147.76,-19.17"/>
<polygon fill="#63b8ff" stroke="#63b8ff" points="97.59,-46.69 91,-54.98 101.32,-52.61 97.59,-46.69"/>
</g>
<!-- Node5&#45;&gt;Node4 -->
<g id="edge5" class="edge">
<title>Node5&#45;&gt;Node4</title>
<path fill="none" stroke="#63b8ff" d="M223.93,-49.42C208.5,-39.81 188.55,-27.37 175.41,-19.17"/>
<polygon fill="#63b8ff" stroke="#63b8ff" points="222.51,-52.66 232.84,-54.98 226.21,-46.72 222.51,-52.66"/>
</g>
<!-- Node6&#45;&gt;Node5 -->
<g id="edge7" class="edge">
<title>Node6&#45;&gt;Node5</title>
<path fill="none" stroke="#63b8ff" d="M246.5,-99.66C246.5,-90.93 246.5,-80.99 246.5,-74.09"/>
<polygon fill="#63b8ff" stroke="#63b8ff" points="243,-99.75 246.5,-109.75 250,-99.75 243,-99.75"/>
</g>
</g>
</svg>
