<?xml version="1.0" encoding="UTF-8" standalone="no"?>
<!DOCTYPE svg PUBLIC "-//W3C//DTD SVG 1.1//EN"
 "http://www.w3.org/Graphics/SVG/1.1/DTD/svg11.dtd">
<!-- Generated by graphviz version 2.43.0 (0)
 -->
<!-- Title: src/enclave/forwarder_types.h Pages: 1 -->
<svg width="1020pt" height="390pt"
 viewBox="0.00 0.00 1019.50 390.00" xmlns="http://www.w3.org/2000/svg" xmlns:xlink="http://www.w3.org/1999/xlink">
<g id="graph0" class="graph" transform="scale(1 1) rotate(0) translate(4 386)">
<title>src/enclave/forwarder_types.h</title>
<!-- Node1 -->
<g id="node1" class="node">
<title>Node1</title>
<g id="a_node1"><a xlink:title=" ">
<polygon fill="#999999" stroke="#666666" points="897,-382 775,-382 775,-352 897,-352 897,-382"/>
<text text-anchor="start" x="783" y="-370" font-family="Helvetica,sans-Serif" font-size="10.00">src/enclave/forwarder</text>
<text text-anchor="middle" x="836" y="-359" font-family="Helvetica,sans-Serif" font-size="10.00">_types.h</text>
</a>
</g>
</g>
<!-- Node2 -->
<g id="node2" class="node">
<title>Node2</title>
<g id="a_node2"><a xlink:href="entity__id_8h.html" target="_top" xlink:title=" ">
<polygon fill="white" stroke="#666666" points="844,-316 758,-316 758,-297 844,-297 844,-316"/>
<text text-anchor="middle" x="801" y="-304" font-family="Helvetica,sans-Serif" font-size="10.00">ccf/entity_id.h</text>
</a>
</g>
</g>
<!-- Node1&#45;&gt;Node2 -->
<g id="edge1" class="edge">
<title>Node1&#45;&gt;Node2</title>
<path fill="none" stroke="#63b8ff" d="M827.53,-351.84C822.71,-343.78 816.63,-333.62 811.5,-325.06"/>
<polygon fill="#63b8ff" stroke="#63b8ff" points="814.38,-323.05 806.24,-316.27 808.38,-326.64 814.38,-323.05"/>
</g>
<!-- Node6 -->
<g id="node6" class="node">
<title>Node6</title>
<g id="a_node6"><a xlink:title=" ">
<polygon fill="#e0e0e0" stroke="#999999" points="789.5,-19 742.5,-19 742.5,0 789.5,0 789.5,-19"/>
<text text-anchor="middle" x="766" y="-7" font-family="Helvetica,sans-Serif" font-size="10.00">vector</text>
</a>
</g>
</g>
<!-- Node1&#45;&gt;Node6 -->
<g id="edge31" class="edge">
<title>Node1&#45;&gt;Node6</title>
<path fill="none" stroke="#63b8ff" d="M843.69,-351.81C854.79,-329.97 874,-286.47 874,-247 874,-247 874,-247 874,-118.5 874,-73.37 826.26,-40.51 794.26,-23.55"/>
<polygon fill="#63b8ff" stroke="#63b8ff" points="795.81,-20.41 785.31,-19 792.64,-26.65 795.81,-20.41"/>
</g>
<!-- Node3 -->
<g id="node3" class="node">
<title>Node3</title>
<g id="a_node3"><a xlink:href="json_8h.html" target="_top" xlink:title=" ">
<polygon fill="white" stroke="#666666" points="572.5,-189.5 495.5,-189.5 495.5,-170.5 572.5,-170.5 572.5,-189.5"/>
<text text-anchor="middle" x="534" y="-177.5" font-family="Helvetica,sans-Serif" font-size="10.00">ccf/ds/json.h</text>
</a>
</g>
</g>
<!-- Node2&#45;&gt;Node3 -->
<g id="edge2" class="edge">
<title>Node2&#45;&gt;Node3</title>
<path fill="none" stroke="#63b8ff" d="M801.14,-296.9C800.88,-281.31 797.98,-248.42 779,-231 750.9,-205.21 645.94,-191.27 582.88,-185.06"/>
<polygon fill="#63b8ff" stroke="#63b8ff" points="583.05,-181.56 572.76,-184.09 582.38,-188.53 583.05,-181.56"/>
</g>
<!-- Node5 -->
<g id="node5" class="node">
<title>Node5</title>
<g id="a_node5"><a xlink:title=" ">
<polygon fill="#e0e0e0" stroke="#999999" points="607,-19 563,-19 563,0 607,0 607,-19"/>
<text text-anchor="middle" x="585" y="-7" font-family="Helvetica,sans-Serif" font-size="10.00">string</text>
</a>
</g>
</g>
<!-- Node2&#45;&gt;Node5 -->
<g id="edge30" class="edge">
<title>Node2&#45;&gt;Node5</title>
<path fill="none" stroke="#63b8ff" d="M805.15,-296.98C814.42,-277.14 836,-226.13 836,-181 836,-181 836,-181 836,-118.5 836,-89.17 839.63,-74.82 818,-55 789.12,-28.54 674.49,-16.83 617.51,-12.56"/>
<polygon fill="#63b8ff" stroke="#63b8ff" points="617.47,-9.05 607.25,-11.83 616.97,-16.03 617.47,-9.05"/>
</g>
<!-- Node18 -->
<g id="node18" class="node">
<title>Node18</title>
<g id="a_node18"><a xlink:href="blit__serialiser_8h.html" target="_top" xlink:title=" ">
<polygon fill="white" stroke="#666666" points="769.5,-261 670.5,-261 670.5,-231 769.5,-231 769.5,-261"/>
<text text-anchor="start" x="678.5" y="-249" font-family="Helvetica,sans-Serif" font-size="10.00">ccf/kv/serialisers</text>
<text text-anchor="middle" x="720" y="-238" font-family="Helvetica,sans-Serif" font-size="10.00">/blit_serialiser.h</text>
</a>
</g>
</g>
<!-- Node2&#45;&gt;Node18 -->
<g id="edge20" class="edge">
<title>Node2&#45;&gt;Node18</title>
<path fill="none" stroke="#63b8ff" d="M789.05,-296.87C778.26,-289.08 761.98,-277.32 747.93,-267.17"/>
<polygon fill="#63b8ff" stroke="#63b8ff" points="749.7,-264.13 739.54,-261.11 745.6,-269.81 749.7,-264.13"/>
</g>
<!-- Node4 -->
<g id="node4" class="node">
<title>Node4</title>
<g id="a_node4"><a xlink:href="include_2ccf_2crypto_2base64_8h.html" target="_top" xlink:title=" ">
<polygon fill="white" stroke="#666666" points="641,-74 529,-74 529,-55 641,-55 641,-74"/>
<text text-anchor="middle" x="585" y="-62" font-family="Helvetica,sans-Serif" font-size="10.00">ccf/crypto/base64.h</text>
</a>
</g>
</g>
<!-- Node3&#45;&gt;Node4 -->
<g id="edge3" class="edge">
<title>Node3&#45;&gt;Node4</title>
<path fill="none" stroke="#63b8ff" d="M537.83,-170.47C546.1,-152.06 565.77,-108.29 576.92,-83.48"/>
<polygon fill="#63b8ff" stroke="#63b8ff" points="580.22,-84.69 581.12,-74.13 573.83,-81.82 580.22,-84.69"/>
</g>
<!-- Node7 -->
<g id="node7" class="node">
<title>Node7</title>
<g id="a_node7"><a xlink:href="include_2ccf_2ds_2json__schema_8h.html" target="_top" xlink:title=" ">
<polygon fill="white" stroke="#666666" points="419.5,-129 298.5,-129 298.5,-110 419.5,-110 419.5,-129"/>
<text text-anchor="middle" x="359" y="-117" font-family="Helvetica,sans-Serif" font-size="10.00">ccf/ds/json_schema.h</text>
</a>
</g>
</g>
<!-- Node3&#45;&gt;Node7 -->
<g id="edge6" class="edge">
<title>Node3&#45;&gt;Node7</title>
<path fill="none" stroke="#63b8ff" d="M508.55,-170.49C478.36,-160.4 427.84,-143.51 393.98,-132.19"/>
<polygon fill="#63b8ff" stroke="#63b8ff" points="395.07,-128.87 384.48,-129.02 392.85,-135.51 395.07,-128.87"/>
</g>
<!-- Node15 -->
<g id="node15" class="node">
<title>Node15</title>
<g id="a_node15"><a xlink:title=" ">
<polygon fill="#e0e0e0" stroke="#999999" points="511.5,-74 432.5,-74 432.5,-55 511.5,-55 511.5,-74"/>
<text text-anchor="middle" x="472" y="-62" font-family="Helvetica,sans-Serif" font-size="10.00">fmt/format.h</text>
</a>
</g>
</g>
<!-- Node3&#45;&gt;Node15 -->
<g id="edge18" class="edge">
<title>Node3&#45;&gt;Node15</title>
<path fill="none" stroke="#63b8ff" d="M533.03,-170.41C531.19,-156.82 526.33,-129.86 515,-110 508.79,-99.11 499.3,-88.9 490.82,-81.02"/>
<polygon fill="#63b8ff" stroke="#63b8ff" points="492.94,-78.22 483.13,-74.22 488.31,-83.47 492.94,-78.22"/>
</g>
<!-- Node17 -->
<g id="node17" class="node">
<title>Node17</title>
<g id="a_node17"><a xlink:title=" ">
<polygon fill="#e0e0e0" stroke="#999999" points="506,-129 450,-129 450,-110 506,-110 506,-129"/>
<text text-anchor="middle" x="478" y="-117" font-family="Helvetica,sans-Serif" font-size="10.00">sstream</text>
</a>
</g>
</g>
<!-- Node3&#45;&gt;Node17 -->
<g id="edge19" class="edge">
<title>Node3&#45;&gt;Node17</title>
<path fill="none" stroke="#63b8ff" d="M525.74,-170.37C517.22,-161.47 503.74,-147.39 493.27,-136.45"/>
<polygon fill="#63b8ff" stroke="#63b8ff" points="495.74,-133.97 486.3,-129.17 490.68,-138.81 495.74,-133.97"/>
</g>
<!-- Node4&#45;&gt;Node5 -->
<g id="edge4" class="edge">
<title>Node4&#45;&gt;Node5</title>
<path fill="none" stroke="#63b8ff" d="M585,-54.75C585,-47.8 585,-37.85 585,-29.13"/>
<polygon fill="#63b8ff" stroke="#63b8ff" points="588.5,-29.09 585,-19.09 581.5,-29.09 588.5,-29.09"/>
</g>
<!-- Node4&#45;&gt;Node6 -->
<g id="edge5" class="edge">
<title>Node4&#45;&gt;Node6</title>
<path fill="none" stroke="#63b8ff" d="M614.08,-54.98C646.41,-45.52 698.54,-30.25 732.54,-20.3"/>
<polygon fill="#63b8ff" stroke="#63b8ff" points="733.86,-23.56 742.47,-17.39 731.89,-16.84 733.86,-23.56"/>
</g>
<!-- Node8 -->
<g id="node8" class="node">
<title>Node8</title>
<g id="a_node8"><a xlink:href="nonstd_8h.html" target="_top" xlink:title=" ">
<polygon fill="white" stroke="#666666" points="212,-74 122,-74 122,-55 212,-55 212,-74"/>
<text text-anchor="middle" x="167" y="-62" font-family="Helvetica,sans-Serif" font-size="10.00">ccf/ds/nonstd.h</text>
</a>
</g>
</g>
<!-- Node7&#45;&gt;Node8 -->
<g id="edge7" class="edge">
<title>Node7&#45;&gt;Node8</title>
<path fill="none" stroke="#63b8ff" d="M328.15,-109.98C295.5,-100.97 243.8,-86.7 207.8,-76.76"/>
<polygon fill="#63b8ff" stroke="#63b8ff" points="208.66,-73.37 198.09,-74.08 206.8,-80.12 208.66,-73.37"/>
</g>
<!-- Node14 -->
<g id="node14" class="node">
<title>Node14</title>
<g id="a_node14"><a xlink:title=" ">
<polygon fill="#e0e0e0" stroke="#999999" points="286,-74 230,-74 230,-55 286,-55 286,-74"/>
<text text-anchor="middle" x="258" y="-62" font-family="Helvetica,sans-Serif" font-size="10.00">optional</text>
</a>
</g>
</g>
<!-- Node7&#45;&gt;Node14 -->
<g id="edge15" class="edge">
<title>Node7&#45;&gt;Node14</title>
<path fill="none" stroke="#63b8ff" d="M342.77,-109.98C326.82,-101.61 302.22,-88.7 283.62,-78.95"/>
<polygon fill="#63b8ff" stroke="#63b8ff" points="285,-75.72 274.52,-74.17 281.75,-81.92 285,-75.72"/>
</g>
<!-- Node7&#45;&gt;Node15 -->
<g id="edge16" class="edge">
<title>Node7&#45;&gt;Node15</title>
<path fill="none" stroke="#63b8ff" d="M377.16,-109.98C395.25,-101.5 423.28,-88.35 444.19,-78.54"/>
<polygon fill="#63b8ff" stroke="#63b8ff" points="445.95,-81.59 453.51,-74.17 442.97,-75.25 445.95,-81.59"/>
</g>
<!-- Node16 -->
<g id="node16" class="node">
<title>Node16</title>
<g id="a_node16"><a xlink:title=" ">
<polygon fill="#e0e0e0" stroke="#999999" points="414,-74 304,-74 304,-55 414,-55 414,-74"/>
<text text-anchor="middle" x="359" y="-62" font-family="Helvetica,sans-Serif" font-size="10.00">nlohmann/json.hpp</text>
</a>
</g>
</g>
<!-- Node7&#45;&gt;Node16 -->
<g id="edge17" class="edge">
<title>Node7&#45;&gt;Node16</title>
<path fill="none" stroke="#63b8ff" d="M359,-109.75C359,-102.8 359,-92.85 359,-84.13"/>
<polygon fill="#63b8ff" stroke="#63b8ff" points="362.5,-84.09 359,-74.09 355.5,-84.09 362.5,-84.09"/>
</g>
<!-- Node8&#45;&gt;Node5 -->
<g id="edge11" class="edge">
<title>Node8&#45;&gt;Node5</title>
<path fill="none" stroke="#63b8ff" d="M212.06,-56.29C215.09,-55.84 218.09,-55.41 221,-55 343.19,-37.92 488.97,-21.2 552.61,-14.08"/>
<polygon fill="#63b8ff" stroke="#63b8ff" points="553.26,-17.53 562.81,-12.94 552.48,-10.57 553.26,-17.53"/>
</g>
<!-- Node8&#45;&gt;Node6 -->
<g id="edge14" class="edge">
<title>Node8&#45;&gt;Node6</title>
<path fill="none" stroke="#63b8ff" d="M212.05,-56.15C215.07,-55.74 218.08,-55.35 221,-55 413.77,-31.99 646.35,-17.35 732.11,-12.38"/>
<polygon fill="#63b8ff" stroke="#63b8ff" points="732.52,-15.87 742.3,-11.8 732.11,-8.88 732.52,-15.87"/>
</g>
<!-- Node9 -->
<g id="node9" class="node">
<title>Node9</title>
<g id="a_node9"><a xlink:title=" ">
<polygon fill="#e0e0e0" stroke="#999999" points="64,-19 0,-19 0,0 64,0 64,-19"/>
<text text-anchor="middle" x="32" y="-7" font-family="Helvetica,sans-Serif" font-size="10.00">algorithm</text>
</a>
</g>
</g>
<!-- Node8&#45;&gt;Node9 -->
<g id="edge8" class="edge">
<title>Node8&#45;&gt;Node9</title>
<path fill="none" stroke="#63b8ff" d="M145.31,-54.98C123.2,-46.3 88.68,-32.75 63.55,-22.88"/>
<polygon fill="#63b8ff" stroke="#63b8ff" points="64.67,-19.57 54.08,-19.17 62.11,-26.08 64.67,-19.57"/>
</g>
<!-- Node10 -->
<g id="node10" class="node">
<title>Node10</title>
<g id="a_node10"><a xlink:title=" ">
<polygon fill="#e0e0e0" stroke="#999999" points="124,-19 82,-19 82,0 124,0 124,-19"/>
<text text-anchor="middle" x="103" y="-7" font-family="Helvetica,sans-Serif" font-size="10.00">array</text>
</a>
</g>
</g>
<!-- Node8&#45;&gt;Node10 -->
<g id="edge9" class="edge">
<title>Node8&#45;&gt;Node10</title>
<path fill="none" stroke="#63b8ff" d="M156.72,-54.98C147.16,-47.07 132.72,-35.11 121.22,-25.58"/>
<polygon fill="#63b8ff" stroke="#63b8ff" points="123.4,-22.85 113.47,-19.17 118.94,-28.24 123.4,-22.85"/>
</g>
<!-- Node11 -->
<g id="node11" class="node">
<title>Node11</title>
<g id="a_node11"><a xlink:title=" ">
<polygon fill="#e0e0e0" stroke="#999999" points="191.5,-19 142.5,-19 142.5,0 191.5,0 191.5,-19"/>
<text text-anchor="middle" x="167" y="-7" font-family="Helvetica,sans-Serif" font-size="10.00">cctype</text>
</a>
</g>
</g>
<!-- Node8&#45;&gt;Node11 -->
<g id="edge10" class="edge">
<title>Node8&#45;&gt;Node11</title>
<path fill="none" stroke="#63b8ff" d="M167,-54.75C167,-47.8 167,-37.85 167,-29.13"/>
<polygon fill="#63b8ff" stroke="#63b8ff" points="170.5,-29.09 167,-19.09 163.5,-29.09 170.5,-29.09"/>
</g>
<!-- Node12 -->
<g id="node12" class="node">
<title>Node12</title>
<g id="a_node12"><a xlink:title=" ">
<polygon fill="#e0e0e0" stroke="#999999" points="282.5,-19 209.5,-19 209.5,0 282.5,0 282.5,-19"/>
<text text-anchor="middle" x="246" y="-7" font-family="Helvetica,sans-Serif" font-size="10.00">string_view</text>
</a>
</g>
</g>
<!-- Node8&#45;&gt;Node12 -->
<g id="edge12" class="edge">
<title>Node8&#45;&gt;Node12</title>
<path fill="none" stroke="#63b8ff" d="M179.69,-54.98C191.83,-46.84 210.36,-34.41 224.75,-24.76"/>
<polygon fill="#63b8ff" stroke="#63b8ff" points="226.72,-27.65 233.08,-19.17 222.82,-21.84 226.72,-27.65"/>
</g>
<!-- Node13 -->
<g id="node13" class="node">
<title>Node13</title>
<g id="a_node13"><a xlink:title=" ">
<polygon fill="#e0e0e0" stroke="#999999" points="369.5,-19 300.5,-19 300.5,0 369.5,0 369.5,-19"/>
<text text-anchor="middle" x="335" y="-7" font-family="Helvetica,sans-Serif" font-size="10.00">type_traits</text>
</a>
</g>
</g>
<!-- Node8&#45;&gt;Node13 -->
<g id="edge13" class="edge">
<title>Node8&#45;&gt;Node13</title>
<path fill="none" stroke="#63b8ff" d="M193.99,-54.98C222.2,-46.09 266.64,-32.07 298.08,-22.15"/>
<polygon fill="#63b8ff" stroke="#63b8ff" points="299.31,-25.43 307.8,-19.08 297.21,-18.75 299.31,-25.43"/>
</g>
<!-- Node18&#45;&gt;Node8 -->
<g id="edge21" class="edge">
<title>Node18&#45;&gt;Node8</title>
<path fill="none" stroke="#63b8ff" d="M670.07,-235.96C622.62,-226.98 549.45,-212.1 487,-195 397.94,-170.61 375.05,-164.95 290,-129 254.43,-113.97 215.06,-92.79 190.67,-79.1"/>
<polygon fill="#63b8ff" stroke="#63b8ff" points="192.22,-75.96 181.79,-74.08 188.77,-82.05 192.22,-75.96"/>
</g>
<!-- Node19 -->
<g id="node19" class="node">
<title>Node19</title>
<g id="a_node19"><a xlink:href="serialised__entry_8h.html" target="_top" xlink:title=" ">
<polygon fill="white" stroke="#666666" points="776.5,-195 671.5,-195 671.5,-165 776.5,-165 776.5,-195"/>
<text text-anchor="start" x="679.5" y="-183" font-family="Helvetica,sans-Serif" font-size="10.00">ccf/kv/serialisers</text>
<text text-anchor="middle" x="724" y="-172" font-family="Helvetica,sans-Serif" font-size="10.00">/serialised_entry.h</text>
</a>
</g>
</g>
<!-- Node18&#45;&gt;Node19 -->
<g id="edge22" class="edge">
<title>Node18&#45;&gt;Node19</title>
<path fill="none" stroke="#63b8ff" d="M720.89,-230.8C721.35,-223.34 721.94,-213.99 722.47,-205.41"/>
<polygon fill="#63b8ff" stroke="#63b8ff" points="725.98,-205.36 723.11,-195.16 719,-204.93 725.98,-205.36"/>
</g>
<!-- Node20 -->
<g id="node20" class="node">
<title>Node20</title>
<g id="a_node20"><a xlink:href="byte__vector_8h.html" target="_top" xlink:title=" ">
<polygon fill="white" stroke="#666666" points="777,-129 677,-129 677,-110 777,-110 777,-129"/>
<text text-anchor="middle" x="727" y="-117" font-family="Helvetica,sans-Serif" font-size="10.00">ccf/byte_vector.h</text>
</a>
</g>
</g>
<!-- Node19&#45;&gt;Node20 -->
<g id="edge23" class="edge">
<title>Node19&#45;&gt;Node20</title>
<path fill="none" stroke="#63b8ff" d="M724.73,-164.84C725.12,-157.21 725.6,-147.7 726.03,-139.45"/>
<polygon fill="#63b8ff" stroke="#63b8ff" points="729.53,-139.43 726.55,-129.27 722.54,-139.07 729.53,-139.43"/>
</g>
<!-- Node20&#45;&gt;Node15 -->
<g id="edge28" class="edge">
<title>Node20&#45;&gt;Node15</title>
<path fill="none" stroke="#63b8ff" d="M686.03,-109.98C641.21,-100.67 569.38,-85.74 521.45,-75.78"/>
<polygon fill="#63b8ff" stroke="#63b8ff" points="522.11,-72.34 511.61,-73.73 520.69,-79.19 522.11,-72.34"/>
</g>
<!-- Node21 -->
<g id="node21" class="node">
<title>Node21</title>
<g id="a_node21"><a xlink:href="siphash_8h.html" target="_top" xlink:title=" ">
<polygon fill="white" stroke="#666666" points="997.5,-74 902.5,-74 902.5,-55 997.5,-55 997.5,-74"/>
<text text-anchor="middle" x="950" y="-62" font-family="Helvetica,sans-Serif" font-size="10.00">ccf/ds/siphash.h</text>
</a>
</g>
</g>
<!-- Node20&#45;&gt;Node21 -->
<g id="edge24" class="edge">
<title>Node20&#45;&gt;Node21</title>
<path fill="none" stroke="#63b8ff" d="M762.83,-109.98C801.16,-100.87 862.08,-86.4 903.95,-76.45"/>
<polygon fill="#63b8ff" stroke="#63b8ff" points="904.97,-79.8 913.89,-74.08 903.35,-72.99 904.97,-79.8"/>
</g>
<!-- Node24 -->
<g id="node24" class="node">
<title>Node24</title>
<g id="a_node24"><a xlink:title=" ">
<polygon fill="#e0e0e0" stroke="#999999" points="808.5,-74 659.5,-74 659.5,-55 808.5,-55 808.5,-74"/>
<text text-anchor="middle" x="734" y="-62" font-family="Helvetica,sans-Serif" font-size="10.00">small_vector/SmallVector.h</text>
</a>
</g>
</g>
<!-- Node20&#45;&gt;Node24 -->
<g id="edge29" class="edge">
<title>Node20&#45;&gt;Node24</title>
<path fill="none" stroke="#63b8ff" d="M728.16,-109.75C729.07,-102.8 730.39,-92.85 731.54,-84.13"/>
<polygon fill="#63b8ff" stroke="#63b8ff" points="735.03,-84.46 732.87,-74.09 728.09,-83.54 735.03,-84.46"/>
</g>
<!-- Node21&#45;&gt;Node6 -->
<g id="edge27" class="edge">
<title>Node21&#45;&gt;Node6</title>
<path fill="none" stroke="#63b8ff" d="M920.44,-54.98C887.34,-45.45 833.82,-30.03 799.28,-20.09"/>
<polygon fill="#63b8ff" stroke="#63b8ff" points="800.22,-16.71 789.64,-17.31 798.28,-23.44 800.22,-16.71"/>
</g>
<!-- Node22 -->
<g id="node22" class="node">
<title>Node22</title>
<g id="a_node22"><a xlink:title=" ">
<polygon fill="#e0e0e0" stroke="#999999" points="1011.5,-19 958.5,-19 958.5,0 1011.5,0 1011.5,-19"/>
<text text-anchor="middle" x="985" y="-7" font-family="Helvetica,sans-Serif" font-size="10.00">cstddef</text>
</a>
</g>
</g>
<!-- Node21&#45;&gt;Node22 -->
<g id="edge25" class="edge">
<title>Node21&#45;&gt;Node22</title>
<path fill="none" stroke="#63b8ff" d="M955.78,-54.75C960.62,-47.42 967.68,-36.73 973.64,-27.7"/>
<polygon fill="#63b8ff" stroke="#63b8ff" points="976.74,-29.36 979.33,-19.09 970.9,-25.5 976.74,-29.36"/>
</g>
<!-- Node23 -->
<g id="node23" class="node">
<title>Node23</title>
<g id="a_node23"><a xlink:title=" ">
<polygon fill="#e0e0e0" stroke="#999999" points="940,-19 890,-19 890,0 940,0 940,-19"/>
<text text-anchor="middle" x="915" y="-7" font-family="Helvetica,sans-Serif" font-size="10.00">cstdint</text>
</a>
</g>
</g>
<!-- Node21&#45;&gt;Node23 -->
<g id="edge26" class="edge">
<title>Node21&#45;&gt;Node23</title>
<path fill="none" stroke="#63b8ff" d="M944.22,-54.75C939.38,-47.42 932.32,-36.73 926.36,-27.7"/>
<polygon fill="#63b8ff" stroke="#63b8ff" points="929.1,-25.5 920.67,-19.09 923.26,-29.36 929.1,-25.5"/>
</g>
</g>
</svg>
