<?xml version="1.0" encoding="UTF-8" standalone="no"?>
<!DOCTYPE svg PUBLIC "-//W3C//DTD SVG 1.1//EN"
 "http://www.w3.org/Graphics/SVG/1.1/DTD/svg11.dtd">
<!-- Generated by graphviz version 2.43.0 (0)
 -->
<!-- Title: src/enclave/forwarder_types.h Pages: 1 -->
<svg width="1547pt" height="654pt"
 viewBox="0.00 0.00 1546.62 654.00" xmlns="http://www.w3.org/2000/svg" xmlns:xlink="http://www.w3.org/1999/xlink">
<g id="graph0" class="graph" transform="scale(1 1) rotate(0) translate(4 650)">
<title>src/enclave/forwarder_types.h</title>
<!-- Node1 -->
<g id="node1" class="node">
<title>Node1</title>
<g id="a_node1"><a xlink:title=" ">
<polygon fill="#999999" stroke="#666666" points="672.12,-646 550.12,-646 550.12,-616 672.12,-616 672.12,-646"/>
<text text-anchor="start" x="558.12" y="-634" font-family="Helvetica,sans-Serif" font-size="10.00">src/enclave/forwarder</text>
<text text-anchor="middle" x="611.12" y="-623" font-family="Helvetica,sans-Serif" font-size="10.00">_types.h</text>
</a>
</g>
</g>
<!-- Node2 -->
<g id="node2" class="node">
<title>Node2</title>
<g id="a_node2"><a xlink:href="rpc__handler_8h.html" target="_top" xlink:title=" ">
<polygon fill="white" stroke="#666666" points="681.12,-580 541.12,-580 541.12,-561 681.12,-561 681.12,-580"/>
<text text-anchor="middle" x="611.12" y="-568" font-family="Helvetica,sans-Serif" font-size="10.00">src/enclave/rpc_handler.h</text>
</a>
</g>
</g>
<!-- Node1&#45;&gt;Node2 -->
<g id="edge1" class="edge">
<title>Node1&#45;&gt;Node2</title>
<path fill="none" stroke="#63b8ff" d="M611.12,-605.75C611.12,-596.72 611.12,-587.03 611.12,-580.27"/>
<polygon fill="#63b8ff" stroke="#63b8ff" points="607.62,-605.84 611.12,-615.84 614.62,-605.84 607.62,-605.84"/>
</g>
<!-- Node24 -->
<g id="node24" class="node">
<title>Node24</title>
<g id="a_node24"><a xlink:href="rpc__sessions_8h.html" target="_top" xlink:title=" ">
<polygon fill="white" stroke="#666666" points="175.12,-387.5 29.12,-387.5 29.12,-368.5 175.12,-368.5 175.12,-387.5"/>
<text text-anchor="middle" x="102.12" y="-375.5" font-family="Helvetica,sans-Serif" font-size="10.00">src/enclave/rpc_sessions.h</text>
</a>
</g>
</g>
<!-- Node1&#45;&gt;Node24 -->
<g id="edge67" class="edge">
<title>Node1&#45;&gt;Node24</title>
<path fill="none" stroke="#63b8ff" d="M539.99,-616.72C463.23,-600.86 338.5,-570.62 238.12,-525 189.31,-502.81 171.76,-499.94 137.12,-459 118.42,-436.89 108.14,-403.24 104.13,-387.58"/>
<polygon fill="#63b8ff" stroke="#63b8ff" points="539.54,-620.2 550.04,-618.77 540.94,-613.34 539.54,-620.2"/>
</g>
<!-- Node28 -->
<g id="node28" class="node">
<title>Node28</title>
<g id="a_node28"><a xlink:href="forwarder_8h.html" target="_top" xlink:title=" ">
<polygon fill="white" stroke="#666666" points="1357.12,-453.5 1223.12,-453.5 1223.12,-434.5 1357.12,-434.5 1357.12,-453.5"/>
<text text-anchor="middle" x="1290.12" y="-441.5" font-family="Helvetica,sans-Serif" font-size="10.00">src/node/rpc/forwarder.h</text>
</a>
</g>
</g>
<!-- Node1&#45;&gt;Node28 -->
<g id="edge68" class="edge">
<title>Node1&#45;&gt;Node28</title>
<path fill="none" stroke="#63b8ff" d="M682.64,-628.55C835.96,-623.93 1189.18,-604.68 1273.12,-525 1293,-506.13 1292.57,-470.24 1291.15,-453.72"/>
<polygon fill="#63b8ff" stroke="#63b8ff" points="682.29,-625.06 672.39,-628.85 682.49,-632.06 682.29,-625.06"/>
</g>
<!-- Node3 -->
<g id="node3" class="node">
<title>Node3</title>
<g id="a_node3"><a xlink:href="raft__types_8h.html" target="_top" xlink:title=" ">
<polygon fill="white" stroke="#666666" points="771.12,-525 651.12,-525 651.12,-495 771.12,-495 771.12,-525"/>
<text text-anchor="start" x="659.12" y="-513" font-family="Helvetica,sans-Serif" font-size="10.00">src/consensus/aft/raft</text>
<text text-anchor="middle" x="711.12" y="-502" font-family="Helvetica,sans-Serif" font-size="10.00">_types.h</text>
</a>
</g>
</g>
<!-- Node2&#45;&gt;Node3 -->
<g id="edge2" class="edge">
<title>Node2&#45;&gt;Node3</title>
<path fill="none" stroke="#63b8ff" d="M634.52,-555.81C650.3,-546.58 671.07,-534.43 687,-525.11"/>
<polygon fill="#63b8ff" stroke="#63b8ff" points="632.74,-552.8 625.88,-560.87 636.28,-558.84 632.74,-552.8"/>
</g>
<!-- Node21 -->
<g id="node21" class="node">
<title>Node21</title>
<g id="a_node21"><a xlink:href="rpc__map_8h.html" target="_top" xlink:title=" ">
<polygon fill="white" stroke="#666666" points="575.12,-519.5 449.12,-519.5 449.12,-500.5 575.12,-500.5 575.12,-519.5"/>
<text text-anchor="middle" x="512.12" y="-507.5" font-family="Helvetica,sans-Serif" font-size="10.00">src/enclave/rpc_map.h</text>
</a>
</g>
</g>
<!-- Node2&#45;&gt;Node21 -->
<g id="edge31" class="edge">
<title>Node2&#45;&gt;Node21</title>
<path fill="none" stroke="#63b8ff" d="M587.89,-555.77C568.99,-544.6 542.9,-529.19 526.79,-519.67"/>
<polygon fill="#63b8ff" stroke="#63b8ff" points="586.13,-558.79 596.52,-560.87 589.69,-552.77 586.13,-558.79"/>
</g>
<!-- Node2&#45;&gt;Node24 -->
<g id="edge58" class="edge">
<title>Node2&#45;&gt;Node24</title>
<path fill="none" stroke="#63b8ff" d="M530.54,-565.37C437.32,-557.14 282.64,-532.53 173.12,-459 143.52,-439.13 118.39,-404.06 107.67,-387.77"/>
<polygon fill="#63b8ff" stroke="#63b8ff" points="530.5,-568.88 540.76,-566.23 531.09,-561.9 530.5,-568.88"/>
</g>
<!-- Node27 -->
<g id="node27" class="node">
<title>Node27</title>
<g id="a_node27"><a xlink:href="http__session_8h.html" target="_top" xlink:title=" ">
<polygon fill="white" stroke="#666666" points="309.62,-453.5 182.62,-453.5 182.62,-434.5 309.62,-434.5 309.62,-453.5"/>
<text text-anchor="middle" x="246.12" y="-441.5" font-family="Helvetica,sans-Serif" font-size="10.00">src/http/http_session.h</text>
</a>
</g>
</g>
<!-- Node2&#45;&gt;Node27 -->
<g id="edge59" class="edge">
<title>Node2&#45;&gt;Node27</title>
<path fill="none" stroke="#63b8ff" d="M562.48,-558.71C527.98,-550.61 480.77,-538.6 440.12,-525 374.13,-502.92 298.62,-469.26 264.53,-453.58"/>
<polygon fill="#63b8ff" stroke="#63b8ff" points="561.78,-562.14 572.31,-561 563.36,-555.32 561.78,-562.14"/>
</g>
<!-- Node29 -->
<g id="node29" class="node">
<title>Node29</title>
<g id="a_node29"><a xlink:href="frontend_8h.html" target="_top" xlink:title=" ">
<polygon fill="white" stroke="#666666" points="1352.62,-387.5 1223.62,-387.5 1223.62,-368.5 1352.62,-368.5 1352.62,-387.5"/>
<text text-anchor="middle" x="1288.12" y="-375.5" font-family="Helvetica,sans-Serif" font-size="10.00">src/node/rpc/frontend.h</text>
</a>
</g>
</g>
<!-- Node2&#45;&gt;Node29 -->
<g id="edge66" class="edge">
<title>Node2&#45;&gt;Node29</title>
<path fill="none" stroke="#63b8ff" d="M691.33,-569.52C843.47,-568.69 1168.11,-562.4 1273.12,-525 1320.87,-507.99 1342.86,-504.03 1366.12,-459 1372.24,-447.15 1372.52,-440.7 1366.12,-429 1354.93,-408.54 1331.4,-395.21 1313.09,-387.51"/>
<polygon fill="#63b8ff" stroke="#63b8ff" points="691.11,-566.03 681.13,-569.57 691.14,-573.03 691.11,-566.03"/>
</g>
<!-- Node33 -->
<g id="node33" class="node">
<title>Node33</title>
<g id="a_node33"><a xlink:href="node__to__node_8h.html" target="_top" xlink:title=" ">
<polygon fill="white" stroke="#666666" points="1264.12,-519.5 1126.12,-519.5 1126.12,-500.5 1264.12,-500.5 1264.12,-519.5"/>
<text text-anchor="middle" x="1195.12" y="-507.5" font-family="Helvetica,sans-Serif" font-size="10.00">src/node/node_to_node.h</text>
</a>
</g>
</g>
<!-- Node2&#45;&gt;Node33 -->
<g id="edge60" class="edge">
<title>Node2&#45;&gt;Node33</title>
<path fill="none" stroke="#63b8ff" d="M691.44,-561.45C806.65,-549.91 1016.88,-528.85 1125.71,-517.95"/>
<polygon fill="#63b8ff" stroke="#63b8ff" points="690.88,-557.99 681.28,-562.47 691.58,-564.96 690.88,-557.99"/>
</g>
<!-- Node4 -->
<g id="node4" class="node">
<title>Node4</title>
<g id="a_node4"><a xlink:href="request__message_8h.html" target="_top" xlink:title=" ">
<polygon fill="white" stroke="#666666" points="955.62,-459 830.62,-459 830.62,-429 955.62,-429 955.62,-459"/>
<text text-anchor="start" x="838.62" y="-447" font-family="Helvetica,sans-Serif" font-size="10.00">src/consensus/aft/impl</text>
<text text-anchor="middle" x="893.12" y="-436" font-family="Helvetica,sans-Serif" font-size="10.00">/request_message.h</text>
</a>
</g>
</g>
<!-- Node3&#45;&gt;Node4 -->
<g id="edge3" class="edge">
<title>Node3&#45;&gt;Node4</title>
<path fill="none" stroke="#63b8ff" d="M760.63,-491.59C789.73,-481.36 826.03,-468.59 853.28,-459.01"/>
<polygon fill="#63b8ff" stroke="#63b8ff" points="759.34,-488.34 751.06,-494.95 761.66,-494.94 759.34,-488.34"/>
</g>
<!-- Node5 -->
<g id="node5" class="node">
<title>Node5</title>
<g id="a_node5"><a xlink:href="state_8h.html" target="_top" xlink:title=" ">
<polygon fill="white" stroke="#666666" points="647.62,-393 522.62,-393 522.62,-363 647.62,-363 647.62,-393"/>
<text text-anchor="start" x="530.62" y="-381" font-family="Helvetica,sans-Serif" font-size="10.00">src/consensus/aft/impl</text>
<text text-anchor="middle" x="585.12" y="-370" font-family="Helvetica,sans-Serif" font-size="10.00">/state.h</text>
</a>
</g>
</g>
<!-- Node3&#45;&gt;Node5 -->
<g id="edge4" class="edge">
<title>Node3&#45;&gt;Node5</title>
<path fill="none" stroke="#63b8ff" d="M677.47,-489.35C664.65,-480.95 650.42,-470.44 639.12,-459 619.11,-438.72 601.87,-410.1 592.54,-393.15"/>
<polygon fill="#63b8ff" stroke="#63b8ff" points="675.75,-492.41 686.07,-494.82 679.5,-486.5 675.75,-492.41"/>
</g>
<!-- Node6 -->
<g id="node6" class="node">
<title>Node6</title>
<g id="a_node6"><a xlink:href="raft_8h.html" target="_top" xlink:title=" ">
<polygon fill="white" stroke="#666666" points="815.62,-321.5 686.62,-321.5 686.62,-302.5 815.62,-302.5 815.62,-321.5"/>
<text text-anchor="middle" x="751.12" y="-309.5" font-family="Helvetica,sans-Serif" font-size="10.00">src/consensus/aft/raft.h</text>
</a>
</g>
</g>
<!-- Node3&#45;&gt;Node6 -->
<g id="edge13" class="edge">
<title>Node3&#45;&gt;Node6</title>
<path fill="none" stroke="#63b8ff" d="M746.02,-489.57C758.77,-481.31 772.62,-470.84 783.12,-459 805.16,-434.16 810.11,-425.22 818.12,-393 821.34,-380.06 824.1,-374.92 818.12,-363 808.36,-343.54 787.04,-329.72 771.05,-321.61"/>
<polygon fill="#63b8ff" stroke="#63b8ff" points="744.06,-486.67 737.43,-494.93 747.77,-492.61 744.06,-486.67"/>
</g>
<!-- Node12 -->
<g id="node12" class="node">
<title>Node12</title>
<g id="a_node12"><a xlink:href="node__connections_8h.html" target="_top" xlink:title=" ">
<polygon fill="white" stroke="#666666" points="1128.62,-453.5 973.62,-453.5 973.62,-434.5 1128.62,-434.5 1128.62,-453.5"/>
<text text-anchor="middle" x="1051.12" y="-441.5" font-family="Helvetica,sans-Serif" font-size="10.00">src/host/node_connections.h</text>
</a>
</g>
</g>
<!-- Node3&#45;&gt;Node12 -->
<g id="edge14" class="edge">
<title>Node3&#45;&gt;Node12</title>
<path fill="none" stroke="#63b8ff" d="M781.23,-495.8C848.59,-483.12 948.36,-464.34 1005.84,-453.52"/>
<polygon fill="#63b8ff" stroke="#63b8ff" points="780.31,-492.42 771.13,-497.71 781.6,-499.3 780.31,-492.42"/>
</g>
<!-- Node14 -->
<g id="node14" class="node">
<title>Node14</title>
<g id="a_node14"><a xlink:href="node__client_8h.html" target="_top" xlink:title=" ">
<polygon fill="white" stroke="#666666" points="774.12,-453.5 648.12,-453.5 648.12,-434.5 774.12,-434.5 774.12,-453.5"/>
<text text-anchor="middle" x="711.12" y="-441.5" font-family="Helvetica,sans-Serif" font-size="10.00">src/node/node_client.h</text>
</a>
</g>
</g>
<!-- Node3&#45;&gt;Node14 -->
<g id="edge16" class="edge">
<title>Node3&#45;&gt;Node14</title>
<path fill="none" stroke="#63b8ff" d="M711.12,-484.6C711.12,-473.8 711.12,-461.78 711.12,-453.84"/>
<polygon fill="#63b8ff" stroke="#63b8ff" points="707.62,-484.8 711.12,-494.8 714.62,-484.8 707.62,-484.8"/>
</g>
<!-- Node20 -->
<g id="node20" class="node">
<title>Node20</title>
<g id="a_node20"><a xlink:href="resharing__tracker_8h.html" target="_top" xlink:title=" ">
<polygon fill="white" stroke="#666666" points="504.62,-393 397.62,-393 397.62,-363 504.62,-363 504.62,-393"/>
<text text-anchor="start" x="405.62" y="-381" font-family="Helvetica,sans-Serif" font-size="10.00">src/node/resharing</text>
<text text-anchor="middle" x="451.12" y="-370" font-family="Helvetica,sans-Serif" font-size="10.00">_tracker.h</text>
</a>
</g>
</g>
<!-- Node3&#45;&gt;Node20 -->
<g id="edge28" class="edge">
<title>Node3&#45;&gt;Node20</title>
<path fill="none" stroke="#63b8ff" d="M673.81,-490.34C621.25,-464.06 526.57,-416.72 479.41,-393.14"/>
<polygon fill="#63b8ff" stroke="#63b8ff" points="672.3,-493.5 682.8,-494.84 675.43,-487.24 672.3,-493.5"/>
</g>
<!-- Node5&#45;&gt;Node6 -->
<g id="edge5" class="edge">
<title>Node5&#45;&gt;Node6</title>
<path fill="none" stroke="#63b8ff" d="M631.14,-359.26C663.06,-346.95 704.16,-331.11 729.03,-321.52"/>
<polygon fill="#63b8ff" stroke="#63b8ff" points="629.63,-356.09 621.55,-362.95 632.14,-362.62 629.63,-356.09"/>
</g>
<!-- Node11 -->
<g id="node11" class="node">
<title>Node11</title>
<g id="a_node11"><a xlink:href="resharing_8h.html" target="_top" xlink:title=" ">
<polygon fill="white" stroke="#666666" points="578.12,-321.5 462.12,-321.5 462.12,-302.5 578.12,-302.5 578.12,-321.5"/>
<text text-anchor="middle" x="520.12" y="-309.5" font-family="Helvetica,sans-Serif" font-size="10.00">src/node/resharing.h</text>
</a>
</g>
</g>
<!-- Node5&#45;&gt;Node11 -->
<g id="edge11" class="edge">
<title>Node5&#45;&gt;Node11</title>
<path fill="none" stroke="#63b8ff" d="M563.39,-355.6C551.71,-344.1 537.92,-330.52 529.11,-321.84"/>
<polygon fill="#63b8ff" stroke="#63b8ff" points="561.12,-358.27 570.7,-362.8 566.03,-353.29 561.12,-358.27"/>
</g>
<!-- Node7 -->
<g id="node7" class="node">
<title>Node7</title>
<g id="a_node7"><a xlink:href="node__state_8h.html" target="_top" xlink:title=" ">
<polygon fill="white" stroke="#666666" points="960.12,-189.5 836.12,-189.5 836.12,-170.5 960.12,-170.5 960.12,-189.5"/>
<text text-anchor="middle" x="898.12" y="-177.5" font-family="Helvetica,sans-Serif" font-size="10.00">src/node/node_state.h</text>
</a>
</g>
</g>
<!-- Node6&#45;&gt;Node7 -->
<g id="edge6" class="edge">
<title>Node6&#45;&gt;Node7</title>
<path fill="none" stroke="#63b8ff" d="M765.36,-294.17C780.01,-277.31 803.91,-251.04 827.12,-231 845.72,-214.94 869.42,-199.06 884.19,-189.64"/>
<polygon fill="#63b8ff" stroke="#63b8ff" points="762.45,-292.18 758.59,-302.05 767.76,-296.74 762.45,-292.18"/>
</g>
<!-- Node8 -->
<g id="node8" class="node">
<title>Node8</title>
<g id="a_node8"><a xlink:href="src_2enclave_2enclave_8h.html" target="_top" xlink:title=" ">
<polygon fill="white" stroke="#666666" points="1059.12,-74 937.12,-74 937.12,-55 1059.12,-55 1059.12,-74"/>
<text text-anchor="middle" x="998.12" y="-62" font-family="Helvetica,sans-Serif" font-size="10.00">src/enclave/enclave.h</text>
</a>
</g>
</g>
<!-- Node7&#45;&gt;Node8 -->
<g id="edge7" class="edge">
<title>Node7&#45;&gt;Node8</title>
<path fill="none" stroke="#63b8ff" d="M930.01,-166.08C946.82,-157.77 966.51,-145.44 979.12,-129 991.87,-112.38 996.1,-87.3 997.47,-74.18"/>
<polygon fill="#63b8ff" stroke="#63b8ff" points="928.11,-163.1 920.53,-170.5 931.07,-169.45 928.11,-163.1"/>
</g>
<!-- Node10 -->
<g id="node10" class="node">
<title>Node10</title>
<g id="a_node10"><a xlink:href="gov__effects_8h.html" target="_top" xlink:title=" ">
<polygon fill="white" stroke="#666666" points="970.12,-129 826.12,-129 826.12,-110 970.12,-110 970.12,-129"/>
<text text-anchor="middle" x="898.12" y="-117" font-family="Helvetica,sans-Serif" font-size="10.00">src/node/rpc/gov_effects.h</text>
</a>
</g>
</g>
<!-- Node7&#45;&gt;Node10 -->
<g id="edge9" class="edge">
<title>Node7&#45;&gt;Node10</title>
<path fill="none" stroke="#63b8ff" d="M898.12,-160.16C898.12,-149.74 898.12,-137.3 898.12,-129.17"/>
<polygon fill="#63b8ff" stroke="#63b8ff" points="894.62,-160.37 898.12,-170.37 901.62,-160.37 894.62,-160.37"/>
</g>
<!-- Node9 -->
<g id="node9" class="node">
<title>Node9</title>
<g id="a_node9"><a xlink:href="enclave_2main_8cpp.html" target="_top" xlink:title=" ">
<polygon fill="white" stroke="#666666" points="1058.12,-19 938.12,-19 938.12,0 1058.12,0 1058.12,-19"/>
<text text-anchor="middle" x="998.12" y="-7" font-family="Helvetica,sans-Serif" font-size="10.00">src/enclave/main.cpp</text>
</a>
</g>
</g>
<!-- Node8&#45;&gt;Node9 -->
<g id="edge8" class="edge">
<title>Node8&#45;&gt;Node9</title>
<path fill="none" stroke="#63b8ff" d="M998.12,-44.66C998.12,-35.93 998.12,-25.99 998.12,-19.09"/>
<polygon fill="#63b8ff" stroke="#63b8ff" points="994.62,-44.75 998.12,-54.75 1001.62,-44.75 994.62,-44.75"/>
</g>
<!-- Node10&#45;&gt;Node8 -->
<g id="edge10" class="edge">
<title>Node10&#45;&gt;Node8</title>
<path fill="none" stroke="#63b8ff" d="M923.15,-105.23C941.49,-95.51 965.86,-82.6 981.77,-74.17"/>
<polygon fill="#63b8ff" stroke="#63b8ff" points="921.39,-102.21 914.19,-109.98 924.67,-108.39 921.39,-102.21"/>
</g>
<!-- Node11&#45;&gt;Node7 -->
<g id="edge12" class="edge">
<title>Node11&#45;&gt;Node7</title>
<path fill="none" stroke="#63b8ff" d="M558.37,-299.39C590.46,-289.54 637.44,-274.83 678.12,-261 750.66,-236.35 835.65,-204.63 875.43,-189.61"/>
<polygon fill="#63b8ff" stroke="#63b8ff" points="557.03,-296.14 548.5,-302.42 559.08,-302.83 557.03,-296.14"/>
</g>
<!-- Node13 -->
<g id="node13" class="node">
<title>Node13</title>
<g id="a_node13"><a xlink:href="host_2main_8cpp.html" target="_top" xlink:title=" ">
<polygon fill="white" stroke="#666666" points="1128.62,-387.5 1025.62,-387.5 1025.62,-368.5 1128.62,-368.5 1128.62,-387.5"/>
<text text-anchor="middle" x="1077.12" y="-375.5" font-family="Helvetica,sans-Serif" font-size="10.00">src/host/main.cpp</text>
</a>
</g>
</g>
<!-- Node12&#45;&gt;Node13 -->
<g id="edge15" class="edge">
<title>Node12&#45;&gt;Node13</title>
<path fill="none" stroke="#63b8ff" d="M1058.51,-424.82C1063.42,-412.74 1069.64,-397.41 1073.51,-387.91"/>
<polygon fill="#63b8ff" stroke="#63b8ff" points="1055.15,-423.79 1054.63,-434.37 1061.64,-426.42 1055.15,-423.79"/>
</g>
<!-- Node14&#45;&gt;Node6 -->
<g id="edge23" class="edge">
<title>Node14&#45;&gt;Node6</title>
<path fill="none" stroke="#63b8ff" d="M753.99,-430.72C772.51,-423.05 792.36,-411.1 803.12,-393 818.87,-366.52 784.29,-336.29 764.19,-321.73"/>
<polygon fill="#63b8ff" stroke="#63b8ff" points="752.58,-427.51 744.49,-434.35 755.08,-434.05 752.58,-427.51"/>
</g>
<!-- Node15 -->
<g id="node15" class="node">
<title>Node15</title>
<g id="a_node15"><a xlink:href="orc__requests_8h.html" target="_top" xlink:title=" ">
<polygon fill="white" stroke="#666666" points="1007.62,-393 888.62,-393 888.62,-363 1007.62,-363 1007.62,-393"/>
<text text-anchor="start" x="896.62" y="-381" font-family="Helvetica,sans-Serif" font-size="10.00">src/consensus/aft/orc</text>
<text text-anchor="middle" x="948.12" y="-370" font-family="Helvetica,sans-Serif" font-size="10.00">_requests.h</text>
</a>
</g>
</g>
<!-- Node14&#45;&gt;Node15 -->
<g id="edge17" class="edge">
<title>Node14&#45;&gt;Node15</title>
<path fill="none" stroke="#63b8ff" d="M752.75,-431.76C792.59,-421 852.81,-404.74 895.85,-393.12"/>
<polygon fill="#63b8ff" stroke="#63b8ff" points="751.83,-428.38 743.09,-434.37 753.65,-435.14 751.83,-428.38"/>
</g>
<!-- Node18 -->
<g id="node18" class="node">
<title>Node18</title>
<g id="a_node18"><a xlink:href="http__node__client_8h.html" target="_top" xlink:title=" ">
<polygon fill="white" stroke="#666666" points="669.12,-261 559.12,-261 559.12,-231 669.12,-231 669.12,-261"/>
<text text-anchor="start" x="567.12" y="-249" font-family="Helvetica,sans-Serif" font-size="10.00">src/node/http_node</text>
<text text-anchor="middle" x="614.12" y="-238" font-family="Helvetica,sans-Serif" font-size="10.00">_client.h</text>
</a>
</g>
</g>
<!-- Node14&#45;&gt;Node18 -->
<g id="edge24" class="edge">
<title>Node14&#45;&gt;Node18</title>
<path fill="none" stroke="#63b8ff" d="M637.74,-442.29C552.53,-439.72 419.62,-429.74 388.12,-393 331.81,-327.3 475.34,-280.23 558.98,-259.24"/>
<polygon fill="#63b8ff" stroke="#63b8ff" points="637.79,-445.79 647.88,-442.57 637.98,-438.79 637.79,-445.79"/>
</g>
<!-- Node19 -->
<g id="node19" class="node">
<title>Node19</title>
<g id="a_node19"><a xlink:href="retired__nodes__cleanup_8h.html" target="_top" xlink:title=" ">
<polygon fill="white" stroke="#666666" points="794.12,-393 666.12,-393 666.12,-363 794.12,-363 794.12,-393"/>
<text text-anchor="start" x="674.12" y="-381" font-family="Helvetica,sans-Serif" font-size="10.00">src/node/retired_nodes</text>
<text text-anchor="middle" x="730.12" y="-370" font-family="Helvetica,sans-Serif" font-size="10.00">_cleanup.h</text>
</a>
</g>
</g>
<!-- Node14&#45;&gt;Node19 -->
<g id="edge26" class="edge">
<title>Node14&#45;&gt;Node19</title>
<path fill="none" stroke="#63b8ff" d="M716.57,-424.67C719.52,-414.72 723.11,-402.61 725.86,-393.36"/>
<polygon fill="#63b8ff" stroke="#63b8ff" points="713.18,-423.79 713.69,-434.37 719.89,-425.78 713.18,-423.79"/>
</g>
<!-- Node15&#45;&gt;Node6 -->
<g id="edge18" class="edge">
<title>Node15&#45;&gt;Node6</title>
<path fill="none" stroke="#63b8ff" d="M894.98,-359.74C856.9,-347.36 807.24,-331.23 777.34,-321.52"/>
<polygon fill="#63b8ff" stroke="#63b8ff" points="894.3,-363.19 904.89,-362.95 896.46,-356.54 894.3,-363.19"/>
</g>
<!-- Node16 -->
<g id="node16" class="node">
<title>Node16</title>
<g id="a_node16"><a xlink:href="node__frontend_8h.html" target="_top" xlink:title=" ">
<polygon fill="white" stroke="#666666" points="992.12,-321.5 834.12,-321.5 834.12,-302.5 992.12,-302.5 992.12,-321.5"/>
<text text-anchor="middle" x="913.12" y="-309.5" font-family="Helvetica,sans-Serif" font-size="10.00">src/node/rpc/node_frontend.h</text>
</a>
</g>
</g>
<!-- Node15&#45;&gt;Node16 -->
<g id="edge19" class="edge">
<title>Node15&#45;&gt;Node16</title>
<path fill="none" stroke="#63b8ff" d="M935.52,-353.95C929.43,-342.81 922.48,-330.11 917.96,-321.84"/>
<polygon fill="#63b8ff" stroke="#63b8ff" points="932.49,-355.7 940.36,-362.8 938.63,-352.34 932.49,-355.7"/>
</g>
<!-- Node16&#45;&gt;Node8 -->
<g id="edge20" class="edge">
<title>Node16&#45;&gt;Node8</title>
<path fill="none" stroke="#63b8ff" d="M854.34,-300.89C844.6,-299.43 834.59,-298.07 825.12,-297 704.99,-283.47 209.92,-325.66 285.12,-231 366.64,-128.39 779.61,-83.69 937.04,-70.2"/>
<polygon fill="#63b8ff" stroke="#63b8ff" points="853.94,-304.37 864.36,-302.43 855.01,-297.45 853.94,-304.37"/>
</g>
<!-- Node17 -->
<g id="node17" class="node">
<title>Node17</title>
<g id="a_node17"><a xlink:href="jwt__key__auto__refresh_8h.html" target="_top" xlink:title=" ">
<polygon fill="white" stroke="#666666" points="960.62,-261 835.62,-261 835.62,-231 960.62,-231 960.62,-261"/>
<text text-anchor="start" x="843.62" y="-249" font-family="Helvetica,sans-Serif" font-size="10.00">src/node/jwt_key_auto</text>
<text text-anchor="middle" x="898.12" y="-238" font-family="Helvetica,sans-Serif" font-size="10.00">_refresh.h</text>
</a>
</g>
</g>
<!-- Node16&#45;&gt;Node17 -->
<g id="edge21" class="edge">
<title>Node16&#45;&gt;Node17</title>
<path fill="none" stroke="#63b8ff" d="M908.75,-292.35C906.44,-282.47 903.64,-270.51 901.49,-261.36"/>
<polygon fill="#63b8ff" stroke="#63b8ff" points="905.41,-293.43 911.1,-302.37 912.23,-291.83 905.41,-293.43"/>
</g>
<!-- Node17&#45;&gt;Node7 -->
<g id="edge22" class="edge">
<title>Node17&#45;&gt;Node7</title>
<path fill="none" stroke="#63b8ff" d="M898.12,-220.6C898.12,-209.8 898.12,-197.78 898.12,-189.84"/>
<polygon fill="#63b8ff" stroke="#63b8ff" points="894.62,-220.8 898.12,-230.8 901.62,-220.8 894.62,-220.8"/>
</g>
<!-- Node18&#45;&gt;Node7 -->
<g id="edge25" class="edge">
<title>Node18&#45;&gt;Node7</title>
<path fill="none" stroke="#63b8ff" d="M679.03,-230.37C734.93,-217.78 813.71,-200.02 859.99,-189.59"/>
<polygon fill="#63b8ff" stroke="#63b8ff" points="678.2,-226.97 669.22,-232.58 679.74,-233.8 678.2,-226.97"/>
</g>
<!-- Node19&#45;&gt;Node6 -->
<g id="edge27" class="edge">
<title>Node19&#45;&gt;Node6</title>
<path fill="none" stroke="#63b8ff" d="M737.91,-353.28C741.51,-342.31 745.56,-329.94 748.22,-321.84"/>
<polygon fill="#63b8ff" stroke="#63b8ff" points="734.58,-352.2 734.78,-362.8 741.23,-354.39 734.58,-352.2"/>
</g>
<!-- Node20&#45;&gt;Node6 -->
<g id="edge29" class="edge">
<title>Node20&#45;&gt;Node6</title>
<path fill="none" stroke="#63b8ff" d="M514.81,-362.65C588.63,-346.61 663.87,-330.96 709.38,-321.57"/>
<polygon fill="#63b8ff" stroke="#63b8ff" points="513.91,-359.26 504.88,-364.81 515.4,-366.1 513.91,-359.26"/>
</g>
<!-- Node20&#45;&gt;Node11 -->
<g id="edge30" class="edge">
<title>Node20&#45;&gt;Node11</title>
<path fill="none" stroke="#63b8ff" d="M473.84,-355.93C486.32,-344.35 501.14,-330.61 510.59,-321.84"/>
<polygon fill="#63b8ff" stroke="#63b8ff" points="471.39,-353.43 466.44,-362.8 476.15,-358.56 471.39,-353.43"/>
</g>
<!-- Node21&#45;&gt;Node8 -->
<g id="edge32" class="edge">
<title>Node21&#45;&gt;Node8</title>
<path fill="none" stroke="#63b8ff" d="M438.54,-502.26C314.8,-489.28 73.29,-456.33 20.12,-393 -3.37,-365.01 1.12,-349.54 1.12,-313 1.12,-313 1.12,-313 1.12,-179 1.12,-84.33 719.97,-68.6 936.88,-66.01"/>
<polygon fill="#63b8ff" stroke="#63b8ff" points="438.39,-505.76 448.69,-503.31 439.11,-498.8 438.39,-505.76"/>
</g>
<!-- Node21&#45;&gt;Node14 -->
<g id="edge45" class="edge">
<title>Node21&#45;&gt;Node14</title>
<path fill="none" stroke="#63b8ff" d="M548.68,-497.24C587.95,-484.61 649.41,-464.85 684.39,-453.6"/>
<polygon fill="#63b8ff" stroke="#63b8ff" points="547.41,-493.98 538.96,-500.37 549.55,-500.64 547.41,-493.98"/>
</g>
<!-- Node22 -->
<g id="node22" class="node">
<title>Node22</title>
<g id="a_node22"><a xlink:href="http2__session_8h.html" target="_top" xlink:title=" ">
<polygon fill="white" stroke="#666666" points="460.62,-453.5 327.62,-453.5 327.62,-434.5 460.62,-434.5 460.62,-453.5"/>
<text text-anchor="middle" x="394.12" y="-441.5" font-family="Helvetica,sans-Serif" font-size="10.00">src/http/http2_session.h</text>
</a>
</g>
</g>
<!-- Node21&#45;&gt;Node22 -->
<g id="edge33" class="edge">
<title>Node21&#45;&gt;Node22</title>
<path fill="none" stroke="#63b8ff" d="M487.28,-495.53C464.04,-482.92 430.02,-464.47 410.16,-453.7"/>
<polygon fill="#63b8ff" stroke="#63b8ff" points="485.75,-498.68 496.21,-500.37 489.09,-492.52 485.75,-498.68"/>
</g>
<!-- Node21&#45;&gt;Node27 -->
<g id="edge43" class="edge">
<title>Node21&#45;&gt;Node27</title>
<path fill="none" stroke="#63b8ff" d="M466.5,-498.02C414.08,-485.41 329.18,-464.98 281.51,-453.51"/>
<polygon fill="#63b8ff" stroke="#63b8ff" points="465.98,-501.5 476.53,-500.44 467.62,-494.69 465.98,-501.5"/>
</g>
<!-- Node21&#45;&gt;Node28 -->
<g id="edge46" class="edge">
<title>Node21&#45;&gt;Node28</title>
<path fill="none" stroke="#63b8ff" d="M585.36,-500.66C603.87,-498.68 623.72,-496.66 642.12,-495 862.26,-475.16 917.85,-477.14 1138.12,-459 1165.86,-456.72 1196.41,-453.95 1222.81,-451.48"/>
<polygon fill="#63b8ff" stroke="#63b8ff" points="584.79,-497.2 575.23,-501.76 585.55,-504.16 584.79,-497.2"/>
</g>
<!-- Node23 -->
<g id="node23" class="node">
<title>Node23</title>
<g id="a_node23"><a xlink:href="external__executor_8cpp.html" target="_top" xlink:title=" ">
<polygon fill="white" stroke="#666666" points="341.12,-393 193.12,-393 193.12,-363 341.12,-363 341.12,-393"/>
<text text-anchor="start" x="201.12" y="-381" font-family="Helvetica,sans-Serif" font-size="10.00">src/apps/external_executor</text>
<text text-anchor="middle" x="267.12" y="-370" font-family="Helvetica,sans-Serif" font-size="10.00">/external_executor.cpp</text>
</a>
</g>
</g>
<!-- Node22&#45;&gt;Node23 -->
<g id="edge34" class="edge">
<title>Node22&#45;&gt;Node23</title>
<path fill="none" stroke="#63b8ff" d="M367.91,-429.79C346.68,-419.09 316.83,-404.05 295.13,-393.12"/>
<polygon fill="#63b8ff" stroke="#63b8ff" points="366.49,-432.99 377,-434.37 369.64,-426.74 366.49,-432.99"/>
</g>
<!-- Node22&#45;&gt;Node24 -->
<g id="edge35" class="edge">
<title>Node22&#45;&gt;Node24</title>
<path fill="none" stroke="#63b8ff" d="M345.11,-432.26C287.66,-419.67 193.63,-399.06 140.97,-387.51"/>
<polygon fill="#63b8ff" stroke="#63b8ff" points="344.53,-435.71 355.05,-434.44 346.03,-428.88 344.53,-435.71"/>
</g>
<!-- Node24&#45;&gt;Node7 -->
<g id="edge39" class="edge">
<title>Node24&#45;&gt;Node7</title>
<path fill="none" stroke="#63b8ff" d="M119.21,-361.19C157.01,-326.57 247.36,-245.97 285.12,-231 384.08,-191.78 700.71,-183.32 835.94,-181.5"/>
<polygon fill="#63b8ff" stroke="#63b8ff" points="116.57,-358.86 111.58,-368.2 121.31,-364.01 116.57,-358.86"/>
</g>
<!-- Node24&#45;&gt;Node8 -->
<g id="edge36" class="edge">
<title>Node24&#45;&gt;Node8</title>
<path fill="none" stroke="#63b8ff" d="M110.79,-359.29C122.01,-334.7 140.12,-288.56 140.12,-247 140.12,-247 140.12,-247 140.12,-179 140.12,-98.52 741.09,-73.25 937.11,-67.15"/>
<polygon fill="#63b8ff" stroke="#63b8ff" points="107.58,-357.89 106.48,-368.43 113.91,-360.88 107.58,-357.89"/>
</g>
<!-- Node24&#45;&gt;Node11 -->
<g id="edge42" class="edge">
<title>Node24&#45;&gt;Node11</title>
<path fill="none" stroke="#63b8ff" d="M161.16,-366.77C168.88,-365.47 176.69,-364.19 184.12,-363 281.53,-347.44 395.07,-330.87 462.09,-321.25"/>
<polygon fill="#63b8ff" stroke="#63b8ff" points="160.37,-363.35 151.09,-368.46 161.54,-370.25 160.37,-363.35"/>
</g>
<!-- Node25 -->
<g id="node25" class="node">
<title>Node25</title>
<g id="a_node25"><a xlink:href="ccf__acme__client_8h.html" target="_top" xlink:title=" ">
<polygon fill="white" stroke="#666666" points="1165.62,-255.5 1016.62,-255.5 1016.62,-236.5 1165.62,-236.5 1165.62,-255.5"/>
<text text-anchor="middle" x="1091.12" y="-243.5" font-family="Helvetica,sans-Serif" font-size="10.00">src/node/ccf_acme_client.h</text>
</a>
</g>
</g>
<!-- Node24&#45;&gt;Node25 -->
<g id="edge37" class="edge">
<title>Node24&#45;&gt;Node25</title>
<path fill="none" stroke="#63b8ff" d="M146.4,-366.01C226.78,-346.2 393.91,-305.76 453.12,-297 680.98,-263.31 740.77,-282.24 970.12,-261 987.08,-259.43 1005.33,-257.46 1022.39,-255.5"/>
<polygon fill="#63b8ff" stroke="#63b8ff" points="145.44,-362.64 136.57,-368.43 147.12,-369.43 145.44,-362.64"/>
</g>
<!-- Node26 -->
<g id="node26" class="node">
<title>Node26</title>
<g id="a_node26"><a xlink:href="quote__endorsements__client_8h.html" target="_top" xlink:title=" ">
<polygon fill="white" stroke="#666666" points="458.12,-261 294.12,-261 294.12,-231 458.12,-231 458.12,-261"/>
<text text-anchor="start" x="302.12" y="-249" font-family="Helvetica,sans-Serif" font-size="10.00">src/node/quote_endorsements</text>
<text text-anchor="middle" x="376.12" y="-238" font-family="Helvetica,sans-Serif" font-size="10.00">_client.h</text>
</a>
</g>
</g>
<!-- Node24&#45;&gt;Node26 -->
<g id="edge40" class="edge">
<title>Node24&#45;&gt;Node26</title>
<path fill="none" stroke="#63b8ff" d="M155.33,-366.12C189.06,-358.02 232.99,-345.19 269.12,-327 304.96,-308.95 341.23,-278.76 360.98,-261.08"/>
<polygon fill="#63b8ff" stroke="#63b8ff" points="154.15,-362.8 145.2,-368.49 155.74,-369.62 154.15,-362.8"/>
</g>
<!-- Node25&#45;&gt;Node7 -->
<g id="edge38" class="edge">
<title>Node25&#45;&gt;Node7</title>
<path fill="none" stroke="#63b8ff" d="M1055.43,-233.16C1017.33,-220.53 957.9,-200.82 924.05,-189.6"/>
<polygon fill="#63b8ff" stroke="#63b8ff" points="1054.5,-236.54 1065.1,-236.37 1056.71,-229.9 1054.5,-236.54"/>
</g>
<!-- Node26&#45;&gt;Node7 -->
<g id="edge41" class="edge">
<title>Node26&#45;&gt;Node7</title>
<path fill="none" stroke="#63b8ff" d="M468.3,-233.7C574.16,-220.72 744.92,-199.78 836.08,-188.61"/>
<polygon fill="#63b8ff" stroke="#63b8ff" points="467.76,-230.24 458.26,-234.93 468.61,-237.19 467.76,-230.24"/>
</g>
<!-- Node27&#45;&gt;Node24 -->
<g id="edge44" class="edge">
<title>Node27&#45;&gt;Node24</title>
<path fill="none" stroke="#63b8ff" d="M217.31,-430.19C188.93,-417.58 146.36,-398.66 121.7,-387.7"/>
<polygon fill="#63b8ff" stroke="#63b8ff" points="216.14,-433.51 226.7,-434.37 218.99,-427.11 216.14,-433.51"/>
</g>
<!-- Node28&#45;&gt;Node8 -->
<g id="edge47" class="edge">
<title>Node28&#45;&gt;Node8</title>
<path fill="none" stroke="#63b8ff" d="M1318.66,-429.64C1333.75,-421.18 1351.33,-408.83 1362.12,-393 1382.71,-362.81 1381.12,-349.54 1381.12,-313 1381.12,-313 1381.12,-313 1381.12,-179 1381.12,-147.19 1386.21,-130.78 1362.12,-110 1318.02,-71.95 1150.97,-65.56 1059.28,-65.01"/>
<polygon fill="#63b8ff" stroke="#63b8ff" points="1316.86,-426.63 1309.67,-434.41 1320.14,-432.82 1316.86,-426.63"/>
</g>
<!-- Node28&#45;&gt;Node29 -->
<g id="edge48" class="edge">
<title>Node28&#45;&gt;Node29</title>
<path fill="none" stroke="#63b8ff" d="M1289.53,-424.08C1289.16,-412.13 1288.69,-397.22 1288.4,-387.91"/>
<polygon fill="#63b8ff" stroke="#63b8ff" points="1286.04,-424.48 1289.85,-434.37 1293.04,-424.26 1286.04,-424.48"/>
</g>
<!-- Node29&#45;&gt;Node7 -->
<g id="edge52" class="edge">
<title>Node29&#45;&gt;Node7</title>
<path fill="none" stroke="#63b8ff" d="M1279.74,-358.98C1264.05,-327.42 1227.07,-262.52 1175.12,-231 1139.87,-209.61 1030.73,-194.7 960.44,-187.01"/>
<polygon fill="#63b8ff" stroke="#63b8ff" points="1276.74,-360.82 1284.24,-368.3 1283.05,-357.78 1276.74,-360.82"/>
</g>
<!-- Node29&#45;&gt;Node16 -->
<g id="edge55" class="edge">
<title>Node29&#45;&gt;Node16</title>
<path fill="none" stroke="#63b8ff" d="M1227.91,-366.72C1154.41,-354.18 1031.48,-333.2 963.01,-321.51"/>
<polygon fill="#63b8ff" stroke="#63b8ff" points="1227.49,-370.2 1237.94,-368.44 1228.67,-363.3 1227.49,-370.2"/>
</g>
<!-- Node30 -->
<g id="node30" class="node">
<title>Node30</title>
<g id="a_node30"><a xlink:href="acme__challenge__frontend_8h.html" target="_top" xlink:title=" ">
<polygon fill="white" stroke="#666666" points="1188.12,-327 1048.12,-327 1048.12,-297 1188.12,-297 1188.12,-327"/>
<text text-anchor="start" x="1056.12" y="-315" font-family="Helvetica,sans-Serif" font-size="10.00">src/node/acme_challenge</text>
<text text-anchor="middle" x="1118.12" y="-304" font-family="Helvetica,sans-Serif" font-size="10.00">_frontend.h</text>
</a>
</g>
</g>
<!-- Node29&#45;&gt;Node30 -->
<g id="edge49" class="edge">
<title>Node29&#45;&gt;Node30</title>
<path fill="none" stroke="#63b8ff" d="M1255.68,-364.79C1227.14,-354.04 1185.58,-338.4 1155.62,-327.12"/>
<polygon fill="#63b8ff" stroke="#63b8ff" points="1254.61,-368.12 1265.2,-368.37 1257.07,-361.57 1254.61,-368.12"/>
</g>
<!-- Node31 -->
<g id="node31" class="node">
<title>Node31</title>
<g id="a_node31"><a xlink:href="member__frontend_8h.html" target="_top" xlink:title=" ">
<polygon fill="white" stroke="#666666" points="1279.12,-195 1159.12,-195 1159.12,-165 1279.12,-165 1279.12,-195"/>
<text text-anchor="start" x="1167.12" y="-183" font-family="Helvetica,sans-Serif" font-size="10.00">src/node/rpc/member</text>
<text text-anchor="middle" x="1219.12" y="-172" font-family="Helvetica,sans-Serif" font-size="10.00">_frontend.h</text>
</a>
</g>
</g>
<!-- Node29&#45;&gt;Node31 -->
<g id="edge53" class="edge">
<title>Node29&#45;&gt;Node31</title>
<path fill="none" stroke="#63b8ff" d="M1283.82,-358.2C1277.1,-330.01 1263,-275.38 1245.12,-231 1240.08,-218.48 1232.92,-204.93 1227.39,-195.09"/>
<polygon fill="#63b8ff" stroke="#63b8ff" points="1280.49,-359.3 1286.17,-368.25 1287.3,-357.71 1280.49,-359.3"/>
</g>
<!-- Node32 -->
<g id="node32" class="node">
<title>Node32</title>
<g id="a_node32"><a xlink:href="user__frontend_8h.html" target="_top" xlink:title=" ">
<polygon fill="white" stroke="#666666" points="1352.62,-129 1197.62,-129 1197.62,-110 1352.62,-110 1352.62,-129"/>
<text text-anchor="middle" x="1275.12" y="-117" font-family="Helvetica,sans-Serif" font-size="10.00">src/node/rpc/user_frontend.h</text>
</a>
</g>
</g>
<!-- Node29&#45;&gt;Node32 -->
<g id="edge56" class="edge">
<title>Node29&#45;&gt;Node32</title>
<path fill="none" stroke="#63b8ff" d="M1289.9,-358.16C1293.02,-320.99 1298.24,-235.68 1288.12,-165 1286.3,-152.25 1281.68,-138.06 1278.47,-129.2"/>
<polygon fill="#63b8ff" stroke="#63b8ff" points="1286.39,-358.19 1288.99,-368.46 1293.36,-358.81 1286.39,-358.19"/>
</g>
<!-- Node30&#45;&gt;Node8 -->
<g id="edge50" class="edge">
<title>Node30&#45;&gt;Node8</title>
<path fill="none" stroke="#63b8ff" d="M1150.48,-290.72C1160.27,-282.76 1169.82,-272.71 1175.12,-261 1180.63,-248.85 1180.43,-243.23 1175.12,-231 1157.2,-189.71 1045.56,-101.8 1009.41,-74.07"/>
<polygon fill="#63b8ff" stroke="#63b8ff" points="1148.17,-288.08 1142.29,-296.9 1152.38,-293.67 1148.17,-288.08"/>
</g>
<!-- Node30&#45;&gt;Node25 -->
<g id="edge51" class="edge">
<title>Node30&#45;&gt;Node25</title>
<path fill="none" stroke="#63b8ff" d="M1108.12,-287.28C1103.49,-276.31 1098.27,-263.94 1094.86,-255.84"/>
<polygon fill="#63b8ff" stroke="#63b8ff" points="1105.02,-288.94 1112.13,-296.8 1111.47,-286.22 1105.02,-288.94"/>
</g>
<!-- Node31&#45;&gt;Node8 -->
<g id="edge54" class="edge">
<title>Node31&#45;&gt;Node8</title>
<path fill="none" stroke="#63b8ff" d="M1200.46,-156.91C1186.59,-141.77 1166.45,-122.27 1145.12,-110 1114.16,-92.18 1075.33,-80.82 1045.36,-74.04"/>
<polygon fill="#63b8ff" stroke="#63b8ff" points="1198.22,-159.66 1207.49,-164.8 1203.45,-155.01 1198.22,-159.66"/>
</g>
<!-- Node32&#45;&gt;Node8 -->
<g id="edge57" class="edge">
<title>Node32&#45;&gt;Node8</title>
<path fill="none" stroke="#63b8ff" d="M1220.59,-108.07C1168.66,-98.13 1091.43,-83.35 1042.98,-74.08"/>
<polygon fill="#63b8ff" stroke="#63b8ff" points="1220.14,-111.54 1230.62,-109.98 1221.46,-104.67 1220.14,-111.54"/>
</g>
<!-- Node33&#45;&gt;Node6 -->
<g id="edge61" class="edge">
<title>Node33&#45;&gt;Node6</title>
<path fill="none" stroke="#63b8ff" d="M1189.22,-490.9C1176.91,-453.65 1148.77,-371.2 1138.12,-363 1082.67,-320.26 894.34,-337.51 825.12,-327 814.78,-325.43 803.68,-323.47 793.3,-321.53"/>
<polygon fill="#63b8ff" stroke="#63b8ff" points="1185.93,-492.08 1192.37,-500.49 1192.58,-489.9 1185.93,-492.08"/>
</g>
<!-- Node33&#45;&gt;Node7 -->
<g id="edge62" class="edge">
<title>Node33&#45;&gt;Node7</title>
<path fill="none" stroke="#63b8ff" d="M1196.34,-489.91C1197.2,-458.7 1194.02,-396.85 1159.12,-363 1119.16,-324.23 1084.46,-359.33 1039.12,-327 996.35,-296.49 1007.58,-267.85 970.12,-231 952.77,-213.92 928.98,-198.66 913.58,-189.62"/>
<polygon fill="#63b8ff" stroke="#63b8ff" points="1192.82,-490.1 1195.87,-500.25 1199.82,-490.42 1192.82,-490.1"/>
</g>
<!-- Node33&#45;&gt;Node28 -->
<g id="edge65" class="edge">
<title>Node33&#45;&gt;Node28</title>
<path fill="none" stroke="#63b8ff" d="M1216.38,-494.68C1235.05,-482.11 1261.58,-464.23 1277.21,-453.7"/>
<polygon fill="#63b8ff" stroke="#63b8ff" points="1214.27,-491.88 1207.94,-500.37 1218.19,-497.68 1214.27,-491.88"/>
</g>
<!-- Node34 -->
<g id="node34" class="node">
<title>Node34</title>
<g id="a_node34"><a xlink:href="node__to__node__channel__manager_8h.html" target="_top" xlink:title=" ">
<polygon fill="white" stroke="#666666" points="1538.62,-261 1409.62,-261 1409.62,-231 1538.62,-231 1538.62,-261"/>
<text text-anchor="start" x="1417.62" y="-249" font-family="Helvetica,sans-Serif" font-size="10.00">src/node/node_to_node</text>
<text text-anchor="middle" x="1474.12" y="-238" font-family="Helvetica,sans-Serif" font-size="10.00">_channel_manager.h</text>
</a>
</g>
</g>
<!-- Node33&#45;&gt;Node34 -->
<g id="edge63" class="edge">
<title>Node33&#45;&gt;Node34</title>
<path fill="none" stroke="#63b8ff" d="M1274.47,-499.62C1305.77,-492.61 1340.34,-480.37 1366.12,-459 1432.12,-404.31 1462.08,-299 1471.07,-261.06"/>
<polygon fill="#63b8ff" stroke="#63b8ff" points="1273.51,-496.24 1264.43,-501.71 1274.94,-503.09 1273.51,-496.24"/>
</g>
<!-- Node34&#45;&gt;Node7 -->
<g id="edge64" class="edge">
<title>Node34&#45;&gt;Node7</title>
<path fill="none" stroke="#63b8ff" d="M1399.34,-236.69C1284.54,-223.93 1066.98,-199.76 960.29,-187.91"/>
<polygon fill="#63b8ff" stroke="#63b8ff" points="1399.12,-240.19 1409.45,-237.81 1399.9,-233.23 1399.12,-240.19"/>
</g>
</g>
</svg>
