<?xml version="1.0" encoding="UTF-8" standalone="no"?>
<!DOCTYPE svg PUBLIC "-//W3C//DTD SVG 1.1//EN"
 "http://www.w3.org/Graphics/SVG/1.1/DTD/svg11.dtd">
<!-- Generated by graphviz version 2.43.0 (0)
 -->
<!-- Title: include/ccf/service/tables/gov.h Pages: 1 -->
<!--zoomable 577 -->
<svg id="main" version="1.1" xmlns="http://www.w3.org/2000/svg" xmlns:xlink="http://www.w3.org/1999/xlink" xml:space="preserve" onload="init(evt)">
<style type="text/css"><![CDATA[
.edge:hover path { stroke: red; }
.edge:hover polygon { stroke: red; fill: red; }
]]></style>
<script type="text/javascript"><![CDATA[
var edges = document.getElementsByTagName('g');
if (edges && edges.length) {
  for (var i=0;i<edges.length;i++) {
    if (edges[i].id.substr(0,4)=='edge') {
      edges[i].setAttribute('class','edge');
    }
  }
}
]]></script>
        <defs>
                <circle id="rim" cx="0" cy="0" r="7"/>
                <circle id="rim2" cx="0" cy="0" r="3.5"/>
                <g id="zoomPlus">
                        <use xlink:href="#rim" fill="#404040">
                                <set attributeName="fill" to="#808080" begin="zoomplus.mouseover" end="zoomplus.mouseout"/>
                        </use>
                        <path d="M-4,0h8M0,-4v8" fill="none" stroke="white" stroke-width="1.5" pointer-events="none"/>
                </g>
                <g id="zoomMin">
                        <use xlink:href="#rim" fill="#404040">
                                <set attributeName="fill" to="#808080" begin="zoomminus.mouseover" end="zoomminus.mouseout"/>
                        </use>
                        <path d="M-4,0h8" fill="none" stroke="white" stroke-width="1.5" pointer-events="none"/>
                </g>
                <g id="dirArrow">
                        <path fill="none" stroke="white" stroke-width="1.5" d="M0,-3.0v7 M-2.5,-0.5L0,-3.0L2.5,-0.5"/>
                </g>
               <g id="resetDef">
                       <use xlink:href="#rim2" fill="#404040">
                               <set attributeName="fill" to="#808080" begin="reset.mouseover" end="reset.mouseout"/>
                       </use>
               </g>
        </defs>

<script type="text/javascript">
var viewWidth = 1325;
var viewHeight = 577;
var sectionId = 'dynsection-0';
</script>
<script xlink:href="svgpan.js"/>
<svg id="graph" class="graph">
<g id="viewport">
<title>include/ccf/service/tables/gov.h</title>
<!-- Node1 -->
<g id="node1" class="node">
<title>Node1</title>
<g id="a_node1"><a xlink:title=" ">
<polygon fill="#999999" stroke="#666666" points="375.5,-569 268.5,-569 268.5,-539 375.5,-539 375.5,-569"/>
<text text-anchor="start" x="276.5" y="-557" font-family="Helvetica,sans-Serif" font-size="10.00">include/ccf/service</text>
<text text-anchor="middle" x="322" y="-546" font-family="Helvetica,sans-Serif" font-size="10.00">/tables/gov.h</text>
</a>
</g>
</g>
<!-- Node2 -->
<g id="node2" class="node">
<title>Node2</title>
<g id="a_node2"><a xlink:href="json_8h.html" target="_top" xlink:title=" ">
<polygon fill="white" stroke="#666666" points="208.5,-382 131.5,-382 131.5,-363 208.5,-363 208.5,-382"/>
<text text-anchor="middle" x="170" y="-370" font-family="Helvetica,sans-Serif" font-size="10.00">ccf/ds/json.h</text>
</a>
</g>
</g>
<!-- Node1&#45;&gt;Node2 -->
<g id="edge1" class="edge">
<title>Node1&#45;&gt;Node2</title>
<path fill="none" stroke="#63b8ff" d="M324.03,-538.86C327.06,-511.97 329.57,-453.02 300,-418 279.92,-394.22 246.54,-383.12 218.63,-377.95"/>
<polygon fill="#63b8ff" stroke="#63b8ff" points="219.07,-374.48 208.63,-376.3 217.93,-381.38 219.07,-374.48"/>
</g>
<!-- Node17 -->
<g id="node17" class="node">
<title>Node17</title>
<g id="a_node17"><a xlink:href="kv_2map_8h.html" target="_top" xlink:title=" ">
<polygon fill="white" stroke="#666666" points="808,-382 728,-382 728,-363 808,-363 808,-382"/>
<text text-anchor="middle" x="768" y="-370" font-family="Helvetica,sans-Serif" font-size="10.00">ccf/kv/map.h</text>
</a>
</g>
</g>
<!-- Node1&#45;&gt;Node17 -->
<g id="edge19" class="edge">
<title>Node1&#45;&gt;Node17</title>
<path fill="none" stroke="#63b8ff" d="M374.96,-538.99C443.41,-519.99 565.47,-483.1 664,-437 694.41,-422.77 727.08,-401.78 747.53,-387.88"/>
<polygon fill="#63b8ff" stroke="#63b8ff" points="749.75,-390.6 756.01,-382.04 745.79,-384.83 749.75,-390.6"/>
</g>
<!-- Node36 -->
<g id="node36" class="node">
<title>Node36</title>
<g id="a_node36"><a xlink:href="proposals_8h.html" target="_top" xlink:title=" ">
<polygon fill="white" stroke="#666666" points="294,-503 192,-503 192,-473 294,-473 294,-503"/>
<text text-anchor="start" x="200" y="-491" font-family="Helvetica,sans-Serif" font-size="10.00">ccf/service/tables</text>
<text text-anchor="middle" x="243" y="-480" font-family="Helvetica,sans-Serif" font-size="10.00">/proposals.h</text>
</a>
</g>
</g>
<!-- Node1&#45;&gt;Node36 -->
<g id="edge52" class="edge">
<title>Node1&#45;&gt;Node36</title>
<path fill="none" stroke="#63b8ff" d="M304.47,-538.8C293.83,-530.18 280.08,-519.04 268.28,-509.48"/>
<polygon fill="#63b8ff" stroke="#63b8ff" points="270.46,-506.74 260.48,-503.16 266.05,-512.18 270.46,-506.74"/>
</g>
<!-- Node3 -->
<g id="node3" class="node">
<title>Node3</title>
<g id="a_node3"><a xlink:href="include_2ccf_2crypto_2base64_8h.html" target="_top" xlink:title=" ">
<polygon fill="white" stroke="#666666" points="231,-255.5 119,-255.5 119,-236.5 231,-236.5 231,-255.5"/>
<text text-anchor="middle" x="175" y="-243.5" font-family="Helvetica,sans-Serif" font-size="10.00">ccf/crypto/base64.h</text>
</a>
</g>
</g>
<!-- Node2&#45;&gt;Node3 -->
<g id="edge2" class="edge">
<title>Node2&#45;&gt;Node3</title>
<path fill="none" stroke="#63b8ff" d="M170.34,-362.94C171.14,-343.04 173.14,-293.26 174.24,-265.85"/>
<polygon fill="#63b8ff" stroke="#63b8ff" points="177.75,-265.75 174.65,-255.62 170.76,-265.47 177.75,-265.75"/>
</g>
<!-- Node6 -->
<g id="node6" class="node">
<title>Node6</title>
<g id="a_node6"><a xlink:href="include_2ccf_2ds_2json__schema_8h.html" target="_top" xlink:title=" ">
<polygon fill="white" stroke="#666666" points="319.5,-321.5 198.5,-321.5 198.5,-302.5 319.5,-302.5 319.5,-321.5"/>
<text text-anchor="middle" x="259" y="-309.5" font-family="Helvetica,sans-Serif" font-size="10.00">ccf/ds/json_schema.h</text>
</a>
</g>
</g>
<!-- Node2&#45;&gt;Node6 -->
<g id="edge5" class="edge">
<title>Node2&#45;&gt;Node6</title>
<path fill="none" stroke="#63b8ff" d="M183.13,-362.87C197.33,-353.54 220.2,-338.51 237.12,-327.38"/>
<polygon fill="#63b8ff" stroke="#63b8ff" points="239.38,-330.08 245.81,-321.67 235.53,-324.24 239.38,-330.08"/>
</g>
<!-- Node14 -->
<g id="node14" class="node">
<title>Node14</title>
<g id="a_node14"><a xlink:title=" ">
<polygon fill="#e0e0e0" stroke="#999999" points="263.5,-74 184.5,-74 184.5,-55 263.5,-55 263.5,-74"/>
<text text-anchor="middle" x="224" y="-62" font-family="Helvetica,sans-Serif" font-size="10.00">fmt/format.h</text>
</a>
</g>
</g>
<!-- Node2&#45;&gt;Node14 -->
<g id="edge17" class="edge">
<title>Node2&#45;&gt;Node14</title>
<path fill="none" stroke="#63b8ff" d="M161.59,-362.86C141.57,-341.21 93.93,-282.67 110,-231 129.43,-168.54 181.55,-108.8 208.05,-81.29"/>
<polygon fill="#63b8ff" stroke="#63b8ff" points="210.59,-83.71 215.1,-74.12 205.59,-78.8 210.59,-83.71"/>
</g>
<!-- Node16 -->
<g id="node16" class="node">
<title>Node16</title>
<g id="a_node16"><a xlink:title=" ">
<polygon fill="#e0e0e0" stroke="#999999" points="84,-321.5 28,-321.5 28,-302.5 84,-302.5 84,-321.5"/>
<text text-anchor="middle" x="56" y="-309.5" font-family="Helvetica,sans-Serif" font-size="10.00">sstream</text>
</a>
</g>
</g>
<!-- Node2&#45;&gt;Node16 -->
<g id="edge18" class="edge">
<title>Node2&#45;&gt;Node16</title>
<path fill="none" stroke="#63b8ff" d="M153.18,-362.87C134.4,-353.23 103.8,-337.53 81.95,-326.31"/>
<polygon fill="#63b8ff" stroke="#63b8ff" points="83.39,-323.12 72.89,-321.67 80.19,-329.35 83.39,-323.12"/>
</g>
<!-- Node4 -->
<g id="node4" class="node">
<title>Node4</title>
<g id="a_node4"><a xlink:title=" ">
<polygon fill="#e0e0e0" stroke="#999999" points="693,-189.5 649,-189.5 649,-170.5 693,-170.5 693,-189.5"/>
<text text-anchor="middle" x="671" y="-177.5" font-family="Helvetica,sans-Serif" font-size="10.00">string</text>
</a>
</g>
</g>
<!-- Node3&#45;&gt;Node4 -->
<g id="edge3" class="edge">
<title>Node3&#45;&gt;Node4</title>
<path fill="none" stroke="#63b8ff" d="M231.32,-239.39C350.63,-227.45 619.55,-200.17 639,-195 640.89,-194.5 642.81,-193.9 644.73,-193.24"/>
<polygon fill="#63b8ff" stroke="#63b8ff" points="646.06,-196.48 654.08,-189.55 643.49,-189.96 646.06,-196.48"/>
</g>
<!-- Node5 -->
<g id="node5" class="node">
<title>Node5</title>
<g id="a_node5"><a xlink:title=" ">
<polygon fill="#e0e0e0" stroke="#999999" points="266.5,-19 219.5,-19 219.5,0 266.5,0 266.5,-19"/>
<text text-anchor="middle" x="243" y="-7" font-family="Helvetica,sans-Serif" font-size="10.00">vector</text>
</a>
</g>
</g>
<!-- Node3&#45;&gt;Node5 -->
<g id="edge4" class="edge">
<title>Node3&#45;&gt;Node5</title>
<path fill="none" stroke="#63b8ff" d="M172.29,-236.35C163.98,-208.15 141.43,-117.09 175,-55 182.58,-40.98 196.7,-30.67 210.13,-23.53"/>
<polygon fill="#63b8ff" stroke="#63b8ff" points="211.77,-26.62 219.22,-19.08 208.7,-20.33 211.77,-26.62"/>
</g>
<!-- Node7 -->
<g id="node7" class="node">
<title>Node7</title>
<g id="a_node7"><a xlink:href="nonstd_8h.html" target="_top" xlink:title=" ">
<polygon fill="white" stroke="#666666" points="425,-255.5 335,-255.5 335,-236.5 425,-236.5 425,-255.5"/>
<text text-anchor="middle" x="380" y="-243.5" font-family="Helvetica,sans-Serif" font-size="10.00">ccf/ds/nonstd.h</text>
</a>
</g>
</g>
<!-- Node6&#45;&gt;Node7 -->
<g id="edge6" class="edge">
<title>Node6&#45;&gt;Node7</title>
<path fill="none" stroke="#63b8ff" d="M275.32,-302.37C295.71,-291.59 330.81,-273.02 354.7,-260.38"/>
<polygon fill="#63b8ff" stroke="#63b8ff" points="356.35,-263.47 363.55,-255.7 353.08,-257.28 356.35,-263.47"/>
</g>
<!-- Node13 -->
<g id="node13" class="node">
<title>Node13</title>
<g id="a_node13"><a xlink:title=" ">
<polygon fill="#e0e0e0" stroke="#999999" points="1045,-189.5 989,-189.5 989,-170.5 1045,-170.5 1045,-189.5"/>
<text text-anchor="middle" x="1017" y="-177.5" font-family="Helvetica,sans-Serif" font-size="10.00">optional</text>
</a>
</g>
</g>
<!-- Node6&#45;&gt;Node13 -->
<g id="edge14" class="edge">
<title>Node6&#45;&gt;Node13</title>
<path fill="none" stroke="#63b8ff" d="M299.44,-302.46C308.8,-300.58 318.73,-298.65 328,-297 431.59,-278.53 458.34,-279.06 562,-261 630.7,-249.03 647.2,-242.38 716,-231 832.83,-211.67 865.22,-224.14 980,-195 982.45,-194.38 984.95,-193.65 987.45,-192.85"/>
<polygon fill="#63b8ff" stroke="#63b8ff" points="988.62,-196.15 996.91,-189.54 986.31,-189.54 988.62,-196.15"/>
</g>
<!-- Node6&#45;&gt;Node14 -->
<g id="edge15" class="edge">
<title>Node6&#45;&gt;Node14</title>
<path fill="none" stroke="#63b8ff" d="M258.1,-302.21C256.3,-287.05 251.39,-255.3 240,-231 231.51,-212.89 219.32,-213.97 213,-195 200.38,-157.15 210.44,-109.8 217.87,-84.13"/>
<polygon fill="#63b8ff" stroke="#63b8ff" points="221.32,-84.85 220.92,-74.27 214.63,-82.79 221.32,-84.85"/>
</g>
<!-- Node15 -->
<g id="node15" class="node">
<title>Node15</title>
<g id="a_node15"><a xlink:title=" ">
<polygon fill="#e0e0e0" stroke="#999999" points="553,-255.5 443,-255.5 443,-236.5 553,-236.5 553,-255.5"/>
<text text-anchor="middle" x="498" y="-243.5" font-family="Helvetica,sans-Serif" font-size="10.00">nlohmann/json.hpp</text>
</a>
</g>
</g>
<!-- Node6&#45;&gt;Node15 -->
<g id="edge16" class="edge">
<title>Node6&#45;&gt;Node15</title>
<path fill="none" stroke="#63b8ff" d="M291.23,-302.37C333.85,-290.96 409.02,-270.83 456.03,-258.24"/>
<polygon fill="#63b8ff" stroke="#63b8ff" points="457.14,-261.56 465.9,-255.6 455.33,-254.8 457.14,-261.56"/>
</g>
<!-- Node7&#45;&gt;Node4 -->
<g id="edge10" class="edge">
<title>Node7&#45;&gt;Node4</title>
<path fill="none" stroke="#63b8ff" d="M411.31,-236.43C418.72,-234.53 426.62,-232.6 434,-231 524.4,-211.38 550.44,-221.73 639,-195 640.64,-194.51 642.3,-193.95 643.97,-193.35"/>
<polygon fill="#63b8ff" stroke="#63b8ff" points="645.35,-196.57 653.34,-189.62 642.76,-190.07 645.35,-196.57"/>
</g>
<!-- Node7&#45;&gt;Node5 -->
<g id="edge13" class="edge">
<title>Node7&#45;&gt;Node5</title>
<path fill="none" stroke="#63b8ff" d="M371.75,-236.29C362.93,-226.68 348.88,-210.53 339,-195 301.97,-136.8 305.79,-115.14 272,-55 266.75,-45.65 260.29,-35.62 254.8,-27.45"/>
<polygon fill="#63b8ff" stroke="#63b8ff" points="257.66,-25.44 249.13,-19.15 251.88,-29.38 257.66,-25.44"/>
</g>
<!-- Node8 -->
<g id="node8" class="node">
<title>Node8</title>
<g id="a_node8"><a xlink:title=" ">
<polygon fill="#e0e0e0" stroke="#999999" points="412,-189.5 348,-189.5 348,-170.5 412,-170.5 412,-189.5"/>
<text text-anchor="middle" x="380" y="-177.5" font-family="Helvetica,sans-Serif" font-size="10.00">algorithm</text>
</a>
</g>
</g>
<!-- Node7&#45;&gt;Node8 -->
<g id="edge7" class="edge">
<title>Node7&#45;&gt;Node8</title>
<path fill="none" stroke="#63b8ff" d="M380,-236.37C380,-227.16 380,-212.29 380,-200.27"/>
<polygon fill="#63b8ff" stroke="#63b8ff" points="383.5,-199.91 380,-189.91 376.5,-199.91 383.5,-199.91"/>
</g>
<!-- Node9 -->
<g id="node9" class="node">
<title>Node9</title>
<g id="a_node9"><a xlink:title=" ">
<polygon fill="#e0e0e0" stroke="#999999" points="472,-189.5 430,-189.5 430,-170.5 472,-170.5 472,-189.5"/>
<text text-anchor="middle" x="451" y="-177.5" font-family="Helvetica,sans-Serif" font-size="10.00">array</text>
</a>
</g>
</g>
<!-- Node7&#45;&gt;Node9 -->
<g id="edge8" class="edge">
<title>Node7&#45;&gt;Node9</title>
<path fill="none" stroke="#63b8ff" d="M389.58,-236.37C400.84,-226.21 419.76,-209.16 433.63,-196.65"/>
<polygon fill="#63b8ff" stroke="#63b8ff" points="436.04,-199.2 441.12,-189.91 431.35,-194 436.04,-199.2"/>
</g>
<!-- Node10 -->
<g id="node10" class="node">
<title>Node10</title>
<g id="a_node10"><a xlink:title=" ">
<polygon fill="#e0e0e0" stroke="#999999" points="539.5,-189.5 490.5,-189.5 490.5,-170.5 539.5,-170.5 539.5,-189.5"/>
<text text-anchor="middle" x="515" y="-177.5" font-family="Helvetica,sans-Serif" font-size="10.00">cctype</text>
</a>
</g>
</g>
<!-- Node7&#45;&gt;Node10 -->
<g id="edge9" class="edge">
<title>Node7&#45;&gt;Node10</title>
<path fill="none" stroke="#63b8ff" d="M398.21,-236.37C421.15,-225.49 460.81,-206.69 487.47,-194.05"/>
<polygon fill="#63b8ff" stroke="#63b8ff" points="489.11,-197.15 496.65,-189.7 486.12,-190.82 489.11,-197.15"/>
</g>
<!-- Node11 -->
<g id="node11" class="node">
<title>Node11</title>
<g id="a_node11"><a xlink:title=" ">
<polygon fill="#e0e0e0" stroke="#999999" points="630.5,-189.5 557.5,-189.5 557.5,-170.5 630.5,-170.5 630.5,-189.5"/>
<text text-anchor="middle" x="594" y="-177.5" font-family="Helvetica,sans-Serif" font-size="10.00">string_view</text>
</a>
</g>
</g>
<!-- Node7&#45;&gt;Node11 -->
<g id="edge11" class="edge">
<title>Node7&#45;&gt;Node11</title>
<path fill="none" stroke="#63b8ff" d="M408.85,-236.47C442.33,-226.56 499.19,-209.69 548,-195 550.61,-194.22 553.3,-193.4 556.01,-192.58"/>
<polygon fill="#63b8ff" stroke="#63b8ff" points="557.24,-195.87 565.79,-189.62 555.2,-189.17 557.24,-195.87"/>
</g>
<!-- Node12 -->
<g id="node12" class="node">
<title>Node12</title>
<g id="a_node12"><a xlink:title=" ">
<polygon fill="#e0e0e0" stroke="#999999" points="291.5,-189.5 222.5,-189.5 222.5,-170.5 291.5,-170.5 291.5,-189.5"/>
<text text-anchor="middle" x="257" y="-177.5" font-family="Helvetica,sans-Serif" font-size="10.00">type_traits</text>
</a>
</g>
</g>
<!-- Node7&#45;&gt;Node12 -->
<g id="edge12" class="edge">
<title>Node7&#45;&gt;Node12</title>
<path fill="none" stroke="#63b8ff" d="M363.41,-236.37C342.69,-225.59 307,-207.02 282.72,-194.38"/>
<polygon fill="#63b8ff" stroke="#63b8ff" points="284.2,-191.21 273.72,-189.7 280.97,-197.42 284.2,-191.21"/>
</g>
<!-- Node18 -->
<g id="node18" class="node">
<title>Node18</title>
<g id="a_node18"><a xlink:href="get__name_8h.html" target="_top" xlink:title=" ">
<polygon fill="white" stroke="#666666" points="678.5,-321.5 571.5,-321.5 571.5,-302.5 678.5,-302.5 678.5,-321.5"/>
<text text-anchor="middle" x="625" y="-309.5" font-family="Helvetica,sans-Serif" font-size="10.00">ccf/kv/get_name.h</text>
</a>
</g>
</g>
<!-- Node17&#45;&gt;Node18 -->
<g id="edge20" class="edge">
<title>Node17&#45;&gt;Node18</title>
<path fill="none" stroke="#63b8ff" d="M747.21,-362.99C723.06,-353.12 683.02,-336.73 655.38,-325.43"/>
<polygon fill="#63b8ff" stroke="#63b8ff" points="656.4,-322.06 645.82,-321.52 653.75,-328.54 656.4,-322.06"/>
</g>
<!-- Node19 -->
<g id="node19" class="node">
<title>Node19</title>
<g id="a_node19"><a xlink:href="include_2ccf_2kv_2hooks_8h.html" target="_top" xlink:title=" ">
<polygon fill="white" stroke="#666666" points="1272.5,-255.5 1185.5,-255.5 1185.5,-236.5 1272.5,-236.5 1272.5,-255.5"/>
<text text-anchor="middle" x="1229" y="-243.5" font-family="Helvetica,sans-Serif" font-size="10.00">ccf/kv/hooks.h</text>
</a>
</g>
</g>
<!-- Node17&#45;&gt;Node19 -->
<g id="edge22" class="edge">
<title>Node17&#45;&gt;Node19</title>
<path fill="none" stroke="#63b8ff" d="M808.25,-371.06C923.62,-369.39 1249.24,-361.63 1281,-327 1299.78,-306.52 1271.63,-278.53 1249.98,-261.67"/>
<polygon fill="#63b8ff" stroke="#63b8ff" points="1251.94,-258.76 1241.83,-255.58 1247.75,-264.37 1251.94,-258.76"/>
</g>
<!-- Node23 -->
<g id="node23" class="node">
<title>Node23</title>
<g id="a_node23"><a xlink:href="map__handle_8h.html" target="_top" xlink:title=" ">
<polygon fill="white" stroke="#666666" points="1085,-321.5 967,-321.5 967,-302.5 1085,-302.5 1085,-321.5"/>
<text text-anchor="middle" x="1026" y="-309.5" font-family="Helvetica,sans-Serif" font-size="10.00">ccf/kv/map_handle.h</text>
</a>
</g>
</g>
<!-- Node17&#45;&gt;Node23 -->
<g id="edge26" class="edge">
<title>Node17&#45;&gt;Node23</title>
<path fill="none" stroke="#63b8ff" d="M805.52,-362.99C851.28,-352.62 928.69,-335.07 978.55,-323.76"/>
<polygon fill="#63b8ff" stroke="#63b8ff" points="979.46,-327.14 988.44,-321.52 977.91,-320.31 979.46,-327.14"/>
</g>
<!-- Node32 -->
<g id="node32" class="node">
<title>Node32</title>
<g id="a_node32"><a xlink:href="blit__serialiser_8h.html" target="_top" xlink:title=" ">
<polygon fill="white" stroke="#666666" points="436.5,-327 337.5,-327 337.5,-297 436.5,-297 436.5,-327"/>
<text text-anchor="start" x="345.5" y="-315" font-family="Helvetica,sans-Serif" font-size="10.00">ccf/kv/serialisers</text>
<text text-anchor="middle" x="387" y="-304" font-family="Helvetica,sans-Serif" font-size="10.00">/blit_serialiser.h</text>
</a>
</g>
</g>
<!-- Node17&#45;&gt;Node32 -->
<g id="edge41" class="edge">
<title>Node17&#45;&gt;Node32</title>
<path fill="none" stroke="#63b8ff" d="M727.9,-364.55C724.56,-364.01 721.22,-363.49 718,-363 600.18,-345.22 567.05,-349.16 446.58,-327.18"/>
<polygon fill="#63b8ff" stroke="#63b8ff" points="447.07,-323.71 436.6,-325.34 445.8,-330.6 447.07,-323.71"/>
</g>
<!-- Node33 -->
<g id="node33" class="node">
<title>Node33</title>
<g id="a_node33"><a xlink:href="json__serialiser_8h.html" target="_top" xlink:title=" ">
<polygon fill="white" stroke="#666666" points="553.5,-327 454.5,-327 454.5,-297 553.5,-297 553.5,-327"/>
<text text-anchor="start" x="462.5" y="-315" font-family="Helvetica,sans-Serif" font-size="10.00">ccf/kv/serialisers</text>
<text text-anchor="middle" x="504" y="-304" font-family="Helvetica,sans-Serif" font-size="10.00">/json_serialiser.h</text>
</a>
</g>
</g>
<!-- Node17&#45;&gt;Node33 -->
<g id="edge44" class="edge">
<title>Node17&#45;&gt;Node33</title>
<path fill="none" stroke="#63b8ff" d="M727.67,-363.09C688.21,-354.79 626.13,-341.56 563.68,-327.36"/>
<polygon fill="#63b8ff" stroke="#63b8ff" points="564.18,-323.88 553.66,-325.07 562.63,-330.71 564.18,-323.88"/>
</g>
<!-- Node34 -->
<g id="node34" class="node">
<title>Node34</title>
<g id="a_node34"><a xlink:href="untyped_8h.html" target="_top" xlink:title=" ">
<polygon fill="white" stroke="#666666" points="1201,-321.5 1103,-321.5 1103,-302.5 1201,-302.5 1201,-321.5"/>
<text text-anchor="middle" x="1152" y="-309.5" font-family="Helvetica,sans-Serif" font-size="10.00">ccf/kv/untyped.h</text>
</a>
</g>
</g>
<!-- Node17&#45;&gt;Node34 -->
<g id="edge47" class="edge">
<title>Node17&#45;&gt;Node34</title>
<path fill="none" stroke="#63b8ff" d="M808.11,-367.35C869.83,-360.66 991.7,-346.28 1094,-327 1099.02,-326.05 1104.27,-324.95 1109.46,-323.79"/>
<polygon fill="#63b8ff" stroke="#63b8ff" points="1110.35,-327.17 1119.3,-321.5 1108.77,-320.35 1110.35,-327.17"/>
</g>
<!-- Node18&#45;&gt;Node4 -->
<g id="edge21" class="edge">
<title>Node18&#45;&gt;Node4</title>
<path fill="none" stroke="#63b8ff" d="M628.02,-302.47C635.39,-281.63 654.45,-227.77 664.53,-199.28"/>
<polygon fill="#63b8ff" stroke="#63b8ff" points="667.87,-200.33 667.91,-189.73 661.28,-197.99 667.87,-200.33"/>
</g>
<!-- Node20 -->
<g id="node20" class="node">
<title>Node20</title>
<g id="a_node20"><a xlink:href="version_8h.html" target="_top" xlink:title=" ">
<polygon fill="white" stroke="#666666" points="1241,-189.5 1147,-189.5 1147,-170.5 1241,-170.5 1241,-189.5"/>
<text text-anchor="middle" x="1194" y="-177.5" font-family="Helvetica,sans-Serif" font-size="10.00">ccf/kv/version.h</text>
</a>
</g>
</g>
<!-- Node19&#45;&gt;Node20 -->
<g id="edge23" class="edge">
<title>Node19&#45;&gt;Node20</title>
<path fill="none" stroke="#63b8ff" d="M1224.28,-236.37C1219.04,-226.78 1210.43,-211.05 1203.73,-198.8"/>
<polygon fill="#63b8ff" stroke="#63b8ff" points="1206.74,-197 1198.87,-189.91 1200.6,-200.36 1206.74,-197"/>
</g>
<!-- Node21 -->
<g id="node21" class="node">
<title>Node21</title>
<g id="a_node21"><a xlink:title=" ">
<polygon fill="#e0e0e0" stroke="#999999" points="1128.5,-189.5 1063.5,-189.5 1063.5,-170.5 1128.5,-170.5 1128.5,-189.5"/>
<text text-anchor="middle" x="1096" y="-177.5" font-family="Helvetica,sans-Serif" font-size="10.00">functional</text>
</a>
</g>
</g>
<!-- Node19&#45;&gt;Node21 -->
<g id="edge24" class="edge">
<title>Node19&#45;&gt;Node21</title>
<path fill="none" stroke="#63b8ff" d="M1211.06,-236.37C1188.46,-225.49 1149.38,-206.69 1123.12,-194.05"/>
<polygon fill="#63b8ff" stroke="#63b8ff" points="1124.61,-190.88 1114.08,-189.7 1121.57,-197.19 1124.61,-190.88"/>
</g>
<!-- Node22 -->
<g id="node22" class="node">
<title>Node22</title>
<g id="a_node22"><a xlink:title=" ">
<polygon fill="#e0e0e0" stroke="#999999" points="1317,-189.5 1259,-189.5 1259,-170.5 1317,-170.5 1317,-189.5"/>
<text text-anchor="middle" x="1288" y="-177.5" font-family="Helvetica,sans-Serif" font-size="10.00">memory</text>
</a>
</g>
</g>
<!-- Node19&#45;&gt;Node22 -->
<g id="edge25" class="edge">
<title>Node19&#45;&gt;Node22</title>
<path fill="none" stroke="#63b8ff" d="M1236.96,-236.37C1246.14,-226.4 1261.46,-209.79 1272.92,-197.36"/>
<polygon fill="#63b8ff" stroke="#63b8ff" points="1275.59,-199.63 1279.79,-189.91 1270.44,-194.89 1275.59,-199.63"/>
</g>
<!-- Node24 -->
<g id="node24" class="node">
<title>Node24</title>
<g id="a_node24"><a xlink:href="untyped__map__handle_8h.html" target="_top" xlink:title=" ">
<polygon fill="white" stroke="#666666" points="961,-261 845,-261 845,-231 961,-231 961,-261"/>
<text text-anchor="start" x="853" y="-249" font-family="Helvetica,sans-Serif" font-size="10.00">ccf/kv/untyped_map</text>
<text text-anchor="middle" x="903" y="-238" font-family="Helvetica,sans-Serif" font-size="10.00">_handle.h</text>
</a>
</g>
</g>
<!-- Node23&#45;&gt;Node24 -->
<g id="edge27" class="edge">
<title>Node23&#45;&gt;Node24</title>
<path fill="none" stroke="#63b8ff" d="M1009.41,-302.37C991.47,-293.03 962.3,-277.86 939.04,-265.75"/>
<polygon fill="#63b8ff" stroke="#63b8ff" points="940.62,-262.63 930.13,-261.12 937.38,-268.84 940.62,-262.63"/>
</g>
<!-- Node24&#45;&gt;Node4 -->
<g id="edge40" class="edge">
<title>Node24&#45;&gt;Node4</title>
<path fill="none" stroke="#63b8ff" d="M844.57,-233.39C804.02,-224.62 749.05,-211.33 702,-195 700.61,-194.52 699.19,-193.99 697.76,-193.44"/>
<polygon fill="#63b8ff" stroke="#63b8ff" points="699.06,-190.19 688.48,-189.56 696.35,-196.65 699.06,-190.19"/>
</g>
<!-- Node24&#45;&gt;Node13 -->
<g id="edge39" class="edge">
<title>Node24&#45;&gt;Node13</title>
<path fill="none" stroke="#63b8ff" d="M928.02,-230.95C947.31,-220.13 973.82,-205.24 992.88,-194.54"/>
<polygon fill="#63b8ff" stroke="#63b8ff" points="994.82,-197.46 1001.83,-189.52 991.4,-191.36 994.82,-197.46"/>
</g>
<!-- Node24&#45;&gt;Node20 -->
<g id="edge37" class="edge">
<title>Node24&#45;&gt;Node20</title>
<path fill="none" stroke="#63b8ff" d="M961.07,-233.24C1008.71,-223.45 1077.85,-208.91 1138,-195 1142.12,-194.05 1146.4,-193.03 1150.68,-191.99"/>
<polygon fill="#63b8ff" stroke="#63b8ff" points="1151.71,-195.34 1160.58,-189.56 1150.04,-188.54 1151.71,-195.34"/>
</g>
<!-- Node24&#45;&gt;Node21 -->
<g id="edge38" class="edge">
<title>Node24&#45;&gt;Node21</title>
<path fill="none" stroke="#63b8ff" d="M945.64,-230.91C975.89,-220.9 1017.44,-207.15 1054,-195 1056.13,-194.29 1058.33,-193.56 1060.54,-192.83"/>
<polygon fill="#63b8ff" stroke="#63b8ff" points="1061.86,-196.08 1070.24,-189.6 1059.64,-189.44 1061.86,-196.08"/>
</g>
<!-- Node25 -->
<g id="node25" class="node">
<title>Node25</title>
<g id="a_node25"><a xlink:href="abstract__handle_8h.html" target="_top" xlink:title=" ">
<polygon fill="white" stroke="#666666" points="971,-189.5 835,-189.5 835,-170.5 971,-170.5 971,-189.5"/>
<text text-anchor="middle" x="903" y="-177.5" font-family="Helvetica,sans-Serif" font-size="10.00">ccf/kv/abstract_handle.h</text>
</a>
</g>
</g>
<!-- Node24&#45;&gt;Node25 -->
<g id="edge28" class="edge">
<title>Node24&#45;&gt;Node25</title>
<path fill="none" stroke="#63b8ff" d="M903,-230.8C903,-221.7 903,-209.79 903,-199.9"/>
<polygon fill="#63b8ff" stroke="#63b8ff" points="906.5,-199.84 903,-189.84 899.5,-199.84 906.5,-199.84"/>
</g>
<!-- Node26 -->
<g id="node26" class="node">
<title>Node26</title>
<g id="a_node26"><a xlink:href="serialised__entry_8h.html" target="_top" xlink:title=" ">
<polygon fill="white" stroke="#666666" points="816.5,-195 711.5,-195 711.5,-165 816.5,-165 816.5,-195"/>
<text text-anchor="start" x="719.5" y="-183" font-family="Helvetica,sans-Serif" font-size="10.00">ccf/kv/serialisers</text>
<text text-anchor="middle" x="764" y="-172" font-family="Helvetica,sans-Serif" font-size="10.00">/serialised_entry.h</text>
</a>
</g>
</g>
<!-- Node24&#45;&gt;Node26 -->
<g id="edge29" class="edge">
<title>Node24&#45;&gt;Node26</title>
<path fill="none" stroke="#63b8ff" d="M872.5,-230.95C852.31,-221.66 825.63,-209.38 803.78,-199.32"/>
<polygon fill="#63b8ff" stroke="#63b8ff" points="804.98,-196.02 794.43,-195.01 802.05,-202.37 804.98,-196.02"/>
</g>
<!-- Node27 -->
<g id="node27" class="node">
<title>Node27</title>
<g id="a_node27"><a xlink:href="byte__vector_8h.html" target="_top" xlink:title=" ">
<polygon fill="white" stroke="#666666" points="517,-129 417,-129 417,-110 517,-110 517,-129"/>
<text text-anchor="middle" x="467" y="-117" font-family="Helvetica,sans-Serif" font-size="10.00">ccf/byte_vector.h</text>
</a>
</g>
</g>
<!-- Node26&#45;&gt;Node27 -->
<g id="edge30" class="edge">
<title>Node26&#45;&gt;Node27</title>
<path fill="none" stroke="#63b8ff" d="M711.26,-166.96C708.13,-166.29 705.03,-165.63 702,-165 641.77,-152.5 572.56,-139.57 524.93,-130.89"/>
<polygon fill="#63b8ff" stroke="#63b8ff" points="525.27,-127.39 514.81,-129.05 524.02,-134.28 525.27,-127.39"/>
</g>
<!-- Node27&#45;&gt;Node14 -->
<g id="edge35" class="edge">
<title>Node27&#45;&gt;Node14</title>
<path fill="none" stroke="#63b8ff" d="M427.96,-109.98C385.92,-100.82 318.96,-86.21 273.32,-76.26"/>
<polygon fill="#63b8ff" stroke="#63b8ff" points="273.86,-72.79 263.35,-74.08 272.37,-79.63 273.86,-72.79"/>
</g>
<!-- Node28 -->
<g id="node28" class="node">
<title>Node28</title>
<g id="a_node28"><a xlink:href="siphash_8h.html" target="_top" xlink:title=" ">
<polygon fill="white" stroke="#666666" points="443.5,-74 348.5,-74 348.5,-55 443.5,-55 443.5,-74"/>
<text text-anchor="middle" x="396" y="-62" font-family="Helvetica,sans-Serif" font-size="10.00">ccf/ds/siphash.h</text>
</a>
</g>
</g>
<!-- Node27&#45;&gt;Node28 -->
<g id="edge31" class="edge">
<title>Node27&#45;&gt;Node28</title>
<path fill="none" stroke="#63b8ff" d="M455.59,-109.98C444.89,-102 428.66,-89.88 415.84,-80.31"/>
<polygon fill="#63b8ff" stroke="#63b8ff" points="417.72,-77.35 407.61,-74.17 413.53,-82.96 417.72,-77.35"/>
</g>
<!-- Node31 -->
<g id="node31" class="node">
<title>Node31</title>
<g id="a_node31"><a xlink:title=" ">
<polygon fill="#e0e0e0" stroke="#999999" points="610.5,-74 461.5,-74 461.5,-55 610.5,-55 610.5,-74"/>
<text text-anchor="middle" x="536" y="-62" font-family="Helvetica,sans-Serif" font-size="10.00">small_vector/SmallVector.h</text>
</a>
</g>
</g>
<!-- Node27&#45;&gt;Node31 -->
<g id="edge36" class="edge">
<title>Node27&#45;&gt;Node31</title>
<path fill="none" stroke="#63b8ff" d="M478.09,-109.98C488.49,-102 504.26,-89.88 516.72,-80.31"/>
<polygon fill="#63b8ff" stroke="#63b8ff" points="518.91,-83.04 524.71,-74.17 514.65,-77.49 518.91,-83.04"/>
</g>
<!-- Node28&#45;&gt;Node5 -->
<g id="edge34" class="edge">
<title>Node28&#45;&gt;Node5</title>
<path fill="none" stroke="#63b8ff" d="M371.42,-54.98C345.58,-46.03 304.77,-31.9 276.1,-21.97"/>
<polygon fill="#63b8ff" stroke="#63b8ff" points="277.11,-18.61 266.52,-18.65 274.82,-25.23 277.11,-18.61"/>
</g>
<!-- Node29 -->
<g id="node29" class="node">
<title>Node29</title>
<g id="a_node29"><a xlink:title=" ">
<polygon fill="#e0e0e0" stroke="#999999" points="457.5,-19 404.5,-19 404.5,0 457.5,0 457.5,-19"/>
<text text-anchor="middle" x="431" y="-7" font-family="Helvetica,sans-Serif" font-size="10.00">cstddef</text>
</a>
</g>
</g>
<!-- Node28&#45;&gt;Node29 -->
<g id="edge32" class="edge">
<title>Node28&#45;&gt;Node29</title>
<path fill="none" stroke="#63b8ff" d="M401.78,-54.75C406.62,-47.42 413.68,-36.73 419.64,-27.7"/>
<polygon fill="#63b8ff" stroke="#63b8ff" points="422.74,-29.36 425.33,-19.09 416.9,-25.5 422.74,-29.36"/>
</g>
<!-- Node30 -->
<g id="node30" class="node">
<title>Node30</title>
<g id="a_node30"><a xlink:title=" ">
<polygon fill="#e0e0e0" stroke="#999999" points="386,-19 336,-19 336,0 386,0 386,-19"/>
<text text-anchor="middle" x="361" y="-7" font-family="Helvetica,sans-Serif" font-size="10.00">cstdint</text>
</a>
</g>
</g>
<!-- Node28&#45;&gt;Node30 -->
<g id="edge33" class="edge">
<title>Node28&#45;&gt;Node30</title>
<path fill="none" stroke="#63b8ff" d="M390.22,-54.75C385.38,-47.42 378.32,-36.73 372.36,-27.7"/>
<polygon fill="#63b8ff" stroke="#63b8ff" points="375.1,-25.5 366.67,-19.09 369.26,-29.36 375.1,-25.5"/>
</g>
<!-- Node32&#45;&gt;Node7 -->
<g id="edge42" class="edge">
<title>Node32&#45;&gt;Node7</title>
<path fill="none" stroke="#63b8ff" d="M385.45,-296.8C384.45,-287.7 383.15,-275.79 382.07,-265.9"/>
<polygon fill="#63b8ff" stroke="#63b8ff" points="385.53,-265.4 380.97,-255.84 378.58,-266.17 385.53,-265.4"/>
</g>
<!-- Node32&#45;&gt;Node26 -->
<g id="edge43" class="edge">
<title>Node32&#45;&gt;Node26</title>
<path fill="none" stroke="#63b8ff" d="M436.85,-298.59C480.31,-287.44 539.77,-271.28 562,-261 583.82,-250.91 585.34,-241.42 607,-231 637,-216.58 672.16,-204.94 701.59,-196.53"/>
<polygon fill="#63b8ff" stroke="#63b8ff" points="702.65,-199.87 711.34,-193.8 700.76,-193.13 702.65,-199.87"/>
</g>
<!-- Node33&#45;&gt;Node15 -->
<g id="edge46" class="edge">
<title>Node33&#45;&gt;Node15</title>
<path fill="none" stroke="#63b8ff" d="M502.67,-296.8C501.82,-287.7 500.7,-275.79 499.77,-265.9"/>
<polygon fill="#63b8ff" stroke="#63b8ff" points="503.25,-265.47 498.83,-255.84 496.28,-266.13 503.25,-265.47"/>
</g>
<!-- Node33&#45;&gt;Node26 -->
<g id="edge45" class="edge">
<title>Node33&#45;&gt;Node26</title>
<path fill="none" stroke="#63b8ff" d="M532.32,-296.84C579.5,-273.25 674.19,-225.91 726.73,-199.64"/>
<polygon fill="#63b8ff" stroke="#63b8ff" points="728.34,-202.74 735.72,-195.14 725.21,-196.48 728.34,-202.74"/>
</g>
<!-- Node34&#45;&gt;Node13 -->
<g id="edge51" class="edge">
<title>Node34&#45;&gt;Node13</title>
<path fill="none" stroke="#63b8ff" d="M1152.34,-302.44C1152.5,-286.49 1150.63,-251.99 1133,-231 1127.23,-224.13 1081.47,-205.63 1049.19,-193.16"/>
<polygon fill="#63b8ff" stroke="#63b8ff" points="1050.25,-189.82 1039.66,-189.5 1047.74,-196.35 1050.25,-189.82"/>
</g>
<!-- Node34&#45;&gt;Node19 -->
<g id="edge48" class="edge">
<title>Node34&#45;&gt;Node19</title>
<path fill="none" stroke="#63b8ff" d="M1162.38,-302.37C1174.72,-292.12 1195.51,-274.84 1210.59,-262.31"/>
<polygon fill="#63b8ff" stroke="#63b8ff" points="1212.83,-264.99 1218.29,-255.91 1208.36,-259.61 1212.83,-264.99"/>
</g>
<!-- Node34&#45;&gt;Node26 -->
<g id="edge49" class="edge">
<title>Node34&#45;&gt;Node26</title>
<path fill="none" stroke="#63b8ff" d="M1135.33,-302.48C1103.76,-286.62 1032.78,-252.23 970,-231 956.31,-226.37 881.87,-208.6 826.38,-195.56"/>
<polygon fill="#63b8ff" stroke="#63b8ff" points="827.14,-192.14 816.61,-193.26 825.54,-198.95 827.14,-192.14"/>
</g>
<!-- Node35 -->
<g id="node35" class="node">
<title>Node35</title>
<g id="a_node35"><a xlink:title=" ">
<polygon fill="#e0e0e0" stroke="#999999" points="1124,-255.5 1086,-255.5 1086,-236.5 1124,-236.5 1124,-255.5"/>
<text text-anchor="middle" x="1105" y="-243.5" font-family="Helvetica,sans-Serif" font-size="10.00">map</text>
</a>
</g>
</g>
<!-- Node34&#45;&gt;Node35 -->
<g id="edge50" class="edge">
<title>Node34&#45;&gt;Node35</title>
<path fill="none" stroke="#63b8ff" d="M1145.66,-302.37C1138.48,-292.59 1126.61,-276.42 1117.54,-264.08"/>
<polygon fill="#63b8ff" stroke="#63b8ff" points="1120.28,-261.89 1111.54,-255.91 1114.64,-266.04 1120.28,-261.89"/>
</g>
<!-- Node36&#45;&gt;Node2 -->
<g id="edge53" class="edge">
<title>Node36&#45;&gt;Node2</title>
<path fill="none" stroke="#63b8ff" d="M223.02,-472.83C211.57,-463.77 197.78,-451.1 189,-437 180.44,-423.27 175.55,-405.46 172.88,-392.2"/>
<polygon fill="#63b8ff" stroke="#63b8ff" points="176.32,-391.55 171.13,-382.32 169.43,-392.78 176.32,-391.55"/>
</g>
<!-- Node36&#45;&gt;Node5 -->
<g id="edge76" class="edge">
<title>Node36&#45;&gt;Node5</title>
<path fill="none" stroke="#63b8ff" d="M191.76,-485.11C120.47,-479.44 0,-457.43 0,-373.5 0,-373.5 0,-373.5 0,-118.5 0,-28.01 142.46,-12.77 209.23,-10.6"/>
<polygon fill="#63b8ff" stroke="#63b8ff" points="209.35,-14.1 219.26,-10.36 209.17,-7.11 209.35,-14.1"/>
</g>
<!-- Node37 -->
<g id="node37" class="node">
<title>Node37</title>
<g id="a_node37"><a xlink:href="service_2map_8h.html" target="_top" xlink:title=" ">
<polygon fill="white" stroke="#666666" points="655.5,-437 552.5,-437 552.5,-418 655.5,-418 655.5,-437"/>
<text text-anchor="middle" x="604" y="-425" font-family="Helvetica,sans-Serif" font-size="10.00">ccf/service/map.h</text>
</a>
</g>
</g>
<!-- Node36&#45;&gt;Node37 -->
<g id="edge54" class="edge">
<title>Node36&#45;&gt;Node37</title>
<path fill="none" stroke="#63b8ff" d="M294.34,-478.68C359.65,-468.1 472.33,-449.84 542.26,-438.51"/>
<polygon fill="#63b8ff" stroke="#63b8ff" points="542.94,-441.94 552.25,-436.89 541.82,-435.03 542.94,-441.94"/>
</g>
<!-- Node43 -->
<g id="node43" class="node">
<title>Node43</title>
<g id="a_node43"><a xlink:title=" ">
<polygon fill="#e0e0e0" stroke="#999999" points="291.5,-437 198.5,-437 198.5,-418 291.5,-418 291.5,-437"/>
<text text-anchor="middle" x="245" y="-425" font-family="Helvetica,sans-Serif" font-size="10.00">unordered_map</text>
</a>
</g>
</g>
<!-- Node36&#45;&gt;Node43 -->
<g id="edge75" class="edge">
<title>Node36&#45;&gt;Node43</title>
<path fill="none" stroke="#63b8ff" d="M243.48,-472.84C243.74,-465.21 244.07,-455.7 244.35,-447.45"/>
<polygon fill="#63b8ff" stroke="#63b8ff" points="247.86,-447.38 244.7,-437.27 240.86,-447.14 247.86,-447.38"/>
</g>
<!-- Node37&#45;&gt;Node17 -->
<g id="edge55" class="edge">
<title>Node37&#45;&gt;Node17</title>
<path fill="none" stroke="#63b8ff" d="M630.35,-417.98C657.76,-409.13 700.89,-395.19 731.56,-385.28"/>
<polygon fill="#63b8ff" stroke="#63b8ff" points="733,-388.49 741.44,-382.08 730.85,-381.83 733,-388.49"/>
</g>
<!-- Node38 -->
<g id="node38" class="node">
<title>Node38</title>
<g id="a_node38"><a xlink:href="set_8h.html" target="_top" xlink:title=" ">
<polygon fill="white" stroke="#666666" points="709.5,-382 636.5,-382 636.5,-363 709.5,-363 709.5,-382"/>
<text text-anchor="middle" x="673" y="-370" font-family="Helvetica,sans-Serif" font-size="10.00">ccf/kv/set.h</text>
</a>
</g>
</g>
<!-- Node37&#45;&gt;Node38 -->
<g id="edge56" class="edge">
<title>Node37&#45;&gt;Node38</title>
<path fill="none" stroke="#63b8ff" d="M615.09,-417.98C625.49,-410 641.26,-397.88 653.72,-388.31"/>
<polygon fill="#63b8ff" stroke="#63b8ff" points="655.91,-391.04 661.71,-382.17 651.65,-385.49 655.91,-391.04"/>
</g>
<!-- Node41 -->
<g id="node41" class="node">
<title>Node41</title>
<g id="a_node41"><a xlink:href="value_8h.html" target="_top" xlink:title=" ">
<polygon fill="white" stroke="#666666" points="618.5,-382 533.5,-382 533.5,-363 618.5,-363 618.5,-382"/>
<text text-anchor="middle" x="576" y="-370" font-family="Helvetica,sans-Serif" font-size="10.00">ccf/kv/value.h</text>
</a>
</g>
</g>
<!-- Node37&#45;&gt;Node41 -->
<g id="edge66" class="edge">
<title>Node37&#45;&gt;Node41</title>
<path fill="none" stroke="#63b8ff" d="M599.38,-417.75C595.54,-410.49 589.98,-399.95 585.24,-390.98"/>
<polygon fill="#63b8ff" stroke="#63b8ff" points="588.3,-389.3 580.54,-382.09 582.11,-392.57 588.3,-389.3"/>
</g>
<!-- Node38&#45;&gt;Node18 -->
<g id="edge57" class="edge">
<title>Node38&#45;&gt;Node18</title>
<path fill="none" stroke="#63b8ff" d="M665.92,-362.87C658.76,-354.14 647.51,-340.43 638.61,-329.59"/>
<polygon fill="#63b8ff" stroke="#63b8ff" points="641.16,-327.18 632.11,-321.67 635.75,-331.62 641.16,-327.18"/>
</g>
<!-- Node38&#45;&gt;Node19 -->
<g id="edge58" class="edge">
<title>Node38&#45;&gt;Node19</title>
<path fill="none" stroke="#63b8ff" d="M709.6,-364.35C712.77,-363.85 715.94,-363.39 719,-363 776.9,-355.69 1203.17,-369.66 1243,-327 1258.59,-310.3 1248.84,-282.7 1239.58,-264.68"/>
<polygon fill="#63b8ff" stroke="#63b8ff" points="1242.56,-262.84 1234.65,-255.79 1236.44,-266.23 1242.56,-262.84"/>
</g>
<!-- Node38&#45;&gt;Node32 -->
<g id="edge59" class="edge">
<title>Node38&#45;&gt;Node32</title>
<path fill="none" stroke="#63b8ff" d="M636.3,-364.54C585.26,-354.83 494.49,-337.44 446.48,-327.25"/>
<polygon fill="#63b8ff" stroke="#63b8ff" points="447.15,-323.82 436.64,-325.13 445.68,-330.66 447.15,-323.82"/>
</g>
<!-- Node38&#45;&gt;Node33 -->
<g id="edge60" class="edge">
<title>Node38&#45;&gt;Node33</title>
<path fill="none" stroke="#63b8ff" d="M648.43,-362.99C623.89,-354.5 585.47,-341.2 554.42,-330.45"/>
<polygon fill="#63b8ff" stroke="#63b8ff" points="555.22,-327.03 544.63,-327.06 552.94,-333.64 555.22,-327.03"/>
</g>
<!-- Node38&#45;&gt;Node34 -->
<g id="edge65" class="edge">
<title>Node38&#45;&gt;Node34</title>
<path fill="none" stroke="#63b8ff" d="M709.61,-364.44C712.78,-363.92 715.94,-363.43 719,-363 884.81,-339.77 928.88,-354.71 1094,-327 1099.36,-326.1 1104.97,-324.98 1110.48,-323.77"/>
<polygon fill="#63b8ff" stroke="#63b8ff" points="1111.3,-327.17 1120.26,-321.52 1109.73,-320.35 1111.3,-327.17"/>
</g>
<!-- Node39 -->
<g id="node39" class="node">
<title>Node39</title>
<g id="a_node39"><a xlink:href="set__handle_8h.html" target="_top" xlink:title=" ">
<polygon fill="white" stroke="#666666" points="948.5,-321.5 837.5,-321.5 837.5,-302.5 948.5,-302.5 948.5,-321.5"/>
<text text-anchor="middle" x="893" y="-309.5" font-family="Helvetica,sans-Serif" font-size="10.00">ccf/kv/set_handle.h</text>
</a>
</g>
</g>
<!-- Node38&#45;&gt;Node39 -->
<g id="edge61" class="edge">
<title>Node38&#45;&gt;Node39</title>
<path fill="none" stroke="#63b8ff" d="M704.99,-362.99C743.6,-352.73 808.64,-335.43 851.2,-324.12"/>
<polygon fill="#63b8ff" stroke="#63b8ff" points="852.21,-327.47 860.97,-321.52 850.41,-320.7 852.21,-327.47"/>
</g>
<!-- Node39&#45;&gt;Node24 -->
<g id="edge64" class="edge">
<title>Node39&#45;&gt;Node24</title>
<path fill="none" stroke="#63b8ff" d="M894.35,-302.37C895.59,-294.4 897.5,-282.2 899.21,-271.27"/>
<polygon fill="#63b8ff" stroke="#63b8ff" points="902.67,-271.78 900.76,-261.36 895.75,-270.7 902.67,-271.78"/>
</g>
<!-- Node40 -->
<g id="node40" class="node">
<title>Node40</title>
<g id="a_node40"><a xlink:href="unit_8h.html" target="_top" xlink:title=" ">
<polygon fill="white" stroke="#666666" points="802.5,-255.5 725.5,-255.5 725.5,-236.5 802.5,-236.5 802.5,-255.5"/>
<text text-anchor="middle" x="764" y="-243.5" font-family="Helvetica,sans-Serif" font-size="10.00">ccf/kv/unit.h</text>
</a>
</g>
</g>
<!-- Node39&#45;&gt;Node40 -->
<g id="edge62" class="edge">
<title>Node39&#45;&gt;Node40</title>
<path fill="none" stroke="#63b8ff" d="M875.6,-302.37C853.77,-291.54 816.11,-272.85 790.64,-260.22"/>
<polygon fill="#63b8ff" stroke="#63b8ff" points="792.05,-257.01 781.53,-255.7 788.94,-263.28 792.05,-257.01"/>
</g>
<!-- Node40&#45;&gt;Node26 -->
<g id="edge63" class="edge">
<title>Node40&#45;&gt;Node26</title>
<path fill="none" stroke="#63b8ff" d="M764,-236.37C764,-228.49 764,-216.45 764,-205.6"/>
<polygon fill="#63b8ff" stroke="#63b8ff" points="767.5,-205.36 764,-195.36 760.5,-205.36 767.5,-205.36"/>
</g>
<!-- Node41&#45;&gt;Node18 -->
<g id="edge67" class="edge">
<title>Node41&#45;&gt;Node18</title>
<path fill="none" stroke="#63b8ff" d="M583.23,-362.87C590.54,-354.14 602.02,-340.43 611.1,-329.59"/>
<polygon fill="#63b8ff" stroke="#63b8ff" points="614,-331.58 617.74,-321.67 608.64,-327.09 614,-331.58"/>
</g>
<!-- Node41&#45;&gt;Node19 -->
<g id="edge68" class="edge">
<title>Node41&#45;&gt;Node19</title>
<path fill="none" stroke="#63b8ff" d="M618.53,-364.07C621.39,-363.68 624.24,-363.31 627,-363 691.48,-355.66 1160.35,-368.79 1210,-327 1227.55,-312.23 1230.55,-284.49 1230.36,-265.88"/>
<polygon fill="#63b8ff" stroke="#63b8ff" points="1233.85,-265.51 1229.92,-255.67 1226.85,-265.81 1233.85,-265.51"/>
</g>
<!-- Node41&#45;&gt;Node32 -->
<g id="edge69" class="edge">
<title>Node41&#45;&gt;Node32</title>
<path fill="none" stroke="#63b8ff" d="M548.52,-362.99C520.72,-354.39 476.99,-340.86 442.04,-330.04"/>
<polygon fill="#63b8ff" stroke="#63b8ff" points="443.03,-326.68 432.44,-327.06 440.96,-333.36 443.03,-326.68"/>
</g>
<!-- Node41&#45;&gt;Node33 -->
<g id="edge70" class="edge">
<title>Node41&#45;&gt;Node33</title>
<path fill="none" stroke="#63b8ff" d="M565.38,-362.87C555.88,-355.15 541.58,-343.54 529.18,-333.46"/>
<polygon fill="#63b8ff" stroke="#63b8ff" points="531.34,-330.7 521.37,-327.11 526.93,-336.14 531.34,-330.7"/>
</g>
<!-- Node41&#45;&gt;Node34 -->
<g id="edge71" class="edge">
<title>Node41&#45;&gt;Node34</title>
<path fill="none" stroke="#63b8ff" d="M618.54,-364.12C621.4,-363.72 624.24,-363.34 627,-363 833.65,-337.86 888.39,-359.53 1094,-327 1099.44,-326.14 1105.11,-325.03 1110.7,-323.82"/>
<polygon fill="#63b8ff" stroke="#63b8ff" points="1111.61,-327.2 1120.58,-321.55 1110.05,-320.38 1111.61,-327.2"/>
</g>
<!-- Node42 -->
<g id="node42" class="node">
<title>Node42</title>
<g id="a_node42"><a xlink:href="value__handle_8h.html" target="_top" xlink:title=" ">
<polygon fill="white" stroke="#666666" points="819.5,-321.5 696.5,-321.5 696.5,-302.5 819.5,-302.5 819.5,-321.5"/>
<text text-anchor="middle" x="758" y="-309.5" font-family="Helvetica,sans-Serif" font-size="10.00">ccf/kv/value_handle.h</text>
</a>
</g>
</g>
<!-- Node41&#45;&gt;Node42 -->
<g id="edge72" class="edge">
<title>Node41&#45;&gt;Node42</title>
<path fill="none" stroke="#63b8ff" d="M602.46,-362.99C633.87,-352.9 686.4,-336.01 721.62,-324.69"/>
<polygon fill="#63b8ff" stroke="#63b8ff" points="723.05,-327.91 731.5,-321.52 720.91,-321.24 723.05,-327.91"/>
</g>
<!-- Node42&#45;&gt;Node24 -->
<g id="edge74" class="edge">
<title>Node42&#45;&gt;Node24</title>
<path fill="none" stroke="#63b8ff" d="M777.56,-302.37C798.99,-292.91 834.01,-277.45 861.6,-265.27"/>
<polygon fill="#63b8ff" stroke="#63b8ff" points="863.28,-268.36 871.02,-261.12 860.46,-261.95 863.28,-268.36"/>
</g>
<!-- Node42&#45;&gt;Node40 -->
<g id="edge73" class="edge">
<title>Node42&#45;&gt;Node40</title>
<path fill="none" stroke="#63b8ff" d="M758.81,-302.37C759.68,-293.07 761.1,-277.98 762.23,-265.9"/>
<polygon fill="#63b8ff" stroke="#63b8ff" points="765.72,-266.19 763.17,-255.91 758.75,-265.53 765.72,-266.19"/>
</g>
</g>
</svg>
        <g id="navigator" transform="translate(0 0)" fill="#404254">
                <rect fill="#f2f5e9" fill-opacity="0.5" stroke="#606060" stroke-width=".5" x="0" y="0" width="60" height="60"/>
                <use id="zoomplus" xlink:href="#zoomPlus" x="17" y="9" onmousedown="handleZoom(evt,'in')"/>
                <use id="zoomminus" xlink:href="#zoomMin" x="42" y="9" onmousedown="handleZoom(evt,'out')"/>
                <use id="reset" xlink:href="#resetDef" x="30" y="36" onmousedown="handleReset()"/>
                <g id="arrowUp" xlink:href="#dirArrow" transform="translate(30 24)" onmousedown="handlePan(0,-1)">
                  <use xlink:href="#rim" fill="#404040">
                        <set attributeName="fill" to="#808080" begin="arrowUp.mouseover" end="arrowUp.mouseout"/>
                  </use>
                  <path fill="none" stroke="white" stroke-width="1.5" d="M0,-3.0v7 M-2.5,-0.5L0,-3.0L2.5,-0.5"/>
                </g>
                <g id="arrowRight" xlink:href="#dirArrow" transform="rotate(90) translate(36 -43)" onmousedown="handlePan(1,0)">
                  <use xlink:href="#rim" fill="#404040">
                        <set attributeName="fill" to="#808080" begin="arrowRight.mouseover" end="arrowRight.mouseout"/>
                  </use>
                  <path fill="none" stroke="white" stroke-width="1.5" d="M0,-3.0v7 M-2.5,-0.5L0,-3.0L2.5,-0.5"/>
                </g>
                <g id="arrowDown" xlink:href="#dirArrow" transform="rotate(180) translate(-30 -48)" onmousedown="handlePan(0,1)">
                  <use xlink:href="#rim" fill="#404040">
                        <set attributeName="fill" to="#808080" begin="arrowDown.mouseover" end="arrowDown.mouseout"/>
                  </use>
                  <path fill="none" stroke="white" stroke-width="1.5" d="M0,-3.0v7 M-2.5,-0.5L0,-3.0L2.5,-0.5"/>
                </g>
                <g id="arrowLeft" xlink:href="#dirArrow" transform="rotate(270) translate(-36 17)" onmousedown="handlePan(-1,0)">
                  <use xlink:href="#rim" fill="#404040">
                        <set attributeName="fill" to="#808080" begin="arrowLeft.mouseover" end="arrowLeft.mouseout"/>
                  </use>
                  <path fill="none" stroke="white" stroke-width="1.5" d="M0,-3.0v7 M-2.5,-0.5L0,-3.0L2.5,-0.5"/>
                </g>
        </g>
        <svg viewBox="0 0 15 15" width="100%" height="30px" preserveAspectRatio="xMaxYMin meet">
         <g id="arrow_out" transform="scale(0.3 0.3)">
          <a xlink:href="gov_8h__incl_org.svg" target="_base">
           <rect id="button" ry="5" rx="5" y="6" x="6" height="38" width="38"
                fill="#f2f5e9" fill-opacity="0.5" stroke="#606060" stroke-width="1.0"/>
           <path id="arrow"
             d="M 11.500037,31.436501 C 11.940474,20.09759 22.043105,11.32322 32.158766,21.979434 L 37.068811,17.246167 C 37.068811,17.246167 37.088388,32 37.088388,32 L 22.160133,31.978069 C 22.160133,31.978069 26.997745,27.140456 26.997745,27.140456 C 18.528582,18.264221 13.291696,25.230495 11.500037,31.436501 z"
             style="fill:#404040;"/>
          </a>
         </g>
        </svg>
</svg>
