<?xml version="1.0" encoding="UTF-8" standalone="no"?>
<!DOCTYPE svg PUBLIC "-//W3C//DTD SVG 1.1//EN"
 "http://www.w3.org/Graphics/SVG/1.1/DTD/svg11.dtd">
<!-- Generated by graphviz version 2.43.0 (0)
 -->
<!-- Title: src/service/tables/governance_history.h Pages: 1 -->
<svg width="1355pt" height="577pt"
 viewBox="0.00 0.00 1355.29 577.00" xmlns="http://www.w3.org/2000/svg" xmlns:xlink="http://www.w3.org/1999/xlink">
<g id="graph0" class="graph" transform="scale(1 1) rotate(0) translate(4 573)">
<title>src/service/tables/governance_history.h</title>
<!-- Node1 -->
<g id="node1" class="node">
<title>Node1</title>
<g id="a_node1"><a xlink:title=" ">
<polygon fill="#999999" stroke="#666666" points="459.5,-569 336.5,-569 336.5,-539 459.5,-539 459.5,-569"/>
<text text-anchor="start" x="344.5" y="-557" font-family="Helvetica,sans-Serif" font-size="10.00">src/service/tables</text>
<text text-anchor="middle" x="398" y="-546" font-family="Helvetica,sans-Serif" font-size="10.00">/governance_history.h</text>
</a>
</g>
</g>
<!-- Node2 -->
<g id="node2" class="node">
<title>Node2</title>
<g id="a_node2"><a xlink:href="entity__id_8h.html" target="_top" xlink:title=" ">
<polygon fill="white" stroke="#666666" points="481,-437 395,-437 395,-418 481,-418 481,-437"/>
<text text-anchor="middle" x="438" y="-425" font-family="Helvetica,sans-Serif" font-size="10.00">ccf/entity_id.h</text>
</a>
</g>
</g>
<!-- Node1&#45;&gt;Node2 -->
<g id="edge1" class="edge">
<title>Node1&#45;&gt;Node2</title>
<path fill="none" stroke="#63b8ff" d="M404.64,-538.78C409.09,-528.89 414.87,-515.32 419,-503 425.22,-484.44 430.55,-462.71 433.97,-447.52"/>
<polygon fill="#63b8ff" stroke="#63b8ff" points="437.48,-447.86 436.19,-437.34 430.64,-446.36 437.48,-447.86"/>
</g>
<!-- Node25 -->
<g id="node25" class="node">
<title>Node25</title>
<g id="a_node25"><a xlink:href="service_2map_8h.html" target="_top" xlink:title=" ">
<polygon fill="white" stroke="#666666" points="687.5,-437 584.5,-437 584.5,-418 687.5,-418 687.5,-437"/>
<text text-anchor="middle" x="636" y="-425" font-family="Helvetica,sans-Serif" font-size="10.00">ccf/service/map.h</text>
</a>
</g>
</g>
<!-- Node1&#45;&gt;Node25 -->
<g id="edge31" class="edge">
<title>Node1&#45;&gt;Node25</title>
<path fill="none" stroke="#63b8ff" d="M424.84,-538.96C471.15,-514.74 565.42,-465.42 610.67,-441.75"/>
<polygon fill="#63b8ff" stroke="#63b8ff" points="612.3,-444.85 619.54,-437.11 609.06,-438.64 612.3,-444.85"/>
</g>
<!-- Node43 -->
<g id="node43" class="node">
<title>Node43</title>
<g id="a_node43"><a xlink:href="signed__req_8h.html" target="_top" xlink:title=" ">
<polygon fill="white" stroke="#666666" points="176,-503 72,-503 72,-473 176,-473 176,-503"/>
<text text-anchor="start" x="80" y="-491" font-family="Helvetica,sans-Serif" font-size="10.00">ccf/service/signed</text>
<text text-anchor="middle" x="124" y="-480" font-family="Helvetica,sans-Serif" font-size="10.00">_req.h</text>
</a>
</g>
</g>
<!-- Node1&#45;&gt;Node43 -->
<g id="edge75" class="edge">
<title>Node1&#45;&gt;Node43</title>
<path fill="none" stroke="#63b8ff" d="M337.87,-538.95C292.81,-528.43 231.36,-514.08 185.88,-503.45"/>
<polygon fill="#63b8ff" stroke="#63b8ff" points="186.68,-500.05 176.14,-501.18 185.08,-506.86 186.68,-500.05"/>
</g>
<!-- Node45 -->
<g id="node45" class="node">
<title>Node45</title>
<g id="a_node45"><a xlink:href="proposals_8h.html" target="_top" xlink:title=" ">
<polygon fill="white" stroke="#666666" points="410,-503 308,-503 308,-473 410,-473 410,-503"/>
<text text-anchor="start" x="316" y="-491" font-family="Helvetica,sans-Serif" font-size="10.00">ccf/service/tables</text>
<text text-anchor="middle" x="359" y="-480" font-family="Helvetica,sans-Serif" font-size="10.00">/proposals.h</text>
</a>
</g>
</g>
<!-- Node1&#45;&gt;Node45 -->
<g id="edge80" class="edge">
<title>Node1&#45;&gt;Node45</title>
<path fill="none" stroke="#63b8ff" d="M389.34,-538.8C384.5,-530.84 378.34,-520.74 372.84,-511.71"/>
<polygon fill="#63b8ff" stroke="#63b8ff" points="375.82,-509.88 367.63,-503.16 369.85,-513.52 375.82,-509.88"/>
</g>
<!-- Node3 -->
<g id="node3" class="node">
<title>Node3</title>
<g id="a_node3"><a xlink:href="json_8h.html" target="_top" xlink:title=" ">
<polygon fill="white" stroke="#666666" points="216.5,-382 139.5,-382 139.5,-363 216.5,-363 216.5,-382"/>
<text text-anchor="middle" x="178" y="-370" font-family="Helvetica,sans-Serif" font-size="10.00">ccf/ds/json.h</text>
</a>
</g>
</g>
<!-- Node2&#45;&gt;Node3 -->
<g id="edge2" class="edge">
<title>Node2&#45;&gt;Node3</title>
<path fill="none" stroke="#63b8ff" d="M396.23,-417.98C349.99,-408.56 275.57,-393.39 226.72,-383.43"/>
<polygon fill="#63b8ff" stroke="#63b8ff" points="227.2,-379.96 216.7,-381.39 225.8,-386.82 227.2,-379.96"/>
</g>
<!-- Node5 -->
<g id="node5" class="node">
<title>Node5</title>
<g id="a_node5"><a xlink:title=" ">
<polygon fill="#e0e0e0" stroke="#999999" points="681,-189.5 637,-189.5 637,-170.5 681,-170.5 681,-189.5"/>
<text text-anchor="middle" x="659" y="-177.5" font-family="Helvetica,sans-Serif" font-size="10.00">string</text>
</a>
</g>
</g>
<!-- Node2&#45;&gt;Node5 -->
<g id="edge30" class="edge">
<title>Node2&#45;&gt;Node5</title>
<path fill="none" stroke="#63b8ff" d="M432.09,-417.96C421,-401.37 397.43,-363.19 389,-327 385.98,-314.01 384.41,-309.52 389,-297 395.63,-278.94 428.41,-240.74 445,-231 516.49,-189.04 549.04,-220.23 628,-195 629.44,-194.54 630.9,-194.03 632.37,-193.49"/>
<polygon fill="#63b8ff" stroke="#63b8ff" points="633.98,-196.61 641.9,-189.57 631.32,-190.14 633.98,-196.61"/>
</g>
<!-- Node18 -->
<g id="node18" class="node">
<title>Node18</title>
<g id="a_node18"><a xlink:href="blit__serialiser_8h.html" target="_top" xlink:title=" ">
<polygon fill="white" stroke="#666666" points="496.5,-327 397.5,-327 397.5,-297 496.5,-297 496.5,-327"/>
<text text-anchor="start" x="405.5" y="-315" font-family="Helvetica,sans-Serif" font-size="10.00">ccf/kv/serialisers</text>
<text text-anchor="middle" x="447" y="-304" font-family="Helvetica,sans-Serif" font-size="10.00">/blit_serialiser.h</text>
</a>
</g>
</g>
<!-- Node2&#45;&gt;Node18 -->
<g id="edge20" class="edge">
<title>Node2&#45;&gt;Node18</title>
<path fill="none" stroke="#63b8ff" d="M438.68,-417.97C440.02,-401.08 443.05,-362.85 445.06,-337.48"/>
<polygon fill="#63b8ff" stroke="#63b8ff" points="448.57,-337.43 445.88,-327.18 441.6,-336.87 448.57,-337.43"/>
</g>
<!-- Node4 -->
<g id="node4" class="node">
<title>Node4</title>
<g id="a_node4"><a xlink:href="include_2ccf_2crypto_2base64_8h.html" target="_top" xlink:title=" ">
<polygon fill="white" stroke="#666666" points="252,-255.5 140,-255.5 140,-236.5 252,-236.5 252,-255.5"/>
<text text-anchor="middle" x="196" y="-243.5" font-family="Helvetica,sans-Serif" font-size="10.00">ccf/crypto/base64.h</text>
</a>
</g>
</g>
<!-- Node3&#45;&gt;Node4 -->
<g id="edge3" class="edge">
<title>Node3&#45;&gt;Node4</title>
<path fill="none" stroke="#63b8ff" d="M179.24,-362.94C182.11,-343.04 189.31,-293.26 193.28,-265.85"/>
<polygon fill="#63b8ff" stroke="#63b8ff" points="196.79,-266.02 194.75,-255.62 189.86,-265.01 196.79,-266.02"/>
</g>
<!-- Node7 -->
<g id="node7" class="node">
<title>Node7</title>
<g id="a_node7"><a xlink:href="include_2ccf_2ds_2json__schema_8h.html" target="_top" xlink:title=" ">
<polygon fill="white" stroke="#666666" points="340.5,-321.5 219.5,-321.5 219.5,-302.5 340.5,-302.5 340.5,-321.5"/>
<text text-anchor="middle" x="280" y="-309.5" font-family="Helvetica,sans-Serif" font-size="10.00">ccf/ds/json_schema.h</text>
</a>
</g>
</g>
<!-- Node3&#45;&gt;Node7 -->
<g id="edge6" class="edge">
<title>Node3&#45;&gt;Node7</title>
<path fill="none" stroke="#63b8ff" d="M193.05,-362.87C209.62,-353.36 236.5,-337.95 255.99,-326.77"/>
<polygon fill="#63b8ff" stroke="#63b8ff" points="257.95,-329.68 264.89,-321.67 254.47,-323.61 257.95,-329.68"/>
</g>
<!-- Node15 -->
<g id="node15" class="node">
<title>Node15</title>
<g id="a_node15"><a xlink:title=" ">
<polygon fill="#e0e0e0" stroke="#999999" points="192.5,-74 113.5,-74 113.5,-55 192.5,-55 192.5,-74"/>
<text text-anchor="middle" x="153" y="-62" font-family="Helvetica,sans-Serif" font-size="10.00">fmt/format.h</text>
</a>
</g>
</g>
<!-- Node3&#45;&gt;Node15 -->
<g id="edge18" class="edge">
<title>Node3&#45;&gt;Node15</title>
<path fill="none" stroke="#63b8ff" d="M172.81,-362.73C162.38,-344.54 139.16,-301.04 131,-261 117.89,-196.68 136.87,-118.74 147.14,-83.89"/>
<polygon fill="#63b8ff" stroke="#63b8ff" points="150.54,-84.75 150.12,-74.16 143.84,-82.7 150.54,-84.75"/>
</g>
<!-- Node17 -->
<g id="node17" class="node">
<title>Node17</title>
<g id="a_node17"><a xlink:title=" ">
<polygon fill="#e0e0e0" stroke="#999999" points="122,-321.5 66,-321.5 66,-302.5 122,-302.5 122,-321.5"/>
<text text-anchor="middle" x="94" y="-309.5" font-family="Helvetica,sans-Serif" font-size="10.00">sstream</text>
</a>
</g>
</g>
<!-- Node3&#45;&gt;Node17 -->
<g id="edge19" class="edge">
<title>Node3&#45;&gt;Node17</title>
<path fill="none" stroke="#63b8ff" d="M165.61,-362.87C152.21,-353.54 130.62,-338.51 114.65,-327.38"/>
<polygon fill="#63b8ff" stroke="#63b8ff" points="116.65,-324.51 106.45,-321.67 112.65,-330.25 116.65,-324.51"/>
</g>
<!-- Node4&#45;&gt;Node5 -->
<g id="edge4" class="edge">
<title>Node4&#45;&gt;Node5</title>
<path fill="none" stroke="#63b8ff" d="M252.1,-237.1C267.3,-235.04 283.77,-232.87 299,-231 445,-213.09 486.1,-233.75 628,-195 629.68,-194.54 631.39,-194 633.1,-193.4"/>
<polygon fill="#63b8ff" stroke="#63b8ff" points="634.67,-196.54 642.63,-189.55 632.04,-190.05 634.67,-196.54"/>
</g>
<!-- Node6 -->
<g id="node6" class="node">
<title>Node6</title>
<g id="a_node6"><a xlink:title=" ">
<polygon fill="#e0e0e0" stroke="#999999" points="99.5,-19 52.5,-19 52.5,0 99.5,0 99.5,-19"/>
<text text-anchor="middle" x="76" y="-7" font-family="Helvetica,sans-Serif" font-size="10.00">vector</text>
</a>
</g>
</g>
<!-- Node4&#45;&gt;Node6 -->
<g id="edge5" class="edge">
<title>Node4&#45;&gt;Node6</title>
<path fill="none" stroke="#63b8ff" d="M191.2,-236.16C185.78,-226.18 176.72,-209.44 169,-195 140.32,-141.35 131.87,-128.58 105,-74 97.56,-58.88 89.64,-41.45 83.97,-28.68"/>
<polygon fill="#63b8ff" stroke="#63b8ff" points="87.02,-26.94 79.78,-19.2 80.62,-29.76 87.02,-26.94"/>
</g>
<!-- Node8 -->
<g id="node8" class="node">
<title>Node8</title>
<g id="a_node8"><a xlink:href="nonstd_8h.html" target="_top" xlink:title=" ">
<polygon fill="white" stroke="#666666" points="398,-255.5 308,-255.5 308,-236.5 398,-236.5 398,-255.5"/>
<text text-anchor="middle" x="353" y="-243.5" font-family="Helvetica,sans-Serif" font-size="10.00">ccf/ds/nonstd.h</text>
</a>
</g>
</g>
<!-- Node7&#45;&gt;Node8 -->
<g id="edge7" class="edge">
<title>Node7&#45;&gt;Node8</title>
<path fill="none" stroke="#63b8ff" d="M289.85,-302.37C301.43,-292.21 320.88,-275.16 335.14,-262.65"/>
<polygon fill="#63b8ff" stroke="#63b8ff" points="337.63,-265.13 342.84,-255.91 333.02,-259.87 337.63,-265.13"/>
</g>
<!-- Node14 -->
<g id="node14" class="node">
<title>Node14</title>
<g id="a_node14"><a xlink:title=" ">
<polygon fill="#e0e0e0" stroke="#999999" points="888,-189.5 832,-189.5 832,-170.5 888,-170.5 888,-189.5"/>
<text text-anchor="middle" x="860" y="-177.5" font-family="Helvetica,sans-Serif" font-size="10.00">optional</text>
</a>
</g>
</g>
<!-- Node7&#45;&gt;Node14 -->
<g id="edge15" class="edge">
<title>Node7&#45;&gt;Node14</title>
<path fill="none" stroke="#63b8ff" d="M339.51,-302.49C398.93,-293.6 492.71,-278.54 573,-261 684.01,-236.75 711.41,-228.46 820,-195 822.25,-194.31 824.57,-193.57 826.9,-192.8"/>
<polygon fill="#63b8ff" stroke="#63b8ff" points="828.06,-196.11 836.41,-189.59 825.81,-189.47 828.06,-196.11"/>
</g>
<!-- Node7&#45;&gt;Node15 -->
<g id="edge16" class="edge">
<title>Node7&#45;&gt;Node15</title>
<path fill="none" stroke="#63b8ff" d="M279.96,-302.47C279.49,-286.9 276.57,-253.38 261,-231 244.52,-207.32 225.34,-217.27 207,-195 179.22,-161.27 163.86,-111.23 157.15,-84.3"/>
<polygon fill="#63b8ff" stroke="#63b8ff" points="160.49,-83.21 154.8,-74.28 153.68,-84.82 160.49,-83.21"/>
</g>
<!-- Node16 -->
<g id="node16" class="node">
<title>Node16</title>
<g id="a_node16"><a xlink:title=" ">
<polygon fill="#e0e0e0" stroke="#999999" points="564,-255.5 454,-255.5 454,-236.5 564,-236.5 564,-255.5"/>
<text text-anchor="middle" x="509" y="-243.5" font-family="Helvetica,sans-Serif" font-size="10.00">nlohmann/json.hpp</text>
</a>
</g>
</g>
<!-- Node7&#45;&gt;Node16 -->
<g id="edge17" class="edge">
<title>Node7&#45;&gt;Node16</title>
<path fill="none" stroke="#63b8ff" d="M310.88,-302.37C351.63,-290.98 423.44,-270.91 468.5,-258.32"/>
<polygon fill="#63b8ff" stroke="#63b8ff" points="469.55,-261.66 478.24,-255.6 467.67,-254.92 469.55,-261.66"/>
</g>
<!-- Node8&#45;&gt;Node5 -->
<g id="edge11" class="edge">
<title>Node8&#45;&gt;Node5</title>
<path fill="none" stroke="#63b8ff" d="M387.23,-236.46C395.33,-234.56 403.95,-232.62 412,-231 507.4,-211.75 534.87,-223.27 628,-195 629.63,-194.5 631.29,-193.94 632.95,-193.34"/>
<polygon fill="#63b8ff" stroke="#63b8ff" points="634.33,-196.55 642.25,-189.52 631.67,-190.08 634.33,-196.55"/>
</g>
<!-- Node8&#45;&gt;Node6 -->
<g id="edge14" class="edge">
<title>Node8&#45;&gt;Node6</title>
<path fill="none" stroke="#63b8ff" d="M313.67,-236.44C289.51,-229.24 259.7,-216.55 241,-195 198.59,-146.12 245.28,-102.19 201,-55 177.24,-29.68 138.12,-18.75 109.97,-14.04"/>
<polygon fill="#63b8ff" stroke="#63b8ff" points="110.18,-10.53 99.77,-12.52 109.15,-17.46 110.18,-10.53"/>
</g>
<!-- Node9 -->
<g id="node9" class="node">
<title>Node9</title>
<g id="a_node9"><a xlink:title=" ">
<polygon fill="#e0e0e0" stroke="#999999" points="559,-189.5 495,-189.5 495,-170.5 559,-170.5 559,-189.5"/>
<text text-anchor="middle" x="527" y="-177.5" font-family="Helvetica,sans-Serif" font-size="10.00">algorithm</text>
</a>
</g>
</g>
<!-- Node8&#45;&gt;Node9 -->
<g id="edge8" class="edge">
<title>Node8&#45;&gt;Node9</title>
<path fill="none" stroke="#63b8ff" d="M376.47,-236.37C406.78,-225.22 459.71,-205.75 494.04,-193.12"/>
<polygon fill="#63b8ff" stroke="#63b8ff" points="495.45,-196.33 503.63,-189.6 493.03,-189.76 495.45,-196.33"/>
</g>
<!-- Node10 -->
<g id="node10" class="node">
<title>Node10</title>
<g id="a_node10"><a xlink:title=" ">
<polygon fill="#e0e0e0" stroke="#999999" points="619,-189.5 577,-189.5 577,-170.5 619,-170.5 619,-189.5"/>
<text text-anchor="middle" x="598" y="-177.5" font-family="Helvetica,sans-Serif" font-size="10.00">array</text>
</a>
</g>
</g>
<!-- Node8&#45;&gt;Node10 -->
<g id="edge9" class="edge">
<title>Node8&#45;&gt;Node10</title>
<path fill="none" stroke="#63b8ff" d="M388.87,-236.45C396.5,-234.64 404.52,-232.75 412,-231 481.28,-214.79 500.72,-218.17 568,-195 569.22,-194.58 570.46,-194.12 571.71,-193.64"/>
<polygon fill="#63b8ff" stroke="#63b8ff" points="573.3,-196.77 581.12,-189.63 570.55,-190.33 573.3,-196.77"/>
</g>
<!-- Node11 -->
<g id="node11" class="node">
<title>Node11</title>
<g id="a_node11"><a xlink:title=" ">
<polygon fill="#e0e0e0" stroke="#999999" points="298.5,-189.5 249.5,-189.5 249.5,-170.5 298.5,-170.5 298.5,-189.5"/>
<text text-anchor="middle" x="274" y="-177.5" font-family="Helvetica,sans-Serif" font-size="10.00">cctype</text>
</a>
</g>
</g>
<!-- Node8&#45;&gt;Node11 -->
<g id="edge10" class="edge">
<title>Node8&#45;&gt;Node11</title>
<path fill="none" stroke="#63b8ff" d="M342.35,-236.37C329.62,-226.06 308.12,-208.65 292.63,-196.09"/>
<polygon fill="#63b8ff" stroke="#63b8ff" points="294.71,-193.27 284.74,-189.7 290.3,-198.71 294.71,-193.27"/>
</g>
<!-- Node12 -->
<g id="node12" class="node">
<title>Node12</title>
<g id="a_node12"><a xlink:title=" ">
<polygon fill="#e0e0e0" stroke="#999999" points="389.5,-189.5 316.5,-189.5 316.5,-170.5 389.5,-170.5 389.5,-189.5"/>
<text text-anchor="middle" x="353" y="-177.5" font-family="Helvetica,sans-Serif" font-size="10.00">string_view</text>
</a>
</g>
</g>
<!-- Node8&#45;&gt;Node12 -->
<g id="edge12" class="edge">
<title>Node8&#45;&gt;Node12</title>
<path fill="none" stroke="#63b8ff" d="M353,-236.37C353,-227.16 353,-212.29 353,-200.27"/>
<polygon fill="#63b8ff" stroke="#63b8ff" points="356.5,-199.91 353,-189.91 349.5,-199.91 356.5,-199.91"/>
</g>
<!-- Node13 -->
<g id="node13" class="node">
<title>Node13</title>
<g id="a_node13"><a xlink:title=" ">
<polygon fill="#e0e0e0" stroke="#999999" points="476.5,-189.5 407.5,-189.5 407.5,-170.5 476.5,-170.5 476.5,-189.5"/>
<text text-anchor="middle" x="442" y="-177.5" font-family="Helvetica,sans-Serif" font-size="10.00">type_traits</text>
</a>
</g>
</g>
<!-- Node8&#45;&gt;Node13 -->
<g id="edge13" class="edge">
<title>Node8&#45;&gt;Node13</title>
<path fill="none" stroke="#63b8ff" d="M365,-236.37C379.47,-225.97 404.01,-208.32 421.49,-195.75"/>
<polygon fill="#63b8ff" stroke="#63b8ff" points="423.83,-198.38 429.9,-189.7 419.74,-192.7 423.83,-198.38"/>
</g>
<!-- Node18&#45;&gt;Node8 -->
<g id="edge21" class="edge">
<title>Node18&#45;&gt;Node8</title>
<path fill="none" stroke="#63b8ff" d="M426.14,-296.8C410.68,-286.27 389.68,-271.97 374.15,-261.4"/>
<polygon fill="#63b8ff" stroke="#63b8ff" points="375.95,-258.39 365.72,-255.66 372.01,-264.18 375.95,-258.39"/>
</g>
<!-- Node19 -->
<g id="node19" class="node">
<title>Node19</title>
<g id="a_node19"><a xlink:href="serialised__entry_8h.html" target="_top" xlink:title=" ">
<polygon fill="white" stroke="#666666" points="810.5,-195 705.5,-195 705.5,-165 810.5,-165 810.5,-195"/>
<text text-anchor="start" x="713.5" y="-183" font-family="Helvetica,sans-Serif" font-size="10.00">ccf/kv/serialisers</text>
<text text-anchor="middle" x="758" y="-172" font-family="Helvetica,sans-Serif" font-size="10.00">/serialised_entry.h</text>
</a>
</g>
</g>
<!-- Node18&#45;&gt;Node19 -->
<g id="edge22" class="edge">
<title>Node18&#45;&gt;Node19</title>
<path fill="none" stroke="#63b8ff" d="M483.86,-296.92C509.08,-287.15 543.22,-273.67 573,-261 602.65,-248.39 609.48,-243.91 639,-231 663.88,-220.12 691.87,-208.34 714.46,-198.94"/>
<polygon fill="#63b8ff" stroke="#63b8ff" points="715.88,-202.14 723.78,-195.07 713.2,-195.67 715.88,-202.14"/>
</g>
<!-- Node20 -->
<g id="node20" class="node">
<title>Node20</title>
<g id="a_node20"><a xlink:href="byte__vector_8h.html" target="_top" xlink:title=" ">
<polygon fill="white" stroke="#666666" points="418,-129 318,-129 318,-110 418,-110 418,-129"/>
<text text-anchor="middle" x="368" y="-117" font-family="Helvetica,sans-Serif" font-size="10.00">ccf/byte_vector.h</text>
</a>
</g>
</g>
<!-- Node19&#45;&gt;Node20 -->
<g id="edge23" class="edge">
<title>Node19&#45;&gt;Node20</title>
<path fill="none" stroke="#63b8ff" d="M705.35,-167.8C700.17,-166.81 694.99,-165.86 690,-165 599.06,-149.37 492.94,-135.55 428.12,-127.61"/>
<polygon fill="#63b8ff" stroke="#63b8ff" points="428.43,-124.12 418.08,-126.39 427.58,-131.07 428.43,-124.12"/>
</g>
<!-- Node20&#45;&gt;Node15 -->
<g id="edge28" class="edge">
<title>Node20&#45;&gt;Node15</title>
<path fill="none" stroke="#63b8ff" d="M333.46,-109.98C296.58,-100.89 238.01,-86.46 197.66,-76.51"/>
<polygon fill="#63b8ff" stroke="#63b8ff" points="198.36,-73.08 187.81,-74.08 196.69,-79.87 198.36,-73.08"/>
</g>
<!-- Node21 -->
<g id="node21" class="node">
<title>Node21</title>
<g id="a_node21"><a xlink:href="siphash_8h.html" target="_top" xlink:title=" ">
<polygon fill="white" stroke="#666666" points="344.5,-74 249.5,-74 249.5,-55 344.5,-55 344.5,-74"/>
<text text-anchor="middle" x="297" y="-62" font-family="Helvetica,sans-Serif" font-size="10.00">ccf/ds/siphash.h</text>
</a>
</g>
</g>
<!-- Node20&#45;&gt;Node21 -->
<g id="edge24" class="edge">
<title>Node20&#45;&gt;Node21</title>
<path fill="none" stroke="#63b8ff" d="M356.59,-109.98C345.89,-102 329.66,-89.88 316.84,-80.31"/>
<polygon fill="#63b8ff" stroke="#63b8ff" points="318.72,-77.35 308.61,-74.17 314.53,-82.96 318.72,-77.35"/>
</g>
<!-- Node24 -->
<g id="node24" class="node">
<title>Node24</title>
<g id="a_node24"><a xlink:title=" ">
<polygon fill="#e0e0e0" stroke="#999999" points="511.5,-74 362.5,-74 362.5,-55 511.5,-55 511.5,-74"/>
<text text-anchor="middle" x="437" y="-62" font-family="Helvetica,sans-Serif" font-size="10.00">small_vector/SmallVector.h</text>
</a>
</g>
</g>
<!-- Node20&#45;&gt;Node24 -->
<g id="edge29" class="edge">
<title>Node20&#45;&gt;Node24</title>
<path fill="none" stroke="#63b8ff" d="M379.09,-109.98C389.49,-102 405.26,-89.88 417.72,-80.31"/>
<polygon fill="#63b8ff" stroke="#63b8ff" points="419.91,-83.04 425.71,-74.17 415.65,-77.49 419.91,-83.04"/>
</g>
<!-- Node21&#45;&gt;Node6 -->
<g id="edge27" class="edge">
<title>Node21&#45;&gt;Node6</title>
<path fill="none" stroke="#63b8ff" d="M261.49,-54.98C219.54,-44.92 150.27,-28.31 109.3,-18.49"/>
<polygon fill="#63b8ff" stroke="#63b8ff" points="110.07,-15.07 99.53,-16.14 108.44,-21.88 110.07,-15.07"/>
</g>
<!-- Node22 -->
<g id="node22" class="node">
<title>Node22</title>
<g id="a_node22"><a xlink:title=" ">
<polygon fill="#e0e0e0" stroke="#999999" points="288.5,-19 235.5,-19 235.5,0 288.5,0 288.5,-19"/>
<text text-anchor="middle" x="262" y="-7" font-family="Helvetica,sans-Serif" font-size="10.00">cstddef</text>
</a>
</g>
</g>
<!-- Node21&#45;&gt;Node22 -->
<g id="edge25" class="edge">
<title>Node21&#45;&gt;Node22</title>
<path fill="none" stroke="#63b8ff" d="M291.22,-54.75C286.38,-47.42 279.32,-36.73 273.36,-27.7"/>
<polygon fill="#63b8ff" stroke="#63b8ff" points="276.1,-25.5 267.67,-19.09 270.26,-29.36 276.1,-25.5"/>
</g>
<!-- Node23 -->
<g id="node23" class="node">
<title>Node23</title>
<g id="a_node23"><a xlink:title=" ">
<polygon fill="#e0e0e0" stroke="#999999" points="357,-19 307,-19 307,0 357,0 357,-19"/>
<text text-anchor="middle" x="332" y="-7" font-family="Helvetica,sans-Serif" font-size="10.00">cstdint</text>
</a>
</g>
</g>
<!-- Node21&#45;&gt;Node23 -->
<g id="edge26" class="edge">
<title>Node21&#45;&gt;Node23</title>
<path fill="none" stroke="#63b8ff" d="M302.78,-54.75C307.62,-47.42 314.68,-36.73 320.64,-27.7"/>
<polygon fill="#63b8ff" stroke="#63b8ff" points="323.74,-29.36 326.33,-19.09 317.9,-25.5 323.74,-29.36"/>
</g>
<!-- Node26 -->
<g id="node26" class="node">
<title>Node26</title>
<g id="a_node26"><a xlink:href="kv_2map_8h.html" target="_top" xlink:title=" ">
<polygon fill="white" stroke="#666666" points="868,-382 788,-382 788,-363 868,-363 868,-382"/>
<text text-anchor="middle" x="828" y="-370" font-family="Helvetica,sans-Serif" font-size="10.00">ccf/kv/map.h</text>
</a>
</g>
</g>
<!-- Node25&#45;&gt;Node26 -->
<g id="edge32" class="edge">
<title>Node25&#45;&gt;Node26</title>
<path fill="none" stroke="#63b8ff" d="M666.85,-417.98C699.5,-408.97 751.2,-394.7 787.2,-384.76"/>
<polygon fill="#63b8ff" stroke="#63b8ff" points="788.2,-388.12 796.91,-382.08 786.34,-381.37 788.2,-388.12"/>
</g>
<!-- Node38 -->
<g id="node38" class="node">
<title>Node38</title>
<g id="a_node38"><a xlink:href="set_8h.html" target="_top" xlink:title=" ">
<polygon fill="white" stroke="#666666" points="769.5,-382 696.5,-382 696.5,-363 769.5,-363 769.5,-382"/>
<text text-anchor="middle" x="733" y="-370" font-family="Helvetica,sans-Serif" font-size="10.00">ccf/kv/set.h</text>
</a>
</g>
</g>
<!-- Node25&#45;&gt;Node38 -->
<g id="edge56" class="edge">
<title>Node25&#45;&gt;Node38</title>
<path fill="none" stroke="#63b8ff" d="M651.58,-417.98C666.77,-409.69 690.1,-396.94 707.9,-387.22"/>
<polygon fill="#63b8ff" stroke="#63b8ff" points="710.03,-390.04 717.13,-382.17 706.68,-383.89 710.03,-390.04"/>
</g>
<!-- Node41 -->
<g id="node41" class="node">
<title>Node41</title>
<g id="a_node41"><a xlink:href="value_8h.html" target="_top" xlink:title=" ">
<polygon fill="white" stroke="#666666" points="678.5,-382 593.5,-382 593.5,-363 678.5,-363 678.5,-382"/>
<text text-anchor="middle" x="636" y="-370" font-family="Helvetica,sans-Serif" font-size="10.00">ccf/kv/value.h</text>
</a>
</g>
</g>
<!-- Node25&#45;&gt;Node41 -->
<g id="edge66" class="edge">
<title>Node25&#45;&gt;Node41</title>
<path fill="none" stroke="#63b8ff" d="M636,-417.75C636,-410.8 636,-400.85 636,-392.13"/>
<polygon fill="#63b8ff" stroke="#63b8ff" points="639.5,-392.09 636,-382.09 632.5,-392.09 639.5,-392.09"/>
</g>
<!-- Node26&#45;&gt;Node18 -->
<g id="edge47" class="edge">
<title>Node26&#45;&gt;Node18</title>
<path fill="none" stroke="#63b8ff" d="M787.91,-364.41C784.9,-363.92 781.9,-363.44 779,-363 661.21,-345.02 628.09,-348.93 506.86,-327.03"/>
<polygon fill="#63b8ff" stroke="#63b8ff" points="507.28,-323.55 496.82,-325.2 506.03,-330.44 507.28,-323.55"/>
</g>
<!-- Node27 -->
<g id="node27" class="node">
<title>Node27</title>
<g id="a_node27"><a xlink:href="get__name_8h.html" target="_top" xlink:title=" ">
<polygon fill="white" stroke="#666666" points="738.5,-321.5 631.5,-321.5 631.5,-302.5 738.5,-302.5 738.5,-321.5"/>
<text text-anchor="middle" x="685" y="-309.5" font-family="Helvetica,sans-Serif" font-size="10.00">ccf/kv/get_name.h</text>
</a>
</g>
</g>
<!-- Node26&#45;&gt;Node27 -->
<g id="edge33" class="edge">
<title>Node26&#45;&gt;Node27</title>
<path fill="none" stroke="#63b8ff" d="M807.21,-362.99C783.06,-353.12 743.02,-336.73 715.38,-325.43"/>
<polygon fill="#63b8ff" stroke="#63b8ff" points="716.4,-322.06 705.82,-321.52 713.75,-328.54 716.4,-322.06"/>
</g>
<!-- Node28 -->
<g id="node28" class="node">
<title>Node28</title>
<g id="a_node28"><a xlink:href="include_2ccf_2kv_2hooks_8h.html" target="_top" xlink:title=" ">
<polygon fill="white" stroke="#666666" points="1331.5,-255.5 1244.5,-255.5 1244.5,-236.5 1331.5,-236.5 1331.5,-255.5"/>
<text text-anchor="middle" x="1288" y="-243.5" font-family="Helvetica,sans-Serif" font-size="10.00">ccf/kv/hooks.h</text>
</a>
</g>
</g>
<!-- Node26&#45;&gt;Node28 -->
<g id="edge35" class="edge">
<title>Node26&#45;&gt;Node28</title>
<path fill="none" stroke="#63b8ff" d="M868.25,-371.06C983.62,-369.39 1309.24,-361.63 1341,-327 1359.89,-306.4 1331.27,-278.45 1309.29,-261.63"/>
<polygon fill="#63b8ff" stroke="#63b8ff" points="1311.15,-258.65 1301.02,-255.56 1307.01,-264.29 1311.15,-258.65"/>
</g>
<!-- Node32 -->
<g id="node32" class="node">
<title>Node32</title>
<g id="a_node32"><a xlink:href="map__handle_8h.html" target="_top" xlink:title=" ">
<polygon fill="white" stroke="#666666" points="1261,-321.5 1143,-321.5 1143,-302.5 1261,-302.5 1261,-321.5"/>
<text text-anchor="middle" x="1202" y="-309.5" font-family="Helvetica,sans-Serif" font-size="10.00">ccf/kv/map_handle.h</text>
</a>
</g>
</g>
<!-- Node26&#45;&gt;Node32 -->
<g id="edge39" class="edge">
<title>Node26&#45;&gt;Node32</title>
<path fill="none" stroke="#63b8ff" d="M868.22,-366.42C926.83,-358.83 1039.09,-343.66 1134,-327 1139.93,-325.96 1146.14,-324.79 1152.29,-323.59"/>
<polygon fill="#63b8ff" stroke="#63b8ff" points="1153.4,-326.93 1162.52,-321.54 1152.03,-320.07 1153.4,-326.93"/>
</g>
<!-- Node35 -->
<g id="node35" class="node">
<title>Node35</title>
<g id="a_node35"><a xlink:href="json__serialiser_8h.html" target="_top" xlink:title=" ">
<polygon fill="white" stroke="#666666" points="613.5,-327 514.5,-327 514.5,-297 613.5,-297 613.5,-327"/>
<text text-anchor="start" x="522.5" y="-315" font-family="Helvetica,sans-Serif" font-size="10.00">ccf/kv/serialisers</text>
<text text-anchor="middle" x="564" y="-304" font-family="Helvetica,sans-Serif" font-size="10.00">/json_serialiser.h</text>
</a>
</g>
</g>
<!-- Node26&#45;&gt;Node35 -->
<g id="edge48" class="edge">
<title>Node26&#45;&gt;Node35</title>
<path fill="none" stroke="#63b8ff" d="M787.88,-363.03C748.54,-354.67 686.6,-341.37 623.31,-327.05"/>
<polygon fill="#63b8ff" stroke="#63b8ff" points="624.09,-323.63 613.56,-324.83 622.54,-330.46 624.09,-323.63"/>
</g>
<!-- Node36 -->
<g id="node36" class="node">
<title>Node36</title>
<g id="a_node36"><a xlink:href="untyped_8h.html" target="_top" xlink:title=" ">
<polygon fill="white" stroke="#666666" points="1125,-321.5 1027,-321.5 1027,-302.5 1125,-302.5 1125,-321.5"/>
<text text-anchor="middle" x="1076" y="-309.5" font-family="Helvetica,sans-Serif" font-size="10.00">ccf/kv/untyped.h</text>
</a>
</g>
</g>
<!-- Node26&#45;&gt;Node36 -->
<g id="edge51" class="edge">
<title>Node26&#45;&gt;Node36</title>
<path fill="none" stroke="#63b8ff" d="M864.8,-362.96C903.08,-354.06 964.77,-339.66 1018,-327 1022.14,-326.02 1026.44,-324.99 1030.75,-323.95"/>
<polygon fill="#63b8ff" stroke="#63b8ff" points="1031.83,-327.29 1040.74,-321.55 1030.2,-320.49 1031.83,-327.29"/>
</g>
<!-- Node27&#45;&gt;Node5 -->
<g id="edge34" class="edge">
<title>Node27&#45;&gt;Node5</title>
<path fill="none" stroke="#63b8ff" d="M683.29,-302.47C679.15,-281.73 668.45,-228.24 662.73,-199.66"/>
<polygon fill="#63b8ff" stroke="#63b8ff" points="666.14,-198.85 660.75,-189.73 659.28,-200.22 666.14,-198.85"/>
</g>
<!-- Node29 -->
<g id="node29" class="node">
<title>Node29</title>
<g id="a_node29"><a xlink:href="version_8h.html" target="_top" xlink:title=" ">
<polygon fill="white" stroke="#666666" points="1156,-189.5 1062,-189.5 1062,-170.5 1156,-170.5 1156,-189.5"/>
<text text-anchor="middle" x="1109" y="-177.5" font-family="Helvetica,sans-Serif" font-size="10.00">ccf/kv/version.h</text>
</a>
</g>
</g>
<!-- Node28&#45;&gt;Node29 -->
<g id="edge36" class="edge">
<title>Node28&#45;&gt;Node29</title>
<path fill="none" stroke="#63b8ff" d="M1263.86,-236.37C1232.68,-225.22 1178.23,-205.75 1142.9,-193.12"/>
<polygon fill="#63b8ff" stroke="#63b8ff" points="1143.64,-189.67 1133.04,-189.6 1141.28,-196.26 1143.64,-189.67"/>
</g>
<!-- Node30 -->
<g id="node30" class="node">
<title>Node30</title>
<g id="a_node30"><a xlink:title=" ">
<polygon fill="#e0e0e0" stroke="#999999" points="1240.5,-189.5 1175.5,-189.5 1175.5,-170.5 1240.5,-170.5 1240.5,-189.5"/>
<text text-anchor="middle" x="1208" y="-177.5" font-family="Helvetica,sans-Serif" font-size="10.00">functional</text>
</a>
</g>
</g>
<!-- Node28&#45;&gt;Node30 -->
<g id="edge37" class="edge">
<title>Node28&#45;&gt;Node30</title>
<path fill="none" stroke="#63b8ff" d="M1277.21,-236.37C1264.33,-226.06 1242.56,-208.65 1226.87,-196.09"/>
<polygon fill="#63b8ff" stroke="#63b8ff" points="1228.87,-193.21 1218.87,-189.7 1224.5,-198.68 1228.87,-193.21"/>
</g>
<!-- Node31 -->
<g id="node31" class="node">
<title>Node31</title>
<g id="a_node31"><a xlink:title=" ">
<polygon fill="#e0e0e0" stroke="#999999" points="1317,-189.5 1259,-189.5 1259,-170.5 1317,-170.5 1317,-189.5"/>
<text text-anchor="middle" x="1288" y="-177.5" font-family="Helvetica,sans-Serif" font-size="10.00">memory</text>
</a>
</g>
</g>
<!-- Node28&#45;&gt;Node31 -->
<g id="edge38" class="edge">
<title>Node28&#45;&gt;Node31</title>
<path fill="none" stroke="#63b8ff" d="M1288,-236.37C1288,-227.16 1288,-212.29 1288,-200.27"/>
<polygon fill="#63b8ff" stroke="#63b8ff" points="1291.5,-199.91 1288,-189.91 1284.5,-199.91 1291.5,-199.91"/>
</g>
<!-- Node33 -->
<g id="node33" class="node">
<title>Node33</title>
<g id="a_node33"><a xlink:href="untyped__map__handle_8h.html" target="_top" xlink:title=" ">
<polygon fill="white" stroke="#666666" points="1027,-261 911,-261 911,-231 1027,-231 1027,-261"/>
<text text-anchor="start" x="919" y="-249" font-family="Helvetica,sans-Serif" font-size="10.00">ccf/kv/untyped_map</text>
<text text-anchor="middle" x="969" y="-238" font-family="Helvetica,sans-Serif" font-size="10.00">_handle.h</text>
</a>
</g>
</g>
<!-- Node32&#45;&gt;Node33 -->
<g id="edge40" class="edge">
<title>Node32&#45;&gt;Node33</title>
<path fill="none" stroke="#63b8ff" d="M1170.58,-302.37C1134.7,-292.51 1075.16,-276.16 1030.07,-263.77"/>
<polygon fill="#63b8ff" stroke="#63b8ff" points="1030.96,-260.39 1020.39,-261.12 1029.11,-267.14 1030.96,-260.39"/>
</g>
<!-- Node33&#45;&gt;Node5 -->
<g id="edge46" class="edge">
<title>Node33&#45;&gt;Node5</title>
<path fill="none" stroke="#63b8ff" d="M910.78,-237.25C855.26,-229.16 769.59,-214.89 697,-195 694.71,-194.37 692.37,-193.67 690.02,-192.92"/>
<polygon fill="#63b8ff" stroke="#63b8ff" points="691.09,-189.58 680.49,-189.65 688.82,-196.2 691.09,-189.58"/>
</g>
<!-- Node33&#45;&gt;Node14 -->
<g id="edge45" class="edge">
<title>Node33&#45;&gt;Node14</title>
<path fill="none" stroke="#63b8ff" d="M945.08,-230.95C926.72,-220.18 901.52,-205.38 883.31,-194.69"/>
<polygon fill="#63b8ff" stroke="#63b8ff" points="884.9,-191.56 874.51,-189.52 881.36,-197.6 884.9,-191.56"/>
</g>
<!-- Node33&#45;&gt;Node19 -->
<g id="edge42" class="edge">
<title>Node33&#45;&gt;Node19</title>
<path fill="none" stroke="#63b8ff" d="M922.7,-230.95C890.68,-221.24 847.9,-208.27 813.97,-197.98"/>
<polygon fill="#63b8ff" stroke="#63b8ff" points="814.78,-194.57 804.2,-195.01 812.75,-201.26 814.78,-194.57"/>
</g>
<!-- Node33&#45;&gt;Node29 -->
<g id="edge43" class="edge">
<title>Node33&#45;&gt;Node29</title>
<path fill="none" stroke="#63b8ff" d="M999.72,-230.95C1023.95,-219.88 1057.46,-204.56 1080.96,-193.82"/>
<polygon fill="#63b8ff" stroke="#63b8ff" points="1082.73,-196.86 1090.37,-189.52 1079.82,-190.49 1082.73,-196.86"/>
</g>
<!-- Node33&#45;&gt;Node30 -->
<g id="edge44" class="edge">
<title>Node33&#45;&gt;Node30</title>
<path fill="none" stroke="#63b8ff" d="M1027.16,-231.21C1066.29,-221.68 1118.96,-208.35 1165,-195 1167.6,-194.25 1170.27,-193.44 1172.96,-192.62"/>
<polygon fill="#63b8ff" stroke="#63b8ff" points="1174.14,-195.91 1182.62,-189.57 1172.03,-189.24 1174.14,-195.91"/>
</g>
<!-- Node34 -->
<g id="node34" class="node">
<title>Node34</title>
<g id="a_node34"><a xlink:href="abstract__handle_8h.html" target="_top" xlink:title=" ">
<polygon fill="white" stroke="#666666" points="1042,-189.5 906,-189.5 906,-170.5 1042,-170.5 1042,-189.5"/>
<text text-anchor="middle" x="974" y="-177.5" font-family="Helvetica,sans-Serif" font-size="10.00">ccf/kv/abstract_handle.h</text>
</a>
</g>
</g>
<!-- Node33&#45;&gt;Node34 -->
<g id="edge41" class="edge">
<title>Node33&#45;&gt;Node34</title>
<path fill="none" stroke="#63b8ff" d="M970.11,-230.8C970.82,-221.7 971.75,-209.79 972.52,-199.9"/>
<polygon fill="#63b8ff" stroke="#63b8ff" points="976.02,-200.09 973.31,-189.84 969.04,-199.54 976.02,-200.09"/>
</g>
<!-- Node35&#45;&gt;Node16 -->
<g id="edge50" class="edge">
<title>Node35&#45;&gt;Node16</title>
<path fill="none" stroke="#63b8ff" d="M551.79,-296.8C543.39,-287.01 532.19,-273.98 523.35,-263.7"/>
<polygon fill="#63b8ff" stroke="#63b8ff" points="525.77,-261.15 516.6,-255.84 520.46,-265.71 525.77,-261.15"/>
</g>
<!-- Node35&#45;&gt;Node19 -->
<g id="edge49" class="edge">
<title>Node35&#45;&gt;Node19</title>
<path fill="none" stroke="#63b8ff" d="M585.13,-296.84C619.82,-273.59 688.94,-227.27 728.46,-200.79"/>
<polygon fill="#63b8ff" stroke="#63b8ff" points="730.54,-203.62 736.9,-195.14 726.64,-197.8 730.54,-203.62"/>
</g>
<!-- Node36&#45;&gt;Node14 -->
<g id="edge55" class="edge">
<title>Node36&#45;&gt;Node14</title>
<path fill="none" stroke="#63b8ff" d="M1040.8,-302.46C993.18,-290.67 912.87,-269.86 902,-261 882.57,-245.17 871.04,-217.95 865.11,-199.71"/>
<polygon fill="#63b8ff" stroke="#63b8ff" points="868.4,-198.51 862.18,-189.93 861.7,-200.52 868.4,-198.51"/>
</g>
<!-- Node36&#45;&gt;Node19 -->
<g id="edge53" class="edge">
<title>Node36&#45;&gt;Node19</title>
<path fill="none" stroke="#63b8ff" d="M1040.9,-302.44C984.32,-288.61 878.83,-262.72 875,-261 856.59,-252.74 813.74,-222.22 785.32,-201.36"/>
<polygon fill="#63b8ff" stroke="#63b8ff" points="787.14,-198.35 777.01,-195.23 782.98,-203.98 787.14,-198.35"/>
</g>
<!-- Node36&#45;&gt;Node28 -->
<g id="edge52" class="edge">
<title>Node36&#45;&gt;Node28</title>
<path fill="none" stroke="#63b8ff" d="M1104.59,-302.37C1142.08,-291.05 1207.96,-271.16 1249.72,-258.56"/>
<polygon fill="#63b8ff" stroke="#63b8ff" points="1250.96,-261.84 1259.52,-255.6 1248.94,-255.14 1250.96,-261.84"/>
</g>
<!-- Node37 -->
<g id="node37" class="node">
<title>Node37</title>
<g id="a_node37"><a xlink:title=" ">
<polygon fill="#e0e0e0" stroke="#999999" points="1095,-255.5 1057,-255.5 1057,-236.5 1095,-236.5 1095,-255.5"/>
<text text-anchor="middle" x="1076" y="-243.5" font-family="Helvetica,sans-Serif" font-size="10.00">map</text>
</a>
</g>
</g>
<!-- Node36&#45;&gt;Node37 -->
<g id="edge54" class="edge">
<title>Node36&#45;&gt;Node37</title>
<path fill="none" stroke="#63b8ff" d="M1076,-302.37C1076,-293.16 1076,-278.29 1076,-266.27"/>
<polygon fill="#63b8ff" stroke="#63b8ff" points="1079.5,-265.91 1076,-255.91 1072.5,-265.91 1079.5,-265.91"/>
</g>
<!-- Node38&#45;&gt;Node18 -->
<g id="edge59" class="edge">
<title>Node38&#45;&gt;Node18</title>
<path fill="none" stroke="#63b8ff" d="M696.47,-364.52C645.66,-354.78 555.29,-337.36 506.56,-327.05"/>
<polygon fill="#63b8ff" stroke="#63b8ff" points="507.05,-323.58 496.54,-324.91 505.59,-330.42 507.05,-323.58"/>
</g>
<!-- Node38&#45;&gt;Node27 -->
<g id="edge57" class="edge">
<title>Node38&#45;&gt;Node27</title>
<path fill="none" stroke="#63b8ff" d="M725.92,-362.87C718.76,-354.14 707.51,-340.43 698.61,-329.59"/>
<polygon fill="#63b8ff" stroke="#63b8ff" points="701.16,-327.18 692.11,-321.67 695.75,-331.62 701.16,-327.18"/>
</g>
<!-- Node38&#45;&gt;Node28 -->
<g id="edge58" class="edge">
<title>Node38&#45;&gt;Node28</title>
<path fill="none" stroke="#63b8ff" d="M769.6,-364.35C772.77,-363.85 775.94,-363.39 779,-363 836.9,-355.69 1263.17,-369.66 1303,-327 1318.62,-310.27 1308.47,-282.68 1298.9,-264.67"/>
<polygon fill="#63b8ff" stroke="#63b8ff" points="1301.82,-262.72 1293.82,-255.78 1295.74,-266.2 1301.82,-262.72"/>
</g>
<!-- Node38&#45;&gt;Node35 -->
<g id="edge60" class="edge">
<title>Node38&#45;&gt;Node35</title>
<path fill="none" stroke="#63b8ff" d="M708.43,-362.99C683.89,-354.5 645.47,-341.2 614.42,-330.45"/>
<polygon fill="#63b8ff" stroke="#63b8ff" points="615.22,-327.03 604.63,-327.06 612.94,-333.64 615.22,-327.03"/>
</g>
<!-- Node38&#45;&gt;Node36 -->
<g id="edge65" class="edge">
<title>Node38&#45;&gt;Node36</title>
<path fill="none" stroke="#63b8ff" d="M769.64,-364.62C772.8,-364.06 775.96,-363.51 779,-363 884.94,-345.24 912.58,-347.62 1018,-327 1022.77,-326.07 1027.74,-325.01 1032.67,-323.9"/>
<polygon fill="#63b8ff" stroke="#63b8ff" points="1033.73,-327.24 1042.68,-321.57 1032.15,-320.42 1033.73,-327.24"/>
</g>
<!-- Node39 -->
<g id="node39" class="node">
<title>Node39</title>
<g id="a_node39"><a xlink:href="set__handle_8h.html" target="_top" xlink:title=" ">
<polygon fill="white" stroke="#666666" points="1008.5,-321.5 897.5,-321.5 897.5,-302.5 1008.5,-302.5 1008.5,-321.5"/>
<text text-anchor="middle" x="953" y="-309.5" font-family="Helvetica,sans-Serif" font-size="10.00">ccf/kv/set_handle.h</text>
</a>
</g>
</g>
<!-- Node38&#45;&gt;Node39 -->
<g id="edge61" class="edge">
<title>Node38&#45;&gt;Node39</title>
<path fill="none" stroke="#63b8ff" d="M764.99,-362.99C803.6,-352.73 868.64,-335.43 911.2,-324.12"/>
<polygon fill="#63b8ff" stroke="#63b8ff" points="912.21,-327.47 920.97,-321.52 910.41,-320.7 912.21,-327.47"/>
</g>
<!-- Node39&#45;&gt;Node33 -->
<g id="edge64" class="edge">
<title>Node39&#45;&gt;Node33</title>
<path fill="none" stroke="#63b8ff" d="M955.16,-302.37C957.15,-294.4 960.2,-282.2 962.93,-271.27"/>
<polygon fill="#63b8ff" stroke="#63b8ff" points="966.38,-271.91 965.41,-261.36 959.59,-270.21 966.38,-271.91"/>
</g>
<!-- Node40 -->
<g id="node40" class="node">
<title>Node40</title>
<g id="a_node40"><a xlink:href="unit_8h.html" target="_top" xlink:title=" ">
<polygon fill="white" stroke="#666666" points="816.5,-255.5 739.5,-255.5 739.5,-236.5 816.5,-236.5 816.5,-255.5"/>
<text text-anchor="middle" x="778" y="-243.5" font-family="Helvetica,sans-Serif" font-size="10.00">ccf/kv/unit.h</text>
</a>
</g>
</g>
<!-- Node39&#45;&gt;Node40 -->
<g id="edge62" class="edge">
<title>Node39&#45;&gt;Node40</title>
<path fill="none" stroke="#63b8ff" d="M929.4,-302.37C898.91,-291.22 845.68,-271.75 811.15,-259.12"/>
<polygon fill="#63b8ff" stroke="#63b8ff" points="812.1,-255.74 801.51,-255.6 809.7,-262.32 812.1,-255.74"/>
</g>
<!-- Node40&#45;&gt;Node19 -->
<g id="edge63" class="edge">
<title>Node40&#45;&gt;Node19</title>
<path fill="none" stroke="#63b8ff" d="M775.3,-236.37C772.79,-228.32 768.92,-215.94 765.48,-204.93"/>
<polygon fill="#63b8ff" stroke="#63b8ff" points="768.81,-203.86 762.49,-195.36 762.13,-205.95 768.81,-203.86"/>
</g>
<!-- Node41&#45;&gt;Node18 -->
<g id="edge69" class="edge">
<title>Node41&#45;&gt;Node18</title>
<path fill="none" stroke="#63b8ff" d="M608.52,-362.99C580.72,-354.39 536.99,-340.86 502.04,-330.04"/>
<polygon fill="#63b8ff" stroke="#63b8ff" points="503.03,-326.68 492.44,-327.06 500.96,-333.36 503.03,-326.68"/>
</g>
<!-- Node41&#45;&gt;Node27 -->
<g id="edge67" class="edge">
<title>Node41&#45;&gt;Node27</title>
<path fill="none" stroke="#63b8ff" d="M643.23,-362.87C650.54,-354.14 662.02,-340.43 671.1,-329.59"/>
<polygon fill="#63b8ff" stroke="#63b8ff" points="674,-331.58 677.74,-321.67 668.64,-327.09 674,-331.58"/>
</g>
<!-- Node41&#45;&gt;Node28 -->
<g id="edge68" class="edge">
<title>Node41&#45;&gt;Node28</title>
<path fill="none" stroke="#63b8ff" d="M678.52,-364.19C681.72,-363.75 684.91,-363.35 688,-363 752.39,-355.76 1220.68,-369.02 1270,-327 1287.41,-312.17 1290.06,-284.44 1289.61,-265.85"/>
<polygon fill="#63b8ff" stroke="#63b8ff" points="1293.1,-265.44 1289.04,-255.65 1286.11,-265.83 1293.1,-265.44"/>
</g>
<!-- Node41&#45;&gt;Node35 -->
<g id="edge70" class="edge">
<title>Node41&#45;&gt;Node35</title>
<path fill="none" stroke="#63b8ff" d="M625.38,-362.87C615.88,-355.15 601.58,-343.54 589.18,-333.46"/>
<polygon fill="#63b8ff" stroke="#63b8ff" points="591.34,-330.7 581.37,-327.11 586.93,-336.14 591.34,-330.7"/>
</g>
<!-- Node41&#45;&gt;Node36 -->
<g id="edge71" class="edge">
<title>Node41&#45;&gt;Node36</title>
<path fill="none" stroke="#63b8ff" d="M678.54,-364.36C681.74,-363.88 684.92,-363.42 688,-363 834.19,-343.09 872.66,-352.36 1018,-327 1023.16,-326.1 1028.55,-325.01 1033.87,-323.84"/>
<polygon fill="#63b8ff" stroke="#63b8ff" points="1034.98,-327.17 1043.94,-321.51 1033.41,-320.35 1034.98,-327.17"/>
</g>
<!-- Node42 -->
<g id="node42" class="node">
<title>Node42</title>
<g id="a_node42"><a xlink:href="value__handle_8h.html" target="_top" xlink:title=" ">
<polygon fill="white" stroke="#666666" points="879.5,-321.5 756.5,-321.5 756.5,-302.5 879.5,-302.5 879.5,-321.5"/>
<text text-anchor="middle" x="818" y="-309.5" font-family="Helvetica,sans-Serif" font-size="10.00">ccf/kv/value_handle.h</text>
</a>
</g>
</g>
<!-- Node41&#45;&gt;Node42 -->
<g id="edge72" class="edge">
<title>Node41&#45;&gt;Node42</title>
<path fill="none" stroke="#63b8ff" d="M662.46,-362.99C693.87,-352.9 746.4,-336.01 781.62,-324.69"/>
<polygon fill="#63b8ff" stroke="#63b8ff" points="783.05,-327.91 791.5,-321.52 780.91,-321.24 783.05,-327.91"/>
</g>
<!-- Node42&#45;&gt;Node33 -->
<g id="edge74" class="edge">
<title>Node42&#45;&gt;Node33</title>
<path fill="none" stroke="#63b8ff" d="M838.36,-302.37C860.79,-292.87 897.47,-277.32 926.27,-265.11"/>
<polygon fill="#63b8ff" stroke="#63b8ff" points="927.85,-268.24 935.7,-261.12 925.12,-261.8 927.85,-268.24"/>
</g>
<!-- Node42&#45;&gt;Node40 -->
<g id="edge73" class="edge">
<title>Node42&#45;&gt;Node40</title>
<path fill="none" stroke="#63b8ff" d="M812.61,-302.37C806.56,-292.69 796.59,-276.74 788.9,-264.44"/>
<polygon fill="#63b8ff" stroke="#63b8ff" points="791.83,-262.53 783.57,-255.91 785.9,-266.24 791.83,-262.53"/>
</g>
<!-- Node43&#45;&gt;Node3 -->
<g id="edge78" class="edge">
<title>Node43&#45;&gt;Node3</title>
<path fill="none" stroke="#63b8ff" d="M111.95,-472.86C101.21,-458.44 88.65,-435.71 99,-418 107.68,-403.14 123.35,-392.86 138.46,-385.95"/>
<polygon fill="#63b8ff" stroke="#63b8ff" points="139.85,-389.17 147.73,-382.08 137.15,-382.71 139.85,-389.17"/>
</g>
<!-- Node43&#45;&gt;Node6 -->
<g id="edge79" class="edge">
<title>Node43&#45;&gt;Node6</title>
<path fill="none" stroke="#63b8ff" d="M79.26,-472.97C60.09,-465.04 38.76,-453.35 24,-437 3.78,-414.6 0,-403.67 0,-373.5 0,-373.5 0,-373.5 0,-118.5 0,-88.33 6.66,-79.69 24,-55 32.11,-43.45 43.88,-33.04 54.18,-25.2"/>
<polygon fill="#63b8ff" stroke="#63b8ff" points="56.34,-27.96 62.37,-19.25 52.22,-22.3 56.34,-27.96"/>
</g>
<!-- Node44 -->
<g id="node44" class="node">
<title>Node44</title>
<g id="a_node44"><a xlink:href="md__type_8h.html" target="_top" xlink:title=" ">
<polygon fill="white" stroke="#666666" points="227.5,-437 108.5,-437 108.5,-418 227.5,-418 227.5,-437"/>
<text text-anchor="middle" x="168" y="-425" font-family="Helvetica,sans-Serif" font-size="10.00">ccf/crypto/md_type.h</text>
</a>
</g>
</g>
<!-- Node43&#45;&gt;Node44 -->
<g id="edge76" class="edge">
<title>Node43&#45;&gt;Node44</title>
<path fill="none" stroke="#63b8ff" d="M134.65,-472.84C140.84,-464.61 148.69,-454.18 155.21,-445.51"/>
<polygon fill="#63b8ff" stroke="#63b8ff" points="158.19,-447.36 161.41,-437.27 152.6,-443.15 158.19,-447.36"/>
</g>
<!-- Node44&#45;&gt;Node3 -->
<g id="edge77" class="edge">
<title>Node44&#45;&gt;Node3</title>
<path fill="none" stroke="#63b8ff" d="M169.65,-417.75C170.96,-410.8 172.84,-400.85 174.48,-392.13"/>
<polygon fill="#63b8ff" stroke="#63b8ff" points="177.96,-392.56 176.38,-382.09 171.09,-391.27 177.96,-392.56"/>
</g>
<!-- Node45&#45;&gt;Node3 -->
<g id="edge81" class="edge">
<title>Node45&#45;&gt;Node3</title>
<path fill="none" stroke="#63b8ff" d="M360.89,-472.94C362.13,-457.5 361.52,-432.92 348,-418 331.84,-400.18 271.07,-387.42 226.79,-380.26"/>
<polygon fill="#63b8ff" stroke="#63b8ff" points="227.19,-376.78 216.77,-378.69 226.11,-383.7 227.19,-376.78"/>
</g>
<!-- Node45&#45;&gt;Node6 -->
<g id="edge84" class="edge">
<title>Node45&#45;&gt;Node6</title>
<path fill="none" stroke="#63b8ff" d="M307.81,-486.2C253.04,-483.36 165.14,-472.94 99,-437 64.61,-418.32 38,-412.63 38,-373.5 38,-373.5 38,-373.5 38,-118.5 38,-85.02 54.45,-48.84 65.7,-28.01"/>
<polygon fill="#63b8ff" stroke="#63b8ff" points="68.87,-29.53 70.72,-19.1 62.76,-26.1 68.87,-29.53"/>
</g>
<!-- Node45&#45;&gt;Node25 -->
<g id="edge82" class="edge">
<title>Node45&#45;&gt;Node25</title>
<path fill="none" stroke="#63b8ff" d="M410.13,-476.2C460.15,-465.64 535.86,-449.65 585.62,-439.14"/>
<polygon fill="#63b8ff" stroke="#63b8ff" points="586.45,-442.54 595.51,-437.05 585.01,-435.69 586.45,-442.54"/>
</g>
<!-- Node46 -->
<g id="node46" class="node">
<title>Node46</title>
<g id="a_node46"><a xlink:title=" ">
<polygon fill="#e0e0e0" stroke="#999999" points="338.5,-437 245.5,-437 245.5,-418 338.5,-418 338.5,-437"/>
<text text-anchor="middle" x="292" y="-425" font-family="Helvetica,sans-Serif" font-size="10.00">unordered_map</text>
</a>
</g>
</g>
<!-- Node45&#45;&gt;Node46 -->
<g id="edge83" class="edge">
<title>Node45&#45;&gt;Node46</title>
<path fill="none" stroke="#63b8ff" d="M342.78,-472.84C332.76,-464.09 319.89,-452.85 309.62,-443.88"/>
<polygon fill="#63b8ff" stroke="#63b8ff" points="311.87,-441.21 302.04,-437.27 307.27,-446.48 311.87,-441.21"/>
</g>
</g>
</svg>
