<?xml version="1.0" encoding="UTF-8" standalone="no"?>
<!DOCTYPE svg PUBLIC "-//W3C//DTD SVG 1.1//EN"
 "http://www.w3.org/Graphics/SVG/1.1/DTD/svg11.dtd">
<!-- Generated by graphviz version 2.43.0 (0)
 -->
<!-- Title: src/http/http_session.h Pages: 1 -->
<svg width="533pt" height="368pt"
 viewBox="0.00 0.00 532.55 368.00" xmlns="http://www.w3.org/2000/svg" xmlns:xlink="http://www.w3.org/1999/xlink">
<g id="graph0" class="graph" transform="scale(1 1) rotate(0) translate(4 364)">
<title>src/http/http_session.h</title>
<!-- Node1 -->
<g id="node1" class="node">
<title>Node1</title>
<g id="a_node1"><a xlink:title=" ">
<polygon fill="#999999" stroke="#666666" points="262.05,-360 135.05,-360 135.05,-341 262.05,-341 262.05,-360"/>
<text text-anchor="middle" x="198.55" y="-348" font-family="Helvetica,sans-Serif" font-size="10.00">src/http/http_session.h</text>
</a>
</g>
</g>
<!-- Node2 -->
<g id="node2" class="node">
<title>Node2</title>
<g id="a_node2"><a xlink:href="rpc__sessions_8h.html" target="_top" xlink:title=" ">
<polygon fill="white" stroke="#666666" points="271.55,-305 125.55,-305 125.55,-286 271.55,-286 271.55,-305"/>
<text text-anchor="middle" x="198.55" y="-293" font-family="Helvetica,sans-Serif" font-size="10.00">src/enclave/rpc_sessions.h</text>
</a>
</g>
</g>
<!-- Node1&#45;&gt;Node2 -->
<g id="edge1" class="edge">
<title>Node1&#45;&gt;Node2</title>
<path fill="none" stroke="#63b8ff" d="M198.55,-330.66C198.55,-321.93 198.55,-311.99 198.55,-305.09"/>
<polygon fill="#63b8ff" stroke="#63b8ff" points="195.05,-330.75 198.55,-340.75 202.05,-330.75 195.05,-330.75"/>
</g>
<!-- Node3 -->
<g id="node3" class="node">
<title>Node3</title>
<g id="a_node3"><a xlink:href="src_2enclave_2enclave_8h.html" target="_top" xlink:title=" ">
<polygon fill="white" stroke="#666666" points="159.55,-74 37.55,-74 37.55,-55 159.55,-55 159.55,-74"/>
<text text-anchor="middle" x="98.55" y="-62" font-family="Helvetica,sans-Serif" font-size="10.00">src/enclave/enclave.h</text>
</a>
</g>
</g>
<!-- Node2&#45;&gt;Node3 -->
<g id="edge2" class="edge">
<title>Node2&#45;&gt;Node3</title>
<path fill="none" stroke="#63b8ff" d="M115.43,-284.63C72.57,-277.65 26.59,-266.55 13.55,-250 -32.94,-191 56.78,-102.45 88.23,-74.37"/>
<polygon fill="#63b8ff" stroke="#63b8ff" points="114.94,-288.1 125.37,-286.19 116.03,-281.18 114.94,-288.1"/>
</g>
<!-- Node5 -->
<g id="node5" class="node">
<title>Node5</title>
<g id="a_node5"><a xlink:href="ccf__acme__client_8h.html" target="_top" xlink:title=" ">
<polygon fill="white" stroke="#666666" points="171.05,-244.5 22.05,-244.5 22.05,-225.5 171.05,-225.5 171.05,-244.5"/>
<text text-anchor="middle" x="96.55" y="-232.5" font-family="Helvetica,sans-Serif" font-size="10.00">src/node/ccf_acme_client.h</text>
</a>
</g>
</g>
<!-- Node2&#45;&gt;Node5 -->
<g id="edge4" class="edge">
<title>Node2&#45;&gt;Node5</title>
<path fill="none" stroke="#63b8ff" d="M174.61,-280.77C155.14,-269.6 128.26,-254.19 111.66,-244.67"/>
<polygon fill="#63b8ff" stroke="#63b8ff" points="173.08,-283.93 183.5,-285.87 176.57,-277.86 173.08,-283.93"/>
</g>
<!-- Node6 -->
<g id="node6" class="node">
<title>Node6</title>
<g id="a_node6"><a xlink:href="node__state_8h.html" target="_top" xlink:title=" ">
<polygon fill="white" stroke="#666666" points="260.55,-184 136.55,-184 136.55,-165 260.55,-165 260.55,-184"/>
<text text-anchor="middle" x="198.55" y="-172" font-family="Helvetica,sans-Serif" font-size="10.00">src/node/node_state.h</text>
</a>
</g>
</g>
<!-- Node2&#45;&gt;Node6 -->
<g id="edge9" class="edge">
<title>Node2&#45;&gt;Node6</title>
<path fill="none" stroke="#63b8ff" d="M198.55,-275.86C198.55,-249.81 198.55,-203.56 198.55,-184.3"/>
<polygon fill="#63b8ff" stroke="#63b8ff" points="195.05,-275.94 198.55,-285.94 202.05,-275.94 195.05,-275.94"/>
</g>
<!-- Node8 -->
<g id="node8" class="node">
<title>Node8</title>
<g id="a_node8"><a xlink:href="quote__endorsements__client_8h.html" target="_top" xlink:title=" ">
<polygon fill="white" stroke="#666666" points="390.55,-250 226.55,-250 226.55,-220 390.55,-220 390.55,-250"/>
<text text-anchor="start" x="234.55" y="-238" font-family="Helvetica,sans-Serif" font-size="10.00">src/node/quote_endorsements</text>
<text text-anchor="middle" x="308.55" y="-227" font-family="Helvetica,sans-Serif" font-size="10.00">_client.h</text>
</a>
</g>
</g>
<!-- Node2&#45;&gt;Node8 -->
<g id="edge10" class="edge">
<title>Node2&#45;&gt;Node8</title>
<path fill="none" stroke="#63b8ff" d="M223.8,-281.07C241.22,-271.81 264.32,-259.52 282.01,-250.11"/>
<polygon fill="#63b8ff" stroke="#63b8ff" points="221.97,-278.08 214.78,-285.87 225.25,-284.26 221.97,-278.08"/>
</g>
<!-- Node9 -->
<g id="node9" class="node">
<title>Node9</title>
<g id="a_node9"><a xlink:href="resharing_8h.html" target="_top" xlink:title=" ">
<polygon fill="white" stroke="#666666" points="524.55,-244.5 408.55,-244.5 408.55,-225.5 524.55,-225.5 524.55,-244.5"/>
<text text-anchor="middle" x="466.55" y="-232.5" font-family="Helvetica,sans-Serif" font-size="10.00">src/node/resharing.h</text>
</a>
</g>
</g>
<!-- Node2&#45;&gt;Node9 -->
<g id="edge12" class="edge">
<title>Node2&#45;&gt;Node9</title>
<path fill="none" stroke="#63b8ff" d="M247.47,-283.82C299.23,-272.52 379.88,-254.92 427.53,-244.52"/>
<polygon fill="#63b8ff" stroke="#63b8ff" points="246.54,-280.44 237.52,-285.99 248.04,-287.28 246.54,-280.44"/>
</g>
<!-- Node4 -->
<g id="node4" class="node">
<title>Node4</title>
<g id="a_node4"><a xlink:href="enclave_2main_8cpp.html" target="_top" xlink:title=" ">
<polygon fill="white" stroke="#666666" points="158.55,-19 38.55,-19 38.55,0 158.55,0 158.55,-19"/>
<text text-anchor="middle" x="98.55" y="-7" font-family="Helvetica,sans-Serif" font-size="10.00">src/enclave/main.cpp</text>
</a>
</g>
</g>
<!-- Node3&#45;&gt;Node4 -->
<g id="edge3" class="edge">
<title>Node3&#45;&gt;Node4</title>
<path fill="none" stroke="#63b8ff" d="M98.55,-44.66C98.55,-35.93 98.55,-25.99 98.55,-19.09"/>
<polygon fill="#63b8ff" stroke="#63b8ff" points="95.05,-44.75 98.55,-54.75 102.05,-44.75 95.05,-44.75"/>
</g>
<!-- Node5&#45;&gt;Node6 -->
<g id="edge5" class="edge">
<title>Node5&#45;&gt;Node6</title>
<path fill="none" stroke="#63b8ff" d="M120.49,-220.27C139.96,-209.1 166.84,-193.69 183.44,-184.17"/>
<polygon fill="#63b8ff" stroke="#63b8ff" points="118.53,-217.36 111.6,-225.37 122.02,-223.43 118.53,-217.36"/>
</g>
<!-- Node6&#45;&gt;Node3 -->
<g id="edge6" class="edge">
<title>Node6&#45;&gt;Node3</title>
<path fill="none" stroke="#63b8ff" d="M162.5,-160.95C146.7,-153.81 129.16,-143.37 117.55,-129 104.39,-112.71 100.34,-87.49 99.1,-74.27"/>
<polygon fill="#63b8ff" stroke="#63b8ff" points="161.47,-164.32 172.04,-164.98 164.19,-157.87 161.47,-164.32"/>
</g>
<!-- Node7 -->
<g id="node7" class="node">
<title>Node7</title>
<g id="a_node7"><a xlink:href="gov__effects_8h.html" target="_top" xlink:title=" ">
<polygon fill="white" stroke="#666666" points="270.55,-129 126.55,-129 126.55,-110 270.55,-110 270.55,-129"/>
<text text-anchor="middle" x="198.55" y="-117" font-family="Helvetica,sans-Serif" font-size="10.00">src/node/rpc/gov_effects.h</text>
</a>
</g>
</g>
<!-- Node6&#45;&gt;Node7 -->
<g id="edge7" class="edge">
<title>Node6&#45;&gt;Node7</title>
<path fill="none" stroke="#63b8ff" d="M198.55,-154.66C198.55,-145.93 198.55,-135.99 198.55,-129.09"/>
<polygon fill="#63b8ff" stroke="#63b8ff" points="195.05,-154.75 198.55,-164.75 202.05,-154.75 195.05,-154.75"/>
</g>
<!-- Node7&#45;&gt;Node3 -->
<g id="edge8" class="edge">
<title>Node7&#45;&gt;Node3</title>
<path fill="none" stroke="#63b8ff" d="M173.52,-105.23C155.18,-95.51 130.81,-82.6 114.91,-74.17"/>
<polygon fill="#63b8ff" stroke="#63b8ff" points="172.01,-108.39 182.48,-109.98 175.29,-102.21 172.01,-108.39"/>
</g>
<!-- Node8&#45;&gt;Node6 -->
<g id="edge11" class="edge">
<title>Node8&#45;&gt;Node6</title>
<path fill="none" stroke="#63b8ff" d="M273.22,-215.21C253.59,-204.77 230.11,-192.29 214.8,-184.14"/>
<polygon fill="#63b8ff" stroke="#63b8ff" points="271.73,-218.38 282.2,-219.99 275.02,-212.2 271.73,-218.38"/>
</g>
<!-- Node9&#45;&gt;Node6 -->
<g id="edge13" class="edge">
<title>Node9&#45;&gt;Node6</title>
<path fill="none" stroke="#63b8ff" d="M417.63,-223.32C365.87,-212.02 285.22,-194.42 237.57,-184.02"/>
<polygon fill="#63b8ff" stroke="#63b8ff" points="417.07,-226.78 427.58,-225.49 418.56,-219.94 417.07,-226.78"/>
</g>
</g>
</svg>
