<?xml version="1.0" encoding="UTF-8" standalone="no"?>
<!DOCTYPE svg PUBLIC "-//W3C//DTD SVG 1.1//EN"
 "http://www.w3.org/Graphics/SVG/1.1/DTD/svg11.dtd">
<!-- Generated by graphviz version 2.43.0 (0)
 -->
<!-- Title: Graphical Class Hierarchy Pages: 1 -->
<svg width="675pt" height="64pt"
 viewBox="0.00 0.00 675.00 64.00" xmlns="http://www.w3.org/2000/svg" xmlns:xlink="http://www.w3.org/1999/xlink">
<g id="graph0" class="graph" transform="scale(1 1) rotate(0) translate(4 60)">
<title>Graphical Class Hierarchy</title>
<!-- Node0 -->
<g id="node1" class="node">
<title>Node0</title>
<g id="a_node1"><a xlink:href="structkv_1_1AbstractChangeContainer.html" target="_top" xlink:title=" ">
<polygon fill="white" stroke="#666666" points="393,-56 235,-56 235,-37 393,-37 393,-56"/>
<text text-anchor="middle" x="314" y="-44" font-family="Helvetica,sans-Serif" font-size="10.00">kv::AbstractChangeContainer</text>
</a>
</g>
</g>
<!-- Node1 -->
<g id="node2" class="node">
<title>Node1</title>
<g id="a_node2"><a xlink:href="classkv_1_1CommittableTx.html" target="_top" xlink:title=" ">
<polygon fill="white" stroke="#666666" points="539,-37 429,-37 429,-18 539,-18 539,-37"/>
<text text-anchor="middle" x="484" y="-25" font-family="Helvetica,sans-Serif" font-size="10.00">kv::CommittableTx</text>
</a>
</g>
</g>
<!-- Node0&#45;&gt;Node1 -->
<g id="edge1" class="edge">
<title>Node0&#45;&gt;Node1</title>
<path fill="none" stroke="#63b8ff" d="M403.24,-36.52C411.87,-35.54 420.44,-34.58 428.59,-33.65"/>
<polygon fill="#63b8ff" stroke="#63b8ff" points="402.64,-33.07 393.1,-37.67 403.43,-40.02 402.64,-33.07"/>
</g>
<!-- Node2 -->
<g id="node3" class="node">
<title>Node2</title>
<g id="a_node3"><a xlink:href="classkv_1_1ReservedTx.html" target="_top" xlink:title=" ">
<polygon fill="white" stroke="#666666" points="667,-37 575,-37 575,-18 667,-18 667,-37"/>
<text text-anchor="middle" x="621" y="-25" font-family="Helvetica,sans-Serif" font-size="10.00">kv::ReservedTx</text>
</a>
</g>
</g>
<!-- Node1&#45;&gt;Node2 -->
<g id="edge2" class="edge">
<title>Node1&#45;&gt;Node2</title>
<path fill="none" stroke="#63b8ff" d="M549.26,-27.5C557.95,-27.5 566.7,-27.5 574.96,-27.5"/>
<polygon fill="#63b8ff" stroke="#63b8ff" points="549.13,-24 539.13,-27.5 549.13,-31 549.13,-24"/>
</g>
<!-- Node5 -->
<g id="node4" class="node">
<title>Node5</title>
<g id="a_node4"><a xlink:href="classkv_1_1BaseTx.html" target="_top" xlink:title=" ">
<polygon fill="white" stroke="#666666" points="70,-19 0,-19 0,0 70,0 70,-19"/>
<text text-anchor="middle" x="35" y="-7" font-family="Helvetica,sans-Serif" font-size="10.00">kv::BaseTx</text>
</a>
</g>
</g>
<!-- Node4 -->
<g id="node5" class="node">
<title>Node4</title>
<g id="a_node5"><a xlink:href="classkv_1_1ReadOnlyTx.html" target="_top" xlink:title=" ">
<polygon fill="white" stroke="#666666" points="199,-19 106,-19 106,0 199,0 199,-19"/>
<text text-anchor="middle" x="152.5" y="-7" font-family="Helvetica,sans-Serif" font-size="10.00">kv::ReadOnlyTx</text>
</a>
</g>
</g>
<!-- Node5&#45;&gt;Node4 -->
<g id="edge3" class="edge">
<title>Node5&#45;&gt;Node4</title>
<path fill="none" stroke="#63b8ff" d="M80.03,-9.5C88.44,-9.5 97.26,-9.5 105.73,-9.5"/>
<polygon fill="#63b8ff" stroke="#63b8ff" points="80.03,-6 70.03,-9.5 80.03,-13 80.03,-6"/>
</g>
<!-- Node3 -->
<g id="node6" class="node">
<title>Node3</title>
<g id="a_node6"><a xlink:href="classkv_1_1Tx.html" target="_top" xlink:title=" ">
<polygon fill="white" stroke="#666666" points="337,-19 291,-19 291,0 337,0 337,-19"/>
<text text-anchor="middle" x="314" y="-7" font-family="Helvetica,sans-Serif" font-size="10.00">kv::Tx</text>
</a>
</g>
</g>
<!-- Node4&#45;&gt;Node3 -->
<g id="edge4" class="edge">
<title>Node4&#45;&gt;Node3</title>
<path fill="none" stroke="#63b8ff" d="M209.31,-9.5C237.34,-9.5 269.72,-9.5 290.74,-9.5"/>
<polygon fill="#63b8ff" stroke="#63b8ff" points="209.21,-6 199.21,-9.5 209.21,-13 209.21,-6"/>
</g>
<!-- Node3&#45;&gt;Node1 -->
<g id="edge5" class="edge">
<title>Node3&#45;&gt;Node1</title>
<path fill="none" stroke="#63b8ff" d="M347.56,-12.99C370.57,-15.45 401.96,-18.82 428.73,-21.69"/>
<polygon fill="#63b8ff" stroke="#63b8ff" points="347.63,-9.48 337.31,-11.89 346.88,-16.44 347.63,-9.48"/>
</g>
</g>
</svg>
