<?xml version="1.0" encoding="UTF-8" standalone="no"?>
<!DOCTYPE svg PUBLIC "-//W3C//DTD SVG 1.1//EN"
 "http://www.w3.org/Graphics/SVG/1.1/DTD/svg11.dtd">
<!-- Generated by graphviz version 2.43.0 (0)
 -->
<!-- Title: Graphical Class Hierarchy Pages: 1 -->
<svg width="286pt" height="64pt"
 viewBox="0.00 0.00 286.00 64.00" xmlns="http://www.w3.org/2000/svg" xmlns:xlink="http://www.w3.org/1999/xlink">
<g id="graph0" class="graph" transform="scale(1 1) rotate(0) translate(4 60)">
<title>Graphical Class Hierarchy</title>
<!-- Node0 -->
<g id="node1" class="node">
<title>Node0</title>
<g id="a_node1"><a xlink:title=" ">
<polygon fill="#e0e0e0" stroke="#999999" points="137,-37 0,-37 0,-18 137,-18 137,-37"/>
<text text-anchor="middle" x="68.5" y="-25" font-family="Helvetica,sans-Serif" font-size="10.00">nlohmann::json::object_t</text>
</a>
</g>
</g>
<!-- Node1 -->
<g id="node2" class="node">
<title>Node1</title>
<g id="a_node2"><a xlink:href="classACME_1_1Client_1_1JWK.html" target="_top" xlink:title=" ">
<polygon fill="white" stroke="#666666" points="278,-56 173,-56 173,-37 278,-37 278,-56"/>
<text text-anchor="middle" x="225.5" y="-44" font-family="Helvetica,sans-Serif" font-size="10.00">ACME::Client::JWK</text>
</a>
</g>
</g>
<!-- Node0&#45;&gt;Node1 -->
<g id="edge1" class="edge">
<title>Node0&#45;&gt;Node1</title>
<path fill="none" stroke="#63b8ff" d="M147.13,-37.02C155.76,-38.07 164.38,-39.13 172.57,-40.13"/>
<polygon fill="#63b8ff" stroke="#63b8ff" points="147.39,-33.52 137.03,-35.78 146.53,-40.47 147.39,-33.52"/>
</g>
<!-- Node2 -->
<g id="node3" class="node">
<title>Node2</title>
<g id="a_node3"><a xlink:href="classACME_1_1Client_1_1JWS.html" target="_top" xlink:title=" ">
<polygon fill="white" stroke="#666666" points="277.5,-19 173.5,-19 173.5,0 277.5,0 277.5,-19"/>
<text text-anchor="middle" x="225.5" y="-7" font-family="Helvetica,sans-Serif" font-size="10.00">ACME::Client::JWS</text>
</a>
</g>
</g>
<!-- Node0&#45;&gt;Node2 -->
<g id="edge2" class="edge">
<title>Node0&#45;&gt;Node2</title>
<path fill="none" stroke="#63b8ff" d="M146.99,-18.5C155.83,-17.48 164.66,-16.45 173.04,-15.48"/>
<polygon fill="#63b8ff" stroke="#63b8ff" points="146.56,-15.03 137.03,-19.66 147.37,-21.98 146.56,-15.03"/>
</g>
</g>
</svg>
