<?xml version="1.0" encoding="UTF-8" standalone="no"?>
<!DOCTYPE svg PUBLIC "-//W3C//DTD SVG 1.1//EN"
 "http://www.w3.org/Graphics/SVG/1.1/DTD/svg11.dtd">
<!-- Generated by graphviz version 2.43.0 (0)
 -->
<!-- Title: Graphical Class Hierarchy Pages: 1 -->
<svg width="245pt" height="101pt"
 viewBox="0.00 0.00 245.00 101.00" xmlns="http://www.w3.org/2000/svg" xmlns:xlink="http://www.w3.org/1999/xlink">
<g id="graph0" class="graph" transform="scale(1 1) rotate(0) translate(4 97)">
<title>Graphical Class Hierarchy</title>
<!-- Node0 -->
<g id="node1" class="node">
<title>Node0</title>
<g id="a_node1"><a xlink:href="classtls_1_1Context.html" target="_top" xlink:title=" ">
<polygon fill="white" stroke="#666666" points="73,-56 0,-56 0,-37 73,-37 73,-56"/>
<text text-anchor="middle" x="36.5" y="-44" font-family="Helvetica,sans-Serif" font-size="10.00">tls::Context</text>
</a>
</g>
</g>
<!-- Node1 -->
<g id="node2" class="node">
<title>Node1</title>
<g id="a_node2"><a xlink:href="classnontls_1_1PlaintextServer.html" target="_top" xlink:title=" ">
<polygon fill="white" stroke="#666666" points="237,-93 109,-93 109,-74 237,-74 237,-93"/>
<text text-anchor="middle" x="173" y="-81" font-family="Helvetica,sans-Serif" font-size="10.00">nontls::PlaintextServer</text>
</a>
</g>
</g>
<!-- Node0&#45;&gt;Node1 -->
<g id="edge1" class="edge">
<title>Node0&#45;&gt;Node1</title>
<path fill="none" stroke="#63b8ff" d="M81.81,-58.69C99.74,-63.62 120.15,-69.24 137.01,-73.88"/>
<polygon fill="#63b8ff" stroke="#63b8ff" points="82.71,-55.31 72.14,-56.03 80.85,-62.06 82.71,-55.31"/>
</g>
<!-- Node2 -->
<g id="node3" class="node">
<title>Node2</title>
<g id="a_node3"><a xlink:href="classtls_1_1Client.html" target="_top" xlink:title=" ">
<polygon fill="white" stroke="#666666" points="204.5,-56 141.5,-56 141.5,-37 204.5,-37 204.5,-56"/>
<text text-anchor="middle" x="173" y="-44" font-family="Helvetica,sans-Serif" font-size="10.00">tls::Client</text>
</a>
</g>
</g>
<!-- Node0&#45;&gt;Node2 -->
<g id="edge2" class="edge">
<title>Node0&#45;&gt;Node2</title>
<path fill="none" stroke="#63b8ff" d="M83.2,-46.5C102.31,-46.5 124.01,-46.5 141.17,-46.5"/>
<polygon fill="#63b8ff" stroke="#63b8ff" points="83.19,-43 73.19,-46.5 83.19,-50 83.19,-43"/>
</g>
<!-- Node3 -->
<g id="node4" class="node">
<title>Node3</title>
<g id="a_node4"><a xlink:href="classtls_1_1Server.html" target="_top" xlink:title=" ">
<polygon fill="white" stroke="#666666" points="206,-19 140,-19 140,0 206,0 206,-19"/>
<text text-anchor="middle" x="173" y="-7" font-family="Helvetica,sans-Serif" font-size="10.00">tls::Server</text>
</a>
</g>
</g>
<!-- Node0&#45;&gt;Node3 -->
<g id="edge3" class="edge">
<title>Node0&#45;&gt;Node3</title>
<path fill="none" stroke="#63b8ff" d="M82.01,-34.25C100.9,-29.06 122.49,-23.12 139.79,-18.36"/>
<polygon fill="#63b8ff" stroke="#63b8ff" points="80.85,-30.94 72.14,-36.97 82.71,-37.69 80.85,-30.94"/>
</g>
</g>
</svg>
