<?xml version="1.0" encoding="UTF-8" standalone="no"?>
<!DOCTYPE svg PUBLIC "-//W3C//DTD SVG 1.1//EN"
 "http://www.w3.org/Graphics/SVG/1.1/DTD/svg11.dtd">
<!-- Generated by graphviz version 2.43.0 (0)
 -->
<!-- Title: include/ccf/crypto/jwk.h Pages: 1 -->
<svg width="1024pt" height="368pt"
 viewBox="0.00 0.00 1024.46 368.00" xmlns="http://www.w3.org/2000/svg" xmlns:xlink="http://www.w3.org/1999/xlink">
<g id="graph0" class="graph" transform="scale(1 1) rotate(0) translate(4 364)">
<title>include/ccf/crypto/jwk.h</title>
<!-- Node1 -->
<g id="node1" class="node">
<title>Node1</title>
<g id="a_node1"><a xlink:title=" ">
<polygon fill="#999999" stroke="#666666" points="394.5,-360 291.5,-360 291.5,-330 394.5,-330 394.5,-360"/>
<text text-anchor="start" x="299.5" y="-348" font-family="Helvetica,sans-Serif" font-size="10.00">include/ccf/crypto</text>
<text text-anchor="middle" x="343" y="-337" font-family="Helvetica,sans-Serif" font-size="10.00">/jwk.h</text>
</a>
</g>
</g>
<!-- Node2 -->
<g id="node2" class="node">
<title>Node2</title>
<g id="a_node2"><a xlink:href="curve_8h.html" target="_top" xlink:title=" ">
<polygon fill="white" stroke="#666666" points="288,-294 184,-294 184,-275 288,-275 288,-294"/>
<text text-anchor="middle" x="236" y="-282" font-family="Helvetica,sans-Serif" font-size="10.00">ccf/crypto/curve.h</text>
</a>
</g>
</g>
<!-- Node1&#45;&gt;Node2 -->
<g id="edge1" class="edge">
<title>Node1&#45;&gt;Node2</title>
<path fill="none" stroke="#63b8ff" d="M317.37,-329.99C300.16,-320.58 277.6,-308.24 260.6,-298.95"/>
<polygon fill="#63b8ff" stroke="#63b8ff" points="262.25,-295.87 251.8,-294.14 258.9,-302.01 262.25,-295.87"/>
</g>
<!-- Node4 -->
<g id="node4" class="node">
<title>Node4</title>
<g id="a_node4"><a xlink:href="json_8h.html" target="_top" xlink:title=" ">
<polygon fill="white" stroke="#666666" points="400.5,-184 323.5,-184 323.5,-165 400.5,-165 400.5,-184"/>
<text text-anchor="middle" x="362" y="-172" font-family="Helvetica,sans-Serif" font-size="10.00">ccf/ds/json.h</text>
</a>
</g>
</g>
<!-- Node1&#45;&gt;Node4 -->
<g id="edge27" class="edge">
<title>Node1&#45;&gt;Node4</title>
<path fill="none" stroke="#63b8ff" d="M360.69,-329.92C382.1,-311.63 417.02,-277.45 431,-239 433.89,-231.06 435.04,-227.41 431,-220 423.35,-205.97 409.17,-195.69 395.64,-188.57"/>
<polygon fill="#63b8ff" stroke="#63b8ff" points="396.99,-185.34 386.47,-184.14 393.95,-191.64 396.99,-185.34"/>
</g>
<!-- Node6 -->
<g id="node6" class="node">
<title>Node6</title>
<g id="a_node6"><a xlink:title=" ">
<polygon fill="#e0e0e0" stroke="#999999" points="89,-19 45,-19 45,0 89,0 89,-19"/>
<text text-anchor="middle" x="67" y="-7" font-family="Helvetica,sans-Serif" font-size="10.00">string</text>
</a>
</g>
</g>
<!-- Node1&#45;&gt;Node6 -->
<g id="edge44" class="edge">
<title>Node1&#45;&gt;Node6</title>
<path fill="none" stroke="#63b8ff" d="M291.28,-337.81C195.46,-324.89 0,-291.11 0,-230.5 0,-230.5 0,-230.5 0,-118.5 0,-80.91 29.68,-45.51 49.53,-26.04"/>
<polygon fill="#63b8ff" stroke="#63b8ff" points="51.95,-28.57 56.82,-19.17 47.15,-23.48 51.95,-28.57"/>
</g>
<!-- Node21 -->
<g id="node21" class="node">
<title>Node21</title>
<g id="a_node21"><a xlink:href="logger_8h.html" target="_top" xlink:title=" ">
<polygon fill="white" stroke="#666666" points="673.5,-184 586.5,-184 586.5,-165 673.5,-165 673.5,-184"/>
<text text-anchor="middle" x="630" y="-172" font-family="Helvetica,sans-Serif" font-size="10.00">ccf/ds/logger.h</text>
</a>
</g>
</g>
<!-- Node1&#45;&gt;Node21 -->
<g id="edge28" class="edge">
<title>Node1&#45;&gt;Node21</title>
<path fill="none" stroke="#63b8ff" d="M366.98,-329.92C421.24,-298.06 552.93,-220.75 606.62,-189.23"/>
<polygon fill="#63b8ff" stroke="#63b8ff" points="608.56,-192.14 615.42,-184.06 605.02,-186.11 608.56,-192.14"/>
</g>
<!-- Node3 -->
<g id="node3" class="node">
<title>Node3</title>
<g id="a_node3"><a xlink:href="md__type_8h.html" target="_top" xlink:title=" ">
<polygon fill="white" stroke="#666666" points="421.5,-239 302.5,-239 302.5,-220 421.5,-220 421.5,-239"/>
<text text-anchor="middle" x="362" y="-227" font-family="Helvetica,sans-Serif" font-size="10.00">ccf/crypto/md_type.h</text>
</a>
</g>
</g>
<!-- Node2&#45;&gt;Node3 -->
<g id="edge2" class="edge">
<title>Node2&#45;&gt;Node3</title>
<path fill="none" stroke="#63b8ff" d="M256.24,-274.98C276.7,-266.38 308.53,-252.99 331.93,-243.15"/>
<polygon fill="#63b8ff" stroke="#63b8ff" points="333.53,-246.27 341.39,-239.17 330.81,-239.82 333.53,-246.27"/>
</g>
<!-- Node2&#45;&gt;Node4 -->
<g id="edge23" class="edge">
<title>Node2&#45;&gt;Node4</title>
<path fill="none" stroke="#63b8ff" d="M242.89,-274.64C253.17,-261.73 273.53,-237.42 294,-220 307.62,-208.41 324.42,-197.39 337.92,-189.21"/>
<polygon fill="#63b8ff" stroke="#63b8ff" points="339.83,-192.15 346.65,-184.04 336.26,-186.12 339.83,-192.15"/>
</g>
<!-- Node2&#45;&gt;Node6 -->
<g id="edge26" class="edge">
<title>Node2&#45;&gt;Node6</title>
<path fill="none" stroke="#63b8ff" d="M183.98,-277.66C125.31,-267.85 38,-242.07 38,-175.5 38,-175.5 38,-175.5 38,-118.5 38,-85.95 50.44,-49.71 59.03,-28.57"/>
<polygon fill="#63b8ff" stroke="#63b8ff" points="62.3,-29.82 62.97,-19.25 55.85,-27.09 62.3,-29.82"/>
</g>
<!-- Node16 -->
<g id="node16" class="node">
<title>Node16</title>
<g id="a_node16"><a xlink:title=" ">
<polygon fill="#e0e0e0" stroke="#999999" points="296.5,-74 217.5,-74 217.5,-55 296.5,-55 296.5,-74"/>
<text text-anchor="middle" x="257" y="-62" font-family="Helvetica,sans-Serif" font-size="10.00">fmt/format.h</text>
</a>
</g>
</g>
<!-- Node2&#45;&gt;Node16 -->
<g id="edge24" class="edge">
<title>Node2&#45;&gt;Node16</title>
<path fill="none" stroke="#63b8ff" d="M188.15,-274.99C167.53,-268.7 145.36,-257.8 133,-239 128.36,-231.94 131.88,-228.37 133,-220 139.73,-169.77 130.45,-148.84 163,-110 175.82,-94.7 195.09,-84.32 212.85,-77.46"/>
<polygon fill="#63b8ff" stroke="#63b8ff" points="214.28,-80.67 222.52,-74 211.92,-74.07 214.28,-80.67"/>
</g>
<!-- Node19 -->
<g id="node19" class="node">
<title>Node19</title>
<g id="a_node19"><a xlink:href="enum__formatter_8h.html" target="_top" xlink:title=" ">
<polygon fill="white" stroke="#666666" points="316,-129 180,-129 180,-110 316,-110 316,-129"/>
<text text-anchor="middle" x="248" y="-117" font-family="Helvetica,sans-Serif" font-size="10.00">ccf/ds/enum_formatter.h</text>
</a>
</g>
</g>
<!-- Node2&#45;&gt;Node19 -->
<g id="edge21" class="edge">
<title>Node2&#45;&gt;Node19</title>
<path fill="none" stroke="#63b8ff" d="M236.65,-274.74C238.52,-249.31 243.98,-175.08 246.59,-139.69"/>
<polygon fill="#63b8ff" stroke="#63b8ff" points="250.11,-139.54 247.35,-129.31 243.13,-139.02 250.11,-139.54"/>
</g>
<!-- Node20 -->
<g id="node20" class="node">
<title>Node20</title>
<g id="a_node20"><a xlink:title=" ">
<polygon fill="#e0e0e0" stroke="#999999" points="207.5,-239 142.5,-239 142.5,-220 207.5,-220 207.5,-239"/>
<text text-anchor="middle" x="175" y="-227" font-family="Helvetica,sans-Serif" font-size="10.00">stdexcept</text>
</a>
</g>
</g>
<!-- Node2&#45;&gt;Node20 -->
<g id="edge25" class="edge">
<title>Node2&#45;&gt;Node20</title>
<path fill="none" stroke="#63b8ff" d="M226.2,-274.98C217.18,-267.15 203.59,-255.34 192.68,-245.86"/>
<polygon fill="#63b8ff" stroke="#63b8ff" points="194.82,-243.09 184.98,-239.17 190.23,-248.37 194.82,-243.09"/>
</g>
<!-- Node3&#45;&gt;Node4 -->
<g id="edge3" class="edge">
<title>Node3&#45;&gt;Node4</title>
<path fill="none" stroke="#63b8ff" d="M362,-219.75C362,-212.8 362,-202.85 362,-194.13"/>
<polygon fill="#63b8ff" stroke="#63b8ff" points="365.5,-194.09 362,-184.09 358.5,-194.09 365.5,-194.09"/>
</g>
<!-- Node5 -->
<g id="node5" class="node">
<title>Node5</title>
<g id="a_node5"><a xlink:href="include_2ccf_2crypto_2base64_8h.html" target="_top" xlink:title=" ">
<polygon fill="white" stroke="#666666" points="178,-74 66,-74 66,-55 178,-55 178,-74"/>
<text text-anchor="middle" x="122" y="-62" font-family="Helvetica,sans-Serif" font-size="10.00">ccf/crypto/base64.h</text>
</a>
</g>
</g>
<!-- Node4&#45;&gt;Node5 -->
<g id="edge4" class="edge">
<title>Node4&#45;&gt;Node5</title>
<path fill="none" stroke="#63b8ff" d="M323.38,-173.33C280.57,-171.34 211.21,-162.6 163,-129 146.89,-117.77 135.6,-97.96 129,-83.45"/>
<polygon fill="#63b8ff" stroke="#63b8ff" points="132.14,-81.87 125.03,-74.02 125.69,-84.59 132.14,-81.87"/>
</g>
<!-- Node8 -->
<g id="node8" class="node">
<title>Node8</title>
<g id="a_node8"><a xlink:href="include_2ccf_2ds_2json__schema_8h.html" target="_top" xlink:title=" ">
<polygon fill="white" stroke="#666666" points="567.5,-129 446.5,-129 446.5,-110 567.5,-110 567.5,-129"/>
<text text-anchor="middle" x="507" y="-117" font-family="Helvetica,sans-Serif" font-size="10.00">ccf/ds/json_schema.h</text>
</a>
</g>
</g>
<!-- Node4&#45;&gt;Node8 -->
<g id="edge7" class="edge">
<title>Node4&#45;&gt;Node8</title>
<path fill="none" stroke="#63b8ff" d="M385.3,-164.98C409.25,-156.23 446.78,-142.51 473.83,-132.62"/>
<polygon fill="#63b8ff" stroke="#63b8ff" points="475.09,-135.89 483.28,-129.17 472.69,-129.32 475.09,-135.89"/>
</g>
<!-- Node4&#45;&gt;Node16 -->
<g id="edge19" class="edge">
<title>Node4&#45;&gt;Node16</title>
<path fill="none" stroke="#63b8ff" d="M323.16,-170.05C272.92,-164.7 189.63,-152.47 171,-129 153.4,-106.83 187.29,-88.54 217.56,-77.38"/>
<polygon fill="#63b8ff" stroke="#63b8ff" points="218.91,-80.61 227.2,-74 216.6,-74 218.91,-80.61"/>
</g>
<!-- Node18 -->
<g id="node18" class="node">
<title>Node18</title>
<g id="a_node18"><a xlink:title=" ">
<polygon fill="#e0e0e0" stroke="#999999" points="390,-129 334,-129 334,-110 390,-110 390,-129"/>
<text text-anchor="middle" x="362" y="-117" font-family="Helvetica,sans-Serif" font-size="10.00">sstream</text>
</a>
</g>
</g>
<!-- Node4&#45;&gt;Node18 -->
<g id="edge20" class="edge">
<title>Node4&#45;&gt;Node18</title>
<path fill="none" stroke="#63b8ff" d="M362,-164.75C362,-157.8 362,-147.85 362,-139.13"/>
<polygon fill="#63b8ff" stroke="#63b8ff" points="365.5,-139.09 362,-129.09 358.5,-139.09 365.5,-139.09"/>
</g>
<!-- Node5&#45;&gt;Node6 -->
<g id="edge5" class="edge">
<title>Node5&#45;&gt;Node6</title>
<path fill="none" stroke="#63b8ff" d="M112.92,-54.75C104.91,-47.03 93.04,-35.6 83.38,-26.28"/>
<polygon fill="#63b8ff" stroke="#63b8ff" points="85.54,-23.51 75.91,-19.09 80.69,-28.55 85.54,-23.51"/>
</g>
<!-- Node7 -->
<g id="node7" class="node">
<title>Node7</title>
<g id="a_node7"><a xlink:title=" ">
<polygon fill="#e0e0e0" stroke="#999999" points="164.5,-19 117.5,-19 117.5,0 164.5,0 164.5,-19"/>
<text text-anchor="middle" x="141" y="-7" font-family="Helvetica,sans-Serif" font-size="10.00">vector</text>
</a>
</g>
</g>
<!-- Node5&#45;&gt;Node7 -->
<g id="edge6" class="edge">
<title>Node5&#45;&gt;Node7</title>
<path fill="none" stroke="#63b8ff" d="M125.14,-54.75C127.68,-47.65 131.36,-37.4 134.53,-28.56"/>
<polygon fill="#63b8ff" stroke="#63b8ff" points="137.84,-29.68 137.92,-19.09 131.25,-27.32 137.84,-29.68"/>
</g>
<!-- Node9 -->
<g id="node9" class="node">
<title>Node9</title>
<g id="a_node9"><a xlink:href="nonstd_8h.html" target="_top" xlink:title=" ">
<polygon fill="white" stroke="#666666" points="424,-74 334,-74 334,-55 424,-55 424,-74"/>
<text text-anchor="middle" x="379" y="-62" font-family="Helvetica,sans-Serif" font-size="10.00">ccf/ds/nonstd.h</text>
</a>
</g>
</g>
<!-- Node8&#45;&gt;Node9 -->
<g id="edge8" class="edge">
<title>Node8&#45;&gt;Node9</title>
<path fill="none" stroke="#63b8ff" d="M486.43,-109.98C465.57,-101.34 433.03,-87.87 409.23,-78.02"/>
<polygon fill="#63b8ff" stroke="#63b8ff" points="410.52,-74.76 399.94,-74.17 407.84,-81.23 410.52,-74.76"/>
</g>
<!-- Node15 -->
<g id="node15" class="node">
<title>Node15</title>
<g id="a_node15"><a xlink:title=" ">
<polygon fill="#e0e0e0" stroke="#999999" points="636,-74 580,-74 580,-55 636,-55 636,-74"/>
<text text-anchor="middle" x="608" y="-62" font-family="Helvetica,sans-Serif" font-size="10.00">optional</text>
</a>
</g>
</g>
<!-- Node8&#45;&gt;Node15 -->
<g id="edge16" class="edge">
<title>Node8&#45;&gt;Node15</title>
<path fill="none" stroke="#63b8ff" d="M523.23,-109.98C539.18,-101.61 563.78,-88.7 582.38,-78.95"/>
<polygon fill="#63b8ff" stroke="#63b8ff" points="584.25,-81.92 591.48,-74.17 581,-75.72 584.25,-81.92"/>
</g>
<!-- Node8&#45;&gt;Node16 -->
<g id="edge17" class="edge">
<title>Node8&#45;&gt;Node16</title>
<path fill="none" stroke="#63b8ff" d="M466.83,-109.98C423.24,-100.74 353.59,-85.98 306.61,-76.02"/>
<polygon fill="#63b8ff" stroke="#63b8ff" points="307.16,-72.56 296.65,-73.91 305.71,-79.4 307.16,-72.56"/>
</g>
<!-- Node17 -->
<g id="node17" class="node">
<title>Node17</title>
<g id="a_node17"><a xlink:title=" ">
<polygon fill="#e0e0e0" stroke="#999999" points="562,-74 452,-74 452,-55 562,-55 562,-74"/>
<text text-anchor="middle" x="507" y="-62" font-family="Helvetica,sans-Serif" font-size="10.00">nlohmann/json.hpp</text>
</a>
</g>
</g>
<!-- Node8&#45;&gt;Node17 -->
<g id="edge18" class="edge">
<title>Node8&#45;&gt;Node17</title>
<path fill="none" stroke="#63b8ff" d="M507,-109.75C507,-102.8 507,-92.85 507,-84.13"/>
<polygon fill="#63b8ff" stroke="#63b8ff" points="510.5,-84.09 507,-74.09 503.5,-84.09 510.5,-84.09"/>
</g>
<!-- Node9&#45;&gt;Node6 -->
<g id="edge12" class="edge">
<title>Node9&#45;&gt;Node6</title>
<path fill="none" stroke="#63b8ff" d="M333.83,-56.67C279.95,-48.39 187.22,-33.71 108,-19 105.12,-18.47 102.13,-17.89 99.13,-17.29"/>
<polygon fill="#63b8ff" stroke="#63b8ff" points="99.59,-13.82 89.1,-15.26 98.2,-20.68 99.59,-13.82"/>
</g>
<!-- Node9&#45;&gt;Node7 -->
<g id="edge15" class="edge">
<title>Node9&#45;&gt;Node7</title>
<path fill="none" stroke="#63b8ff" d="M340.76,-54.98C294.78,-44.74 218.33,-27.72 174.55,-17.97"/>
<polygon fill="#63b8ff" stroke="#63b8ff" points="175.2,-14.53 164.68,-15.77 173.68,-21.36 175.2,-14.53"/>
</g>
<!-- Node10 -->
<g id="node10" class="node">
<title>Node10</title>
<g id="a_node10"><a xlink:title=" ">
<polygon fill="#e0e0e0" stroke="#999999" points="308,-19 244,-19 244,0 308,0 308,-19"/>
<text text-anchor="middle" x="276" y="-7" font-family="Helvetica,sans-Serif" font-size="10.00">algorithm</text>
</a>
</g>
</g>
<!-- Node9&#45;&gt;Node10 -->
<g id="edge9" class="edge">
<title>Node9&#45;&gt;Node10</title>
<path fill="none" stroke="#63b8ff" d="M362.45,-54.98C346.11,-46.57 320.87,-33.59 301.87,-23.81"/>
<polygon fill="#63b8ff" stroke="#63b8ff" points="303.34,-20.63 292.85,-19.17 300.14,-26.86 303.34,-20.63"/>
</g>
<!-- Node11 -->
<g id="node11" class="node">
<title>Node11</title>
<g id="a_node11"><a xlink:title=" ">
<polygon fill="#e0e0e0" stroke="#999999" points="368,-19 326,-19 326,0 368,0 368,-19"/>
<text text-anchor="middle" x="347" y="-7" font-family="Helvetica,sans-Serif" font-size="10.00">array</text>
</a>
</g>
</g>
<!-- Node9&#45;&gt;Node11 -->
<g id="edge10" class="edge">
<title>Node9&#45;&gt;Node11</title>
<path fill="none" stroke="#63b8ff" d="M373.72,-54.75C369.29,-47.42 362.84,-36.73 357.38,-27.7"/>
<polygon fill="#63b8ff" stroke="#63b8ff" points="360.35,-25.84 352.19,-19.09 354.36,-29.46 360.35,-25.84"/>
</g>
<!-- Node12 -->
<g id="node12" class="node">
<title>Node12</title>
<g id="a_node12"><a xlink:title=" ">
<polygon fill="#e0e0e0" stroke="#999999" points="435.5,-19 386.5,-19 386.5,0 435.5,0 435.5,-19"/>
<text text-anchor="middle" x="411" y="-7" font-family="Helvetica,sans-Serif" font-size="10.00">cctype</text>
</a>
</g>
</g>
<!-- Node9&#45;&gt;Node12 -->
<g id="edge11" class="edge">
<title>Node9&#45;&gt;Node12</title>
<path fill="none" stroke="#63b8ff" d="M384.28,-54.75C388.71,-47.42 395.16,-36.73 400.62,-27.7"/>
<polygon fill="#63b8ff" stroke="#63b8ff" points="403.64,-29.46 405.81,-19.09 397.65,-25.84 403.64,-29.46"/>
</g>
<!-- Node13 -->
<g id="node13" class="node">
<title>Node13</title>
<g id="a_node13"><a xlink:title=" ">
<polygon fill="#e0e0e0" stroke="#999999" points="526.5,-19 453.5,-19 453.5,0 526.5,0 526.5,-19"/>
<text text-anchor="middle" x="490" y="-7" font-family="Helvetica,sans-Serif" font-size="10.00">string_view</text>
</a>
</g>
</g>
<!-- Node9&#45;&gt;Node13 -->
<g id="edge13" class="edge">
<title>Node9&#45;&gt;Node13</title>
<path fill="none" stroke="#63b8ff" d="M396.83,-54.98C414.61,-46.5 442.15,-33.35 462.68,-23.54"/>
<polygon fill="#63b8ff" stroke="#63b8ff" points="464.33,-26.64 471.84,-19.17 461.31,-20.32 464.33,-26.64"/>
</g>
<!-- Node14 -->
<g id="node14" class="node">
<title>Node14</title>
<g id="a_node14"><a xlink:title=" ">
<polygon fill="#e0e0e0" stroke="#999999" points="860.5,-19 791.5,-19 791.5,0 860.5,0 860.5,-19"/>
<text text-anchor="middle" x="826" y="-7" font-family="Helvetica,sans-Serif" font-size="10.00">type_traits</text>
</a>
</g>
</g>
<!-- Node9&#45;&gt;Node14 -->
<g id="edge14" class="edge">
<title>Node9&#45;&gt;Node14</title>
<path fill="none" stroke="#63b8ff" d="M424.09,-57.42C430.44,-56.59 436.88,-55.76 443,-55 565.35,-39.77 709.91,-23.42 781.38,-15.44"/>
<polygon fill="#63b8ff" stroke="#63b8ff" points="781.83,-18.92 791.38,-14.33 781.06,-11.96 781.83,-18.92"/>
</g>
<!-- Node19&#45;&gt;Node16 -->
<g id="edge22" class="edge">
<title>Node19&#45;&gt;Node16</title>
<path fill="none" stroke="#63b8ff" d="M249.49,-109.75C250.67,-102.8 252.36,-92.85 253.84,-84.13"/>
<polygon fill="#63b8ff" stroke="#63b8ff" points="257.32,-84.53 255.54,-74.09 250.42,-83.36 257.32,-84.53"/>
</g>
<!-- Node21&#45;&gt;Node14 -->
<g id="edge43" class="edge">
<title>Node21&#45;&gt;Node14</title>
<path fill="none" stroke="#63b8ff" d="M673.79,-170.77C750.4,-165.44 905.28,-152.14 954,-129 986.38,-113.62 998.7,-106.87 1013,-74 1016.37,-66.26 1018.23,-61.63 1013,-55 995.62,-33 920.48,-20.71 870.9,-14.86"/>
<polygon fill="#63b8ff" stroke="#63b8ff" points="871.07,-11.35 860.74,-13.71 870.28,-18.31 871.07,-11.35"/>
</g>
<!-- Node21&#45;&gt;Node15 -->
<g id="edge41" class="edge">
<title>Node21&#45;&gt;Node15</title>
<path fill="none" stroke="#63b8ff" d="M673.68,-171.14C731.64,-166.36 823.03,-152.08 790,-110 788.87,-108.56 698.98,-87.06 645.97,-74.48"/>
<polygon fill="#63b8ff" stroke="#63b8ff" points="646.75,-71.07 636.21,-72.17 645.13,-77.88 646.75,-71.07"/>
</g>
<!-- Node21&#45;&gt;Node16 -->
<g id="edge38" class="edge">
<title>Node21&#45;&gt;Node16</title>
<path fill="none" stroke="#63b8ff" d="M586.12,-166.25C546.67,-159.05 487.51,-146.54 438,-129 419.83,-122.56 416.92,-117.13 399,-110 365.93,-96.85 327.33,-84.96 298.73,-76.79"/>
<polygon fill="#63b8ff" stroke="#63b8ff" points="299.63,-73.41 289.06,-74.06 297.73,-80.15 299.63,-73.41"/>
</g>
<!-- Node21&#45;&gt;Node17 -->
<g id="edge40" class="edge">
<title>Node21&#45;&gt;Node17</title>
<path fill="none" stroke="#63b8ff" d="M624.2,-164.97C615.14,-152.07 596.63,-127.25 577,-110 563.46,-98.11 546.44,-87.21 532.56,-79.18"/>
<polygon fill="#63b8ff" stroke="#63b8ff" points="533.98,-75.95 523.55,-74.09 530.54,-82.05 533.98,-75.95"/>
</g>
<!-- Node21&#45;&gt;Node18 -->
<g id="edge42" class="edge">
<title>Node21&#45;&gt;Node18</title>
<path fill="none" stroke="#63b8ff" d="M586.24,-164.95C540.7,-156.04 467.33,-141.64 404,-129 402.73,-128.75 401.43,-128.49 400.13,-128.23"/>
<polygon fill="#63b8ff" stroke="#63b8ff" points="400.5,-124.73 390.01,-126.19 399.12,-131.59 400.5,-124.73"/>
</g>
<!-- Node21&#45;&gt;Node19 -->
<g id="edge29" class="edge">
<title>Node21&#45;&gt;Node19</title>
<path fill="none" stroke="#63b8ff" d="M586.18,-167.42C521.1,-158.39 398.17,-141.34 319.82,-130.46"/>
<polygon fill="#63b8ff" stroke="#63b8ff" points="319.93,-126.95 309.54,-129.04 318.96,-133.88 319.93,-126.95"/>
</g>
<!-- Node22 -->
<g id="node22" class="node">
<title>Node22</title>
<g id="a_node22"><a xlink:href="thread__ids_8h.html" target="_top" xlink:title=" ">
<polygon fill="white" stroke="#666666" points="945,-129 837,-129 837,-110 945,-110 945,-129"/>
<text text-anchor="middle" x="891" y="-117" font-family="Helvetica,sans-Serif" font-size="10.00">ccf/ds/thread_ids.h</text>
</a>
</g>
</g>
<!-- Node21&#45;&gt;Node22 -->
<g id="edge30" class="edge">
<title>Node21&#45;&gt;Node22</title>
<path fill="none" stroke="#63b8ff" d="M671.93,-164.98C717.27,-155.78 789.61,-141.09 838.65,-131.13"/>
<polygon fill="#63b8ff" stroke="#63b8ff" points="839.63,-134.5 848.74,-129.08 838.24,-127.64 839.63,-134.5"/>
</g>
<!-- Node28 -->
<g id="node28" class="node">
<title>Node28</title>
<g id="a_node28"><a xlink:title=" ">
<polygon fill="#e0e0e0" stroke="#999999" points="703.5,-129 624.5,-129 624.5,-110 703.5,-110 703.5,-129"/>
<text text-anchor="middle" x="664" y="-117" font-family="Helvetica,sans-Serif" font-size="10.00">fmt/chrono.h</text>
</a>
</g>
</g>
<!-- Node21&#45;&gt;Node28 -->
<g id="edge37" class="edge">
<title>Node21&#45;&gt;Node28</title>
<path fill="none" stroke="#63b8ff" d="M635.61,-164.75C640.32,-157.42 647.17,-146.73 652.97,-137.7"/>
<polygon fill="#63b8ff" stroke="#63b8ff" points="656.04,-139.4 658.49,-129.09 650.14,-135.62 656.04,-139.4"/>
</g>
<!-- Node29 -->
<g id="node29" class="node">
<title>Node29</title>
<g id="a_node29"><a xlink:title=" ">
<polygon fill="#e0e0e0" stroke="#999999" points="781,-129 721,-129 721,-110 781,-110 781,-129"/>
<text text-anchor="middle" x="751" y="-117" font-family="Helvetica,sans-Serif" font-size="10.00">iostream</text>
</a>
</g>
</g>
<!-- Node21&#45;&gt;Node29 -->
<g id="edge39" class="edge">
<title>Node21&#45;&gt;Node29</title>
<path fill="none" stroke="#63b8ff" d="M649.44,-164.98C668.99,-156.42 699.38,-143.11 721.82,-133.28"/>
<polygon fill="#63b8ff" stroke="#63b8ff" points="723.45,-136.39 731.21,-129.17 720.64,-129.98 723.45,-136.39"/>
</g>
<!-- Node22&#45;&gt;Node16 -->
<g id="edge31" class="edge">
<title>Node22&#45;&gt;Node16</title>
<path fill="none" stroke="#63b8ff" d="M836.75,-113.87C821.62,-112.59 805.17,-111.23 790,-110 583.39,-93.31 531.23,-94.86 325,-74 319.09,-73.4 312.89,-72.71 306.75,-71.99"/>
<polygon fill="#63b8ff" stroke="#63b8ff" points="306.86,-68.48 296.52,-70.76 306.03,-75.43 306.86,-68.48"/>
</g>
<!-- Node23 -->
<g id="node23" class="node">
<title>Node23</title>
<g id="a_node23"><a xlink:title=" ">
<polygon fill="#e0e0e0" stroke="#999999" points="862,-74 776,-74 776,-55 862,-55 862,-74"/>
<text text-anchor="middle" x="819" y="-62" font-family="Helvetica,sans-Serif" font-size="10.00">fmt/ostream.h</text>
</a>
</g>
</g>
<!-- Node22&#45;&gt;Node23 -->
<g id="edge32" class="edge">
<title>Node22&#45;&gt;Node23</title>
<path fill="none" stroke="#63b8ff" d="M879.43,-109.98C868.58,-102 852.12,-89.88 839.12,-80.31"/>
<polygon fill="#63b8ff" stroke="#63b8ff" points="840.91,-77.28 830.78,-74.17 836.76,-82.92 840.91,-77.28"/>
</g>
<!-- Node24 -->
<g id="node24" class="node">
<title>Node24</title>
<g id="a_node24"><a xlink:title=" ">
<polygon fill="#e0e0e0" stroke="#999999" points="941.5,-74 880.5,-74 880.5,-55 941.5,-55 941.5,-74"/>
<text text-anchor="middle" x="911" y="-62" font-family="Helvetica,sans-Serif" font-size="10.00">fmt/std.h</text>
</a>
</g>
</g>
<!-- Node22&#45;&gt;Node24 -->
<g id="edge33" class="edge">
<title>Node22&#45;&gt;Node24</title>
<path fill="none" stroke="#63b8ff" d="M894.3,-109.75C896.98,-102.65 900.85,-92.4 904.19,-83.56"/>
<polygon fill="#63b8ff" stroke="#63b8ff" points="907.5,-84.68 907.76,-74.09 900.95,-82.21 907.5,-84.68"/>
</g>
<!-- Node25 -->
<g id="node25" class="node">
<title>Node25</title>
<g id="a_node25"><a xlink:title=" ">
<polygon fill="#e0e0e0" stroke="#999999" points="1004,-74 960,-74 960,-55 1004,-55 1004,-74"/>
<text text-anchor="middle" x="982" y="-62" font-family="Helvetica,sans-Serif" font-size="10.00">limits</text>
</a>
</g>
</g>
<!-- Node22&#45;&gt;Node25 -->
<g id="edge34" class="edge">
<title>Node22&#45;&gt;Node25</title>
<path fill="none" stroke="#63b8ff" d="M905.62,-109.98C919.86,-101.69 941.75,-88.94 958.45,-79.22"/>
<polygon fill="#63b8ff" stroke="#63b8ff" points="960.23,-82.23 967.11,-74.17 956.71,-76.18 960.23,-82.23"/>
</g>
<!-- Node26 -->
<g id="node26" class="node">
<title>Node26</title>
<g id="a_node26"><a xlink:title=" ">
<polygon fill="#e0e0e0" stroke="#999999" points="692,-74 654,-74 654,-55 692,-55 692,-74"/>
<text text-anchor="middle" x="673" y="-62" font-family="Helvetica,sans-Serif" font-size="10.00">map</text>
</a>
</g>
</g>
<!-- Node22&#45;&gt;Node26 -->
<g id="edge35" class="edge">
<title>Node22&#45;&gt;Node26</title>
<path fill="none" stroke="#63b8ff" d="M851.15,-109.95C814.68,-101.96 759.04,-89.32 702.12,-74.17"/>
<polygon fill="#63b8ff" stroke="#63b8ff" points="702.8,-70.73 692.23,-71.52 700.98,-77.49 702.8,-70.73"/>
</g>
<!-- Node27 -->
<g id="node27" class="node">
<title>Node27</title>
<g id="a_node27"><a xlink:title=" ">
<polygon fill="#e0e0e0" stroke="#999999" points="758,-74 710,-74 710,-55 758,-55 758,-74"/>
<text text-anchor="middle" x="734" y="-62" font-family="Helvetica,sans-Serif" font-size="10.00">thread</text>
</a>
</g>
</g>
<!-- Node22&#45;&gt;Node27 -->
<g id="edge36" class="edge">
<title>Node22&#45;&gt;Node27</title>
<path fill="none" stroke="#63b8ff" d="M865.78,-109.98C839.26,-101.03 797.38,-86.9 767.97,-76.97"/>
<polygon fill="#63b8ff" stroke="#63b8ff" points="768.73,-73.53 758.13,-73.65 766.49,-80.16 768.73,-73.53"/>
</g>
</g>
</svg>
