<?xml version="1.0" encoding="UTF-8" standalone="no"?>
<!DOCTYPE svg PUBLIC "-//W3C//DTD SVG 1.1//EN"
 "http://www.w3.org/Graphics/SVG/1.1/DTD/svg11.dtd">
<!-- Generated by graphviz version 2.43.0 (0)
 -->
<!-- Title: include/ccf/kv/map.h Pages: 1 -->
<!--zoomable 390 -->
<svg id="main" version="1.1" xmlns="http://www.w3.org/2000/svg" xmlns:xlink="http://www.w3.org/1999/xlink" xml:space="preserve" onload="init(evt)">
<style type="text/css"><![CDATA[
.edge:hover path { stroke: red; }
.edge:hover polygon { stroke: red; fill: red; }
]]></style>
<script type="text/javascript"><![CDATA[
var edges = document.getElementsByTagName('g');
if (edges && edges.length) {
  for (var i=0;i<edges.length;i++) {
    if (edges[i].id.substr(0,4)=='edge') {
      edges[i].setAttribute('class','edge');
    }
  }
}
]]></script>
        <defs>
                <circle id="rim" cx="0" cy="0" r="7"/>
                <circle id="rim2" cx="0" cy="0" r="3.5"/>
                <g id="zoomPlus">
                        <use xlink:href="#rim" fill="#404040">
                                <set attributeName="fill" to="#808080" begin="zoomplus.mouseover" end="zoomplus.mouseout"/>
                        </use>
                        <path d="M-4,0h8M0,-4v8" fill="none" stroke="white" stroke-width="1.5" pointer-events="none"/>
                </g>
                <g id="zoomMin">
                        <use xlink:href="#rim" fill="#404040">
                                <set attributeName="fill" to="#808080" begin="zoomminus.mouseover" end="zoomminus.mouseout"/>
                        </use>
                        <path d="M-4,0h8" fill="none" stroke="white" stroke-width="1.5" pointer-events="none"/>
                </g>
                <g id="dirArrow">
                        <path fill="none" stroke="white" stroke-width="1.5" d="M0,-3.0v7 M-2.5,-0.5L0,-3.0L2.5,-0.5"/>
                </g>
               <g id="resetDef">
                       <use xlink:href="#rim2" fill="#404040">
                               <set attributeName="fill" to="#808080" begin="reset.mouseover" end="reset.mouseout"/>
                       </use>
               </g>
        </defs>

<script type="text/javascript">
var viewWidth = 1090;
var viewHeight = 390;
var sectionId = 'dynsection-0';
</script>
<script xlink:href="svgpan.js"/>
<svg id="graph" class="graph">
<g id="viewport">
<title>include/ccf/kv/map.h</title>
<!-- Node1 -->
<g id="node1" class="node">
<title>Node1</title>
<g id="a_node1"><a xlink:title=" ">
<polygon fill="#999999" stroke="#666666" points="491,-382 373,-382 373,-363 491,-363 491,-382"/>
<text text-anchor="middle" x="432" y="-370" font-family="Helvetica,sans-Serif" font-size="10.00">include/ccf/kv/map.h</text>
</a>
</g>
</g>
<!-- Node2 -->
<g id="node2" class="node">
<title>Node2</title>
<g id="a_node2"><a xlink:href="get__name_8h.html" target="_top" xlink:title=" ">
<polygon fill="white" stroke="#666666" points="229.5,-321.5 122.5,-321.5 122.5,-302.5 229.5,-302.5 229.5,-321.5"/>
<text text-anchor="middle" x="176" y="-309.5" font-family="Helvetica,sans-Serif" font-size="10.00">ccf/kv/get_name.h</text>
</a>
</g>
</g>
<!-- Node1&#45;&gt;Node2 -->
<g id="edge1" class="edge">
<title>Node1&#45;&gt;Node2</title>
<path fill="none" stroke="#63b8ff" d="M394.78,-362.99C349.37,-352.62 272.56,-335.07 223.09,-323.76"/>
<polygon fill="#63b8ff" stroke="#63b8ff" points="223.8,-320.33 213.27,-321.52 222.24,-327.16 223.8,-320.33"/>
</g>
<!-- Node4 -->
<g id="node4" class="node">
<title>Node4</title>
<g id="a_node4"><a xlink:href="include_2ccf_2kv_2hooks_8h.html" target="_top" xlink:title=" ">
<polygon fill="white" stroke="#666666" points="432.5,-255.5 345.5,-255.5 345.5,-236.5 432.5,-236.5 432.5,-255.5"/>
<text text-anchor="middle" x="389" y="-243.5" font-family="Helvetica,sans-Serif" font-size="10.00">ccf/kv/hooks.h</text>
</a>
</g>
</g>
<!-- Node1&#45;&gt;Node4 -->
<g id="edge3" class="edge">
<title>Node1&#45;&gt;Node4</title>
<path fill="none" stroke="#63b8ff" d="M427.92,-362.75C423.85,-353.86 417.58,-339.64 413,-327 405.46,-306.17 398.37,-281.72 393.88,-265.38"/>
<polygon fill="#63b8ff" stroke="#63b8ff" points="397.2,-264.25 391.22,-255.51 390.44,-266.08 397.2,-264.25"/>
</g>
<!-- Node8 -->
<g id="node8" class="node">
<title>Node8</title>
<g id="a_node8"><a xlink:href="map__handle_8h.html" target="_top" xlink:title=" ">
<polygon fill="white" stroke="#666666" points="366,-321.5 248,-321.5 248,-302.5 366,-302.5 366,-321.5"/>
<text text-anchor="middle" x="307" y="-309.5" font-family="Helvetica,sans-Serif" font-size="10.00">ccf/kv/map_handle.h</text>
</a>
</g>
</g>
<!-- Node1&#45;&gt;Node8 -->
<g id="edge7" class="edge">
<title>Node1&#45;&gt;Node8</title>
<path fill="none" stroke="#63b8ff" d="M413.82,-362.99C392.99,-353.25 358.63,-337.16 334.52,-325.88"/>
<polygon fill="#63b8ff" stroke="#63b8ff" points="335.74,-322.59 325.2,-321.52 332.77,-328.93 335.74,-322.59"/>
</g>
<!-- Node20 -->
<g id="node20" class="node">
<title>Node20</title>
<g id="a_node20"><a xlink:href="blit__serialiser_8h.html" target="_top" xlink:title=" ">
<polygon fill="white" stroke="#666666" points="808.5,-327 709.5,-327 709.5,-297 808.5,-297 808.5,-327"/>
<text text-anchor="start" x="717.5" y="-315" font-family="Helvetica,sans-Serif" font-size="10.00">ccf/kv/serialisers</text>
<text text-anchor="middle" x="759" y="-304" font-family="Helvetica,sans-Serif" font-size="10.00">/blit_serialiser.h</text>
</a>
</g>
</g>
<!-- Node1&#45;&gt;Node20 -->
<g id="edge22" class="edge">
<title>Node1&#45;&gt;Node20</title>
<path fill="none" stroke="#63b8ff" d="M479.55,-362.99C537.61,-352.61 635.85,-335.03 699.04,-323.73"/>
<polygon fill="#63b8ff" stroke="#63b8ff" points="700.02,-327.11 709.25,-321.9 698.79,-320.22 700.02,-327.11"/>
</g>
<!-- Node27 -->
<g id="node27" class="node">
<title>Node27</title>
<g id="a_node27"><a xlink:href="json__serialiser_8h.html" target="_top" xlink:title=" ">
<polygon fill="white" stroke="#666666" points="642.5,-327 543.5,-327 543.5,-297 642.5,-297 642.5,-327"/>
<text text-anchor="start" x="551.5" y="-315" font-family="Helvetica,sans-Serif" font-size="10.00">ccf/kv/serialisers</text>
<text text-anchor="middle" x="593" y="-304" font-family="Helvetica,sans-Serif" font-size="10.00">/json_serialiser.h</text>
</a>
</g>
</g>
<!-- Node1&#45;&gt;Node27 -->
<g id="edge32" class="edge">
<title>Node1&#45;&gt;Node27</title>
<path fill="none" stroke="#63b8ff" d="M455.41,-362.99C478.68,-354.54 515.07,-341.32 544.58,-330.59"/>
<polygon fill="#63b8ff" stroke="#63b8ff" points="546.09,-333.77 554.29,-327.06 543.7,-327.19 546.09,-333.77"/>
</g>
<!-- Node29 -->
<g id="node29" class="node">
<title>Node29</title>
<g id="a_node29"><a xlink:href="untyped_8h.html" target="_top" xlink:title=" ">
<polygon fill="white" stroke="#666666" points="520,-321.5 422,-321.5 422,-302.5 520,-302.5 520,-321.5"/>
<text text-anchor="middle" x="471" y="-309.5" font-family="Helvetica,sans-Serif" font-size="10.00">ccf/kv/untyped.h</text>
</a>
</g>
</g>
<!-- Node1&#45;&gt;Node29 -->
<g id="edge35" class="edge">
<title>Node1&#45;&gt;Node29</title>
<path fill="none" stroke="#63b8ff" d="M437.75,-362.87C443.46,-354.31 452.35,-340.97 459.51,-330.24"/>
<polygon fill="#63b8ff" stroke="#63b8ff" points="462.59,-331.93 465.22,-321.67 456.76,-328.05 462.59,-331.93"/>
</g>
<!-- Node3 -->
<g id="node3" class="node">
<title>Node3</title>
<g id="a_node3"><a xlink:title=" ">
<polygon fill="#e0e0e0" stroke="#999999" points="198,-189.5 154,-189.5 154,-170.5 198,-170.5 198,-189.5"/>
<text text-anchor="middle" x="176" y="-177.5" font-family="Helvetica,sans-Serif" font-size="10.00">string</text>
</a>
</g>
</g>
<!-- Node2&#45;&gt;Node3 -->
<g id="edge2" class="edge">
<title>Node2&#45;&gt;Node3</title>
<path fill="none" stroke="#63b8ff" d="M176,-302.47C176,-281.82 176,-228.72 176,-200.04"/>
<polygon fill="#63b8ff" stroke="#63b8ff" points="179.5,-199.73 176,-189.73 172.5,-199.73 179.5,-199.73"/>
</g>
<!-- Node5 -->
<g id="node5" class="node">
<title>Node5</title>
<g id="a_node5"><a xlink:href="version_8h.html" target="_top" xlink:title=" ">
<polygon fill="white" stroke="#666666" points="394,-189.5 300,-189.5 300,-170.5 394,-170.5 394,-189.5"/>
<text text-anchor="middle" x="347" y="-177.5" font-family="Helvetica,sans-Serif" font-size="10.00">ccf/kv/version.h</text>
</a>
</g>
</g>
<!-- Node4&#45;&gt;Node5 -->
<g id="edge4" class="edge">
<title>Node4&#45;&gt;Node5</title>
<path fill="none" stroke="#63b8ff" d="M383.34,-236.37C376.98,-226.69 366.52,-210.74 358.44,-198.44"/>
<polygon fill="#63b8ff" stroke="#63b8ff" points="361.26,-196.35 352.84,-189.91 355.4,-200.19 361.26,-196.35"/>
</g>
<!-- Node6 -->
<g id="node6" class="node">
<title>Node6</title>
<g id="a_node6"><a xlink:title=" ">
<polygon fill="#e0e0e0" stroke="#999999" points="281.5,-189.5 216.5,-189.5 216.5,-170.5 281.5,-170.5 281.5,-189.5"/>
<text text-anchor="middle" x="249" y="-177.5" font-family="Helvetica,sans-Serif" font-size="10.00">functional</text>
</a>
</g>
</g>
<!-- Node4&#45;&gt;Node6 -->
<g id="edge5" class="edge">
<title>Node4&#45;&gt;Node6</title>
<path fill="none" stroke="#63b8ff" d="M370.12,-236.37C346.22,-225.44 304.83,-206.52 277.18,-193.88"/>
<polygon fill="#63b8ff" stroke="#63b8ff" points="278.58,-190.67 268.03,-189.7 275.67,-197.04 278.58,-190.67"/>
</g>
<!-- Node7 -->
<g id="node7" class="node">
<title>Node7</title>
<g id="a_node7"><a xlink:title=" ">
<polygon fill="#e0e0e0" stroke="#999999" points="470,-189.5 412,-189.5 412,-170.5 470,-170.5 470,-189.5"/>
<text text-anchor="middle" x="441" y="-177.5" font-family="Helvetica,sans-Serif" font-size="10.00">memory</text>
</a>
</g>
</g>
<!-- Node4&#45;&gt;Node7 -->
<g id="edge6" class="edge">
<title>Node4&#45;&gt;Node7</title>
<path fill="none" stroke="#63b8ff" d="M396.01,-236.37C404.03,-226.5 417.35,-210.11 427.42,-197.72"/>
<polygon fill="#63b8ff" stroke="#63b8ff" points="430.17,-199.87 433.76,-189.91 424.74,-195.46 430.17,-199.87"/>
</g>
<!-- Node9 -->
<g id="node9" class="node">
<title>Node9</title>
<g id="a_node9"><a xlink:href="untyped__map__handle_8h.html" target="_top" xlink:title=" ">
<polygon fill="white" stroke="#666666" points="327,-261 211,-261 211,-231 327,-231 327,-261"/>
<text text-anchor="start" x="219" y="-249" font-family="Helvetica,sans-Serif" font-size="10.00">ccf/kv/untyped_map</text>
<text text-anchor="middle" x="269" y="-238" font-family="Helvetica,sans-Serif" font-size="10.00">_handle.h</text>
</a>
</g>
</g>
<!-- Node8&#45;&gt;Node9 -->
<g id="edge8" class="edge">
<title>Node8&#45;&gt;Node9</title>
<path fill="none" stroke="#63b8ff" d="M301.88,-302.37C297,-294.16 289.45,-281.44 282.81,-270.26"/>
<polygon fill="#63b8ff" stroke="#63b8ff" points="285.64,-268.17 277.53,-261.36 279.62,-271.75 285.64,-268.17"/>
</g>
<!-- Node9&#45;&gt;Node3 -->
<g id="edge21" class="edge">
<title>Node9&#45;&gt;Node3</title>
<path fill="none" stroke="#63b8ff" d="M248.36,-230.8C233.06,-220.27 212.29,-205.97 196.92,-195.4"/>
<polygon fill="#63b8ff" stroke="#63b8ff" points="198.8,-192.44 188.58,-189.66 194.84,-198.21 198.8,-192.44"/>
</g>
<!-- Node9&#45;&gt;Node5 -->
<g id="edge18" class="edge">
<title>Node9&#45;&gt;Node5</title>
<path fill="none" stroke="#63b8ff" d="M286.31,-230.8C298.71,-220.62 315.4,-206.93 328.13,-196.48"/>
<polygon fill="#63b8ff" stroke="#63b8ff" points="330.71,-198.89 336.22,-189.84 326.27,-193.48 330.71,-198.89"/>
</g>
<!-- Node9&#45;&gt;Node6 -->
<g id="edge19" class="edge">
<title>Node9&#45;&gt;Node6</title>
<path fill="none" stroke="#63b8ff" d="M264.56,-230.8C261.69,-221.6 257.92,-209.53 254.81,-199.58"/>
<polygon fill="#63b8ff" stroke="#63b8ff" points="258.09,-198.35 251.76,-189.84 251.41,-200.43 258.09,-198.35"/>
</g>
<!-- Node10 -->
<g id="node10" class="node">
<title>Node10</title>
<g id="a_node10"><a xlink:href="abstract__handle_8h.html" target="_top" xlink:title=" ">
<polygon fill="white" stroke="#666666" points="136,-189.5 0,-189.5 0,-170.5 136,-170.5 136,-189.5"/>
<text text-anchor="middle" x="68" y="-177.5" font-family="Helvetica,sans-Serif" font-size="10.00">ccf/kv/abstract_handle.h</text>
</a>
</g>
</g>
<!-- Node9&#45;&gt;Node10 -->
<g id="edge9" class="edge">
<title>Node9&#45;&gt;Node10</title>
<path fill="none" stroke="#63b8ff" d="M224.89,-230.95C188.86,-219.48 138.54,-203.46 104.69,-192.68"/>
<polygon fill="#63b8ff" stroke="#63b8ff" points="105.34,-189.22 94.75,-189.52 103.22,-195.89 105.34,-189.22"/>
</g>
<!-- Node11 -->
<g id="node11" class="node">
<title>Node11</title>
<g id="a_node11"><a xlink:href="serialised__entry_8h.html" target="_top" xlink:title=" ">
<polygon fill="white" stroke="#666666" points="667.5,-195 562.5,-195 562.5,-165 667.5,-165 667.5,-195"/>
<text text-anchor="start" x="570.5" y="-183" font-family="Helvetica,sans-Serif" font-size="10.00">ccf/kv/serialisers</text>
<text text-anchor="middle" x="615" y="-172" font-family="Helvetica,sans-Serif" font-size="10.00">/serialised_entry.h</text>
</a>
</g>
</g>
<!-- Node9&#45;&gt;Node11 -->
<g id="edge10" class="edge">
<title>Node9&#45;&gt;Node11</title>
<path fill="none" stroke="#63b8ff" d="M327.08,-232.71C330.09,-232.12 333.08,-231.55 336,-231 428.99,-213.58 455.37,-213.74 552.35,-195.05"/>
<polygon fill="#63b8ff" stroke="#63b8ff" points="553.13,-198.47 562.28,-193.12 551.79,-191.6 553.13,-198.47"/>
</g>
<!-- Node19 -->
<g id="node19" class="node">
<title>Node19</title>
<g id="a_node19"><a xlink:title=" ">
<polygon fill="#e0e0e0" stroke="#999999" points="544,-189.5 488,-189.5 488,-170.5 544,-170.5 544,-189.5"/>
<text text-anchor="middle" x="516" y="-177.5" font-family="Helvetica,sans-Serif" font-size="10.00">optional</text>
</a>
</g>
</g>
<!-- Node9&#45;&gt;Node19 -->
<g id="edge20" class="edge">
<title>Node9&#45;&gt;Node19</title>
<path fill="none" stroke="#63b8ff" d="M327.3,-232C379.19,-220.27 451.05,-203.58 479,-195 480.92,-194.41 482.89,-193.77 484.86,-193.11"/>
<polygon fill="#63b8ff" stroke="#63b8ff" points="486.4,-196.27 494.64,-189.61 484.04,-189.68 486.4,-196.27"/>
</g>
<!-- Node12 -->
<g id="node12" class="node">
<title>Node12</title>
<g id="a_node12"><a xlink:href="byte__vector_8h.html" target="_top" xlink:title=" ">
<polygon fill="white" stroke="#666666" points="756,-129 656,-129 656,-110 756,-110 756,-129"/>
<text text-anchor="middle" x="706" y="-117" font-family="Helvetica,sans-Serif" font-size="10.00">ccf/byte_vector.h</text>
</a>
</g>
</g>
<!-- Node11&#45;&gt;Node12 -->
<g id="edge11" class="edge">
<title>Node11&#45;&gt;Node12</title>
<path fill="none" stroke="#63b8ff" d="M637.03,-164.84C651.27,-155.68 669.73,-143.82 683.97,-134.66"/>
<polygon fill="#63b8ff" stroke="#63b8ff" points="686.11,-137.45 692.63,-129.09 682.33,-131.56 686.11,-137.45"/>
</g>
<!-- Node13 -->
<g id="node13" class="node">
<title>Node13</title>
<g id="a_node13"><a xlink:href="siphash_8h.html" target="_top" xlink:title=" ">
<polygon fill="white" stroke="#666666" points="701.5,-74 606.5,-74 606.5,-55 701.5,-55 701.5,-74"/>
<text text-anchor="middle" x="654" y="-62" font-family="Helvetica,sans-Serif" font-size="10.00">ccf/ds/siphash.h</text>
</a>
</g>
</g>
<!-- Node12&#45;&gt;Node13 -->
<g id="edge12" class="edge">
<title>Node12&#45;&gt;Node13</title>
<path fill="none" stroke="#63b8ff" d="M697.41,-109.75C689.84,-102.03 678.62,-90.6 669.49,-81.28"/>
<polygon fill="#63b8ff" stroke="#63b8ff" points="671.93,-78.78 662.43,-74.09 666.93,-83.68 671.93,-78.78"/>
</g>
<!-- Node17 -->
<g id="node17" class="node">
<title>Node17</title>
<g id="a_node17"><a xlink:title=" ">
<polygon fill="#e0e0e0" stroke="#999999" points="798.5,-74 719.5,-74 719.5,-55 798.5,-55 798.5,-74"/>
<text text-anchor="middle" x="759" y="-62" font-family="Helvetica,sans-Serif" font-size="10.00">fmt/format.h</text>
</a>
</g>
</g>
<!-- Node12&#45;&gt;Node17 -->
<g id="edge16" class="edge">
<title>Node12&#45;&gt;Node17</title>
<path fill="none" stroke="#63b8ff" d="M714.75,-109.75C722.47,-102.03 733.9,-90.6 743.22,-81.28"/>
<polygon fill="#63b8ff" stroke="#63b8ff" points="745.81,-83.64 750.41,-74.09 740.86,-78.69 745.81,-83.64"/>
</g>
<!-- Node18 -->
<g id="node18" class="node">
<title>Node18</title>
<g id="a_node18"><a xlink:title=" ">
<polygon fill="#e0e0e0" stroke="#999999" points="965.5,-74 816.5,-74 816.5,-55 965.5,-55 965.5,-74"/>
<text text-anchor="middle" x="891" y="-62" font-family="Helvetica,sans-Serif" font-size="10.00">small_vector/SmallVector.h</text>
</a>
</g>
</g>
<!-- Node12&#45;&gt;Node18 -->
<g id="edge17" class="edge">
<title>Node12&#45;&gt;Node18</title>
<path fill="none" stroke="#63b8ff" d="M735.72,-109.98C767.05,-101.01 816.57,-86.82 851.24,-76.89"/>
<polygon fill="#63b8ff" stroke="#63b8ff" points="852.39,-80.2 861.04,-74.08 850.47,-73.47 852.39,-80.2"/>
</g>
<!-- Node14 -->
<g id="node14" class="node">
<title>Node14</title>
<g id="a_node14"><a xlink:title=" ">
<polygon fill="#e0e0e0" stroke="#999999" points="715.5,-19 662.5,-19 662.5,0 715.5,0 715.5,-19"/>
<text text-anchor="middle" x="689" y="-7" font-family="Helvetica,sans-Serif" font-size="10.00">cstddef</text>
</a>
</g>
</g>
<!-- Node13&#45;&gt;Node14 -->
<g id="edge13" class="edge">
<title>Node13&#45;&gt;Node14</title>
<path fill="none" stroke="#63b8ff" d="M659.78,-54.75C664.62,-47.42 671.68,-36.73 677.64,-27.7"/>
<polygon fill="#63b8ff" stroke="#63b8ff" points="680.74,-29.36 683.33,-19.09 674.9,-25.5 680.74,-29.36"/>
</g>
<!-- Node15 -->
<g id="node15" class="node">
<title>Node15</title>
<g id="a_node15"><a xlink:title=" ">
<polygon fill="#e0e0e0" stroke="#999999" points="644,-19 594,-19 594,0 644,0 644,-19"/>
<text text-anchor="middle" x="619" y="-7" font-family="Helvetica,sans-Serif" font-size="10.00">cstdint</text>
</a>
</g>
</g>
<!-- Node13&#45;&gt;Node15 -->
<g id="edge14" class="edge">
<title>Node13&#45;&gt;Node15</title>
<path fill="none" stroke="#63b8ff" d="M648.22,-54.75C643.38,-47.42 636.32,-36.73 630.36,-27.7"/>
<polygon fill="#63b8ff" stroke="#63b8ff" points="633.1,-25.5 624.67,-19.09 627.26,-29.36 633.1,-25.5"/>
</g>
<!-- Node16 -->
<g id="node16" class="node">
<title>Node16</title>
<g id="a_node16"><a xlink:title=" ">
<polygon fill="#e0e0e0" stroke="#999999" points="898.5,-19 851.5,-19 851.5,0 898.5,0 898.5,-19"/>
<text text-anchor="middle" x="875" y="-7" font-family="Helvetica,sans-Serif" font-size="10.00">vector</text>
</a>
</g>
</g>
<!-- Node13&#45;&gt;Node16 -->
<g id="edge15" class="edge">
<title>Node13&#45;&gt;Node16</title>
<path fill="none" stroke="#63b8ff" d="M689.51,-54.98C731.46,-44.92 800.73,-28.31 841.7,-18.49"/>
<polygon fill="#63b8ff" stroke="#63b8ff" points="842.56,-21.88 851.47,-16.14 840.93,-15.07 842.56,-21.88"/>
</g>
<!-- Node20&#45;&gt;Node11 -->
<g id="edge31" class="edge">
<title>Node20&#45;&gt;Node11</title>
<path fill="none" stroke="#63b8ff" d="M759.39,-296.82C759.1,-279.31 756.04,-249.59 740,-231 730.51,-220 700.75,-207.89 672.65,-198.34"/>
<polygon fill="#63b8ff" stroke="#63b8ff" points="673.41,-194.91 662.81,-195.08 671.2,-201.55 673.41,-194.91"/>
</g>
<!-- Node21 -->
<g id="node21" class="node">
<title>Node21</title>
<g id="a_node21"><a xlink:href="nonstd_8h.html" target="_top" xlink:title=" ">
<polygon fill="white" stroke="#666666" points="888,-255.5 798,-255.5 798,-236.5 888,-236.5 888,-255.5"/>
<text text-anchor="middle" x="843" y="-243.5" font-family="Helvetica,sans-Serif" font-size="10.00">ccf/ds/nonstd.h</text>
</a>
</g>
</g>
<!-- Node20&#45;&gt;Node21 -->
<g id="edge23" class="edge">
<title>Node20&#45;&gt;Node21</title>
<path fill="none" stroke="#63b8ff" d="M777.64,-296.8C791.12,-286.53 809.31,-272.67 823.08,-262.18"/>
<polygon fill="#63b8ff" stroke="#63b8ff" points="825.56,-264.69 831.39,-255.84 821.32,-259.12 825.56,-264.69"/>
</g>
<!-- Node21&#45;&gt;Node3 -->
<g id="edge27" class="edge">
<title>Node21&#45;&gt;Node3</title>
<path fill="none" stroke="#63b8ff" d="M797.95,-238.2C779.96,-235.67 759.03,-232.93 740,-231 503.79,-207 437.29,-252.78 207,-195 205.27,-194.57 203.51,-194.04 201.76,-193.45"/>
<polygon fill="#63b8ff" stroke="#63b8ff" points="202.6,-190.01 192.02,-189.54 200,-196.51 202.6,-190.01"/>
</g>
<!-- Node21&#45;&gt;Node16 -->
<g id="edge30" class="edge">
<title>Node21&#45;&gt;Node16</title>
<path fill="none" stroke="#63b8ff" d="M888.13,-241.36C946.5,-235.6 1043.28,-222.15 1065,-195 1110.06,-138.67 1060.02,-119.89 975,-55 955.01,-39.74 928.96,-28.37 908.46,-20.94"/>
<polygon fill="#63b8ff" stroke="#63b8ff" points="909.49,-17.59 898.9,-17.61 907.19,-24.2 909.49,-17.59"/>
</g>
<!-- Node22 -->
<g id="node22" class="node">
<title>Node22</title>
<g id="a_node22"><a xlink:title=" ">
<polygon fill="#e0e0e0" stroke="#999999" points="750,-189.5 686,-189.5 686,-170.5 750,-170.5 750,-189.5"/>
<text text-anchor="middle" x="718" y="-177.5" font-family="Helvetica,sans-Serif" font-size="10.00">algorithm</text>
</a>
</g>
</g>
<!-- Node21&#45;&gt;Node22 -->
<g id="edge24" class="edge">
<title>Node21&#45;&gt;Node22</title>
<path fill="none" stroke="#63b8ff" d="M826.14,-236.37C805.08,-225.59 768.82,-207.02 744.14,-194.38"/>
<polygon fill="#63b8ff" stroke="#63b8ff" points="745.49,-191.14 734.99,-189.7 742.3,-197.37 745.49,-191.14"/>
</g>
<!-- Node23 -->
<g id="node23" class="node">
<title>Node23</title>
<g id="a_node23"><a xlink:title=" ">
<polygon fill="#e0e0e0" stroke="#999999" points="810,-189.5 768,-189.5 768,-170.5 810,-170.5 810,-189.5"/>
<text text-anchor="middle" x="789" y="-177.5" font-family="Helvetica,sans-Serif" font-size="10.00">array</text>
</a>
</g>
</g>
<!-- Node21&#45;&gt;Node23 -->
<g id="edge25" class="edge">
<title>Node21&#45;&gt;Node23</title>
<path fill="none" stroke="#63b8ff" d="M835.72,-236.37C827.39,-226.5 813.56,-210.11 803.11,-197.72"/>
<polygon fill="#63b8ff" stroke="#63b8ff" points="805.64,-195.29 796.51,-189.91 800.29,-199.81 805.64,-195.29"/>
</g>
<!-- Node24 -->
<g id="node24" class="node">
<title>Node24</title>
<g id="a_node24"><a xlink:title=" ">
<polygon fill="#e0e0e0" stroke="#999999" points="877.5,-189.5 828.5,-189.5 828.5,-170.5 877.5,-170.5 877.5,-189.5"/>
<text text-anchor="middle" x="853" y="-177.5" font-family="Helvetica,sans-Serif" font-size="10.00">cctype</text>
</a>
</g>
</g>
<!-- Node21&#45;&gt;Node24 -->
<g id="edge26" class="edge">
<title>Node21&#45;&gt;Node24</title>
<path fill="none" stroke="#63b8ff" d="M844.35,-236.37C845.8,-227.07 848.16,-211.98 850.05,-199.9"/>
<polygon fill="#63b8ff" stroke="#63b8ff" points="853.52,-200.33 851.61,-189.91 846.61,-199.25 853.52,-200.33"/>
</g>
<!-- Node25 -->
<g id="node25" class="node">
<title>Node25</title>
<g id="a_node25"><a xlink:title=" ">
<polygon fill="#e0e0e0" stroke="#999999" points="968.5,-189.5 895.5,-189.5 895.5,-170.5 968.5,-170.5 968.5,-189.5"/>
<text text-anchor="middle" x="932" y="-177.5" font-family="Helvetica,sans-Serif" font-size="10.00">string_view</text>
</a>
</g>
</g>
<!-- Node21&#45;&gt;Node25 -->
<g id="edge28" class="edge">
<title>Node21&#45;&gt;Node25</title>
<path fill="none" stroke="#63b8ff" d="M855,-236.37C869.47,-225.97 894.01,-208.32 911.49,-195.75"/>
<polygon fill="#63b8ff" stroke="#63b8ff" points="913.83,-198.38 919.9,-189.7 909.74,-192.7 913.83,-198.38"/>
</g>
<!-- Node26 -->
<g id="node26" class="node">
<title>Node26</title>
<g id="a_node26"><a xlink:title=" ">
<polygon fill="#e0e0e0" stroke="#999999" points="1055.5,-189.5 986.5,-189.5 986.5,-170.5 1055.5,-170.5 1055.5,-189.5"/>
<text text-anchor="middle" x="1021" y="-177.5" font-family="Helvetica,sans-Serif" font-size="10.00">type_traits</text>
</a>
</g>
</g>
<!-- Node21&#45;&gt;Node26 -->
<g id="edge29" class="edge">
<title>Node21&#45;&gt;Node26</title>
<path fill="none" stroke="#63b8ff" d="M867.01,-236.37C898.01,-225.22 952.16,-205.75 987.29,-193.12"/>
<polygon fill="#63b8ff" stroke="#63b8ff" points="988.86,-196.27 997.09,-189.6 986.5,-189.69 988.86,-196.27"/>
</g>
<!-- Node27&#45;&gt;Node11 -->
<g id="edge33" class="edge">
<title>Node27&#45;&gt;Node11</title>
<path fill="none" stroke="#63b8ff" d="M595.4,-296.84C599.12,-274.86 606.32,-232.27 610.89,-205.3"/>
<polygon fill="#63b8ff" stroke="#63b8ff" points="614.39,-205.59 612.61,-195.14 607.49,-204.42 614.39,-205.59"/>
</g>
<!-- Node28 -->
<g id="node28" class="node">
<title>Node28</title>
<g id="a_node28"><a xlink:title=" ">
<polygon fill="#e0e0e0" stroke="#999999" points="731,-255.5 621,-255.5 621,-236.5 731,-236.5 731,-255.5"/>
<text text-anchor="middle" x="676" y="-243.5" font-family="Helvetica,sans-Serif" font-size="10.00">nlohmann/json.hpp</text>
</a>
</g>
</g>
<!-- Node27&#45;&gt;Node28 -->
<g id="edge34" class="edge">
<title>Node27&#45;&gt;Node28</title>
<path fill="none" stroke="#63b8ff" d="M611.42,-296.8C624.74,-286.53 642.71,-272.67 656.31,-262.18"/>
<polygon fill="#63b8ff" stroke="#63b8ff" points="658.75,-264.72 664.53,-255.84 654.47,-259.18 658.75,-264.72"/>
</g>
<!-- Node29&#45;&gt;Node4 -->
<g id="edge36" class="edge">
<title>Node29&#45;&gt;Node4</title>
<path fill="none" stroke="#63b8ff" d="M459.94,-302.37C446.74,-292.06 424.42,-274.65 408.34,-262.09"/>
<polygon fill="#63b8ff" stroke="#63b8ff" points="410.18,-259.09 400.15,-255.7 405.88,-264.61 410.18,-259.09"/>
</g>
<!-- Node29&#45;&gt;Node11 -->
<g id="edge37" class="edge">
<title>Node29&#45;&gt;Node11</title>
<path fill="none" stroke="#63b8ff" d="M480.45,-302.47C502.83,-282.27 559.61,-231.01 591.8,-201.94"/>
<polygon fill="#63b8ff" stroke="#63b8ff" points="594.34,-204.37 599.42,-195.07 589.65,-199.17 594.34,-204.37"/>
</g>
<!-- Node29&#45;&gt;Node19 -->
<g id="edge39" class="edge">
<title>Node29&#45;&gt;Node19</title>
<path fill="none" stroke="#63b8ff" d="M476.54,-302.49C482.61,-292.81 492.26,-276.34 498,-261 505.62,-240.63 510.56,-216.09 513.3,-199.6"/>
<polygon fill="#63b8ff" stroke="#63b8ff" points="516.77,-200.05 514.85,-189.63 509.85,-198.97 516.77,-200.05"/>
</g>
<!-- Node30 -->
<g id="node30" class="node">
<title>Node30</title>
<g id="a_node30"><a xlink:title=" ">
<polygon fill="#e0e0e0" stroke="#999999" points="489,-255.5 451,-255.5 451,-236.5 489,-236.5 489,-255.5"/>
<text text-anchor="middle" x="470" y="-243.5" font-family="Helvetica,sans-Serif" font-size="10.00">map</text>
</a>
</g>
</g>
<!-- Node29&#45;&gt;Node30 -->
<g id="edge38" class="edge">
<title>Node29&#45;&gt;Node30</title>
<path fill="none" stroke="#63b8ff" d="M470.87,-302.37C470.72,-293.16 470.49,-278.29 470.3,-266.27"/>
<polygon fill="#63b8ff" stroke="#63b8ff" points="473.8,-265.85 470.14,-255.91 466.8,-265.96 473.8,-265.85"/>
</g>
</g>
</svg>
        <g id="navigator" transform="translate(0 0)" fill="#404254">
                <rect fill="#f2f5e9" fill-opacity="0.5" stroke="#606060" stroke-width=".5" x="0" y="0" width="60" height="60"/>
                <use id="zoomplus" xlink:href="#zoomPlus" x="17" y="9" onmousedown="handleZoom(evt,'in')"/>
                <use id="zoomminus" xlink:href="#zoomMin" x="42" y="9" onmousedown="handleZoom(evt,'out')"/>
                <use id="reset" xlink:href="#resetDef" x="30" y="36" onmousedown="handleReset()"/>
                <g id="arrowUp" xlink:href="#dirArrow" transform="translate(30 24)" onmousedown="handlePan(0,-1)">
                  <use xlink:href="#rim" fill="#404040">
                        <set attributeName="fill" to="#808080" begin="arrowUp.mouseover" end="arrowUp.mouseout"/>
                  </use>
                  <path fill="none" stroke="white" stroke-width="1.5" d="M0,-3.0v7 M-2.5,-0.5L0,-3.0L2.5,-0.5"/>
                </g>
                <g id="arrowRight" xlink:href="#dirArrow" transform="rotate(90) translate(36 -43)" onmousedown="handlePan(1,0)">
                  <use xlink:href="#rim" fill="#404040">
                        <set attributeName="fill" to="#808080" begin="arrowRight.mouseover" end="arrowRight.mouseout"/>
                  </use>
                  <path fill="none" stroke="white" stroke-width="1.5" d="M0,-3.0v7 M-2.5,-0.5L0,-3.0L2.5,-0.5"/>
                </g>
                <g id="arrowDown" xlink:href="#dirArrow" transform="rotate(180) translate(-30 -48)" onmousedown="handlePan(0,1)">
                  <use xlink:href="#rim" fill="#404040">
                        <set attributeName="fill" to="#808080" begin="arrowDown.mouseover" end="arrowDown.mouseout"/>
                  </use>
                  <path fill="none" stroke="white" stroke-width="1.5" d="M0,-3.0v7 M-2.5,-0.5L0,-3.0L2.5,-0.5"/>
                </g>
                <g id="arrowLeft" xlink:href="#dirArrow" transform="rotate(270) translate(-36 17)" onmousedown="handlePan(-1,0)">
                  <use xlink:href="#rim" fill="#404040">
                        <set attributeName="fill" to="#808080" begin="arrowLeft.mouseover" end="arrowLeft.mouseout"/>
                  </use>
                  <path fill="none" stroke="white" stroke-width="1.5" d="M0,-3.0v7 M-2.5,-0.5L0,-3.0L2.5,-0.5"/>
                </g>
        </g>
        <svg viewBox="0 0 15 15" width="100%" height="30px" preserveAspectRatio="xMaxYMin meet">
         <g id="arrow_out" transform="scale(0.3 0.3)">
          <a xlink:href="kv_2map_8h__incl_org.svg" target="_base">
           <rect id="button" ry="5" rx="5" y="6" x="6" height="38" width="38"
                fill="#f2f5e9" fill-opacity="0.5" stroke="#606060" stroke-width="1.0"/>
           <path id="arrow"
             d="M 11.500037,31.436501 C 11.940474,20.09759 22.043105,11.32322 32.158766,21.979434 L 37.068811,17.246167 C 37.068811,17.246167 37.088388,32 37.088388,32 L 22.160133,31.978069 C 22.160133,31.978069 26.997745,27.140456 26.997745,27.140456 C 18.528582,18.264221 13.291696,25.230495 11.500037,31.436501 z"
             style="fill:#404040;"/>
          </a>
         </g>
        </svg>
</svg>
