<?xml version="1.0" encoding="UTF-8" standalone="no"?>
<!DOCTYPE svg PUBLIC "-//W3C//DTD SVG 1.1//EN"
 "http://www.w3.org/Graphics/SVG/1.1/DTD/svg11.dtd">
<!-- Generated by graphviz version 2.43.0 (0)
 -->
<!-- Title: src/indexing/lfs_ringbuffer_types.h Pages: 1 -->
<!--zoomable 269 -->
<svg id="main" version="1.1" xmlns="http://www.w3.org/2000/svg" xmlns:xlink="http://www.w3.org/1999/xlink" xml:space="preserve" onload="init(evt)">
<style type="text/css"><![CDATA[
.edge:hover path { stroke: red; }
.edge:hover polygon { stroke: red; fill: red; }
]]></style>
<script type="text/javascript"><![CDATA[
var edges = document.getElementsByTagName('g');
if (edges && edges.length) {
  for (var i=0;i<edges.length;i++) {
    if (edges[i].id.substr(0,4)=='edge') {
      edges[i].setAttribute('class','edge');
    }
  }
}
]]></script>
        <defs>
                <circle id="rim" cx="0" cy="0" r="7"/>
                <circle id="rim2" cx="0" cy="0" r="3.5"/>
                <g id="zoomPlus">
                        <use xlink:href="#rim" fill="#404040">
                                <set attributeName="fill" to="#808080" begin="zoomplus.mouseover" end="zoomplus.mouseout"/>
                        </use>
                        <path d="M-4,0h8M0,-4v8" fill="none" stroke="white" stroke-width="1.5" pointer-events="none"/>
                </g>
                <g id="zoomMin">
                        <use xlink:href="#rim" fill="#404040">
                                <set attributeName="fill" to="#808080" begin="zoomminus.mouseover" end="zoomminus.mouseout"/>
                        </use>
                        <path d="M-4,0h8" fill="none" stroke="white" stroke-width="1.5" pointer-events="none"/>
                </g>
                <g id="dirArrow">
                        <path fill="none" stroke="white" stroke-width="1.5" d="M0,-3.0v7 M-2.5,-0.5L0,-3.0L2.5,-0.5"/>
                </g>
               <g id="resetDef">
                       <use xlink:href="#rim2" fill="#404040">
                               <set attributeName="fill" to="#808080" begin="reset.mouseover" end="reset.mouseout"/>
                       </use>
               </g>
        </defs>

<script type="text/javascript">
var viewWidth = 1048;
var viewHeight = 269;
var sectionId = 'dynsection-0';
</script>
<script xlink:href="svgpan.js"/>
<svg id="graph" class="graph">
<g id="viewport">
<title>src/indexing/lfs_ringbuffer_types.h</title>
<!-- Node1 -->
<g id="node1" class="node">
<title>Node1</title>
<g id="a_node1"><a xlink:title=" ">
<polygon fill="#999999" stroke="#666666" points="334.7,-261 191.7,-261 191.7,-231 334.7,-231 334.7,-261"/>
<text text-anchor="start" x="199.7" y="-249" font-family="Helvetica,sans-Serif" font-size="10.00">src/indexing/lfs_ringbuffer</text>
<text text-anchor="middle" x="263.2" y="-238" font-family="Helvetica,sans-Serif" font-size="10.00">_types.h</text>
</a>
</g>
</g>
<!-- Node2 -->
<g id="node2" class="node">
<title>Node2</title>
<g id="a_node2"><a xlink:href="ring__buffer__types_8h.html" target="_top" xlink:title=" ">
<polygon fill="white" stroke="#666666" points="443.7,-195 318.7,-195 318.7,-176 443.7,-176 443.7,-195"/>
<text text-anchor="middle" x="381.2" y="-183" font-family="Helvetica,sans-Serif" font-size="10.00">ds/ring_buffer_types.h</text>
</a>
</g>
</g>
<!-- Node1&#45;&gt;Node2 -->
<g id="edge1" class="edge">
<title>Node1&#45;&gt;Node2</title>
<path fill="none" stroke="#63b8ff" d="M291.47,-230.99C310.63,-221.49 335.79,-209.02 354.59,-199.69"/>
<polygon fill="#63b8ff" stroke="#63b8ff" points="356.37,-202.72 363.78,-195.14 353.26,-196.45 356.37,-202.72"/>
</g>
<!-- Node26 -->
<g id="node26" class="node">
<title>Node26</title>
<g id="a_node26"><a xlink:href="lfs__interface_8h.html" target="_top" xlink:title=" ">
<polygon fill="white" stroke="#666666" points="170.7,-140 39.7,-140 39.7,-121 170.7,-121 170.7,-140"/>
<text text-anchor="middle" x="105.2" y="-128" font-family="Helvetica,sans-Serif" font-size="10.00">indexing/lfs_interface.h</text>
</a>
</g>
</g>
<!-- Node1&#45;&gt;Node26 -->
<g id="edge38" class="edge">
<title>Node1&#45;&gt;Node26</title>
<path fill="none" stroke="#63b8ff" d="M243.51,-230.85C213.39,-209.22 156.18,-168.12 125.63,-146.17"/>
<polygon fill="#63b8ff" stroke="#63b8ff" points="127.58,-143.26 117.41,-140.27 123.49,-148.95 127.58,-143.26"/>
</g>
<!-- Node3 -->
<g id="node3" class="node">
<title>Node3</title>
<g id="a_node3"><a xlink:href="include_2ccf_2ds_2hash_8h.html" target="_top" xlink:title=" ">
<polygon fill="white" stroke="#666666" points="730.2,-140 650.2,-140 650.2,-121 730.2,-121 730.2,-140"/>
<text text-anchor="middle" x="690.2" y="-128" font-family="Helvetica,sans-Serif" font-size="10.00">ccf/ds/hash.h</text>
</a>
</g>
</g>
<!-- Node2&#45;&gt;Node3 -->
<g id="edge2" class="edge">
<title>Node2&#45;&gt;Node3</title>
<path fill="none" stroke="#63b8ff" d="M430.85,-175.98C488.3,-166.13 582.39,-149.99 640.05,-140.1"/>
<polygon fill="#63b8ff" stroke="#63b8ff" points="640.77,-143.53 650.03,-138.39 639.58,-136.63 640.77,-143.53"/>
</g>
<!-- Node7 -->
<g id="node7" class="node">
<title>Node7</title>
<g id="a_node7"><a xlink:title=" ">
<polygon fill="#e0e0e0" stroke="#999999" points="606.7,-19 559.7,-19 559.7,0 606.7,0 606.7,-19"/>
<text text-anchor="middle" x="583.2" y="-7" font-family="Helvetica,sans-Serif" font-size="10.00">vector</text>
</a>
</g>
</g>
<!-- Node2&#45;&gt;Node7 -->
<g id="edge37" class="edge">
<title>Node2&#45;&gt;Node7</title>
<path fill="none" stroke="#63b8ff" d="M443.86,-180.61C502.3,-175.52 583.36,-164.21 603.2,-140 629.66,-107.72 607.92,-55.19 593.48,-28.02"/>
<polygon fill="#63b8ff" stroke="#63b8ff" points="596.52,-26.28 588.59,-19.24 590.4,-29.68 596.52,-26.28"/>
</g>
<!-- Node11 -->
<g id="node11" class="node">
<title>Node11</title>
<g id="a_node11"><a xlink:href="nonstd_8h.html" target="_top" xlink:title=" ">
<polygon fill="white" stroke="#666666" points="327.2,-79.5 237.2,-79.5 237.2,-60.5 327.2,-60.5 327.2,-79.5"/>
<text text-anchor="middle" x="282.2" y="-67.5" font-family="Helvetica,sans-Serif" font-size="10.00">ccf/ds/nonstd.h</text>
</a>
</g>
</g>
<!-- Node2&#45;&gt;Node11 -->
<g id="edge12" class="edge">
<title>Node2&#45;&gt;Node11</title>
<path fill="none" stroke="#63b8ff" d="M321.83,-175.96C280.65,-168.68 230.98,-156.73 218.2,-140 202.46,-119.39 230.84,-97.81 254.68,-84.39"/>
<polygon fill="#63b8ff" stroke="#63b8ff" points="256.34,-87.47 263.5,-79.66 253.03,-81.3 256.34,-87.47"/>
</g>
<!-- Node14 -->
<g id="node14" class="node">
<title>Node14</title>
<g id="a_node14"><a xlink:title=" ">
<polygon fill="#e0e0e0" stroke="#999999" points="87.2,-19 43.2,-19 43.2,0 87.2,0 87.2,-19"/>
<text text-anchor="middle" x="65.2" y="-7" font-family="Helvetica,sans-Serif" font-size="10.00">string</text>
</a>
</g>
</g>
<!-- Node2&#45;&gt;Node14 -->
<g id="edge36" class="edge">
<title>Node2&#45;&gt;Node14</title>
<path fill="none" stroke="#63b8ff" d="M318.51,-183.98C230.13,-182.03 74.81,-173.73 31.2,-140 0.34,-116.12 -7.76,-90.14 9.2,-55 15.42,-42.12 27.38,-31.82 38.66,-24.38"/>
<polygon fill="#63b8ff" stroke="#63b8ff" points="40.71,-27.23 47.44,-19.04 37.07,-21.25 40.71,-27.23"/>
</g>
<!-- Node16 -->
<g id="node16" class="node">
<title>Node16</title>
<g id="a_node16"><a xlink:href="serializer_8h.html" target="_top" xlink:title=" ">
<polygon fill="white" stroke="#666666" points="297.2,-140 227.2,-140 227.2,-121 297.2,-121 297.2,-140"/>
<text text-anchor="middle" x="262.2" y="-128" font-family="Helvetica,sans-Serif" font-size="10.00">serializer.h</text>
</a>
</g>
</g>
<!-- Node2&#45;&gt;Node16 -->
<g id="edge20" class="edge">
<title>Node2&#45;&gt;Node16</title>
<path fill="none" stroke="#63b8ff" d="M362.08,-175.98C342.85,-167.42 312.97,-154.11 290.9,-144.28"/>
<polygon fill="#63b8ff" stroke="#63b8ff" points="292.23,-141.04 281.67,-140.17 289.38,-147.44 292.23,-141.04"/>
</g>
<!-- Node22 -->
<g id="node22" class="node">
<title>Node22</title>
<g id="a_node22"><a xlink:title=" ">
<polygon fill="#e0e0e0" stroke="#999999" points="365.2,-140 315.2,-140 315.2,-121 365.2,-121 365.2,-140"/>
<text text-anchor="middle" x="340.2" y="-128" font-family="Helvetica,sans-Serif" font-size="10.00">atomic</text>
</a>
</g>
</g>
<!-- Node2&#45;&gt;Node22 -->
<g id="edge32" class="edge">
<title>Node2&#45;&gt;Node22</title>
<path fill="none" stroke="#63b8ff" d="M374.43,-175.75C368.64,-168.26 360.14,-157.28 353.07,-148.13"/>
<polygon fill="#63b8ff" stroke="#63b8ff" points="355.73,-145.86 346.85,-140.09 350.2,-150.14 355.73,-145.86"/>
</g>
<!-- Node23 -->
<g id="node23" class="node">
<title>Node23</title>
<g id="a_node23"><a xlink:title=" ">
<polygon fill="#e0e0e0" stroke="#999999" points="462.7,-140 383.7,-140 383.7,-121 462.7,-121 462.7,-140"/>
<text text-anchor="middle" x="423.2" y="-128" font-family="Helvetica,sans-Serif" font-size="10.00">fmt/format.h</text>
</a>
</g>
</g>
<!-- Node2&#45;&gt;Node23 -->
<g id="edge33" class="edge">
<title>Node2&#45;&gt;Node23</title>
<path fill="none" stroke="#63b8ff" d="M388.14,-175.75C394.07,-168.26 402.77,-157.28 410.03,-148.13"/>
<polygon fill="#63b8ff" stroke="#63b8ff" points="412.93,-150.1 416.4,-140.09 407.44,-145.75 412.93,-150.1"/>
</g>
<!-- Node24 -->
<g id="node24" class="node">
<title>Node24</title>
<g id="a_node24"><a xlink:title=" ">
<polygon fill="#e0e0e0" stroke="#999999" points="536.2,-140 480.2,-140 480.2,-121 536.2,-121 536.2,-140"/>
<text text-anchor="middle" x="508.2" y="-128" font-family="Helvetica,sans-Serif" font-size="10.00">optional</text>
</a>
</g>
</g>
<!-- Node2&#45;&gt;Node24 -->
<g id="edge34" class="edge">
<title>Node2&#45;&gt;Node24</title>
<path fill="none" stroke="#63b8ff" d="M401.61,-175.98C422.22,-167.38 454.31,-153.99 477.9,-144.15"/>
<polygon fill="#63b8ff" stroke="#63b8ff" points="479.55,-147.25 487.43,-140.17 476.85,-140.79 479.55,-147.25"/>
</g>
<!-- Node25 -->
<g id="node25" class="node">
<title>Node25</title>
<g id="a_node25"><a xlink:title=" ">
<polygon fill="#e0e0e0" stroke="#999999" points="594.2,-140 554.2,-140 554.2,-121 594.2,-121 594.2,-140"/>
<text text-anchor="middle" x="574.2" y="-128" font-family="Helvetica,sans-Serif" font-size="10.00">span</text>
</a>
</g>
</g>
<!-- Node2&#45;&gt;Node25 -->
<g id="edge35" class="edge">
<title>Node2&#45;&gt;Node25</title>
<path fill="none" stroke="#63b8ff" d="M413.31,-175.99C444.41,-167.71 493.14,-154.61 544.07,-140.28"/>
<polygon fill="#63b8ff" stroke="#63b8ff" points="545.26,-143.58 553.94,-137.5 543.36,-136.84 545.26,-143.58"/>
</g>
<!-- Node4 -->
<g id="node4" class="node">
<title>Node4</title>
<g id="a_node4"><a xlink:href="siphash_8h.html" target="_top" xlink:title=" ">
<polygon fill="white" stroke="#666666" points="1024.7,-79.5 929.7,-79.5 929.7,-60.5 1024.7,-60.5 1024.7,-79.5"/>
<text text-anchor="middle" x="977.2" y="-67.5" font-family="Helvetica,sans-Serif" font-size="10.00">ccf/ds/siphash.h</text>
</a>
</g>
</g>
<!-- Node3&#45;&gt;Node4 -->
<g id="edge3" class="edge">
<title>Node3&#45;&gt;Node4</title>
<path fill="none" stroke="#63b8ff" d="M730.4,-122.44C776.59,-114.18 854.61,-99.73 921.2,-85 925.56,-84.04 930.09,-82.99 934.61,-81.91"/>
<polygon fill="#63b8ff" stroke="#63b8ff" points="935.52,-85.29 944.4,-79.52 933.86,-78.49 935.52,-85.29"/>
</g>
<!-- Node6 -->
<g id="node6" class="node">
<title>Node6</title>
<g id="a_node6"><a xlink:title=" ">
<polygon fill="#e0e0e0" stroke="#999999" points="967.2,-19 917.2,-19 917.2,0 967.2,0 967.2,-19"/>
<text text-anchor="middle" x="942.2" y="-7" font-family="Helvetica,sans-Serif" font-size="10.00">cstdint</text>
</a>
</g>
</g>
<!-- Node3&#45;&gt;Node6 -->
<g id="edge8" class="edge">
<title>Node3&#45;&gt;Node6</title>
<path fill="none" stroke="#63b8ff" d="M730.5,-127.23C817.03,-121.95 1014.4,-107.53 1034.2,-85 1043.01,-74.99 1041.29,-66.3 1034.2,-55 1027.48,-44.28 999.69,-31.69 976.4,-22.65"/>
<polygon fill="#63b8ff" stroke="#63b8ff" points="977.36,-19.27 966.76,-19 974.88,-25.81 977.36,-19.27"/>
</g>
<!-- Node3&#45;&gt;Node7 -->
<g id="edge11" class="edge">
<title>Node3&#45;&gt;Node7</title>
<path fill="none" stroke="#63b8ff" d="M682.51,-120.94C664.86,-101.31 621.2,-52.76 598.1,-27.07"/>
<polygon fill="#63b8ff" stroke="#63b8ff" points="600.41,-24.4 591.12,-19.3 595.2,-29.08 600.41,-24.4"/>
</g>
<!-- Node8 -->
<g id="node8" class="node">
<title>Node8</title>
<g id="a_node8"><a xlink:title=" ">
<polygon fill="#e0e0e0" stroke="#999999" points="541.2,-19 499.2,-19 499.2,0 541.2,0 541.2,-19"/>
<text text-anchor="middle" x="520.2" y="-7" font-family="Helvetica,sans-Serif" font-size="10.00">array</text>
</a>
</g>
</g>
<!-- Node3&#45;&gt;Node8 -->
<g id="edge7" class="edge">
<title>Node3&#45;&gt;Node8</title>
<path fill="none" stroke="#63b8ff" d="M675.49,-120.92C660.92,-112.27 638.11,-98.33 619.2,-85 601.62,-72.6 598.34,-68.01 581.2,-55 567.89,-44.89 552.71,-33.82 540.82,-25.24"/>
<polygon fill="#63b8ff" stroke="#63b8ff" points="542.62,-22.23 532.46,-19.23 538.53,-27.91 542.62,-22.23"/>
</g>
<!-- Node9 -->
<g id="node9" class="node">
<title>Node9</title>
<g id="a_node9"><a xlink:title=" ">
<polygon fill="#e0e0e0" stroke="#999999" points="911.7,-79.5 762.7,-79.5 762.7,-60.5 911.7,-60.5 911.7,-79.5"/>
<text text-anchor="middle" x="837.2" y="-67.5" font-family="Helvetica,sans-Serif" font-size="10.00">small_vector/SmallVector.h</text>
</a>
</g>
</g>
<!-- Node3&#45;&gt;Node9 -->
<g id="edge9" class="edge">
<title>Node3&#45;&gt;Node9</title>
<path fill="none" stroke="#63b8ff" d="M711.58,-120.99C736.51,-111.07 777.92,-94.59 806.34,-83.28"/>
<polygon fill="#63b8ff" stroke="#63b8ff" points="807.8,-86.47 815.8,-79.52 805.22,-79.96 807.8,-86.47"/>
</g>
<!-- Node10 -->
<g id="node10" class="node">
<title>Node10</title>
<g id="a_node10"><a xlink:title=" ">
<polygon fill="#e0e0e0" stroke="#999999" points="480.7,-19 407.7,-19 407.7,0 480.7,0 480.7,-19"/>
<text text-anchor="middle" x="444.2" y="-7" font-family="Helvetica,sans-Serif" font-size="10.00">string_view</text>
</a>
</g>
</g>
<!-- Node3&#45;&gt;Node10 -->
<g id="edge10" class="edge">
<title>Node3&#45;&gt;Node10</title>
<path fill="none" stroke="#63b8ff" d="M666.92,-120.85C644.63,-112.37 610.2,-98.75 581.2,-85 540.28,-65.59 494.34,-39.74 467.42,-24.15"/>
<polygon fill="#63b8ff" stroke="#63b8ff" points="469.13,-21.1 458.73,-19.09 465.61,-27.15 469.13,-21.1"/>
</g>
<!-- Node5 -->
<g id="node5" class="node">
<title>Node5</title>
<g id="a_node5"><a xlink:title=" ">
<polygon fill="#e0e0e0" stroke="#999999" points="1038.7,-19 985.7,-19 985.7,0 1038.7,0 1038.7,-19"/>
<text text-anchor="middle" x="1012.2" y="-7" font-family="Helvetica,sans-Serif" font-size="10.00">cstddef</text>
</a>
</g>
</g>
<!-- Node4&#45;&gt;Node5 -->
<g id="edge4" class="edge">
<title>Node4&#45;&gt;Node5</title>
<path fill="none" stroke="#63b8ff" d="M982.37,-60.37C987.43,-51.9 995.31,-38.74 1001.69,-28.07"/>
<polygon fill="#63b8ff" stroke="#63b8ff" points="1004.89,-29.55 1007.02,-19.17 998.88,-25.95 1004.89,-29.55"/>
</g>
<!-- Node4&#45;&gt;Node6 -->
<g id="edge5" class="edge">
<title>Node4&#45;&gt;Node6</title>
<path fill="none" stroke="#63b8ff" d="M972.04,-60.37C966.97,-51.9 959.1,-38.74 952.71,-28.07"/>
<polygon fill="#63b8ff" stroke="#63b8ff" points="955.53,-25.95 947.39,-19.17 949.52,-29.55 955.53,-25.95"/>
</g>
<!-- Node4&#45;&gt;Node7 -->
<g id="edge6" class="edge">
<title>Node4&#45;&gt;Node7</title>
<path fill="none" stroke="#63b8ff" d="M945.66,-60.43C937.71,-58.46 929.18,-56.51 921.2,-55 798.35,-31.8 766.08,-35.91 642.2,-19 633.98,-17.88 625.13,-16.62 616.84,-15.43"/>
<polygon fill="#63b8ff" stroke="#63b8ff" points="617.13,-11.94 606.73,-13.97 616.13,-18.87 617.13,-11.94"/>
</g>
<!-- Node11&#45;&gt;Node7 -->
<g id="edge19" class="edge">
<title>Node11&#45;&gt;Node7</title>
<path fill="none" stroke="#63b8ff" d="M327.44,-61.52C378.84,-52.81 465.43,-37.49 549.49,-19.03"/>
<polygon fill="#63b8ff" stroke="#63b8ff" points="550.45,-22.4 559.46,-16.82 548.94,-15.57 550.45,-22.4"/>
</g>
<!-- Node11&#45;&gt;Node8 -->
<g id="edge14" class="edge">
<title>Node11&#45;&gt;Node8</title>
<path fill="none" stroke="#63b8ff" d="M319.89,-60.42C359.61,-51.27 424.22,-36.09 488.96,-19.25"/>
<polygon fill="#63b8ff" stroke="#63b8ff" points="490.14,-22.56 498.93,-16.64 488.37,-15.79 490.14,-22.56"/>
</g>
<!-- Node11&#45;&gt;Node10 -->
<g id="edge17" class="edge">
<title>Node11&#45;&gt;Node10</title>
<path fill="none" stroke="#63b8ff" d="M305.76,-60.49C333.47,-50.49 379.67,-33.8 411.01,-22.49"/>
<polygon fill="#63b8ff" stroke="#63b8ff" points="412.4,-25.71 420.62,-19.02 410.02,-19.12 412.4,-25.71"/>
</g>
<!-- Node12 -->
<g id="node12" class="node">
<title>Node12</title>
<g id="a_node12"><a xlink:title=" ">
<polygon fill="#e0e0e0" stroke="#999999" points="235.2,-19 171.2,-19 171.2,0 235.2,0 235.2,-19"/>
<text text-anchor="middle" x="203.2" y="-7" font-family="Helvetica,sans-Serif" font-size="10.00">algorithm</text>
</a>
</g>
</g>
<!-- Node11&#45;&gt;Node12 -->
<g id="edge13" class="edge">
<title>Node11&#45;&gt;Node12</title>
<path fill="none" stroke="#63b8ff" d="M270.55,-60.37C258.06,-51.12 238.02,-36.28 223.05,-25.19"/>
<polygon fill="#63b8ff" stroke="#63b8ff" points="225.03,-22.31 214.91,-19.17 220.86,-27.93 225.03,-22.31"/>
</g>
<!-- Node13 -->
<g id="node13" class="node">
<title>Node13</title>
<g id="a_node13"><a xlink:title=" ">
<polygon fill="#e0e0e0" stroke="#999999" points="302.7,-19 253.7,-19 253.7,0 302.7,0 302.7,-19"/>
<text text-anchor="middle" x="278.2" y="-7" font-family="Helvetica,sans-Serif" font-size="10.00">cctype</text>
</a>
</g>
</g>
<!-- Node11&#45;&gt;Node13 -->
<g id="edge15" class="edge">
<title>Node11&#45;&gt;Node13</title>
<path fill="none" stroke="#63b8ff" d="M281.61,-60.37C281.06,-52.25 280.21,-39.81 279.49,-29.39"/>
<polygon fill="#63b8ff" stroke="#63b8ff" points="282.97,-28.91 278.8,-19.17 275.99,-29.38 282.97,-28.91"/>
</g>
<!-- Node11&#45;&gt;Node14 -->
<g id="edge16" class="edge">
<title>Node11&#45;&gt;Node14</title>
<path fill="none" stroke="#63b8ff" d="M250.65,-60.49C209.58,-49.42 138.2,-30.18 97.01,-19.07"/>
<polygon fill="#63b8ff" stroke="#63b8ff" points="97.79,-15.66 87.22,-16.44 95.97,-22.42 97.79,-15.66"/>
</g>
<!-- Node15 -->
<g id="node15" class="node">
<title>Node15</title>
<g id="a_node15"><a xlink:title=" ">
<polygon fill="#e0e0e0" stroke="#999999" points="389.7,-19 320.7,-19 320.7,0 389.7,0 389.7,-19"/>
<text text-anchor="middle" x="355.2" y="-7" font-family="Helvetica,sans-Serif" font-size="10.00">type_traits</text>
</a>
</g>
</g>
<!-- Node11&#45;&gt;Node15 -->
<g id="edge18" class="edge">
<title>Node11&#45;&gt;Node15</title>
<path fill="none" stroke="#63b8ff" d="M292.97,-60.37C304.4,-51.21 322.68,-36.56 336.48,-25.51"/>
<polygon fill="#63b8ff" stroke="#63b8ff" points="338.77,-28.15 344.39,-19.17 334.4,-22.69 338.77,-28.15"/>
</g>
<!-- Node16&#45;&gt;Node7 -->
<g id="edge31" class="edge">
<title>Node16&#45;&gt;Node7</title>
<path fill="none" stroke="#63b8ff" d="M297.54,-122.39C355.26,-110.73 464.19,-88.47 472.2,-85 493.58,-75.73 495.9,-68.05 515.2,-55 530.49,-44.67 547.91,-33.27 561.29,-24.6"/>
<polygon fill="#63b8ff" stroke="#63b8ff" points="563.34,-27.45 569.84,-19.08 559.54,-21.57 563.34,-27.45"/>
</g>
<!-- Node16&#45;&gt;Node11 -->
<g id="edge21" class="edge">
<title>Node16&#45;&gt;Node11</title>
<path fill="none" stroke="#63b8ff" d="M265.15,-120.87C267.99,-112.57 272.36,-99.78 275.97,-89.22"/>
<polygon fill="#63b8ff" stroke="#63b8ff" points="279.32,-90.26 279.24,-79.67 272.69,-88 279.32,-90.26"/>
</g>
<!-- Node16&#45;&gt;Node15 -->
<g id="edge30" class="edge">
<title>Node16&#45;&gt;Node15</title>
<path fill="none" stroke="#63b8ff" d="M285.95,-120.9C302.42,-113.74 323.59,-101.96 336.2,-85 348.25,-68.8 352.7,-45.73 354.32,-29.57"/>
<polygon fill="#63b8ff" stroke="#63b8ff" points="357.83,-29.44 355.06,-19.21 350.85,-28.94 357.83,-29.44"/>
</g>
<!-- Node17 -->
<g id="node17" class="node">
<title>Node17</title>
<g id="a_node17"><a xlink:href="serialized_8h.html" target="_top" xlink:title=" ">
<polygon fill="white" stroke="#666666" points="744.7,-79.5 671.7,-79.5 671.7,-60.5 744.7,-60.5 744.7,-79.5"/>
<text text-anchor="middle" x="708.2" y="-67.5" font-family="Helvetica,sans-Serif" font-size="10.00">serialized.h</text>
</a>
</g>
</g>
<!-- Node16&#45;&gt;Node17 -->
<g id="edge22" class="edge">
<title>Node16&#45;&gt;Node17</title>
<path fill="none" stroke="#63b8ff" d="M297.23,-122.51C300.26,-121.98 303.28,-121.46 306.2,-121 434.24,-100.69 586.31,-83.71 661.43,-75.79"/>
<polygon fill="#63b8ff" stroke="#63b8ff" points="661.92,-79.25 671.5,-74.73 661.19,-72.29 661.92,-79.25"/>
</g>
<!-- Node20 -->
<g id="node20" class="node">
<title>Node20</title>
<g id="a_node20"><a xlink:title=" ">
<polygon fill="#e0e0e0" stroke="#999999" points="219.2,-79.5 161.2,-79.5 161.2,-60.5 219.2,-60.5 219.2,-79.5"/>
<text text-anchor="middle" x="190.2" y="-67.5" font-family="Helvetica,sans-Serif" font-size="10.00">memory</text>
</a>
</g>
</g>
<!-- Node16&#45;&gt;Node20 -->
<g id="edge28" class="edge">
<title>Node16&#45;&gt;Node20</title>
<path fill="none" stroke="#63b8ff" d="M251.58,-120.87C240.31,-111.71 222.28,-97.06 208.67,-86.01"/>
<polygon fill="#63b8ff" stroke="#63b8ff" points="210.84,-83.26 200.87,-79.67 206.42,-88.69 210.84,-83.26"/>
</g>
<!-- Node21 -->
<g id="node21" class="node">
<title>Node21</title>
<g id="a_node21"><a xlink:title=" ">
<polygon fill="#e0e0e0" stroke="#999999" points="462.7,-79.5 421.7,-79.5 421.7,-60.5 462.7,-60.5 462.7,-79.5"/>
<text text-anchor="middle" x="442.2" y="-67.5" font-family="Helvetica,sans-Serif" font-size="10.00">tuple</text>
</a>
</g>
</g>
<!-- Node16&#45;&gt;Node21 -->
<g id="edge29" class="edge">
<title>Node16&#45;&gt;Node21</title>
<path fill="none" stroke="#63b8ff" d="M292.71,-120.93C322.22,-112.46 368.09,-98.8 407.2,-85 408.82,-84.43 410.46,-83.83 412.12,-83.22"/>
<polygon fill="#63b8ff" stroke="#63b8ff" points="413.51,-86.43 421.58,-79.58 410.99,-79.9 413.51,-86.43"/>
</g>
<!-- Node17&#45;&gt;Node6 -->
<g id="edge23" class="edge">
<title>Node17&#45;&gt;Node6</title>
<path fill="none" stroke="#63b8ff" d="M735.36,-60.42C741.54,-58.56 748.08,-56.66 754.2,-55 807.18,-40.68 869.23,-26.49 907.12,-18.11"/>
<polygon fill="#63b8ff" stroke="#63b8ff" points="908.13,-21.47 917.14,-15.9 906.62,-14.64 908.13,-21.47"/>
</g>
<!-- Node17&#45;&gt;Node7 -->
<g id="edge27" class="edge">
<title>Node17&#45;&gt;Node7</title>
<path fill="none" stroke="#63b8ff" d="M690.03,-60.49C669.2,-50.75 634.84,-34.66 610.72,-23.38"/>
<polygon fill="#63b8ff" stroke="#63b8ff" points="611.94,-20.09 601.4,-19.02 608.97,-26.43 611.94,-20.09"/>
</g>
<!-- Node17&#45;&gt;Node14 -->
<g id="edge26" class="edge">
<title>Node17&#45;&gt;Node14</title>
<path fill="none" stroke="#63b8ff" d="M671.32,-65.64C556.27,-55.18 205.19,-23.24 97.17,-13.41"/>
<polygon fill="#63b8ff" stroke="#63b8ff" points="97.48,-9.92 87.21,-12.5 96.85,-16.89 97.48,-9.92"/>
</g>
<!-- Node18 -->
<g id="node18" class="node">
<title>Node18</title>
<g id="a_node18"><a xlink:title=" ">
<polygon fill="#e0e0e0" stroke="#999999" points="784.2,-19 734.2,-19 734.2,0 784.2,0 784.2,-19"/>
<text text-anchor="middle" x="759.2" y="-7" font-family="Helvetica,sans-Serif" font-size="10.00">cstring</text>
</a>
</g>
</g>
<!-- Node17&#45;&gt;Node18 -->
<g id="edge24" class="edge">
<title>Node17&#45;&gt;Node18</title>
<path fill="none" stroke="#63b8ff" d="M715.73,-60.37C723.41,-51.55 735.53,-37.66 745.02,-26.77"/>
<polygon fill="#63b8ff" stroke="#63b8ff" points="747.71,-29.01 751.65,-19.17 742.44,-24.41 747.71,-29.01"/>
</g>
<!-- Node19 -->
<g id="node19" class="node">
<title>Node19</title>
<g id="a_node19"><a xlink:title=" ">
<polygon fill="#e0e0e0" stroke="#999999" points="715.7,-19 650.7,-19 650.7,0 715.7,0 715.7,-19"/>
<text text-anchor="middle" x="683.2" y="-7" font-family="Helvetica,sans-Serif" font-size="10.00">stdexcept</text>
</a>
</g>
</g>
<!-- Node17&#45;&gt;Node19 -->
<g id="edge25" class="edge">
<title>Node17&#45;&gt;Node19</title>
<path fill="none" stroke="#63b8ff" d="M704.51,-60.37C700.93,-51.99 695.39,-39.01 690.85,-28.39"/>
<polygon fill="#63b8ff" stroke="#63b8ff" points="694.05,-26.99 686.91,-19.17 687.62,-29.74 694.05,-26.99"/>
</g>
<!-- Node26&#45;&gt;Node7 -->
<g id="edge42" class="edge">
<title>Node26&#45;&gt;Node7</title>
<path fill="none" stroke="#63b8ff" d="M165.25,-120.99C212.29,-113.6 279.11,-101.47 336.2,-85 371.49,-74.82 378.27,-66.34 413.2,-55 419.76,-52.87 501.79,-31.57 549.46,-19.23"/>
<polygon fill="#63b8ff" stroke="#63b8ff" points="550.55,-22.56 559.36,-16.66 548.8,-15.78 550.55,-22.56"/>
</g>
<!-- Node26&#45;&gt;Node14 -->
<g id="edge41" class="edge">
<title>Node26&#45;&gt;Node14</title>
<path fill="none" stroke="#63b8ff" d="M69.76,-120.99C50.95,-114.48 29.45,-103.38 18.2,-85 11.25,-73.63 12.93,-67.25 18.2,-55 23.36,-43.03 33.49,-32.76 43.03,-25.12"/>
<polygon fill="#63b8ff" stroke="#63b8ff" points="45.19,-27.88 51.13,-19.11 41.02,-22.26 45.19,-27.88"/>
</g>
<!-- Node26&#45;&gt;Node20 -->
<g id="edge40" class="edge">
<title>Node26&#45;&gt;Node20</title>
<path fill="none" stroke="#63b8ff" d="M117.74,-120.87C131.3,-111.54 153.14,-96.51 169.3,-85.38"/>
<polygon fill="#63b8ff" stroke="#63b8ff" points="171.36,-88.22 177.61,-79.67 167.39,-82.45 171.36,-88.22"/>
</g>
<!-- Node27 -->
<g id="node27" class="node">
<title>Node27</title>
<g id="a_node27"><a xlink:href="node__subsystem__interface_8h.html" target="_top" xlink:title=" ">
<polygon fill="white" stroke="#666666" points="143.2,-85 27.2,-85 27.2,-55 143.2,-55 143.2,-85"/>
<text text-anchor="start" x="35.2" y="-73" font-family="Helvetica,sans-Serif" font-size="10.00">ccf/node_subsystem</text>
<text text-anchor="middle" x="85.2" y="-62" font-family="Helvetica,sans-Serif" font-size="10.00">_interface.h</text>
</a>
</g>
</g>
<!-- Node26&#45;&gt;Node27 -->
<g id="edge39" class="edge">
<title>Node26&#45;&gt;Node27</title>
<path fill="none" stroke="#63b8ff" d="M102.25,-120.87C99.89,-113.96 96.46,-103.93 93.3,-94.67"/>
<polygon fill="#63b8ff" stroke="#63b8ff" points="96.58,-93.44 90.03,-85.11 89.95,-95.71 96.58,-93.44"/>
</g>
</g>
</svg>
        <g id="navigator" transform="translate(0 0)" fill="#404254">
                <rect fill="#f2f5e9" fill-opacity="0.5" stroke="#606060" stroke-width=".5" x="0" y="0" width="60" height="60"/>
                <use id="zoomplus" xlink:href="#zoomPlus" x="17" y="9" onmousedown="handleZoom(evt,'in')"/>
                <use id="zoomminus" xlink:href="#zoomMin" x="42" y="9" onmousedown="handleZoom(evt,'out')"/>
                <use id="reset" xlink:href="#resetDef" x="30" y="36" onmousedown="handleReset()"/>
                <g id="arrowUp" xlink:href="#dirArrow" transform="translate(30 24)" onmousedown="handlePan(0,-1)">
                  <use xlink:href="#rim" fill="#404040">
                        <set attributeName="fill" to="#808080" begin="arrowUp.mouseover" end="arrowUp.mouseout"/>
                  </use>
                  <path fill="none" stroke="white" stroke-width="1.5" d="M0,-3.0v7 M-2.5,-0.5L0,-3.0L2.5,-0.5"/>
                </g>
                <g id="arrowRight" xlink:href="#dirArrow" transform="rotate(90) translate(36 -43)" onmousedown="handlePan(1,0)">
                  <use xlink:href="#rim" fill="#404040">
                        <set attributeName="fill" to="#808080" begin="arrowRight.mouseover" end="arrowRight.mouseout"/>
                  </use>
                  <path fill="none" stroke="white" stroke-width="1.5" d="M0,-3.0v7 M-2.5,-0.5L0,-3.0L2.5,-0.5"/>
                </g>
                <g id="arrowDown" xlink:href="#dirArrow" transform="rotate(180) translate(-30 -48)" onmousedown="handlePan(0,1)">
                  <use xlink:href="#rim" fill="#404040">
                        <set attributeName="fill" to="#808080" begin="arrowDown.mouseover" end="arrowDown.mouseout"/>
                  </use>
                  <path fill="none" stroke="white" stroke-width="1.5" d="M0,-3.0v7 M-2.5,-0.5L0,-3.0L2.5,-0.5"/>
                </g>
                <g id="arrowLeft" xlink:href="#dirArrow" transform="rotate(270) translate(-36 17)" onmousedown="handlePan(-1,0)">
                  <use xlink:href="#rim" fill="#404040">
                        <set attributeName="fill" to="#808080" begin="arrowLeft.mouseover" end="arrowLeft.mouseout"/>
                  </use>
                  <path fill="none" stroke="white" stroke-width="1.5" d="M0,-3.0v7 M-2.5,-0.5L0,-3.0L2.5,-0.5"/>
                </g>
        </g>
        <svg viewBox="0 0 15 15" width="100%" height="30px" preserveAspectRatio="xMaxYMin meet">
         <g id="arrow_out" transform="scale(0.3 0.3)">
          <a xlink:href="lfs__ringbuffer__types_8h__incl_org.svg" target="_base">
           <rect id="button" ry="5" rx="5" y="6" x="6" height="38" width="38"
                fill="#f2f5e9" fill-opacity="0.5" stroke="#606060" stroke-width="1.0"/>
           <path id="arrow"
             d="M 11.500037,31.436501 C 11.940474,20.09759 22.043105,11.32322 32.158766,21.979434 L 37.068811,17.246167 C 37.068811,17.246167 37.088388,32 37.088388,32 L 22.160133,31.978069 C 22.160133,31.978069 26.997745,27.140456 26.997745,27.140456 C 18.528582,18.264221 13.291696,25.230495 11.500037,31.436501 z"
             style="fill:#404040;"/>
          </a>
         </g>
        </svg>
</svg>
