<?xml version="1.0" encoding="UTF-8" standalone="no"?>
<!DOCTYPE svg PUBLIC "-//W3C//DTD SVG 1.1//EN"
 "http://www.w3.org/Graphics/SVG/1.1/DTD/svg11.dtd">
<!-- Generated by graphviz version 2.43.0 (0)
 -->
<!-- Title: src/indexing/lfs_interface.h Pages: 1 -->
<svg width="423pt" height="269pt"
 viewBox="0.00 0.00 423.00 269.00" xmlns="http://www.w3.org/2000/svg" xmlns:xlink="http://www.w3.org/1999/xlink">
<g id="graph0" class="graph" transform="scale(1 1) rotate(0) translate(4 265)">
<title>src/indexing/lfs_interface.h</title>
<!-- Node1 -->
<g id="node1" class="node">
<title>Node1</title>
<g id="a_node1"><a xlink:title=" ">
<polygon fill="#999999" stroke="#666666" points="235.5,-261 86.5,-261 86.5,-242 235.5,-242 235.5,-261"/>
<text text-anchor="middle" x="161" y="-249" font-family="Helvetica,sans-Serif" font-size="10.00">src/indexing/lfs_interface.h</text>
</a>
</g>
</g>
<!-- Node2 -->
<g id="node2" class="node">
<title>Node2</title>
<g id="a_node2"><a xlink:href="enclave__lfs__access_8h.html" target="_top" xlink:title=" ">
<polygon fill="white" stroke="#666666" points="119.5,-140 2.5,-140 2.5,-110 119.5,-110 119.5,-140"/>
<text text-anchor="start" x="10.5" y="-128" font-family="Helvetica,sans-Serif" font-size="10.00">src/indexing/enclave</text>
<text text-anchor="middle" x="61" y="-117" font-family="Helvetica,sans-Serif" font-size="10.00">_lfs_access.h</text>
</a>
</g>
</g>
<!-- Node1&#45;&gt;Node2 -->
<g id="edge1" class="edge">
<title>Node1&#45;&gt;Node2</title>
<path fill="none" stroke="#63b8ff" d="M123.88,-237.94C108.19,-230.87 91.03,-220.48 80,-206 65.21,-186.58 61.7,-157.41 61,-140.18"/>
<polygon fill="#63b8ff" stroke="#63b8ff" points="122.82,-241.29 133.4,-241.93 125.53,-234.84 122.82,-241.29"/>
</g>
<!-- Node5 -->
<g id="node5" class="node">
<title>Node5</title>
<g id="a_node5"><a xlink:href="lfs__ringbuffer__types_8h.html" target="_top" xlink:title=" ">
<polygon fill="white" stroke="#666666" points="232.5,-206 89.5,-206 89.5,-176 232.5,-176 232.5,-206"/>
<text text-anchor="start" x="97.5" y="-194" font-family="Helvetica,sans-Serif" font-size="10.00">src/indexing/lfs_ringbuffer</text>
<text text-anchor="middle" x="161" y="-183" font-family="Helvetica,sans-Serif" font-size="10.00">_types.h</text>
</a>
</g>
</g>
<!-- Node1&#45;&gt;Node5 -->
<g id="edge4" class="edge">
<title>Node1&#45;&gt;Node5</title>
<path fill="none" stroke="#63b8ff" d="M161,-231.65C161,-223.36 161,-213.78 161,-206.11"/>
<polygon fill="#63b8ff" stroke="#63b8ff" points="157.5,-231.87 161,-241.87 164.5,-231.87 157.5,-231.87"/>
</g>
<!-- Node8 -->
<g id="node8" class="node">
<title>Node8</title>
<g id="a_node8"><a xlink:href="seqnos__by__key__bucketed_8cpp.html" target="_top" xlink:title=" ">
<polygon fill="white" stroke="#666666" points="415,-206 251,-206 251,-176 415,-176 415,-206"/>
<text text-anchor="start" x="259" y="-194" font-family="Helvetica,sans-Serif" font-size="10.00">src/indexing/strategies</text>
<text text-anchor="middle" x="333" y="-183" font-family="Helvetica,sans-Serif" font-size="10.00">/seqnos_by_key_bucketed.cpp</text>
</a>
</g>
</g>
<!-- Node1&#45;&gt;Node8 -->
<g id="edge8" class="edge">
<title>Node1&#45;&gt;Node8</title>
<path fill="none" stroke="#63b8ff" d="M195.67,-238.71C223.39,-229.28 262.31,-216.04 291.65,-206.06"/>
<polygon fill="#63b8ff" stroke="#63b8ff" points="194.35,-235.46 186.01,-241.99 196.6,-242.09 194.35,-235.46"/>
</g>
<!-- Node3 -->
<g id="node3" class="node">
<title>Node3</title>
<g id="a_node3"><a xlink:href="src_2enclave_2enclave_8h.html" target="_top" xlink:title=" ">
<polygon fill="white" stroke="#666666" points="122,-74 0,-74 0,-55 122,-55 122,-74"/>
<text text-anchor="middle" x="61" y="-62" font-family="Helvetica,sans-Serif" font-size="10.00">src/enclave/enclave.h</text>
</a>
</g>
</g>
<!-- Node2&#45;&gt;Node3 -->
<g id="edge2" class="edge">
<title>Node2&#45;&gt;Node3</title>
<path fill="none" stroke="#63b8ff" d="M61,-99.75C61,-90.72 61,-81.03 61,-74.27"/>
<polygon fill="#63b8ff" stroke="#63b8ff" points="57.5,-99.84 61,-109.84 64.5,-99.84 57.5,-99.84"/>
</g>
<!-- Node4 -->
<g id="node4" class="node">
<title>Node4</title>
<g id="a_node4"><a xlink:href="enclave_2main_8cpp.html" target="_top" xlink:title=" ">
<polygon fill="white" stroke="#666666" points="121,-19 1,-19 1,0 121,0 121,-19"/>
<text text-anchor="middle" x="61" y="-7" font-family="Helvetica,sans-Serif" font-size="10.00">src/enclave/main.cpp</text>
</a>
</g>
</g>
<!-- Node3&#45;&gt;Node4 -->
<g id="edge3" class="edge">
<title>Node3&#45;&gt;Node4</title>
<path fill="none" stroke="#63b8ff" d="M61,-44.66C61,-35.93 61,-25.99 61,-19.09"/>
<polygon fill="#63b8ff" stroke="#63b8ff" points="57.5,-44.75 61,-54.75 64.5,-44.75 57.5,-44.75"/>
</g>
<!-- Node5&#45;&gt;Node2 -->
<g id="edge7" class="edge">
<title>Node5&#45;&gt;Node2</title>
<path fill="none" stroke="#63b8ff" d="M130.22,-170.3C115,-160.56 96.97,-149.02 83.13,-140.16"/>
<polygon fill="#63b8ff" stroke="#63b8ff" points="128.5,-173.35 138.81,-175.8 132.27,-167.46 128.5,-173.35"/>
</g>
<!-- Node6 -->
<g id="node6" class="node">
<title>Node6</title>
<g id="a_node6"><a xlink:href="lfs__file__handler_8h.html" target="_top" xlink:title=" ">
<polygon fill="white" stroke="#666666" points="278,-134.5 138,-134.5 138,-115.5 278,-115.5 278,-134.5"/>
<text text-anchor="middle" x="208" y="-122.5" font-family="Helvetica,sans-Serif" font-size="10.00">src/host/lfs_file_handler.h</text>
</a>
</g>
</g>
<!-- Node5&#45;&gt;Node6 -->
<g id="edge5" class="edge">
<title>Node5&#45;&gt;Node6</title>
<path fill="none" stroke="#63b8ff" d="M177.44,-167.61C185.73,-156.32 195.31,-143.28 201.5,-134.84"/>
<polygon fill="#63b8ff" stroke="#63b8ff" points="174.53,-165.66 171.43,-175.8 180.17,-169.81 174.53,-165.66"/>
</g>
<!-- Node7 -->
<g id="node7" class="node">
<title>Node7</title>
<g id="a_node7"><a xlink:href="host_2main_8cpp.html" target="_top" xlink:title=" ">
<polygon fill="white" stroke="#666666" points="259.5,-74 156.5,-74 156.5,-55 259.5,-55 259.5,-74"/>
<text text-anchor="middle" x="208" y="-62" font-family="Helvetica,sans-Serif" font-size="10.00">src/host/main.cpp</text>
</a>
</g>
</g>
<!-- Node6&#45;&gt;Node7 -->
<g id="edge6" class="edge">
<title>Node6&#45;&gt;Node7</title>
<path fill="none" stroke="#63b8ff" d="M208,-105.16C208,-94.74 208,-82.3 208,-74.17"/>
<polygon fill="#63b8ff" stroke="#63b8ff" points="204.5,-105.37 208,-115.37 211.5,-105.37 204.5,-105.37"/>
</g>
</g>
</svg>
