<?xml version="1.0" encoding="UTF-8" standalone="no"?>
<!DOCTYPE svg PUBLIC "-//W3C//DTD SVG 1.1//EN"
 "http://www.w3.org/Graphics/SVG/1.1/DTD/svg11.dtd">
<!-- Generated by graphviz version 2.43.0 (0)
 -->
<!-- Title: include/ccf/service/tables/modules.h Pages: 1 -->
<!--zoomable 511 -->
<svg id="main" version="1.1" xmlns="http://www.w3.org/2000/svg" xmlns:xlink="http://www.w3.org/1999/xlink" xml:space="preserve" onload="init(evt)">
<style type="text/css"><![CDATA[
.edge:hover path { stroke: red; }
.edge:hover polygon { stroke: red; fill: red; }
]]></style>
<script type="text/javascript"><![CDATA[
var edges = document.getElementsByTagName('g');
if (edges && edges.length) {
  for (var i=0;i<edges.length;i++) {
    if (edges[i].id.substr(0,4)=='edge') {
      edges[i].setAttribute('class','edge');
    }
  }
}
]]></script>
        <defs>
                <circle id="rim" cx="0" cy="0" r="7"/>
                <circle id="rim2" cx="0" cy="0" r="3.5"/>
                <g id="zoomPlus">
                        <use xlink:href="#rim" fill="#404040">
                                <set attributeName="fill" to="#808080" begin="zoomplus.mouseover" end="zoomplus.mouseout"/>
                        </use>
                        <path d="M-4,0h8M0,-4v8" fill="none" stroke="white" stroke-width="1.5" pointer-events="none"/>
                </g>
                <g id="zoomMin">
                        <use xlink:href="#rim" fill="#404040">
                                <set attributeName="fill" to="#808080" begin="zoomminus.mouseover" end="zoomminus.mouseout"/>
                        </use>
                        <path d="M-4,0h8" fill="none" stroke="white" stroke-width="1.5" pointer-events="none"/>
                </g>
                <g id="dirArrow">
                        <path fill="none" stroke="white" stroke-width="1.5" d="M0,-3.0v7 M-2.5,-0.5L0,-3.0L2.5,-0.5"/>
                </g>
               <g id="resetDef">
                       <use xlink:href="#rim2" fill="#404040">
                               <set attributeName="fill" to="#808080" begin="reset.mouseover" end="reset.mouseout"/>
                       </use>
               </g>
        </defs>

<script type="text/javascript">
var viewWidth = 1405;
var viewHeight = 511;
var sectionId = 'dynsection-0';
</script>
<script xlink:href="svgpan.js"/>
<svg id="graph" class="graph">
<g id="viewport">
<title>include/ccf/service/tables/modules.h</title>
<!-- Node1 -->
<g id="node1" class="node">
<title>Node1</title>
<g id="a_node1"><a xlink:title=" ">
<polygon fill="#999999" stroke="#666666" points="1330.5,-503 1223.5,-503 1223.5,-473 1330.5,-473 1330.5,-503"/>
<text text-anchor="start" x="1231.5" y="-491" font-family="Helvetica,sans-Serif" font-size="10.00">include/ccf/service</text>
<text text-anchor="middle" x="1277" y="-480" font-family="Helvetica,sans-Serif" font-size="10.00">/tables/modules.h</text>
</a>
</g>
</g>
<!-- Node2 -->
<g id="node2" class="node">
<title>Node2</title>
<g id="a_node2"><a xlink:href="service_2map_8h.html" target="_top" xlink:title=" ">
<polygon fill="white" stroke="#666666" points="903.5,-437 800.5,-437 800.5,-418 903.5,-418 903.5,-437"/>
<text text-anchor="middle" x="852" y="-425" font-family="Helvetica,sans-Serif" font-size="10.00">ccf/service/map.h</text>
</a>
</g>
</g>
<!-- Node1&#45;&gt;Node2 -->
<g id="edge1" class="edge">
<title>Node1&#45;&gt;Node2</title>
<path fill="none" stroke="#63b8ff" d="M1223.17,-479.59C1144.16,-468.71 997.15,-448.48 913.82,-437.01"/>
<polygon fill="#63b8ff" stroke="#63b8ff" points="914.11,-433.52 903.73,-435.62 913.16,-440.45 914.11,-433.52"/>
</g>
<!-- Node5 -->
<g id="node5" class="node">
<title>Node5</title>
<g id="a_node5"><a xlink:title=" ">
<polygon fill="#e0e0e0" stroke="#999999" points="470,-189.5 426,-189.5 426,-170.5 470,-170.5 470,-189.5"/>
<text text-anchor="middle" x="448" y="-177.5" font-family="Helvetica,sans-Serif" font-size="10.00">string</text>
</a>
</g>
</g>
<!-- Node1&#45;&gt;Node5 -->
<g id="edge63" class="edge">
<title>Node1&#45;&gt;Node5</title>
<path fill="none" stroke="#63b8ff" d="M1223.22,-486.8C1010.98,-485.33 243,-473.11 243,-373.5 243,-373.5 243,-373.5 243,-311 243,-270.36 359.33,-217.18 416.73,-193.41"/>
<polygon fill="#63b8ff" stroke="#63b8ff" points="418.13,-196.62 426.06,-189.59 415.48,-190.14 418.13,-196.62"/>
</g>
<!-- Node18 -->
<g id="node18" class="node">
<title>Node18</title>
<g id="a_node18"><a xlink:title=" ">
<polygon fill="#e0e0e0" stroke="#999999" points="421.5,-19 374.5,-19 374.5,0 421.5,0 421.5,-19"/>
<text text-anchor="middle" x="398" y="-7" font-family="Helvetica,sans-Serif" font-size="10.00">vector</text>
</a>
</g>
</g>
<!-- Node1&#45;&gt;Node18 -->
<g id="edge64" class="edge">
<title>Node1&#45;&gt;Node18</title>
<path fill="none" stroke="#63b8ff" d="M1285.06,-472.82C1296.21,-451.82 1315,-410.9 1315,-373.5 1315,-373.5 1315,-373.5 1315,-118.5 1315,-27.72 597,-13.03 431.67,-10.86"/>
<polygon fill="#63b8ff" stroke="#63b8ff" points="431.63,-7.35 421.59,-10.73 431.54,-14.35 431.63,-7.35"/>
</g>
<!-- Node21 -->
<g id="node21" class="node">
<title>Node21</title>
<g id="a_node21"><a xlink:title=" ">
<polygon fill="#e0e0e0" stroke="#999999" points="1109,-189.5 1053,-189.5 1053,-170.5 1109,-170.5 1109,-189.5"/>
<text text-anchor="middle" x="1081" y="-177.5" font-family="Helvetica,sans-Serif" font-size="10.00">optional</text>
</a>
</g>
</g>
<!-- Node1&#45;&gt;Node21 -->
<g id="edge61" class="edge">
<title>Node1&#45;&gt;Node21</title>
<path fill="none" stroke="#63b8ff" d="M1277,-472.67C1277,-451.14 1277,-409.17 1277,-373.5 1277,-373.5 1277,-373.5 1277,-311 1277,-271.61 1165.69,-217.76 1110.84,-193.62"/>
<polygon fill="#63b8ff" stroke="#63b8ff" points="1112.17,-190.38 1101.6,-189.6 1109.38,-196.8 1112.17,-190.38"/>
</g>
<!-- Node38 -->
<g id="node38" class="node">
<title>Node38</title>
<g id="a_node38"><a xlink:title=" ">
<polygon fill="#e0e0e0" stroke="#999999" points="1396.5,-437 1343.5,-437 1343.5,-418 1396.5,-418 1396.5,-437"/>
<text text-anchor="middle" x="1370" y="-425" font-family="Helvetica,sans-Serif" font-size="10.00">stdint.h</text>
</a>
</g>
</g>
<!-- Node1&#45;&gt;Node38 -->
<g id="edge62" class="edge">
<title>Node1&#45;&gt;Node38</title>
<path fill="none" stroke="#63b8ff" d="M1299.51,-472.84C1314.06,-463.68 1332.93,-451.82 1347.49,-442.66"/>
<polygon fill="#63b8ff" stroke="#63b8ff" points="1349.74,-445.38 1356.34,-437.09 1346.01,-439.46 1349.74,-445.38"/>
</g>
<!-- Node3 -->
<g id="node3" class="node">
<title>Node3</title>
<g id="a_node3"><a xlink:href="kv_2map_8h.html" target="_top" xlink:title=" ">
<polygon fill="white" stroke="#666666" points="943,-382 863,-382 863,-363 943,-363 943,-382"/>
<text text-anchor="middle" x="903" y="-370" font-family="Helvetica,sans-Serif" font-size="10.00">ccf/kv/map.h</text>
</a>
</g>
</g>
<!-- Node2&#45;&gt;Node3 -->
<g id="edge2" class="edge">
<title>Node2&#45;&gt;Node3</title>
<path fill="none" stroke="#63b8ff" d="M860.42,-417.75C867.77,-410.11 878.63,-398.82 887.54,-389.56"/>
<polygon fill="#63b8ff" stroke="#63b8ff" points="890.32,-391.72 894.74,-382.09 885.28,-386.87 890.32,-391.72"/>
</g>
<!-- Node33 -->
<g id="node33" class="node">
<title>Node33</title>
<g id="a_node33"><a xlink:href="set_8h.html" target="_top" xlink:title=" ">
<polygon fill="white" stroke="#666666" points="722.5,-382 649.5,-382 649.5,-363 722.5,-363 722.5,-382"/>
<text text-anchor="middle" x="686" y="-370" font-family="Helvetica,sans-Serif" font-size="10.00">ccf/kv/set.h</text>
</a>
</g>
</g>
<!-- Node2&#45;&gt;Node33 -->
<g id="edge42" class="edge">
<title>Node2&#45;&gt;Node33</title>
<path fill="none" stroke="#63b8ff" d="M825.33,-417.98C797.46,-409.09 753.55,-395.07 722.48,-385.15"/>
<polygon fill="#63b8ff" stroke="#63b8ff" points="723.47,-381.79 712.88,-382.08 721.34,-388.46 723.47,-381.79"/>
</g>
<!-- Node36 -->
<g id="node36" class="node">
<title>Node36</title>
<g id="a_node36"><a xlink:href="value_8h.html" target="_top" xlink:title=" ">
<polygon fill="white" stroke="#666666" points="844.5,-382 759.5,-382 759.5,-363 844.5,-363 844.5,-382"/>
<text text-anchor="middle" x="802" y="-370" font-family="Helvetica,sans-Serif" font-size="10.00">ccf/kv/value.h</text>
</a>
</g>
</g>
<!-- Node2&#45;&gt;Node36 -->
<g id="edge52" class="edge">
<title>Node2&#45;&gt;Node36</title>
<path fill="none" stroke="#63b8ff" d="M843.74,-417.75C836.54,-410.11 825.89,-398.82 817.15,-389.56"/>
<polygon fill="#63b8ff" stroke="#63b8ff" points="819.51,-386.96 810.1,-382.09 814.42,-391.76 819.51,-386.96"/>
</g>
<!-- Node4 -->
<g id="node4" class="node">
<title>Node4</title>
<g id="a_node4"><a xlink:href="get__name_8h.html" target="_top" xlink:title=" ">
<polygon fill="white" stroke="#666666" points="495.5,-321.5 388.5,-321.5 388.5,-302.5 495.5,-302.5 495.5,-321.5"/>
<text text-anchor="middle" x="442" y="-309.5" font-family="Helvetica,sans-Serif" font-size="10.00">ccf/kv/get_name.h</text>
</a>
</g>
</g>
<!-- Node3&#45;&gt;Node4 -->
<g id="edge3" class="edge">
<title>Node3&#45;&gt;Node4</title>
<path fill="none" stroke="#63b8ff" d="M862.92,-364.32C859.91,-363.85 856.91,-363.4 854,-363 699.53,-341.66 658.92,-351.96 505,-327 499.12,-326.05 492.96,-324.89 486.9,-323.64"/>
<polygon fill="#63b8ff" stroke="#63b8ff" points="487.36,-320.16 476.85,-321.5 485.9,-327.01 487.36,-320.16"/>
</g>
<!-- Node6 -->
<g id="node6" class="node">
<title>Node6</title>
<g id="a_node6"><a xlink:href="include_2ccf_2kv_2hooks_8h.html" target="_top" xlink:title=" ">
<polygon fill="white" stroke="#666666" points="1091.5,-255.5 1004.5,-255.5 1004.5,-236.5 1091.5,-236.5 1091.5,-255.5"/>
<text text-anchor="middle" x="1048" y="-243.5" font-family="Helvetica,sans-Serif" font-size="10.00">ccf/kv/hooks.h</text>
</a>
</g>
</g>
<!-- Node3&#45;&gt;Node6 -->
<g id="edge5" class="edge">
<title>Node3&#45;&gt;Node6</title>
<path fill="none" stroke="#63b8ff" d="M943.21,-371.99C1019.39,-371.96 1180.27,-367.04 1215,-327 1251.27,-285.19 1163.22,-263.43 1101.67,-253.67"/>
<polygon fill="#63b8ff" stroke="#63b8ff" points="1102.07,-250.19 1091.66,-252.15 1101.02,-257.11 1102.07,-250.19"/>
</g>
<!-- Node10 -->
<g id="node10" class="node">
<title>Node10</title>
<g id="a_node10"><a xlink:href="map__handle_8h.html" target="_top" xlink:title=" ">
<polygon fill="white" stroke="#666666" points="1173,-321.5 1055,-321.5 1055,-302.5 1173,-302.5 1173,-321.5"/>
<text text-anchor="middle" x="1114" y="-309.5" font-family="Helvetica,sans-Serif" font-size="10.00">ccf/kv/map_handle.h</text>
</a>
</g>
</g>
<!-- Node3&#45;&gt;Node10 -->
<g id="edge9" class="edge">
<title>Node3&#45;&gt;Node10</title>
<path fill="none" stroke="#63b8ff" d="M933.68,-362.99C970.56,-352.77 1032.57,-335.58 1073.39,-324.26"/>
<polygon fill="#63b8ff" stroke="#63b8ff" points="1074.58,-327.56 1083.28,-321.52 1072.71,-320.82 1074.58,-327.56"/>
</g>
<!-- Node22 -->
<g id="node22" class="node">
<title>Node22</title>
<g id="a_node22"><a xlink:href="blit__serialiser_8h.html" target="_top" xlink:title=" ">
<polygon fill="white" stroke="#666666" points="370.5,-327 271.5,-327 271.5,-297 370.5,-297 370.5,-327"/>
<text text-anchor="start" x="279.5" y="-315" font-family="Helvetica,sans-Serif" font-size="10.00">ccf/kv/serialisers</text>
<text text-anchor="middle" x="321" y="-304" font-family="Helvetica,sans-Serif" font-size="10.00">/blit_serialiser.h</text>
</a>
</g>
</g>
<!-- Node3&#45;&gt;Node22 -->
<g id="edge24" class="edge">
<title>Node3&#45;&gt;Node22</title>
<path fill="none" stroke="#63b8ff" d="M862.94,-364.23C859.92,-363.78 856.91,-363.36 854,-363 647.62,-337.32 590.53,-358.8 380.88,-326.95"/>
<polygon fill="#63b8ff" stroke="#63b8ff" points="381.2,-323.46 370.78,-325.39 380.13,-330.38 381.2,-323.46"/>
</g>
<!-- Node29 -->
<g id="node29" class="node">
<title>Node29</title>
<g id="a_node29"><a xlink:href="json__serialiser_8h.html" target="_top" xlink:title=" ">
<polygon fill="white" stroke="#666666" points="612.5,-327 513.5,-327 513.5,-297 612.5,-297 612.5,-327"/>
<text text-anchor="start" x="521.5" y="-315" font-family="Helvetica,sans-Serif" font-size="10.00">ccf/kv/serialisers</text>
<text text-anchor="middle" x="563" y="-304" font-family="Helvetica,sans-Serif" font-size="10.00">/json_serialiser.h</text>
</a>
</g>
</g>
<!-- Node3&#45;&gt;Node29 -->
<g id="edge34" class="edge">
<title>Node3&#45;&gt;Node29</title>
<path fill="none" stroke="#63b8ff" d="M862.9,-364.48C859.89,-363.98 856.9,-363.48 854,-363 754.15,-346.59 726.08,-347.02 622.44,-326.99"/>
<polygon fill="#63b8ff" stroke="#63b8ff" points="623,-323.53 612.51,-325.05 621.66,-330.4 623,-323.53"/>
</g>
<!-- Node31 -->
<g id="node31" class="node">
<title>Node31</title>
<g id="a_node31"><a xlink:href="untyped_8h.html" target="_top" xlink:title=" ">
<polygon fill="white" stroke="#666666" points="999,-321.5 901,-321.5 901,-302.5 999,-302.5 999,-321.5"/>
<text text-anchor="middle" x="950" y="-309.5" font-family="Helvetica,sans-Serif" font-size="10.00">ccf/kv/untyped.h</text>
</a>
</g>
</g>
<!-- Node3&#45;&gt;Node31 -->
<g id="edge37" class="edge">
<title>Node3&#45;&gt;Node31</title>
<path fill="none" stroke="#63b8ff" d="M909.94,-362.87C916.95,-354.14 927.96,-340.43 936.67,-329.59"/>
<polygon fill="#63b8ff" stroke="#63b8ff" points="939.5,-331.66 943.04,-321.67 934.04,-327.27 939.5,-331.66"/>
</g>
<!-- Node4&#45;&gt;Node5 -->
<g id="edge4" class="edge">
<title>Node4&#45;&gt;Node5</title>
<path fill="none" stroke="#63b8ff" d="M442.39,-302.47C443.35,-281.82 445.8,-228.72 447.12,-200.04"/>
<polygon fill="#63b8ff" stroke="#63b8ff" points="450.63,-199.88 447.6,-189.73 443.64,-199.56 450.63,-199.88"/>
</g>
<!-- Node7 -->
<g id="node7" class="node">
<title>Node7</title>
<g id="a_node7"><a xlink:href="version_8h.html" target="_top" xlink:title=" ">
<polygon fill="white" stroke="#666666" points="1035,-189.5 941,-189.5 941,-170.5 1035,-170.5 1035,-189.5"/>
<text text-anchor="middle" x="988" y="-177.5" font-family="Helvetica,sans-Serif" font-size="10.00">ccf/kv/version.h</text>
</a>
</g>
</g>
<!-- Node6&#45;&gt;Node7 -->
<g id="edge6" class="edge">
<title>Node6&#45;&gt;Node7</title>
<path fill="none" stroke="#63b8ff" d="M1039.91,-236.37C1030.57,-226.4 1014.99,-209.79 1003.34,-197.36"/>
<polygon fill="#63b8ff" stroke="#63b8ff" points="1005.74,-194.81 996.35,-189.91 1000.63,-199.59 1005.74,-194.81"/>
</g>
<!-- Node8 -->
<g id="node8" class="node">
<title>Node8</title>
<g id="a_node8"><a xlink:title=" ">
<polygon fill="#e0e0e0" stroke="#999999" points="922.5,-189.5 857.5,-189.5 857.5,-170.5 922.5,-170.5 922.5,-189.5"/>
<text text-anchor="middle" x="890" y="-177.5" font-family="Helvetica,sans-Serif" font-size="10.00">functional</text>
</a>
</g>
</g>
<!-- Node6&#45;&gt;Node8 -->
<g id="edge7" class="edge">
<title>Node6&#45;&gt;Node8</title>
<path fill="none" stroke="#63b8ff" d="M1026.69,-236.37C999.4,-225.32 951.93,-206.08 920.73,-193.45"/>
<polygon fill="#63b8ff" stroke="#63b8ff" points="921.81,-190.11 911.22,-189.6 919.18,-196.59 921.81,-190.11"/>
</g>
<!-- Node9 -->
<g id="node9" class="node">
<title>Node9</title>
<g id="a_node9"><a xlink:title=" ">
<polygon fill="#e0e0e0" stroke="#999999" points="1185,-189.5 1127,-189.5 1127,-170.5 1185,-170.5 1185,-189.5"/>
<text text-anchor="middle" x="1156" y="-177.5" font-family="Helvetica,sans-Serif" font-size="10.00">memory</text>
</a>
</g>
</g>
<!-- Node6&#45;&gt;Node9 -->
<g id="edge8" class="edge">
<title>Node6&#45;&gt;Node9</title>
<path fill="none" stroke="#63b8ff" d="M1062.57,-236.37C1080.52,-225.73 1111.27,-207.51 1132.56,-194.89"/>
<polygon fill="#63b8ff" stroke="#63b8ff" points="1134.5,-197.81 1141.32,-189.7 1130.93,-191.79 1134.5,-197.81"/>
</g>
<!-- Node11 -->
<g id="node11" class="node">
<title>Node11</title>
<g id="a_node11"><a xlink:href="untyped__map__handle_8h.html" target="_top" xlink:title=" ">
<polygon fill="white" stroke="#666666" points="948,-261 832,-261 832,-231 948,-231 948,-261"/>
<text text-anchor="start" x="840" y="-249" font-family="Helvetica,sans-Serif" font-size="10.00">ccf/kv/untyped_map</text>
<text text-anchor="middle" x="890" y="-238" font-family="Helvetica,sans-Serif" font-size="10.00">_handle.h</text>
</a>
</g>
</g>
<!-- Node10&#45;&gt;Node11 -->
<g id="edge10" class="edge">
<title>Node10&#45;&gt;Node11</title>
<path fill="none" stroke="#63b8ff" d="M1083.79,-302.37C1049.45,-292.56 992.54,-276.3 949.25,-263.93"/>
<polygon fill="#63b8ff" stroke="#63b8ff" points="949.98,-260.5 939.4,-261.12 948.06,-267.23 949.98,-260.5"/>
</g>
<!-- Node11&#45;&gt;Node5 -->
<g id="edge23" class="edge">
<title>Node11&#45;&gt;Node5</title>
<path fill="none" stroke="#63b8ff" d="M831.76,-236.57C737.47,-222.91 554.49,-196.42 480.36,-185.69"/>
<polygon fill="#63b8ff" stroke="#63b8ff" points="480.63,-182.19 470.23,-184.22 479.63,-189.12 480.63,-182.19"/>
</g>
<!-- Node11&#45;&gt;Node7 -->
<g id="edge20" class="edge">
<title>Node11&#45;&gt;Node7</title>
<path fill="none" stroke="#63b8ff" d="M911.75,-230.8C927.87,-220.27 949.76,-205.97 965.95,-195.4"/>
<polygon fill="#63b8ff" stroke="#63b8ff" points="968.28,-198.06 974.74,-189.66 964.46,-192.2 968.28,-198.06"/>
</g>
<!-- Node11&#45;&gt;Node8 -->
<g id="edge21" class="edge">
<title>Node11&#45;&gt;Node8</title>
<path fill="none" stroke="#63b8ff" d="M890,-230.8C890,-221.7 890,-209.79 890,-199.9"/>
<polygon fill="#63b8ff" stroke="#63b8ff" points="893.5,-199.84 890,-189.84 886.5,-199.84 893.5,-199.84"/>
</g>
<!-- Node12 -->
<g id="node12" class="node">
<title>Node12</title>
<g id="a_node12"><a xlink:href="abstract__handle_8h.html" target="_top" xlink:title=" ">
<polygon fill="white" stroke="#666666" points="839,-189.5 703,-189.5 703,-170.5 839,-170.5 839,-189.5"/>
<text text-anchor="middle" x="771" y="-177.5" font-family="Helvetica,sans-Serif" font-size="10.00">ccf/kv/abstract_handle.h</text>
</a>
</g>
</g>
<!-- Node11&#45;&gt;Node12 -->
<g id="edge11" class="edge">
<title>Node11&#45;&gt;Node12</title>
<path fill="none" stroke="#63b8ff" d="M863.88,-230.95C843.66,-220.08 815.82,-205.11 795.91,-194.4"/>
<polygon fill="#63b8ff" stroke="#63b8ff" points="797.3,-191.17 786.84,-189.52 793.99,-197.34 797.3,-191.17"/>
</g>
<!-- Node13 -->
<g id="node13" class="node">
<title>Node13</title>
<g id="a_node13"><a xlink:href="serialised__entry_8h.html" target="_top" xlink:title=" ">
<polygon fill="white" stroke="#666666" points="675.5,-195 570.5,-195 570.5,-165 675.5,-165 675.5,-195"/>
<text text-anchor="start" x="578.5" y="-183" font-family="Helvetica,sans-Serif" font-size="10.00">ccf/kv/serialisers</text>
<text text-anchor="middle" x="623" y="-172" font-family="Helvetica,sans-Serif" font-size="10.00">/serialised_entry.h</text>
</a>
</g>
</g>
<!-- Node11&#45;&gt;Node13 -->
<g id="edge12" class="edge">
<title>Node11&#45;&gt;Node13</title>
<path fill="none" stroke="#63b8ff" d="M831.74,-231.03C788.51,-220.67 729.67,-206.57 685.47,-195.97"/>
<polygon fill="#63b8ff" stroke="#63b8ff" points="686.25,-192.56 675.71,-193.63 684.62,-199.37 686.25,-192.56"/>
</g>
<!-- Node11&#45;&gt;Node21 -->
<g id="edge22" class="edge">
<title>Node11&#45;&gt;Node21</title>
<path fill="none" stroke="#63b8ff" d="M935.34,-230.91C966.12,-221.19 1007.67,-207.76 1044,-195 1045.65,-194.42 1047.33,-193.82 1049.03,-193.2"/>
<polygon fill="#63b8ff" stroke="#63b8ff" points="1050.59,-196.36 1058.76,-189.61 1048.16,-189.79 1050.59,-196.36"/>
</g>
<!-- Node14 -->
<g id="node14" class="node">
<title>Node14</title>
<g id="a_node14"><a xlink:href="byte__vector_8h.html" target="_top" xlink:title=" ">
<polygon fill="white" stroke="#666666" points="612,-129 512,-129 512,-110 612,-110 612,-129"/>
<text text-anchor="middle" x="562" y="-117" font-family="Helvetica,sans-Serif" font-size="10.00">ccf/byte_vector.h</text>
</a>
</g>
</g>
<!-- Node13&#45;&gt;Node14 -->
<g id="edge13" class="edge">
<title>Node13&#45;&gt;Node14</title>
<path fill="none" stroke="#63b8ff" d="M608.23,-164.84C599.29,-156.26 587.86,-145.3 578.6,-136.42"/>
<polygon fill="#63b8ff" stroke="#63b8ff" points="580.78,-133.66 571.14,-129.27 575.94,-138.71 580.78,-133.66"/>
</g>
<!-- Node15 -->
<g id="node15" class="node">
<title>Node15</title>
<g id="a_node15"><a xlink:href="siphash_8h.html" target="_top" xlink:title=" ">
<polygon fill="white" stroke="#666666" points="369.5,-74 274.5,-74 274.5,-55 369.5,-55 369.5,-74"/>
<text text-anchor="middle" x="322" y="-62" font-family="Helvetica,sans-Serif" font-size="10.00">ccf/ds/siphash.h</text>
</a>
</g>
</g>
<!-- Node14&#45;&gt;Node15 -->
<g id="edge14" class="edge">
<title>Node14&#45;&gt;Node15</title>
<path fill="none" stroke="#63b8ff" d="M523.44,-109.98C481.93,-100.82 415.79,-86.21 370.71,-76.26"/>
<polygon fill="#63b8ff" stroke="#63b8ff" points="371.38,-72.82 360.86,-74.08 369.87,-79.66 371.38,-72.82"/>
</g>
<!-- Node19 -->
<g id="node19" class="node">
<title>Node19</title>
<g id="a_node19"><a xlink:title=" ">
<polygon fill="#e0e0e0" stroke="#999999" points="702.5,-74 623.5,-74 623.5,-55 702.5,-55 702.5,-74"/>
<text text-anchor="middle" x="663" y="-62" font-family="Helvetica,sans-Serif" font-size="10.00">fmt/format.h</text>
</a>
</g>
</g>
<!-- Node14&#45;&gt;Node19 -->
<g id="edge18" class="edge">
<title>Node14&#45;&gt;Node19</title>
<path fill="none" stroke="#63b8ff" d="M578.23,-109.98C594.18,-101.61 618.78,-88.7 637.38,-78.95"/>
<polygon fill="#63b8ff" stroke="#63b8ff" points="639.25,-81.92 646.48,-74.17 636,-75.72 639.25,-81.92"/>
</g>
<!-- Node20 -->
<g id="node20" class="node">
<title>Node20</title>
<g id="a_node20"><a xlink:title=" ">
<polygon fill="#e0e0e0" stroke="#999999" points="605.5,-74 456.5,-74 456.5,-55 605.5,-55 605.5,-74"/>
<text text-anchor="middle" x="531" y="-62" font-family="Helvetica,sans-Serif" font-size="10.00">small_vector/SmallVector.h</text>
</a>
</g>
</g>
<!-- Node14&#45;&gt;Node20 -->
<g id="edge19" class="edge">
<title>Node14&#45;&gt;Node20</title>
<path fill="none" stroke="#63b8ff" d="M556.88,-109.75C552.64,-102.49 546.47,-91.95 541.22,-82.98"/>
<polygon fill="#63b8ff" stroke="#63b8ff" points="544.09,-80.95 536.02,-74.09 538.05,-84.49 544.09,-80.95"/>
</g>
<!-- Node16 -->
<g id="node16" class="node">
<title>Node16</title>
<g id="a_node16"><a xlink:title=" ">
<polygon fill="#e0e0e0" stroke="#999999" points="283.5,-19 230.5,-19 230.5,0 283.5,0 283.5,-19"/>
<text text-anchor="middle" x="257" y="-7" font-family="Helvetica,sans-Serif" font-size="10.00">cstddef</text>
</a>
</g>
</g>
<!-- Node15&#45;&gt;Node16 -->
<g id="edge15" class="edge">
<title>Node15&#45;&gt;Node16</title>
<path fill="none" stroke="#63b8ff" d="M311.56,-54.98C301.85,-47.07 287.18,-35.11 275.5,-25.58"/>
<polygon fill="#63b8ff" stroke="#63b8ff" points="277.6,-22.78 267.63,-19.17 273.17,-28.2 277.6,-22.78"/>
</g>
<!-- Node17 -->
<g id="node17" class="node">
<title>Node17</title>
<g id="a_node17"><a xlink:title=" ">
<polygon fill="#e0e0e0" stroke="#999999" points="352,-19 302,-19 302,0 352,0 352,-19"/>
<text text-anchor="middle" x="327" y="-7" font-family="Helvetica,sans-Serif" font-size="10.00">cstdint</text>
</a>
</g>
</g>
<!-- Node15&#45;&gt;Node17 -->
<g id="edge16" class="edge">
<title>Node15&#45;&gt;Node17</title>
<path fill="none" stroke="#63b8ff" d="M322.83,-54.75C323.48,-47.8 324.42,-37.85 325.24,-29.13"/>
<polygon fill="#63b8ff" stroke="#63b8ff" points="328.73,-29.37 326.19,-19.09 321.77,-28.72 328.73,-29.37"/>
</g>
<!-- Node15&#45;&gt;Node18 -->
<g id="edge17" class="edge">
<title>Node15&#45;&gt;Node18</title>
<path fill="none" stroke="#63b8ff" d="M334.21,-54.98C345.78,-46.92 363.38,-34.65 377.16,-25.03"/>
<polygon fill="#63b8ff" stroke="#63b8ff" points="379.37,-27.76 385.57,-19.17 375.36,-22.02 379.37,-27.76"/>
</g>
<!-- Node22&#45;&gt;Node13 -->
<g id="edge33" class="edge">
<title>Node22&#45;&gt;Node13</title>
<path fill="none" stroke="#63b8ff" d="M343.58,-296.85C371.7,-279.65 421.59,-250.51 467,-231 497.29,-217.99 532.12,-206.51 561.18,-197.85"/>
<polygon fill="#63b8ff" stroke="#63b8ff" points="562.2,-201.2 570.8,-195.02 560.22,-194.48 562.2,-201.2"/>
</g>
<!-- Node23 -->
<g id="node23" class="node">
<title>Node23</title>
<g id="a_node23"><a xlink:href="nonstd_8h.html" target="_top" xlink:title=" ">
<polygon fill="white" stroke="#666666" points="215,-255.5 125,-255.5 125,-236.5 215,-236.5 215,-255.5"/>
<text text-anchor="middle" x="170" y="-243.5" font-family="Helvetica,sans-Serif" font-size="10.00">ccf/ds/nonstd.h</text>
</a>
</g>
</g>
<!-- Node22&#45;&gt;Node23 -->
<g id="edge25" class="edge">
<title>Node22&#45;&gt;Node23</title>
<path fill="none" stroke="#63b8ff" d="M287.86,-296.95C261.5,-285.78 224.94,-270.29 199.56,-259.53"/>
<polygon fill="#63b8ff" stroke="#63b8ff" points="200.67,-256.2 190.1,-255.52 197.94,-262.64 200.67,-256.2"/>
</g>
<!-- Node23&#45;&gt;Node5 -->
<g id="edge29" class="edge">
<title>Node23&#45;&gt;Node5</title>
<path fill="none" stroke="#63b8ff" d="M204.89,-236.48C212.8,-234.62 221.18,-232.7 229,-231 310.01,-213.43 332.4,-218.11 412,-195 413.93,-194.44 415.91,-193.82 417.88,-193.16"/>
<polygon fill="#63b8ff" stroke="#63b8ff" points="419.44,-196.32 427.66,-189.63 417.06,-189.73 419.44,-196.32"/>
</g>
<!-- Node23&#45;&gt;Node18 -->
<g id="edge32" class="edge">
<title>Node23&#45;&gt;Node18</title>
<path fill="none" stroke="#63b8ff" d="M205.85,-236.49C265.49,-222.33 378.64,-195.41 379,-195 420.34,-147.8 409.76,-65.57 402.34,-28.98"/>
<polygon fill="#63b8ff" stroke="#63b8ff" points="405.75,-28.2 400.2,-19.17 398.92,-29.69 405.75,-28.2"/>
</g>
<!-- Node24 -->
<g id="node24" class="node">
<title>Node24</title>
<g id="a_node24"><a xlink:title=" ">
<polygon fill="#e0e0e0" stroke="#999999" points="370,-189.5 306,-189.5 306,-170.5 370,-170.5 370,-189.5"/>
<text text-anchor="middle" x="338" y="-177.5" font-family="Helvetica,sans-Serif" font-size="10.00">algorithm</text>
</a>
</g>
</g>
<!-- Node23&#45;&gt;Node24 -->
<g id="edge26" class="edge">
<title>Node23&#45;&gt;Node24</title>
<path fill="none" stroke="#63b8ff" d="M192.66,-236.37C221.8,-225.27 272.59,-205.92 305.75,-193.28"/>
<polygon fill="#63b8ff" stroke="#63b8ff" points="307.34,-196.43 315.43,-189.6 304.84,-189.89 307.34,-196.43"/>
</g>
<!-- Node25 -->
<g id="node25" class="node">
<title>Node25</title>
<g id="a_node25"><a xlink:title=" ">
<polygon fill="#e0e0e0" stroke="#999999" points="42,-189.5 0,-189.5 0,-170.5 42,-170.5 42,-189.5"/>
<text text-anchor="middle" x="21" y="-177.5" font-family="Helvetica,sans-Serif" font-size="10.00">array</text>
</a>
</g>
</g>
<!-- Node23&#45;&gt;Node25 -->
<g id="edge27" class="edge">
<title>Node23&#45;&gt;Node25</title>
<path fill="none" stroke="#63b8ff" d="M148.83,-236.39C124.95,-226.62 85.01,-210.07 51,-195 50.15,-194.62 49.29,-194.24 48.42,-193.85"/>
<polygon fill="#63b8ff" stroke="#63b8ff" points="49.58,-190.53 39.03,-189.55 46.67,-196.9 49.58,-190.53"/>
</g>
<!-- Node26 -->
<g id="node26" class="node">
<title>Node26</title>
<g id="a_node26"><a xlink:title=" ">
<polygon fill="#e0e0e0" stroke="#999999" points="109.5,-189.5 60.5,-189.5 60.5,-170.5 109.5,-170.5 109.5,-189.5"/>
<text text-anchor="middle" x="85" y="-177.5" font-family="Helvetica,sans-Serif" font-size="10.00">cctype</text>
</a>
</g>
</g>
<!-- Node23&#45;&gt;Node26 -->
<g id="edge28" class="edge">
<title>Node23&#45;&gt;Node26</title>
<path fill="none" stroke="#63b8ff" d="M158.54,-236.37C144.72,-225.97 121.29,-208.32 104.59,-195.75"/>
<polygon fill="#63b8ff" stroke="#63b8ff" points="106.65,-192.92 96.55,-189.7 102.44,-198.51 106.65,-192.92"/>
</g>
<!-- Node27 -->
<g id="node27" class="node">
<title>Node27</title>
<g id="a_node27"><a xlink:title=" ">
<polygon fill="#e0e0e0" stroke="#999999" points="200.5,-189.5 127.5,-189.5 127.5,-170.5 200.5,-170.5 200.5,-189.5"/>
<text text-anchor="middle" x="164" y="-177.5" font-family="Helvetica,sans-Serif" font-size="10.00">string_view</text>
</a>
</g>
</g>
<!-- Node23&#45;&gt;Node27 -->
<g id="edge30" class="edge">
<title>Node23&#45;&gt;Node27</title>
<path fill="none" stroke="#63b8ff" d="M169.19,-236.37C168.32,-227.07 166.9,-211.98 165.77,-199.9"/>
<polygon fill="#63b8ff" stroke="#63b8ff" points="169.25,-199.53 164.83,-189.91 162.28,-200.19 169.25,-199.53"/>
</g>
<!-- Node28 -->
<g id="node28" class="node">
<title>Node28</title>
<g id="a_node28"><a xlink:title=" ">
<polygon fill="#e0e0e0" stroke="#999999" points="287.5,-189.5 218.5,-189.5 218.5,-170.5 287.5,-170.5 287.5,-189.5"/>
<text text-anchor="middle" x="253" y="-177.5" font-family="Helvetica,sans-Serif" font-size="10.00">type_traits</text>
</a>
</g>
</g>
<!-- Node23&#45;&gt;Node28 -->
<g id="edge31" class="edge">
<title>Node23&#45;&gt;Node28</title>
<path fill="none" stroke="#63b8ff" d="M181.19,-236.37C194.56,-226.06 217.15,-208.65 233.42,-196.09"/>
<polygon fill="#63b8ff" stroke="#63b8ff" points="235.94,-198.58 241.72,-189.7 231.66,-193.03 235.94,-198.58"/>
</g>
<!-- Node29&#45;&gt;Node13 -->
<g id="edge35" class="edge">
<title>Node29&#45;&gt;Node13</title>
<path fill="none" stroke="#63b8ff" d="M573.46,-296.65C580.22,-286.93 588.87,-273.6 595,-261 603.82,-242.87 611.22,-221.24 616.19,-205.04"/>
<polygon fill="#63b8ff" stroke="#63b8ff" points="619.6,-205.86 619.1,-195.27 612.89,-203.86 619.6,-205.86"/>
</g>
<!-- Node30 -->
<g id="node30" class="node">
<title>Node30</title>
<g id="a_node30"><a xlink:title=" ">
<polygon fill="#e0e0e0" stroke="#999999" points="586,-255.5 476,-255.5 476,-236.5 586,-236.5 586,-255.5"/>
<text text-anchor="middle" x="531" y="-243.5" font-family="Helvetica,sans-Serif" font-size="10.00">nlohmann/json.hpp</text>
</a>
</g>
</g>
<!-- Node29&#45;&gt;Node30 -->
<g id="edge36" class="edge">
<title>Node29&#45;&gt;Node30</title>
<path fill="none" stroke="#63b8ff" d="M555.9,-296.8C551.2,-287.41 545.01,-275.02 539.97,-264.95"/>
<polygon fill="#63b8ff" stroke="#63b8ff" points="543.02,-263.22 535.42,-255.84 536.76,-266.35 543.02,-263.22"/>
</g>
<!-- Node31&#45;&gt;Node6 -->
<g id="edge38" class="edge">
<title>Node31&#45;&gt;Node6</title>
<path fill="none" stroke="#63b8ff" d="M963.22,-302.37C979.36,-291.82 1006.91,-273.84 1026.21,-261.23"/>
<polygon fill="#63b8ff" stroke="#63b8ff" points="1028.22,-264.1 1034.68,-255.7 1024.39,-258.24 1028.22,-264.1"/>
</g>
<!-- Node31&#45;&gt;Node13 -->
<g id="edge39" class="edge">
<title>Node31&#45;&gt;Node13</title>
<path fill="none" stroke="#63b8ff" d="M921.42,-302.42C894.94,-293.87 854.95,-279.36 823,-261 804.34,-250.28 804.05,-241.01 785,-231 753.85,-214.63 716.46,-202.64 685.45,-194.52"/>
<polygon fill="#63b8ff" stroke="#63b8ff" points="686.18,-191.09 675.63,-192.02 684.45,-197.88 686.18,-191.09"/>
</g>
<!-- Node31&#45;&gt;Node21 -->
<g id="edge41" class="edge">
<title>Node31&#45;&gt;Node21</title>
<path fill="none" stroke="#63b8ff" d="M953.23,-302.35C959.46,-286.57 974.47,-252.74 996,-231 1011.65,-215.19 1033.31,-202.55 1050.85,-193.93"/>
<polygon fill="#63b8ff" stroke="#63b8ff" points="1052.56,-197 1060.11,-189.56 1049.57,-190.67 1052.56,-197"/>
</g>
<!-- Node32 -->
<g id="node32" class="node">
<title>Node32</title>
<g id="a_node32"><a xlink:title=" ">
<polygon fill="#e0e0e0" stroke="#999999" points="776,-255.5 738,-255.5 738,-236.5 776,-236.5 776,-255.5"/>
<text text-anchor="middle" x="757" y="-243.5" font-family="Helvetica,sans-Serif" font-size="10.00">map</text>
</a>
</g>
</g>
<!-- Node31&#45;&gt;Node32 -->
<g id="edge40" class="edge">
<title>Node31&#45;&gt;Node32</title>
<path fill="none" stroke="#63b8ff" d="M919.62,-302.47C887.22,-293.16 834.53,-277.36 790,-261 788.58,-260.48 787.12,-259.93 785.66,-259.36"/>
<polygon fill="#63b8ff" stroke="#63b8ff" points="786.65,-255.98 776.07,-255.47 784.02,-262.47 786.65,-255.98"/>
</g>
<!-- Node33&#45;&gt;Node4 -->
<g id="edge43" class="edge">
<title>Node33&#45;&gt;Node4</title>
<path fill="none" stroke="#63b8ff" d="M650.52,-362.99C607.42,-352.66 534.64,-335.21 487.47,-323.9"/>
<polygon fill="#63b8ff" stroke="#63b8ff" points="488.06,-320.44 477.52,-321.52 486.43,-327.25 488.06,-320.44"/>
</g>
<!-- Node33&#45;&gt;Node6 -->
<g id="edge44" class="edge">
<title>Node33&#45;&gt;Node6</title>
<path fill="none" stroke="#63b8ff" d="M722.55,-366.67C806.3,-355.58 1005.11,-329.08 1008,-327 1028.46,-312.32 1039.05,-284.14 1044.07,-265.45"/>
<polygon fill="#63b8ff" stroke="#63b8ff" points="1047.47,-266.26 1046.41,-255.71 1040.66,-264.62 1047.47,-266.26"/>
</g>
<!-- Node33&#45;&gt;Node22 -->
<g id="edge45" class="edge">
<title>Node33&#45;&gt;Node22</title>
<path fill="none" stroke="#63b8ff" d="M649.08,-367.2C593.2,-360.47 483.62,-346.35 380.47,-326.97"/>
<polygon fill="#63b8ff" stroke="#63b8ff" points="380.98,-323.51 370.51,-325.08 379.68,-330.39 380.98,-323.51"/>
</g>
<!-- Node33&#45;&gt;Node29 -->
<g id="edge46" class="edge">
<title>Node33&#45;&gt;Node29</title>
<path fill="none" stroke="#63b8ff" d="M668.11,-362.99C650.86,-354.79 624.16,-342.09 601.99,-331.55"/>
<polygon fill="#63b8ff" stroke="#63b8ff" points="603.34,-328.31 592.81,-327.18 600.34,-334.63 603.34,-328.31"/>
</g>
<!-- Node33&#45;&gt;Node31 -->
<g id="edge51" class="edge">
<title>Node33&#45;&gt;Node31</title>
<path fill="none" stroke="#63b8ff" d="M722.53,-363.89C763.75,-355.23 832.79,-340.54 892,-327 896.38,-326 900.94,-324.94 905.49,-323.86"/>
<polygon fill="#63b8ff" stroke="#63b8ff" points="906.46,-327.23 915.38,-321.5 904.84,-320.42 906.46,-327.23"/>
</g>
<!-- Node34 -->
<g id="node34" class="node">
<title>Node34</title>
<g id="a_node34"><a xlink:href="set__handle_8h.html" target="_top" xlink:title=" ">
<polygon fill="white" stroke="#666666" points="741.5,-321.5 630.5,-321.5 630.5,-302.5 741.5,-302.5 741.5,-321.5"/>
<text text-anchor="middle" x="686" y="-309.5" font-family="Helvetica,sans-Serif" font-size="10.00">ccf/kv/set_handle.h</text>
</a>
</g>
</g>
<!-- Node33&#45;&gt;Node34 -->
<g id="edge47" class="edge">
<title>Node33&#45;&gt;Node34</title>
<path fill="none" stroke="#63b8ff" d="M686,-362.87C686,-354.75 686,-342.31 686,-331.89"/>
<polygon fill="#63b8ff" stroke="#63b8ff" points="689.5,-331.67 686,-321.67 682.5,-331.67 689.5,-331.67"/>
</g>
<!-- Node34&#45;&gt;Node11 -->
<g id="edge50" class="edge">
<title>Node34&#45;&gt;Node11</title>
<path fill="none" stroke="#63b8ff" d="M713.51,-302.37C744.59,-292.62 795.96,-276.5 835.29,-264.16"/>
<polygon fill="#63b8ff" stroke="#63b8ff" points="836.51,-267.45 845.01,-261.12 834.42,-260.77 836.51,-267.45"/>
</g>
<!-- Node35 -->
<g id="node35" class="node">
<title>Node35</title>
<g id="a_node35"><a xlink:href="unit_8h.html" target="_top" xlink:title=" ">
<polygon fill="white" stroke="#666666" points="719.5,-255.5 642.5,-255.5 642.5,-236.5 719.5,-236.5 719.5,-255.5"/>
<text text-anchor="middle" x="681" y="-243.5" font-family="Helvetica,sans-Serif" font-size="10.00">ccf/kv/unit.h</text>
</a>
</g>
</g>
<!-- Node34&#45;&gt;Node35 -->
<g id="edge48" class="edge">
<title>Node34&#45;&gt;Node35</title>
<path fill="none" stroke="#63b8ff" d="M685.33,-302.37C684.6,-293.07 683.42,-277.98 682.48,-265.9"/>
<polygon fill="#63b8ff" stroke="#63b8ff" points="685.96,-265.6 681.7,-255.91 678.99,-266.15 685.96,-265.6"/>
</g>
<!-- Node35&#45;&gt;Node13 -->
<g id="edge49" class="edge">
<title>Node35&#45;&gt;Node13</title>
<path fill="none" stroke="#63b8ff" d="M673.18,-236.37C665.44,-227.83 653.28,-214.41 642.87,-202.92"/>
<polygon fill="#63b8ff" stroke="#63b8ff" points="645.32,-200.42 636.01,-195.36 640.14,-205.12 645.32,-200.42"/>
</g>
<!-- Node36&#45;&gt;Node4 -->
<g id="edge53" class="edge">
<title>Node36&#45;&gt;Node4</title>
<path fill="none" stroke="#63b8ff" d="M759.05,-366.02C701.16,-358.43 594.96,-343.71 505,-327 499.56,-325.99 493.88,-324.85 488.24,-323.66"/>
<polygon fill="#63b8ff" stroke="#63b8ff" points="488.74,-320.19 478.22,-321.5 487.26,-327.03 488.74,-320.19"/>
</g>
<!-- Node36&#45;&gt;Node6 -->
<g id="edge54" class="edge">
<title>Node36&#45;&gt;Node6</title>
<path fill="none" stroke="#63b8ff" d="M844.54,-364.36C847.74,-363.88 850.92,-363.42 854,-363 926.65,-353.08 1133.06,-381.6 1182,-327 1211.44,-294.16 1149.26,-270.73 1100.07,-258.03"/>
<polygon fill="#63b8ff" stroke="#63b8ff" points="1100.67,-254.58 1090.12,-255.56 1098.98,-261.37 1100.67,-254.58"/>
</g>
<!-- Node36&#45;&gt;Node22 -->
<g id="edge55" class="edge">
<title>Node36&#45;&gt;Node22</title>
<path fill="none" stroke="#63b8ff" d="M759.44,-366.2C750.39,-365.11 740.88,-363.99 732,-363 578.92,-345.88 536.78,-352.91 380.75,-326.97"/>
<polygon fill="#63b8ff" stroke="#63b8ff" points="381.24,-323.51 370.8,-325.3 380.08,-330.41 381.24,-323.51"/>
</g>
<!-- Node36&#45;&gt;Node29 -->
<g id="edge56" class="edge">
<title>Node36&#45;&gt;Node29</title>
<path fill="none" stroke="#63b8ff" d="M767.25,-362.99C729.37,-353.72 668.1,-338.73 622.53,-327.57"/>
<polygon fill="#63b8ff" stroke="#63b8ff" points="623.32,-324.16 612.77,-325.18 621.65,-330.96 623.32,-324.16"/>
</g>
<!-- Node36&#45;&gt;Node31 -->
<g id="edge57" class="edge">
<title>Node36&#45;&gt;Node31</title>
<path fill="none" stroke="#63b8ff" d="M823.52,-362.99C848.62,-353.07 890.32,-336.59 918.93,-325.28"/>
<polygon fill="#63b8ff" stroke="#63b8ff" points="920.44,-328.45 928.45,-321.52 917.87,-321.94 920.44,-328.45"/>
</g>
<!-- Node37 -->
<g id="node37" class="node">
<title>Node37</title>
<g id="a_node37"><a xlink:href="value__handle_8h.html" target="_top" xlink:title=" ">
<polygon fill="white" stroke="#666666" points="882.5,-321.5 759.5,-321.5 759.5,-302.5 882.5,-302.5 882.5,-321.5"/>
<text text-anchor="middle" x="821" y="-309.5" font-family="Helvetica,sans-Serif" font-size="10.00">ccf/kv/value_handle.h</text>
</a>
</g>
</g>
<!-- Node36&#45;&gt;Node37 -->
<g id="edge58" class="edge">
<title>Node36&#45;&gt;Node37</title>
<path fill="none" stroke="#63b8ff" d="M804.8,-362.87C807.5,-354.57 811.65,-341.78 815.08,-331.22"/>
<polygon fill="#63b8ff" stroke="#63b8ff" points="818.42,-332.26 818.18,-321.67 811.77,-330.1 818.42,-332.26"/>
</g>
<!-- Node37&#45;&gt;Node11 -->
<g id="edge60" class="edge">
<title>Node37&#45;&gt;Node11</title>
<path fill="none" stroke="#63b8ff" d="M830.31,-302.37C839.75,-293.61 854.73,-279.71 867.32,-268.04"/>
<polygon fill="#63b8ff" stroke="#63b8ff" points="869.83,-270.48 874.78,-261.12 865.07,-265.35 869.83,-270.48"/>
</g>
<!-- Node37&#45;&gt;Node35 -->
<g id="edge59" class="edge">
<title>Node37&#45;&gt;Node35</title>
<path fill="none" stroke="#63b8ff" d="M802.12,-302.37C778.22,-291.44 736.83,-272.52 709.18,-259.88"/>
<polygon fill="#63b8ff" stroke="#63b8ff" points="710.58,-256.67 700.03,-255.7 707.67,-263.04 710.58,-256.67"/>
</g>
</g>
</svg>
        <g id="navigator" transform="translate(0 0)" fill="#404254">
                <rect fill="#f2f5e9" fill-opacity="0.5" stroke="#606060" stroke-width=".5" x="0" y="0" width="60" height="60"/>
                <use id="zoomplus" xlink:href="#zoomPlus" x="17" y="9" onmousedown="handleZoom(evt,'in')"/>
                <use id="zoomminus" xlink:href="#zoomMin" x="42" y="9" onmousedown="handleZoom(evt,'out')"/>
                <use id="reset" xlink:href="#resetDef" x="30" y="36" onmousedown="handleReset()"/>
                <g id="arrowUp" xlink:href="#dirArrow" transform="translate(30 24)" onmousedown="handlePan(0,-1)">
                  <use xlink:href="#rim" fill="#404040">
                        <set attributeName="fill" to="#808080" begin="arrowUp.mouseover" end="arrowUp.mouseout"/>
                  </use>
                  <path fill="none" stroke="white" stroke-width="1.5" d="M0,-3.0v7 M-2.5,-0.5L0,-3.0L2.5,-0.5"/>
                </g>
                <g id="arrowRight" xlink:href="#dirArrow" transform="rotate(90) translate(36 -43)" onmousedown="handlePan(1,0)">
                  <use xlink:href="#rim" fill="#404040">
                        <set attributeName="fill" to="#808080" begin="arrowRight.mouseover" end="arrowRight.mouseout"/>
                  </use>
                  <path fill="none" stroke="white" stroke-width="1.5" d="M0,-3.0v7 M-2.5,-0.5L0,-3.0L2.5,-0.5"/>
                </g>
                <g id="arrowDown" xlink:href="#dirArrow" transform="rotate(180) translate(-30 -48)" onmousedown="handlePan(0,1)">
                  <use xlink:href="#rim" fill="#404040">
                        <set attributeName="fill" to="#808080" begin="arrowDown.mouseover" end="arrowDown.mouseout"/>
                  </use>
                  <path fill="none" stroke="white" stroke-width="1.5" d="M0,-3.0v7 M-2.5,-0.5L0,-3.0L2.5,-0.5"/>
                </g>
                <g id="arrowLeft" xlink:href="#dirArrow" transform="rotate(270) translate(-36 17)" onmousedown="handlePan(-1,0)">
                  <use xlink:href="#rim" fill="#404040">
                        <set attributeName="fill" to="#808080" begin="arrowLeft.mouseover" end="arrowLeft.mouseout"/>
                  </use>
                  <path fill="none" stroke="white" stroke-width="1.5" d="M0,-3.0v7 M-2.5,-0.5L0,-3.0L2.5,-0.5"/>
                </g>
        </g>
        <svg viewBox="0 0 15 15" width="100%" height="30px" preserveAspectRatio="xMaxYMin meet">
         <g id="arrow_out" transform="scale(0.3 0.3)">
          <a xlink:href="modules_8h__incl_org.svg" target="_base">
           <rect id="button" ry="5" rx="5" y="6" x="6" height="38" width="38"
                fill="#f2f5e9" fill-opacity="0.5" stroke="#606060" stroke-width="1.0"/>
           <path id="arrow"
             d="M 11.500037,31.436501 C 11.940474,20.09759 22.043105,11.32322 32.158766,21.979434 L 37.068811,17.246167 C 37.068811,17.246167 37.088388,32 37.088388,32 L 22.160133,31.978069 C 22.160133,31.978069 26.997745,27.140456 26.997745,27.140456 C 18.528582,18.264221 13.291696,25.230495 11.500037,31.436501 z"
             style="fill:#404040;"/>
          </a>
         </g>
        </svg>
</svg>
