<?xml version="1.0" encoding="UTF-8" standalone="no"?>
<!DOCTYPE svg PUBLIC "-//W3C//DTD SVG 1.1//EN"
 "http://www.w3.org/Graphics/SVG/1.1/DTD/svg11.dtd">
<!-- Generated by graphviz version 2.43.0 (0)
 -->
<!-- Title: src/node/rpc/network_identity_interface.h Pages: 1 -->
<svg width="326pt" height="104pt"
 viewBox="0.00 0.00 325.50 104.00" xmlns="http://www.w3.org/2000/svg" xmlns:xlink="http://www.w3.org/1999/xlink">
<g id="graph0" class="graph" transform="scale(1 1) rotate(0) translate(4 100)">
<title>src/node/rpc/network_identity_interface.h</title>
<!-- Node1 -->
<g id="node1" class="node">
<title>Node1</title>
<g id="a_node1"><a xlink:title=" ">
<polygon fill="#999999" stroke="#666666" points="255.5,-96 136.5,-96 136.5,-66 255.5,-66 255.5,-96"/>
<text text-anchor="start" x="144.5" y="-84" font-family="Helvetica,sans-Serif" font-size="10.00">src/node/rpc/network</text>
<text text-anchor="middle" x="196" y="-73" font-family="Helvetica,sans-Serif" font-size="10.00">_identity_interface.h</text>
</a>
</g>
</g>
<!-- Node2 -->
<g id="node2" class="node">
<title>Node2</title>
<g id="a_node2"><a xlink:href="node__subsystem__interface_8h.html" target="_top" xlink:title=" ">
<polygon fill="white" stroke="#666666" points="116,-30 0,-30 0,0 116,0 116,-30"/>
<text text-anchor="start" x="8" y="-18" font-family="Helvetica,sans-Serif" font-size="10.00">ccf/node_subsystem</text>
<text text-anchor="middle" x="58" y="-7" font-family="Helvetica,sans-Serif" font-size="10.00">_interface.h</text>
</a>
</g>
</g>
<!-- Node1&#45;&gt;Node2 -->
<g id="edge1" class="edge">
<title>Node1&#45;&gt;Node2</title>
<path fill="none" stroke="#63b8ff" d="M165.72,-65.95C145.67,-56.66 119.19,-44.38 97.49,-34.32"/>
<polygon fill="#63b8ff" stroke="#63b8ff" points="98.76,-31.04 88.21,-30.01 95.81,-37.39 98.76,-31.04"/>
</g>
<!-- Node3 -->
<g id="node3" class="node">
<title>Node3</title>
<g id="a_node3"><a xlink:title=" ">
<polygon fill="#e0e0e0" stroke="#999999" points="190,-24.5 134,-24.5 134,-5.5 190,-5.5 190,-24.5"/>
<text text-anchor="middle" x="162" y="-12.5" font-family="Helvetica,sans-Serif" font-size="10.00">optional</text>
</a>
</g>
</g>
<!-- Node1&#45;&gt;Node3 -->
<g id="edge2" class="edge">
<title>Node1&#45;&gt;Node3</title>
<path fill="none" stroke="#63b8ff" d="M188.45,-65.8C183.47,-56.41 176.88,-44.02 171.53,-33.95"/>
<polygon fill="#63b8ff" stroke="#63b8ff" points="174.48,-32.03 166.7,-24.84 168.3,-35.32 174.48,-32.03"/>
</g>
<!-- Node4 -->
<g id="node4" class="node">
<title>Node4</title>
<g id="a_node4"><a xlink:title=" ">
<polygon fill="#e0e0e0" stroke="#999999" points="252,-24.5 208,-24.5 208,-5.5 252,-5.5 252,-24.5"/>
<text text-anchor="middle" x="230" y="-12.5" font-family="Helvetica,sans-Serif" font-size="10.00">string</text>
</a>
</g>
</g>
<!-- Node1&#45;&gt;Node4 -->
<g id="edge3" class="edge">
<title>Node1&#45;&gt;Node4</title>
<path fill="none" stroke="#63b8ff" d="M203.55,-65.8C208.53,-56.41 215.12,-44.02 220.47,-33.95"/>
<polygon fill="#63b8ff" stroke="#63b8ff" points="223.7,-35.32 225.3,-24.84 217.52,-32.03 223.7,-35.32"/>
</g>
<!-- Node5 -->
<g id="node5" class="node">
<title>Node5</title>
<g id="a_node5"><a xlink:title=" ">
<polygon fill="#e0e0e0" stroke="#999999" points="317.5,-24.5 270.5,-24.5 270.5,-5.5 317.5,-5.5 317.5,-24.5"/>
<text text-anchor="middle" x="294" y="-12.5" font-family="Helvetica,sans-Serif" font-size="10.00">vector</text>
</a>
</g>
</g>
<!-- Node1&#45;&gt;Node5 -->
<g id="edge4" class="edge">
<title>Node1&#45;&gt;Node5</title>
<path fill="none" stroke="#63b8ff" d="M217.75,-65.8C233.87,-55.27 255.76,-40.97 271.95,-30.4"/>
<polygon fill="#63b8ff" stroke="#63b8ff" points="274.28,-33.06 280.74,-24.66 270.46,-27.2 274.28,-33.06"/>
</g>
</g>
</svg>
