<?xml version="1.0" encoding="UTF-8" standalone="no"?>
<!DOCTYPE svg PUBLIC "-//W3C//DTD SVG 1.1//EN"
 "http://www.w3.org/Graphics/SVG/1.1/DTD/svg11.dtd">
<!-- Generated by graphviz version 2.43.0 (0)
 -->
<!-- Title: include/ccf/service/node_info.h Pages: 1 -->
<!--zoomable 390 -->
<svg id="main" version="1.1" xmlns="http://www.w3.org/2000/svg" xmlns:xlink="http://www.w3.org/1999/xlink" xml:space="preserve" onload="init(evt)">
<style type="text/css"><![CDATA[
.edge:hover path { stroke: red; }
.edge:hover polygon { stroke: red; fill: red; }
]]></style>
<script type="text/javascript"><![CDATA[
var edges = document.getElementsByTagName('g');
if (edges && edges.length) {
  for (var i=0;i<edges.length;i++) {
    if (edges[i].id.substr(0,4)=='edge') {
      edges[i].setAttribute('class','edge');
    }
  }
}
]]></script>
        <defs>
                <circle id="rim" cx="0" cy="0" r="7"/>
                <circle id="rim2" cx="0" cy="0" r="3.5"/>
                <g id="zoomPlus">
                        <use xlink:href="#rim" fill="#404040">
                                <set attributeName="fill" to="#808080" begin="zoomplus.mouseover" end="zoomplus.mouseout"/>
                        </use>
                        <path d="M-4,0h8M0,-4v8" fill="none" stroke="white" stroke-width="1.5" pointer-events="none"/>
                </g>
                <g id="zoomMin">
                        <use xlink:href="#rim" fill="#404040">
                                <set attributeName="fill" to="#808080" begin="zoomminus.mouseover" end="zoomminus.mouseout"/>
                        </use>
                        <path d="M-4,0h8" fill="none" stroke="white" stroke-width="1.5" pointer-events="none"/>
                </g>
                <g id="dirArrow">
                        <path fill="none" stroke="white" stroke-width="1.5" d="M0,-3.0v7 M-2.5,-0.5L0,-3.0L2.5,-0.5"/>
                </g>
               <g id="resetDef">
                       <use xlink:href="#rim2" fill="#404040">
                               <set attributeName="fill" to="#808080" begin="reset.mouseover" end="reset.mouseout"/>
                       </use>
               </g>
        </defs>

<script type="text/javascript">
var viewWidth = 1855;
var viewHeight = 390;
var sectionId = 'dynsection-0';
</script>
<script xlink:href="svgpan.js"/>
<svg id="graph" class="graph">
<g id="viewport">
<title>include/ccf/service/node_info.h</title>
<!-- Node1 -->
<g id="node1" class="node">
<title>Node1</title>
<g id="a_node1"><a xlink:title=" ">
<polygon fill="#999999" stroke="#666666" points="714.5,-382 607.5,-382 607.5,-352 714.5,-352 714.5,-382"/>
<text text-anchor="start" x="615.5" y="-370" font-family="Helvetica,sans-Serif" font-size="10.00">include/ccf/service</text>
<text text-anchor="middle" x="661" y="-359" font-family="Helvetica,sans-Serif" font-size="10.00">/node_info.h</text>
</a>
</g>
</g>
<!-- Node2 -->
<g id="node2" class="node">
<title>Node2</title>
<g id="a_node2"><a xlink:href="pem_8h.html" target="_top" xlink:title=" ">
<polygon fill="white" stroke="#666666" points="284,-244.5 186,-244.5 186,-225.5 284,-225.5 284,-244.5"/>
<text text-anchor="middle" x="235" y="-232.5" font-family="Helvetica,sans-Serif" font-size="10.00">ccf/crypto/pem.h</text>
</a>
</g>
</g>
<!-- Node1&#45;&gt;Node2 -->
<g id="edge1" class="edge">
<title>Node1&#45;&gt;Node2</title>
<path fill="none" stroke="#63b8ff" d="M615.01,-351.96C530.28,-326.11 351.07,-271.42 272.85,-247.55"/>
<polygon fill="#63b8ff" stroke="#63b8ff" points="273.53,-244.1 262.94,-244.53 271.49,-250.79 273.53,-244.1"/>
</g>
<!-- Node3 -->
<g id="node3" class="node">
<title>Node3</title>
<g id="a_node3"><a xlink:href="json_8h.html" target="_top" xlink:title=" ">
<polygon fill="white" stroke="#666666" points="762.5,-184 685.5,-184 685.5,-165 762.5,-165 762.5,-184"/>
<text text-anchor="middle" x="724" y="-172" font-family="Helvetica,sans-Serif" font-size="10.00">ccf/ds/json.h</text>
</a>
</g>
</g>
<!-- Node1&#45;&gt;Node3 -->
<g id="edge26" class="edge">
<title>Node1&#45;&gt;Node3</title>
<path fill="none" stroke="#63b8ff" d="M663.69,-351.96C666.92,-335.85 672.82,-308.73 680,-286 690.53,-252.67 706.38,-215.1 715.9,-193.47"/>
<polygon fill="#63b8ff" stroke="#63b8ff" points="719.15,-194.78 720.02,-184.22 712.75,-191.93 719.15,-194.78"/>
</g>
<!-- Node14 -->
<g id="node14" class="node">
<title>Node14</title>
<g id="a_node14"><a xlink:title=" ">
<polygon fill="#e0e0e0" stroke="#999999" points="1529,-74 1473,-74 1473,-55 1529,-55 1529,-74"/>
<text text-anchor="middle" x="1501" y="-62" font-family="Helvetica,sans-Serif" font-size="10.00">optional</text>
</a>
</g>
</g>
<!-- Node1&#45;&gt;Node14 -->
<g id="edge67" class="edge">
<title>Node1&#45;&gt;Node14</title>
<path fill="none" stroke="#63b8ff" d="M714.67,-363.56C902.51,-354.31 1519,-317.73 1519,-236 1519,-236 1519,-236 1519,-173.5 1519,-141.61 1511.27,-105.14 1505.94,-83.78"/>
<polygon fill="#63b8ff" stroke="#63b8ff" points="1509.33,-82.9 1503.43,-74.1 1502.55,-84.66 1509.33,-82.9"/>
</g>
<!-- Node15 -->
<g id="node15" class="node">
<title>Node15</title>
<g id="a_node15"><a xlink:title=" ">
<polygon fill="#e0e0e0" stroke="#999999" points="1016.5,-19 937.5,-19 937.5,0 1016.5,0 1016.5,-19"/>
<text text-anchor="middle" x="977" y="-7" font-family="Helvetica,sans-Serif" font-size="10.00">fmt/format.h</text>
</a>
</g>
</g>
<!-- Node1&#45;&gt;Node15 -->
<g id="edge66" class="edge">
<title>Node1&#45;&gt;Node15</title>
<path fill="none" stroke="#63b8ff" d="M638.22,-351.89C607.34,-330.8 556,-287.93 556,-236 556,-236 556,-236 556,-118.5 556,-89.04 552.38,-73.87 575,-55 601.59,-32.82 825.81,-18.41 927.37,-12.95"/>
<polygon fill="#63b8ff" stroke="#63b8ff" points="927.58,-16.45 937.38,-12.42 927.21,-9.46 927.58,-16.45"/>
</g>
<!-- Node22 -->
<g id="node22" class="node">
<title>Node22</title>
<g id="a_node22"><a xlink:href="quote__info_8h.html" target="_top" xlink:title=" ">
<polygon fill="white" stroke="#666666" points="527.5,-244.5 418.5,-244.5 418.5,-225.5 527.5,-225.5 527.5,-244.5"/>
<text text-anchor="middle" x="473" y="-232.5" font-family="Helvetica,sans-Serif" font-size="10.00">ccf/ds/quote_info.h</text>
</a>
</g>
</g>
<!-- Node1&#45;&gt;Node22 -->
<g id="edge27" class="edge">
<title>Node1&#45;&gt;Node22</title>
<path fill="none" stroke="#63b8ff" d="M614.06,-351.94C591.03,-343.68 563.66,-331.74 542,-316 517.96,-298.53 496.72,-271.14 484.36,-253.37"/>
<polygon fill="#63b8ff" stroke="#63b8ff" points="486.94,-250.94 478.44,-244.62 481.14,-254.86 486.94,-250.94"/>
</g>
<!-- Node23 -->
<g id="node23" class="node">
<title>Node23</title>
<g id="a_node23"><a xlink:href="version_8h.html" target="_top" xlink:title=" ">
<polygon fill="white" stroke="#666666" points="921,-310.5 827,-310.5 827,-291.5 921,-291.5 921,-310.5"/>
<text text-anchor="middle" x="874" y="-298.5" font-family="Helvetica,sans-Serif" font-size="10.00">ccf/kv/version.h</text>
</a>
</g>
</g>
<!-- Node1&#45;&gt;Node23 -->
<g id="edge30" class="edge">
<title>Node1&#45;&gt;Node23</title>
<path fill="none" stroke="#63b8ff" d="M707.74,-351.95C746.25,-340.38 800.17,-324.18 836.04,-313.41"/>
<polygon fill="#63b8ff" stroke="#63b8ff" points="837.08,-316.75 845.65,-310.52 835.07,-310.04 837.08,-316.75"/>
</g>
<!-- Node24 -->
<g id="node24" class="node">
<title>Node24</title>
<g id="a_node24"><a xlink:href="node__info__network_8h.html" target="_top" xlink:title=" ">
<polygon fill="white" stroke="#666666" points="809,-316 689,-316 689,-286 809,-286 809,-316"/>
<text text-anchor="start" x="697" y="-304" font-family="Helvetica,sans-Serif" font-size="10.00">ccf/service/node_info</text>
<text text-anchor="middle" x="749" y="-293" font-family="Helvetica,sans-Serif" font-size="10.00">_network.h</text>
</a>
</g>
</g>
<!-- Node1&#45;&gt;Node24 -->
<g id="edge31" class="edge">
<title>Node1&#45;&gt;Node24</title>
<path fill="none" stroke="#63b8ff" d="M680.53,-351.8C692.49,-343.1 707.99,-331.82 721.22,-322.2"/>
<polygon fill="#63b8ff" stroke="#63b8ff" points="723.5,-324.88 729.52,-316.16 719.38,-319.22 723.5,-324.88"/>
</g>
<!-- Node2&#45;&gt;Node3 -->
<g id="edge2" class="edge">
<title>Node2&#45;&gt;Node3</title>
<path fill="none" stroke="#63b8ff" d="M284.13,-228.12C377.97,-216.9 581.7,-192.52 675.25,-181.33"/>
<polygon fill="#63b8ff" stroke="#63b8ff" points="675.78,-184.79 685.3,-180.13 674.95,-177.84 675.78,-184.79"/>
</g>
<!-- Node6 -->
<g id="node6" class="node">
<title>Node6</title>
<g id="a_node6"><a xlink:title=" ">
<polygon fill="#e0e0e0" stroke="#999999" points="414.5,-19 367.5,-19 367.5,0 414.5,0 414.5,-19"/>
<text text-anchor="middle" x="391" y="-7" font-family="Helvetica,sans-Serif" font-size="10.00">vector</text>
</a>
</g>
</g>
<!-- Node2&#45;&gt;Node6 -->
<g id="edge25" class="edge">
<title>Node2&#45;&gt;Node6</title>
<path fill="none" stroke="#63b8ff" d="M255.19,-225.36C272.72,-216.99 297.77,-202.8 314,-184 335.45,-159.15 370.16,-67.86 384.49,-28.63"/>
<polygon fill="#63b8ff" stroke="#63b8ff" points="387.85,-29.63 387.97,-19.04 381.27,-27.25 387.85,-29.63"/>
</g>
<!-- Node12 -->
<g id="node12" class="node">
<title>Node12</title>
<g id="a_node12"><a xlink:title=" ">
<polygon fill="#e0e0e0" stroke="#999999" points="274.5,-19 201.5,-19 201.5,0 274.5,0 274.5,-19"/>
<text text-anchor="middle" x="238" y="-7" font-family="Helvetica,sans-Serif" font-size="10.00">string_view</text>
</a>
</g>
</g>
<!-- Node2&#45;&gt;Node12 -->
<g id="edge24" class="edge">
<title>Node2&#45;&gt;Node12</title>
<path fill="none" stroke="#63b8ff" d="M212.94,-225.47C195.87,-217.55 173.44,-203.96 163,-184 159.09,-176.52 161.11,-173.23 163,-165 175.31,-111.45 208.76,-54.94 226.54,-27.48"/>
<polygon fill="#63b8ff" stroke="#63b8ff" points="229.52,-29.3 232.11,-19.03 223.68,-25.45 229.52,-29.3"/>
</g>
<!-- Node18 -->
<g id="node18" class="node">
<title>Node18</title>
<g id="a_node18"><a xlink:title=" ">
<polygon fill="#e0e0e0" stroke="#999999" points="222,-184 172,-184 172,-165 222,-165 222,-184"/>
<text text-anchor="middle" x="197" y="-172" font-family="Helvetica,sans-Serif" font-size="10.00">cstring</text>
</a>
</g>
</g>
<!-- Node2&#45;&gt;Node18 -->
<g id="edge20" class="edge">
<title>Node2&#45;&gt;Node18</title>
<path fill="none" stroke="#63b8ff" d="M229.39,-225.37C223.84,-216.81 215.17,-203.47 208.2,-192.74"/>
<polygon fill="#63b8ff" stroke="#63b8ff" points="211.01,-190.65 202.63,-184.17 205.14,-194.46 211.01,-190.65"/>
</g>
<!-- Node19 -->
<g id="node19" class="node">
<title>Node19</title>
<g id="a_node19"><a xlink:title=" ">
<polygon fill="#e0e0e0" stroke="#999999" points="305.5,-184 240.5,-184 240.5,-165 305.5,-165 305.5,-184"/>
<text text-anchor="middle" x="273" y="-172" font-family="Helvetica,sans-Serif" font-size="10.00">exception</text>
</a>
</g>
</g>
<!-- Node2&#45;&gt;Node19 -->
<g id="edge21" class="edge">
<title>Node2&#45;&gt;Node19</title>
<path fill="none" stroke="#63b8ff" d="M240.61,-225.37C246.16,-216.81 254.83,-203.47 261.8,-192.74"/>
<polygon fill="#63b8ff" stroke="#63b8ff" points="264.86,-194.46 267.37,-184.17 258.99,-190.65 264.86,-194.46"/>
</g>
<!-- Node20 -->
<g id="node20" class="node">
<title>Node20</title>
<g id="a_node20"><a xlink:title=" ">
<polygon fill="#e0e0e0" stroke="#999999" points="58,-184 0,-184 0,-165 58,-165 58,-184"/>
<text text-anchor="middle" x="29" y="-172" font-family="Helvetica,sans-Serif" font-size="10.00">memory</text>
</a>
</g>
</g>
<!-- Node2&#45;&gt;Node20 -->
<g id="edge22" class="edge">
<title>Node2&#45;&gt;Node20</title>
<path fill="none" stroke="#63b8ff" d="M205.05,-225.49C168.84,-215.21 107.81,-197.88 67.97,-186.57"/>
<polygon fill="#63b8ff" stroke="#63b8ff" points="68.9,-183.19 58.32,-183.83 66.99,-189.93 68.9,-183.19"/>
</g>
<!-- Node21 -->
<g id="node21" class="node">
<title>Node21</title>
<g id="a_node21"><a xlink:title=" ">
<polygon fill="#e0e0e0" stroke="#999999" points="116,-184 76,-184 76,-165 116,-165 116,-184"/>
<text text-anchor="middle" x="96" y="-172" font-family="Helvetica,sans-Serif" font-size="10.00">span</text>
</a>
</g>
</g>
<!-- Node2&#45;&gt;Node21 -->
<g id="edge23" class="edge">
<title>Node2&#45;&gt;Node21</title>
<path fill="none" stroke="#63b8ff" d="M214.79,-225.49C191.32,-215.62 152.39,-199.23 125.54,-187.93"/>
<polygon fill="#63b8ff" stroke="#63b8ff" points="126.81,-184.67 116.24,-184.02 124.1,-191.12 126.81,-184.67"/>
</g>
<!-- Node4 -->
<g id="node4" class="node">
<title>Node4</title>
<g id="a_node4"><a xlink:href="include_2ccf_2crypto_2base64_8h.html" target="_top" xlink:title=" ">
<polygon fill="white" stroke="#666666" points="696,-74 584,-74 584,-55 696,-55 696,-74"/>
<text text-anchor="middle" x="640" y="-62" font-family="Helvetica,sans-Serif" font-size="10.00">ccf/crypto/base64.h</text>
</a>
</g>
</g>
<!-- Node3&#45;&gt;Node4 -->
<g id="edge3" class="edge">
<title>Node3&#45;&gt;Node4</title>
<path fill="none" stroke="#63b8ff" d="M717.13,-164.66C703.09,-146.61 670.94,-105.28 652.89,-82.08"/>
<polygon fill="#63b8ff" stroke="#63b8ff" points="655.64,-79.9 646.73,-74.16 650.11,-84.2 655.64,-79.9"/>
</g>
<!-- Node7 -->
<g id="node7" class="node">
<title>Node7</title>
<g id="a_node7"><a xlink:href="include_2ccf_2ds_2json__schema_8h.html" target="_top" xlink:title=" ">
<polygon fill="white" stroke="#666666" points="873.5,-129 752.5,-129 752.5,-110 873.5,-110 873.5,-129"/>
<text text-anchor="middle" x="813" y="-117" font-family="Helvetica,sans-Serif" font-size="10.00">ccf/ds/json_schema.h</text>
</a>
</g>
</g>
<!-- Node3&#45;&gt;Node7 -->
<g id="edge6" class="edge">
<title>Node3&#45;&gt;Node7</title>
<path fill="none" stroke="#63b8ff" d="M738.3,-164.98C752.1,-156.77 773.24,-144.18 789.51,-134.49"/>
<polygon fill="#63b8ff" stroke="#63b8ff" points="791.64,-137.29 798.44,-129.17 788.06,-131.28 791.64,-137.29"/>
</g>
<!-- Node3&#45;&gt;Node15 -->
<g id="edge18" class="edge">
<title>Node3&#45;&gt;Node15</title>
<path fill="none" stroke="#63b8ff" d="M724.68,-164.85C726.94,-142.47 736.3,-82.5 773,-55 817.81,-21.42 882.81,-12.16 927.33,-10.1"/>
<polygon fill="#63b8ff" stroke="#63b8ff" points="927.47,-13.6 937.34,-9.74 927.22,-6.6 927.47,-13.6"/>
</g>
<!-- Node17 -->
<g id="node17" class="node">
<title>Node17</title>
<g id="a_node17"><a xlink:title=" ">
<polygon fill="#e0e0e0" stroke="#999999" points="974,-74 918,-74 918,-55 974,-55 974,-74"/>
<text text-anchor="middle" x="946" y="-62" font-family="Helvetica,sans-Serif" font-size="10.00">sstream</text>
</a>
</g>
</g>
<!-- Node3&#45;&gt;Node17 -->
<g id="edge19" class="edge">
<title>Node3&#45;&gt;Node17</title>
<path fill="none" stroke="#63b8ff" d="M762.52,-168.24C795.9,-162.42 844.58,-150.82 882,-129 902.6,-116.98 921.35,-96.78 933.16,-82.38"/>
<polygon fill="#63b8ff" stroke="#63b8ff" points="936.1,-84.31 939.56,-74.3 930.61,-79.96 936.1,-84.31"/>
</g>
<!-- Node5 -->
<g id="node5" class="node">
<title>Node5</title>
<g id="a_node5"><a xlink:title=" ">
<polygon fill="#e0e0e0" stroke="#999999" points="1429,-19 1385,-19 1385,0 1429,0 1429,-19"/>
<text text-anchor="middle" x="1407" y="-7" font-family="Helvetica,sans-Serif" font-size="10.00">string</text>
</a>
</g>
</g>
<!-- Node4&#45;&gt;Node5 -->
<g id="edge4" class="edge">
<title>Node4&#45;&gt;Node5</title>
<path fill="none" stroke="#63b8ff" d="M696.09,-59.62C846.62,-49.22 1256.11,-20.93 1374.52,-12.74"/>
<polygon fill="#63b8ff" stroke="#63b8ff" points="1375.01,-16.22 1384.75,-12.04 1374.53,-9.24 1375.01,-16.22"/>
</g>
<!-- Node4&#45;&gt;Node6 -->
<g id="edge5" class="edge">
<title>Node4&#45;&gt;Node6</title>
<path fill="none" stroke="#63b8ff" d="M595.18,-54.93C553.54,-46.82 489.56,-33.98 424.74,-19.08"/>
<polygon fill="#63b8ff" stroke="#63b8ff" points="425.29,-15.61 414.76,-16.77 423.71,-22.43 425.29,-15.61"/>
</g>
<!-- Node8 -->
<g id="node8" class="node">
<title>Node8</title>
<g id="a_node8"><a xlink:href="nonstd_8h.html" target="_top" xlink:title=" ">
<polygon fill="white" stroke="#666666" points="528,-74 438,-74 438,-55 528,-55 528,-74"/>
<text text-anchor="middle" x="483" y="-62" font-family="Helvetica,sans-Serif" font-size="10.00">ccf/ds/nonstd.h</text>
</a>
</g>
</g>
<!-- Node7&#45;&gt;Node8 -->
<g id="edge7" class="edge">
<title>Node7&#45;&gt;Node8</title>
<path fill="none" stroke="#63b8ff" d="M759.98,-109.98C699.14,-100.21 599.85,-84.27 538.14,-74.36"/>
<polygon fill="#63b8ff" stroke="#63b8ff" points="538.62,-70.89 528.19,-72.76 537.51,-77.8 538.62,-70.89"/>
</g>
<!-- Node7&#45;&gt;Node14 -->
<g id="edge15" class="edge">
<title>Node7&#45;&gt;Node14</title>
<path fill="none" stroke="#63b8ff" d="M873.75,-113.82C1012.44,-103.14 1349.09,-77.2 1462.77,-68.44"/>
<polygon fill="#63b8ff" stroke="#63b8ff" points="1463.05,-71.93 1472.75,-67.68 1462.51,-64.95 1463.05,-71.93"/>
</g>
<!-- Node7&#45;&gt;Node15 -->
<g id="edge16" class="edge">
<title>Node7&#45;&gt;Node15</title>
<path fill="none" stroke="#63b8ff" d="M802.55,-109.62C788.59,-96.7 767.14,-72.37 781,-55 798.96,-32.5 875.19,-20.52 927.12,-14.84"/>
<polygon fill="#63b8ff" stroke="#63b8ff" points="927.57,-18.31 937.15,-13.79 926.84,-11.35 927.57,-18.31"/>
</g>
<!-- Node16 -->
<g id="node16" class="node">
<title>Node16</title>
<g id="a_node16"><a xlink:title=" ">
<polygon fill="#e0e0e0" stroke="#999999" points="900,-74 790,-74 790,-55 900,-55 900,-74"/>
<text text-anchor="middle" x="845" y="-62" font-family="Helvetica,sans-Serif" font-size="10.00">nlohmann/json.hpp</text>
</a>
</g>
</g>
<!-- Node7&#45;&gt;Node16 -->
<g id="edge17" class="edge">
<title>Node7&#45;&gt;Node16</title>
<path fill="none" stroke="#63b8ff" d="M818.28,-109.75C822.71,-102.42 829.16,-91.73 834.62,-82.7"/>
<polygon fill="#63b8ff" stroke="#63b8ff" points="837.64,-84.46 839.81,-74.09 831.65,-80.84 837.64,-84.46"/>
</g>
<!-- Node8&#45;&gt;Node5 -->
<g id="edge11" class="edge">
<title>Node8&#45;&gt;Node5</title>
<path fill="none" stroke="#63b8ff" d="M528.36,-58.96C543.21,-57.56 559.8,-56.11 575,-55 886,-32.32 1263.19,-16.28 1374.57,-11.78"/>
<polygon fill="#63b8ff" stroke="#63b8ff" points="1374.95,-15.27 1384.8,-11.37 1374.67,-8.28 1374.95,-15.27"/>
</g>
<!-- Node8&#45;&gt;Node6 -->
<g id="edge14" class="edge">
<title>Node8&#45;&gt;Node6</title>
<path fill="none" stroke="#63b8ff" d="M468.22,-54.98C453.82,-46.69 431.69,-33.94 414.81,-24.22"/>
<polygon fill="#63b8ff" stroke="#63b8ff" points="416.46,-21.13 406.05,-19.17 412.97,-27.19 416.46,-21.13"/>
</g>
<!-- Node9 -->
<g id="node9" class="node">
<title>Node9</title>
<g id="a_node9"><a xlink:title=" ">
<polygon fill="#e0e0e0" stroke="#999999" points="625,-19 561,-19 561,0 625,0 625,-19"/>
<text text-anchor="middle" x="593" y="-7" font-family="Helvetica,sans-Serif" font-size="10.00">algorithm</text>
</a>
</g>
</g>
<!-- Node8&#45;&gt;Node9 -->
<g id="edge8" class="edge">
<title>Node8&#45;&gt;Node9</title>
<path fill="none" stroke="#63b8ff" d="M500.67,-54.98C518.29,-46.5 545.58,-33.35 565.93,-23.54"/>
<polygon fill="#63b8ff" stroke="#63b8ff" points="567.52,-26.66 575.01,-19.17 564.48,-20.36 567.52,-26.66"/>
</g>
<!-- Node10 -->
<g id="node10" class="node">
<title>Node10</title>
<g id="a_node10"><a xlink:title=" ">
<polygon fill="#e0e0e0" stroke="#999999" points="475,-19 433,-19 433,0 475,0 475,-19"/>
<text text-anchor="middle" x="454" y="-7" font-family="Helvetica,sans-Serif" font-size="10.00">array</text>
</a>
</g>
</g>
<!-- Node8&#45;&gt;Node10 -->
<g id="edge9" class="edge">
<title>Node8&#45;&gt;Node10</title>
<path fill="none" stroke="#63b8ff" d="M478.21,-54.75C474.24,-47.49 468.47,-36.95 463.57,-27.98"/>
<polygon fill="#63b8ff" stroke="#63b8ff" points="466.57,-26.18 458.7,-19.09 460.43,-29.54 466.57,-26.18"/>
</g>
<!-- Node11 -->
<g id="node11" class="node">
<title>Node11</title>
<g id="a_node11"><a xlink:title=" ">
<polygon fill="#e0e0e0" stroke="#999999" points="542.5,-19 493.5,-19 493.5,0 542.5,0 542.5,-19"/>
<text text-anchor="middle" x="518" y="-7" font-family="Helvetica,sans-Serif" font-size="10.00">cctype</text>
</a>
</g>
</g>
<!-- Node8&#45;&gt;Node11 -->
<g id="edge10" class="edge">
<title>Node8&#45;&gt;Node11</title>
<path fill="none" stroke="#63b8ff" d="M488.78,-54.75C493.62,-47.42 500.68,-36.73 506.64,-27.7"/>
<polygon fill="#63b8ff" stroke="#63b8ff" points="509.74,-29.36 512.33,-19.09 503.9,-25.5 509.74,-29.36"/>
</g>
<!-- Node8&#45;&gt;Node12 -->
<g id="edge12" class="edge">
<title>Node8&#45;&gt;Node12</title>
<path fill="none" stroke="#63b8ff" d="M443.64,-54.98C400.38,-45.63 330.93,-30.6 284.88,-20.64"/>
<polygon fill="#63b8ff" stroke="#63b8ff" points="285.38,-17.17 274.86,-18.47 283.9,-24.01 285.38,-17.17"/>
</g>
<!-- Node13 -->
<g id="node13" class="node">
<title>Node13</title>
<g id="a_node13"><a xlink:title=" ">
<polygon fill="#e0e0e0" stroke="#999999" points="775.5,-19 706.5,-19 706.5,0 775.5,0 775.5,-19"/>
<text text-anchor="middle" x="741" y="-7" font-family="Helvetica,sans-Serif" font-size="10.00">type_traits</text>
</a>
</g>
</g>
<!-- Node8&#45;&gt;Node13 -->
<g id="edge13" class="edge">
<title>Node8&#45;&gt;Node13</title>
<path fill="none" stroke="#63b8ff" d="M524.45,-54.98C571.53,-45.31 648.06,-29.59 696.4,-19.66"/>
<polygon fill="#63b8ff" stroke="#63b8ff" points="697.18,-23.08 706.27,-17.63 695.77,-16.22 697.18,-23.08"/>
</g>
<!-- Node22&#45;&gt;Node3 -->
<g id="edge28" class="edge">
<title>Node22&#45;&gt;Node3</title>
<path fill="none" stroke="#63b8ff" d="M509.5,-225.49C553.93,-215.14 629.01,-197.64 677.53,-186.33"/>
<polygon fill="#63b8ff" stroke="#63b8ff" points="678.51,-189.7 687.46,-184.02 676.92,-182.88 678.51,-189.7"/>
</g>
<!-- Node22&#45;&gt;Node6 -->
<g id="edge29" class="edge">
<title>Node22&#45;&gt;Node6</title>
<path fill="none" stroke="#63b8ff" d="M448.88,-225.48C430.84,-217.7 407.4,-204.29 396,-184 367.89,-133.96 378.84,-62.34 386.29,-28.95"/>
<polygon fill="#63b8ff" stroke="#63b8ff" points="389.7,-29.72 388.62,-19.18 382.89,-28.09 389.7,-29.72"/>
</g>
<!-- Node24&#45;&gt;Node3 -->
<g id="edge32" class="edge">
<title>Node24&#45;&gt;Node3</title>
<path fill="none" stroke="#63b8ff" d="M746.13,-285.72C741.59,-263.12 732.76,-219.12 727.73,-194.09"/>
<polygon fill="#63b8ff" stroke="#63b8ff" points="731.12,-193.18 725.72,-184.07 724.26,-194.56 731.12,-193.18"/>
</g>
<!-- Node24&#45;&gt;Node5 -->
<g id="edge65" class="edge">
<title>Node24&#45;&gt;Node5</title>
<path fill="none" stroke="#63b8ff" d="M809.15,-287.42C812.13,-286.91 815.1,-286.43 818,-286 982.22,-261.44 1557,-341.55 1557,-175.5 1557,-175.5 1557,-175.5 1557,-118.5 1557,-89.04 1558.44,-76.21 1538,-55 1512.02,-28.05 1469.12,-17.42 1439.53,-13.23"/>
<polygon fill="#63b8ff" stroke="#63b8ff" points="1439.64,-9.71 1429.28,-11.96 1438.78,-16.66 1439.64,-9.71"/>
</g>
<!-- Node24&#45;&gt;Node8 -->
<g id="edge33" class="edge">
<title>Node24&#45;&gt;Node8</title>
<path fill="none" stroke="#63b8ff" d="M732.76,-285.68C685.62,-244.13 549.04,-123.72 500.43,-80.86"/>
<polygon fill="#63b8ff" stroke="#63b8ff" points="502.48,-78.01 492.66,-74.02 497.85,-83.26 502.48,-78.01"/>
</g>
<!-- Node25 -->
<g id="node25" class="node">
<title>Node25</title>
<g id="a_node25"><a xlink:href="http__configuration_8h.html" target="_top" xlink:title=" ">
<polygon fill="white" stroke="#666666" points="1179.5,-244.5 1048.5,-244.5 1048.5,-225.5 1179.5,-225.5 1179.5,-244.5"/>
<text text-anchor="middle" x="1114" y="-232.5" font-family="Helvetica,sans-Serif" font-size="10.00">ccf/http_configuration.h</text>
</a>
</g>
</g>
<!-- Node24&#45;&gt;Node25 -->
<g id="edge34" class="edge">
<title>Node24&#45;&gt;Node25</title>
<path fill="none" stroke="#63b8ff" d="M809.19,-287.67C812.17,-287.09 815.12,-286.54 818,-286 897.92,-271.15 990.34,-255.83 1050.35,-246.13"/>
<polygon fill="#63b8ff" stroke="#63b8ff" points="1051.12,-249.55 1060.43,-244.51 1050,-242.64 1051.12,-249.55"/>
</g>
<!-- Node39 -->
<g id="node39" class="node">
<title>Node39</title>
<g id="a_node39"><a xlink:href="acme__client__config_8h.html" target="_top" xlink:title=" ">
<polygon fill="white" stroke="#666666" points="883.5,-250 752.5,-250 752.5,-220 883.5,-220 883.5,-250"/>
<text text-anchor="start" x="760.5" y="-238" font-family="Helvetica,sans-Serif" font-size="10.00">ccf/service/acme_client</text>
<text text-anchor="middle" x="818" y="-227" font-family="Helvetica,sans-Serif" font-size="10.00">_config.h</text>
</a>
</g>
</g>
<!-- Node24&#45;&gt;Node39 -->
<g id="edge60" class="edge">
<title>Node24&#45;&gt;Node39</title>
<path fill="none" stroke="#63b8ff" d="M764.31,-285.8C773.43,-277.34 785.16,-266.46 795.33,-257.03"/>
<polygon fill="#63b8ff" stroke="#63b8ff" points="797.78,-259.53 802.73,-250.16 793.02,-254.4 797.78,-259.53"/>
</g>
<!-- Node25&#45;&gt;Node3 -->
<g id="edge35" class="edge">
<title>Node25&#45;&gt;Node3</title>
<path fill="none" stroke="#63b8ff" d="M1057.29,-225.49C980.67,-214 845.38,-193.71 772.97,-182.85"/>
<polygon fill="#63b8ff" stroke="#63b8ff" points="773.16,-179.34 762.76,-181.31 772.13,-186.26 773.16,-179.34"/>
</g>
<!-- Node25&#45;&gt;Node14 -->
<g id="edge59" class="edge">
<title>Node25&#45;&gt;Node14</title>
<path fill="none" stroke="#63b8ff" d="M1179.63,-232.24C1267.05,-228.6 1415.53,-217.54 1457,-184 1487.62,-159.24 1496.93,-110.97 1499.76,-84.31"/>
<polygon fill="#63b8ff" stroke="#63b8ff" points="1503.28,-84.3 1500.64,-74.04 1496.3,-83.71 1503.28,-84.3"/>
</g>
<!-- Node26 -->
<g id="node26" class="node">
<title>Node26</title>
<g id="a_node26"><a xlink:href="unit__strings_8h.html" target="_top" xlink:title=" ">
<polygon fill="white" stroke="#666666" points="1339,-184 1225,-184 1225,-165 1339,-165 1339,-184"/>
<text text-anchor="middle" x="1282" y="-172" font-family="Helvetica,sans-Serif" font-size="10.00">ccf/ds/unit_strings.h</text>
</a>
</g>
</g>
<!-- Node25&#45;&gt;Node26 -->
<g id="edge36" class="edge">
<title>Node25&#45;&gt;Node26</title>
<path fill="none" stroke="#63b8ff" d="M1138.43,-225.49C1167.29,-215.44 1215.5,-198.66 1248,-187.34"/>
<polygon fill="#63b8ff" stroke="#63b8ff" points="1249.25,-190.61 1257.54,-184.02 1246.95,-184 1249.25,-190.61"/>
</g>
<!-- Node26&#45;&gt;Node5 -->
<g id="edge58" class="edge">
<title>Node26&#45;&gt;Node5</title>
<path fill="none" stroke="#63b8ff" d="M1278.51,-164.62C1273.89,-151.26 1267.69,-125.85 1280,-110 1319.68,-58.92 1381.32,-125.08 1421,-74 1431.14,-60.94 1425.1,-42.04 1418.07,-28.26"/>
<polygon fill="#63b8ff" stroke="#63b8ff" points="1420.96,-26.26 1412.99,-19.28 1414.87,-29.71 1420.96,-26.26"/>
</g>
<!-- Node26&#45;&gt;Node8 -->
<g id="edge54" class="edge">
<title>Node26&#45;&gt;Node8</title>
<path fill="none" stroke="#63b8ff" d="M1224.99,-171.74C1126.25,-168.03 917.24,-157.29 743,-129 663.19,-116.04 571.75,-91.36 521.36,-76.88"/>
<polygon fill="#63b8ff" stroke="#63b8ff" points="522.13,-73.46 511.55,-74.04 520.19,-80.18 522.13,-73.46"/>
</g>
<!-- Node26&#45;&gt;Node16 -->
<g id="edge57" class="edge">
<title>Node26&#45;&gt;Node16</title>
<path fill="none" stroke="#63b8ff" d="M1243.27,-164.98C1204.05,-156.26 1141.7,-142.17 1088,-129 1016.83,-111.54 934.39,-89.64 886.14,-76.65"/>
<polygon fill="#63b8ff" stroke="#63b8ff" points="886.95,-73.25 876.38,-74.02 885.12,-80.01 886.95,-73.25"/>
</g>
<!-- Node27 -->
<g id="node27" class="node">
<title>Node27</title>
<g id="a_node27"><a xlink:href="logger_8h.html" target="_top" xlink:title=" ">
<polygon fill="white" stroke="#666666" points="1183.5,-129 1096.5,-129 1096.5,-110 1183.5,-110 1183.5,-129"/>
<text text-anchor="middle" x="1140" y="-117" font-family="Helvetica,sans-Serif" font-size="10.00">ccf/ds/logger.h</text>
</a>
</g>
</g>
<!-- Node26&#45;&gt;Node27 -->
<g id="edge37" class="edge">
<title>Node26&#45;&gt;Node27</title>
<path fill="none" stroke="#63b8ff" d="M1259.19,-164.98C1235.83,-156.27 1199.3,-142.63 1172.83,-132.75"/>
<polygon fill="#63b8ff" stroke="#63b8ff" points="1173.82,-129.39 1163.23,-129.17 1171.37,-135.95 1173.82,-129.39"/>
</g>
<!-- Node37 -->
<g id="node37" class="node">
<title>Node37</title>
<g id="a_node37"><a xlink:title=" ">
<polygon fill="#e0e0e0" stroke="#999999" points="1349.5,-129 1288.5,-129 1288.5,-110 1349.5,-110 1349.5,-129"/>
<text text-anchor="middle" x="1319" y="-117" font-family="Helvetica,sans-Serif" font-size="10.00">charconv</text>
</a>
</g>
</g>
<!-- Node26&#45;&gt;Node37 -->
<g id="edge55" class="edge">
<title>Node26&#45;&gt;Node37</title>
<path fill="none" stroke="#63b8ff" d="M1288.11,-164.75C1293.28,-157.34 1300.85,-146.5 1307.19,-137.41"/>
<polygon fill="#63b8ff" stroke="#63b8ff" points="1310.15,-139.29 1313,-129.09 1304.41,-135.29 1310.15,-139.29"/>
</g>
<!-- Node38 -->
<g id="node38" class="node">
<title>Node38</title>
<g id="a_node38"><a xlink:title=" ">
<polygon fill="#e0e0e0" stroke="#999999" points="1414.5,-129 1367.5,-129 1367.5,-110 1414.5,-110 1414.5,-129"/>
<text text-anchor="middle" x="1391" y="-117" font-family="Helvetica,sans-Serif" font-size="10.00">cmath</text>
</a>
</g>
</g>
<!-- Node26&#45;&gt;Node38 -->
<g id="edge56" class="edge">
<title>Node26&#45;&gt;Node38</title>
<path fill="none" stroke="#63b8ff" d="M1299.51,-164.98C1316.97,-156.5 1344.01,-143.35 1364.17,-133.54"/>
<polygon fill="#63b8ff" stroke="#63b8ff" points="1365.71,-136.69 1373.17,-129.17 1362.64,-130.4 1365.71,-136.69"/>
</g>
<!-- Node27&#45;&gt;Node13 -->
<g id="edge53" class="edge">
<title>Node27&#45;&gt;Node13</title>
<path fill="none" stroke="#63b8ff" d="M1118.28,-109.87C1095.88,-100.95 1059.96,-86.6 1029,-74 1008.51,-65.66 1004.22,-61.26 983,-55 915.48,-35.09 834.62,-22.37 785.57,-15.84"/>
<polygon fill="#63b8ff" stroke="#63b8ff" points="785.97,-12.36 775.6,-14.54 785.06,-19.3 785.97,-12.36"/>
</g>
<!-- Node27&#45;&gt;Node14 -->
<g id="edge51" class="edge">
<title>Node27&#45;&gt;Node14</title>
<path fill="none" stroke="#63b8ff" d="M1183.55,-112.11C1254.75,-101.65 1394.93,-81.07 1462.62,-71.13"/>
<polygon fill="#63b8ff" stroke="#63b8ff" points="1463.46,-74.55 1472.84,-69.63 1462.44,-67.62 1463.46,-74.55"/>
</g>
<!-- Node27&#45;&gt;Node15 -->
<g id="edge48" class="edge">
<title>Node27&#45;&gt;Node15</title>
<path fill="none" stroke="#63b8ff" d="M1122.48,-109.88C1105.76,-101.42 1080.06,-87.82 1059,-74 1036.14,-59 1011.54,-39.45 995.31,-26.02"/>
<polygon fill="#63b8ff" stroke="#63b8ff" points="997.14,-22.99 987.23,-19.27 992.65,-28.36 997.14,-22.99"/>
</g>
<!-- Node27&#45;&gt;Node16 -->
<g id="edge50" class="edge">
<title>Node27&#45;&gt;Node16</title>
<path fill="none" stroke="#63b8ff" d="M1096.47,-110.68C1045.07,-101.44 959.38,-86.05 902.54,-75.84"/>
<polygon fill="#63b8ff" stroke="#63b8ff" points="903.08,-72.38 892.62,-74.06 901.85,-79.27 903.08,-72.38"/>
</g>
<!-- Node27&#45;&gt;Node17 -->
<g id="edge52" class="edge">
<title>Node27&#45;&gt;Node17</title>
<path fill="none" stroke="#63b8ff" d="M1108.83,-109.98C1074.86,-100.7 1020.49,-85.85 984.03,-75.89"/>
<polygon fill="#63b8ff" stroke="#63b8ff" points="984.82,-72.48 974.25,-73.22 982.98,-79.23 984.82,-72.48"/>
</g>
<!-- Node28 -->
<g id="node28" class="node">
<title>Node28</title>
<g id="a_node28"><a xlink:href="enum__formatter_8h.html" target="_top" xlink:title=" ">
<polygon fill="white" stroke="#666666" points="1204,-74 1068,-74 1068,-55 1204,-55 1204,-74"/>
<text text-anchor="middle" x="1136" y="-62" font-family="Helvetica,sans-Serif" font-size="10.00">ccf/ds/enum_formatter.h</text>
</a>
</g>
</g>
<!-- Node27&#45;&gt;Node28 -->
<g id="edge38" class="edge">
<title>Node27&#45;&gt;Node28</title>
<path fill="none" stroke="#63b8ff" d="M1139.34,-109.75C1138.82,-102.8 1138.06,-92.85 1137.41,-84.13"/>
<polygon fill="#63b8ff" stroke="#63b8ff" points="1140.89,-83.8 1136.65,-74.09 1133.91,-84.32 1140.89,-83.8"/>
</g>
<!-- Node29 -->
<g id="node29" class="node">
<title>Node29</title>
<g id="a_node29"><a xlink:href="thread__ids_8h.html" target="_top" xlink:title=" ">
<polygon fill="white" stroke="#666666" points="1693,-74 1585,-74 1585,-55 1693,-55 1693,-74"/>
<text text-anchor="middle" x="1639" y="-62" font-family="Helvetica,sans-Serif" font-size="10.00">ccf/ds/thread_ids.h</text>
</a>
</g>
</g>
<!-- Node27&#45;&gt;Node29 -->
<g id="edge40" class="edge">
<title>Node27&#45;&gt;Node29</title>
<path fill="none" stroke="#63b8ff" d="M1183.85,-113.84C1272.11,-104.47 1471.58,-83.28 1574.65,-72.33"/>
<polygon fill="#63b8ff" stroke="#63b8ff" points="1575.04,-75.81 1584.62,-71.28 1574.3,-68.85 1575.04,-75.81"/>
</g>
<!-- Node35 -->
<g id="node35" class="node">
<title>Node35</title>
<g id="a_node35"><a xlink:title=" ">
<polygon fill="#e0e0e0" stroke="#999999" points="1301.5,-74 1222.5,-74 1222.5,-55 1301.5,-55 1301.5,-74"/>
<text text-anchor="middle" x="1262" y="-62" font-family="Helvetica,sans-Serif" font-size="10.00">fmt/chrono.h</text>
</a>
</g>
</g>
<!-- Node27&#45;&gt;Node35 -->
<g id="edge47" class="edge">
<title>Node27&#45;&gt;Node35</title>
<path fill="none" stroke="#63b8ff" d="M1159.6,-109.98C1179.32,-101.42 1209.95,-88.11 1232.58,-78.28"/>
<polygon fill="#63b8ff" stroke="#63b8ff" points="1234.26,-81.37 1242.04,-74.17 1231.48,-74.94 1234.26,-81.37"/>
</g>
<!-- Node36 -->
<g id="node36" class="node">
<title>Node36</title>
<g id="a_node36"><a xlink:title=" ">
<polygon fill="#e0e0e0" stroke="#999999" points="1379,-74 1319,-74 1319,-55 1379,-55 1379,-74"/>
<text text-anchor="middle" x="1349" y="-62" font-family="Helvetica,sans-Serif" font-size="10.00">iostream</text>
</a>
</g>
</g>
<!-- Node27&#45;&gt;Node36 -->
<g id="edge49" class="edge">
<title>Node27&#45;&gt;Node36</title>
<path fill="none" stroke="#63b8ff" d="M1173.58,-109.98C1210.52,-100.62 1269.85,-85.57 1309.12,-75.61"/>
<polygon fill="#63b8ff" stroke="#63b8ff" points="1310.06,-78.98 1318.9,-73.13 1308.34,-72.2 1310.06,-78.98"/>
</g>
<!-- Node28&#45;&gt;Node15 -->
<g id="edge39" class="edge">
<title>Node28&#45;&gt;Node15</title>
<path fill="none" stroke="#63b8ff" d="M1110.45,-54.98C1083.88,-46.13 1042.06,-32.19 1012.33,-22.28"/>
<polygon fill="#63b8ff" stroke="#63b8ff" points="1013.34,-18.92 1002.75,-19.08 1011.13,-25.56 1013.34,-18.92"/>
</g>
<!-- Node29&#45;&gt;Node15 -->
<g id="edge41" class="edge">
<title>Node29&#45;&gt;Node15</title>
<path fill="none" stroke="#63b8ff" d="M1584.75,-58.89C1569.62,-57.61 1553.17,-56.24 1538,-55 1349.39,-39.58 1125.04,-22.02 1027,-14.39"/>
<polygon fill="#63b8ff" stroke="#63b8ff" points="1027.04,-10.88 1016.8,-13.59 1026.49,-17.86 1027.04,-10.88"/>
</g>
<!-- Node30 -->
<g id="node30" class="node">
<title>Node30</title>
<g id="a_node30"><a xlink:title=" ">
<polygon fill="#e0e0e0" stroke="#999999" points="1767,-19 1681,-19 1681,0 1767,0 1767,-19"/>
<text text-anchor="middle" x="1724" y="-7" font-family="Helvetica,sans-Serif" font-size="10.00">fmt/ostream.h</text>
</a>
</g>
</g>
<!-- Node29&#45;&gt;Node30 -->
<g id="edge42" class="edge">
<title>Node29&#45;&gt;Node30</title>
<path fill="none" stroke="#63b8ff" d="M1652.66,-54.98C1665.84,-46.77 1686.03,-34.18 1701.57,-24.49"/>
<polygon fill="#63b8ff" stroke="#63b8ff" points="1703.46,-27.43 1710.09,-19.17 1699.76,-21.49 1703.46,-27.43"/>
</g>
<!-- Node31 -->
<g id="node31" class="node">
<title>Node31</title>
<g id="a_node31"><a xlink:title=" ">
<polygon fill="#e0e0e0" stroke="#999999" points="1846.5,-19 1785.5,-19 1785.5,0 1846.5,0 1846.5,-19"/>
<text text-anchor="middle" x="1816" y="-7" font-family="Helvetica,sans-Serif" font-size="10.00">fmt/std.h</text>
</a>
</g>
</g>
<!-- Node29&#45;&gt;Node31 -->
<g id="edge43" class="edge">
<title>Node29&#45;&gt;Node31</title>
<path fill="none" stroke="#63b8ff" d="M1667.44,-54.98C1697.28,-46.05 1744.38,-31.94 1777.53,-22.02"/>
<polygon fill="#63b8ff" stroke="#63b8ff" points="1778.76,-25.3 1787.34,-19.08 1776.76,-18.6 1778.76,-25.3"/>
</g>
<!-- Node32 -->
<g id="node32" class="node">
<title>Node32</title>
<g id="a_node32"><a xlink:title=" ">
<polygon fill="#e0e0e0" stroke="#999999" points="1541,-19 1497,-19 1497,0 1541,0 1541,-19"/>
<text text-anchor="middle" x="1519" y="-7" font-family="Helvetica,sans-Serif" font-size="10.00">limits</text>
</a>
</g>
</g>
<!-- Node29&#45;&gt;Node32 -->
<g id="edge44" class="edge">
<title>Node29&#45;&gt;Node32</title>
<path fill="none" stroke="#63b8ff" d="M1619.72,-54.98C1600.33,-46.42 1570.19,-33.11 1547.93,-23.28"/>
<polygon fill="#63b8ff" stroke="#63b8ff" points="1549.19,-20.01 1538.63,-19.17 1546.36,-26.41 1549.19,-20.01"/>
</g>
<!-- Node33 -->
<g id="node33" class="node">
<title>Node33</title>
<g id="a_node33"><a xlink:title=" ">
<polygon fill="#e0e0e0" stroke="#999999" points="1597,-19 1559,-19 1559,0 1597,0 1597,-19"/>
<text text-anchor="middle" x="1578" y="-7" font-family="Helvetica,sans-Serif" font-size="10.00">map</text>
</a>
</g>
</g>
<!-- Node29&#45;&gt;Node33 -->
<g id="edge45" class="edge">
<title>Node29&#45;&gt;Node33</title>
<path fill="none" stroke="#63b8ff" d="M1629.2,-54.98C1620.18,-47.15 1606.59,-35.34 1595.68,-25.86"/>
<polygon fill="#63b8ff" stroke="#63b8ff" points="1597.82,-23.09 1587.98,-19.17 1593.23,-28.37 1597.82,-23.09"/>
</g>
<!-- Node34 -->
<g id="node34" class="node">
<title>Node34</title>
<g id="a_node34"><a xlink:title=" ">
<polygon fill="#e0e0e0" stroke="#999999" points="1663,-19 1615,-19 1615,0 1663,0 1663,-19"/>
<text text-anchor="middle" x="1639" y="-7" font-family="Helvetica,sans-Serif" font-size="10.00">thread</text>
</a>
</g>
</g>
<!-- Node29&#45;&gt;Node34 -->
<g id="edge46" class="edge">
<title>Node29&#45;&gt;Node34</title>
<path fill="none" stroke="#63b8ff" d="M1639,-54.75C1639,-47.8 1639,-37.85 1639,-29.13"/>
<polygon fill="#63b8ff" stroke="#63b8ff" points="1642.5,-29.09 1639,-19.09 1635.5,-29.09 1642.5,-29.09"/>
</g>
<!-- Node39&#45;&gt;Node3 -->
<g id="edge61" class="edge">
<title>Node39&#45;&gt;Node3</title>
<path fill="none" stroke="#63b8ff" d="M795.25,-219.84C780.4,-210.6 761.1,-198.59 746.34,-189.4"/>
<polygon fill="#63b8ff" stroke="#63b8ff" points="748.15,-186.41 737.81,-184.09 744.45,-192.35 748.15,-186.41"/>
</g>
<!-- Node39&#45;&gt;Node5 -->
<g id="edge63" class="edge">
<title>Node39&#45;&gt;Node5</title>
<path fill="none" stroke="#63b8ff" d="M869.35,-219.94C1008.58,-181.75 1383.23,-78.7 1388,-74 1399.91,-62.28 1404.42,-43.43 1406.09,-29.31"/>
<polygon fill="#63b8ff" stroke="#63b8ff" points="1409.59,-29.47 1406.92,-19.22 1402.62,-28.9 1409.59,-29.47"/>
</g>
<!-- Node39&#45;&gt;Node6 -->
<g id="edge64" class="edge">
<title>Node39&#45;&gt;Node6</title>
<path fill="none" stroke="#63b8ff" d="M752.38,-221.04C668.79,-201.66 523.81,-158.04 429,-74 414.9,-61.5 404.49,-42.49 398.16,-28.53"/>
<polygon fill="#63b8ff" stroke="#63b8ff" points="401.26,-26.86 394.13,-19.02 394.81,-29.6 401.26,-26.86"/>
</g>
<!-- Node39&#45;&gt;Node14 -->
<g id="edge62" class="edge">
<title>Node39&#45;&gt;Node14</title>
<path fill="none" stroke="#63b8ff" d="M883.7,-229.75C1015.99,-220.9 1305.51,-200 1348,-184 1406.98,-161.78 1461.68,-108.49 1486.7,-81.6"/>
<polygon fill="#63b8ff" stroke="#63b8ff" points="1489.33,-83.91 1493.48,-74.17 1484.16,-79.2 1489.33,-83.91"/>
</g>
</g>
</svg>
        <g id="navigator" transform="translate(0 0)" fill="#404254">
                <rect fill="#f2f5e9" fill-opacity="0.5" stroke="#606060" stroke-width=".5" x="0" y="0" width="60" height="60"/>
                <use id="zoomplus" xlink:href="#zoomPlus" x="17" y="9" onmousedown="handleZoom(evt,'in')"/>
                <use id="zoomminus" xlink:href="#zoomMin" x="42" y="9" onmousedown="handleZoom(evt,'out')"/>
                <use id="reset" xlink:href="#resetDef" x="30" y="36" onmousedown="handleReset()"/>
                <g id="arrowUp" xlink:href="#dirArrow" transform="translate(30 24)" onmousedown="handlePan(0,-1)">
                  <use xlink:href="#rim" fill="#404040">
                        <set attributeName="fill" to="#808080" begin="arrowUp.mouseover" end="arrowUp.mouseout"/>
                  </use>
                  <path fill="none" stroke="white" stroke-width="1.5" d="M0,-3.0v7 M-2.5,-0.5L0,-3.0L2.5,-0.5"/>
                </g>
                <g id="arrowRight" xlink:href="#dirArrow" transform="rotate(90) translate(36 -43)" onmousedown="handlePan(1,0)">
                  <use xlink:href="#rim" fill="#404040">
                        <set attributeName="fill" to="#808080" begin="arrowRight.mouseover" end="arrowRight.mouseout"/>
                  </use>
                  <path fill="none" stroke="white" stroke-width="1.5" d="M0,-3.0v7 M-2.5,-0.5L0,-3.0L2.5,-0.5"/>
                </g>
                <g id="arrowDown" xlink:href="#dirArrow" transform="rotate(180) translate(-30 -48)" onmousedown="handlePan(0,1)">
                  <use xlink:href="#rim" fill="#404040">
                        <set attributeName="fill" to="#808080" begin="arrowDown.mouseover" end="arrowDown.mouseout"/>
                  </use>
                  <path fill="none" stroke="white" stroke-width="1.5" d="M0,-3.0v7 M-2.5,-0.5L0,-3.0L2.5,-0.5"/>
                </g>
                <g id="arrowLeft" xlink:href="#dirArrow" transform="rotate(270) translate(-36 17)" onmousedown="handlePan(-1,0)">
                  <use xlink:href="#rim" fill="#404040">
                        <set attributeName="fill" to="#808080" begin="arrowLeft.mouseover" end="arrowLeft.mouseout"/>
                  </use>
                  <path fill="none" stroke="white" stroke-width="1.5" d="M0,-3.0v7 M-2.5,-0.5L0,-3.0L2.5,-0.5"/>
                </g>
        </g>
        <svg viewBox="0 0 15 15" width="100%" height="30px" preserveAspectRatio="xMaxYMin meet">
         <g id="arrow_out" transform="scale(0.3 0.3)">
          <a xlink:href="node__info_8h__incl_org.svg" target="_base">
           <rect id="button" ry="5" rx="5" y="6" x="6" height="38" width="38"
                fill="#f2f5e9" fill-opacity="0.5" stroke="#606060" stroke-width="1.0"/>
           <path id="arrow"
             d="M 11.500037,31.436501 C 11.940474,20.09759 22.043105,11.32322 32.158766,21.979434 L 37.068811,17.246167 C 37.068811,17.246167 37.088388,32 37.088388,32 L 22.160133,31.978069 C 22.160133,31.978069 26.997745,27.140456 26.997745,27.140456 C 18.528582,18.264221 13.291696,25.230495 11.500037,31.436501 z"
             style="fill:#404040;"/>
          </a>
         </g>
        </svg>
</svg>
