<?xml version="1.0" encoding="UTF-8" standalone="no"?>
<!DOCTYPE svg PUBLIC "-//W3C//DTD SVG 1.1//EN"
 "http://www.w3.org/Graphics/SVG/1.1/DTD/svg11.dtd">
<!-- Generated by graphviz version 2.43.0 (0)
 -->
<!-- Title: src/ds/non_blocking.h Pages: 1 -->
<svg width="1211pt" height="302pt"
 viewBox="0.00 0.00 1210.95 302.00" xmlns="http://www.w3.org/2000/svg" xmlns:xlink="http://www.w3.org/1999/xlink">
<g id="graph0" class="graph" transform="scale(1 1) rotate(0) translate(4 298)">
<title>src/ds/non_blocking.h</title>
<!-- Node1 -->
<g id="node1" class="node">
<title>Node1</title>
<g id="a_node1"><a xlink:title=" ">
<polygon fill="#999999" stroke="#666666" points="1150.45,-294 1028.45,-294 1028.45,-275 1150.45,-275 1150.45,-294"/>
<text text-anchor="middle" x="1089.45" y="-282" font-family="Helvetica,sans-Serif" font-size="10.00">src/ds/non_blocking.h</text>
</a>
</g>
</g>
<!-- Node2 -->
<g id="node2" class="node">
<title>Node2</title>
<g id="a_node2"><a xlink:href="ring__buffer_8h.html" target="_top" xlink:title=" ">
<polygon fill="white" stroke="#666666" points="256.95,-239 179.95,-239 179.95,-220 256.95,-220 256.95,-239"/>
<text text-anchor="middle" x="218.45" y="-227" font-family="Helvetica,sans-Serif" font-size="10.00">ring_buffer.h</text>
</a>
</g>
</g>
<!-- Node1&#45;&gt;Node2 -->
<g id="edge1" class="edge">
<title>Node1&#45;&gt;Node2</title>
<path fill="none" stroke="#63b8ff" d="M1028.21,-282.36C891.9,-279.34 553.22,-269.18 271.45,-239 270.14,-238.86 268.82,-238.71 267.49,-238.55"/>
<polygon fill="#63b8ff" stroke="#63b8ff" points="267.54,-235.03 257.17,-237.19 266.63,-241.97 267.54,-235.03"/>
</g>
<!-- Node12 -->
<g id="node12" class="node">
<title>Node12</title>
<g id="a_node12"><a xlink:title=" ">
<polygon fill="#e0e0e0" stroke="#999999" points="379.95,-19 332.95,-19 332.95,0 379.95,0 379.95,-19"/>
<text text-anchor="middle" x="356.45" y="-7" font-family="Helvetica,sans-Serif" font-size="10.00">vector</text>
</a>
</g>
</g>
<!-- Node1&#45;&gt;Node12 -->
<g id="edge48" class="edge">
<title>Node1&#45;&gt;Node12</title>
<path fill="none" stroke="#63b8ff" d="M1028.36,-281.71C840.73,-275.4 285.45,-250.41 285.45,-175.5 285.45,-175.5 285.45,-175.5 285.45,-118.5 285.45,-80.27 316.9,-45.09 337.93,-25.83"/>
<polygon fill="#63b8ff" stroke="#63b8ff" points="340.46,-28.27 345.66,-19.03 335.84,-23.01 340.46,-28.27"/>
</g>
<!-- Node24 -->
<g id="node24" class="node">
<title>Node24</title>
<g id="a_node24"><a xlink:title=" ">
<polygon fill="#e0e0e0" stroke="#999999" points="1100.45,-74 1042.45,-74 1042.45,-55 1100.45,-55 1100.45,-74"/>
<text text-anchor="middle" x="1071.45" y="-62" font-family="Helvetica,sans-Serif" font-size="10.00">memory</text>
</a>
</g>
</g>
<!-- Node1&#45;&gt;Node24 -->
<g id="edge47" class="edge">
<title>Node1&#45;&gt;Node24</title>
<path fill="none" stroke="#63b8ff" d="M1088.74,-274.95C1086.1,-242.95 1076.75,-129.68 1073.01,-84.4"/>
<polygon fill="#63b8ff" stroke="#63b8ff" points="1076.48,-83.9 1072.17,-74.22 1069.5,-84.48 1076.48,-83.9"/>
</g>
<!-- Node27 -->
<g id="node27" class="node">
<title>Node27</title>
<g id="a_node27"><a xlink:title=" ">
<polygon fill="#e0e0e0" stroke="#999999" points="1196.95,-129 1117.95,-129 1117.95,-110 1196.95,-110 1196.95,-129"/>
<text text-anchor="middle" x="1157.45" y="-117" font-family="Helvetica,sans-Serif" font-size="10.00">fmt/format.h</text>
</a>
</g>
</g>
<!-- Node1&#45;&gt;Node27 -->
<g id="edge46" class="edge">
<title>Node1&#45;&gt;Node27</title>
<path fill="none" stroke="#63b8ff" d="M1093.1,-274.74C1103.8,-249.09 1135.22,-173.78 1149.82,-138.78"/>
<polygon fill="#63b8ff" stroke="#63b8ff" points="1153.15,-139.88 1153.77,-129.31 1146.69,-137.19 1153.15,-139.88"/>
</g>
<!-- Node31 -->
<g id="node31" class="node">
<title>Node31</title>
<g id="a_node31"><a xlink:title=" ">
<polygon fill="#e0e0e0" stroke="#999999" points="1202.95,-239 1155.95,-239 1155.95,-220 1202.95,-220 1202.95,-239"/>
<text text-anchor="middle" x="1179.45" y="-227" font-family="Helvetica,sans-Serif" font-size="10.00">deque</text>
</a>
</g>
</g>
<!-- Node1&#45;&gt;Node31 -->
<g id="edge45" class="edge">
<title>Node1&#45;&gt;Node31</title>
<path fill="none" stroke="#63b8ff" d="M1103.91,-274.98C1117.86,-266.77 1139.24,-254.18 1155.7,-244.49"/>
<polygon fill="#63b8ff" stroke="#63b8ff" points="1157.88,-247.26 1164.72,-239.17 1154.33,-241.23 1157.88,-247.26"/>
</g>
<!-- Node3 -->
<g id="node3" class="node">
<title>Node3</title>
<g id="a_node3"><a xlink:href="mem_8h.html" target="_top" xlink:title=" ">
<polygon fill="white" stroke="#666666" points="163.45,-184 77.45,-184 77.45,-165 163.45,-165 163.45,-184"/>
<text text-anchor="middle" x="120.45" y="-172" font-family="Helvetica,sans-Serif" font-size="10.00">ccf/pal/mem.h</text>
</a>
</g>
</g>
<!-- Node2&#45;&gt;Node3 -->
<g id="edge2" class="edge">
<title>Node2&#45;&gt;Node3</title>
<path fill="none" stroke="#63b8ff" d="M202.7,-219.98C187.22,-211.61 163.35,-198.7 145.31,-188.95"/>
<polygon fill="#63b8ff" stroke="#63b8ff" points="146.94,-185.85 136.48,-184.17 143.61,-192.01 146.94,-185.85"/>
</g>
<!-- Node5 -->
<g id="node5" class="node">
<title>Node5</title>
<g id="a_node5"><a xlink:title=" ">
<polygon fill="#e0e0e0" stroke="#999999" points="120.45,-19 70.45,-19 70.45,0 120.45,0 120.45,-19"/>
<text text-anchor="middle" x="95.45" y="-7" font-family="Helvetica,sans-Serif" font-size="10.00">cstring</text>
</a>
</g>
</g>
<!-- Node2&#45;&gt;Node5 -->
<g id="edge43" class="edge">
<title>Node2&#45;&gt;Node5</title>
<path fill="none" stroke="#63b8ff" d="M179.87,-224.94C126.97,-217.62 34.96,-195.46 4.45,-129 -15.04,-86.55 37.91,-45.19 71.03,-24.39"/>
<polygon fill="#63b8ff" stroke="#63b8ff" points="73.04,-27.26 79.78,-19.08 69.41,-21.28 73.04,-27.26"/>
</g>
<!-- Node7 -->
<g id="node7" class="node">
<title>Node7</title>
<g id="a_node7"><a xlink:href="ring__buffer__types_8h.html" target="_top" xlink:title=" ">
<polygon fill="white" stroke="#666666" points="843.45,-184 733.45,-184 733.45,-165 843.45,-165 843.45,-184"/>
<text text-anchor="middle" x="788.45" y="-172" font-family="Helvetica,sans-Serif" font-size="10.00">ring_buffer_types.h</text>
</a>
</g>
</g>
<!-- Node2&#45;&gt;Node7 -->
<g id="edge6" class="edge">
<title>Node2&#45;&gt;Node7</title>
<path fill="none" stroke="#63b8ff" d="M257.18,-224.9C353.35,-215.96 603.88,-192.66 723.3,-181.56"/>
<polygon fill="#63b8ff" stroke="#63b8ff" points="723.77,-185.03 733.4,-180.62 723.12,-178.06 723.77,-185.03"/>
</g>
<!-- Node30 -->
<g id="node30" class="node">
<title>Node30</title>
<g id="a_node30"><a xlink:title=" ">
<polygon fill="#e0e0e0" stroke="#999999" points="926.95,-184 861.95,-184 861.95,-165 926.95,-165 926.95,-184"/>
<text text-anchor="middle" x="894.45" y="-172" font-family="Helvetica,sans-Serif" font-size="10.00">functional</text>
</a>
</g>
</g>
<!-- Node2&#45;&gt;Node30 -->
<g id="edge44" class="edge">
<title>Node2&#45;&gt;Node30</title>
<path fill="none" stroke="#63b8ff" d="M257.22,-227.53C355.18,-224.7 620.64,-214.71 851.57,-183.93"/>
<polygon fill="#63b8ff" stroke="#63b8ff" points="852.06,-187.39 861.5,-182.59 851.12,-180.46 852.06,-187.39"/>
</g>
<!-- Node4 -->
<g id="node4" class="node">
<title>Node4</title>
<g id="a_node4"><a xlink:title=" ">
<polygon fill="#e0e0e0" stroke="#999999" points="66.95,-129 13.95,-129 13.95,-110 66.95,-110 66.95,-129"/>
<text text-anchor="middle" x="40.45" y="-117" font-family="Helvetica,sans-Serif" font-size="10.00">stdlib.h</text>
</a>
</g>
</g>
<!-- Node3&#45;&gt;Node4 -->
<g id="edge3" class="edge">
<title>Node3&#45;&gt;Node4</title>
<path fill="none" stroke="#63b8ff" d="M107.59,-164.98C95.3,-156.84 76.54,-144.41 61.97,-134.76"/>
<polygon fill="#63b8ff" stroke="#63b8ff" points="63.8,-131.78 53.53,-129.17 59.94,-137.61 63.8,-131.78"/>
</g>
<!-- Node3&#45;&gt;Node5 -->
<g id="edge4" class="edge">
<title>Node3&#45;&gt;Node5</title>
<path fill="none" stroke="#63b8ff" d="M119.1,-164.74C115.18,-139.2 103.72,-64.43 98.32,-29.23"/>
<polygon fill="#63b8ff" stroke="#63b8ff" points="101.77,-28.66 96.8,-19.31 94.85,-29.72 101.77,-28.66"/>
</g>
<!-- Node6 -->
<g id="node6" class="node">
<title>Node6</title>
<g id="a_node6"><a xlink:title=" ">
<polygon fill="#e0e0e0" stroke="#999999" points="167.45,-129 123.45,-129 123.45,-110 167.45,-110 167.45,-129"/>
<text text-anchor="middle" x="145.45" y="-117" font-family="Helvetica,sans-Serif" font-size="10.00">limits</text>
</a>
</g>
</g>
<!-- Node3&#45;&gt;Node6 -->
<g id="edge5" class="edge">
<title>Node3&#45;&gt;Node6</title>
<path fill="none" stroke="#63b8ff" d="M124.57,-164.75C127.96,-157.57 132.86,-147.18 137.06,-138.27"/>
<polygon fill="#63b8ff" stroke="#63b8ff" points="140.29,-139.63 141.39,-129.09 133.96,-136.64 140.29,-139.63"/>
</g>
<!-- Node8 -->
<g id="node8" class="node">
<title>Node8</title>
<g id="a_node8"><a xlink:href="include_2ccf_2ds_2hash_8h.html" target="_top" xlink:title=" ">
<polygon fill="white" stroke="#666666" points="569.45,-129 489.45,-129 489.45,-110 569.45,-110 569.45,-129"/>
<text text-anchor="middle" x="529.45" y="-117" font-family="Helvetica,sans-Serif" font-size="10.00">ccf/ds/hash.h</text>
</a>
</g>
</g>
<!-- Node7&#45;&gt;Node8 -->
<g id="edge7" class="edge">
<title>Node7&#45;&gt;Node8</title>
<path fill="none" stroke="#63b8ff" d="M746.83,-164.98C701.31,-155.67 628.35,-140.74 579.68,-130.78"/>
<polygon fill="#63b8ff" stroke="#63b8ff" points="580.18,-127.31 569.68,-128.73 578.77,-134.17 580.18,-127.31"/>
</g>
<!-- Node7&#45;&gt;Node12 -->
<g id="edge42" class="edge">
<title>Node7&#45;&gt;Node12</title>
<path fill="none" stroke="#63b8ff" d="M733.41,-170.52C670.95,-166 566.56,-154.99 480.45,-129 425.82,-112.51 397.91,-120.21 364.45,-74 355.18,-61.2 353.74,-43.03 354.29,-29.4"/>
<polygon fill="#63b8ff" stroke="#63b8ff" points="357.79,-29.49 355.09,-19.24 350.82,-28.94 357.79,-29.49"/>
</g>
<!-- Node16 -->
<g id="node16" class="node">
<title>Node16</title>
<g id="a_node16"><a xlink:href="nonstd_8h.html" target="_top" xlink:title=" ">
<polygon fill="white" stroke="#666666" points="852.45,-74 762.45,-74 762.45,-55 852.45,-55 852.45,-74"/>
<text text-anchor="middle" x="807.45" y="-62" font-family="Helvetica,sans-Serif" font-size="10.00">ccf/ds/nonstd.h</text>
</a>
</g>
</g>
<!-- Node7&#45;&gt;Node16 -->
<g id="edge17" class="edge">
<title>Node7&#45;&gt;Node16</title>
<path fill="none" stroke="#63b8ff" d="M775.06,-164.91C758.46,-153.11 733.59,-130.96 744.45,-110 751.48,-96.41 764.79,-86.09 777.37,-78.82"/>
<polygon fill="#63b8ff" stroke="#63b8ff" points="779.11,-81.86 786.3,-74.07 775.82,-75.68 779.11,-81.86"/>
</g>
<!-- Node19 -->
<g id="node19" class="node">
<title>Node19</title>
<g id="a_node19"><a xlink:title=" ">
<polygon fill="#e0e0e0" stroke="#999999" points="865.45,-19 821.45,-19 821.45,0 865.45,0 865.45,-19"/>
<text text-anchor="middle" x="843.45" y="-7" font-family="Helvetica,sans-Serif" font-size="10.00">string</text>
</a>
</g>
</g>
<!-- Node7&#45;&gt;Node19 -->
<g id="edge41" class="edge">
<title>Node7&#45;&gt;Node19</title>
<path fill="none" stroke="#63b8ff" d="M798.55,-164.95C816.19,-149.18 851.67,-113.51 861.45,-74 865.31,-58.38 859.52,-40.78 853.5,-28.08"/>
<polygon fill="#63b8ff" stroke="#63b8ff" points="856.53,-26.33 848.81,-19.08 850.32,-29.56 856.53,-26.33"/>
</g>
<!-- Node21 -->
<g id="node21" class="node">
<title>Node21</title>
<g id="a_node21"><a xlink:href="serializer_8h.html" target="_top" xlink:title=" ">
<polygon fill="white" stroke="#666666" points="823.45,-129 753.45,-129 753.45,-110 823.45,-110 823.45,-129"/>
<text text-anchor="middle" x="788.45" y="-117" font-family="Helvetica,sans-Serif" font-size="10.00">serializer.h</text>
</a>
</g>
</g>
<!-- Node7&#45;&gt;Node21 -->
<g id="edge25" class="edge">
<title>Node7&#45;&gt;Node21</title>
<path fill="none" stroke="#63b8ff" d="M788.45,-164.75C788.45,-157.8 788.45,-147.85 788.45,-139.13"/>
<polygon fill="#63b8ff" stroke="#63b8ff" points="791.95,-139.09 788.45,-129.09 784.95,-139.09 791.95,-139.09"/>
</g>
<!-- Node26 -->
<g id="node26" class="node">
<title>Node26</title>
<g id="a_node26"><a xlink:title=" ">
<polygon fill="#e0e0e0" stroke="#999999" points="929.45,-129 879.45,-129 879.45,-110 929.45,-110 929.45,-129"/>
<text text-anchor="middle" x="904.45" y="-117" font-family="Helvetica,sans-Serif" font-size="10.00">atomic</text>
</a>
</g>
</g>
<!-- Node7&#45;&gt;Node26 -->
<g id="edge37" class="edge">
<title>Node7&#45;&gt;Node26</title>
<path fill="none" stroke="#63b8ff" d="M807.08,-164.98C825.74,-156.46 854.7,-143.23 876.19,-133.41"/>
<polygon fill="#63b8ff" stroke="#63b8ff" points="877.83,-136.51 885.47,-129.17 874.92,-130.14 877.83,-136.51"/>
</g>
<!-- Node7&#45;&gt;Node27 -->
<g id="edge38" class="edge">
<title>Node7&#45;&gt;Node27</title>
<path fill="none" stroke="#63b8ff" d="M843.69,-165.57C915.21,-155.29 1038.81,-137.54 1107.6,-127.66"/>
<polygon fill="#63b8ff" stroke="#63b8ff" points="1108.34,-131.09 1117.74,-126.2 1107.34,-124.16 1108.34,-131.09"/>
</g>
<!-- Node28 -->
<g id="node28" class="node">
<title>Node28</title>
<g id="a_node28"><a xlink:title=" ">
<polygon fill="#e0e0e0" stroke="#999999" points="1003.45,-129 947.45,-129 947.45,-110 1003.45,-110 1003.45,-129"/>
<text text-anchor="middle" x="975.45" y="-117" font-family="Helvetica,sans-Serif" font-size="10.00">optional</text>
</a>
</g>
</g>
<!-- Node7&#45;&gt;Node28 -->
<g id="edge39" class="edge">
<title>Node7&#45;&gt;Node28</title>
<path fill="none" stroke="#63b8ff" d="M818.49,-164.98C850.82,-155.82 902.3,-141.23 937.42,-131.28"/>
<polygon fill="#63b8ff" stroke="#63b8ff" points="938.64,-134.57 947.31,-128.47 936.74,-127.83 938.64,-134.57"/>
</g>
<!-- Node29 -->
<g id="node29" class="node">
<title>Node29</title>
<g id="a_node29"><a xlink:title=" ">
<polygon fill="#e0e0e0" stroke="#999999" points="1061.45,-129 1021.45,-129 1021.45,-110 1061.45,-110 1061.45,-129"/>
<text text-anchor="middle" x="1041.45" y="-117" font-family="Helvetica,sans-Serif" font-size="10.00">span</text>
</a>
</g>
</g>
<!-- Node7&#45;&gt;Node29 -->
<g id="edge40" class="edge">
<title>Node7&#45;&gt;Node29</title>
<path fill="none" stroke="#63b8ff" d="M838.1,-164.95C881.46,-157.18 946.24,-144.87 1011.22,-129.13"/>
<polygon fill="#63b8ff" stroke="#63b8ff" points="1012.35,-132.46 1021.23,-126.68 1010.68,-125.66 1012.35,-132.46"/>
</g>
<!-- Node9 -->
<g id="node9" class="node">
<title>Node9</title>
<g id="a_node9"><a xlink:href="siphash_8h.html" target="_top" xlink:title=" ">
<polygon fill="white" stroke="#666666" points="256.95,-74 161.95,-74 161.95,-55 256.95,-55 256.95,-74"/>
<text text-anchor="middle" x="209.45" y="-62" font-family="Helvetica,sans-Serif" font-size="10.00">ccf/ds/siphash.h</text>
</a>
</g>
</g>
<!-- Node8&#45;&gt;Node9 -->
<g id="edge8" class="edge">
<title>Node8&#45;&gt;Node9</title>
<path fill="none" stroke="#63b8ff" d="M489.24,-111.84C433.15,-102.55 331.11,-85.65 266.98,-75.03"/>
<polygon fill="#63b8ff" stroke="#63b8ff" points="267.47,-71.56 257.03,-73.38 266.32,-78.47 267.47,-71.56"/>
</g>
<!-- Node11 -->
<g id="node11" class="node">
<title>Node11</title>
<g id="a_node11"><a xlink:title=" ">
<polygon fill="#e0e0e0" stroke="#999999" points="211.45,-19 161.45,-19 161.45,0 211.45,0 211.45,-19"/>
<text text-anchor="middle" x="186.45" y="-7" font-family="Helvetica,sans-Serif" font-size="10.00">cstdint</text>
</a>
</g>
</g>
<!-- Node8&#45;&gt;Node11 -->
<g id="edge13" class="edge">
<title>Node8&#45;&gt;Node11</title>
<path fill="none" stroke="#63b8ff" d="M489.15,-116.72C396.5,-112.2 174.56,-98.88 152.45,-74 139.69,-59.65 154.47,-39.66 168.34,-25.97"/>
<polygon fill="#63b8ff" stroke="#63b8ff" points="170.82,-28.45 175.78,-19.09 166.06,-23.31 170.82,-28.45"/>
</g>
<!-- Node8&#45;&gt;Node12 -->
<g id="edge16" class="edge">
<title>Node8&#45;&gt;Node12</title>
<path fill="none" stroke="#63b8ff" d="M489.24,-115.91C456.48,-111.78 410.96,-101.16 381.45,-74 368.79,-62.35 362.45,-43.49 359.33,-29.35"/>
<polygon fill="#63b8ff" stroke="#63b8ff" points="362.72,-28.44 357.46,-19.24 355.84,-29.71 362.72,-28.44"/>
</g>
<!-- Node13 -->
<g id="node13" class="node">
<title>Node13</title>
<g id="a_node13"><a xlink:title=" ">
<polygon fill="#e0e0e0" stroke="#999999" points="553.45,-19 511.45,-19 511.45,0 553.45,0 553.45,-19"/>
<text text-anchor="middle" x="532.45" y="-7" font-family="Helvetica,sans-Serif" font-size="10.00">array</text>
</a>
</g>
</g>
<!-- Node8&#45;&gt;Node13 -->
<g id="edge12" class="edge">
<title>Node8&#45;&gt;Node13</title>
<path fill="none" stroke="#63b8ff" d="M529.69,-109.66C530.18,-92.17 531.27,-52.8 531.92,-29.27"/>
<polygon fill="#63b8ff" stroke="#63b8ff" points="535.43,-29.25 532.21,-19.16 528.43,-29.06 535.43,-29.25"/>
</g>
<!-- Node14 -->
<g id="node14" class="node">
<title>Node14</title>
<g id="a_node14"><a xlink:title=" ">
<polygon fill="#e0e0e0" stroke="#999999" points="743.95,-74 594.95,-74 594.95,-55 743.95,-55 743.95,-74"/>
<text text-anchor="middle" x="669.45" y="-62" font-family="Helvetica,sans-Serif" font-size="10.00">small_vector/SmallVector.h</text>
</a>
</g>
</g>
<!-- Node8&#45;&gt;Node14 -->
<g id="edge14" class="edge">
<title>Node8&#45;&gt;Node14</title>
<path fill="none" stroke="#63b8ff" d="M551.94,-109.98C574.97,-101.27 610.99,-87.63 637.08,-77.75"/>
<polygon fill="#63b8ff" stroke="#63b8ff" points="638.43,-80.98 646.54,-74.17 635.95,-74.44 638.43,-80.98"/>
</g>
<!-- Node15 -->
<g id="node15" class="node">
<title>Node15</title>
<g id="a_node15"><a xlink:title=" ">
<polygon fill="#e0e0e0" stroke="#999999" points="647.95,-19 574.95,-19 574.95,0 647.95,0 647.95,-19"/>
<text text-anchor="middle" x="611.45" y="-7" font-family="Helvetica,sans-Serif" font-size="10.00">string_view</text>
</a>
</g>
</g>
<!-- Node8&#45;&gt;Node15 -->
<g id="edge15" class="edge">
<title>Node8&#45;&gt;Node15</title>
<path fill="none" stroke="#63b8ff" d="M536.16,-109.66C549.8,-91.69 580.97,-50.64 598.63,-27.38"/>
<polygon fill="#63b8ff" stroke="#63b8ff" points="601.61,-29.24 604.87,-19.16 596.04,-25.01 601.61,-29.24"/>
</g>
<!-- Node10 -->
<g id="node10" class="node">
<title>Node10</title>
<g id="a_node10"><a xlink:title=" ">
<polygon fill="#e0e0e0" stroke="#999999" points="282.95,-19 229.95,-19 229.95,0 282.95,0 282.95,-19"/>
<text text-anchor="middle" x="256.45" y="-7" font-family="Helvetica,sans-Serif" font-size="10.00">cstddef</text>
</a>
</g>
</g>
<!-- Node9&#45;&gt;Node10 -->
<g id="edge9" class="edge">
<title>Node9&#45;&gt;Node10</title>
<path fill="none" stroke="#63b8ff" d="M217.21,-54.75C223.91,-47.18 233.79,-36.05 241.95,-26.84"/>
<polygon fill="#63b8ff" stroke="#63b8ff" points="244.81,-28.89 248.83,-19.09 239.58,-24.25 244.81,-28.89"/>
</g>
<!-- Node9&#45;&gt;Node11 -->
<g id="edge10" class="edge">
<title>Node9&#45;&gt;Node11</title>
<path fill="none" stroke="#63b8ff" d="M205.65,-54.75C202.53,-47.57 198.02,-37.18 194.16,-28.27"/>
<polygon fill="#63b8ff" stroke="#63b8ff" points="197.36,-26.87 190.17,-19.09 190.94,-29.66 197.36,-26.87"/>
</g>
<!-- Node9&#45;&gt;Node12 -->
<g id="edge11" class="edge">
<title>Node9&#45;&gt;Node12</title>
<path fill="none" stroke="#63b8ff" d="M233.06,-54.98C257.5,-46.18 295.85,-32.35 323.31,-22.45"/>
<polygon fill="#63b8ff" stroke="#63b8ff" points="324.67,-25.68 332.89,-18.99 322.29,-19.09 324.67,-25.68"/>
</g>
<!-- Node16&#45;&gt;Node12 -->
<g id="edge24" class="edge">
<title>Node16&#45;&gt;Node12</title>
<path fill="none" stroke="#63b8ff" d="M762.39,-56.21C759.37,-55.78 756.36,-55.37 753.45,-55 595.5,-34.78 551.32,-46.84 390.41,-18.88"/>
<polygon fill="#63b8ff" stroke="#63b8ff" points="390.6,-15.36 380.14,-17.07 389.38,-22.25 390.6,-15.36"/>
</g>
<!-- Node16&#45;&gt;Node13 -->
<g id="edge19" class="edge">
<title>Node16&#45;&gt;Node13</title>
<path fill="none" stroke="#63b8ff" d="M762.42,-56.05C713.88,-47.82 634.43,-33.76 566.45,-19 565.54,-18.8 564.61,-18.6 563.68,-18.39"/>
<polygon fill="#63b8ff" stroke="#63b8ff" points="564.16,-14.9 553.62,-16.01 562.55,-21.72 564.16,-14.9"/>
</g>
<!-- Node16&#45;&gt;Node15 -->
<g id="edge22" class="edge">
<title>Node16&#45;&gt;Node15</title>
<path fill="none" stroke="#63b8ff" d="M775.96,-54.98C742.62,-45.97 689.85,-31.7 653.1,-21.76"/>
<polygon fill="#63b8ff" stroke="#63b8ff" points="653.75,-18.31 643.18,-19.08 651.92,-25.07 653.75,-18.31"/>
</g>
<!-- Node17 -->
<g id="node17" class="node">
<title>Node17</title>
<g id="a_node17"><a xlink:title=" ">
<polygon fill="#e0e0e0" stroke="#999999" points="735.45,-19 671.45,-19 671.45,0 735.45,0 735.45,-19"/>
<text text-anchor="middle" x="703.45" y="-7" font-family="Helvetica,sans-Serif" font-size="10.00">algorithm</text>
</a>
</g>
</g>
<!-- Node16&#45;&gt;Node17 -->
<g id="edge18" class="edge">
<title>Node16&#45;&gt;Node17</title>
<path fill="none" stroke="#63b8ff" d="M790.74,-54.98C774.23,-46.57 748.75,-33.59 729.57,-23.81"/>
<polygon fill="#63b8ff" stroke="#63b8ff" points="730.96,-20.59 720.46,-19.17 727.78,-26.83 730.96,-20.59"/>
</g>
<!-- Node18 -->
<g id="node18" class="node">
<title>Node18</title>
<g id="a_node18"><a xlink:title=" ">
<polygon fill="#e0e0e0" stroke="#999999" points="802.95,-19 753.95,-19 753.95,0 802.95,0 802.95,-19"/>
<text text-anchor="middle" x="778.45" y="-7" font-family="Helvetica,sans-Serif" font-size="10.00">cctype</text>
</a>
</g>
</g>
<!-- Node16&#45;&gt;Node18 -->
<g id="edge20" class="edge">
<title>Node16&#45;&gt;Node18</title>
<path fill="none" stroke="#63b8ff" d="M802.66,-54.75C798.69,-47.49 792.92,-36.95 788.01,-27.98"/>
<polygon fill="#63b8ff" stroke="#63b8ff" points="791.02,-26.18 783.15,-19.09 784.88,-29.54 791.02,-26.18"/>
</g>
<!-- Node16&#45;&gt;Node19 -->
<g id="edge21" class="edge">
<title>Node16&#45;&gt;Node19</title>
<path fill="none" stroke="#63b8ff" d="M813.39,-54.75C818.42,-47.34 825.78,-36.5 831.96,-27.41"/>
<polygon fill="#63b8ff" stroke="#63b8ff" points="834.89,-29.33 837.61,-19.09 829.1,-25.39 834.89,-29.33"/>
</g>
<!-- Node20 -->
<g id="node20" class="node">
<title>Node20</title>
<g id="a_node20"><a xlink:title=" ">
<polygon fill="#e0e0e0" stroke="#999999" points="952.95,-19 883.95,-19 883.95,0 952.95,0 952.95,-19"/>
<text text-anchor="middle" x="918.45" y="-7" font-family="Helvetica,sans-Serif" font-size="10.00">type_traits</text>
</a>
</g>
</g>
<!-- Node16&#45;&gt;Node20 -->
<g id="edge23" class="edge">
<title>Node16&#45;&gt;Node20</title>
<path fill="none" stroke="#63b8ff" d="M825.28,-54.98C843.06,-46.5 870.59,-33.35 891.13,-23.54"/>
<polygon fill="#63b8ff" stroke="#63b8ff" points="892.77,-26.64 900.29,-19.17 889.76,-20.32 892.77,-26.64"/>
</g>
<!-- Node21&#45;&gt;Node12 -->
<g id="edge36" class="edge">
<title>Node21&#45;&gt;Node12</title>
<path fill="none" stroke="#63b8ff" d="M753.28,-111.34C712.88,-102.97 644.65,-88.44 586.45,-74 516.13,-56.56 434.56,-33.32 389.91,-20.33"/>
<polygon fill="#63b8ff" stroke="#63b8ff" points="390.76,-16.93 380.18,-17.5 388.8,-23.66 390.76,-16.93"/>
</g>
<!-- Node21&#45;&gt;Node16 -->
<g id="edge26" class="edge">
<title>Node21&#45;&gt;Node16</title>
<path fill="none" stroke="#63b8ff" d="M791.58,-109.75C794.13,-102.65 797.8,-92.4 800.97,-83.56"/>
<polygon fill="#63b8ff" stroke="#63b8ff" points="804.29,-84.68 804.37,-74.09 797.7,-82.32 804.29,-84.68"/>
</g>
<!-- Node21&#45;&gt;Node20 -->
<g id="edge35" class="edge">
<title>Node21&#45;&gt;Node20</title>
<path fill="none" stroke="#63b8ff" d="M805.61,-109.89C821.02,-101.75 843.87,-88.61 861.45,-74 878.46,-59.86 895.01,-40.62 905.86,-27.03"/>
<polygon fill="#63b8ff" stroke="#63b8ff" points="908.71,-29.07 912.11,-19.03 903.19,-24.76 908.71,-29.07"/>
</g>
<!-- Node22 -->
<g id="node22" class="node">
<title>Node22</title>
<g id="a_node22"><a xlink:href="serialized_8h.html" target="_top" xlink:title=" ">
<polygon fill="white" stroke="#666666" points="462.95,-74 389.95,-74 389.95,-55 462.95,-55 462.95,-74"/>
<text text-anchor="middle" x="426.45" y="-62" font-family="Helvetica,sans-Serif" font-size="10.00">serialized.h</text>
</a>
</g>
</g>
<!-- Node21&#45;&gt;Node22 -->
<g id="edge27" class="edge">
<title>Node21&#45;&gt;Node22</title>
<path fill="none" stroke="#63b8ff" d="M753.43,-113.76C695.81,-105.89 577.43,-89.48 477.45,-74 476.15,-73.8 474.83,-73.59 473.51,-73.38"/>
<polygon fill="#63b8ff" stroke="#63b8ff" points="473.63,-69.86 463.2,-71.73 472.52,-76.77 473.63,-69.86"/>
</g>
<!-- Node21&#45;&gt;Node24 -->
<g id="edge33" class="edge">
<title>Node21&#45;&gt;Node24</title>
<path fill="none" stroke="#63b8ff" d="M823.72,-111.89C876.75,-101.96 976.7,-83.24 1032.06,-72.88"/>
<polygon fill="#63b8ff" stroke="#63b8ff" points="1032.99,-76.26 1042.18,-70.98 1031.71,-69.38 1032.99,-76.26"/>
</g>
<!-- Node25 -->
<g id="node25" class="node">
<title>Node25</title>
<g id="a_node25"><a xlink:title=" ">
<polygon fill="#e0e0e0" stroke="#999999" points="987.95,-74 946.95,-74 946.95,-55 987.95,-55 987.95,-74"/>
<text text-anchor="middle" x="967.45" y="-62" font-family="Helvetica,sans-Serif" font-size="10.00">tuple</text>
</a>
</g>
</g>
<!-- Node21&#45;&gt;Node25 -->
<g id="edge34" class="edge">
<title>Node21&#45;&gt;Node25</title>
<path fill="none" stroke="#63b8ff" d="M817.21,-109.98C850.07,-100.25 903.64,-84.39 937.14,-74.47"/>
<polygon fill="#63b8ff" stroke="#63b8ff" points="938.25,-77.79 946.85,-71.6 936.27,-71.08 938.25,-77.79"/>
</g>
<!-- Node22&#45;&gt;Node5 -->
<g id="edge29" class="edge">
<title>Node22&#45;&gt;Node5</title>
<path fill="none" stroke="#63b8ff" d="M389.76,-57.63C325.64,-47.36 193.99,-26.28 130.81,-16.16"/>
<polygon fill="#63b8ff" stroke="#63b8ff" points="130.99,-12.65 120.56,-14.52 129.88,-19.56 130.99,-12.65"/>
</g>
<!-- Node22&#45;&gt;Node11 -->
<g id="edge28" class="edge">
<title>Node22&#45;&gt;Node11</title>
<path fill="none" stroke="#63b8ff" d="M389.9,-55.98C350.67,-47.82 286.28,-34.19 221.63,-19.22"/>
<polygon fill="#63b8ff" stroke="#63b8ff" points="222.21,-15.76 211.68,-16.9 220.62,-22.58 222.21,-15.76"/>
</g>
<!-- Node22&#45;&gt;Node12 -->
<g id="edge32" class="edge">
<title>Node22&#45;&gt;Node12</title>
<path fill="none" stroke="#63b8ff" d="M415.2,-54.98C404.65,-47 388.65,-34.88 376,-25.31"/>
<polygon fill="#63b8ff" stroke="#63b8ff" points="377.98,-22.42 367.9,-19.17 373.76,-28 377.98,-22.42"/>
</g>
<!-- Node22&#45;&gt;Node19 -->
<g id="edge31" class="edge">
<title>Node22&#45;&gt;Node19</title>
<path fill="none" stroke="#63b8ff" d="M463.19,-61.14C530.46,-56.42 678.02,-44.2 811.22,-18.96"/>
<polygon fill="#63b8ff" stroke="#63b8ff" points="812.03,-22.37 821.19,-17.04 810.71,-15.49 812.03,-22.37"/>
</g>
<!-- Node23 -->
<g id="node23" class="node">
<title>Node23</title>
<g id="a_node23"><a xlink:title=" ">
<polygon fill="#e0e0e0" stroke="#999999" points="462.95,-19 397.95,-19 397.95,0 462.95,0 462.95,-19"/>
<text text-anchor="middle" x="430.45" y="-7" font-family="Helvetica,sans-Serif" font-size="10.00">stdexcept</text>
</a>
</g>
</g>
<!-- Node22&#45;&gt;Node23 -->
<g id="edge30" class="edge">
<title>Node22&#45;&gt;Node23</title>
<path fill="none" stroke="#63b8ff" d="M427.11,-54.75C427.63,-47.8 428.38,-37.85 429.04,-29.13"/>
<polygon fill="#63b8ff" stroke="#63b8ff" points="432.54,-29.32 429.8,-19.09 425.55,-28.8 432.54,-29.32"/>
</g>
</g>
</svg>
