<?xml version="1.0" encoding="UTF-8" standalone="no"?>
<!DOCTYPE svg PUBLIC "-//W3C//DTD SVG 1.1//EN"
 "http://www.w3.org/Graphics/SVG/1.1/DTD/svg11.dtd">
<!-- Generated by graphviz version 2.43.0 (0)
 -->
<!-- Title: include/ccf/ds/openapi.h Pages: 1 -->
<svg width="959pt" height="247pt"
 viewBox="0.00 0.00 959.00 247.00" xmlns="http://www.w3.org/2000/svg" xmlns:xlink="http://www.w3.org/1999/xlink">
<g id="graph0" class="graph" transform="scale(1 1) rotate(0) translate(4 243)">
<title>include/ccf/ds/openapi.h</title>
<!-- Node1 -->
<g id="node1" class="node">
<title>Node1</title>
<g id="a_node1"><a xlink:title=" ">
<polygon fill="#999999" stroke="#666666" points="653,-239 519,-239 519,-220 653,-220 653,-239"/>
<text text-anchor="middle" x="586" y="-227" font-family="Helvetica,sans-Serif" font-size="10.00">include/ccf/ds/openapi.h</text>
</a>
</g>
</g>
<!-- Node2 -->
<g id="node2" class="node">
<title>Node2</title>
<g id="a_node2"><a xlink:href="json_8h.html" target="_top" xlink:title=" ">
<polygon fill="white" stroke="#666666" points="264.5,-184 187.5,-184 187.5,-165 264.5,-165 264.5,-184"/>
<text text-anchor="middle" x="226" y="-172" font-family="Helvetica,sans-Serif" font-size="10.00">ccf/ds/json.h</text>
</a>
</g>
</g>
<!-- Node1&#45;&gt;Node2 -->
<g id="edge1" class="edge">
<title>Node1&#45;&gt;Node2</title>
<path fill="none" stroke="#63b8ff" d="M528.16,-219.98C457.88,-209.64 340.57,-192.37 274.7,-182.67"/>
<polygon fill="#63b8ff" stroke="#63b8ff" points="274.98,-179.17 264.58,-181.18 273.96,-186.1 274.98,-179.17"/>
</g>
<!-- Node7 -->
<g id="node7" class="node">
<title>Node7</title>
<g id="a_node7"><a xlink:href="nonstd_8h.html" target="_top" xlink:title=" ">
<polygon fill="white" stroke="#666666" points="391,-74 301,-74 301,-55 391,-55 391,-74"/>
<text text-anchor="middle" x="346" y="-62" font-family="Helvetica,sans-Serif" font-size="10.00">ccf/ds/nonstd.h</text>
</a>
</g>
</g>
<!-- Node1&#45;&gt;Node7 -->
<g id="edge19" class="edge">
<title>Node1&#45;&gt;Node7</title>
<path fill="none" stroke="#63b8ff" d="M572.21,-219.97C558.01,-211.14 535.3,-196.85 516,-184 461.22,-147.52 397.92,-102.66 366.25,-80.03"/>
<polygon fill="#63b8ff" stroke="#63b8ff" points="368,-76.98 357.83,-74.01 363.93,-82.67 368,-76.98"/>
</g>
<!-- Node11 -->
<g id="node11" class="node">
<title>Node11</title>
<g id="a_node11"><a xlink:title=" ">
<polygon fill="#e0e0e0" stroke="#999999" points="575.5,-19 502.5,-19 502.5,0 575.5,0 575.5,-19"/>
<text text-anchor="middle" x="539" y="-7" font-family="Helvetica,sans-Serif" font-size="10.00">string_view</text>
</a>
</g>
</g>
<!-- Node1&#45;&gt;Node11 -->
<g id="edge25" class="edge">
<title>Node1&#45;&gt;Node11</title>
<path fill="none" stroke="#63b8ff" d="M581.3,-219.9C576.7,-211.13 569.85,-196.99 566,-184 549.78,-129.34 542.85,-61.94 540.29,-29.59"/>
<polygon fill="#63b8ff" stroke="#63b8ff" points="543.76,-29.06 539.54,-19.35 536.78,-29.58 543.76,-29.06"/>
</g>
<!-- Node15 -->
<g id="node15" class="node">
<title>Node15</title>
<g id="a_node15"><a xlink:title=" ">
<polygon fill="#e0e0e0" stroke="#999999" points="519,-74 409,-74 409,-55 519,-55 519,-74"/>
<text text-anchor="middle" x="464" y="-62" font-family="Helvetica,sans-Serif" font-size="10.00">nlohmann/json.hpp</text>
</a>
</g>
</g>
<!-- Node1&#45;&gt;Node15 -->
<g id="edge23" class="edge">
<title>Node1&#45;&gt;Node15</title>
<path fill="none" stroke="#63b8ff" d="M573.58,-220C562.11,-211.73 545.07,-198.34 533,-184 505.9,-151.81 483.33,-107.58 471.95,-83.28"/>
<polygon fill="#63b8ff" stroke="#63b8ff" points="475.13,-81.82 467.78,-74.18 468.77,-84.73 475.13,-81.82"/>
</g>
<!-- Node17 -->
<g id="node17" class="node">
<title>Node17</title>
<g id="a_node17"><a xlink:href="http__consts_8h.html" target="_top" xlink:title=" ">
<polygon fill="white" stroke="#666666" points="674.5,-184 575.5,-184 575.5,-165 674.5,-165 674.5,-184"/>
<text text-anchor="middle" x="625" y="-172" font-family="Helvetica,sans-Serif" font-size="10.00">ccf/http_consts.h</text>
</a>
</g>
</g>
<!-- Node1&#45;&gt;Node17 -->
<g id="edge20" class="edge">
<title>Node1&#45;&gt;Node17</title>
<path fill="none" stroke="#63b8ff" d="M592.44,-219.75C597.89,-212.34 605.86,-201.5 612.56,-192.41"/>
<polygon fill="#63b8ff" stroke="#63b8ff" points="615.57,-194.22 618.68,-184.09 609.93,-190.07 615.57,-194.22"/>
</g>
<!-- Node18 -->
<g id="node18" class="node">
<title>Node18</title>
<g id="a_node18"><a xlink:href="http__status_8h.html" target="_top" xlink:title=" ">
<polygon fill="white" stroke="#666666" points="791,-184 693,-184 693,-165 791,-165 791,-184"/>
<text text-anchor="middle" x="742" y="-172" font-family="Helvetica,sans-Serif" font-size="10.00">ccf/http_status.h</text>
</a>
</g>
</g>
<!-- Node1&#45;&gt;Node18 -->
<g id="edge21" class="edge">
<title>Node1&#45;&gt;Node18</title>
<path fill="none" stroke="#63b8ff" d="M611.06,-219.98C637.03,-211.16 677.81,-197.31 706.96,-187.41"/>
<polygon fill="#63b8ff" stroke="#63b8ff" points="708.4,-190.61 716.74,-184.08 706.15,-183.99 708.4,-190.61"/>
</g>
<!-- Node19 -->
<g id="node19" class="node">
<title>Node19</title>
<g id="a_node19"><a xlink:title=" ">
<polygon fill="#e0e0e0" stroke="#999999" points="889,-184 809,-184 809,-165 889,-165 889,-184"/>
<text text-anchor="middle" x="849" y="-172" font-family="Helvetica,sans-Serif" font-size="10.00">llhttp/llhttp.h</text>
</a>
</g>
</g>
<!-- Node1&#45;&gt;Node19 -->
<g id="edge22" class="edge">
<title>Node1&#45;&gt;Node19</title>
<path fill="none" stroke="#63b8ff" d="M628.26,-219.98C674.71,-210.62 749.31,-195.59 798.74,-185.63"/>
<polygon fill="#63b8ff" stroke="#63b8ff" points="799.47,-189.05 808.58,-183.65 798.08,-182.19 799.47,-189.05"/>
</g>
<!-- Node20 -->
<g id="node20" class="node">
<title>Node20</title>
<g id="a_node20"><a xlink:title=" ">
<polygon fill="#e0e0e0" stroke="#999999" points="951,-184 907,-184 907,-165 951,-165 951,-184"/>
<text text-anchor="middle" x="929" y="-172" font-family="Helvetica,sans-Serif" font-size="10.00">regex</text>
</a>
</g>
</g>
<!-- Node1&#45;&gt;Node20 -->
<g id="edge24" class="edge">
<title>Node1&#45;&gt;Node20</title>
<path fill="none" stroke="#63b8ff" d="M653.07,-221.41C714.24,-214.38 807.27,-202.29 896.69,-184.04"/>
<polygon fill="#63b8ff" stroke="#63b8ff" points="897.65,-187.42 906.73,-181.97 896.23,-180.57 897.65,-187.42"/>
</g>
<!-- Node3 -->
<g id="node3" class="node">
<title>Node3</title>
<g id="a_node3"><a xlink:href="include_2ccf_2crypto_2base64_8h.html" target="_top" xlink:title=" ">
<polygon fill="white" stroke="#666666" points="112,-74 0,-74 0,-55 112,-55 112,-74"/>
<text text-anchor="middle" x="56" y="-62" font-family="Helvetica,sans-Serif" font-size="10.00">ccf/crypto/base64.h</text>
</a>
</g>
</g>
<!-- Node2&#45;&gt;Node3 -->
<g id="edge2" class="edge">
<title>Node2&#45;&gt;Node3</title>
<path fill="none" stroke="#63b8ff" d="M212.38,-164.84C183.16,-146.28 114.22,-102.49 78.44,-79.75"/>
<polygon fill="#63b8ff" stroke="#63b8ff" points="80.01,-76.6 69.69,-74.2 76.25,-82.51 80.01,-76.6"/>
</g>
<!-- Node6 -->
<g id="node6" class="node">
<title>Node6</title>
<g id="a_node6"><a xlink:href="include_2ccf_2ds_2json__schema_8h.html" target="_top" xlink:title=" ">
<polygon fill="white" stroke="#666666" points="393.5,-129 272.5,-129 272.5,-110 393.5,-110 393.5,-129"/>
<text text-anchor="middle" x="333" y="-117" font-family="Helvetica,sans-Serif" font-size="10.00">ccf/ds/json_schema.h</text>
</a>
</g>
</g>
<!-- Node2&#45;&gt;Node6 -->
<g id="edge5" class="edge">
<title>Node2&#45;&gt;Node6</title>
<path fill="none" stroke="#63b8ff" d="M243.19,-164.98C260.25,-156.54 286.63,-143.47 306.4,-133.68"/>
<polygon fill="#63b8ff" stroke="#63b8ff" points="308.09,-136.75 315.5,-129.17 304.98,-130.47 308.09,-136.75"/>
</g>
<!-- Node14 -->
<g id="node14" class="node">
<title>Node14</title>
<g id="a_node14"><a xlink:title=" ">
<polygon fill="#e0e0e0" stroke="#999999" points="209.5,-74 130.5,-74 130.5,-55 209.5,-55 209.5,-74"/>
<text text-anchor="middle" x="170" y="-62" font-family="Helvetica,sans-Serif" font-size="10.00">fmt/format.h</text>
</a>
</g>
</g>
<!-- Node2&#45;&gt;Node14 -->
<g id="edge17" class="edge">
<title>Node2&#45;&gt;Node14</title>
<path fill="none" stroke="#63b8ff" d="M216.86,-164.76C208.53,-156.32 196.41,-142.81 189,-129 181.43,-114.88 176.47,-97.34 173.53,-84.27"/>
<polygon fill="#63b8ff" stroke="#63b8ff" points="176.89,-83.23 171.44,-74.14 170.03,-84.64 176.89,-83.23"/>
</g>
<!-- Node16 -->
<g id="node16" class="node">
<title>Node16</title>
<g id="a_node16"><a xlink:title=" ">
<polygon fill="#e0e0e0" stroke="#999999" points="254,-129 198,-129 198,-110 254,-110 254,-129"/>
<text text-anchor="middle" x="226" y="-117" font-family="Helvetica,sans-Serif" font-size="10.00">sstream</text>
</a>
</g>
</g>
<!-- Node2&#45;&gt;Node16 -->
<g id="edge18" class="edge">
<title>Node2&#45;&gt;Node16</title>
<path fill="none" stroke="#63b8ff" d="M226,-164.75C226,-157.8 226,-147.85 226,-139.13"/>
<polygon fill="#63b8ff" stroke="#63b8ff" points="229.5,-139.09 226,-129.09 222.5,-139.09 229.5,-139.09"/>
</g>
<!-- Node4 -->
<g id="node4" class="node">
<title>Node4</title>
<g id="a_node4"><a xlink:title=" ">
<polygon fill="#e0e0e0" stroke="#999999" points="167,-19 123,-19 123,0 167,0 167,-19"/>
<text text-anchor="middle" x="145" y="-7" font-family="Helvetica,sans-Serif" font-size="10.00">string</text>
</a>
</g>
</g>
<!-- Node3&#45;&gt;Node4 -->
<g id="edge3" class="edge">
<title>Node3&#45;&gt;Node4</title>
<path fill="none" stroke="#63b8ff" d="M70.3,-54.98C84.1,-46.77 105.24,-34.18 121.51,-24.49"/>
<polygon fill="#63b8ff" stroke="#63b8ff" points="123.64,-27.29 130.44,-19.17 120.06,-21.28 123.64,-27.29"/>
</g>
<!-- Node5 -->
<g id="node5" class="node">
<title>Node5</title>
<g id="a_node5"><a xlink:title=" ">
<polygon fill="#e0e0e0" stroke="#999999" points="92.5,-19 45.5,-19 45.5,0 92.5,0 92.5,-19"/>
<text text-anchor="middle" x="69" y="-7" font-family="Helvetica,sans-Serif" font-size="10.00">vector</text>
</a>
</g>
</g>
<!-- Node3&#45;&gt;Node5 -->
<g id="edge4" class="edge">
<title>Node3&#45;&gt;Node5</title>
<path fill="none" stroke="#63b8ff" d="M58.15,-54.75C59.87,-47.72 62.35,-37.62 64.5,-28.84"/>
<polygon fill="#63b8ff" stroke="#63b8ff" points="67.91,-29.63 66.89,-19.09 61.11,-27.97 67.91,-29.63"/>
</g>
<!-- Node6&#45;&gt;Node7 -->
<g id="edge6" class="edge">
<title>Node6&#45;&gt;Node7</title>
<path fill="none" stroke="#63b8ff" d="M335.15,-109.75C336.87,-102.72 339.35,-92.62 341.5,-83.84"/>
<polygon fill="#63b8ff" stroke="#63b8ff" points="344.91,-84.63 343.89,-74.09 338.11,-82.97 344.91,-84.63"/>
</g>
<!-- Node13 -->
<g id="node13" class="node">
<title>Node13</title>
<g id="a_node13"><a xlink:title=" ">
<polygon fill="#e0e0e0" stroke="#999999" points="283,-74 227,-74 227,-55 283,-55 283,-74"/>
<text text-anchor="middle" x="255" y="-62" font-family="Helvetica,sans-Serif" font-size="10.00">optional</text>
</a>
</g>
</g>
<!-- Node6&#45;&gt;Node13 -->
<g id="edge14" class="edge">
<title>Node6&#45;&gt;Node13</title>
<path fill="none" stroke="#63b8ff" d="M320.47,-109.98C308.6,-101.92 290.54,-89.65 276.39,-80.03"/>
<polygon fill="#63b8ff" stroke="#63b8ff" points="278,-76.9 267.76,-74.17 274.06,-82.69 278,-76.9"/>
</g>
<!-- Node6&#45;&gt;Node14 -->
<g id="edge15" class="edge">
<title>Node6&#45;&gt;Node14</title>
<path fill="none" stroke="#63b8ff" d="M306.81,-109.98C279.56,-101.13 236.7,-87.19 206.22,-77.28"/>
<polygon fill="#63b8ff" stroke="#63b8ff" points="206.99,-73.85 196.39,-74.08 204.82,-80.5 206.99,-73.85"/>
</g>
<!-- Node6&#45;&gt;Node15 -->
<g id="edge16" class="edge">
<title>Node6&#45;&gt;Node15</title>
<path fill="none" stroke="#63b8ff" d="M354.05,-109.98C375.41,-101.34 408.7,-87.87 433.06,-78.02"/>
<polygon fill="#63b8ff" stroke="#63b8ff" points="434.61,-81.17 442.57,-74.17 431.99,-74.68 434.61,-81.17"/>
</g>
<!-- Node7&#45;&gt;Node4 -->
<g id="edge10" class="edge">
<title>Node7&#45;&gt;Node4</title>
<path fill="none" stroke="#63b8ff" d="M313.71,-54.98C276.17,-45.09 214.61,-28.86 177.15,-18.98"/>
<polygon fill="#63b8ff" stroke="#63b8ff" points="177.82,-15.53 167.26,-16.37 176.03,-22.3 177.82,-15.53"/>
</g>
<!-- Node7&#45;&gt;Node5 -->
<g id="edge13" class="edge">
<title>Node7&#45;&gt;Node5</title>
<path fill="none" stroke="#63b8ff" d="M301.5,-54.98C245.95,-44.36 152.23,-26.43 102.44,-16.9"/>
<polygon fill="#63b8ff" stroke="#63b8ff" points="102.99,-13.44 92.51,-15 101.67,-20.31 102.99,-13.44"/>
</g>
<!-- Node8 -->
<g id="node8" class="node">
<title>Node8</title>
<g id="a_node8"><a xlink:title=" ">
<polygon fill="#e0e0e0" stroke="#999999" points="470,-19 406,-19 406,0 470,0 470,-19"/>
<text text-anchor="middle" x="438" y="-7" font-family="Helvetica,sans-Serif" font-size="10.00">algorithm</text>
</a>
</g>
</g>
<!-- Node7&#45;&gt;Node8 -->
<g id="edge7" class="edge">
<title>Node7&#45;&gt;Node8</title>
<path fill="none" stroke="#63b8ff" d="M360.78,-54.98C375.18,-46.69 397.31,-33.94 414.19,-24.22"/>
<polygon fill="#63b8ff" stroke="#63b8ff" points="416.03,-27.19 422.95,-19.17 412.54,-21.13 416.03,-27.19"/>
</g>
<!-- Node9 -->
<g id="node9" class="node">
<title>Node9</title>
<g id="a_node9"><a xlink:title=" ">
<polygon fill="#e0e0e0" stroke="#999999" points="233,-19 191,-19 191,0 233,0 233,-19"/>
<text text-anchor="middle" x="212" y="-7" font-family="Helvetica,sans-Serif" font-size="10.00">array</text>
</a>
</g>
</g>
<!-- Node7&#45;&gt;Node9 -->
<g id="edge8" class="edge">
<title>Node7&#45;&gt;Node9</title>
<path fill="none" stroke="#63b8ff" d="M324.47,-54.98C302.26,-46.2 267.44,-32.43 242.43,-22.53"/>
<polygon fill="#63b8ff" stroke="#63b8ff" points="243.62,-19.24 233.03,-18.82 241.05,-25.75 243.62,-19.24"/>
</g>
<!-- Node10 -->
<g id="node10" class="node">
<title>Node10</title>
<g id="a_node10"><a xlink:title=" ">
<polygon fill="#e0e0e0" stroke="#999999" points="300.5,-19 251.5,-19 251.5,0 300.5,0 300.5,-19"/>
<text text-anchor="middle" x="276" y="-7" font-family="Helvetica,sans-Serif" font-size="10.00">cctype</text>
</a>
</g>
</g>
<!-- Node7&#45;&gt;Node10 -->
<g id="edge9" class="edge">
<title>Node7&#45;&gt;Node10</title>
<path fill="none" stroke="#63b8ff" d="M334.75,-54.98C324.2,-47 308.2,-34.88 295.56,-25.31"/>
<polygon fill="#63b8ff" stroke="#63b8ff" points="297.54,-22.42 287.45,-19.17 293.31,-28 297.54,-22.42"/>
</g>
<!-- Node7&#45;&gt;Node11 -->
<g id="edge11" class="edge">
<title>Node7&#45;&gt;Node11</title>
<path fill="none" stroke="#63b8ff" d="M377.01,-54.98C409.83,-45.97 461.8,-31.7 497.99,-21.76"/>
<polygon fill="#63b8ff" stroke="#63b8ff" points="499.03,-25.11 507.75,-19.08 497.18,-18.36 499.03,-25.11"/>
</g>
<!-- Node12 -->
<g id="node12" class="node">
<title>Node12</title>
<g id="a_node12"><a xlink:title=" ">
<polygon fill="#e0e0e0" stroke="#999999" points="387.5,-19 318.5,-19 318.5,0 387.5,0 387.5,-19"/>
<text text-anchor="middle" x="353" y="-7" font-family="Helvetica,sans-Serif" font-size="10.00">type_traits</text>
</a>
</g>
</g>
<!-- Node7&#45;&gt;Node12 -->
<g id="edge12" class="edge">
<title>Node7&#45;&gt;Node12</title>
<path fill="none" stroke="#63b8ff" d="M347.16,-54.75C348.07,-47.8 349.39,-37.85 350.54,-29.13"/>
<polygon fill="#63b8ff" stroke="#63b8ff" points="354.03,-29.46 351.87,-19.09 347.09,-28.54 354.03,-29.46"/>
</g>
</g>
</svg>
