<?xml version="1.0" encoding="UTF-8" standalone="no"?>
<!DOCTYPE svg PUBLIC "-//W3C//DTD SVG 1.1//EN"
 "http://www.w3.org/Graphics/SVG/1.1/DTD/svg11.dtd">
<!-- Generated by graphviz version 2.43.0 (0)
 -->
<!-- Title: src/ds/oversized.h Pages: 1 -->
<svg width="2437pt" height="654pt"
 viewBox="0.00 0.00 2437.32 654.00" xmlns="http://www.w3.org/2000/svg" xmlns:xlink="http://www.w3.org/1999/xlink">
<g id="graph0" class="graph" transform="scale(1 1) rotate(0) translate(4 650)">
<title>src/ds/oversized.h</title>
<!-- Node1 -->
<g id="node1" class="node">
<title>Node1</title>
<g id="a_node1"><a xlink:title=" ">
<polygon fill="#999999" stroke="#666666" points="1951.21,-646 1847.21,-646 1847.21,-627 1951.21,-627 1951.21,-646"/>
<text text-anchor="middle" x="1899.21" y="-634" font-family="Helvetica,sans-Serif" font-size="10.00">src/ds/oversized.h</text>
</a>
</g>
</g>
<!-- Node2 -->
<g id="node2" class="node">
<title>Node2</title>
<g id="a_node2"><a xlink:href="common_2configuration_8h.html" target="_top" xlink:title=" ">
<polygon fill="white" stroke="#666666" points="1673.21,-591 1521.21,-591 1521.21,-572 1673.21,-572 1673.21,-591"/>
<text text-anchor="middle" x="1597.21" y="-579" font-family="Helvetica,sans-Serif" font-size="10.00">src/common/configuration.h</text>
</a>
</g>
</g>
<!-- Node1&#45;&gt;Node2 -->
<g id="edge1" class="edge">
<title>Node1&#45;&gt;Node2</title>
<path fill="none" stroke="#63b8ff" d="M1840.8,-625.25C1784.09,-615.3 1699,-600.36 1645.86,-591.04"/>
<polygon fill="#63b8ff" stroke="#63b8ff" points="1840.24,-628.7 1850.69,-626.98 1841.45,-621.81 1840.24,-628.7"/>
</g>
<!-- Node4 -->
<g id="node4" class="node">
<title>Node4</title>
<g id="a_node4"><a xlink:href="host_2main_8cpp.html" target="_top" xlink:title=" ">
<polygon fill="white" stroke="#666666" points="2075.71,-398.5 1972.71,-398.5 1972.71,-379.5 2075.71,-379.5 2075.71,-398.5"/>
<text text-anchor="middle" x="2024.21" y="-386.5" font-family="Helvetica,sans-Serif" font-size="10.00">src/host/main.cpp</text>
</a>
</g>
</g>
<!-- Node1&#45;&gt;Node4 -->
<g id="edge83" class="edge">
<title>Node1&#45;&gt;Node4</title>
<path fill="none" stroke="#63b8ff" d="M1893.31,-616.91C1886.1,-590.61 1876.96,-541.76 1895.21,-506 1921.37,-454.76 1980.3,-415.41 2008.54,-398.73"/>
<polygon fill="#63b8ff" stroke="#63b8ff" points="1890.02,-618.1 1896.2,-626.7 1896.73,-616.12 1890.02,-618.1"/>
</g>
<!-- Node7 -->
<g id="node7" class="node">
<title>Node7</title>
<g id="a_node7"><a xlink:href="src_2enclave_2enclave_8h.html" target="_top" xlink:title=" ">
<polygon fill="white" stroke="#666666" points="1356.21,-74 1234.21,-74 1234.21,-55 1356.21,-55 1356.21,-74"/>
<text text-anchor="middle" x="1295.21" y="-62" font-family="Helvetica,sans-Serif" font-size="10.00">src/enclave/enclave.h</text>
</a>
</g>
</g>
<!-- Node1&#45;&gt;Node7 -->
<g id="edge68" class="edge">
<title>Node1&#45;&gt;Node7</title>
<path fill="none" stroke="#63b8ff" d="M1961.44,-633.68C2090.88,-628.19 2377.21,-606.5 2377.21,-522 2377.21,-522 2377.21,-522 2377.21,-190 2377.21,-162 2575.47,-196.05 2195.21,-110 2035,-73.74 1532.01,-67.03 1356.43,-65.78"/>
<polygon fill="#63b8ff" stroke="#63b8ff" points="1961.13,-630.19 1951.28,-634.09 1961.41,-637.18 1961.13,-630.19"/>
</g>
<!-- Node37 -->
<g id="node37" class="node">
<title>Node37</title>
<g id="a_node37"><a xlink:href="interface_8h.html" target="_top" xlink:title=" ">
<polygon fill="white" stroke="#666666" points="2025.21,-591 1897.21,-591 1897.21,-572 2025.21,-572 2025.21,-591"/>
<text text-anchor="middle" x="1961.21" y="-579" font-family="Helvetica,sans-Serif" font-size="10.00">src/enclave/interface.h</text>
</a>
</g>
</g>
<!-- Node1&#45;&gt;Node37 -->
<g id="edge69" class="edge">
<title>Node1&#45;&gt;Node37</title>
<path fill="none" stroke="#63b8ff" d="M1916.97,-620.32C1928.02,-610.87 1941.84,-599.06 1951.07,-591.17"/>
<polygon fill="#63b8ff" stroke="#63b8ff" points="1914.5,-617.83 1909.17,-626.98 1919.05,-623.15 1914.5,-617.83"/>
</g>
<!-- Node3 -->
<g id="node3" class="node">
<title>Node3</title>
<g id="a_node3"><a xlink:href="host_2configuration_8h.html" target="_top" xlink:title=" ">
<polygon fill="white" stroke="#666666" points="1808.71,-530.5 1677.71,-530.5 1677.71,-511.5 1808.71,-511.5 1808.71,-530.5"/>
<text text-anchor="middle" x="1743.21" y="-518.5" font-family="Helvetica,sans-Serif" font-size="10.00">src/host/configuration.h</text>
</a>
</g>
</g>
<!-- Node2&#45;&gt;Node3 -->
<g id="edge2" class="edge">
<title>Node2&#45;&gt;Node3</title>
<path fill="none" stroke="#63b8ff" d="M1627.83,-568.23C1656.05,-556.92 1697.18,-540.44 1721.96,-530.52"/>
<polygon fill="#63b8ff" stroke="#63b8ff" points="1626.42,-565.03 1618.44,-571.99 1629.03,-571.52 1626.42,-565.03"/>
</g>
<!-- Node5 -->
<g id="node5" class="node">
<title>Node5</title>
<g id="a_node5"><a xlink:href="frontend_8h.html" target="_top" xlink:title=" ">
<polygon fill="white" stroke="#666666" points="1461.71,-398.5 1332.71,-398.5 1332.71,-379.5 1461.71,-379.5 1461.71,-398.5"/>
<text text-anchor="middle" x="1397.21" y="-386.5" font-family="Helvetica,sans-Serif" font-size="10.00">src/node/rpc/frontend.h</text>
</a>
</g>
</g>
<!-- Node2&#45;&gt;Node5 -->
<g id="edge4" class="edge">
<title>Node2&#45;&gt;Node5</title>
<path fill="none" stroke="#63b8ff" d="M1571.41,-567.04C1557.1,-558.98 1539.38,-547.99 1525.21,-536 1471.69,-490.71 1420.64,-422.63 1403.38,-398.7"/>
<polygon fill="#63b8ff" stroke="#63b8ff" points="1569.81,-570.15 1580.26,-571.9 1573.18,-564.02 1569.81,-570.15"/>
</g>
<!-- Node16 -->
<g id="node16" class="node">
<title>Node16</title>
<g id="a_node16"><a xlink:href="node__call__types_8h.html" target="_top" xlink:title=" ">
<polygon fill="white" stroke="#666666" points="1659.71,-536 1534.71,-536 1534.71,-506 1659.71,-506 1659.71,-536"/>
<text text-anchor="start" x="1542.71" y="-524" font-family="Helvetica,sans-Serif" font-size="10.00">src/node/rpc/node_call</text>
<text text-anchor="middle" x="1597.21" y="-513" font-family="Helvetica,sans-Serif" font-size="10.00">_types.h</text>
</a>
</g>
</g>
<!-- Node2&#45;&gt;Node16 -->
<g id="edge22" class="edge">
<title>Node2&#45;&gt;Node16</title>
<path fill="none" stroke="#63b8ff" d="M1597.21,-561.65C1597.21,-553.36 1597.21,-543.78 1597.21,-536.11"/>
<polygon fill="#63b8ff" stroke="#63b8ff" points="1593.71,-561.87 1597.21,-571.87 1600.71,-561.87 1593.71,-561.87"/>
</g>
<!-- Node22 -->
<g id="node22" class="node">
<title>Node22</title>
<g id="a_node22"><a xlink:href="node__interface_8h.html" target="_top" xlink:title=" ">
<polygon fill="white" stroke="#666666" points="1021.71,-530.5 860.71,-530.5 860.71,-511.5 1021.71,-511.5 1021.71,-530.5"/>
<text text-anchor="middle" x="941.21" y="-518.5" font-family="Helvetica,sans-Serif" font-size="10.00">src/node/rpc/node_interface.h</text>
</a>
</g>
</g>
<!-- Node2&#45;&gt;Node22 -->
<g id="edge35" class="edge">
<title>Node2&#45;&gt;Node22</title>
<path fill="none" stroke="#63b8ff" d="M1510.88,-572.8C1383.32,-561.43 1146.23,-540.28 1021.96,-529.2"/>
<polygon fill="#63b8ff" stroke="#63b8ff" points="1510.73,-576.3 1521,-573.7 1511.35,-569.33 1510.73,-576.3"/>
</g>
<!-- Node3&#45;&gt;Node4 -->
<g id="edge3" class="edge">
<title>Node3&#45;&gt;Node4</title>
<path fill="none" stroke="#63b8ff" d="M1755.21,-503.48C1769.4,-485.17 1794.71,-456.12 1823.21,-440 1837.26,-432.06 1930.43,-410.67 1984.86,-398.6"/>
<polygon fill="#63b8ff" stroke="#63b8ff" points="1752.4,-501.4 1749.18,-511.5 1757.99,-505.61 1752.4,-501.4"/>
</g>
<!-- Node6 -->
<g id="node6" class="node">
<title>Node6</title>
<g id="a_node6"><a xlink:href="acme__challenge__frontend_8h.html" target="_top" xlink:title=" ">
<polygon fill="white" stroke="#666666" points="1588.21,-338 1448.21,-338 1448.21,-308 1588.21,-308 1588.21,-338"/>
<text text-anchor="start" x="1456.21" y="-326" font-family="Helvetica,sans-Serif" font-size="10.00">src/node/acme_challenge</text>
<text text-anchor="middle" x="1518.21" y="-315" font-family="Helvetica,sans-Serif" font-size="10.00">_frontend.h</text>
</a>
</g>
</g>
<!-- Node5&#45;&gt;Node6 -->
<g id="edge5" class="edge">
<title>Node5&#45;&gt;Node6</title>
<path fill="none" stroke="#63b8ff" d="M1422.46,-374.64C1442.67,-363.95 1470.94,-349 1491.52,-338.12"/>
<polygon fill="#63b8ff" stroke="#63b8ff" points="1420.73,-371.6 1413.53,-379.37 1424.01,-377.79 1420.73,-371.6"/>
</g>
<!-- Node10 -->
<g id="node10" class="node">
<title>Node10</title>
<g id="a_node10"><a xlink:href="node__state_8h.html" target="_top" xlink:title=" ">
<polygon fill="white" stroke="#666666" points="1735.21,-200.5 1611.21,-200.5 1611.21,-181.5 1735.21,-181.5 1735.21,-200.5"/>
<text text-anchor="middle" x="1673.21" y="-188.5" font-family="Helvetica,sans-Serif" font-size="10.00">src/node/node_state.h</text>
</a>
</g>
</g>
<!-- Node5&#45;&gt;Node10 -->
<g id="edge13" class="edge">
<title>Node5&#45;&gt;Node10</title>
<path fill="none" stroke="#63b8ff" d="M1450.11,-377.41C1500.25,-366.9 1571.59,-350.59 1597.21,-338 1616.53,-328.51 1615.87,-317.43 1635.21,-308 1696.07,-278.34 1741.38,-325.23 1783.21,-272 1809.18,-238.95 1745.86,-213.18 1704.86,-200.55"/>
<polygon fill="#63b8ff" stroke="#63b8ff" points="1449.15,-374.03 1440.07,-379.5 1450.58,-380.89 1449.15,-374.03"/>
</g>
<!-- Node12 -->
<g id="node12" class="node">
<title>Node12</title>
<g id="a_node12"><a xlink:href="member__frontend_8h.html" target="_top" xlink:title=" ">
<polygon fill="white" stroke="#666666" points="1764.21,-338 1644.21,-338 1644.21,-308 1764.21,-308 1764.21,-338"/>
<text text-anchor="start" x="1652.21" y="-326" font-family="Helvetica,sans-Serif" font-size="10.00">src/node/rpc/member</text>
<text text-anchor="middle" x="1704.21" y="-315" font-family="Helvetica,sans-Serif" font-size="10.00">_frontend.h</text>
</a>
</g>
</g>
<!-- Node5&#45;&gt;Node12 -->
<g id="edge14" class="edge">
<title>Node5&#45;&gt;Node12</title>
<path fill="none" stroke="#63b8ff" d="M1448.31,-377.35C1502.2,-366.11 1587.05,-348.42 1644.11,-336.53"/>
<polygon fill="#63b8ff" stroke="#63b8ff" points="1447.37,-373.97 1438.3,-379.44 1448.8,-380.82 1447.37,-373.97"/>
</g>
<!-- Node13 -->
<g id="node13" class="node">
<title>Node13</title>
<g id="a_node13"><a xlink:href="node__frontend_8h.html" target="_top" xlink:title=" ">
<polygon fill="white" stroke="#666666" points="1392.21,-332.5 1234.21,-332.5 1234.21,-313.5 1392.21,-313.5 1392.21,-332.5"/>
<text text-anchor="middle" x="1313.21" y="-320.5" font-family="Helvetica,sans-Serif" font-size="10.00">src/node/rpc/node_frontend.h</text>
</a>
</g>
</g>
<!-- Node5&#45;&gt;Node13 -->
<g id="edge16" class="edge">
<title>Node5&#45;&gt;Node13</title>
<path fill="none" stroke="#63b8ff" d="M1377.51,-372.99C1361.06,-360.46 1338.2,-343.04 1324.63,-332.7"/>
<polygon fill="#63b8ff" stroke="#63b8ff" points="1375.81,-376.09 1385.88,-379.37 1380.05,-370.52 1375.81,-376.09"/>
</g>
<!-- Node15 -->
<g id="node15" class="node">
<title>Node15</title>
<g id="a_node15"><a xlink:href="user__frontend_8h.html" target="_top" xlink:title=" ">
<polygon fill="white" stroke="#666666" points="1425.71,-266.5 1270.71,-266.5 1270.71,-247.5 1425.71,-247.5 1425.71,-266.5"/>
<text text-anchor="middle" x="1348.21" y="-254.5" font-family="Helvetica,sans-Serif" font-size="10.00">src/node/rpc/user_frontend.h</text>
</a>
</g>
</g>
<!-- Node5&#45;&gt;Node15 -->
<g id="edge20" class="edge">
<title>Node5&#45;&gt;Node15</title>
<path fill="none" stroke="#63b8ff" d="M1402.63,-369.46C1406.51,-352.69 1409.71,-327.69 1401.21,-308 1393.4,-289.88 1375.42,-275.28 1362.58,-266.63"/>
<polygon fill="#63b8ff" stroke="#63b8ff" points="1399.24,-368.59 1400.1,-379.15 1406.02,-370.36 1399.24,-368.59"/>
</g>
<!-- Node6&#45;&gt;Node7 -->
<g id="edge6" class="edge">
<title>Node6&#45;&gt;Node7</title>
<path fill="none" stroke="#63b8ff" d="M1498.32,-300.1C1490.46,-291.39 1481.37,-281.26 1473.21,-272 1406.26,-195.99 1326.86,-102.76 1302.61,-74.21"/>
<polygon fill="#63b8ff" stroke="#63b8ff" points="1495.83,-302.57 1505.13,-307.63 1501.02,-297.87 1495.83,-302.57"/>
</g>
<!-- Node9 -->
<g id="node9" class="node">
<title>Node9</title>
<g id="a_node9"><a xlink:href="ccf__acme__client_8h.html" target="_top" xlink:title=" ">
<polygon fill="white" stroke="#666666" points="1774.71,-266.5 1625.71,-266.5 1625.71,-247.5 1774.71,-247.5 1774.71,-266.5"/>
<text text-anchor="middle" x="1700.21" y="-254.5" font-family="Helvetica,sans-Serif" font-size="10.00">src/node/ccf_acme_client.h</text>
</a>
</g>
</g>
<!-- Node6&#45;&gt;Node9 -->
<g id="edge8" class="edge">
<title>Node6&#45;&gt;Node9</title>
<path fill="none" stroke="#63b8ff" d="M1567.76,-304.58C1602.88,-292.23 1648.49,-276.19 1675.99,-266.52"/>
<polygon fill="#63b8ff" stroke="#63b8ff" points="1566.43,-301.34 1558.15,-307.95 1568.75,-307.94 1566.43,-301.34"/>
</g>
<!-- Node8 -->
<g id="node8" class="node">
<title>Node8</title>
<g id="a_node8"><a xlink:href="enclave_2main_8cpp.html" target="_top" xlink:title=" ">
<polygon fill="white" stroke="#666666" points="1355.21,-19 1235.21,-19 1235.21,0 1355.21,0 1355.21,-19"/>
<text text-anchor="middle" x="1295.21" y="-7" font-family="Helvetica,sans-Serif" font-size="10.00">src/enclave/main.cpp</text>
</a>
</g>
</g>
<!-- Node7&#45;&gt;Node8 -->
<g id="edge7" class="edge">
<title>Node7&#45;&gt;Node8</title>
<path fill="none" stroke="#63b8ff" d="M1295.21,-44.66C1295.21,-35.93 1295.21,-25.99 1295.21,-19.09"/>
<polygon fill="#63b8ff" stroke="#63b8ff" points="1291.71,-44.75 1295.21,-54.75 1298.71,-44.75 1291.71,-44.75"/>
</g>
<!-- Node9&#45;&gt;Node10 -->
<g id="edge9" class="edge">
<title>Node9&#45;&gt;Node10</title>
<path fill="none" stroke="#63b8ff" d="M1692.54,-237.82C1687.45,-225.74 1680.98,-210.41 1676.97,-200.91"/>
<polygon fill="#63b8ff" stroke="#63b8ff" points="1689.46,-239.52 1696.57,-247.37 1695.91,-236.79 1689.46,-239.52"/>
</g>
<!-- Node10&#45;&gt;Node7 -->
<g id="edge10" class="edge">
<title>Node10&#45;&gt;Node7</title>
<path fill="none" stroke="#63b8ff" d="M1639.16,-177.92C1611.76,-168.08 1572.32,-153.62 1538.21,-140 1506.78,-127.45 1500.25,-120.91 1468.21,-110 1423.59,-94.8 1370.97,-81.96 1335.58,-74.04"/>
<polygon fill="#63b8ff" stroke="#63b8ff" points="1638.09,-181.26 1648.68,-181.33 1640.45,-174.67 1638.09,-181.26"/>
</g>
<!-- Node11 -->
<g id="node11" class="node">
<title>Node11</title>
<g id="a_node11"><a xlink:href="gov__effects_8h.html" target="_top" xlink:title=" ">
<polygon fill="white" stroke="#666666" points="1691.21,-134.5 1547.21,-134.5 1547.21,-115.5 1691.21,-115.5 1691.21,-134.5"/>
<text text-anchor="middle" x="1619.21" y="-122.5" font-family="Helvetica,sans-Serif" font-size="10.00">src/node/rpc/gov_effects.h</text>
</a>
</g>
</g>
<!-- Node10&#45;&gt;Node11 -->
<g id="edge11" class="edge">
<title>Node10&#45;&gt;Node11</title>
<path fill="none" stroke="#63b8ff" d="M1659.39,-173.62C1649,-161.31 1635.15,-144.89 1626.73,-134.91"/>
<polygon fill="#63b8ff" stroke="#63b8ff" points="1656.81,-175.98 1665.93,-181.37 1662.16,-171.47 1656.81,-175.98"/>
</g>
<!-- Node11&#45;&gt;Node7 -->
<g id="edge12" class="edge">
<title>Node11&#45;&gt;Node7</title>
<path fill="none" stroke="#63b8ff" d="M1562.02,-113.67C1499.53,-102.39 1400.6,-84.53 1342.38,-74.02"/>
<polygon fill="#63b8ff" stroke="#63b8ff" points="1561.64,-117.16 1572.1,-115.49 1562.88,-110.27 1561.64,-117.16"/>
</g>
<!-- Node12&#45;&gt;Node7 -->
<g id="edge15" class="edge">
<title>Node12&#45;&gt;Node7</title>
<path fill="none" stroke="#63b8ff" d="M1764.23,-303.68C1778.83,-296.25 1792.68,-286 1801.21,-272 1844.18,-201.51 1795.5,-163.75 1700.21,-110 1642.84,-77.64 1454.58,-68.81 1356.25,-66.4"/>
<polygon fill="#63b8ff" stroke="#63b8ff" points="1762.67,-300.55 1755.09,-307.95 1765.63,-306.89 1762.67,-300.55"/>
</g>
<!-- Node13&#45;&gt;Node7 -->
<g id="edge17" class="edge">
<title>Node13&#45;&gt;Node7</title>
<path fill="none" stroke="#63b8ff" d="M1290.93,-307.29C1279.75,-298.53 1267.31,-286.32 1261.21,-272 1230.61,-200.13 1275.39,-103.33 1290.52,-74.16"/>
<polygon fill="#63b8ff" stroke="#63b8ff" points="1288.98,-310.2 1299.11,-313.3 1293.12,-304.56 1288.98,-310.2"/>
</g>
<!-- Node14 -->
<g id="node14" class="node">
<title>Node14</title>
<g id="a_node14"><a xlink:href="jwt__key__auto__refresh_8h.html" target="_top" xlink:title=" ">
<polygon fill="white" stroke="#666666" points="1607.71,-272 1482.71,-272 1482.71,-242 1607.71,-242 1607.71,-272"/>
<text text-anchor="start" x="1490.71" y="-260" font-family="Helvetica,sans-Serif" font-size="10.00">src/node/jwt_key_auto</text>
<text text-anchor="middle" x="1545.21" y="-249" font-family="Helvetica,sans-Serif" font-size="10.00">_refresh.h</text>
</a>
</g>
</g>
<!-- Node13&#45;&gt;Node14 -->
<g id="edge18" class="edge">
<title>Node13&#45;&gt;Node14</title>
<path fill="none" stroke="#63b8ff" d="M1354.46,-310.62C1393.45,-299.86 1452.08,-283.69 1494.04,-272.12"/>
<polygon fill="#63b8ff" stroke="#63b8ff" points="1353.21,-307.34 1344.5,-313.37 1355.07,-314.08 1353.21,-307.34"/>
</g>
<!-- Node14&#45;&gt;Node10 -->
<g id="edge19" class="edge">
<title>Node14&#45;&gt;Node10</title>
<path fill="none" stroke="#63b8ff" d="M1582.29,-237.46C1606.67,-225.27 1637.41,-209.9 1656.18,-200.52"/>
<polygon fill="#63b8ff" stroke="#63b8ff" points="1580.68,-234.35 1573.3,-241.95 1583.81,-240.61 1580.68,-234.35"/>
</g>
<!-- Node15&#45;&gt;Node7 -->
<g id="edge21" class="edge">
<title>Node15&#45;&gt;Node7</title>
<path fill="none" stroke="#63b8ff" d="M1343.07,-237.51C1331.89,-197.33 1305.73,-103.32 1297.64,-74.23"/>
<polygon fill="#63b8ff" stroke="#63b8ff" points="1339.74,-238.62 1345.8,-247.32 1346.49,-236.75 1339.74,-238.62"/>
</g>
<!-- Node17 -->
<g id="node17" class="node">
<title>Node17</title>
<g id="a_node17"><a xlink:href="call__types_8h.html" target="_top" xlink:title=" ">
<polygon fill="white" stroke="#666666" points="1770.71,-464.5 1633.71,-464.5 1633.71,-445.5 1770.71,-445.5 1770.71,-464.5"/>
<text text-anchor="middle" x="1702.21" y="-452.5" font-family="Helvetica,sans-Serif" font-size="10.00">src/node/rpc/call_types.h</text>
</a>
</g>
</g>
<!-- Node16&#45;&gt;Node17 -->
<g id="edge23" class="edge">
<title>Node16&#45;&gt;Node17</title>
<path fill="none" stroke="#63b8ff" d="M1628.96,-500.65C1648.73,-488.6 1673.19,-473.69 1688.24,-464.52"/>
<polygon fill="#63b8ff" stroke="#63b8ff" points="1626.97,-497.76 1620.25,-505.95 1630.62,-503.74 1626.97,-497.76"/>
</g>
<!-- Node17&#45;&gt;Node12 -->
<g id="edge28" class="edge">
<title>Node17&#45;&gt;Node12</title>
<path fill="none" stroke="#63b8ff" d="M1702.5,-435.32C1702.9,-409 1703.63,-361.61 1704,-338.07"/>
<polygon fill="#63b8ff" stroke="#63b8ff" points="1699,-435.42 1702.34,-445.47 1706,-435.53 1699,-435.42"/>
</g>
<!-- Node18 -->
<g id="node18" class="node">
<title>Node18</title>
<g id="a_node18"><a xlink:href="common__endpoint__registry_8cpp.html" target="_top" xlink:title=" ">
<polygon fill="white" stroke="#666666" points="2082.21,-338 1954.21,-338 1954.21,-308 2082.21,-308 2082.21,-338"/>
<text text-anchor="start" x="1962.21" y="-326" font-family="Helvetica,sans-Serif" font-size="10.00">src/endpoints/common</text>
<text text-anchor="middle" x="2018.21" y="-315" font-family="Helvetica,sans-Serif" font-size="10.00">_endpoint_registry.cpp</text>
</a>
</g>
</g>
<!-- Node17&#45;&gt;Node18 -->
<g id="edge24" class="edge">
<title>Node17&#45;&gt;Node18</title>
<path fill="none" stroke="#63b8ff" d="M1755.41,-443.48C1816.45,-431.2 1910.12,-411.58 1925.21,-404 1934.01,-399.58 1978.66,-359.77 2002.75,-338.03"/>
<polygon fill="#63b8ff" stroke="#63b8ff" points="1754.65,-440.07 1745.54,-445.47 1756.03,-446.93 1754.65,-440.07"/>
</g>
<!-- Node19 -->
<g id="node19" class="node">
<title>Node19</title>
<g id="a_node19"><a xlink:href="wrap_8cpp.html" target="_top" xlink:title=" ">
<polygon fill="white" stroke="#666666" points="834.71,-266.5 745.71,-266.5 745.71,-247.5 834.71,-247.5 834.71,-266.5"/>
<text text-anchor="middle" x="790.21" y="-254.5" font-family="Helvetica,sans-Serif" font-size="10.00">src/js/wrap.cpp</text>
</a>
</g>
</g>
<!-- Node17&#45;&gt;Node19 -->
<g id="edge25" class="edge">
<title>Node17&#45;&gt;Node19</title>
<path fill="none" stroke="#63b8ff" d="M1623.27,-451.83C1545.33,-447.8 1423.57,-436.34 1323.21,-404 1237.29,-376.31 1230.01,-336.08 1144.21,-308 1036.85,-272.86 903.22,-262.41 834.94,-259.31"/>
<polygon fill="#63b8ff" stroke="#63b8ff" points="1623.34,-455.34 1633.5,-452.33 1623.68,-448.35 1623.34,-455.34"/>
</g>
<!-- Node20 -->
<g id="node20" class="node">
<title>Node20</title>
<g id="a_node20"><a xlink:href="resharing_8h.html" target="_top" xlink:title=" ">
<polygon fill="white" stroke="#666666" points="1898.21,-332.5 1782.21,-332.5 1782.21,-313.5 1898.21,-313.5 1898.21,-332.5"/>
<text text-anchor="middle" x="1840.21" y="-320.5" font-family="Helvetica,sans-Serif" font-size="10.00">src/node/resharing.h</text>
</a>
</g>
</g>
<!-- Node17&#45;&gt;Node20 -->
<g id="edge26" class="edge">
<title>Node17&#45;&gt;Node20</title>
<path fill="none" stroke="#63b8ff" d="M1711.91,-436.44C1722.08,-419.12 1739.33,-392.61 1759.21,-374 1778.27,-356.16 1804.66,-341.29 1822.07,-332.53"/>
<polygon fill="#63b8ff" stroke="#63b8ff" points="1708.68,-435.03 1706.77,-445.45 1714.77,-438.5 1708.68,-435.03"/>
</g>
<!-- Node21 -->
<g id="node21" class="node">
<title>Node21</title>
<g id="a_node21"><a xlink:href="serialization_8h.html" target="_top" xlink:title=" ">
<polygon fill="white" stroke="#666666" points="1916.21,-398.5 1768.21,-398.5 1768.21,-379.5 1916.21,-379.5 1916.21,-398.5"/>
<text text-anchor="middle" x="1842.21" y="-386.5" font-family="Helvetica,sans-Serif" font-size="10.00">src/node/rpc/serialization.h</text>
</a>
</g>
</g>
<!-- Node17&#45;&gt;Node21 -->
<g id="edge29" class="edge">
<title>Node17&#45;&gt;Node21</title>
<path fill="none" stroke="#63b8ff" d="M1730.23,-441.19C1757.82,-428.58 1799.21,-409.66 1823.18,-398.7"/>
<polygon fill="#63b8ff" stroke="#63b8ff" points="1728.73,-438.03 1721.09,-445.37 1731.64,-444.39 1728.73,-438.03"/>
</g>
<!-- Node20&#45;&gt;Node10 -->
<g id="edge27" class="edge">
<title>Node20&#45;&gt;Node10</title>
<path fill="none" stroke="#63b8ff" d="M1839.32,-303.17C1837.49,-285.24 1832.07,-258.59 1816.21,-242 1794.95,-219.76 1763.25,-207.4 1735.1,-200.54"/>
<polygon fill="#63b8ff" stroke="#63b8ff" points="1835.84,-303.56 1840.07,-313.27 1842.82,-303.04 1835.84,-303.56"/>
</g>
<!-- Node21&#45;&gt;Node10 -->
<g id="edge31" class="edge">
<title>Node21&#45;&gt;Node10</title>
<path fill="none" stroke="#63b8ff" d="M1870.06,-374.43C1883.95,-366.04 1899.42,-353.82 1907.21,-338 1913.1,-326.04 1912.41,-320.28 1907.21,-308 1878.95,-241.18 1794.61,-212.57 1735.33,-200.51"/>
<polygon fill="#63b8ff" stroke="#63b8ff" points="1868.25,-371.44 1861.25,-379.4 1871.68,-377.54 1868.25,-371.44"/>
</g>
<!-- Node21&#45;&gt;Node12 -->
<g id="edge33" class="edge">
<title>Node21&#45;&gt;Node12</title>
<path fill="none" stroke="#63b8ff" d="M1814.35,-375.08C1791.24,-364.36 1758.44,-349.15 1734.65,-338.12"/>
<polygon fill="#63b8ff" stroke="#63b8ff" points="1813.06,-378.34 1823.6,-379.37 1816,-371.99 1813.06,-378.34"/>
</g>
<!-- Node21&#45;&gt;Node13 -->
<g id="edge34" class="edge">
<title>Node21&#45;&gt;Node13</title>
<path fill="none" stroke="#63b8ff" d="M1761.64,-378.25C1658.55,-365.78 1481.64,-344.38 1383.67,-332.52"/>
<polygon fill="#63b8ff" stroke="#63b8ff" points="1761.34,-381.74 1771.69,-379.47 1762.18,-374.79 1761.34,-381.74"/>
</g>
<!-- Node21&#45;&gt;Node18 -->
<g id="edge30" class="edge">
<title>Node21&#45;&gt;Node18</title>
<path fill="none" stroke="#63b8ff" d="M1875.41,-375.93C1904.97,-365.18 1948.24,-349.44 1979.39,-338.12"/>
<polygon fill="#63b8ff" stroke="#63b8ff" points="1874.15,-372.66 1865.95,-379.37 1876.54,-379.24 1874.15,-372.66"/>
</g>
<!-- Node21&#45;&gt;Node20 -->
<g id="edge32" class="edge">
<title>Node21&#45;&gt;Node20</title>
<path fill="none" stroke="#63b8ff" d="M1841.62,-369.08C1841.25,-357.13 1840.78,-342.22 1840.49,-332.91"/>
<polygon fill="#63b8ff" stroke="#63b8ff" points="1838.13,-369.48 1841.94,-379.37 1845.13,-369.26 1838.13,-369.48"/>
</g>
<!-- Node22&#45;&gt;Node12 -->
<g id="edge61" class="edge">
<title>Node22&#45;&gt;Node12</title>
<path fill="none" stroke="#63b8ff" d="M1032.2,-519.43C1127.06,-516.72 1279.21,-506.34 1405.21,-470 1515.11,-438.3 1633.87,-368.3 1682.05,-338.21"/>
<polygon fill="#63b8ff" stroke="#63b8ff" points="1031.96,-515.94 1022.06,-519.7 1032.15,-522.93 1031.96,-515.94"/>
</g>
<!-- Node22&#45;&gt;Node13 -->
<g id="edge65" class="edge">
<title>Node22&#45;&gt;Node13</title>
<path fill="none" stroke="#63b8ff" d="M1003.63,-509.43C1040.33,-501.68 1086.9,-489.12 1125.21,-470 1202.87,-431.25 1279.63,-357.83 1304.7,-332.69"/>
<polygon fill="#63b8ff" stroke="#63b8ff" points="1002.65,-506.06 993.56,-511.49 1004.06,-512.92 1002.65,-506.06"/>
</g>
<!-- Node22&#45;&gt;Node19 -->
<g id="edge36" class="edge">
<title>Node22&#45;&gt;Node19</title>
<path fill="none" stroke="#63b8ff" d="M967.08,-506.4C1028.57,-472.39 1173.83,-381.13 1111.21,-308 1076.18,-267.09 914.73,-259.39 835.01,-258.12"/>
<polygon fill="#63b8ff" stroke="#63b8ff" points="965.08,-503.5 957.97,-511.36 968.43,-509.65 965.08,-503.5"/>
</g>
<!-- Node23 -->
<g id="node23" class="node">
<title>Node23</title>
<g id="a_node23"><a xlink:href="wrap_8h.html" target="_top" xlink:title=" ">
<polygon fill="white" stroke="#666666" points="891.21,-398.5 813.21,-398.5 813.21,-379.5 891.21,-379.5 891.21,-398.5"/>
<text text-anchor="middle" x="852.21" y="-386.5" font-family="Helvetica,sans-Serif" font-size="10.00">src/js/wrap.h</text>
</a>
</g>
</g>
<!-- Node22&#45;&gt;Node23 -->
<g id="edge37" class="edge">
<title>Node22&#45;&gt;Node23</title>
<path fill="none" stroke="#63b8ff" d="M929.64,-503.1C910.47,-475.1 872.79,-420.06 858.19,-398.73"/>
<polygon fill="#63b8ff" stroke="#63b8ff" points="926.84,-505.2 935.37,-511.47 932.61,-501.24 926.84,-505.2"/>
</g>
<!-- Node30 -->
<g id="node30" class="node">
<title>Node30</title>
<g id="a_node30"><a xlink:href="historical__queries_8h.html" target="_top" xlink:title=" ">
<polygon fill="white" stroke="#666666" points="984.21,-206 878.21,-206 878.21,-176 984.21,-176 984.21,-206"/>
<text text-anchor="start" x="886.21" y="-194" font-family="Helvetica,sans-Serif" font-size="10.00">src/node/historical</text>
<text text-anchor="middle" x="931.21" y="-183" font-family="Helvetica,sans-Serif" font-size="10.00">_queries.h</text>
</a>
</g>
</g>
<!-- Node22&#45;&gt;Node30 -->
<g id="edge53" class="edge">
<title>Node22&#45;&gt;Node30</title>
<path fill="none" stroke="#63b8ff" d="M850.35,-519.21C671.05,-516.85 284.94,-507.42 238.21,-470 209.24,-446.8 214.21,-427.12 214.21,-390 214.21,-390 214.21,-390 214.21,-322 214.21,-284.88 209.25,-265.22 238.21,-242 287.74,-202.3 724.37,-194.08 878.01,-192.41"/>
<polygon fill="#63b8ff" stroke="#63b8ff" points="850.52,-522.71 860.56,-519.34 850.6,-515.72 850.52,-522.71"/>
</g>
<!-- Node32 -->
<g id="node32" class="node">
<title>Node32</title>
<g id="a_node32"><a xlink:href="node__configuration__subsystem_8h.html" target="_top" xlink:title=" ">
<polygon fill="white" stroke="#666666" points="1396.21,-470 1242.21,-470 1242.21,-440 1396.21,-440 1396.21,-470"/>
<text text-anchor="start" x="1250.21" y="-458" font-family="Helvetica,sans-Serif" font-size="10.00">src/node/node_configuration</text>
<text text-anchor="middle" x="1319.21" y="-447" font-family="Helvetica,sans-Serif" font-size="10.00">_subsystem.h</text>
</a>
</g>
</g>
<!-- Node22&#45;&gt;Node32 -->
<g id="edge57" class="edge">
<title>Node22&#45;&gt;Node32</title>
<path fill="none" stroke="#63b8ff" d="M1001.93,-509.72C1067.18,-498.67 1171.08,-481.08 1242.07,-469.06"/>
<polygon fill="#63b8ff" stroke="#63b8ff" points="1001.07,-506.31 991.8,-511.44 1002.24,-513.22 1001.07,-506.31"/>
</g>
<!-- Node33 -->
<g id="node33" class="node">
<title>Node33</title>
<g id="a_node33"><a xlink:href="acme__subsystem_8h.html" target="_top" xlink:title=" ">
<polygon fill="white" stroke="#666666" points="1175.71,-200.5 1002.71,-200.5 1002.71,-181.5 1175.71,-181.5 1175.71,-200.5"/>
<text text-anchor="middle" x="1089.21" y="-188.5" font-family="Helvetica,sans-Serif" font-size="10.00">src/node/rpc/acme_subsystem.h</text>
</a>
</g>
</g>
<!-- Node22&#45;&gt;Node33 -->
<g id="edge59" class="edge">
<title>Node22&#45;&gt;Node33</title>
<path fill="none" stroke="#63b8ff" d="M850.39,-512.21C663.28,-494.95 252.21,-450.18 252.21,-390 252.21,-390 252.21,-390 252.21,-322 252.21,-186.29 543.73,-251.13 993.21,-206 1007.29,-204.59 1022.46,-202.59 1036.5,-200.55"/>
<polygon fill="#63b8ff" stroke="#63b8ff" points="850.21,-515.71 860.49,-513.14 850.85,-508.74 850.21,-515.71"/>
</g>
<!-- Node34 -->
<g id="node34" class="node">
<title>Node34</title>
<g id="a_node34"><a xlink:href="network__identity__subsystem_8h.html" target="_top" xlink:title=" ">
<polygon fill="white" stroke="#666666" points="147.71,-470 20.71,-470 20.71,-440 147.71,-440 147.71,-470"/>
<text text-anchor="start" x="28.71" y="-458" font-family="Helvetica,sans-Serif" font-size="10.00">src/node/rpc/network</text>
<text text-anchor="middle" x="84.21" y="-447" font-family="Helvetica,sans-Serif" font-size="10.00">_identity_subsystem.h</text>
</a>
</g>
</g>
<!-- Node22&#45;&gt;Node34 -->
<g id="edge62" class="edge">
<title>Node22&#45;&gt;Node34</title>
<path fill="none" stroke="#63b8ff" d="M850.24,-517.51C704.54,-512.77 410.03,-500.09 162.21,-470 157.57,-469.44 152.78,-468.78 147.97,-468.05"/>
<polygon fill="#63b8ff" stroke="#63b8ff" points="850.36,-521.01 860.47,-517.84 850.59,-514.02 850.36,-521.01"/>
</g>
<!-- Node36 -->
<g id="node36" class="node">
<title>Node36</title>
<g id="a_node36"><a xlink:href="node__operation_8h.html" target="_top" xlink:title=" ">
<polygon fill="white" stroke="#666666" points="588.21,-134.5 424.21,-134.5 424.21,-115.5 588.21,-115.5 588.21,-134.5"/>
<text text-anchor="middle" x="506.21" y="-122.5" font-family="Helvetica,sans-Serif" font-size="10.00">src/node/rpc/node_operation.h</text>
</a>
</g>
</g>
<!-- Node22&#45;&gt;Node36 -->
<g id="edge66" class="edge">
<title>Node22&#45;&gt;Node36</title>
<path fill="none" stroke="#63b8ff" d="M850.26,-518.88C666.6,-515.88 264.51,-505.33 213.21,-470 180.95,-447.78 176.21,-429.17 176.21,-390 176.21,-390 176.21,-390 176.21,-256 176.21,-196.12 366.7,-152.19 458.23,-134.54"/>
<polygon fill="#63b8ff" stroke="#63b8ff" points="850.38,-522.38 860.44,-519.04 850.5,-515.38 850.38,-522.38"/>
</g>
<!-- Node23&#45;&gt;Node7 -->
<g id="edge39" class="edge">
<title>Node23&#45;&gt;Node7</title>
<path fill="none" stroke="#63b8ff" d="M901.34,-383.11C966.6,-375.85 1077.56,-360.6 1111.21,-338 1211.71,-270.52 1189.61,-208.34 1260.21,-110 1269.38,-97.22 1280.76,-83.04 1288.01,-74.19"/>
<polygon fill="#63b8ff" stroke="#63b8ff" points="900.84,-379.65 891.28,-384.21 901.6,-386.61 900.84,-379.65"/>
</g>
<!-- Node23&#45;&gt;Node10 -->
<g id="edge50" class="edge">
<title>Node23&#45;&gt;Node10</title>
<path fill="none" stroke="#63b8ff" d="M802.75,-387.16C675.09,-384.49 342.14,-374.1 309.21,-338 300.23,-328.15 300.53,-318.12 309.21,-308 434.2,-162.21 545.2,-261.81 736.21,-242 1064.74,-207.93 1460.62,-196.46 1611.1,-193.17"/>
<polygon fill="#63b8ff" stroke="#63b8ff" points="802.95,-390.67 813.02,-387.37 803.09,-383.67 802.95,-390.67"/>
</g>
<!-- Node23&#45;&gt;Node12 -->
<g id="edge51" class="edge">
<title>Node23&#45;&gt;Node12</title>
<path fill="none" stroke="#63b8ff" d="M901.76,-385.76C1021.46,-380.1 1335.81,-363.85 1597.21,-338 1612.41,-336.5 1628.77,-334.53 1644.02,-332.55"/>
<polygon fill="#63b8ff" stroke="#63b8ff" points="901.29,-382.28 891.46,-386.24 901.61,-389.27 901.29,-382.28"/>
</g>
<!-- Node23&#45;&gt;Node13 -->
<g id="edge52" class="edge">
<title>Node23&#45;&gt;Node13</title>
<path fill="none" stroke="#63b8ff" d="M901.4,-381.55C972,-372.23 1106.15,-354.33 1220.21,-338 1232.17,-336.29 1244.99,-334.39 1257.17,-332.57"/>
<polygon fill="#63b8ff" stroke="#63b8ff" points="900.91,-378.08 891.45,-382.86 901.82,-385.02 900.91,-378.08"/>
</g>
<!-- Node23&#45;&gt;Node19 -->
<g id="edge49" class="edge">
<title>Node23&#45;&gt;Node19</title>
<path fill="none" stroke="#63b8ff" d="M803.09,-388.73C714.34,-388.89 532.8,-383.49 493.21,-338 484.46,-327.94 484.6,-318.18 493.21,-308 524.99,-270.42 670.63,-261.07 745.5,-258.76"/>
<polygon fill="#63b8ff" stroke="#63b8ff" points="803.19,-392.23 813.18,-388.69 803.16,-385.23 803.19,-392.23"/>
</g>
<!-- Node24 -->
<g id="node24" class="node">
<title>Node24</title>
<g id="a_node24"><a xlink:href="js__generic__base_8cpp.html" target="_top" xlink:title=" ">
<polygon fill="white" stroke="#666666" points="974.21,-338 856.21,-338 856.21,-308 974.21,-308 974.21,-338"/>
<text text-anchor="start" x="864.21" y="-326" font-family="Helvetica,sans-Serif" font-size="10.00">src/apps/js_generic</text>
<text text-anchor="middle" x="915.21" y="-315" font-family="Helvetica,sans-Serif" font-size="10.00">/js_generic_base.cpp</text>
</a>
</g>
</g>
<!-- Node23&#45;&gt;Node24 -->
<g id="edge38" class="edge">
<title>Node23&#45;&gt;Node24</title>
<path fill="none" stroke="#63b8ff" d="M867.81,-372.16C878,-361.81 891.19,-348.4 901.08,-338.36"/>
<polygon fill="#63b8ff" stroke="#63b8ff" points="865.23,-369.79 860.71,-379.37 870.22,-374.7 865.23,-369.79"/>
</g>
<!-- Node25 -->
<g id="node25" class="node">
<title>Node25</title>
<g id="a_node25"><a xlink:href="consensus_8cpp.html" target="_top" xlink:title=" ">
<polygon fill="white" stroke="#666666" points="618.21,-332.5 502.21,-332.5 502.21,-313.5 618.21,-313.5 618.21,-332.5"/>
<text text-anchor="middle" x="560.21" y="-320.5" font-family="Helvetica,sans-Serif" font-size="10.00">src/js/consensus.cpp</text>
</a>
</g>
</g>
<!-- Node23&#45;&gt;Node25 -->
<g id="edge40" class="edge">
<title>Node23&#45;&gt;Node25</title>
<path fill="none" stroke="#63b8ff" d="M803.2,-377.26C745.75,-364.67 651.71,-344.06 599.06,-332.51"/>
<polygon fill="#63b8ff" stroke="#63b8ff" points="802.62,-380.71 813.13,-379.44 804.12,-373.88 802.62,-380.71"/>
</g>
<!-- Node26 -->
<g id="node26" class="node">
<title>Node26</title>
<g id="a_node26"><a xlink:href="conv_8cpp.html" target="_top" xlink:title=" ">
<polygon fill="white" stroke="#666666" points="724.21,-332.5 636.21,-332.5 636.21,-313.5 724.21,-313.5 724.21,-332.5"/>
<text text-anchor="middle" x="680.21" y="-320.5" font-family="Helvetica,sans-Serif" font-size="10.00">src/js/conv.cpp</text>
</a>
</g>
</g>
<!-- Node23&#45;&gt;Node26 -->
<g id="edge42" class="edge">
<title>Node23&#45;&gt;Node26</title>
<path fill="none" stroke="#63b8ff" d="M819.53,-375.84C785.55,-363.2 733.23,-343.73 703.32,-332.6"/>
<polygon fill="#63b8ff" stroke="#63b8ff" points="818.42,-379.16 829.02,-379.37 820.86,-372.6 818.42,-379.16"/>
</g>
<!-- Node27 -->
<g id="node27" class="node">
<title>Node27</title>
<g id="a_node27"><a xlink:href="crypto_8cpp.html" target="_top" xlink:title=" ">
<polygon fill="white" stroke="#666666" points="838.21,-332.5 742.21,-332.5 742.21,-313.5 838.21,-313.5 838.21,-332.5"/>
<text text-anchor="middle" x="790.21" y="-320.5" font-family="Helvetica,sans-Serif" font-size="10.00">src/js/crypto.cpp</text>
</a>
</g>
</g>
<!-- Node23&#45;&gt;Node27 -->
<g id="edge44" class="edge">
<title>Node23&#45;&gt;Node27</title>
<path fill="none" stroke="#63b8ff" d="M836.69,-371.98C824.72,-359.62 808.61,-342.99 798.84,-332.91"/>
<polygon fill="#63b8ff" stroke="#63b8ff" points="834.38,-374.62 843.85,-379.37 839.41,-369.75 834.38,-374.62"/>
</g>
<!-- Node28 -->
<g id="node28" class="node">
<title>Node28</title>
<g id="a_node28"><a xlink:href="historical_8cpp.html" target="_top" xlink:title=" ">
<polygon fill="white" stroke="#666666" points="1102.21,-332.5 992.21,-332.5 992.21,-313.5 1102.21,-313.5 1102.21,-332.5"/>
<text text-anchor="middle" x="1047.21" y="-320.5" font-family="Helvetica,sans-Serif" font-size="10.00">src/js/historical.cpp</text>
</a>
</g>
</g>
<!-- Node23&#45;&gt;Node28 -->
<g id="edge46" class="edge">
<title>Node23&#45;&gt;Node28</title>
<path fill="none" stroke="#63b8ff" d="M888.28,-376.16C926.77,-363.53 986.81,-343.82 1021.02,-332.6"/>
<polygon fill="#63b8ff" stroke="#63b8ff" points="886.92,-372.92 878.51,-379.37 889.1,-379.58 886.92,-372.92"/>
</g>
<!-- Node29 -->
<g id="node29" class="node">
<title>Node29</title>
<g id="a_node29"><a xlink:href="openenclave_8cpp.html" target="_top" xlink:title=" ">
<polygon fill="white" stroke="#666666" points="446.21,-332.5 318.21,-332.5 318.21,-313.5 446.21,-313.5 446.21,-332.5"/>
<text text-anchor="middle" x="382.21" y="-320.5" font-family="Helvetica,sans-Serif" font-size="10.00">src/js/openenclave.cpp</text>
</a>
</g>
</g>
<!-- Node23&#45;&gt;Node29 -->
<g id="edge48" class="edge">
<title>Node23&#45;&gt;Node29</title>
<path fill="none" stroke="#63b8ff" d="M803.17,-382.55C728.84,-374.12 583.27,-356.88 460.21,-338 449.6,-336.37 438.22,-334.44 427.52,-332.53"/>
<polygon fill="#63b8ff" stroke="#63b8ff" points="802.84,-386.04 813.17,-383.69 803.63,-379.08 802.84,-386.04"/>
</g>
<!-- Node25&#45;&gt;Node19 -->
<g id="edge41" class="edge">
<title>Node25&#45;&gt;Node19</title>
<path fill="none" stroke="#63b8ff" d="M601.03,-310.64C646.34,-298.03 718.46,-277.97 759.32,-266.6"/>
<polygon fill="#63b8ff" stroke="#63b8ff" points="599.93,-307.32 591.23,-313.37 601.8,-314.06 599.93,-307.32"/>
</g>
<!-- Node26&#45;&gt;Node19 -->
<g id="edge43" class="edge">
<title>Node26&#45;&gt;Node19</title>
<path fill="none" stroke="#63b8ff" d="M703.95,-308.19C725.6,-295.59 756.92,-277.37 775.26,-266.7"/>
<polygon fill="#63b8ff" stroke="#63b8ff" points="701.93,-305.31 695.05,-313.37 705.45,-311.36 701.93,-305.31"/>
</g>
<!-- Node27&#45;&gt;Node19 -->
<g id="edge45" class="edge">
<title>Node27&#45;&gt;Node19</title>
<path fill="none" stroke="#63b8ff" d="M790.21,-303.08C790.21,-291.13 790.21,-276.22 790.21,-266.91"/>
<polygon fill="#63b8ff" stroke="#63b8ff" points="786.71,-303.37 790.21,-313.37 793.71,-303.37 786.71,-303.37"/>
</g>
<!-- Node28&#45;&gt;Node19 -->
<g id="edge47" class="edge">
<title>Node28&#45;&gt;Node19</title>
<path fill="none" stroke="#63b8ff" d="M1002.81,-310.94C952.14,-298.32 870.36,-277.96 824.4,-266.51"/>
<polygon fill="#63b8ff" stroke="#63b8ff" points="1002.27,-314.41 1012.82,-313.44 1003.96,-307.62 1002.27,-314.41"/>
</g>
<!-- Node30&#45;&gt;Node7 -->
<g id="edge54" class="edge">
<title>Node30&#45;&gt;Node7</title>
<path fill="none" stroke="#63b8ff" d="M934.61,-165.91C938.51,-147.62 946.8,-123.42 964.21,-110 1005.26,-78.37 1150.36,-69.21 1234.19,-66.57"/>
<polygon fill="#63b8ff" stroke="#63b8ff" points="931.14,-165.39 932.78,-175.86 938.03,-166.66 931.14,-165.39"/>
</g>
<!-- Node31 -->
<g id="node31" class="node">
<title>Node31</title>
<g id="a_node31"><a xlink:href="historical__transaction__fetcher_8h.html" target="_top" xlink:title=" ">
<polygon fill="white" stroke="#666666" points="1098.71,-140 973.71,-140 973.71,-110 1098.71,-110 1098.71,-140"/>
<text text-anchor="start" x="981.71" y="-128" font-family="Helvetica,sans-Serif" font-size="10.00">src/indexing/historical</text>
<text text-anchor="middle" x="1036.21" y="-117" font-family="Helvetica,sans-Serif" font-size="10.00">_transaction_fetcher.h</text>
</a>
</g>
</g>
<!-- Node30&#45;&gt;Node31 -->
<g id="edge55" class="edge">
<title>Node30&#45;&gt;Node31</title>
<path fill="none" stroke="#63b8ff" d="M962.88,-170.69C979.09,-160.82 998.46,-149.01 1013.22,-140.01"/>
<polygon fill="#63b8ff" stroke="#63b8ff" points="960.97,-167.76 954.25,-175.95 964.62,-173.74 960.97,-167.76"/>
</g>
<!-- Node31&#45;&gt;Node7 -->
<g id="edge56" class="edge">
<title>Node31&#45;&gt;Node7</title>
<path fill="none" stroke="#63b8ff" d="M1108.04,-107.78C1156.42,-96.85 1218.28,-82.88 1257.34,-74.05"/>
<polygon fill="#63b8ff" stroke="#63b8ff" points="1107.23,-104.37 1098.25,-109.99 1108.77,-111.2 1107.23,-104.37"/>
</g>
<!-- Node32&#45;&gt;Node5 -->
<g id="edge58" class="edge">
<title>Node32&#45;&gt;Node5</title>
<path fill="none" stroke="#63b8ff" d="M1344.49,-433.26C1358.68,-421.61 1375.65,-407.69 1386.43,-398.84"/>
<polygon fill="#63b8ff" stroke="#63b8ff" points="1342.03,-430.75 1336.52,-439.8 1346.47,-436.16 1342.03,-430.75"/>
</g>
<!-- Node33&#45;&gt;Node7 -->
<g id="edge60" class="edge">
<title>Node33&#45;&gt;Node7</title>
<path fill="none" stroke="#63b8ff" d="M1105.91,-174.43C1125.14,-157.09 1158.2,-128.99 1190.21,-110 1215.92,-94.75 1247.84,-82.01 1269.69,-74.12"/>
<polygon fill="#63b8ff" stroke="#63b8ff" points="1103.35,-172.03 1098.33,-181.36 1108.07,-177.2 1103.35,-172.03"/>
</g>
<!-- Node34&#45;&gt;Node7 -->
<g id="edge63" class="edge">
<title>Node34&#45;&gt;Node7</title>
<path fill="none" stroke="#63b8ff" d="M49.7,-434.15C38.46,-426.12 26.91,-415.91 19.21,-404 -0.64,-373.31 0.21,-360.54 0.21,-324 0.21,-324 0.21,-324 0.21,-190 0.21,-64.43 977.36,-63.07 1234.06,-64.88"/>
<polygon fill="#63b8ff" stroke="#63b8ff" points="47.92,-437.17 58.16,-439.86 51.83,-431.37 47.92,-437.17"/>
</g>
<!-- Node35 -->
<g id="node35" class="node">
<title>Node35</title>
<g id="a_node35"><a xlink:href="historical__queries__adapter_8cpp.html" target="_top" xlink:title=" ">
<polygon fill="white" stroke="#666666" points="148.21,-404 28.21,-404 28.21,-374 148.21,-374 148.21,-404"/>
<text text-anchor="start" x="36.21" y="-392" font-family="Helvetica,sans-Serif" font-size="10.00">src/node/historical</text>
<text text-anchor="middle" x="88.21" y="-381" font-family="Helvetica,sans-Serif" font-size="10.00">_queries_adapter.cpp</text>
</a>
</g>
</g>
<!-- Node34&#45;&gt;Node35 -->
<g id="edge64" class="edge">
<title>Node34&#45;&gt;Node35</title>
<path fill="none" stroke="#63b8ff" d="M85.74,-429.54C86.28,-420.96 86.86,-411.61 87.33,-404.16"/>
<polygon fill="#63b8ff" stroke="#63b8ff" points="82.23,-429.6 85.1,-439.8 89.22,-430.03 82.23,-429.6"/>
</g>
<!-- Node36&#45;&gt;Node7 -->
<g id="edge67" class="edge">
<title>Node36&#45;&gt;Node7</title>
<path fill="none" stroke="#63b8ff" d="M598.43,-117.16C761.49,-105.07 1096.48,-80.23 1234.12,-70.03"/>
<polygon fill="#63b8ff" stroke="#63b8ff" points="598.13,-113.68 588.42,-117.91 598.65,-120.66 598.13,-113.68"/>
</g>
<!-- Node37&#45;&gt;Node7 -->
<g id="edge70" class="edge">
<title>Node37&#45;&gt;Node7</title>
<path fill="none" stroke="#63b8ff" d="M2035.62,-580.95C2128.33,-579.91 2279.52,-572.45 2320.21,-536 2347.43,-511.62 2339.21,-492.54 2339.21,-456 2339.21,-456 2339.21,-456 2339.21,-190 2339.21,-90.35 1579.54,-70.11 1356.24,-66.32"/>
<polygon fill="#63b8ff" stroke="#63b8ff" points="2035.42,-577.45 2025.45,-581.04 2035.48,-584.45 2035.42,-577.45"/>
</g>
<!-- Node37&#45;&gt;Node16 -->
<g id="edge81" class="edge">
<title>Node37&#45;&gt;Node16</title>
<path fill="none" stroke="#63b8ff" d="M1889.89,-570.56C1830.47,-562.07 1743.68,-549.16 1668.21,-536 1665.49,-535.53 1662.71,-535.03 1659.9,-534.52"/>
<polygon fill="#63b8ff" stroke="#63b8ff" points="1889.52,-574.05 1899.92,-571.99 1890.51,-567.12 1889.52,-574.05"/>
</g>
<!-- Node37&#45;&gt;Node21 -->
<g id="edge82" class="edge">
<title>Node37&#45;&gt;Node21</title>
<path fill="none" stroke="#63b8ff" d="M1933.2,-566.91C1920.13,-559.36 1905.27,-548.88 1895.21,-536 1860.7,-491.79 1847.28,-423.04 1843.46,-398.81"/>
<polygon fill="#63b8ff" stroke="#63b8ff" points="1931.85,-570.16 1942.3,-571.88 1935.2,-564.02 1931.85,-570.16"/>
</g>
<!-- Node38 -->
<g id="node38" class="node">
<title>Node38</title>
<g id="a_node38"><a xlink:href="src_2host_2enclave_8h.html" target="_top" xlink:title=" ">
<polygon fill="white" stroke="#666666" points="2310.71,-530.5 2205.71,-530.5 2205.71,-511.5 2310.71,-511.5 2310.71,-530.5"/>
<text text-anchor="middle" x="2258.21" y="-518.5" font-family="Helvetica,sans-Serif" font-size="10.00">src/host/enclave.h</text>
</a>
</g>
</g>
<!-- Node37&#45;&gt;Node38 -->
<g id="edge71" class="edge">
<title>Node37&#45;&gt;Node38</title>
<path fill="none" stroke="#63b8ff" d="M2019.55,-570.16C2067.39,-561.52 2136.82,-548.62 2197.21,-536 2205.3,-534.31 2213.96,-532.39 2222.14,-530.53"/>
<polygon fill="#63b8ff" stroke="#63b8ff" points="2018.91,-566.72 2009.68,-571.93 2020.15,-573.61 2018.91,-566.72"/>
</g>
<!-- Node41 -->
<g id="node41" class="node">
<title>Node41</title>
<g id="a_node41"><a xlink:href="handle__ring__buffer_8h.html" target="_top" xlink:title=" ">
<polygon fill="white" stroke="#666666" points="2018.71,-536 1903.71,-536 1903.71,-506 2018.71,-506 2018.71,-536"/>
<text text-anchor="start" x="1911.71" y="-524" font-family="Helvetica,sans-Serif" font-size="10.00">src/host/handle_ring</text>
<text text-anchor="middle" x="1961.21" y="-513" font-family="Helvetica,sans-Serif" font-size="10.00">_buffer.h</text>
</a>
</g>
</g>
<!-- Node37&#45;&gt;Node41 -->
<g id="edge77" class="edge">
<title>Node37&#45;&gt;Node41</title>
<path fill="none" stroke="#63b8ff" d="M1961.21,-561.65C1961.21,-553.36 1961.21,-543.78 1961.21,-536.11"/>
<polygon fill="#63b8ff" stroke="#63b8ff" points="1957.71,-561.87 1961.21,-571.87 1964.71,-561.87 1957.71,-561.87"/>
</g>
<!-- Node42 -->
<g id="node42" class="node">
<title>Node42</title>
<g id="a_node42"><a xlink:href="process__launcher_8h.html" target="_top" xlink:title=" ">
<polygon fill="white" stroke="#666666" points="2187.71,-530.5 2036.71,-530.5 2036.71,-511.5 2187.71,-511.5 2187.71,-530.5"/>
<text text-anchor="middle" x="2112.21" y="-518.5" font-family="Helvetica,sans-Serif" font-size="10.00">src/host/process_launcher.h</text>
</a>
</g>
</g>
<!-- Node37&#45;&gt;Node42 -->
<g id="edge79" class="edge">
<title>Node37&#45;&gt;Node42</title>
<path fill="none" stroke="#63b8ff" d="M1992.5,-568.38C2021.69,-557.07 2064.5,-540.49 2090.23,-530.52"/>
<polygon fill="#63b8ff" stroke="#63b8ff" points="1991.23,-565.12 1983.17,-571.99 1993.76,-571.64 1991.23,-565.12"/>
</g>
<!-- Node38&#45;&gt;Node4 -->
<g id="edge72" class="edge">
<title>Node38&#45;&gt;Node4</title>
<path fill="none" stroke="#63b8ff" d="M2238.17,-504.98C2225.05,-495.1 2207.55,-481.86 2192.21,-470 2175.19,-456.84 2172.91,-450.65 2154.21,-440 2121.64,-421.45 2080.86,-407.03 2053.74,-398.55"/>
<polygon fill="#63b8ff" stroke="#63b8ff" points="2236.38,-508.01 2246.47,-511.22 2240.58,-502.41 2236.38,-508.01"/>
</g>
<!-- Node39 -->
<g id="node39" class="node">
<title>Node39</title>
<g id="a_node39"><a xlink:href="sig__term_8h.html" target="_top" xlink:title=" ">
<polygon fill="white" stroke="#666666" points="2311.21,-464.5 2201.21,-464.5 2201.21,-445.5 2311.21,-445.5 2311.21,-464.5"/>
<text text-anchor="middle" x="2256.21" y="-452.5" font-family="Helvetica,sans-Serif" font-size="10.00">src/host/sig_term.h</text>
</a>
</g>
</g>
<!-- Node38&#45;&gt;Node39 -->
<g id="edge73" class="edge">
<title>Node38&#45;&gt;Node39</title>
<path fill="none" stroke="#63b8ff" d="M2257.62,-501.08C2257.25,-489.13 2256.78,-474.22 2256.49,-464.91"/>
<polygon fill="#63b8ff" stroke="#63b8ff" points="2254.13,-501.48 2257.94,-511.37 2261.13,-501.26 2254.13,-501.48"/>
</g>
<!-- Node40 -->
<g id="node40" class="node">
<title>Node40</title>
<g id="a_node40"><a xlink:href="ticker_8h.html" target="_top" xlink:title=" ">
<polygon fill="white" stroke="#666666" points="2144.71,-464.5 2051.71,-464.5 2051.71,-445.5 2144.71,-445.5 2144.71,-464.5"/>
<text text-anchor="middle" x="2098.21" y="-452.5" font-family="Helvetica,sans-Serif" font-size="10.00">src/host/ticker.h</text>
</a>
</g>
</g>
<!-- Node38&#45;&gt;Node40 -->
<g id="edge75" class="edge">
<title>Node38&#45;&gt;Node40</title>
<path fill="none" stroke="#63b8ff" d="M2226.99,-507.51C2195.37,-494.86 2147.29,-475.63 2119.7,-464.6"/>
<polygon fill="#63b8ff" stroke="#63b8ff" points="2226.05,-510.9 2236.63,-511.37 2228.65,-504.41 2226.05,-510.9"/>
</g>
<!-- Node39&#45;&gt;Node4 -->
<g id="edge74" class="edge">
<title>Node39&#45;&gt;Node4</title>
<path fill="none" stroke="#63b8ff" d="M2215.04,-442.64C2169.34,-430.03 2096.59,-409.97 2055.37,-398.6"/>
<polygon fill="#63b8ff" stroke="#63b8ff" points="2214.35,-446.08 2224.92,-445.37 2216.21,-439.34 2214.35,-446.08"/>
</g>
<!-- Node40&#45;&gt;Node4 -->
<g id="edge76" class="edge">
<title>Node40&#45;&gt;Node4</title>
<path fill="none" stroke="#63b8ff" d="M2080.5,-438.68C2066.13,-426.26 2046.39,-409.18 2034.51,-398.91"/>
<polygon fill="#63b8ff" stroke="#63b8ff" points="2078.38,-441.47 2088.23,-445.37 2082.96,-436.18 2078.38,-441.47"/>
</g>
<!-- Node41&#45;&gt;Node4 -->
<g id="edge78" class="edge">
<title>Node41&#45;&gt;Node4</title>
<path fill="none" stroke="#63b8ff" d="M1972.49,-496.73C1986.68,-467.44 2010.37,-418.57 2019.97,-398.75"/>
<polygon fill="#63b8ff" stroke="#63b8ff" points="1969.29,-495.31 1968.07,-505.84 1975.58,-498.37 1969.29,-495.31"/>
</g>
<!-- Node42&#45;&gt;Node4 -->
<g id="edge80" class="edge">
<title>Node42&#45;&gt;Node4</title>
<path fill="none" stroke="#63b8ff" d="M2084.74,-506.31C2070.3,-497.76 2053.52,-485.44 2043.21,-470 2028.16,-447.44 2024.98,-414.3 2024.35,-398.71"/>
<polygon fill="#63b8ff" stroke="#63b8ff" points="2083.36,-509.55 2093.79,-511.37 2086.77,-503.44 2083.36,-509.55"/>
</g>
</g>
</svg>
