<?xml version="1.0" encoding="UTF-8" standalone="no"?>
<!DOCTYPE svg PUBLIC "-//W3C//DTD SVG 1.1//EN"
 "http://www.w3.org/Graphics/SVG/1.1/DTD/svg11.dtd">
<!-- Generated by graphviz version 2.43.0 (0)
 -->
<!-- Title: src/ds/oversized.h Pages: 1 -->
<!--zoomable 357 -->
<svg id="main" version="1.1" xmlns="http://www.w3.org/2000/svg" xmlns:xlink="http://www.w3.org/1999/xlink" xml:space="preserve" onload="init(evt)">
<style type="text/css"><![CDATA[
.edge:hover path { stroke: red; }
.edge:hover polygon { stroke: red; fill: red; }
]]></style>
<script type="text/javascript"><![CDATA[
var edges = document.getElementsByTagName('g');
if (edges && edges.length) {
  for (var i=0;i<edges.length;i++) {
    if (edges[i].id.substr(0,4)=='edge') {
      edges[i].setAttribute('class','edge');
    }
  }
}
]]></script>
        <defs>
                <circle id="rim" cx="0" cy="0" r="7"/>
                <circle id="rim2" cx="0" cy="0" r="3.5"/>
                <g id="zoomPlus">
                        <use xlink:href="#rim" fill="#404040">
                                <set attributeName="fill" to="#808080" begin="zoomplus.mouseover" end="zoomplus.mouseout"/>
                        </use>
                        <path d="M-4,0h8M0,-4v8" fill="none" stroke="white" stroke-width="1.5" pointer-events="none"/>
                </g>
                <g id="zoomMin">
                        <use xlink:href="#rim" fill="#404040">
                                <set attributeName="fill" to="#808080" begin="zoomminus.mouseover" end="zoomminus.mouseout"/>
                        </use>
                        <path d="M-4,0h8" fill="none" stroke="white" stroke-width="1.5" pointer-events="none"/>
                </g>
                <g id="dirArrow">
                        <path fill="none" stroke="white" stroke-width="1.5" d="M0,-3.0v7 M-2.5,-0.5L0,-3.0L2.5,-0.5"/>
                </g>
               <g id="resetDef">
                       <use xlink:href="#rim2" fill="#404040">
                               <set attributeName="fill" to="#808080" begin="reset.mouseover" end="reset.mouseout"/>
                       </use>
               </g>
        </defs>

<script type="text/javascript">
var viewWidth = 1613;
var viewHeight = 357;
var sectionId = 'dynsection-0';
</script>
<script xlink:href="svgpan.js"/>
<svg id="graph" class="graph">
<g id="viewport">
<title>src/ds/oversized.h</title>
<!-- Node1 -->
<g id="node1" class="node">
<title>Node1</title>
<g id="a_node1"><a xlink:title=" ">
<polygon fill="#999999" stroke="#666666" points="764,-349 660,-349 660,-330 764,-330 764,-349"/>
<text text-anchor="middle" x="712" y="-337" font-family="Helvetica,sans-Serif" font-size="10.00">src/ds/oversized.h</text>
</a>
</g>
</g>
<!-- Node2 -->
<g id="node2" class="node">
<title>Node2</title>
<g id="a_node2"><a xlink:href="messaging_8h.html" target="_top" xlink:title=" ">
<polygon fill="white" stroke="#666666" points="751.5,-294 672.5,-294 672.5,-275 751.5,-275 751.5,-294"/>
<text text-anchor="middle" x="712" y="-282" font-family="Helvetica,sans-Serif" font-size="10.00">messaging.h</text>
</a>
</g>
</g>
<!-- Node1&#45;&gt;Node2 -->
<g id="edge1" class="edge">
<title>Node1&#45;&gt;Node2</title>
<path fill="none" stroke="#63b8ff" d="M712,-329.75C712,-322.8 712,-312.85 712,-304.13"/>
<polygon fill="#63b8ff" stroke="#63b8ff" points="715.5,-304.09 712,-294.09 708.5,-304.09 715.5,-304.09"/>
</g>
<!-- Node5 -->
<g id="node5" class="node">
<title>Node5</title>
<g id="a_node5"><a xlink:title=" ">
<polygon fill="#e0e0e0" stroke="#999999" points="1281.5,-129 1202.5,-129 1202.5,-110 1281.5,-110 1281.5,-129"/>
<text text-anchor="middle" x="1242" y="-117" font-family="Helvetica,sans-Serif" font-size="10.00">fmt/format.h</text>
</a>
</g>
</g>
<!-- Node1&#45;&gt;Node5 -->
<g id="edge69" class="edge">
<title>Node1&#45;&gt;Node5</title>
<path fill="none" stroke="#63b8ff" d="M764.16,-334.25C904.6,-321.61 1284.99,-279.06 1358,-184 1363.14,-177.3 1362.78,-171.96 1358,-165 1349.42,-152.52 1315.34,-140.34 1286.33,-131.89"/>
<polygon fill="#63b8ff" stroke="#63b8ff" points="1286.9,-128.41 1276.32,-129.06 1284.99,-135.15 1286.9,-128.41"/>
</g>
<!-- Node18 -->
<g id="node18" class="node">
<title>Node18</title>
<g id="a_node18"><a xlink:href="ring__buffer_8h.html" target="_top" xlink:title=" ">
<polygon fill="white" stroke="#666666" points="558.5,-239 481.5,-239 481.5,-220 558.5,-220 558.5,-239"/>
<text text-anchor="middle" x="520" y="-227" font-family="Helvetica,sans-Serif" font-size="10.00">ring_buffer.h</text>
</a>
</g>
</g>
<!-- Node1&#45;&gt;Node18 -->
<g id="edge67" class="edge">
<title>Node1&#45;&gt;Node18</title>
<path fill="none" stroke="#63b8ff" d="M696.61,-329.84C663.25,-311.08 584.04,-266.52 544.02,-244.01"/>
<polygon fill="#63b8ff" stroke="#63b8ff" points="545.63,-240.9 535.19,-239.05 542.19,-247 545.63,-240.9"/>
</g>
<!-- Node36 -->
<g id="node36" class="node">
<title>Node36</title>
<g id="a_node36"><a xlink:href="serialized_8h.html" target="_top" xlink:title=" ">
<polygon fill="white" stroke="#666666" points="278.5,-74 205.5,-74 205.5,-55 278.5,-55 278.5,-74"/>
<text text-anchor="middle" x="242" y="-62" font-family="Helvetica,sans-Serif" font-size="10.00">serialized.h</text>
</a>
</g>
</g>
<!-- Node1&#45;&gt;Node36 -->
<g id="edge68" class="edge">
<title>Node1&#45;&gt;Node36</title>
<path fill="none" stroke="#63b8ff" d="M659.89,-334.54C514.67,-322.79 116,-285.54 116,-230.5 116,-230.5 116,-230.5 116,-173.5 116,-141.27 127.66,-132.22 151,-110 166.15,-95.57 186.87,-84.94 204.72,-77.7"/>
<polygon fill="#63b8ff" stroke="#63b8ff" points="206.2,-80.88 214.28,-74.02 203.69,-74.34 206.2,-80.88"/>
</g>
<!-- Node44 -->
<g id="node44" class="node">
<title>Node44</title>
<g id="a_node44"><a xlink:title=" ">
<polygon fill="#e0e0e0" stroke="#999999" points="1519.5,-294 1426.5,-294 1426.5,-275 1519.5,-275 1519.5,-294"/>
<text text-anchor="middle" x="1473" y="-282" font-family="Helvetica,sans-Serif" font-size="10.00">unordered_map</text>
</a>
</g>
</g>
<!-- Node1&#45;&gt;Node44 -->
<g id="edge70" class="edge">
<title>Node1&#45;&gt;Node44</title>
<path fill="none" stroke="#63b8ff" d="M764.36,-336.51C880.93,-331.8 1170.6,-318.46 1412,-294 1413.46,-293.85 1414.94,-293.7 1416.44,-293.53"/>
<polygon fill="#63b8ff" stroke="#63b8ff" points="1416.89,-297 1426.42,-292.36 1416.08,-290.05 1416.89,-297"/>
</g>
<!-- Node3 -->
<g id="node3" class="node">
<title>Node3</title>
<g id="a_node3"><a xlink:href="logger_8h.html" target="_top" xlink:title=" ">
<polygon fill="white" stroke="#666666" points="1143.5,-239 1056.5,-239 1056.5,-220 1143.5,-220 1143.5,-239"/>
<text text-anchor="middle" x="1100" y="-227" font-family="Helvetica,sans-Serif" font-size="10.00">ccf/ds/logger.h</text>
</a>
</g>
</g>
<!-- Node2&#45;&gt;Node3 -->
<g id="edge2" class="edge">
<title>Node2&#45;&gt;Node3</title>
<path fill="none" stroke="#63b8ff" d="M751.7,-278.08C821.66,-268.52 966.97,-248.67 1045.99,-237.88"/>
<polygon fill="#63b8ff" stroke="#63b8ff" points="1046.79,-241.3 1056.22,-236.48 1045.84,-234.37 1046.79,-241.3"/>
</g>
<!-- Node10 -->
<g id="node10" class="node">
<title>Node10</title>
<g id="a_node10"><a xlink:title=" ">
<polygon fill="#e0e0e0" stroke="#999999" points="1588,-129 1550,-129 1550,-110 1588,-110 1588,-129"/>
<text text-anchor="middle" x="1569" y="-117" font-family="Helvetica,sans-Serif" font-size="10.00">map</text>
</a>
</g>
</g>
<!-- Node2&#45;&gt;Node10 -->
<g id="edge65" class="edge">
<title>Node2&#45;&gt;Node10</title>
<path fill="none" stroke="#63b8ff" d="M751.69,-283.99C899.73,-285.04 1417.55,-281.56 1543,-184 1556.94,-173.16 1563.45,-153.59 1566.47,-139.03"/>
<polygon fill="#63b8ff" stroke="#63b8ff" points="1569.93,-139.54 1568.15,-129.1 1563.03,-138.37 1569.93,-139.54"/>
</g>
<!-- Node2&#45;&gt;Node18 -->
<g id="edge19" class="edge">
<title>Node2&#45;&gt;Node18</title>
<path fill="none" stroke="#63b8ff" d="M681.15,-274.98C648.5,-265.97 596.8,-251.7 560.8,-241.76"/>
<polygon fill="#63b8ff" stroke="#63b8ff" points="561.66,-238.37 551.09,-239.08 559.8,-245.12 561.66,-238.37"/>
</g>
<!-- Node37 -->
<g id="node37" class="node">
<title>Node37</title>
<g id="a_node37"><a xlink:title=" ">
<polygon fill="#e0e0e0" stroke="#999999" points="312.5,-19 247.5,-19 247.5,0 312.5,0 312.5,-19"/>
<text text-anchor="middle" x="280" y="-7" font-family="Helvetica,sans-Serif" font-size="10.00">stdexcept</text>
</a>
</g>
</g>
<!-- Node2&#45;&gt;Node37 -->
<g id="edge66" class="edge">
<title>Node2&#45;&gt;Node37</title>
<path fill="none" stroke="#63b8ff" d="M672.5,-275.06C650.8,-268.55 624.94,-257.44 608,-239 587.89,-217.11 587,-205.23 587,-175.5 587,-175.5 587,-175.5 587,-118.5 587,-63.11 406.91,-29.21 322.59,-16.38"/>
<polygon fill="#63b8ff" stroke="#63b8ff" points="322.97,-12.9 312.56,-14.88 321.94,-19.82 322.97,-12.9"/>
</g>
<!-- Node40 -->
<g id="node40" class="node">
<title>Node40</title>
<g id="a_node40"><a xlink:title=" ">
<polygon fill="#e0e0e0" stroke="#999999" points="925,-129 875,-129 875,-110 925,-110 925,-129"/>
<text text-anchor="middle" x="900" y="-117" font-family="Helvetica,sans-Serif" font-size="10.00">atomic</text>
</a>
</g>
</g>
<!-- Node2&#45;&gt;Node40 -->
<g id="edge63" class="edge">
<title>Node2&#45;&gt;Node40</title>
<path fill="none" stroke="#63b8ff" d="M716.62,-274.9C728.4,-253.65 761.62,-197.99 803,-165 821.47,-150.28 845.59,-139.18 865.16,-131.76"/>
<polygon fill="#63b8ff" stroke="#63b8ff" points="866.44,-135.01 874.64,-128.3 864.05,-128.44 866.44,-135.01"/>
</g>
<!-- Node43 -->
<g id="node43" class="node">
<title>Node43</title>
<g id="a_node43"><a xlink:title=" ">
<polygon fill="#e0e0e0" stroke="#999999" points="724.5,-239 617.5,-239 617.5,-220 724.5,-220 724.5,-239"/>
<text text-anchor="middle" x="671" y="-227" font-family="Helvetica,sans-Serif" font-size="10.00">condition_variable</text>
</a>
</g>
</g>
<!-- Node2&#45;&gt;Node43 -->
<g id="edge64" class="edge">
<title>Node2&#45;&gt;Node43</title>
<path fill="none" stroke="#63b8ff" d="M705.23,-274.75C699.44,-267.26 690.94,-256.28 683.86,-247.13"/>
<polygon fill="#63b8ff" stroke="#63b8ff" points="686.53,-244.86 677.64,-239.09 680.99,-249.14 686.53,-244.86"/>
</g>
<!-- Node4 -->
<g id="node4" class="node">
<title>Node4</title>
<g id="a_node4"><a xlink:href="enum__formatter_8h.html" target="_top" xlink:title=" ">
<polygon fill="white" stroke="#666666" points="1332,-184 1196,-184 1196,-165 1332,-165 1332,-184"/>
<text text-anchor="middle" x="1264" y="-172" font-family="Helvetica,sans-Serif" font-size="10.00">ccf/ds/enum_formatter.h</text>
</a>
</g>
</g>
<!-- Node3&#45;&gt;Node4 -->
<g id="edge3" class="edge">
<title>Node3&#45;&gt;Node4</title>
<path fill="none" stroke="#63b8ff" d="M1126.35,-219.98C1153.76,-211.13 1196.89,-197.19 1227.56,-187.28"/>
<polygon fill="#63b8ff" stroke="#63b8ff" points="1229,-190.49 1237.44,-184.08 1226.85,-183.83 1229,-190.49"/>
</g>
<!-- Node3&#45;&gt;Node5 -->
<g id="edge13" class="edge">
<title>Node3&#45;&gt;Node5</title>
<path fill="none" stroke="#63b8ff" d="M1143.59,-226.9C1206.09,-223.59 1316.37,-213.6 1341,-184 1360.62,-160.43 1323.15,-142.66 1288.82,-132"/>
<polygon fill="#63b8ff" stroke="#63b8ff" points="1289.39,-128.52 1278.8,-129.05 1287.41,-135.23 1289.39,-128.52"/>
</g>
<!-- Node6 -->
<g id="node6" class="node">
<title>Node6</title>
<g id="a_node6"><a xlink:href="thread__ids_8h.html" target="_top" xlink:title=" ">
<polygon fill="white" stroke="#666666" points="1534,-184 1426,-184 1426,-165 1534,-165 1534,-184"/>
<text text-anchor="middle" x="1480" y="-172" font-family="Helvetica,sans-Serif" font-size="10.00">ccf/ds/thread_ids.h</text>
</a>
</g>
</g>
<!-- Node3&#45;&gt;Node6 -->
<g id="edge5" class="edge">
<title>Node3&#45;&gt;Node6</title>
<path fill="none" stroke="#63b8ff" d="M1143.59,-222.42C1210.38,-213.1 1338.43,-195.25 1415.84,-184.45"/>
<polygon fill="#63b8ff" stroke="#63b8ff" points="1416.53,-187.89 1425.95,-183.04 1415.56,-180.95 1416.53,-187.89"/>
</g>
<!-- Node12 -->
<g id="node12" class="node">
<title>Node12</title>
<g id="a_node12"><a xlink:title=" ">
<polygon fill="#e0e0e0" stroke="#999999" points="898.5,-184 819.5,-184 819.5,-165 898.5,-165 898.5,-184"/>
<text text-anchor="middle" x="859" y="-172" font-family="Helvetica,sans-Serif" font-size="10.00">fmt/chrono.h</text>
</a>
</g>
</g>
<!-- Node3&#45;&gt;Node12 -->
<g id="edge12" class="edge">
<title>Node3&#45;&gt;Node12</title>
<path fill="none" stroke="#63b8ff" d="M1061.28,-219.98C1019.59,-210.82 953.18,-196.21 907.91,-186.26"/>
<polygon fill="#63b8ff" stroke="#63b8ff" points="908.54,-182.81 898.02,-184.08 907.04,-189.65 908.54,-182.81"/>
</g>
<!-- Node13 -->
<g id="node13" class="node">
<title>Node13</title>
<g id="a_node13"><a xlink:title=" ">
<polygon fill="#e0e0e0" stroke="#999999" points="976,-184 916,-184 916,-165 976,-165 976,-184"/>
<text text-anchor="middle" x="946" y="-172" font-family="Helvetica,sans-Serif" font-size="10.00">iostream</text>
</a>
</g>
</g>
<!-- Node3&#45;&gt;Node13 -->
<g id="edge14" class="edge">
<title>Node3&#45;&gt;Node13</title>
<path fill="none" stroke="#63b8ff" d="M1075.26,-219.98C1049.63,-211.16 1009.37,-197.31 980.59,-187.41"/>
<polygon fill="#63b8ff" stroke="#63b8ff" points="981.53,-184.03 970.94,-184.08 979.25,-190.65 981.53,-184.03"/>
</g>
<!-- Node14 -->
<g id="node14" class="node">
<title>Node14</title>
<g id="a_node14"><a xlink:title=" ">
<polygon fill="#e0e0e0" stroke="#999999" points="1104,-184 994,-184 994,-165 1104,-165 1104,-184"/>
<text text-anchor="middle" x="1049" y="-172" font-family="Helvetica,sans-Serif" font-size="10.00">nlohmann/json.hpp</text>
</a>
</g>
</g>
<!-- Node3&#45;&gt;Node14 -->
<g id="edge15" class="edge">
<title>Node3&#45;&gt;Node14</title>
<path fill="none" stroke="#63b8ff" d="M1091.58,-219.75C1084.23,-212.11 1073.37,-200.82 1064.46,-191.56"/>
<polygon fill="#63b8ff" stroke="#63b8ff" points="1066.72,-188.87 1057.26,-184.09 1061.68,-193.72 1066.72,-188.87"/>
</g>
<!-- Node15 -->
<g id="node15" class="node">
<title>Node15</title>
<g id="a_node15"><a xlink:title=" ">
<polygon fill="#e0e0e0" stroke="#999999" points="999,-129 943,-129 943,-110 999,-110 999,-129"/>
<text text-anchor="middle" x="971" y="-117" font-family="Helvetica,sans-Serif" font-size="10.00">optional</text>
</a>
</g>
</g>
<!-- Node3&#45;&gt;Node15 -->
<g id="edge16" class="edge">
<title>Node3&#45;&gt;Node15</title>
<path fill="none" stroke="#63b8ff" d="M1056.38,-228.44C983.34,-227.32 841.22,-220.38 810,-184 804.5,-177.59 804.89,-171.72 810,-165 813.81,-159.99 886.62,-141.28 933,-129.78"/>
<polygon fill="#63b8ff" stroke="#63b8ff" points="933.88,-133.17 942.75,-127.37 932.2,-126.37 933.88,-133.17"/>
</g>
<!-- Node16 -->
<g id="node16" class="node">
<title>Node16</title>
<g id="a_node16"><a xlink:title=" ">
<polygon fill="#e0e0e0" stroke="#999999" points="1178,-184 1122,-184 1122,-165 1178,-165 1178,-184"/>
<text text-anchor="middle" x="1150" y="-172" font-family="Helvetica,sans-Serif" font-size="10.00">sstream</text>
</a>
</g>
</g>
<!-- Node3&#45;&gt;Node16 -->
<g id="edge17" class="edge">
<title>Node3&#45;&gt;Node16</title>
<path fill="none" stroke="#63b8ff" d="M1108.26,-219.75C1115.46,-212.11 1126.11,-200.82 1134.85,-191.56"/>
<polygon fill="#63b8ff" stroke="#63b8ff" points="1137.58,-193.76 1141.9,-184.09 1132.49,-188.96 1137.58,-193.76"/>
</g>
<!-- Node17 -->
<g id="node17" class="node">
<title>Node17</title>
<g id="a_node17"><a xlink:title=" ">
<polygon fill="#e0e0e0" stroke="#999999" points="1053.5,-19 984.5,-19 984.5,0 1053.5,0 1053.5,-19"/>
<text text-anchor="middle" x="1019" y="-7" font-family="Helvetica,sans-Serif" font-size="10.00">type_traits</text>
</a>
</g>
</g>
<!-- Node3&#45;&gt;Node17 -->
<g id="edge18" class="edge">
<title>Node3&#45;&gt;Node17</title>
<path fill="none" stroke="#63b8ff" d="M1143.59,-227.86C1240.97,-225.83 1473.14,-217.52 1543,-184 1579.71,-166.39 1623.23,-141.14 1597,-110 1528.55,-28.76 1187.66,-13.85 1063.95,-11.11"/>
<polygon fill="#63b8ff" stroke="#63b8ff" points="1063.77,-7.61 1053.7,-10.91 1063.62,-14.61 1063.77,-7.61"/>
</g>
<!-- Node4&#45;&gt;Node5 -->
<g id="edge4" class="edge">
<title>Node4&#45;&gt;Node5</title>
<path fill="none" stroke="#63b8ff" d="M1260.37,-164.75C1257.42,-157.65 1253.17,-147.4 1249.49,-138.56"/>
<polygon fill="#63b8ff" stroke="#63b8ff" points="1252.63,-136.98 1245.57,-129.09 1246.17,-139.67 1252.63,-136.98"/>
</g>
<!-- Node6&#45;&gt;Node5 -->
<g id="edge6" class="edge">
<title>Node6&#45;&gt;Node5</title>
<path fill="none" stroke="#63b8ff" d="M1441.76,-164.98C1400.59,-155.82 1335.01,-141.21 1290.3,-131.26"/>
<polygon fill="#63b8ff" stroke="#63b8ff" points="1291.06,-127.84 1280.54,-129.08 1289.54,-134.67 1291.06,-127.84"/>
</g>
<!-- Node7 -->
<g id="node7" class="node">
<title>Node7</title>
<g id="a_node7"><a xlink:title=" ">
<polygon fill="#e0e0e0" stroke="#999999" points="1452,-129 1366,-129 1366,-110 1452,-110 1452,-129"/>
<text text-anchor="middle" x="1409" y="-117" font-family="Helvetica,sans-Serif" font-size="10.00">fmt/ostream.h</text>
</a>
</g>
</g>
<!-- Node6&#45;&gt;Node7 -->
<g id="edge7" class="edge">
<title>Node6&#45;&gt;Node7</title>
<path fill="none" stroke="#63b8ff" d="M1468.59,-164.98C1457.89,-157 1441.66,-144.88 1428.84,-135.31"/>
<polygon fill="#63b8ff" stroke="#63b8ff" points="1430.72,-132.35 1420.61,-129.17 1426.53,-137.96 1430.72,-132.35"/>
</g>
<!-- Node8 -->
<g id="node8" class="node">
<title>Node8</title>
<g id="a_node8"><a xlink:title=" ">
<polygon fill="#e0e0e0" stroke="#999999" points="1531.5,-129 1470.5,-129 1470.5,-110 1531.5,-110 1531.5,-129"/>
<text text-anchor="middle" x="1501" y="-117" font-family="Helvetica,sans-Serif" font-size="10.00">fmt/std.h</text>
</a>
</g>
</g>
<!-- Node6&#45;&gt;Node8 -->
<g id="edge8" class="edge">
<title>Node6&#45;&gt;Node8</title>
<path fill="none" stroke="#63b8ff" d="M1483.47,-164.75C1486.28,-157.65 1490.34,-147.4 1493.85,-138.56"/>
<polygon fill="#63b8ff" stroke="#63b8ff" points="1497.17,-139.68 1497.6,-129.09 1490.66,-137.1 1497.17,-139.68"/>
</g>
<!-- Node9 -->
<g id="node9" class="node">
<title>Node9</title>
<g id="a_node9"><a xlink:title=" ">
<polygon fill="#e0e0e0" stroke="#999999" points="1133,-129 1089,-129 1089,-110 1133,-110 1133,-129"/>
<text text-anchor="middle" x="1111" y="-117" font-family="Helvetica,sans-Serif" font-size="10.00">limits</text>
</a>
</g>
</g>
<!-- Node6&#45;&gt;Node9 -->
<g id="edge9" class="edge">
<title>Node6&#45;&gt;Node9</title>
<path fill="none" stroke="#63b8ff" d="M1425.95,-165.74C1348.17,-154.57 1207.08,-134.3 1143.55,-125.17"/>
<polygon fill="#63b8ff" stroke="#63b8ff" points="1143.72,-121.66 1133.33,-123.71 1142.73,-128.59 1143.72,-121.66"/>
</g>
<!-- Node6&#45;&gt;Node10 -->
<g id="edge10" class="edge">
<title>Node6&#45;&gt;Node10</title>
<path fill="none" stroke="#63b8ff" d="M1494.3,-164.98C1508.1,-156.77 1529.24,-144.18 1545.51,-134.49"/>
<polygon fill="#63b8ff" stroke="#63b8ff" points="1547.64,-137.29 1554.44,-129.17 1544.06,-131.28 1547.64,-137.29"/>
</g>
<!-- Node11 -->
<g id="node11" class="node">
<title>Node11</title>
<g id="a_node11"><a xlink:title=" ">
<polygon fill="#e0e0e0" stroke="#999999" points="1348,-129 1300,-129 1300,-110 1348,-110 1348,-129"/>
<text text-anchor="middle" x="1324" y="-117" font-family="Helvetica,sans-Serif" font-size="10.00">thread</text>
</a>
</g>
</g>
<!-- Node6&#45;&gt;Node11 -->
<g id="edge11" class="edge">
<title>Node6&#45;&gt;Node11</title>
<path fill="none" stroke="#63b8ff" d="M1454.94,-164.98C1428.66,-156.06 1387.22,-141.98 1358.01,-132.05"/>
<polygon fill="#63b8ff" stroke="#63b8ff" points="1358.83,-128.64 1348.23,-128.73 1356.57,-135.26 1358.83,-128.64"/>
</g>
<!-- Node19 -->
<g id="node19" class="node">
<title>Node19</title>
<g id="a_node19"><a xlink:href="mem_8h.html" target="_top" xlink:title=" ">
<polygon fill="white" stroke="#666666" points="230,-184 144,-184 144,-165 230,-165 230,-184"/>
<text text-anchor="middle" x="187" y="-172" font-family="Helvetica,sans-Serif" font-size="10.00">ccf/pal/mem.h</text>
</a>
</g>
</g>
<!-- Node18&#45;&gt;Node19 -->
<g id="edge20" class="edge">
<title>Node18&#45;&gt;Node19</title>
<path fill="none" stroke="#63b8ff" d="M481.48,-222.37C421.96,-212.9 307.5,-194.68 240.15,-183.96"/>
<polygon fill="#63b8ff" stroke="#63b8ff" points="240.59,-180.48 230.16,-182.37 239.49,-187.4 240.59,-180.48"/>
</g>
<!-- Node21 -->
<g id="node21" class="node">
<title>Node21</title>
<g id="a_node21"><a xlink:title=" ">
<polygon fill="#e0e0e0" stroke="#999999" points="50,-19 0,-19 0,0 50,0 50,-19"/>
<text text-anchor="middle" x="25" y="-7" font-family="Helvetica,sans-Serif" font-size="10.00">cstring</text>
</a>
</g>
</g>
<!-- Node18&#45;&gt;Node21 -->
<g id="edge61" class="edge">
<title>Node18&#45;&gt;Node21</title>
<path fill="none" stroke="#63b8ff" d="M501.92,-219.98C456.07,-198.67 331.14,-142.45 222,-110 144.63,-87 103.61,-128.41 44,-74 31.66,-62.74 27.21,-43.82 25.66,-29.56"/>
<polygon fill="#63b8ff" stroke="#63b8ff" points="29.14,-29.09 24.95,-19.36 22.15,-29.57 29.14,-29.09"/>
</g>
<!-- Node22 -->
<g id="node22" class="node">
<title>Node22</title>
<g id="a_node22"><a xlink:href="ring__buffer__types_8h.html" target="_top" xlink:title=" ">
<polygon fill="white" stroke="#666666" points="725,-184 615,-184 615,-165 725,-165 725,-184"/>
<text text-anchor="middle" x="670" y="-172" font-family="Helvetica,sans-Serif" font-size="10.00">ring_buffer_types.h</text>
</a>
</g>
</g>
<!-- Node18&#45;&gt;Node22 -->
<g id="edge24" class="edge">
<title>Node18&#45;&gt;Node22</title>
<path fill="none" stroke="#63b8ff" d="M544.1,-219.98C568.88,-211.23 607.7,-197.51 635.69,-187.62"/>
<polygon fill="#63b8ff" stroke="#63b8ff" points="637.2,-190.8 645.46,-184.17 634.87,-184.2 637.2,-190.8"/>
</g>
<!-- Node42 -->
<g id="node42" class="node">
<title>Node42</title>
<g id="a_node42"><a xlink:title=" ">
<polygon fill="#e0e0e0" stroke="#999999" points="552.5,-184 487.5,-184 487.5,-165 552.5,-165 552.5,-184"/>
<text text-anchor="middle" x="520" y="-172" font-family="Helvetica,sans-Serif" font-size="10.00">functional</text>
</a>
</g>
</g>
<!-- Node18&#45;&gt;Node42 -->
<g id="edge62" class="edge">
<title>Node18&#45;&gt;Node42</title>
<path fill="none" stroke="#63b8ff" d="M520,-219.75C520,-212.8 520,-202.85 520,-194.13"/>
<polygon fill="#63b8ff" stroke="#63b8ff" points="523.5,-194.09 520,-184.09 516.5,-194.09 523.5,-194.09"/>
</g>
<!-- Node19&#45;&gt;Node9 -->
<g id="edge23" class="edge">
<title>Node19&#45;&gt;Node9</title>
<path fill="none" stroke="#63b8ff" d="M230.2,-171.59C352.36,-166.09 710.72,-149.32 1008,-129 1031.78,-127.37 1058.62,-125.15 1078.93,-123.38"/>
<polygon fill="#63b8ff" stroke="#63b8ff" points="1079.26,-126.87 1088.91,-122.5 1078.64,-119.89 1079.26,-126.87"/>
</g>
<!-- Node20 -->
<g id="node20" class="node">
<title>Node20</title>
<g id="a_node20"><a xlink:title=" ">
<polygon fill="#e0e0e0" stroke="#999999" points="213.5,-129 160.5,-129 160.5,-110 213.5,-110 213.5,-129"/>
<text text-anchor="middle" x="187" y="-117" font-family="Helvetica,sans-Serif" font-size="10.00">stdlib.h</text>
</a>
</g>
</g>
<!-- Node19&#45;&gt;Node20 -->
<g id="edge21" class="edge">
<title>Node19&#45;&gt;Node20</title>
<path fill="none" stroke="#63b8ff" d="M187,-164.75C187,-157.8 187,-147.85 187,-139.13"/>
<polygon fill="#63b8ff" stroke="#63b8ff" points="190.5,-139.09 187,-129.09 183.5,-139.09 190.5,-139.09"/>
</g>
<!-- Node19&#45;&gt;Node21 -->
<g id="edge22" class="edge">
<title>Node19&#45;&gt;Node21</title>
<path fill="none" stroke="#63b8ff" d="M151.31,-164.92C109.21,-152.66 41.16,-125.69 11,-74 2.84,-60.01 8.22,-41.77 14.53,-28.42"/>
<polygon fill="#63b8ff" stroke="#63b8ff" points="17.76,-29.8 19.32,-19.33 11.56,-26.54 17.76,-29.8"/>
</g>
<!-- Node22&#45;&gt;Node5 -->
<g id="edge56" class="edge">
<title>Node22&#45;&gt;Node5</title>
<path fill="none" stroke="#63b8ff" d="M725.11,-168.39C836.2,-158.1 1085.55,-135 1192.14,-125.12"/>
<polygon fill="#63b8ff" stroke="#63b8ff" points="1192.66,-128.59 1202.3,-124.18 1192.02,-121.62 1192.66,-128.59"/>
</g>
<!-- Node22&#45;&gt;Node15 -->
<g id="edge57" class="edge">
<title>Node22&#45;&gt;Node15</title>
<path fill="none" stroke="#63b8ff" d="M725.03,-165.19C776.36,-157.22 855.29,-144.41 932.82,-129.14"/>
<polygon fill="#63b8ff" stroke="#63b8ff" points="933.63,-132.55 942.76,-127.17 932.26,-125.68 933.63,-132.55"/>
</g>
<!-- Node23 -->
<g id="node23" class="node">
<title>Node23</title>
<g id="a_node23"><a xlink:href="include_2ccf_2ds_2hash_8h.html" target="_top" xlink:title=" ">
<polygon fill="white" stroke="#666666" points="449,-129 369,-129 369,-110 449,-110 449,-129"/>
<text text-anchor="middle" x="409" y="-117" font-family="Helvetica,sans-Serif" font-size="10.00">ccf/ds/hash.h</text>
</a>
</g>
</g>
<!-- Node22&#45;&gt;Node23 -->
<g id="edge25" class="edge">
<title>Node22&#45;&gt;Node23</title>
<path fill="none" stroke="#63b8ff" d="M628.07,-164.98C582.06,-155.64 508.24,-140.65 459.19,-130.69"/>
<polygon fill="#63b8ff" stroke="#63b8ff" points="459.61,-127.21 449.12,-128.65 458.22,-134.07 459.61,-127.21"/>
</g>
<!-- Node27 -->
<g id="node27" class="node">
<title>Node27</title>
<g id="a_node27"><a xlink:title=" ">
<polygon fill="#e0e0e0" stroke="#999999" points="497.5,-19 450.5,-19 450.5,0 497.5,0 497.5,-19"/>
<text text-anchor="middle" x="474" y="-7" font-family="Helvetica,sans-Serif" font-size="10.00">vector</text>
</a>
</g>
</g>
<!-- Node22&#45;&gt;Node27 -->
<g id="edge60" class="edge">
<title>Node22&#45;&gt;Node27</title>
<path fill="none" stroke="#63b8ff" d="M665.01,-164.97C659.77,-156.02 651.3,-141.52 644,-129 624.85,-96.13 630.32,-79.23 601,-55 574.17,-32.83 535.56,-21.39 507.97,-15.7"/>
<polygon fill="#63b8ff" stroke="#63b8ff" points="508.46,-12.23 497.98,-13.8 507.14,-19.11 508.46,-12.23"/>
</g>
<!-- Node31 -->
<g id="node31" class="node">
<title>Node31</title>
<g id="a_node31"><a xlink:href="nonstd_8h.html" target="_top" xlink:title=" ">
<polygon fill="white" stroke="#666666" points="917,-74 827,-74 827,-55 917,-55 917,-74"/>
<text text-anchor="middle" x="872" y="-62" font-family="Helvetica,sans-Serif" font-size="10.00">ccf/ds/nonstd.h</text>
</a>
</g>
</g>
<!-- Node22&#45;&gt;Node31 -->
<g id="edge35" class="edge">
<title>Node22&#45;&gt;Node31</title>
<path fill="none" stroke="#63b8ff" d="M700.7,-164.95C725.64,-157.35 761.25,-144.97 790,-129 814.17,-115.57 838.85,-95.41 854.73,-81.42"/>
<polygon fill="#63b8ff" stroke="#63b8ff" points="857.48,-83.65 862.59,-74.36 852.81,-78.44 857.48,-83.65"/>
</g>
<!-- Node34 -->
<g id="node34" class="node">
<title>Node34</title>
<g id="a_node34"><a xlink:title=" ">
<polygon fill="#e0e0e0" stroke="#999999" points="816,-19 772,-19 772,0 816,0 816,-19"/>
<text text-anchor="middle" x="794" y="-7" font-family="Helvetica,sans-Serif" font-size="10.00">string</text>
</a>
</g>
</g>
<!-- Node22&#45;&gt;Node34 -->
<g id="edge59" class="edge">
<title>Node22&#45;&gt;Node34</title>
<path fill="none" stroke="#63b8ff" d="M705.25,-164.94C735.84,-157.05 781.06,-144.27 819,-129 831.4,-124.01 919.04,-85.41 926,-74 930.4,-66.79 930.93,-61.86 926,-55 922.96,-50.76 864.03,-32.02 825.95,-20.25"/>
<polygon fill="#63b8ff" stroke="#63b8ff" points="826.88,-16.87 816.29,-17.27 824.82,-23.56 826.88,-16.87"/>
</g>
<!-- Node35 -->
<g id="node35" class="node">
<title>Node35</title>
<g id="a_node35"><a xlink:href="serializer_8h.html" target="_top" xlink:title=" ">
<polygon fill="white" stroke="#666666" points="723,-129 653,-129 653,-110 723,-110 723,-129"/>
<text text-anchor="middle" x="688" y="-117" font-family="Helvetica,sans-Serif" font-size="10.00">serializer.h</text>
</a>
</g>
</g>
<!-- Node22&#45;&gt;Node35 -->
<g id="edge43" class="edge">
<title>Node22&#45;&gt;Node35</title>
<path fill="none" stroke="#63b8ff" d="M672.97,-164.75C675.36,-157.72 678.79,-147.62 681.77,-138.84"/>
<polygon fill="#63b8ff" stroke="#63b8ff" points="685.18,-139.68 685.08,-129.09 678.55,-137.43 685.18,-139.68"/>
</g>
<!-- Node22&#45;&gt;Node40 -->
<g id="edge55" class="edge">
<title>Node22&#45;&gt;Node40</title>
<path fill="none" stroke="#63b8ff" d="M706.95,-164.98C750.48,-154.96 822.24,-138.42 864.93,-128.58"/>
<polygon fill="#63b8ff" stroke="#63b8ff" points="865.9,-131.95 874.86,-126.29 864.33,-125.13 865.9,-131.95"/>
</g>
<!-- Node41 -->
<g id="node41" class="node">
<title>Node41</title>
<g id="a_node41"><a xlink:title=" ">
<polygon fill="#e0e0e0" stroke="#999999" points="781,-129 741,-129 741,-110 781,-110 781,-129"/>
<text text-anchor="middle" x="761" y="-117" font-family="Helvetica,sans-Serif" font-size="10.00">span</text>
</a>
</g>
</g>
<!-- Node22&#45;&gt;Node41 -->
<g id="edge58" class="edge">
<title>Node22&#45;&gt;Node41</title>
<path fill="none" stroke="#63b8ff" d="M684.62,-164.98C698.86,-156.69 720.75,-143.94 737.45,-134.22"/>
<polygon fill="#63b8ff" stroke="#63b8ff" points="739.23,-137.23 746.11,-129.17 735.71,-131.18 739.23,-137.23"/>
</g>
<!-- Node24 -->
<g id="node24" class="node">
<title>Node24</title>
<g id="a_node24"><a xlink:href="siphash_8h.html" target="_top" xlink:title=" ">
<polygon fill="white" stroke="#666666" points="148.5,-74 53.5,-74 53.5,-55 148.5,-55 148.5,-74"/>
<text text-anchor="middle" x="101" y="-62" font-family="Helvetica,sans-Serif" font-size="10.00">ccf/ds/siphash.h</text>
</a>
</g>
</g>
<!-- Node23&#45;&gt;Node24 -->
<g id="edge26" class="edge">
<title>Node23&#45;&gt;Node24</title>
<path fill="none" stroke="#63b8ff" d="M368.73,-111.57C315.06,-102.33 219.73,-85.93 158.5,-75.39"/>
<polygon fill="#63b8ff" stroke="#63b8ff" points="159.05,-71.94 148.61,-73.69 157.87,-78.84 159.05,-71.94"/>
</g>
<!-- Node26 -->
<g id="node26" class="node">
<title>Node26</title>
<g id="a_node26"><a xlink:title=" ">
<polygon fill="#e0e0e0" stroke="#999999" points="202,-19 152,-19 152,0 202,0 202,-19"/>
<text text-anchor="middle" x="177" y="-7" font-family="Helvetica,sans-Serif" font-size="10.00">cstdint</text>
</a>
</g>
</g>
<!-- Node23&#45;&gt;Node26 -->
<g id="edge31" class="edge">
<title>Node23&#45;&gt;Node26</title>
<path fill="none" stroke="#63b8ff" d="M368.62,-114.96C314.07,-109.37 220.76,-96.75 196,-74 183.7,-62.7 179.24,-43.79 177.68,-29.54"/>
<polygon fill="#63b8ff" stroke="#63b8ff" points="181.16,-29.07 176.96,-19.34 174.18,-29.57 181.16,-29.07"/>
</g>
<!-- Node23&#45;&gt;Node27 -->
<g id="edge34" class="edge">
<title>Node23&#45;&gt;Node27</title>
<path fill="none" stroke="#63b8ff" d="M379.82,-109.97C348.81,-99.4 306.6,-79.7 325,-55 351.38,-19.59 404.89,-11.26 440.08,-9.86"/>
<polygon fill="#63b8ff" stroke="#63b8ff" points="440.44,-13.36 450.36,-9.63 440.28,-6.36 440.44,-13.36"/>
</g>
<!-- Node28 -->
<g id="node28" class="node">
<title>Node28</title>
<g id="a_node28"><a xlink:title=" ">
<polygon fill="#e0e0e0" stroke="#999999" points="739,-19 697,-19 697,0 739,0 739,-19"/>
<text text-anchor="middle" x="718" y="-7" font-family="Helvetica,sans-Serif" font-size="10.00">array</text>
</a>
</g>
</g>
<!-- Node23&#45;&gt;Node28 -->
<g id="edge30" class="edge">
<title>Node23&#45;&gt;Node28</title>
<path fill="none" stroke="#63b8ff" d="M433.5,-109.94C489.35,-90.42 625.96,-42.67 687.3,-21.23"/>
<polygon fill="#63b8ff" stroke="#63b8ff" points="688.53,-24.51 696.82,-17.9 686.22,-17.9 688.53,-24.51"/>
</g>
<!-- Node29 -->
<g id="node29" class="node">
<title>Node29</title>
<g id="a_node29"><a xlink:title=" ">
<polygon fill="#e0e0e0" stroke="#999999" points="483.5,-74 334.5,-74 334.5,-55 483.5,-55 483.5,-74"/>
<text text-anchor="middle" x="409" y="-62" font-family="Helvetica,sans-Serif" font-size="10.00">small_vector/SmallVector.h</text>
</a>
</g>
</g>
<!-- Node23&#45;&gt;Node29 -->
<g id="edge32" class="edge">
<title>Node23&#45;&gt;Node29</title>
<path fill="none" stroke="#63b8ff" d="M409,-109.75C409,-102.8 409,-92.85 409,-84.13"/>
<polygon fill="#63b8ff" stroke="#63b8ff" points="412.5,-84.09 409,-74.09 405.5,-84.09 412.5,-84.09"/>
</g>
<!-- Node30 -->
<g id="node30" class="node">
<title>Node30</title>
<g id="a_node30"><a xlink:title=" ">
<polygon fill="#e0e0e0" stroke="#999999" points="648.5,-19 575.5,-19 575.5,0 648.5,0 648.5,-19"/>
<text text-anchor="middle" x="612" y="-7" font-family="Helvetica,sans-Serif" font-size="10.00">string_view</text>
</a>
</g>
</g>
<!-- Node23&#45;&gt;Node30 -->
<g id="edge33" class="edge">
<title>Node23&#45;&gt;Node30</title>
<path fill="none" stroke="#63b8ff" d="M425.27,-109.84C460.62,-91.04 544.65,-46.33 586.87,-23.87"/>
<polygon fill="#63b8ff" stroke="#63b8ff" points="588.75,-26.83 595.94,-19.05 585.46,-20.65 588.75,-26.83"/>
</g>
<!-- Node25 -->
<g id="node25" class="node">
<title>Node25</title>
<g id="a_node25"><a xlink:title=" ">
<polygon fill="#e0e0e0" stroke="#999999" points="127.5,-19 74.5,-19 74.5,0 127.5,0 127.5,-19"/>
<text text-anchor="middle" x="101" y="-7" font-family="Helvetica,sans-Serif" font-size="10.00">cstddef</text>
</a>
</g>
</g>
<!-- Node24&#45;&gt;Node25 -->
<g id="edge27" class="edge">
<title>Node24&#45;&gt;Node25</title>
<path fill="none" stroke="#63b8ff" d="M101,-54.75C101,-47.8 101,-37.85 101,-29.13"/>
<polygon fill="#63b8ff" stroke="#63b8ff" points="104.5,-29.09 101,-19.09 97.5,-29.09 104.5,-29.09"/>
</g>
<!-- Node24&#45;&gt;Node26 -->
<g id="edge28" class="edge">
<title>Node24&#45;&gt;Node26</title>
<path fill="none" stroke="#63b8ff" d="M113.21,-54.98C124.78,-46.92 142.38,-34.65 156.16,-25.03"/>
<polygon fill="#63b8ff" stroke="#63b8ff" points="158.37,-27.76 164.57,-19.17 154.36,-22.02 158.37,-27.76"/>
</g>
<!-- Node24&#45;&gt;Node27 -->
<g id="edge29" class="edge">
<title>Node24&#45;&gt;Node27</title>
<path fill="none" stroke="#63b8ff" d="M148.62,-56.73C225.24,-45.85 374.01,-24.71 440.49,-15.26"/>
<polygon fill="#63b8ff" stroke="#63b8ff" points="441.03,-18.72 450.43,-13.85 440.04,-11.79 441.03,-18.72"/>
</g>
<!-- Node31&#45;&gt;Node17 -->
<g id="edge41" class="edge">
<title>Node31&#45;&gt;Node17</title>
<path fill="none" stroke="#63b8ff" d="M895.62,-54.98C919.9,-46.23 957.95,-32.51 985.37,-22.62"/>
<polygon fill="#63b8ff" stroke="#63b8ff" points="986.73,-25.85 994.95,-19.17 984.36,-19.27 986.73,-25.85"/>
</g>
<!-- Node31&#45;&gt;Node27 -->
<g id="edge42" class="edge">
<title>Node31&#45;&gt;Node27</title>
<path fill="none" stroke="#63b8ff" d="M826.99,-56.45C823.61,-55.95 820.25,-55.46 817,-55 703.99,-38.94 569.7,-22.19 508.03,-14.64"/>
<polygon fill="#63b8ff" stroke="#63b8ff" points="508.08,-11.12 497.73,-13.38 507.23,-18.07 508.08,-11.12"/>
</g>
<!-- Node31&#45;&gt;Node28 -->
<g id="edge37" class="edge">
<title>Node31&#45;&gt;Node28</title>
<path fill="none" stroke="#63b8ff" d="M847.26,-54.98C820.49,-45.77 777.76,-31.07 748.82,-21.11"/>
<polygon fill="#63b8ff" stroke="#63b8ff" points="749.81,-17.74 739.21,-17.8 747.53,-24.36 749.81,-17.74"/>
</g>
<!-- Node31&#45;&gt;Node30 -->
<g id="edge40" class="edge">
<title>Node31&#45;&gt;Node30</title>
<path fill="none" stroke="#63b8ff" d="M830.23,-54.98C783.32,-45.42 707.4,-29.95 658.61,-20"/>
<polygon fill="#63b8ff" stroke="#63b8ff" points="659.12,-16.53 648.63,-17.97 657.73,-23.39 659.12,-16.53"/>
</g>
<!-- Node32 -->
<g id="node32" class="node">
<title>Node32</title>
<g id="a_node32"><a xlink:title=" ">
<polygon fill="#e0e0e0" stroke="#999999" points="966,-19 902,-19 902,0 966,0 966,-19"/>
<text text-anchor="middle" x="934" y="-7" font-family="Helvetica,sans-Serif" font-size="10.00">algorithm</text>
</a>
</g>
</g>
<!-- Node31&#45;&gt;Node32 -->
<g id="edge36" class="edge">
<title>Node31&#45;&gt;Node32</title>
<path fill="none" stroke="#63b8ff" d="M881.96,-54.98C891.13,-47.15 904.94,-35.34 916.03,-25.86"/>
<polygon fill="#63b8ff" stroke="#63b8ff" points="918.53,-28.33 923.86,-19.17 913.98,-23.01 918.53,-28.33"/>
</g>
<!-- Node33 -->
<g id="node33" class="node">
<title>Node33</title>
<g id="a_node33"><a xlink:title=" ">
<polygon fill="#e0e0e0" stroke="#999999" points="883.5,-19 834.5,-19 834.5,0 883.5,0 883.5,-19"/>
<text text-anchor="middle" x="859" y="-7" font-family="Helvetica,sans-Serif" font-size="10.00">cctype</text>
</a>
</g>
</g>
<!-- Node31&#45;&gt;Node33 -->
<g id="edge38" class="edge">
<title>Node31&#45;&gt;Node33</title>
<path fill="none" stroke="#63b8ff" d="M869.85,-54.75C868.13,-47.72 865.65,-37.62 863.5,-28.84"/>
<polygon fill="#63b8ff" stroke="#63b8ff" points="866.89,-27.97 861.11,-19.09 860.09,-29.63 866.89,-27.97"/>
</g>
<!-- Node31&#45;&gt;Node34 -->
<g id="edge39" class="edge">
<title>Node31&#45;&gt;Node34</title>
<path fill="none" stroke="#63b8ff" d="M859.47,-54.98C847.6,-46.92 829.54,-34.65 815.39,-25.03"/>
<polygon fill="#63b8ff" stroke="#63b8ff" points="817,-21.9 806.76,-19.17 813.06,-27.69 817,-21.9"/>
</g>
<!-- Node35&#45;&gt;Node17 -->
<g id="edge53" class="edge">
<title>Node35&#45;&gt;Node17</title>
<path fill="none" stroke="#63b8ff" d="M723.06,-111.7C726.08,-111.12 729.1,-110.55 732,-110 818.16,-93.68 844.93,-107.44 926,-74 954.89,-62.08 983.96,-40.29 1001.72,-25.6"/>
<polygon fill="#63b8ff" stroke="#63b8ff" points="1004.11,-28.17 1009.48,-19.04 999.59,-22.82 1004.11,-28.17"/>
</g>
<!-- Node35&#45;&gt;Node27 -->
<g id="edge54" class="edge">
<title>Node35&#45;&gt;Node27</title>
<path fill="none" stroke="#63b8ff" d="M683.61,-109.63C676.3,-95.8 660.31,-69.22 639,-55 598.86,-28.21 543.11,-17.5 507.79,-13.25"/>
<polygon fill="#63b8ff" stroke="#63b8ff" points="507.85,-9.73 497.53,-12.13 507.09,-16.69 507.85,-9.73"/>
</g>
<!-- Node35&#45;&gt;Node31 -->
<g id="edge44" class="edge">
<title>Node35&#45;&gt;Node31</title>
<path fill="none" stroke="#63b8ff" d="M717.56,-109.98C748.72,-101.01 797.97,-86.82 832.46,-76.89"/>
<polygon fill="#63b8ff" stroke="#63b8ff" points="833.57,-80.21 842.21,-74.08 831.63,-73.49 833.57,-80.21"/>
</g>
<!-- Node35&#45;&gt;Node36 -->
<g id="edge45" class="edge">
<title>Node35&#45;&gt;Node36</title>
<path fill="none" stroke="#63b8ff" d="M652.63,-114.3C572.76,-104.81 378.44,-81.71 288.76,-71.06"/>
<polygon fill="#63b8ff" stroke="#63b8ff" points="288.96,-67.56 278.62,-69.85 288.14,-74.51 288.96,-67.56"/>
</g>
<!-- Node38 -->
<g id="node38" class="node">
<title>Node38</title>
<g id="a_node38"><a xlink:title=" ">
<polygon fill="#e0e0e0" stroke="#999999" points="749,-74 691,-74 691,-55 749,-55 749,-74"/>
<text text-anchor="middle" x="720" y="-62" font-family="Helvetica,sans-Serif" font-size="10.00">memory</text>
</a>
</g>
</g>
<!-- Node35&#45;&gt;Node38 -->
<g id="edge51" class="edge">
<title>Node35&#45;&gt;Node38</title>
<path fill="none" stroke="#63b8ff" d="M693.28,-109.75C697.71,-102.42 704.16,-91.73 709.62,-82.7"/>
<polygon fill="#63b8ff" stroke="#63b8ff" points="712.64,-84.46 714.81,-74.09 706.65,-80.84 712.64,-84.46"/>
</g>
<!-- Node39 -->
<g id="node39" class="node">
<title>Node39</title>
<g id="a_node39"><a xlink:title=" ">
<polygon fill="#e0e0e0" stroke="#999999" points="808.5,-74 767.5,-74 767.5,-55 808.5,-55 808.5,-74"/>
<text text-anchor="middle" x="788" y="-62" font-family="Helvetica,sans-Serif" font-size="10.00">tuple</text>
</a>
</g>
</g>
<!-- Node35&#45;&gt;Node39 -->
<g id="edge52" class="edge">
<title>Node35&#45;&gt;Node39</title>
<path fill="none" stroke="#63b8ff" d="M704.07,-109.98C719.86,-101.61 744.22,-88.7 762.63,-78.95"/>
<polygon fill="#63b8ff" stroke="#63b8ff" points="764.44,-81.95 771.64,-74.17 761.17,-75.76 764.44,-81.95"/>
</g>
<!-- Node36&#45;&gt;Node21 -->
<g id="edge47" class="edge">
<title>Node36&#45;&gt;Node21</title>
<path fill="none" stroke="#63b8ff" d="M207.14,-54.98C166.8,-45.13 100.75,-29 60.25,-19.11"/>
<polygon fill="#63b8ff" stroke="#63b8ff" points="60.83,-15.65 50.29,-16.68 59.17,-22.45 60.83,-15.65"/>
</g>
<!-- Node36&#45;&gt;Node26 -->
<g id="edge46" class="edge">
<title>Node36&#45;&gt;Node26</title>
<path fill="none" stroke="#63b8ff" d="M231.56,-54.98C221.85,-47.07 207.18,-35.11 195.5,-25.58"/>
<polygon fill="#63b8ff" stroke="#63b8ff" points="197.6,-22.78 187.63,-19.17 193.17,-28.2 197.6,-22.78"/>
</g>
<!-- Node36&#45;&gt;Node27 -->
<g id="edge50" class="edge">
<title>Node36&#45;&gt;Node27</title>
<path fill="none" stroke="#63b8ff" d="M278.51,-55.16C322.95,-45.01 397.39,-28 440.45,-18.16"/>
<polygon fill="#63b8ff" stroke="#63b8ff" points="441.46,-21.52 450.43,-15.89 439.9,-14.7 441.46,-21.52"/>
</g>
<!-- Node36&#45;&gt;Node34 -->
<g id="edge49" class="edge">
<title>Node36&#45;&gt;Node34</title>
<path fill="none" stroke="#63b8ff" d="M278.76,-59.6C293.17,-58.1 309.86,-56.42 325,-55 512.86,-37.39 561.01,-44.17 748,-19 752.35,-18.41 756.91,-17.7 761.4,-16.93"/>
<polygon fill="#63b8ff" stroke="#63b8ff" points="762.39,-20.31 771.61,-15.09 761.15,-13.42 762.39,-20.31"/>
</g>
<!-- Node36&#45;&gt;Node37 -->
<g id="edge48" class="edge">
<title>Node36&#45;&gt;Node37</title>
<path fill="none" stroke="#63b8ff" d="M248.27,-54.75C253.59,-47.34 261.36,-36.5 267.88,-27.41"/>
<polygon fill="#63b8ff" stroke="#63b8ff" points="270.86,-29.26 273.84,-19.09 265.17,-25.18 270.86,-29.26"/>
</g>
</g>
</svg>
        <g id="navigator" transform="translate(0 0)" fill="#404254">
                <rect fill="#f2f5e9" fill-opacity="0.5" stroke="#606060" stroke-width=".5" x="0" y="0" width="60" height="60"/>
                <use id="zoomplus" xlink:href="#zoomPlus" x="17" y="9" onmousedown="handleZoom(evt,'in')"/>
                <use id="zoomminus" xlink:href="#zoomMin" x="42" y="9" onmousedown="handleZoom(evt,'out')"/>
                <use id="reset" xlink:href="#resetDef" x="30" y="36" onmousedown="handleReset()"/>
                <g id="arrowUp" xlink:href="#dirArrow" transform="translate(30 24)" onmousedown="handlePan(0,-1)">
                  <use xlink:href="#rim" fill="#404040">
                        <set attributeName="fill" to="#808080" begin="arrowUp.mouseover" end="arrowUp.mouseout"/>
                  </use>
                  <path fill="none" stroke="white" stroke-width="1.5" d="M0,-3.0v7 M-2.5,-0.5L0,-3.0L2.5,-0.5"/>
                </g>
                <g id="arrowRight" xlink:href="#dirArrow" transform="rotate(90) translate(36 -43)" onmousedown="handlePan(1,0)">
                  <use xlink:href="#rim" fill="#404040">
                        <set attributeName="fill" to="#808080" begin="arrowRight.mouseover" end="arrowRight.mouseout"/>
                  </use>
                  <path fill="none" stroke="white" stroke-width="1.5" d="M0,-3.0v7 M-2.5,-0.5L0,-3.0L2.5,-0.5"/>
                </g>
                <g id="arrowDown" xlink:href="#dirArrow" transform="rotate(180) translate(-30 -48)" onmousedown="handlePan(0,1)">
                  <use xlink:href="#rim" fill="#404040">
                        <set attributeName="fill" to="#808080" begin="arrowDown.mouseover" end="arrowDown.mouseout"/>
                  </use>
                  <path fill="none" stroke="white" stroke-width="1.5" d="M0,-3.0v7 M-2.5,-0.5L0,-3.0L2.5,-0.5"/>
                </g>
                <g id="arrowLeft" xlink:href="#dirArrow" transform="rotate(270) translate(-36 17)" onmousedown="handlePan(-1,0)">
                  <use xlink:href="#rim" fill="#404040">
                        <set attributeName="fill" to="#808080" begin="arrowLeft.mouseover" end="arrowLeft.mouseout"/>
                  </use>
                  <path fill="none" stroke="white" stroke-width="1.5" d="M0,-3.0v7 M-2.5,-0.5L0,-3.0L2.5,-0.5"/>
                </g>
        </g>
        <svg viewBox="0 0 15 15" width="100%" height="30px" preserveAspectRatio="xMaxYMin meet">
         <g id="arrow_out" transform="scale(0.3 0.3)">
          <a xlink:href="oversized_8h__incl_org.svg" target="_base">
           <rect id="button" ry="5" rx="5" y="6" x="6" height="38" width="38"
                fill="#f2f5e9" fill-opacity="0.5" stroke="#606060" stroke-width="1.0"/>
           <path id="arrow"
             d="M 11.500037,31.436501 C 11.940474,20.09759 22.043105,11.32322 32.158766,21.979434 L 37.068811,17.246167 C 37.068811,17.246167 37.088388,32 37.088388,32 L 22.160133,31.978069 C 22.160133,31.978069 26.997745,27.140456 26.997745,27.140456 C 18.528582,18.264221 13.291696,25.230495 11.500037,31.436501 z"
             style="fill:#404040;"/>
          </a>
         </g>
        </svg>
</svg>
