<?xml version="1.0" encoding="UTF-8" standalone="no"?>
<!DOCTYPE svg PUBLIC "-//W3C//DTD SVG 1.1//EN"
 "http://www.w3.org/Graphics/SVG/1.1/DTD/svg11.dtd">
<!-- Generated by graphviz version 2.43.0 (0)
 -->
<!-- Title: src/service/tables/previous_service_identity.h Pages: 1 -->
<svg width="1478pt" height="445pt"
 viewBox="0.00 0.00 1478.00 445.00" xmlns="http://www.w3.org/2000/svg" xmlns:xlink="http://www.w3.org/1999/xlink">
<g id="graph0" class="graph" transform="scale(1 1) rotate(0) translate(4 441)">
<title>src/service/tables/previous_service_identity.h</title>
<!-- Node1 -->
<g id="node1" class="node">
<title>Node1</title>
<g id="a_node1"><a xlink:title=" ">
<polygon fill="#999999" stroke="#666666" points="526,-437 374,-437 374,-407 526,-407 526,-437"/>
<text text-anchor="start" x="382" y="-425" font-family="Helvetica,sans-Serif" font-size="10.00">src/service/tables</text>
<text text-anchor="middle" x="450" y="-414" font-family="Helvetica,sans-Serif" font-size="10.00">/previous_service_identity.h</text>
</a>
</g>
</g>
<!-- Node2 -->
<g id="node2" class="node">
<title>Node2</title>
<g id="a_node2"><a xlink:href="pem_8h.html" target="_top" xlink:title=" ">
<polygon fill="white" stroke="#666666" points="316,-371 218,-371 218,-352 316,-352 316,-371"/>
<text text-anchor="middle" x="267" y="-359" font-family="Helvetica,sans-Serif" font-size="10.00">ccf/crypto/pem.h</text>
</a>
</g>
</g>
<!-- Node1&#45;&gt;Node2 -->
<g id="edge1" class="edge">
<title>Node1&#45;&gt;Node2</title>
<path fill="none" stroke="#63b8ff" d="M406.17,-406.99C374.86,-396.98 333.22,-383.67 303.67,-374.22"/>
<polygon fill="#63b8ff" stroke="#63b8ff" points="304.35,-370.76 293.76,-371.05 302.22,-377.43 304.35,-370.76"/>
</g>
<!-- Node5 -->
<g id="node5" class="node">
<title>Node5</title>
<g id="a_node5"><a xlink:title=" ">
<polygon fill="#e0e0e0" stroke="#999999" points="850,-129 806,-129 806,-110 850,-110 850,-129"/>
<text text-anchor="middle" x="828" y="-117" font-family="Helvetica,sans-Serif" font-size="10.00">string</text>
</a>
</g>
</g>
<!-- Node1&#45;&gt;Node5 -->
<g id="edge61" class="edge">
<title>Node1&#45;&gt;Node5</title>
<path fill="none" stroke="#63b8ff" d="M461.35,-406.76C488.96,-372.8 563.07,-285.82 640,-231 669.79,-209.78 682.18,-213.04 714,-195 747.8,-175.83 785.19,-150.57 807.63,-134.94"/>
<polygon fill="#63b8ff" stroke="#63b8ff" points="809.82,-137.67 816,-129.07 805.8,-131.94 809.82,-137.67"/>
</g>
<!-- Node6 -->
<g id="node6" class="node">
<title>Node6</title>
<g id="a_node6"><a xlink:title=" ">
<polygon fill="#e0e0e0" stroke="#999999" points="374.5,-19 327.5,-19 327.5,0 374.5,0 374.5,-19"/>
<text text-anchor="middle" x="351" y="-7" font-family="Helvetica,sans-Serif" font-size="10.00">vector</text>
</a>
</g>
</g>
<!-- Node1&#45;&gt;Node6 -->
<g id="edge62" class="edge">
<title>Node1&#45;&gt;Node6</title>
<path fill="none" stroke="#63b8ff" d="M373.92,-417.41C245.6,-409.25 0,-383.69 0,-307.5 0,-307.5 0,-307.5 0,-118.5 0,-52.49 229.67,-22.6 317.45,-13.59"/>
<polygon fill="#63b8ff" stroke="#63b8ff" points="317.82,-17.07 327.42,-12.6 317.13,-10.11 317.82,-17.07"/>
</g>
<!-- Node22 -->
<g id="node22" class="node">
<title>Node22</title>
<g id="a_node22"><a xlink:href="value_8h.html" target="_top" xlink:title=" ">
<polygon fill="white" stroke="#666666" points="904.5,-371 819.5,-371 819.5,-352 904.5,-352 904.5,-371"/>
<text text-anchor="middle" x="862" y="-359" font-family="Helvetica,sans-Serif" font-size="10.00">ccf/kv/value.h</text>
</a>
</g>
</g>
<!-- Node1&#45;&gt;Node22 -->
<g id="edge26" class="edge">
<title>Node1&#45;&gt;Node22</title>
<path fill="none" stroke="#63b8ff" d="M526.05,-410.2C608.26,-398.53 737.16,-380.23 809.04,-370.02"/>
<polygon fill="#63b8ff" stroke="#63b8ff" points="809.81,-373.44 819.22,-368.57 808.83,-366.51 809.81,-373.44"/>
</g>
<!-- Node3 -->
<g id="node3" class="node">
<title>Node3</title>
<g id="a_node3"><a xlink:href="json_8h.html" target="_top" xlink:title=" ">
<polygon fill="white" stroke="#666666" points="418.5,-316 341.5,-316 341.5,-297 418.5,-297 418.5,-316"/>
<text text-anchor="middle" x="380" y="-304" font-family="Helvetica,sans-Serif" font-size="10.00">ccf/ds/json.h</text>
</a>
</g>
</g>
<!-- Node2&#45;&gt;Node3 -->
<g id="edge2" class="edge">
<title>Node2&#45;&gt;Node3</title>
<path fill="none" stroke="#63b8ff" d="M285.16,-351.98C303.25,-343.5 331.28,-330.35 352.19,-320.54"/>
<polygon fill="#63b8ff" stroke="#63b8ff" points="353.95,-323.59 361.51,-316.17 350.97,-317.25 353.95,-323.59"/>
</g>
<!-- Node2&#45;&gt;Node6 -->
<g id="edge25" class="edge">
<title>Node2&#45;&gt;Node6</title>
<path fill="none" stroke="#63b8ff" d="M262.45,-351.99C242.58,-313.51 167.33,-153.44 235,-55 253.31,-28.36 289.93,-17.66 317.15,-13.37"/>
<polygon fill="#63b8ff" stroke="#63b8ff" points="317.63,-16.84 327.07,-12.02 316.69,-9.9 317.63,-16.84"/>
</g>
<!-- Node12 -->
<g id="node12" class="node">
<title>Node12</title>
<g id="a_node12"><a xlink:title=" ">
<polygon fill="#e0e0e0" stroke="#999999" points="452.5,-129 379.5,-129 379.5,-110 452.5,-110 452.5,-129"/>
<text text-anchor="middle" x="416" y="-117" font-family="Helvetica,sans-Serif" font-size="10.00">string_view</text>
</a>
</g>
</g>
<!-- Node2&#45;&gt;Node12 -->
<g id="edge24" class="edge">
<title>Node2&#45;&gt;Node12</title>
<path fill="none" stroke="#63b8ff" d="M268.69,-351.74C274.72,-322.37 297.6,-225.82 348,-165 358.75,-152.03 374.27,-141.47 387.77,-133.9"/>
<polygon fill="#63b8ff" stroke="#63b8ff" points="389.53,-136.93 396.71,-129.15 386.24,-130.75 389.53,-136.93"/>
</g>
<!-- Node18 -->
<g id="node18" class="node">
<title>Node18</title>
<g id="a_node18"><a xlink:title=" ">
<polygon fill="#e0e0e0" stroke="#999999" points="78,-316 28,-316 28,-297 78,-297 78,-316"/>
<text text-anchor="middle" x="53" y="-304" font-family="Helvetica,sans-Serif" font-size="10.00">cstring</text>
</a>
</g>
</g>
<!-- Node2&#45;&gt;Node18 -->
<g id="edge20" class="edge">
<title>Node2&#45;&gt;Node18</title>
<path fill="none" stroke="#63b8ff" d="M232.49,-352C198.23,-343.55 143.96,-330.15 87.98,-316.24"/>
<polygon fill="#63b8ff" stroke="#63b8ff" points="88.8,-312.84 78.25,-313.82 87.11,-319.63 88.8,-312.84"/>
</g>
<!-- Node19 -->
<g id="node19" class="node">
<title>Node19</title>
<g id="a_node19"><a xlink:title=" ">
<polygon fill="#e0e0e0" stroke="#999999" points="161.5,-316 96.5,-316 96.5,-297 161.5,-297 161.5,-316"/>
<text text-anchor="middle" x="129" y="-304" font-family="Helvetica,sans-Serif" font-size="10.00">exception</text>
</a>
</g>
</g>
<!-- Node2&#45;&gt;Node19 -->
<g id="edge21" class="edge">
<title>Node2&#45;&gt;Node19</title>
<path fill="none" stroke="#63b8ff" d="M244.83,-351.98C222.23,-343.3 186.94,-329.75 161.25,-319.88"/>
<polygon fill="#63b8ff" stroke="#63b8ff" points="162.17,-316.49 151.58,-316.17 159.66,-323.02 162.17,-316.49"/>
</g>
<!-- Node20 -->
<g id="node20" class="node">
<title>Node20</title>
<g id="a_node20"><a xlink:title=" ">
<polygon fill="#e0e0e0" stroke="#999999" points="1470,-189.5 1412,-189.5 1412,-170.5 1470,-170.5 1470,-189.5"/>
<text text-anchor="middle" x="1441" y="-177.5" font-family="Helvetica,sans-Serif" font-size="10.00">memory</text>
</a>
</g>
</g>
<!-- Node2&#45;&gt;Node20 -->
<g id="edge22" class="edge">
<title>Node2&#45;&gt;Node20</title>
<path fill="none" stroke="#63b8ff" d="M316.2,-361.04C449.83,-361.87 830.46,-359.85 1143,-316 1250.08,-300.98 1289.18,-319.69 1380,-261 1404.01,-245.48 1422.26,-217.1 1432.29,-198.65"/>
<polygon fill="#63b8ff" stroke="#63b8ff" points="1435.51,-200.06 1437.01,-189.57 1429.29,-196.83 1435.51,-200.06"/>
</g>
<!-- Node21 -->
<g id="node21" class="node">
<title>Node21</title>
<g id="a_node21"><a xlink:title=" ">
<polygon fill="#e0e0e0" stroke="#999999" points="220,-316 180,-316 180,-297 220,-297 220,-316"/>
<text text-anchor="middle" x="200" y="-304" font-family="Helvetica,sans-Serif" font-size="10.00">span</text>
</a>
</g>
</g>
<!-- Node2&#45;&gt;Node21 -->
<g id="edge23" class="edge">
<title>Node2&#45;&gt;Node21</title>
<path fill="none" stroke="#63b8ff" d="M256.24,-351.98C246.23,-344.07 231.11,-332.11 219.07,-322.58"/>
<polygon fill="#63b8ff" stroke="#63b8ff" points="220.97,-319.63 210.96,-316.17 216.63,-325.12 220.97,-319.63"/>
</g>
<!-- Node4 -->
<g id="node4" class="node">
<title>Node4</title>
<g id="a_node4"><a xlink:href="include_2ccf_2crypto_2base64_8h.html" target="_top" xlink:title=" ">
<polygon fill="white" stroke="#666666" points="469,-189.5 357,-189.5 357,-170.5 469,-170.5 469,-189.5"/>
<text text-anchor="middle" x="413" y="-177.5" font-family="Helvetica,sans-Serif" font-size="10.00">ccf/crypto/base64.h</text>
</a>
</g>
</g>
<!-- Node3&#45;&gt;Node4 -->
<g id="edge3" class="edge">
<title>Node3&#45;&gt;Node4</title>
<path fill="none" stroke="#63b8ff" d="M390.44,-296.87C399.42,-288.7 411.74,-275.55 417,-261 424.22,-241.02 421.4,-216.4 417.95,-199.79"/>
<polygon fill="#63b8ff" stroke="#63b8ff" points="421.28,-198.66 415.58,-189.73 414.47,-200.27 421.28,-198.66"/>
</g>
<!-- Node7 -->
<g id="node7" class="node">
<title>Node7</title>
<g id="a_node7"><a xlink:href="include_2ccf_2ds_2json__schema_8h.html" target="_top" xlink:title=" ">
<polygon fill="white" stroke="#666666" points="591.5,-255.5 470.5,-255.5 470.5,-236.5 591.5,-236.5 591.5,-255.5"/>
<text text-anchor="middle" x="531" y="-243.5" font-family="Helvetica,sans-Serif" font-size="10.00">ccf/ds/json_schema.h</text>
</a>
</g>
</g>
<!-- Node3&#45;&gt;Node7 -->
<g id="edge6" class="edge">
<title>Node3&#45;&gt;Node7</title>
<path fill="none" stroke="#63b8ff" d="M401.96,-296.99C427.68,-287.03 470.48,-270.45 499.68,-259.13"/>
<polygon fill="#63b8ff" stroke="#63b8ff" points="500.96,-262.39 509.02,-255.52 498.43,-255.87 500.96,-262.39"/>
</g>
<!-- Node15 -->
<g id="node15" class="node">
<title>Node15</title>
<g id="a_node15"><a xlink:title=" ">
<polygon fill="#e0e0e0" stroke="#999999" points="322.5,-74 243.5,-74 243.5,-55 322.5,-55 322.5,-74"/>
<text text-anchor="middle" x="283" y="-62" font-family="Helvetica,sans-Serif" font-size="10.00">fmt/format.h</text>
</a>
</g>
</g>
<!-- Node3&#45;&gt;Node15 -->
<g id="edge18" class="edge">
<title>Node3&#45;&gt;Node15</title>
<path fill="none" stroke="#63b8ff" d="M371.44,-296.93C363.29,-288.41 351.09,-274.66 343,-261 310.88,-206.74 306.62,-190.09 291,-129 287.25,-114.33 285.22,-97.28 284.15,-84.55"/>
<polygon fill="#63b8ff" stroke="#63b8ff" points="287.62,-83.98 283.41,-74.26 280.64,-84.48 287.62,-83.98"/>
</g>
<!-- Node17 -->
<g id="node17" class="node">
<title>Node17</title>
<g id="a_node17"><a xlink:title=" ">
<polygon fill="#e0e0e0" stroke="#999999" points="408,-255.5 352,-255.5 352,-236.5 408,-236.5 408,-255.5"/>
<text text-anchor="middle" x="380" y="-243.5" font-family="Helvetica,sans-Serif" font-size="10.00">sstream</text>
</a>
</g>
</g>
<!-- Node3&#45;&gt;Node17 -->
<g id="edge19" class="edge">
<title>Node3&#45;&gt;Node17</title>
<path fill="none" stroke="#63b8ff" d="M380,-296.87C380,-288.75 380,-276.31 380,-265.89"/>
<polygon fill="#63b8ff" stroke="#63b8ff" points="383.5,-265.67 380,-255.67 376.5,-265.67 383.5,-265.67"/>
</g>
<!-- Node4&#45;&gt;Node5 -->
<g id="edge4" class="edge">
<title>Node4&#45;&gt;Node5</title>
<path fill="none" stroke="#63b8ff" d="M450.02,-170.45C459.14,-168.51 468.9,-166.56 478,-165 493.62,-162.33 712.61,-134.91 796.04,-124.49"/>
<polygon fill="#63b8ff" stroke="#63b8ff" points="796.48,-127.96 805.97,-123.25 795.62,-121.01 796.48,-127.96"/>
</g>
<!-- Node4&#45;&gt;Node6 -->
<g id="edge5" class="edge">
<title>Node4&#45;&gt;Node6</title>
<path fill="none" stroke="#63b8ff" d="M403.29,-170.47C393.48,-161.27 378.7,-145.67 371,-129 355.88,-96.29 352.06,-53.77 351.17,-29.57"/>
<polygon fill="#63b8ff" stroke="#63b8ff" points="354.67,-29.2 350.94,-19.29 347.67,-29.37 354.67,-29.2"/>
</g>
<!-- Node8 -->
<g id="node8" class="node">
<title>Node8</title>
<g id="a_node8"><a xlink:href="nonstd_8h.html" target="_top" xlink:title=" ">
<polygon fill="white" stroke="#666666" points="705,-189.5 615,-189.5 615,-170.5 705,-170.5 705,-189.5"/>
<text text-anchor="middle" x="660" y="-177.5" font-family="Helvetica,sans-Serif" font-size="10.00">ccf/ds/nonstd.h</text>
</a>
</g>
</g>
<!-- Node7&#45;&gt;Node8 -->
<g id="edge7" class="edge">
<title>Node7&#45;&gt;Node8</title>
<path fill="none" stroke="#63b8ff" d="M548.4,-236.37C570.23,-225.54 607.89,-206.85 633.36,-194.22"/>
<polygon fill="#63b8ff" stroke="#63b8ff" points="635.06,-197.28 642.47,-189.7 631.95,-191.01 635.06,-197.28"/>
</g>
<!-- Node14 -->
<g id="node14" class="node">
<title>Node14</title>
<g id="a_node14"><a xlink:title=" ">
<polygon fill="#e0e0e0" stroke="#999999" points="1006,-189.5 950,-189.5 950,-170.5 1006,-170.5 1006,-189.5"/>
<text text-anchor="middle" x="978" y="-177.5" font-family="Helvetica,sans-Serif" font-size="10.00">optional</text>
</a>
</g>
</g>
<!-- Node7&#45;&gt;Node14 -->
<g id="edge15" class="edge">
<title>Node7&#45;&gt;Node14</title>
<path fill="none" stroke="#63b8ff" d="M591.53,-237.13C607.3,-235.11 624.28,-232.95 640,-231 773.71,-214.42 810.14,-227.08 941,-195 943.45,-194.4 945.96,-193.68 948.46,-192.9"/>
<polygon fill="#63b8ff" stroke="#63b8ff" points="949.63,-196.2 957.92,-189.61 947.33,-189.58 949.63,-196.2"/>
</g>
<!-- Node7&#45;&gt;Node15 -->
<g id="edge16" class="edge">
<title>Node7&#45;&gt;Node15</title>
<path fill="none" stroke="#63b8ff" d="M470.48,-240.99C431.77,-235.63 382.53,-223.27 348,-195 312.43,-165.87 294.52,-112.34 287.18,-84.09"/>
<polygon fill="#63b8ff" stroke="#63b8ff" points="290.57,-83.18 284.8,-74.29 283.76,-84.83 290.57,-83.18"/>
</g>
<!-- Node16 -->
<g id="node16" class="node">
<title>Node16</title>
<g id="a_node16"><a xlink:title=" ">
<polygon fill="#e0e0e0" stroke="#999999" points="597,-189.5 487,-189.5 487,-170.5 597,-170.5 597,-189.5"/>
<text text-anchor="middle" x="542" y="-177.5" font-family="Helvetica,sans-Serif" font-size="10.00">nlohmann/json.hpp</text>
</a>
</g>
</g>
<!-- Node7&#45;&gt;Node16 -->
<g id="edge17" class="edge">
<title>Node7&#45;&gt;Node16</title>
<path fill="none" stroke="#63b8ff" d="M532.48,-236.37C534.08,-227.07 536.68,-211.98 538.75,-199.9"/>
<polygon fill="#63b8ff" stroke="#63b8ff" points="542.22,-200.35 540.47,-189.91 535.33,-199.17 542.22,-200.35"/>
</g>
<!-- Node8&#45;&gt;Node5 -->
<g id="edge11" class="edge">
<title>Node8&#45;&gt;Node5</title>
<path fill="none" stroke="#63b8ff" d="M684.43,-170.49C714.04,-160.18 763.99,-142.79 796.47,-131.48"/>
<polygon fill="#63b8ff" stroke="#63b8ff" points="797.66,-134.77 805.95,-128.18 795.36,-128.16 797.66,-134.77"/>
</g>
<!-- Node8&#45;&gt;Node6 -->
<g id="edge14" class="edge">
<title>Node8&#45;&gt;Node6</title>
<path fill="none" stroke="#63b8ff" d="M693.14,-170.45C729.82,-159.37 781.06,-138.09 759,-110 712.37,-50.63 474.21,-22.2 384.89,-13.51"/>
<polygon fill="#63b8ff" stroke="#63b8ff" points="385.05,-10.01 374.76,-12.54 384.38,-16.98 385.05,-10.01"/>
</g>
<!-- Node9 -->
<g id="node9" class="node">
<title>Node9</title>
<g id="a_node9"><a xlink:title=" ">
<polygon fill="#e0e0e0" stroke="#999999" points="535,-129 471,-129 471,-110 535,-110 535,-129"/>
<text text-anchor="middle" x="503" y="-117" font-family="Helvetica,sans-Serif" font-size="10.00">algorithm</text>
</a>
</g>
</g>
<!-- Node8&#45;&gt;Node9 -->
<g id="edge8" class="edge">
<title>Node8&#45;&gt;Node9</title>
<path fill="none" stroke="#63b8ff" d="M637.17,-170.49C610.43,-160.53 565.92,-143.95 535.56,-132.63"/>
<polygon fill="#63b8ff" stroke="#63b8ff" points="536.45,-129.23 525.86,-129.02 534.01,-135.79 536.45,-129.23"/>
</g>
<!-- Node10 -->
<g id="node10" class="node">
<title>Node10</title>
<g id="a_node10"><a xlink:title=" ">
<polygon fill="#e0e0e0" stroke="#999999" points="595,-129 553,-129 553,-110 595,-110 595,-129"/>
<text text-anchor="middle" x="574" y="-117" font-family="Helvetica,sans-Serif" font-size="10.00">array</text>
</a>
</g>
</g>
<!-- Node8&#45;&gt;Node10 -->
<g id="edge9" class="edge">
<title>Node8&#45;&gt;Node10</title>
<path fill="none" stroke="#63b8ff" d="M647.31,-170.37C633.59,-161.04 611.5,-146.01 595.15,-134.88"/>
<polygon fill="#63b8ff" stroke="#63b8ff" points="596.98,-131.9 586.74,-129.17 593.04,-137.69 596.98,-131.9"/>
</g>
<!-- Node11 -->
<g id="node11" class="node">
<title>Node11</title>
<g id="a_node11"><a xlink:title=" ">
<polygon fill="#e0e0e0" stroke="#999999" points="662.5,-129 613.5,-129 613.5,-110 662.5,-110 662.5,-129"/>
<text text-anchor="middle" x="638" y="-117" font-family="Helvetica,sans-Serif" font-size="10.00">cctype</text>
</a>
</g>
</g>
<!-- Node8&#45;&gt;Node11 -->
<g id="edge10" class="edge">
<title>Node8&#45;&gt;Node11</title>
<path fill="none" stroke="#63b8ff" d="M656.75,-170.37C653.63,-162.07 648.82,-149.28 644.85,-138.72"/>
<polygon fill="#63b8ff" stroke="#63b8ff" points="648.06,-137.3 641.26,-129.17 641.5,-139.76 648.06,-137.3"/>
</g>
<!-- Node8&#45;&gt;Node12 -->
<g id="edge12" class="edge">
<title>Node8&#45;&gt;Node12</title>
<path fill="none" stroke="#63b8ff" d="M627.48,-170.44C620.41,-168.61 612.96,-166.72 606,-165 557.24,-152.97 501.23,-139.95 462.73,-131.12"/>
<polygon fill="#63b8ff" stroke="#63b8ff" points="463.37,-127.68 452.84,-128.86 461.81,-134.5 463.37,-127.68"/>
</g>
<!-- Node13 -->
<g id="node13" class="node">
<title>Node13</title>
<g id="a_node13"><a xlink:title=" ">
<polygon fill="#e0e0e0" stroke="#999999" points="749.5,-129 680.5,-129 680.5,-110 749.5,-110 749.5,-129"/>
<text text-anchor="middle" x="715" y="-117" font-family="Helvetica,sans-Serif" font-size="10.00">type_traits</text>
</a>
</g>
</g>
<!-- Node8&#45;&gt;Node13 -->
<g id="edge13" class="edge">
<title>Node8&#45;&gt;Node13</title>
<path fill="none" stroke="#63b8ff" d="M668.12,-170.37C676.4,-161.55 689.47,-147.66 699.7,-136.77"/>
<polygon fill="#63b8ff" stroke="#63b8ff" points="702.55,-138.85 706.85,-129.17 697.45,-134.06 702.55,-138.85"/>
</g>
<!-- Node23 -->
<g id="node23" class="node">
<title>Node23</title>
<g id="a_node23"><a xlink:href="get__name_8h.html" target="_top" xlink:title=" ">
<polygon fill="white" stroke="#666666" points="833.5,-316 726.5,-316 726.5,-297 833.5,-297 833.5,-316"/>
<text text-anchor="middle" x="780" y="-304" font-family="Helvetica,sans-Serif" font-size="10.00">ccf/kv/get_name.h</text>
</a>
</g>
</g>
<!-- Node22&#45;&gt;Node23 -->
<g id="edge27" class="edge">
<title>Node22&#45;&gt;Node23</title>
<path fill="none" stroke="#63b8ff" d="M848.83,-351.98C836.23,-343.84 817,-331.41 802.06,-321.76"/>
<polygon fill="#63b8ff" stroke="#63b8ff" points="803.71,-318.66 793.41,-316.17 799.91,-324.54 803.71,-318.66"/>
</g>
<!-- Node24 -->
<g id="node24" class="node">
<title>Node24</title>
<g id="a_node24"><a xlink:href="include_2ccf_2kv_2hooks_8h.html" target="_top" xlink:title=" ">
<polygon fill="white" stroke="#666666" points="1370.5,-255.5 1283.5,-255.5 1283.5,-236.5 1370.5,-236.5 1370.5,-255.5"/>
<text text-anchor="middle" x="1327" y="-243.5" font-family="Helvetica,sans-Serif" font-size="10.00">ccf/kv/hooks.h</text>
</a>
</g>
</g>
<!-- Node22&#45;&gt;Node24 -->
<g id="edge29" class="edge">
<title>Node22&#45;&gt;Node24</title>
<path fill="none" stroke="#63b8ff" d="M904.92,-356.42C960.52,-350.53 1060.14,-337.86 1143,-316 1199.69,-301.05 1263.18,-275.08 1298.8,-259.62"/>
<polygon fill="#63b8ff" stroke="#63b8ff" points="1300.32,-262.77 1308.08,-255.56 1297.51,-256.36 1300.32,-262.77"/>
</g>
<!-- Node27 -->
<g id="node27" class="node">
<title>Node27</title>
<g id="a_node27"><a xlink:href="blit__serialiser_8h.html" target="_top" xlink:title=" ">
<polygon fill="white" stroke="#666666" points="903.5,-261 804.5,-261 804.5,-231 903.5,-231 903.5,-261"/>
<text text-anchor="start" x="812.5" y="-249" font-family="Helvetica,sans-Serif" font-size="10.00">ccf/kv/serialisers</text>
<text text-anchor="middle" x="854" y="-238" font-family="Helvetica,sans-Serif" font-size="10.00">/blit_serialiser.h</text>
</a>
</g>
</g>
<!-- Node22&#45;&gt;Node27 -->
<g id="edge33" class="edge">
<title>Node22&#45;&gt;Node27</title>
<path fill="none" stroke="#63b8ff" d="M861.4,-351.97C860.21,-335.08 857.51,-296.85 855.73,-271.48"/>
<polygon fill="#63b8ff" stroke="#63b8ff" points="859.19,-270.91 855,-261.18 852.21,-271.4 859.19,-270.91"/>
</g>
<!-- Node34 -->
<g id="node34" class="node">
<title>Node34</title>
<g id="a_node34"><a xlink:href="json__serialiser_8h.html" target="_top" xlink:title=" ">
<polygon fill="white" stroke="#666666" points="747.5,-261 648.5,-261 648.5,-231 747.5,-231 747.5,-261"/>
<text text-anchor="start" x="656.5" y="-249" font-family="Helvetica,sans-Serif" font-size="10.00">ccf/kv/serialisers</text>
<text text-anchor="middle" x="698" y="-238" font-family="Helvetica,sans-Serif" font-size="10.00">/json_serialiser.h</text>
</a>
</g>
</g>
<!-- Node22&#45;&gt;Node34 -->
<g id="edge43" class="edge">
<title>Node22&#45;&gt;Node34</title>
<path fill="none" stroke="#63b8ff" d="M819.26,-357.92C787.26,-353.75 744.59,-343.06 718,-316 706.32,-304.12 701.39,-285.85 699.34,-271.09"/>
<polygon fill="#63b8ff" stroke="#63b8ff" points="702.81,-270.7 698.3,-261.11 695.85,-271.42 702.81,-270.7"/>
</g>
<!-- Node35 -->
<g id="node35" class="node">
<title>Node35</title>
<g id="a_node35"><a xlink:href="untyped_8h.html" target="_top" xlink:title=" ">
<polygon fill="white" stroke="#666666" points="1134,-316 1036,-316 1036,-297 1134,-297 1134,-316"/>
<text text-anchor="middle" x="1085" y="-304" font-family="Helvetica,sans-Serif" font-size="10.00">ccf/kv/untyped.h</text>
</a>
</g>
</g>
<!-- Node22&#45;&gt;Node35 -->
<g id="edge46" class="edge">
<title>Node22&#45;&gt;Node35</title>
<path fill="none" stroke="#63b8ff" d="M897.83,-351.98C936.16,-342.87 997.08,-328.4 1038.95,-318.45"/>
<polygon fill="#63b8ff" stroke="#63b8ff" points="1039.97,-321.8 1048.89,-316.08 1038.35,-314.99 1039.97,-321.8"/>
</g>
<!-- Node37 -->
<g id="node37" class="node">
<title>Node37</title>
<g id="a_node37"><a xlink:href="value__handle_8h.html" target="_top" xlink:title=" ">
<polygon fill="white" stroke="#666666" points="1017.5,-316 894.5,-316 894.5,-297 1017.5,-297 1017.5,-316"/>
<text text-anchor="middle" x="956" y="-304" font-family="Helvetica,sans-Serif" font-size="10.00">ccf/kv/value_handle.h</text>
</a>
</g>
</g>
<!-- Node22&#45;&gt;Node37 -->
<g id="edge51" class="edge">
<title>Node22&#45;&gt;Node37</title>
<path fill="none" stroke="#63b8ff" d="M877.1,-351.98C891.82,-343.69 914.42,-330.94 931.67,-321.22"/>
<polygon fill="#63b8ff" stroke="#63b8ff" points="933.63,-324.13 940.62,-316.17 930.19,-318.03 933.63,-324.13"/>
</g>
<!-- Node23&#45;&gt;Node5 -->
<g id="edge28" class="edge">
<title>Node23&#45;&gt;Node5</title>
<path fill="none" stroke="#63b8ff" d="M781.67,-296.74C784.39,-282.76 790.06,-254.6 796,-231 804.26,-198.19 815.6,-160.43 822.33,-138.62"/>
<polygon fill="#63b8ff" stroke="#63b8ff" points="825.68,-139.63 825.3,-129.04 818.99,-137.55 825.68,-139.63"/>
</g>
<!-- Node24&#45;&gt;Node20 -->
<g id="edge32" class="edge">
<title>Node24&#45;&gt;Node20</title>
<path fill="none" stroke="#63b8ff" d="M1342.37,-236.37C1361.41,-225.68 1394.07,-207.35 1416.56,-194.72"/>
<polygon fill="#63b8ff" stroke="#63b8ff" points="1418.5,-197.65 1425.5,-189.7 1415.07,-191.54 1418.5,-197.65"/>
</g>
<!-- Node25 -->
<g id="node25" class="node">
<title>Node25</title>
<g id="a_node25"><a xlink:href="version_8h.html" target="_top" xlink:title=" ">
<polygon fill="white" stroke="#666666" points="1394,-189.5 1300,-189.5 1300,-170.5 1394,-170.5 1394,-189.5"/>
<text text-anchor="middle" x="1347" y="-177.5" font-family="Helvetica,sans-Serif" font-size="10.00">ccf/kv/version.h</text>
</a>
</g>
</g>
<!-- Node24&#45;&gt;Node25 -->
<g id="edge30" class="edge">
<title>Node24&#45;&gt;Node25</title>
<path fill="none" stroke="#63b8ff" d="M1329.7,-236.37C1332.63,-226.97 1337.42,-211.67 1341.21,-199.53"/>
<polygon fill="#63b8ff" stroke="#63b8ff" points="1344.57,-200.49 1344.22,-189.91 1337.89,-198.41 1344.57,-200.49"/>
</g>
<!-- Node26 -->
<g id="node26" class="node">
<title>Node26</title>
<g id="a_node26"><a xlink:title=" ">
<polygon fill="#e0e0e0" stroke="#999999" points="1281.5,-189.5 1216.5,-189.5 1216.5,-170.5 1281.5,-170.5 1281.5,-189.5"/>
<text text-anchor="middle" x="1249" y="-177.5" font-family="Helvetica,sans-Serif" font-size="10.00">functional</text>
</a>
</g>
</g>
<!-- Node24&#45;&gt;Node26 -->
<g id="edge31" class="edge">
<title>Node24&#45;&gt;Node26</title>
<path fill="none" stroke="#63b8ff" d="M1316.48,-236.37C1303.92,-226.06 1282.69,-208.65 1267.4,-196.09"/>
<polygon fill="#63b8ff" stroke="#63b8ff" points="1269.55,-193.34 1259.6,-189.7 1265.11,-198.75 1269.55,-193.34"/>
</g>
<!-- Node27&#45;&gt;Node8 -->
<g id="edge34" class="edge">
<title>Node27&#45;&gt;Node8</title>
<path fill="none" stroke="#63b8ff" d="M811.43,-230.95C776.65,-219.48 728.09,-203.46 695.41,-192.68"/>
<polygon fill="#63b8ff" stroke="#63b8ff" points="696.41,-189.33 685.82,-189.52 694.22,-195.97 696.41,-189.33"/>
</g>
<!-- Node28 -->
<g id="node28" class="node">
<title>Node28</title>
<g id="a_node28"><a xlink:href="serialised__entry_8h.html" target="_top" xlink:title=" ">
<polygon fill="white" stroke="#666666" points="931.5,-195 826.5,-195 826.5,-165 931.5,-165 931.5,-195"/>
<text text-anchor="start" x="834.5" y="-183" font-family="Helvetica,sans-Serif" font-size="10.00">ccf/kv/serialisers</text>
<text text-anchor="middle" x="879" y="-172" font-family="Helvetica,sans-Serif" font-size="10.00">/serialised_entry.h</text>
</a>
</g>
</g>
<!-- Node27&#45;&gt;Node28 -->
<g id="edge35" class="edge">
<title>Node27&#45;&gt;Node28</title>
<path fill="none" stroke="#63b8ff" d="M859.55,-230.8C862.56,-223.09 866.36,-213.37 869.8,-204.56"/>
<polygon fill="#63b8ff" stroke="#63b8ff" points="873.09,-205.75 873.47,-195.16 866.57,-203.21 873.09,-205.75"/>
</g>
<!-- Node29 -->
<g id="node29" class="node">
<title>Node29</title>
<g id="a_node29"><a xlink:href="byte__vector_8h.html" target="_top" xlink:title=" ">
<polygon fill="white" stroke="#666666" points="968,-129 868,-129 868,-110 968,-110 968,-129"/>
<text text-anchor="middle" x="918" y="-117" font-family="Helvetica,sans-Serif" font-size="10.00">ccf/byte_vector.h</text>
</a>
</g>
</g>
<!-- Node28&#45;&gt;Node29 -->
<g id="edge36" class="edge">
<title>Node28&#45;&gt;Node29</title>
<path fill="none" stroke="#63b8ff" d="M888.44,-164.84C893.87,-156.69 900.73,-146.4 906.48,-137.78"/>
<polygon fill="#63b8ff" stroke="#63b8ff" points="909.52,-139.53 912.16,-129.27 903.7,-135.65 909.52,-139.53"/>
</g>
<!-- Node29&#45;&gt;Node15 -->
<g id="edge41" class="edge">
<title>Node29&#45;&gt;Node15</title>
<path fill="none" stroke="#63b8ff" d="M867.82,-111.04C864.84,-110.67 861.88,-110.32 859,-110 664.75,-88.53 432.5,-73.96 332.64,-68.23"/>
<polygon fill="#63b8ff" stroke="#63b8ff" points="332.72,-64.73 322.54,-67.65 332.33,-71.72 332.72,-64.73"/>
</g>
<!-- Node30 -->
<g id="node30" class="node">
<title>Node30</title>
<g id="a_node30"><a xlink:href="siphash_8h.html" target="_top" xlink:title=" ">
<polygon fill="white" stroke="#666666" points="1067.5,-74 972.5,-74 972.5,-55 1067.5,-55 1067.5,-74"/>
<text text-anchor="middle" x="1020" y="-62" font-family="Helvetica,sans-Serif" font-size="10.00">ccf/ds/siphash.h</text>
</a>
</g>
</g>
<!-- Node29&#45;&gt;Node30 -->
<g id="edge37" class="edge">
<title>Node29&#45;&gt;Node30</title>
<path fill="none" stroke="#63b8ff" d="M934.39,-109.98C950.57,-101.57 975.57,-88.59 994.38,-78.81"/>
<polygon fill="#63b8ff" stroke="#63b8ff" points="996.05,-81.89 1003.31,-74.17 992.83,-75.68 996.05,-81.89"/>
</g>
<!-- Node33 -->
<g id="node33" class="node">
<title>Node33</title>
<g id="a_node33"><a xlink:title=" ">
<polygon fill="#e0e0e0" stroke="#999999" points="954.5,-74 805.5,-74 805.5,-55 954.5,-55 954.5,-74"/>
<text text-anchor="middle" x="880" y="-62" font-family="Helvetica,sans-Serif" font-size="10.00">small_vector/SmallVector.h</text>
</a>
</g>
</g>
<!-- Node29&#45;&gt;Node33 -->
<g id="edge42" class="edge">
<title>Node29&#45;&gt;Node33</title>
<path fill="none" stroke="#63b8ff" d="M911.73,-109.75C906.41,-102.34 898.64,-91.5 892.12,-82.41"/>
<polygon fill="#63b8ff" stroke="#63b8ff" points="894.83,-80.18 886.16,-74.09 889.14,-84.26 894.83,-80.18"/>
</g>
<!-- Node30&#45;&gt;Node6 -->
<g id="edge40" class="edge">
<title>Node30&#45;&gt;Node6</title>
<path fill="none" stroke="#63b8ff" d="M972.37,-56.01C969.54,-55.65 966.74,-55.31 964,-55 743.93,-30.35 477.81,-16.42 384.93,-12.03"/>
<polygon fill="#63b8ff" stroke="#63b8ff" points="384.88,-8.52 374.73,-11.55 384.55,-15.52 384.88,-8.52"/>
</g>
<!-- Node31 -->
<g id="node31" class="node">
<title>Node31</title>
<g id="a_node31"><a xlink:title=" ">
<polygon fill="#e0e0e0" stroke="#999999" points="1081.5,-19 1028.5,-19 1028.5,0 1081.5,0 1081.5,-19"/>
<text text-anchor="middle" x="1055" y="-7" font-family="Helvetica,sans-Serif" font-size="10.00">cstddef</text>
</a>
</g>
</g>
<!-- Node30&#45;&gt;Node31 -->
<g id="edge38" class="edge">
<title>Node30&#45;&gt;Node31</title>
<path fill="none" stroke="#63b8ff" d="M1025.78,-54.75C1030.62,-47.42 1037.68,-36.73 1043.64,-27.7"/>
<polygon fill="#63b8ff" stroke="#63b8ff" points="1046.74,-29.36 1049.33,-19.09 1040.9,-25.5 1046.74,-29.36"/>
</g>
<!-- Node32 -->
<g id="node32" class="node">
<title>Node32</title>
<g id="a_node32"><a xlink:title=" ">
<polygon fill="#e0e0e0" stroke="#999999" points="1010,-19 960,-19 960,0 1010,0 1010,-19"/>
<text text-anchor="middle" x="985" y="-7" font-family="Helvetica,sans-Serif" font-size="10.00">cstdint</text>
</a>
</g>
</g>
<!-- Node30&#45;&gt;Node32 -->
<g id="edge39" class="edge">
<title>Node30&#45;&gt;Node32</title>
<path fill="none" stroke="#63b8ff" d="M1014.22,-54.75C1009.38,-47.42 1002.32,-36.73 996.36,-27.7"/>
<polygon fill="#63b8ff" stroke="#63b8ff" points="999.1,-25.5 990.67,-19.09 993.26,-29.36 999.1,-25.5"/>
</g>
<!-- Node34&#45;&gt;Node16 -->
<g id="edge45" class="edge">
<title>Node34&#45;&gt;Node16</title>
<path fill="none" stroke="#63b8ff" d="M663.77,-230.95C636.41,-219.73 598.43,-204.15 572.19,-193.39"/>
<polygon fill="#63b8ff" stroke="#63b8ff" points="573.34,-190.07 562.76,-189.52 570.68,-196.55 573.34,-190.07"/>
</g>
<!-- Node34&#45;&gt;Node28 -->
<g id="edge44" class="edge">
<title>Node34&#45;&gt;Node28</title>
<path fill="none" stroke="#63b8ff" d="M737.72,-230.95C764.83,-221.37 800.94,-208.6 829.86,-198.37"/>
<polygon fill="#63b8ff" stroke="#63b8ff" points="831.11,-201.65 839.37,-195.01 828.78,-195.05 831.11,-201.65"/>
</g>
<!-- Node35&#45;&gt;Node14 -->
<g id="edge50" class="edge">
<title>Node35&#45;&gt;Node14</title>
<path fill="none" stroke="#63b8ff" d="M1081.05,-296.56C1074.26,-281.85 1059.35,-252.07 1041,-231 1029,-217.23 1012.81,-204.48 999.85,-195.3"/>
<polygon fill="#63b8ff" stroke="#63b8ff" points="1001.71,-192.33 991.49,-189.54 997.74,-198.09 1001.71,-192.33"/>
</g>
<!-- Node35&#45;&gt;Node24 -->
<g id="edge47" class="edge">
<title>Node35&#45;&gt;Node24</title>
<path fill="none" stroke="#63b8ff" d="M1122.72,-296.93C1160.93,-288.18 1221.67,-274.07 1274,-261 1277.79,-260.05 1281.72,-259.05 1285.66,-258.04"/>
<polygon fill="#63b8ff" stroke="#63b8ff" points="1286.57,-261.41 1295.37,-255.51 1284.81,-254.64 1286.57,-261.41"/>
</g>
<!-- Node35&#45;&gt;Node28 -->
<g id="edge48" class="edge">
<title>Node35&#45;&gt;Node28</title>
<path fill="none" stroke="#63b8ff" d="M1076.41,-296.81C1058,-278.24 1015.79,-235.99 1008,-231 986.67,-217.35 961.03,-206.46 938.24,-198.37"/>
<polygon fill="#63b8ff" stroke="#63b8ff" points="939.27,-195.03 928.67,-195.08 936.99,-201.65 939.27,-195.03"/>
</g>
<!-- Node36 -->
<g id="node36" class="node">
<title>Node36</title>
<g id="a_node36"><a xlink:title=" ">
<polygon fill="#e0e0e0" stroke="#999999" points="1265,-255.5 1227,-255.5 1227,-236.5 1265,-236.5 1265,-255.5"/>
<text text-anchor="middle" x="1246" y="-243.5" font-family="Helvetica,sans-Serif" font-size="10.00">map</text>
</a>
</g>
</g>
<!-- Node35&#45;&gt;Node36 -->
<g id="edge49" class="edge">
<title>Node35&#45;&gt;Node36</title>
<path fill="none" stroke="#63b8ff" d="M1114.49,-296.94C1141.74,-288.72 1183.14,-275.46 1218,-261 1218.86,-260.64 1219.72,-260.27 1220.6,-259.89"/>
<polygon fill="#63b8ff" stroke="#63b8ff" points="1222.32,-262.95 1229.89,-255.54 1219.35,-256.61 1222.32,-262.95"/>
</g>
<!-- Node38 -->
<g id="node38" class="node">
<title>Node38</title>
<g id="a_node38"><a xlink:href="unit_8h.html" target="_top" xlink:title=" ">
<polygon fill="white" stroke="#666666" points="998.5,-255.5 921.5,-255.5 921.5,-236.5 998.5,-236.5 998.5,-255.5"/>
<text text-anchor="middle" x="960" y="-243.5" font-family="Helvetica,sans-Serif" font-size="10.00">ccf/kv/unit.h</text>
</a>
</g>
</g>
<!-- Node37&#45;&gt;Node38 -->
<g id="edge52" class="edge">
<title>Node37&#45;&gt;Node38</title>
<path fill="none" stroke="#63b8ff" d="M956.59,-296.87C957.15,-288.75 958,-276.31 958.71,-265.89"/>
<polygon fill="#63b8ff" stroke="#63b8ff" points="962.22,-265.88 959.41,-255.67 955.23,-265.41 962.22,-265.88"/>
</g>
<!-- Node39 -->
<g id="node39" class="node">
<title>Node39</title>
<g id="a_node39"><a xlink:href="untyped__map__handle_8h.html" target="_top" xlink:title=" ">
<polygon fill="white" stroke="#666666" points="1209,-261 1093,-261 1093,-231 1209,-231 1209,-261"/>
<text text-anchor="start" x="1101" y="-249" font-family="Helvetica,sans-Serif" font-size="10.00">ccf/kv/untyped_map</text>
<text text-anchor="middle" x="1151" y="-238" font-family="Helvetica,sans-Serif" font-size="10.00">_handle.h</text>
</a>
</g>
</g>
<!-- Node37&#45;&gt;Node39 -->
<g id="edge54" class="edge">
<title>Node37&#45;&gt;Node39</title>
<path fill="none" stroke="#63b8ff" d="M984.35,-296.99C1013.03,-288.39 1058.15,-274.86 1094.21,-264.04"/>
<polygon fill="#63b8ff" stroke="#63b8ff" points="1095.55,-267.29 1104.12,-261.06 1093.54,-260.59 1095.55,-267.29"/>
</g>
<!-- Node38&#45;&gt;Node28 -->
<g id="edge53" class="edge">
<title>Node38&#45;&gt;Node28</title>
<path fill="none" stroke="#63b8ff" d="M949.08,-236.37C937.78,-227.44 919.74,-213.19 904.79,-201.38"/>
<polygon fill="#63b8ff" stroke="#63b8ff" points="906.88,-198.57 896.87,-195.12 902.54,-204.06 906.88,-198.57"/>
</g>
<!-- Node39&#45;&gt;Node5 -->
<g id="edge60" class="edge">
<title>Node39&#45;&gt;Node5</title>
<path fill="none" stroke="#63b8ff" d="M1119.68,-230.96C1100,-221.67 1074.39,-208.71 1053,-195 1034.88,-183.39 1034.4,-174.31 1015,-165 953.73,-135.59 930.13,-145.4 860.47,-129.2"/>
<polygon fill="#63b8ff" stroke="#63b8ff" points="860.87,-125.7 850.32,-126.74 859.21,-132.5 860.87,-125.7"/>
</g>
<!-- Node39&#45;&gt;Node14 -->
<g id="edge59" class="edge">
<title>Node39&#45;&gt;Node14</title>
<path fill="none" stroke="#63b8ff" d="M1113.03,-230.95C1082.43,-219.63 1039.83,-203.88 1010.72,-193.1"/>
<polygon fill="#63b8ff" stroke="#63b8ff" points="1011.62,-189.7 1001.02,-189.52 1009.19,-196.27 1011.62,-189.7"/>
</g>
<!-- Node39&#45;&gt;Node25 -->
<g id="edge57" class="edge">
<title>Node39&#45;&gt;Node25</title>
<path fill="none" stroke="#63b8ff" d="M1194.01,-230.95C1229.14,-219.48 1278.21,-203.46 1311.22,-192.68"/>
<polygon fill="#63b8ff" stroke="#63b8ff" points="1312.5,-195.95 1320.92,-189.52 1310.32,-189.29 1312.5,-195.95"/>
</g>
<!-- Node39&#45;&gt;Node26 -->
<g id="edge58" class="edge">
<title>Node39&#45;&gt;Node26</title>
<path fill="none" stroke="#63b8ff" d="M1172.75,-230.8C1188.87,-220.27 1210.76,-205.97 1226.95,-195.4"/>
<polygon fill="#63b8ff" stroke="#63b8ff" points="1229.28,-198.06 1235.74,-189.66 1225.46,-192.2 1229.28,-198.06"/>
</g>
<!-- Node39&#45;&gt;Node28 -->
<g id="edge56" class="edge">
<title>Node39&#45;&gt;Node28</title>
<path fill="none" stroke="#63b8ff" d="M1092.98,-231.35C1048.5,-220.88 987.22,-206.46 941.63,-195.74"/>
<polygon fill="#63b8ff" stroke="#63b8ff" points="942.39,-192.32 931.86,-193.44 940.79,-199.13 942.39,-192.32"/>
</g>
<!-- Node40 -->
<g id="node40" class="node">
<title>Node40</title>
<g id="a_node40"><a xlink:href="abstract__handle_8h.html" target="_top" xlink:title=" ">
<polygon fill="white" stroke="#666666" points="1198,-189.5 1062,-189.5 1062,-170.5 1198,-170.5 1198,-189.5"/>
<text text-anchor="middle" x="1130" y="-177.5" font-family="Helvetica,sans-Serif" font-size="10.00">ccf/kv/abstract_handle.h</text>
</a>
</g>
</g>
<!-- Node39&#45;&gt;Node40 -->
<g id="edge55" class="edge">
<title>Node39&#45;&gt;Node40</title>
<path fill="none" stroke="#63b8ff" d="M1146.34,-230.8C1143.32,-221.6 1139.36,-209.53 1136.1,-199.58"/>
<polygon fill="#63b8ff" stroke="#63b8ff" points="1139.35,-198.25 1132.9,-189.84 1132.69,-200.44 1139.35,-198.25"/>
</g>
</g>
</svg>
