<?xml version="1.0" encoding="UTF-8" standalone="no"?>
<!DOCTYPE svg PUBLIC "-//W3C//DTD SVG 1.1//EN"
 "http://www.w3.org/Graphics/SVG/1.1/DTD/svg11.dtd">
<!-- Generated by graphviz version 2.43.0 (0)
 -->
<!-- Title: src/node/session_metrics.h Pages: 1 -->
<!--zoomable 654 -->
<svg id="main" version="1.1" xmlns="http://www.w3.org/2000/svg" xmlns:xlink="http://www.w3.org/1999/xlink" xml:space="preserve" onload="init(evt)">
<style type="text/css"><![CDATA[
.edge:hover path { stroke: red; }
.edge:hover polygon { stroke: red; fill: red; }
]]></style>
<script type="text/javascript"><![CDATA[
var edges = document.getElementsByTagName('g');
if (edges && edges.length) {
  for (var i=0;i<edges.length;i++) {
    if (edges[i].id.substr(0,4)=='edge') {
      edges[i].setAttribute('class','edge');
    }
  }
}
]]></script>
        <defs>
                <circle id="rim" cx="0" cy="0" r="7"/>
                <circle id="rim2" cx="0" cy="0" r="3.5"/>
                <g id="zoomPlus">
                        <use xlink:href="#rim" fill="#404040">
                                <set attributeName="fill" to="#808080" begin="zoomplus.mouseover" end="zoomplus.mouseout"/>
                        </use>
                        <path d="M-4,0h8M0,-4v8" fill="none" stroke="white" stroke-width="1.5" pointer-events="none"/>
                </g>
                <g id="zoomMin">
                        <use xlink:href="#rim" fill="#404040">
                                <set attributeName="fill" to="#808080" begin="zoomminus.mouseover" end="zoomminus.mouseout"/>
                        </use>
                        <path d="M-4,0h8" fill="none" stroke="white" stroke-width="1.5" pointer-events="none"/>
                </g>
                <g id="dirArrow">
                        <path fill="none" stroke="white" stroke-width="1.5" d="M0,-3.0v7 M-2.5,-0.5L0,-3.0L2.5,-0.5"/>
                </g>
               <g id="resetDef">
                       <use xlink:href="#rim2" fill="#404040">
                               <set attributeName="fill" to="#808080" begin="reset.mouseover" end="reset.mouseout"/>
                       </use>
               </g>
        </defs>

<script type="text/javascript">
var viewWidth = 2198;
var viewHeight = 654;
var sectionId = 'dynsection-1';
</script>
<script xlink:href="svgpan.js"/>
<svg id="graph" class="graph">
<g id="viewport">
<title>src/node/session_metrics.h</title>
<!-- Node1 -->
<g id="node1" class="node">
<title>Node1</title>
<g id="a_node1"><a xlink:title=" ">
<polygon fill="#999999" stroke="#666666" points="715.62,-646 566.62,-646 566.62,-627 715.62,-627 715.62,-646"/>
<text text-anchor="middle" x="641.12" y="-634" font-family="Helvetica,sans-Serif" font-size="10.00">src/node/session_metrics.h</text>
</a>
</g>
</g>
<!-- Node2 -->
<g id="node2" class="node">
<title>Node2</title>
<g id="a_node2"><a xlink:href="rpc__sessions_8h.html" target="_top" xlink:title=" ">
<polygon fill="white" stroke="#666666" points="290.12,-332.5 144.12,-332.5 144.12,-313.5 290.12,-313.5 290.12,-332.5"/>
<text text-anchor="middle" x="217.12" y="-320.5" font-family="Helvetica,sans-Serif" font-size="10.00">src/enclave/rpc_sessions.h</text>
</a>
</g>
</g>
<!-- Node1&#45;&gt;Node2 -->
<g id="edge1" class="edge">
<title>Node1&#45;&gt;Node2</title>
<path fill="none" stroke="#63b8ff" d="M556.51,-630.78C481.29,-621.47 383.12,-594.39 383.12,-516.5 383.12,-516.5 383.12,-516.5 383.12,-454 383.12,-385.91 295.49,-348.14 247.57,-332.57"/>
<polygon fill="#63b8ff" stroke="#63b8ff" points="556.16,-634.27 566.5,-631.93 556.96,-627.31 556.16,-634.27"/>
</g>
<!-- Node10 -->
<g id="node10" class="node">
<title>Node10</title>
<g id="a_node10"><a xlink:href="node__frontend_8h.html" target="_top" xlink:title=" ">
<polygon fill="white" stroke="#666666" points="582.12,-332.5 424.12,-332.5 424.12,-313.5 582.12,-313.5 582.12,-332.5"/>
<text text-anchor="middle" x="503.12" y="-320.5" font-family="Helvetica,sans-Serif" font-size="10.00">src/node/rpc/node_frontend.h</text>
</a>
</g>
</g>
<!-- Node1&#45;&gt;Node10 -->
<g id="edge14" class="edge">
<title>Node1&#45;&gt;Node10</title>
<path fill="none" stroke="#63b8ff" d="M615.15,-621.94C582.91,-603.03 532.12,-565.46 532.12,-516.5 532.12,-516.5 532.12,-516.5 532.12,-454 532.12,-407.29 514.06,-353.35 506.45,-332.68"/>
<polygon fill="#63b8ff" stroke="#63b8ff" points="613.66,-625.12 624.09,-626.99 617.1,-619.03 613.66,-625.12"/>
</g>
<!-- Node12 -->
<g id="node12" class="node">
<title>Node12</title>
<g id="a_node12"><a xlink:href="node__interface_8h.html" target="_top" xlink:title=" ">
<polygon fill="white" stroke="#666666" points="1000.62,-525 839.62,-525 839.62,-506 1000.62,-506 1000.62,-525"/>
<text text-anchor="middle" x="920.12" y="-513" font-family="Helvetica,sans-Serif" font-size="10.00">src/node/rpc/node_interface.h</text>
</a>
</g>
</g>
<!-- Node1&#45;&gt;Node12 -->
<g id="edge18" class="edge">
<title>Node1&#45;&gt;Node12</title>
<path fill="none" stroke="#63b8ff" d="M670.69,-622.89C727.65,-598.59 851.22,-545.89 899.86,-525.14"/>
<polygon fill="#63b8ff" stroke="#63b8ff" points="669.01,-619.8 661.18,-626.94 671.76,-626.24 669.01,-619.8"/>
</g>
<!-- Node32 -->
<g id="node32" class="node">
<title>Node32</title>
<g id="a_node32"><a xlink:href="node__operation__interface_8h.html" target="_top" xlink:title=" ">
<polygon fill="white" stroke="#666666" points="1077.62,-591 922.62,-591 922.62,-561 1077.62,-561 1077.62,-591"/>
<text text-anchor="start" x="930.62" y="-579" font-family="Helvetica,sans-Serif" font-size="10.00">src/node/rpc/node_operation</text>
<text text-anchor="middle" x="1000.12" y="-568" font-family="Helvetica,sans-Serif" font-size="10.00">_interface.h</text>
</a>
</g>
</g>
<!-- Node1&#45;&gt;Node32 -->
<g id="edge60" class="edge">
<title>Node1&#45;&gt;Node32</title>
<path fill="none" stroke="#63b8ff" d="M703.54,-625.33C764.31,-615.43 856.83,-600.35 922.35,-589.67"/>
<polygon fill="#63b8ff" stroke="#63b8ff" points="702.63,-621.93 693.32,-626.99 703.75,-628.84 702.63,-621.93"/>
</g>
<!-- Node3 -->
<g id="node3" class="node">
<title>Node3</title>
<g id="a_node3"><a xlink:href="src_2enclave_2enclave_8h.html" target="_top" xlink:title=" ">
<polygon fill="white" stroke="#666666" points="1012.12,-74 890.12,-74 890.12,-55 1012.12,-55 1012.12,-74"/>
<text text-anchor="middle" x="951.12" y="-62" font-family="Helvetica,sans-Serif" font-size="10.00">src/enclave/enclave.h</text>
</a>
</g>
</g>
<!-- Node2&#45;&gt;Node3 -->
<g id="edge2" class="edge">
<title>Node2&#45;&gt;Node3</title>
<path fill="none" stroke="#63b8ff" d="M133.68,-317.41C60.95,-310.1 -27.59,-291.14 9.12,-242 115.29,-99.86 698.23,-72.05 889.97,-66.73"/>
<polygon fill="#63b8ff" stroke="#63b8ff" points="133.54,-320.91 143.82,-318.37 134.19,-313.95 133.54,-320.91"/>
</g>
<!-- Node5 -->
<g id="node5" class="node">
<title>Node5</title>
<g id="a_node5"><a xlink:href="ccf__acme__client_8h.html" target="_top" xlink:title=" ">
<polygon fill="white" stroke="#666666" points="702.62,-266.5 553.62,-266.5 553.62,-247.5 702.62,-247.5 702.62,-266.5"/>
<text text-anchor="middle" x="628.12" y="-254.5" font-family="Helvetica,sans-Serif" font-size="10.00">src/node/ccf_acme_client.h</text>
</a>
</g>
</g>
<!-- Node2&#45;&gt;Node5 -->
<g id="edge4" class="edge">
<title>Node2&#45;&gt;Node5</title>
<path fill="none" stroke="#63b8ff" d="M282.13,-311.88C362.57,-299.35 498.1,-278.25 573.44,-266.51"/>
<polygon fill="#63b8ff" stroke="#63b8ff" points="281.47,-308.44 272.12,-313.44 282.54,-315.35 281.47,-308.44"/>
</g>
<!-- Node6 -->
<g id="node6" class="node">
<title>Node6</title>
<g id="a_node6"><a xlink:href="node__state_8h.html" target="_top" xlink:title=" ">
<polygon fill="white" stroke="#666666" points="588.12,-200.5 464.12,-200.5 464.12,-181.5 588.12,-181.5 588.12,-200.5"/>
<text text-anchor="middle" x="526.12" y="-188.5" font-family="Helvetica,sans-Serif" font-size="10.00">src/node/node_state.h</text>
</a>
</g>
</g>
<!-- Node2&#45;&gt;Node6 -->
<g id="edge9" class="edge">
<title>Node2&#45;&gt;Node6</title>
<path fill="none" stroke="#63b8ff" d="M200.22,-305.79C184.18,-288.45 164.76,-260.9 181.12,-242 216.96,-200.59 374.59,-192.74 463.87,-191.7"/>
<polygon fill="#63b8ff" stroke="#63b8ff" points="198.16,-308.69 207.65,-313.4 203.17,-303.8 198.16,-308.69"/>
</g>
<!-- Node8 -->
<g id="node8" class="node">
<title>Node8</title>
<g id="a_node8"><a xlink:href="quote__endorsements__client_8h.html" target="_top" xlink:title=" ">
<polygon fill="white" stroke="#666666" points="354.12,-272 190.12,-272 190.12,-242 354.12,-242 354.12,-272"/>
<text text-anchor="start" x="198.12" y="-260" font-family="Helvetica,sans-Serif" font-size="10.00">src/node/quote_endorsements</text>
<text text-anchor="middle" x="272.12" y="-249" font-family="Helvetica,sans-Serif" font-size="10.00">_client.h</text>
</a>
</g>
</g>
<!-- Node2&#45;&gt;Node8 -->
<g id="edge10" class="edge">
<title>Node2&#45;&gt;Node8</title>
<path fill="none" stroke="#63b8ff" d="M231.26,-305.54C240.08,-295.28 251.32,-282.2 259.78,-272.36"/>
<polygon fill="#63b8ff" stroke="#63b8ff" points="228.4,-303.5 224.54,-313.37 233.71,-308.07 228.4,-303.5"/>
</g>
<!-- Node9 -->
<g id="node9" class="node">
<title>Node9</title>
<g id="a_node9"><a xlink:href="resharing_8h.html" target="_top" xlink:title=" ">
<polygon fill="white" stroke="#666666" points="134.12,-266.5 18.12,-266.5 18.12,-247.5 134.12,-247.5 134.12,-266.5"/>
<text text-anchor="middle" x="76.12" y="-254.5" font-family="Helvetica,sans-Serif" font-size="10.00">src/node/resharing.h</text>
</a>
</g>
</g>
<!-- Node2&#45;&gt;Node9 -->
<g id="edge12" class="edge">
<title>Node2&#45;&gt;Node9</title>
<path fill="none" stroke="#63b8ff" d="M188.91,-309.19C161.12,-296.58 119.43,-277.66 95.28,-266.7"/>
<polygon fill="#63b8ff" stroke="#63b8ff" points="187.55,-312.42 198.1,-313.37 190.44,-306.05 187.55,-312.42"/>
</g>
<!-- Node4 -->
<g id="node4" class="node">
<title>Node4</title>
<g id="a_node4"><a xlink:href="enclave_2main_8cpp.html" target="_top" xlink:title=" ">
<polygon fill="white" stroke="#666666" points="1011.12,-19 891.12,-19 891.12,0 1011.12,0 1011.12,-19"/>
<text text-anchor="middle" x="951.12" y="-7" font-family="Helvetica,sans-Serif" font-size="10.00">src/enclave/main.cpp</text>
</a>
</g>
</g>
<!-- Node3&#45;&gt;Node4 -->
<g id="edge3" class="edge">
<title>Node3&#45;&gt;Node4</title>
<path fill="none" stroke="#63b8ff" d="M951.12,-44.66C951.12,-35.93 951.12,-25.99 951.12,-19.09"/>
<polygon fill="#63b8ff" stroke="#63b8ff" points="947.62,-44.75 951.12,-54.75 954.62,-44.75 947.62,-44.75"/>
</g>
<!-- Node5&#45;&gt;Node6 -->
<g id="edge5" class="edge">
<title>Node5&#45;&gt;Node6</title>
<path fill="none" stroke="#63b8ff" d="M605.84,-242.02C585.78,-229.43 556.92,-211.32 539.98,-200.7"/>
<polygon fill="#63b8ff" stroke="#63b8ff" points="604.03,-245.02 614.36,-247.37 607.75,-239.09 604.03,-245.02"/>
</g>
<!-- Node6&#45;&gt;Node3 -->
<g id="edge6" class="edge">
<title>Node6&#45;&gt;Node3</title>
<path fill="none" stroke="#63b8ff" d="M550.73,-176.65C588.65,-156.28 659.82,-118.87 687.12,-110 754.64,-88.07 835.58,-76.46 889.88,-70.67"/>
<polygon fill="#63b8ff" stroke="#63b8ff" points="549,-173.61 541.86,-181.44 552.32,-179.77 549,-173.61"/>
</g>
<!-- Node7 -->
<g id="node7" class="node">
<title>Node7</title>
<g id="a_node7"><a xlink:href="gov__effects_8h.html" target="_top" xlink:title=" ">
<polygon fill="white" stroke="#666666" points="608.12,-134.5 464.12,-134.5 464.12,-115.5 608.12,-115.5 608.12,-134.5"/>
<text text-anchor="middle" x="536.12" y="-122.5" font-family="Helvetica,sans-Serif" font-size="10.00">src/node/rpc/gov_effects.h</text>
</a>
</g>
</g>
<!-- Node6&#45;&gt;Node7 -->
<g id="edge7" class="edge">
<title>Node6&#45;&gt;Node7</title>
<path fill="none" stroke="#63b8ff" d="M529.02,-171.45C530.9,-159.43 533.26,-144.32 534.73,-134.91"/>
<polygon fill="#63b8ff" stroke="#63b8ff" points="525.55,-170.95 527.47,-181.37 532.47,-172.03 525.55,-170.95"/>
</g>
<!-- Node7&#45;&gt;Node3 -->
<g id="edge8" class="edge">
<title>Node7&#45;&gt;Node3</title>
<path fill="none" stroke="#63b8ff" d="M606.43,-114.09C686.27,-102.83 815.21,-84.66 890.7,-74.02"/>
<polygon fill="#63b8ff" stroke="#63b8ff" points="605.88,-110.63 596.46,-115.49 606.86,-117.56 605.88,-110.63"/>
</g>
<!-- Node8&#45;&gt;Node6 -->
<g id="edge11" class="edge">
<title>Node8&#45;&gt;Node6</title>
<path fill="none" stroke="#63b8ff" d="M337.83,-239.44C387.28,-226.98 453.03,-210.42 492.32,-200.52"/>
<polygon fill="#63b8ff" stroke="#63b8ff" points="336.7,-236.12 327.86,-241.95 338.41,-242.91 336.7,-236.12"/>
</g>
<!-- Node9&#45;&gt;Node6 -->
<g id="edge13" class="edge">
<title>Node9&#45;&gt;Node6</title>
<path fill="none" stroke="#63b8ff" d="M127.81,-245.56C134.63,-244.3 141.53,-243.07 148.12,-242 259.02,-223.9 389.05,-207.82 464.08,-199.04"/>
<polygon fill="#63b8ff" stroke="#63b8ff" points="127.1,-242.13 117.92,-247.43 128.4,-249.01 127.1,-242.13"/>
</g>
<!-- Node10&#45;&gt;Node3 -->
<g id="edge15" class="edge">
<title>Node10&#45;&gt;Node3</title>
<path fill="none" stroke="#63b8ff" d="M584.45,-311.92C635.41,-303.9 694.64,-290.85 712.12,-272 761.7,-218.52 687.78,-162.76 738.12,-110 758.66,-88.48 834.55,-76.59 889.91,-70.64"/>
<polygon fill="#63b8ff" stroke="#63b8ff" points="583.74,-308.49 574.38,-313.46 584.8,-315.41 583.74,-308.49"/>
</g>
<!-- Node11 -->
<g id="node11" class="node">
<title>Node11</title>
<g id="a_node11"><a xlink:href="jwt__key__auto__refresh_8h.html" target="_top" xlink:title=" ">
<polygon fill="white" stroke="#666666" points="497.62,-272 372.62,-272 372.62,-242 497.62,-242 497.62,-272"/>
<text text-anchor="start" x="380.62" y="-260" font-family="Helvetica,sans-Serif" font-size="10.00">src/node/jwt_key_auto</text>
<text text-anchor="middle" x="435.12" y="-249" font-family="Helvetica,sans-Serif" font-size="10.00">_refresh.h</text>
</a>
</g>
</g>
<!-- Node10&#45;&gt;Node11 -->
<g id="edge16" class="edge">
<title>Node10&#45;&gt;Node11</title>
<path fill="none" stroke="#63b8ff" d="M486.56,-306.41C475.43,-295.94 460.9,-282.26 450.12,-272.12"/>
<polygon fill="#63b8ff" stroke="#63b8ff" points="484.27,-309.06 493.95,-313.37 489.07,-303.97 484.27,-309.06"/>
</g>
<!-- Node11&#45;&gt;Node6 -->
<g id="edge17" class="edge">
<title>Node11&#45;&gt;Node6</title>
<path fill="none" stroke="#63b8ff" d="M463.74,-235.87C480.58,-224.03 501.03,-209.65 513.81,-200.66"/>
<polygon fill="#63b8ff" stroke="#63b8ff" points="461.48,-233.18 455.32,-241.8 465.51,-238.91 461.48,-233.18"/>
</g>
<!-- Node12&#45;&gt;Node10 -->
<g id="edge57" class="edge">
<title>Node12&#45;&gt;Node10</title>
<path fill="none" stroke="#63b8ff" d="M829.48,-505.83C762.68,-498.3 678.26,-486.09 647.12,-470 613.12,-452.43 534.66,-361.39 510.4,-332.68"/>
<polygon fill="#63b8ff" stroke="#63b8ff" points="829.29,-509.33 839.62,-506.95 830.06,-502.37 829.29,-509.33"/>
</g>
<!-- Node13 -->
<g id="node13" class="node">
<title>Node13</title>
<g id="a_node13"><a xlink:href="wrap_8cpp.html" target="_top" xlink:title=" ">
<polygon fill="white" stroke="#666666" points="1705.62,-266.5 1616.62,-266.5 1616.62,-247.5 1705.62,-247.5 1705.62,-266.5"/>
<text text-anchor="middle" x="1661.12" y="-254.5" font-family="Helvetica,sans-Serif" font-size="10.00">src/js/wrap.cpp</text>
</a>
</g>
</g>
<!-- Node12&#45;&gt;Node13 -->
<g id="edge19" class="edge">
<title>Node12&#45;&gt;Node13</title>
<path fill="none" stroke="#63b8ff" d="M1010.96,-513.9C1246.28,-510.24 1866.14,-486.42 1992.12,-338 2000.75,-327.83 2000.82,-318.11 1992.12,-308 1955.69,-265.65 1787.3,-258.71 1705.7,-257.88"/>
<polygon fill="#63b8ff" stroke="#63b8ff" points="1010.67,-510.41 1000.72,-514.05 1010.77,-517.41 1010.67,-510.41"/>
</g>
<!-- Node14 -->
<g id="node14" class="node">
<title>Node14</title>
<g id="a_node14"><a xlink:href="wrap_8h.html" target="_top" xlink:title=" ">
<polygon fill="white" stroke="#666666" points="1483.12,-398.5 1405.12,-398.5 1405.12,-379.5 1483.12,-379.5 1483.12,-398.5"/>
<text text-anchor="middle" x="1444.12" y="-386.5" font-family="Helvetica,sans-Serif" font-size="10.00">src/js/wrap.h</text>
</a>
</g>
</g>
<!-- Node12&#45;&gt;Node14 -->
<g id="edge20" class="edge">
<title>Node12&#45;&gt;Node14</title>
<path fill="none" stroke="#63b8ff" d="M965.9,-503.62C1068.6,-479.22 1315.55,-420.55 1408.2,-398.53"/>
<polygon fill="#63b8ff" stroke="#63b8ff" points="965.06,-500.23 956.14,-505.94 966.67,-507.04 965.06,-500.23"/>
</g>
<!-- Node21 -->
<g id="node21" class="node">
<title>Node21</title>
<g id="a_node21"><a xlink:href="member__frontend_8h.html" target="_top" xlink:title=" ">
<polygon fill="white" stroke="#666666" points="1105.12,-338 985.12,-338 985.12,-308 1105.12,-308 1105.12,-338"/>
<text text-anchor="start" x="993.12" y="-326" font-family="Helvetica,sans-Serif" font-size="10.00">src/node/rpc/member</text>
<text text-anchor="middle" x="1045.12" y="-315" font-family="Helvetica,sans-Serif" font-size="10.00">_frontend.h</text>
</a>
</g>
</g>
<!-- Node12&#45;&gt;Node21 -->
<g id="edge53" class="edge">
<title>Node12&#45;&gt;Node21</title>
<path fill="none" stroke="#63b8ff" d="M917.41,-495.9C914.24,-466.9 912.41,-410.46 939.12,-374 951.56,-357.01 971.27,-345.59 990.34,-338"/>
<polygon fill="#63b8ff" stroke="#63b8ff" points="913.95,-496.41 918.68,-505.89 920.89,-495.53 913.95,-496.41"/>
</g>
<!-- Node22 -->
<g id="node22" class="node">
<title>Node22</title>
<g id="a_node22"><a xlink:href="historical__queries_8h.html" target="_top" xlink:title=" ">
<polygon fill="white" stroke="#666666" points="1132.12,-206 1026.12,-206 1026.12,-176 1132.12,-176 1132.12,-206"/>
<text text-anchor="start" x="1034.12" y="-194" font-family="Helvetica,sans-Serif" font-size="10.00">src/node/historical</text>
<text text-anchor="middle" x="1079.12" y="-183" font-family="Helvetica,sans-Serif" font-size="10.00">_queries.h</text>
</a>
</g>
</g>
<!-- Node12&#45;&gt;Node22 -->
<g id="edge37" class="edge">
<title>Node12&#45;&gt;Node22</title>
<path fill="none" stroke="#63b8ff" d="M910.96,-496.55C899.72,-472.82 882.12,-429.37 882.12,-390 882.12,-390 882.12,-390 882.12,-322 882.12,-283.28 989.5,-230.87 1045.7,-206.1"/>
<polygon fill="#63b8ff" stroke="#63b8ff" points="907.91,-498.29 915.46,-505.72 914.2,-495.2 907.91,-498.29"/>
</g>
<!-- Node24 -->
<g id="node24" class="node">
<title>Node24</title>
<g id="a_node24"><a xlink:href="node__configuration__subsystem_8h.html" target="_top" xlink:title=" ">
<polygon fill="white" stroke="#666666" points="810.12,-470 656.12,-470 656.12,-440 810.12,-440 810.12,-470"/>
<text text-anchor="start" x="664.12" y="-458" font-family="Helvetica,sans-Serif" font-size="10.00">src/node/node_configuration</text>
<text text-anchor="middle" x="733.12" y="-447" font-family="Helvetica,sans-Serif" font-size="10.00">_subsystem.h</text>
</a>
</g>
</g>
<!-- Node12&#45;&gt;Node24 -->
<g id="edge41" class="edge">
<title>Node12&#45;&gt;Node24</title>
<path fill="none" stroke="#63b8ff" d="M883.21,-502.95C853.03,-493.51 810.25,-480.13 778.08,-470.06"/>
<polygon fill="#63b8ff" stroke="#63b8ff" points="882.34,-506.35 892.93,-505.99 884.43,-499.67 882.34,-506.35"/>
</g>
<!-- Node28 -->
<g id="node28" class="node">
<title>Node28</title>
<g id="a_node28"><a xlink:href="acme__subsystem_8h.html" target="_top" xlink:title=" ">
<polygon fill="white" stroke="#666666" points="1007.62,-200.5 834.62,-200.5 834.62,-181.5 1007.62,-181.5 1007.62,-200.5"/>
<text text-anchor="middle" x="921.12" y="-188.5" font-family="Helvetica,sans-Serif" font-size="10.00">src/node/rpc/acme_subsystem.h</text>
</a>
</g>
</g>
<!-- Node12&#45;&gt;Node28 -->
<g id="edge51" class="edge">
<title>Node12&#45;&gt;Node28</title>
<path fill="none" stroke="#63b8ff" d="M897.95,-500.04C887.57,-492.25 875.82,-481.82 868.12,-470 847.86,-438.89 844.12,-427.12 844.12,-390 844.12,-390 844.12,-390 844.12,-322 844.12,-284.88 848.62,-273.59 868.12,-242 878.75,-224.78 896.8,-209.55 908.84,-200.55"/>
<polygon fill="#63b8ff" stroke="#63b8ff" points="896.05,-502.98 906.23,-505.93 900.11,-497.28 896.05,-502.98"/>
</g>
<!-- Node29 -->
<g id="node29" class="node">
<title>Node29</title>
<g id="a_node29"><a xlink:href="network__identity__subsystem_8h.html" target="_top" xlink:title=" ">
<polygon fill="white" stroke="#666666" points="1075.62,-470 948.62,-470 948.62,-440 1075.62,-440 1075.62,-470"/>
<text text-anchor="start" x="956.62" y="-458" font-family="Helvetica,sans-Serif" font-size="10.00">src/node/rpc/network</text>
<text text-anchor="middle" x="1012.12" y="-447" font-family="Helvetica,sans-Serif" font-size="10.00">_identity_subsystem.h</text>
</a>
</g>
</g>
<!-- Node12&#45;&gt;Node29 -->
<g id="edge54" class="edge">
<title>Node12&#45;&gt;Node29</title>
<path fill="none" stroke="#63b8ff" d="M942.46,-500.29C956.87,-491.13 975.54,-479.26 989.92,-470.11"/>
<polygon fill="#63b8ff" stroke="#63b8ff" points="940.26,-497.55 933.69,-505.87 944.01,-503.46 940.26,-497.55"/>
</g>
<!-- Node31 -->
<g id="node31" class="node">
<title>Node31</title>
<g id="a_node31"><a xlink:href="node__operation_8h.html" target="_top" xlink:title=" ">
<polygon fill="white" stroke="#666666" points="2190.12,-464.5 2026.12,-464.5 2026.12,-445.5 2190.12,-445.5 2190.12,-464.5"/>
<text text-anchor="middle" x="2108.12" y="-452.5" font-family="Helvetica,sans-Serif" font-size="10.00">src/node/rpc/node_operation.h</text>
</a>
</g>
</g>
<!-- Node12&#45;&gt;Node31 -->
<g id="edge58" class="edge">
<title>Node12&#45;&gt;Node31</title>
<path fill="none" stroke="#63b8ff" d="M1010.88,-513.99C1198.35,-512.24 1641.79,-504.45 2012.12,-470 2026.54,-468.66 2042.11,-466.64 2056.42,-464.55"/>
<polygon fill="#63b8ff" stroke="#63b8ff" points="1010.76,-510.49 1000.8,-514.08 1010.83,-517.49 1010.76,-510.49"/>
</g>
<!-- Node14&#45;&gt;Node3 -->
<g id="edge22" class="edge">
<title>Node14&#45;&gt;Node3</title>
<path fill="none" stroke="#63b8ff" d="M1493.41,-388.66C1611.67,-389.45 1907.89,-386.38 1992.12,-338 2029.98,-316.26 2049.12,-301.66 2049.12,-258 2049.12,-258 2049.12,-258 2049.12,-190 2049.12,-84.84 1243.74,-68.49 1012.51,-65.96"/>
<polygon fill="#63b8ff" stroke="#63b8ff" points="1493.23,-385.16 1483.2,-388.58 1493.18,-392.16 1493.23,-385.16"/>
</g>
<!-- Node14&#45;&gt;Node6 -->
<g id="edge33" class="edge">
<title>Node14&#45;&gt;Node6</title>
<path fill="none" stroke="#63b8ff" d="M1394.97,-381.04C1343.34,-373.1 1260.07,-358.51 1190.12,-338 1155.27,-327.78 1148.97,-318.22 1114.12,-308 926.17,-252.86 696.68,-216.09 588.38,-200.49"/>
<polygon fill="#63b8ff" stroke="#63b8ff" points="1394.45,-384.5 1404.86,-382.54 1395.5,-377.58 1394.45,-384.5"/>
</g>
<!-- Node14&#45;&gt;Node10 -->
<g id="edge36" class="edge">
<title>Node14&#45;&gt;Node10</title>
<path fill="none" stroke="#63b8ff" d="M1394.87,-385.83C1267.88,-380.04 918.98,-362.98 629.12,-338 611.36,-336.47 592.22,-334.51 574.36,-332.54"/>
<polygon fill="#63b8ff" stroke="#63b8ff" points="1394.9,-389.33 1405.05,-386.29 1395.22,-382.34 1394.9,-389.33"/>
</g>
<!-- Node14&#45;&gt;Node13 -->
<g id="edge32" class="edge">
<title>Node14&#45;&gt;Node13</title>
<path fill="none" stroke="#63b8ff" d="M1493.68,-384.85C1556.81,-379.69 1660.59,-366.93 1684.12,-338 1701.53,-316.58 1680.16,-282.59 1668.18,-266.71"/>
<polygon fill="#63b8ff" stroke="#63b8ff" points="1493.23,-381.37 1483.53,-385.64 1493.77,-388.35 1493.23,-381.37"/>
</g>
<!-- Node15 -->
<g id="node15" class="node">
<title>Node15</title>
<g id="a_node15"><a xlink:href="js__generic__base_8cpp.html" target="_top" xlink:title=" ">
<polygon fill="white" stroke="#666666" points="1983.12,-338 1865.12,-338 1865.12,-308 1983.12,-308 1983.12,-338"/>
<text text-anchor="start" x="1873.12" y="-326" font-family="Helvetica,sans-Serif" font-size="10.00">src/apps/js_generic</text>
<text text-anchor="middle" x="1924.12" y="-315" font-family="Helvetica,sans-Serif" font-size="10.00">/js_generic_base.cpp</text>
</a>
</g>
</g>
<!-- Node14&#45;&gt;Node15 -->
<g id="edge21" class="edge">
<title>Node14&#45;&gt;Node15</title>
<path fill="none" stroke="#63b8ff" d="M1493.6,-383.32C1571.14,-375.7 1725.89,-359.27 1856.12,-338 1858.97,-337.53 1861.89,-337.03 1864.83,-336.5"/>
<polygon fill="#63b8ff" stroke="#63b8ff" points="1492.79,-379.89 1483.18,-384.34 1493.47,-386.85 1492.79,-379.89"/>
</g>
<!-- Node16 -->
<g id="node16" class="node">
<title>Node16</title>
<g id="a_node16"><a xlink:href="consensus_8cpp.html" target="_top" xlink:title=" ">
<polygon fill="white" stroke="#666666" points="1847.12,-332.5 1731.12,-332.5 1731.12,-313.5 1847.12,-313.5 1847.12,-332.5"/>
<text text-anchor="middle" x="1789.12" y="-320.5" font-family="Helvetica,sans-Serif" font-size="10.00">src/js/consensus.cpp</text>
</a>
</g>
</g>
<!-- Node14&#45;&gt;Node16 -->
<g id="edge23" class="edge">
<title>Node14&#45;&gt;Node16</title>
<path fill="none" stroke="#63b8ff" d="M1493.59,-379.11C1548.31,-369.23 1639.06,-352.74 1717.12,-338 1726.38,-336.25 1736.3,-334.34 1745.73,-332.52"/>
<polygon fill="#63b8ff" stroke="#63b8ff" points="1492.7,-375.71 1483.48,-380.93 1493.94,-382.6 1492.7,-375.71"/>
</g>
<!-- Node17 -->
<g id="node17" class="node">
<title>Node17</title>
<g id="a_node17"><a xlink:href="conv_8cpp.html" target="_top" xlink:title=" ">
<polygon fill="white" stroke="#666666" points="1433.12,-332.5 1345.12,-332.5 1345.12,-313.5 1433.12,-313.5 1433.12,-332.5"/>
<text text-anchor="middle" x="1389.12" y="-320.5" font-family="Helvetica,sans-Serif" font-size="10.00">src/js/conv.cpp</text>
</a>
</g>
</g>
<!-- Node14&#45;&gt;Node17 -->
<g id="edge25" class="edge">
<title>Node14&#45;&gt;Node17</title>
<path fill="none" stroke="#63b8ff" d="M1430.05,-371.62C1419.46,-359.31 1405.36,-342.89 1396.77,-332.91"/>
<polygon fill="#63b8ff" stroke="#63b8ff" points="1427.53,-374.07 1436.7,-379.37 1432.84,-369.5 1427.53,-374.07"/>
</g>
<!-- Node18 -->
<g id="node18" class="node">
<title>Node18</title>
<g id="a_node18"><a xlink:href="crypto_8cpp.html" target="_top" xlink:title=" ">
<polygon fill="white" stroke="#666666" points="1547.12,-332.5 1451.12,-332.5 1451.12,-313.5 1547.12,-313.5 1547.12,-332.5"/>
<text text-anchor="middle" x="1499.12" y="-320.5" font-family="Helvetica,sans-Serif" font-size="10.00">src/js/crypto.cpp</text>
</a>
</g>
</g>
<!-- Node14&#45;&gt;Node18 -->
<g id="edge27" class="edge">
<title>Node14&#45;&gt;Node18</title>
<path fill="none" stroke="#63b8ff" d="M1458.19,-371.62C1468.78,-359.31 1482.88,-342.89 1491.47,-332.91"/>
<polygon fill="#63b8ff" stroke="#63b8ff" points="1455.4,-369.5 1451.54,-379.37 1460.71,-374.07 1455.4,-369.5"/>
</g>
<!-- Node19 -->
<g id="node19" class="node">
<title>Node19</title>
<g id="a_node19"><a xlink:href="historical_8cpp.html" target="_top" xlink:title=" ">
<polygon fill="white" stroke="#666666" points="1675.12,-332.5 1565.12,-332.5 1565.12,-313.5 1675.12,-313.5 1675.12,-332.5"/>
<text text-anchor="middle" x="1620.12" y="-320.5" font-family="Helvetica,sans-Serif" font-size="10.00">src/js/historical.cpp</text>
</a>
</g>
</g>
<!-- Node14&#45;&gt;Node19 -->
<g id="edge29" class="edge">
<title>Node14&#45;&gt;Node19</title>
<path fill="none" stroke="#63b8ff" d="M1477.56,-375.84C1512.33,-363.2 1565.87,-343.73 1596.48,-332.6"/>
<polygon fill="#63b8ff" stroke="#63b8ff" points="1476.06,-372.66 1467.86,-379.37 1478.45,-379.24 1476.06,-372.66"/>
</g>
<!-- Node20 -->
<g id="node20" class="node">
<title>Node20</title>
<g id="a_node20"><a xlink:href="openenclave_8cpp.html" target="_top" xlink:title=" ">
<polygon fill="white" stroke="#666666" points="1327.12,-332.5 1199.12,-332.5 1199.12,-313.5 1327.12,-313.5 1327.12,-332.5"/>
<text text-anchor="middle" x="1263.12" y="-320.5" font-family="Helvetica,sans-Serif" font-size="10.00">src/js/openenclave.cpp</text>
</a>
</g>
</g>
<!-- Node14&#45;&gt;Node20 -->
<g id="edge31" class="edge">
<title>Node14&#45;&gt;Node20</title>
<path fill="none" stroke="#63b8ff" d="M1410.19,-376C1374.44,-363.36 1319.05,-343.78 1287.43,-332.6"/>
<polygon fill="#63b8ff" stroke="#63b8ff" points="1409.11,-379.33 1419.71,-379.37 1411.45,-372.74 1409.11,-379.33"/>
</g>
<!-- Node14&#45;&gt;Node21 -->
<g id="edge34" class="edge">
<title>Node14&#45;&gt;Node21</title>
<path fill="none" stroke="#63b8ff" d="M1394.89,-380.1C1321.74,-368.37 1184.52,-346.36 1105.45,-333.68"/>
<polygon fill="#63b8ff" stroke="#63b8ff" points="1394.34,-383.56 1404.77,-381.69 1395.45,-376.65 1394.34,-383.56"/>
</g>
<!-- Node16&#45;&gt;Node13 -->
<g id="edge24" class="edge">
<title>Node16&#45;&gt;Node13</title>
<path fill="none" stroke="#63b8ff" d="M1762.84,-308.86C1737.62,-296.25 1700.25,-277.56 1678.52,-266.7"/>
<polygon fill="#63b8ff" stroke="#63b8ff" points="1761.35,-312.03 1771.86,-313.37 1764.48,-305.77 1761.35,-312.03"/>
</g>
<!-- Node17&#45;&gt;Node13 -->
<g id="edge26" class="edge">
<title>Node17&#45;&gt;Node13</title>
<path fill="none" stroke="#63b8ff" d="M1430.46,-310.94C1434.39,-309.93 1438.33,-308.93 1442.12,-308 1504.79,-292.57 1577.96,-276.2 1621.86,-266.54"/>
<polygon fill="#63b8ff" stroke="#63b8ff" points="1429.54,-307.56 1420.74,-313.46 1431.3,-314.33 1429.54,-307.56"/>
</g>
<!-- Node18&#45;&gt;Node13 -->
<g id="edge28" class="edge">
<title>Node18&#45;&gt;Node13</title>
<path fill="none" stroke="#63b8ff" d="M1530.32,-309.68C1562.33,-297.03 1611.31,-277.68 1639.36,-266.6"/>
<polygon fill="#63b8ff" stroke="#63b8ff" points="1528.98,-306.44 1520.97,-313.37 1531.55,-312.95 1528.98,-306.44"/>
</g>
<!-- Node19&#45;&gt;Node13 -->
<g id="edge30" class="edge">
<title>Node19&#45;&gt;Node13</title>
<path fill="none" stroke="#63b8ff" d="M1631.07,-304.91C1638.91,-292.68 1649.14,-276.7 1655.41,-266.91"/>
<polygon fill="#63b8ff" stroke="#63b8ff" points="1628.1,-303.06 1625.65,-313.37 1633.99,-306.84 1628.1,-303.06"/>
</g>
<!-- Node21&#45;&gt;Node3 -->
<g id="edge35" class="edge">
<title>Node21&#45;&gt;Node3</title>
<path fill="none" stroke="#63b8ff" d="M1070.15,-301.32C1115.47,-261.39 1202.03,-172.17 1152.12,-110 1134.78,-88.4 1064.75,-76.64 1012.2,-70.73"/>
<polygon fill="#63b8ff" stroke="#63b8ff" points="1067.74,-298.77 1062.47,-307.96 1072.32,-304.06 1067.74,-298.77"/>
</g>
<!-- Node22&#45;&gt;Node3 -->
<g id="edge38" class="edge">
<title>Node22&#45;&gt;Node3</title>
<path fill="none" stroke="#63b8ff" d="M1047.67,-170.4C1035.05,-161.82 1020.76,-151.17 1009.12,-140 987.12,-118.89 966.47,-89.13 956.82,-74.43"/>
<polygon fill="#63b8ff" stroke="#63b8ff" points="1045.83,-173.38 1056.1,-175.99 1049.7,-167.54 1045.83,-173.38"/>
</g>
<!-- Node23 -->
<g id="node23" class="node">
<title>Node23</title>
<g id="a_node23"><a xlink:href="historical__transaction__fetcher_8h.html" target="_top" xlink:title=" ">
<polygon fill="white" stroke="#666666" points="1142.62,-140 1017.62,-140 1017.62,-110 1142.62,-110 1142.62,-140"/>
<text text-anchor="start" x="1025.62" y="-128" font-family="Helvetica,sans-Serif" font-size="10.00">src/indexing/historical</text>
<text text-anchor="middle" x="1080.12" y="-117" font-family="Helvetica,sans-Serif" font-size="10.00">_transaction_fetcher.h</text>
</a>
</g>
</g>
<!-- Node22&#45;&gt;Node23 -->
<g id="edge39" class="edge">
<title>Node22&#45;&gt;Node23</title>
<path fill="none" stroke="#63b8ff" d="M1079.5,-165.54C1079.64,-156.96 1079.78,-147.61 1079.9,-140.16"/>
<polygon fill="#63b8ff" stroke="#63b8ff" points="1076,-165.74 1079.34,-175.8 1083,-165.85 1076,-165.74"/>
</g>
<!-- Node23&#45;&gt;Node3 -->
<g id="edge40" class="edge">
<title>Node23&#45;&gt;Node3</title>
<path fill="none" stroke="#63b8ff" d="M1039.93,-105.77C1016.66,-95.22 988.46,-82.43 970.17,-74.14"/>
<polygon fill="#63b8ff" stroke="#63b8ff" points="1038.67,-109.05 1049.22,-109.99 1041.56,-102.67 1038.67,-109.05"/>
</g>
<!-- Node25 -->
<g id="node25" class="node">
<title>Node25</title>
<g id="a_node25"><a xlink:href="frontend_8h.html" target="_top" xlink:title=" ">
<polygon fill="white" stroke="#666666" points="779.62,-398.5 650.62,-398.5 650.62,-379.5 779.62,-379.5 779.62,-398.5"/>
<text text-anchor="middle" x="715.12" y="-386.5" font-family="Helvetica,sans-Serif" font-size="10.00">src/node/rpc/frontend.h</text>
</a>
</g>
</g>
<!-- Node24&#45;&gt;Node25 -->
<g id="edge42" class="edge">
<title>Node24&#45;&gt;Node25</title>
<path fill="none" stroke="#63b8ff" d="M726.35,-429.94C723.29,-419.06 719.86,-406.86 717.61,-398.84"/>
<polygon fill="#63b8ff" stroke="#63b8ff" points="723.05,-431.12 729.13,-439.8 729.79,-429.22 723.05,-431.12"/>
</g>
<!-- Node25&#45;&gt;Node6 -->
<g id="edge46" class="edge">
<title>Node25&#45;&gt;Node6</title>
<path fill="none" stroke="#63b8ff" d="M689.85,-374.55C672.4,-364.96 648.88,-351.44 629.12,-338 611.33,-325.9 608.04,-321.3 591.12,-308 570.71,-291.96 559.13,-293.86 545.12,-272 530.48,-249.16 527.11,-216.16 526.34,-200.66"/>
<polygon fill="#63b8ff" stroke="#63b8ff" points="688.4,-377.74 698.86,-379.44 691.74,-371.59 688.4,-377.74"/>
</g>
<!-- Node25&#45;&gt;Node10 -->
<g id="edge48" class="edge">
<title>Node25&#45;&gt;Node10</title>
<path fill="none" stroke="#63b8ff" d="M676.71,-376.4C634.9,-363.78 569.02,-343.89 531.6,-332.6"/>
<polygon fill="#63b8ff" stroke="#63b8ff" points="675.94,-379.83 686.53,-379.37 677.97,-373.13 675.94,-379.83"/>
</g>
<!-- Node25&#45;&gt;Node21 -->
<g id="edge47" class="edge">
<title>Node25&#45;&gt;Node21</title>
<path fill="none" stroke="#63b8ff" d="M769.2,-377.51C828.51,-366.01 923.41,-347.6 985.01,-335.66"/>
<polygon fill="#63b8ff" stroke="#63b8ff" points="768.43,-374.1 759.28,-379.44 769.77,-380.97 768.43,-374.1"/>
</g>
<!-- Node26 -->
<g id="node26" class="node">
<title>Node26</title>
<g id="a_node26"><a xlink:href="acme__challenge__frontend_8h.html" target="_top" xlink:title=" ">
<polygon fill="white" stroke="#666666" points="778.12,-338 638.12,-338 638.12,-308 778.12,-308 778.12,-338"/>
<text text-anchor="start" x="646.12" y="-326" font-family="Helvetica,sans-Serif" font-size="10.00">src/node/acme_challenge</text>
<text text-anchor="middle" x="708.12" y="-315" font-family="Helvetica,sans-Serif" font-size="10.00">_frontend.h</text>
</a>
</g>
</g>
<!-- Node25&#45;&gt;Node26 -->
<g id="edge43" class="edge">
<title>Node25&#45;&gt;Node26</title>
<path fill="none" stroke="#63b8ff" d="M713.08,-369.35C712,-359.47 710.69,-347.51 709.69,-338.36"/>
<polygon fill="#63b8ff" stroke="#63b8ff" points="709.61,-369.81 714.18,-379.37 716.57,-369.05 709.61,-369.81"/>
</g>
<!-- Node27 -->
<g id="node27" class="node">
<title>Node27</title>
<g id="a_node27"><a xlink:href="user__frontend_8h.html" target="_top" xlink:title=" ">
<polygon fill="white" stroke="#666666" points="922.62,-134.5 767.62,-134.5 767.62,-115.5 922.62,-115.5 922.62,-134.5"/>
<text text-anchor="middle" x="845.12" y="-122.5" font-family="Helvetica,sans-Serif" font-size="10.00">src/node/rpc/user_frontend.h</text>
</a>
</g>
</g>
<!-- Node25&#45;&gt;Node27 -->
<g id="edge49" class="edge">
<title>Node25&#45;&gt;Node27</title>
<path fill="none" stroke="#63b8ff" d="M743.63,-374.63C758.72,-366.16 776.3,-353.81 787.12,-338 828.94,-276.88 804.26,-246.76 826.12,-176 830.67,-161.27 837.31,-144.62 841.41,-134.73"/>
<polygon fill="#63b8ff" stroke="#63b8ff" points="741.84,-371.62 734.65,-379.4 745.12,-377.8 741.84,-371.62"/>
</g>
<!-- Node26&#45;&gt;Node3 -->
<g id="edge44" class="edge">
<title>Node26&#45;&gt;Node3</title>
<path fill="none" stroke="#63b8ff" d="M727.86,-299.95C734.13,-291.73 740.39,-281.96 744.12,-272 769.47,-204.28 711.57,-164.47 759.12,-110 776.17,-90.47 840.28,-78.47 889.78,-71.93"/>
<polygon fill="#63b8ff" stroke="#63b8ff" points="725,-297.93 721.43,-307.9 730.44,-302.33 725,-297.93"/>
</g>
<!-- Node26&#45;&gt;Node5 -->
<g id="edge45" class="edge">
<title>Node26&#45;&gt;Node5</title>
<path fill="none" stroke="#63b8ff" d="M682.19,-301.26C667.64,-289.61 650.23,-275.69 639.18,-266.84"/>
<polygon fill="#63b8ff" stroke="#63b8ff" points="680.37,-304.28 690.37,-307.8 684.74,-298.82 680.37,-304.28"/>
</g>
<!-- Node27&#45;&gt;Node3 -->
<g id="edge50" class="edge">
<title>Node27&#45;&gt;Node3</title>
<path fill="none" stroke="#63b8ff" d="M869.72,-110.42C889.98,-99.24 918.09,-83.73 935.42,-74.17"/>
<polygon fill="#63b8ff" stroke="#63b8ff" points="867.82,-107.47 860.76,-115.37 871.21,-113.6 867.82,-107.47"/>
</g>
<!-- Node28&#45;&gt;Node3 -->
<g id="edge52" class="edge">
<title>Node28&#45;&gt;Node3</title>
<path fill="none" stroke="#63b8ff" d="M925.55,-171.6C932.13,-144.31 944.21,-94.17 949.04,-74.12"/>
<polygon fill="#63b8ff" stroke="#63b8ff" points="922.12,-170.9 923.18,-181.44 928.93,-172.54 922.12,-170.9"/>
</g>
<!-- Node29&#45;&gt;Node3 -->
<g id="edge55" class="edge">
<title>Node29&#45;&gt;Node3</title>
<path fill="none" stroke="#63b8ff" d="M1043.28,-433.99C1054.8,-425.63 1067.4,-415.24 1077.12,-404 1166.94,-300.13 1259.11,-216.25 1172.12,-110 1152.22,-85.7 1070.41,-74.38 1012.13,-69.31"/>
<polygon fill="#63b8ff" stroke="#63b8ff" points="1040.93,-431.36 1034.75,-439.97 1044.95,-437.09 1040.93,-431.36"/>
</g>
<!-- Node30 -->
<g id="node30" class="node">
<title>Node30</title>
<g id="a_node30"><a xlink:href="historical__queries__adapter_8cpp.html" target="_top" xlink:title=" ">
<polygon fill="white" stroke="#666666" points="1068.12,-404 948.12,-404 948.12,-374 1068.12,-374 1068.12,-404"/>
<text text-anchor="start" x="956.12" y="-392" font-family="Helvetica,sans-Serif" font-size="10.00">src/node/historical</text>
<text text-anchor="middle" x="1008.12" y="-381" font-family="Helvetica,sans-Serif" font-size="10.00">_queries_adapter.cpp</text>
</a>
</g>
</g>
<!-- Node29&#45;&gt;Node30 -->
<g id="edge56" class="edge">
<title>Node29&#45;&gt;Node30</title>
<path fill="none" stroke="#63b8ff" d="M1010.59,-429.54C1010.05,-420.96 1009.47,-411.61 1009.01,-404.16"/>
<polygon fill="#63b8ff" stroke="#63b8ff" points="1007.12,-430.03 1011.23,-439.8 1014.1,-429.6 1007.12,-430.03"/>
</g>
<!-- Node31&#45;&gt;Node3 -->
<g id="edge59" class="edge">
<title>Node31&#45;&gt;Node3</title>
<path fill="none" stroke="#63b8ff" d="M2104.11,-435.23C2099.08,-410.05 2091.12,-363.87 2091.12,-324 2091.12,-324 2091.12,-324 2091.12,-190 2091.12,-173.19 2219.63,-183.03 1920.12,-110 1746.89,-67.76 1197.27,-64.95 1012.44,-65.24"/>
<polygon fill="#63b8ff" stroke="#63b8ff" points="2100.72,-436.14 2106.17,-445.22 2107.58,-434.72 2100.72,-436.14"/>
</g>
<!-- Node32&#45;&gt;Node12 -->
<g id="edge62" class="edge">
<title>Node32&#45;&gt;Node12</title>
<path fill="none" stroke="#63b8ff" d="M972.52,-554.82C958.73,-544.73 942.76,-533.05 932.11,-525.27"/>
<polygon fill="#63b8ff" stroke="#63b8ff" points="970.62,-557.76 980.75,-560.84 974.75,-552.11 970.62,-557.76"/>
</g>
<!-- Node32&#45;&gt;Node21 -->
<g id="edge61" class="edge">
<title>Node32&#45;&gt;Node21</title>
<path fill="none" stroke="#63b8ff" d="M1024.71,-553.93C1045.3,-534.53 1073.18,-503.72 1085.12,-470 1092.12,-450.22 1080.37,-383.05 1077.12,-374 1072.45,-361 1063.9,-347.91 1056.81,-338.39"/>
<polygon fill="#63b8ff" stroke="#63b8ff" points="1022.23,-551.45 1017.22,-560.79 1026.96,-556.61 1022.23,-551.45"/>
</g>
<!-- Node32&#45;&gt;Node31 -->
<g id="edge63" class="edge">
<title>Node32&#45;&gt;Node31</title>
<path fill="none" stroke="#63b8ff" d="M1087.65,-567.15C1263.23,-551.13 1670.82,-512.57 2012.12,-470 2025.16,-468.37 2039.16,-466.44 2052.33,-464.53"/>
<polygon fill="#63b8ff" stroke="#63b8ff" points="1087.33,-563.66 1077.69,-568.06 1087.97,-570.63 1087.33,-563.66"/>
</g>
</g>
</svg>
        <g id="navigator" transform="translate(0 0)" fill="#404254">
                <rect fill="#f2f5e9" fill-opacity="0.5" stroke="#606060" stroke-width=".5" x="0" y="0" width="60" height="60"/>
                <use id="zoomplus" xlink:href="#zoomPlus" x="17" y="9" onmousedown="handleZoom(evt,'in')"/>
                <use id="zoomminus" xlink:href="#zoomMin" x="42" y="9" onmousedown="handleZoom(evt,'out')"/>
                <use id="reset" xlink:href="#resetDef" x="30" y="36" onmousedown="handleReset()"/>
                <g id="arrowUp" xlink:href="#dirArrow" transform="translate(30 24)" onmousedown="handlePan(0,-1)">
                  <use xlink:href="#rim" fill="#404040">
                        <set attributeName="fill" to="#808080" begin="arrowUp.mouseover" end="arrowUp.mouseout"/>
                  </use>
                  <path fill="none" stroke="white" stroke-width="1.5" d="M0,-3.0v7 M-2.5,-0.5L0,-3.0L2.5,-0.5"/>
                </g>
                <g id="arrowRight" xlink:href="#dirArrow" transform="rotate(90) translate(36 -43)" onmousedown="handlePan(1,0)">
                  <use xlink:href="#rim" fill="#404040">
                        <set attributeName="fill" to="#808080" begin="arrowRight.mouseover" end="arrowRight.mouseout"/>
                  </use>
                  <path fill="none" stroke="white" stroke-width="1.5" d="M0,-3.0v7 M-2.5,-0.5L0,-3.0L2.5,-0.5"/>
                </g>
                <g id="arrowDown" xlink:href="#dirArrow" transform="rotate(180) translate(-30 -48)" onmousedown="handlePan(0,1)">
                  <use xlink:href="#rim" fill="#404040">
                        <set attributeName="fill" to="#808080" begin="arrowDown.mouseover" end="arrowDown.mouseout"/>
                  </use>
                  <path fill="none" stroke="white" stroke-width="1.5" d="M0,-3.0v7 M-2.5,-0.5L0,-3.0L2.5,-0.5"/>
                </g>
                <g id="arrowLeft" xlink:href="#dirArrow" transform="rotate(270) translate(-36 17)" onmousedown="handlePan(-1,0)">
                  <use xlink:href="#rim" fill="#404040">
                        <set attributeName="fill" to="#808080" begin="arrowLeft.mouseover" end="arrowLeft.mouseout"/>
                  </use>
                  <path fill="none" stroke="white" stroke-width="1.5" d="M0,-3.0v7 M-2.5,-0.5L0,-3.0L2.5,-0.5"/>
                </g>
        </g>
        <svg viewBox="0 0 15 15" width="100%" height="30px" preserveAspectRatio="xMaxYMin meet">
         <g id="arrow_out" transform="scale(0.3 0.3)">
          <a xlink:href="session__metrics_8h__dep__incl_org.svg" target="_base">
           <rect id="button" ry="5" rx="5" y="6" x="6" height="38" width="38"
                fill="#f2f5e9" fill-opacity="0.5" stroke="#606060" stroke-width="1.0"/>
           <path id="arrow"
             d="M 11.500037,31.436501 C 11.940474,20.09759 22.043105,11.32322 32.158766,21.979434 L 37.068811,17.246167 C 37.068811,17.246167 37.088388,32 37.088388,32 L 22.160133,31.978069 C 22.160133,31.978069 26.997745,27.140456 26.997745,27.140456 C 18.528582,18.264221 13.291696,25.230495 11.500037,31.436501 z"
             style="fill:#404040;"/>
          </a>
         </g>
        </svg>
</svg>
