<?xml version="1.0" encoding="UTF-8" standalone="no"?>
<!DOCTYPE svg PUBLIC "-//W3C//DTD SVG 1.1//EN"
 "http://www.w3.org/Graphics/SVG/1.1/DTD/svg11.dtd">
<!-- Generated by graphviz version 2.43.0 (0)
 -->
<!-- Title: src/service/tables/snapshot_evidence.h Pages: 1 -->
<!--zoomable 709 -->
<svg id="main" version="1.1" xmlns="http://www.w3.org/2000/svg" xmlns:xlink="http://www.w3.org/1999/xlink" xml:space="preserve" onload="init(evt)">
<style type="text/css"><![CDATA[
.edge:hover path { stroke: red; }
.edge:hover polygon { stroke: red; fill: red; }
]]></style>
<script type="text/javascript"><![CDATA[
var edges = document.getElementsByTagName('g');
if (edges && edges.length) {
  for (var i=0;i<edges.length;i++) {
    if (edges[i].id.substr(0,4)=='edge') {
      edges[i].setAttribute('class','edge');
    }
  }
}
]]></script>
        <defs>
                <circle id="rim" cx="0" cy="0" r="7"/>
                <circle id="rim2" cx="0" cy="0" r="3.5"/>
                <g id="zoomPlus">
                        <use xlink:href="#rim" fill="#404040">
                                <set attributeName="fill" to="#808080" begin="zoomplus.mouseover" end="zoomplus.mouseout"/>
                        </use>
                        <path d="M-4,0h8M0,-4v8" fill="none" stroke="white" stroke-width="1.5" pointer-events="none"/>
                </g>
                <g id="zoomMin">
                        <use xlink:href="#rim" fill="#404040">
                                <set attributeName="fill" to="#808080" begin="zoomminus.mouseover" end="zoomminus.mouseout"/>
                        </use>
                        <path d="M-4,0h8" fill="none" stroke="white" stroke-width="1.5" pointer-events="none"/>
                </g>
                <g id="dirArrow">
                        <path fill="none" stroke="white" stroke-width="1.5" d="M0,-3.0v7 M-2.5,-0.5L0,-3.0L2.5,-0.5"/>
                </g>
               <g id="resetDef">
                       <use xlink:href="#rim2" fill="#404040">
                               <set attributeName="fill" to="#808080" begin="reset.mouseover" end="reset.mouseout"/>
                       </use>
               </g>
        </defs>

<script type="text/javascript">
var viewWidth = 2261;
var viewHeight = 709;
var sectionId = 'dynsection-1';
</script>
<script xlink:href="svgpan.js"/>
<svg id="graph" class="graph">
<g id="viewport">
<title>src/service/tables/snapshot_evidence.h</title>
<!-- Node1 -->
<g id="node1" class="node">
<title>Node1</title>
<g id="a_node1"><a xlink:title=" ">
<polygon fill="#999999" stroke="#666666" points="902,-701 780,-701 780,-671 902,-671 902,-701"/>
<text text-anchor="start" x="788" y="-689" font-family="Helvetica,sans-Serif" font-size="10.00">src/service/tables</text>
<text text-anchor="middle" x="841" y="-678" font-family="Helvetica,sans-Serif" font-size="10.00">/snapshot_evidence.h</text>
</a>
</g>
</g>
<!-- Node2 -->
<g id="node2" class="node">
<title>Node2</title>
<g id="a_node2"><a xlink:href="deserialise_8h.html" target="_top" xlink:title=" ">
<polygon fill="white" stroke="#666666" points="762.5,-635 651.5,-635 651.5,-616 762.5,-616 762.5,-635"/>
<text text-anchor="middle" x="707" y="-623" font-family="Helvetica,sans-Serif" font-size="10.00">src/kv/deserialise.h</text>
</a>
</g>
</g>
<!-- Node1&#45;&gt;Node2 -->
<g id="edge1" class="edge">
<title>Node1&#45;&gt;Node2</title>
<path fill="none" stroke="#63b8ff" d="M799.57,-666.91C775.35,-656.34 745.87,-643.47 726.79,-635.14"/>
<polygon fill="#63b8ff" stroke="#63b8ff" points="798.34,-670.19 808.9,-670.99 801.14,-663.78 798.34,-670.19"/>
</g>
<!-- Node14 -->
<g id="node14" class="node">
<title>Node14</title>
<g id="a_node14"><a xlink:href="snapshotter_8h.html" target="_top" xlink:title=" ">
<polygon fill="white" stroke="#666666" points="888.5,-321.5 761.5,-321.5 761.5,-302.5 888.5,-302.5 888.5,-321.5"/>
<text text-anchor="middle" x="825" y="-309.5" font-family="Helvetica,sans-Serif" font-size="10.00">src/node/snapshotter.h</text>
</a>
</g>
</g>
<!-- Node1&#45;&gt;Node14 -->
<g id="edge75" class="edge">
<title>Node1&#45;&gt;Node14</title>
<path fill="none" stroke="#63b8ff" d="M841,-660.44C841,-637.46 841,-602.15 841,-571.5 841,-571.5 841,-571.5 841,-443 841,-397.07 831.04,-342.68 826.84,-321.78"/>
<polygon fill="#63b8ff" stroke="#63b8ff" points="837.5,-660.67 841,-670.67 844.5,-660.67 837.5,-660.67"/>
</g>
<!-- Node24 -->
<g id="node24" class="node">
<title>Node24</title>
<g id="a_node24"><a xlink:href="network__tables_8h.html" target="_top" xlink:title=" ">
<polygon fill="white" stroke="#666666" points="981,-525 869,-525 869,-495 981,-495 981,-525"/>
<text text-anchor="start" x="877" y="-513" font-family="Helvetica,sans-Serif" font-size="10.00">src/service/network</text>
<text text-anchor="middle" x="925" y="-502" font-family="Helvetica,sans-Serif" font-size="10.00">_tables.h</text>
</a>
</g>
</g>
<!-- Node1&#45;&gt;Node24 -->
<g id="edge76" class="edge">
<title>Node1&#45;&gt;Node24</title>
<path fill="none" stroke="#63b8ff" d="M852.41,-661.36C870.09,-624.75 903.55,-555.43 918.03,-525.44"/>
<polygon fill="#63b8ff" stroke="#63b8ff" points="849.07,-660.23 847.87,-670.76 855.37,-663.28 849.07,-660.23"/>
</g>
<!-- Node3 -->
<g id="node3" class="node">
<title>Node3</title>
<g id="a_node3"><a xlink:href="store_8h.html" target="_top" xlink:title=" ">
<polygon fill="white" stroke="#666666" points="643.5,-580 560.5,-580 560.5,-561 643.5,-561 643.5,-580"/>
<text text-anchor="middle" x="602" y="-568" font-family="Helvetica,sans-Serif" font-size="10.00">src/kv/store.h</text>
</a>
</g>
</g>
<!-- Node2&#45;&gt;Node3 -->
<g id="edge2" class="edge">
<title>Node2&#45;&gt;Node3</title>
<path fill="none" stroke="#63b8ff" d="M680.98,-611.37C661.7,-601.63 635.95,-588.64 619.18,-580.17"/>
<polygon fill="#63b8ff" stroke="#63b8ff" points="679.63,-614.6 690.13,-615.98 682.78,-608.35 679.63,-614.6"/>
</g>
<!-- Node4 -->
<g id="node4" class="node">
<title>Node4</title>
<g id="a_node4"><a xlink:href="indexer_8h.html" target="_top" xlink:title=" ">
<polygon fill="white" stroke="#666666" points="518.5,-453.5 395.5,-453.5 395.5,-434.5 518.5,-434.5 518.5,-453.5"/>
<text text-anchor="middle" x="457" y="-441.5" font-family="Helvetica,sans-Serif" font-size="10.00">src/indexing/indexer.h</text>
</a>
</g>
</g>
<!-- Node3&#45;&gt;Node4 -->
<g id="edge3" class="edge">
<title>Node3&#45;&gt;Node4</title>
<path fill="none" stroke="#63b8ff" d="M577.63,-555.74C563.96,-547.55 546.91,-536.53 533,-525 504.97,-501.78 476.68,-468.96 463.96,-453.58"/>
<polygon fill="#63b8ff" stroke="#63b8ff" points="576.08,-558.89 586.48,-560.93 579.62,-552.85 576.08,-558.89"/>
</g>
<!-- Node9 -->
<g id="node9" class="node">
<title>Node9</title>
<g id="a_node9"><a xlink:href="visit__each__entry__in__map_8cpp.html" target="_top" xlink:title=" ">
<polygon fill="white" stroke="#666666" points="736.5,-525 575.5,-525 575.5,-495 736.5,-495 736.5,-525"/>
<text text-anchor="start" x="583.5" y="-513" font-family="Helvetica,sans-Serif" font-size="10.00">src/indexing/strategies</text>
<text text-anchor="middle" x="656" y="-502" font-family="Helvetica,sans-Serif" font-size="10.00">/visit_each_entry_in_map.cpp</text>
</a>
</g>
</g>
<!-- Node3&#45;&gt;Node9 -->
<g id="edge9" class="edge">
<title>Node3&#45;&gt;Node9</title>
<path fill="none" stroke="#63b8ff" d="M616.84,-553.43C625.02,-544.56 635.09,-533.65 642.97,-525.11"/>
<polygon fill="#63b8ff" stroke="#63b8ff" points="614.18,-551.15 609.97,-560.87 619.32,-555.89 614.18,-551.15"/>
</g>
<!-- Node10 -->
<g id="node10" class="node">
<title>Node10</title>
<g id="a_node10"><a xlink:href="historical__queries_8h.html" target="_top" xlink:title=" ">
<polygon fill="white" stroke="#666666" points="106,-393 0,-393 0,-363 106,-363 106,-393"/>
<text text-anchor="start" x="8" y="-381" font-family="Helvetica,sans-Serif" font-size="10.00">src/node/historical</text>
<text text-anchor="middle" x="53" y="-370" font-family="Helvetica,sans-Serif" font-size="10.00">_queries.h</text>
</a>
</g>
</g>
<!-- Node3&#45;&gt;Node10 -->
<g id="edge10" class="edge">
<title>Node3&#45;&gt;Node10</title>
<path fill="none" stroke="#63b8ff" d="M550.02,-569.63C474.06,-568.49 329.06,-561.17 212,-525 151.98,-506.45 129.52,-505.25 87,-459 69.43,-439.89 60.12,-410.35 55.91,-393.02"/>
<polygon fill="#63b8ff" stroke="#63b8ff" points="550.22,-573.14 560.27,-569.76 550.31,-566.14 550.22,-573.14"/>
</g>
<!-- Node12 -->
<g id="node12" class="node">
<title>Node12</title>
<g id="a_node12"><a xlink:href="history_8h.html" target="_top" xlink:title=" ">
<polygon fill="white" stroke="#666666" points="323,-519.5 221,-519.5 221,-500.5 323,-500.5 323,-519.5"/>
<text text-anchor="middle" x="272" y="-507.5" font-family="Helvetica,sans-Serif" font-size="10.00">src/node/history.h</text>
</a>
</g>
</g>
<!-- Node3&#45;&gt;Node12 -->
<g id="edge14" class="edge">
<title>Node3&#45;&gt;Node12</title>
<path fill="none" stroke="#63b8ff" d="M550.08,-560.3C487.01,-549.11 381.45,-530.4 320.13,-519.53"/>
<polygon fill="#63b8ff" stroke="#63b8ff" points="549.75,-563.79 560.21,-562.09 550.97,-556.9 549.75,-563.79"/>
</g>
<!-- Node3&#45;&gt;Node14 -->
<g id="edge38" class="edge">
<title>Node3&#45;&gt;Node14</title>
<path fill="none" stroke="#63b8ff" d="M653.53,-564.89C683.86,-559.67 721.05,-548.57 746,-525 808.25,-466.2 821.77,-353.81 824.41,-321.74"/>
<polygon fill="#63b8ff" stroke="#63b8ff" points="652.87,-561.45 643.53,-566.44 653.95,-568.36 652.87,-561.45"/>
</g>
<!-- Node17 -->
<g id="node17" class="node">
<title>Node17</title>
<g id="a_node17"><a xlink:href="frontend_8h.html" target="_top" xlink:title=" ">
<polygon fill="white" stroke="#666666" points="751.5,-387.5 622.5,-387.5 622.5,-368.5 751.5,-368.5 751.5,-387.5"/>
<text text-anchor="middle" x="687" y="-375.5" font-family="Helvetica,sans-Serif" font-size="10.00">src/node/rpc/frontend.h</text>
</a>
</g>
</g>
<!-- Node3&#45;&gt;Node17 -->
<g id="edge24" class="edge">
<title>Node3&#45;&gt;Node17</title>
<path fill="none" stroke="#63b8ff" d="M585.08,-553.45C578.04,-545.62 570.67,-535.62 567,-525 562.64,-512.4 561.79,-507.27 567,-495 588.72,-443.78 645.36,-404.14 672.32,-387.52"/>
<polygon fill="#63b8ff" stroke="#63b8ff" points="582.66,-555.98 592.12,-560.75 587.7,-551.12 582.66,-555.98"/>
</g>
<!-- Node3&#45;&gt;Node24 -->
<g id="edge39" class="edge">
<title>Node3&#45;&gt;Node24</title>
<path fill="none" stroke="#63b8ff" d="M653.75,-560.13C712.61,-549.47 808.38,-532.12 868.96,-521.15"/>
<polygon fill="#63b8ff" stroke="#63b8ff" points="652.78,-556.75 643.57,-561.97 654.03,-563.63 652.78,-556.75"/>
</g>
<!-- Node5 -->
<g id="node5" class="node">
<title>Node5</title>
<g id="a_node5"><a xlink:href="node__state_8h.html" target="_top" xlink:title=" ">
<polygon fill="white" stroke="#666666" points="976,-189.5 852,-189.5 852,-170.5 976,-170.5 976,-189.5"/>
<text text-anchor="middle" x="914" y="-177.5" font-family="Helvetica,sans-Serif" font-size="10.00">src/node/node_state.h</text>
</a>
</g>
</g>
<!-- Node4&#45;&gt;Node5 -->
<g id="edge4" class="edge">
<title>Node4&#45;&gt;Node5</title>
<path fill="none" stroke="#63b8ff" d="M463.74,-424.84C468.95,-407.43 473.4,-381.17 461,-363 436.25,-326.73 393.75,-363.27 369,-327 361.48,-315.99 361.36,-307.92 369,-297 423.98,-218.43 720.65,-191.99 851.7,-184.05"/>
<polygon fill="#63b8ff" stroke="#63b8ff" points="460.4,-423.8 460.54,-434.39 467.03,-426.02 460.4,-423.8"/>
</g>
<!-- Node6 -->
<g id="node6" class="node">
<title>Node6</title>
<g id="a_node6"><a xlink:href="src_2enclave_2enclave_8h.html" target="_top" xlink:title=" ">
<polygon fill="white" stroke="#666666" points="975,-74 853,-74 853,-55 975,-55 975,-74"/>
<text text-anchor="middle" x="914" y="-62" font-family="Helvetica,sans-Serif" font-size="10.00">src/enclave/enclave.h</text>
</a>
</g>
</g>
<!-- Node5&#45;&gt;Node6 -->
<g id="edge5" class="edge">
<title>Node5&#45;&gt;Node6</title>
<path fill="none" stroke="#63b8ff" d="M898.92,-162.33C888.4,-148.61 877.19,-128.5 883,-110 887.4,-95.99 897.95,-82.53 905.52,-74.15"/>
<polygon fill="#63b8ff" stroke="#63b8ff" points="896.48,-164.86 905.55,-170.33 901.87,-160.4 896.48,-164.86"/>
</g>
<!-- Node8 -->
<g id="node8" class="node">
<title>Node8</title>
<g id="a_node8"><a xlink:href="gov__effects_8h.html" target="_top" xlink:title=" ">
<polygon fill="white" stroke="#666666" points="1036,-129 892,-129 892,-110 1036,-110 1036,-129"/>
<text text-anchor="middle" x="964" y="-117" font-family="Helvetica,sans-Serif" font-size="10.00">src/node/rpc/gov_effects.h</text>
</a>
</g>
</g>
<!-- Node5&#45;&gt;Node8 -->
<g id="edge7" class="edge">
<title>Node5&#45;&gt;Node8</title>
<path fill="none" stroke="#63b8ff" d="M928.14,-162.45C937.4,-151.62 949.12,-137.91 956.59,-129.17"/>
<polygon fill="#63b8ff" stroke="#63b8ff" points="925.21,-160.49 921.38,-170.37 930.54,-165.04 925.21,-160.49"/>
</g>
<!-- Node7 -->
<g id="node7" class="node">
<title>Node7</title>
<g id="a_node7"><a xlink:href="enclave_2main_8cpp.html" target="_top" xlink:title=" ">
<polygon fill="white" stroke="#666666" points="974,-19 854,-19 854,0 974,0 974,-19"/>
<text text-anchor="middle" x="914" y="-7" font-family="Helvetica,sans-Serif" font-size="10.00">src/enclave/main.cpp</text>
</a>
</g>
</g>
<!-- Node6&#45;&gt;Node7 -->
<g id="edge6" class="edge">
<title>Node6&#45;&gt;Node7</title>
<path fill="none" stroke="#63b8ff" d="M914,-44.66C914,-35.93 914,-25.99 914,-19.09"/>
<polygon fill="#63b8ff" stroke="#63b8ff" points="910.5,-44.75 914,-54.75 917.5,-44.75 910.5,-44.75"/>
</g>
<!-- Node8&#45;&gt;Node6 -->
<g id="edge8" class="edge">
<title>Node8&#45;&gt;Node6</title>
<path fill="none" stroke="#63b8ff" d="M948.66,-102.24C939.9,-92.95 929.26,-81.68 922.1,-74.09"/>
<polygon fill="#63b8ff" stroke="#63b8ff" points="946.34,-104.88 955.74,-109.75 951.43,-100.07 946.34,-104.88"/>
</g>
<!-- Node10&#45;&gt;Node6 -->
<g id="edge11" class="edge">
<title>Node10&#45;&gt;Node6</title>
<path fill="none" stroke="#63b8ff" d="M63.57,-353.67C74.19,-328.06 89,-285.45 89,-247 89,-247 89,-247 89,-179 89,-101.92 661.47,-74.5 852.66,-67.49"/>
<polygon fill="#63b8ff" stroke="#63b8ff" points="60.32,-352.36 59.6,-362.93 66.76,-355.11 60.32,-352.36"/>
</g>
<!-- Node11 -->
<g id="node11" class="node">
<title>Node11</title>
<g id="a_node11"><a xlink:href="historical__transaction__fetcher_8h.html" target="_top" xlink:title=" ">
<polygon fill="white" stroke="#666666" points="400.5,-195 275.5,-195 275.5,-165 400.5,-165 400.5,-195"/>
<text text-anchor="start" x="283.5" y="-183" font-family="Helvetica,sans-Serif" font-size="10.00">src/indexing/historical</text>
<text text-anchor="middle" x="338" y="-172" font-family="Helvetica,sans-Serif" font-size="10.00">_transaction_fetcher.h</text>
</a>
</g>
</g>
<!-- Node10&#45;&gt;Node11 -->
<g id="edge12" class="edge">
<title>Node10&#45;&gt;Node11</title>
<path fill="none" stroke="#63b8ff" d="M80.15,-356.87C119.06,-328.21 193.14,-274.31 258,-231 276.8,-218.45 298.58,-204.9 314.66,-195.08"/>
<polygon fill="#63b8ff" stroke="#63b8ff" points="77.92,-354.17 71.95,-362.92 82.07,-359.8 77.92,-354.17"/>
</g>
<!-- Node11&#45;&gt;Node6 -->
<g id="edge13" class="edge">
<title>Node11&#45;&gt;Node6</title>
<path fill="none" stroke="#63b8ff" d="M366.78,-159.17C391.81,-143.01 429.66,-121.11 466,-110 536.73,-88.38 747.72,-74.4 852.94,-68.59"/>
<polygon fill="#63b8ff" stroke="#63b8ff" points="364.6,-156.41 358.17,-164.83 368.44,-162.26 364.6,-156.41"/>
</g>
<!-- Node12&#45;&gt;Node5 -->
<g id="edge16" class="edge">
<title>Node12&#45;&gt;Node5</title>
<path fill="none" stroke="#63b8ff" d="M272,-490.16C272,-464.87 272,-418.55 272,-379 272,-379 272,-379 272,-311 272,-193.44 690.74,-180.98 851.86,-180.53"/>
<polygon fill="#63b8ff" stroke="#63b8ff" points="268.5,-490.48 272,-500.48 275.5,-490.48 268.5,-490.48"/>
</g>
<!-- Node12&#45;&gt;Node10 -->
<g id="edge15" class="edge">
<title>Node12&#45;&gt;Node10</title>
<path fill="none" stroke="#63b8ff" d="M217.41,-498.04C187.76,-490.35 151.46,-477.97 123,-459 96.43,-441.29 73.8,-410.98 61.93,-393.19"/>
<polygon fill="#63b8ff" stroke="#63b8ff" points="216.64,-501.46 227.19,-500.48 218.33,-494.66 216.64,-501.46"/>
</g>
<!-- Node13 -->
<g id="node13" class="node">
<title>Node13</title>
<g id="a_node13"><a xlink:href="snapshot__serdes_8h.html" target="_top" xlink:title=" ">
<polygon fill="white" stroke="#666666" points="452,-387.5 300,-387.5 300,-368.5 452,-368.5 452,-387.5"/>
<text text-anchor="middle" x="376" y="-375.5" font-family="Helvetica,sans-Serif" font-size="10.00">src/node/snapshot_serdes.h</text>
</a>
</g>
</g>
<!-- Node12&#45;&gt;Node13 -->
<g id="edge17" class="edge">
<title>Node12&#45;&gt;Node13</title>
<path fill="none" stroke="#63b8ff" d="M285.23,-492.46C307.54,-464.58 351.88,-409.15 369.01,-387.73"/>
<polygon fill="#63b8ff" stroke="#63b8ff" points="282.34,-490.48 278.82,-500.47 287.8,-494.85 282.34,-490.48"/>
</g>
<!-- Node15 -->
<g id="node15" class="node">
<title>Node15</title>
<g id="a_node15"><a xlink:href="tx__receipt__impl_8h.html" target="_top" xlink:title=" ">
<polygon fill="white" stroke="#666666" points="242,-459 132,-459 132,-429 242,-429 242,-459"/>
<text text-anchor="start" x="140" y="-447" font-family="Helvetica,sans-Serif" font-size="10.00">src/node/tx_receipt</text>
<text text-anchor="middle" x="187" y="-436" font-family="Helvetica,sans-Serif" font-size="10.00">_impl.h</text>
</a>
</g>
</g>
<!-- Node12&#45;&gt;Node15 -->
<g id="edge20" class="edge">
<title>Node12&#45;&gt;Node15</title>
<path fill="none" stroke="#63b8ff" d="M252.5,-494.32C238.45,-483.74 219.62,-469.56 205.75,-459.12"/>
<polygon fill="#63b8ff" stroke="#63b8ff" points="250.44,-497.15 260.54,-500.37 254.65,-491.56 250.44,-497.15"/>
</g>
<!-- Node13&#45;&gt;Node14 -->
<g id="edge18" class="edge">
<title>Node13&#45;&gt;Node14</title>
<path fill="none" stroke="#63b8ff" d="M446.22,-366.99C533.99,-354.48 682.71,-333.28 765.27,-321.51"/>
<polygon fill="#63b8ff" stroke="#63b8ff" points="445.49,-363.56 436.09,-368.44 446.48,-370.49 445.49,-363.56"/>
</g>
<!-- Node14&#45;&gt;Node5 -->
<g id="edge19" class="edge">
<title>Node14&#45;&gt;Node5</title>
<path fill="none" stroke="#63b8ff" d="M836.57,-294.1C855.74,-266.1 893.42,-211.06 908.02,-189.73"/>
<polygon fill="#63b8ff" stroke="#63b8ff" points="833.6,-292.24 830.84,-302.47 839.38,-296.2 833.6,-292.24"/>
</g>
<!-- Node15&#45;&gt;Node10 -->
<g id="edge21" class="edge">
<title>Node15&#45;&gt;Node10</title>
<path fill="none" stroke="#63b8ff" d="M148.29,-424.51C127.27,-414.47 101.7,-402.26 82.34,-393.01"/>
<polygon fill="#63b8ff" stroke="#63b8ff" points="147.06,-427.8 157.59,-428.95 150.08,-421.49 147.06,-427.8"/>
</g>
<!-- Node15&#45;&gt;Node13 -->
<g id="edge23" class="edge">
<title>Node15&#45;&gt;Node13</title>
<path fill="none" stroke="#63b8ff" d="M237.98,-425.74C274.52,-413.36 322.16,-397.23 350.85,-387.52"/>
<polygon fill="#63b8ff" stroke="#63b8ff" points="236.83,-422.43 228.48,-428.95 239.07,-429.06 236.83,-422.43"/>
</g>
<!-- Node16 -->
<g id="node16" class="node">
<title>Node16</title>
<g id="a_node16"><a xlink:href="historical__queries__adapter_8cpp.html" target="_top" xlink:title=" ">
<polygon fill="white" stroke="#666666" points="244,-393 124,-393 124,-363 244,-363 244,-393"/>
<text text-anchor="start" x="132" y="-381" font-family="Helvetica,sans-Serif" font-size="10.00">src/node/historical</text>
<text text-anchor="middle" x="184" y="-370" font-family="Helvetica,sans-Serif" font-size="10.00">_queries_adapter.cpp</text>
</a>
</g>
</g>
<!-- Node15&#45;&gt;Node16 -->
<g id="edge22" class="edge">
<title>Node15&#45;&gt;Node16</title>
<path fill="none" stroke="#63b8ff" d="M185.85,-418.54C185.45,-409.96 185.01,-400.61 184.66,-393.16"/>
<polygon fill="#63b8ff" stroke="#63b8ff" points="182.37,-418.97 186.33,-428.8 189.36,-418.64 182.37,-418.97"/>
</g>
<!-- Node17&#45;&gt;Node5 -->
<g id="edge29" class="edge">
<title>Node17&#45;&gt;Node5</title>
<path fill="none" stroke="#63b8ff" d="M698.94,-360.1C711.37,-343.12 731.93,-316.73 753,-297 802.28,-250.84 870.48,-207.37 899.74,-189.52"/>
<polygon fill="#63b8ff" stroke="#63b8ff" points="695.92,-358.29 692.92,-368.45 701.6,-362.38 695.92,-358.29"/>
</g>
<!-- Node18 -->
<g id="node18" class="node">
<title>Node18</title>
<g id="a_node18"><a xlink:href="acme__challenge__frontend_8h.html" target="_top" xlink:title=" ">
<polygon fill="white" stroke="#666666" points="705,-327 565,-327 565,-297 705,-297 705,-327"/>
<text text-anchor="start" x="573" y="-315" font-family="Helvetica,sans-Serif" font-size="10.00">src/node/acme_challenge</text>
<text text-anchor="middle" x="635" y="-304" font-family="Helvetica,sans-Serif" font-size="10.00">_frontend.h</text>
</a>
</g>
</g>
<!-- Node17&#45;&gt;Node18 -->
<g id="edge25" class="edge">
<title>Node17&#45;&gt;Node18</title>
<path fill="none" stroke="#63b8ff" d="M673.63,-360.54C665.29,-350.28 654.66,-337.2 646.67,-327.36"/>
<polygon fill="#63b8ff" stroke="#63b8ff" points="670.96,-362.81 679.99,-368.37 676.4,-358.4 670.96,-362.81"/>
</g>
<!-- Node20 -->
<g id="node20" class="node">
<title>Node20</title>
<g id="a_node20"><a xlink:href="member__frontend_8h.html" target="_top" xlink:title=" ">
<polygon fill="white" stroke="#666666" points="2233,-327 2113,-327 2113,-297 2233,-297 2233,-327"/>
<text text-anchor="start" x="2121" y="-315" font-family="Helvetica,sans-Serif" font-size="10.00">src/node/rpc/member</text>
<text text-anchor="middle" x="2173" y="-304" font-family="Helvetica,sans-Serif" font-size="10.00">_frontend.h</text>
</a>
</g>
</g>
<!-- Node17&#45;&gt;Node20 -->
<g id="edge30" class="edge">
<title>Node17&#45;&gt;Node20</title>
<path fill="none" stroke="#63b8ff" d="M761.74,-372.39C811.41,-369.43 878.09,-365.66 937,-363 1404.8,-341.91 1522.44,-352.87 1990,-327 2031.04,-324.73 2077.19,-321.19 2112.87,-318.24"/>
<polygon fill="#63b8ff" stroke="#63b8ff" points="761.5,-368.9 751.73,-372.99 761.92,-375.88 761.5,-368.9"/>
</g>
<!-- Node21 -->
<g id="node21" class="node">
<title>Node21</title>
<g id="a_node21"><a xlink:href="node__frontend_8h.html" target="_top" xlink:title=" ">
<polygon fill="white" stroke="#666666" points="1141,-321.5 983,-321.5 983,-302.5 1141,-302.5 1141,-321.5"/>
<text text-anchor="middle" x="1062" y="-309.5" font-family="Helvetica,sans-Serif" font-size="10.00">src/node/rpc/node_frontend.h</text>
</a>
</g>
</g>
<!-- Node17&#45;&gt;Node21 -->
<g id="edge32" class="edge">
<title>Node17&#45;&gt;Node21</title>
<path fill="none" stroke="#63b8ff" d="M747.22,-366.72C820.72,-354.18 943.65,-333.2 1012.11,-321.51"/>
<polygon fill="#63b8ff" stroke="#63b8ff" points="746.45,-363.3 737.19,-368.44 747.63,-370.2 746.45,-363.3"/>
</g>
<!-- Node23 -->
<g id="node23" class="node">
<title>Node23</title>
<g id="a_node23"><a xlink:href="user__frontend_8h.html" target="_top" xlink:title=" ">
<polygon fill="white" stroke="#666666" points="546.5,-321.5 391.5,-321.5 391.5,-302.5 546.5,-302.5 546.5,-321.5"/>
<text text-anchor="middle" x="469" y="-309.5" font-family="Helvetica,sans-Serif" font-size="10.00">src/node/rpc/user_frontend.h</text>
</a>
</g>
</g>
<!-- Node17&#45;&gt;Node23 -->
<g id="edge36" class="edge">
<title>Node17&#45;&gt;Node23</title>
<path fill="none" stroke="#63b8ff" d="M647.77,-365.48C604.79,-352.87 536.85,-332.92 498.28,-321.6"/>
<polygon fill="#63b8ff" stroke="#63b8ff" points="647.02,-368.91 657.6,-368.37 648.99,-362.19 647.02,-368.91"/>
</g>
<!-- Node18&#45;&gt;Node6 -->
<g id="edge26" class="edge">
<title>Node18&#45;&gt;Node6</title>
<path fill="none" stroke="#63b8ff" d="M584.25,-292.33C570.73,-284.76 557.74,-274.53 550,-261 543.38,-249.43 542.78,-242.21 550,-231 617.17,-126.67 768.01,-87.34 852.92,-73.11"/>
<polygon fill="#63b8ff" stroke="#63b8ff" points="582.67,-295.45 593.16,-296.93 585.88,-289.23 582.67,-295.45"/>
</g>
<!-- Node19 -->
<g id="node19" class="node">
<title>Node19</title>
<g id="a_node19"><a xlink:href="ccf__acme__client_8h.html" target="_top" xlink:title=" ">
<polygon fill="white" stroke="#666666" points="707.5,-255.5 558.5,-255.5 558.5,-236.5 707.5,-236.5 707.5,-255.5"/>
<text text-anchor="middle" x="633" y="-243.5" font-family="Helvetica,sans-Serif" font-size="10.00">src/node/ccf_acme_client.h</text>
</a>
</g>
</g>
<!-- Node18&#45;&gt;Node19 -->
<g id="edge27" class="edge">
<title>Node18&#45;&gt;Node19</title>
<path fill="none" stroke="#63b8ff" d="M634.24,-286.6C633.9,-275.8 633.52,-263.78 633.28,-255.84"/>
<polygon fill="#63b8ff" stroke="#63b8ff" points="630.75,-286.91 634.56,-296.8 637.74,-286.69 630.75,-286.91"/>
</g>
<!-- Node19&#45;&gt;Node5 -->
<g id="edge28" class="edge">
<title>Node19&#45;&gt;Node5</title>
<path fill="none" stroke="#63b8ff" d="M680.51,-234.18C735.83,-221.58 826.05,-201.03 876.62,-189.51"/>
<polygon fill="#63b8ff" stroke="#63b8ff" points="679.58,-230.8 670.61,-236.44 681.13,-237.63 679.58,-230.8"/>
</g>
<!-- Node20&#45;&gt;Node6 -->
<g id="edge31" class="edge">
<title>Node20&#45;&gt;Node6</title>
<path fill="none" stroke="#63b8ff" d="M2172.24,-286.97C2169.42,-243.35 2156.57,-151.78 2099,-110 2053.21,-76.77 1211.92,-67.79 975.4,-65.92"/>
<polygon fill="#63b8ff" stroke="#63b8ff" points="2168.75,-287.17 2172.76,-296.97 2175.74,-286.8 2168.75,-287.17"/>
</g>
<!-- Node21&#45;&gt;Node6 -->
<g id="edge33" class="edge">
<title>Node21&#45;&gt;Node6</title>
<path fill="none" stroke="#63b8ff" d="M1084.7,-296.38C1096.09,-287.65 1108.77,-275.44 1115,-261 1120.28,-248.76 1118.46,-243.88 1115,-231 1098.89,-171 1093.04,-149.4 1045,-110 1022.34,-91.42 991.53,-80.44 965.48,-74.04"/>
<polygon fill="#63b8ff" stroke="#63b8ff" points="1082.45,-293.69 1076.37,-302.37 1086.53,-299.38 1082.45,-293.69"/>
</g>
<!-- Node22 -->
<g id="node22" class="node">
<title>Node22</title>
<g id="a_node22"><a xlink:href="jwt__key__auto__refresh_8h.html" target="_top" xlink:title=" ">
<polygon fill="white" stroke="#666666" points="1105.5,-261 980.5,-261 980.5,-231 1105.5,-231 1105.5,-261"/>
<text text-anchor="start" x="988.5" y="-249" font-family="Helvetica,sans-Serif" font-size="10.00">src/node/jwt_key_auto</text>
<text text-anchor="middle" x="1043" y="-238" font-family="Helvetica,sans-Serif" font-size="10.00">_refresh.h</text>
</a>
</g>
</g>
<!-- Node21&#45;&gt;Node22 -->
<g id="edge34" class="edge">
<title>Node21&#45;&gt;Node22</title>
<path fill="none" stroke="#63b8ff" d="M1056.56,-292.67C1053.61,-282.72 1050.01,-270.61 1047.26,-261.36"/>
<polygon fill="#63b8ff" stroke="#63b8ff" points="1053.24,-293.78 1059.44,-302.37 1059.95,-291.79 1053.24,-293.78"/>
</g>
<!-- Node22&#45;&gt;Node5 -->
<g id="edge35" class="edge">
<title>Node22&#45;&gt;Node5</title>
<path fill="none" stroke="#63b8ff" d="M1005.63,-226.46C981.06,-214.27 950.08,-198.9 931.17,-189.52"/>
<polygon fill="#63b8ff" stroke="#63b8ff" points="1004.18,-229.65 1014.69,-230.95 1007.29,-223.38 1004.18,-229.65"/>
</g>
<!-- Node23&#45;&gt;Node6 -->
<g id="edge37" class="edge">
<title>Node23&#45;&gt;Node6</title>
<path fill="none" stroke="#63b8ff" d="M478.44,-293.38C494.91,-263.92 531.34,-204.02 575,-165 653.32,-95.01 778.56,-74.13 852.89,-67.98"/>
<polygon fill="#63b8ff" stroke="#63b8ff" points="475.21,-292 473.47,-302.45 481.35,-295.37 475.21,-292"/>
</g>
<!-- Node24&#45;&gt;Node19 -->
<g id="edge40" class="edge">
<title>Node24&#45;&gt;Node19</title>
<path fill="none" stroke="#63b8ff" d="M858.86,-496.27C779.43,-479.43 643.45,-445.57 536,-393 515.39,-382.92 514.48,-373.33 494,-363 447.69,-339.65 413.5,-368.95 383,-327 336.38,-262.86 468.62,-248.95 558.13,-246.62"/>
<polygon fill="#63b8ff" stroke="#63b8ff" points="858.24,-499.72 868.74,-498.34 859.67,-492.86 858.24,-499.72"/>
</g>
<!-- Node25 -->
<g id="node25" class="node">
<title>Node25</title>
<g id="a_node25"><a xlink:href="network__state_8h.html" target="_top" xlink:title=" ">
<polygon fill="white" stroke="#666666" points="1081,-453.5 941,-453.5 941,-434.5 1081,-434.5 1081,-453.5"/>
<text text-anchor="middle" x="1011" y="-441.5" font-family="Helvetica,sans-Serif" font-size="10.00">src/node/network_state.h</text>
</a>
</g>
</g>
<!-- Node24&#45;&gt;Node25 -->
<g id="edge41" class="edge">
<title>Node24&#45;&gt;Node25</title>
<path fill="none" stroke="#63b8ff" d="M952.43,-488.58C968.17,-476.87 987.12,-462.77 999.12,-453.84"/>
<polygon fill="#63b8ff" stroke="#63b8ff" points="950.02,-486.02 944.09,-494.8 954.2,-491.63 950.02,-486.02"/>
</g>
<!-- Node36 -->
<g id="node36" class="node">
<title>Node36</title>
<g id="a_node36"><a xlink:href="genesis__gen_8h.html" target="_top" xlink:title=" ">
<polygon fill="white" stroke="#666666" points="1250,-459 1140,-459 1140,-429 1250,-429 1250,-459"/>
<text text-anchor="start" x="1148" y="-447" font-family="Helvetica,sans-Serif" font-size="10.00">src/service/genesis</text>
<text text-anchor="middle" x="1195" y="-436" font-family="Helvetica,sans-Serif" font-size="10.00">_gen.h</text>
</a>
</g>
</g>
<!-- Node24&#45;&gt;Node36 -->
<g id="edge69" class="edge">
<title>Node24&#45;&gt;Node36</title>
<path fill="none" stroke="#63b8ff" d="M991.07,-493.34C1036.68,-482.53 1096.64,-468.31 1139.72,-458.1"/>
<polygon fill="#63b8ff" stroke="#63b8ff" points="990.2,-489.95 981.27,-495.66 991.81,-496.76 990.2,-489.95"/>
</g>
<!-- Node25&#45;&gt;Node5 -->
<g id="edge60" class="edge">
<title>Node25&#45;&gt;Node5</title>
<path fill="none" stroke="#63b8ff" d="M979.95,-429.84C964.42,-421.59 946.87,-409.39 937,-393 895.73,-324.51 907.73,-220.67 912.49,-189.89"/>
<polygon fill="#63b8ff" stroke="#63b8ff" points="978.76,-433.16 989.27,-434.47 981.87,-426.89 978.76,-433.16"/>
</g>
<!-- Node25&#45;&gt;Node6 -->
<g id="edge42" class="edge">
<title>Node25&#45;&gt;Node6</title>
<path fill="none" stroke="#63b8ff" d="M1090.64,-433.31C1104.1,-431.79 1117.94,-430.29 1131,-429 1345.77,-407.73 2085,-462.82 2085,-247 2085,-247 2085,-247 2085,-179 2085,-161.89 2143.91,-159.93 1951,-110 1856.8,-85.62 1183.31,-70.7 975.14,-66.63"/>
<polygon fill="#63b8ff" stroke="#63b8ff" points="1089.98,-429.87 1080.44,-434.48 1090.77,-436.82 1089.98,-429.87"/>
</g>
<!-- Node25&#45;&gt;Node14 -->
<g id="edge68" class="edge">
<title>Node25&#45;&gt;Node14</title>
<path fill="none" stroke="#63b8ff" d="M976.7,-430.85C954.57,-422.14 925.77,-409.11 903,-393 872.76,-371.6 844.22,-337.6 831.68,-321.71"/>
<polygon fill="#63b8ff" stroke="#63b8ff" points="975.45,-434.12 986.04,-434.43 977.95,-427.59 975.45,-434.12"/>
</g>
<!-- Node25&#45;&gt;Node18 -->
<g id="edge59" class="edge">
<title>Node25&#45;&gt;Node18</title>
<path fill="none" stroke="#63b8ff" d="M930.58,-435.59C817.59,-424.8 624.37,-404.76 614,-393 597.66,-374.48 612.76,-344.73 624.42,-327.2"/>
<polygon fill="#63b8ff" stroke="#63b8ff" points="930.29,-439.08 940.58,-436.55 930.96,-432.12 930.29,-439.08"/>
</g>
<!-- Node25&#45;&gt;Node21 -->
<g id="edge61" class="edge">
<title>Node25&#45;&gt;Node21</title>
<path fill="none" stroke="#63b8ff" d="M1057.16,-430.89C1076.37,-423.33 1096.78,-411.41 1108,-393 1123.59,-367.42 1091.86,-336.52 1073.62,-321.73"/>
<polygon fill="#63b8ff" stroke="#63b8ff" points="1055.79,-427.67 1047.58,-434.36 1058.17,-434.25 1055.79,-427.67"/>
</g>
<!-- Node25&#45;&gt;Node23 -->
<g id="edge62" class="edge">
<title>Node25&#45;&gt;Node23</title>
<path fill="none" stroke="#63b8ff" d="M930.57,-437.17C829.16,-429.13 660.94,-413.29 602,-393 552.32,-375.89 501.15,-338.43 479.59,-321.55"/>
<polygon fill="#63b8ff" stroke="#63b8ff" points="930.53,-440.68 940.77,-437.97 931.08,-433.7 930.53,-440.68"/>
</g>
<!-- Node26 -->
<g id="node26" class="node">
<title>Node26</title>
<g id="a_node26"><a xlink:href="wrap_8h.html" target="_top" xlink:title=" ">
<polygon fill="white" stroke="#666666" points="1564,-387.5 1486,-387.5 1486,-368.5 1564,-368.5 1564,-387.5"/>
<text text-anchor="middle" x="1525" y="-375.5" font-family="Helvetica,sans-Serif" font-size="10.00">src/js/wrap.h</text>
</a>
</g>
</g>
<!-- Node25&#45;&gt;Node26 -->
<g id="edge43" class="edge">
<title>Node25&#45;&gt;Node26</title>
<path fill="none" stroke="#63b8ff" d="M1089.71,-433.2C1201.31,-419.3 1401.36,-394.39 1485.74,-383.89"/>
<polygon fill="#63b8ff" stroke="#63b8ff" points="1089.01,-429.76 1079.52,-434.47 1089.88,-436.71 1089.01,-429.76"/>
</g>
<!-- Node34 -->
<g id="node34" class="node">
<title>Node34</title>
<g id="a_node34"><a xlink:href="secret__broadcast_8h.html" target="_top" xlink:title=" ">
<polygon fill="white" stroke="#666666" points="1098.5,-387.5 945.5,-387.5 945.5,-368.5 1098.5,-368.5 1098.5,-387.5"/>
<text text-anchor="middle" x="1022" y="-375.5" font-family="Helvetica,sans-Serif" font-size="10.00">src/node/secret_broadcast.h</text>
</a>
</g>
</g>
<!-- Node25&#45;&gt;Node34 -->
<g id="edge63" class="edge">
<title>Node25&#45;&gt;Node34</title>
<path fill="none" stroke="#63b8ff" d="M1014.19,-424.45C1016.25,-412.43 1018.85,-397.32 1020.47,-387.91"/>
<polygon fill="#63b8ff" stroke="#63b8ff" points="1010.73,-423.92 1012.48,-434.37 1017.63,-425.11 1010.73,-423.92"/>
</g>
<!-- Node35 -->
<g id="node35" class="node">
<title>Node35</title>
<g id="a_node35"><a xlink:href="share__manager_8h.html" target="_top" xlink:title=" ">
<polygon fill="white" stroke="#666666" points="2144.5,-387.5 1999.5,-387.5 1999.5,-368.5 2144.5,-368.5 2144.5,-387.5"/>
<text text-anchor="middle" x="2072" y="-375.5" font-family="Helvetica,sans-Serif" font-size="10.00">src/node/share_manager.h</text>
</a>
</g>
</g>
<!-- Node25&#45;&gt;Node35 -->
<g id="edge65" class="edge">
<title>Node25&#45;&gt;Node35</title>
<path fill="none" stroke="#63b8ff" d="M1086.41,-433.34C1101.18,-431.69 1116.56,-430.15 1131,-429 1509.7,-398.97 1607.04,-431.24 1985,-393 1998.09,-391.68 2012.2,-389.66 2025.18,-387.57"/>
<polygon fill="#63b8ff" stroke="#63b8ff" points="1085.85,-429.88 1076.31,-434.49 1086.64,-436.84 1085.85,-429.88"/>
</g>
<!-- Node26&#45;&gt;Node5 -->
<g id="edge56" class="edge">
<title>Node26&#45;&gt;Node5</title>
<path fill="none" stroke="#63b8ff" d="M1475.76,-374.24C1394.29,-368.92 1235.73,-355.22 1188,-327 1141.86,-299.72 1159.77,-260.47 1115,-231 1073.55,-203.71 1018.38,-191.31 976.33,-185.68"/>
<polygon fill="#63b8ff" stroke="#63b8ff" points="1475.57,-377.73 1485.77,-374.87 1476.01,-370.75 1475.57,-377.73"/>
</g>
<!-- Node26&#45;&gt;Node6 -->
<g id="edge45" class="edge">
<title>Node26&#45;&gt;Node6</title>
<path fill="none" stroke="#63b8ff" d="M1574.41,-376.72C1679.34,-375.34 1920.47,-367.69 1990,-327 2027.68,-304.95 2047,-290.66 2047,-247 2047,-247 2047,-247 2047,-179 2047,-70.33 1211.2,-64.6 975.32,-65.15"/>
<polygon fill="#63b8ff" stroke="#63b8ff" points="1574.06,-373.23 1564.1,-376.85 1574.14,-380.23 1574.06,-373.23"/>
</g>
<!-- Node26&#45;&gt;Node20 -->
<g id="edge57" class="edge">
<title>Node26&#45;&gt;Node20</title>
<path fill="none" stroke="#63b8ff" d="M1574.16,-372.93C1668.6,-365.01 1881.9,-346.54 2061,-327 2077.85,-325.16 2096.1,-322.97 2112.88,-320.87"/>
<polygon fill="#63b8ff" stroke="#63b8ff" points="1573.72,-369.46 1564.05,-373.78 1574.31,-376.43 1573.72,-369.46"/>
</g>
<!-- Node26&#45;&gt;Node21 -->
<g id="edge58" class="edge">
<title>Node26&#45;&gt;Node21</title>
<path fill="none" stroke="#63b8ff" d="M1475.83,-370.6C1404.92,-361.3 1269.83,-343.4 1155,-327 1142.88,-325.27 1129.88,-323.35 1117.55,-321.5"/>
<polygon fill="#63b8ff" stroke="#63b8ff" points="1475.45,-374.08 1485.82,-371.9 1476.36,-367.13 1475.45,-374.08"/>
</g>
<!-- Node27 -->
<g id="node27" class="node">
<title>Node27</title>
<g id="a_node27"><a xlink:href="js__generic__base_8cpp.html" target="_top" xlink:title=" ">
<polygon fill="white" stroke="#666666" points="1461,-327 1343,-327 1343,-297 1461,-297 1461,-327"/>
<text text-anchor="start" x="1351" y="-315" font-family="Helvetica,sans-Serif" font-size="10.00">src/apps/js_generic</text>
<text text-anchor="middle" x="1402" y="-304" font-family="Helvetica,sans-Serif" font-size="10.00">/js_generic_base.cpp</text>
</a>
</g>
</g>
<!-- Node26&#45;&gt;Node27 -->
<g id="edge44" class="edge">
<title>Node26&#45;&gt;Node27</title>
<path fill="none" stroke="#63b8ff" d="M1499.33,-363.64C1478.79,-352.95 1450.05,-338 1429.13,-327.12"/>
<polygon fill="#63b8ff" stroke="#63b8ff" points="1497.93,-366.86 1508.41,-368.37 1501.16,-360.65 1497.93,-366.86"/>
</g>
<!-- Node28 -->
<g id="node28" class="node">
<title>Node28</title>
<g id="a_node28"><a xlink:href="consensus_8cpp.html" target="_top" xlink:title=" ">
<polygon fill="white" stroke="#666666" points="1981,-321.5 1865,-321.5 1865,-302.5 1981,-302.5 1981,-321.5"/>
<text text-anchor="middle" x="1923" y="-309.5" font-family="Helvetica,sans-Serif" font-size="10.00">src/js/consensus.cpp</text>
</a>
</g>
</g>
<!-- Node26&#45;&gt;Node28 -->
<g id="edge46" class="edge">
<title>Node26&#45;&gt;Node28</title>
<path fill="none" stroke="#63b8ff" d="M1574.02,-370.47C1638.76,-361.65 1756.23,-344.94 1856,-327 1865.12,-325.36 1874.91,-323.42 1884.1,-321.51"/>
<polygon fill="#63b8ff" stroke="#63b8ff" points="1573.54,-367 1564.1,-371.82 1574.48,-373.94 1573.54,-367"/>
</g>
<!-- Node29 -->
<g id="node29" class="node">
<title>Node29</title>
<g id="a_node29"><a xlink:href="wrap_8cpp.html" target="_top" xlink:title=" ">
<polygon fill="white" stroke="#666666" points="1722.5,-255.5 1633.5,-255.5 1633.5,-236.5 1722.5,-236.5 1722.5,-255.5"/>
<text text-anchor="middle" x="1678" y="-243.5" font-family="Helvetica,sans-Serif" font-size="10.00">src/js/wrap.cpp</text>
</a>
</g>
</g>
<!-- Node26&#45;&gt;Node29 -->
<g id="edge55" class="edge">
<title>Node26&#45;&gt;Node29</title>
<path fill="none" stroke="#63b8ff" d="M1513.82,-359.25C1504.39,-341.78 1494.42,-315.15 1508,-297 1523.07,-276.86 1588.23,-262.05 1633.36,-253.98"/>
<polygon fill="#63b8ff" stroke="#63b8ff" points="1511.06,-361.47 1519.13,-368.35 1517.11,-357.95 1511.06,-361.47"/>
</g>
<!-- Node30 -->
<g id="node30" class="node">
<title>Node30</title>
<g id="a_node30"><a xlink:href="conv_8cpp.html" target="_top" xlink:title=" ">
<polygon fill="white" stroke="#666666" points="1605,-321.5 1517,-321.5 1517,-302.5 1605,-302.5 1605,-321.5"/>
<text text-anchor="middle" x="1561" y="-309.5" font-family="Helvetica,sans-Serif" font-size="10.00">src/js/conv.cpp</text>
</a>
</g>
</g>
<!-- Node26&#45;&gt;Node30 -->
<g id="edge48" class="edge">
<title>Node26&#45;&gt;Node30</title>
<path fill="none" stroke="#63b8ff" d="M1534.82,-359.55C1541.67,-347.36 1550.53,-331.61 1555.99,-321.91"/>
<polygon fill="#63b8ff" stroke="#63b8ff" points="1531.71,-357.94 1529.86,-368.37 1537.81,-361.37 1531.71,-357.94"/>
</g>
<!-- Node31 -->
<g id="node31" class="node">
<title>Node31</title>
<g id="a_node31"><a xlink:href="crypto_8cpp.html" target="_top" xlink:title=" ">
<polygon fill="white" stroke="#666666" points="1847,-321.5 1751,-321.5 1751,-302.5 1847,-302.5 1847,-321.5"/>
<text text-anchor="middle" x="1799" y="-309.5" font-family="Helvetica,sans-Serif" font-size="10.00">src/js/crypto.cpp</text>
</a>
</g>
</g>
<!-- Node26&#45;&gt;Node31 -->
<g id="edge50" class="edge">
<title>Node26&#45;&gt;Node31</title>
<path fill="none" stroke="#63b8ff" d="M1572.52,-366.26C1616.51,-356.26 1683.73,-340.87 1742,-327 1749.34,-325.25 1757.19,-323.35 1764.66,-321.52"/>
<polygon fill="#63b8ff" stroke="#63b8ff" points="1571.65,-362.87 1562.67,-368.49 1573.2,-369.69 1571.65,-362.87"/>
</g>
<!-- Node32 -->
<g id="node32" class="node">
<title>Node32</title>
<g id="a_node32"><a xlink:href="historical_8cpp.html" target="_top" xlink:title=" ">
<polygon fill="white" stroke="#666666" points="1733,-321.5 1623,-321.5 1623,-302.5 1733,-302.5 1733,-321.5"/>
<text text-anchor="middle" x="1678" y="-309.5" font-family="Helvetica,sans-Serif" font-size="10.00">src/js/historical.cpp</text>
</a>
</g>
</g>
<!-- Node26&#45;&gt;Node32 -->
<g id="edge52" class="edge">
<title>Node26&#45;&gt;Node32</title>
<path fill="none" stroke="#63b8ff" d="M1555.22,-364.36C1585.37,-351.75 1630.89,-332.71 1657.2,-321.7"/>
<polygon fill="#63b8ff" stroke="#63b8ff" points="1553.51,-361.28 1545.63,-368.37 1556.21,-367.74 1553.51,-361.28"/>
</g>
<!-- Node33 -->
<g id="node33" class="node">
<title>Node33</title>
<g id="a_node33"><a xlink:href="openenclave_8cpp.html" target="_top" xlink:title=" ">
<polygon fill="white" stroke="#666666" points="1325,-321.5 1197,-321.5 1197,-302.5 1325,-302.5 1325,-321.5"/>
<text text-anchor="middle" x="1261" y="-309.5" font-family="Helvetica,sans-Serif" font-size="10.00">src/js/openenclave.cpp</text>
</a>
</g>
</g>
<!-- Node26&#45;&gt;Node33 -->
<g id="edge54" class="edge">
<title>Node26&#45;&gt;Node33</title>
<path fill="none" stroke="#63b8ff" d="M1479.71,-366.02C1427.69,-353.41 1343.43,-332.98 1296.12,-321.51"/>
<polygon fill="#63b8ff" stroke="#63b8ff" points="1479.13,-369.48 1489.67,-368.44 1480.78,-362.68 1479.13,-369.48"/>
</g>
<!-- Node28&#45;&gt;Node29 -->
<g id="edge47" class="edge">
<title>Node28&#45;&gt;Node29</title>
<path fill="none" stroke="#63b8ff" d="M1880.37,-299.86C1832.04,-287.24 1754.32,-266.94 1710.59,-255.51"/>
<polygon fill="#63b8ff" stroke="#63b8ff" points="1879.65,-303.29 1890.21,-302.44 1881.42,-296.52 1879.65,-303.29"/>
</g>
<!-- Node30&#45;&gt;Node29 -->
<g id="edge49" class="edge">
<title>Node30&#45;&gt;Node29</title>
<path fill="none" stroke="#63b8ff" d="M1585.63,-297.53C1608.67,-284.92 1642.41,-266.47 1662.1,-255.7"/>
<polygon fill="#63b8ff" stroke="#63b8ff" points="1583.87,-294.5 1576.78,-302.37 1587.23,-300.64 1583.87,-294.5"/>
</g>
<!-- Node31&#45;&gt;Node29 -->
<g id="edge51" class="edge">
<title>Node31&#45;&gt;Node29</title>
<path fill="none" stroke="#63b8ff" d="M1773.53,-297.53C1749.7,-284.92 1714.8,-266.47 1694.45,-255.7"/>
<polygon fill="#63b8ff" stroke="#63b8ff" points="1772.21,-300.79 1782.68,-302.37 1775.48,-294.6 1772.21,-300.79"/>
</g>
<!-- Node32&#45;&gt;Node29 -->
<g id="edge53" class="edge">
<title>Node32&#45;&gt;Node29</title>
<path fill="none" stroke="#63b8ff" d="M1678,-292.08C1678,-280.13 1678,-265.22 1678,-255.91"/>
<polygon fill="#63b8ff" stroke="#63b8ff" points="1674.5,-292.37 1678,-302.37 1681.5,-292.37 1674.5,-292.37"/>
</g>
<!-- Node34&#45;&gt;Node5 -->
<g id="edge64" class="edge">
<title>Node34&#45;&gt;Node5</title>
<path fill="none" stroke="#63b8ff" d="M1003.97,-361.37C994.14,-352.12 982.31,-339.76 974,-327 943.03,-279.47 922.92,-213.35 916.35,-189.78"/>
<polygon fill="#63b8ff" stroke="#63b8ff" points="1001.89,-364.2 1011.64,-368.33 1006.59,-359.02 1001.89,-364.2"/>
</g>
<!-- Node35&#45;&gt;Node5 -->
<g id="edge66" class="edge">
<title>Node35&#45;&gt;Node5</title>
<path fill="none" stroke="#63b8ff" d="M2059.36,-360.24C2044.67,-341.96 2018.76,-313.15 1990,-297 1886.8,-239.04 1848.93,-249.36 1732,-231 1452.29,-187.08 1113.16,-181.23 976,-180.8"/>
<polygon fill="#63b8ff" stroke="#63b8ff" points="2056.71,-362.54 2065.63,-368.26 2062.23,-358.23 2056.71,-362.54"/>
</g>
<!-- Node35&#45;&gt;Node20 -->
<g id="edge67" class="edge">
<title>Node35&#45;&gt;Node20</title>
<path fill="none" stroke="#63b8ff" d="M2094.23,-362.91C2111.01,-352.28 2133.93,-337.75 2150.72,-327.12"/>
<polygon fill="#63b8ff" stroke="#63b8ff" points="2092.19,-360.06 2085.62,-368.37 2095.94,-365.97 2092.19,-360.06"/>
</g>
<!-- Node36&#45;&gt;Node5 -->
<g id="edge70" class="edge">
<title>Node36&#45;&gt;Node5</title>
<path fill="none" stroke="#63b8ff" d="M1260.2,-442.38C1465.95,-440.05 2092.81,-429.97 2176,-393 2223.32,-371.97 2275.55,-336.43 2242,-297 2159.04,-199.51 1227.54,-183.89 976.18,-181.44"/>
<polygon fill="#63b8ff" stroke="#63b8ff" points="1260.1,-438.88 1250.14,-442.49 1260.18,-445.88 1260.1,-438.88"/>
</g>
<!-- Node36&#45;&gt;Node20 -->
<g id="edge71" class="edge">
<title>Node36&#45;&gt;Node20</title>
<path fill="none" stroke="#63b8ff" d="M1260.44,-441.73C1471.06,-437.35 2119.7,-421.59 2154,-393 2173.19,-377 2175.02,-345.49 2174.26,-327.15"/>
<polygon fill="#63b8ff" stroke="#63b8ff" points="1260.08,-438.23 1250.15,-441.94 1260.22,-445.23 1260.08,-438.23"/>
</g>
<!-- Node36&#45;&gt;Node21 -->
<g id="edge72" class="edge">
<title>Node36&#45;&gt;Node21</title>
<path fill="none" stroke="#63b8ff" d="M1176.96,-420.73C1163.13,-404.16 1143.22,-381.34 1124,-363 1107.59,-347.35 1086.76,-331.23 1073.91,-321.67"/>
<polygon fill="#63b8ff" stroke="#63b8ff" points="1174.53,-423.29 1183.6,-428.77 1179.93,-418.83 1174.53,-423.29"/>
</g>
<!-- Node36&#45;&gt;Node34 -->
<g id="edge73" class="edge">
<title>Node36&#45;&gt;Node34</title>
<path fill="none" stroke="#63b8ff" d="M1147.48,-425.42C1114.15,-413.09 1071.05,-397.15 1045.02,-387.52"/>
<polygon fill="#63b8ff" stroke="#63b8ff" points="1146.44,-428.77 1157.03,-428.95 1148.87,-422.2 1146.44,-428.77"/>
</g>
<!-- Node36&#45;&gt;Node35 -->
<g id="edge74" class="edge">
<title>Node36&#45;&gt;Node35</title>
<path fill="none" stroke="#63b8ff" d="M1260.44,-440.99C1395.98,-436.36 1717.12,-422.96 1985,-393 1997.77,-391.57 2011.53,-389.57 2024.25,-387.53"/>
<polygon fill="#63b8ff" stroke="#63b8ff" points="1260.11,-437.5 1250.23,-441.34 1260.34,-444.5 1260.11,-437.5"/>
</g>
</g>
</svg>
        <g id="navigator" transform="translate(0 0)" fill="#404254">
                <rect fill="#f2f5e9" fill-opacity="0.5" stroke="#606060" stroke-width=".5" x="0" y="0" width="60" height="60"/>
                <use id="zoomplus" xlink:href="#zoomPlus" x="17" y="9" onmousedown="handleZoom(evt,'in')"/>
                <use id="zoomminus" xlink:href="#zoomMin" x="42" y="9" onmousedown="handleZoom(evt,'out')"/>
                <use id="reset" xlink:href="#resetDef" x="30" y="36" onmousedown="handleReset()"/>
                <g id="arrowUp" xlink:href="#dirArrow" transform="translate(30 24)" onmousedown="handlePan(0,-1)">
                  <use xlink:href="#rim" fill="#404040">
                        <set attributeName="fill" to="#808080" begin="arrowUp.mouseover" end="arrowUp.mouseout"/>
                  </use>
                  <path fill="none" stroke="white" stroke-width="1.5" d="M0,-3.0v7 M-2.5,-0.5L0,-3.0L2.5,-0.5"/>
                </g>
                <g id="arrowRight" xlink:href="#dirArrow" transform="rotate(90) translate(36 -43)" onmousedown="handlePan(1,0)">
                  <use xlink:href="#rim" fill="#404040">
                        <set attributeName="fill" to="#808080" begin="arrowRight.mouseover" end="arrowRight.mouseout"/>
                  </use>
                  <path fill="none" stroke="white" stroke-width="1.5" d="M0,-3.0v7 M-2.5,-0.5L0,-3.0L2.5,-0.5"/>
                </g>
                <g id="arrowDown" xlink:href="#dirArrow" transform="rotate(180) translate(-30 -48)" onmousedown="handlePan(0,1)">
                  <use xlink:href="#rim" fill="#404040">
                        <set attributeName="fill" to="#808080" begin="arrowDown.mouseover" end="arrowDown.mouseout"/>
                  </use>
                  <path fill="none" stroke="white" stroke-width="1.5" d="M0,-3.0v7 M-2.5,-0.5L0,-3.0L2.5,-0.5"/>
                </g>
                <g id="arrowLeft" xlink:href="#dirArrow" transform="rotate(270) translate(-36 17)" onmousedown="handlePan(-1,0)">
                  <use xlink:href="#rim" fill="#404040">
                        <set attributeName="fill" to="#808080" begin="arrowLeft.mouseover" end="arrowLeft.mouseout"/>
                  </use>
                  <path fill="none" stroke="white" stroke-width="1.5" d="M0,-3.0v7 M-2.5,-0.5L0,-3.0L2.5,-0.5"/>
                </g>
        </g>
        <svg viewBox="0 0 15 15" width="100%" height="30px" preserveAspectRatio="xMaxYMin meet">
         <g id="arrow_out" transform="scale(0.3 0.3)">
          <a xlink:href="snapshot__evidence_8h__dep__incl_org.svg" target="_base">
           <rect id="button" ry="5" rx="5" y="6" x="6" height="38" width="38"
                fill="#f2f5e9" fill-opacity="0.5" stroke="#606060" stroke-width="1.0"/>
           <path id="arrow"
             d="M 11.500037,31.436501 C 11.940474,20.09759 22.043105,11.32322 32.158766,21.979434 L 37.068811,17.246167 C 37.068811,17.246167 37.088388,32 37.088388,32 L 22.160133,31.978069 C 22.160133,31.978069 26.997745,27.140456 26.997745,27.140456 C 18.528582,18.264221 13.291696,25.230495 11.500037,31.436501 z"
             style="fill:#404040;"/>
          </a>
         </g>
        </svg>
</svg>
