<?xml version="1.0" encoding="UTF-8" standalone="no"?>
<!DOCTYPE svg PUBLIC "-//W3C//DTD SVG 1.1//EN"
 "http://www.w3.org/Graphics/SVG/1.1/DTD/svg11.dtd">
<!-- Generated by graphviz version 2.43.0 (0)
 -->
<!-- Title: src/crypto/openssl/base64.h Pages: 1 -->
<svg width="1819pt" height="379pt"
 viewBox="0.00 0.00 1819.08 379.00" xmlns="http://www.w3.org/2000/svg" xmlns:xlink="http://www.w3.org/1999/xlink">
<g id="graph0" class="graph" transform="scale(1 1) rotate(0) translate(4 375)">
<title>src/crypto/openssl/base64.h</title>
<!-- Node1 -->
<g id="node1" class="node">
<title>Node1</title>
<g id="a_node1"><a xlink:title=" ">
<polygon fill="#999999" stroke="#666666" points="1524.58,-371 1419.58,-371 1419.58,-341 1524.58,-341 1524.58,-371"/>
<text text-anchor="start" x="1427.58" y="-359" font-family="Helvetica,sans-Serif" font-size="10.00">src/crypto/openssl</text>
<text text-anchor="middle" x="1472.08" y="-348" font-family="Helvetica,sans-Serif" font-size="10.00">/base64.h</text>
</a>
</g>
</g>
<!-- Node2 -->
<g id="node2" class="node">
<title>Node2</title>
<g id="a_node2"><a xlink:href="logger_8h.html" target="_top" xlink:title=" ">
<polygon fill="white" stroke="#666666" points="599.58,-184 512.58,-184 512.58,-165 599.58,-165 599.58,-184"/>
<text text-anchor="middle" x="556.08" y="-172" font-family="Helvetica,sans-Serif" font-size="10.00">ccf/ds/logger.h</text>
</a>
</g>
</g>
<!-- Node1&#45;&gt;Node2 -->
<g id="edge1" class="edge">
<title>Node1&#45;&gt;Node2</title>
<path fill="none" stroke="#63b8ff" d="M1419.48,-355.2C1247.93,-354.79 708.27,-344.96 578.08,-239 564.8,-228.19 559.52,-208.9 557.43,-194.41"/>
<polygon fill="#63b8ff" stroke="#63b8ff" points="560.87,-193.65 556.34,-184.07 553.9,-194.38 560.87,-193.65"/>
</g>
<!-- Node17 -->
<g id="node17" class="node">
<title>Node17</title>
<g id="a_node17"><a xlink:href="openssl__wrappers_8h.html" target="_top" xlink:title=" ">
<polygon fill="white" stroke="#666666" points="1367.08,-305 1239.08,-305 1239.08,-275 1367.08,-275 1367.08,-305"/>
<text text-anchor="start" x="1247.08" y="-293" font-family="Helvetica,sans-Serif" font-size="10.00">crypto/openssl/openssl</text>
<text text-anchor="middle" x="1303.08" y="-282" font-family="Helvetica,sans-Serif" font-size="10.00">_wrappers.h</text>
</a>
</g>
</g>
<!-- Node1&#45;&gt;Node17 -->
<g id="edge18" class="edge">
<title>Node1&#45;&gt;Node17</title>
<path fill="none" stroke="#63b8ff" d="M1434.99,-340.95C1409.9,-331.45 1376.55,-318.82 1349.67,-308.64"/>
<polygon fill="#63b8ff" stroke="#63b8ff" points="1350.67,-305.28 1340.08,-305.01 1348.2,-311.83 1350.67,-305.28"/>
</g>
<!-- Node21 -->
<g id="node21" class="node">
<title>Node21</title>
<g id="a_node21"><a xlink:title=" ">
<polygon fill="#e0e0e0" stroke="#999999" points="1731.08,-19 1687.08,-19 1687.08,0 1731.08,0 1731.08,-19"/>
<text text-anchor="middle" x="1709.08" y="-7" font-family="Helvetica,sans-Serif" font-size="10.00">string</text>
</a>
</g>
</g>
<!-- Node1&#45;&gt;Node21 -->
<g id="edge66" class="edge">
<title>Node1&#45;&gt;Node21</title>
<path fill="none" stroke="#63b8ff" d="M1524.68,-346.9C1619.9,-330.73 1811.08,-290.77 1811.08,-230.5 1811.08,-230.5 1811.08,-230.5 1811.08,-118.5 1811.08,-74.56 1765.9,-41.27 1735.68,-23.92"/>
<polygon fill="#63b8ff" stroke="#63b8ff" points="1737.3,-20.81 1726.85,-19.05 1733.92,-26.94 1737.3,-20.81"/>
</g>
<!-- Node22 -->
<g id="node22" class="node">
<title>Node22</title>
<g id="a_node22"><a xlink:title=" ">
<polygon fill="#e0e0e0" stroke="#999999" points="1367.58,-19 1320.58,-19 1320.58,0 1367.58,0 1367.58,-19"/>
<text text-anchor="middle" x="1344.08" y="-7" font-family="Helvetica,sans-Serif" font-size="10.00">vector</text>
</a>
</g>
</g>
<!-- Node1&#45;&gt;Node22 -->
<g id="edge67" class="edge">
<title>Node1&#45;&gt;Node22</title>
<path fill="none" stroke="#63b8ff" d="M1419.29,-353.35C1156.41,-344.82 1.08,-303.18 1.08,-230.5 1.08,-230.5 1.08,-230.5 1.08,-118.5 1.08,-89.04 -3.25,-72.99 20.08,-55 46.42,-34.69 1106.55,-14.74 1310.38,-11.09"/>
<polygon fill="#63b8ff" stroke="#63b8ff" points="1310.55,-14.59 1320.49,-10.91 1310.43,-7.59 1310.55,-14.59"/>
</g>
<!-- Node40 -->
<g id="node40" class="node">
<title>Node40</title>
<g id="a_node40"><a xlink:title=" ">
<polygon fill="#e0e0e0" stroke="#999999" points="1681.58,-239 1602.58,-239 1602.58,-220 1681.58,-220 1681.58,-239"/>
<text text-anchor="middle" x="1642.08" y="-227" font-family="Helvetica,sans-Serif" font-size="10.00">openssl/err.h</text>
</a>
</g>
</g>
<!-- Node1&#45;&gt;Node40 -->
<g id="edge64" class="edge">
<title>Node1&#45;&gt;Node40</title>
<path fill="none" stroke="#63b8ff" d="M1491.25,-340.96C1523.64,-317.24 1588.87,-269.47 1621.91,-245.27"/>
<polygon fill="#63b8ff" stroke="#63b8ff" points="1624.33,-247.84 1630.33,-239.11 1620.19,-242.19 1624.33,-247.84"/>
</g>
<!-- Node41 -->
<g id="node41" class="node">
<title>Node41</title>
<g id="a_node41"><a xlink:title=" ">
<polygon fill="#e0e0e0" stroke="#999999" points="1783.08,-239 1699.08,-239 1699.08,-220 1783.08,-220 1783.08,-239"/>
<text text-anchor="middle" x="1741.08" y="-227" font-family="Helvetica,sans-Serif" font-size="10.00">openssl/evp.h</text>
</a>
</g>
</g>
<!-- Node1&#45;&gt;Node41 -->
<g id="edge65" class="edge">
<title>Node1&#45;&gt;Node41</title>
<path fill="none" stroke="#63b8ff" d="M1502.42,-340.96C1554.97,-316.64 1662.21,-267.01 1713.09,-243.46"/>
<polygon fill="#63b8ff" stroke="#63b8ff" points="1714.87,-246.49 1722.48,-239.11 1711.93,-240.13 1714.87,-246.49"/>
</g>
<!-- Node3 -->
<g id="node3" class="node">
<title>Node3</title>
<g id="a_node3"><a xlink:href="enum__formatter_8h.html" target="_top" xlink:title=" ">
<polygon fill="white" stroke="#666666" points="626.08,-129 490.08,-129 490.08,-110 626.08,-110 626.08,-129"/>
<text text-anchor="middle" x="558.08" y="-117" font-family="Helvetica,sans-Serif" font-size="10.00">ccf/ds/enum_formatter.h</text>
</a>
</g>
</g>
<!-- Node2&#45;&gt;Node3 -->
<g id="edge2" class="edge">
<title>Node2&#45;&gt;Node3</title>
<path fill="none" stroke="#63b8ff" d="M556.41,-164.75C556.67,-157.8 557.05,-147.85 557.38,-139.13"/>
<polygon fill="#63b8ff" stroke="#63b8ff" points="560.88,-139.21 557.76,-129.09 553.88,-138.95 560.88,-139.21"/>
</g>
<!-- Node4 -->
<g id="node4" class="node">
<title>Node4</title>
<g id="a_node4"><a xlink:title=" ">
<polygon fill="#e0e0e0" stroke="#999999" points="747.58,-74 668.58,-74 668.58,-55 747.58,-55 747.58,-74"/>
<text text-anchor="middle" x="708.08" y="-62" font-family="Helvetica,sans-Serif" font-size="10.00">fmt/format.h</text>
</a>
</g>
</g>
<!-- Node2&#45;&gt;Node4 -->
<g id="edge12" class="edge">
<title>Node2&#45;&gt;Node4</title>
<path fill="none" stroke="#63b8ff" d="M531.63,-164.99C503.17,-153.78 462.33,-132.79 481.08,-110 503.1,-83.25 598.53,-72.35 658.43,-68.08"/>
<polygon fill="#63b8ff" stroke="#63b8ff" points="658.71,-71.57 668.45,-67.4 658.24,-64.58 658.71,-71.57"/>
</g>
<!-- Node5 -->
<g id="node5" class="node">
<title>Node5</title>
<g id="a_node5"><a xlink:href="thread__ids_8h.html" target="_top" xlink:title=" ">
<polygon fill="white" stroke="#666666" points="318.08,-129 210.08,-129 210.08,-110 318.08,-110 318.08,-129"/>
<text text-anchor="middle" x="264.08" y="-117" font-family="Helvetica,sans-Serif" font-size="10.00">ccf/ds/thread_ids.h</text>
</a>
</g>
</g>
<!-- Node2&#45;&gt;Node5 -->
<g id="edge4" class="edge">
<title>Node2&#45;&gt;Node5</title>
<path fill="none" stroke="#63b8ff" d="M512.37,-165.57C461.44,-156.32 377.16,-141.02 321.12,-130.85"/>
<polygon fill="#63b8ff" stroke="#63b8ff" points="321.47,-127.36 311,-129.02 320.22,-134.25 321.47,-127.36"/>
</g>
<!-- Node11 -->
<g id="node11" class="node">
<title>Node11</title>
<g id="a_node11"><a xlink:title=" ">
<polygon fill="#e0e0e0" stroke="#999999" points="799.58,-129 720.58,-129 720.58,-110 799.58,-110 799.58,-129"/>
<text text-anchor="middle" x="760.08" y="-117" font-family="Helvetica,sans-Serif" font-size="10.00">fmt/chrono.h</text>
</a>
</g>
</g>
<!-- Node2&#45;&gt;Node11 -->
<g id="edge11" class="edge">
<title>Node2&#45;&gt;Node11</title>
<path fill="none" stroke="#63b8ff" d="M588.86,-164.98C623.7,-155.93 678.95,-141.58 717.22,-131.64"/>
<polygon fill="#63b8ff" stroke="#63b8ff" points="718.25,-134.98 727.05,-129.08 716.49,-128.21 718.25,-134.98"/>
</g>
<!-- Node12 -->
<g id="node12" class="node">
<title>Node12</title>
<g id="a_node12"><a xlink:title=" ">
<polygon fill="#e0e0e0" stroke="#999999" points="434.08,-129 374.08,-129 374.08,-110 434.08,-110 434.08,-129"/>
<text text-anchor="middle" x="404.08" y="-117" font-family="Helvetica,sans-Serif" font-size="10.00">iostream</text>
</a>
</g>
</g>
<!-- Node2&#45;&gt;Node12 -->
<g id="edge13" class="edge">
<title>Node2&#45;&gt;Node12</title>
<path fill="none" stroke="#63b8ff" d="M531.66,-164.98C506.36,-156.16 466.63,-142.31 438.23,-132.41"/>
<polygon fill="#63b8ff" stroke="#63b8ff" points="439.29,-129.07 428.7,-129.08 436.99,-135.68 439.29,-129.07"/>
</g>
<!-- Node13 -->
<g id="node13" class="node">
<title>Node13</title>
<g id="a_node13"><a xlink:title=" ">
<polygon fill="#e0e0e0" stroke="#999999" points="876.08,-74 766.08,-74 766.08,-55 876.08,-55 876.08,-74"/>
<text text-anchor="middle" x="821.08" y="-62" font-family="Helvetica,sans-Serif" font-size="10.00">nlohmann/json.hpp</text>
</a>
</g>
</g>
<!-- Node2&#45;&gt;Node13 -->
<g id="edge14" class="edge">
<title>Node2&#45;&gt;Node13</title>
<path fill="none" stroke="#63b8ff" d="M570.7,-164.8C593.19,-151.67 637.9,-126.55 678.08,-110 710.88,-96.49 749.33,-84.74 778.09,-76.71"/>
<polygon fill="#63b8ff" stroke="#63b8ff" points="779.12,-80.06 787.84,-74.03 777.27,-73.31 779.12,-80.06"/>
</g>
<!-- Node14 -->
<g id="node14" class="node">
<title>Node14</title>
<g id="a_node14"><a xlink:title=" ">
<polygon fill="#e0e0e0" stroke="#999999" points="950.08,-74 894.08,-74 894.08,-55 950.08,-55 950.08,-74"/>
<text text-anchor="middle" x="922.08" y="-62" font-family="Helvetica,sans-Serif" font-size="10.00">optional</text>
</a>
</g>
</g>
<!-- Node2&#45;&gt;Node14 -->
<g id="edge15" class="edge">
<title>Node2&#45;&gt;Node14</title>
<path fill="none" stroke="#63b8ff" d="M580.32,-164.9C603.96,-156.35 640.82,-142.58 672.08,-129 689.77,-121.32 692.83,-116.22 711.08,-110 782.91,-85.5 806.12,-90.4 884.03,-74.15"/>
<polygon fill="#63b8ff" stroke="#63b8ff" points="884.77,-77.57 893.81,-72.06 883.3,-70.73 884.77,-77.57"/>
</g>
<!-- Node15 -->
<g id="node15" class="node">
<title>Node15</title>
<g id="a_node15"><a xlink:title=" ">
<polygon fill="#e0e0e0" stroke="#999999" points="912.08,-129 856.08,-129 856.08,-110 912.08,-110 912.08,-129"/>
<text text-anchor="middle" x="884.08" y="-117" font-family="Helvetica,sans-Serif" font-size="10.00">sstream</text>
</a>
</g>
</g>
<!-- Node2&#45;&gt;Node15 -->
<g id="edge16" class="edge">
<title>Node2&#45;&gt;Node15</title>
<path fill="none" stroke="#63b8ff" d="M599.64,-166.46C664.21,-156.03 784.31,-136.62 845.74,-126.7"/>
<polygon fill="#63b8ff" stroke="#63b8ff" points="846.48,-130.12 855.79,-125.07 845.36,-123.21 846.48,-130.12"/>
</g>
<!-- Node16 -->
<g id="node16" class="node">
<title>Node16</title>
<g id="a_node16"><a xlink:title=" ">
<polygon fill="#e0e0e0" stroke="#999999" points="886.58,-19 817.58,-19 817.58,0 886.58,0 886.58,-19"/>
<text text-anchor="middle" x="852.08" y="-7" font-family="Helvetica,sans-Serif" font-size="10.00">type_traits</text>
</a>
</g>
</g>
<!-- Node2&#45;&gt;Node16 -->
<g id="edge17" class="edge">
<title>Node2&#45;&gt;Node16</title>
<path fill="none" stroke="#63b8ff" d="M512.38,-173.16C444.08,-171.11 323.87,-160.49 365.08,-110 420.86,-41.68 698.05,-19.03 807.51,-12.67"/>
<polygon fill="#63b8ff" stroke="#63b8ff" points="807.78,-16.16 817.57,-12.1 807.39,-9.17 807.78,-16.16"/>
</g>
<!-- Node3&#45;&gt;Node4 -->
<g id="edge3" class="edge">
<title>Node3&#45;&gt;Node4</title>
<path fill="none" stroke="#63b8ff" d="M582.18,-109.98C606.96,-101.23 645.79,-87.51 673.77,-77.62"/>
<polygon fill="#63b8ff" stroke="#63b8ff" points="675.28,-80.8 683.54,-74.17 672.95,-74.2 675.28,-80.8"/>
</g>
<!-- Node5&#45;&gt;Node4 -->
<g id="edge5" class="edge">
<title>Node5&#45;&gt;Node4</title>
<path fill="none" stroke="#63b8ff" d="M318.53,-112C405.55,-101.61 574.71,-81.42 658.54,-71.41"/>
<polygon fill="#63b8ff" stroke="#63b8ff" points="659.06,-74.88 668.57,-70.22 658.23,-67.93 659.06,-74.88"/>
</g>
<!-- Node6 -->
<g id="node6" class="node">
<title>Node6</title>
<g id="a_node6"><a xlink:title=" ">
<polygon fill="#e0e0e0" stroke="#999999" points="115.08,-74 29.08,-74 29.08,-55 115.08,-55 115.08,-74"/>
<text text-anchor="middle" x="72.08" y="-62" font-family="Helvetica,sans-Serif" font-size="10.00">fmt/ostream.h</text>
</a>
</g>
</g>
<!-- Node5&#45;&gt;Node6 -->
<g id="edge6" class="edge">
<title>Node5&#45;&gt;Node6</title>
<path fill="none" stroke="#63b8ff" d="M233.23,-109.98C200.58,-100.97 148.89,-86.7 112.88,-76.76"/>
<polygon fill="#63b8ff" stroke="#63b8ff" points="113.74,-73.37 103.17,-74.08 111.88,-80.12 113.74,-73.37"/>
</g>
<!-- Node7 -->
<g id="node7" class="node">
<title>Node7</title>
<g id="a_node7"><a xlink:title=" ">
<polygon fill="#e0e0e0" stroke="#999999" points="194.58,-74 133.58,-74 133.58,-55 194.58,-55 194.58,-74"/>
<text text-anchor="middle" x="164.08" y="-62" font-family="Helvetica,sans-Serif" font-size="10.00">fmt/std.h</text>
</a>
</g>
</g>
<!-- Node5&#45;&gt;Node7 -->
<g id="edge7" class="edge">
<title>Node5&#45;&gt;Node7</title>
<path fill="none" stroke="#63b8ff" d="M248.02,-109.98C232.22,-101.61 207.87,-88.7 189.45,-78.95"/>
<polygon fill="#63b8ff" stroke="#63b8ff" points="190.92,-75.76 180.44,-74.17 187.64,-81.95 190.92,-75.76"/>
</g>
<!-- Node8 -->
<g id="node8" class="node">
<title>Node8</title>
<g id="a_node8"><a xlink:title=" ">
<polygon fill="#e0e0e0" stroke="#999999" points="257.08,-74 213.08,-74 213.08,-55 257.08,-55 257.08,-74"/>
<text text-anchor="middle" x="235.08" y="-62" font-family="Helvetica,sans-Serif" font-size="10.00">limits</text>
</a>
</g>
</g>
<!-- Node5&#45;&gt;Node8 -->
<g id="edge8" class="edge">
<title>Node5&#45;&gt;Node8</title>
<path fill="none" stroke="#63b8ff" d="M259.29,-109.75C255.32,-102.49 249.56,-91.95 244.65,-82.98"/>
<polygon fill="#63b8ff" stroke="#63b8ff" points="247.65,-81.18 239.78,-74.09 241.51,-84.54 247.65,-81.18"/>
</g>
<!-- Node9 -->
<g id="node9" class="node">
<title>Node9</title>
<g id="a_node9"><a xlink:title=" ">
<polygon fill="#e0e0e0" stroke="#999999" points="313.08,-74 275.08,-74 275.08,-55 313.08,-55 313.08,-74"/>
<text text-anchor="middle" x="294.08" y="-62" font-family="Helvetica,sans-Serif" font-size="10.00">map</text>
</a>
</g>
</g>
<!-- Node5&#45;&gt;Node9 -->
<g id="edge9" class="edge">
<title>Node5&#45;&gt;Node9</title>
<path fill="none" stroke="#63b8ff" d="M269.04,-109.75C273.14,-102.49 279.11,-91.95 284.19,-82.98"/>
<polygon fill="#63b8ff" stroke="#63b8ff" points="287.34,-84.52 289.22,-74.09 281.25,-81.07 287.34,-84.52"/>
</g>
<!-- Node10 -->
<g id="node10" class="node">
<title>Node10</title>
<g id="a_node10"><a xlink:title=" ">
<polygon fill="#e0e0e0" stroke="#999999" points="379.08,-74 331.08,-74 331.08,-55 379.08,-55 379.08,-74"/>
<text text-anchor="middle" x="355.08" y="-62" font-family="Helvetica,sans-Serif" font-size="10.00">thread</text>
</a>
</g>
</g>
<!-- Node5&#45;&gt;Node10 -->
<g id="edge10" class="edge">
<title>Node5&#45;&gt;Node10</title>
<path fill="none" stroke="#63b8ff" d="M278.7,-109.98C292.95,-101.69 314.83,-88.94 331.53,-79.22"/>
<polygon fill="#63b8ff" stroke="#63b8ff" points="333.32,-82.23 340.2,-74.17 329.79,-76.18 333.32,-82.23"/>
</g>
<!-- Node17&#45;&gt;Node4 -->
<g id="edge53" class="edge">
<title>Node17&#45;&gt;Node4</title>
<path fill="none" stroke="#63b8ff" d="M1239.04,-289.22C1075.67,-289.12 653.34,-284.42 611.08,-239 605.33,-232.82 606.53,-227.11 611.08,-220 663.05,-138.75 756.12,-210.25 808.08,-129 824.05,-104.04 790.36,-87.06 757.86,-76.98"/>
<polygon fill="#63b8ff" stroke="#63b8ff" points="758.44,-73.51 747.86,-74.08 756.49,-80.23 758.44,-73.51"/>
</g>
<!-- Node18 -->
<g id="node18" class="node">
<title>Node18</title>
<g id="a_node18"><a xlink:href="pem_8h.html" target="_top" xlink:title=" ">
<polygon fill="white" stroke="#666666" points="1546.08,-239 1448.08,-239 1448.08,-220 1546.08,-220 1546.08,-239"/>
<text text-anchor="middle" x="1497.08" y="-227" font-family="Helvetica,sans-Serif" font-size="10.00">ccf/crypto/pem.h</text>
</a>
</g>
</g>
<!-- Node17&#45;&gt;Node18 -->
<g id="edge19" class="edge">
<title>Node17&#45;&gt;Node18</title>
<path fill="none" stroke="#63b8ff" d="M1349.55,-274.99C1383.03,-264.89 1427.65,-251.44 1459.03,-241.98"/>
<polygon fill="#63b8ff" stroke="#63b8ff" points="1460.15,-245.29 1468.72,-239.05 1458.13,-238.59 1460.15,-245.29"/>
</g>
<!-- Node31 -->
<g id="node31" class="node">
<title>Node31</title>
<g id="a_node31"><a xlink:title=" ">
<polygon fill="#e0e0e0" stroke="#999999" points="1774.08,-184 1716.08,-184 1716.08,-165 1774.08,-165 1774.08,-184"/>
<text text-anchor="middle" x="1745.08" y="-172" font-family="Helvetica,sans-Serif" font-size="10.00">memory</text>
</a>
</g>
</g>
<!-- Node17&#45;&gt;Node31 -->
<g id="edge54" class="edge">
<title>Node17&#45;&gt;Node31</title>
<path fill="none" stroke="#63b8ff" d="M1367.17,-280.94C1418.82,-273.34 1492.83,-259.95 1555.08,-239 1573.36,-232.85 1576.11,-226.97 1594.08,-220 1631.28,-205.57 1675.16,-193.13 1706.01,-185.1"/>
<polygon fill="#63b8ff" stroke="#63b8ff" points="1707.12,-188.42 1715.94,-182.55 1705.38,-181.64 1707.12,-188.42"/>
</g>
<!-- Node33 -->
<g id="node33" class="node">
<title>Node33</title>
<g id="a_node33"><a xlink:title=" ">
<polygon fill="#e0e0e0" stroke="#999999" points="1196.08,-129 1146.08,-129 1146.08,-110 1196.08,-110 1196.08,-129"/>
<text text-anchor="middle" x="1171.08" y="-117" font-family="Helvetica,sans-Serif" font-size="10.00">chrono</text>
</a>
</g>
</g>
<!-- Node17&#45;&gt;Node33 -->
<g id="edge44" class="edge">
<title>Node17&#45;&gt;Node33</title>
<path fill="none" stroke="#63b8ff" d="M1339.41,-274.89C1365.74,-262.41 1394.41,-242.69 1380.08,-220 1369.76,-203.65 1256.85,-155.65 1201.42,-132.83"/>
<polygon fill="#63b8ff" stroke="#63b8ff" points="1202.67,-129.56 1192.09,-129 1200.02,-136.04 1202.67,-129.56"/>
</g>
<!-- Node34 -->
<g id="node34" class="node">
<title>Node34</title>
<g id="a_node34"><a xlink:href="x509__time__fmt_8h.html" target="_top" xlink:title=" ">
<polygon fill="white" stroke="#666666" points="1063.08,-184 949.08,-184 949.08,-165 1063.08,-165 1063.08,-184"/>
<text text-anchor="middle" x="1006.08" y="-172" font-family="Helvetica,sans-Serif" font-size="10.00">ds/x509_time_fmt.h</text>
</a>
</g>
</g>
<!-- Node17&#45;&gt;Node34 -->
<g id="edge45" class="edge">
<title>Node17&#45;&gt;Node34</title>
<path fill="none" stroke="#63b8ff" d="M1329.59,-274.94C1352.6,-260.95 1379.79,-238.92 1363.08,-220 1344.27,-198.69 1171.66,-185.18 1073.52,-179.16"/>
<polygon fill="#63b8ff" stroke="#63b8ff" points="1073.58,-175.66 1063.39,-178.55 1073.16,-182.64 1073.58,-175.66"/>
</g>
<!-- Node37 -->
<g id="node37" class="node">
<title>Node37</title>
<g id="a_node37"><a xlink:title=" ">
<polygon fill="#e0e0e0" stroke="#999999" points="709.58,-239 620.58,-239 620.58,-220 709.58,-220 709.58,-239"/>
<text text-anchor="middle" x="665.08" y="-227" font-family="Helvetica,sans-Serif" font-size="10.00">openssl/asn1.h</text>
</a>
</g>
</g>
<!-- Node17&#45;&gt;Node37 -->
<g id="edge55" class="edge">
<title>Node17&#45;&gt;Node37</title>
<path fill="none" stroke="#63b8ff" d="M1238.86,-285.07C1132.86,-278.23 914.4,-262.7 719.99,-239.16"/>
<polygon fill="#63b8ff" stroke="#63b8ff" points="720.22,-235.66 709.87,-237.92 719.37,-242.61 720.22,-235.66"/>
</g>
<!-- Node38 -->
<g id="node38" class="node">
<title>Node38</title>
<g id="a_node38"><a xlink:title=" ">
<polygon fill="#e0e0e0" stroke="#999999" points="804.58,-239 727.58,-239 727.58,-220 804.58,-220 804.58,-239"/>
<text text-anchor="middle" x="766.08" y="-227" font-family="Helvetica,sans-Serif" font-size="10.00">openssl/ec.h</text>
</a>
</g>
</g>
<!-- Node17&#45;&gt;Node38 -->
<g id="edge56" class="edge">
<title>Node17&#45;&gt;Node38</title>
<path fill="none" stroke="#63b8ff" d="M1239.07,-284.06C1147.34,-276.62 972.97,-261.18 815.14,-239.2"/>
<polygon fill="#63b8ff" stroke="#63b8ff" points="815.16,-235.67 804.77,-237.74 814.19,-242.6 815.16,-235.67"/>
</g>
<!-- Node39 -->
<g id="node39" class="node">
<title>Node39</title>
<g id="a_node39"><a xlink:title=" ">
<polygon fill="#e0e0e0" stroke="#999999" points="921.58,-239 822.58,-239 822.58,-220 921.58,-220 921.58,-239"/>
<text text-anchor="middle" x="872.08" y="-227" font-family="Helvetica,sans-Serif" font-size="10.00">openssl/engine.h</text>
</a>
</g>
</g>
<!-- Node17&#45;&gt;Node39 -->
<g id="edge57" class="edge">
<title>Node17&#45;&gt;Node39</title>
<path fill="none" stroke="#63b8ff" d="M1238.87,-280.56C1166.81,-271.04 1046.11,-254.97 931.64,-239.07"/>
<polygon fill="#63b8ff" stroke="#63b8ff" points="932.04,-235.59 921.65,-237.68 931.07,-242.52 932.04,-235.59"/>
</g>
<!-- Node17&#45;&gt;Node40 -->
<g id="edge58" class="edge">
<title>Node17&#45;&gt;Node40</title>
<path fill="none" stroke="#63b8ff" d="M1367.24,-277.93C1432.75,-266.62 1533.03,-249.32 1592.63,-239.03"/>
<polygon fill="#63b8ff" stroke="#63b8ff" points="1593.29,-242.47 1602.55,-237.32 1592.1,-235.57 1593.29,-242.47"/>
</g>
<!-- Node17&#45;&gt;Node41 -->
<g id="edge59" class="edge">
<title>Node17&#45;&gt;Node41</title>
<path fill="none" stroke="#63b8ff" d="M1367.21,-281.45C1441.95,-272.48 1569.45,-256.67 1689.01,-239.11"/>
<polygon fill="#63b8ff" stroke="#63b8ff" points="1689.69,-242.55 1699.08,-237.63 1688.67,-235.62 1689.69,-242.55"/>
</g>
<!-- Node42 -->
<g id="node42" class="node">
<title>Node42</title>
<g id="a_node42"><a xlink:title=" ">
<polygon fill="#e0e0e0" stroke="#999999" points="1028.08,-239 940.08,-239 940.08,-220 1028.08,-220 1028.08,-239"/>
<text text-anchor="middle" x="984.08" y="-227" font-family="Helvetica,sans-Serif" font-size="10.00">openssl/pem.h</text>
</a>
</g>
</g>
<!-- Node17&#45;&gt;Node42 -->
<g id="edge60" class="edge">
<title>Node17&#45;&gt;Node42</title>
<path fill="none" stroke="#63b8ff" d="M1238.91,-277.23C1179.99,-266.43 1093.66,-250.59 1038.16,-240.42"/>
<polygon fill="#63b8ff" stroke="#63b8ff" points="1038.64,-236.95 1028.17,-238.59 1037.38,-243.83 1038.64,-236.95"/>
</g>
<!-- Node43 -->
<g id="node43" class="node">
<title>Node43</title>
<g id="a_node43"><a xlink:title=" ">
<polygon fill="#e0e0e0" stroke="#999999" points="1126.08,-239 1046.08,-239 1046.08,-220 1126.08,-220 1126.08,-239"/>
<text text-anchor="middle" x="1086.08" y="-227" font-family="Helvetica,sans-Serif" font-size="10.00">openssl/ssl.h</text>
</a>
</g>
</g>
<!-- Node17&#45;&gt;Node43 -->
<g id="edge61" class="edge">
<title>Node17&#45;&gt;Node43</title>
<path fill="none" stroke="#63b8ff" d="M1251.11,-274.99C1213.33,-264.8 1162.88,-251.2 1127.74,-241.73"/>
<polygon fill="#63b8ff" stroke="#63b8ff" points="1128.38,-238.28 1117.81,-239.05 1126.56,-245.04 1128.38,-238.28"/>
</g>
<!-- Node44 -->
<g id="node44" class="node">
<title>Node44</title>
<g id="a_node44"><a xlink:title=" ">
<polygon fill="#e0e0e0" stroke="#999999" points="1234.08,-239 1144.08,-239 1144.08,-220 1234.08,-220 1234.08,-239"/>
<text text-anchor="middle" x="1189.08" y="-227" font-family="Helvetica,sans-Serif" font-size="10.00">openssl/x509.h</text>
</a>
</g>
</g>
<!-- Node17&#45;&gt;Node44 -->
<g id="edge62" class="edge">
<title>Node17&#45;&gt;Node44</title>
<path fill="none" stroke="#63b8ff" d="M1275.78,-274.99C1257.44,-265.58 1233.4,-253.24 1215.3,-243.95"/>
<polygon fill="#63b8ff" stroke="#63b8ff" points="1216.41,-240.59 1205.92,-239.14 1213.22,-246.82 1216.41,-240.59"/>
</g>
<!-- Node45 -->
<g id="node45" class="node">
<title>Node45</title>
<g id="a_node45"><a xlink:title=" ">
<polygon fill="#e0e0e0" stroke="#999999" points="1354.08,-239 1252.08,-239 1252.08,-220 1354.08,-220 1354.08,-239"/>
<text text-anchor="middle" x="1303.08" y="-227" font-family="Helvetica,sans-Serif" font-size="10.00">openssl/x509v3.h</text>
</a>
</g>
</g>
<!-- Node17&#45;&gt;Node45 -->
<g id="edge63" class="edge">
<title>Node17&#45;&gt;Node45</title>
<path fill="none" stroke="#63b8ff" d="M1303.08,-274.84C1303.08,-267.21 1303.08,-257.7 1303.08,-249.45"/>
<polygon fill="#63b8ff" stroke="#63b8ff" points="1306.58,-249.27 1303.08,-239.27 1299.58,-249.27 1306.58,-249.27"/>
</g>
<!-- Node19 -->
<g id="node19" class="node">
<title>Node19</title>
<g id="a_node19"><a xlink:href="json_8h.html" target="_top" xlink:title=" ">
<polygon fill="white" stroke="#666666" points="1411.58,-184 1334.58,-184 1334.58,-165 1411.58,-165 1411.58,-184"/>
<text text-anchor="middle" x="1373.08" y="-172" font-family="Helvetica,sans-Serif" font-size="10.00">ccf/ds/json.h</text>
</a>
</g>
</g>
<!-- Node18&#45;&gt;Node19 -->
<g id="edge20" class="edge">
<title>Node18&#45;&gt;Node19</title>
<path fill="none" stroke="#63b8ff" d="M1477.16,-219.98C1457.03,-211.38 1425.7,-197.99 1402.67,-188.15"/>
<polygon fill="#63b8ff" stroke="#63b8ff" points="1403.94,-184.88 1393.37,-184.17 1401.19,-191.32 1403.94,-184.88"/>
</g>
<!-- Node18&#45;&gt;Node22 -->
<g id="edge43" class="edge">
<title>Node18&#45;&gt;Node22</title>
<path fill="none" stroke="#63b8ff" d="M1489.19,-219.9C1481.27,-211.12 1468.87,-196.98 1459.08,-184 1417.48,-128.82 1373.87,-59.27 1354.46,-27.61"/>
<polygon fill="#63b8ff" stroke="#63b8ff" points="1357.43,-25.77 1349.24,-19.05 1351.46,-29.41 1357.43,-25.77"/>
</g>
<!-- Node28 -->
<g id="node28" class="node">
<title>Node28</title>
<g id="a_node28"><a xlink:title=" ">
<polygon fill="#e0e0e0" stroke="#999999" points="1668.58,-19 1595.58,-19 1595.58,0 1668.58,0 1668.58,-19"/>
<text text-anchor="middle" x="1632.08" y="-7" font-family="Helvetica,sans-Serif" font-size="10.00">string_view</text>
</a>
</g>
</g>
<!-- Node18&#45;&gt;Node28 -->
<g id="edge42" class="edge">
<title>Node18&#45;&gt;Node28</title>
<path fill="none" stroke="#63b8ff" d="M1541.27,-219.97C1589.56,-210.21 1661.15,-194.24 1669.08,-184 1704.18,-138.67 1688.57,-108.92 1669.08,-55 1665.14,-44.09 1657.22,-33.96 1649.72,-26.14"/>
<polygon fill="#63b8ff" stroke="#63b8ff" points="1652.13,-23.6 1642.52,-19.13 1647.25,-28.61 1652.13,-23.6"/>
</g>
<!-- Node29 -->
<g id="node29" class="node">
<title>Node29</title>
<g id="a_node29"><a xlink:title=" ">
<polygon fill="#e0e0e0" stroke="#999999" points="1518.08,-184 1468.08,-184 1468.08,-165 1518.08,-165 1518.08,-184"/>
<text text-anchor="middle" x="1493.08" y="-172" font-family="Helvetica,sans-Serif" font-size="10.00">cstring</text>
</a>
</g>
</g>
<!-- Node18&#45;&gt;Node29 -->
<g id="edge38" class="edge">
<title>Node18&#45;&gt;Node29</title>
<path fill="none" stroke="#63b8ff" d="M1496.42,-219.75C1495.9,-212.8 1495.15,-202.85 1494.49,-194.13"/>
<polygon fill="#63b8ff" stroke="#63b8ff" points="1497.97,-193.8 1493.73,-184.09 1490.99,-194.32 1497.97,-193.8"/>
</g>
<!-- Node30 -->
<g id="node30" class="node">
<title>Node30</title>
<g id="a_node30"><a xlink:title=" ">
<polygon fill="#e0e0e0" stroke="#999999" points="1601.58,-184 1536.58,-184 1536.58,-165 1601.58,-165 1601.58,-184"/>
<text text-anchor="middle" x="1569.08" y="-172" font-family="Helvetica,sans-Serif" font-size="10.00">exception</text>
</a>
</g>
</g>
<!-- Node18&#45;&gt;Node30 -->
<g id="edge39" class="edge">
<title>Node18&#45;&gt;Node30</title>
<path fill="none" stroke="#63b8ff" d="M1508.65,-219.98C1519.5,-212 1535.96,-199.88 1548.97,-190.31"/>
<polygon fill="#63b8ff" stroke="#63b8ff" points="1551.33,-192.92 1557.3,-184.17 1547.18,-187.28 1551.33,-192.92"/>
</g>
<!-- Node18&#45;&gt;Node31 -->
<g id="edge40" class="edge">
<title>Node18&#45;&gt;Node31</title>
<path fill="none" stroke="#63b8ff" d="M1536.93,-219.98C1583.39,-210.06 1659.7,-193.75 1705.88,-183.88"/>
<polygon fill="#63b8ff" stroke="#63b8ff" points="1706.77,-187.27 1715.82,-181.75 1705.31,-180.42 1706.77,-187.27"/>
</g>
<!-- Node32 -->
<g id="node32" class="node">
<title>Node32</title>
<g id="a_node32"><a xlink:title=" ">
<polygon fill="#e0e0e0" stroke="#999999" points="1660.08,-184 1620.08,-184 1620.08,-165 1660.08,-165 1660.08,-184"/>
<text text-anchor="middle" x="1640.08" y="-172" font-family="Helvetica,sans-Serif" font-size="10.00">span</text>
</a>
</g>
</g>
<!-- Node18&#45;&gt;Node32 -->
<g id="edge41" class="edge">
<title>Node18&#45;&gt;Node32</title>
<path fill="none" stroke="#63b8ff" d="M1520.06,-219.98C1544.56,-210.9 1583.46,-196.49 1610.3,-186.54"/>
<polygon fill="#63b8ff" stroke="#63b8ff" points="1611.78,-189.72 1619.94,-182.97 1609.34,-183.16 1611.78,-189.72"/>
</g>
<!-- Node19&#45;&gt;Node4 -->
<g id="edge36" class="edge">
<title>Node19&#45;&gt;Node4</title>
<path fill="none" stroke="#63b8ff" d="M1344.53,-164.94C1317.91,-156.67 1277.3,-143.33 1243.08,-129 1225.67,-121.7 1223.27,-115.07 1205.08,-110 1015.86,-57.24 957.2,-97.7 757.83,-73.94"/>
<polygon fill="#63b8ff" stroke="#63b8ff" points="757.97,-70.43 747.62,-72.68 757.11,-77.37 757.97,-70.43"/>
</g>
<!-- Node19&#45;&gt;Node15 -->
<g id="edge37" class="edge">
<title>Node19&#45;&gt;Node15</title>
<path fill="none" stroke="#63b8ff" d="M1334.3,-169.3C1242.6,-159.36 1013.31,-134.51 922.24,-124.64"/>
<polygon fill="#63b8ff" stroke="#63b8ff" points="922.41,-121.13 912.09,-123.54 921.65,-128.09 922.41,-121.13"/>
</g>
<!-- Node20 -->
<g id="node20" class="node">
<title>Node20</title>
<g id="a_node20"><a xlink:href="include_2ccf_2crypto_2base64_8h.html" target="_top" xlink:title=" ">
<polygon fill="white" stroke="#666666" points="1660.08,-74 1548.08,-74 1548.08,-55 1660.08,-55 1660.08,-74"/>
<text text-anchor="middle" x="1604.08" y="-62" font-family="Helvetica,sans-Serif" font-size="10.00">ccf/crypto/base64.h</text>
</a>
</g>
</g>
<!-- Node19&#45;&gt;Node20 -->
<g id="edge21" class="edge">
<title>Node19&#45;&gt;Node20</title>
<path fill="none" stroke="#63b8ff" d="M1391.6,-164.84C1432.16,-145.88 1529.05,-100.58 1576.69,-78.31"/>
<polygon fill="#63b8ff" stroke="#63b8ff" points="1578.23,-81.45 1585.8,-74.05 1575.26,-75.11 1578.23,-81.45"/>
</g>
<!-- Node23 -->
<g id="node23" class="node">
<title>Node23</title>
<g id="a_node23"><a xlink:href="include_2ccf_2ds_2json__schema_8h.html" target="_top" xlink:title=" ">
<polygon fill="white" stroke="#666666" points="1373.58,-129 1252.58,-129 1252.58,-110 1373.58,-110 1373.58,-129"/>
<text text-anchor="middle" x="1313.08" y="-117" font-family="Helvetica,sans-Serif" font-size="10.00">ccf/ds/json_schema.h</text>
</a>
</g>
</g>
<!-- Node19&#45;&gt;Node23 -->
<g id="edge24" class="edge">
<title>Node19&#45;&gt;Node23</title>
<path fill="none" stroke="#63b8ff" d="M1363.44,-164.98C1354.57,-157.15 1341.21,-145.34 1330.47,-135.86"/>
<polygon fill="#63b8ff" stroke="#63b8ff" points="1332.71,-133.17 1322.9,-129.17 1328.08,-138.41 1332.71,-133.17"/>
</g>
<!-- Node20&#45;&gt;Node21 -->
<g id="edge22" class="edge">
<title>Node20&#45;&gt;Node21</title>
<path fill="none" stroke="#63b8ff" d="M1620.95,-54.98C1637.69,-46.54 1663.58,-33.47 1682.97,-23.68"/>
<polygon fill="#63b8ff" stroke="#63b8ff" points="1684.56,-26.8 1691.91,-19.17 1681.4,-20.55 1684.56,-26.8"/>
</g>
<!-- Node20&#45;&gt;Node22 -->
<g id="edge23" class="edge">
<title>Node20&#45;&gt;Node22</title>
<path fill="none" stroke="#63b8ff" d="M1555.4,-54.97C1511.27,-47.02 1444.24,-34.41 1377.63,-19.25"/>
<polygon fill="#63b8ff" stroke="#63b8ff" points="1378.33,-15.82 1367.8,-16.99 1376.77,-22.64 1378.33,-15.82"/>
</g>
<!-- Node23&#45;&gt;Node4 -->
<g id="edge34" class="edge">
<title>Node23&#45;&gt;Node4</title>
<path fill="none" stroke="#63b8ff" d="M1252.52,-111.44C1247.64,-110.93 1242.78,-110.44 1238.08,-110 1027.88,-90.23 971.53,-100.04 757.59,-73.93"/>
<polygon fill="#63b8ff" stroke="#63b8ff" points="757.97,-70.45 747.61,-72.7 757.11,-77.39 757.97,-70.45"/>
</g>
<!-- Node23&#45;&gt;Node13 -->
<g id="edge35" class="edge">
<title>Node23&#45;&gt;Node13</title>
<path fill="none" stroke="#63b8ff" d="M1252.51,-111.58C1247.63,-111.04 1242.77,-110.5 1238.08,-110 1084.5,-93.47 1043.38,-92.42 886.25,-74.11"/>
<polygon fill="#63b8ff" stroke="#63b8ff" points="886.57,-70.62 876.23,-72.93 885.75,-77.57 886.57,-70.62"/>
</g>
<!-- Node23&#45;&gt;Node14 -->
<g id="edge33" class="edge">
<title>Node23&#45;&gt;Node14</title>
<path fill="none" stroke="#63b8ff" d="M1252.42,-110.28C1170.97,-99.24 1028.66,-79.95 960.55,-70.71"/>
<polygon fill="#63b8ff" stroke="#63b8ff" points="960.65,-67.2 950.27,-69.32 959.71,-74.13 960.65,-67.2"/>
</g>
<!-- Node24 -->
<g id="node24" class="node">
<title>Node24</title>
<g id="a_node24"><a xlink:href="nonstd_8h.html" target="_top" xlink:title=" ">
<polygon fill="white" stroke="#666666" points="1530.08,-74 1440.08,-74 1440.08,-55 1530.08,-55 1530.08,-74"/>
<text text-anchor="middle" x="1485.08" y="-62" font-family="Helvetica,sans-Serif" font-size="10.00">ccf/ds/nonstd.h</text>
</a>
</g>
</g>
<!-- Node23&#45;&gt;Node24 -->
<g id="edge25" class="edge">
<title>Node23&#45;&gt;Node24</title>
<path fill="none" stroke="#63b8ff" d="M1340.72,-109.98C1369.59,-101.09 1415.09,-87.07 1447.28,-77.15"/>
<polygon fill="#63b8ff" stroke="#63b8ff" points="1448.71,-80.37 1457.23,-74.08 1446.64,-73.68 1448.71,-80.37"/>
</g>
<!-- Node24&#45;&gt;Node16 -->
<g id="edge31" class="edge">
<title>Node24&#45;&gt;Node16</title>
<path fill="none" stroke="#63b8ff" d="M1440.07,-59.73C1323.54,-49.97 1013.05,-23.98 896.83,-14.25"/>
<polygon fill="#63b8ff" stroke="#63b8ff" points="897.1,-10.76 886.85,-13.41 896.52,-17.73 897.1,-10.76"/>
</g>
<!-- Node24&#45;&gt;Node21 -->
<g id="edge29" class="edge">
<title>Node24&#45;&gt;Node21</title>
<path fill="none" stroke="#63b8ff" d="M1524.38,-54.94C1561.4,-46.76 1618.63,-33.83 1677,-19.2"/>
<polygon fill="#63b8ff" stroke="#63b8ff" points="1677.92,-22.58 1686.76,-16.74 1676.21,-15.79 1677.92,-22.58"/>
</g>
<!-- Node24&#45;&gt;Node22 -->
<g id="edge32" class="edge">
<title>Node24&#45;&gt;Node22</title>
<path fill="none" stroke="#63b8ff" d="M1462.43,-54.98C1439.23,-46.27 1402.96,-32.63 1376.68,-22.75"/>
<polygon fill="#63b8ff" stroke="#63b8ff" points="1377.74,-19.41 1367.15,-19.17 1375.28,-25.97 1377.74,-19.41"/>
</g>
<!-- Node25 -->
<g id="node25" class="node">
<title>Node25</title>
<g id="a_node25"><a xlink:title=" ">
<polygon fill="#e0e0e0" stroke="#999999" points="1517.08,-19 1453.08,-19 1453.08,0 1517.08,0 1517.08,-19"/>
<text text-anchor="middle" x="1485.08" y="-7" font-family="Helvetica,sans-Serif" font-size="10.00">algorithm</text>
</a>
</g>
</g>
<!-- Node24&#45;&gt;Node25 -->
<g id="edge26" class="edge">
<title>Node24&#45;&gt;Node25</title>
<path fill="none" stroke="#63b8ff" d="M1485.08,-54.75C1485.08,-47.8 1485.08,-37.85 1485.08,-29.13"/>
<polygon fill="#63b8ff" stroke="#63b8ff" points="1488.58,-29.09 1485.08,-19.09 1481.58,-29.09 1488.58,-29.09"/>
</g>
<!-- Node26 -->
<g id="node26" class="node">
<title>Node26</title>
<g id="a_node26"><a xlink:title=" ">
<polygon fill="#e0e0e0" stroke="#999999" points="1577.08,-19 1535.08,-19 1535.08,0 1577.08,0 1577.08,-19"/>
<text text-anchor="middle" x="1556.08" y="-7" font-family="Helvetica,sans-Serif" font-size="10.00">array</text>
</a>
</g>
</g>
<!-- Node24&#45;&gt;Node26 -->
<g id="edge27" class="edge">
<title>Node24&#45;&gt;Node26</title>
<path fill="none" stroke="#63b8ff" d="M1496.49,-54.98C1507.19,-47 1523.42,-34.88 1536.25,-25.31"/>
<polygon fill="#63b8ff" stroke="#63b8ff" points="1538.55,-27.96 1544.47,-19.17 1534.36,-22.35 1538.55,-27.96"/>
</g>
<!-- Node27 -->
<g id="node27" class="node">
<title>Node27</title>
<g id="a_node27"><a xlink:title=" ">
<polygon fill="#e0e0e0" stroke="#999999" points="1434.58,-19 1385.58,-19 1385.58,0 1434.58,0 1434.58,-19"/>
<text text-anchor="middle" x="1410.08" y="-7" font-family="Helvetica,sans-Serif" font-size="10.00">cctype</text>
</a>
</g>
</g>
<!-- Node24&#45;&gt;Node27 -->
<g id="edge28" class="edge">
<title>Node24&#45;&gt;Node27</title>
<path fill="none" stroke="#63b8ff" d="M1473.03,-54.98C1461.62,-46.92 1444.25,-34.65 1430.65,-25.03"/>
<polygon fill="#63b8ff" stroke="#63b8ff" points="1432.54,-22.08 1422.35,-19.17 1428.5,-27.8 1432.54,-22.08"/>
</g>
<!-- Node24&#45;&gt;Node28 -->
<g id="edge30" class="edge">
<title>Node24&#45;&gt;Node28</title>
<path fill="none" stroke="#63b8ff" d="M1508.7,-54.98C1532.99,-46.23 1571.03,-32.51 1598.46,-22.62"/>
<polygon fill="#63b8ff" stroke="#63b8ff" points="1599.81,-25.85 1608.03,-19.17 1597.44,-19.27 1599.81,-25.85"/>
</g>
<!-- Node34&#45;&gt;Node4 -->
<g id="edge48" class="edge">
<title>Node34&#45;&gt;Node4</title>
<path fill="none" stroke="#63b8ff" d="M997.02,-164.56C982.37,-150.64 951.98,-123.94 921.08,-110 906.34,-103.35 816.04,-85.69 757.84,-74.72"/>
<polygon fill="#63b8ff" stroke="#63b8ff" points="758.2,-71.23 747.73,-72.82 756.91,-78.11 758.2,-71.23"/>
</g>
<!-- Node34&#45;&gt;Node11 -->
<g id="edge47" class="edge">
<title>Node34&#45;&gt;Node11</title>
<path fill="none" stroke="#63b8ff" d="M966.56,-164.98C923.92,-155.8 855.93,-141.15 809.72,-131.19"/>
<polygon fill="#63b8ff" stroke="#63b8ff" points="810.43,-127.77 799.92,-129.08 808.95,-134.61 810.43,-127.77"/>
</g>
<!-- Node34&#45;&gt;Node15 -->
<g id="edge50" class="edge">
<title>Node34&#45;&gt;Node15</title>
<path fill="none" stroke="#63b8ff" d="M986.48,-164.98C966.77,-156.42 936.13,-143.11 913.5,-133.28"/>
<polygon fill="#63b8ff" stroke="#63b8ff" points="914.61,-129.94 904.04,-129.17 911.82,-136.37 914.61,-129.94"/>
</g>
<!-- Node34&#45;&gt;Node22 -->
<g id="edge52" class="edge">
<title>Node34&#45;&gt;Node22</title>
<path fill="none" stroke="#63b8ff" d="M1001.2,-164.71C994.58,-151.45 984.89,-126.18 997.08,-110 1035.34,-59.23 1230.92,-26.43 1310.42,-15.01"/>
<polygon fill="#63b8ff" stroke="#63b8ff" points="1310.98,-18.47 1320.4,-13.61 1310.01,-11.54 1310.98,-18.47"/>
</g>
<!-- Node34&#45;&gt;Node33 -->
<g id="edge46" class="edge">
<title>Node34&#45;&gt;Node33</title>
<path fill="none" stroke="#63b8ff" d="M1032.59,-164.98C1060.79,-155.93 1105.5,-141.57 1136.46,-131.62"/>
<polygon fill="#63b8ff" stroke="#63b8ff" points="1137.54,-134.95 1145.99,-128.56 1135.4,-128.29 1137.54,-134.95"/>
</g>
<!-- Node35 -->
<g id="node35" class="node">
<title>Node35</title>
<g id="a_node35"><a xlink:title=" ">
<polygon fill="#e0e0e0" stroke="#999999" points="1062.08,-129 1006.08,-129 1006.08,-110 1062.08,-110 1062.08,-129"/>
<text text-anchor="middle" x="1034.08" y="-117" font-family="Helvetica,sans-Serif" font-size="10.00">iomanip</text>
</a>
</g>
</g>
<!-- Node34&#45;&gt;Node35 -->
<g id="edge49" class="edge">
<title>Node34&#45;&gt;Node35</title>
<path fill="none" stroke="#63b8ff" d="M1010.71,-164.75C1014.54,-157.49 1020.11,-146.95 1024.85,-137.98"/>
<polygon fill="#63b8ff" stroke="#63b8ff" points="1027.97,-139.57 1029.54,-129.09 1021.78,-136.3 1027.97,-139.57"/>
</g>
<!-- Node36 -->
<g id="node36" class="node">
<title>Node36</title>
<g id="a_node36"><a xlink:title=" ">
<polygon fill="#e0e0e0" stroke="#999999" points="1128.08,-129 1080.08,-129 1080.08,-110 1128.08,-110 1128.08,-129"/>
<text text-anchor="middle" x="1104.08" y="-117" font-family="Helvetica,sans-Serif" font-size="10.00">time.h</text>
</a>
</g>
</g>
<!-- Node34&#45;&gt;Node36 -->
<g id="edge51" class="edge">
<title>Node34&#45;&gt;Node36</title>
<path fill="none" stroke="#63b8ff" d="M1021.83,-164.98C1037.31,-156.61 1061.18,-143.7 1079.22,-133.95"/>
<polygon fill="#63b8ff" stroke="#63b8ff" points="1080.92,-137.01 1088.05,-129.17 1077.59,-130.85 1080.92,-137.01"/>
</g>
</g>
</svg>
