<?xml version="1.0" encoding="UTF-8" standalone="no"?>
<!DOCTYPE svg PUBLIC "-//W3C//DTD SVG 1.1//EN"
 "http://www.w3.org/Graphics/SVG/1.1/DTD/svg11.dtd">
<!-- Generated by graphviz version 2.43.0 (0)
 -->
<!-- Title: src/host/enclave.h Pages: 1 -->
<!--zoomable 467 -->
<svg id="main" version="1.1" xmlns="http://www.w3.org/2000/svg" xmlns:xlink="http://www.w3.org/1999/xlink" xml:space="preserve" onload="init(evt)">
<style type="text/css"><![CDATA[
.edge:hover path { stroke: red; }
.edge:hover polygon { stroke: red; fill: red; }
]]></style>
<script type="text/javascript"><![CDATA[
var edges = document.getElementsByTagName('g');
if (edges && edges.length) {
  for (var i=0;i<edges.length;i++) {
    if (edges[i].id.substr(0,4)=='edge') {
      edges[i].setAttribute('class','edge');
    }
  }
}
]]></script>
        <defs>
                <circle id="rim" cx="0" cy="0" r="7"/>
                <circle id="rim2" cx="0" cy="0" r="3.5"/>
                <g id="zoomPlus">
                        <use xlink:href="#rim" fill="#404040">
                                <set attributeName="fill" to="#808080" begin="zoomplus.mouseover" end="zoomplus.mouseout"/>
                        </use>
                        <path d="M-4,0h8M0,-4v8" fill="none" stroke="white" stroke-width="1.5" pointer-events="none"/>
                </g>
                <g id="zoomMin">
                        <use xlink:href="#rim" fill="#404040">
                                <set attributeName="fill" to="#808080" begin="zoomminus.mouseover" end="zoomminus.mouseout"/>
                        </use>
                        <path d="M-4,0h8" fill="none" stroke="white" stroke-width="1.5" pointer-events="none"/>
                </g>
                <g id="dirArrow">
                        <path fill="none" stroke="white" stroke-width="1.5" d="M0,-3.0v7 M-2.5,-0.5L0,-3.0L2.5,-0.5"/>
                </g>
               <g id="resetDef">
                       <use xlink:href="#rim2" fill="#404040">
                               <set attributeName="fill" to="#808080" begin="reset.mouseover" end="reset.mouseout"/>
                       </use>
               </g>
        </defs>

<script type="text/javascript">
var viewWidth = 1907;
var viewHeight = 467;
var sectionId = 'dynsection-0';
</script>
<script xlink:href="svgpan.js"/>
<svg id="graph" class="graph">
<g id="viewport">
<title>src/host/enclave.h</title>
<!-- Node1 -->
<g id="node1" class="node">
<title>Node1</title>
<g id="a_node1"><a xlink:title=" ">
<polygon fill="#999999" stroke="#666666" points="1495,-459 1390,-459 1390,-440 1495,-440 1495,-459"/>
<text text-anchor="middle" x="1442.5" y="-447" font-family="Helvetica,sans-Serif" font-size="10.00">src/host/enclave.h</text>
</a>
</g>
</g>
<!-- Node2 -->
<g id="node2" class="node">
<title>Node2</title>
<g id="a_node2"><a xlink:href="logger_8h.html" target="_top" xlink:title=" ">
<polygon fill="white" stroke="#666666" points="1435,-239 1348,-239 1348,-220 1435,-220 1435,-239"/>
<text text-anchor="middle" x="1391.5" y="-227" font-family="Helvetica,sans-Serif" font-size="10.00">ccf/ds/logger.h</text>
</a>
</g>
</g>
<!-- Node1&#45;&gt;Node2 -->
<g id="edge1" class="edge">
<title>Node1&#45;&gt;Node2</title>
<path fill="none" stroke="#63b8ff" d="M1428.2,-439.93C1416.74,-432.17 1401.45,-419.56 1394.5,-404 1371.3,-352.09 1380.68,-282.41 1387.21,-249.38"/>
<polygon fill="#63b8ff" stroke="#63b8ff" points="1390.69,-249.83 1389.34,-239.32 1383.84,-248.38 1390.69,-249.83"/>
</g>
<!-- Node17 -->
<g id="node17" class="node">
<title>Node17</title>
<g id="a_node17"><a xlink:title=" ">
<polygon fill="#e0e0e0" stroke="#999999" points="1482,-404 1403,-404 1403,-385 1482,-385 1482,-404"/>
<text text-anchor="middle" x="1442.5" y="-392" font-family="Helvetica,sans-Serif" font-size="10.00">ccf/version.h</text>
</a>
</g>
</g>
<!-- Node1&#45;&gt;Node17 -->
<g id="edge18" class="edge">
<title>Node1&#45;&gt;Node17</title>
<path fill="none" stroke="#63b8ff" d="M1442.5,-439.75C1442.5,-432.8 1442.5,-422.85 1442.5,-414.13"/>
<polygon fill="#63b8ff" stroke="#63b8ff" points="1446,-414.09 1442.5,-404.09 1439,-414.09 1446,-414.09"/>
</g>
<!-- Node18 -->
<g id="node18" class="node">
<title>Node18</title>
<g id="a_node18"><a xlink:href="interface_8h.html" target="_top" xlink:title=" ">
<polygon fill="white" stroke="#666666" points="890.5,-404 780.5,-404 780.5,-385 890.5,-385 890.5,-404"/>
<text text-anchor="middle" x="835.5" y="-392" font-family="Helvetica,sans-Serif" font-size="10.00">enclave/interface.h</text>
</a>
</g>
</g>
<!-- Node1&#45;&gt;Node18 -->
<g id="edge19" class="edge">
<title>Node1&#45;&gt;Node18</title>
<path fill="none" stroke="#63b8ff" d="M1389.96,-443.91C1279.28,-434.25 1022.38,-411.82 901.11,-401.23"/>
<polygon fill="#63b8ff" stroke="#63b8ff" points="901.13,-397.72 890.86,-400.33 900.52,-404.69 901.13,-397.72"/>
</g>
<!-- Node49 -->
<g id="node49" class="node">
<title>Node49</title>
<g id="a_node49"><a xlink:title=" ">
<polygon fill="#e0e0e0" stroke="#999999" points="1550.5,-404 1500.5,-404 1500.5,-385 1550.5,-385 1550.5,-404"/>
<text text-anchor="middle" x="1525.5" y="-392" font-family="Helvetica,sans-Serif" font-size="10.00">dlfcn.h</text>
</a>
</g>
</g>
<!-- Node1&#45;&gt;Node49 -->
<g id="edge78" class="edge">
<title>Node1&#45;&gt;Node49</title>
<path fill="none" stroke="#63b8ff" d="M1455.84,-439.98C1468.59,-431.84 1488.05,-419.41 1503.17,-409.76"/>
<polygon fill="#63b8ff" stroke="#63b8ff" points="1505.38,-412.5 1511.92,-404.17 1501.61,-406.6 1505.38,-412.5"/>
</g>
<!-- Node50 -->
<g id="node50" class="node">
<title>Node50</title>
<g id="a_node50"><a xlink:title=" ">
<polygon fill="#e0e0e0" stroke="#999999" points="1636.5,-404 1568.5,-404 1568.5,-385 1636.5,-385 1636.5,-404"/>
<text text-anchor="middle" x="1602.5" y="-392" font-family="Helvetica,sans-Serif" font-size="10.00">filesystem</text>
</a>
</g>
</g>
<!-- Node1&#45;&gt;Node50 -->
<g id="edge79" class="edge">
<title>Node1&#45;&gt;Node50</title>
<path fill="none" stroke="#63b8ff" d="M1468.21,-439.98C1494.95,-431.13 1537.03,-417.19 1566.95,-407.28"/>
<polygon fill="#63b8ff" stroke="#63b8ff" points="1568.2,-410.55 1576.59,-404.08 1566,-403.9 1568.2,-410.55"/>
</g>
<!-- Node3 -->
<g id="node3" class="node">
<title>Node3</title>
<g id="a_node3"><a xlink:href="enum__formatter_8h.html" target="_top" xlink:title=" ">
<polygon fill="white" stroke="#666666" points="1898.5,-184 1762.5,-184 1762.5,-165 1898.5,-165 1898.5,-184"/>
<text text-anchor="middle" x="1830.5" y="-172" font-family="Helvetica,sans-Serif" font-size="10.00">ccf/ds/enum_formatter.h</text>
</a>
</g>
</g>
<!-- Node2&#45;&gt;Node3 -->
<g id="edge2" class="edge">
<title>Node2&#45;&gt;Node3</title>
<path fill="none" stroke="#63b8ff" d="M1435.2,-223.22C1509.09,-214.3 1659.7,-196.12 1752.2,-184.95"/>
<polygon fill="#63b8ff" stroke="#63b8ff" points="1752.84,-188.4 1762.35,-183.73 1752,-181.45 1752.84,-188.4"/>
</g>
<!-- Node4 -->
<g id="node4" class="node">
<title>Node4</title>
<g id="a_node4"><a xlink:title=" ">
<polygon fill="#e0e0e0" stroke="#999999" points="1542,-129 1463,-129 1463,-110 1542,-110 1542,-129"/>
<text text-anchor="middle" x="1502.5" y="-117" font-family="Helvetica,sans-Serif" font-size="10.00">fmt/format.h</text>
</a>
</g>
</g>
<!-- Node2&#45;&gt;Node4 -->
<g id="edge12" class="edge">
<title>Node2&#45;&gt;Node4</title>
<path fill="none" stroke="#63b8ff" d="M1385.7,-219.86C1377.73,-206.8 1365.66,-181.79 1377.5,-165 1386.79,-151.84 1423.24,-139.77 1454.4,-131.54"/>
<polygon fill="#63b8ff" stroke="#63b8ff" points="1455.47,-134.88 1464.29,-129 1453.73,-128.1 1455.47,-134.88"/>
</g>
<!-- Node5 -->
<g id="node5" class="node">
<title>Node5</title>
<g id="a_node5"><a xlink:href="thread__ids_8h.html" target="_top" xlink:title=" ">
<polygon fill="white" stroke="#666666" points="1291.5,-184 1183.5,-184 1183.5,-165 1291.5,-165 1291.5,-184"/>
<text text-anchor="middle" x="1237.5" y="-172" font-family="Helvetica,sans-Serif" font-size="10.00">ccf/ds/thread_ids.h</text>
</a>
</g>
</g>
<!-- Node2&#45;&gt;Node5 -->
<g id="edge4" class="edge">
<title>Node2&#45;&gt;Node5</title>
<path fill="none" stroke="#63b8ff" d="M1366.76,-219.98C1341.13,-211.16 1300.87,-197.31 1272.09,-187.41"/>
<polygon fill="#63b8ff" stroke="#63b8ff" points="1273.03,-184.03 1262.44,-184.08 1270.75,-190.65 1273.03,-184.03"/>
</g>
<!-- Node11 -->
<g id="node11" class="node">
<title>Node11</title>
<g id="a_node11"><a xlink:title=" ">
<polygon fill="#e0e0e0" stroke="#999999" points="1465,-184 1386,-184 1386,-165 1465,-165 1465,-184"/>
<text text-anchor="middle" x="1425.5" y="-172" font-family="Helvetica,sans-Serif" font-size="10.00">fmt/chrono.h</text>
</a>
</g>
</g>
<!-- Node2&#45;&gt;Node11 -->
<g id="edge11" class="edge">
<title>Node2&#45;&gt;Node11</title>
<path fill="none" stroke="#63b8ff" d="M1397.11,-219.75C1401.82,-212.42 1408.67,-201.73 1414.47,-192.7"/>
<polygon fill="#63b8ff" stroke="#63b8ff" points="1417.54,-194.4 1419.99,-184.09 1411.64,-190.62 1417.54,-194.4"/>
</g>
<!-- Node12 -->
<g id="node12" class="node">
<title>Node12</title>
<g id="a_node12"><a xlink:title=" ">
<polygon fill="#e0e0e0" stroke="#999999" points="1542.5,-184 1482.5,-184 1482.5,-165 1542.5,-165 1542.5,-184"/>
<text text-anchor="middle" x="1512.5" y="-172" font-family="Helvetica,sans-Serif" font-size="10.00">iostream</text>
</a>
</g>
</g>
<!-- Node2&#45;&gt;Node12 -->
<g id="edge13" class="edge">
<title>Node2&#45;&gt;Node12</title>
<path fill="none" stroke="#63b8ff" d="M1410.94,-219.98C1430.49,-211.42 1460.88,-198.11 1483.32,-188.28"/>
<polygon fill="#63b8ff" stroke="#63b8ff" points="1484.95,-191.39 1492.71,-184.17 1482.14,-184.98 1484.95,-191.39"/>
</g>
<!-- Node13 -->
<g id="node13" class="node">
<title>Node13</title>
<g id="a_node13"><a xlink:title=" ">
<polygon fill="#e0e0e0" stroke="#999999" points="1670.5,-184 1560.5,-184 1560.5,-165 1670.5,-165 1670.5,-184"/>
<text text-anchor="middle" x="1615.5" y="-172" font-family="Helvetica,sans-Serif" font-size="10.00">nlohmann/json.hpp</text>
</a>
</g>
</g>
<!-- Node2&#45;&gt;Node13 -->
<g id="edge14" class="edge">
<title>Node2&#45;&gt;Node13</title>
<path fill="none" stroke="#63b8ff" d="M1427.49,-219.98C1465.99,-210.87 1527.19,-196.4 1569.24,-186.45"/>
<polygon fill="#63b8ff" stroke="#63b8ff" points="1570.3,-189.79 1579.23,-184.08 1568.69,-182.98 1570.3,-189.79"/>
</g>
<!-- Node14 -->
<g id="node14" class="node">
<title>Node14</title>
<g id="a_node14"><a xlink:title=" ">
<polygon fill="#e0e0e0" stroke="#999999" points="929.5,-129 873.5,-129 873.5,-110 929.5,-110 929.5,-129"/>
<text text-anchor="middle" x="901.5" y="-117" font-family="Helvetica,sans-Serif" font-size="10.00">optional</text>
</a>
</g>
</g>
<!-- Node2&#45;&gt;Node14 -->
<g id="edge15" class="edge">
<title>Node2&#45;&gt;Node14</title>
<path fill="none" stroke="#63b8ff" d="M1347.98,-227.1C1255.34,-223.6 1041.68,-212.59 975.5,-184 951.11,-173.46 928.82,-151.98 915.21,-136.93"/>
<polygon fill="#63b8ff" stroke="#63b8ff" points="917.8,-134.58 908.59,-129.35 912.53,-139.18 917.8,-134.58"/>
</g>
<!-- Node15 -->
<g id="node15" class="node">
<title>Node15</title>
<g id="a_node15"><a xlink:title=" ">
<polygon fill="#e0e0e0" stroke="#999999" points="1744.5,-184 1688.5,-184 1688.5,-165 1744.5,-165 1744.5,-184"/>
<text text-anchor="middle" x="1716.5" y="-172" font-family="Helvetica,sans-Serif" font-size="10.00">sstream</text>
</a>
</g>
</g>
<!-- Node2&#45;&gt;Node15 -->
<g id="edge16" class="edge">
<title>Node2&#45;&gt;Node15</title>
<path fill="none" stroke="#63b8ff" d="M1435.09,-222.77C1489.66,-215.37 1586.2,-201.55 1678.22,-184.13"/>
<polygon fill="#63b8ff" stroke="#63b8ff" points="1679.1,-187.52 1688.26,-182.21 1677.78,-180.65 1679.1,-187.52"/>
</g>
<!-- Node16 -->
<g id="node16" class="node">
<title>Node16</title>
<g id="a_node16"><a xlink:title=" ">
<polygon fill="#e0e0e0" stroke="#999999" points="69,-19 0,-19 0,0 69,0 69,-19"/>
<text text-anchor="middle" x="34.5" y="-7" font-family="Helvetica,sans-Serif" font-size="10.00">type_traits</text>
</a>
</g>
</g>
<!-- Node2&#45;&gt;Node16 -->
<g id="edge17" class="edge">
<title>Node2&#45;&gt;Node16</title>
<path fill="none" stroke="#63b8ff" d="M1347.77,-227.45C1222.44,-224.17 851.29,-212.59 544.5,-184 361.44,-166.94 303.87,-200.54 134.5,-129 98.05,-113.6 89.17,-104.94 64.5,-74 53.58,-60.31 45.47,-42 40.46,-28.55"/>
<polygon fill="#63b8ff" stroke="#63b8ff" points="43.72,-27.28 37.1,-19 37.11,-29.6 43.72,-27.28"/>
</g>
<!-- Node3&#45;&gt;Node4 -->
<g id="edge3" class="edge">
<title>Node3&#45;&gt;Node4</title>
<path fill="none" stroke="#63b8ff" d="M1777.8,-164.98C1715.66,-154.94 1613.15,-138.38 1552.3,-128.55"/>
<polygon fill="#63b8ff" stroke="#63b8ff" points="1552.6,-125.05 1542.17,-126.91 1551.49,-131.96 1552.6,-125.05"/>
</g>
<!-- Node5&#45;&gt;Node4 -->
<g id="edge5" class="edge">
<title>Node5&#45;&gt;Node4</title>
<path fill="none" stroke="#63b8ff" d="M1280.08,-164.98C1327.16,-155.57 1402.93,-140.41 1452.73,-130.45"/>
<polygon fill="#63b8ff" stroke="#63b8ff" points="1453.51,-133.87 1462.63,-128.47 1452.14,-127 1453.51,-133.87"/>
</g>
<!-- Node6 -->
<g id="node6" class="node">
<title>Node6</title>
<g id="a_node6"><a xlink:title=" ">
<polygon fill="#e0e0e0" stroke="#999999" points="1365.5,-129 1279.5,-129 1279.5,-110 1365.5,-110 1365.5,-129"/>
<text text-anchor="middle" x="1322.5" y="-117" font-family="Helvetica,sans-Serif" font-size="10.00">fmt/ostream.h</text>
</a>
</g>
</g>
<!-- Node5&#45;&gt;Node6 -->
<g id="edge6" class="edge">
<title>Node5&#45;&gt;Node6</title>
<path fill="none" stroke="#63b8ff" d="M1251.16,-164.98C1264.34,-156.77 1284.53,-144.18 1300.07,-134.49"/>
<polygon fill="#63b8ff" stroke="#63b8ff" points="1301.96,-137.43 1308.59,-129.17 1298.26,-131.49 1301.96,-137.43"/>
</g>
<!-- Node7 -->
<g id="node7" class="node">
<title>Node7</title>
<g id="a_node7"><a xlink:title=" ">
<polygon fill="#e0e0e0" stroke="#999999" points="1445,-129 1384,-129 1384,-110 1445,-110 1445,-129"/>
<text text-anchor="middle" x="1414.5" y="-117" font-family="Helvetica,sans-Serif" font-size="10.00">fmt/std.h</text>
</a>
</g>
</g>
<!-- Node5&#45;&gt;Node7 -->
<g id="edge7" class="edge">
<title>Node5&#45;&gt;Node7</title>
<path fill="none" stroke="#63b8ff" d="M1265.94,-164.98C1295.78,-156.05 1342.88,-141.94 1376.03,-132.02"/>
<polygon fill="#63b8ff" stroke="#63b8ff" points="1377.26,-135.3 1385.84,-129.08 1375.26,-128.6 1377.26,-135.3"/>
</g>
<!-- Node8 -->
<g id="node8" class="node">
<title>Node8</title>
<g id="a_node8"><a xlink:title=" ">
<polygon fill="#e0e0e0" stroke="#999999" points="1101.5,-129 1057.5,-129 1057.5,-110 1101.5,-110 1101.5,-129"/>
<text text-anchor="middle" x="1079.5" y="-117" font-family="Helvetica,sans-Serif" font-size="10.00">limits</text>
</a>
</g>
</g>
<!-- Node5&#45;&gt;Node8 -->
<g id="edge8" class="edge">
<title>Node5&#45;&gt;Node8</title>
<path fill="none" stroke="#63b8ff" d="M1212.11,-164.98C1184.73,-155.8 1141.06,-141.15 1111.38,-131.19"/>
<polygon fill="#63b8ff" stroke="#63b8ff" points="1112.1,-127.74 1101.51,-127.88 1109.88,-134.38 1112.1,-127.74"/>
</g>
<!-- Node9 -->
<g id="node9" class="node">
<title>Node9</title>
<g id="a_node9"><a xlink:title=" ">
<polygon fill="#e0e0e0" stroke="#999999" points="1195.5,-129 1157.5,-129 1157.5,-110 1195.5,-110 1195.5,-129"/>
<text text-anchor="middle" x="1176.5" y="-117" font-family="Helvetica,sans-Serif" font-size="10.00">map</text>
</a>
</g>
</g>
<!-- Node5&#45;&gt;Node9 -->
<g id="edge9" class="edge">
<title>Node5&#45;&gt;Node9</title>
<path fill="none" stroke="#63b8ff" d="M1227.7,-164.98C1218.68,-157.15 1205.09,-145.34 1194.18,-135.86"/>
<polygon fill="#63b8ff" stroke="#63b8ff" points="1196.32,-133.09 1186.48,-129.17 1191.73,-138.37 1196.32,-133.09"/>
</g>
<!-- Node10 -->
<g id="node10" class="node">
<title>Node10</title>
<g id="a_node10"><a xlink:title=" ">
<polygon fill="#e0e0e0" stroke="#999999" points="1261.5,-129 1213.5,-129 1213.5,-110 1261.5,-110 1261.5,-129"/>
<text text-anchor="middle" x="1237.5" y="-117" font-family="Helvetica,sans-Serif" font-size="10.00">thread</text>
</a>
</g>
</g>
<!-- Node5&#45;&gt;Node10 -->
<g id="edge10" class="edge">
<title>Node5&#45;&gt;Node10</title>
<path fill="none" stroke="#63b8ff" d="M1237.5,-164.75C1237.5,-157.8 1237.5,-147.85 1237.5,-139.13"/>
<polygon fill="#63b8ff" stroke="#63b8ff" points="1241,-139.09 1237.5,-129.09 1234,-139.09 1241,-139.09"/>
</g>
<!-- Node19 -->
<g id="node19" class="node">
<title>Node19</title>
<g id="a_node19"><a xlink:href="oversized_8h.html" target="_top" xlink:title=" ">
<polygon fill="white" stroke="#666666" points="879,-349 792,-349 792,-330 879,-330 879,-349"/>
<text text-anchor="middle" x="835.5" y="-337" font-family="Helvetica,sans-Serif" font-size="10.00">ds/oversized.h</text>
</a>
</g>
</g>
<!-- Node18&#45;&gt;Node19 -->
<g id="edge20" class="edge">
<title>Node18&#45;&gt;Node19</title>
<path fill="none" stroke="#63b8ff" d="M835.5,-384.75C835.5,-377.8 835.5,-367.85 835.5,-359.13"/>
<polygon fill="#63b8ff" stroke="#63b8ff" points="839,-359.09 835.5,-349.09 832,-359.09 839,-359.09"/>
</g>
<!-- Node25 -->
<g id="node25" class="node">
<title>Node25</title>
<g id="a_node25"><a xlink:href="ring__buffer__types_8h.html" target="_top" xlink:title=" ">
<polygon fill="white" stroke="#666666" points="663.5,-184 553.5,-184 553.5,-165 663.5,-165 663.5,-184"/>
<text text-anchor="middle" x="608.5" y="-172" font-family="Helvetica,sans-Serif" font-size="10.00">ring_buffer_types.h</text>
</a>
</g>
</g>
<!-- Node18&#45;&gt;Node25 -->
<g id="edge75" class="edge">
<title>Node18&#45;&gt;Node25</title>
<path fill="none" stroke="#63b8ff" d="M824.95,-384.85C814.3,-376.04 797.48,-361.88 783.5,-349 722.56,-292.85 653.65,-222.35 623.72,-191.35"/>
<polygon fill="#63b8ff" stroke="#63b8ff" points="626.13,-188.8 616.67,-184.03 621.08,-193.66 626.13,-188.8"/>
</g>
<!-- Node30 -->
<g id="node30" class="node">
<title>Node30</title>
<g id="a_node30"><a xlink:title=" ">
<polygon fill="#e0e0e0" stroke="#999999" points="530,-19 483,-19 483,0 530,0 530,-19"/>
<text text-anchor="middle" x="506.5" y="-7" font-family="Helvetica,sans-Serif" font-size="10.00">vector</text>
</a>
</g>
</g>
<!-- Node18&#45;&gt;Node30 -->
<g id="edge77" class="edge">
<title>Node18&#45;&gt;Node30</title>
<path fill="none" stroke="#63b8ff" d="M780.16,-388.78C677.63,-378.5 468.5,-349.68 468.5,-285.5 468.5,-285.5 468.5,-285.5 468.5,-118.5 468.5,-85.02 484.95,-48.84 496.2,-28.01"/>
<polygon fill="#63b8ff" stroke="#63b8ff" points="499.37,-29.53 501.22,-19.1 493.26,-26.1 499.37,-29.53"/>
</g>
<!-- Node48 -->
<g id="node48" class="node">
<title>Node48</title>
<g id="a_node48"><a xlink:title=" ">
<polygon fill="#e0e0e0" stroke="#999999" points="947.5,-349 897.5,-349 897.5,-330 947.5,-330 947.5,-349"/>
<text text-anchor="middle" x="922.5" y="-337" font-family="Helvetica,sans-Serif" font-size="10.00">chrono</text>
</a>
</g>
</g>
<!-- Node18&#45;&gt;Node48 -->
<g id="edge76" class="edge">
<title>Node18&#45;&gt;Node48</title>
<path fill="none" stroke="#63b8ff" d="M849.48,-384.98C862.97,-376.77 883.63,-364.18 899.54,-354.49"/>
<polygon fill="#63b8ff" stroke="#63b8ff" points="901.55,-357.36 908.27,-349.17 897.91,-351.38 901.55,-357.36"/>
</g>
<!-- Node19&#45;&gt;Node4 -->
<g id="edge73" class="edge">
<title>Node19&#45;&gt;Node4</title>
<path fill="none" stroke="#63b8ff" d="M879.32,-329.92C918.1,-321.93 976.07,-309.02 1025.5,-294 1181.34,-246.66 1214.96,-219.34 1368.5,-165 1401.29,-153.4 1438.89,-140.99 1465.9,-132.23"/>
<polygon fill="#63b8ff" stroke="#63b8ff" points="1467.26,-135.47 1475.7,-129.06 1465.11,-128.81 1467.26,-135.47"/>
</g>
<!-- Node20 -->
<g id="node20" class="node">
<title>Node20</title>
<g id="a_node20"><a xlink:href="messaging_8h.html" target="_top" xlink:title=" ">
<polygon fill="white" stroke="#666666" points="1016,-294 937,-294 937,-275 1016,-275 1016,-294"/>
<text text-anchor="middle" x="976.5" y="-282" font-family="Helvetica,sans-Serif" font-size="10.00">messaging.h</text>
</a>
</g>
</g>
<!-- Node19&#45;&gt;Node20 -->
<g id="edge21" class="edge">
<title>Node19&#45;&gt;Node20</title>
<path fill="none" stroke="#63b8ff" d="M858.15,-329.98C881.35,-321.27 917.62,-307.63 943.9,-297.75"/>
<polygon fill="#63b8ff" stroke="#63b8ff" points="945.3,-300.97 953.43,-294.17 942.84,-294.41 945.3,-300.97"/>
</g>
<!-- Node21 -->
<g id="node21" class="node">
<title>Node21</title>
<g id="a_node21"><a xlink:href="ring__buffer_8h.html" target="_top" xlink:title=" ">
<polygon fill="white" stroke="#666666" points="850,-239 773,-239 773,-220 850,-220 850,-239"/>
<text text-anchor="middle" x="811.5" y="-227" font-family="Helvetica,sans-Serif" font-size="10.00">ring_buffer.h</text>
</a>
</g>
</g>
<!-- Node19&#45;&gt;Node21 -->
<g id="edge71" class="edge">
<title>Node19&#45;&gt;Node21</title>
<path fill="none" stroke="#63b8ff" d="M831.14,-329.88C826.9,-321.1 820.66,-306.95 817.5,-294 813.92,-279.34 812.45,-262.29 811.86,-249.55"/>
<polygon fill="#63b8ff" stroke="#63b8ff" points="815.35,-249.14 811.53,-239.26 808.35,-249.37 815.35,-249.14"/>
</g>
<!-- Node39 -->
<g id="node39" class="node">
<title>Node39</title>
<g id="a_node39"><a xlink:href="serialized_8h.html" target="_top" xlink:title=" ">
<polygon fill="white" stroke="#666666" points="925,-74 852,-74 852,-55 925,-55 925,-74"/>
<text text-anchor="middle" x="888.5" y="-62" font-family="Helvetica,sans-Serif" font-size="10.00">serialized.h</text>
</a>
</g>
</g>
<!-- Node19&#45;&gt;Node39 -->
<g id="edge72" class="edge">
<title>Node19&#45;&gt;Node39</title>
<path fill="none" stroke="#63b8ff" d="M820.47,-329.96C794.63,-314.01 744.5,-277.09 744.5,-230.5 744.5,-230.5 744.5,-230.5 744.5,-173.5 744.5,-122.04 804.08,-92.1 846.6,-77.28"/>
<polygon fill="#63b8ff" stroke="#63b8ff" points="847.8,-80.57 856.18,-74.09 845.59,-73.93 847.8,-80.57"/>
</g>
<!-- Node47 -->
<g id="node47" class="node">
<title>Node47</title>
<g id="a_node47"><a xlink:title=" ">
<polygon fill="#e0e0e0" stroke="#999999" points="919,-294 826,-294 826,-275 919,-275 919,-294"/>
<text text-anchor="middle" x="872.5" y="-282" font-family="Helvetica,sans-Serif" font-size="10.00">unordered_map</text>
</a>
</g>
</g>
<!-- Node19&#45;&gt;Node47 -->
<g id="edge74" class="edge">
<title>Node19&#45;&gt;Node47</title>
<path fill="none" stroke="#63b8ff" d="M841.61,-329.75C846.78,-322.34 854.35,-311.5 860.69,-302.41"/>
<polygon fill="#63b8ff" stroke="#63b8ff" points="863.65,-304.29 866.5,-294.09 857.91,-300.29 863.65,-304.29"/>
</g>
<!-- Node20&#45;&gt;Node2 -->
<g id="edge22" class="edge">
<title>Node20&#45;&gt;Node2</title>
<path fill="none" stroke="#63b8ff" d="M1016.29,-278.42C1091.17,-268.85 1253.09,-248.18 1337.63,-237.38"/>
<polygon fill="#63b8ff" stroke="#63b8ff" points="1338.32,-240.82 1347.8,-236.08 1337.43,-233.88 1338.32,-240.82"/>
</g>
<!-- Node20&#45;&gt;Node9 -->
<g id="edge69" class="edge">
<title>Node20&#45;&gt;Node9</title>
<path fill="none" stroke="#63b8ff" d="M995.73,-274.91C1027.25,-260.09 1090.5,-227.08 1131.5,-184 1144.99,-169.82 1157.62,-151.36 1166.05,-138"/>
<polygon fill="#63b8ff" stroke="#63b8ff" points="1169.13,-139.66 1171.39,-129.31 1163.17,-135.99 1169.13,-139.66"/>
</g>
<!-- Node20&#45;&gt;Node21 -->
<g id="edge23" class="edge">
<title>Node20&#45;&gt;Node21</title>
<path fill="none" stroke="#63b8ff" d="M949.99,-274.98C922.29,-266.09 878.64,-252.07 847.76,-242.15"/>
<polygon fill="#63b8ff" stroke="#63b8ff" points="848.81,-238.81 838.22,-239.08 846.67,-245.47 848.81,-238.81"/>
</g>
<!-- Node40 -->
<g id="node40" class="node">
<title>Node40</title>
<g id="a_node40"><a xlink:title=" ">
<polygon fill="#e0e0e0" stroke="#999999" points="991,-19 926,-19 926,0 991,0 991,-19"/>
<text text-anchor="middle" x="958.5" y="-7" font-family="Helvetica,sans-Serif" font-size="10.00">stdexcept</text>
</a>
</g>
</g>
<!-- Node20&#45;&gt;Node40 -->
<g id="edge70" class="edge">
<title>Node20&#45;&gt;Node40</title>
<path fill="none" stroke="#63b8ff" d="M966.9,-274.98C943.47,-253.42 883.81,-193.77 864.5,-129 862.09,-120.91 859.82,-117.03 864.5,-110 887.46,-75.5 925.43,-106.99 950.5,-74 960.06,-61.42 961.47,-43.23 960.83,-29.53"/>
<polygon fill="#63b8ff" stroke="#63b8ff" points="964.3,-28.98 959.95,-19.31 957.32,-29.58 964.3,-28.98"/>
</g>
<!-- Node43 -->
<g id="node43" class="node">
<title>Node43</title>
<g id="a_node43"><a xlink:title=" ">
<polygon fill="#e0e0e0" stroke="#999999" points="716.5,-129 666.5,-129 666.5,-110 716.5,-110 716.5,-129"/>
<text text-anchor="middle" x="691.5" y="-117" font-family="Helvetica,sans-Serif" font-size="10.00">atomic</text>
</a>
</g>
</g>
<!-- Node20&#45;&gt;Node43 -->
<g id="edge67" class="edge">
<title>Node20&#45;&gt;Node43</title>
<path fill="none" stroke="#63b8ff" d="M957.3,-274.93C941.36,-267.16 918.74,-254.55 902.5,-239 874.01,-211.72 885.44,-188.14 853.5,-165 815.72,-137.63 761.91,-127.09 726.85,-123.03"/>
<polygon fill="#63b8ff" stroke="#63b8ff" points="726.91,-119.52 716.61,-121.97 726.19,-126.48 726.91,-119.52"/>
</g>
<!-- Node46 -->
<g id="node46" class="node">
<title>Node46</title>
<g id="a_node46"><a xlink:title=" ">
<polygon fill="#e0e0e0" stroke="#999999" points="1052,-239 945,-239 945,-220 1052,-220 1052,-239"/>
<text text-anchor="middle" x="998.5" y="-227" font-family="Helvetica,sans-Serif" font-size="10.00">condition_variable</text>
</a>
</g>
</g>
<!-- Node20&#45;&gt;Node46 -->
<g id="edge68" class="edge">
<title>Node20&#45;&gt;Node46</title>
<path fill="none" stroke="#63b8ff" d="M980.13,-274.75C983.08,-267.65 987.33,-257.4 991.01,-248.56"/>
<polygon fill="#63b8ff" stroke="#63b8ff" points="994.33,-249.67 994.93,-239.09 987.87,-246.98 994.33,-249.67"/>
</g>
<!-- Node22 -->
<g id="node22" class="node">
<title>Node22</title>
<g id="a_node22"><a xlink:href="mem_8h.html" target="_top" xlink:title=" ">
<polygon fill="white" stroke="#666666" points="1070.5,-184 984.5,-184 984.5,-165 1070.5,-165 1070.5,-184"/>
<text text-anchor="middle" x="1027.5" y="-172" font-family="Helvetica,sans-Serif" font-size="10.00">ccf/pal/mem.h</text>
</a>
</g>
</g>
<!-- Node21&#45;&gt;Node22 -->
<g id="edge24" class="edge">
<title>Node21&#45;&gt;Node22</title>
<path fill="none" stroke="#63b8ff" d="M846.2,-219.98C883.25,-210.89 942.09,-196.46 982.63,-186.51"/>
<polygon fill="#63b8ff" stroke="#63b8ff" points="983.65,-189.86 992.52,-184.08 981.98,-183.07 983.65,-189.86"/>
</g>
<!-- Node24 -->
<g id="node24" class="node">
<title>Node24</title>
<g id="a_node24"><a xlink:title=" ">
<polygon fill="#e0e0e0" stroke="#999999" points="1059.5,-19 1009.5,-19 1009.5,0 1059.5,0 1059.5,-19"/>
<text text-anchor="middle" x="1034.5" y="-7" font-family="Helvetica,sans-Serif" font-size="10.00">cstring</text>
</a>
</g>
</g>
<!-- Node21&#45;&gt;Node24 -->
<g id="edge65" class="edge">
<title>Node21&#45;&gt;Node24</title>
<path fill="none" stroke="#63b8ff" d="M850.24,-226.15C915.34,-221.54 1043.14,-209.47 1079.5,-184 1108.71,-163.54 1121.92,-143.78 1110.5,-110 1098.92,-75.77 1070.33,-44.03 1051.7,-25.99"/>
<polygon fill="#63b8ff" stroke="#63b8ff" points="1054.09,-23.43 1044.41,-19.13 1049.3,-28.53 1054.09,-23.43"/>
</g>
<!-- Node21&#45;&gt;Node25 -->
<g id="edge28" class="edge">
<title>Node21&#45;&gt;Node25</title>
<path fill="none" stroke="#63b8ff" d="M778.88,-219.98C744.21,-210.93 689.24,-196.58 651.15,-186.64"/>
<polygon fill="#63b8ff" stroke="#63b8ff" points="651.93,-183.22 641.37,-184.08 650.16,-189.99 651.93,-183.22"/>
</g>
<!-- Node45 -->
<g id="node45" class="node">
<title>Node45</title>
<g id="a_node45"><a xlink:title=" ">
<polygon fill="#e0e0e0" stroke="#999999" points="844,-184 779,-184 779,-165 844,-165 844,-184"/>
<text text-anchor="middle" x="811.5" y="-172" font-family="Helvetica,sans-Serif" font-size="10.00">functional</text>
</a>
</g>
</g>
<!-- Node21&#45;&gt;Node45 -->
<g id="edge66" class="edge">
<title>Node21&#45;&gt;Node45</title>
<path fill="none" stroke="#63b8ff" d="M811.5,-219.75C811.5,-212.8 811.5,-202.85 811.5,-194.13"/>
<polygon fill="#63b8ff" stroke="#63b8ff" points="815,-194.09 811.5,-184.09 808,-194.09 815,-194.09"/>
</g>
<!-- Node22&#45;&gt;Node8 -->
<g id="edge27" class="edge">
<title>Node22&#45;&gt;Node8</title>
<path fill="none" stroke="#63b8ff" d="M1036.09,-164.75C1043.66,-157.03 1054.88,-145.6 1064.01,-136.28"/>
<polygon fill="#63b8ff" stroke="#63b8ff" points="1066.57,-138.68 1071.07,-129.09 1061.57,-133.78 1066.57,-138.68"/>
</g>
<!-- Node23 -->
<g id="node23" class="node">
<title>Node23</title>
<g id="a_node23"><a xlink:title=" ">
<polygon fill="#e0e0e0" stroke="#999999" points="1001,-129 948,-129 948,-110 1001,-110 1001,-129"/>
<text text-anchor="middle" x="974.5" y="-117" font-family="Helvetica,sans-Serif" font-size="10.00">stdlib.h</text>
</a>
</g>
</g>
<!-- Node22&#45;&gt;Node23 -->
<g id="edge25" class="edge">
<title>Node22&#45;&gt;Node23</title>
<path fill="none" stroke="#63b8ff" d="M1018.75,-164.75C1011.03,-157.03 999.6,-145.6 990.28,-136.28"/>
<polygon fill="#63b8ff" stroke="#63b8ff" points="992.64,-133.69 983.09,-129.09 987.69,-138.64 992.64,-133.69"/>
</g>
<!-- Node22&#45;&gt;Node24 -->
<g id="edge26" class="edge">
<title>Node22&#45;&gt;Node24</title>
<path fill="none" stroke="#63b8ff" d="M1027.88,-164.74C1028.97,-139.31 1032.16,-65.08 1033.68,-29.69"/>
<polygon fill="#63b8ff" stroke="#63b8ff" points="1037.19,-29.45 1034.12,-19.31 1030.2,-29.15 1037.19,-29.45"/>
</g>
<!-- Node25&#45;&gt;Node4 -->
<g id="edge60" class="edge">
<title>Node25&#45;&gt;Node4</title>
<path fill="none" stroke="#63b8ff" d="M663.59,-170.61C837.95,-161.45 1370.64,-133.48 1452.3,-128.62"/>
<polygon fill="#63b8ff" stroke="#63b8ff" points="1452.99,-132.08 1462.74,-127.93 1452.53,-125.09 1452.99,-132.08"/>
</g>
<!-- Node25&#45;&gt;Node14 -->
<g id="edge61" class="edge">
<title>Node25&#45;&gt;Node14</title>
<path fill="none" stroke="#63b8ff" d="M655.58,-164.98C713.2,-154.56 809.7,-137.11 863.07,-127.45"/>
<polygon fill="#63b8ff" stroke="#63b8ff" points="863.93,-130.85 873.15,-125.63 862.68,-123.96 863.93,-130.85"/>
</g>
<!-- Node26 -->
<g id="node26" class="node">
<title>Node26</title>
<g id="a_node26"><a xlink:href="include_2ccf_2ds_2hash_8h.html" target="_top" xlink:title=" ">
<polygon fill="white" stroke="#666666" points="648.5,-129 568.5,-129 568.5,-110 648.5,-110 648.5,-129"/>
<text text-anchor="middle" x="608.5" y="-117" font-family="Helvetica,sans-Serif" font-size="10.00">ccf/ds/hash.h</text>
</a>
</g>
</g>
<!-- Node25&#45;&gt;Node26 -->
<g id="edge29" class="edge">
<title>Node25&#45;&gt;Node26</title>
<path fill="none" stroke="#63b8ff" d="M608.5,-164.75C608.5,-157.8 608.5,-147.85 608.5,-139.13"/>
<polygon fill="#63b8ff" stroke="#63b8ff" points="612,-139.09 608.5,-129.09 605,-139.09 612,-139.09"/>
</g>
<!-- Node25&#45;&gt;Node30 -->
<g id="edge64" class="edge">
<title>Node25&#45;&gt;Node30</title>
<path fill="none" stroke="#63b8ff" d="M597.16,-164.74C586.65,-156.29 570.96,-142.78 559.5,-129 541.13,-106.9 537.28,-100.21 525.5,-74 519.01,-59.55 514,-42.28 510.76,-29.4"/>
<polygon fill="#63b8ff" stroke="#63b8ff" points="514.1,-28.3 508.38,-19.39 507.29,-29.93 514.1,-28.3"/>
</g>
<!-- Node34 -->
<g id="node34" class="node">
<title>Node34</title>
<g id="a_node34"><a xlink:href="nonstd_8h.html" target="_top" xlink:title=" ">
<polygon fill="white" stroke="#666666" points="326.5,-74 236.5,-74 236.5,-55 326.5,-55 326.5,-74"/>
<text text-anchor="middle" x="281.5" y="-62" font-family="Helvetica,sans-Serif" font-size="10.00">ccf/ds/nonstd.h</text>
</a>
</g>
</g>
<!-- Node25&#45;&gt;Node34 -->
<g id="edge39" class="edge">
<title>Node25&#45;&gt;Node34</title>
<path fill="none" stroke="#63b8ff" d="M582.57,-164.94C524.38,-145.72 383.32,-99.13 317.03,-77.24"/>
<polygon fill="#63b8ff" stroke="#63b8ff" points="318.03,-73.88 307.44,-74.07 315.83,-80.53 318.03,-73.88"/>
</g>
<!-- Node37 -->
<g id="node37" class="node">
<title>Node37</title>
<g id="a_node37"><a xlink:title=" ">
<polygon fill="#e0e0e0" stroke="#999999" points="303.5,-19 259.5,-19 259.5,0 303.5,0 303.5,-19"/>
<text text-anchor="middle" x="281.5" y="-7" font-family="Helvetica,sans-Serif" font-size="10.00">string</text>
</a>
</g>
</g>
<!-- Node25&#45;&gt;Node37 -->
<g id="edge63" class="edge">
<title>Node25&#45;&gt;Node37</title>
<path fill="none" stroke="#63b8ff" d="M553.37,-172.51C430.18,-168.91 139.59,-152.13 91.5,-74 39.76,10.06 20.95,-74.11 249.19,-19.2"/>
<polygon fill="#63b8ff" stroke="#63b8ff" points="250.3,-22.53 259.18,-16.75 248.63,-15.73 250.3,-22.53"/>
</g>
<!-- Node38 -->
<g id="node38" class="node">
<title>Node38</title>
<g id="a_node38"><a xlink:href="serializer_8h.html" target="_top" xlink:title=" ">
<polygon fill="white" stroke="#666666" points="337.5,-129 267.5,-129 267.5,-110 337.5,-110 337.5,-129"/>
<text text-anchor="middle" x="302.5" y="-117" font-family="Helvetica,sans-Serif" font-size="10.00">serializer.h</text>
</a>
</g>
</g>
<!-- Node25&#45;&gt;Node38 -->
<g id="edge47" class="edge">
<title>Node25&#45;&gt;Node38</title>
<path fill="none" stroke="#63b8ff" d="M559.34,-164.98C500.97,-154.87 404.42,-138.15 347.8,-128.35"/>
<polygon fill="#63b8ff" stroke="#63b8ff" points="348.16,-124.86 337.71,-126.6 346.97,-131.75 348.16,-124.86"/>
</g>
<!-- Node25&#45;&gt;Node43 -->
<g id="edge59" class="edge">
<title>Node25&#45;&gt;Node43</title>
<path fill="none" stroke="#63b8ff" d="M621.84,-164.98C634.59,-156.84 654.05,-144.41 669.17,-134.76"/>
<polygon fill="#63b8ff" stroke="#63b8ff" points="671.38,-137.5 677.92,-129.17 667.61,-131.6 671.38,-137.5"/>
</g>
<!-- Node44 -->
<g id="node44" class="node">
<title>Node44</title>
<g id="a_node44"><a xlink:title=" ">
<polygon fill="#e0e0e0" stroke="#999999" points="249.5,-129 209.5,-129 209.5,-110 249.5,-110 249.5,-129"/>
<text text-anchor="middle" x="229.5" y="-117" font-family="Helvetica,sans-Serif" font-size="10.00">span</text>
</a>
</g>
</g>
<!-- Node25&#45;&gt;Node44 -->
<g id="edge62" class="edge">
<title>Node25&#45;&gt;Node44</title>
<path fill="none" stroke="#63b8ff" d="M553.49,-169.22C486.21,-163.39 368.77,-151.27 259.54,-128.91"/>
<polygon fill="#63b8ff" stroke="#63b8ff" points="260.18,-125.47 249.68,-126.86 258.76,-132.32 260.18,-125.47"/>
</g>
<!-- Node27 -->
<g id="node27" class="node">
<title>Node27</title>
<g id="a_node27"><a xlink:href="siphash_8h.html" target="_top" xlink:title=" ">
<polygon fill="white" stroke="#666666" points="834,-74 739,-74 739,-55 834,-55 834,-74"/>
<text text-anchor="middle" x="786.5" y="-62" font-family="Helvetica,sans-Serif" font-size="10.00">ccf/ds/siphash.h</text>
</a>
</g>
</g>
<!-- Node26&#45;&gt;Node27 -->
<g id="edge30" class="edge">
<title>Node26&#45;&gt;Node27</title>
<path fill="none" stroke="#63b8ff" d="M637.1,-109.98C667.11,-101.05 714.48,-86.94 747.82,-77.02"/>
<polygon fill="#63b8ff" stroke="#63b8ff" points="749.09,-80.29 757.68,-74.08 747.09,-73.58 749.09,-80.29"/>
</g>
<!-- Node29 -->
<g id="node29" class="node">
<title>Node29</title>
<g id="a_node29"><a xlink:title=" ">
<polygon fill="#e0e0e0" stroke="#999999" points="907.5,-19 857.5,-19 857.5,0 907.5,0 907.5,-19"/>
<text text-anchor="middle" x="882.5" y="-7" font-family="Helvetica,sans-Serif" font-size="10.00">cstdint</text>
</a>
</g>
</g>
<!-- Node26&#45;&gt;Node29 -->
<g id="edge35" class="edge">
<title>Node26&#45;&gt;Node29</title>
<path fill="none" stroke="#63b8ff" d="M648.59,-111.4C651.6,-110.91 654.6,-110.44 657.5,-110 718.87,-100.69 893.53,-120.64 934.5,-74 949.16,-57.31 926.67,-37.39 906.85,-24.37"/>
<polygon fill="#63b8ff" stroke="#63b8ff" points="908.69,-21.4 898.35,-19.08 904.99,-27.34 908.69,-21.4"/>
</g>
<!-- Node26&#45;&gt;Node30 -->
<g id="edge38" class="edge">
<title>Node26&#45;&gt;Node30</title>
<path fill="none" stroke="#63b8ff" d="M637.36,-109.98C668.65,-99.28 711.69,-79.33 692.5,-55 673.87,-31.38 588.42,-18.9 540.08,-13.63"/>
<polygon fill="#63b8ff" stroke="#63b8ff" points="540.39,-10.14 530.08,-12.58 539.66,-17.1 540.39,-10.14"/>
</g>
<!-- Node31 -->
<g id="node31" class="node">
<title>Node31</title>
<g id="a_node31"><a xlink:title=" ">
<polygon fill="#e0e0e0" stroke="#999999" points="455.5,-19 413.5,-19 413.5,0 455.5,0 455.5,-19"/>
<text text-anchor="middle" x="434.5" y="-7" font-family="Helvetica,sans-Serif" font-size="10.00">array</text>
</a>
</g>
</g>
<!-- Node26&#45;&gt;Node31 -->
<g id="edge34" class="edge">
<title>Node26&#45;&gt;Node31</title>
<path fill="none" stroke="#63b8ff" d="M591,-109.87C573.97,-101.3 547.51,-87.52 525.5,-74 500.11,-58.41 472.17,-38.47 454.04,-25.14"/>
<polygon fill="#63b8ff" stroke="#63b8ff" points="456.1,-22.31 445.99,-19.17 451.94,-27.93 456.1,-22.31"/>
</g>
<!-- Node32 -->
<g id="node32" class="node">
<title>Node32</title>
<g id="a_node32"><a xlink:title=" ">
<polygon fill="#e0e0e0" stroke="#999999" points="683,-74 534,-74 534,-55 683,-55 683,-74"/>
<text text-anchor="middle" x="608.5" y="-62" font-family="Helvetica,sans-Serif" font-size="10.00">small_vector/SmallVector.h</text>
</a>
</g>
</g>
<!-- Node26&#45;&gt;Node32 -->
<g id="edge36" class="edge">
<title>Node26&#45;&gt;Node32</title>
<path fill="none" stroke="#63b8ff" d="M608.5,-109.75C608.5,-102.8 608.5,-92.85 608.5,-84.13"/>
<polygon fill="#63b8ff" stroke="#63b8ff" points="612,-84.09 608.5,-74.09 605,-84.09 612,-84.09"/>
</g>
<!-- Node33 -->
<g id="node33" class="node">
<title>Node33</title>
<g id="a_node33"><a xlink:title=" ">
<polygon fill="#e0e0e0" stroke="#999999" points="395,-19 322,-19 322,0 395,0 395,-19"/>
<text text-anchor="middle" x="358.5" y="-7" font-family="Helvetica,sans-Serif" font-size="10.00">string_view</text>
</a>
</g>
</g>
<!-- Node26&#45;&gt;Node33 -->
<g id="edge37" class="edge">
<title>Node26&#45;&gt;Node33</title>
<path fill="none" stroke="#63b8ff" d="M584.74,-109.99C561.14,-101.39 524.03,-87.5 492.5,-74 454.56,-57.76 411.59,-36.96 384.77,-23.68"/>
<polygon fill="#63b8ff" stroke="#63b8ff" points="386.17,-20.46 375.65,-19.15 383.05,-26.73 386.17,-20.46"/>
</g>
<!-- Node28 -->
<g id="node28" class="node">
<title>Node28</title>
<g id="a_node28"><a xlink:title=" ">
<polygon fill="#e0e0e0" stroke="#999999" points="813,-19 760,-19 760,0 813,0 813,-19"/>
<text text-anchor="middle" x="786.5" y="-7" font-family="Helvetica,sans-Serif" font-size="10.00">cstddef</text>
</a>
</g>
</g>
<!-- Node27&#45;&gt;Node28 -->
<g id="edge31" class="edge">
<title>Node27&#45;&gt;Node28</title>
<path fill="none" stroke="#63b8ff" d="M786.5,-54.75C786.5,-47.8 786.5,-37.85 786.5,-29.13"/>
<polygon fill="#63b8ff" stroke="#63b8ff" points="790,-29.09 786.5,-19.09 783,-29.09 790,-29.09"/>
</g>
<!-- Node27&#45;&gt;Node29 -->
<g id="edge32" class="edge">
<title>Node27&#45;&gt;Node29</title>
<path fill="none" stroke="#63b8ff" d="M801.92,-54.98C816.95,-46.69 840.04,-33.94 857.66,-24.22"/>
<polygon fill="#63b8ff" stroke="#63b8ff" points="859.73,-27.07 866.8,-19.17 856.35,-20.94 859.73,-27.07"/>
</g>
<!-- Node27&#45;&gt;Node30 -->
<g id="edge33" class="edge">
<title>Node27&#45;&gt;Node30</title>
<path fill="none" stroke="#63b8ff" d="M741.51,-54.98C685.37,-44.36 590.63,-26.43 540.3,-16.9"/>
<polygon fill="#63b8ff" stroke="#63b8ff" points="540.74,-13.42 530.26,-15 539.44,-20.3 540.74,-13.42"/>
</g>
<!-- Node34&#45;&gt;Node16 -->
<g id="edge45" class="edge">
<title>Node34&#45;&gt;Node16</title>
<path fill="none" stroke="#63b8ff" d="M241.82,-54.98C197.44,-45.46 125.74,-30.08 79.36,-20.13"/>
<polygon fill="#63b8ff" stroke="#63b8ff" points="79.81,-16.64 69.3,-17.97 78.34,-23.49 79.81,-16.64"/>
</g>
<!-- Node34&#45;&gt;Node30 -->
<g id="edge46" class="edge">
<title>Node34&#45;&gt;Node30</title>
<path fill="none" stroke="#63b8ff" d="M317.65,-54.98C360.48,-44.9 431.26,-28.22 472.93,-18.41"/>
<polygon fill="#63b8ff" stroke="#63b8ff" points="473.93,-21.77 482.86,-16.07 472.33,-14.95 473.93,-21.77"/>
</g>
<!-- Node34&#45;&gt;Node31 -->
<g id="edge41" class="edge">
<title>Node34&#45;&gt;Node31</title>
<path fill="none" stroke="#63b8ff" d="M306.08,-54.98C332.68,-45.77 375.13,-31.07 403.88,-21.11"/>
<polygon fill="#63b8ff" stroke="#63b8ff" points="405.12,-24.38 413.43,-17.8 402.83,-17.77 405.12,-24.38"/>
</g>
<!-- Node34&#45;&gt;Node33 -->
<g id="edge44" class="edge">
<title>Node34&#45;&gt;Node33</title>
<path fill="none" stroke="#63b8ff" d="M293.87,-54.98C305.59,-46.92 323.42,-34.65 337.39,-25.03"/>
<polygon fill="#63b8ff" stroke="#63b8ff" points="339.65,-27.72 345.9,-19.17 335.68,-21.96 339.65,-27.72"/>
</g>
<!-- Node35 -->
<g id="node35" class="node">
<title>Node35</title>
<g id="a_node35"><a xlink:title=" ">
<polygon fill="#e0e0e0" stroke="#999999" points="241.5,-19 177.5,-19 177.5,0 241.5,0 241.5,-19"/>
<text text-anchor="middle" x="209.5" y="-7" font-family="Helvetica,sans-Serif" font-size="10.00">algorithm</text>
</a>
</g>
</g>
<!-- Node34&#45;&gt;Node35 -->
<g id="edge40" class="edge">
<title>Node34&#45;&gt;Node35</title>
<path fill="none" stroke="#63b8ff" d="M269.93,-54.98C259.08,-47 242.62,-34.88 229.62,-25.31"/>
<polygon fill="#63b8ff" stroke="#63b8ff" points="231.41,-22.28 221.28,-19.17 227.26,-27.92 231.41,-22.28"/>
</g>
<!-- Node36 -->
<g id="node36" class="node">
<title>Node36</title>
<g id="a_node36"><a xlink:title=" ">
<polygon fill="#e0e0e0" stroke="#999999" points="159,-19 110,-19 110,0 159,0 159,-19"/>
<text text-anchor="middle" x="134.5" y="-7" font-family="Helvetica,sans-Serif" font-size="10.00">cctype</text>
</a>
</g>
</g>
<!-- Node34&#45;&gt;Node36 -->
<g id="edge42" class="edge">
<title>Node34&#45;&gt;Node36</title>
<path fill="none" stroke="#63b8ff" d="M257.88,-54.98C233.6,-46.23 195.55,-32.51 168.13,-22.62"/>
<polygon fill="#63b8ff" stroke="#63b8ff" points="169.14,-19.27 158.55,-19.17 166.77,-25.85 169.14,-19.27"/>
</g>
<!-- Node34&#45;&gt;Node37 -->
<g id="edge43" class="edge">
<title>Node34&#45;&gt;Node37</title>
<path fill="none" stroke="#63b8ff" d="M281.5,-54.75C281.5,-47.8 281.5,-37.85 281.5,-29.13"/>
<polygon fill="#63b8ff" stroke="#63b8ff" points="285,-29.09 281.5,-19.09 278,-29.09 285,-29.09"/>
</g>
<!-- Node38&#45;&gt;Node16 -->
<g id="edge57" class="edge">
<title>Node38&#45;&gt;Node16</title>
<path fill="none" stroke="#63b8ff" d="M267.36,-111.68C209.34,-100.34 99.12,-78.4 91.5,-74 71.92,-62.7 55.44,-42.31 45.31,-27.68"/>
<polygon fill="#63b8ff" stroke="#63b8ff" points="48.04,-25.47 39.6,-19.06 42.2,-29.33 48.04,-25.47"/>
</g>
<!-- Node38&#45;&gt;Node30 -->
<g id="edge58" class="edge">
<title>Node38&#45;&gt;Node30</title>
<path fill="none" stroke="#63b8ff" d="M318.85,-109.84C354.45,-91 439.17,-46.14 481.52,-23.73"/>
<polygon fill="#63b8ff" stroke="#63b8ff" points="483.16,-26.82 490.36,-19.05 479.88,-20.63 483.16,-26.82"/>
</g>
<!-- Node38&#45;&gt;Node34 -->
<g id="edge48" class="edge">
<title>Node38&#45;&gt;Node34</title>
<path fill="none" stroke="#63b8ff" d="M299.03,-109.75C296.22,-102.65 292.16,-92.4 288.65,-83.56"/>
<polygon fill="#63b8ff" stroke="#63b8ff" points="291.84,-82.1 284.9,-74.09 285.33,-84.68 291.84,-82.1"/>
</g>
<!-- Node38&#45;&gt;Node39 -->
<g id="edge49" class="edge">
<title>Node38&#45;&gt;Node39</title>
<path fill="none" stroke="#63b8ff" d="M337.77,-116.88C422.78,-112.7 645.88,-100.1 841.53,-74.14"/>
<polygon fill="#63b8ff" stroke="#63b8ff" points="842.27,-77.57 851.71,-72.77 841.34,-70.63 842.27,-77.57"/>
</g>
<!-- Node41 -->
<g id="node41" class="node">
<title>Node41</title>
<g id="a_node41"><a xlink:title=" ">
<polygon fill="#e0e0e0" stroke="#999999" points="218.5,-74 160.5,-74 160.5,-55 218.5,-55 218.5,-74"/>
<text text-anchor="middle" x="189.5" y="-62" font-family="Helvetica,sans-Serif" font-size="10.00">memory</text>
</a>
</g>
</g>
<!-- Node38&#45;&gt;Node41 -->
<g id="edge55" class="edge">
<title>Node38&#45;&gt;Node41</title>
<path fill="none" stroke="#63b8ff" d="M284.34,-109.98C266.25,-101.5 238.22,-88.35 217.31,-78.54"/>
<polygon fill="#63b8ff" stroke="#63b8ff" points="218.53,-75.25 207.99,-74.17 215.55,-81.59 218.53,-75.25"/>
</g>
<!-- Node42 -->
<g id="node42" class="node">
<title>Node42</title>
<g id="a_node42"><a xlink:title=" ">
<polygon fill="#e0e0e0" stroke="#999999" points="142,-74 101,-74 101,-55 142,-55 142,-74"/>
<text text-anchor="middle" x="121.5" y="-62" font-family="Helvetica,sans-Serif" font-size="10.00">tuple</text>
</a>
</g>
</g>
<!-- Node38&#45;&gt;Node42 -->
<g id="edge56" class="edge">
<title>Node38&#45;&gt;Node42</title>
<path fill="none" stroke="#63b8ff" d="M273.42,-109.98C240.09,-100.23 185.73,-84.31 151.87,-74.39"/>
<polygon fill="#63b8ff" stroke="#63b8ff" points="152.65,-70.97 142.06,-71.52 150.68,-77.69 152.65,-70.97"/>
</g>
<!-- Node39&#45;&gt;Node24 -->
<g id="edge51" class="edge">
<title>Node39&#45;&gt;Node24</title>
<path fill="none" stroke="#63b8ff" d="M911.96,-54.98C936.08,-46.23 973.87,-32.51 1001.1,-22.62"/>
<polygon fill="#63b8ff" stroke="#63b8ff" points="1002.41,-25.87 1010.62,-19.17 1000.02,-19.29 1002.41,-25.87"/>
</g>
<!-- Node39&#45;&gt;Node29 -->
<g id="edge50" class="edge">
<title>Node39&#45;&gt;Node29</title>
<path fill="none" stroke="#63b8ff" d="M887.51,-54.75C886.72,-47.8 885.6,-37.85 884.61,-29.13"/>
<polygon fill="#63b8ff" stroke="#63b8ff" points="888.08,-28.63 883.47,-19.09 881.12,-29.42 888.08,-28.63"/>
</g>
<!-- Node39&#45;&gt;Node30 -->
<g id="edge54" class="edge">
<title>Node39&#45;&gt;Node30</title>
<path fill="none" stroke="#63b8ff" d="M851.69,-56.38C848.92,-55.89 846.17,-55.43 843.5,-55 733.01,-37.28 601.31,-21.4 540.44,-14.35"/>
<polygon fill="#63b8ff" stroke="#63b8ff" points="540.6,-10.85 530.26,-13.18 539.8,-17.8 540.6,-10.85"/>
</g>
<!-- Node39&#45;&gt;Node37 -->
<g id="edge53" class="edge">
<title>Node39&#45;&gt;Node37</title>
<path fill="none" stroke="#63b8ff" d="M851.72,-56.18C848.94,-55.74 846.18,-55.34 843.5,-55 612.63,-25.46 548.26,-56.58 313.96,-18.67"/>
<polygon fill="#63b8ff" stroke="#63b8ff" points="314.2,-15.16 303.76,-17 313.06,-22.07 314.2,-15.16"/>
</g>
<!-- Node39&#45;&gt;Node40 -->
<g id="edge52" class="edge">
<title>Node39&#45;&gt;Node40</title>
<path fill="none" stroke="#63b8ff" d="M899.75,-54.98C910.3,-47 926.3,-34.88 938.94,-25.31"/>
<polygon fill="#63b8ff" stroke="#63b8ff" points="941.19,-28 947.05,-19.17 936.96,-22.42 941.19,-28"/>
</g>
</g>
</svg>
        <g id="navigator" transform="translate(0 0)" fill="#404254">
                <rect fill="#f2f5e9" fill-opacity="0.5" stroke="#606060" stroke-width=".5" x="0" y="0" width="60" height="60"/>
                <use id="zoomplus" xlink:href="#zoomPlus" x="17" y="9" onmousedown="handleZoom(evt,'in')"/>
                <use id="zoomminus" xlink:href="#zoomMin" x="42" y="9" onmousedown="handleZoom(evt,'out')"/>
                <use id="reset" xlink:href="#resetDef" x="30" y="36" onmousedown="handleReset()"/>
                <g id="arrowUp" xlink:href="#dirArrow" transform="translate(30 24)" onmousedown="handlePan(0,-1)">
                  <use xlink:href="#rim" fill="#404040">
                        <set attributeName="fill" to="#808080" begin="arrowUp.mouseover" end="arrowUp.mouseout"/>
                  </use>
                  <path fill="none" stroke="white" stroke-width="1.5" d="M0,-3.0v7 M-2.5,-0.5L0,-3.0L2.5,-0.5"/>
                </g>
                <g id="arrowRight" xlink:href="#dirArrow" transform="rotate(90) translate(36 -43)" onmousedown="handlePan(1,0)">
                  <use xlink:href="#rim" fill="#404040">
                        <set attributeName="fill" to="#808080" begin="arrowRight.mouseover" end="arrowRight.mouseout"/>
                  </use>
                  <path fill="none" stroke="white" stroke-width="1.5" d="M0,-3.0v7 M-2.5,-0.5L0,-3.0L2.5,-0.5"/>
                </g>
                <g id="arrowDown" xlink:href="#dirArrow" transform="rotate(180) translate(-30 -48)" onmousedown="handlePan(0,1)">
                  <use xlink:href="#rim" fill="#404040">
                        <set attributeName="fill" to="#808080" begin="arrowDown.mouseover" end="arrowDown.mouseout"/>
                  </use>
                  <path fill="none" stroke="white" stroke-width="1.5" d="M0,-3.0v7 M-2.5,-0.5L0,-3.0L2.5,-0.5"/>
                </g>
                <g id="arrowLeft" xlink:href="#dirArrow" transform="rotate(270) translate(-36 17)" onmousedown="handlePan(-1,0)">
                  <use xlink:href="#rim" fill="#404040">
                        <set attributeName="fill" to="#808080" begin="arrowLeft.mouseover" end="arrowLeft.mouseout"/>
                  </use>
                  <path fill="none" stroke="white" stroke-width="1.5" d="M0,-3.0v7 M-2.5,-0.5L0,-3.0L2.5,-0.5"/>
                </g>
        </g>
        <svg viewBox="0 0 15 15" width="100%" height="30px" preserveAspectRatio="xMaxYMin meet">
         <g id="arrow_out" transform="scale(0.3 0.3)">
          <a xlink:href="src_2host_2enclave_8h__incl_org.svg" target="_base">
           <rect id="button" ry="5" rx="5" y="6" x="6" height="38" width="38"
                fill="#f2f5e9" fill-opacity="0.5" stroke="#606060" stroke-width="1.0"/>
           <path id="arrow"
             d="M 11.500037,31.436501 C 11.940474,20.09759 22.043105,11.32322 32.158766,21.979434 L 37.068811,17.246167 C 37.068811,17.246167 37.088388,32 37.088388,32 L 22.160133,31.978069 C 22.160133,31.978069 26.997745,27.140456 26.997745,27.140456 C 18.528582,18.264221 13.291696,25.230495 11.500037,31.436501 z"
             style="fill:#404040;"/>
          </a>
         </g>
        </svg>
</svg>
