<?xml version="1.0" encoding="UTF-8" standalone="no"?>
<!DOCTYPE svg PUBLIC "-//W3C//DTD SVG 1.1//EN"
 "http://www.w3.org/Graphics/SVG/1.1/DTD/svg11.dtd">
<!-- Generated by graphviz version 2.43.0 (0)
 -->
<!-- Title: src/crypto/openssl/entropy.h Pages: 1 -->
<!--zoomable 368 -->
<svg id="main" version="1.1" xmlns="http://www.w3.org/2000/svg" xmlns:xlink="http://www.w3.org/1999/xlink" xml:space="preserve" onload="init(evt)">
<style type="text/css"><![CDATA[
.edge:hover path { stroke: red; }
.edge:hover polygon { stroke: red; fill: red; }
]]></style>
<script type="text/javascript"><![CDATA[
var edges = document.getElementsByTagName('g');
if (edges && edges.length) {
  for (var i=0;i<edges.length;i++) {
    if (edges[i].id.substr(0,4)=='edge') {
      edges[i].setAttribute('class','edge');
    }
  }
}
]]></script>
        <defs>
                <circle id="rim" cx="0" cy="0" r="7"/>
                <circle id="rim2" cx="0" cy="0" r="3.5"/>
                <g id="zoomPlus">
                        <use xlink:href="#rim" fill="#404040">
                                <set attributeName="fill" to="#808080" begin="zoomplus.mouseover" end="zoomplus.mouseout"/>
                        </use>
                        <path d="M-4,0h8M0,-4v8" fill="none" stroke="white" stroke-width="1.5" pointer-events="none"/>
                </g>
                <g id="zoomMin">
                        <use xlink:href="#rim" fill="#404040">
                                <set attributeName="fill" to="#808080" begin="zoomminus.mouseover" end="zoomminus.mouseout"/>
                        </use>
                        <path d="M-4,0h8" fill="none" stroke="white" stroke-width="1.5" pointer-events="none"/>
                </g>
                <g id="dirArrow">
                        <path fill="none" stroke="white" stroke-width="1.5" d="M0,-3.0v7 M-2.5,-0.5L0,-3.0L2.5,-0.5"/>
                </g>
               <g id="resetDef">
                       <use xlink:href="#rim2" fill="#404040">
                               <set attributeName="fill" to="#808080" begin="reset.mouseover" end="reset.mouseout"/>
                       </use>
               </g>
        </defs>

<script type="text/javascript">
var viewWidth = 1800;
var viewHeight = 368;
var sectionId = 'dynsection-0';
</script>
<script xlink:href="svgpan.js"/>
<svg id="graph" class="graph">
<g id="viewport">
<title>src/crypto/openssl/entropy.h</title>
<!-- Node1 -->
<g id="node1" class="node">
<title>Node1</title>
<g id="a_node1"><a xlink:title=" ">
<polygon fill="#999999" stroke="#666666" points="889.5,-360 784.5,-360 784.5,-330 889.5,-330 889.5,-360"/>
<text text-anchor="start" x="792.5" y="-348" font-family="Helvetica,sans-Serif" font-size="10.00">src/crypto/openssl</text>
<text text-anchor="middle" x="837" y="-337" font-family="Helvetica,sans-Serif" font-size="10.00">/entropy.h</text>
</a>
</g>
</g>
<!-- Node2 -->
<g id="node2" class="node">
<title>Node2</title>
<g id="a_node2"><a xlink:href="include_2ccf_2crypto_2entropy_8h.html" target="_top" xlink:title=" ">
<polygon fill="white" stroke="#666666" points="359.5,-294 246.5,-294 246.5,-275 359.5,-275 359.5,-294"/>
<text text-anchor="middle" x="303" y="-282" font-family="Helvetica,sans-Serif" font-size="10.00">ccf/crypto/entropy.h</text>
</a>
</g>
</g>
<!-- Node1&#45;&gt;Node2 -->
<g id="edge1" class="edge">
<title>Node1&#45;&gt;Node2</title>
<path fill="none" stroke="#63b8ff" d="M784.34,-338.23C686.58,-327.52 477.26,-304.59 369.75,-292.81"/>
<polygon fill="#63b8ff" stroke="#63b8ff" points="369.99,-289.32 359.67,-291.71 369.23,-296.28 369.99,-289.32"/>
</g>
<!-- Node8 -->
<g id="node8" class="node">
<title>Node8</title>
<g id="a_node8"><a xlink:title=" ">
<polygon fill="#e0e0e0" stroke="#999999" points="612,-184 554,-184 554,-165 612,-165 612,-184"/>
<text text-anchor="middle" x="583" y="-172" font-family="Helvetica,sans-Serif" font-size="10.00">memory</text>
</a>
</g>
</g>
<!-- Node1&#45;&gt;Node8 -->
<g id="edge60" class="edge">
<title>Node1&#45;&gt;Node8</title>
<path fill="none" stroke="#63b8ff" d="M784.46,-339.09C724.16,-330.32 627.83,-306.03 583,-239 574.29,-225.97 575.25,-207.82 577.83,-194.27"/>
<polygon fill="#63b8ff" stroke="#63b8ff" points="581.33,-194.7 580.2,-184.17 574.51,-193.1 581.33,-194.7"/>
</g>
<!-- Node11 -->
<g id="node11" class="node">
<title>Node11</title>
<g id="a_node11"><a xlink:title=" ">
<polygon fill="#e0e0e0" stroke="#999999" points="748.5,-19 701.5,-19 701.5,0 748.5,0 748.5,-19"/>
<text text-anchor="middle" x="725" y="-7" font-family="Helvetica,sans-Serif" font-size="10.00">vector</text>
</a>
</g>
</g>
<!-- Node1&#45;&gt;Node11 -->
<g id="edge62" class="edge">
<title>Node1&#45;&gt;Node11</title>
<path fill="none" stroke="#63b8ff" d="M784.24,-335.91C695.51,-320.79 526,-284.82 526,-230.5 526,-230.5 526,-230.5 526,-118.5 526,-44.12 634.72,-20.69 691.44,-13.53"/>
<polygon fill="#63b8ff" stroke="#63b8ff" points="691.86,-17 701.39,-12.37 691.05,-10.05 691.86,-17"/>
</g>
<!-- Node12 -->
<g id="node12" class="node">
<title>Node12</title>
<g id="a_node12"><a xlink:href="openssl__wrappers_8h.html" target="_top" xlink:title=" ">
<polygon fill="white" stroke="#666666" points="1167.5,-294 1054.5,-294 1054.5,-275 1167.5,-275 1167.5,-294"/>
<text text-anchor="middle" x="1111" y="-282" font-family="Helvetica,sans-Serif" font-size="10.00">openssl_wrappers.h</text>
</a>
</g>
</g>
<!-- Node1&#45;&gt;Node12 -->
<g id="edge13" class="edge">
<title>Node1&#45;&gt;Node12</title>
<path fill="none" stroke="#63b8ff" d="M889.51,-332.79C938.98,-322.23 1012.56,-306.52 1061.14,-296.14"/>
<polygon fill="#63b8ff" stroke="#63b8ff" points="1062.07,-299.53 1071.12,-294.02 1060.6,-292.68 1062.07,-299.53"/>
</g>
<!-- Node44 -->
<g id="node44" class="node">
<title>Node44</title>
<g id="a_node44"><a xlink:title=" ">
<polygon fill="#e0e0e0" stroke="#999999" points="1250.5,-294 1185.5,-294 1185.5,-275 1250.5,-275 1250.5,-294"/>
<text text-anchor="middle" x="1218" y="-282" font-family="Helvetica,sans-Serif" font-size="10.00">functional</text>
</a>
</g>
</g>
<!-- Node1&#45;&gt;Node44 -->
<g id="edge59" class="edge">
<title>Node1&#45;&gt;Node44</title>
<path fill="none" stroke="#63b8ff" d="M889.57,-337.24C954.49,-328.67 1068.49,-312.93 1175.37,-294.21"/>
<polygon fill="#63b8ff" stroke="#63b8ff" points="1176.12,-297.63 1185.36,-292.45 1174.9,-290.74 1176.12,-297.63"/>
</g>
<!-- Node45 -->
<g id="node45" class="node">
<title>Node45</title>
<g id="a_node45"><a xlink:title=" ">
<polygon fill="#e0e0e0" stroke="#999999" points="1357,-294 1269,-294 1269,-275 1357,-275 1357,-294"/>
<text text-anchor="middle" x="1313" y="-282" font-family="Helvetica,sans-Serif" font-size="10.00">openssl/rand.h</text>
</a>
</g>
</g>
<!-- Node1&#45;&gt;Node45 -->
<g id="edge61" class="edge">
<title>Node1&#45;&gt;Node45</title>
<path fill="none" stroke="#63b8ff" d="M889.52,-338.5C967.69,-330.15 1119.55,-313.35 1258.77,-294.12"/>
<polygon fill="#63b8ff" stroke="#63b8ff" points="1259.35,-297.57 1268.77,-292.73 1258.39,-290.64 1259.35,-297.57"/>
</g>
<!-- Node3 -->
<g id="node3" class="node">
<title>Node3</title>
<g id="a_node3"><a xlink:href="hardware__info_8h.html" target="_top" xlink:title=" ">
<polygon fill="white" stroke="#666666" points="166.5,-239 35.5,-239 35.5,-220 166.5,-220 166.5,-239"/>
<text text-anchor="middle" x="101" y="-227" font-family="Helvetica,sans-Serif" font-size="10.00">ccf/pal/hardware_info.h</text>
</a>
</g>
</g>
<!-- Node2&#45;&gt;Node3 -->
<g id="edge2" class="edge">
<title>Node2&#45;&gt;Node3</title>
<path fill="none" stroke="#63b8ff" d="M270.55,-274.98C236.04,-265.93 181.34,-251.58 143.44,-241.64"/>
<polygon fill="#63b8ff" stroke="#63b8ff" points="144.27,-238.23 133.71,-239.08 142.49,-245.01 144.27,-238.23"/>
</g>
<!-- Node4 -->
<g id="node4" class="node">
<title>Node4</title>
<g id="a_node4"><a xlink:title=" ">
<polygon fill="#e0e0e0" stroke="#999999" points="50,-184 0,-184 0,-165 50,-165 50,-184"/>
<text text-anchor="middle" x="25" y="-172" font-family="Helvetica,sans-Serif" font-size="10.00">cstdint</text>
</a>
</g>
</g>
<!-- Node2&#45;&gt;Node4 -->
<g id="edge7" class="edge">
<title>Node2&#45;&gt;Node4</title>
<path fill="none" stroke="#63b8ff" d="M246.35,-282.65C173.78,-280.23 53.98,-271.31 26,-239 15.52,-226.9 16.61,-208.1 19.51,-194.09"/>
<polygon fill="#63b8ff" stroke="#63b8ff" points="22.98,-194.66 22.04,-184.1 16.19,-192.94 22.98,-194.66"/>
</g>
<!-- Node5 -->
<g id="node5" class="node">
<title>Node5</title>
<g id="a_node5"><a xlink:title=" ">
<polygon fill="#e0e0e0" stroke="#999999" points="220,-184 170,-184 170,-165 220,-165 220,-184"/>
<text text-anchor="middle" x="195" y="-172" font-family="Helvetica,sans-Serif" font-size="10.00">cstring</text>
</a>
</g>
</g>
<!-- Node2&#45;&gt;Node5 -->
<g id="edge8" class="edge">
<title>Node2&#45;&gt;Node5</title>
<path fill="none" stroke="#63b8ff" d="M271.77,-274.89C252.58,-268.08 228.89,-256.72 214,-239 203.47,-226.47 198.78,-208.27 196.68,-194.57"/>
<polygon fill="#63b8ff" stroke="#63b8ff" points="200.12,-193.85 195.47,-184.33 193.17,-194.67 200.12,-193.85"/>
</g>
<!-- Node7 -->
<g id="node7" class="node">
<title>Node7</title>
<g id="a_node7"><a xlink:title=" ">
<polygon fill="#e0e0e0" stroke="#999999" points="275,-239 223,-239 223,-220 275,-220 275,-239"/>
<text text-anchor="middle" x="249" y="-227" font-family="Helvetica,sans-Serif" font-size="10.00">cassert</text>
</a>
</g>
</g>
<!-- Node2&#45;&gt;Node7 -->
<g id="edge6" class="edge">
<title>Node2&#45;&gt;Node7</title>
<path fill="none" stroke="#63b8ff" d="M294.08,-274.75C286.22,-267.03 274.57,-255.6 265.08,-246.28"/>
<polygon fill="#63b8ff" stroke="#63b8ff" points="267.34,-243.6 257.75,-239.09 262.44,-248.59 267.34,-243.6"/>
</g>
<!-- Node2&#45;&gt;Node8 -->
<g id="edge9" class="edge">
<title>Node2&#45;&gt;Node8</title>
<path fill="none" stroke="#63b8ff" d="M345.62,-274.98C379.49,-267.5 427.7,-255.28 468,-239 502.2,-225.18 539.08,-203.48 561.61,-189.37"/>
<polygon fill="#63b8ff" stroke="#63b8ff" points="563.49,-192.32 570.06,-184.01 559.74,-186.41 563.49,-192.32"/>
</g>
<!-- Node9 -->
<g id="node9" class="node">
<title>Node9</title>
<g id="a_node9"><a xlink:title=" ">
<polygon fill="#e0e0e0" stroke="#999999" points="396.5,-239 331.5,-239 331.5,-220 396.5,-220 396.5,-239"/>
<text text-anchor="middle" x="364" y="-227" font-family="Helvetica,sans-Serif" font-size="10.00">stdexcept</text>
</a>
</g>
</g>
<!-- Node2&#45;&gt;Node9 -->
<g id="edge10" class="edge">
<title>Node2&#45;&gt;Node9</title>
<path fill="none" stroke="#63b8ff" d="M312.8,-274.98C321.82,-267.15 335.41,-255.34 346.32,-245.86"/>
<polygon fill="#63b8ff" stroke="#63b8ff" points="348.77,-248.37 354.02,-239.17 344.18,-243.09 348.77,-248.37"/>
</g>
<!-- Node10 -->
<g id="node10" class="node">
<title>Node10</title>
<g id="a_node10"><a xlink:title=" ">
<polygon fill="#e0e0e0" stroke="#999999" points="459.5,-239 414.5,-239 414.5,-220 459.5,-220 459.5,-239"/>
<text text-anchor="middle" x="437" y="-227" font-family="Helvetica,sans-Serif" font-size="10.00">utility</text>
</a>
</g>
</g>
<!-- Node2&#45;&gt;Node10 -->
<g id="edge11" class="edge">
<title>Node2&#45;&gt;Node10</title>
<path fill="none" stroke="#63b8ff" d="M324.53,-274.98C346.47,-266.3 380.74,-252.75 405.69,-242.88"/>
<polygon fill="#63b8ff" stroke="#63b8ff" points="407.07,-246.1 415.08,-239.17 404.49,-239.59 407.07,-246.1"/>
</g>
<!-- Node2&#45;&gt;Node11 -->
<g id="edge12" class="edge">
<title>Node2&#45;&gt;Node11</title>
<path fill="none" stroke="#63b8ff" d="M303,-274.82C303,-256.48 303,-212.44 303,-175.5 303,-175.5 303,-175.5 303,-118.5 303,-38.51 591.15,-16.97 691.24,-11.9"/>
<polygon fill="#63b8ff" stroke="#63b8ff" points="691.59,-15.39 701.41,-11.41 691.25,-8.4 691.59,-15.39"/>
</g>
<!-- Node3&#45;&gt;Node4 -->
<g id="edge3" class="edge">
<title>Node3&#45;&gt;Node4</title>
<path fill="none" stroke="#63b8ff" d="M88.79,-219.98C77.22,-211.92 59.62,-199.65 45.84,-190.03"/>
<polygon fill="#63b8ff" stroke="#63b8ff" points="47.64,-187.02 37.43,-184.17 43.63,-192.76 47.64,-187.02"/>
</g>
<!-- Node3&#45;&gt;Node5 -->
<g id="edge4" class="edge">
<title>Node3&#45;&gt;Node5</title>
<path fill="none" stroke="#63b8ff" d="M116.1,-219.98C130.82,-211.69 153.42,-198.94 170.67,-189.22"/>
<polygon fill="#63b8ff" stroke="#63b8ff" points="172.63,-192.13 179.62,-184.17 169.19,-186.03 172.63,-192.13"/>
</g>
<!-- Node6 -->
<g id="node6" class="node">
<title>Node6</title>
<g id="a_node6"><a xlink:title=" ">
<polygon fill="#e0e0e0" stroke="#999999" points="117,-184 85,-184 85,-165 117,-165 117,-184"/>
<text text-anchor="middle" x="101" y="-172" font-family="Helvetica,sans-Serif" font-size="10.00">set</text>
</a>
</g>
</g>
<!-- Node3&#45;&gt;Node6 -->
<g id="edge5" class="edge">
<title>Node3&#45;&gt;Node6</title>
<path fill="none" stroke="#63b8ff" d="M101,-219.75C101,-212.8 101,-202.85 101,-194.13"/>
<polygon fill="#63b8ff" stroke="#63b8ff" points="104.5,-194.09 101,-184.09 97.5,-194.09 104.5,-194.09"/>
</g>
<!-- Node12&#45;&gt;Node8 -->
<g id="edge49" class="edge">
<title>Node12&#45;&gt;Node8</title>
<path fill="none" stroke="#63b8ff" d="M1099.39,-274.77C1078.05,-258.9 1033.1,-226.36 1015,-220 852.17,-162.81 796.77,-209.45 622.41,-183.99"/>
<polygon fill="#63b8ff" stroke="#63b8ff" points="622.8,-180.51 612.39,-182.47 621.75,-187.43 622.8,-180.51"/>
</g>
<!-- Node13 -->
<g id="node13" class="node">
<title>Node13</title>
<g id="a_node13"><a xlink:href="pem_8h.html" target="_top" xlink:title=" ">
<polygon fill="white" stroke="#666666" points="1160,-239 1062,-239 1062,-220 1160,-220 1160,-239"/>
<text text-anchor="middle" x="1111" y="-227" font-family="Helvetica,sans-Serif" font-size="10.00">ccf/crypto/pem.h</text>
</a>
</g>
</g>
<!-- Node12&#45;&gt;Node13 -->
<g id="edge14" class="edge">
<title>Node12&#45;&gt;Node13</title>
<path fill="none" stroke="#63b8ff" d="M1111,-274.75C1111,-267.8 1111,-257.85 1111,-249.13"/>
<polygon fill="#63b8ff" stroke="#63b8ff" points="1114.5,-249.09 1111,-239.09 1107.5,-249.09 1114.5,-249.09"/>
</g>
<!-- Node25 -->
<g id="node25" class="node">
<title>Node25</title>
<g id="a_node25"><a xlink:title=" ">
<polygon fill="#e0e0e0" stroke="#999999" points="1263.5,-74 1184.5,-74 1184.5,-55 1263.5,-55 1263.5,-74"/>
<text text-anchor="middle" x="1224" y="-62" font-family="Helvetica,sans-Serif" font-size="10.00">fmt/format.h</text>
</a>
</g>
</g>
<!-- Node12&#45;&gt;Node25 -->
<g id="edge48" class="edge">
<title>Node12&#45;&gt;Node25</title>
<path fill="none" stroke="#63b8ff" d="M1134.3,-274.9C1209.35,-246.99 1441,-158.98 1460,-129 1464.52,-121.87 1465.39,-116.5 1460,-110 1436.81,-82.03 1335.8,-71.52 1273.69,-67.66"/>
<polygon fill="#63b8ff" stroke="#63b8ff" points="1273.88,-64.16 1263.69,-67.07 1273.47,-71.15 1273.88,-64.16"/>
</g>
<!-- Node30 -->
<g id="node30" class="node">
<title>Node30</title>
<g id="a_node30"><a xlink:title=" ">
<polygon fill="#e0e0e0" stroke="#999999" points="1176,-129 1126,-129 1126,-110 1176,-110 1176,-129"/>
<text text-anchor="middle" x="1151" y="-117" font-family="Helvetica,sans-Serif" font-size="10.00">chrono</text>
</a>
</g>
</g>
<!-- Node12&#45;&gt;Node30 -->
<g id="edge39" class="edge">
<title>Node12&#45;&gt;Node30</title>
<path fill="none" stroke="#63b8ff" d="M1129.67,-274.97C1143.33,-267.59 1160.86,-255.5 1169,-239 1185.2,-206.16 1170.62,-162.48 1159.93,-138.38"/>
<polygon fill="#63b8ff" stroke="#63b8ff" points="1162.97,-136.62 1155.55,-129.06 1156.64,-139.6 1162.97,-136.62"/>
</g>
<!-- Node31 -->
<g id="node31" class="node">
<title>Node31</title>
<g id="a_node31"><a xlink:href="x509__time__fmt_8h.html" target="_top" xlink:title=" ">
<polygon fill="white" stroke="#666666" points="1329,-184 1215,-184 1215,-165 1329,-165 1329,-184"/>
<text text-anchor="middle" x="1272" y="-172" font-family="Helvetica,sans-Serif" font-size="10.00">ds/x509_time_fmt.h</text>
</a>
</g>
</g>
<!-- Node12&#45;&gt;Node31 -->
<g id="edge40" class="edge">
<title>Node12&#45;&gt;Node31</title>
<path fill="none" stroke="#63b8ff" d="M1132.9,-274.86C1151.94,-266.88 1179.87,-254 1202,-239 1222.66,-224.99 1243.49,-205.21 1256.99,-191.46"/>
<polygon fill="#63b8ff" stroke="#63b8ff" points="1259.61,-193.78 1264.03,-184.15 1254.57,-188.92 1259.61,-193.78"/>
</g>
<!-- Node35 -->
<g id="node35" class="node">
<title>Node35</title>
<g id="a_node35"><a xlink:title=" ">
<polygon fill="#e0e0e0" stroke="#999999" points="1381.5,-239 1292.5,-239 1292.5,-220 1381.5,-220 1381.5,-239"/>
<text text-anchor="middle" x="1337" y="-227" font-family="Helvetica,sans-Serif" font-size="10.00">openssl/asn1.h</text>
</a>
</g>
</g>
<!-- Node12&#45;&gt;Node35 -->
<g id="edge50" class="edge">
<title>Node12&#45;&gt;Node35</title>
<path fill="none" stroke="#63b8ff" d="M1147.31,-274.98C1186.24,-265.86 1248.16,-251.33 1290.6,-241.38"/>
<polygon fill="#63b8ff" stroke="#63b8ff" points="1291.47,-244.77 1300.4,-239.08 1289.87,-237.96 1291.47,-244.77"/>
</g>
<!-- Node36 -->
<g id="node36" class="node">
<title>Node36</title>
<g id="a_node36"><a xlink:title=" ">
<polygon fill="#e0e0e0" stroke="#999999" points="1476.5,-239 1399.5,-239 1399.5,-220 1476.5,-220 1476.5,-239"/>
<text text-anchor="middle" x="1438" y="-227" font-family="Helvetica,sans-Serif" font-size="10.00">openssl/ec.h</text>
</a>
</g>
</g>
<!-- Node12&#45;&gt;Node36 -->
<g id="edge51" class="edge">
<title>Node12&#45;&gt;Node36</title>
<path fill="none" stroke="#63b8ff" d="M1166.84,-274.98C1221.18,-266.61 1306.38,-253.28 1389.2,-239.28"/>
<polygon fill="#63b8ff" stroke="#63b8ff" points="1390.01,-242.69 1399.28,-237.57 1388.84,-235.79 1390.01,-242.69"/>
</g>
<!-- Node37 -->
<g id="node37" class="node">
<title>Node37</title>
<g id="a_node37"><a xlink:title=" ">
<polygon fill="#e0e0e0" stroke="#999999" points="1593.5,-239 1494.5,-239 1494.5,-220 1593.5,-220 1593.5,-239"/>
<text text-anchor="middle" x="1544" y="-227" font-family="Helvetica,sans-Serif" font-size="10.00">openssl/engine.h</text>
</a>
</g>
</g>
<!-- Node12&#45;&gt;Node37 -->
<g id="edge52" class="edge">
<title>Node12&#45;&gt;Node37</title>
<path fill="none" stroke="#63b8ff" d="M1167.52,-276.18C1170.73,-275.77 1173.9,-275.38 1177,-275 1311.02,-258.56 1347.24,-257.09 1484.29,-239.19"/>
<polygon fill="#63b8ff" stroke="#63b8ff" points="1484.88,-242.65 1494.34,-237.88 1483.97,-235.71 1484.88,-242.65"/>
</g>
<!-- Node38 -->
<g id="node38" class="node">
<title>Node38</title>
<g id="a_node38"><a xlink:title=" ">
<polygon fill="#e0e0e0" stroke="#999999" points="1690.5,-239 1611.5,-239 1611.5,-220 1690.5,-220 1690.5,-239"/>
<text text-anchor="middle" x="1651" y="-227" font-family="Helvetica,sans-Serif" font-size="10.00">openssl/err.h</text>
</a>
</g>
</g>
<!-- Node12&#45;&gt;Node38 -->
<g id="edge53" class="edge">
<title>Node12&#45;&gt;Node38</title>
<path fill="none" stroke="#63b8ff" d="M1167.51,-276.06C1170.72,-275.69 1173.9,-275.33 1177,-275 1362.71,-255.2 1412.89,-263.3 1601.52,-239.08"/>
<polygon fill="#63b8ff" stroke="#63b8ff" points="1602.02,-242.55 1611.49,-237.79 1601.12,-235.61 1602.02,-242.55"/>
</g>
<!-- Node39 -->
<g id="node39" class="node">
<title>Node39</title>
<g id="a_node39"><a xlink:title=" ">
<polygon fill="#e0e0e0" stroke="#999999" points="1792,-239 1708,-239 1708,-220 1792,-220 1792,-239"/>
<text text-anchor="middle" x="1750" y="-227" font-family="Helvetica,sans-Serif" font-size="10.00">openssl/evp.h</text>
</a>
</g>
</g>
<!-- Node12&#45;&gt;Node39 -->
<g id="edge54" class="edge">
<title>Node12&#45;&gt;Node39</title>
<path fill="none" stroke="#63b8ff" d="M1167.5,-276C1170.71,-275.64 1173.9,-275.31 1177,-275 1405.58,-252.43 1466.91,-266.16 1697.71,-239.17"/>
<polygon fill="#63b8ff" stroke="#63b8ff" points="1698.24,-242.63 1707.76,-237.99 1697.42,-235.68 1698.24,-242.63"/>
</g>
<!-- Node40 -->
<g id="node40" class="node">
<title>Node40</title>
<g id="a_node40"><a xlink:title=" ">
<polygon fill="#e0e0e0" stroke="#999999" points="680,-239 592,-239 592,-220 680,-220 680,-239"/>
<text text-anchor="middle" x="636" y="-227" font-family="Helvetica,sans-Serif" font-size="10.00">openssl/pem.h</text>
</a>
</g>
</g>
<!-- Node12&#45;&gt;Node40 -->
<g id="edge55" class="edge">
<title>Node12&#45;&gt;Node40</title>
<path fill="none" stroke="#63b8ff" d="M1054.23,-278.49C975.08,-271.3 826.82,-257.03 690.44,-239.13"/>
<polygon fill="#63b8ff" stroke="#63b8ff" points="690.59,-235.62 680.22,-237.77 689.67,-242.56 690.59,-235.62"/>
</g>
<!-- Node41 -->
<g id="node41" class="node">
<title>Node41</title>
<g id="a_node41"><a xlink:title=" ">
<polygon fill="#e0e0e0" stroke="#999999" points="778,-239 698,-239 698,-220 778,-220 778,-239"/>
<text text-anchor="middle" x="738" y="-227" font-family="Helvetica,sans-Serif" font-size="10.00">openssl/ssl.h</text>
</a>
</g>
</g>
<!-- Node12&#45;&gt;Node41 -->
<g id="edge56" class="edge">
<title>Node12&#45;&gt;Node41</title>
<path fill="none" stroke="#63b8ff" d="M1054.43,-276.34C991.79,-268.28 887.54,-254.46 788.02,-239.11"/>
<polygon fill="#63b8ff" stroke="#63b8ff" points="788.51,-235.65 778.09,-237.57 787.44,-242.56 788.51,-235.65"/>
</g>
<!-- Node42 -->
<g id="node42" class="node">
<title>Node42</title>
<g id="a_node42"><a xlink:title=" ">
<polygon fill="#e0e0e0" stroke="#999999" points="886,-239 796,-239 796,-220 886,-220 886,-239"/>
<text text-anchor="middle" x="841" y="-227" font-family="Helvetica,sans-Serif" font-size="10.00">openssl/x509.h</text>
</a>
</g>
</g>
<!-- Node12&#45;&gt;Node42 -->
<g id="edge57" class="edge">
<title>Node12&#45;&gt;Node42</title>
<path fill="none" stroke="#63b8ff" d="M1067.62,-274.98C1020.62,-265.76 945.57,-251.03 894.84,-241.07"/>
<polygon fill="#63b8ff" stroke="#63b8ff" points="895.21,-237.57 884.72,-239.08 893.86,-244.44 895.21,-237.57"/>
</g>
<!-- Node43 -->
<g id="node43" class="node">
<title>Node43</title>
<g id="a_node43"><a xlink:title=" ">
<polygon fill="#e0e0e0" stroke="#999999" points="1006,-239 904,-239 904,-220 1006,-220 1006,-239"/>
<text text-anchor="middle" x="955" y="-227" font-family="Helvetica,sans-Serif" font-size="10.00">openssl/x509v3.h</text>
</a>
</g>
</g>
<!-- Node12&#45;&gt;Node43 -->
<g id="edge58" class="edge">
<title>Node12&#45;&gt;Node43</title>
<path fill="none" stroke="#63b8ff" d="M1085.94,-274.98C1059.97,-266.16 1019.19,-252.31 990.04,-242.41"/>
<polygon fill="#63b8ff" stroke="#63b8ff" points="990.85,-238.99 980.26,-239.08 988.6,-245.61 990.85,-238.99"/>
</g>
<!-- Node13&#45;&gt;Node5 -->
<g id="edge33" class="edge">
<title>Node13&#45;&gt;Node5</title>
<path fill="none" stroke="#63b8ff" d="M1061.69,-223.81C1046.71,-222.47 1030.19,-221.08 1015,-220 711.57,-198.34 344.31,-181.87 230.4,-176.99"/>
<polygon fill="#63b8ff" stroke="#63b8ff" points="230.32,-173.48 220.18,-176.55 230.02,-180.48 230.32,-173.48"/>
</g>
<!-- Node13&#45;&gt;Node8 -->
<g id="edge35" class="edge">
<title>Node13&#45;&gt;Node8</title>
<path fill="none" stroke="#63b8ff" d="M1061.85,-221.63C1057.17,-221.05 1052.5,-220.49 1048,-220 861.92,-199.62 810.98,-212.4 622.35,-184.01"/>
<polygon fill="#63b8ff" stroke="#63b8ff" points="622.8,-180.53 612.38,-182.49 621.74,-187.45 622.8,-180.53"/>
</g>
<!-- Node13&#45;&gt;Node11 -->
<g id="edge38" class="edge">
<title>Node13&#45;&gt;Node11</title>
<path fill="none" stroke="#63b8ff" d="M1070.28,-219.95C973.96,-198.77 737.18,-140.7 697,-74 687.82,-58.76 698.54,-39.98 709.27,-26.81"/>
<polygon fill="#63b8ff" stroke="#63b8ff" points="712.11,-28.87 716.1,-19.05 706.86,-24.24 712.11,-28.87"/>
</g>
<!-- Node14 -->
<g id="node14" class="node">
<title>Node14</title>
<g id="a_node14"><a xlink:href="json_8h.html" target="_top" xlink:title=" ">
<polygon fill="white" stroke="#666666" points="1061.5,-184 984.5,-184 984.5,-165 1061.5,-165 1061.5,-184"/>
<text text-anchor="middle" x="1023" y="-172" font-family="Helvetica,sans-Serif" font-size="10.00">ccf/ds/json.h</text>
</a>
</g>
</g>
<!-- Node13&#45;&gt;Node14 -->
<g id="edge15" class="edge">
<title>Node13&#45;&gt;Node14</title>
<path fill="none" stroke="#63b8ff" d="M1096.86,-219.98C1083.21,-211.77 1062.31,-199.18 1046.22,-189.49"/>
<polygon fill="#63b8ff" stroke="#63b8ff" points="1047.77,-186.33 1037.4,-184.17 1044.16,-192.33 1047.77,-186.33"/>
</g>
<!-- Node22 -->
<g id="node22" class="node">
<title>Node22</title>
<g id="a_node22"><a xlink:title=" ">
<polygon fill="#e0e0e0" stroke="#999999" points="1461.5,-19 1388.5,-19 1388.5,0 1461.5,0 1461.5,-19"/>
<text text-anchor="middle" x="1425" y="-7" font-family="Helvetica,sans-Serif" font-size="10.00">string_view</text>
</a>
</g>
</g>
<!-- Node13&#45;&gt;Node22 -->
<g id="edge37" class="edge">
<title>Node13&#45;&gt;Node22</title>
<path fill="none" stroke="#63b8ff" d="M1160.07,-222.38C1248.21,-210.21 1427.26,-179.67 1460,-129 1480.85,-96.73 1455.39,-51.6 1438.22,-27.41"/>
<polygon fill="#63b8ff" stroke="#63b8ff" points="1440.92,-25.18 1432.15,-19.24 1435.3,-29.35 1440.92,-25.18"/>
</g>
<!-- Node28 -->
<g id="node28" class="node">
<title>Node28</title>
<g id="a_node28"><a xlink:title=" ">
<polygon fill="#e0e0e0" stroke="#999999" points="1144.5,-184 1079.5,-184 1079.5,-165 1144.5,-165 1144.5,-184"/>
<text text-anchor="middle" x="1112" y="-172" font-family="Helvetica,sans-Serif" font-size="10.00">exception</text>
</a>
</g>
</g>
<!-- Node13&#45;&gt;Node28 -->
<g id="edge34" class="edge">
<title>Node13&#45;&gt;Node28</title>
<path fill="none" stroke="#63b8ff" d="M1111.17,-219.75C1111.3,-212.8 1111.48,-202.85 1111.65,-194.13"/>
<polygon fill="#63b8ff" stroke="#63b8ff" points="1115.15,-194.15 1111.84,-184.09 1108.15,-194.02 1115.15,-194.15"/>
</g>
<!-- Node29 -->
<g id="node29" class="node">
<title>Node29</title>
<g id="a_node29"><a xlink:title=" ">
<polygon fill="#e0e0e0" stroke="#999999" points="670,-184 630,-184 630,-165 670,-165 670,-184"/>
<text text-anchor="middle" x="650" y="-172" font-family="Helvetica,sans-Serif" font-size="10.00">span</text>
</a>
</g>
</g>
<!-- Node13&#45;&gt;Node29 -->
<g id="edge36" class="edge">
<title>Node13&#45;&gt;Node29</title>
<path fill="none" stroke="#63b8ff" d="M1061.84,-221.7C1057.17,-221.1 1052.49,-220.53 1048,-220 886.53,-201.13 844.17,-211.79 684,-184 682.72,-183.78 681.41,-183.53 680.1,-183.27"/>
<polygon fill="#63b8ff" stroke="#63b8ff" points="680.55,-179.79 670.03,-181.03 679.03,-186.62 680.55,-179.79"/>
</g>
<!-- Node15 -->
<g id="node15" class="node">
<title>Node15</title>
<g id="a_node15"><a xlink:href="include_2ccf_2crypto_2base64_8h.html" target="_top" xlink:title=" ">
<polygon fill="white" stroke="#666666" points="818,-74 706,-74 706,-55 818,-55 818,-74"/>
<text text-anchor="middle" x="762" y="-62" font-family="Helvetica,sans-Serif" font-size="10.00">ccf/crypto/base64.h</text>
</a>
</g>
</g>
<!-- Node14&#45;&gt;Node15 -->
<g id="edge16" class="edge">
<title>Node14&#45;&gt;Node15</title>
<path fill="none" stroke="#63b8ff" d="M984.42,-170.26C944.36,-165.63 880.85,-154.61 832,-129 809.65,-117.28 788.89,-96.72 775.87,-82.18"/>
<polygon fill="#63b8ff" stroke="#63b8ff" points="778.34,-79.68 769.15,-74.42 773.05,-84.27 778.34,-79.68"/>
</g>
<!-- Node17 -->
<g id="node17" class="node">
<title>Node17</title>
<g id="a_node17"><a xlink:href="include_2ccf_2ds_2json__schema_8h.html" target="_top" xlink:title=" ">
<polygon fill="white" stroke="#666666" points="995.5,-129 874.5,-129 874.5,-110 995.5,-110 995.5,-129"/>
<text text-anchor="middle" x="935" y="-117" font-family="Helvetica,sans-Serif" font-size="10.00">ccf/ds/json_schema.h</text>
</a>
</g>
</g>
<!-- Node14&#45;&gt;Node17 -->
<g id="edge19" class="edge">
<title>Node14&#45;&gt;Node17</title>
<path fill="none" stroke="#63b8ff" d="M1008.86,-164.98C995.21,-156.77 974.31,-144.18 958.22,-134.49"/>
<polygon fill="#63b8ff" stroke="#63b8ff" points="959.77,-131.33 949.4,-129.17 956.16,-137.33 959.77,-131.33"/>
</g>
<!-- Node14&#45;&gt;Node25 -->
<g id="edge31" class="edge">
<title>Node14&#45;&gt;Node25</title>
<path fill="none" stroke="#63b8ff" d="M1023.18,-164.71C1023.94,-150.99 1027.49,-124.55 1043,-110 1052.66,-100.94 1123.99,-85.27 1174.17,-75.15"/>
<polygon fill="#63b8ff" stroke="#63b8ff" points="1175.09,-78.53 1184.21,-73.14 1173.71,-71.67 1175.09,-78.53"/>
</g>
<!-- Node27 -->
<g id="node27" class="node">
<title>Node27</title>
<g id="a_node27"><a xlink:title=" ">
<polygon fill="#e0e0e0" stroke="#999999" points="1108,-129 1052,-129 1052,-110 1108,-110 1108,-129"/>
<text text-anchor="middle" x="1080" y="-117" font-family="Helvetica,sans-Serif" font-size="10.00">sstream</text>
</a>
</g>
</g>
<!-- Node14&#45;&gt;Node27 -->
<g id="edge32" class="edge">
<title>Node14&#45;&gt;Node27</title>
<path fill="none" stroke="#63b8ff" d="M1032.16,-164.98C1040.5,-157.23 1053.03,-145.58 1063.18,-136.14"/>
<polygon fill="#63b8ff" stroke="#63b8ff" points="1065.74,-138.54 1070.68,-129.17 1060.97,-133.42 1065.74,-138.54"/>
</g>
<!-- Node15&#45;&gt;Node11 -->
<g id="edge18" class="edge">
<title>Node15&#45;&gt;Node11</title>
<path fill="none" stroke="#63b8ff" d="M755.89,-54.75C750.72,-47.34 743.15,-36.5 736.81,-27.41"/>
<polygon fill="#63b8ff" stroke="#63b8ff" points="739.59,-25.29 731,-19.09 733.85,-29.29 739.59,-25.29"/>
</g>
<!-- Node16 -->
<g id="node16" class="node">
<title>Node16</title>
<g id="a_node16"><a xlink:title=" ">
<polygon fill="#e0e0e0" stroke="#999999" points="821,-19 777,-19 777,0 821,0 821,-19"/>
<text text-anchor="middle" x="799" y="-7" font-family="Helvetica,sans-Serif" font-size="10.00">string</text>
</a>
</g>
</g>
<!-- Node15&#45;&gt;Node16 -->
<g id="edge17" class="edge">
<title>Node15&#45;&gt;Node16</title>
<path fill="none" stroke="#63b8ff" d="M768.11,-54.75C773.28,-47.34 780.85,-36.5 787.19,-27.41"/>
<polygon fill="#63b8ff" stroke="#63b8ff" points="790.15,-29.29 793,-19.09 784.41,-25.29 790.15,-29.29"/>
</g>
<!-- Node18 -->
<g id="node18" class="node">
<title>Node18</title>
<g id="a_node18"><a xlink:href="nonstd_8h.html" target="_top" xlink:title=" ">
<polygon fill="white" stroke="#666666" points="1166,-74 1076,-74 1076,-55 1166,-55 1166,-74"/>
<text text-anchor="middle" x="1121" y="-62" font-family="Helvetica,sans-Serif" font-size="10.00">ccf/ds/nonstd.h</text>
</a>
</g>
</g>
<!-- Node17&#45;&gt;Node18 -->
<g id="edge20" class="edge">
<title>Node17&#45;&gt;Node18</title>
<path fill="none" stroke="#63b8ff" d="M964.88,-109.98C996.38,-101.01 1046.17,-86.82 1081.03,-76.89"/>
<polygon fill="#63b8ff" stroke="#63b8ff" points="1082.22,-80.19 1090.88,-74.08 1080.31,-73.46 1082.22,-80.19"/>
</g>
<!-- Node24 -->
<g id="node24" class="node">
<title>Node24</title>
<g id="a_node24"><a xlink:title=" ">
<polygon fill="#e0e0e0" stroke="#999999" points="930,-74 874,-74 874,-55 930,-55 930,-74"/>
<text text-anchor="middle" x="902" y="-62" font-family="Helvetica,sans-Serif" font-size="10.00">optional</text>
</a>
</g>
</g>
<!-- Node17&#45;&gt;Node24 -->
<g id="edge28" class="edge">
<title>Node17&#45;&gt;Node24</title>
<path fill="none" stroke="#63b8ff" d="M929.55,-109.75C924.99,-102.42 918.33,-91.73 912.71,-82.7"/>
<polygon fill="#63b8ff" stroke="#63b8ff" points="915.6,-80.73 907.35,-74.09 909.66,-84.43 915.6,-80.73"/>
</g>
<!-- Node17&#45;&gt;Node25 -->
<g id="edge29" class="edge">
<title>Node17&#45;&gt;Node25</title>
<path fill="none" stroke="#63b8ff" d="M981.43,-109.98C1034.2,-100.31 1119.99,-84.57 1174.14,-74.64"/>
<polygon fill="#63b8ff" stroke="#63b8ff" points="1174.99,-78.05 1184.19,-72.8 1173.73,-71.16 1174.99,-78.05"/>
</g>
<!-- Node26 -->
<g id="node26" class="node">
<title>Node26</title>
<g id="a_node26"><a xlink:title=" ">
<polygon fill="#e0e0e0" stroke="#999999" points="1058,-74 948,-74 948,-55 1058,-55 1058,-74"/>
<text text-anchor="middle" x="1003" y="-62" font-family="Helvetica,sans-Serif" font-size="10.00">nlohmann/json.hpp</text>
</a>
</g>
</g>
<!-- Node17&#45;&gt;Node26 -->
<g id="edge30" class="edge">
<title>Node17&#45;&gt;Node26</title>
<path fill="none" stroke="#63b8ff" d="M945.93,-109.98C956.08,-102.07 971.42,-90.11 983.65,-80.58"/>
<polygon fill="#63b8ff" stroke="#63b8ff" points="986.14,-83.08 991.88,-74.17 981.84,-77.56 986.14,-83.08"/>
</g>
<!-- Node18&#45;&gt;Node11 -->
<g id="edge27" class="edge">
<title>Node18&#45;&gt;Node11</title>
<path fill="none" stroke="#63b8ff" d="M1075.94,-56.28C1072.91,-55.84 1069.91,-55.4 1067,-55 934.42,-36.59 900.19,-39.99 768,-19 764.94,-18.51 761.77,-17.97 758.6,-17.39"/>
<polygon fill="#63b8ff" stroke="#63b8ff" points="759.08,-13.92 748.6,-15.5 757.77,-20.8 759.08,-13.92"/>
</g>
<!-- Node18&#45;&gt;Node16 -->
<g id="edge24" class="edge">
<title>Node18&#45;&gt;Node16</title>
<path fill="none" stroke="#63b8ff" d="M1075.89,-56.07C1009.9,-45.21 888.65,-25.26 831.03,-15.77"/>
<polygon fill="#63b8ff" stroke="#63b8ff" points="831.48,-12.3 821.04,-14.13 830.34,-19.21 831.48,-12.3"/>
</g>
<!-- Node19 -->
<g id="node19" class="node">
<title>Node19</title>
<g id="a_node19"><a xlink:title=" ">
<polygon fill="#e0e0e0" stroke="#999999" points="1117,-19 1053,-19 1053,0 1117,0 1117,-19"/>
<text text-anchor="middle" x="1085" y="-7" font-family="Helvetica,sans-Serif" font-size="10.00">algorithm</text>
</a>
</g>
</g>
<!-- Node18&#45;&gt;Node19 -->
<g id="edge21" class="edge">
<title>Node18&#45;&gt;Node19</title>
<path fill="none" stroke="#63b8ff" d="M1115.06,-54.75C1110.02,-47.34 1102.66,-36.5 1096.49,-27.41"/>
<polygon fill="#63b8ff" stroke="#63b8ff" points="1099.35,-25.39 1090.83,-19.09 1093.56,-29.33 1099.35,-25.39"/>
</g>
<!-- Node20 -->
<g id="node20" class="node">
<title>Node20</title>
<g id="a_node20"><a xlink:title=" ">
<polygon fill="#e0e0e0" stroke="#999999" points="1177,-19 1135,-19 1135,0 1177,0 1177,-19"/>
<text text-anchor="middle" x="1156" y="-7" font-family="Helvetica,sans-Serif" font-size="10.00">array</text>
</a>
</g>
</g>
<!-- Node18&#45;&gt;Node20 -->
<g id="edge22" class="edge">
<title>Node18&#45;&gt;Node20</title>
<path fill="none" stroke="#63b8ff" d="M1126.78,-54.75C1131.62,-47.42 1138.68,-36.73 1144.64,-27.7"/>
<polygon fill="#63b8ff" stroke="#63b8ff" points="1147.74,-29.36 1150.33,-19.09 1141.9,-25.5 1147.74,-29.36"/>
</g>
<!-- Node21 -->
<g id="node21" class="node">
<title>Node21</title>
<g id="a_node21"><a xlink:title=" ">
<polygon fill="#e0e0e0" stroke="#999999" points="1244.5,-19 1195.5,-19 1195.5,0 1244.5,0 1244.5,-19"/>
<text text-anchor="middle" x="1220" y="-7" font-family="Helvetica,sans-Serif" font-size="10.00">cctype</text>
</a>
</g>
</g>
<!-- Node18&#45;&gt;Node21 -->
<g id="edge23" class="edge">
<title>Node18&#45;&gt;Node21</title>
<path fill="none" stroke="#63b8ff" d="M1136.91,-54.98C1152.55,-46.61 1176.66,-33.7 1194.88,-23.95"/>
<polygon fill="#63b8ff" stroke="#63b8ff" points="1196.64,-26.98 1203.8,-19.17 1193.34,-20.8 1196.64,-26.98"/>
</g>
<!-- Node18&#45;&gt;Node22 -->
<g id="edge25" class="edge">
<title>Node18&#45;&gt;Node22</title>
<path fill="none" stroke="#63b8ff" d="M1166.18,-55.62C1223.14,-45.69 1320.54,-28.71 1378.23,-18.65"/>
<polygon fill="#63b8ff" stroke="#63b8ff" points="1378.93,-22.09 1388.18,-16.92 1377.72,-15.19 1378.93,-22.09"/>
</g>
<!-- Node23 -->
<g id="node23" class="node">
<title>Node23</title>
<g id="a_node23"><a xlink:title=" ">
<polygon fill="#e0e0e0" stroke="#999999" points="1034.5,-19 965.5,-19 965.5,0 1034.5,0 1034.5,-19"/>
<text text-anchor="middle" x="1000" y="-7" font-family="Helvetica,sans-Serif" font-size="10.00">type_traits</text>
</a>
</g>
</g>
<!-- Node18&#45;&gt;Node23 -->
<g id="edge26" class="edge">
<title>Node18&#45;&gt;Node23</title>
<path fill="none" stroke="#63b8ff" d="M1101.56,-54.98C1082.01,-46.42 1051.62,-33.11 1029.18,-23.28"/>
<polygon fill="#63b8ff" stroke="#63b8ff" points="1030.36,-19.98 1019.79,-19.17 1027.55,-26.39 1030.36,-19.98"/>
</g>
<!-- Node31&#45;&gt;Node11 -->
<g id="edge47" class="edge">
<title>Node31&#45;&gt;Node11</title>
<path fill="none" stroke="#63b8ff" d="M1214.86,-168.69C1106.19,-159.34 879.22,-138.78 865,-129 834.54,-108.04 853.95,-80.31 827,-55 807.79,-36.96 780.09,-25.51 758.41,-18.75"/>
<polygon fill="#63b8ff" stroke="#63b8ff" points="759.2,-15.34 748.61,-15.89 757.23,-22.05 759.2,-15.34"/>
</g>
<!-- Node31&#45;&gt;Node25 -->
<g id="edge43" class="edge">
<title>Node31&#45;&gt;Node25</title>
<path fill="none" stroke="#63b8ff" d="M1257.63,-164.96C1246.13,-157.21 1230.82,-144.62 1224,-129 1217.86,-114.93 1218.4,-97.39 1220.17,-84.31"/>
<polygon fill="#63b8ff" stroke="#63b8ff" points="1223.67,-84.6 1221.9,-74.16 1216.77,-83.43 1223.67,-84.6"/>
</g>
<!-- Node31&#45;&gt;Node27 -->
<g id="edge45" class="edge">
<title>Node31&#45;&gt;Node27</title>
<path fill="none" stroke="#63b8ff" d="M1241.15,-164.98C1207.63,-155.73 1154.03,-140.94 1117.95,-130.98"/>
<polygon fill="#63b8ff" stroke="#63b8ff" points="1118.84,-127.59 1108.27,-128.3 1116.98,-134.34 1118.84,-127.59"/>
</g>
<!-- Node31&#45;&gt;Node30 -->
<g id="edge41" class="edge">
<title>Node31&#45;&gt;Node30</title>
<path fill="none" stroke="#63b8ff" d="M1252.56,-164.98C1233.01,-156.42 1202.62,-143.11 1180.18,-133.28"/>
<polygon fill="#63b8ff" stroke="#63b8ff" points="1181.36,-129.98 1170.79,-129.17 1178.55,-136.39 1181.36,-129.98"/>
</g>
<!-- Node32 -->
<g id="node32" class="node">
<title>Node32</title>
<g id="a_node32"><a xlink:title=" ">
<polygon fill="#e0e0e0" stroke="#999999" points="1311.5,-129 1232.5,-129 1232.5,-110 1311.5,-110 1311.5,-129"/>
<text text-anchor="middle" x="1272" y="-117" font-family="Helvetica,sans-Serif" font-size="10.00">fmt/chrono.h</text>
</a>
</g>
</g>
<!-- Node31&#45;&gt;Node32 -->
<g id="edge42" class="edge">
<title>Node31&#45;&gt;Node32</title>
<path fill="none" stroke="#63b8ff" d="M1272,-164.75C1272,-157.8 1272,-147.85 1272,-139.13"/>
<polygon fill="#63b8ff" stroke="#63b8ff" points="1275.5,-139.09 1272,-129.09 1268.5,-139.09 1275.5,-139.09"/>
</g>
<!-- Node33 -->
<g id="node33" class="node">
<title>Node33</title>
<g id="a_node33"><a xlink:title=" ">
<polygon fill="#e0e0e0" stroke="#999999" points="1385,-129 1329,-129 1329,-110 1385,-110 1385,-129"/>
<text text-anchor="middle" x="1357" y="-117" font-family="Helvetica,sans-Serif" font-size="10.00">iomanip</text>
</a>
</g>
</g>
<!-- Node31&#45;&gt;Node33 -->
<g id="edge44" class="edge">
<title>Node31&#45;&gt;Node33</title>
<path fill="none" stroke="#63b8ff" d="M1285.66,-164.98C1298.84,-156.77 1319.03,-144.18 1334.57,-134.49"/>
<polygon fill="#63b8ff" stroke="#63b8ff" points="1336.46,-137.43 1343.09,-129.17 1332.76,-131.49 1336.46,-137.43"/>
</g>
<!-- Node34 -->
<g id="node34" class="node">
<title>Node34</title>
<g id="a_node34"><a xlink:title=" ">
<polygon fill="#e0e0e0" stroke="#999999" points="1451,-129 1403,-129 1403,-110 1451,-110 1451,-129"/>
<text text-anchor="middle" x="1427" y="-117" font-family="Helvetica,sans-Serif" font-size="10.00">time.h</text>
</a>
</g>
</g>
<!-- Node31&#45;&gt;Node34 -->
<g id="edge46" class="edge">
<title>Node31&#45;&gt;Node34</title>
<path fill="none" stroke="#63b8ff" d="M1296.9,-164.98C1323.01,-156.06 1364.18,-141.98 1393.21,-132.05"/>
<polygon fill="#63b8ff" stroke="#63b8ff" points="1394.59,-135.28 1402.92,-128.73 1392.33,-128.66 1394.59,-135.28"/>
</g>
</g>
</svg>
        <g id="navigator" transform="translate(0 0)" fill="#404254">
                <rect fill="#f2f5e9" fill-opacity="0.5" stroke="#606060" stroke-width=".5" x="0" y="0" width="60" height="60"/>
                <use id="zoomplus" xlink:href="#zoomPlus" x="17" y="9" onmousedown="handleZoom(evt,'in')"/>
                <use id="zoomminus" xlink:href="#zoomMin" x="42" y="9" onmousedown="handleZoom(evt,'out')"/>
                <use id="reset" xlink:href="#resetDef" x="30" y="36" onmousedown="handleReset()"/>
                <g id="arrowUp" xlink:href="#dirArrow" transform="translate(30 24)" onmousedown="handlePan(0,-1)">
                  <use xlink:href="#rim" fill="#404040">
                        <set attributeName="fill" to="#808080" begin="arrowUp.mouseover" end="arrowUp.mouseout"/>
                  </use>
                  <path fill="none" stroke="white" stroke-width="1.5" d="M0,-3.0v7 M-2.5,-0.5L0,-3.0L2.5,-0.5"/>
                </g>
                <g id="arrowRight" xlink:href="#dirArrow" transform="rotate(90) translate(36 -43)" onmousedown="handlePan(1,0)">
                  <use xlink:href="#rim" fill="#404040">
                        <set attributeName="fill" to="#808080" begin="arrowRight.mouseover" end="arrowRight.mouseout"/>
                  </use>
                  <path fill="none" stroke="white" stroke-width="1.5" d="M0,-3.0v7 M-2.5,-0.5L0,-3.0L2.5,-0.5"/>
                </g>
                <g id="arrowDown" xlink:href="#dirArrow" transform="rotate(180) translate(-30 -48)" onmousedown="handlePan(0,1)">
                  <use xlink:href="#rim" fill="#404040">
                        <set attributeName="fill" to="#808080" begin="arrowDown.mouseover" end="arrowDown.mouseout"/>
                  </use>
                  <path fill="none" stroke="white" stroke-width="1.5" d="M0,-3.0v7 M-2.5,-0.5L0,-3.0L2.5,-0.5"/>
                </g>
                <g id="arrowLeft" xlink:href="#dirArrow" transform="rotate(270) translate(-36 17)" onmousedown="handlePan(-1,0)">
                  <use xlink:href="#rim" fill="#404040">
                        <set attributeName="fill" to="#808080" begin="arrowLeft.mouseover" end="arrowLeft.mouseout"/>
                  </use>
                  <path fill="none" stroke="white" stroke-width="1.5" d="M0,-3.0v7 M-2.5,-0.5L0,-3.0L2.5,-0.5"/>
                </g>
        </g>
        <svg viewBox="0 0 15 15" width="100%" height="30px" preserveAspectRatio="xMaxYMin meet">
         <g id="arrow_out" transform="scale(0.3 0.3)">
          <a xlink:href="src_2crypto_2openssl_2entropy_8h__incl_org.svg" target="_base">
           <rect id="button" ry="5" rx="5" y="6" x="6" height="38" width="38"
                fill="#f2f5e9" fill-opacity="0.5" stroke="#606060" stroke-width="1.0"/>
           <path id="arrow"
             d="M 11.500037,31.436501 C 11.940474,20.09759 22.043105,11.32322 32.158766,21.979434 L 37.068811,17.246167 C 37.068811,17.246167 37.088388,32 37.088388,32 L 22.160133,31.978069 C 22.160133,31.978069 26.997745,27.140456 26.997745,27.140456 C 18.528582,18.264221 13.291696,25.230495 11.500037,31.436501 z"
             style="fill:#404040;"/>
          </a>
         </g>
        </svg>
</svg>
