<?xml version="1.0" encoding="UTF-8" standalone="no"?>
<!DOCTYPE svg PUBLIC "-//W3C//DTD SVG 1.1//EN"
 "http://www.w3.org/Graphics/SVG/1.1/DTD/svg11.dtd">
<!-- Generated by graphviz version 2.43.0 (0)
 -->
<!-- Title: src/ds/std_formatters.h Pages: 1 -->
<svg width="252pt" height="368pt"
 viewBox="0.00 0.00 252.00 368.00" xmlns="http://www.w3.org/2000/svg" xmlns:xlink="http://www.w3.org/1999/xlink">
<g id="graph0" class="graph" transform="scale(1 1) rotate(0) translate(4 364)">
<title>src/ds/std_formatters.h</title>
<!-- Node1 -->
<g id="node1" class="node">
<title>Node1</title>
<g id="a_node1"><a xlink:title=" ">
<polygon fill="#999999" stroke="#666666" points="143.5,-360 14.5,-360 14.5,-341 143.5,-341 143.5,-360"/>
<text text-anchor="middle" x="79" y="-348" font-family="Helvetica,sans-Serif" font-size="10.00">src/ds/std_formatters.h</text>
</a>
</g>
</g>
<!-- Node2 -->
<g id="node2" class="node">
<title>Node2</title>
<g id="a_node2"><a xlink:href="node__frontend_8h.html" target="_top" xlink:title=" ">
<polygon fill="white" stroke="#666666" points="158,-305 0,-305 0,-286 158,-286 158,-305"/>
<text text-anchor="middle" x="79" y="-293" font-family="Helvetica,sans-Serif" font-size="10.00">src/node/rpc/node_frontend.h</text>
</a>
</g>
</g>
<!-- Node1&#45;&gt;Node2 -->
<g id="edge1" class="edge">
<title>Node1&#45;&gt;Node2</title>
<path fill="none" stroke="#63b8ff" d="M79,-330.66C79,-321.93 79,-311.99 79,-305.09"/>
<polygon fill="#63b8ff" stroke="#63b8ff" points="75.5,-330.75 79,-340.75 82.5,-330.75 75.5,-330.75"/>
</g>
<!-- Node3 -->
<g id="node3" class="node">
<title>Node3</title>
<g id="a_node3"><a xlink:href="src_2enclave_2enclave_8h.html" target="_top" xlink:title=" ">
<polygon fill="white" stroke="#666666" points="133,-74 11,-74 11,-55 133,-55 133,-74"/>
<text text-anchor="middle" x="72" y="-62" font-family="Helvetica,sans-Serif" font-size="10.00">src/enclave/enclave.h</text>
</a>
</g>
</g>
<!-- Node2&#45;&gt;Node3 -->
<g id="edge2" class="edge">
<title>Node2&#45;&gt;Node3</title>
<path fill="none" stroke="#63b8ff" d="M66.76,-277.54C61.75,-269.59 56.55,-259.74 54,-250 36.73,-183.99 60.41,-100.78 69.06,-74.13"/>
<polygon fill="#63b8ff" stroke="#63b8ff" points="63.89,-279.54 72.37,-285.88 69.69,-275.63 63.89,-279.54"/>
</g>
<!-- Node5 -->
<g id="node5" class="node">
<title>Node5</title>
<g id="a_node5"><a xlink:href="jwt__key__auto__refresh_8h.html" target="_top" xlink:title=" ">
<polygon fill="white" stroke="#666666" points="187.5,-250 62.5,-250 62.5,-220 187.5,-220 187.5,-250"/>
<text text-anchor="start" x="70.5" y="-238" font-family="Helvetica,sans-Serif" font-size="10.00">src/node/jwt_key_auto</text>
<text text-anchor="middle" x="125" y="-227" font-family="Helvetica,sans-Serif" font-size="10.00">_refresh.h</text>
</a>
</g>
</g>
<!-- Node2&#45;&gt;Node5 -->
<g id="edge4" class="edge">
<title>Node2&#45;&gt;Node5</title>
<path fill="none" stroke="#63b8ff" d="M92.07,-277.88C98.96,-269.11 107.33,-258.48 113.9,-250.11"/>
<polygon fill="#63b8ff" stroke="#63b8ff" points="89.22,-275.84 85.79,-285.87 94.72,-280.17 89.22,-275.84"/>
</g>
<!-- Node4 -->
<g id="node4" class="node">
<title>Node4</title>
<g id="a_node4"><a xlink:href="enclave_2main_8cpp.html" target="_top" xlink:title=" ">
<polygon fill="white" stroke="#666666" points="132,-19 12,-19 12,0 132,0 132,-19"/>
<text text-anchor="middle" x="72" y="-7" font-family="Helvetica,sans-Serif" font-size="10.00">src/enclave/main.cpp</text>
</a>
</g>
</g>
<!-- Node3&#45;&gt;Node4 -->
<g id="edge3" class="edge">
<title>Node3&#45;&gt;Node4</title>
<path fill="none" stroke="#63b8ff" d="M72,-44.66C72,-35.93 72,-25.99 72,-19.09"/>
<polygon fill="#63b8ff" stroke="#63b8ff" points="68.5,-44.75 72,-54.75 75.5,-44.75 68.5,-44.75"/>
</g>
<!-- Node6 -->
<g id="node6" class="node">
<title>Node6</title>
<g id="a_node6"><a xlink:href="node__state_8h.html" target="_top" xlink:title=" ">
<polygon fill="white" stroke="#666666" points="187,-184 63,-184 63,-165 187,-165 187,-184"/>
<text text-anchor="middle" x="125" y="-172" font-family="Helvetica,sans-Serif" font-size="10.00">src/node/node_state.h</text>
</a>
</g>
</g>
<!-- Node5&#45;&gt;Node6 -->
<g id="edge5" class="edge">
<title>Node5&#45;&gt;Node6</title>
<path fill="none" stroke="#63b8ff" d="M125,-209.75C125,-200.72 125,-191.03 125,-184.27"/>
<polygon fill="#63b8ff" stroke="#63b8ff" points="121.5,-209.84 125,-219.84 128.5,-209.84 121.5,-209.84"/>
</g>
<!-- Node6&#45;&gt;Node3 -->
<g id="edge6" class="edge">
<title>Node6&#45;&gt;Node3</title>
<path fill="none" stroke="#63b8ff" d="M110.22,-157.15C103.59,-149.13 96.13,-139.05 91,-129 81.59,-110.55 76.02,-86.65 73.54,-74.09"/>
<polygon fill="#63b8ff" stroke="#63b8ff" points="107.76,-159.65 116.94,-164.95 113.06,-155.09 107.76,-159.65"/>
</g>
<!-- Node7 -->
<g id="node7" class="node">
<title>Node7</title>
<g id="a_node7"><a xlink:href="gov__effects_8h.html" target="_top" xlink:title=" ">
<polygon fill="white" stroke="#666666" points="244,-129 100,-129 100,-110 244,-110 244,-129"/>
<text text-anchor="middle" x="172" y="-117" font-family="Helvetica,sans-Serif" font-size="10.00">src/node/rpc/gov_effects.h</text>
</a>
</g>
</g>
<!-- Node6&#45;&gt;Node7 -->
<g id="edge7" class="edge">
<title>Node6&#45;&gt;Node7</title>
<path fill="none" stroke="#63b8ff" d="M139.42,-157.24C147.66,-147.95 157.65,-136.68 164.38,-129.09"/>
<polygon fill="#63b8ff" stroke="#63b8ff" points="136.78,-154.94 132.76,-164.75 142.01,-159.59 136.78,-154.94"/>
</g>
<!-- Node7&#45;&gt;Node3 -->
<g id="edge8" class="edge">
<title>Node7&#45;&gt;Node3</title>
<path fill="none" stroke="#63b8ff" d="M146.97,-105.23C128.63,-95.51 104.26,-82.6 88.36,-74.17"/>
<polygon fill="#63b8ff" stroke="#63b8ff" points="145.46,-108.39 155.93,-109.98 148.74,-102.21 145.46,-108.39"/>
</g>
</g>
</svg>
