<?xml version="1.0" encoding="UTF-8" standalone="no"?>
<!DOCTYPE svg PUBLIC "-//W3C//DTD SVG 1.1//EN"
 "http://www.w3.org/Graphics/SVG/1.1/DTD/svg11.dtd">
<!-- Generated by graphviz version 2.43.0 (0)
 -->
<!-- Title: aft::State Pages: 1 -->
<svg width="190pt" height="93pt"
 viewBox="0.00 0.00 190.00 93.00" xmlns="http://www.w3.org/2000/svg" xmlns:xlink="http://www.w3.org/1999/xlink">
<g id="graph0" class="graph" transform="scale(1 1) rotate(0) translate(4 89)">
<title>aft::State</title>
<!-- Node1 -->
<g id="node1" class="node">
<title>Node1</title>
<g id="a_node1"><a xlink:title=" ">
<polygon fill="#999999" stroke="#666666" points="115,-19 54,-19 54,0 115,0 115,-19"/>
<text text-anchor="middle" x="84.5" y="-7" font-family="Helvetica,sans-Serif" font-size="10.00">aft::State</text>
</a>
</g>
</g>
<!-- Node2 -->
<g id="node2" class="node">
<title>Node2</title>
<g id="a_node2"><a xlink:title=" ">
<polygon fill="white" stroke="#666666" points="69,-85 0,-85 0,-66 69,-66 69,-85"/>
<text text-anchor="middle" x="34.5" y="-73" font-family="Helvetica,sans-Serif" font-size="10.00">std::mutex</text>
</a>
</g>
</g>
<!-- Node2&#45;&gt;Node1 -->
<g id="edge1" class="edge">
<title>Node2&#45;&gt;Node1</title>
<path fill="none" stroke="#9a32cd" stroke-dasharray="5,2" d="M47.57,-57.77C57.16,-45.49 69.81,-29.3 77.54,-19.41"/>
<polygon fill="#9a32cd" stroke="#9a32cd" points="44.64,-55.83 41.24,-65.87 50.16,-60.14 44.64,-55.83"/>
<text text-anchor="middle" x="74.5" y="-40" font-family="Helvetica,sans-Serif" font-size="10.00"> lock</text>
</g>
<!-- Node3 -->
<g id="node3" class="node">
<title>Node3</title>
<g id="a_node3"><a xlink:href="classaft_1_1ViewHistory.html" target="_top" xlink:title=" ">
<polygon fill="white" stroke="#666666" points="182,-85 87,-85 87,-66 182,-66 182,-85"/>
<text text-anchor="middle" x="134.5" y="-73" font-family="Helvetica,sans-Serif" font-size="10.00">aft::ViewHistory</text>
</a>
</g>
</g>
<!-- Node3&#45;&gt;Node1 -->
<g id="edge2" class="edge">
<title>Node3&#45;&gt;Node1</title>
<path fill="none" stroke="#9a32cd" stroke-dasharray="5,2" d="M121.43,-57.77C111.84,-45.49 99.19,-29.3 91.46,-19.41"/>
<polygon fill="#9a32cd" stroke="#9a32cd" points="118.84,-60.14 127.76,-65.87 124.36,-55.83 118.84,-60.14"/>
<text text-anchor="middle" x="144.5" y="-40" font-family="Helvetica,sans-Serif" font-size="10.00"> view_history</text>
</g>
</g>
</svg>
