<?xml version="1.0" encoding="UTF-8" standalone="no"?>
<!DOCTYPE svg PUBLIC "-//W3C//DTD SVG 1.1//EN"
 "http://www.w3.org/Graphics/SVG/1.1/DTD/svg11.dtd">
<!-- Generated by graphviz version 2.43.0 (0)
 -->
<!-- Title: CCFConfig Pages: 1 -->
<svg width="1562pt" height="247pt"
 viewBox="0.00 0.00 1562.00 246.50" xmlns="http://www.w3.org/2000/svg" xmlns:xlink="http://www.w3.org/1999/xlink">
<g id="graph0" class="graph" transform="scale(1 1) rotate(0) translate(4 242.5)">
<title>CCFConfig</title>
<!-- Node1 -->
<g id="node1" class="node">
<title>Node1</title>
<g id="a_node1"><a xlink:title=" ">
<polygon fill="#999999" stroke="#666666" points="1554,-143 1487,-143 1487,-124 1554,-124 1554,-143"/>
<text text-anchor="middle" x="1520.5" y="-131" font-family="Helvetica,sans-Serif" font-size="10.00">CCFConfig</text>
</a>
</g>
</g>
<!-- Node2 -->
<g id="node2" class="node">
<title>Node2</title>
<g id="a_node2"><a xlink:href="structconsensus_1_1Configuration.html" target="_top" xlink:title=" ">
<polygon fill="white" stroke="#666666" points="1350.5,-236 1211.5,-236 1211.5,-217 1350.5,-217 1350.5,-236"/>
<text text-anchor="middle" x="1281" y="-224" font-family="Helvetica,sans-Serif" font-size="10.00">consensus::Configuration</text>
</a>
</g>
</g>
<!-- Node2&#45;&gt;Node1 -->
<g id="edge1" class="edge">
<title>Node2&#45;&gt;Node1</title>
<path fill="none" stroke="#9a32cd" stroke-dasharray="5,2" d="M1360.99,-225.22C1396.02,-221.67 1436.56,-213.26 1469,-194.5 1490.42,-182.11 1506.69,-156.99 1514.45,-143.16"/>
<polygon fill="#9a32cd" stroke="#9a32cd" points="1360.44,-221.75 1350.79,-226.13 1361.06,-228.72 1360.44,-221.75"/>
<text text-anchor="middle" x="1423.5" y="-225.5" font-family="Helvetica,sans-Serif" font-size="10.00"> consensus</text>
</g>
<!-- Node3 -->
<g id="node3" class="node">
<title>Node3</title>
<g id="a_node3"><a xlink:href="structds_1_1TimeString.html" target="_top" xlink:title=" ">
<polygon fill="white" stroke="#666666" points="998,-207 911,-207 911,-188 998,-188 998,-207"/>
<text text-anchor="middle" x="954.5" y="-195" font-family="Helvetica,sans-Serif" font-size="10.00">ds::TimeString</text>
</a>
</g>
</g>
<!-- Node3&#45;&gt;Node2 -->
<g id="edge2" class="edge">
<title>Node3&#45;&gt;Node2</title>
<path fill="none" stroke="#9a32cd" stroke-dasharray="5,2" d="M1008.54,-202.24C1063.87,-207.18 1150.82,-214.96 1211.35,-220.36"/>
<polygon fill="#9a32cd" stroke="#9a32cd" points="1008.53,-198.73 998.26,-201.32 1007.91,-205.7 1008.53,-198.73"/>
<text text-anchor="middle" x="1115.5" y="-230.5" font-family="Helvetica,sans-Serif" font-size="10.00"> election_timeout</text>
<text text-anchor="middle" x="1115.5" y="-219.5" font-family="Helvetica,sans-Serif" font-size="10.00">message_timeout</text>
</g>
<!-- Node13 -->
<g id="node13" class="node">
<title>Node13</title>
<g id="a_node13"><a xlink:href="structCCFConfig_1_1LedgerSignatures.html" target="_top" xlink:title=" ">
<polygon fill="white" stroke="#666666" points="1360,-199 1202,-199 1202,-180 1360,-180 1360,-199"/>
<text text-anchor="middle" x="1281" y="-187" font-family="Helvetica,sans-Serif" font-size="10.00">CCFConfig::LedgerSignatures</text>
</a>
</g>
</g>
<!-- Node3&#45;&gt;Node13 -->
<g id="edge18" class="edge">
<title>Node3&#45;&gt;Node13</title>
<path fill="none" stroke="#9a32cd" stroke-dasharray="5,2" d="M1008.65,-194.22C1021.22,-193.55 1034.58,-192.92 1047,-192.5 1098.55,-190.76 1156.55,-190.01 1201.78,-189.69"/>
<polygon fill="#9a32cd" stroke="#9a32cd" points="1008.1,-190.74 998.31,-194.79 1008.49,-197.73 1008.1,-190.74"/>
<text text-anchor="middle" x="1115.5" y="-195.5" font-family="Helvetica,sans-Serif" font-size="10.00"> delay</text>
</g>
<!-- Node14 -->
<g id="node14" class="node">
<title>Node14</title>
<g id="a_node14"><a xlink:href="structCCFConfig_1_1JWT.html" target="_top" xlink:title=" ">
<polygon fill="white" stroke="#666666" points="1327,-162 1235,-162 1235,-143 1327,-143 1327,-162"/>
<text text-anchor="middle" x="1281" y="-150" font-family="Helvetica,sans-Serif" font-size="10.00">CCFConfig::JWT</text>
</a>
</g>
</g>
<!-- Node3&#45;&gt;Node14 -->
<g id="edge20" class="edge">
<title>Node3&#45;&gt;Node14</title>
<path fill="none" stroke="#9a32cd" stroke-dasharray="5,2" d="M998,-185.39C1013.34,-181.4 1030.84,-177.28 1047,-174.5 1111.67,-163.39 1187.48,-157.54 1234.63,-154.74"/>
<polygon fill="#9a32cd" stroke="#9a32cd" points="997.04,-182.02 988.28,-187.97 998.84,-188.79 997.04,-182.02"/>
<text text-anchor="middle" x="1115.5" y="-177.5" font-family="Helvetica,sans-Serif" font-size="10.00"> key_refresh_interval</text>
</g>
<!-- Node4 -->
<g id="node4" class="node">
<title>Node4</title>
<g id="a_node4"><a xlink:href="structds_1_1UnitString.html" target="_top" xlink:title=" ">
<polygon fill="white" stroke="#666666" points="580,-208 497,-208 497,-189 580,-189 580,-208"/>
<text text-anchor="middle" x="538.5" y="-196" font-family="Helvetica,sans-Serif" font-size="10.00">ds::UnitString</text>
</a>
</g>
</g>
<!-- Node4&#45;&gt;Node3 -->
<g id="edge3" class="edge">
<title>Node4&#45;&gt;Node3</title>
<path fill="none" stroke="#63b8ff" d="M590.46,-198.38C672.91,-198.18 834.02,-197.79 910.82,-197.6"/>
<polygon fill="#63b8ff" stroke="#63b8ff" points="590.32,-194.88 580.33,-198.4 590.34,-201.88 590.32,-194.88"/>
</g>
<!-- Node5 -->
<g id="node5" class="node">
<title>Node5</title>
<g id="a_node5"><a xlink:title=" ">
<polygon fill="white" stroke="#666666" points="206,-112 141,-112 141,-93 206,-93 206,-112"/>
<text text-anchor="middle" x="173.5" y="-100" font-family="Helvetica,sans-Serif" font-size="10.00">std::string</text>
</a>
</g>
</g>
<!-- Node5&#45;&gt;Node4 -->
<g id="edge4" class="edge">
<title>Node5&#45;&gt;Node4</title>
<path fill="none" stroke="#9a32cd" stroke-dasharray="5,2" d="M183.06,-121.67C191.18,-137.41 204.99,-158.78 224,-169.5 311.13,-218.62 433.89,-212.34 496.82,-204.75"/>
<polygon fill="#9a32cd" stroke="#9a32cd" points="186.04,-119.8 178.54,-112.32 179.74,-122.84 186.04,-119.8"/>
<text text-anchor="middle" x="269.5" y="-202.5" font-family="Helvetica,sans-Serif" font-size="10.00"> str</text>
</g>
<!-- Node9 -->
<g id="node9" class="node">
<title>Node9</title>
<g id="a_node9"><a xlink:href="structccf_1_1NodeInfoNetwork__v2_1_1NetInterface.html" target="_top" xlink:title="Network interface description.">
<polygon fill="white" stroke="#666666" points="464,-161.5 342,-161.5 342,-131.5 464,-131.5 464,-161.5"/>
<text text-anchor="start" x="350" y="-149.5" font-family="Helvetica,sans-Serif" font-size="10.00">ccf::NodeInfoNetwork</text>
<text text-anchor="middle" x="403" y="-138.5" font-family="Helvetica,sans-Serif" font-size="10.00">_v2::NetInterface</text>
</a>
</g>
</g>
<!-- Node5&#45;&gt;Node9 -->
<g id="edge9" class="edge">
<title>Node5&#45;&gt;Node9</title>
<path fill="none" stroke="#9a32cd" stroke-dasharray="5,2" d="M215.91,-114.57C218.64,-115.25 221.35,-115.9 224,-116.5 262.98,-125.27 307.29,-132.75 341.94,-138.04"/>
<polygon fill="#9a32cd" stroke="#9a32cd" points="216.62,-111.14 206.06,-111.98 214.84,-117.91 216.62,-111.14"/>
<text text-anchor="middle" x="269.5" y="-157.5" font-family="Helvetica,sans-Serif" font-size="10.00"> bind_address</text>
<text text-anchor="middle" x="269.5" y="-146.5" font-family="Helvetica,sans-Serif" font-size="10.00">protocol</text>
<text text-anchor="middle" x="269.5" y="-135.5" font-family="Helvetica,sans-Serif" font-size="10.00">published_address</text>
</g>
<!-- Node10 -->
<g id="node10" class="node">
<title>Node10</title>
<g id="a_node10"><a xlink:title=" ">
<polygon fill="white" stroke="#666666" points="760.5,-125.5 614.5,-125.5 614.5,-95.5 760.5,-95.5 760.5,-125.5"/>
<text text-anchor="start" x="622.5" y="-113.5" font-family="Helvetica,sans-Serif" font-size="10.00">std::map&lt; RpcInterfaceID,</text>
<text text-anchor="middle" x="687.5" y="-102.5" font-family="Helvetica,sans-Serif" font-size="10.00"> NetInterface &gt;</text>
</a>
</g>
</g>
<!-- Node5&#45;&gt;Node10 -->
<g id="edge11" class="edge">
<title>Node5&#45;&gt;Node10</title>
<path fill="none" stroke="#9a32cd" stroke-dasharray="5,2" d="M216.18,-103.15C303.3,-104.51 505.58,-107.67 614.3,-109.37"/>
<polygon fill="#9a32cd" stroke="#9a32cd" points="216.2,-99.65 206.14,-102.99 216.09,-106.65 216.2,-99.65"/>
<text text-anchor="middle" x="403" y="-109.5" font-family="Helvetica,sans-Serif" font-size="10.00"> keys</text>
</g>
<!-- Node11 -->
<g id="node11" class="node">
<title>Node11</title>
<g id="a_node11"><a xlink:href="structCCFConfig_1_1NodeCertificateInfo.html" target="_top" xlink:title=" ">
<polygon fill="white" stroke="#666666" points="771,-65 604,-65 604,-46 771,-46 771,-65"/>
<text text-anchor="middle" x="687.5" y="-53" font-family="Helvetica,sans-Serif" font-size="10.00">CCFConfig::NodeCertificateInfo</text>
</a>
</g>
</g>
<!-- Node5&#45;&gt;Node11 -->
<g id="edge14" class="edge">
<title>Node5&#45;&gt;Node11</title>
<path fill="none" stroke="#9a32cd" stroke-dasharray="5,2" d="M216.12,-98.68C300.51,-90.93 493.14,-73.25 603.94,-63.08"/>
<polygon fill="#9a32cd" stroke="#9a32cd" points="215.78,-95.2 206.14,-99.6 216.42,-102.17 215.78,-95.2"/>
<text text-anchor="middle" x="403" y="-89.5" font-family="Helvetica,sans-Serif" font-size="10.00"> subject_name</text>
</g>
<!-- Node12 -->
<g id="node12" class="node">
<title>Node12</title>
<g id="a_node12"><a xlink:title=" ">
<polygon fill="white" stroke="#666666" points="473,-19 333,-19 333,0 473,0 473,-19"/>
<text text-anchor="middle" x="403" y="-7" font-family="Helvetica,sans-Serif" font-size="10.00">std::vector&lt; std::string &gt;</text>
</a>
</g>
</g>
<!-- Node5&#45;&gt;Node12 -->
<g id="edge16" class="edge">
<title>Node5&#45;&gt;Node12</title>
<path fill="none" stroke="#9a32cd" stroke-dasharray="5,2" d="M182.16,-83.35C189.99,-66.44 203.89,-42.64 224,-30.5 256.24,-11.05 297.77,-5.29 332.6,-4.63"/>
<polygon fill="#9a32cd" stroke="#9a32cd" points="178.82,-82.25 178.06,-92.82 185.24,-85.03 178.82,-82.25"/>
<text text-anchor="middle" x="269.5" y="-33.5" font-family="Helvetica,sans-Serif" font-size="10.00"> elements</text>
</g>
<!-- Node6 -->
<g id="node6" class="node">
<title>Node6</title>
<g id="a_node6"><a xlink:title=" ">
<polygon fill="white" stroke="#666666" points="104,-117.5 0,-117.5 0,-87.5 104,-87.5 104,-117.5"/>
<text text-anchor="start" x="8" y="-105.5" font-family="Helvetica,sans-Serif" font-size="10.00">std::basic_string&lt;</text>
<text text-anchor="middle" x="52" y="-94.5" font-family="Helvetica,sans-Serif" font-size="10.00"> Char &gt;</text>
</a>
</g>
</g>
<!-- Node6&#45;&gt;Node5 -->
<g id="edge5" class="edge">
<title>Node6&#45;&gt;Node5</title>
<path fill="none" stroke="#63b8ff" d="M114.1,-102.5C123.41,-102.5 132.68,-102.5 141,-102.5"/>
<polygon fill="#63b8ff" stroke="#63b8ff" points="114.03,-99 104.03,-102.5 114.03,-106 114.03,-99"/>
</g>
<!-- Node7 -->
<g id="node7" class="node">
<title>Node7</title>
<g id="a_node7"><a xlink:href="structccf_1_1NodeInfoNetwork.html" target="_top" xlink:title=" ">
<polygon fill="white" stroke="#666666" points="1342,-125 1220,-125 1220,-106 1342,-106 1342,-125"/>
<text text-anchor="middle" x="1281" y="-113" font-family="Helvetica,sans-Serif" font-size="10.00">ccf::NodeInfoNetwork</text>
</a>
</g>
</g>
<!-- Node7&#45;&gt;Node1 -->
<g id="edge6" class="edge">
<title>Node7&#45;&gt;Node1</title>
<path fill="none" stroke="#9a32cd" stroke-dasharray="5,2" d="M1352.33,-112.12C1387.55,-111.57 1430.74,-112.62 1469,-118.5 1476.68,-119.68 1484.83,-121.73 1492.29,-123.94"/>
<polygon fill="#9a32cd" stroke="#9a32cd" points="1352.07,-108.63 1342.14,-112.33 1352.21,-115.62 1352.07,-108.63"/>
<text text-anchor="middle" x="1423.5" y="-121.5" font-family="Helvetica,sans-Serif" font-size="10.00"> network</text>
</g>
<!-- Node8 -->
<g id="node8" class="node">
<title>Node8</title>
<g id="a_node8"><a xlink:href="structccf_1_1NodeInfoNetwork__v2.html" target="_top" xlink:title="Node network information.">
<polygon fill="white" stroke="#666666" points="1024,-125 885,-125 885,-106 1024,-106 1024,-125"/>
<text text-anchor="middle" x="954.5" y="-113" font-family="Helvetica,sans-Serif" font-size="10.00">ccf::NodeInfoNetwork_v2</text>
</a>
</g>
</g>
<!-- Node8&#45;&gt;Node7 -->
<g id="edge7" class="edge">
<title>Node8&#45;&gt;Node7</title>
<path fill="none" stroke="#63b8ff" d="M1034.39,-115.5C1091.48,-115.5 1167.48,-115.5 1219.74,-115.5"/>
<polygon fill="#63b8ff" stroke="#63b8ff" points="1034.32,-112 1024.32,-115.5 1034.32,-119 1034.32,-112"/>
</g>
<!-- Node9&#45;&gt;Node8 -->
<g id="edge8" class="edge">
<title>Node9&#45;&gt;Node8</title>
<path fill="none" stroke="#9a32cd" stroke-dasharray="5,2" d="M474.45,-147.38C480.05,-147.43 485.62,-147.47 491,-147.5 533.22,-147.74 543.8,-148.95 586,-147.5 708.88,-143.28 739.72,-141.38 862,-128.5 871.25,-127.53 881.01,-126.32 890.57,-125.05"/>
<polygon fill="#9a32cd" stroke="#9a32cd" points="474.41,-143.88 464.37,-147.28 474.34,-150.88 474.41,-143.88"/>
<text text-anchor="middle" x="687.5" y="-149.5" font-family="Helvetica,sans-Serif" font-size="10.00"> node_to_node_interface</text>
</g>
<!-- Node9&#45;&gt;Node10 -->
<g id="edge12" class="edge">
<title>Node9&#45;&gt;Node10</title>
<path fill="none" stroke="#9a32cd" stroke-dasharray="5,2" d="M474.28,-137.54C516.96,-132.11 571.31,-125.18 614.32,-119.7"/>
<polygon fill="#9a32cd" stroke="#9a32cd" points="473.73,-134.09 464.26,-138.82 474.62,-141.03 473.73,-134.09"/>
<text text-anchor="middle" x="538.5" y="-137.5" font-family="Helvetica,sans-Serif" font-size="10.00"> elements</text>
</g>
<!-- Node10&#45;&gt;Node8 -->
<g id="edge10" class="edge">
<title>Node10&#45;&gt;Node8</title>
<path fill="none" stroke="#9a32cd" stroke-dasharray="5,2" d="M770.7,-112.05C807.25,-112.74 849.8,-113.54 884.65,-114.2"/>
<polygon fill="#9a32cd" stroke="#9a32cd" points="770.63,-108.55 760.56,-111.86 770.49,-115.55 770.63,-108.55"/>
<text text-anchor="middle" x="825.5" y="-116.5" font-family="Helvetica,sans-Serif" font-size="10.00"> rpc_interfaces</text>
</g>
<!-- Node11&#45;&gt;Node1 -->
<g id="edge13" class="edge">
<title>Node11&#45;&gt;Node1</title>
<path fill="none" stroke="#9a32cd" stroke-dasharray="5,2" d="M781.54,-60.46C911.22,-67.58 1153.63,-81.58 1360,-97.5 1408.5,-101.24 1422.29,-93.89 1469,-107.5 1481.69,-111.2 1494.93,-118.15 1504.67,-123.93"/>
<polygon fill="#9a32cd" stroke="#9a32cd" points="781.43,-56.95 771.26,-59.9 781.05,-63.94 781.43,-56.95"/>
<text text-anchor="middle" x="1115.5" y="-87.5" font-family="Helvetica,sans-Serif" font-size="10.00"> node_certificate</text>
</g>
<!-- Node12&#45;&gt;Node11 -->
<g id="edge15" class="edge">
<title>Node12&#45;&gt;Node11</title>
<path fill="none" stroke="#9a32cd" stroke-dasharray="5,2" d="M483.23,-16.4C515.27,-19.77 552.54,-24.43 586,-30.5 608.47,-34.57 633.38,-40.76 652.78,-45.96"/>
<polygon fill="#9a32cd" stroke="#9a32cd" points="483.32,-12.89 473.02,-15.35 482.6,-19.85 483.32,-12.89"/>
<text text-anchor="middle" x="538.5" y="-33.5" font-family="Helvetica,sans-Serif" font-size="10.00"> subject_alt_names</text>
</g>
<!-- Node13&#45;&gt;Node1 -->
<g id="edge17" class="edge">
<title>Node13&#45;&gt;Node1</title>
<path fill="none" stroke="#9a32cd" stroke-dasharray="5,2" d="M1370.31,-181.17C1401.96,-176.66 1437.57,-169.82 1469,-159.5 1481.37,-155.44 1494.41,-148.65 1504.14,-143.03"/>
<polygon fill="#9a32cd" stroke="#9a32cd" points="1369.62,-177.73 1360.19,-182.55 1370.57,-184.66 1369.62,-177.73"/>
<text text-anchor="middle" x="1423.5" y="-182.5" font-family="Helvetica,sans-Serif" font-size="10.00"> ledger_signatures</text>
</g>
<!-- Node14&#45;&gt;Node1 -->
<g id="edge19" class="edge">
<title>Node14&#45;&gt;Node1</title>
<path fill="none" stroke="#9a32cd" stroke-dasharray="5,2" d="M1337.4,-148.07C1383.7,-144.36 1448.14,-139.21 1486.66,-136.13"/>
<polygon fill="#9a32cd" stroke="#9a32cd" points="1336.92,-144.6 1327.23,-148.88 1337.48,-151.57 1336.92,-144.6"/>
<text text-anchor="middle" x="1423.5" y="-147.5" font-family="Helvetica,sans-Serif" font-size="10.00"> jwt</text>
</g>
<!-- Node15 -->
<g id="node15" class="node">
<title>Node15</title>
<g id="a_node15"><a xlink:href="structCCFConfig_1_1Attestation.html" target="_top" xlink:title=" ">
<polygon fill="white" stroke="#666666" points="1344.5,-47 1217.5,-47 1217.5,-28 1344.5,-28 1344.5,-47"/>
<text text-anchor="middle" x="1281" y="-35" font-family="Helvetica,sans-Serif" font-size="10.00">CCFConfig::Attestation</text>
</a>
</g>
</g>
<!-- Node15&#45;&gt;Node1 -->
<g id="edge21" class="edge">
<title>Node15&#45;&gt;Node1</title>
<path fill="none" stroke="#9a32cd" stroke-dasharray="5,2" d="M1354.97,-28.53C1391.64,-27.53 1435.3,-31.99 1469,-52.5 1496.18,-69.04 1511,-106.33 1516.71,-123.95"/>
<polygon fill="#9a32cd" stroke="#9a32cd" points="1354.68,-25.03 1344.83,-28.94 1354.97,-32.03 1354.68,-25.03"/>
<text text-anchor="middle" x="1423.5" y="-55.5" font-family="Helvetica,sans-Serif" font-size="10.00"> attestation</text>
</g>
<!-- Node16 -->
<g id="node16" class="node">
<title>Node16</title>
<g id="a_node16"><a xlink:title=" ">
<polygon fill="white" stroke="#666666" points="1029,-49.5 880,-49.5 880,-19.5 1029,-19.5 1029,-49.5"/>
<text text-anchor="start" x="888" y="-37.5" font-family="Helvetica,sans-Serif" font-size="10.00">std::vector&lt; Endorsements</text>
<text text-anchor="middle" x="954.5" y="-26.5" font-family="Helvetica,sans-Serif" font-size="10.00">Server &gt;</text>
</a>
</g>
</g>
<!-- Node16&#45;&gt;Node15 -->
<g id="edge22" class="edge">
<title>Node16&#45;&gt;Node15</title>
<path fill="none" stroke="#9a32cd" stroke-dasharray="5,2" d="M1039.32,-35.27C1094.9,-35.79 1166.66,-36.45 1217.31,-36.92"/>
<polygon fill="#9a32cd" stroke="#9a32cd" points="1039.17,-31.77 1029.13,-35.18 1039.1,-38.77 1039.17,-31.77"/>
<text text-anchor="middle" x="1115.5" y="-40.5" font-family="Helvetica,sans-Serif" font-size="10.00"> snp_endorsements_servers</text>
</g>
</g>
</svg>
