<?xml version="1.0" encoding="UTF-8" standalone="no"?>
<!DOCTYPE svg PUBLIC "-//W3C//DTD SVG 1.1//EN"
 "http://www.w3.org/Graphics/SVG/1.1/DTD/svg11.dtd">
<!-- Generated by graphviz version 2.43.0 (0)
 -->
<!-- Title: ccf::ACMEClientConfig Pages: 1 -->
<svg width="303pt" height="251pt"
 viewBox="0.00 0.00 303.00 251.00" xmlns="http://www.w3.org/2000/svg" xmlns:xlink="http://www.w3.org/1999/xlink">
<g id="graph0" class="graph" transform="scale(1 1) rotate(0) translate(4 247)">
<title>ccf::ACMEClientConfig</title>
<!-- Node1 -->
<g id="node1" class="node">
<title>Node1</title>
<g id="a_node1"><a xlink:title=" ">
<polygon fill="#999999" stroke="#666666" points="124,-19 0,-19 0,0 124,0 124,-19"/>
<text text-anchor="middle" x="62" y="-7" font-family="Helvetica,sans-Serif" font-size="10.00">ccf::ACMEClientConfig</text>
</a>
</g>
</g>
<!-- Node2 -->
<g id="node2" class="node">
<title>Node2</title>
<g id="a_node2"><a xlink:title=" ">
<polygon fill="white" stroke="#666666" points="295,-103 155,-103 155,-84 295,-84 295,-103"/>
<text text-anchor="middle" x="225" y="-91" font-family="Helvetica,sans-Serif" font-size="10.00">std::vector&lt; std::string &gt;</text>
</a>
</g>
</g>
<!-- Node2&#45;&gt;Node1 -->
<g id="edge1" class="edge">
<title>Node2&#45;&gt;Node1</title>
<path fill="none" stroke="#9a32cd" stroke-dasharray="5,2" d="M198.61,-79.22C164.84,-62.23 107.32,-33.3 78.91,-19"/>
<polygon fill="#9a32cd" stroke="#9a32cd" points="197.36,-82.51 207.86,-83.88 200.5,-76.26 197.36,-82.51"/>
<text text-anchor="middle" x="180" y="-51" font-family="Helvetica,sans-Serif" font-size="10.00"> ca_certs</text>
<text text-anchor="middle" x="180" y="-40" font-family="Helvetica,sans-Serif" font-size="10.00">contact</text>
</g>
<!-- Node3 -->
<g id="node3" class="node">
<title>Node3</title>
<g id="a_node3"><a xlink:title=" ">
<polygon fill="white" stroke="#666666" points="94.5,-176 29.5,-176 29.5,-157 94.5,-157 94.5,-176"/>
<text text-anchor="middle" x="62" y="-164" font-family="Helvetica,sans-Serif" font-size="10.00">std::string</text>
</a>
</g>
</g>
<!-- Node3&#45;&gt;Node1 -->
<g id="edge4" class="edge">
<title>Node3&#45;&gt;Node1</title>
<path fill="none" stroke="#9a32cd" stroke-dasharray="5,2" d="M59.07,-146.97C57.52,-136.21 55.78,-122.37 55,-110 52.88,-76.3 58.05,-36.21 60.64,-19.02"/>
<polygon fill="#9a32cd" stroke="#9a32cd" points="55.61,-147.52 60.57,-156.88 62.54,-146.47 55.61,-147.52"/>
<text text-anchor="middle" x="100.5" y="-102" font-family="Helvetica,sans-Serif" font-size="10.00"> challenge_type</text>
<text text-anchor="middle" x="100.5" y="-91" font-family="Helvetica,sans-Serif" font-size="10.00">directory_url</text>
<text text-anchor="middle" x="100.5" y="-80" font-family="Helvetica,sans-Serif" font-size="10.00">service_dns_name</text>
</g>
<!-- Node3&#45;&gt;Node2 -->
<g id="edge2" class="edge">
<title>Node3&#45;&gt;Node2</title>
<path fill="none" stroke="#9a32cd" stroke-dasharray="5,2" d="M91.2,-152.78C124.15,-138.43 176.84,-115.48 205.27,-103.09"/>
<polygon fill="#9a32cd" stroke="#9a32cd" points="89.43,-149.73 81.66,-156.94 92.23,-156.15 89.43,-149.73"/>
<text text-anchor="middle" x="167.5" y="-131" font-family="Helvetica,sans-Serif" font-size="10.00"> elements</text>
</g>
<!-- Node4 -->
<g id="node4" class="node">
<title>Node4</title>
<g id="a_node4"><a xlink:title=" ">
<polygon fill="white" stroke="#666666" points="114,-243 10,-243 10,-213 114,-213 114,-243"/>
<text text-anchor="start" x="18" y="-231" font-family="Helvetica,sans-Serif" font-size="10.00">std::basic_string&lt;</text>
<text text-anchor="middle" x="62" y="-220" font-family="Helvetica,sans-Serif" font-size="10.00"> Char &gt;</text>
</a>
</g>
</g>
<!-- Node4&#45;&gt;Node3 -->
<g id="edge3" class="edge">
<title>Node4&#45;&gt;Node3</title>
<path fill="none" stroke="#63b8ff" d="M62,-202.79C62,-193.36 62,-183.15 62,-176.16"/>
<polygon fill="#63b8ff" stroke="#63b8ff" points="58.5,-202.9 62,-212.9 65.5,-202.9 58.5,-202.9"/>
</g>
</g>
</svg>
