<?xml version="1.0" encoding="UTF-8" standalone="no"?>
<!DOCTYPE svg PUBLIC "-//W3C//DTD SVG 1.1//EN"
 "http://www.w3.org/Graphics/SVG/1.1/DTD/svg11.dtd">
<!-- Generated by graphviz version 2.43.0 (0)
 -->
<!-- Title: crypto::OpenSSL::Unique_X509_CRL Pages: 1 -->
<svg width="193pt" height="193pt"
 viewBox="0.00 0.00 193.00 193.00" xmlns="http://www.w3.org/2000/svg" xmlns:xlink="http://www.w3.org/1999/xlink">
<g id="graph0" class="graph" transform="scale(1 1) rotate(0) translate(4 189)">
<title>crypto::OpenSSL::Unique_X509_CRL</title>
<!-- Node1 -->
<g id="node1" class="node">
<title>Node1</title>
<g id="a_node1"><a xlink:title=" ">
<polygon fill="#999999" stroke="#666666" points="161,-30 24,-30 24,0 161,0 161,-30"/>
<text text-anchor="start" x="32" y="-18" font-family="Helvetica,sans-Serif" font-size="10.00">crypto::OpenSSL::Unique</text>
<text text-anchor="middle" x="92.5" y="-7" font-family="Helvetica,sans-Serif" font-size="10.00">_X509_CRL</text>
</a>
</g>
</g>
<!-- Node2 -->
<g id="node2" class="node">
<title>Node2</title>
<g id="a_node2"><a xlink:href="classcrypto_1_1OpenSSL_1_1Unique__SSL__OBJECT.html" target="_top" xlink:title=" ">
<polygon fill="white" stroke="#666666" points="185,-108 0,-108 0,-67 185,-67 185,-108"/>
<text text-anchor="start" x="8" y="-96" font-family="Helvetica,sans-Serif" font-size="10.00">crypto::OpenSSL::Unique</text>
<text text-anchor="start" x="8" y="-85" font-family="Helvetica,sans-Serif" font-size="10.00">_SSL_OBJECT&lt; X509_CRL,</text>
<text text-anchor="middle" x="92.5" y="-74" font-family="Helvetica,sans-Serif" font-size="10.00"> X509_CRL_new, X509_CRL_free &gt;</text>
</a>
</g>
</g>
<!-- Node2&#45;&gt;Node1 -->
<g id="edge1" class="edge">
<title>Node2&#45;&gt;Node1</title>
<path fill="none" stroke="#63b8ff" d="M92.5,-56.58C92.5,-47.51 92.5,-37.95 92.5,-30.39"/>
<polygon fill="#63b8ff" stroke="#63b8ff" points="89,-56.86 92.5,-66.86 96,-56.86 89,-56.86"/>
</g>
<!-- Node3 -->
<g id="node3" class="node">
<title>Node3</title>
<g id="a_node3"><a xlink:title=" ">
<polygon fill="white" stroke="#666666" points="169,-185 16,-185 16,-155 169,-155 169,-185"/>
<text text-anchor="start" x="24" y="-173" font-family="Helvetica,sans-Serif" font-size="10.00">std::unique_ptr&lt; X509</text>
<text text-anchor="middle" x="92.5" y="-162" font-family="Helvetica,sans-Serif" font-size="10.00">_CRL, void(*)(X509_CRL *)&gt;</text>
</a>
</g>
</g>
<!-- Node3&#45;&gt;Node2 -->
<g id="edge2" class="edge">
<title>Node3&#45;&gt;Node2</title>
<path fill="none" stroke="#9a32cd" stroke-dasharray="5,2" d="M92.5,-144.94C92.5,-133.17 92.5,-119.19 92.5,-108.09"/>
<polygon fill="#9a32cd" stroke="#9a32cd" points="89,-144.98 92.5,-154.98 96,-144.98 89,-144.98"/>
<text text-anchor="middle" x="97.5" y="-129" font-family="Helvetica,sans-Serif" font-size="10.00"> p</text>
</g>
</g>
</svg>
