<?xml version="1.0" encoding="UTF-8" standalone="no"?>
<!DOCTYPE svg PUBLIC "-//W3C//DTD SVG 1.1//EN"
 "http://www.w3.org/Graphics/SVG/1.1/DTD/svg11.dtd">
<!-- Generated by graphviz version 2.43.0 (0)
 -->
<!-- Title: ACME::Client::Order Pages: 1 -->
<svg width="967pt" height="184pt"
 viewBox="0.00 0.00 967.00 184.25" xmlns="http://www.w3.org/2000/svg" xmlns:xlink="http://www.w3.org/1999/xlink">
<g id="graph0" class="graph" transform="scale(1 1) rotate(0) translate(4 180.25)">
<title>ACME::Client::Order</title>
<!-- Node1 -->
<g id="node1" class="node">
<title>Node1</title>
<g id="a_node1"><a xlink:title=" ">
<polygon fill="#999999" stroke="#666666" points="959,-109.75 846,-109.75 846,-90.75 959,-90.75 959,-109.75"/>
<text text-anchor="middle" x="902.5" y="-97.75" font-family="Helvetica,sans-Serif" font-size="10.00">ACME::Client::Order</text>
</a>
</g>
</g>
<!-- Node2 -->
<g id="node2" class="node">
<title>Node2</title>
<g id="a_node2"><a xlink:title=" ">
<polygon fill="white" stroke="#666666" points="206,-90.75 141,-90.75 141,-71.75 206,-71.75 206,-90.75"/>
<text text-anchor="middle" x="173.5" y="-78.75" font-family="Helvetica,sans-Serif" font-size="10.00">std::string</text>
</a>
</g>
</g>
<!-- Node2&#45;&gt;Node1 -->
<g id="edge1" class="edge">
<title>Node2&#45;&gt;Node1</title>
<path fill="none" stroke="#9a32cd" stroke-dasharray="5,2" d="M199.86,-95.3C207.41,-98.85 215.85,-102.23 224,-104.25 452.7,-160.91 518.4,-118.54 754,-116.25 786.89,-115.93 795.3,-118.77 828,-115.25 839.01,-114.06 850.81,-112.01 861.66,-109.8"/>
<polygon fill="#9a32cd" stroke="#9a32cd" points="201.37,-92.14 190.86,-90.8 198.24,-98.4 201.37,-92.14"/>
<text text-anchor="middle" x="533.5" y="-168.25" font-family="Helvetica,sans-Serif" font-size="10.00"> account_url</text>
<text text-anchor="middle" x="533.5" y="-157.25" font-family="Helvetica,sans-Serif" font-size="10.00">certificate_url</text>
<text text-anchor="middle" x="533.5" y="-146.25" font-family="Helvetica,sans-Serif" font-size="10.00">finalize_url</text>
<text text-anchor="middle" x="533.5" y="-135.25" font-family="Helvetica,sans-Serif" font-size="10.00">order_url</text>
</g>
<!-- Node4 -->
<g id="node4" class="node">
<title>Node4</title>
<g id="a_node4"><a xlink:title=" ">
<polygon fill="white" stroke="#666666" points="587,-116.25 480,-116.25 480,-86.25 587,-86.25 587,-116.25"/>
<text text-anchor="start" x="488" y="-104.25" font-family="Helvetica,sans-Serif" font-size="10.00">std::unordered_set</text>
<text text-anchor="middle" x="533.5" y="-93.25" font-family="Helvetica,sans-Serif" font-size="10.00">&lt; std::string &gt;</text>
</a>
</g>
</g>
<!-- Node2&#45;&gt;Node4 -->
<g id="edge4" class="edge">
<title>Node2&#45;&gt;Node4</title>
<path fill="none" stroke="#9a32cd" stroke-dasharray="5,2" d="M216.63,-83.6C282.19,-87.26 408.49,-94.32 479.92,-98.31"/>
<polygon fill="#9a32cd" stroke="#9a32cd" points="216.45,-80.09 206.27,-83.02 216.06,-87.07 216.45,-80.09"/>
<text text-anchor="middle" x="267" y="-92.25" font-family="Helvetica,sans-Serif" font-size="10.00"> keys</text>
</g>
<!-- Node5 -->
<g id="node5" class="node">
<title>Node5</title>
<g id="a_node5"><a xlink:title=" ">
<polygon fill="white" stroke="#666666" points="754,-64.25 605,-64.25 605,-34.25 754,-34.25 754,-64.25"/>
<text text-anchor="start" x="613" y="-52.25" font-family="Helvetica,sans-Serif" font-size="10.00">std::map&lt; std::string,</text>
<text text-anchor="middle" x="679.5" y="-41.25" font-family="Helvetica,sans-Serif" font-size="10.00"> ACME::Client::Challenge &gt;</text>
</a>
</g>
</g>
<!-- Node2&#45;&gt;Node5 -->
<g id="edge6" class="edge">
<title>Node2&#45;&gt;Node5</title>
<path fill="none" stroke="#9a32cd" stroke-dasharray="5,2" d="M216.12,-78.6C301.51,-73.18 497.49,-60.74 604.85,-53.92"/>
<polygon fill="#9a32cd" stroke="#9a32cd" points="215.79,-75.12 206.03,-79.25 216.23,-82.1 215.79,-75.12"/>
<text text-anchor="middle" x="395" y="-75.25" font-family="Helvetica,sans-Serif" font-size="10.00"> keys</text>
</g>
<!-- Node6 -->
<g id="node6" class="node">
<title>Node6</title>
<g id="a_node6"><a xlink:href="structACME_1_1Client_1_1Challenge.html" target="_top" xlink:title=" ">
<polygon fill="white" stroke="#666666" points="462,-24.75 328,-24.75 328,-5.75 462,-5.75 462,-24.75"/>
<text text-anchor="middle" x="395" y="-12.75" font-family="Helvetica,sans-Serif" font-size="10.00">ACME::Client::Challenge</text>
</a>
</g>
</g>
<!-- Node2&#45;&gt;Node6 -->
<g id="edge8" class="edge">
<title>Node2&#45;&gt;Node6</title>
<path fill="none" stroke="#9a32cd" stroke-dasharray="5,2" d="M182.9,-61.91C190.92,-46.13 204.66,-24.92 224,-15.25 264.92,5.21 318.61,0.9 354.6,-5.69"/>
<polygon fill="#9a32cd" stroke="#9a32cd" points="179.56,-60.78 178.45,-71.32 185.89,-63.77 179.56,-60.78"/>
<text text-anchor="middle" x="267" y="-40.25" font-family="Helvetica,sans-Serif" font-size="10.00"> authorization_url</text>
<text text-anchor="middle" x="267" y="-29.25" font-family="Helvetica,sans-Serif" font-size="10.00">challenge_url</text>
<text text-anchor="middle" x="267" y="-18.25" font-family="Helvetica,sans-Serif" font-size="10.00">token</text>
</g>
<!-- Node3 -->
<g id="node3" class="node">
<title>Node3</title>
<g id="a_node3"><a xlink:title=" ">
<polygon fill="white" stroke="#666666" points="104,-96.25 0,-96.25 0,-66.25 104,-66.25 104,-96.25"/>
<text text-anchor="start" x="8" y="-84.25" font-family="Helvetica,sans-Serif" font-size="10.00">std::basic_string&lt;</text>
<text text-anchor="middle" x="52" y="-73.25" font-family="Helvetica,sans-Serif" font-size="10.00"> Char &gt;</text>
</a>
</g>
</g>
<!-- Node3&#45;&gt;Node2 -->
<g id="edge2" class="edge">
<title>Node3&#45;&gt;Node2</title>
<path fill="none" stroke="#63b8ff" d="M114.1,-81.25C123.41,-81.25 132.68,-81.25 141,-81.25"/>
<polygon fill="#63b8ff" stroke="#63b8ff" points="114.03,-77.75 104.03,-81.25 114.03,-84.75 114.03,-77.75"/>
</g>
<!-- Node4&#45;&gt;Node1 -->
<g id="edge3" class="edge">
<title>Node4&#45;&gt;Node1</title>
<path fill="none" stroke="#9a32cd" stroke-dasharray="5,2" d="M597.5,-101.08C667.33,-100.89 778.91,-100.58 845.71,-100.4"/>
<polygon fill="#9a32cd" stroke="#9a32cd" points="597.07,-97.58 587.08,-101.1 597.09,-104.58 597.07,-97.58"/>
<text text-anchor="middle" x="679.5" y="-104.25" font-family="Helvetica,sans-Serif" font-size="10.00"> authorizations</text>
</g>
<!-- Node5&#45;&gt;Node1 -->
<g id="edge5" class="edge">
<title>Node5&#45;&gt;Node1</title>
<path fill="none" stroke="#9a32cd" stroke-dasharray="5,2" d="M764,-61.67C785.02,-65.42 807.45,-69.97 828,-75.25 844.45,-79.47 862.51,-85.59 876.61,-90.72"/>
<polygon fill="#9a32cd" stroke="#9a32cd" points="764.58,-58.22 754.12,-59.94 763.37,-65.11 764.58,-58.22"/>
<text text-anchor="middle" x="800" y="-78.25" font-family="Helvetica,sans-Serif" font-size="10.00"> challenges</text>
</g>
<!-- Node6&#45;&gt;Node5 -->
<g id="edge7" class="edge">
<title>Node6&#45;&gt;Node5</title>
<path fill="none" stroke="#9a32cd" stroke-dasharray="5,2" d="M472.46,-23.78C507.4,-27.74 549.31,-32.61 587,-37.25 592.72,-37.95 598.65,-38.7 604.6,-39.45"/>
<polygon fill="#9a32cd" stroke="#9a32cd" points="472.66,-20.28 462.33,-22.63 471.87,-27.23 472.66,-20.28"/>
<text text-anchor="middle" x="533.5" y="-40.25" font-family="Helvetica,sans-Serif" font-size="10.00"> elements</text>
</g>
</g>
</svg>
