<?xml version="1.0" encoding="UTF-8" standalone="no"?>
<!DOCTYPE svg PUBLIC "-//W3C//DTD SVG 1.1//EN"
 "http://www.w3.org/Graphics/SVG/1.1/DTD/svg11.dtd">
<!-- Generated by graphviz version 2.43.0 (0)
 -->
<!-- Title: ACME::Client::FinalizationWaitMsg Pages: 1 -->
<svg width="1619pt" height="371pt"
 viewBox="0.00 0.00 1619.00 370.53" xmlns="http://www.w3.org/2000/svg" xmlns:xlink="http://www.w3.org/1999/xlink">
<g id="graph0" class="graph" transform="scale(1 1) rotate(0) translate(4 366.53)">
<title>ACME::Client::FinalizationWaitMsg</title>
<!-- Node1 -->
<g id="node1" class="node">
<title>Node1</title>
<g id="a_node1"><a xlink:title=" ">
<polygon fill="#999999" stroke="#666666" points="1611,-303.53 1469,-303.53 1469,-273.53 1611,-273.53 1611,-303.53"/>
<text text-anchor="start" x="1477" y="-291.53" font-family="Helvetica,sans-Serif" font-size="10.00">ACME::Client::Finalization</text>
<text text-anchor="middle" x="1540" y="-280.53" font-family="Helvetica,sans-Serif" font-size="10.00">WaitMsg</text>
</a>
</g>
</g>
<!-- Node2 -->
<g id="node2" class="node">
<title>Node2</title>
<g id="a_node2"><a xlink:title=" ">
<polygon fill="white" stroke="#666666" points="206,-201.03 141,-201.03 141,-182.03 206,-182.03 206,-201.03"/>
<text text-anchor="middle" x="173.5" y="-189.03" font-family="Helvetica,sans-Serif" font-size="10.00">std::string</text>
</a>
</g>
</g>
<!-- Node2&#45;&gt;Node1 -->
<g id="edge1" class="edge">
<title>Node2&#45;&gt;Node1</title>
<path fill="none" stroke="#9a32cd" stroke-dasharray="5,2" d="M180.16,-210.99C187.21,-232.05 201.2,-265.32 224,-285.53 285.58,-340.12 314.71,-351.53 397,-351.53 397,-351.53 397,-351.53 1363,-351.53 1419.63,-351.53 1480.83,-322.26 1514.06,-303.62"/>
<polygon fill="#9a32cd" stroke="#9a32cd" points="183.43,-209.72 177.09,-201.23 176.75,-211.82 183.43,-209.72"/>
<text text-anchor="middle" x="925.5" y="-354.53" font-family="Helvetica,sans-Serif" font-size="10.00"> order_url</text>
</g>
<!-- Node5 -->
<g id="node5" class="node">
<title>Node5</title>
<g id="a_node5"><a xlink:href="structACME_1_1ClientConfig.html" target="_top" xlink:title=" ">
<polygon fill="white" stroke="#666666" points="757.5,-118.03 647.5,-118.03 647.5,-99.03 757.5,-99.03 757.5,-118.03"/>
<text text-anchor="middle" x="702.5" y="-106.03" font-family="Helvetica,sans-Serif" font-size="10.00">ACME::ClientConfig</text>
</a>
</g>
</g>
<!-- Node2&#45;&gt;Node5 -->
<g id="edge7" class="edge">
<title>Node2&#45;&gt;Node5</title>
<path fill="none" stroke="#9a32cd" stroke-dasharray="5,2" d="M194.93,-175.9C203.6,-169.69 214,-162.79 224,-157.53 267.82,-134.47 279.42,-127.16 328,-117.53 439.82,-95.37 574.14,-99.4 647.37,-104.1"/>
<polygon fill="#9a32cd" stroke="#9a32cd" points="192.59,-173.28 186.6,-182.02 196.73,-178.92 192.59,-173.28"/>
<text text-anchor="middle" x="398" y="-142.53" font-family="Helvetica,sans-Serif" font-size="10.00"> challenge_type</text>
<text text-anchor="middle" x="398" y="-131.53" font-family="Helvetica,sans-Serif" font-size="10.00">directory_url</text>
<text text-anchor="middle" x="398" y="-120.53" font-family="Helvetica,sans-Serif" font-size="10.00">service_dns_name</text>
</g>
<!-- Node6 -->
<g id="node6" class="node">
<title>Node6</title>
<g id="a_node6"><a xlink:title=" ">
<polygon fill="white" stroke="#666666" points="468,-72.03 328,-72.03 328,-53.03 468,-53.03 468,-72.03"/>
<text text-anchor="middle" x="398" y="-60.03" font-family="Helvetica,sans-Serif" font-size="10.00">std::vector&lt; std::string &gt;</text>
</a>
</g>
</g>
<!-- Node2&#45;&gt;Node6 -->
<g id="edge6" class="edge">
<title>Node2&#45;&gt;Node6</title>
<path fill="none" stroke="#9a32cd" stroke-dasharray="5,2" d="M177.61,-171.66C182.65,-146.71 195.11,-104.63 224,-83.53 253.44,-62.03 293.49,-56.11 327.65,-55.88"/>
<polygon fill="#9a32cd" stroke="#9a32cd" points="174.12,-171.32 175.79,-181.78 181.01,-172.56 174.12,-171.32"/>
<text text-anchor="middle" x="267" y="-86.53" font-family="Helvetica,sans-Serif" font-size="10.00"> elements</text>
</g>
<!-- Node9 -->
<g id="node9" class="node">
<title>Node9</title>
<g id="a_node9"><a xlink:title=" ">
<polygon fill="white" stroke="#666666" points="610,-38.03 486,-38.03 486,-19.03 610,-19.03 610,-38.03"/>
<text text-anchor="middle" x="548" y="-26.03" font-family="Helvetica,sans-Serif" font-size="10.00">std::list&lt; std::string &gt;</text>
</a>
</g>
</g>
<!-- Node2&#45;&gt;Node9 -->
<g id="edge11" class="edge">
<title>Node2&#45;&gt;Node9</title>
<path fill="none" stroke="#9a32cd" stroke-dasharray="5,2" d="M174.48,-171.57C175.66,-138.56 183.33,-73.24 224,-42.53 310.68,22.91 450.86,-2.58 514.14,-18.93"/>
<polygon fill="#9a32cd" stroke="#9a32cd" points="170.98,-171.72 174.3,-181.78 177.98,-171.85 170.98,-171.72"/>
<text text-anchor="middle" x="267" y="-45.53" font-family="Helvetica,sans-Serif" font-size="10.00"> elements</text>
</g>
<!-- Node12 -->
<g id="node12" class="node">
<title>Node12</title>
<g id="a_node12"><a xlink:href="structACME_1_1Client_1_1Order.html" target="_top" xlink:title=" ">
<polygon fill="white" stroke="#666666" points="982,-245.03 869,-245.03 869,-226.03 982,-226.03 982,-245.03"/>
<text text-anchor="middle" x="925.5" y="-233.03" font-family="Helvetica,sans-Serif" font-size="10.00">ACME::Client::Order</text>
</a>
</g>
</g>
<!-- Node2&#45;&gt;Node12 -->
<g id="edge15" class="edge">
<title>Node2&#45;&gt;Node12</title>
<path fill="none" stroke="#9a32cd" stroke-dasharray="5,2" d="M181.29,-210.73C188.75,-228.63 202.58,-254.33 224,-266.53 264.21,-289.43 281.74,-270.42 328,-271.53 527.52,-276.33 578.21,-283.22 777,-265.53 810.12,-262.59 818.41,-261.15 851,-254.53 864.05,-251.88 878.24,-248.37 890.64,-245.08"/>
<polygon fill="#9a32cd" stroke="#9a32cd" points="184.5,-209.32 177.63,-201.26 177.97,-211.85 184.5,-209.32"/>
<text text-anchor="middle" x="548" y="-312.53" font-family="Helvetica,sans-Serif" font-size="10.00"> account_url</text>
<text text-anchor="middle" x="548" y="-301.53" font-family="Helvetica,sans-Serif" font-size="10.00">certificate_url</text>
<text text-anchor="middle" x="548" y="-290.53" font-family="Helvetica,sans-Serif" font-size="10.00">finalize_url</text>
<text text-anchor="middle" x="548" y="-279.53" font-family="Helvetica,sans-Serif" font-size="10.00">order_url</text>
</g>
<!-- Node13 -->
<g id="node13" class="node">
<title>Node13</title>
<g id="a_node13"><a xlink:title=" ">
<polygon fill="white" stroke="#666666" points="601.5,-269.53 494.5,-269.53 494.5,-239.53 601.5,-239.53 601.5,-269.53"/>
<text text-anchor="start" x="502.5" y="-257.53" font-family="Helvetica,sans-Serif" font-size="10.00">std::unordered_set</text>
<text text-anchor="middle" x="548" y="-246.53" font-family="Helvetica,sans-Serif" font-size="10.00">&lt; std::string &gt;</text>
</a>
</g>
</g>
<!-- Node2&#45;&gt;Node13 -->
<g id="edge17" class="edge">
<title>Node2&#45;&gt;Node13</title>
<path fill="none" stroke="#9a32cd" stroke-dasharray="5,2" d="M191.07,-208.18C200.04,-216.1 211.76,-224.84 224,-229.53 314.2,-264.1 428.75,-263.54 494.38,-259.42"/>
<polygon fill="#9a32cd" stroke="#9a32cd" points="193.38,-205.55 183.68,-201.28 188.6,-210.66 193.38,-205.55"/>
<text text-anchor="middle" x="267" y="-254.53" font-family="Helvetica,sans-Serif" font-size="10.00"> keys</text>
</g>
<!-- Node14 -->
<g id="node14" class="node">
<title>Node14</title>
<g id="a_node14"><a xlink:title=" ">
<polygon fill="white" stroke="#666666" points="777,-217.53 628,-217.53 628,-187.53 777,-187.53 777,-217.53"/>
<text text-anchor="start" x="636" y="-205.53" font-family="Helvetica,sans-Serif" font-size="10.00">std::map&lt; std::string,</text>
<text text-anchor="middle" x="702.5" y="-194.53" font-family="Helvetica,sans-Serif" font-size="10.00"> ACME::Client::Challenge &gt;</text>
</a>
</g>
</g>
<!-- Node2&#45;&gt;Node14 -->
<g id="edge19" class="edge">
<title>Node2&#45;&gt;Node14</title>
<path fill="none" stroke="#9a32cd" stroke-dasharray="5,2" d="M216.19,-200.56C218.82,-200.94 221.44,-201.27 224,-201.53 366.28,-215.91 533.62,-211.37 627.65,-206.87"/>
<polygon fill="#9a32cd" stroke="#9a32cd" points="216.49,-197.06 206.05,-198.87 215.33,-203.97 216.49,-197.06"/>
<text text-anchor="middle" x="398" y="-214.53" font-family="Helvetica,sans-Serif" font-size="10.00"> keys</text>
</g>
<!-- Node15 -->
<g id="node15" class="node">
<title>Node15</title>
<g id="a_node15"><a xlink:href="structACME_1_1Client_1_1Challenge.html" target="_top" xlink:title=" ">
<polygon fill="white" stroke="#666666" points="465,-179.03 331,-179.03 331,-160.03 465,-160.03 465,-179.03"/>
<text text-anchor="middle" x="398" y="-167.03" font-family="Helvetica,sans-Serif" font-size="10.00">ACME::Client::Challenge</text>
</a>
</g>
</g>
<!-- Node2&#45;&gt;Node15 -->
<g id="edge21" class="edge">
<title>Node2&#45;&gt;Node15</title>
<path fill="none" stroke="#9a32cd" stroke-dasharray="5,2" d="M199.44,-177.38C207.08,-173.76 215.67,-170.37 224,-168.53 258.75,-160.85 298.4,-160.5 330.97,-162.33"/>
<polygon fill="#9a32cd" stroke="#9a32cd" points="197.7,-174.34 190.37,-182 200.87,-180.59 197.7,-174.34"/>
<text text-anchor="middle" x="267" y="-193.53" font-family="Helvetica,sans-Serif" font-size="10.00"> authorization_url</text>
<text text-anchor="middle" x="267" y="-182.53" font-family="Helvetica,sans-Serif" font-size="10.00">challenge_url</text>
<text text-anchor="middle" x="267" y="-171.53" font-family="Helvetica,sans-Serif" font-size="10.00">token</text>
</g>
<!-- Node3 -->
<g id="node3" class="node">
<title>Node3</title>
<g id="a_node3"><a xlink:title=" ">
<polygon fill="white" stroke="#666666" points="104,-206.53 0,-206.53 0,-176.53 104,-176.53 104,-206.53"/>
<text text-anchor="start" x="8" y="-194.53" font-family="Helvetica,sans-Serif" font-size="10.00">std::basic_string&lt;</text>
<text text-anchor="middle" x="52" y="-183.53" font-family="Helvetica,sans-Serif" font-size="10.00"> Char &gt;</text>
</a>
</g>
</g>
<!-- Node3&#45;&gt;Node2 -->
<g id="edge2" class="edge">
<title>Node3&#45;&gt;Node2</title>
<path fill="none" stroke="#63b8ff" d="M114.1,-191.53C123.41,-191.53 132.68,-191.53 141,-191.53"/>
<polygon fill="#63b8ff" stroke="#63b8ff" points="114.03,-188.03 104.03,-191.53 114.03,-195.03 114.03,-188.03"/>
</g>
<!-- Node4 -->
<g id="node4" class="node">
<title>Node4</title>
<g id="a_node4"><a xlink:href="classACME_1_1Client.html" target="_top" xlink:title=" ">
<polygon fill="white" stroke="#666666" points="1402,-237.03 1322,-237.03 1322,-218.03 1402,-218.03 1402,-237.03"/>
<text text-anchor="middle" x="1362" y="-225.03" font-family="Helvetica,sans-Serif" font-size="10.00">ACME::Client</text>
</a>
</g>
</g>
<!-- Node4&#45;&gt;Node1 -->
<g id="edge3" class="edge">
<title>Node4&#45;&gt;Node1</title>
<path fill="none" stroke="#9a32cd" stroke-dasharray="5,2" d="M1400.27,-240.45C1428.15,-250.11 1466.35,-263.35 1495.61,-273.49"/>
<polygon fill="#9a32cd" stroke="#9a32cd" points="1401.09,-237.03 1390.5,-237.06 1398.8,-243.65 1401.09,-237.03"/>
<text text-anchor="middle" x="1435.5" y="-260.53" font-family="Helvetica,sans-Serif" font-size="10.00"> client</text>
</g>
<!-- Node5&#45;&gt;Node4 -->
<g id="edge4" class="edge">
<title>Node5&#45;&gt;Node4</title>
<path fill="none" stroke="#9a32cd" stroke-dasharray="5,2" d="M767.56,-115.53C862.16,-126.33 1044.6,-148.94 1198,-178.53 1245.63,-187.72 1257.83,-189.64 1304,-204.53 1315.88,-208.37 1328.81,-213.5 1339.34,-217.94"/>
<polygon fill="#9a32cd" stroke="#9a32cd" points="767.91,-112.04 757.58,-114.39 767.12,-119 767.91,-112.04"/>
<text text-anchor="middle" x="1024.5" y="-156.53" font-family="Helvetica,sans-Serif" font-size="10.00"> config</text>
</g>
<!-- Node6&#45;&gt;Node5 -->
<g id="edge5" class="edge">
<title>Node6&#45;&gt;Node5</title>
<path fill="none" stroke="#9a32cd" stroke-dasharray="5,2" d="M478.35,-60.2C518.25,-60.56 567.12,-63.34 610,-72.53 636.04,-78.11 664.32,-90.26 682.44,-98.9"/>
<polygon fill="#9a32cd" stroke="#9a32cd" points="478.16,-56.7 468.15,-60.16 478.13,-63.7 478.16,-56.7"/>
<text text-anchor="middle" x="548" y="-86.53" font-family="Helvetica,sans-Serif" font-size="10.00"> ca_certs</text>
<text text-anchor="middle" x="548" y="-75.53" font-family="Helvetica,sans-Serif" font-size="10.00">contact</text>
</g>
<!-- Node7 -->
<g id="node7" class="node">
<title>Node7</title>
<g id="a_node7"><a xlink:title=" ">
<polygon fill="white" stroke="#666666" points="1198,-304.53 1067,-304.53 1067,-274.53 1198,-274.53 1198,-304.53"/>
<text text-anchor="start" x="1075" y="-292.53" font-family="Helvetica,sans-Serif" font-size="10.00">std::shared_ptr&lt; crypto</text>
<text text-anchor="middle" x="1132.5" y="-281.53" font-family="Helvetica,sans-Serif" font-size="10.00">::KeyPair &gt;</text>
</a>
</g>
</g>
<!-- Node7&#45;&gt;Node4 -->
<g id="edge8" class="edge">
<title>Node7&#45;&gt;Node4</title>
<path fill="none" stroke="#9a32cd" stroke-dasharray="5,2" d="M1208.41,-285.54C1238.82,-282.14 1273.82,-275.92 1304,-264.53 1321.22,-258.04 1338.62,-245.72 1349.59,-237.09"/>
<polygon fill="#9a32cd" stroke="#9a32cd" points="1207.88,-282.08 1198.29,-286.59 1208.6,-289.04 1207.88,-282.08"/>
<text text-anchor="middle" x="1260" y="-297.53" font-family="Helvetica,sans-Serif" font-size="10.00"> account_key_pair</text>
<text text-anchor="middle" x="1260" y="-286.53" font-family="Helvetica,sans-Serif" font-size="10.00">service_key</text>
</g>
<!-- Node8 -->
<g id="node8" class="node">
<title>Node8</title>
<g id="a_node8"><a xlink:href="classcrypto_1_1KeyPair.html" target="_top" xlink:title=" ">
<polygon fill="white" stroke="#666666" points="970,-299.03 881,-299.03 881,-280.03 970,-280.03 970,-299.03"/>
<text text-anchor="middle" x="925.5" y="-287.03" font-family="Helvetica,sans-Serif" font-size="10.00">crypto::KeyPair</text>
</a>
</g>
</g>
<!-- Node8&#45;&gt;Node7 -->
<g id="edge9" class="edge">
<title>Node8&#45;&gt;Node7</title>
<path fill="none" stroke="#9a32cd" stroke-dasharray="5,2" d="M980.45,-289.53C1006.93,-289.53 1039.03,-289.53 1066.81,-289.53"/>
<polygon fill="#9a32cd" stroke="#9a32cd" points="980.23,-286.03 970.23,-289.53 980.23,-293.03 980.23,-286.03"/>
<text text-anchor="middle" x="1024.5" y="-292.53" font-family="Helvetica,sans-Serif" font-size="10.00"> ptr</text>
</g>
<!-- Node9&#45;&gt;Node4 -->
<g id="edge10" class="edge">
<title>Node9&#45;&gt;Node4</title>
<path fill="none" stroke="#9a32cd" stroke-dasharray="5,2" d="M620.08,-39.44C675.06,-46.93 753.18,-55.53 822,-55.53 822,-55.53 822,-55.53 1133.5,-55.53 1241.94,-55.53 1331.34,-181.41 1354.91,-217.79"/>
<polygon fill="#9a32cd" stroke="#9a32cd" points="620.48,-35.96 610.09,-38.05 619.51,-42.89 620.48,-35.96"/>
<text text-anchor="middle" x="925.5" y="-58.53" font-family="Helvetica,sans-Serif" font-size="10.00"> nonces</text>
</g>
<!-- Node10 -->
<g id="node10" class="node">
<title>Node10</title>
<g id="a_node10"><a xlink:title=" ">
<polygon fill="white" stroke="#666666" points="1167,-255.03 1098,-255.03 1098,-236.03 1167,-236.03 1167,-255.03"/>
<text text-anchor="middle" x="1132.5" y="-243.03" font-family="Helvetica,sans-Serif" font-size="10.00">std::mutex</text>
</a>
</g>
</g>
<!-- Node10&#45;&gt;Node4 -->
<g id="edge12" class="edge">
<title>Node10&#45;&gt;Node4</title>
<path fill="none" stroke="#9a32cd" stroke-dasharray="5,2" d="M1177.24,-242.07C1219.12,-238.76 1281.71,-233.81 1321.95,-230.62"/>
<polygon fill="#9a32cd" stroke="#9a32cd" points="1176.76,-238.6 1167.07,-242.88 1177.31,-245.58 1176.76,-238.6"/>
<text text-anchor="middle" x="1260" y="-252.53" font-family="Helvetica,sans-Serif" font-size="10.00"> orders_lock</text>
<text text-anchor="middle" x="1260" y="-241.53" font-family="Helvetica,sans-Serif" font-size="10.00">req_lock</text>
</g>
<!-- Node11 -->
<g id="node11" class="node">
<title>Node11</title>
<g id="a_node11"><a xlink:title=" ">
<polygon fill="white" stroke="#666666" points="1196,-217.53 1069,-217.53 1069,-187.53 1196,-187.53 1196,-217.53"/>
<text text-anchor="start" x="1077" y="-205.53" font-family="Helvetica,sans-Serif" font-size="10.00">std::list&lt; ACME::Client</text>
<text text-anchor="middle" x="1132.5" y="-194.53" font-family="Helvetica,sans-Serif" font-size="10.00">::Order &gt;</text>
</a>
</g>
</g>
<!-- Node11&#45;&gt;Node4 -->
<g id="edge13" class="edge">
<title>Node11&#45;&gt;Node4</title>
<path fill="none" stroke="#9a32cd" stroke-dasharray="5,2" d="M1206.11,-206.75C1236.45,-208.96 1272.01,-212.15 1304,-216.53 1309.79,-217.33 1315.88,-218.33 1321.84,-219.4"/>
<polygon fill="#9a32cd" stroke="#9a32cd" points="1206.25,-203.25 1196.03,-206.03 1205.76,-210.23 1206.25,-203.25"/>
<text text-anchor="middle" x="1260" y="-219.53" font-family="Helvetica,sans-Serif" font-size="10.00"> active_orders</text>
</g>
<!-- Node12&#45;&gt;Node11 -->
<g id="edge14" class="edge">
<title>Node12&#45;&gt;Node11</title>
<path fill="none" stroke="#9a32cd" stroke-dasharray="5,2" d="M992.2,-224.96C1016.78,-221 1044.61,-216.52 1068.9,-212.61"/>
<polygon fill="#9a32cd" stroke="#9a32cd" points="991.56,-221.51 982.25,-226.56 992.68,-228.42 991.56,-221.51"/>
<text text-anchor="middle" x="1024.5" y="-226.53" font-family="Helvetica,sans-Serif" font-size="10.00"> elements</text>
</g>
<!-- Node13&#45;&gt;Node12 -->
<g id="edge16" class="edge">
<title>Node13&#45;&gt;Node12</title>
<path fill="none" stroke="#9a32cd" stroke-dasharray="5,2" d="M611.9,-251.5C672.99,-248.53 768.36,-243.83 851,-239.53 856.74,-239.23 862.74,-238.92 868.72,-238.6"/>
<polygon fill="#9a32cd" stroke="#9a32cd" points="611.47,-248.01 601.65,-251.99 611.81,-255 611.47,-248.01"/>
<text text-anchor="middle" x="702.5" y="-253.53" font-family="Helvetica,sans-Serif" font-size="10.00"> authorizations</text>
</g>
<!-- Node14&#45;&gt;Node12 -->
<g id="edge18" class="edge">
<title>Node14&#45;&gt;Node12</title>
<path fill="none" stroke="#9a32cd" stroke-dasharray="5,2" d="M787.03,-215.01C814.33,-219.08 843.97,-223.51 868.71,-227.2"/>
<polygon fill="#9a32cd" stroke="#9a32cd" points="787.5,-211.54 777.09,-213.52 786.46,-218.46 787.5,-211.54"/>
<text text-anchor="middle" x="823" y="-227.53" font-family="Helvetica,sans-Serif" font-size="10.00"> challenges</text>
</g>
<!-- Node15&#45;&gt;Node14 -->
<g id="edge20" class="edge">
<title>Node15&#45;&gt;Node14</title>
<path fill="none" stroke="#9a32cd" stroke-dasharray="5,2" d="M475.09,-176.53C515.25,-180.37 565.33,-185.38 610,-190.53 615.73,-191.19 621.66,-191.91 627.61,-192.64"/>
<polygon fill="#9a32cd" stroke="#9a32cd" points="475.39,-173.04 465.11,-175.58 474.73,-180.01 475.39,-173.04"/>
<text text-anchor="middle" x="548" y="-193.53" font-family="Helvetica,sans-Serif" font-size="10.00"> elements</text>
</g>
</g>
</svg>
