<?xml version="1.0" encoding="UTF-8" standalone="no"?>
<!DOCTYPE svg PUBLIC "-//W3C//DTD SVG 1.1//EN"
 "http://www.w3.org/Graphics/SVG/1.1/DTD/svg11.dtd">
<!-- Generated by graphviz version 2.43.0 (0)
 -->
<!-- Title: ACME::ClientConfig Pages: 1 -->
<svg width="296pt" height="251pt"
 viewBox="0.00 0.00 296.00 251.00" xmlns="http://www.w3.org/2000/svg" xmlns:xlink="http://www.w3.org/1999/xlink">
<g id="graph0" class="graph" transform="scale(1 1) rotate(0) translate(4 247)">
<title>ACME::ClientConfig</title>
<!-- Node1 -->
<g id="node1" class="node">
<title>Node1</title>
<g id="a_node1"><a xlink:title=" ">
<polygon fill="#999999" stroke="#666666" points="110,-19 0,-19 0,0 110,0 110,-19"/>
<text text-anchor="middle" x="55" y="-7" font-family="Helvetica,sans-Serif" font-size="10.00">ACME::ClientConfig</text>
</a>
</g>
</g>
<!-- Node2 -->
<g id="node2" class="node">
<title>Node2</title>
<g id="a_node2"><a xlink:title=" ">
<polygon fill="white" stroke="#666666" points="288,-103 148,-103 148,-84 288,-84 288,-103"/>
<text text-anchor="middle" x="218" y="-91" font-family="Helvetica,sans-Serif" font-size="10.00">std::vector&lt; std::string &gt;</text>
</a>
</g>
</g>
<!-- Node2&#45;&gt;Node1 -->
<g id="edge1" class="edge">
<title>Node2&#45;&gt;Node1</title>
<path fill="none" stroke="#9a32cd" stroke-dasharray="5,2" d="M191.61,-79.22C157.84,-62.23 100.32,-33.3 71.91,-19"/>
<polygon fill="#9a32cd" stroke="#9a32cd" points="190.36,-82.51 200.86,-83.88 193.5,-76.26 190.36,-82.51"/>
<text text-anchor="middle" x="173" y="-51" font-family="Helvetica,sans-Serif" font-size="10.00"> ca_certs</text>
<text text-anchor="middle" x="173" y="-40" font-family="Helvetica,sans-Serif" font-size="10.00">contact</text>
</g>
<!-- Node3 -->
<g id="node3" class="node">
<title>Node3</title>
<g id="a_node3"><a xlink:title=" ">
<polygon fill="white" stroke="#666666" points="87.5,-176 22.5,-176 22.5,-157 87.5,-157 87.5,-176"/>
<text text-anchor="middle" x="55" y="-164" font-family="Helvetica,sans-Serif" font-size="10.00">std::string</text>
</a>
</g>
</g>
<!-- Node3&#45;&gt;Node1 -->
<g id="edge4" class="edge">
<title>Node3&#45;&gt;Node1</title>
<path fill="none" stroke="#9a32cd" stroke-dasharray="5,2" d="M52.07,-146.97C50.52,-136.21 48.78,-122.37 48,-110 45.88,-76.3 51.05,-36.21 53.64,-19.02"/>
<polygon fill="#9a32cd" stroke="#9a32cd" points="48.61,-147.52 53.57,-156.88 55.54,-146.47 48.61,-147.52"/>
<text text-anchor="middle" x="93.5" y="-102" font-family="Helvetica,sans-Serif" font-size="10.00"> challenge_type</text>
<text text-anchor="middle" x="93.5" y="-91" font-family="Helvetica,sans-Serif" font-size="10.00">directory_url</text>
<text text-anchor="middle" x="93.5" y="-80" font-family="Helvetica,sans-Serif" font-size="10.00">service_dns_name</text>
</g>
<!-- Node3&#45;&gt;Node2 -->
<g id="edge2" class="edge">
<title>Node3&#45;&gt;Node2</title>
<path fill="none" stroke="#9a32cd" stroke-dasharray="5,2" d="M84.2,-152.78C117.15,-138.43 169.84,-115.48 198.27,-103.09"/>
<polygon fill="#9a32cd" stroke="#9a32cd" points="82.43,-149.73 74.66,-156.94 85.23,-156.15 82.43,-149.73"/>
<text text-anchor="middle" x="160.5" y="-131" font-family="Helvetica,sans-Serif" font-size="10.00"> elements</text>
</g>
<!-- Node4 -->
<g id="node4" class="node">
<title>Node4</title>
<g id="a_node4"><a xlink:title=" ">
<polygon fill="white" stroke="#666666" points="107,-243 3,-243 3,-213 107,-213 107,-243"/>
<text text-anchor="start" x="11" y="-231" font-family="Helvetica,sans-Serif" font-size="10.00">std::basic_string&lt;</text>
<text text-anchor="middle" x="55" y="-220" font-family="Helvetica,sans-Serif" font-size="10.00"> Char &gt;</text>
</a>
</g>
</g>
<!-- Node4&#45;&gt;Node3 -->
<g id="edge3" class="edge">
<title>Node4&#45;&gt;Node3</title>
<path fill="none" stroke="#63b8ff" d="M55,-202.79C55,-193.36 55,-183.15 55,-176.16"/>
<polygon fill="#63b8ff" stroke="#63b8ff" points="51.5,-202.9 55,-212.9 58.5,-202.9 51.5,-202.9"/>
</g>
</g>
</svg>
