<?xml version="1.0" encoding="UTF-8" standalone="no"?>
<!DOCTYPE svg PUBLIC "-//W3C//DTD SVG 1.1//EN"
 "http://www.w3.org/Graphics/SVG/1.1/DTD/svg11.dtd">
<!-- Generated by graphviz version 2.43.0 (0)
 -->
<!-- Title: src/service/tables/submitted_shares.h Pages: 1 -->
<!--zoomable 511 -->
<svg id="main" version="1.1" xmlns="http://www.w3.org/2000/svg" xmlns:xlink="http://www.w3.org/1999/xlink" xml:space="preserve" onload="init(evt)">
<style type="text/css"><![CDATA[
.edge:hover path { stroke: red; }
.edge:hover polygon { stroke: red; fill: red; }
]]></style>
<script type="text/javascript"><![CDATA[
var edges = document.getElementsByTagName('g');
if (edges && edges.length) {
  for (var i=0;i<edges.length;i++) {
    if (edges[i].id.substr(0,4)=='edge') {
      edges[i].setAttribute('class','edge');
    }
  }
}
]]></script>
        <defs>
                <circle id="rim" cx="0" cy="0" r="7"/>
                <circle id="rim2" cx="0" cy="0" r="3.5"/>
                <g id="zoomPlus">
                        <use xlink:href="#rim" fill="#404040">
                                <set attributeName="fill" to="#808080" begin="zoomplus.mouseover" end="zoomplus.mouseout"/>
                        </use>
                        <path d="M-4,0h8M0,-4v8" fill="none" stroke="white" stroke-width="1.5" pointer-events="none"/>
                </g>
                <g id="zoomMin">
                        <use xlink:href="#rim" fill="#404040">
                                <set attributeName="fill" to="#808080" begin="zoomminus.mouseover" end="zoomminus.mouseout"/>
                        </use>
                        <path d="M-4,0h8" fill="none" stroke="white" stroke-width="1.5" pointer-events="none"/>
                </g>
                <g id="dirArrow">
                        <path fill="none" stroke="white" stroke-width="1.5" d="M0,-3.0v7 M-2.5,-0.5L0,-3.0L2.5,-0.5"/>
                </g>
               <g id="resetDef">
                       <use xlink:href="#rim2" fill="#404040">
                               <set attributeName="fill" to="#808080" begin="reset.mouseover" end="reset.mouseout"/>
                       </use>
               </g>
        </defs>

<script type="text/javascript">
var viewWidth = 1203;
var viewHeight = 511;
var sectionId = 'dynsection-0';
</script>
<script xlink:href="svgpan.js"/>
<svg id="graph" class="graph">
<g id="viewport">
<title>src/service/tables/submitted_shares.h</title>
<!-- Node1 -->
<g id="node1" class="node">
<title>Node1</title>
<g id="a_node1"><a xlink:title=" ">
<polygon fill="#999999" stroke="#666666" points="959,-503 843,-503 843,-473 959,-473 959,-503"/>
<text text-anchor="start" x="851" y="-491" font-family="Helvetica,sans-Serif" font-size="10.00">src/service/tables</text>
<text text-anchor="middle" x="901" y="-480" font-family="Helvetica,sans-Serif" font-size="10.00">/submitted_shares.h</text>
</a>
</g>
</g>
<!-- Node2 -->
<g id="node2" class="node">
<title>Node2</title>
<g id="a_node2"><a xlink:href="service_2map_8h.html" target="_top" xlink:title=" ">
<polygon fill="white" stroke="#666666" points="694.5,-437 591.5,-437 591.5,-418 694.5,-418 694.5,-437"/>
<text text-anchor="middle" x="643" y="-425" font-family="Helvetica,sans-Serif" font-size="10.00">ccf/service/map.h</text>
</a>
</g>
</g>
<!-- Node1&#45;&gt;Node2 -->
<g id="edge1" class="edge">
<title>Node1&#45;&gt;Node2</title>
<path fill="none" stroke="#63b8ff" d="M842.78,-473.8C796.82,-463.38 733.51,-449.02 690.57,-439.29"/>
<polygon fill="#63b8ff" stroke="#63b8ff" points="691.18,-435.84 680.65,-437.04 689.63,-442.66 691.18,-435.84"/>
</g>
<!-- Node18 -->
<g id="node18" class="node">
<title>Node18</title>
<g id="a_node18"><a xlink:title=" ">
<polygon fill="#e0e0e0" stroke="#999999" points="792.5,-19 745.5,-19 745.5,0 792.5,0 792.5,-19"/>
<text text-anchor="middle" x="769" y="-7" font-family="Helvetica,sans-Serif" font-size="10.00">vector</text>
</a>
</g>
</g>
<!-- Node1&#45;&gt;Node18 -->
<g id="edge61" class="edge">
<title>Node1&#45;&gt;Node18</title>
<path fill="none" stroke="#63b8ff" d="M959.08,-476.79C1044.77,-460.05 1195,-423.56 1195,-373.5 1195,-373.5 1195,-373.5 1195,-118.5 1195,-37.71 903.45,-16.68 802.74,-11.82"/>
<polygon fill="#63b8ff" stroke="#63b8ff" points="802.66,-8.31 792.51,-11.35 802.34,-15.31 802.66,-8.31"/>
</g>
<!-- Node3 -->
<g id="node3" class="node">
<title>Node3</title>
<g id="a_node3"><a xlink:href="kv_2map_8h.html" target="_top" xlink:title=" ">
<polygon fill="white" stroke="#666666" points="533,-382 453,-382 453,-363 533,-363 533,-382"/>
<text text-anchor="middle" x="493" y="-370" font-family="Helvetica,sans-Serif" font-size="10.00">ccf/kv/map.h</text>
</a>
</g>
</g>
<!-- Node2&#45;&gt;Node3 -->
<g id="edge2" class="edge">
<title>Node2&#45;&gt;Node3</title>
<path fill="none" stroke="#63b8ff" d="M618.9,-417.98C594.12,-409.23 555.3,-395.51 527.31,-385.62"/>
<polygon fill="#63b8ff" stroke="#63b8ff" points="528.13,-382.2 517.54,-382.17 525.8,-388.8 528.13,-382.2"/>
</g>
<!-- Node33 -->
<g id="node33" class="node">
<title>Node33</title>
<g id="a_node33"><a xlink:href="set_8h.html" target="_top" xlink:title=" ">
<polygon fill="white" stroke="#666666" points="727.5,-382 654.5,-382 654.5,-363 727.5,-363 727.5,-382"/>
<text text-anchor="middle" x="691" y="-370" font-family="Helvetica,sans-Serif" font-size="10.00">ccf/kv/set.h</text>
</a>
</g>
</g>
<!-- Node2&#45;&gt;Node33 -->
<g id="edge42" class="edge">
<title>Node2&#45;&gt;Node33</title>
<path fill="none" stroke="#63b8ff" d="M650.93,-417.75C657.85,-410.11 668.07,-398.82 676.45,-389.56"/>
<polygon fill="#63b8ff" stroke="#63b8ff" points="679.1,-391.85 683.22,-382.09 673.91,-387.15 679.1,-391.85"/>
</g>
<!-- Node36 -->
<g id="node36" class="node">
<title>Node36</title>
<g id="a_node36"><a xlink:href="value_8h.html" target="_top" xlink:title=" ">
<polygon fill="white" stroke="#666666" points="636.5,-382 551.5,-382 551.5,-363 636.5,-363 636.5,-382"/>
<text text-anchor="middle" x="594" y="-370" font-family="Helvetica,sans-Serif" font-size="10.00">ccf/kv/value.h</text>
</a>
</g>
</g>
<!-- Node2&#45;&gt;Node36 -->
<g id="edge52" class="edge">
<title>Node2&#45;&gt;Node36</title>
<path fill="none" stroke="#63b8ff" d="M634.91,-417.75C627.84,-410.11 617.41,-398.82 608.85,-389.56"/>
<polygon fill="#63b8ff" stroke="#63b8ff" points="611.3,-387.06 601.94,-382.09 606.16,-391.81 611.3,-387.06"/>
</g>
<!-- Node4 -->
<g id="node4" class="node">
<title>Node4</title>
<g id="a_node4"><a xlink:href="get__name_8h.html" target="_top" xlink:title=" ">
<polygon fill="white" stroke="#666666" points="865.5,-321.5 758.5,-321.5 758.5,-302.5 865.5,-302.5 865.5,-321.5"/>
<text text-anchor="middle" x="812" y="-309.5" font-family="Helvetica,sans-Serif" font-size="10.00">ccf/kv/get_name.h</text>
</a>
</g>
</g>
<!-- Node3&#45;&gt;Node4 -->
<g id="edge3" class="edge">
<title>Node3&#45;&gt;Node4</title>
<path fill="none" stroke="#63b8ff" d="M533.08,-364.67C599.97,-353.27 729.1,-331.17 750,-327 755.08,-325.99 760.38,-324.88 765.65,-323.74"/>
<polygon fill="#63b8ff" stroke="#63b8ff" points="766.66,-327.1 775.68,-321.53 765.16,-320.26 766.66,-327.1"/>
</g>
<!-- Node6 -->
<g id="node6" class="node">
<title>Node6</title>
<g id="a_node6"><a xlink:href="include_2ccf_2kv_2hooks_8h.html" target="_top" xlink:title=" ">
<polygon fill="white" stroke="#666666" points="134.5,-255.5 47.5,-255.5 47.5,-236.5 134.5,-236.5 134.5,-255.5"/>
<text text-anchor="middle" x="91" y="-243.5" font-family="Helvetica,sans-Serif" font-size="10.00">ccf/kv/hooks.h</text>
</a>
</g>
</g>
<!-- Node3&#45;&gt;Node6 -->
<g id="edge5" class="edge">
<title>Node3&#45;&gt;Node6</title>
<path fill="none" stroke="#63b8ff" d="M452.88,-370.58C347.05,-367.74 66.56,-357.4 39,-327 20.34,-306.42 48.45,-278.46 70.06,-261.63"/>
<polygon fill="#63b8ff" stroke="#63b8ff" points="72.28,-264.35 78.2,-255.56 68.09,-258.74 72.28,-264.35"/>
</g>
<!-- Node10 -->
<g id="node10" class="node">
<title>Node10</title>
<g id="a_node10"><a xlink:href="map__handle_8h.html" target="_top" xlink:title=" ">
<polygon fill="white" stroke="#666666" points="353,-321.5 235,-321.5 235,-302.5 353,-302.5 353,-321.5"/>
<text text-anchor="middle" x="294" y="-309.5" font-family="Helvetica,sans-Serif" font-size="10.00">ccf/kv/map_handle.h</text>
</a>
</g>
</g>
<!-- Node3&#45;&gt;Node10 -->
<g id="edge9" class="edge">
<title>Node3&#45;&gt;Node10</title>
<path fill="none" stroke="#63b8ff" d="M464.06,-362.99C429.43,-352.81 371.3,-335.72 332.79,-324.4"/>
<polygon fill="#63b8ff" stroke="#63b8ff" points="333.55,-320.98 322.97,-321.52 331.58,-327.7 333.55,-320.98"/>
</g>
<!-- Node22 -->
<g id="node22" class="node">
<title>Node22</title>
<g id="a_node22"><a xlink:href="blit__serialiser_8h.html" target="_top" xlink:title=" ">
<polygon fill="white" stroke="#666666" points="982.5,-327 883.5,-327 883.5,-297 982.5,-297 982.5,-327"/>
<text text-anchor="start" x="891.5" y="-315" font-family="Helvetica,sans-Serif" font-size="10.00">ccf/kv/serialisers</text>
<text text-anchor="middle" x="933" y="-304" font-family="Helvetica,sans-Serif" font-size="10.00">/blit_serialiser.h</text>
</a>
</g>
</g>
<!-- Node3&#45;&gt;Node22 -->
<g id="edge24" class="edge">
<title>Node3&#45;&gt;Node22</title>
<path fill="none" stroke="#63b8ff" d="M533.08,-364.47C536.43,-363.95 539.77,-363.45 543,-363 686.7,-343.01 726.98,-352.04 873.17,-327.18"/>
<polygon fill="#63b8ff" stroke="#63b8ff" points="874.15,-330.56 883.41,-325.41 872.96,-323.66 874.15,-330.56"/>
</g>
<!-- Node29 -->
<g id="node29" class="node">
<title>Node29</title>
<g id="a_node29"><a xlink:href="json__serialiser_8h.html" target="_top" xlink:title=" ">
<polygon fill="white" stroke="#666666" points="740.5,-327 641.5,-327 641.5,-297 740.5,-297 740.5,-327"/>
<text text-anchor="start" x="649.5" y="-315" font-family="Helvetica,sans-Serif" font-size="10.00">ccf/kv/serialisers</text>
<text text-anchor="middle" x="691" y="-304" font-family="Helvetica,sans-Serif" font-size="10.00">/json_serialiser.h</text>
</a>
</g>
</g>
<!-- Node3&#45;&gt;Node29 -->
<g id="edge34" class="edge">
<title>Node3&#45;&gt;Node29</title>
<path fill="none" stroke="#63b8ff" d="M521.79,-362.99C551.03,-354.35 597.11,-340.74 633.8,-329.9"/>
<polygon fill="#63b8ff" stroke="#63b8ff" points="634.8,-333.25 643.4,-327.06 632.82,-326.54 634.8,-333.25"/>
</g>
<!-- Node31 -->
<g id="node31" class="node">
<title>Node31</title>
<g id="a_node31"><a xlink:href="untyped_8h.html" target="_top" xlink:title=" ">
<polygon fill="white" stroke="#666666" points="217,-321.5 119,-321.5 119,-302.5 217,-302.5 217,-321.5"/>
<text text-anchor="middle" x="168" y="-309.5" font-family="Helvetica,sans-Serif" font-size="10.00">ccf/kv/untyped.h</text>
</a>
</g>
</g>
<!-- Node3&#45;&gt;Node31 -->
<g id="edge37" class="edge">
<title>Node3&#45;&gt;Node31</title>
<path fill="none" stroke="#63b8ff" d="M452.58,-365.69C400.13,-357.93 305.89,-343.28 226,-327 221.3,-326.04 216.4,-324.97 211.53,-323.86"/>
<polygon fill="#63b8ff" stroke="#63b8ff" points="212.18,-320.42 201.65,-321.55 210.59,-327.24 212.18,-320.42"/>
</g>
<!-- Node5 -->
<g id="node5" class="node">
<title>Node5</title>
<g id="a_node5"><a xlink:title=" ">
<polygon fill="#e0e0e0" stroke="#999999" points="741,-189.5 697,-189.5 697,-170.5 741,-170.5 741,-189.5"/>
<text text-anchor="middle" x="719" y="-177.5" font-family="Helvetica,sans-Serif" font-size="10.00">string</text>
</a>
</g>
</g>
<!-- Node4&#45;&gt;Node5 -->
<g id="edge4" class="edge">
<title>Node4&#45;&gt;Node5</title>
<path fill="none" stroke="#63b8ff" d="M805.69,-302.11C795.19,-287.33 773.47,-256.79 755,-231 747.16,-220.06 738.34,-207.8 731.38,-198.16"/>
<polygon fill="#63b8ff" stroke="#63b8ff" points="734.08,-195.9 725.39,-189.84 728.4,-200 734.08,-195.9"/>
</g>
<!-- Node7 -->
<g id="node7" class="node">
<title>Node7</title>
<g id="a_node7"><a xlink:href="version_8h.html" target="_top" xlink:title=" ">
<polygon fill="white" stroke="#666666" points="170,-189.5 76,-189.5 76,-170.5 170,-170.5 170,-189.5"/>
<text text-anchor="middle" x="123" y="-177.5" font-family="Helvetica,sans-Serif" font-size="10.00">ccf/kv/version.h</text>
</a>
</g>
</g>
<!-- Node6&#45;&gt;Node7 -->
<g id="edge6" class="edge">
<title>Node6&#45;&gt;Node7</title>
<path fill="none" stroke="#63b8ff" d="M95.32,-236.37C100.06,-226.88 107.82,-211.36 113.92,-199.16"/>
<polygon fill="#63b8ff" stroke="#63b8ff" points="117.21,-200.41 118.55,-189.91 110.94,-197.28 117.21,-200.41"/>
</g>
<!-- Node8 -->
<g id="node8" class="node">
<title>Node8</title>
<g id="a_node8"><a xlink:title=" ">
<polygon fill="#e0e0e0" stroke="#999999" points="253.5,-189.5 188.5,-189.5 188.5,-170.5 253.5,-170.5 253.5,-189.5"/>
<text text-anchor="middle" x="221" y="-177.5" font-family="Helvetica,sans-Serif" font-size="10.00">functional</text>
</a>
</g>
</g>
<!-- Node6&#45;&gt;Node8 -->
<g id="edge7" class="edge">
<title>Node6&#45;&gt;Node8</title>
<path fill="none" stroke="#63b8ff" d="M108.53,-236.37C130.53,-225.54 168.49,-206.85 194.15,-194.22"/>
<polygon fill="#63b8ff" stroke="#63b8ff" points="195.9,-197.26 203.33,-189.7 192.81,-190.98 195.9,-197.26"/>
</g>
<!-- Node9 -->
<g id="node9" class="node">
<title>Node9</title>
<g id="a_node9"><a xlink:title=" ">
<polygon fill="#e0e0e0" stroke="#999999" points="58,-189.5 0,-189.5 0,-170.5 58,-170.5 58,-189.5"/>
<text text-anchor="middle" x="29" y="-177.5" font-family="Helvetica,sans-Serif" font-size="10.00">memory</text>
</a>
</g>
</g>
<!-- Node6&#45;&gt;Node9 -->
<g id="edge8" class="edge">
<title>Node6&#45;&gt;Node9</title>
<path fill="none" stroke="#63b8ff" d="M82.64,-236.37C72.99,-226.4 56.89,-209.79 44.85,-197.36"/>
<polygon fill="#63b8ff" stroke="#63b8ff" points="47.1,-194.65 37.63,-189.91 42.07,-199.52 47.1,-194.65"/>
</g>
<!-- Node11 -->
<g id="node11" class="node">
<title>Node11</title>
<g id="a_node11"><a xlink:href="untyped__map__handle_8h.html" target="_top" xlink:title=" ">
<polygon fill="white" stroke="#666666" points="472,-261 356,-261 356,-231 472,-231 472,-261"/>
<text text-anchor="start" x="364" y="-249" font-family="Helvetica,sans-Serif" font-size="10.00">ccf/kv/untyped_map</text>
<text text-anchor="middle" x="414" y="-238" font-family="Helvetica,sans-Serif" font-size="10.00">_handle.h</text>
</a>
</g>
</g>
<!-- Node10&#45;&gt;Node11 -->
<g id="edge10" class="edge">
<title>Node10&#45;&gt;Node11</title>
<path fill="none" stroke="#63b8ff" d="M310.18,-302.37C327.61,-293.07 355.89,-277.99 378.54,-265.91"/>
<polygon fill="#63b8ff" stroke="#63b8ff" points="380.36,-268.91 387.53,-261.12 377.06,-262.73 380.36,-268.91"/>
</g>
<!-- Node11&#45;&gt;Node5 -->
<g id="edge23" class="edge">
<title>Node11&#45;&gt;Node5</title>
<path fill="none" stroke="#63b8ff" d="M472.09,-232.81C535.82,-219.44 635.84,-198.45 686.81,-187.76"/>
<polygon fill="#63b8ff" stroke="#63b8ff" points="687.84,-191.12 696.91,-185.64 686.4,-184.26 687.84,-191.12"/>
</g>
<!-- Node11&#45;&gt;Node7 -->
<g id="edge20" class="edge">
<title>Node11&#45;&gt;Node7</title>
<path fill="none" stroke="#63b8ff" d="M355.71,-233.06C308.3,-223.22 239.72,-208.71 180,-195 175.81,-194.04 171.45,-193.01 167.1,-191.97"/>
<polygon fill="#63b8ff" stroke="#63b8ff" points="167.56,-188.48 157.02,-189.53 165.92,-195.29 167.56,-188.48"/>
</g>
<!-- Node11&#45;&gt;Node8 -->
<g id="edge21" class="edge">
<title>Node11&#45;&gt;Node8</title>
<path fill="none" stroke="#63b8ff" d="M371.36,-230.91C341.11,-220.9 299.56,-207.15 263,-195 260.87,-194.29 258.67,-193.56 256.46,-192.83"/>
<polygon fill="#63b8ff" stroke="#63b8ff" points="257.36,-189.44 246.76,-189.6 255.14,-196.08 257.36,-189.44"/>
</g>
<!-- Node12 -->
<g id="node12" class="node">
<title>Node12</title>
<g id="a_node12"><a xlink:href="abstract__handle_8h.html" target="_top" xlink:title=" ">
<polygon fill="white" stroke="#666666" points="482,-189.5 346,-189.5 346,-170.5 482,-170.5 482,-189.5"/>
<text text-anchor="middle" x="414" y="-177.5" font-family="Helvetica,sans-Serif" font-size="10.00">ccf/kv/abstract_handle.h</text>
</a>
</g>
</g>
<!-- Node11&#45;&gt;Node12 -->
<g id="edge11" class="edge">
<title>Node11&#45;&gt;Node12</title>
<path fill="none" stroke="#63b8ff" d="M414,-230.8C414,-221.7 414,-209.79 414,-199.9"/>
<polygon fill="#63b8ff" stroke="#63b8ff" points="417.5,-199.84 414,-189.84 410.5,-199.84 417.5,-199.84"/>
</g>
<!-- Node13 -->
<g id="node13" class="node">
<title>Node13</title>
<g id="a_node13"><a xlink:href="serialised__entry_8h.html" target="_top" xlink:title=" ">
<polygon fill="white" stroke="#666666" points="605.5,-195 500.5,-195 500.5,-165 605.5,-165 605.5,-195"/>
<text text-anchor="start" x="508.5" y="-183" font-family="Helvetica,sans-Serif" font-size="10.00">ccf/kv/serialisers</text>
<text text-anchor="middle" x="553" y="-172" font-family="Helvetica,sans-Serif" font-size="10.00">/serialised_entry.h</text>
</a>
</g>
</g>
<!-- Node11&#45;&gt;Node13 -->
<g id="edge12" class="edge">
<title>Node11&#45;&gt;Node13</title>
<path fill="none" stroke="#63b8ff" d="M444.5,-230.95C464.69,-221.66 491.37,-209.38 513.22,-199.32"/>
<polygon fill="#63b8ff" stroke="#63b8ff" points="514.95,-202.37 522.57,-195.01 512.02,-196.02 514.95,-202.37"/>
</g>
<!-- Node21 -->
<g id="node21" class="node">
<title>Node21</title>
<g id="a_node21"><a xlink:title=" ">
<polygon fill="#e0e0e0" stroke="#999999" points="328,-189.5 272,-189.5 272,-170.5 328,-170.5 328,-189.5"/>
<text text-anchor="middle" x="300" y="-177.5" font-family="Helvetica,sans-Serif" font-size="10.00">optional</text>
</a>
</g>
</g>
<!-- Node11&#45;&gt;Node21 -->
<g id="edge22" class="edge">
<title>Node11&#45;&gt;Node21</title>
<path fill="none" stroke="#63b8ff" d="M388.98,-230.95C369.69,-220.13 343.18,-205.24 324.12,-194.54"/>
<polygon fill="#63b8ff" stroke="#63b8ff" points="325.6,-191.36 315.17,-189.52 322.18,-197.46 325.6,-191.36"/>
</g>
<!-- Node14 -->
<g id="node14" class="node">
<title>Node14</title>
<g id="a_node14"><a xlink:href="byte__vector_8h.html" target="_top" xlink:title=" ">
<polygon fill="white" stroke="#666666" points="603,-129 503,-129 503,-110 603,-110 603,-129"/>
<text text-anchor="middle" x="553" y="-117" font-family="Helvetica,sans-Serif" font-size="10.00">ccf/byte_vector.h</text>
</a>
</g>
</g>
<!-- Node13&#45;&gt;Node14 -->
<g id="edge13" class="edge">
<title>Node13&#45;&gt;Node14</title>
<path fill="none" stroke="#63b8ff" d="M553,-164.84C553,-157.21 553,-147.7 553,-139.45"/>
<polygon fill="#63b8ff" stroke="#63b8ff" points="556.5,-139.27 553,-129.27 549.5,-139.27 556.5,-139.27"/>
</g>
<!-- Node15 -->
<g id="node15" class="node">
<title>Node15</title>
<g id="a_node15"><a xlink:href="siphash_8h.html" target="_top" xlink:title=" ">
<polygon fill="white" stroke="#666666" points="740.5,-74 645.5,-74 645.5,-55 740.5,-55 740.5,-74"/>
<text text-anchor="middle" x="693" y="-62" font-family="Helvetica,sans-Serif" font-size="10.00">ccf/ds/siphash.h</text>
</a>
</g>
</g>
<!-- Node14&#45;&gt;Node15 -->
<g id="edge14" class="edge">
<title>Node14&#45;&gt;Node15</title>
<path fill="none" stroke="#63b8ff" d="M575.49,-109.98C598.52,-101.27 634.54,-87.63 660.63,-77.75"/>
<polygon fill="#63b8ff" stroke="#63b8ff" points="661.98,-80.98 670.1,-74.17 659.51,-74.44 661.98,-80.98"/>
</g>
<!-- Node19 -->
<g id="node19" class="node">
<title>Node19</title>
<g id="a_node19"><a xlink:title=" ">
<polygon fill="#e0e0e0" stroke="#999999" points="460.5,-74 381.5,-74 381.5,-55 460.5,-55 460.5,-74"/>
<text text-anchor="middle" x="421" y="-62" font-family="Helvetica,sans-Serif" font-size="10.00">fmt/format.h</text>
</a>
</g>
</g>
<!-- Node14&#45;&gt;Node19 -->
<g id="edge18" class="edge">
<title>Node14&#45;&gt;Node19</title>
<path fill="none" stroke="#63b8ff" d="M531.79,-109.98C510.27,-101.34 476.72,-87.87 452.17,-78.02"/>
<polygon fill="#63b8ff" stroke="#63b8ff" points="453.18,-74.65 442.59,-74.17 450.57,-81.14 453.18,-74.65"/>
</g>
<!-- Node20 -->
<g id="node20" class="node">
<title>Node20</title>
<g id="a_node20"><a xlink:title=" ">
<polygon fill="#e0e0e0" stroke="#999999" points="627.5,-74 478.5,-74 478.5,-55 627.5,-55 627.5,-74"/>
<text text-anchor="middle" x="553" y="-62" font-family="Helvetica,sans-Serif" font-size="10.00">small_vector/SmallVector.h</text>
</a>
</g>
</g>
<!-- Node14&#45;&gt;Node20 -->
<g id="edge19" class="edge">
<title>Node14&#45;&gt;Node20</title>
<path fill="none" stroke="#63b8ff" d="M553,-109.75C553,-102.8 553,-92.85 553,-84.13"/>
<polygon fill="#63b8ff" stroke="#63b8ff" points="556.5,-84.09 553,-74.09 549.5,-84.09 556.5,-84.09"/>
</g>
<!-- Node16 -->
<g id="node16" class="node">
<title>Node16</title>
<g id="a_node16"><a xlink:title=" ">
<polygon fill="#e0e0e0" stroke="#999999" points="723.5,-19 670.5,-19 670.5,0 723.5,0 723.5,-19"/>
<text text-anchor="middle" x="697" y="-7" font-family="Helvetica,sans-Serif" font-size="10.00">cstddef</text>
</a>
</g>
</g>
<!-- Node15&#45;&gt;Node16 -->
<g id="edge15" class="edge">
<title>Node15&#45;&gt;Node16</title>
<path fill="none" stroke="#63b8ff" d="M693.66,-54.75C694.18,-47.8 694.94,-37.85 695.59,-29.13"/>
<polygon fill="#63b8ff" stroke="#63b8ff" points="699.09,-29.32 696.35,-19.09 692.11,-28.8 699.09,-29.32"/>
</g>
<!-- Node17 -->
<g id="node17" class="node">
<title>Node17</title>
<g id="a_node17"><a xlink:title=" ">
<polygon fill="#e0e0e0" stroke="#999999" points="652,-19 602,-19 602,0 652,0 652,-19"/>
<text text-anchor="middle" x="627" y="-7" font-family="Helvetica,sans-Serif" font-size="10.00">cstdint</text>
</a>
</g>
</g>
<!-- Node15&#45;&gt;Node17 -->
<g id="edge16" class="edge">
<title>Node15&#45;&gt;Node17</title>
<path fill="none" stroke="#63b8ff" d="M682.4,-54.98C672.54,-47.07 657.65,-35.11 645.78,-25.58"/>
<polygon fill="#63b8ff" stroke="#63b8ff" points="647.79,-22.7 637.8,-19.17 643.4,-28.16 647.79,-22.7"/>
</g>
<!-- Node15&#45;&gt;Node18 -->
<g id="edge17" class="edge">
<title>Node15&#45;&gt;Node18</title>
<path fill="none" stroke="#63b8ff" d="M705.21,-54.98C716.78,-46.92 734.38,-34.65 748.16,-25.03"/>
<polygon fill="#63b8ff" stroke="#63b8ff" points="750.37,-27.76 756.57,-19.17 746.36,-22.02 750.37,-27.76"/>
</g>
<!-- Node22&#45;&gt;Node13 -->
<g id="edge33" class="edge">
<title>Node22&#45;&gt;Node13</title>
<path fill="none" stroke="#63b8ff" d="M905.87,-296.96C871.5,-279.6 810.08,-250.02 755,-231 709.2,-215.18 655.93,-202.21 615.61,-193.45"/>
<polygon fill="#63b8ff" stroke="#63b8ff" points="616.16,-189.99 605.64,-191.31 614.69,-196.83 616.16,-189.99"/>
</g>
<!-- Node23 -->
<g id="node23" class="node">
<title>Node23</title>
<g id="a_node23"><a xlink:href="nonstd_8h.html" target="_top" xlink:title=" ">
<polygon fill="white" stroke="#666666" points="962,-255.5 872,-255.5 872,-236.5 962,-236.5 962,-255.5"/>
<text text-anchor="middle" x="917" y="-243.5" font-family="Helvetica,sans-Serif" font-size="10.00">ccf/ds/nonstd.h</text>
</a>
</g>
</g>
<!-- Node22&#45;&gt;Node23 -->
<g id="edge25" class="edge">
<title>Node22&#45;&gt;Node23</title>
<path fill="none" stroke="#63b8ff" d="M929.45,-296.8C927.15,-287.6 924.13,-275.53 921.64,-265.58"/>
<polygon fill="#63b8ff" stroke="#63b8ff" points="925.03,-264.7 919.21,-255.84 918.24,-266.39 925.03,-264.7"/>
</g>
<!-- Node23&#45;&gt;Node5 -->
<g id="edge29" class="edge">
<title>Node23&#45;&gt;Node5</title>
<path fill="none" stroke="#63b8ff" d="M886.93,-236.42C854.25,-226.93 800.59,-210.88 755,-195 753.35,-194.42 751.65,-193.82 749.95,-193.2"/>
<polygon fill="#63b8ff" stroke="#63b8ff" points="750.82,-189.79 740.23,-189.54 748.36,-196.34 750.82,-189.79"/>
</g>
<!-- Node23&#45;&gt;Node18 -->
<g id="edge32" class="edge">
<title>Node23&#45;&gt;Node18</title>
<path fill="none" stroke="#63b8ff" d="M871.99,-239.33C843.61,-233.27 808.72,-220.77 789,-195 751.19,-145.59 759.04,-65.75 765.18,-29.49"/>
<polygon fill="#63b8ff" stroke="#63b8ff" points="768.68,-29.82 767.05,-19.35 761.8,-28.55 768.68,-29.82"/>
</g>
<!-- Node24 -->
<g id="node24" class="node">
<title>Node24</title>
<g id="a_node24"><a xlink:title=" ">
<polygon fill="#e0e0e0" stroke="#999999" points="1107,-189.5 1043,-189.5 1043,-170.5 1107,-170.5 1107,-189.5"/>
<text text-anchor="middle" x="1075" y="-177.5" font-family="Helvetica,sans-Serif" font-size="10.00">algorithm</text>
</a>
</g>
</g>
<!-- Node23&#45;&gt;Node24 -->
<g id="edge26" class="edge">
<title>Node23&#45;&gt;Node24</title>
<path fill="none" stroke="#63b8ff" d="M938.31,-236.37C965.6,-225.32 1013.07,-206.08 1044.27,-193.45"/>
<polygon fill="#63b8ff" stroke="#63b8ff" points="1045.82,-196.59 1053.78,-189.6 1043.19,-190.11 1045.82,-196.59"/>
</g>
<!-- Node25 -->
<g id="node25" class="node">
<title>Node25</title>
<g id="a_node25"><a xlink:title=" ">
<polygon fill="#e0e0e0" stroke="#999999" points="1167,-189.5 1125,-189.5 1125,-170.5 1167,-170.5 1167,-189.5"/>
<text text-anchor="middle" x="1146" y="-177.5" font-family="Helvetica,sans-Serif" font-size="10.00">array</text>
</a>
</g>
</g>
<!-- Node23&#45;&gt;Node25 -->
<g id="edge27" class="edge">
<title>Node23&#45;&gt;Node25</title>
<path fill="none" stroke="#63b8ff" d="M961.19,-236.43C1001.99,-227.92 1063.97,-213.49 1116,-195 1117.22,-194.57 1118.45,-194.1 1119.7,-193.61"/>
<polygon fill="#63b8ff" stroke="#63b8ff" points="1121.3,-196.74 1129.1,-189.57 1118.53,-190.3 1121.3,-196.74"/>
</g>
<!-- Node26 -->
<g id="node26" class="node">
<title>Node26</title>
<g id="a_node26"><a xlink:title=" ">
<polygon fill="#e0e0e0" stroke="#999999" points="846.5,-189.5 797.5,-189.5 797.5,-170.5 846.5,-170.5 846.5,-189.5"/>
<text text-anchor="middle" x="822" y="-177.5" font-family="Helvetica,sans-Serif" font-size="10.00">cctype</text>
</a>
</g>
</g>
<!-- Node23&#45;&gt;Node26 -->
<g id="edge28" class="edge">
<title>Node23&#45;&gt;Node26</title>
<path fill="none" stroke="#63b8ff" d="M904.19,-236.37C888.61,-225.87 862.07,-208 843.38,-195.4"/>
<polygon fill="#63b8ff" stroke="#63b8ff" points="845.16,-192.38 834.91,-189.7 841.25,-198.19 845.16,-192.38"/>
</g>
<!-- Node27 -->
<g id="node27" class="node">
<title>Node27</title>
<g id="a_node27"><a xlink:title=" ">
<polygon fill="#e0e0e0" stroke="#999999" points="937.5,-189.5 864.5,-189.5 864.5,-170.5 937.5,-170.5 937.5,-189.5"/>
<text text-anchor="middle" x="901" y="-177.5" font-family="Helvetica,sans-Serif" font-size="10.00">string_view</text>
</a>
</g>
</g>
<!-- Node23&#45;&gt;Node27 -->
<g id="edge30" class="edge">
<title>Node23&#45;&gt;Node27</title>
<path fill="none" stroke="#63b8ff" d="M914.84,-236.37C912.52,-227.07 908.74,-211.98 905.72,-199.9"/>
<polygon fill="#63b8ff" stroke="#63b8ff" points="909.05,-198.76 903.23,-189.91 902.26,-200.46 909.05,-198.76"/>
</g>
<!-- Node28 -->
<g id="node28" class="node">
<title>Node28</title>
<g id="a_node28"><a xlink:title=" ">
<polygon fill="#e0e0e0" stroke="#999999" points="1024.5,-189.5 955.5,-189.5 955.5,-170.5 1024.5,-170.5 1024.5,-189.5"/>
<text text-anchor="middle" x="990" y="-177.5" font-family="Helvetica,sans-Serif" font-size="10.00">type_traits</text>
</a>
</g>
</g>
<!-- Node23&#45;&gt;Node28 -->
<g id="edge31" class="edge">
<title>Node23&#45;&gt;Node28</title>
<path fill="none" stroke="#63b8ff" d="M926.85,-236.37C938.43,-226.21 957.88,-209.16 972.14,-196.65"/>
<polygon fill="#63b8ff" stroke="#63b8ff" points="974.63,-199.13 979.84,-189.91 970.02,-193.87 974.63,-199.13"/>
</g>
<!-- Node29&#45;&gt;Node13 -->
<g id="edge35" class="edge">
<title>Node29&#45;&gt;Node13</title>
<path fill="none" stroke="#63b8ff" d="M671.3,-296.9C658.29,-287.28 641.11,-273.98 627,-261 606.9,-242.51 585.93,-219.43 571.47,-202.82"/>
<polygon fill="#63b8ff" stroke="#63b8ff" points="574.11,-200.52 564.93,-195.23 568.81,-205.09 574.11,-200.52"/>
</g>
<!-- Node30 -->
<g id="node30" class="node">
<title>Node30</title>
<g id="a_node30"><a xlink:title=" ">
<polygon fill="#e0e0e0" stroke="#999999" points="746,-255.5 636,-255.5 636,-236.5 746,-236.5 746,-255.5"/>
<text text-anchor="middle" x="691" y="-243.5" font-family="Helvetica,sans-Serif" font-size="10.00">nlohmann/json.hpp</text>
</a>
</g>
</g>
<!-- Node29&#45;&gt;Node30 -->
<g id="edge36" class="edge">
<title>Node29&#45;&gt;Node30</title>
<path fill="none" stroke="#63b8ff" d="M691,-296.8C691,-287.7 691,-275.79 691,-265.9"/>
<polygon fill="#63b8ff" stroke="#63b8ff" points="694.5,-265.84 691,-255.84 687.5,-265.84 694.5,-265.84"/>
</g>
<!-- Node31&#45;&gt;Node6 -->
<g id="edge38" class="edge">
<title>Node31&#45;&gt;Node6</title>
<path fill="none" stroke="#63b8ff" d="M157.62,-302.37C145.28,-292.12 124.49,-274.84 109.41,-262.31"/>
<polygon fill="#63b8ff" stroke="#63b8ff" points="111.64,-259.61 101.71,-255.91 107.17,-264.99 111.64,-259.61"/>
</g>
<!-- Node31&#45;&gt;Node13 -->
<g id="edge39" class="edge">
<title>Node31&#45;&gt;Node13</title>
<path fill="none" stroke="#63b8ff" d="M184.37,-302.46C215.39,-286.56 285.15,-252.13 347,-231 360.68,-226.33 435.12,-208.57 490.61,-195.54"/>
<polygon fill="#63b8ff" stroke="#63b8ff" points="491.45,-198.94 500.38,-193.24 489.85,-192.12 491.45,-198.94"/>
</g>
<!-- Node31&#45;&gt;Node21 -->
<g id="edge41" class="edge">
<title>Node31&#45;&gt;Node21</title>
<path fill="none" stroke="#63b8ff" d="M167.68,-302.45C167.55,-286.54 169.48,-252.07 187,-231 192.59,-224.28 236.8,-205.87 268.24,-193.37"/>
<polygon fill="#63b8ff" stroke="#63b8ff" points="269.91,-196.47 277.93,-189.54 267.34,-189.96 269.91,-196.47"/>
</g>
<!-- Node32 -->
<g id="node32" class="node">
<title>Node32</title>
<g id="a_node32"><a xlink:title=" ">
<polygon fill="#e0e0e0" stroke="#999999" points="234,-255.5 196,-255.5 196,-236.5 234,-236.5 234,-255.5"/>
<text text-anchor="middle" x="215" y="-243.5" font-family="Helvetica,sans-Serif" font-size="10.00">map</text>
</a>
</g>
</g>
<!-- Node31&#45;&gt;Node32 -->
<g id="edge40" class="edge">
<title>Node31&#45;&gt;Node32</title>
<path fill="none" stroke="#63b8ff" d="M174.34,-302.37C181.52,-292.59 193.39,-276.42 202.46,-264.08"/>
<polygon fill="#63b8ff" stroke="#63b8ff" points="205.36,-266.04 208.46,-255.91 199.72,-261.89 205.36,-266.04"/>
</g>
<!-- Node33&#45;&gt;Node4 -->
<g id="edge43" class="edge">
<title>Node33&#45;&gt;Node4</title>
<path fill="none" stroke="#63b8ff" d="M708.59,-362.99C728.76,-353.25 762.02,-337.16 785.36,-325.88"/>
<polygon fill="#63b8ff" stroke="#63b8ff" points="786.9,-329.02 794.38,-321.52 783.86,-322.72 786.9,-329.02"/>
</g>
<!-- Node33&#45;&gt;Node6 -->
<g id="edge44" class="edge">
<title>Node33&#45;&gt;Node6</title>
<path fill="none" stroke="#63b8ff" d="M654.22,-364.18C651.44,-363.74 648.68,-363.34 646,-363 586.79,-355.45 155.56,-365.56 110,-327 92.49,-312.18 89.48,-284.46 89.66,-265.86"/>
<polygon fill="#63b8ff" stroke="#63b8ff" points="93.16,-265.79 90.08,-255.66 86.17,-265.5 93.16,-265.79"/>
</g>
<!-- Node33&#45;&gt;Node22 -->
<g id="edge45" class="edge">
<title>Node33&#45;&gt;Node22</title>
<path fill="none" stroke="#63b8ff" d="M726.19,-362.99C764.78,-353.66 827.37,-338.53 873.6,-327.36"/>
<polygon fill="#63b8ff" stroke="#63b8ff" points="874.6,-330.72 883.49,-324.97 872.95,-323.92 874.6,-330.72"/>
</g>
<!-- Node33&#45;&gt;Node29 -->
<g id="edge46" class="edge">
<title>Node33&#45;&gt;Node29</title>
<path fill="none" stroke="#63b8ff" d="M691,-362.87C691,-356.11 691,-346.35 691,-337.26"/>
<polygon fill="#63b8ff" stroke="#63b8ff" points="694.5,-337.11 691,-327.11 687.5,-337.11 694.5,-337.11"/>
</g>
<!-- Node33&#45;&gt;Node31 -->
<g id="edge51" class="edge">
<title>Node33&#45;&gt;Node31</title>
<path fill="none" stroke="#63b8ff" d="M654.21,-364.24C651.44,-363.79 648.68,-363.37 646,-363 460.38,-337.58 410.92,-357.07 226,-327 220.57,-326.12 214.89,-325 209.31,-323.78"/>
<polygon fill="#63b8ff" stroke="#63b8ff" points="209.96,-320.34 199.43,-321.5 208.39,-327.16 209.96,-320.34"/>
</g>
<!-- Node34 -->
<g id="node34" class="node">
<title>Node34</title>
<g id="a_node34"><a xlink:href="set__handle_8h.html" target="_top" xlink:title=" ">
<polygon fill="white" stroke="#666666" points="623.5,-321.5 512.5,-321.5 512.5,-302.5 623.5,-302.5 623.5,-321.5"/>
<text text-anchor="middle" x="568" y="-309.5" font-family="Helvetica,sans-Serif" font-size="10.00">ccf/kv/set_handle.h</text>
</a>
</g>
</g>
<!-- Node33&#45;&gt;Node34 -->
<g id="edge47" class="edge">
<title>Node33&#45;&gt;Node34</title>
<path fill="none" stroke="#63b8ff" d="M673.11,-362.99C652.62,-353.25 618.81,-337.16 595.08,-325.88"/>
<polygon fill="#63b8ff" stroke="#63b8ff" points="596.44,-322.65 585.91,-321.52 593.43,-328.97 596.44,-322.65"/>
</g>
<!-- Node34&#45;&gt;Node11 -->
<g id="edge50" class="edge">
<title>Node34&#45;&gt;Node11</title>
<path fill="none" stroke="#63b8ff" d="M547.23,-302.37C524.27,-292.82 486.63,-277.18 457.2,-264.95"/>
<polygon fill="#63b8ff" stroke="#63b8ff" points="458.54,-261.72 447.97,-261.12 455.86,-268.19 458.54,-261.72"/>
</g>
<!-- Node35 -->
<g id="node35" class="node">
<title>Node35</title>
<g id="a_node35"><a xlink:href="unit_8h.html" target="_top" xlink:title=" ">
<polygon fill="white" stroke="#666666" points="579.5,-255.5 502.5,-255.5 502.5,-236.5 579.5,-236.5 579.5,-255.5"/>
<text text-anchor="middle" x="541" y="-243.5" font-family="Helvetica,sans-Serif" font-size="10.00">ccf/kv/unit.h</text>
</a>
</g>
</g>
<!-- Node34&#45;&gt;Node35 -->
<g id="edge48" class="edge">
<title>Node34&#45;&gt;Node35</title>
<path fill="none" stroke="#63b8ff" d="M564.36,-302.37C560.36,-292.88 553.81,-277.36 548.66,-265.16"/>
<polygon fill="#63b8ff" stroke="#63b8ff" points="551.87,-263.76 544.76,-255.91 545.42,-266.48 551.87,-263.76"/>
</g>
<!-- Node35&#45;&gt;Node13 -->
<g id="edge49" class="edge">
<title>Node35&#45;&gt;Node13</title>
<path fill="none" stroke="#63b8ff" d="M542.62,-236.37C544.11,-228.4 546.4,-216.2 548.45,-205.27"/>
<polygon fill="#63b8ff" stroke="#63b8ff" points="551.9,-205.83 550.31,-195.36 545.02,-204.54 551.9,-205.83"/>
</g>
<!-- Node36&#45;&gt;Node4 -->
<g id="edge53" class="edge">
<title>Node36&#45;&gt;Node4</title>
<path fill="none" stroke="#63b8ff" d="M625.7,-362.99C663.96,-352.73 728.41,-335.43 770.58,-324.12"/>
<polygon fill="#63b8ff" stroke="#63b8ff" points="771.51,-327.49 780.26,-321.52 769.7,-320.73 771.51,-327.49"/>
</g>
<!-- Node36&#45;&gt;Node6 -->
<g id="edge54" class="edge">
<title>Node36&#45;&gt;Node6</title>
<path fill="none" stroke="#63b8ff" d="M551.47,-364.25C548.27,-363.79 545.09,-363.37 542,-363 490.55,-356.81 112.2,-365.03 77,-327 61.48,-310.24 71.21,-282.65 80.45,-264.66"/>
<polygon fill="#63b8ff" stroke="#63b8ff" points="83.58,-266.22 85.36,-255.77 77.46,-262.83 83.58,-266.22"/>
</g>
<!-- Node36&#45;&gt;Node22 -->
<g id="edge55" class="edge">
<title>Node36&#45;&gt;Node22</title>
<path fill="none" stroke="#63b8ff" d="M636.56,-364.52C639.76,-364 642.93,-363.49 646,-363 744.55,-347.2 772.24,-347.09 873.36,-327.24"/>
<polygon fill="#63b8ff" stroke="#63b8ff" points="874.25,-330.63 883.38,-325.26 872.89,-323.76 874.25,-330.63"/>
</g>
<!-- Node36&#45;&gt;Node29 -->
<g id="edge56" class="edge">
<title>Node36&#45;&gt;Node29</title>
<path fill="none" stroke="#63b8ff" d="M608.31,-362.87C621.6,-354.86 641.84,-342.65 658.97,-332.31"/>
<polygon fill="#63b8ff" stroke="#63b8ff" points="660.84,-335.28 667.6,-327.11 657.23,-329.28 660.84,-335.28"/>
</g>
<!-- Node36&#45;&gt;Node31 -->
<g id="edge57" class="edge">
<title>Node36&#45;&gt;Node31</title>
<path fill="none" stroke="#63b8ff" d="M551.46,-364.37C548.26,-363.89 545.08,-363.43 542,-363 401.99,-343.59 365.19,-351.63 226,-327 220.9,-326.1 215.59,-325.01 210.33,-323.86"/>
<polygon fill="#63b8ff" stroke="#63b8ff" points="210.9,-320.39 200.37,-321.56 209.33,-327.22 210.9,-320.39"/>
</g>
<!-- Node37 -->
<g id="node37" class="node">
<title>Node37</title>
<g id="a_node37"><a xlink:href="value__handle_8h.html" target="_top" xlink:title=" ">
<polygon fill="white" stroke="#666666" points="494.5,-321.5 371.5,-321.5 371.5,-302.5 494.5,-302.5 494.5,-321.5"/>
<text text-anchor="middle" x="433" y="-309.5" font-family="Helvetica,sans-Serif" font-size="10.00">ccf/kv/value_handle.h</text>
</a>
</g>
</g>
<!-- Node36&#45;&gt;Node37 -->
<g id="edge58" class="edge">
<title>Node36&#45;&gt;Node37</title>
<path fill="none" stroke="#63b8ff" d="M570.59,-362.99C543.05,-352.99 497.13,-336.3 465.99,-324.99"/>
<polygon fill="#63b8ff" stroke="#63b8ff" points="467.03,-321.64 456.44,-321.52 464.64,-328.22 467.03,-321.64"/>
</g>
<!-- Node37&#45;&gt;Node11 -->
<g id="edge60" class="edge">
<title>Node37&#45;&gt;Node11</title>
<path fill="none" stroke="#63b8ff" d="M430.44,-302.37C428.07,-294.4 424.45,-282.2 421.2,-271.27"/>
<polygon fill="#63b8ff" stroke="#63b8ff" points="424.46,-269.95 418.26,-261.36 417.75,-271.94 424.46,-269.95"/>
</g>
<!-- Node37&#45;&gt;Node35 -->
<g id="edge59" class="edge">
<title>Node37&#45;&gt;Node35</title>
<path fill="none" stroke="#63b8ff" d="M447.57,-302.37C465.52,-291.73 496.27,-273.51 517.56,-260.89"/>
<polygon fill="#63b8ff" stroke="#63b8ff" points="519.5,-263.81 526.32,-255.7 515.93,-257.79 519.5,-263.81"/>
</g>
</g>
</svg>
        <g id="navigator" transform="translate(0 0)" fill="#404254">
                <rect fill="#f2f5e9" fill-opacity="0.5" stroke="#606060" stroke-width=".5" x="0" y="0" width="60" height="60"/>
                <use id="zoomplus" xlink:href="#zoomPlus" x="17" y="9" onmousedown="handleZoom(evt,'in')"/>
                <use id="zoomminus" xlink:href="#zoomMin" x="42" y="9" onmousedown="handleZoom(evt,'out')"/>
                <use id="reset" xlink:href="#resetDef" x="30" y="36" onmousedown="handleReset()"/>
                <g id="arrowUp" xlink:href="#dirArrow" transform="translate(30 24)" onmousedown="handlePan(0,-1)">
                  <use xlink:href="#rim" fill="#404040">
                        <set attributeName="fill" to="#808080" begin="arrowUp.mouseover" end="arrowUp.mouseout"/>
                  </use>
                  <path fill="none" stroke="white" stroke-width="1.5" d="M0,-3.0v7 M-2.5,-0.5L0,-3.0L2.5,-0.5"/>
                </g>
                <g id="arrowRight" xlink:href="#dirArrow" transform="rotate(90) translate(36 -43)" onmousedown="handlePan(1,0)">
                  <use xlink:href="#rim" fill="#404040">
                        <set attributeName="fill" to="#808080" begin="arrowRight.mouseover" end="arrowRight.mouseout"/>
                  </use>
                  <path fill="none" stroke="white" stroke-width="1.5" d="M0,-3.0v7 M-2.5,-0.5L0,-3.0L2.5,-0.5"/>
                </g>
                <g id="arrowDown" xlink:href="#dirArrow" transform="rotate(180) translate(-30 -48)" onmousedown="handlePan(0,1)">
                  <use xlink:href="#rim" fill="#404040">
                        <set attributeName="fill" to="#808080" begin="arrowDown.mouseover" end="arrowDown.mouseout"/>
                  </use>
                  <path fill="none" stroke="white" stroke-width="1.5" d="M0,-3.0v7 M-2.5,-0.5L0,-3.0L2.5,-0.5"/>
                </g>
                <g id="arrowLeft" xlink:href="#dirArrow" transform="rotate(270) translate(-36 17)" onmousedown="handlePan(-1,0)">
                  <use xlink:href="#rim" fill="#404040">
                        <set attributeName="fill" to="#808080" begin="arrowLeft.mouseover" end="arrowLeft.mouseout"/>
                  </use>
                  <path fill="none" stroke="white" stroke-width="1.5" d="M0,-3.0v7 M-2.5,-0.5L0,-3.0L2.5,-0.5"/>
                </g>
        </g>
        <svg viewBox="0 0 15 15" width="100%" height="30px" preserveAspectRatio="xMaxYMin meet">
         <g id="arrow_out" transform="scale(0.3 0.3)">
          <a xlink:href="submitted__shares_8h__incl_org.svg" target="_base">
           <rect id="button" ry="5" rx="5" y="6" x="6" height="38" width="38"
                fill="#f2f5e9" fill-opacity="0.5" stroke="#606060" stroke-width="1.0"/>
           <path id="arrow"
             d="M 11.500037,31.436501 C 11.940474,20.09759 22.043105,11.32322 32.158766,21.979434 L 37.068811,17.246167 C 37.068811,17.246167 37.088388,32 37.088388,32 L 22.160133,31.978069 C 22.160133,31.978069 26.997745,27.140456 26.997745,27.140456 C 18.528582,18.264221 13.291696,25.230495 11.500037,31.436501 z"
             style="fill:#404040;"/>
          </a>
         </g>
        </svg>
</svg>
