<?xml version="1.0" encoding="UTF-8" standalone="no"?>
<!DOCTYPE svg PUBLIC "-//W3C//DTD SVG 1.1//EN"
 "http://www.w3.org/Graphics/SVG/1.1/DTD/svg11.dtd">
<!-- Generated by graphviz version 2.43.0 (0)
 -->
<!-- Title: src/host/time_bound_logger.h Pages: 1 -->
<svg width="298pt" height="203pt"
 viewBox="0.00 0.00 297.50 203.00" xmlns="http://www.w3.org/2000/svg" xmlns:xlink="http://www.w3.org/1999/xlink">
<g id="graph0" class="graph" transform="scale(1 1) rotate(0) translate(4 199)">
<title>src/host/time_bound_logger.h</title>
<!-- Node1 -->
<g id="node1" class="node">
<title>Node1</title>
<g id="a_node1"><a xlink:title=" ">
<polygon fill="#999999" stroke="#666666" points="211.5,-195 95.5,-195 95.5,-165 211.5,-165 211.5,-195"/>
<text text-anchor="start" x="103.5" y="-183" font-family="Helvetica,sans-Serif" font-size="10.00">src/host/time_bound</text>
<text text-anchor="middle" x="153.5" y="-172" font-family="Helvetica,sans-Serif" font-size="10.00">_logger.h</text>
</a>
</g>
</g>
<!-- Node2 -->
<g id="node2" class="node">
<title>Node2</title>
<g id="a_node2"><a xlink:href="ledger_8h.html" target="_top" xlink:title=" ">
<polygon fill="white" stroke="#666666" points="164,-129 67,-129 67,-110 164,-110 164,-129"/>
<text text-anchor="middle" x="115.5" y="-117" font-family="Helvetica,sans-Serif" font-size="10.00">src/host/ledger.h</text>
</a>
</g>
</g>
<!-- Node1&#45;&gt;Node2 -->
<g id="edge1" class="edge">
<title>Node1&#45;&gt;Node2</title>
<path fill="none" stroke="#63b8ff" d="M138.7,-156.22C132.57,-146.78 125.82,-136.39 121.19,-129.27"/>
<polygon fill="#63b8ff" stroke="#63b8ff" points="135.92,-158.36 144.3,-164.84 141.79,-154.55 135.92,-158.36"/>
</g>
<!-- Node5 -->
<g id="node5" class="node">
<title>Node5</title>
<g id="a_node5"><a xlink:href="snapshots_8h.html" target="_top" xlink:title=" ">
<polygon fill="white" stroke="#666666" points="289.5,-74 173.5,-74 173.5,-55 289.5,-55 289.5,-74"/>
<text text-anchor="middle" x="231.5" y="-62" font-family="Helvetica,sans-Serif" font-size="10.00">src/host/snapshots.h</text>
</a>
</g>
</g>
<!-- Node1&#45;&gt;Node5 -->
<g id="edge4" class="edge">
<title>Node1&#45;&gt;Node5</title>
<path fill="none" stroke="#63b8ff" d="M169.06,-156.36C186.39,-131.14 213.54,-91.63 225.5,-74.23"/>
<polygon fill="#63b8ff" stroke="#63b8ff" points="166.16,-154.4 163.38,-164.63 171.93,-158.37 166.16,-154.4"/>
</g>
<!-- Node3 -->
<g id="node3" class="node">
<title>Node3</title>
<g id="a_node3"><a xlink:href="node__connections_8h.html" target="_top" xlink:title=" ">
<polygon fill="white" stroke="#666666" points="155,-74 0,-74 0,-55 155,-55 155,-74"/>
<text text-anchor="middle" x="77.5" y="-62" font-family="Helvetica,sans-Serif" font-size="10.00">src/host/node_connections.h</text>
</a>
</g>
</g>
<!-- Node2&#45;&gt;Node3 -->
<g id="edge2" class="edge">
<title>Node2&#45;&gt;Node3</title>
<path fill="none" stroke="#63b8ff" d="M103.23,-101.39C96.69,-92.27 88.93,-81.45 83.66,-74.09"/>
<polygon fill="#63b8ff" stroke="#63b8ff" points="100.55,-103.66 109.23,-109.75 106.24,-99.58 100.55,-103.66"/>
</g>
<!-- Node4 -->
<g id="node4" class="node">
<title>Node4</title>
<g id="a_node4"><a xlink:href="host_2main_8cpp.html" target="_top" xlink:title=" ">
<polygon fill="white" stroke="#666666" points="206,-19 103,-19 103,0 206,0 206,-19"/>
<text text-anchor="middle" x="154.5" y="-7" font-family="Helvetica,sans-Serif" font-size="10.00">src/host/main.cpp</text>
</a>
</g>
</g>
<!-- Node3&#45;&gt;Node4 -->
<g id="edge3" class="edge">
<title>Node3&#45;&gt;Node4</title>
<path fill="none" stroke="#63b8ff" d="M98.35,-49.15C112.26,-39.57 130.11,-27.29 141.9,-19.17"/>
<polygon fill="#63b8ff" stroke="#63b8ff" points="96.12,-46.43 89.87,-54.98 100.09,-52.2 96.12,-46.43"/>
</g>
<!-- Node5&#45;&gt;Node4 -->
<g id="edge5" class="edge">
<title>Node5&#45;&gt;Node4</title>
<path fill="none" stroke="#63b8ff" d="M210.65,-49.15C196.74,-39.57 178.89,-27.29 167.1,-19.17"/>
<polygon fill="#63b8ff" stroke="#63b8ff" points="208.91,-52.2 219.13,-54.98 212.88,-46.43 208.91,-52.2"/>
</g>
</g>
</svg>
