<?xml version="1.0" encoding="UTF-8" standalone="no"?>
<!DOCTYPE svg PUBLIC "-//W3C//DTD SVG 1.1//EN"
 "http://www.w3.org/Graphics/SVG/1.1/DTD/svg11.dtd">
<!-- Generated by graphviz version 2.43.0 (0)
 -->
<!-- Title: src/host/time_bound_logger.h Pages: 1 -->
<svg width="1167pt" height="203pt"
 viewBox="0.00 0.00 1167.00 203.00" xmlns="http://www.w3.org/2000/svg" xmlns:xlink="http://www.w3.org/1999/xlink">
<g id="graph0" class="graph" transform="scale(1 1) rotate(0) translate(4 199)">
<title>src/host/time_bound_logger.h</title>
<!-- Node1 -->
<g id="node1" class="node">
<title>Node1</title>
<g id="a_node1"><a xlink:title=" ">
<polygon fill="#999999" stroke="#666666" points="1103,-195 987,-195 987,-165 1103,-165 1103,-195"/>
<text text-anchor="start" x="995" y="-183" font-family="Helvetica,sans-Serif" font-size="10.00">src/host/time_bound</text>
<text text-anchor="middle" x="1045" y="-172" font-family="Helvetica,sans-Serif" font-size="10.00">_logger.h</text>
</a>
</g>
</g>
<!-- Node2 -->
<g id="node2" class="node">
<title>Node2</title>
<g id="a_node2"><a xlink:href="logger_8h.html" target="_top" xlink:title=" ">
<polygon fill="white" stroke="#666666" points="640.5,-129 553.5,-129 553.5,-110 640.5,-110 640.5,-129"/>
<text text-anchor="middle" x="597" y="-117" font-family="Helvetica,sans-Serif" font-size="10.00">ccf/ds/logger.h</text>
</a>
</g>
</g>
<!-- Node1&#45;&gt;Node2 -->
<g id="edge1" class="edge">
<title>Node1&#45;&gt;Node2</title>
<path fill="none" stroke="#63b8ff" d="M986.89,-171.41C899.42,-159.99 735.15,-138.54 650.48,-127.48"/>
<polygon fill="#63b8ff" stroke="#63b8ff" points="650.93,-124.01 640.56,-126.19 650.02,-130.95 650.93,-124.01"/>
</g>
<!-- Node4 -->
<g id="node4" class="node">
<title>Node4</title>
<g id="a_node4"><a xlink:title=" ">
<polygon fill="#e0e0e0" stroke="#999999" points="704.5,-19 625.5,-19 625.5,0 704.5,0 704.5,-19"/>
<text text-anchor="middle" x="665" y="-7" font-family="Helvetica,sans-Serif" font-size="10.00">fmt/format.h</text>
</a>
</g>
</g>
<!-- Node1&#45;&gt;Node4 -->
<g id="edge19" class="edge">
<title>Node1&#45;&gt;Node4</title>
<path fill="none" stroke="#63b8ff" d="M1041.84,-164.98C1034.92,-135.62 1017.67,-69.21 1000,-55 957.14,-20.53 797.39,-12.68 714.94,-10.95"/>
<polygon fill="#63b8ff" stroke="#63b8ff" points="714.86,-7.45 704.8,-10.76 714.73,-14.45 714.86,-7.45"/>
</g>
<!-- Node17 -->
<g id="node17" class="node">
<title>Node17</title>
<g id="a_node17"><a xlink:title=" ">
<polygon fill="#e0e0e0" stroke="#999999" points="1097,-129 1047,-129 1047,-110 1097,-110 1097,-129"/>
<text text-anchor="middle" x="1072" y="-117" font-family="Helvetica,sans-Serif" font-size="10.00">chrono</text>
</a>
</g>
</g>
<!-- Node1&#45;&gt;Node17 -->
<g id="edge18" class="edge">
<title>Node1&#45;&gt;Node17</title>
<path fill="none" stroke="#63b8ff" d="M1051.54,-164.84C1055.18,-156.95 1059.74,-147.05 1063.64,-138.61"/>
<polygon fill="#63b8ff" stroke="#63b8ff" points="1066.94,-139.81 1067.95,-129.27 1060.59,-136.88 1066.94,-139.81"/>
</g>
<!-- Node18 -->
<g id="node18" class="node">
<title>Node18</title>
<g id="a_node18"><a xlink:title=" ">
<polygon fill="#e0e0e0" stroke="#999999" points="1159,-129 1115,-129 1115,-110 1159,-110 1159,-129"/>
<text text-anchor="middle" x="1137" y="-117" font-family="Helvetica,sans-Serif" font-size="10.00">string</text>
</a>
</g>
</g>
<!-- Node1&#45;&gt;Node18 -->
<g id="edge20" class="edge">
<title>Node1&#45;&gt;Node18</title>
<path fill="none" stroke="#63b8ff" d="M1067.27,-164.84C1081.67,-155.68 1100.33,-143.82 1114.73,-134.66"/>
<polygon fill="#63b8ff" stroke="#63b8ff" points="1116.92,-137.41 1123.48,-129.09 1113.17,-131.51 1116.92,-137.41"/>
</g>
<!-- Node3 -->
<g id="node3" class="node">
<title>Node3</title>
<g id="a_node3"><a xlink:href="enum__formatter_8h.html" target="_top" xlink:title=" ">
<polygon fill="white" stroke="#666666" points="991,-74 855,-74 855,-55 991,-55 991,-74"/>
<text text-anchor="middle" x="923" y="-62" font-family="Helvetica,sans-Serif" font-size="10.00">ccf/ds/enum_formatter.h</text>
</a>
</g>
</g>
<!-- Node2&#45;&gt;Node3 -->
<g id="edge2" class="edge">
<title>Node2&#45;&gt;Node3</title>
<path fill="none" stroke="#63b8ff" d="M640.63,-111.41C697.12,-102.22 795.95,-86.16 860.42,-75.67"/>
<polygon fill="#63b8ff" stroke="#63b8ff" points="861.16,-79.1 870.47,-74.04 860.03,-72.19 861.16,-79.1"/>
</g>
<!-- Node2&#45;&gt;Node4 -->
<g id="edge12" class="edge">
<title>Node2&#45;&gt;Node4</title>
<path fill="none" stroke="#63b8ff" d="M553.24,-118.42C480.37,-117.24 339.07,-110.22 308,-74 302.5,-67.59 302.41,-61.33 308,-55 328,-32.35 521.72,-18.52 615.12,-13.11"/>
<polygon fill="#63b8ff" stroke="#63b8ff" points="615.41,-16.6 625.19,-12.54 615.01,-9.61 615.41,-16.6"/>
</g>
<!-- Node5 -->
<g id="node5" class="node">
<title>Node5</title>
<g id="a_node5"><a xlink:href="thread__ids_8h.html" target="_top" xlink:title=" ">
<polygon fill="white" stroke="#666666" points="260,-74 152,-74 152,-55 260,-55 260,-74"/>
<text text-anchor="middle" x="206" y="-62" font-family="Helvetica,sans-Serif" font-size="10.00">ccf/ds/thread_ids.h</text>
</a>
</g>
</g>
<!-- Node2&#45;&gt;Node5 -->
<g id="edge4" class="edge">
<title>Node2&#45;&gt;Node5</title>
<path fill="none" stroke="#63b8ff" d="M553.29,-112.57C484.3,-103.22 349.83,-85 269.97,-74.17"/>
<polygon fill="#63b8ff" stroke="#63b8ff" points="270.41,-70.7 260.03,-72.82 269.47,-77.64 270.41,-70.7"/>
</g>
<!-- Node11 -->
<g id="node11" class="node">
<title>Node11</title>
<g id="a_node11"><a xlink:title=" ">
<polygon fill="#e0e0e0" stroke="#999999" points="395.5,-74 316.5,-74 316.5,-55 395.5,-55 395.5,-74"/>
<text text-anchor="middle" x="356" y="-62" font-family="Helvetica,sans-Serif" font-size="10.00">fmt/chrono.h</text>
</a>
</g>
</g>
<!-- Node2&#45;&gt;Node11 -->
<g id="edge11" class="edge">
<title>Node2&#45;&gt;Node11</title>
<path fill="none" stroke="#63b8ff" d="M558.28,-109.98C516.59,-100.82 450.18,-86.21 404.91,-76.26"/>
<polygon fill="#63b8ff" stroke="#63b8ff" points="405.54,-72.81 395.02,-74.08 404.04,-79.65 405.54,-72.81"/>
</g>
<!-- Node12 -->
<g id="node12" class="node">
<title>Node12</title>
<g id="a_node12"><a xlink:title=" ">
<polygon fill="#e0e0e0" stroke="#999999" points="473,-74 413,-74 413,-55 473,-55 473,-74"/>
<text text-anchor="middle" x="443" y="-62" font-family="Helvetica,sans-Serif" font-size="10.00">iostream</text>
</a>
</g>
</g>
<!-- Node2&#45;&gt;Node12 -->
<g id="edge13" class="edge">
<title>Node2&#45;&gt;Node12</title>
<path fill="none" stroke="#63b8ff" d="M572.26,-109.98C546.63,-101.16 506.37,-87.31 477.59,-77.41"/>
<polygon fill="#63b8ff" stroke="#63b8ff" points="478.53,-74.03 467.94,-74.08 476.25,-80.65 478.53,-74.03"/>
</g>
<!-- Node13 -->
<g id="node13" class="node">
<title>Node13</title>
<g id="a_node13"><a xlink:title=" ">
<polygon fill="#e0e0e0" stroke="#999999" points="601,-74 491,-74 491,-55 601,-55 601,-74"/>
<text text-anchor="middle" x="546" y="-62" font-family="Helvetica,sans-Serif" font-size="10.00">nlohmann/json.hpp</text>
</a>
</g>
</g>
<!-- Node2&#45;&gt;Node13 -->
<g id="edge14" class="edge">
<title>Node2&#45;&gt;Node13</title>
<path fill="none" stroke="#63b8ff" d="M588.58,-109.75C581.23,-102.11 570.37,-90.82 561.46,-81.56"/>
<polygon fill="#63b8ff" stroke="#63b8ff" points="563.72,-78.87 554.26,-74.09 558.68,-83.72 563.72,-78.87"/>
</g>
<!-- Node14 -->
<g id="node14" class="node">
<title>Node14</title>
<g id="a_node14"><a xlink:title=" ">
<polygon fill="#e0e0e0" stroke="#999999" points="675,-74 619,-74 619,-55 675,-55 675,-74"/>
<text text-anchor="middle" x="647" y="-62" font-family="Helvetica,sans-Serif" font-size="10.00">optional</text>
</a>
</g>
</g>
<!-- Node2&#45;&gt;Node14 -->
<g id="edge15" class="edge">
<title>Node2&#45;&gt;Node14</title>
<path fill="none" stroke="#63b8ff" d="M605.26,-109.75C612.46,-102.11 623.11,-90.82 631.85,-81.56"/>
<polygon fill="#63b8ff" stroke="#63b8ff" points="634.58,-83.76 638.9,-74.09 629.49,-78.96 634.58,-83.76"/>
</g>
<!-- Node15 -->
<g id="node15" class="node">
<title>Node15</title>
<g id="a_node15"><a xlink:title=" ">
<polygon fill="#e0e0e0" stroke="#999999" points="749,-74 693,-74 693,-55 749,-55 749,-74"/>
<text text-anchor="middle" x="721" y="-62" font-family="Helvetica,sans-Serif" font-size="10.00">sstream</text>
</a>
</g>
</g>
<!-- Node2&#45;&gt;Node15 -->
<g id="edge16" class="edge">
<title>Node2&#45;&gt;Node15</title>
<path fill="none" stroke="#63b8ff" d="M616.92,-109.98C637.05,-101.38 668.38,-87.99 691.41,-78.15"/>
<polygon fill="#63b8ff" stroke="#63b8ff" points="692.9,-81.32 700.71,-74.17 690.14,-74.88 692.9,-81.32"/>
</g>
<!-- Node16 -->
<g id="node16" class="node">
<title>Node16</title>
<g id="a_node16"><a xlink:title=" ">
<polygon fill="#e0e0e0" stroke="#999999" points="836.5,-74 767.5,-74 767.5,-55 836.5,-55 836.5,-74"/>
<text text-anchor="middle" x="802" y="-62" font-family="Helvetica,sans-Serif" font-size="10.00">type_traits</text>
</a>
</g>
</g>
<!-- Node2&#45;&gt;Node16 -->
<g id="edge17" class="edge">
<title>Node2&#45;&gt;Node16</title>
<path fill="none" stroke="#63b8ff" d="M629.94,-109.98C664.95,-100.93 720.47,-86.58 758.93,-76.64"/>
<polygon fill="#63b8ff" stroke="#63b8ff" points="760,-79.97 768.81,-74.08 758.25,-73.2 760,-79.97"/>
</g>
<!-- Node3&#45;&gt;Node4 -->
<g id="edge3" class="edge">
<title>Node3&#45;&gt;Node4</title>
<path fill="none" stroke="#63b8ff" d="M881.55,-54.98C836.07,-45.64 763.1,-30.65 714.61,-20.69"/>
<polygon fill="#63b8ff" stroke="#63b8ff" points="715.15,-17.23 704.65,-18.65 713.75,-24.09 715.15,-17.23"/>
</g>
<!-- Node5&#45;&gt;Node4 -->
<g id="edge5" class="edge">
<title>Node5&#45;&gt;Node4</title>
<path fill="none" stroke="#63b8ff" d="M260.18,-56.67C264.86,-56.1 269.51,-55.54 274,-55 396.62,-40.36 541,-24.21 615.29,-15.98"/>
<polygon fill="#63b8ff" stroke="#63b8ff" points="615.75,-19.45 625.3,-14.87 614.98,-12.49 615.75,-19.45"/>
</g>
<!-- Node6 -->
<g id="node6" class="node">
<title>Node6</title>
<g id="a_node6"><a xlink:title=" ">
<polygon fill="#e0e0e0" stroke="#999999" points="86,-19 0,-19 0,0 86,0 86,-19"/>
<text text-anchor="middle" x="43" y="-7" font-family="Helvetica,sans-Serif" font-size="10.00">fmt/ostream.h</text>
</a>
</g>
</g>
<!-- Node5&#45;&gt;Node6 -->
<g id="edge6" class="edge">
<title>Node5&#45;&gt;Node6</title>
<path fill="none" stroke="#63b8ff" d="M179.81,-54.98C152.56,-46.13 109.7,-32.19 79.22,-22.28"/>
<polygon fill="#63b8ff" stroke="#63b8ff" points="79.99,-18.85 69.39,-19.08 77.82,-25.5 79.99,-18.85"/>
</g>
<!-- Node7 -->
<g id="node7" class="node">
<title>Node7</title>
<g id="a_node7"><a xlink:title=" ">
<polygon fill="#e0e0e0" stroke="#999999" points="165.5,-19 104.5,-19 104.5,0 165.5,0 165.5,-19"/>
<text text-anchor="middle" x="135" y="-7" font-family="Helvetica,sans-Serif" font-size="10.00">fmt/std.h</text>
</a>
</g>
</g>
<!-- Node5&#45;&gt;Node7 -->
<g id="edge7" class="edge">
<title>Node5&#45;&gt;Node7</title>
<path fill="none" stroke="#63b8ff" d="M194.59,-54.98C183.89,-47 167.66,-34.88 154.84,-25.31"/>
<polygon fill="#63b8ff" stroke="#63b8ff" points="156.72,-22.35 146.61,-19.17 152.53,-27.96 156.72,-22.35"/>
</g>
<!-- Node8 -->
<g id="node8" class="node">
<title>Node8</title>
<g id="a_node8"><a xlink:title=" ">
<polygon fill="#e0e0e0" stroke="#999999" points="228,-19 184,-19 184,0 228,0 228,-19"/>
<text text-anchor="middle" x="206" y="-7" font-family="Helvetica,sans-Serif" font-size="10.00">limits</text>
</a>
</g>
</g>
<!-- Node5&#45;&gt;Node8 -->
<g id="edge8" class="edge">
<title>Node5&#45;&gt;Node8</title>
<path fill="none" stroke="#63b8ff" d="M206,-54.75C206,-47.8 206,-37.85 206,-29.13"/>
<polygon fill="#63b8ff" stroke="#63b8ff" points="209.5,-29.09 206,-19.09 202.5,-29.09 209.5,-29.09"/>
</g>
<!-- Node9 -->
<g id="node9" class="node">
<title>Node9</title>
<g id="a_node9"><a xlink:title=" ">
<polygon fill="#e0e0e0" stroke="#999999" points="284,-19 246,-19 246,0 284,0 284,-19"/>
<text text-anchor="middle" x="265" y="-7" font-family="Helvetica,sans-Serif" font-size="10.00">map</text>
</a>
</g>
</g>
<!-- Node5&#45;&gt;Node9 -->
<g id="edge9" class="edge">
<title>Node5&#45;&gt;Node9</title>
<path fill="none" stroke="#63b8ff" d="M215.48,-54.98C224.2,-47.15 237.34,-35.34 247.9,-25.86"/>
<polygon fill="#63b8ff" stroke="#63b8ff" points="250.25,-28.46 255.35,-19.17 245.57,-23.25 250.25,-28.46"/>
</g>
<!-- Node10 -->
<g id="node10" class="node">
<title>Node10</title>
<g id="a_node10"><a xlink:title=" ">
<polygon fill="#e0e0e0" stroke="#999999" points="350,-19 302,-19 302,0 350,0 350,-19"/>
<text text-anchor="middle" x="326" y="-7" font-family="Helvetica,sans-Serif" font-size="10.00">thread</text>
</a>
</g>
</g>
<!-- Node5&#45;&gt;Node10 -->
<g id="edge10" class="edge">
<title>Node5&#45;&gt;Node10</title>
<path fill="none" stroke="#63b8ff" d="M225.28,-54.98C244.67,-46.42 274.81,-33.11 297.07,-23.28"/>
<polygon fill="#63b8ff" stroke="#63b8ff" points="298.64,-26.41 306.37,-19.17 295.81,-20.01 298.64,-26.41"/>
</g>
</g>
</svg>
