<?xml version="1.0" encoding="UTF-8" standalone="no"?>
<!DOCTYPE svg PUBLIC "-//W3C//DTD SVG 1.1//EN"
 "http://www.w3.org/Graphics/SVG/1.1/DTD/svg11.dtd">
<!-- Generated by graphviz version 2.43.0 (0)
 -->
<!-- Title: src/indexing/transaction_fetcher_interface.h Pages: 1 -->
<svg width="286pt" height="324pt"
 viewBox="0.00 0.00 285.50 324.00" xmlns="http://www.w3.org/2000/svg" xmlns:xlink="http://www.w3.org/1999/xlink">
<g id="graph0" class="graph" transform="scale(1 1) rotate(0) translate(4 320)">
<title>src/indexing/transaction_fetcher_interface.h</title>
<!-- Node1 -->
<g id="node1" class="node">
<title>Node1</title>
<g id="a_node1"><a xlink:title=" ">
<polygon fill="#999999" stroke="#666666" points="200.5,-316 66.5,-316 66.5,-286 200.5,-286 200.5,-316"/>
<text text-anchor="start" x="74.5" y="-304" font-family="Helvetica,sans-Serif" font-size="10.00">src/indexing/transaction</text>
<text text-anchor="middle" x="133.5" y="-293" font-family="Helvetica,sans-Serif" font-size="10.00">_fetcher_interface.h</text>
</a>
</g>
</g>
<!-- Node2 -->
<g id="node2" class="node">
<title>Node2</title>
<g id="a_node2"><a xlink:href="historical__transaction__fetcher_8h.html" target="_top" xlink:title=" ">
<polygon fill="white" stroke="#666666" points="125,-195 0,-195 0,-165 125,-165 125,-195"/>
<text text-anchor="start" x="8" y="-183" font-family="Helvetica,sans-Serif" font-size="10.00">src/indexing/historical</text>
<text text-anchor="middle" x="62.5" y="-172" font-family="Helvetica,sans-Serif" font-size="10.00">_transaction_fetcher.h</text>
</a>
</g>
</g>
<!-- Node1&#45;&gt;Node2 -->
<g id="edge1" class="edge">
<title>Node1&#45;&gt;Node2</title>
<path fill="none" stroke="#63b8ff" d="M119.77,-276.99C105.3,-252.74 82.97,-215.31 70.91,-195.1"/>
<polygon fill="#63b8ff" stroke="#63b8ff" points="116.95,-279.09 125.08,-285.88 122.96,-275.5 116.95,-279.09"/>
</g>
<!-- Node5 -->
<g id="node5" class="node">
<title>Node5</title>
<g id="a_node5"><a xlink:href="indexer_8h.html" target="_top" xlink:title=" ">
<polygon fill="white" stroke="#666666" points="253,-250 130,-250 130,-231 253,-231 253,-250"/>
<text text-anchor="middle" x="191.5" y="-238" font-family="Helvetica,sans-Serif" font-size="10.00">src/indexing/indexer.h</text>
</a>
</g>
</g>
<!-- Node1&#45;&gt;Node5 -->
<g id="edge4" class="edge">
<title>Node1&#45;&gt;Node5</title>
<path fill="none" stroke="#63b8ff" d="M154.65,-278.67C164.38,-268.86 175.38,-257.76 182.81,-250.27"/>
<polygon fill="#63b8ff" stroke="#63b8ff" points="152.1,-276.27 147.54,-285.84 157.07,-281.2 152.1,-276.27"/>
</g>
<!-- Node3 -->
<g id="node3" class="node">
<title>Node3</title>
<g id="a_node3"><a xlink:href="src_2enclave_2enclave_8h.html" target="_top" xlink:title=" ">
<polygon fill="white" stroke="#666666" points="166.5,-74 44.5,-74 44.5,-55 166.5,-55 166.5,-74"/>
<text text-anchor="middle" x="105.5" y="-62" font-family="Helvetica,sans-Serif" font-size="10.00">src/enclave/enclave.h</text>
</a>
</g>
</g>
<!-- Node2&#45;&gt;Node3 -->
<g id="edge2" class="edge">
<title>Node2&#45;&gt;Node3</title>
<path fill="none" stroke="#63b8ff" d="M71.58,-155.03C81.15,-129.77 95.71,-91.33 102.19,-74.23"/>
<polygon fill="#63b8ff" stroke="#63b8ff" points="68.22,-154.03 67.95,-164.63 74.76,-156.51 68.22,-154.03"/>
</g>
<!-- Node4 -->
<g id="node4" class="node">
<title>Node4</title>
<g id="a_node4"><a xlink:href="enclave_2main_8cpp.html" target="_top" xlink:title=" ">
<polygon fill="white" stroke="#666666" points="165.5,-19 45.5,-19 45.5,0 165.5,0 165.5,-19"/>
<text text-anchor="middle" x="105.5" y="-7" font-family="Helvetica,sans-Serif" font-size="10.00">src/enclave/main.cpp</text>
</a>
</g>
</g>
<!-- Node3&#45;&gt;Node4 -->
<g id="edge3" class="edge">
<title>Node3&#45;&gt;Node4</title>
<path fill="none" stroke="#63b8ff" d="M105.5,-44.66C105.5,-35.93 105.5,-25.99 105.5,-19.09"/>
<polygon fill="#63b8ff" stroke="#63b8ff" points="102,-44.75 105.5,-54.75 109,-44.75 102,-44.75"/>
</g>
<!-- Node6 -->
<g id="node6" class="node">
<title>Node6</title>
<g id="a_node6"><a xlink:href="node__state_8h.html" target="_top" xlink:title=" ">
<polygon fill="white" stroke="#666666" points="267.5,-189.5 143.5,-189.5 143.5,-170.5 267.5,-170.5 267.5,-189.5"/>
<text text-anchor="middle" x="205.5" y="-177.5" font-family="Helvetica,sans-Serif" font-size="10.00">src/node/node_state.h</text>
</a>
</g>
</g>
<!-- Node5&#45;&gt;Node6 -->
<g id="edge5" class="edge">
<title>Node5&#45;&gt;Node6</title>
<path fill="none" stroke="#63b8ff" d="M195.93,-220.99C198.44,-210.51 201.46,-197.89 203.43,-189.67"/>
<polygon fill="#63b8ff" stroke="#63b8ff" points="192.49,-220.33 193.57,-230.87 199.3,-221.96 192.49,-220.33"/>
</g>
<!-- Node6&#45;&gt;Node3 -->
<g id="edge6" class="edge">
<title>Node6&#45;&gt;Node3</title>
<path fill="none" stroke="#63b8ff" d="M173.61,-166.08C156.8,-157.77 137.11,-145.44 124.5,-129 111.75,-112.38 107.53,-87.3 106.15,-74.18"/>
<polygon fill="#63b8ff" stroke="#63b8ff" points="172.56,-169.45 183.1,-170.5 175.51,-163.1 172.56,-169.45"/>
</g>
<!-- Node7 -->
<g id="node7" class="node">
<title>Node7</title>
<g id="a_node7"><a xlink:href="gov__effects_8h.html" target="_top" xlink:title=" ">
<polygon fill="white" stroke="#666666" points="277.5,-129 133.5,-129 133.5,-110 277.5,-110 277.5,-129"/>
<text text-anchor="middle" x="205.5" y="-117" font-family="Helvetica,sans-Serif" font-size="10.00">src/node/rpc/gov_effects.h</text>
</a>
</g>
</g>
<!-- Node6&#45;&gt;Node7 -->
<g id="edge7" class="edge">
<title>Node6&#45;&gt;Node7</title>
<path fill="none" stroke="#63b8ff" d="M205.5,-160.16C205.5,-149.74 205.5,-137.3 205.5,-129.17"/>
<polygon fill="#63b8ff" stroke="#63b8ff" points="202,-160.37 205.5,-170.37 209,-160.37 202,-160.37"/>
</g>
<!-- Node7&#45;&gt;Node3 -->
<g id="edge8" class="edge">
<title>Node7&#45;&gt;Node3</title>
<path fill="none" stroke="#63b8ff" d="M180.47,-105.23C162.13,-95.51 137.76,-82.6 121.86,-74.17"/>
<polygon fill="#63b8ff" stroke="#63b8ff" points="178.96,-108.39 189.43,-109.98 182.24,-102.21 178.96,-108.39"/>
</g>
</g>
</svg>
