<?xml version="1.0" encoding="UTF-8" standalone="no"?>
<!DOCTYPE svg PUBLIC "-//W3C//DTD SVG 1.1//EN"
 "http://www.w3.org/Graphics/SVG/1.1/DTD/svg11.dtd">
<!-- Generated by graphviz version 2.43.0 (0)
 -->
<!-- Title: src/host/udp.h Pages: 1 -->
<svg width="1286pt" height="247pt"
 viewBox="0.00 0.00 1285.50 247.00" xmlns="http://www.w3.org/2000/svg" xmlns:xlink="http://www.w3.org/1999/xlink">
<g id="graph0" class="graph" transform="scale(1 1) rotate(0) translate(4 243)">
<title>src/host/udp.h</title>
<!-- Node1 -->
<g id="node1" class="node">
<title>Node1</title>
<g id="a_node1"><a xlink:title=" ">
<polygon fill="#999999" stroke="#666666" points="878.5,-239 793.5,-239 793.5,-220 878.5,-220 878.5,-239"/>
<text text-anchor="middle" x="836" y="-227" font-family="Helvetica,sans-Serif" font-size="10.00">src/host/udp.h</text>
</a>
</g>
</g>
<!-- Node2 -->
<g id="node2" class="node">
<title>Node2</title>
<g id="a_node2"><a xlink:href="before__io_8h.html" target="_top" xlink:title=" ">
<polygon fill="white" stroke="#666666" points="708.5,-184 637.5,-184 637.5,-165 708.5,-165 708.5,-184"/>
<text text-anchor="middle" x="673" y="-172" font-family="Helvetica,sans-Serif" font-size="10.00">before_io.h</text>
</a>
</g>
</g>
<!-- Node1&#45;&gt;Node2 -->
<g id="edge1" class="edge">
<title>Node1&#45;&gt;Node2</title>
<path fill="none" stroke="#63b8ff" d="M809.81,-219.98C782.56,-211.13 739.7,-197.19 709.22,-187.28"/>
<polygon fill="#63b8ff" stroke="#63b8ff" points="709.99,-183.85 699.39,-184.08 707.82,-190.5 709.99,-183.85"/>
</g>
<!-- Node3 -->
<g id="node3" class="node">
<title>Node3</title>
<g id="a_node3"><a xlink:href="logger_8h.html" target="_top" xlink:title=" ">
<polygon fill="white" stroke="#666666" points="652.5,-129 565.5,-129 565.5,-110 652.5,-110 652.5,-129"/>
<text text-anchor="middle" x="609" y="-117" font-family="Helvetica,sans-Serif" font-size="10.00">ccf/ds/logger.h</text>
</a>
</g>
</g>
<!-- Node1&#45;&gt;Node3 -->
<g id="edge22" class="edge">
<title>Node1&#45;&gt;Node3</title>
<path fill="none" stroke="#63b8ff" d="M793.38,-224.49C739.72,-218.59 651.68,-205.85 628,-184 615.72,-172.67 611.26,-153.77 609.7,-139.52"/>
<polygon fill="#63b8ff" stroke="#63b8ff" points="613.17,-139.06 608.97,-129.34 606.19,-139.56 613.17,-139.06"/>
</g>
<!-- Node15 -->
<g id="node15" class="node">
<title>Node15</title>
<g id="a_node15"><a xlink:title=" ">
<polygon fill="#e0e0e0" stroke="#999999" points="839,-74 783,-74 783,-55 839,-55 839,-74"/>
<text text-anchor="middle" x="811" y="-62" font-family="Helvetica,sans-Serif" font-size="10.00">optional</text>
</a>
</g>
</g>
<!-- Node1&#45;&gt;Node15 -->
<g id="edge36" class="edge">
<title>Node1&#45;&gt;Node15</title>
<path fill="none" stroke="#63b8ff" d="M834.66,-219.74C830.74,-194.2 819.27,-119.43 813.87,-84.23"/>
<polygon fill="#63b8ff" stroke="#63b8ff" points="817.33,-83.66 812.35,-74.31 810.41,-84.72 817.33,-83.66"/>
</g>
<!-- Node18 -->
<g id="node18" class="node">
<title>Node18</title>
<g id="a_node18"><a xlink:href="proxy_8h.html" target="_top" xlink:title=" ">
<polygon fill="white" stroke="#666666" points="888,-129 836,-129 836,-110 888,-110 888,-129"/>
<text text-anchor="middle" x="862" y="-117" font-family="Helvetica,sans-Serif" font-size="10.00">proxy.h</text>
</a>
</g>
</g>
<!-- Node1&#45;&gt;Node18 -->
<g id="edge32" class="edge">
<title>Node1&#45;&gt;Node18</title>
<path fill="none" stroke="#63b8ff" d="M838.13,-219.66C842.36,-202.09 851.9,-162.45 857.56,-138.95"/>
<polygon fill="#63b8ff" stroke="#63b8ff" points="860.98,-139.7 859.92,-129.16 854.17,-138.06 860.98,-139.7"/>
</g>
<!-- Node21 -->
<g id="node21" class="node">
<title>Node21</title>
<g id="a_node21"><a xlink:href="locking_8h.html" target="_top" xlink:title=" ">
<polygon fill="white" stroke="#666666" points="1182,-129 1086,-129 1086,-110 1182,-110 1182,-129"/>
<text text-anchor="middle" x="1134" y="-117" font-family="Helvetica,sans-Serif" font-size="10.00">ccf/pal/locking.h</text>
</a>
</g>
</g>
<!-- Node1&#45;&gt;Node21 -->
<g id="edge23" class="edge">
<title>Node1&#45;&gt;Node21</title>
<path fill="none" stroke="#63b8ff" d="M868.08,-219.94C898.28,-211.62 944.63,-198.21 984,-184 1027.26,-168.39 1076.08,-146.99 1105.95,-133.45"/>
<polygon fill="#63b8ff" stroke="#63b8ff" points="1107.67,-136.52 1115.32,-129.18 1104.77,-130.15 1107.67,-136.52"/>
</g>
<!-- Node23 -->
<g id="node23" class="node">
<title>Node23</title>
<g id="a_node23"><a xlink:href="dns_8h.html" target="_top" xlink:title=" ">
<polygon fill="white" stroke="#666666" points="975.5,-184 932.5,-184 932.5,-165 975.5,-165 975.5,-184"/>
<text text-anchor="middle" x="954" y="-172" font-family="Helvetica,sans-Serif" font-size="10.00">dns.h</text>
</a>
</g>
</g>
<!-- Node1&#45;&gt;Node23 -->
<g id="edge25" class="edge">
<title>Node1&#45;&gt;Node23</title>
<path fill="none" stroke="#63b8ff" d="M854.96,-219.98C874.03,-211.42 903.66,-198.11 925.55,-188.28"/>
<polygon fill="#63b8ff" stroke="#63b8ff" points="927.01,-191.46 934.7,-184.17 924.14,-185.07 927.01,-191.46"/>
</g>
<!-- Node25 -->
<g id="node25" class="node">
<title>Node25</title>
<g id="a_node25"><a xlink:href="pending__io_8h.html" target="_top" xlink:title=" ">
<polygon fill="white" stroke="#666666" points="1237.5,-184 1144.5,-184 1144.5,-165 1237.5,-165 1237.5,-184"/>
<text text-anchor="middle" x="1191" y="-172" font-family="Helvetica,sans-Serif" font-size="10.00">ds/pending_io.h</text>
</a>
</g>
</g>
<!-- Node1&#45;&gt;Node25 -->
<g id="edge30" class="edge">
<title>Node1&#45;&gt;Node25</title>
<path fill="none" stroke="#63b8ff" d="M878.82,-222.11C942.71,-212.57 1063.08,-194.6 1134.24,-183.97"/>
<polygon fill="#63b8ff" stroke="#63b8ff" points="1134.99,-187.4 1144.37,-182.46 1133.96,-180.48 1134.99,-187.4"/>
</g>
<!-- Node27 -->
<g id="node27" class="node">
<title>Node27</title>
<g id="a_node27"><a xlink:href="socket_8h.html" target="_top" xlink:title=" ">
<polygon fill="white" stroke="#666666" points="783.5,-184 726.5,-184 726.5,-165 783.5,-165 783.5,-184"/>
<text text-anchor="middle" x="755" y="-172" font-family="Helvetica,sans-Serif" font-size="10.00">socket.h</text>
</a>
</g>
</g>
<!-- Node1&#45;&gt;Node27 -->
<g id="edge33" class="edge">
<title>Node1&#45;&gt;Node27</title>
<path fill="none" stroke="#63b8ff" d="M822.99,-219.98C810.54,-211.84 791.54,-199.41 776.79,-189.76"/>
<polygon fill="#63b8ff" stroke="#63b8ff" points="778.54,-186.72 768.25,-184.17 774.7,-192.57 778.54,-186.72"/>
</g>
<!-- Node2&#45;&gt;Node3 -->
<g id="edge2" class="edge">
<title>Node2&#45;&gt;Node3</title>
<path fill="none" stroke="#63b8ff" d="M662.72,-164.98C653.16,-157.07 638.72,-145.11 627.22,-135.58"/>
<polygon fill="#63b8ff" stroke="#63b8ff" points="629.4,-132.85 619.47,-129.17 624.94,-138.24 629.4,-132.85"/>
</g>
<!-- Node2&#45;&gt;Node18 -->
<g id="edge19" class="edge">
<title>Node2&#45;&gt;Node18</title>
<path fill="none" stroke="#63b8ff" d="M703.37,-164.98C736.8,-155.61 790.5,-140.55 826.02,-130.59"/>
<polygon fill="#63b8ff" stroke="#63b8ff" points="827.28,-133.87 835.97,-127.8 825.39,-127.13 827.28,-133.87"/>
</g>
<!-- Node4 -->
<g id="node4" class="node">
<title>Node4</title>
<g id="a_node4"><a xlink:href="enum__formatter_8h.html" target="_top" xlink:title=" ">
<polygon fill="white" stroke="#666666" points="542,-74 406,-74 406,-55 542,-55 542,-74"/>
<text text-anchor="middle" x="474" y="-62" font-family="Helvetica,sans-Serif" font-size="10.00">ccf/ds/enum_formatter.h</text>
</a>
</g>
</g>
<!-- Node3&#45;&gt;Node4 -->
<g id="edge3" class="edge">
<title>Node3&#45;&gt;Node4</title>
<path fill="none" stroke="#63b8ff" d="M587.31,-109.98C565.2,-101.3 530.68,-87.75 505.55,-77.88"/>
<polygon fill="#63b8ff" stroke="#63b8ff" points="506.67,-74.57 496.08,-74.17 504.11,-81.08 506.67,-74.57"/>
</g>
<!-- Node5 -->
<g id="node5" class="node">
<title>Node5</title>
<g id="a_node5"><a xlink:title=" ">
<polygon fill="#e0e0e0" stroke="#999999" points="471.5,-19 392.5,-19 392.5,0 471.5,0 471.5,-19"/>
<text text-anchor="middle" x="432" y="-7" font-family="Helvetica,sans-Serif" font-size="10.00">fmt/format.h</text>
</a>
</g>
</g>
<!-- Node3&#45;&gt;Node5 -->
<g id="edge13" class="edge">
<title>Node3&#45;&gt;Node5</title>
<path fill="none" stroke="#63b8ff" d="M565.47,-115.67C509.72,-111.03 417.8,-99.62 397,-74 384.95,-59.16 399.52,-39.58 413.36,-26.1"/>
<polygon fill="#63b8ff" stroke="#63b8ff" points="415.77,-28.64 420.8,-19.32 411.05,-23.47 415.77,-28.64"/>
</g>
<!-- Node6 -->
<g id="node6" class="node">
<title>Node6</title>
<g id="a_node6"><a xlink:href="thread__ids_8h.html" target="_top" xlink:title=" ">
<polygon fill="white" stroke="#666666" points="668,-74 560,-74 560,-55 668,-55 668,-74"/>
<text text-anchor="middle" x="614" y="-62" font-family="Helvetica,sans-Serif" font-size="10.00">ccf/ds/thread_ids.h</text>
</a>
</g>
</g>
<!-- Node3&#45;&gt;Node6 -->
<g id="edge5" class="edge">
<title>Node3&#45;&gt;Node6</title>
<path fill="none" stroke="#63b8ff" d="M609.83,-109.75C610.48,-102.8 611.42,-92.85 612.24,-84.13"/>
<polygon fill="#63b8ff" stroke="#63b8ff" points="615.73,-84.37 613.19,-74.09 608.77,-83.72 615.73,-84.37"/>
</g>
<!-- Node12 -->
<g id="node12" class="node">
<title>Node12</title>
<g id="a_node12"><a xlink:title=" ">
<polygon fill="#e0e0e0" stroke="#999999" points="765.5,-74 686.5,-74 686.5,-55 765.5,-55 765.5,-74"/>
<text text-anchor="middle" x="726" y="-62" font-family="Helvetica,sans-Serif" font-size="10.00">fmt/chrono.h</text>
</a>
</g>
</g>
<!-- Node3&#45;&gt;Node12 -->
<g id="edge12" class="edge">
<title>Node3&#45;&gt;Node12</title>
<path fill="none" stroke="#63b8ff" d="M627.8,-109.98C646.62,-101.46 675.82,-88.23 697.5,-78.41"/>
<polygon fill="#63b8ff" stroke="#63b8ff" points="699.2,-81.48 706.86,-74.17 696.31,-75.11 699.2,-81.48"/>
</g>
<!-- Node13 -->
<g id="node13" class="node">
<title>Node13</title>
<g id="a_node13"><a xlink:title=" ">
<polygon fill="#e0e0e0" stroke="#999999" points="60,-74 0,-74 0,-55 60,-55 60,-74"/>
<text text-anchor="middle" x="30" y="-62" font-family="Helvetica,sans-Serif" font-size="10.00">iostream</text>
</a>
</g>
</g>
<!-- Node3&#45;&gt;Node13 -->
<g id="edge14" class="edge">
<title>Node3&#45;&gt;Node13</title>
<path fill="none" stroke="#63b8ff" d="M565.38,-116.86C474.87,-113.05 260.01,-101.81 70.32,-74"/>
<polygon fill="#63b8ff" stroke="#63b8ff" points="70.57,-70.49 60.16,-72.49 69.54,-77.42 70.57,-70.49"/>
</g>
<!-- Node14 -->
<g id="node14" class="node">
<title>Node14</title>
<g id="a_node14"><a xlink:title=" ">
<polygon fill="#e0e0e0" stroke="#999999" points="188,-74 78,-74 78,-55 188,-55 188,-74"/>
<text text-anchor="middle" x="133" y="-62" font-family="Helvetica,sans-Serif" font-size="10.00">nlohmann/json.hpp</text>
</a>
</g>
</g>
<!-- Node3&#45;&gt;Node14 -->
<g id="edge15" class="edge">
<title>Node3&#45;&gt;Node14</title>
<path fill="none" stroke="#63b8ff" d="M565.36,-114.14C491.87,-106.72 338.51,-90.91 198.22,-74.12"/>
<polygon fill="#63b8ff" stroke="#63b8ff" points="198.49,-70.63 188.15,-72.91 197.66,-77.58 198.49,-70.63"/>
</g>
<!-- Node3&#45;&gt;Node15 -->
<g id="edge16" class="edge">
<title>Node3&#45;&gt;Node15</title>
<path fill="none" stroke="#63b8ff" d="M641.45,-109.98C677.24,-100.6 734.75,-85.51 772.71,-75.55"/>
<polygon fill="#63b8ff" stroke="#63b8ff" points="774.08,-78.81 782.86,-72.88 772.3,-72.04 774.08,-78.81"/>
</g>
<!-- Node16 -->
<g id="node16" class="node">
<title>Node16</title>
<g id="a_node16"><a xlink:title=" ">
<polygon fill="#e0e0e0" stroke="#999999" points="262,-74 206,-74 206,-55 262,-55 262,-74"/>
<text text-anchor="middle" x="234" y="-62" font-family="Helvetica,sans-Serif" font-size="10.00">sstream</text>
</a>
</g>
</g>
<!-- Node3&#45;&gt;Node16 -->
<g id="edge17" class="edge">
<title>Node3&#45;&gt;Node16</title>
<path fill="none" stroke="#63b8ff" d="M565.31,-114.09C502.59,-107.46 383.25,-93.76 272.25,-74.07"/>
<polygon fill="#63b8ff" stroke="#63b8ff" points="272.69,-70.6 262.22,-72.27 271.45,-77.49 272.69,-70.6"/>
</g>
<!-- Node17 -->
<g id="node17" class="node">
<title>Node17</title>
<g id="a_node17"><a xlink:title=" ">
<polygon fill="#e0e0e0" stroke="#999999" points="349.5,-74 280.5,-74 280.5,-55 349.5,-55 349.5,-74"/>
<text text-anchor="middle" x="315" y="-62" font-family="Helvetica,sans-Serif" font-size="10.00">type_traits</text>
</a>
</g>
</g>
<!-- Node3&#45;&gt;Node17 -->
<g id="edge18" class="edge">
<title>Node3&#45;&gt;Node17</title>
<path fill="none" stroke="#63b8ff" d="M565.3,-110.62C510.04,-100.66 415.38,-83.6 359.66,-73.55"/>
<polygon fill="#63b8ff" stroke="#63b8ff" points="360.19,-70.09 349.73,-71.76 358.95,-76.98 360.19,-70.09"/>
</g>
<!-- Node4&#45;&gt;Node5 -->
<g id="edge4" class="edge">
<title>Node4&#45;&gt;Node5</title>
<path fill="none" stroke="#63b8ff" d="M467.06,-54.75C461.13,-47.26 452.43,-36.28 445.18,-27.13"/>
<polygon fill="#63b8ff" stroke="#63b8ff" points="447.76,-24.75 438.81,-19.09 442.27,-29.1 447.76,-24.75"/>
</g>
<!-- Node6&#45;&gt;Node5 -->
<g id="edge6" class="edge">
<title>Node6&#45;&gt;Node5</title>
<path fill="none" stroke="#63b8ff" d="M584.76,-54.98C553.94,-46.01 505.22,-31.82 471.11,-21.89"/>
<polygon fill="#63b8ff" stroke="#63b8ff" points="472.05,-18.52 461.47,-19.08 470.09,-25.24 472.05,-18.52"/>
</g>
<!-- Node7 -->
<g id="node7" class="node">
<title>Node7</title>
<g id="a_node7"><a xlink:title=" ">
<polygon fill="#e0e0e0" stroke="#999999" points="698,-19 612,-19 612,0 698,0 698,-19"/>
<text text-anchor="middle" x="655" y="-7" font-family="Helvetica,sans-Serif" font-size="10.00">fmt/ostream.h</text>
</a>
</g>
</g>
<!-- Node6&#45;&gt;Node7 -->
<g id="edge7" class="edge">
<title>Node6&#45;&gt;Node7</title>
<path fill="none" stroke="#63b8ff" d="M620.77,-54.75C626.56,-47.26 635.06,-36.28 642.14,-27.13"/>
<polygon fill="#63b8ff" stroke="#63b8ff" points="645.01,-29.14 648.36,-19.09 639.47,-24.86 645.01,-29.14"/>
</g>
<!-- Node8 -->
<g id="node8" class="node">
<title>Node8</title>
<g id="a_node8"><a xlink:title=" ">
<polygon fill="#e0e0e0" stroke="#999999" points="777.5,-19 716.5,-19 716.5,0 777.5,0 777.5,-19"/>
<text text-anchor="middle" x="747" y="-7" font-family="Helvetica,sans-Serif" font-size="10.00">fmt/std.h</text>
</a>
</g>
</g>
<!-- Node6&#45;&gt;Node8 -->
<g id="edge8" class="edge">
<title>Node6&#45;&gt;Node8</title>
<path fill="none" stroke="#63b8ff" d="M635.37,-54.98C657.15,-46.3 691.16,-32.75 715.92,-22.88"/>
<polygon fill="#63b8ff" stroke="#63b8ff" points="717.25,-26.12 725.24,-19.17 714.66,-19.62 717.25,-26.12"/>
</g>
<!-- Node9 -->
<g id="node9" class="node">
<title>Node9</title>
<g id="a_node9"><a xlink:title=" ">
<polygon fill="#e0e0e0" stroke="#999999" points="840,-19 796,-19 796,0 840,0 840,-19"/>
<text text-anchor="middle" x="818" y="-7" font-family="Helvetica,sans-Serif" font-size="10.00">limits</text>
</a>
</g>
</g>
<!-- Node6&#45;&gt;Node9 -->
<g id="edge9" class="edge">
<title>Node6&#45;&gt;Node9</title>
<path fill="none" stroke="#63b8ff" d="M647.31,-54.95C681.97,-46.04 737.81,-31.63 786,-19 786.1,-18.97 786.2,-18.95 786.3,-18.92"/>
<polygon fill="#63b8ff" stroke="#63b8ff" points="787.19,-22.31 795.97,-16.37 785.41,-15.54 787.19,-22.31"/>
</g>
<!-- Node10 -->
<g id="node10" class="node">
<title>Node10</title>
<g id="a_node10"><a xlink:title=" ">
<polygon fill="#e0e0e0" stroke="#999999" points="528,-19 490,-19 490,0 528,0 528,-19"/>
<text text-anchor="middle" x="509" y="-7" font-family="Helvetica,sans-Serif" font-size="10.00">map</text>
</a>
</g>
</g>
<!-- Node6&#45;&gt;Node10 -->
<g id="edge10" class="edge">
<title>Node6&#45;&gt;Node10</title>
<path fill="none" stroke="#63b8ff" d="M597.13,-54.98C580.39,-46.54 554.5,-33.47 535.11,-23.68"/>
<polygon fill="#63b8ff" stroke="#63b8ff" points="536.68,-20.55 526.18,-19.17 533.53,-26.8 536.68,-20.55"/>
</g>
<!-- Node11 -->
<g id="node11" class="node">
<title>Node11</title>
<g id="a_node11"><a xlink:title=" ">
<polygon fill="#e0e0e0" stroke="#999999" points="594,-19 546,-19 546,0 594,0 594,-19"/>
<text text-anchor="middle" x="570" y="-7" font-family="Helvetica,sans-Serif" font-size="10.00">thread</text>
</a>
</g>
</g>
<!-- Node6&#45;&gt;Node11 -->
<g id="edge11" class="edge">
<title>Node6&#45;&gt;Node11</title>
<path fill="none" stroke="#63b8ff" d="M606.73,-54.75C600.46,-47.18 591.21,-36.05 583.57,-26.84"/>
<polygon fill="#63b8ff" stroke="#63b8ff" points="586.21,-24.55 577.13,-19.09 580.83,-29.02 586.21,-24.55"/>
</g>
<!-- Node19 -->
<g id="node19" class="node">
<title>Node19</title>
<g id="a_node19"><a xlink:title=" ">
<polygon fill="#e0e0e0" stroke="#999999" points="915,-74 857,-74 857,-55 915,-55 915,-74"/>
<text text-anchor="middle" x="886" y="-62" font-family="Helvetica,sans-Serif" font-size="10.00">memory</text>
</a>
</g>
</g>
<!-- Node18&#45;&gt;Node19 -->
<g id="edge20" class="edge">
<title>Node18&#45;&gt;Node19</title>
<path fill="none" stroke="#63b8ff" d="M865.96,-109.75C869.21,-102.57 873.92,-92.18 877.95,-83.27"/>
<polygon fill="#63b8ff" stroke="#63b8ff" points="881.17,-84.64 882.11,-74.09 874.8,-81.75 881.17,-84.64"/>
</g>
<!-- Node20 -->
<g id="node20" class="node">
<title>Node20</title>
<g id="a_node20"><a xlink:title=" ">
<polygon fill="#e0e0e0" stroke="#999999" points="970.5,-74 933.5,-74 933.5,-55 970.5,-55 970.5,-74"/>
<text text-anchor="middle" x="952" y="-62" font-family="Helvetica,sans-Serif" font-size="10.00">uv.h</text>
</a>
</g>
</g>
<!-- Node18&#45;&gt;Node20 -->
<g id="edge21" class="edge">
<title>Node18&#45;&gt;Node20</title>
<path fill="none" stroke="#63b8ff" d="M876.46,-109.98C890.42,-101.77 911.79,-89.18 928.25,-79.49"/>
<polygon fill="#63b8ff" stroke="#63b8ff" points="930.44,-82.26 937.28,-74.17 926.88,-76.23 930.44,-82.26"/>
</g>
<!-- Node22 -->
<g id="node22" class="node">
<title>Node22</title>
<g id="a_node22"><a xlink:title=" ">
<polygon fill="#e0e0e0" stroke="#999999" points="1158,-74 1110,-74 1110,-55 1158,-55 1158,-74"/>
<text text-anchor="middle" x="1134" y="-62" font-family="Helvetica,sans-Serif" font-size="10.00">mutex</text>
</a>
</g>
</g>
<!-- Node21&#45;&gt;Node22 -->
<g id="edge24" class="edge">
<title>Node21&#45;&gt;Node22</title>
<path fill="none" stroke="#63b8ff" d="M1134,-109.75C1134,-102.8 1134,-92.85 1134,-84.13"/>
<polygon fill="#63b8ff" stroke="#63b8ff" points="1137.5,-84.09 1134,-74.09 1130.5,-84.09 1137.5,-84.09"/>
</g>
<!-- Node23&#45;&gt;Node3 -->
<g id="edge26" class="edge">
<title>Node23&#45;&gt;Node3</title>
<path fill="none" stroke="#63b8ff" d="M932.42,-170.18C879.12,-162 740.01,-140.63 662.72,-128.75"/>
<polygon fill="#63b8ff" stroke="#63b8ff" points="663.12,-125.27 652.7,-127.21 662.05,-132.19 663.12,-125.27"/>
</g>
<!-- Node23&#45;&gt;Node20 -->
<g id="edge29" class="edge">
<title>Node23&#45;&gt;Node20</title>
<path fill="none" stroke="#63b8ff" d="M953.84,-164.66C953.51,-147.17 952.78,-107.8 952.35,-84.27"/>
<polygon fill="#63b8ff" stroke="#63b8ff" points="955.84,-84.09 952.16,-74.16 948.85,-84.22 955.84,-84.09"/>
</g>
<!-- Node23&#45;&gt;Node21 -->
<g id="edge27" class="edge">
<title>Node23&#45;&gt;Node21</title>
<path fill="none" stroke="#63b8ff" d="M975.71,-167.11C1005.28,-158.4 1058.72,-142.67 1095.25,-131.91"/>
<polygon fill="#63b8ff" stroke="#63b8ff" points="1096.47,-135.2 1105.08,-129.02 1094.49,-128.48 1096.47,-135.2"/>
</g>
<!-- Node24 -->
<g id="node24" class="node">
<title>Node24</title>
<g id="a_node24"><a xlink:title=" ">
<polygon fill="#e0e0e0" stroke="#999999" points="1068,-129 982,-129 982,-110 1068,-110 1068,-129"/>
<text text-anchor="middle" x="1025" y="-117" font-family="Helvetica,sans-Serif" font-size="10.00">unordered_set</text>
</a>
</g>
</g>
<!-- Node23&#45;&gt;Node24 -->
<g id="edge28" class="edge">
<title>Node23&#45;&gt;Node24</title>
<path fill="none" stroke="#63b8ff" d="M965.41,-164.98C976.11,-157 992.34,-144.88 1005.16,-135.31"/>
<polygon fill="#63b8ff" stroke="#63b8ff" points="1007.47,-137.96 1013.39,-129.17 1003.28,-132.35 1007.47,-137.96"/>
</g>
<!-- Node26 -->
<g id="node26" class="node">
<title>Node26</title>
<g id="a_node26"><a xlink:title=" ">
<polygon fill="#e0e0e0" stroke="#999999" points="1277.5,-129 1200.5,-129 1200.5,-110 1277.5,-110 1277.5,-129"/>
<text text-anchor="middle" x="1239" y="-117" font-family="Helvetica,sans-Serif" font-size="10.00">sys/socket.h</text>
</a>
</g>
</g>
<!-- Node25&#45;&gt;Node26 -->
<g id="edge31" class="edge">
<title>Node25&#45;&gt;Node26</title>
<path fill="none" stroke="#63b8ff" d="M1198.93,-164.75C1205.85,-157.11 1216.07,-145.82 1224.45,-136.56"/>
<polygon fill="#63b8ff" stroke="#63b8ff" points="1227.1,-138.85 1231.22,-129.09 1221.91,-134.15 1227.1,-138.85"/>
</g>
<!-- Node27&#45;&gt;Node3 -->
<g id="edge34" class="edge">
<title>Node27&#45;&gt;Node3</title>
<path fill="none" stroke="#63b8ff" d="M731.54,-164.98C707.42,-156.23 669.63,-142.51 642.4,-132.62"/>
<polygon fill="#63b8ff" stroke="#63b8ff" points="643.48,-129.29 632.88,-129.17 641.09,-135.87 643.48,-129.29"/>
</g>
<!-- Node27&#45;&gt;Node20 -->
<g id="edge35" class="edge">
<title>Node27&#45;&gt;Node20</title>
<path fill="none" stroke="#63b8ff" d="M783.66,-169.29C813.84,-163.82 861.78,-152.09 897,-129 915.41,-116.93 931.23,-97.02 941.11,-82.71"/>
<polygon fill="#63b8ff" stroke="#63b8ff" points="944.11,-84.52 946.72,-74.25 938.28,-80.65 944.11,-84.52"/>
</g>
</g>
</svg>
