<?xml version="1.0" encoding="UTF-8" standalone="no"?>
<!DOCTYPE svg PUBLIC "-//W3C//DTD SVG 1.1//EN"
 "http://www.w3.org/Graphics/SVG/1.1/DTD/svg11.dtd">
<!-- Generated by graphviz version 2.43.0 (0)
 -->
<!-- Title: src/kv/untyped_map.h Pages: 1 -->
<svg width="2153pt" height="643pt"
 viewBox="0.00 0.00 2153.41 643.00" xmlns="http://www.w3.org/2000/svg" xmlns:xlink="http://www.w3.org/1999/xlink">
<g id="graph0" class="graph" transform="scale(1 1) rotate(0) translate(4 639)">
<title>src/kv/untyped_map.h</title>
<!-- Node1 -->
<g id="node1" class="node">
<title>Node1</title>
<g id="a_node1"><a xlink:title=" ">
<polygon fill="#999999" stroke="#666666" points="1737.91,-635 1612.91,-635 1612.91,-616 1737.91,-616 1737.91,-635"/>
<text text-anchor="middle" x="1675.41" y="-623" font-family="Helvetica,sans-Serif" font-size="10.00">src/kv/untyped_map.h</text>
</a>
</g>
</g>
<!-- Node2 -->
<g id="node2" class="node">
<title>Node2</title>
<g id="a_node2"><a xlink:href="js__generic__base_8cpp.html" target="_top" xlink:title=" ">
<polygon fill="white" stroke="#666666" points="1019.41,-327 901.41,-327 901.41,-297 1019.41,-297 1019.41,-327"/>
<text text-anchor="start" x="909.41" y="-315" font-family="Helvetica,sans-Serif" font-size="10.00">src/apps/js_generic</text>
<text text-anchor="middle" x="960.41" y="-304" font-family="Helvetica,sans-Serif" font-size="10.00">/js_generic_base.cpp</text>
</a>
</g>
</g>
<!-- Node1&#45;&gt;Node2 -->
<g id="edge1" class="edge">
<title>Node1&#45;&gt;Node2</title>
<path fill="none" stroke="#63b8ff" d="M1602.84,-620.07C1426.04,-608.3 987.41,-572.86 987.41,-511 987.41,-511 987.41,-511 987.41,-443 987.41,-400.12 973.15,-350.93 965.36,-327.23"/>
<polygon fill="#63b8ff" stroke="#63b8ff" points="1602.62,-623.56 1612.83,-620.72 1603.08,-616.57 1602.62,-623.56"/>
</g>
<!-- Node3 -->
<g id="node3" class="node">
<title>Node3</title>
<g id="a_node3"><a xlink:href="wrap_8cpp.html" target="_top" xlink:title=" ">
<polygon fill="white" stroke="#666666" points="1614.91,-255.5 1525.91,-255.5 1525.91,-236.5 1614.91,-236.5 1614.91,-255.5"/>
<text text-anchor="middle" x="1570.41" y="-243.5" font-family="Helvetica,sans-Serif" font-size="10.00">src/js/wrap.cpp</text>
</a>
</g>
</g>
<!-- Node1&#45;&gt;Node3 -->
<g id="edge2" class="edge">
<title>Node1&#45;&gt;Node3</title>
<path fill="none" stroke="#63b8ff" d="M1662.18,-607.75C1646.77,-586.52 1623.41,-548.19 1623.41,-511 1623.41,-511 1623.41,-511 1623.41,-443 1623.41,-406.46 1619.96,-391.84 1642.41,-363 1663.66,-335.71 1693.48,-356.58 1711.41,-327 1718.32,-315.6 1719.1,-307.89 1711.41,-297 1704.76,-287.59 1639.54,-267.19 1600.17,-255.57"/>
<polygon fill="#63b8ff" stroke="#63b8ff" points="1659.58,-610.12 1668.39,-616 1665.17,-605.91 1659.58,-610.12"/>
</g>
<!-- Node4 -->
<g id="node4" class="node">
<title>Node4</title>
<g id="a_node4"><a xlink:href="store_8h.html" target="_top" xlink:title=" ">
<polygon fill="white" stroke="#666666" points="1773.91,-580 1690.91,-580 1690.91,-561 1773.91,-561 1773.91,-580"/>
<text text-anchor="middle" x="1732.41" y="-568" font-family="Helvetica,sans-Serif" font-size="10.00">src/kv/store.h</text>
</a>
</g>
</g>
<!-- Node1&#45;&gt;Node4 -->
<g id="edge3" class="edge">
<title>Node1&#45;&gt;Node4</title>
<path fill="none" stroke="#63b8ff" d="M1692.03,-609.04C1702.14,-599.64 1714.68,-587.98 1723.08,-580.17"/>
<polygon fill="#63b8ff" stroke="#63b8ff" points="1689.5,-606.61 1684.56,-615.98 1694.27,-611.74 1689.5,-606.61"/>
</g>
<!-- Node36 -->
<g id="node36" class="node">
<title>Node36</title>
<g id="a_node36"><a xlink:href="tx_8cpp.html" target="_top" xlink:title=" ">
<polygon fill="white" stroke="#666666" points="1870.91,-580 1791.91,-580 1791.91,-561 1870.91,-561 1870.91,-580"/>
<text text-anchor="middle" x="1831.41" y="-568" font-family="Helvetica,sans-Serif" font-size="10.00">src/kv/tx.cpp</text>
</a>
</g>
</g>
<!-- Node1&#45;&gt;Node36 -->
<g id="edge76" class="edge">
<title>Node1&#45;&gt;Node36</title>
<path fill="none" stroke="#63b8ff" d="M1710.23,-612.67C1739.32,-602.79 1780.11,-588.93 1806.15,-580.08"/>
<polygon fill="#63b8ff" stroke="#63b8ff" points="1708.81,-609.45 1700.47,-615.98 1711.07,-616.08 1708.81,-609.45"/>
</g>
<!-- Node5 -->
<g id="node5" class="node">
<title>Node5</title>
<g id="a_node5"><a xlink:href="indexer_8h.html" target="_top" xlink:title=" ">
<polygon fill="white" stroke="#666666" points="2075.91,-453.5 1952.91,-453.5 1952.91,-434.5 2075.91,-434.5 2075.91,-453.5"/>
<text text-anchor="middle" x="2014.41" y="-441.5" font-family="Helvetica,sans-Serif" font-size="10.00">src/indexing/indexer.h</text>
</a>
</g>
</g>
<!-- Node4&#45;&gt;Node5 -->
<g id="edge4" class="edge">
<title>Node4&#45;&gt;Node5</title>
<path fill="none" stroke="#63b8ff" d="M1784.3,-561.16C1854.27,-553.72 1999.3,-565.5 2034.41,-525 2052.41,-504.23 2032.16,-469.61 2020.91,-453.61"/>
<polygon fill="#63b8ff" stroke="#63b8ff" points="1783.61,-557.72 1774.14,-562.46 1784.51,-564.66 1783.61,-557.72"/>
</g>
<!-- Node10 -->
<g id="node10" class="node">
<title>Node10</title>
<g id="a_node10"><a xlink:href="visit__each__entry__in__map_8cpp.html" target="_top" xlink:title=" ">
<polygon fill="white" stroke="#666666" points="2024.91,-525 1863.91,-525 1863.91,-495 2024.91,-495 2024.91,-525"/>
<text text-anchor="start" x="1871.91" y="-513" font-family="Helvetica,sans-Serif" font-size="10.00">src/indexing/strategies</text>
<text text-anchor="middle" x="1944.41" y="-502" font-family="Helvetica,sans-Serif" font-size="10.00">/visit_each_entry_in_map.cpp</text>
</a>
</g>
</g>
<!-- Node4&#45;&gt;Node10 -->
<g id="edge10" class="edge">
<title>Node4&#45;&gt;Node10</title>
<path fill="none" stroke="#63b8ff" d="M1772.92,-558.32C1807.19,-548.86 1856.49,-535.26 1893.44,-525.06"/>
<polygon fill="#63b8ff" stroke="#63b8ff" points="1771.94,-554.96 1763.23,-560.99 1773.8,-561.71 1771.94,-554.96"/>
</g>
<!-- Node11 -->
<g id="node11" class="node">
<title>Node11</title>
<g id="a_node11"><a xlink:href="historical__queries_8h.html" target="_top" xlink:title=" ">
<polygon fill="white" stroke="#666666" points="2145.41,-393 2039.41,-393 2039.41,-363 2145.41,-363 2145.41,-393"/>
<text text-anchor="start" x="2047.41" y="-381" font-family="Helvetica,sans-Serif" font-size="10.00">src/node/historical</text>
<text text-anchor="middle" x="2092.41" y="-370" font-family="Helvetica,sans-Serif" font-size="10.00">_queries.h</text>
</a>
</g>
</g>
<!-- Node4&#45;&gt;Node11 -->
<g id="edge11" class="edge">
<title>Node4&#45;&gt;Node11</title>
<path fill="none" stroke="#63b8ff" d="M1784.38,-561.09C1857.54,-552.68 2004.6,-558.01 2051.41,-525 2094,-494.95 2095.24,-424.05 2093.61,-393.46"/>
<polygon fill="#63b8ff" stroke="#63b8ff" points="1783.6,-557.66 1774.14,-562.43 1784.51,-564.6 1783.6,-557.66"/>
</g>
<!-- Node13 -->
<g id="node13" class="node">
<title>Node13</title>
<g id="a_node13"><a xlink:href="history_8h.html" target="_top" xlink:title=" ">
<polygon fill="white" stroke="#666666" points="1783.41,-519.5 1681.41,-519.5 1681.41,-500.5 1783.41,-500.5 1783.41,-519.5"/>
<text text-anchor="middle" x="1732.41" y="-507.5" font-family="Helvetica,sans-Serif" font-size="10.00">src/node/history.h</text>
</a>
</g>
</g>
<!-- Node4&#45;&gt;Node13 -->
<g id="edge15" class="edge">
<title>Node4&#45;&gt;Node13</title>
<path fill="none" stroke="#63b8ff" d="M1732.41,-550.66C1732.41,-540.24 1732.41,-527.8 1732.41,-519.67"/>
<polygon fill="#63b8ff" stroke="#63b8ff" points="1728.91,-550.87 1732.41,-560.87 1735.91,-550.87 1728.91,-550.87"/>
</g>
<!-- Node15 -->
<g id="node15" class="node">
<title>Node15</title>
<g id="a_node15"><a xlink:href="snapshotter_8h.html" target="_top" xlink:title=" ">
<polygon fill="white" stroke="#666666" points="1982.91,-321.5 1855.91,-321.5 1855.91,-302.5 1982.91,-302.5 1982.91,-321.5"/>
<text text-anchor="middle" x="1919.41" y="-309.5" font-family="Helvetica,sans-Serif" font-size="10.00">src/node/snapshotter.h</text>
</a>
</g>
</g>
<!-- Node4&#45;&gt;Node15 -->
<g id="edge39" class="edge">
<title>Node4&#45;&gt;Node15</title>
<path fill="none" stroke="#63b8ff" d="M1754.69,-555.17C1805.97,-521.63 1929.58,-437.54 1950.41,-393 1962.27,-367.63 1939.99,-336.38 1927.32,-321.57"/>
<polygon fill="#63b8ff" stroke="#63b8ff" points="1752.47,-552.43 1745.99,-560.82 1756.28,-558.3 1752.47,-552.43"/>
</g>
<!-- Node18 -->
<g id="node18" class="node">
<title>Node18</title>
<g id="a_node18"><a xlink:href="frontend_8h.html" target="_top" xlink:title=" ">
<polygon fill="white" stroke="#666666" points="314.91,-387.5 185.91,-387.5 185.91,-368.5 314.91,-368.5 314.91,-387.5"/>
<text text-anchor="middle" x="250.41" y="-375.5" font-family="Helvetica,sans-Serif" font-size="10.00">src/node/rpc/frontend.h</text>
</a>
</g>
</g>
<!-- Node4&#45;&gt;Node18 -->
<g id="edge25" class="edge">
<title>Node4&#45;&gt;Node18</title>
<path fill="none" stroke="#63b8ff" d="M1680.74,-569.65C1484.78,-569.89 787.53,-567.65 570.41,-525 442.48,-499.87 305.36,-415.11 263.36,-387.66"/>
<polygon fill="#63b8ff" stroke="#63b8ff" points="1680.78,-573.15 1690.77,-569.63 1680.77,-566.15 1680.78,-573.15"/>
</g>
<!-- Node25 -->
<g id="node25" class="node">
<title>Node25</title>
<g id="a_node25"><a xlink:href="network__tables_8h.html" target="_top" xlink:title=" ">
<polygon fill="white" stroke="#666666" points="691.41,-525 579.41,-525 579.41,-495 691.41,-495 691.41,-525"/>
<text text-anchor="start" x="587.41" y="-513" font-family="Helvetica,sans-Serif" font-size="10.00">src/service/network</text>
<text text-anchor="middle" x="635.41" y="-502" font-family="Helvetica,sans-Serif" font-size="10.00">_tables.h</text>
</a>
</g>
</g>
<!-- Node4&#45;&gt;Node25 -->
<g id="edge40" class="edge">
<title>Node4&#45;&gt;Node25</title>
<path fill="none" stroke="#63b8ff" d="M1680.57,-566.74C1497.4,-556.97 881.44,-524.12 691.59,-514"/>
<polygon fill="#63b8ff" stroke="#63b8ff" points="1680.57,-570.24 1690.74,-567.28 1680.94,-563.25 1680.57,-570.24"/>
</g>
<!-- Node6 -->
<g id="node6" class="node">
<title>Node6</title>
<g id="a_node6"><a xlink:href="node__state_8h.html" target="_top" xlink:title=" ">
<polygon fill="white" stroke="#666666" points="721.41,-189.5 597.41,-189.5 597.41,-170.5 721.41,-170.5 721.41,-189.5"/>
<text text-anchor="middle" x="659.41" y="-177.5" font-family="Helvetica,sans-Serif" font-size="10.00">src/node/node_state.h</text>
</a>
</g>
</g>
<!-- Node5&#45;&gt;Node6 -->
<g id="edge5" class="edge">
<title>Node5&#45;&gt;Node6</title>
<path fill="none" stroke="#63b8ff" d="M2017.63,-424.17C2021.75,-393.33 2024.87,-331.99 1992.41,-297 1902.8,-200.41 1833.94,-248.89 1703.41,-231 1511.94,-204.76 916.35,-187.57 721.67,-182.54"/>
<polygon fill="#63b8ff" stroke="#63b8ff" points="2014.12,-423.96 2016.08,-434.37 2021.04,-425.02 2014.12,-423.96"/>
</g>
<!-- Node7 -->
<g id="node7" class="node">
<title>Node7</title>
<g id="a_node7"><a xlink:href="src_2enclave_2enclave_8h.html" target="_top" xlink:title=" ">
<polygon fill="white" stroke="#666666" points="852.41,-74 730.41,-74 730.41,-55 852.41,-55 852.41,-74"/>
<text text-anchor="middle" x="791.41" y="-62" font-family="Helvetica,sans-Serif" font-size="10.00">src/enclave/enclave.h</text>
</a>
</g>
</g>
<!-- Node6&#45;&gt;Node7 -->
<g id="edge6" class="edge">
<title>Node6&#45;&gt;Node7</title>
<path fill="none" stroke="#63b8ff" d="M654.23,-160.24C651.28,-145.22 649.96,-124.36 660.41,-110 676.51,-87.86 704.25,-76.61 730.07,-70.95"/>
<polygon fill="#63b8ff" stroke="#63b8ff" points="650.93,-161.47 656.65,-170.39 657.74,-159.85 650.93,-161.47"/>
</g>
<!-- Node9 -->
<g id="node9" class="node">
<title>Node9</title>
<g id="a_node9"><a xlink:href="gov__effects_8h.html" target="_top" xlink:title=" ">
<polygon fill="white" stroke="#666666" points="813.41,-129 669.41,-129 669.41,-110 813.41,-110 813.41,-129"/>
<text text-anchor="middle" x="741.41" y="-117" font-family="Helvetica,sans-Serif" font-size="10.00">src/node/rpc/gov_effects.h</text>
</a>
</g>
</g>
<!-- Node6&#45;&gt;Node9 -->
<g id="edge8" class="edge">
<title>Node6&#45;&gt;Node9</title>
<path fill="none" stroke="#63b8ff" d="M679.94,-164.35C695.48,-153.27 716.28,-138.43 729.26,-129.17"/>
<polygon fill="#63b8ff" stroke="#63b8ff" points="677.61,-161.71 671.51,-170.37 681.68,-167.41 677.61,-161.71"/>
</g>
<!-- Node8 -->
<g id="node8" class="node">
<title>Node8</title>
<g id="a_node8"><a xlink:href="enclave_2main_8cpp.html" target="_top" xlink:title=" ">
<polygon fill="white" stroke="#666666" points="851.41,-19 731.41,-19 731.41,0 851.41,0 851.41,-19"/>
<text text-anchor="middle" x="791.41" y="-7" font-family="Helvetica,sans-Serif" font-size="10.00">src/enclave/main.cpp</text>
</a>
</g>
</g>
<!-- Node7&#45;&gt;Node8 -->
<g id="edge7" class="edge">
<title>Node7&#45;&gt;Node8</title>
<path fill="none" stroke="#63b8ff" d="M791.41,-44.66C791.41,-35.93 791.41,-25.99 791.41,-19.09"/>
<polygon fill="#63b8ff" stroke="#63b8ff" points="787.91,-44.75 791.41,-54.75 794.91,-44.75 787.91,-44.75"/>
</g>
<!-- Node9&#45;&gt;Node7 -->
<g id="edge9" class="edge">
<title>Node9&#45;&gt;Node7</title>
<path fill="none" stroke="#63b8ff" d="M756.75,-102.24C765.51,-92.95 776.15,-81.68 783.3,-74.09"/>
<polygon fill="#63b8ff" stroke="#63b8ff" points="753.98,-100.07 749.66,-109.75 759.07,-104.88 753.98,-100.07"/>
</g>
<!-- Node11&#45;&gt;Node7 -->
<g id="edge12" class="edge">
<title>Node11&#45;&gt;Node7</title>
<path fill="none" stroke="#63b8ff" d="M2092.11,-352.86C2091.82,-326.76 2091.41,-283.93 2091.41,-247 2091.41,-247 2091.41,-247 2091.41,-179 2091.41,-79.07 1975.79,-127.54 1877.41,-110 1678.28,-74.5 1051.1,-67.25 852.41,-65.83"/>
<polygon fill="#63b8ff" stroke="#63b8ff" points="2088.61,-353 2092.23,-362.96 2095.61,-352.92 2088.61,-353"/>
</g>
<!-- Node12 -->
<g id="node12" class="node">
<title>Node12</title>
<g id="a_node12"><a xlink:href="historical__transaction__fetcher_8h.html" target="_top" xlink:title=" ">
<polygon fill="white" stroke="#666666" points="2021.91,-195 1896.91,-195 1896.91,-165 2021.91,-165 2021.91,-195"/>
<text text-anchor="start" x="1904.91" y="-183" font-family="Helvetica,sans-Serif" font-size="10.00">src/indexing/historical</text>
<text text-anchor="middle" x="1959.41" y="-172" font-family="Helvetica,sans-Serif" font-size="10.00">_transaction_fetcher.h</text>
</a>
</g>
</g>
<!-- Node11&#45;&gt;Node12 -->
<g id="edge13" class="edge">
<title>Node11&#45;&gt;Node12</title>
<path fill="none" stroke="#63b8ff" d="M2085.46,-353.06C2075.71,-322.41 2055.7,-268.74 2025.41,-231 2013.8,-216.54 1997.13,-203.96 1983.45,-195.03"/>
<polygon fill="#63b8ff" stroke="#63b8ff" points="2082.2,-354.35 2088.48,-362.88 2088.89,-352.29 2082.2,-354.35"/>
</g>
<!-- Node12&#45;&gt;Node7 -->
<g id="edge14" class="edge">
<title>Node12&#45;&gt;Node7</title>
<path fill="none" stroke="#63b8ff" d="M1933.37,-158.71C1910.55,-142.22 1875.73,-120.08 1841.41,-110 1746.77,-82.2 1062.78,-69.61 852.65,-66.37"/>
<polygon fill="#63b8ff" stroke="#63b8ff" points="1931.39,-161.6 1941.51,-164.72 1935.54,-155.96 1931.39,-161.6"/>
</g>
<!-- Node13&#45;&gt;Node6 -->
<g id="edge17" class="edge">
<title>Node13&#45;&gt;Node6</title>
<path fill="none" stroke="#63b8ff" d="M1671.3,-501.53C1500.64,-479.77 1022.87,-412.55 892.41,-327 848.03,-297.9 864.7,-261.69 821.41,-231 790.55,-209.13 749.85,-196.61 716.97,-189.58"/>
<polygon fill="#63b8ff" stroke="#63b8ff" points="1671.01,-505.02 1681.37,-502.8 1671.89,-498.07 1671.01,-505.02"/>
</g>
<!-- Node13&#45;&gt;Node11 -->
<g id="edge16" class="edge">
<title>Node13&#45;&gt;Node11</title>
<path fill="none" stroke="#63b8ff" d="M1765.35,-496.98C1792.72,-486.94 1832.66,-472.2 1867.41,-459 1901.74,-445.95 1909.89,-441.55 1944.41,-429 1979.45,-416.26 2019.55,-402.78 2049.16,-393.03"/>
<polygon fill="#63b8ff" stroke="#63b8ff" points="1764.05,-493.72 1755.86,-500.45 1766.46,-500.3 1764.05,-493.72"/>
</g>
<!-- Node14 -->
<g id="node14" class="node">
<title>Node14</title>
<g id="a_node14"><a xlink:href="snapshot__serdes_8h.html" target="_top" xlink:title=" ">
<polygon fill="white" stroke="#666666" points="1803.41,-387.5 1651.41,-387.5 1651.41,-368.5 1803.41,-368.5 1803.41,-387.5"/>
<text text-anchor="middle" x="1727.41" y="-375.5" font-family="Helvetica,sans-Serif" font-size="10.00">src/node/snapshot_serdes.h</text>
</a>
</g>
</g>
<!-- Node13&#45;&gt;Node14 -->
<g id="edge18" class="edge">
<title>Node13&#45;&gt;Node14</title>
<path fill="none" stroke="#63b8ff" d="M1731.69,-490.23C1730.59,-461.72 1728.55,-408.59 1727.74,-387.73"/>
<polygon fill="#63b8ff" stroke="#63b8ff" points="1728.2,-490.61 1732.08,-500.47 1735.19,-490.34 1728.2,-490.61"/>
</g>
<!-- Node16 -->
<g id="node16" class="node">
<title>Node16</title>
<g id="a_node16"><a xlink:href="tx__receipt__impl_8h.html" target="_top" xlink:title=" ">
<polygon fill="white" stroke="#666666" points="1858.41,-459 1748.41,-459 1748.41,-429 1858.41,-429 1858.41,-459"/>
<text text-anchor="start" x="1756.41" y="-447" font-family="Helvetica,sans-Serif" font-size="10.00">src/node/tx_receipt</text>
<text text-anchor="middle" x="1803.41" y="-436" font-family="Helvetica,sans-Serif" font-size="10.00">_impl.h</text>
</a>
</g>
</g>
<!-- Node13&#45;&gt;Node16 -->
<g id="edge21" class="edge">
<title>Node13&#45;&gt;Node16</title>
<path fill="none" stroke="#63b8ff" d="M1749.7,-493.41C1761.31,-482.94 1776.49,-469.26 1787.75,-459.12"/>
<polygon fill="#63b8ff" stroke="#63b8ff" points="1747.07,-491.07 1741.98,-500.37 1751.75,-496.27 1747.07,-491.07"/>
</g>
<!-- Node14&#45;&gt;Node15 -->
<g id="edge19" class="edge">
<title>Node14&#45;&gt;Node15</title>
<path fill="none" stroke="#63b8ff" d="M1762.92,-365.16C1800.82,-352.53 1859.94,-332.82 1893.62,-321.6"/>
<polygon fill="#63b8ff" stroke="#63b8ff" points="1761.68,-361.89 1753.3,-368.37 1763.89,-368.53 1761.68,-361.89"/>
</g>
<!-- Node15&#45;&gt;Node6 -->
<g id="edge20" class="edge">
<title>Node15&#45;&gt;Node6</title>
<path fill="none" stroke="#63b8ff" d="M1885.45,-299.24C1831.09,-281 1720.85,-246.39 1624.41,-231 1449.43,-203.07 906.12,-187.19 721.52,-182.49"/>
<polygon fill="#63b8ff" stroke="#63b8ff" points="1884.34,-302.56 1894.93,-302.45 1886.58,-295.93 1884.34,-302.56"/>
</g>
<!-- Node16&#45;&gt;Node11 -->
<g id="edge22" class="edge">
<title>Node16&#45;&gt;Node11</title>
<path fill="none" stroke="#63b8ff" d="M1868.47,-428.59C1919.92,-417.2 1990.89,-401.48 2039.04,-390.82"/>
<polygon fill="#63b8ff" stroke="#63b8ff" points="1867.45,-425.23 1858.45,-430.81 1868.97,-432.07 1867.45,-425.23"/>
</g>
<!-- Node16&#45;&gt;Node14 -->
<g id="edge24" class="edge">
<title>Node16&#45;&gt;Node14</title>
<path fill="none" stroke="#63b8ff" d="M1778.78,-422.26C1764.95,-410.61 1748.41,-396.69 1737.91,-387.84"/>
<polygon fill="#63b8ff" stroke="#63b8ff" points="1776.64,-425.03 1786.54,-428.8 1781.15,-419.68 1776.64,-425.03"/>
</g>
<!-- Node17 -->
<g id="node17" class="node">
<title>Node17</title>
<g id="a_node17"><a xlink:href="historical__queries__adapter_8cpp.html" target="_top" xlink:title=" ">
<polygon fill="white" stroke="#666666" points="1941.41,-393 1821.41,-393 1821.41,-363 1941.41,-363 1941.41,-393"/>
<text text-anchor="start" x="1829.41" y="-381" font-family="Helvetica,sans-Serif" font-size="10.00">src/node/historical</text>
<text text-anchor="middle" x="1881.41" y="-370" font-family="Helvetica,sans-Serif" font-size="10.00">_queries_adapter.cpp</text>
</a>
</g>
</g>
<!-- Node16&#45;&gt;Node17 -->
<g id="edge23" class="edge">
<title>Node16&#45;&gt;Node17</title>
<path fill="none" stroke="#63b8ff" d="M1828.76,-422.2C1840.34,-412.7 1853.75,-401.69 1864.14,-393.16"/>
<polygon fill="#63b8ff" stroke="#63b8ff" points="1826.23,-419.75 1820.72,-428.8 1830.67,-425.16 1826.23,-419.75"/>
</g>
<!-- Node18&#45;&gt;Node6 -->
<g id="edge30" class="edge">
<title>Node18&#45;&gt;Node6</title>
<path fill="none" stroke="#63b8ff" d="M238.7,-359.78C228.6,-342.56 217.5,-315.98 230.41,-297 271.68,-236.31 488.54,-201.76 597.21,-188.02"/>
<polygon fill="#63b8ff" stroke="#63b8ff" points="235.76,-361.68 244.05,-368.27 241.69,-357.95 235.76,-361.68"/>
</g>
<!-- Node19 -->
<g id="node19" class="node">
<title>Node19</title>
<g id="a_node19"><a xlink:href="acme__challenge__frontend_8h.html" target="_top" xlink:title=" ">
<polygon fill="white" stroke="#666666" points="517.41,-327 377.41,-327 377.41,-297 517.41,-297 517.41,-327"/>
<text text-anchor="start" x="385.41" y="-315" font-family="Helvetica,sans-Serif" font-size="10.00">src/node/acme_challenge</text>
<text text-anchor="middle" x="447.41" y="-304" font-family="Helvetica,sans-Serif" font-size="10.00">_frontend.h</text>
</a>
</g>
</g>
<!-- Node18&#45;&gt;Node19 -->
<g id="edge26" class="edge">
<title>Node18&#45;&gt;Node19</title>
<path fill="none" stroke="#63b8ff" d="M286.71,-365.21C319.81,-354.45 368.78,-338.54 403.96,-327.12"/>
<polygon fill="#63b8ff" stroke="#63b8ff" points="285.4,-361.95 276.98,-368.37 287.57,-368.61 285.4,-361.95"/>
</g>
<!-- Node21 -->
<g id="node21" class="node">
<title>Node21</title>
<g id="a_node21"><a xlink:href="member__frontend_8h.html" target="_top" xlink:title=" ">
<polygon fill="white" stroke="#666666" points="359.41,-327 239.41,-327 239.41,-297 359.41,-297 359.41,-327"/>
<text text-anchor="start" x="247.41" y="-315" font-family="Helvetica,sans-Serif" font-size="10.00">src/node/rpc/member</text>
<text text-anchor="middle" x="299.41" y="-304" font-family="Helvetica,sans-Serif" font-size="10.00">_frontend.h</text>
</a>
</g>
</g>
<!-- Node18&#45;&gt;Node21 -->
<g id="edge31" class="edge">
<title>Node18&#45;&gt;Node21</title>
<path fill="none" stroke="#63b8ff" d="M263.24,-360.24C271.06,-350.02 280.95,-337.1 288.41,-327.36"/>
<polygon fill="#63b8ff" stroke="#63b8ff" points="260.32,-358.3 257.02,-368.37 265.87,-362.56 260.32,-358.3"/>
</g>
<!-- Node22 -->
<g id="node22" class="node">
<title>Node22</title>
<g id="a_node22"><a xlink:href="node__frontend_8h.html" target="_top" xlink:title=" ">
<polygon fill="white" stroke="#666666" points="845.41,-321.5 687.41,-321.5 687.41,-302.5 845.41,-302.5 845.41,-321.5"/>
<text text-anchor="middle" x="766.41" y="-309.5" font-family="Helvetica,sans-Serif" font-size="10.00">src/node/rpc/node_frontend.h</text>
</a>
</g>
</g>
<!-- Node18&#45;&gt;Node22 -->
<g id="edge33" class="edge">
<title>Node18&#45;&gt;Node22</title>
<path fill="none" stroke="#63b8ff" d="M324.91,-367.67C337.43,-366.11 350.29,-364.51 362.41,-363 480.06,-348.37 616.99,-331.44 697.42,-321.51"/>
<polygon fill="#63b8ff" stroke="#63b8ff" points="324.45,-364.2 314.96,-368.92 325.32,-371.15 324.45,-364.2"/>
</g>
<!-- Node24 -->
<g id="node24" class="node">
<title>Node24</title>
<g id="a_node24"><a xlink:href="user__frontend_8h.html" target="_top" xlink:title=" ">
<polygon fill="white" stroke="#666666" points="182.91,-321.5 27.91,-321.5 27.91,-302.5 182.91,-302.5 182.91,-321.5"/>
<text text-anchor="middle" x="105.41" y="-309.5" font-family="Helvetica,sans-Serif" font-size="10.00">src/node/rpc/user_frontend.h</text>
</a>
</g>
</g>
<!-- Node18&#45;&gt;Node24 -->
<g id="edge37" class="edge">
<title>Node18&#45;&gt;Node24</title>
<path fill="none" stroke="#63b8ff" d="M221.39,-364.19C192.82,-351.58 149.95,-332.66 125.12,-321.7"/>
<polygon fill="#63b8ff" stroke="#63b8ff" points="220.29,-367.53 230.85,-368.37 223.12,-361.13 220.29,-367.53"/>
</g>
<!-- Node19&#45;&gt;Node7 -->
<g id="edge27" class="edge">
<title>Node19&#45;&gt;Node7</title>
<path fill="none" stroke="#63b8ff" d="M419.84,-289.91C402.23,-273.77 384.85,-250.96 397.41,-231 469.41,-116.55 638.58,-81.18 730.08,-70.3"/>
<polygon fill="#63b8ff" stroke="#63b8ff" points="417.99,-292.93 427.84,-296.82 422.56,-287.64 417.99,-292.93"/>
</g>
<!-- Node20 -->
<g id="node20" class="node">
<title>Node20</title>
<g id="a_node20"><a xlink:href="ccf__acme__client_8h.html" target="_top" xlink:title=" ">
<polygon fill="white" stroke="#666666" points="555.91,-255.5 406.91,-255.5 406.91,-236.5 555.91,-236.5 555.91,-255.5"/>
<text text-anchor="middle" x="481.41" y="-243.5" font-family="Helvetica,sans-Serif" font-size="10.00">src/node/ccf_acme_client.h</text>
</a>
</g>
</g>
<!-- Node19&#45;&gt;Node20 -->
<g id="edge28" class="edge">
<title>Node19&#45;&gt;Node20</title>
<path fill="none" stroke="#63b8ff" d="M459.65,-287.95C465.57,-276.81 472.32,-264.11 476.71,-255.84"/>
<polygon fill="#63b8ff" stroke="#63b8ff" points="456.55,-286.32 454.95,-296.8 462.74,-289.61 456.55,-286.32"/>
</g>
<!-- Node20&#45;&gt;Node6 -->
<g id="edge29" class="edge">
<title>Node20&#45;&gt;Node6</title>
<path fill="none" stroke="#63b8ff" d="M515.23,-232.84C550.4,-220.2 604.54,-200.73 635.5,-189.6"/>
<polygon fill="#63b8ff" stroke="#63b8ff" points="513.64,-229.69 505.41,-236.37 516.01,-236.28 513.64,-229.69"/>
</g>
<!-- Node21&#45;&gt;Node7 -->
<g id="edge32" class="edge">
<title>Node21&#45;&gt;Node7</title>
<path fill="none" stroke="#63b8ff" d="M315.2,-288.54C337.38,-258.06 380.15,-203.03 425.41,-165 461.88,-134.35 472.66,-126.33 517.41,-110 587.69,-84.35 673.5,-73.45 730.15,-68.83"/>
<polygon fill="#63b8ff" stroke="#63b8ff" points="312.25,-286.65 309.25,-296.81 317.93,-290.74 312.25,-286.65"/>
</g>
<!-- Node22&#45;&gt;Node7 -->
<g id="edge34" class="edge">
<title>Node22&#45;&gt;Node7</title>
<path fill="none" stroke="#63b8ff" d="M789.55,-296.8C801.45,-288.1 814.8,-275.79 821.41,-261 848.79,-199.73 842.51,-174.03 822.41,-110 818.01,-95.99 807.46,-82.53 799.89,-74.15"/>
<polygon fill="#63b8ff" stroke="#63b8ff" points="787.53,-293.94 781.27,-302.49 791.49,-299.71 787.53,-293.94"/>
</g>
<!-- Node23 -->
<g id="node23" class="node">
<title>Node23</title>
<g id="a_node23"><a xlink:href="jwt__key__auto__refresh_8h.html" target="_top" xlink:title=" ">
<polygon fill="white" stroke="#666666" points="812.91,-261 687.91,-261 687.91,-231 812.91,-231 812.91,-261"/>
<text text-anchor="start" x="695.91" y="-249" font-family="Helvetica,sans-Serif" font-size="10.00">src/node/jwt_key_auto</text>
<text text-anchor="middle" x="750.41" y="-238" font-family="Helvetica,sans-Serif" font-size="10.00">_refresh.h</text>
</a>
</g>
</g>
<!-- Node22&#45;&gt;Node23 -->
<g id="edge35" class="edge">
<title>Node22&#45;&gt;Node23</title>
<path fill="none" stroke="#63b8ff" d="M761.74,-292.35C759.27,-282.47 756.29,-270.51 754,-261.36"/>
<polygon fill="#63b8ff" stroke="#63b8ff" points="758.43,-293.52 764.25,-302.37 765.22,-291.82 758.43,-293.52"/>
</g>
<!-- Node23&#45;&gt;Node6 -->
<g id="edge36" class="edge">
<title>Node23&#45;&gt;Node6</title>
<path fill="none" stroke="#63b8ff" d="M721.79,-224.87C704.94,-213.03 684.5,-198.65 671.72,-189.66"/>
<polygon fill="#63b8ff" stroke="#63b8ff" points="720.02,-227.91 730.21,-230.8 724.04,-222.18 720.02,-227.91"/>
</g>
<!-- Node24&#45;&gt;Node7 -->
<g id="edge38" class="edge">
<title>Node24&#45;&gt;Node7</title>
<path fill="none" stroke="#63b8ff" d="M125.49,-296.41C178.7,-258.57 328.92,-156.97 470.41,-110 557.71,-81.01 664.43,-70.9 730.16,-67.38"/>
<polygon fill="#63b8ff" stroke="#63b8ff" points="123.34,-293.64 117.25,-302.31 127.42,-299.33 123.34,-293.64"/>
</g>
<!-- Node25&#45;&gt;Node20 -->
<g id="edge41" class="edge">
<title>Node25&#45;&gt;Node20</title>
<path fill="none" stroke="#63b8ff" d="M625.79,-485.67C608.69,-445.41 570.6,-361.07 526.41,-297 515.53,-281.23 500.12,-265.15 490.45,-255.62"/>
<polygon fill="#63b8ff" stroke="#63b8ff" points="622.57,-487.05 629.68,-494.91 629.03,-484.34 622.57,-487.05"/>
</g>
<!-- Node26 -->
<g id="node26" class="node">
<title>Node26</title>
<g id="a_node26"><a xlink:href="network__state_8h.html" target="_top" xlink:title=" ">
<polygon fill="white" stroke="#666666" points="848.41,-453.5 708.41,-453.5 708.41,-434.5 848.41,-434.5 848.41,-453.5"/>
<text text-anchor="middle" x="778.41" y="-441.5" font-family="Helvetica,sans-Serif" font-size="10.00">src/node/network_state.h</text>
</a>
</g>
</g>
<!-- Node25&#45;&gt;Node26 -->
<g id="edge42" class="edge">
<title>Node25&#45;&gt;Node26</title>
<path fill="none" stroke="#63b8ff" d="M676.12,-490.78C703.46,-478.54 738.23,-462.98 759.38,-453.52"/>
<polygon fill="#63b8ff" stroke="#63b8ff" points="674.49,-487.68 666.79,-494.95 677.35,-494.06 674.49,-487.68"/>
</g>
<!-- Node35 -->
<g id="node35" class="node">
<title>Node35</title>
<g id="a_node35"><a xlink:href="genesis__gen_8h.html" target="_top" xlink:title=" ">
<polygon fill="white" stroke="#666666" points="508.41,-459 398.41,-459 398.41,-429 508.41,-429 508.41,-459"/>
<text text-anchor="start" x="406.41" y="-447" font-family="Helvetica,sans-Serif" font-size="10.00">src/service/genesis</text>
<text text-anchor="middle" x="453.41" y="-436" font-family="Helvetica,sans-Serif" font-size="10.00">_gen.h</text>
</a>
</g>
</g>
<!-- Node25&#45;&gt;Node35 -->
<g id="edge70" class="edge">
<title>Node25&#45;&gt;Node35</title>
<path fill="none" stroke="#63b8ff" d="M585.9,-491.59C556.8,-481.36 520.5,-468.59 493.25,-459.01"/>
<polygon fill="#63b8ff" stroke="#63b8ff" points="584.87,-494.94 595.47,-494.95 587.19,-488.34 584.87,-494.94"/>
</g>
<!-- Node26&#45;&gt;Node6 -->
<g id="edge61" class="edge">
<title>Node26&#45;&gt;Node6</title>
<path fill="none" stroke="#63b8ff" d="M794.12,-426.79C808.78,-409.66 826.32,-382.48 811.41,-363 774.19,-314.37 718.69,-373.12 678.41,-327 643.1,-286.57 652.93,-214.23 657.61,-189.53"/>
<polygon fill="#63b8ff" stroke="#63b8ff" points="791.43,-424.55 787.32,-434.31 796.62,-429.24 791.43,-424.55"/>
</g>
<!-- Node26&#45;&gt;Node7 -->
<g id="edge43" class="edge">
<title>Node26&#45;&gt;Node7</title>
<path fill="none" stroke="#63b8ff" d="M858.53,-436.24C1074.93,-417.56 1660.29,-364.19 1739.41,-327 1787.24,-304.51 1827.41,-299.86 1827.41,-247 1827.41,-247 1827.41,-247 1827.41,-179 1827.41,-80.33 1075.28,-67.4 852.73,-65.74"/>
<polygon fill="#63b8ff" stroke="#63b8ff" points="858.17,-432.75 848.5,-437.1 858.77,-439.73 858.17,-432.75"/>
</g>
<!-- Node26&#45;&gt;Node15 -->
<g id="edge69" class="edge">
<title>Node26&#45;&gt;Node15</title>
<path fill="none" stroke="#63b8ff" d="M858.66,-440.83C1030.47,-435.7 1429.04,-421.11 1561.41,-393 1598.96,-385.03 1605.37,-373.12 1642.41,-363 1645.18,-362.24 1793.27,-335.63 1871.74,-321.55"/>
<polygon fill="#63b8ff" stroke="#63b8ff" points="858.31,-437.34 848.41,-441.13 858.51,-444.34 858.31,-437.34"/>
</g>
<!-- Node26&#45;&gt;Node19 -->
<g id="edge60" class="edge">
<title>Node26&#45;&gt;Node19</title>
<path fill="none" stroke="#63b8ff" d="M744.13,-431.07C716.11,-421.2 675.53,-406.63 640.41,-393 583.6,-370.95 518.23,-343.39 480.01,-327.04"/>
<polygon fill="#63b8ff" stroke="#63b8ff" points="743.26,-434.47 753.85,-434.48 745.58,-427.87 743.26,-434.47"/>
</g>
<!-- Node26&#45;&gt;Node22 -->
<g id="edge62" class="edge">
<title>Node26&#45;&gt;Node22</title>
<path fill="none" stroke="#63b8ff" d="M807.37,-429.47C821.61,-421.13 837.4,-408.96 845.41,-393 851.38,-381.08 851.84,-374.68 845.41,-363 834.13,-342.52 810.55,-329.26 792.07,-321.58"/>
<polygon fill="#63b8ff" stroke="#63b8ff" points="805.44,-426.53 798.34,-434.39 808.79,-432.68 805.44,-426.53"/>
</g>
<!-- Node26&#45;&gt;Node24 -->
<g id="edge63" class="edge">
<title>Node26&#45;&gt;Node24</title>
<path fill="none" stroke="#63b8ff" d="M698.06,-437.91C539.45,-427.66 199.36,-404.49 176.41,-393 144.02,-376.8 119.78,-338.86 110.06,-321.7"/>
<polygon fill="#63b8ff" stroke="#63b8ff" points="698.04,-441.42 708.24,-438.57 698.49,-434.43 698.04,-441.42"/>
</g>
<!-- Node27 -->
<g id="node27" class="node">
<title>Node27</title>
<g id="a_node27"><a xlink:href="wrap_8h.html" target="_top" xlink:title=" ">
<polygon fill="white" stroke="#666666" points="1265.41,-387.5 1187.41,-387.5 1187.41,-368.5 1265.41,-368.5 1265.41,-387.5"/>
<text text-anchor="middle" x="1226.41" y="-375.5" font-family="Helvetica,sans-Serif" font-size="10.00">src/js/wrap.h</text>
</a>
</g>
</g>
<!-- Node26&#45;&gt;Node27 -->
<g id="edge44" class="edge">
<title>Node26&#45;&gt;Node27</title>
<path fill="none" stroke="#63b8ff" d="M848.5,-432.99C943.92,-419.36 1111.49,-395.42 1187.25,-384.59"/>
<polygon fill="#63b8ff" stroke="#63b8ff" points="847.77,-429.56 838.36,-434.44 848.76,-436.49 847.77,-429.56"/>
</g>
<!-- Node33 -->
<g id="node33" class="node">
<title>Node33</title>
<g id="a_node33"><a xlink:href="secret__broadcast_8h.html" target="_top" xlink:title=" ">
<polygon fill="white" stroke="#666666" points="802.91,-387.5 649.91,-387.5 649.91,-368.5 802.91,-368.5 802.91,-387.5"/>
<text text-anchor="middle" x="726.41" y="-375.5" font-family="Helvetica,sans-Serif" font-size="10.00">src/node/secret_broadcast.h</text>
</a>
</g>
</g>
<!-- Node26&#45;&gt;Node33 -->
<g id="edge64" class="edge">
<title>Node26&#45;&gt;Node33</title>
<path fill="none" stroke="#63b8ff" d="M764.81,-426.27C754.84,-413.99 741.68,-397.8 733.64,-387.91"/>
<polygon fill="#63b8ff" stroke="#63b8ff" points="762.37,-428.81 771.39,-434.37 767.8,-424.4 762.37,-428.81"/>
</g>
<!-- Node34 -->
<g id="node34" class="node">
<title>Node34</title>
<g id="a_node34"><a xlink:href="share__manager_8h.html" target="_top" xlink:title=" ">
<polygon fill="white" stroke="#666666" points="516.91,-387.5 371.91,-387.5 371.91,-368.5 516.91,-368.5 516.91,-387.5"/>
<text text-anchor="middle" x="444.41" y="-375.5" font-family="Helvetica,sans-Serif" font-size="10.00">src/node/share_manager.h</text>
</a>
</g>
</g>
<!-- Node26&#45;&gt;Node34 -->
<g id="edge66" class="edge">
<title>Node26&#45;&gt;Node34</title>
<path fill="none" stroke="#63b8ff" d="M723.56,-432.49C657.97,-419.92 549.44,-399.13 488.84,-387.51"/>
<polygon fill="#63b8ff" stroke="#63b8ff" points="723.23,-435.99 733.71,-434.44 724.55,-429.12 723.23,-435.99"/>
</g>
<!-- Node27&#45;&gt;Node2 -->
<g id="edge45" class="edge">
<title>Node27&#45;&gt;Node2</title>
<path fill="none" stroke="#63b8ff" d="M1181.07,-366.09C1136.27,-355.31 1067.54,-338.78 1018.7,-327.02"/>
<polygon fill="#63b8ff" stroke="#63b8ff" points="1180.27,-369.5 1190.81,-368.44 1181.91,-362.69 1180.27,-369.5"/>
</g>
<!-- Node27&#45;&gt;Node3 -->
<g id="edge56" class="edge">
<title>Node27&#45;&gt;Node3</title>
<path fill="none" stroke="#63b8ff" d="M1275.68,-375.39C1390.21,-371.14 1666.76,-357.75 1694.41,-327 1724.72,-293.28 1653.84,-267.94 1607.2,-255.52"/>
<polygon fill="#63b8ff" stroke="#63b8ff" points="1275.3,-371.9 1265.44,-375.76 1275.56,-378.89 1275.3,-371.9"/>
</g>
<!-- Node27&#45;&gt;Node6 -->
<g id="edge57" class="edge">
<title>Node27&#45;&gt;Node6</title>
<path fill="none" stroke="#63b8ff" d="M1177.58,-366.67C1144.91,-358.59 1101.63,-345.59 1066.41,-327 1047.38,-316.96 1046.62,-308.46 1028.41,-297 971.88,-261.44 956.53,-252.81 893.41,-231 835.49,-210.99 766.63,-197.44 718.67,-189.55"/>
<polygon fill="#63b8ff" stroke="#63b8ff" points="1176.81,-370.08 1187.35,-369.02 1178.45,-363.28 1176.81,-370.08"/>
</g>
<!-- Node27&#45;&gt;Node7 -->
<g id="edge46" class="edge">
<title>Node27&#45;&gt;Node7</title>
<path fill="none" stroke="#63b8ff" d="M1275.83,-374.59C1392.15,-368.54 1676.09,-351.42 1711.41,-327 1744.1,-304.39 1751.41,-286.75 1751.41,-247 1751.41,-247 1751.41,-247 1751.41,-179 1751.41,-88.11 1064.01,-69.77 852.55,-66.28"/>
<polygon fill="#63b8ff" stroke="#63b8ff" points="1275.58,-371.1 1265.77,-375.11 1275.94,-378.09 1275.58,-371.1"/>
</g>
<!-- Node27&#45;&gt;Node21 -->
<g id="edge58" class="edge">
<title>Node27&#45;&gt;Node21</title>
<path fill="none" stroke="#63b8ff" d="M1176.85,-375.04C1018.61,-368.63 526.52,-347.54 368.41,-327 365.5,-326.62 362.53,-326.19 359.53,-325.72"/>
<polygon fill="#63b8ff" stroke="#63b8ff" points="1177.09,-378.55 1187.23,-375.46 1177.37,-371.56 1177.09,-378.55"/>
</g>
<!-- Node27&#45;&gt;Node22 -->
<g id="edge59" class="edge">
<title>Node27&#45;&gt;Node22</title>
<path fill="none" stroke="#63b8ff" d="M1177.07,-370.14C1092.49,-358.37 920,-334.37 827.78,-321.54"/>
<polygon fill="#63b8ff" stroke="#63b8ff" points="1176.8,-373.63 1187.19,-371.54 1177.77,-366.7 1176.8,-373.63"/>
</g>
<!-- Node28 -->
<g id="node28" class="node">
<title>Node28</title>
<g id="a_node28"><a xlink:href="consensus_8cpp.html" target="_top" xlink:title=" ">
<polygon fill="white" stroke="#666666" points="1337.41,-321.5 1221.41,-321.5 1221.41,-302.5 1337.41,-302.5 1337.41,-321.5"/>
<text text-anchor="middle" x="1279.41" y="-309.5" font-family="Helvetica,sans-Serif" font-size="10.00">src/js/consensus.cpp</text>
</a>
</g>
</g>
<!-- Node27&#45;&gt;Node28 -->
<g id="edge47" class="edge">
<title>Node27&#45;&gt;Node28</title>
<path fill="none" stroke="#63b8ff" d="M1239.97,-360.62C1250.17,-348.31 1263.76,-331.89 1272.03,-321.91"/>
<polygon fill="#63b8ff" stroke="#63b8ff" points="1237.24,-358.43 1233.55,-368.37 1242.63,-362.9 1237.24,-358.43"/>
</g>
<!-- Node29 -->
<g id="node29" class="node">
<title>Node29</title>
<g id="a_node29"><a xlink:href="conv_8cpp.html" target="_top" xlink:title=" ">
<polygon fill="white" stroke="#666666" points="1443.41,-321.5 1355.41,-321.5 1355.41,-302.5 1443.41,-302.5 1443.41,-321.5"/>
<text text-anchor="middle" x="1399.41" y="-309.5" font-family="Helvetica,sans-Serif" font-size="10.00">src/js/conv.cpp</text>
</a>
</g>
</g>
<!-- Node27&#45;&gt;Node29 -->
<g id="edge49" class="edge">
<title>Node27&#45;&gt;Node29</title>
<path fill="none" stroke="#63b8ff" d="M1259.28,-364.84C1293.46,-352.2 1346.08,-332.73 1376.17,-321.6"/>
<polygon fill="#63b8ff" stroke="#63b8ff" points="1257.9,-361.62 1249.74,-368.37 1260.33,-368.18 1257.9,-361.62"/>
</g>
<!-- Node30 -->
<g id="node30" class="node">
<title>Node30</title>
<g id="a_node30"><a xlink:href="crypto_8cpp.html" target="_top" xlink:title=" ">
<polygon fill="white" stroke="#666666" points="1557.41,-321.5 1461.41,-321.5 1461.41,-302.5 1557.41,-302.5 1557.41,-321.5"/>
<text text-anchor="middle" x="1509.41" y="-309.5" font-family="Helvetica,sans-Serif" font-size="10.00">src/js/crypto.cpp</text>
</a>
</g>
</g>
<!-- Node27&#45;&gt;Node30 -->
<g id="edge51" class="edge">
<title>Node27&#45;&gt;Node30</title>
<path fill="none" stroke="#63b8ff" d="M1275.63,-366.45C1321.46,-356.55 1391.65,-341.18 1452.41,-327 1459.75,-325.29 1467.61,-323.39 1475.08,-321.57"/>
<polygon fill="#63b8ff" stroke="#63b8ff" points="1274.7,-363.07 1265.66,-368.6 1276.18,-369.92 1274.7,-363.07"/>
</g>
<!-- Node31 -->
<g id="node31" class="node">
<title>Node31</title>
<g id="a_node31"><a xlink:href="historical_8cpp.html" target="_top" xlink:title=" ">
<polygon fill="white" stroke="#666666" points="1685.41,-321.5 1575.41,-321.5 1575.41,-302.5 1685.41,-302.5 1685.41,-321.5"/>
<text text-anchor="middle" x="1630.41" y="-309.5" font-family="Helvetica,sans-Serif" font-size="10.00">src/js/historical.cpp</text>
</a>
</g>
</g>
<!-- Node27&#45;&gt;Node31 -->
<g id="edge53" class="edge">
<title>Node27&#45;&gt;Node31</title>
<path fill="none" stroke="#63b8ff" d="M1275.72,-370.84C1342.02,-362.31 1463.48,-345.8 1566.41,-327 1575.25,-325.39 1584.72,-323.43 1593.61,-321.51"/>
<polygon fill="#63b8ff" stroke="#63b8ff" points="1275.03,-367.4 1265.56,-372.14 1275.92,-374.34 1275.03,-367.4"/>
</g>
<!-- Node32 -->
<g id="node32" class="node">
<title>Node32</title>
<g id="a_node32"><a xlink:href="openenclave_8cpp.html" target="_top" xlink:title=" ">
<polygon fill="white" stroke="#666666" points="1203.41,-321.5 1075.41,-321.5 1075.41,-302.5 1203.41,-302.5 1203.41,-321.5"/>
<text text-anchor="middle" x="1139.41" y="-309.5" font-family="Helvetica,sans-Serif" font-size="10.00">src/js/openenclave.cpp</text>
</a>
</g>
</g>
<!-- Node27&#45;&gt;Node32 -->
<g id="edge55" class="edge">
<title>Node27&#45;&gt;Node32</title>
<path fill="none" stroke="#63b8ff" d="M1206.47,-362.33C1189.41,-349.78 1165.41,-332.13 1151.23,-321.7"/>
<polygon fill="#63b8ff" stroke="#63b8ff" points="1204.54,-365.26 1214.67,-368.37 1208.69,-359.62 1204.54,-365.26"/>
</g>
<!-- Node28&#45;&gt;Node3 -->
<g id="edge48" class="edge">
<title>Node28&#45;&gt;Node3</title>
<path fill="none" stroke="#63b8ff" d="M1328.25,-300.26C1385.51,-287.67 1479.22,-267.06 1531.69,-255.51"/>
<polygon fill="#63b8ff" stroke="#63b8ff" points="1327.37,-296.87 1318.35,-302.44 1328.87,-303.71 1327.37,-296.87"/>
</g>
<!-- Node29&#45;&gt;Node3 -->
<g id="edge50" class="edge">
<title>Node29&#45;&gt;Node3</title>
<path fill="none" stroke="#63b8ff" d="M1431.9,-298.84C1465.68,-286.2 1517.7,-266.73 1547.44,-255.6"/>
<polygon fill="#63b8ff" stroke="#63b8ff" points="1430.61,-295.59 1422.47,-302.37 1433.06,-302.14 1430.61,-295.59"/>
</g>
<!-- Node30&#45;&gt;Node3 -->
<g id="edge52" class="edge">
<title>Node30&#45;&gt;Node3</title>
<path fill="none" stroke="#63b8ff" d="M1524.68,-294.98C1536.46,-282.62 1552.31,-265.99 1561.92,-255.91"/>
<polygon fill="#63b8ff" stroke="#63b8ff" points="1522,-292.72 1517.63,-302.37 1527.07,-297.54 1522,-292.72"/>
</g>
<!-- Node31&#45;&gt;Node3 -->
<g id="edge54" class="edge">
<title>Node31&#45;&gt;Node3</title>
<path fill="none" stroke="#63b8ff" d="M1615.39,-294.98C1603.8,-282.62 1588.21,-265.99 1578.76,-255.91"/>
<polygon fill="#63b8ff" stroke="#63b8ff" points="1612.92,-297.47 1622.32,-302.37 1618.03,-292.68 1612.92,-297.47"/>
</g>
<!-- Node33&#45;&gt;Node6 -->
<g id="edge65" class="edge">
<title>Node33&#45;&gt;Node6</title>
<path fill="none" stroke="#63b8ff" d="M690.1,-364.23C673.33,-356.29 655.03,-344.25 645.41,-327 619.6,-280.75 644.97,-213.27 655.39,-189.6"/>
<polygon fill="#63b8ff" stroke="#63b8ff" points="689.16,-367.64 699.72,-368.44 691.96,-361.22 689.16,-367.64"/>
</g>
<!-- Node34&#45;&gt;Node6 -->
<g id="edge67" class="edge">
<title>Node34&#45;&gt;Node6</title>
<path fill="none" stroke="#63b8ff" d="M470.88,-363.39C487.59,-354.2 509.2,-341.19 526.41,-327 581.42,-281.62 634.84,-213.6 652.94,-189.69"/>
<polygon fill="#63b8ff" stroke="#63b8ff" points="468.82,-360.52 461.67,-368.34 472.14,-366.69 468.82,-360.52"/>
</g>
<!-- Node34&#45;&gt;Node21 -->
<g id="edge68" class="edge">
<title>Node34&#45;&gt;Node21</title>
<path fill="none" stroke="#63b8ff" d="M415.45,-364.22C391.16,-353.5 356.5,-338.2 331.39,-327.12"/>
<polygon fill="#63b8ff" stroke="#63b8ff" points="414.29,-367.53 424.85,-368.37 417.12,-361.13 414.29,-367.53"/>
</g>
<!-- Node35&#45;&gt;Node6 -->
<g id="edge71" class="edge">
<title>Node35&#45;&gt;Node6</title>
<path fill="none" stroke="#63b8ff" d="M388.28,-443.17C244.44,-441.28 -80.04,-423.33 18.41,-297 88.92,-206.52 450.24,-186.59 597.16,-182.22"/>
<polygon fill="#63b8ff" stroke="#63b8ff" points="388.27,-446.67 398.31,-443.28 388.35,-439.67 388.27,-446.67"/>
</g>
<!-- Node35&#45;&gt;Node21 -->
<g id="edge72" class="edge">
<title>Node35&#45;&gt;Node21</title>
<path fill="none" stroke="#63b8ff" d="M411.38,-424.38C395.15,-416.08 377.01,-405.37 362.41,-393 339.35,-373.45 318.98,-344.33 308,-327.14"/>
<polygon fill="#63b8ff" stroke="#63b8ff" points="410.16,-427.68 420.68,-428.98 413.27,-421.41 410.16,-427.68"/>
</g>
<!-- Node35&#45;&gt;Node22 -->
<g id="edge73" class="edge">
<title>Node35&#45;&gt;Node22</title>
<path fill="none" stroke="#63b8ff" d="M494.9,-424.88C532.71,-408.45 590.15,-383.72 640.41,-363 676.53,-348.11 718.78,-331.51 744.03,-321.67"/>
<polygon fill="#63b8ff" stroke="#63b8ff" points="493.5,-421.67 485.73,-428.86 496.29,-428.09 493.5,-421.67"/>
</g>
<!-- Node35&#45;&gt;Node33 -->
<g id="edge74" class="edge">
<title>Node35&#45;&gt;Node33</title>
<path fill="none" stroke="#63b8ff" d="M518.42,-427.76C572.07,-415.18 646.24,-397.79 689.98,-387.54"/>
<polygon fill="#63b8ff" stroke="#63b8ff" points="517.59,-424.36 508.65,-430.05 519.19,-431.17 517.59,-424.36"/>
</g>
<!-- Node35&#45;&gt;Node34 -->
<g id="edge75" class="edge">
<title>Node35&#45;&gt;Node34</title>
<path fill="none" stroke="#63b8ff" d="M449.98,-418.6C448.46,-407.8 446.77,-395.78 445.65,-387.84"/>
<polygon fill="#63b8ff" stroke="#63b8ff" points="446.55,-419.38 451.41,-428.8 453.48,-418.41 446.55,-419.38"/>
</g>
</g>
</svg>
