<?xml version="1.0" encoding="UTF-8" standalone="no"?>
<!DOCTYPE svg PUBLIC "-//W3C//DTD SVG 1.1//EN"
 "http://www.w3.org/Graphics/SVG/1.1/DTD/svg11.dtd">
<!-- Generated by graphviz version 2.43.0 (0)
 -->
<!-- Title: src/kv/untyped_change_set.h Pages: 1 -->
<svg width="2362pt" height="852pt"
 viewBox="0.00 0.00 2361.50 852.00" xmlns="http://www.w3.org/2000/svg" xmlns:xlink="http://www.w3.org/1999/xlink">
<g id="graph0" class="graph" transform="scale(1 1) rotate(0) translate(4 848)">
<title>src/kv/untyped_change_set.h</title>
<!-- Node1 -->
<g id="node1" class="node">
<title>Node1</title>
<g id="a_node1"><a xlink:title=" ">
<polygon fill="#999999" stroke="#666666" points="841.5,-844 712.5,-844 712.5,-814 841.5,-814 841.5,-844"/>
<text text-anchor="start" x="720.5" y="-832" font-family="Helvetica,sans-Serif" font-size="10.00">src/kv/untyped_change</text>
<text text-anchor="middle" x="777" y="-821" font-family="Helvetica,sans-Serif" font-size="10.00">_set.h</text>
</a>
</g>
</g>
<!-- Node2 -->
<g id="node2" class="node">
<title>Node2</title>
<g id="a_node2"><a xlink:href="apply__changes_8h.html" target="_top" xlink:title=" ">
<polygon fill="white" stroke="#666666" points="740.5,-772.5 609.5,-772.5 609.5,-753.5 740.5,-753.5 740.5,-772.5"/>
<text text-anchor="middle" x="675" y="-760.5" font-family="Helvetica,sans-Serif" font-size="10.00">src/kv/apply_changes.h</text>
</a>
</g>
</g>
<!-- Node1&#45;&gt;Node2 -->
<g id="edge1" class="edge">
<title>Node1&#45;&gt;Node2</title>
<path fill="none" stroke="#63b8ff" d="M745.9,-808.49C726.74,-796.46 703.13,-781.65 688.57,-772.52"/>
<polygon fill="#63b8ff" stroke="#63b8ff" points="744.28,-811.6 754.62,-813.95 748.01,-805.68 744.28,-811.6"/>
</g>
<!-- Node41 -->
<g id="node41" class="node">
<title>Node41</title>
<g id="a_node41"><a xlink:href="untyped__map_8h.html" target="_top" xlink:title=" ">
<polygon fill="white" stroke="#666666" points="2232.5,-651.5 2107.5,-651.5 2107.5,-632.5 2232.5,-632.5 2232.5,-651.5"/>
<text text-anchor="middle" x="2170" y="-639.5" font-family="Helvetica,sans-Serif" font-size="10.00">src/kv/untyped_map.h</text>
</a>
</g>
</g>
<!-- Node1&#45;&gt;Node41 -->
<g id="edge83" class="edge">
<title>Node1&#45;&gt;Node41</title>
<path fill="none" stroke="#63b8ff" d="M775.74,-803.73C776.22,-785.52 780.2,-761.5 796,-748 896.73,-661.95 1851.77,-646.2 2107.35,-643.52"/>
<polygon fill="#63b8ff" stroke="#63b8ff" points="772.24,-803.94 775.8,-813.91 779.24,-803.89 772.24,-803.94"/>
</g>
<!-- Node43 -->
<g id="node43" class="node">
<title>Node43</title>
<g id="a_node43"><a xlink:href="untyped__map__handle_8cpp.html" target="_top" xlink:title=" ">
<polygon fill="white" stroke="#666666" points="921,-778 805,-778 805,-748 921,-748 921,-778"/>
<text text-anchor="start" x="813" y="-766" font-family="Helvetica,sans-Serif" font-size="10.00">src/kv/untyped_map</text>
<text text-anchor="middle" x="863" y="-755" font-family="Helvetica,sans-Serif" font-size="10.00">_handle.cpp</text>
</a>
</g>
</g>
<!-- Node1&#45;&gt;Node43 -->
<g id="edge88" class="edge">
<title>Node1&#45;&gt;Node43</title>
<path fill="none" stroke="#63b8ff" d="M804.21,-807.75C817.14,-798.13 832.29,-786.86 843.97,-778.16"/>
<polygon fill="#63b8ff" stroke="#63b8ff" points="802.02,-805.02 796.09,-813.8 806.2,-810.63 802.02,-805.02"/>
</g>
<!-- Node3 -->
<g id="node3" class="node">
<title>Node3</title>
<g id="a_node3"><a xlink:href="committable__tx_8h.html" target="_top" xlink:title=" ">
<polygon fill="white" stroke="#666666" points="610.5,-712 475.5,-712 475.5,-693 610.5,-693 610.5,-712"/>
<text text-anchor="middle" x="543" y="-700" font-family="Helvetica,sans-Serif" font-size="10.00">src/kv/committable_tx.h</text>
</a>
</g>
</g>
<!-- Node2&#45;&gt;Node3 -->
<g id="edge2" class="edge">
<title>Node2&#45;&gt;Node3</title>
<path fill="none" stroke="#63b8ff" d="M646.64,-749.43C621.16,-738.14 584.42,-721.86 562.22,-712.02"/>
<polygon fill="#63b8ff" stroke="#63b8ff" points="645.25,-752.64 655.81,-753.49 648.08,-746.24 645.25,-752.64"/>
</g>
<!-- Node4 -->
<g id="node4" class="node">
<title>Node4</title>
<g id="a_node4"><a xlink:href="deserialise_8h.html" target="_top" xlink:title=" ">
<polygon fill="white" stroke="#666666" points="678.5,-651.5 567.5,-651.5 567.5,-632.5 678.5,-632.5 678.5,-651.5"/>
<text text-anchor="middle" x="623" y="-639.5" font-family="Helvetica,sans-Serif" font-size="10.00">src/kv/deserialise.h</text>
</a>
</g>
</g>
<!-- Node2&#45;&gt;Node4 -->
<g id="edge81" class="edge">
<title>Node2&#45;&gt;Node4</title>
<path fill="none" stroke="#63b8ff" d="M667.16,-744.05C655.84,-718.14 635.34,-671.24 626.85,-651.8"/>
<polygon fill="#63b8ff" stroke="#63b8ff" points="664.05,-745.68 671.26,-753.44 670.46,-742.88 664.05,-745.68"/>
</g>
<!-- Node5 -->
<g id="node5" class="node">
<title>Node5</title>
<g id="a_node5"><a xlink:href="store_8h.html" target="_top" xlink:title=" ">
<polygon fill="white" stroke="#666666" points="658.5,-585.5 575.5,-585.5 575.5,-566.5 658.5,-566.5 658.5,-585.5"/>
<text text-anchor="middle" x="617" y="-573.5" font-family="Helvetica,sans-Serif" font-size="10.00">src/kv/store.h</text>
</a>
</g>
</g>
<!-- Node2&#45;&gt;Node5 -->
<g id="edge82" class="edge">
<title>Node2&#45;&gt;Node5</title>
<path fill="none" stroke="#63b8ff" d="M682.36,-744.16C692.29,-717.17 706.58,-665.05 687,-627 676.82,-607.21 654.77,-593.52 638.13,-585.53"/>
<polygon fill="#63b8ff" stroke="#63b8ff" points="679.1,-742.91 678.73,-753.49 685.62,-745.44 679.1,-742.91"/>
</g>
<!-- Node3&#45;&gt;Node4 -->
<g id="edge3" class="edge">
<title>Node3&#45;&gt;Node4</title>
<path fill="none" stroke="#63b8ff" d="M563.04,-686.85C578.19,-675.77 598.48,-660.93 611.15,-651.67"/>
<polygon fill="#63b8ff" stroke="#63b8ff" points="560.81,-684.14 554.8,-692.87 564.94,-689.79 560.81,-684.14"/>
</g>
<!-- Node3&#45;&gt;Node5 -->
<g id="edge77" class="edge">
<title>Node3&#45;&gt;Node5</title>
<path fill="none" stroke="#63b8ff" d="M543.42,-682.42C544.53,-666.59 547.96,-644.01 558,-627 568.72,-608.85 588.48,-594.15 602.16,-585.5"/>
<polygon fill="#63b8ff" stroke="#63b8ff" points="539.91,-682.43 542.95,-692.58 546.91,-682.75 539.91,-682.43"/>
</g>
<!-- Node39 -->
<g id="node39" class="node">
<title>Node39</title>
<g id="a_node39"><a xlink:href="endpoint__context__impl_8h.html" target="_top" xlink:title=" ">
<polygon fill="white" stroke="#666666" points="511,-657 365,-657 365,-627 511,-627 511,-657"/>
<text text-anchor="start" x="373" y="-645" font-family="Helvetica,sans-Serif" font-size="10.00">src/node/endpoint_context</text>
<text text-anchor="middle" x="438" y="-634" font-family="Helvetica,sans-Serif" font-size="10.00">_impl.h</text>
</a>
</g>
</g>
<!-- Node3&#45;&gt;Node39 -->
<g id="edge78" class="edge">
<title>Node3&#45;&gt;Node39</title>
<path fill="none" stroke="#63b8ff" d="M518.43,-687.81C501.87,-678.58 480.06,-666.43 463.33,-657.11"/>
<polygon fill="#63b8ff" stroke="#63b8ff" points="517.07,-691.06 527.51,-692.87 520.47,-684.94 517.07,-691.06"/>
</g>
<!-- Node4&#45;&gt;Node5 -->
<g id="edge4" class="edge">
<title>Node4&#45;&gt;Node5</title>
<path fill="none" stroke="#63b8ff" d="M621.23,-622.08C620.11,-610.13 618.71,-595.22 617.83,-585.91"/>
<polygon fill="#63b8ff" stroke="#63b8ff" points="617.77,-622.74 622.19,-632.37 624.74,-622.09 617.77,-622.74"/>
</g>
<!-- Node6 -->
<g id="node6" class="node">
<title>Node6</title>
<g id="a_node6"><a xlink:href="indexer_8h.html" target="_top" xlink:title=" ">
<polygon fill="white" stroke="#666666" points="2072.5,-453.5 1949.5,-453.5 1949.5,-434.5 2072.5,-434.5 2072.5,-453.5"/>
<text text-anchor="middle" x="2011" y="-441.5" font-family="Helvetica,sans-Serif" font-size="10.00">src/indexing/indexer.h</text>
</a>
</g>
</g>
<!-- Node5&#45;&gt;Node6 -->
<g id="edge5" class="edge">
<title>Node5&#45;&gt;Node6</title>
<path fill="none" stroke="#63b8ff" d="M668.85,-570.16C885.17,-549.99 1715.36,-472.57 1949.31,-450.75"/>
<polygon fill="#63b8ff" stroke="#63b8ff" points="668.35,-566.7 658.72,-571.11 669,-573.67 668.35,-566.7"/>
</g>
<!-- Node11 -->
<g id="node11" class="node">
<title>Node11</title>
<g id="a_node11"><a xlink:href="visit__each__entry__in__map_8cpp.html" target="_top" xlink:title=" ">
<polygon fill="white" stroke="#666666" points="852.5,-525 691.5,-525 691.5,-495 852.5,-495 852.5,-525"/>
<text text-anchor="start" x="699.5" y="-513" font-family="Helvetica,sans-Serif" font-size="10.00">src/indexing/strategies</text>
<text text-anchor="middle" x="772" y="-502" font-family="Helvetica,sans-Serif" font-size="10.00">/visit_each_entry_in_map.cpp</text>
</a>
</g>
</g>
<!-- Node5&#45;&gt;Node11 -->
<g id="edge11" class="edge">
<title>Node5&#45;&gt;Node11</title>
<path fill="none" stroke="#63b8ff" d="M647.26,-562.5C673.26,-551.77 710.73,-536.3 737.81,-525.12"/>
<polygon fill="#63b8ff" stroke="#63b8ff" points="645.81,-559.32 637.9,-566.37 648.48,-565.79 645.81,-559.32"/>
</g>
<!-- Node12 -->
<g id="node12" class="node">
<title>Node12</title>
<g id="a_node12"><a xlink:href="historical__queries_8h.html" target="_top" xlink:title=" ">
<polygon fill="white" stroke="#666666" points="106,-393 0,-393 0,-363 106,-363 106,-393"/>
<text text-anchor="start" x="8" y="-381" font-family="Helvetica,sans-Serif" font-size="10.00">src/node/historical</text>
<text text-anchor="middle" x="53" y="-370" font-family="Helvetica,sans-Serif" font-size="10.00">_queries.h</text>
</a>
</g>
</g>
<!-- Node5&#45;&gt;Node12 -->
<g id="edge12" class="edge">
<title>Node5&#45;&gt;Node12</title>
<path fill="none" stroke="#63b8ff" d="M565.25,-570.96C471.38,-563.23 276.74,-545.33 212,-525 152.06,-506.18 129.52,-505.25 87,-459 69.43,-439.89 60.12,-410.35 55.91,-393.02"/>
<polygon fill="#63b8ff" stroke="#63b8ff" points="565.12,-574.46 575.37,-571.78 565.69,-567.48 565.12,-574.46"/>
</g>
<!-- Node14 -->
<g id="node14" class="node">
<title>Node14</title>
<g id="a_node14"><a xlink:href="history_8h.html" target="_top" xlink:title=" ">
<polygon fill="white" stroke="#666666" points="323,-519.5 221,-519.5 221,-500.5 323,-500.5 323,-519.5"/>
<text text-anchor="middle" x="272" y="-507.5" font-family="Helvetica,sans-Serif" font-size="10.00">src/node/history.h</text>
</a>
</g>
</g>
<!-- Node5&#45;&gt;Node14 -->
<g id="edge16" class="edge">
<title>Node5&#45;&gt;Node14</title>
<path fill="none" stroke="#63b8ff" d="M565.45,-565.44C498.34,-552.99 382.07,-531.42 317.88,-519.51"/>
<polygon fill="#63b8ff" stroke="#63b8ff" points="564.91,-568.9 575.38,-567.28 566.19,-562.01 564.91,-568.9"/>
</g>
<!-- Node16 -->
<g id="node16" class="node">
<title>Node16</title>
<g id="a_node16"><a xlink:href="snapshotter_8h.html" target="_top" xlink:title=" ">
<polygon fill="white" stroke="#666666" points="427.5,-321.5 300.5,-321.5 300.5,-302.5 427.5,-302.5 427.5,-321.5"/>
<text text-anchor="middle" x="364" y="-309.5" font-family="Helvetica,sans-Serif" font-size="10.00">src/node/snapshotter.h</text>
</a>
</g>
</g>
<!-- Node5&#45;&gt;Node16 -->
<g id="edge40" class="edge">
<title>Node5&#45;&gt;Node16</title>
<path fill="none" stroke="#63b8ff" d="M590.95,-561.48C575.82,-552.65 557.2,-539.99 544,-525 490.54,-464.28 518.13,-420.28 461,-363 441.2,-343.15 411.87,-329.54 390.65,-321.59"/>
<polygon fill="#63b8ff" stroke="#63b8ff" points="589.41,-564.63 599.84,-566.47 592.83,-558.53 589.41,-564.63"/>
</g>
<!-- Node19 -->
<g id="node19" class="node">
<title>Node19</title>
<g id="a_node19"><a xlink:href="frontend_8h.html" target="_top" xlink:title=" ">
<polygon fill="white" stroke="#666666" points="792.5,-387.5 663.5,-387.5 663.5,-368.5 792.5,-368.5 792.5,-387.5"/>
<text text-anchor="middle" x="728" y="-375.5" font-family="Helvetica,sans-Serif" font-size="10.00">src/node/rpc/frontend.h</text>
</a>
</g>
</g>
<!-- Node5&#45;&gt;Node19 -->
<g id="edge26" class="edge">
<title>Node5&#45;&gt;Node19</title>
<path fill="none" stroke="#63b8ff" d="M589.15,-561.43C575.26,-553.04 559.79,-540.82 552,-525 546.11,-513.04 545.68,-506.74 552,-495 583.76,-436.04 660.05,-402.1 700.97,-387.53"/>
<polygon fill="#63b8ff" stroke="#63b8ff" points="587.53,-564.54 597.96,-566.4 590.97,-558.44 587.53,-564.54"/>
</g>
<!-- Node26 -->
<g id="node26" class="node">
<title>Node26</title>
<g id="a_node26"><a xlink:href="network__tables_8h.html" target="_top" xlink:title=" ">
<polygon fill="white" stroke="#666666" points="673,-525 561,-525 561,-495 673,-495 673,-525"/>
<text text-anchor="start" x="569" y="-513" font-family="Helvetica,sans-Serif" font-size="10.00">src/service/network</text>
<text text-anchor="middle" x="617" y="-502" font-family="Helvetica,sans-Serif" font-size="10.00">_tables.h</text>
</a>
</g>
</g>
<!-- Node5&#45;&gt;Node26 -->
<g id="edge41" class="edge">
<title>Node5&#45;&gt;Node26</title>
<path fill="none" stroke="#63b8ff" d="M617,-556.35C617,-546.47 617,-534.51 617,-525.36"/>
<polygon fill="#63b8ff" stroke="#63b8ff" points="613.5,-556.37 617,-566.37 620.5,-556.37 613.5,-556.37"/>
</g>
<!-- Node7 -->
<g id="node7" class="node">
<title>Node7</title>
<g id="a_node7"><a xlink:href="node__state_8h.html" target="_top" xlink:title=" ">
<polygon fill="white" stroke="#666666" points="964,-189.5 840,-189.5 840,-170.5 964,-170.5 964,-189.5"/>
<text text-anchor="middle" x="902" y="-177.5" font-family="Helvetica,sans-Serif" font-size="10.00">src/node/node_state.h</text>
</a>
</g>
</g>
<!-- Node6&#45;&gt;Node7 -->
<g id="edge6" class="edge">
<title>Node6&#45;&gt;Node7</title>
<path fill="none" stroke="#63b8ff" d="M2038.47,-429.5C2071.78,-411.4 2126.27,-375.8 2149,-327 2176.82,-267.26 2099.22,-249.61 2036,-231 1933.21,-200.73 1186.52,-185.8 964.26,-182"/>
<polygon fill="#63b8ff" stroke="#63b8ff" points="2036.49,-426.58 2029.28,-434.34 2039.76,-432.78 2036.49,-426.58"/>
</g>
<!-- Node8 -->
<g id="node8" class="node">
<title>Node8</title>
<g id="a_node8"><a xlink:href="src_2enclave_2enclave_8h.html" target="_top" xlink:title=" ">
<polygon fill="white" stroke="#666666" points="963,-74 841,-74 841,-55 963,-55 963,-74"/>
<text text-anchor="middle" x="902" y="-62" font-family="Helvetica,sans-Serif" font-size="10.00">src/enclave/enclave.h</text>
</a>
</g>
</g>
<!-- Node7&#45;&gt;Node8 -->
<g id="edge7" class="edge">
<title>Node7&#45;&gt;Node8</title>
<path fill="none" stroke="#63b8ff" d="M917.08,-162.33C927.6,-148.61 938.81,-128.5 933,-110 928.6,-95.99 918.05,-82.53 910.48,-74.15"/>
<polygon fill="#63b8ff" stroke="#63b8ff" points="914.13,-160.4 910.45,-170.33 919.52,-164.86 914.13,-160.4"/>
</g>
<!-- Node10 -->
<g id="node10" class="node">
<title>Node10</title>
<g id="a_node10"><a xlink:href="gov__effects_8h.html" target="_top" xlink:title=" ">
<polygon fill="white" stroke="#666666" points="924,-129 780,-129 780,-110 924,-110 924,-129"/>
<text text-anchor="middle" x="852" y="-117" font-family="Helvetica,sans-Serif" font-size="10.00">src/node/rpc/gov_effects.h</text>
</a>
</g>
</g>
<!-- Node7&#45;&gt;Node10 -->
<g id="edge9" class="edge">
<title>Node7&#45;&gt;Node10</title>
<path fill="none" stroke="#63b8ff" d="M887.86,-162.45C878.6,-151.62 866.88,-137.91 859.41,-129.17"/>
<polygon fill="#63b8ff" stroke="#63b8ff" points="885.46,-165.04 894.62,-170.37 890.79,-160.49 885.46,-165.04"/>
</g>
<!-- Node9 -->
<g id="node9" class="node">
<title>Node9</title>
<g id="a_node9"><a xlink:href="enclave_2main_8cpp.html" target="_top" xlink:title=" ">
<polygon fill="white" stroke="#666666" points="962,-19 842,-19 842,0 962,0 962,-19"/>
<text text-anchor="middle" x="902" y="-7" font-family="Helvetica,sans-Serif" font-size="10.00">src/enclave/main.cpp</text>
</a>
</g>
</g>
<!-- Node8&#45;&gt;Node9 -->
<g id="edge8" class="edge">
<title>Node8&#45;&gt;Node9</title>
<path fill="none" stroke="#63b8ff" d="M902,-44.66C902,-35.93 902,-25.99 902,-19.09"/>
<polygon fill="#63b8ff" stroke="#63b8ff" points="898.5,-44.75 902,-54.75 905.5,-44.75 898.5,-44.75"/>
</g>
<!-- Node10&#45;&gt;Node8 -->
<g id="edge10" class="edge">
<title>Node10&#45;&gt;Node8</title>
<path fill="none" stroke="#63b8ff" d="M867.34,-102.24C876.1,-92.95 886.74,-81.68 893.9,-74.09"/>
<polygon fill="#63b8ff" stroke="#63b8ff" points="864.57,-100.07 860.26,-109.75 869.66,-104.88 864.57,-100.07"/>
</g>
<!-- Node12&#45;&gt;Node8 -->
<g id="edge13" class="edge">
<title>Node12&#45;&gt;Node8</title>
<path fill="none" stroke="#63b8ff" d="M63.57,-353.67C74.19,-328.06 89,-285.45 89,-247 89,-247 89,-247 89,-179 89,-103.11 651.82,-74.93 840.89,-67.61"/>
<polygon fill="#63b8ff" stroke="#63b8ff" points="60.32,-352.36 59.6,-362.93 66.76,-355.11 60.32,-352.36"/>
</g>
<!-- Node13 -->
<g id="node13" class="node">
<title>Node13</title>
<g id="a_node13"><a xlink:href="historical__transaction__fetcher_8h.html" target="_top" xlink:title=" ">
<polygon fill="white" stroke="#666666" points="433.5,-195 308.5,-195 308.5,-165 433.5,-165 433.5,-195"/>
<text text-anchor="start" x="316.5" y="-183" font-family="Helvetica,sans-Serif" font-size="10.00">src/indexing/historical</text>
<text text-anchor="middle" x="371" y="-172" font-family="Helvetica,sans-Serif" font-size="10.00">_transaction_fetcher.h</text>
</a>
</g>
</g>
<!-- Node12&#45;&gt;Node13 -->
<g id="edge14" class="edge">
<title>Node12&#45;&gt;Node13</title>
<path fill="none" stroke="#63b8ff" d="M78.18,-356.51C115.78,-326.52 189.52,-270 258,-231 282.51,-217.04 311.66,-204.23 334.21,-195.07"/>
<polygon fill="#63b8ff" stroke="#63b8ff" points="75.9,-353.85 70.29,-362.84 80.28,-359.31 75.9,-353.85"/>
</g>
<!-- Node13&#45;&gt;Node8 -->
<g id="edge15" class="edge">
<title>Node13&#45;&gt;Node8</title>
<path fill="none" stroke="#63b8ff" d="M406.17,-160.45C438.1,-144.46 486.96,-122.09 532,-110 638.23,-81.48 766.53,-71.21 840.75,-67.54"/>
<polygon fill="#63b8ff" stroke="#63b8ff" points="404.56,-157.34 397.22,-164.98 407.73,-163.58 404.56,-157.34"/>
</g>
<!-- Node14&#45;&gt;Node7 -->
<g id="edge18" class="edge">
<title>Node14&#45;&gt;Node7</title>
<path fill="none" stroke="#63b8ff" d="M272,-490.16C272,-464.87 272,-418.55 272,-379 272,-379 272,-379 272,-311 272,-195.83 680.93,-181.85 839.87,-180.77"/>
<polygon fill="#63b8ff" stroke="#63b8ff" points="268.5,-490.48 272,-500.48 275.5,-490.48 268.5,-490.48"/>
</g>
<!-- Node14&#45;&gt;Node12 -->
<g id="edge17" class="edge">
<title>Node14&#45;&gt;Node12</title>
<path fill="none" stroke="#63b8ff" d="M217.41,-498.04C187.76,-490.35 151.46,-477.97 123,-459 96.43,-441.29 73.8,-410.98 61.93,-393.19"/>
<polygon fill="#63b8ff" stroke="#63b8ff" points="216.64,-501.46 227.19,-500.48 218.33,-494.66 216.64,-501.46"/>
</g>
<!-- Node15 -->
<g id="node15" class="node">
<title>Node15</title>
<g id="a_node15"><a xlink:href="snapshot__serdes_8h.html" target="_top" xlink:title=" ">
<polygon fill="white" stroke="#666666" points="452,-387.5 300,-387.5 300,-368.5 452,-368.5 452,-387.5"/>
<text text-anchor="middle" x="376" y="-375.5" font-family="Helvetica,sans-Serif" font-size="10.00">src/node/snapshot_serdes.h</text>
</a>
</g>
</g>
<!-- Node14&#45;&gt;Node15 -->
<g id="edge19" class="edge">
<title>Node14&#45;&gt;Node15</title>
<path fill="none" stroke="#63b8ff" d="M285.23,-492.46C307.54,-464.58 351.88,-409.15 369.01,-387.73"/>
<polygon fill="#63b8ff" stroke="#63b8ff" points="282.34,-490.48 278.82,-500.47 287.8,-494.85 282.34,-490.48"/>
</g>
<!-- Node17 -->
<g id="node17" class="node">
<title>Node17</title>
<g id="a_node17"><a xlink:href="tx__receipt__impl_8h.html" target="_top" xlink:title=" ">
<polygon fill="white" stroke="#666666" points="242,-459 132,-459 132,-429 242,-429 242,-459"/>
<text text-anchor="start" x="140" y="-447" font-family="Helvetica,sans-Serif" font-size="10.00">src/node/tx_receipt</text>
<text text-anchor="middle" x="187" y="-436" font-family="Helvetica,sans-Serif" font-size="10.00">_impl.h</text>
</a>
</g>
</g>
<!-- Node14&#45;&gt;Node17 -->
<g id="edge22" class="edge">
<title>Node14&#45;&gt;Node17</title>
<path fill="none" stroke="#63b8ff" d="M252.5,-494.32C238.45,-483.74 219.62,-469.56 205.75,-459.12"/>
<polygon fill="#63b8ff" stroke="#63b8ff" points="250.44,-497.15 260.54,-500.37 254.65,-491.56 250.44,-497.15"/>
</g>
<!-- Node15&#45;&gt;Node16 -->
<g id="edge20" class="edge">
<title>Node15&#45;&gt;Node16</title>
<path fill="none" stroke="#63b8ff" d="M372.52,-358.45C370.27,-346.43 367.43,-331.32 365.67,-321.91"/>
<polygon fill="#63b8ff" stroke="#63b8ff" points="369.1,-359.18 374.38,-368.37 375.98,-357.89 369.1,-359.18"/>
</g>
<!-- Node16&#45;&gt;Node7 -->
<g id="edge21" class="edge">
<title>Node16&#45;&gt;Node7</title>
<path fill="none" stroke="#63b8ff" d="M400.07,-299.43C452.67,-282.82 553.66,-251.93 641,-231 712.79,-213.8 796.79,-198.57 849.7,-189.56"/>
<polygon fill="#63b8ff" stroke="#63b8ff" points="399,-296.1 390.52,-302.46 401.11,-302.77 399,-296.1"/>
</g>
<!-- Node17&#45;&gt;Node12 -->
<g id="edge23" class="edge">
<title>Node17&#45;&gt;Node12</title>
<path fill="none" stroke="#63b8ff" d="M148.29,-424.51C127.27,-414.47 101.7,-402.26 82.34,-393.01"/>
<polygon fill="#63b8ff" stroke="#63b8ff" points="147.06,-427.8 157.59,-428.95 150.08,-421.49 147.06,-427.8"/>
</g>
<!-- Node17&#45;&gt;Node15 -->
<g id="edge25" class="edge">
<title>Node17&#45;&gt;Node15</title>
<path fill="none" stroke="#63b8ff" d="M237.98,-425.74C274.52,-413.36 322.16,-397.23 350.85,-387.52"/>
<polygon fill="#63b8ff" stroke="#63b8ff" points="236.83,-422.43 228.48,-428.95 239.07,-429.06 236.83,-422.43"/>
</g>
<!-- Node18 -->
<g id="node18" class="node">
<title>Node18</title>
<g id="a_node18"><a xlink:href="historical__queries__adapter_8cpp.html" target="_top" xlink:title=" ">
<polygon fill="white" stroke="#666666" points="244,-393 124,-393 124,-363 244,-363 244,-393"/>
<text text-anchor="start" x="132" y="-381" font-family="Helvetica,sans-Serif" font-size="10.00">src/node/historical</text>
<text text-anchor="middle" x="184" y="-370" font-family="Helvetica,sans-Serif" font-size="10.00">_queries_adapter.cpp</text>
</a>
</g>
</g>
<!-- Node17&#45;&gt;Node18 -->
<g id="edge24" class="edge">
<title>Node17&#45;&gt;Node18</title>
<path fill="none" stroke="#63b8ff" d="M185.85,-418.54C185.45,-409.96 185.01,-400.61 184.66,-393.16"/>
<polygon fill="#63b8ff" stroke="#63b8ff" points="182.37,-418.97 186.33,-428.8 189.36,-418.64 182.37,-418.97"/>
</g>
<!-- Node19&#45;&gt;Node7 -->
<g id="edge31" class="edge">
<title>Node19&#45;&gt;Node7</title>
<path fill="none" stroke="#63b8ff" d="M757.34,-363.76C773.68,-355.18 793.41,-342.69 807,-327 837.61,-291.66 823.1,-269.24 850,-231 861.67,-214.41 879.4,-198.79 890.84,-189.56"/>
<polygon fill="#63b8ff" stroke="#63b8ff" points="755.55,-360.74 748.18,-368.35 758.69,-367 755.55,-360.74"/>
</g>
<!-- Node20 -->
<g id="node20" class="node">
<title>Node20</title>
<g id="a_node20"><a xlink:href="acme__challenge__frontend_8h.html" target="_top" xlink:title=" ">
<polygon fill="white" stroke="#666666" points="798,-327 658,-327 658,-297 798,-297 798,-327"/>
<text text-anchor="start" x="666" y="-315" font-family="Helvetica,sans-Serif" font-size="10.00">src/node/acme_challenge</text>
<text text-anchor="middle" x="728" y="-304" font-family="Helvetica,sans-Serif" font-size="10.00">_frontend.h</text>
</a>
</g>
</g>
<!-- Node19&#45;&gt;Node20 -->
<g id="edge27" class="edge">
<title>Node19&#45;&gt;Node20</title>
<path fill="none" stroke="#63b8ff" d="M728,-358.35C728,-348.47 728,-336.51 728,-327.36"/>
<polygon fill="#63b8ff" stroke="#63b8ff" points="724.5,-358.37 728,-368.37 731.5,-358.37 724.5,-358.37"/>
</g>
<!-- Node22 -->
<g id="node22" class="node">
<title>Node22</title>
<g id="a_node22"><a xlink:href="member__frontend_8h.html" target="_top" xlink:title=" ">
<polygon fill="white" stroke="#666666" points="1968,-327 1848,-327 1848,-297 1968,-297 1968,-327"/>
<text text-anchor="start" x="1856" y="-315" font-family="Helvetica,sans-Serif" font-size="10.00">src/node/rpc/member</text>
<text text-anchor="middle" x="1908" y="-304" font-family="Helvetica,sans-Serif" font-size="10.00">_frontend.h</text>
</a>
</g>
</g>
<!-- Node19&#45;&gt;Node22 -->
<g id="edge32" class="edge">
<title>Node19&#45;&gt;Node22</title>
<path fill="none" stroke="#63b8ff" d="M802.88,-369.51C828.58,-367.15 857.53,-364.71 884,-363 1291.02,-336.76 1394.59,-361.49 1801,-327 1816.21,-325.71 1832.59,-323.82 1847.84,-321.85"/>
<polygon fill="#63b8ff" stroke="#63b8ff" points="802.47,-366.03 792.84,-370.45 803.12,-373 802.47,-366.03"/>
</g>
<!-- Node23 -->
<g id="node23" class="node">
<title>Node23</title>
<g id="a_node23"><a xlink:href="node__frontend_8h.html" target="_top" xlink:title=" ">
<polygon fill="white" stroke="#666666" points="1088,-321.5 930,-321.5 930,-302.5 1088,-302.5 1088,-321.5"/>
<text text-anchor="middle" x="1009" y="-309.5" font-family="Helvetica,sans-Serif" font-size="10.00">src/node/rpc/node_frontend.h</text>
</a>
</g>
</g>
<!-- Node19&#45;&gt;Node23 -->
<g id="edge34" class="edge">
<title>Node19&#45;&gt;Node23</title>
<path fill="none" stroke="#63b8ff" d="M775.51,-366.18C830.83,-353.58 921.05,-333.03 971.62,-321.51"/>
<polygon fill="#63b8ff" stroke="#63b8ff" points="774.58,-362.8 765.61,-368.44 776.13,-369.63 774.58,-362.8"/>
</g>
<!-- Node25 -->
<g id="node25" class="node">
<title>Node25</title>
<g id="a_node25"><a xlink:href="user__frontend_8h.html" target="_top" xlink:title=" ">
<polygon fill="white" stroke="#666666" points="639.5,-321.5 484.5,-321.5 484.5,-302.5 639.5,-302.5 639.5,-321.5"/>
<text text-anchor="middle" x="562" y="-309.5" font-family="Helvetica,sans-Serif" font-size="10.00">src/node/rpc/user_frontend.h</text>
</a>
</g>
</g>
<!-- Node19&#45;&gt;Node25 -->
<g id="edge38" class="edge">
<title>Node19&#45;&gt;Node25</title>
<path fill="none" stroke="#63b8ff" d="M696.03,-364.68C663.23,-352.03 613.04,-332.68 584.3,-321.6"/>
<polygon fill="#63b8ff" stroke="#63b8ff" points="695.02,-368.04 705.61,-368.37 697.54,-361.51 695.02,-368.04"/>
</g>
<!-- Node20&#45;&gt;Node8 -->
<g id="edge28" class="edge">
<title>Node20&#45;&gt;Node8</title>
<path fill="none" stroke="#63b8ff" d="M675.71,-292.37C662.01,-284.83 648.87,-274.61 641,-261 634.32,-249.46 635.68,-243.22 641,-231 672.51,-158.63 703.24,-150.48 771,-110 799.87,-92.75 836.34,-81.06 863.47,-74.01"/>
<polygon fill="#63b8ff" stroke="#63b8ff" points="674.25,-295.55 684.75,-296.95 677.41,-289.31 674.25,-295.55"/>
</g>
<!-- Node21 -->
<g id="node21" class="node">
<title>Node21</title>
<g id="a_node21"><a xlink:href="ccf__acme__client_8h.html" target="_top" xlink:title=" ">
<polygon fill="white" stroke="#666666" points="798.5,-255.5 649.5,-255.5 649.5,-236.5 798.5,-236.5 798.5,-255.5"/>
<text text-anchor="middle" x="724" y="-243.5" font-family="Helvetica,sans-Serif" font-size="10.00">src/node/ccf_acme_client.h</text>
</a>
</g>
</g>
<!-- Node20&#45;&gt;Node21 -->
<g id="edge29" class="edge">
<title>Node20&#45;&gt;Node21</title>
<path fill="none" stroke="#63b8ff" d="M726.48,-286.6C725.8,-275.8 725.05,-263.78 724.55,-255.84"/>
<polygon fill="#63b8ff" stroke="#63b8ff" points="723,-287.03 727.11,-296.8 729.98,-286.6 723,-287.03"/>
</g>
<!-- Node21&#45;&gt;Node7 -->
<g id="edge30" class="edge">
<title>Node21&#45;&gt;Node7</title>
<path fill="none" stroke="#63b8ff" d="M757.82,-232.84C792.99,-220.2 847.13,-200.73 878.09,-189.6"/>
<polygon fill="#63b8ff" stroke="#63b8ff" points="756.23,-229.69 748.01,-236.37 758.6,-236.28 756.23,-229.69"/>
</g>
<!-- Node22&#45;&gt;Node8 -->
<g id="edge33" class="edge">
<title>Node22&#45;&gt;Node8</title>
<path fill="none" stroke="#63b8ff" d="M1907.18,-286.71C1904.25,-243.06 1891.22,-151.97 1834,-110 1798.88,-84.24 1164.64,-70.35 963.01,-66.57"/>
<polygon fill="#63b8ff" stroke="#63b8ff" points="1903.69,-286.94 1907.73,-296.73 1910.68,-286.56 1903.69,-286.94"/>
</g>
<!-- Node23&#45;&gt;Node8 -->
<g id="edge35" class="edge">
<title>Node23&#45;&gt;Node8</title>
<path fill="none" stroke="#63b8ff" d="M1036.16,-297.5C1049.91,-289.07 1065.29,-276.8 1073,-261 1078.85,-249.02 1078.2,-243.28 1073,-231 1040.35,-153.97 952.36,-95.25 917.01,-74.07"/>
<polygon fill="#63b8ff" stroke="#63b8ff" points="1034.39,-294.48 1027.45,-302.49 1037.87,-300.55 1034.39,-294.48"/>
</g>
<!-- Node24 -->
<g id="node24" class="node">
<title>Node24</title>
<g id="a_node24"><a xlink:href="jwt__key__auto__refresh_8h.html" target="_top" xlink:title=" ">
<polygon fill="white" stroke="#666666" points="1063.5,-261 938.5,-261 938.5,-231 1063.5,-231 1063.5,-261"/>
<text text-anchor="start" x="946.5" y="-249" font-family="Helvetica,sans-Serif" font-size="10.00">src/node/jwt_key_auto</text>
<text text-anchor="middle" x="1001" y="-238" font-family="Helvetica,sans-Serif" font-size="10.00">_refresh.h</text>
</a>
</g>
</g>
<!-- Node23&#45;&gt;Node24 -->
<g id="edge36" class="edge">
<title>Node23&#45;&gt;Node24</title>
<path fill="none" stroke="#63b8ff" d="M1006.67,-292.35C1005.43,-282.47 1003.94,-270.51 1002.8,-261.36"/>
<polygon fill="#63b8ff" stroke="#63b8ff" points="1003.21,-292.88 1007.92,-302.37 1010.15,-292.01 1003.21,-292.88"/>
</g>
<!-- Node24&#45;&gt;Node7 -->
<g id="edge37" class="edge">
<title>Node24&#45;&gt;Node7</title>
<path fill="none" stroke="#63b8ff" d="M970.62,-225.36C952.15,-213.42 929.49,-198.77 915.39,-189.66"/>
<polygon fill="#63b8ff" stroke="#63b8ff" points="968.73,-228.31 979.03,-230.8 972.53,-222.43 968.73,-228.31"/>
</g>
<!-- Node25&#45;&gt;Node8 -->
<g id="edge39" class="edge">
<title>Node25&#45;&gt;Node8</title>
<path fill="none" stroke="#63b8ff" d="M570.47,-293.28C585,-264.12 616.94,-205.26 656,-165 686.05,-134.03 696.82,-128.07 736,-110 773.66,-92.63 819.36,-81.01 853.27,-74.01"/>
<polygon fill="#63b8ff" stroke="#63b8ff" points="567.32,-291.75 566.07,-302.27 573.61,-294.83 567.32,-291.75"/>
</g>
<!-- Node26&#45;&gt;Node21 -->
<g id="edge42" class="edge">
<title>Node26&#45;&gt;Node21</title>
<path fill="none" stroke="#63b8ff" d="M598.5,-486.99C561.51,-442.73 481.4,-345.6 475,-327 470.66,-314.39 466.55,-307.31 475,-297 486.75,-282.65 590.61,-265.57 660.43,-255.54"/>
<polygon fill="#63b8ff" stroke="#63b8ff" points="595.98,-489.43 605.09,-494.85 601.35,-484.94 595.98,-489.43"/>
</g>
<!-- Node27 -->
<g id="node27" class="node">
<title>Node27</title>
<g id="a_node27"><a xlink:href="network__state_8h.html" target="_top" xlink:title=" ">
<polygon fill="white" stroke="#666666" points="986,-453.5 846,-453.5 846,-434.5 986,-434.5 986,-453.5"/>
<text text-anchor="middle" x="916" y="-441.5" font-family="Helvetica,sans-Serif" font-size="10.00">src/node/network_state.h</text>
</a>
</g>
</g>
<!-- Node26&#45;&gt;Node27 -->
<g id="edge43" class="edge">
<title>Node26&#45;&gt;Node27</title>
<path fill="none" stroke="#63b8ff" d="M683.23,-494.82C742.36,-482.17 827,-464.05 876.25,-453.51"/>
<polygon fill="#63b8ff" stroke="#63b8ff" points="682.29,-491.45 673.24,-496.96 683.75,-498.29 682.29,-491.45"/>
</g>
<!-- Node38 -->
<g id="node38" class="node">
<title>Node38</title>
<g id="a_node38"><a xlink:href="genesis__gen_8h.html" target="_top" xlink:title=" ">
<polygon fill="white" stroke="#666666" points="1469,-459 1359,-459 1359,-429 1469,-429 1469,-459"/>
<text text-anchor="start" x="1367" y="-447" font-family="Helvetica,sans-Serif" font-size="10.00">src/service/genesis</text>
<text text-anchor="middle" x="1414" y="-436" font-family="Helvetica,sans-Serif" font-size="10.00">_gen.h</text>
</a>
</g>
</g>
<!-- Node26&#45;&gt;Node38 -->
<g id="edge71" class="edge">
<title>Node26&#45;&gt;Node38</title>
<path fill="none" stroke="#63b8ff" d="M682.7,-495.04C682.8,-495.03 682.9,-495.01 683,-495 933.71,-460.01 1236.36,-449.21 1358.71,-446.13"/>
<polygon fill="#63b8ff" stroke="#63b8ff" points="682.41,-491.54 673.07,-496.54 683.49,-498.46 682.41,-491.54"/>
</g>
<!-- Node27&#45;&gt;Node7 -->
<g id="edge62" class="edge">
<title>Node27&#45;&gt;Node7</title>
<path fill="none" stroke="#63b8ff" d="M901.91,-426.33C895.06,-417.14 887.55,-405.14 884,-393 861.7,-316.78 889.55,-219.05 899.05,-189.71"/>
<polygon fill="#63b8ff" stroke="#63b8ff" points="899.18,-428.53 908.12,-434.21 904.67,-424.19 899.18,-428.53"/>
</g>
<!-- Node27&#45;&gt;Node8 -->
<g id="edge44" class="edge">
<title>Node27&#45;&gt;Node8</title>
<path fill="none" stroke="#63b8ff" d="M996.24,-440.49C1222.76,-433.21 1856.72,-411.44 1949,-393 2108.27,-361.17 2284,-409.41 2284,-247 2284,-247 2284,-247 2284,-179 2284,-111.74 1230.62,-75.41 963.17,-67.27"/>
<polygon fill="#63b8ff" stroke="#63b8ff" points="995.97,-437 986.09,-440.82 996.2,-443.99 995.97,-437"/>
</g>
<!-- Node27&#45;&gt;Node16 -->
<g id="edge70" class="edge">
<title>Node27&#45;&gt;Node16</title>
<path fill="none" stroke="#63b8ff" d="M835.49,-433.51C772.73,-425.26 683.64,-411.69 607,-393 523.94,-372.74 428.39,-337.71 386.1,-321.59"/>
<polygon fill="#63b8ff" stroke="#63b8ff" points="835.36,-437.02 845.73,-434.84 836.26,-430.08 835.36,-437.02"/>
</g>
<!-- Node27&#45;&gt;Node20 -->
<g id="edge61" class="edge">
<title>Node27&#45;&gt;Node20</title>
<path fill="none" stroke="#63b8ff" d="M895.52,-428.46C872.76,-412.35 834.87,-385.64 802,-363 784.25,-350.78 763.96,-337.09 749.12,-327.13"/>
<polygon fill="#63b8ff" stroke="#63b8ff" points="893.55,-431.36 903.73,-434.29 897.6,-425.65 893.55,-431.36"/>
</g>
<!-- Node27&#45;&gt;Node23 -->
<g id="edge63" class="edge">
<title>Node27&#45;&gt;Node23</title>
<path fill="none" stroke="#63b8ff" d="M995.84,-431.98C1018.68,-424.72 1041.13,-412.73 1055,-393 1072.32,-368.36 1039.39,-336.77 1020.68,-321.72"/>
<polygon fill="#63b8ff" stroke="#63b8ff" points="994.68,-428.67 986.05,-434.81 996.63,-435.4 994.68,-428.67"/>
</g>
<!-- Node27&#45;&gt;Node25 -->
<g id="edge64" class="edge">
<title>Node27&#45;&gt;Node25</title>
<path fill="none" stroke="#63b8ff" d="M835.78,-438.41C782.35,-432.81 711.79,-420.42 655,-393 617.79,-375.03 583.57,-338.36 569.18,-321.64"/>
<polygon fill="#63b8ff" stroke="#63b8ff" points="835.59,-441.91 845.88,-439.41 836.28,-434.94 835.59,-441.91"/>
</g>
<!-- Node28 -->
<g id="node28" class="node">
<title>Node28</title>
<g id="a_node28"><a xlink:href="wrap_8h.html" target="_top" xlink:title=" ">
<polygon fill="white" stroke="#666666" points="1552,-387.5 1474,-387.5 1474,-368.5 1552,-368.5 1552,-387.5"/>
<text text-anchor="middle" x="1513" y="-375.5" font-family="Helvetica,sans-Serif" font-size="10.00">src/js/wrap.h</text>
</a>
</g>
</g>
<!-- Node27&#45;&gt;Node28 -->
<g id="edge45" class="edge">
<title>Node27&#45;&gt;Node28</title>
<path fill="none" stroke="#63b8ff" d="M996.51,-434.37C1126.3,-420.45 1376.99,-393.58 1473.66,-383.22"/>
<polygon fill="#63b8ff" stroke="#63b8ff" points="995.81,-430.92 986.24,-435.47 996.56,-437.88 995.81,-430.92"/>
</g>
<!-- Node36 -->
<g id="node36" class="node">
<title>Node36</title>
<g id="a_node36"><a xlink:href="secret__broadcast_8h.html" target="_top" xlink:title=" ">
<polygon fill="white" stroke="#666666" points="1045.5,-387.5 892.5,-387.5 892.5,-368.5 1045.5,-368.5 1045.5,-387.5"/>
<text text-anchor="middle" x="969" y="-375.5" font-family="Helvetica,sans-Serif" font-size="10.00">src/node/secret_broadcast.h</text>
</a>
</g>
</g>
<!-- Node27&#45;&gt;Node36 -->
<g id="edge65" class="edge">
<title>Node27&#45;&gt;Node36</title>
<path fill="none" stroke="#63b8ff" d="M929.56,-426.62C939.76,-414.31 953.35,-397.89 961.63,-387.91"/>
<polygon fill="#63b8ff" stroke="#63b8ff" points="926.83,-424.43 923.15,-434.37 932.22,-428.9 926.83,-424.43"/>
</g>
<!-- Node37 -->
<g id="node37" class="node">
<title>Node37</title>
<g id="a_node37"><a xlink:href="share__manager_8h.html" target="_top" xlink:title=" ">
<polygon fill="white" stroke="#666666" points="1939.5,-387.5 1794.5,-387.5 1794.5,-368.5 1939.5,-368.5 1939.5,-387.5"/>
<text text-anchor="middle" x="1867" y="-375.5" font-family="Helvetica,sans-Serif" font-size="10.00">src/node/share_manager.h</text>
</a>
</g>
</g>
<!-- Node27&#45;&gt;Node37 -->
<g id="edge67" class="edge">
<title>Node27&#45;&gt;Node37</title>
<path fill="none" stroke="#63b8ff" d="M996.36,-437.59C1178.43,-425.34 1620.08,-395.62 1794.45,-383.88"/>
<polygon fill="#63b8ff" stroke="#63b8ff" points="996.06,-434.1 986.32,-438.27 996.53,-441.09 996.06,-434.1"/>
</g>
<!-- Node28&#45;&gt;Node7 -->
<g id="edge58" class="edge">
<title>Node28&#45;&gt;Node7</title>
<path fill="none" stroke="#63b8ff" d="M1463.53,-375.54C1373.82,-372.08 1188.6,-360.93 1135,-327 1092.09,-299.83 1113.71,-261.37 1073,-231 1041.39,-207.42 998.85,-194.93 964.11,-188.32"/>
<polygon fill="#63b8ff" stroke="#63b8ff" points="1463.6,-379.05 1473.72,-375.92 1463.86,-372.05 1463.6,-379.05"/>
</g>
<!-- Node28&#45;&gt;Node8 -->
<g id="edge47" class="edge">
<title>Node28&#45;&gt;Node8</title>
<path fill="none" stroke="#63b8ff" d="M1562.48,-369.85C1642.51,-358.08 1792.35,-335.13 1801,-327 1827.62,-301.96 1820,-283.54 1820,-247 1820,-247 1820,-247 1820,-179 1820,-92.43 1168.73,-71.17 963.3,-66.62"/>
<polygon fill="#63b8ff" stroke="#63b8ff" points="1561.53,-366.45 1552.14,-371.37 1562.54,-373.38 1561.53,-366.45"/>
</g>
<!-- Node28&#45;&gt;Node22 -->
<g id="edge59" class="edge">
<title>Node28&#45;&gt;Node22</title>
<path fill="none" stroke="#63b8ff" d="M1562.35,-369.51C1638.89,-357.87 1782.77,-335.83 1834,-327 1838.51,-326.22 1843.17,-325.4 1847.85,-324.55"/>
<polygon fill="#63b8ff" stroke="#63b8ff" points="1561.37,-366.12 1552.01,-371.09 1562.42,-373.04 1561.37,-366.12"/>
</g>
<!-- Node28&#45;&gt;Node23 -->
<g id="edge60" class="edge">
<title>Node28&#45;&gt;Node23</title>
<path fill="none" stroke="#63b8ff" d="M1463.47,-371.43C1386.18,-362.64 1232.27,-344.73 1102,-327 1089.7,-325.33 1076.51,-323.41 1064.04,-321.55"/>
<polygon fill="#63b8ff" stroke="#63b8ff" points="1463.52,-374.96 1473.85,-372.61 1464.31,-368.01 1463.52,-374.96"/>
</g>
<!-- Node29 -->
<g id="node29" class="node">
<title>Node29</title>
<g id="a_node29"><a xlink:href="js__generic__base_8cpp.html" target="_top" xlink:title=" ">
<polygon fill="white" stroke="#666666" points="2104,-327 1986,-327 1986,-297 2104,-297 2104,-327"/>
<text text-anchor="start" x="1994" y="-315" font-family="Helvetica,sans-Serif" font-size="10.00">src/apps/js_generic</text>
<text text-anchor="middle" x="2045" y="-304" font-family="Helvetica,sans-Serif" font-size="10.00">/js_generic_base.cpp</text>
</a>
</g>
</g>
<!-- Node28&#45;&gt;Node29 -->
<g id="edge46" class="edge">
<title>Node28&#45;&gt;Node29</title>
<path fill="none" stroke="#63b8ff" d="M1562.41,-373.24C1647.44,-366.42 1826.77,-350.5 1977,-327 1979.86,-326.55 1982.78,-326.07 1985.72,-325.55"/>
<polygon fill="#63b8ff" stroke="#63b8ff" points="1561.97,-369.76 1552.27,-374.04 1562.52,-376.74 1561.97,-369.76"/>
</g>
<!-- Node30 -->
<g id="node30" class="node">
<title>Node30</title>
<g id="a_node30"><a xlink:href="consensus_8cpp.html" target="_top" xlink:title=" ">
<polygon fill="white" stroke="#666666" points="1388,-321.5 1272,-321.5 1272,-302.5 1388,-302.5 1388,-321.5"/>
<text text-anchor="middle" x="1330" y="-309.5" font-family="Helvetica,sans-Serif" font-size="10.00">src/js/consensus.cpp</text>
</a>
</g>
</g>
<!-- Node28&#45;&gt;Node30 -->
<g id="edge48" class="edge">
<title>Node28&#45;&gt;Node30</title>
<path fill="none" stroke="#63b8ff" d="M1478.69,-365C1442.55,-352.36 1386.55,-332.78 1354.58,-321.6"/>
<polygon fill="#63b8ff" stroke="#63b8ff" points="1477.72,-368.37 1488.32,-368.37 1480.04,-361.76 1477.72,-368.37"/>
</g>
<!-- Node31 -->
<g id="node31" class="node">
<title>Node31</title>
<g id="a_node31"><a xlink:href="wrap_8cpp.html" target="_top" xlink:title=" ">
<polygon fill="white" stroke="#666666" points="1603.5,-255.5 1514.5,-255.5 1514.5,-236.5 1603.5,-236.5 1603.5,-255.5"/>
<text text-anchor="middle" x="1559" y="-243.5" font-family="Helvetica,sans-Serif" font-size="10.00">src/js/wrap.cpp</text>
</a>
</g>
</g>
<!-- Node28&#45;&gt;Node31 -->
<g id="edge57" class="edge">
<title>Node28&#45;&gt;Node31</title>
<path fill="none" stroke="#63b8ff" d="M1562.26,-372.74C1592.69,-367.27 1629.54,-354.9 1649,-327 1656.63,-316.07 1655.76,-308.49 1649,-297 1636.49,-275.74 1611.32,-262.87 1590.76,-255.53"/>
<polygon fill="#63b8ff" stroke="#63b8ff" points="1561.54,-369.31 1552.22,-374.34 1562.64,-376.22 1561.54,-369.31"/>
</g>
<!-- Node32 -->
<g id="node32" class="node">
<title>Node32</title>
<g id="a_node32"><a xlink:href="conv_8cpp.html" target="_top" xlink:title=" ">
<polygon fill="white" stroke="#666666" points="1494,-321.5 1406,-321.5 1406,-302.5 1494,-302.5 1494,-321.5"/>
<text text-anchor="middle" x="1450" y="-309.5" font-family="Helvetica,sans-Serif" font-size="10.00">src/js/conv.cpp</text>
</a>
</g>
</g>
<!-- Node28&#45;&gt;Node32 -->
<g id="edge50" class="edge">
<title>Node28&#45;&gt;Node32</title>
<path fill="none" stroke="#63b8ff" d="M1497.23,-360.98C1485.06,-348.62 1468.69,-331.99 1458.77,-321.91"/>
<polygon fill="#63b8ff" stroke="#63b8ff" points="1494.99,-363.7 1504.5,-368.37 1499.98,-358.79 1494.99,-363.7"/>
</g>
<!-- Node33 -->
<g id="node33" class="node">
<title>Node33</title>
<g id="a_node33"><a xlink:href="crypto_8cpp.html" target="_top" xlink:title=" ">
<polygon fill="white" stroke="#666666" points="1792,-321.5 1696,-321.5 1696,-302.5 1792,-302.5 1792,-321.5"/>
<text text-anchor="middle" x="1744" y="-309.5" font-family="Helvetica,sans-Serif" font-size="10.00">src/js/crypto.cpp</text>
</a>
</g>
</g>
<!-- Node28&#45;&gt;Node33 -->
<g id="edge52" class="edge">
<title>Node28&#45;&gt;Node33</title>
<path fill="none" stroke="#63b8ff" d="M1553.99,-365.64C1599.5,-353.03 1671.93,-332.97 1712.97,-321.6"/>
<polygon fill="#63b8ff" stroke="#63b8ff" points="1552.86,-362.33 1544.15,-368.37 1554.73,-369.07 1552.86,-362.33"/>
</g>
<!-- Node34 -->
<g id="node34" class="node">
<title>Node34</title>
<g id="a_node34"><a xlink:href="historical_8cpp.html" target="_top" xlink:title=" ">
<polygon fill="white" stroke="#666666" points="1254,-321.5 1144,-321.5 1144,-302.5 1254,-302.5 1254,-321.5"/>
<text text-anchor="middle" x="1199" y="-309.5" font-family="Helvetica,sans-Serif" font-size="10.00">src/js/historical.cpp</text>
</a>
</g>
</g>
<!-- Node28&#45;&gt;Node34 -->
<g id="edge54" class="edge">
<title>Node28&#45;&gt;Node34</title>
<path fill="none" stroke="#63b8ff" d="M1464,-367.47C1413.56,-357.6 1332.71,-341.59 1263,-327 1254.76,-325.28 1245.94,-323.38 1237.56,-321.55"/>
<polygon fill="#63b8ff" stroke="#63b8ff" points="1463.5,-370.94 1473.98,-369.42 1464.84,-364.07 1463.5,-370.94"/>
</g>
<!-- Node35 -->
<g id="node35" class="node">
<title>Node35</title>
<g id="a_node35"><a xlink:href="openenclave_8cpp.html" target="_top" xlink:title=" ">
<polygon fill="white" stroke="#666666" points="1640,-321.5 1512,-321.5 1512,-302.5 1640,-302.5 1640,-321.5"/>
<text text-anchor="middle" x="1576" y="-309.5" font-family="Helvetica,sans-Serif" font-size="10.00">src/js/openenclave.cpp</text>
</a>
</g>
</g>
<!-- Node28&#45;&gt;Node35 -->
<g id="edge56" class="edge">
<title>Node28&#45;&gt;Node35</title>
<path fill="none" stroke="#63b8ff" d="M1528.77,-360.98C1540.94,-348.62 1557.31,-331.99 1567.23,-321.91"/>
<polygon fill="#63b8ff" stroke="#63b8ff" points="1526.02,-358.79 1521.5,-368.37 1531.01,-363.7 1526.02,-358.79"/>
</g>
<!-- Node30&#45;&gt;Node31 -->
<g id="edge49" class="edge">
<title>Node30&#45;&gt;Node31</title>
<path fill="none" stroke="#63b8ff" d="M1370.64,-299.64C1415.75,-287.03 1487.56,-266.97 1528.24,-255.6"/>
<polygon fill="#63b8ff" stroke="#63b8ff" points="1369.57,-296.31 1360.88,-302.37 1371.46,-303.05 1369.57,-296.31"/>
</g>
<!-- Node32&#45;&gt;Node31 -->
<g id="edge51" class="edge">
<title>Node32&#45;&gt;Node31</title>
<path fill="none" stroke="#63b8ff" d="M1473.52,-297.19C1494.97,-284.59 1526.01,-266.37 1544.18,-255.7"/>
<polygon fill="#63b8ff" stroke="#63b8ff" points="1471.55,-294.29 1464.7,-302.37 1475.1,-300.32 1471.55,-294.29"/>
</g>
<!-- Node33&#45;&gt;Node31 -->
<g id="edge53" class="edge">
<title>Node33&#45;&gt;Node31</title>
<path fill="none" stroke="#63b8ff" d="M1709.32,-299C1672.78,-286.36 1616.16,-266.78 1583.85,-255.6"/>
<polygon fill="#63b8ff" stroke="#63b8ff" points="1708.46,-302.41 1719.05,-302.37 1710.74,-295.79 1708.46,-302.41"/>
</g>
<!-- Node34&#45;&gt;Node31 -->
<g id="edge55" class="edge">
<title>Node34&#45;&gt;Node31</title>
<path fill="none" stroke="#63b8ff" d="M1246.44,-300.36C1252.01,-299.19 1257.63,-298.04 1263,-297 1351.9,-279.78 1456.48,-262.9 1514.5,-253.83"/>
<polygon fill="#63b8ff" stroke="#63b8ff" points="1245.55,-296.97 1236.5,-302.48 1247.01,-303.81 1245.55,-296.97"/>
</g>
<!-- Node36&#45;&gt;Node7 -->
<g id="edge66" class="edge">
<title>Node36&#45;&gt;Node7</title>
<path fill="none" stroke="#63b8ff" d="M949.19,-361.7C939.04,-352.74 927.49,-340.53 921,-327 898.12,-279.29 899.82,-213.28 901.31,-189.76"/>
<polygon fill="#63b8ff" stroke="#63b8ff" points="946.98,-364.43 956.9,-368.16 951.48,-359.06 946.98,-364.43"/>
</g>
<!-- Node37&#45;&gt;Node7 -->
<g id="edge68" class="edge">
<title>Node37&#45;&gt;Node7</title>
<path fill="none" stroke="#63b8ff" d="M1949.9,-375.35C2039.47,-370.7 2163.1,-354.15 2113,-297 2036.6,-209.85 1200.92,-186.87 964.17,-182.09"/>
<polygon fill="#63b8ff" stroke="#63b8ff" points="1949.53,-371.87 1939.7,-375.84 1949.86,-378.86 1949.53,-371.87"/>
</g>
<!-- Node37&#45;&gt;Node22 -->
<g id="edge69" class="edge">
<title>Node37&#45;&gt;Node22</title>
<path fill="none" stroke="#63b8ff" d="M1877.94,-359.92C1884.45,-349.76 1892.62,-337.01 1898.8,-327.36"/>
<polygon fill="#63b8ff" stroke="#63b8ff" points="1874.98,-358.06 1872.53,-368.37 1880.87,-361.84 1874.98,-358.06"/>
</g>
<!-- Node38&#45;&gt;Node7 -->
<g id="edge72" class="edge">
<title>Node38&#45;&gt;Node7</title>
<path fill="none" stroke="#63b8ff" d="M1479.25,-441.26C1670.1,-434.88 2209.13,-407.01 2132,-297 2082.61,-226.55 2034.37,-247.91 1950,-231 1759.68,-192.86 1159.89,-183.57 964.33,-181.53"/>
<polygon fill="#63b8ff" stroke="#63b8ff" points="1478.96,-437.77 1469.08,-441.59 1479.18,-444.76 1478.96,-437.77"/>
</g>
<!-- Node38&#45;&gt;Node22 -->
<g id="edge73" class="edge">
<title>Node38&#45;&gt;Node22</title>
<path fill="none" stroke="#63b8ff" d="M1477.12,-426.39C1575.25,-400.57 1762.63,-351.26 1854.51,-327.08"/>
<polygon fill="#63b8ff" stroke="#63b8ff" points="1476.12,-423.03 1467.34,-428.96 1477.9,-429.8 1476.12,-423.03"/>
</g>
<!-- Node38&#45;&gt;Node23 -->
<g id="edge74" class="edge">
<title>Node38&#45;&gt;Node23</title>
<path fill="none" stroke="#63b8ff" d="M1360.51,-425.83C1272.74,-397.66 1101.33,-342.64 1035.57,-321.53"/>
<polygon fill="#63b8ff" stroke="#63b8ff" points="1359.68,-429.24 1370.27,-428.96 1361.82,-422.58 1359.68,-429.24"/>
</g>
<!-- Node38&#45;&gt;Node36 -->
<g id="edge75" class="edge">
<title>Node38&#45;&gt;Node36</title>
<path fill="none" stroke="#63b8ff" d="M1349.05,-433.66C1262.72,-421.24 1111.41,-399.48 1028.13,-387.5"/>
<polygon fill="#63b8ff" stroke="#63b8ff" points="1348.59,-437.13 1358.99,-435.09 1349.59,-430.2 1348.59,-437.13"/>
</g>
<!-- Node38&#45;&gt;Node37 -->
<g id="edge76" class="edge">
<title>Node38&#45;&gt;Node37</title>
<path fill="none" stroke="#63b8ff" d="M1479.18,-433.79C1566.8,-421.41 1721.39,-399.57 1806.53,-387.54"/>
<polygon fill="#63b8ff" stroke="#63b8ff" points="1478.51,-430.35 1469.09,-435.22 1479.49,-437.28 1478.51,-430.35"/>
</g>
<!-- Node39&#45;&gt;Node19 -->
<g id="edge80" class="edge">
<title>Node39&#45;&gt;Node19</title>
<path fill="none" stroke="#63b8ff" d="M447.38,-617.29C465.83,-573.67 510.94,-480.45 578,-429 606.42,-407.19 644.85,-394.63 675.69,-387.55"/>
<polygon fill="#63b8ff" stroke="#63b8ff" points="444.05,-616.2 443.46,-626.78 450.52,-618.88 444.05,-616.2"/>
</g>
<!-- Node40 -->
<g id="node40" class="node">
<title>Node40</title>
<g id="a_node40"><a xlink:href="external__executor_8cpp.html" target="_top" xlink:title=" ">
<polygon fill="white" stroke="#666666" points="417,-591 269,-591 269,-561 417,-561 417,-591"/>
<text text-anchor="start" x="277" y="-579" font-family="Helvetica,sans-Serif" font-size="10.00">src/apps/external_executor</text>
<text text-anchor="middle" x="343" y="-568" font-family="Helvetica,sans-Serif" font-size="10.00">/external_executor.cpp</text>
</a>
</g>
</g>
<!-- Node39&#45;&gt;Node40 -->
<g id="edge79" class="edge">
<title>Node39&#45;&gt;Node40</title>
<path fill="none" stroke="#63b8ff" d="M408.35,-621.03C393.98,-611.34 377.05,-599.94 364.02,-591.16"/>
<polygon fill="#63b8ff" stroke="#63b8ff" points="406.67,-624.11 416.92,-626.8 410.58,-618.31 406.67,-624.11"/>
</g>
<!-- Node41&#45;&gt;Node5 -->
<g id="edge86" class="edge">
<title>Node41&#45;&gt;Node5</title>
<path fill="none" stroke="#63b8ff" d="M2097.02,-637.99C1824.34,-626.76 870.12,-587.43 658.7,-578.72"/>
<polygon fill="#63b8ff" stroke="#63b8ff" points="2097.06,-641.5 2107.2,-638.41 2097.35,-634.5 2097.06,-641.5"/>
</g>
<!-- Node41&#45;&gt;Node29 -->
<g id="edge84" class="edge">
<title>Node41&#45;&gt;Node29</title>
<path fill="none" stroke="#63b8ff" d="M2170,-622.16C2170,-596.87 2170,-550.55 2170,-511 2170,-511 2170,-511 2170,-443 2170,-387.89 2110.92,-347.11 2073.99,-327.01"/>
<polygon fill="#63b8ff" stroke="#63b8ff" points="2166.5,-622.48 2170,-632.48 2173.5,-622.48 2166.5,-622.48"/>
</g>
<!-- Node41&#45;&gt;Node31 -->
<g id="edge85" class="edge">
<title>Node41&#45;&gt;Node31</title>
<path fill="none" stroke="#63b8ff" d="M2186.86,-625.11C2209.25,-602.21 2246,-557.54 2246,-511 2246,-511 2246,-511 2246,-377 2246,-308.02 2178.57,-318.42 2113,-297 2018.56,-266.15 1718.07,-252.59 1603.74,-248.46"/>
<polygon fill="#63b8ff" stroke="#63b8ff" points="2184.27,-622.75 2179.63,-632.27 2189.2,-627.73 2184.27,-622.75"/>
</g>
<!-- Node42 -->
<g id="node42" class="node">
<title>Node42</title>
<g id="a_node42"><a xlink:href="tx_8cpp.html" target="_top" xlink:title=" ">
<polygon fill="white" stroke="#666666" points="2353.5,-585.5 2274.5,-585.5 2274.5,-566.5 2353.5,-566.5 2353.5,-585.5"/>
<text text-anchor="middle" x="2314" y="-573.5" font-family="Helvetica,sans-Serif" font-size="10.00">src/kv/tx.cpp</text>
</a>
</g>
</g>
<!-- Node41&#45;&gt;Node42 -->
<g id="edge87" class="edge">
<title>Node41&#45;&gt;Node42</title>
<path fill="none" stroke="#63b8ff" d="M2198.81,-628.19C2227.19,-615.58 2269.77,-596.66 2294.43,-585.7"/>
<polygon fill="#63b8ff" stroke="#63b8ff" points="2197.14,-625.11 2189.42,-632.37 2199.98,-631.51 2197.14,-625.11"/>
</g>
</g>
</svg>
